solid CATIA STL
  facet normal  1.000000e+000  0.000000e+000  0.000000e+000
    outer loop
      vertex  9.500000e+000 -1.700000e+001  6.000000e+000
      vertex  9.500000e+000 -1.700000e+001  4.000000e+000
      vertex  9.500000e+000  1.700000e+001  4.000000e+000
    endloop
  endfacet
  facet normal  1.000000e+000  0.000000e+000  -0.000000e+000
    outer loop
      vertex  9.500000e+000 -1.700000e+001  6.000000e+000
      vertex  9.500000e+000  1.700000e+001  4.000000e+000
      vertex  9.500000e+000  1.700000e+001  6.000000e+000
    endloop
  endfacet
  facet normal  1.000000e+000  0.000000e+000  0.000000e+000
    outer loop
      vertex  9.500000e+000 -1.700000e+001  6.000000e+000
      vertex  9.500000e+000  1.700000e+001  6.000000e+000
      vertex  9.500000e+000  1.333330e+001  7.000000e+000
    endloop
  endfacet
  facet normal  1.000000e+000  0.000000e+000  0.000000e+000
    outer loop
      vertex  9.500000e+000 -1.700000e+001  6.000000e+000
      vertex  9.500000e+000  1.333330e+001  7.000000e+000
      vertex  9.500000e+000 -1.836910e-016  7.000000e+000
    endloop
  endfacet
  facet normal  1.000000e+000  0.000000e+000  0.000000e+000
    outer loop
      vertex  9.500000e+000 -1.700000e+001  6.000000e+000
      vertex  9.500000e+000 -1.836910e-016  7.000000e+000
      vertex  9.500000e+000 -1.333330e+001  7.000000e+000
    endloop
  endfacet
  facet normal  9.999999e-001  0.000000e+000  0.000000e+000
    outer loop
      vertex  9.500000e+000 -1.700000e+001  6.000000e+000
      vertex  9.500000e+000 -1.333330e+001  7.000000e+000
      vertex  9.500000e+000 -1.404041e+001  7.292893e+000
    endloop
  endfacet
  facet normal  1.000000e+000  0.000000e+000  0.000000e+000
    outer loop
      vertex  9.500000e+000 -1.700000e+001  6.000000e+000
      vertex  9.500000e+000 -1.404041e+001  7.292893e+000
      vertex  9.500000e+000 -1.641421e+001  7.414214e+000
    endloop
  endfacet
  facet normal  1.000000e+000  0.000000e+000  0.000000e+000
    outer loop
      vertex  9.500000e+000 -1.941421e+001  3.414214e+000
      vertex  9.500000e+000 -2.000000e+001  2.000000e+000
      vertex  9.500000e+000  2.000000e+001  2.000000e+000
    endloop
  endfacet
  facet normal  1.000000e+000  0.000000e+000  0.000000e+000
    outer loop
      vertex  9.500000e+000 -1.941421e+001  3.414214e+000
      vertex  9.500000e+000  2.000000e+001  2.000000e+000
      vertex  9.500000e+000  1.941421e+001  3.414214e+000
    endloop
  endfacet
  facet normal  1.000000e+000  0.000000e+000  0.000000e+000
    outer loop
      vertex  9.500000e+000 -1.941421e+001  3.414214e+000
      vertex  9.500000e+000  1.941421e+001  3.414214e+000
      vertex  9.500000e+000  1.800000e+001  4.000000e+000
    endloop
  endfacet
  facet normal  1.000000e+000  0.000000e+000  0.000000e+000
    outer loop
      vertex  9.500000e+000 -1.941421e+001  3.414214e+000
      vertex  9.500000e+000  1.800000e+001  4.000000e+000
      vertex  9.500000e+000  1.700000e+001  4.000000e+000
    endloop
  endfacet
  facet normal  1.000000e+000  0.000000e+000  0.000000e+000
    outer loop
      vertex  9.500000e+000 -1.941421e+001  3.414214e+000
      vertex  9.500000e+000  1.700000e+001  4.000000e+000
      vertex  9.500000e+000 -1.700000e+001  4.000000e+000
    endloop
  endfacet
  facet normal  1.000000e+000  0.000000e+000  0.000000e+000
    outer loop
      vertex  9.500000e+000 -1.941421e+001  3.414214e+000
      vertex  9.500000e+000 -1.700000e+001  4.000000e+000
      vertex  9.500000e+000 -1.800000e+001  4.000000e+000
    endloop
  endfacet
  facet normal  1.000000e+000  -0.000000e+000  0.000000e+000
    outer loop
      vertex  9.500000e+000  1.500000e+001  8.000000e+000
      vertex  9.500000e+000  1.433330e+001  8.000000e+000
      vertex  9.500000e+000  1.641421e+001  7.414214e+000
    endloop
  endfacet
  facet normal  1.000000e+000  0.000000e+000  0.000000e+000
    outer loop
      vertex  9.500000e+000  1.641421e+001  7.414214e+000
      vertex  9.500000e+000  1.433330e+001  8.000000e+000
      vertex  9.500000e+000  1.404041e+001  7.292893e+000
    endloop
  endfacet
  facet normal  1.000000e+000  -0.000000e+000  0.000000e+000
    outer loop
      vertex  9.500000e+000  1.641421e+001  7.414214e+000
      vertex  9.500000e+000  1.404041e+001  7.292893e+000
      vertex  9.500000e+000  1.700000e+001  6.000000e+000
    endloop
  endfacet
  facet normal  9.999999e-001  0.000000e+000  0.000000e+000
    outer loop
      vertex  9.500000e+000  1.700000e+001  6.000000e+000
      vertex  9.500000e+000  1.404041e+001  7.292893e+000
      vertex  9.500000e+000  1.333330e+001  7.000000e+000
    endloop
  endfacet
  facet normal  1.000000e+000  0.000000e+000  0.000000e+000
    outer loop
      vertex  9.500000e+000 -1.641421e+001  7.414214e+000
      vertex  9.500000e+000 -1.404041e+001  7.292893e+000
      vertex  9.500000e+000 -1.500000e+001  8.000000e+000
    endloop
  endfacet
  facet normal  1.000000e+000  -0.000000e+000  0.000000e+000
    outer loop
      vertex  9.500000e+000 -1.500000e+001  8.000000e+000
      vertex  9.500000e+000 -1.404041e+001  7.292893e+000
      vertex  9.500000e+000 -1.433330e+001  8.000000e+000
    endloop
  endfacet
  facet normal  1.000000e+000  0.000000e+000  0.000000e+000
    outer loop
      vertex  9.500000e+000 -2.000000e+001  0.000000e+000
      vertex  9.500000e+000  2.000000e+001  0.000000e+000
      vertex  9.500000e+000 -2.000000e+001  2.000000e+000
    endloop
  endfacet
  facet normal  1.000000e+000  -0.000000e+000  0.000000e+000
    outer loop
      vertex  9.500000e+000 -2.000000e+001  2.000000e+000
      vertex  9.500000e+000  2.000000e+001  0.000000e+000
      vertex  9.500000e+000  2.000000e+001  2.000000e+000
    endloop
  endfacet
  facet normal -1.000000e+000  0.000000e+000  -0.000000e+000
    outer loop
      vertex  0.000000e+000 -1.941421e+001  3.414214e+000
      vertex  0.000000e+000 -1.800000e+001  4.000000e+000
      vertex  0.000000e+000 -1.700000e+001  4.000000e+000
    endloop
  endfacet
  facet normal -1.000000e+000  0.000000e+000  -0.000000e+000
    outer loop
      vertex  0.000000e+000 -1.941421e+001  3.414214e+000
      vertex  0.000000e+000 -1.700000e+001  4.000000e+000
      vertex  0.000000e+000  1.700000e+001  4.000000e+000
    endloop
  endfacet
  facet normal -1.000000e+000  0.000000e+000  -0.000000e+000
    outer loop
      vertex  0.000000e+000 -1.941421e+001  3.414214e+000
      vertex  0.000000e+000  1.700000e+001  4.000000e+000
      vertex  0.000000e+000  1.800000e+001  4.000000e+000
    endloop
  endfacet
  facet normal -1.000000e+000  0.000000e+000  -0.000000e+000
    outer loop
      vertex  0.000000e+000 -1.941421e+001  3.414214e+000
      vertex  0.000000e+000  1.800000e+001  4.000000e+000
      vertex  0.000000e+000  1.941421e+001  3.414214e+000
    endloop
  endfacet
  facet normal -1.000000e+000  -0.000000e+000  -0.000000e+000
    outer loop
      vertex  0.000000e+000 -1.941421e+001  3.414214e+000
      vertex  0.000000e+000  1.941421e+001  3.414214e+000
      vertex  0.000000e+000  2.000000e+001  2.000000e+000
    endloop
  endfacet
  facet normal -1.000000e+000  0.000000e+000  0.000000e+000
    outer loop
      vertex  0.000000e+000 -1.941421e+001  3.414214e+000
      vertex  0.000000e+000  2.000000e+001  2.000000e+000
      vertex  0.000000e+000 -2.000000e+001  2.000000e+000
    endloop
  endfacet
  facet normal -1.000000e+000  -0.000000e+000  0.000000e+000
    outer loop
      vertex  0.000000e+000  1.433330e+001  8.000000e+000
      vertex  0.000000e+000  1.500000e+001  8.000000e+000
      vertex  0.000000e+000  1.404041e+001  7.292893e+000
    endloop
  endfacet
  facet normal -1.000000e+000  0.000000e+000  0.000000e+000
    outer loop
      vertex  0.000000e+000  1.404041e+001  7.292893e+000
      vertex  0.000000e+000  1.500000e+001  8.000000e+000
      vertex  0.000000e+000  1.641421e+001  7.414214e+000
    endloop
  endfacet
  facet normal -1.000000e+000  0.000000e+000  0.000000e+000
    outer loop
      vertex  0.000000e+000  1.404041e+001  7.292893e+000
      vertex  0.000000e+000  1.641421e+001  7.414214e+000
      vertex  0.000000e+000  1.333330e+001  7.000000e+000
    endloop
  endfacet
  facet normal -1.000000e+000  0.000000e+000  0.000000e+000
    outer loop
      vertex  0.000000e+000  1.333330e+001  7.000000e+000
      vertex  0.000000e+000  1.641421e+001  7.414214e+000
      vertex  0.000000e+000  1.700000e+001  6.000000e+000
    endloop
  endfacet
  facet normal -1.000000e+000  0.000000e+000  0.000000e+000
    outer loop
      vertex  0.000000e+000  1.333330e+001  7.000000e+000
      vertex  0.000000e+000  1.700000e+001  6.000000e+000
      vertex  0.000000e+000 -1.836910e-016  7.000000e+000
    endloop
  endfacet
  facet normal -1.000000e+000  -0.000000e+000  0.000000e+000
    outer loop
      vertex  0.000000e+000  1.000000e+000  8.000000e+000
      vertex  0.000000e+000  1.233330e+001  8.000000e+000
      vertex  0.000000e+000  7.071068e-001  7.292893e+000
    endloop
  endfacet
  facet normal -1.000000e+000  0.000000e+000  0.000000e+000
    outer loop
      vertex  0.000000e+000  7.071068e-001  7.292893e+000
      vertex  0.000000e+000  1.233330e+001  8.000000e+000
      vertex  0.000000e+000  1.262619e+001  7.292893e+000
    endloop
  endfacet
  facet normal -1.000000e+000  -0.000000e+000  0.000000e+000
    outer loop
      vertex  0.000000e+000  7.071068e-001  7.292893e+000
      vertex  0.000000e+000  1.262619e+001  7.292893e+000
      vertex  0.000000e+000 -1.836910e-016  7.000000e+000
    endloop
  endfacet
  facet normal -1.000000e+000  0.000000e+000  0.000000e+000
    outer loop
      vertex  0.000000e+000 -1.836910e-016  7.000000e+000
      vertex  0.000000e+000  1.262619e+001  7.292893e+000
      vertex  0.000000e+000  1.333330e+001  7.000000e+000
    endloop
  endfacet
  facet normal -1.000000e+000  0.000000e+000  0.000000e+000
    outer loop
      vertex  0.000000e+000 -1.836910e-016  7.000000e+000
      vertex  0.000000e+000  1.700000e+001  6.000000e+000
      vertex  0.000000e+000 -1.333330e+001  7.000000e+000
    endloop
  endfacet
  facet normal -1.000000e+000  0.000000e+000  -0.000000e+000
    outer loop
      vertex  0.000000e+000 -1.333330e+001  7.000000e+000
      vertex  0.000000e+000  1.700000e+001  6.000000e+000
      vertex  0.000000e+000 -1.700000e+001  6.000000e+000
    endloop
  endfacet
  facet normal -9.999999e-001  0.000000e+000  0.000000e+000
    outer loop
      vertex  0.000000e+000 -1.333330e+001  7.000000e+000
      vertex  0.000000e+000 -1.700000e+001  6.000000e+000
      vertex  0.000000e+000 -1.404041e+001  7.292893e+000
    endloop
  endfacet
  facet normal -1.000000e+000  -0.000000e+000  0.000000e+000
    outer loop
      vertex  0.000000e+000 -1.404041e+001  7.292893e+000
      vertex  0.000000e+000 -1.700000e+001  6.000000e+000
      vertex  0.000000e+000 -1.641421e+001  7.414214e+000
    endloop
  endfacet
  facet normal -1.000000e+000  0.000000e+000  0.000000e+000
    outer loop
      vertex  0.000000e+000 -1.404041e+001  7.292893e+000
      vertex  0.000000e+000 -1.641421e+001  7.414214e+000
      vertex  0.000000e+000 -1.433330e+001  8.000000e+000
    endloop
  endfacet
  facet normal -1.000000e+000  -0.000000e+000  0.000000e+000
    outer loop
      vertex  0.000000e+000 -1.433330e+001  8.000000e+000
      vertex  0.000000e+000 -1.641421e+001  7.414214e+000
      vertex  0.000000e+000 -1.500000e+001  8.000000e+000
    endloop
  endfacet
  facet normal -1.000000e+000  0.000000e+000  0.000000e+000
    outer loop
      vertex  0.000000e+000  1.700000e+001  4.000000e+000
      vertex  0.000000e+000 -1.700000e+001  4.000000e+000
      vertex  0.000000e+000  1.700000e+001  6.000000e+000
    endloop
  endfacet
  facet normal -1.000000e+000  -0.000000e+000  0.000000e+000
    outer loop
      vertex  0.000000e+000  1.700000e+001  6.000000e+000
      vertex  0.000000e+000 -1.700000e+001  4.000000e+000
      vertex  0.000000e+000 -1.700000e+001  6.000000e+000
    endloop
  endfacet
  facet normal -1.000000e+000  0.000000e+000  0.000000e+000
    outer loop
      vertex  0.000000e+000  2.000000e+001  0.000000e+000
      vertex  0.000000e+000 -2.000000e+001  0.000000e+000
      vertex  0.000000e+000  2.000000e+001  2.000000e+000
    endloop
  endfacet
  facet normal -1.000000e+000  -0.000000e+000  0.000000e+000
    outer loop
      vertex  0.000000e+000  2.000000e+001  2.000000e+000
      vertex  0.000000e+000 -2.000000e+001  0.000000e+000
      vertex  0.000000e+000 -2.000000e+001  2.000000e+000
    endloop
  endfacet
  facet normal -1.000000e+000  -0.000000e+000  0.000000e+000
    outer loop
      vertex  0.000000e+000 -1.233330e+001  8.000000e+000
      vertex  0.000000e+000 -1.000000e+000  8.000000e+000
      vertex  0.000000e+000 -1.262619e+001  7.292893e+000
    endloop
  endfacet
  facet normal -1.000000e+000  0.000000e+000  0.000000e+000
    outer loop
      vertex  0.000000e+000 -1.262619e+001  7.292893e+000
      vertex  0.000000e+000 -1.000000e+000  8.000000e+000
      vertex  0.000000e+000 -7.071068e-001  7.292893e+000
    endloop
  endfacet
  facet normal -1.000000e+000  -0.000000e+000  0.000000e+000
    outer loop
      vertex  0.000000e+000 -1.262619e+001  7.292893e+000
      vertex  0.000000e+000 -7.071068e-001  7.292893e+000
      vertex  0.000000e+000 -1.333330e+001  7.000000e+000
    endloop
  endfacet
  facet normal -1.000000e+000  0.000000e+000  0.000000e+000
    outer loop
      vertex  0.000000e+000 -1.333330e+001  7.000000e+000
      vertex  0.000000e+000 -7.071068e-001  7.292893e+000
      vertex  0.000000e+000 -1.836910e-016  7.000000e+000
    endloop
  endfacet
  facet normal  0.000000e+000  0.000000e+000  1.000000e+000
    outer loop
      vertex  9.500000e+000 -1.800000e+001  4.000000e+000
      vertex  9.500000e+000 -1.700000e+001  4.000000e+000
      vertex  0.000000e+000 -1.800000e+001  4.000000e+000
    endloop
  endfacet
  facet normal  0.000000e+000  0.000000e+000  1.000000e+000
    outer loop
      vertex  0.000000e+000 -1.800000e+001  4.000000e+000
      vertex  9.500000e+000 -1.700000e+001  4.000000e+000
      vertex  0.000000e+000 -1.700000e+001  4.000000e+000
    endloop
  endfacet
  facet normal  0.000000e+000 -1.000000e+000  0.000000e+000
    outer loop
      vertex  0.000000e+000 -2.000000e+001  2.000000e+000
      vertex  0.000000e+000 -2.000000e+001  0.000000e+000
      vertex  9.500000e+000 -2.000000e+001  2.000000e+000
    endloop
  endfacet
  facet normal  0.000000e+000 -1.000000e+000  -0.000000e+000
    outer loop
      vertex  9.500000e+000 -2.000000e+001  2.000000e+000
      vertex  0.000000e+000 -2.000000e+001  0.000000e+000
      vertex  9.500000e+000 -2.000000e+001  0.000000e+000
    endloop
  endfacet
  facet normal  0.000000e+000 -9.238794e-001  3.826836e-001
    outer loop
      vertex  0.000000e+000 -2.000000e+001  2.000000e+000
      vertex  9.500000e+000 -2.000000e+001  2.000000e+000
      vertex  0.000000e+000 -1.941421e+001  3.414214e+000
    endloop
  endfacet
  facet normal  0.000000e+000 -9.238794e-001  3.826836e-001
    outer loop
      vertex  0.000000e+000 -1.941421e+001  3.414214e+000
      vertex  9.500000e+000 -2.000000e+001  2.000000e+000
      vertex  9.500000e+000 -1.941421e+001  3.414214e+000
    endloop
  endfacet
  facet normal  0.000000e+000 -3.826835e-001  9.238795e-001
    outer loop
      vertex  0.000000e+000 -1.941421e+001  3.414214e+000
      vertex  9.500000e+000 -1.941421e+001  3.414214e+000
      vertex  0.000000e+000 -1.800000e+001  4.000000e+000
    endloop
  endfacet
  facet normal  0.000000e+000 -3.826835e-001  9.238795e-001
    outer loop
      vertex  0.000000e+000 -1.800000e+001  4.000000e+000
      vertex  9.500000e+000 -1.941421e+001  3.414214e+000
      vertex  9.500000e+000 -1.800000e+001  4.000000e+000
    endloop
  endfacet
  facet normal  0.000000e+000  0.000000e+000  1.000000e+000
    outer loop
      vertex  9.500000e+000  1.700000e+001  4.000000e+000
      vertex  9.500000e+000  1.800000e+001  4.000000e+000
      vertex  0.000000e+000  1.700000e+001  4.000000e+000
    endloop
  endfacet
  facet normal  0.000000e+000  0.000000e+000  1.000000e+000
    outer loop
      vertex  0.000000e+000  1.700000e+001  4.000000e+000
      vertex  9.500000e+000  1.800000e+001  4.000000e+000
      vertex  0.000000e+000  1.800000e+001  4.000000e+000
    endloop
  endfacet
  facet normal  0.000000e+000  1.000000e+000  0.000000e+000
    outer loop
      vertex  0.000000e+000  2.000000e+001  0.000000e+000
      vertex  0.000000e+000  2.000000e+001  2.000000e+000
      vertex  9.500000e+000  2.000000e+001  0.000000e+000
    endloop
  endfacet
  facet normal  0.000000e+000  1.000000e+000  -0.000000e+000
    outer loop
      vertex  9.500000e+000  2.000000e+001  0.000000e+000
      vertex  0.000000e+000  2.000000e+001  2.000000e+000
      vertex  9.500000e+000  2.000000e+001  2.000000e+000
    endloop
  endfacet
  facet normal  -0.000000e+000  9.238794e-001  3.826836e-001
    outer loop
      vertex  9.500000e+000  2.000000e+001  2.000000e+000
      vertex  0.000000e+000  2.000000e+001  2.000000e+000
      vertex  9.500000e+000  1.941421e+001  3.414214e+000
    endloop
  endfacet
  facet normal  0.000000e+000  9.238794e-001  3.826836e-001
    outer loop
      vertex  9.500000e+000  1.941421e+001  3.414214e+000
      vertex  0.000000e+000  2.000000e+001  2.000000e+000
      vertex  0.000000e+000  1.941421e+001  3.414214e+000
    endloop
  endfacet
  facet normal  -0.000000e+000  3.826835e-001  9.238795e-001
    outer loop
      vertex  9.500000e+000  1.941421e+001  3.414214e+000
      vertex  0.000000e+000  1.941421e+001  3.414214e+000
      vertex  9.500000e+000  1.800000e+001  4.000000e+000
    endloop
  endfacet
  facet normal  0.000000e+000  3.826835e-001  9.238795e-001
    outer loop
      vertex  9.500000e+000  1.800000e+001  4.000000e+000
      vertex  0.000000e+000  1.941421e+001  3.414214e+000
      vertex  0.000000e+000  1.800000e+001  4.000000e+000
    endloop
  endfacet
  facet normal  0.000000e+000 -1.000000e+000  -0.000000e+000
    outer loop
      vertex  9.500000e+000 -1.700000e+001  4.000000e+000
      vertex  9.500000e+000 -1.700000e+001  6.000000e+000
      vertex  0.000000e+000 -1.700000e+001  4.000000e+000
    endloop
  endfacet
  facet normal  0.000000e+000 -1.000000e+000  0.000000e+000
    outer loop
      vertex  0.000000e+000 -1.700000e+001  4.000000e+000
      vertex  9.500000e+000 -1.700000e+001  6.000000e+000
      vertex  0.000000e+000 -1.700000e+001  6.000000e+000
    endloop
  endfacet
  facet normal  0.000000e+000  0.000000e+000  1.000000e+000
    outer loop
      vertex  0.000000e+000 -1.500000e+001  8.000000e+000
      vertex  9.500000e+000 -1.500000e+001  8.000000e+000
      vertex  0.000000e+000 -1.433330e+001  8.000000e+000
    endloop
  endfacet
  facet normal  -0.000000e+000  0.000000e+000  1.000000e+000
    outer loop
      vertex  0.000000e+000 -1.433330e+001  8.000000e+000
      vertex  9.500000e+000 -1.500000e+001  8.000000e+000
      vertex  9.500000e+000 -1.433330e+001  8.000000e+000
    endloop
  endfacet
  facet normal  0.000000e+000 -3.826835e-001  9.238795e-001
    outer loop
      vertex  9.500000e+000 -1.500000e+001  8.000000e+000
      vertex  0.000000e+000 -1.500000e+001  8.000000e+000
      vertex  9.500000e+000 -1.641421e+001  7.414214e+000
    endloop
  endfacet
  facet normal  0.000000e+000 -3.826835e-001  9.238795e-001
    outer loop
      vertex  9.500000e+000 -1.641421e+001  7.414214e+000
      vertex  0.000000e+000 -1.500000e+001  8.000000e+000
      vertex  0.000000e+000 -1.641421e+001  7.414214e+000
    endloop
  endfacet
  facet normal  0.000000e+000 -9.238794e-001  3.826836e-001
    outer loop
      vertex  9.500000e+000 -1.641421e+001  7.414214e+000
      vertex  0.000000e+000 -1.641421e+001  7.414214e+000
      vertex  9.500000e+000 -1.700000e+001  6.000000e+000
    endloop
  endfacet
  facet normal  0.000000e+000 -9.238794e-001  3.826836e-001
    outer loop
      vertex  9.500000e+000 -1.700000e+001  6.000000e+000
      vertex  0.000000e+000 -1.641421e+001  7.414214e+000
      vertex  0.000000e+000 -1.700000e+001  6.000000e+000
    endloop
  endfacet
  facet normal  0.000000e+000  1.000000e+000  -0.000000e+000
    outer loop
      vertex  9.500000e+000  1.700000e+001  6.000000e+000
      vertex  9.500000e+000  1.700000e+001  4.000000e+000
      vertex  0.000000e+000  1.700000e+001  6.000000e+000
    endloop
  endfacet
  facet normal  0.000000e+000  1.000000e+000  0.000000e+000
    outer loop
      vertex  0.000000e+000  1.700000e+001  6.000000e+000
      vertex  9.500000e+000  1.700000e+001  4.000000e+000
      vertex  0.000000e+000  1.700000e+001  4.000000e+000
    endloop
  endfacet
  facet normal  0.000000e+000  0.000000e+000  1.000000e+000
    outer loop
      vertex  0.000000e+000  1.433330e+001  8.000000e+000
      vertex  9.500000e+000  1.433330e+001  8.000000e+000
      vertex  0.000000e+000  1.500000e+001  8.000000e+000
    endloop
  endfacet
  facet normal  -0.000000e+000  0.000000e+000  1.000000e+000
    outer loop
      vertex  0.000000e+000  1.500000e+001  8.000000e+000
      vertex  9.500000e+000  1.433330e+001  8.000000e+000
      vertex  9.500000e+000  1.500000e+001  8.000000e+000
    endloop
  endfacet
  facet normal  0.000000e+000  3.826835e-001  9.238795e-001
    outer loop
      vertex  0.000000e+000  1.500000e+001  8.000000e+000
      vertex  9.500000e+000  1.500000e+001  8.000000e+000
      vertex  0.000000e+000  1.641421e+001  7.414214e+000
    endloop
  endfacet
  facet normal  -0.000000e+000  3.826835e-001  9.238795e-001
    outer loop
      vertex  0.000000e+000  1.641421e+001  7.414214e+000
      vertex  9.500000e+000  1.500000e+001  8.000000e+000
      vertex  9.500000e+000  1.641421e+001  7.414214e+000
    endloop
  endfacet
  facet normal  0.000000e+000  9.238794e-001  3.826836e-001
    outer loop
      vertex  0.000000e+000  1.641421e+001  7.414214e+000
      vertex  9.500000e+000  1.641421e+001  7.414214e+000
      vertex  0.000000e+000  1.700000e+001  6.000000e+000
    endloop
  endfacet
  facet normal  -0.000000e+000  9.238794e-001  3.826836e-001
    outer loop
      vertex  0.000000e+000  1.700000e+001  6.000000e+000
      vertex  9.500000e+000  1.641421e+001  7.414214e+000
      vertex  9.500000e+000  1.700000e+001  6.000000e+000
    endloop
  endfacet
  facet normal -8.548390e-004 -5.483093e-001  8.362752e-001
    outer loop
      vertex  9.498386e+000  3.321945e-001  7.056789e+000
      vertex  9.447704e+000  7.324214e-001  7.319149e+000
      vertex  0.000000e+000  7.071068e-001  7.292893e+000
    endloop
  endfacet
  facet normal  0.000000e+000  9.984855e-001  5.501657e-002
    outer loop
      vertex  0.000000e+000 -1.000000e+000  8.000000e+000
      vertex  8.500000e+000 -1.000000e+000  8.000000e+000
      vertex  8.955699e+000 -9.939464e-001  7.890134e+000
    endloop
  endfacet
  facet normal  2.632504e-003  9.635051e-001  2.676768e-001
    outer loop
      vertex  0.000000e+000 -1.000000e+000  8.000000e+000
      vertex  8.955699e+000 -9.939464e-001  7.890134e+000
      vertex  9.309722e+000 -9.106465e-001  7.586813e+000
    endloop
  endfacet
  facet normal  1.691297e-002  8.282002e-001  5.601771e-001
    outer loop
      vertex  0.000000e+000 -1.000000e+000  8.000000e+000
      vertex  9.309722e+000 -9.106465e-001  7.586813e+000
      vertex  9.447704e+000 -7.324214e-001  7.319149e+000
    endloop
  endfacet
  facet normal  1.412009e-003  9.238786e-001  3.826832e-001
    outer loop
      vertex  0.000000e+000 -1.000000e+000  8.000000e+000
      vertex  9.447704e+000 -7.324214e-001  7.319149e+000
      vertex  0.000000e+000 -7.071068e-001  7.292893e+000
    endloop
  endfacet
  facet normal  0.000000e+000 -9.984855e-001  5.501657e-002
    outer loop
      vertex  8.500000e+000  1.000000e+000  8.000000e+000
      vertex  0.000000e+000  1.000000e+000  8.000000e+000
      vertex  8.955699e+000  9.939464e-001  7.890134e+000
    endloop
  endfacet
  facet normal  4.070128e-003 -9.238718e-001  3.826803e-001
    outer loop
      vertex  8.955699e+000  9.939464e-001  7.890134e+000
      vertex  0.000000e+000  1.000000e+000  8.000000e+000
      vertex  0.000000e+000  7.071068e-001  7.292893e+000
    endloop
  endfacet
  facet normal  1.222125e-002 -9.604916e-001  2.780407e-001
    outer loop
      vertex  8.955699e+000  9.939464e-001  7.890134e+000
      vertex  0.000000e+000  7.071068e-001  7.292893e+000
      vertex  9.309722e+000  9.106465e-001  7.586813e+000
    endloop
  endfacet
  facet normal  6.889469e-004 -8.321992e-001  5.544763e-001
    outer loop
      vertex  9.309722e+000  9.106465e-001  7.586813e+000
      vertex  0.000000e+000  7.071068e-001  7.292893e+000
      vertex  9.447704e+000  7.324214e-001  7.319149e+000
    endloop
  endfacet
  facet normal  1.785158e-002 -1.683952e-001  9.855579e-001
    outer loop
      vertex  9.498386e+000  3.321945e-001  7.056789e+000
      vertex  0.000000e+000  7.071068e-001  7.292893e+000
      vertex  9.500000e+000 -1.836910e-016  7.000000e+000
    endloop
  endfacet
  facet normal  0.000000e+000 -3.826837e-001  9.238795e-001
    outer loop
      vertex  9.500000e+000 -1.836910e-016  7.000000e+000
      vertex  0.000000e+000  7.071068e-001  7.292893e+000
      vertex  0.000000e+000 -1.836910e-016  7.000000e+000
    endloop
  endfacet
  facet normal  -0.000000e+000  1.685063e-001  9.857006e-001
    outer loop
      vertex  9.500000e+000 -1.836910e-016  7.000000e+000
      vertex  0.000000e+000 -1.836910e-016  7.000000e+000
      vertex  9.498386e+000 -3.321945e-001  7.056789e+000
    endloop
  endfacet
  facet normal  7.859963e-003  3.826718e-001  9.238508e-001
    outer loop
      vertex  9.498386e+000 -3.321945e-001  7.056789e+000
      vertex  0.000000e+000 -1.836910e-016  7.000000e+000
      vertex  0.000000e+000 -7.071068e-001  7.292893e+000
    endloop
  endfacet
  facet normal -8.548390e-004  5.483093e-001  8.362752e-001
    outer loop
      vertex  9.498386e+000 -3.321945e-001  7.056789e+000
      vertex  0.000000e+000 -7.071068e-001  7.292893e+000
      vertex  9.447704e+000 -7.324214e-001  7.319149e+000
    endloop
  endfacet
  facet normal  0.000000e+000  9.984853e-001  5.501927e-002
    outer loop
      vertex  0.000000e+000  1.233330e+001  8.000000e+000
      vertex  8.500000e+000  1.233330e+001  8.000000e+000
      vertex  8.955699e+000  1.233935e+001  7.890134e+000
    endloop
  endfacet
  facet normal  2.632463e-003  9.635054e-001  2.676760e-001
    outer loop
      vertex  0.000000e+000  1.233330e+001  8.000000e+000
      vertex  8.955699e+000  1.233935e+001  7.890134e+000
      vertex  9.309722e+000  1.242265e+001  7.586813e+000
    endloop
  endfacet
  facet normal  1.691301e-002  8.281995e-001  5.601780e-001
    outer loop
      vertex  0.000000e+000  1.233330e+001  8.000000e+000
      vertex  9.309722e+000  1.242265e+001  7.586813e+000
      vertex  9.447704e+000  1.260088e+001  7.319149e+000
    endloop
  endfacet
  facet normal  1.411979e-003  9.238784e-001  3.826833e-001
    outer loop
      vertex  0.000000e+000  1.233330e+001  8.000000e+000
      vertex  9.447704e+000  1.260088e+001  7.319149e+000
      vertex  0.000000e+000  1.262619e+001  7.292893e+000
    endloop
  endfacet
  facet normal  0.000000e+000 -9.238798e-001  3.826827e-001
    outer loop
      vertex  9.500000e+000  1.433330e+001  8.000000e+000
      vertex  0.000000e+000  1.433330e+001  8.000000e+000
      vertex  9.500000e+000  1.404041e+001  7.292893e+000
    endloop
  endfacet
  facet normal  0.000000e+000 -9.238798e-001  3.826827e-001
    outer loop
      vertex  9.500000e+000  1.404041e+001  7.292893e+000
      vertex  0.000000e+000  1.433330e+001  8.000000e+000
      vertex  0.000000e+000  1.404041e+001  7.292893e+000
    endloop
  endfacet
  facet normal  0.000000e+000 -3.826833e-001  9.238796e-001
    outer loop
      vertex  9.500000e+000  1.404041e+001  7.292893e+000
      vertex  0.000000e+000  1.404041e+001  7.292893e+000
      vertex  9.500000e+000  1.333330e+001  7.000000e+000
    endloop
  endfacet
  facet normal  0.000000e+000 -3.826833e-001  9.238796e-001
    outer loop
      vertex  9.500000e+000  1.333330e+001  7.000000e+000
      vertex  0.000000e+000  1.404041e+001  7.292893e+000
      vertex  0.000000e+000  1.333330e+001  7.000000e+000
    endloop
  endfacet
  facet normal  -0.000000e+000  1.685064e-001  9.857005e-001
    outer loop
      vertex  9.500000e+000  1.333330e+001  7.000000e+000
      vertex  0.000000e+000  1.333330e+001  7.000000e+000
      vertex  9.498386e+000  1.300111e+001  7.056789e+000
    endloop
  endfacet
  facet normal  7.859961e-003  3.826719e-001  9.238509e-001
    outer loop
      vertex  9.498386e+000  1.300111e+001  7.056789e+000
      vertex  0.000000e+000  1.333330e+001  7.000000e+000
      vertex  0.000000e+000  1.262619e+001  7.292893e+000
    endloop
  endfacet
  facet normal -8.548549e-004  5.483097e-001  8.362750e-001
    outer loop
      vertex  9.498386e+000  1.300111e+001  7.056789e+000
      vertex  0.000000e+000  1.262619e+001  7.292893e+000
      vertex  9.447704e+000  1.260088e+001  7.319149e+000
    endloop
  endfacet
  facet normal  0.000000e+000  0.000000e+000  1.000000e+000
    outer loop
      vertex  0.000000e+000  1.000000e+000  8.000000e+000
      vertex  8.500000e+000  1.000000e+000  8.000000e+000
      vertex  0.000000e+000  1.233330e+001  8.000000e+000
    endloop
  endfacet
  facet normal  -0.000000e+000  0.000000e+000  1.000000e+000
    outer loop
      vertex  0.000000e+000  1.233330e+001  8.000000e+000
      vertex  8.500000e+000  1.000000e+000  8.000000e+000
      vertex  8.500000e+000  1.233330e+001  8.000000e+000
    endloop
  endfacet
  facet normal  9.995966e-001  0.000000e+000  2.840283e-002
    outer loop
      vertex  9.500000e+000 -1.836910e-016  7.000000e+000
      vertex  9.500000e+000  1.333330e+001  7.000000e+000
      vertex  9.498386e+000  3.321945e-001  7.056789e+000
    endloop
  endfacet
  facet normal  9.995965e-001  -0.000000e+000  2.840283e-002
    outer loop
      vertex  9.498386e+000  3.321945e-001  7.056789e+000
      vertex  9.500000e+000  1.333330e+001  7.000000e+000
      vertex  9.498386e+000  1.300111e+001  7.056789e+000
    endloop
  endfacet
  facet normal  9.818477e-001  0.000000e+000  1.896712e-001
    outer loop
      vertex  9.498386e+000  3.321945e-001  7.056789e+000
      vertex  9.498386e+000  1.300111e+001  7.056789e+000
      vertex  9.447704e+000  7.324214e-001  7.319149e+000
    endloop
  endfacet
  facet normal  9.818476e-001  -0.000000e+000  1.896712e-001
    outer loop
      vertex  9.447704e+000  7.324214e-001  7.319149e+000
      vertex  9.498386e+000  1.300111e+001  7.056789e+000
      vertex  9.447704e+000  1.260088e+001  7.319149e+000
    endloop
  endfacet
  facet normal  8.888469e-001  0.000000e+000  4.582043e-001
    outer loop
      vertex  9.447704e+000  7.324214e-001  7.319149e+000
      vertex  9.447704e+000  1.260088e+001  7.319149e+000
      vertex  9.309722e+000  9.106465e-001  7.586813e+000
    endloop
  endfacet
  facet normal  8.888469e-001  -0.000000e+000  4.582043e-001
    outer loop
      vertex  9.309722e+000  9.106465e-001  7.586813e+000
      vertex  9.447704e+000  1.260088e+001  7.319149e+000
      vertex  9.309722e+000  1.242265e+001  7.586813e+000
    endloop
  endfacet
  facet normal  6.506333e-001  0.000000e+000  7.593921e-001
    outer loop
      vertex  9.309722e+000  9.106465e-001  7.586813e+000
      vertex  9.309722e+000  1.242265e+001  7.586813e+000
      vertex  8.955699e+000  9.939464e-001  7.890134e+000
    endloop
  endfacet
  facet normal  6.506333e-001  -0.000000e+000  7.593921e-001
    outer loop
      vertex  8.955699e+000  9.939464e-001  7.890134e+000
      vertex  9.309722e+000  1.242265e+001  7.586813e+000
      vertex  8.955699e+000  1.233935e+001  7.890134e+000
    endloop
  endfacet
  facet normal  2.343781e-001  0.000000e+000  9.721455e-001
    outer loop
      vertex  8.955699e+000  9.939464e-001  7.890134e+000
      vertex  8.955699e+000  1.233935e+001  7.890134e+000
      vertex  8.500000e+000  1.000000e+000  8.000000e+000
    endloop
  endfacet
  facet normal  2.343781e-001  -0.000000e+000  9.721455e-001
    outer loop
      vertex  8.500000e+000  1.000000e+000  8.000000e+000
      vertex  8.955699e+000  1.233935e+001  7.890134e+000
      vertex  8.500000e+000  1.233330e+001  8.000000e+000
    endloop
  endfacet
  facet normal  0.000000e+000 -9.984853e-001  5.501927e-002
    outer loop
      vertex  8.500000e+000 -1.233330e+001  8.000000e+000
      vertex  0.000000e+000 -1.233330e+001  8.000000e+000
      vertex  8.955699e+000 -1.233935e+001  7.890134e+000
    endloop
  endfacet
  facet normal  4.070099e-003 -9.238718e-001  3.826805e-001
    outer loop
      vertex  8.955699e+000 -1.233935e+001  7.890134e+000
      vertex  0.000000e+000 -1.233330e+001  8.000000e+000
      vertex  0.000000e+000 -1.262619e+001  7.292893e+000
    endloop
  endfacet
  facet normal  1.222129e-002 -9.604918e-001  2.780401e-001
    outer loop
      vertex  8.955699e+000 -1.233935e+001  7.890134e+000
      vertex  0.000000e+000 -1.262619e+001  7.292893e+000
      vertex  9.309722e+000 -1.242265e+001  7.586813e+000
    endloop
  endfacet
  facet normal  6.889166e-004 -8.321986e-001  5.544772e-001
    outer loop
      vertex  9.309722e+000 -1.242265e+001  7.586813e+000
      vertex  0.000000e+000 -1.262619e+001  7.292893e+000
      vertex  9.447704e+000 -1.260088e+001  7.319149e+000
    endloop
  endfacet
  facet normal  0.000000e+000  9.238798e-001  3.826827e-001
    outer loop
      vertex  0.000000e+000 -1.433330e+001  8.000000e+000
      vertex  9.500000e+000 -1.433330e+001  8.000000e+000
      vertex  0.000000e+000 -1.404041e+001  7.292893e+000
    endloop
  endfacet
  facet normal  -0.000000e+000  9.238798e-001  3.826827e-001
    outer loop
      vertex  0.000000e+000 -1.404041e+001  7.292893e+000
      vertex  9.500000e+000 -1.433330e+001  8.000000e+000
      vertex  9.500000e+000 -1.404041e+001  7.292893e+000
    endloop
  endfacet
  facet normal  0.000000e+000  3.826833e-001  9.238796e-001
    outer loop
      vertex  0.000000e+000 -1.404041e+001  7.292893e+000
      vertex  9.500000e+000 -1.404041e+001  7.292893e+000
      vertex  0.000000e+000 -1.333330e+001  7.000000e+000
    endloop
  endfacet
  facet normal  -0.000000e+000  3.826833e-001  9.238796e-001
    outer loop
      vertex  0.000000e+000 -1.333330e+001  7.000000e+000
      vertex  9.500000e+000 -1.404041e+001  7.292893e+000
      vertex  9.500000e+000 -1.333330e+001  7.000000e+000
    endloop
  endfacet
  facet normal  0.000000e+000 -3.826838e-001  9.238794e-001
    outer loop
      vertex  0.000000e+000 -1.333330e+001  7.000000e+000
      vertex  9.500000e+000 -1.333330e+001  7.000000e+000
      vertex  0.000000e+000 -1.262619e+001  7.292893e+000
    endloop
  endfacet
  facet normal  1.785158e-002 -1.683953e-001  9.855579e-001
    outer loop
      vertex  0.000000e+000 -1.262619e+001  7.292893e+000
      vertex  9.500000e+000 -1.333330e+001  7.000000e+000
      vertex  9.498386e+000 -1.300111e+001  7.056789e+000
    endloop
  endfacet
  facet normal -8.548549e-004 -5.483097e-001  8.362750e-001
    outer loop
      vertex  0.000000e+000 -1.262619e+001  7.292893e+000
      vertex  9.498386e+000 -1.300111e+001  7.056789e+000
      vertex  9.447704e+000 -1.260088e+001  7.319149e+000
    endloop
  endfacet
  facet normal  0.000000e+000  0.000000e+000  1.000000e+000
    outer loop
      vertex  0.000000e+000 -1.233330e+001  8.000000e+000
      vertex  8.500000e+000 -1.233330e+001  8.000000e+000
      vertex  0.000000e+000 -1.000000e+000  8.000000e+000
    endloop
  endfacet
  facet normal  -0.000000e+000  0.000000e+000  1.000000e+000
    outer loop
      vertex  0.000000e+000 -1.000000e+000  8.000000e+000
      vertex  8.500000e+000 -1.233330e+001  8.000000e+000
      vertex  8.500000e+000 -1.000000e+000  8.000000e+000
    endloop
  endfacet
  facet normal  9.995966e-001  0.000000e+000  2.840283e-002
    outer loop
      vertex  9.500000e+000 -1.333330e+001  7.000000e+000
      vertex  9.500000e+000 -1.836910e-016  7.000000e+000
      vertex  9.498386e+000 -1.300111e+001  7.056789e+000
    endloop
  endfacet
  facet normal  9.995965e-001  -0.000000e+000  2.840283e-002
    outer loop
      vertex  9.498386e+000 -1.300111e+001  7.056789e+000
      vertex  9.500000e+000 -1.836910e-016  7.000000e+000
      vertex  9.498386e+000 -3.321945e-001  7.056789e+000
    endloop
  endfacet
  facet normal  9.818477e-001  0.000000e+000  1.896712e-001
    outer loop
      vertex  9.498386e+000 -1.300111e+001  7.056789e+000
      vertex  9.498386e+000 -3.321945e-001  7.056789e+000
      vertex  9.447704e+000 -1.260088e+001  7.319149e+000
    endloop
  endfacet
  facet normal  9.818476e-001  -0.000000e+000  1.896712e-001
    outer loop
      vertex  9.447704e+000 -1.260088e+001  7.319149e+000
      vertex  9.498386e+000 -3.321945e-001  7.056789e+000
      vertex  9.447704e+000 -7.324214e-001  7.319149e+000
    endloop
  endfacet
  facet normal  8.888469e-001  0.000000e+000  4.582043e-001
    outer loop
      vertex  9.447704e+000 -1.260088e+001  7.319149e+000
      vertex  9.447704e+000 -7.324214e-001  7.319149e+000
      vertex  9.309722e+000 -1.242265e+001  7.586813e+000
    endloop
  endfacet
  facet normal  8.888469e-001  -0.000000e+000  4.582043e-001
    outer loop
      vertex  9.309722e+000 -1.242265e+001  7.586813e+000
      vertex  9.447704e+000 -7.324214e-001  7.319149e+000
      vertex  9.309722e+000 -9.106465e-001  7.586813e+000
    endloop
  endfacet
  facet normal  6.506333e-001  0.000000e+000  7.593921e-001
    outer loop
      vertex  9.309722e+000 -1.242265e+001  7.586813e+000
      vertex  9.309722e+000 -9.106465e-001  7.586813e+000
      vertex  8.955699e+000 -1.233935e+001  7.890134e+000
    endloop
  endfacet
  facet normal  6.506333e-001  -0.000000e+000  7.593921e-001
    outer loop
      vertex  8.955699e+000 -1.233935e+001  7.890134e+000
      vertex  9.309722e+000 -9.106465e-001  7.586813e+000
      vertex  8.955699e+000 -9.939464e-001  7.890134e+000
    endloop
  endfacet
  facet normal  2.343781e-001  0.000000e+000  9.721455e-001
    outer loop
      vertex  8.955699e+000 -1.233935e+001  7.890134e+000
      vertex  8.955699e+000 -9.939464e-001  7.890134e+000
      vertex  8.500000e+000 -1.233330e+001  8.000000e+000
    endloop
  endfacet
  facet normal  2.343781e-001  -0.000000e+000  9.721455e-001
    outer loop
      vertex  8.500000e+000 -1.233330e+001  8.000000e+000
      vertex  8.955699e+000 -9.939464e-001  7.890134e+000
      vertex  8.500000e+000 -1.000000e+000  8.000000e+000
    endloop
  endfacet
  facet normal  0.000000e+000  0.000000e+000 -1.000000e+000
    outer loop
      vertex  9.500000e+000 -2.000000e+001  0.000000e+000
      vertex  0.000000e+000 -2.000000e+001  0.000000e+000
      vertex  9.500000e+000  2.000000e+001  0.000000e+000
    endloop
  endfacet
  facet normal  -0.000000e+000  0.000000e+000 -1.000000e+000
    outer loop
      vertex  9.500000e+000  2.000000e+001  0.000000e+000
      vertex  0.000000e+000 -2.000000e+001  0.000000e+000
      vertex  0.000000e+000  2.000000e+001  0.000000e+000
    endloop
  endfacet
endsolid CATIA STL
