solid CATIA STL
  facet normal -7.413096e-001 -5.004684e-005  6.711631e-001
    outer loop
      vertex -1.345583e+000 -2.032253e+001  5.560670e+000
      vertex -1.355301e+000 -1.651406e+001  5.550220e+000
      vertex -1.634064e+000 -2.084295e+001  5.241999e+000
    endloop
  endfacet
  facet normal -7.722765e-001  0.000000e+000  6.352865e-001
    outer loop
      vertex -1.634064e+000  2.084295e+001  5.241999e+000
      vertex -2.293103e+000  2.166895e+001  4.440848e+000
      vertex -2.293103e+000 -2.166895e+001  4.440848e+000
    endloop
  endfacet
  facet normal -7.722765e-001  0.000000e+000  6.352865e-001
    outer loop
      vertex -1.634064e+000  2.084295e+001  5.241999e+000
      vertex -2.293103e+000 -2.166895e+001  4.440848e+000
      vertex -1.634064e+000 -2.084295e+001  5.241999e+000
    endloop
  endfacet
  facet normal -7.416595e-001  0.000000e+000  6.707766e-001
    outer loop
      vertex -1.634064e+000  2.084295e+001  5.241999e+000
      vertex -1.634064e+000 -2.084295e+001  5.241999e+000
      vertex -1.355301e+000 -1.651406e+001  5.550220e+000
    endloop
  endfacet
  facet normal -7.416595e-001  0.000000e+000  6.707766e-001
    outer loop
      vertex -1.634064e+000  2.084295e+001  5.241999e+000
      vertex -1.355301e+000 -1.651406e+001  5.550220e+000
      vertex -1.355301e+000 -1.451406e+001  5.550220e+000
    endloop
  endfacet
  facet normal -7.416595e-001  0.000000e+000  6.707766e-001
    outer loop
      vertex -1.634064e+000  2.084295e+001  5.241999e+000
      vertex -1.355301e+000 -1.451406e+001  5.550220e+000
      vertex -1.355301e+000 -6.514063e+000  5.550220e+000
    endloop
  endfacet
  facet normal -7.416595e-001  0.000000e+000  6.707766e-001
    outer loop
      vertex -1.634064e+000  2.084295e+001  5.241999e+000
      vertex -1.355301e+000 -6.514063e+000  5.550220e+000
      vertex -1.355301e+000 -4.514063e+000  5.550220e+000
    endloop
  endfacet
  facet normal -7.416594e-001  0.000000e+000  6.707766e-001
    outer loop
      vertex -1.634064e+000  2.084295e+001  5.241999e+000
      vertex -1.355301e+000 -4.514063e+000  5.550220e+000
      vertex -1.355301e+000  4.485937e+000  5.550220e+000
    endloop
  endfacet
  facet normal -7.416595e-001  0.000000e+000  6.707766e-001
    outer loop
      vertex -1.634064e+000  2.084295e+001  5.241999e+000
      vertex -1.355301e+000  4.485937e+000  5.550220e+000
      vertex -1.355301e+000  6.485937e+000  5.550220e+000
    endloop
  endfacet
  facet normal -7.416595e-001  0.000000e+000  6.707766e-001
    outer loop
      vertex -1.634064e+000  2.084295e+001  5.241999e+000
      vertex -1.355301e+000  6.485937e+000  5.550220e+000
      vertex -1.355301e+000  1.448594e+001  5.550220e+000
    endloop
  endfacet
  facet normal -7.416595e-001  0.000000e+000  6.707766e-001
    outer loop
      vertex -1.634064e+000  2.084295e+001  5.241999e+000
      vertex -1.355301e+000  1.448594e+001  5.550220e+000
      vertex -1.355301e+000  1.648594e+001  5.550220e+000
    endloop
  endfacet
  facet normal -7.413099e-001  4.968160e-005  6.711628e-001
    outer loop
      vertex -1.634064e+000  2.084295e+001  5.241999e+000
      vertex -1.355301e+000  1.648594e+001  5.550220e+000
      vertex -1.345583e+000  2.032253e+001  5.560670e+000
    endloop
  endfacet
  facet normal -7.127882e-001  0.000000e+000  7.013794e-001
    outer loop
      vertex -9.201648e-001  1.495000e+001  6.000000e+000
      vertex -9.201648e-001  1.605000e+001  6.000000e+000
      vertex -1.174747e+000  1.486819e+001  5.741277e+000
    endloop
  endfacet
  facet normal -7.137564e-001  4.243537e-004  7.003937e-001
    outer loop
      vertex -1.174747e+000  1.486819e+001  5.741277e+000
      vertex -9.201648e-001  1.605000e+001  6.000000e+000
      vertex -1.206787e+000  1.615774e+001  5.707844e+000
    endloop
  endfacet
  facet normal -7.255994e-001 -1.881769e-004  6.881174e-001
    outer loop
      vertex -1.174747e+000  1.486819e+001  5.741277e+000
      vertex -1.206787e+000  1.615774e+001  5.707844e+000
      vertex -1.321894e+000  1.467651e+001  5.586062e+000
    endloop
  endfacet
  facet normal -7.267460e-001  5.045123e-007  6.869063e-001
    outer loop
      vertex -1.321894e+000  1.467651e+001  5.586062e+000
      vertex -1.206787e+000  1.615774e+001  5.707844e+000
      vertex -1.322001e+000  1.632376e+001  5.585948e+000
    endloop
  endfacet
  facet normal -7.315192e-001 -1.561278e-007  6.818209e-001
    outer loop
      vertex -1.321894e+000  1.467651e+001  5.586062e+000
      vertex -1.322001e+000  1.632376e+001  5.585948e+000
      vertex -1.355301e+000  1.448594e+001  5.550220e+000
    endloop
  endfacet
  facet normal -7.315232e-001  0.000000e+000  6.818166e-001
    outer loop
      vertex -1.355301e+000  1.448594e+001  5.550220e+000
      vertex -1.322001e+000  1.632376e+001  5.585948e+000
      vertex -1.355301e+000  1.648594e+001  5.550220e+000
    endloop
  endfacet
  facet normal -7.127882e-001  0.000000e+000  7.013794e-001
    outer loop
      vertex -9.201648e-001  4.950000e+000  6.000000e+000
      vertex -9.201648e-001  6.050000e+000  6.000000e+000
      vertex -1.174747e+000  4.868188e+000  5.741277e+000
    endloop
  endfacet
  facet normal -7.137565e-001  4.243540e-004  7.003938e-001
    outer loop
      vertex -1.174747e+000  4.868188e+000  5.741277e+000
      vertex -9.201648e-001  6.050000e+000  6.000000e+000
      vertex -1.206787e+000  6.157735e+000  5.707844e+000
    endloop
  endfacet
  facet normal -7.255994e-001 -1.881770e-004  6.881174e-001
    outer loop
      vertex -1.174747e+000  4.868188e+000  5.741277e+000
      vertex -1.206787e+000  6.157735e+000  5.707844e+000
      vertex -1.321894e+000  4.676509e+000  5.586062e+000
    endloop
  endfacet
  facet normal -7.267461e-001  5.045125e-007  6.869063e-001
    outer loop
      vertex -1.321894e+000  4.676509e+000  5.586062e+000
      vertex -1.206787e+000  6.157735e+000  5.707844e+000
      vertex -1.322001e+000  6.323759e+000  5.585948e+000
    endloop
  endfacet
  facet normal -7.315191e-001 -1.561278e-007  6.818208e-001
    outer loop
      vertex -1.321894e+000  4.676509e+000  5.586062e+000
      vertex -1.322001e+000  6.323759e+000  5.585948e+000
      vertex -1.355301e+000  4.485937e+000  5.550220e+000
    endloop
  endfacet
  facet normal -7.315232e-001  0.000000e+000  6.818166e-001
    outer loop
      vertex -1.355301e+000  4.485937e+000  5.550220e+000
      vertex -1.322001e+000  6.323759e+000  5.585948e+000
      vertex -1.355301e+000  6.485937e+000  5.550220e+000
    endloop
  endfacet
  facet normal -7.127882e-001  0.000000e+000  7.013794e-001
    outer loop
      vertex -9.201648e-001 -4.050000e+000  6.000000e+000
      vertex -9.201648e-001  4.050000e+000  6.000000e+000
      vertex -1.174747e+000 -4.131812e+000  5.741277e+000
    endloop
  endfacet
  facet normal -7.138227e-001  6.548612e-005  7.003264e-001
    outer loop
      vertex -1.174747e+000 -4.131812e+000  5.741277e+000
      vertex -9.201648e-001  4.050000e+000  6.000000e+000
      vertex -1.206787e+000  4.157735e+000  5.707844e+000
    endloop
  endfacet
  facet normal -7.256969e-001 -3.006494e-005  6.880146e-001
    outer loop
      vertex -1.174747e+000 -4.131812e+000  5.741277e+000
      vertex -1.206787e+000  4.157735e+000  5.707844e+000
      vertex -1.321894e+000 -4.323491e+000  5.586062e+000
    endloop
  endfacet
  facet normal -7.267463e-001  9.609934e-008  6.869059e-001
    outer loop
      vertex -1.321894e+000 -4.323491e+000  5.586062e+000
      vertex -1.206787e+000  4.157735e+000  5.707844e+000
      vertex -1.322001e+000  4.323759e+000  5.585948e+000
    endloop
  endfacet
  facet normal -7.315195e-001 -2.975030e-008  6.818205e-001
    outer loop
      vertex -1.321894e+000 -4.323491e+000  5.586062e+000
      vertex -1.322001e+000  4.323759e+000  5.585948e+000
      vertex -1.355301e+000 -4.514063e+000  5.550220e+000
    endloop
  endfacet
  facet normal -7.315232e-001  0.000000e+000  6.818166e-001
    outer loop
      vertex -1.355301e+000 -4.514063e+000  5.550220e+000
      vertex -1.322001e+000  4.323759e+000  5.585948e+000
      vertex -1.355301e+000  4.485937e+000  5.550220e+000
    endloop
  endfacet
  facet normal -7.127882e-001  0.000000e+000  7.013794e-001
    outer loop
      vertex -9.201648e-001 -6.050000e+000  6.000000e+000
      vertex -9.201648e-001 -4.950000e+000  6.000000e+000
      vertex -1.174747e+000 -6.131812e+000  5.741277e+000
    endloop
  endfacet
  facet normal -7.137565e-001  4.243540e-004  7.003938e-001
    outer loop
      vertex -1.174747e+000 -6.131812e+000  5.741277e+000
      vertex -9.201648e-001 -4.950000e+000  6.000000e+000
      vertex -1.206787e+000 -4.842265e+000  5.707844e+000
    endloop
  endfacet
  facet normal -7.255994e-001 -1.881770e-004  6.881174e-001
    outer loop
      vertex -1.174747e+000 -6.131812e+000  5.741277e+000
      vertex -1.206787e+000 -4.842265e+000  5.707844e+000
      vertex -1.321894e+000 -6.323491e+000  5.586062e+000
    endloop
  endfacet
  facet normal -7.267461e-001  5.045125e-007  6.869063e-001
    outer loop
      vertex -1.321894e+000 -6.323491e+000  5.586062e+000
      vertex -1.206787e+000 -4.842265e+000  5.707844e+000
      vertex -1.322001e+000 -4.676241e+000  5.585948e+000
    endloop
  endfacet
  facet normal -7.315191e-001 -1.561278e-007  6.818208e-001
    outer loop
      vertex -1.321894e+000 -6.323491e+000  5.586062e+000
      vertex -1.322001e+000 -4.676241e+000  5.585948e+000
      vertex -1.355301e+000 -6.514063e+000  5.550220e+000
    endloop
  endfacet
  facet normal -7.315232e-001  0.000000e+000  6.818166e-001
    outer loop
      vertex -1.355301e+000 -6.514063e+000  5.550220e+000
      vertex -1.322001e+000 -4.676241e+000  5.585948e+000
      vertex -1.355301e+000 -4.514063e+000  5.550220e+000
    endloop
  endfacet
  facet normal -7.127882e-001  0.000000e+000  7.013794e-001
    outer loop
      vertex -9.201648e-001 -1.405000e+001  6.000000e+000
      vertex -9.201648e-001 -6.950000e+000  6.000000e+000
      vertex -1.174747e+000 -1.413181e+001  5.741277e+000
    endloop
  endfacet
  facet normal -7.138211e-001  7.448472e-005  7.003281e-001
    outer loop
      vertex -1.174747e+000 -1.413181e+001  5.741277e+000
      vertex -9.201648e-001 -6.950000e+000  6.000000e+000
      vertex -1.206787e+000 -6.842265e+000  5.707844e+000
    endloop
  endfacet
  facet normal -7.256944e-001 -3.416598e-005  6.880172e-001
    outer loop
      vertex -1.174747e+000 -1.413181e+001  5.741277e+000
      vertex -1.206787e+000 -6.842265e+000  5.707844e+000
      vertex -1.321894e+000 -1.432349e+001  5.586062e+000
    endloop
  endfacet
  facet normal -7.267463e-001  1.086661e-007  6.869059e-001
    outer loop
      vertex -1.321894e+000 -1.432349e+001  5.586062e+000
      vertex -1.206787e+000 -6.842265e+000  5.707844e+000
      vertex -1.322001e+000 -6.676241e+000  5.585948e+000
    endloop
  endfacet
  facet normal -7.315195e-001 -3.364032e-008  6.818206e-001
    outer loop
      vertex -1.321894e+000 -1.432349e+001  5.586062e+000
      vertex -1.322001e+000 -6.676241e+000  5.585948e+000
      vertex -1.355301e+000 -1.451406e+001  5.550220e+000
    endloop
  endfacet
  facet normal -7.315232e-001  0.000000e+000  6.818166e-001
    outer loop
      vertex -1.355301e+000 -1.451406e+001  5.550220e+000
      vertex -1.322001e+000 -6.676241e+000  5.585948e+000
      vertex -1.355301e+000 -6.514063e+000  5.550220e+000
    endloop
  endfacet
  facet normal -7.127882e-001  0.000000e+000  7.013794e-001
    outer loop
      vertex -9.201648e-001 -1.605000e+001  6.000000e+000
      vertex -9.201648e-001 -1.495000e+001  6.000000e+000
      vertex -1.174747e+000 -1.613181e+001  5.741277e+000
    endloop
  endfacet
  facet normal -7.137566e-001  4.243540e-004  7.003938e-001
    outer loop
      vertex -1.174747e+000 -1.613181e+001  5.741277e+000
      vertex -9.201648e-001 -1.495000e+001  6.000000e+000
      vertex -1.206787e+000 -1.484226e+001  5.707844e+000
    endloop
  endfacet
  facet normal -7.255994e-001 -1.881770e-004  6.881174e-001
    outer loop
      vertex -1.174747e+000 -1.613181e+001  5.741277e+000
      vertex -1.206787e+000 -1.484226e+001  5.707844e+000
      vertex -1.321894e+000 -1.632349e+001  5.586062e+000
    endloop
  endfacet
  facet normal -7.267460e-001  5.045130e-007  6.869063e-001
    outer loop
      vertex -1.321894e+000 -1.632349e+001  5.586062e+000
      vertex -1.206787e+000 -1.484226e+001  5.707844e+000
      vertex -1.322001e+000 -1.467624e+001  5.585948e+000
    endloop
  endfacet
  facet normal -7.315192e-001 -1.561280e-007  6.818208e-001
    outer loop
      vertex -1.321894e+000 -1.632349e+001  5.586062e+000
      vertex -1.322001e+000 -1.467624e+001  5.585948e+000
      vertex -1.355301e+000 -1.651406e+001  5.550220e+000
    endloop
  endfacet
  facet normal -7.315232e-001  0.000000e+000  6.818166e-001
    outer loop
      vertex -1.355301e+000 -1.651406e+001  5.550220e+000
      vertex -1.322001e+000 -1.467624e+001  5.585948e+000
      vertex -1.355301e+000 -1.451406e+001  5.550220e+000
    endloop
  endfacet
  facet normal -7.061610e-001  0.000000e+000  7.080514e-001
    outer loop
      vertex -9.201648e-001 -1.850000e+001  6.000000e+000
      vertex -9.201648e-001 -1.695000e+001  6.000000e+000
      vertex -9.707550e-001 -1.913331e+001  5.949545e+000
    endloop
  endfacet
  facet normal -7.137696e-001  3.535689e-004  7.003806e-001
    outer loop
      vertex -9.707550e-001 -1.913331e+001  5.949545e+000
      vertex -9.201648e-001 -1.695000e+001  6.000000e+000
      vertex -1.206787e+000 -1.684226e+001  5.707844e+000
    endloop
  endfacet
  facet normal -7.133502e-001  4.418336e-004  7.008076e-001
    outer loop
      vertex -9.707550e-001 -1.913331e+001  5.949545e+000
      vertex -1.206787e+000 -1.684226e+001  5.707844e+000
      vertex -1.114260e+000 -1.973722e+001  5.803853e+000
    endloop
  endfacet
  facet normal -7.242190e-001 -2.782361e-004  6.895700e-001
    outer loop
      vertex -1.114260e+000 -1.973722e+001  5.803853e+000
      vertex -1.206787e+000 -1.684226e+001  5.707844e+000
      vertex -1.345583e+000 -2.032253e+001  5.560670e+000
    endloop
  endfacet
  facet normal -7.267880e-001 -6.125872e-005  6.868618e-001
    outer loop
      vertex -1.345583e+000 -2.032253e+001  5.560670e+000
      vertex -1.206787e+000 -1.684226e+001  5.707844e+000
      vertex -1.322001e+000 -1.667624e+001  5.585948e+000
    endloop
  endfacet
  facet normal -7.315136e-001  4.209395e-006  6.818268e-001
    outer loop
      vertex -1.345583e+000 -2.032253e+001  5.560670e+000
      vertex -1.322001e+000 -1.667624e+001  5.585948e+000
      vertex -1.355301e+000 -1.651406e+001  5.550220e+000
    endloop
  endfacet
  facet normal -7.127882e-001  0.000000e+000  7.013794e-001
    outer loop
      vertex -9.201648e-001  6.950000e+000  6.000000e+000
      vertex -9.201648e-001  1.405000e+001  6.000000e+000
      vertex -1.174747e+000  6.868188e+000  5.741277e+000
    endloop
  endfacet
  facet normal -7.138211e-001  7.448472e-005  7.003281e-001
    outer loop
      vertex -1.174747e+000  6.868188e+000  5.741277e+000
      vertex -9.201648e-001  1.405000e+001  6.000000e+000
      vertex -1.206787e+000  1.415774e+001  5.707844e+000
    endloop
  endfacet
  facet normal -7.256944e-001 -3.416598e-005  6.880172e-001
    outer loop
      vertex -1.174747e+000  6.868188e+000  5.741277e+000
      vertex -1.206787e+000  1.415774e+001  5.707844e+000
      vertex -1.321894e+000  6.676509e+000  5.586062e+000
    endloop
  endfacet
  facet normal -7.267463e-001  1.086661e-007  6.869059e-001
    outer loop
      vertex -1.321894e+000  6.676509e+000  5.586062e+000
      vertex -1.206787e+000  1.415774e+001  5.707844e+000
      vertex -1.322001e+000  1.432376e+001  5.585948e+000
    endloop
  endfacet
  facet normal -7.315195e-001 -3.364032e-008  6.818205e-001
    outer loop
      vertex -1.321894e+000  6.676509e+000  5.586062e+000
      vertex -1.322001e+000  1.432376e+001  5.585948e+000
      vertex -1.355301e+000  6.485937e+000  5.550220e+000
    endloop
  endfacet
  facet normal -7.315232e-001  0.000000e+000  6.818166e-001
    outer loop
      vertex -1.355301e+000  6.485937e+000  5.550220e+000
      vertex -1.322001e+000  1.432376e+001  5.585948e+000
      vertex -1.355301e+000  1.448594e+001  5.550220e+000
    endloop
  endfacet
  facet normal -7.127882e-001  0.000000e+000  7.013794e-001
    outer loop
      vertex -9.201648e-001  1.695000e+001  6.000000e+000
      vertex -9.201648e-001  1.850000e+001  6.000000e+000
      vertex -1.174747e+000  1.686819e+001  5.741277e+000
    endloop
  endfacet
  facet normal -7.105649e-001 -7.039202e-004  7.036313e-001
    outer loop
      vertex -1.174747e+000  1.686819e+001  5.741277e+000
      vertex -9.201648e-001  1.850000e+001  6.000000e+000
      vertex -9.707550e-001  1.913331e+001  5.949545e+000
    endloop
  endfacet
  facet normal -7.129776e-001 -2.618533e-004  7.011867e-001
    outer loop
      vertex -1.174747e+000  1.686819e+001  5.741277e+000
      vertex -9.707550e-001  1.913331e+001  5.949545e+000
      vertex -1.114260e+000  1.973722e+001  5.803853e+000
    endloop
  endfacet
  facet normal -7.259019e-001  3.026399e-004  6.877980e-001
    outer loop
      vertex -1.174747e+000  1.686819e+001  5.741277e+000
      vertex -1.114260e+000  1.973722e+001  5.803853e+000
      vertex -1.321894e+000  1.667651e+001  5.586062e+000
    endloop
  endfacet
  facet normal -7.244406e-001  9.397989e-005  6.893373e-001
    outer loop
      vertex -1.321894e+000  1.667651e+001  5.586062e+000
      vertex -1.114260e+000  1.973722e+001  5.803853e+000
      vertex -1.345583e+000  2.032253e+001  5.560670e+000
    endloop
  endfacet
  facet normal -7.315085e-001 -4.207004e-006  6.818324e-001
    outer loop
      vertex -1.321894e+000  1.667651e+001  5.586062e+000
      vertex -1.345583e+000  2.032253e+001  5.560670e+000
      vertex -1.355301e+000  1.648594e+001  5.550220e+000
    endloop
  endfacet
  facet normal  3.332768e-003 -7.071025e-001  7.071032e-001
    outer loop
      vertex -2.293103e+000 -2.166895e+001  4.440848e+000
      vertex  2.500000e+000 -2.173607e+001  4.351141e+000
      vertex  2.500000e+000 -2.085114e+001  5.236068e+000
    endloop
  endfacet
  facet normal -3.483004e-004 -6.960846e-001  7.179596e-001
    outer loop
      vertex -2.293103e+000 -2.166895e+001  4.440848e+000
      vertex  2.500000e+000 -2.085114e+001  5.236068e+000
      vertex -1.634064e+000 -2.084295e+001  5.241999e+000
    endloop
  endfacet
  facet normal  0.000000e+000 -7.941695e-002  9.968415e-001
    outer loop
      vertex -9.201648e-001 -1.850000e+001  6.000000e+000
      vertex -9.707550e-001 -1.913331e+001  5.949545e+000
      vertex  2.500000e+000 -1.850000e+001  6.000000e+000
    endloop
  endfacet
  facet normal -4.924318e-003 -9.370226e-001  3.492341e-001
    outer loop
      vertex -2.500000e+000 -2.205593e+001  3.831761e+000
      vertex -2.500000e+000 -2.238740e+001  2.942410e+000
      vertex  2.500000e+000 -2.230423e+001  3.236068e+000
    endloop
  endfacet
  facet normal  9.840763e-003 -8.909637e-001  4.539680e-001
    outer loop
      vertex -2.500000e+000 -2.205593e+001  3.831761e+000
      vertex  2.500000e+000 -2.230423e+001  3.236068e+000
      vertex  2.500000e+000 -2.173607e+001  4.351141e+000
    endloop
  endfacet
  facet normal -1.770496e-003 -8.437785e-001  5.366888e-001
    outer loop
      vertex -2.500000e+000 -2.205593e+001  3.831761e+000
      vertex  2.500000e+000 -2.173607e+001  4.351141e+000
      vertex -2.293103e+000 -2.166895e+001  4.440848e+000
    endloop
  endfacet
  facet normal  2.996878e-001 -8.480621e-001  4.370101e-001
    outer loop
      vertex -2.500000e+000 -2.205593e+001  3.831761e+000
      vertex -2.293103e+000 -2.166895e+001  4.440848e+000
      vertex -2.497942e+000 -2.202216e+001  3.895886e+000
    endloop
  endfacet
  facet normal  1.418510e-002 -1.564187e-001  9.875890e-001
    outer loop
      vertex  2.500000e+000 -1.973607e+001  5.804226e+000
      vertex  2.500000e+000 -1.850000e+001  6.000000e+000
      vertex -9.707550e-001 -1.913331e+001  5.949545e+000
    endloop
  endfacet
  facet normal -2.591784e-005 -2.345164e-001  9.721121e-001
    outer loop
      vertex  2.500000e+000 -1.973607e+001  5.804226e+000
      vertex -9.707550e-001 -1.913331e+001  5.949545e+000
      vertex -1.114260e+000 -1.973722e+001  5.803853e+000
    endloop
  endfacet
  facet normal  2.649687e-005 -3.836835e-001  9.234647e-001
    outer loop
      vertex  2.500000e+000 -1.973607e+001  5.804226e+000
      vertex -1.114260e+000 -1.973722e+001  5.803853e+000
      vertex -1.345583e+000 -2.032253e+001  5.560670e+000
    endloop
  endfacet
  facet normal  2.775483e-002 -5.331524e-001  8.455638e-001
    outer loop
      vertex  2.500000e+000 -1.973607e+001  5.804226e+000
      vertex -1.345583e+000 -2.032253e+001  5.560670e+000
      vertex -1.634064e+000 -2.084295e+001  5.241999e+000
    endloop
  endfacet
  facet normal  3.793777e-004 -4.539908e-001  8.910064e-001
    outer loop
      vertex  2.500000e+000 -1.973607e+001  5.804226e+000
      vertex -1.634064e+000 -2.084295e+001  5.241999e+000
      vertex  2.500000e+000 -2.085114e+001  5.236068e+000
    endloop
  endfacet
  facet normal  7.241722e-003 -9.876624e-001  1.564305e-001
    outer loop
      vertex  2.500000e+000 -2.230423e+001  3.236068e+000
      vertex -2.500000e+000 -2.238740e+001  2.942410e+000
      vertex  2.500000e+000 -2.250000e+001  2.000000e+000
    endloop
  endfacet
  facet normal  0.000000e+000 -9.929374e-001  1.186395e-001
    outer loop
      vertex  2.500000e+000 -2.250000e+001  2.000000e+000
      vertex -2.500000e+000 -2.238740e+001  2.942410e+000
      vertex -2.500000e+000 -2.250000e+001  2.000000e+000
    endloop
  endfacet
  facet normal -1.000000e+000  0.000000e+000  0.000000e+000
    outer loop
      vertex -2.500000e+000  2.000000e+001  0.000000e+000
      vertex -2.500000e+000  2.000000e+001 -5.000000e+000
      vertex -2.500000e+000 -2.000000e+001 -5.000000e+000
    endloop
  endfacet
  facet normal -1.000000e+000  0.000000e+000  0.000000e+000
    outer loop
      vertex -2.500000e+000  2.000000e+001  0.000000e+000
      vertex -2.500000e+000 -2.000000e+001 -5.000000e+000
      vertex -2.500000e+000 -2.000000e+001  0.000000e+000
    endloop
  endfacet
  facet normal -1.000000e+000  0.000000e+000  0.000000e+000
    outer loop
      vertex -2.500000e+000  2.000000e+001  0.000000e+000
      vertex -2.500000e+000 -2.000000e+001  0.000000e+000
      vertex -2.500000e+000  2.205593e+001  3.831761e+000
    endloop
  endfacet
  facet normal -1.000000e+000  0.000000e+000  -0.000000e+000
    outer loop
      vertex -2.500000e+000  2.000000e+001  0.000000e+000
      vertex -2.500000e+000  2.205593e+001  3.831761e+000
      vertex -2.500000e+000  2.238740e+001  2.942410e+000
    endloop
  endfacet
  facet normal -1.000000e+000  0.000000e+000  -0.000000e+000
    outer loop
      vertex -2.500000e+000  2.000000e+001  0.000000e+000
      vertex -2.500000e+000  2.238740e+001  2.942410e+000
      vertex -2.500000e+000  2.250000e+001  2.000000e+000
    endloop
  endfacet
  facet normal -1.000000e+000  0.000000e+000  -0.000000e+000
    outer loop
      vertex -2.500000e+000  2.000000e+001  0.000000e+000
      vertex -2.500000e+000  2.250000e+001  2.000000e+000
      vertex -2.500000e+000  2.250000e+001  0.000000e+000
    endloop
  endfacet
  facet normal -1.000000e+000  0.000000e+000  0.000000e+000
    outer loop
      vertex -2.500000e+000  2.205593e+001  3.831761e+000
      vertex -2.500000e+000 -2.000000e+001  0.000000e+000
      vertex -2.500000e+000 -2.205593e+001  3.831761e+000
    endloop
  endfacet
  facet normal -1.000000e+000  0.000000e+000  -0.000000e+000
    outer loop
      vertex -2.500000e+000 -2.205593e+001  3.831761e+000
      vertex -2.500000e+000 -2.000000e+001  0.000000e+000
      vertex -2.500000e+000 -2.250000e+001  0.000000e+000
    endloop
  endfacet
  facet normal -1.000000e+000  0.000000e+000  0.000000e+000
    outer loop
      vertex -2.500000e+000 -2.205593e+001  3.831761e+000
      vertex -2.500000e+000 -2.250000e+001  0.000000e+000
      vertex -2.500000e+000 -2.238740e+001  2.942410e+000
    endloop
  endfacet
  facet normal -1.000000e+000  0.000000e+000  0.000000e+000
    outer loop
      vertex -2.500000e+000 -2.238740e+001  2.942410e+000
      vertex -2.500000e+000 -2.250000e+001  0.000000e+000
      vertex -2.500000e+000 -2.250000e+001  2.000000e+000
    endloop
  endfacet
  facet normal  9.840763e-003  8.909637e-001  4.539680e-001
    outer loop
      vertex -2.500000e+000  2.205593e+001  3.831761e+000
      vertex  2.500000e+000  2.173607e+001  4.351141e+000
      vertex  2.500000e+000  2.230423e+001  3.236068e+000
    endloop
  endfacet
  facet normal -3.483004e-004  6.960846e-001  7.179596e-001
    outer loop
      vertex -2.293103e+000  2.166895e+001  4.440848e+000
      vertex -1.634064e+000  2.084295e+001  5.241999e+000
      vertex  2.500000e+000  2.085114e+001  5.236068e+000
    endloop
  endfacet
  facet normal  3.332768e-003  7.071025e-001  7.071032e-001
    outer loop
      vertex -2.293103e+000  2.166895e+001  4.440848e+000
      vertex  2.500000e+000  2.085114e+001  5.236068e+000
      vertex  2.500000e+000  2.173607e+001  4.351141e+000
    endloop
  endfacet
  facet normal -1.770496e-003  8.437785e-001  5.366888e-001
    outer loop
      vertex -2.293103e+000  2.166895e+001  4.440848e+000
      vertex  2.500000e+000  2.173607e+001  4.351141e+000
      vertex -2.500000e+000  2.205593e+001  3.831761e+000
    endloop
  endfacet
  facet normal  2.996878e-001  8.480621e-001  4.370101e-001
    outer loop
      vertex -2.293103e+000  2.166895e+001  4.440848e+000
      vertex -2.500000e+000  2.205593e+001  3.831761e+000
      vertex -2.497942e+000  2.202216e+001  3.895886e+000
    endloop
  endfacet
  facet normal  1.892813e-004  5.222852e-001  8.527709e-001
    outer loop
      vertex  2.500000e+000  2.085114e+001  5.236068e+000
      vertex -1.634064e+000  2.084295e+001  5.241999e+000
      vertex -1.345583e+000  2.032253e+001  5.560670e+000
    endloop
  endfacet
  facet normal  2.381695e-002  3.915783e-001  9.198365e-001
    outer loop
      vertex  2.500000e+000  2.085114e+001  5.236068e+000
      vertex -1.345583e+000  2.032253e+001  5.560670e+000
      vertex -1.114260e+000  1.973722e+001  5.803853e+000
    endloop
  endfacet
  facet normal  5.218601e-005  4.539908e-001  8.910064e-001
    outer loop
      vertex  2.500000e+000  2.085114e+001  5.236068e+000
      vertex -1.114260e+000  1.973722e+001  5.803853e+000
      vertex  2.500000e+000  1.973607e+001  5.804226e+000
    endloop
  endfacet
  facet normal  0.000000e+000  7.941695e-002  9.968415e-001
    outer loop
      vertex -9.201648e-001  1.850000e+001  6.000000e+000
      vertex  2.500000e+000  1.850000e+001  6.000000e+000
      vertex -9.707550e-001  1.913331e+001  5.949545e+000
    endloop
  endfacet
  facet normal  1.418510e-002  1.564187e-001  9.875890e-001
    outer loop
      vertex -9.707550e-001  1.913331e+001  5.949545e+000
      vertex  2.500000e+000  1.850000e+001  6.000000e+000
      vertex  2.500000e+000  1.973607e+001  5.804226e+000
    endloop
  endfacet
  facet normal -2.591784e-005  2.345164e-001  9.721121e-001
    outer loop
      vertex -9.707550e-001  1.913331e+001  5.949545e+000
      vertex  2.500000e+000  1.973607e+001  5.804226e+000
      vertex -1.114260e+000  1.973722e+001  5.803853e+000
    endloop
  endfacet
  facet normal  -0.000000e+000  9.876884e-001  1.564346e-001
    outer loop
      vertex  2.500000e+000  2.250000e+001  2.000000e+000
      vertex -2.500000e+000  2.250000e+001  2.000000e+000
      vertex  2.500000e+000  2.230423e+001  3.236068e+000
    endloop
  endfacet
  facet normal  9.548562e-003  9.928921e-001  1.186340e-001
    outer loop
      vertex  2.500000e+000  2.230423e+001  3.236068e+000
      vertex -2.500000e+000  2.250000e+001  2.000000e+000
      vertex -2.500000e+000  2.238740e+001  2.942410e+000
    endloop
  endfacet
  facet normal -4.924318e-003  9.370226e-001  3.492341e-001
    outer loop
      vertex  2.500000e+000  2.230423e+001  3.236068e+000
      vertex -2.500000e+000  2.238740e+001  2.942410e+000
      vertex -2.500000e+000  2.205593e+001  3.831761e+000
    endloop
  endfacet
  facet normal -9.994853e-001  0.000000e+000  3.208095e-002
    outer loop
      vertex -2.500000e+000  2.205593e+001  3.831761e+000
      vertex -2.500000e+000 -2.205593e+001  3.831761e+000
      vertex -2.497942e+000  2.202216e+001  3.895886e+000
    endloop
  endfacet
  facet normal -9.994852e-001  0.000000e+000  3.208095e-002
    outer loop
      vertex -2.497942e+000  2.202216e+001  3.895886e+000
      vertex -2.500000e+000 -2.205593e+001  3.831761e+000
      vertex -2.497942e+000 -2.202216e+001  3.895886e+000
    endloop
  endfacet
  facet normal -9.360591e-001  0.000000e+000  3.518427e-001
    outer loop
      vertex -2.497942e+000  2.202216e+001  3.895886e+000
      vertex -2.497942e+000 -2.202216e+001  3.895886e+000
      vertex -2.293103e+000  2.166895e+001  4.440848e+000
    endloop
  endfacet
  facet normal -9.360591e-001  0.000000e+000  3.518427e-001
    outer loop
      vertex -2.293103e+000  2.166895e+001  4.440848e+000
      vertex -2.497942e+000 -2.202216e+001  3.895886e+000
      vertex -2.293103e+000 -2.166895e+001  4.440848e+000
    endloop
  endfacet
  facet normal  0.000000e+000  0.000000e+000  9.999999e-001
    outer loop
      vertex -9.201648e-001  1.495000e+001  6.000000e+000
      vertex  2.500000e+000  1.495000e+001  6.000000e+000
      vertex -9.201648e-001  1.605000e+001  6.000000e+000
    endloop
  endfacet
  facet normal  -0.000000e+000  0.000000e+000  9.999999e-001
    outer loop
      vertex -9.201648e-001  1.605000e+001  6.000000e+000
      vertex  2.500000e+000  1.495000e+001  6.000000e+000
      vertex  2.500000e+000  1.605000e+001  6.000000e+000
    endloop
  endfacet
  facet normal  0.000000e+000  0.000000e+000  9.999999e-001
    outer loop
      vertex -9.201648e-001  6.950000e+000  6.000000e+000
      vertex  2.500000e+000  6.950000e+000  6.000000e+000
      vertex -9.201648e-001  1.405000e+001  6.000000e+000
    endloop
  endfacet
  facet normal  -0.000000e+000  0.000000e+000  9.999999e-001
    outer loop
      vertex -9.201648e-001  1.405000e+001  6.000000e+000
      vertex  2.500000e+000  6.950000e+000  6.000000e+000
      vertex  2.500000e+000  1.405000e+001  6.000000e+000
    endloop
  endfacet
  facet normal  0.000000e+000  0.000000e+000  1.000000e+000
    outer loop
      vertex -9.201648e-001  4.950000e+000  6.000000e+000
      vertex  2.500000e+000  4.950000e+000  6.000000e+000
      vertex -9.201648e-001  6.050000e+000  6.000000e+000
    endloop
  endfacet
  facet normal  -0.000000e+000  0.000000e+000  1.000000e+000
    outer loop
      vertex -9.201648e-001  6.050000e+000  6.000000e+000
      vertex  2.500000e+000  4.950000e+000  6.000000e+000
      vertex  2.500000e+000  6.050000e+000  6.000000e+000
    endloop
  endfacet
  facet normal  0.000000e+000  0.000000e+000  9.999999e-001
    outer loop
      vertex -9.201648e-001 -4.050000e+000  6.000000e+000
      vertex  2.500000e+000 -4.050000e+000  6.000000e+000
      vertex -9.201648e-001  4.050000e+000  6.000000e+000
    endloop
  endfacet
  facet normal  -0.000000e+000  0.000000e+000  9.999999e-001
    outer loop
      vertex -9.201648e-001  4.050000e+000  6.000000e+000
      vertex  2.500000e+000 -4.050000e+000  6.000000e+000
      vertex  2.500000e+000  4.050000e+000  6.000000e+000
    endloop
  endfacet
  facet normal  0.000000e+000  0.000000e+000  1.000000e+000
    outer loop
      vertex -9.201648e-001 -6.050000e+000  6.000000e+000
      vertex  2.500000e+000 -6.050000e+000  6.000000e+000
      vertex -9.201648e-001 -4.950000e+000  6.000000e+000
    endloop
  endfacet
  facet normal  -0.000000e+000  0.000000e+000  1.000000e+000
    outer loop
      vertex -9.201648e-001 -4.950000e+000  6.000000e+000
      vertex  2.500000e+000 -6.050000e+000  6.000000e+000
      vertex  2.500000e+000 -4.950000e+000  6.000000e+000
    endloop
  endfacet
  facet normal  0.000000e+000  0.000000e+000  9.999999e-001
    outer loop
      vertex -9.201648e-001 -1.405000e+001  6.000000e+000
      vertex  2.500000e+000 -1.405000e+001  6.000000e+000
      vertex -9.201648e-001 -6.950000e+000  6.000000e+000
    endloop
  endfacet
  facet normal  -0.000000e+000  0.000000e+000  9.999999e-001
    outer loop
      vertex -9.201648e-001 -6.950000e+000  6.000000e+000
      vertex  2.500000e+000 -1.405000e+001  6.000000e+000
      vertex  2.500000e+000 -6.950000e+000  6.000000e+000
    endloop
  endfacet
  facet normal  0.000000e+000  0.000000e+000  9.999999e-001
    outer loop
      vertex -9.201648e-001 -1.605000e+001  6.000000e+000
      vertex  2.500000e+000 -1.605000e+001  6.000000e+000
      vertex -9.201648e-001 -1.495000e+001  6.000000e+000
    endloop
  endfacet
  facet normal  -0.000000e+000  0.000000e+000  9.999999e-001
    outer loop
      vertex -9.201648e-001 -1.495000e+001  6.000000e+000
      vertex  2.500000e+000 -1.605000e+001  6.000000e+000
      vertex  2.500000e+000 -1.495000e+001  6.000000e+000
    endloop
  endfacet
  facet normal -8.955963e-003 -3.826671e-001  9.238429e-001
    outer loop
      vertex -1.321894e+000  4.676509e+000  5.586062e+000
      vertex  2.500000e+000  4.500000e+000  5.550000e+000
      vertex  2.500000e+000  4.818198e+000  5.681802e+000
    endloop
  endfacet
  facet normal  0.000000e+000 -9.238799e-001  3.826824e-001
    outer loop
      vertex  2.500000e+000  4.950000e+000  6.000000e+000
      vertex -9.201648e-001  4.950000e+000  6.000000e+000
      vertex  2.500000e+000  4.818198e+000  5.681802e+000
    endloop
  endfacet
  facet normal -7.944882e-003 -9.511628e-001  3.085874e-001
    outer loop
      vertex  2.500000e+000  4.818198e+000  5.681802e+000
      vertex -9.201648e-001  4.950000e+000  6.000000e+000
      vertex -1.174747e+000  4.868188e+000  5.741277e+000
    endloop
  endfacet
  facet normal  3.968004e-003 -6.311444e-001  7.756553e-001
    outer loop
      vertex  2.500000e+000  4.818198e+000  5.681802e+000
      vertex -1.174747e+000  4.868188e+000  5.741277e+000
      vertex -1.321894e+000  4.676509e+000  5.586062e+000
    endloop
  endfacet
  facet normal -1.663805e-002  2.118524e-001  9.771601e-001
    outer loop
      vertex -1.322001e+000  4.323759e+000  5.585948e+000
      vertex  2.500000e+000  4.181802e+000  5.681802e+000
      vertex -1.355301e+000  4.485937e+000  5.550220e+000
    endloop
  endfacet
  facet normal -1.343222e-003  3.826821e-001  9.238791e-001
    outer loop
      vertex -1.355301e+000  4.485937e+000  5.550220e+000
      vertex  2.500000e+000  4.181802e+000  5.681802e+000
      vertex  2.500000e+000  4.500000e+000  5.550000e+000
    endloop
  endfacet
  facet normal  7.307039e-004 -1.849588e-001  9.827459e-001
    outer loop
      vertex -1.355301e+000  4.485937e+000  5.550220e+000
      vertex  2.500000e+000  4.500000e+000  5.550000e+000
      vertex -1.321894e+000  4.676509e+000  5.586062e+000
    endloop
  endfacet
  facet normal  0.000000e+000  9.382402e-001  3.459848e-001
    outer loop
      vertex -9.201648e-001  4.050000e+000  6.000000e+000
      vertex  2.500000e+000  4.050000e+000  6.000000e+000
      vertex -1.206787e+000  4.157735e+000  5.707844e+000
    endloop
  endfacet
  facet normal -3.309726e-003  9.238749e-001  3.826804e-001
    outer loop
      vertex -1.206787e+000  4.157735e+000  5.707844e+000
      vertex  2.500000e+000  4.050000e+000  6.000000e+000
      vertex  2.500000e+000  4.181802e+000  5.681802e+000
    endloop
  endfacet
  facet normal  1.811160e-003  5.926395e-001  8.054657e-001
    outer loop
      vertex -1.206787e+000  4.157735e+000  5.707844e+000
      vertex  2.500000e+000  4.181802e+000  5.681802e+000
      vertex -1.322001e+000  4.323759e+000  5.585948e+000
    endloop
  endfacet
  facet normal -8.955963e-003 -3.826671e-001  9.238429e-001
    outer loop
      vertex -1.321894e+000 -1.432349e+001  5.586062e+000
      vertex  2.500000e+000 -1.450000e+001  5.550000e+000
      vertex  2.500000e+000 -1.418180e+001  5.681802e+000
    endloop
  endfacet
  facet normal  0.000000e+000 -9.238799e-001  3.826824e-001
    outer loop
      vertex  2.500000e+000 -1.405000e+001  6.000000e+000
      vertex -9.201648e-001 -1.405000e+001  6.000000e+000
      vertex  2.500000e+000 -1.418180e+001  5.681802e+000
    endloop
  endfacet
  facet normal -7.944728e-003 -9.511623e-001  3.085889e-001
    outer loop
      vertex  2.500000e+000 -1.418180e+001  5.681802e+000
      vertex -9.201648e-001 -1.405000e+001  6.000000e+000
      vertex -1.174747e+000 -1.413181e+001  5.741277e+000
    endloop
  endfacet
  facet normal  3.968059e-003 -6.311454e-001  7.756545e-001
    outer loop
      vertex  2.500000e+000 -1.418180e+001  5.681802e+000
      vertex -1.174747e+000 -1.413181e+001  5.741277e+000
      vertex -1.321894e+000 -1.432349e+001  5.586062e+000
    endloop
  endfacet
  facet normal -1.663810e-002  2.118518e-001  9.771602e-001
    outer loop
      vertex -1.322001e+000 -1.467624e+001  5.585948e+000
      vertex  2.500000e+000 -1.481820e+001  5.681802e+000
      vertex -1.355301e+000 -1.451406e+001  5.550220e+000
    endloop
  endfacet
  facet normal -1.343222e-003  3.826821e-001  9.238791e-001
    outer loop
      vertex -1.355301e+000 -1.451406e+001  5.550220e+000
      vertex  2.500000e+000 -1.481820e+001  5.681802e+000
      vertex  2.500000e+000 -1.450000e+001  5.550000e+000
    endloop
  endfacet
  facet normal  7.307039e-004 -1.849588e-001  9.827459e-001
    outer loop
      vertex -1.355301e+000 -1.451406e+001  5.550220e+000
      vertex  2.500000e+000 -1.450000e+001  5.550000e+000
      vertex -1.321894e+000 -1.432349e+001  5.586062e+000
    endloop
  endfacet
  facet normal  0.000000e+000  9.382396e-001  3.459862e-001
    outer loop
      vertex -9.201648e-001 -1.495000e+001  6.000000e+000
      vertex  2.500000e+000 -1.495000e+001  6.000000e+000
      vertex -1.206787e+000 -1.484226e+001  5.707844e+000
    endloop
  endfacet
  facet normal -3.309608e-003  9.238749e-001  3.826804e-001
    outer loop
      vertex -1.206787e+000 -1.484226e+001  5.707844e+000
      vertex  2.500000e+000 -1.495000e+001  6.000000e+000
      vertex  2.500000e+000 -1.481820e+001  5.681802e+000
    endloop
  endfacet
  facet normal  1.811210e-003  5.926418e-001  8.054641e-001
    outer loop
      vertex -1.206787e+000 -1.484226e+001  5.707844e+000
      vertex  2.500000e+000 -1.481820e+001  5.681802e+000
      vertex -1.322001e+000 -1.467624e+001  5.585948e+000
    endloop
  endfacet
  facet normal -8.955963e-003 -3.826671e-001  9.238429e-001
    outer loop
      vertex -1.321894e+000  1.467651e+001  5.586062e+000
      vertex  2.500000e+000  1.450000e+001  5.550000e+000
      vertex  2.500000e+000  1.481820e+001  5.681802e+000
    endloop
  endfacet
  facet normal  0.000000e+000 -9.238799e-001  3.826824e-001
    outer loop
      vertex  2.500000e+000  1.495000e+001  6.000000e+000
      vertex -9.201648e-001  1.495000e+001  6.000000e+000
      vertex  2.500000e+000  1.481820e+001  5.681802e+000
    endloop
  endfacet
  facet normal -7.944728e-003 -9.511623e-001  3.085889e-001
    outer loop
      vertex  2.500000e+000  1.481820e+001  5.681802e+000
      vertex -9.201648e-001  1.495000e+001  6.000000e+000
      vertex -1.174747e+000  1.486819e+001  5.741277e+000
    endloop
  endfacet
  facet normal  3.968059e-003 -6.311454e-001  7.756545e-001
    outer loop
      vertex  2.500000e+000  1.481820e+001  5.681802e+000
      vertex -1.174747e+000  1.486819e+001  5.741277e+000
      vertex -1.321894e+000  1.467651e+001  5.586062e+000
    endloop
  endfacet
  facet normal -1.663810e-002  2.118518e-001  9.771602e-001
    outer loop
      vertex -1.322001e+000  1.432376e+001  5.585948e+000
      vertex  2.500000e+000  1.418180e+001  5.681802e+000
      vertex -1.355301e+000  1.448594e+001  5.550220e+000
    endloop
  endfacet
  facet normal -1.343222e-003  3.826821e-001  9.238791e-001
    outer loop
      vertex -1.355301e+000  1.448594e+001  5.550220e+000
      vertex  2.500000e+000  1.418180e+001  5.681802e+000
      vertex  2.500000e+000  1.450000e+001  5.550000e+000
    endloop
  endfacet
  facet normal  7.307039e-004 -1.849588e-001  9.827459e-001
    outer loop
      vertex -1.355301e+000  1.448594e+001  5.550220e+000
      vertex  2.500000e+000  1.450000e+001  5.550000e+000
      vertex -1.321894e+000  1.467651e+001  5.586062e+000
    endloop
  endfacet
  facet normal  0.000000e+000  9.382396e-001  3.459862e-001
    outer loop
      vertex -9.201648e-001  1.405000e+001  6.000000e+000
      vertex  2.500000e+000  1.405000e+001  6.000000e+000
      vertex -1.206787e+000  1.415774e+001  5.707844e+000
    endloop
  endfacet
  facet normal -3.309608e-003  9.238749e-001  3.826804e-001
    outer loop
      vertex -1.206787e+000  1.415774e+001  5.707844e+000
      vertex  2.500000e+000  1.405000e+001  6.000000e+000
      vertex  2.500000e+000  1.418180e+001  5.681802e+000
    endloop
  endfacet
  facet normal  1.811210e-003  5.926418e-001  8.054641e-001
    outer loop
      vertex -1.206787e+000  1.415774e+001  5.707844e+000
      vertex  2.500000e+000  1.418180e+001  5.681802e+000
      vertex -1.322001e+000  1.432376e+001  5.585948e+000
    endloop
  endfacet
  facet normal -8.955963e-003 -3.826671e-001  9.238429e-001
    outer loop
      vertex -1.321894e+000 -6.323491e+000  5.586062e+000
      vertex  2.500000e+000 -6.500000e+000  5.550000e+000
      vertex  2.500000e+000 -6.181802e+000  5.681802e+000
    endloop
  endfacet
  facet normal  0.000000e+000 -9.238799e-001  3.826824e-001
    outer loop
      vertex  2.500000e+000 -6.050000e+000  6.000000e+000
      vertex -9.201648e-001 -6.050000e+000  6.000000e+000
      vertex  2.500000e+000 -6.181802e+000  5.681802e+000
    endloop
  endfacet
  facet normal -7.944882e-003 -9.511628e-001  3.085874e-001
    outer loop
      vertex  2.500000e+000 -6.181802e+000  5.681802e+000
      vertex -9.201648e-001 -6.050000e+000  6.000000e+000
      vertex -1.174747e+000 -6.131812e+000  5.741277e+000
    endloop
  endfacet
  facet normal  3.968004e-003 -6.311444e-001  7.756553e-001
    outer loop
      vertex  2.500000e+000 -6.181802e+000  5.681802e+000
      vertex -1.174747e+000 -6.131812e+000  5.741277e+000
      vertex -1.321894e+000 -6.323491e+000  5.586062e+000
    endloop
  endfacet
  facet normal -1.663805e-002  2.118524e-001  9.771601e-001
    outer loop
      vertex -1.322001e+000 -6.676241e+000  5.585948e+000
      vertex  2.500000e+000 -6.818198e+000  5.681802e+000
      vertex -1.355301e+000 -6.514063e+000  5.550220e+000
    endloop
  endfacet
  facet normal -1.343222e-003  3.826821e-001  9.238791e-001
    outer loop
      vertex -1.355301e+000 -6.514063e+000  5.550220e+000
      vertex  2.500000e+000 -6.818198e+000  5.681802e+000
      vertex  2.500000e+000 -6.500000e+000  5.550000e+000
    endloop
  endfacet
  facet normal  7.307039e-004 -1.849588e-001  9.827459e-001
    outer loop
      vertex -1.355301e+000 -6.514063e+000  5.550220e+000
      vertex  2.500000e+000 -6.500000e+000  5.550000e+000
      vertex -1.321894e+000 -6.323491e+000  5.586062e+000
    endloop
  endfacet
  facet normal  0.000000e+000  9.382402e-001  3.459848e-001
    outer loop
      vertex -9.201648e-001 -6.950000e+000  6.000000e+000
      vertex  2.500000e+000 -6.950000e+000  6.000000e+000
      vertex -1.206787e+000 -6.842265e+000  5.707844e+000
    endloop
  endfacet
  facet normal -3.309726e-003  9.238749e-001  3.826804e-001
    outer loop
      vertex -1.206787e+000 -6.842265e+000  5.707844e+000
      vertex  2.500000e+000 -6.950000e+000  6.000000e+000
      vertex  2.500000e+000 -6.818198e+000  5.681802e+000
    endloop
  endfacet
  facet normal  1.811160e-003  5.926395e-001  8.054657e-001
    outer loop
      vertex -1.206787e+000 -6.842265e+000  5.707844e+000
      vertex  2.500000e+000 -6.818198e+000  5.681802e+000
      vertex -1.322001e+000 -6.676241e+000  5.585948e+000
    endloop
  endfacet
  facet normal -8.955963e-003 -3.826671e-001  9.238429e-001
    outer loop
      vertex -1.321894e+000  6.676509e+000  5.586062e+000
      vertex  2.500000e+000  6.500000e+000  5.550000e+000
      vertex  2.500000e+000  6.818198e+000  5.681802e+000
    endloop
  endfacet
  facet normal  0.000000e+000 -9.238799e-001  3.826824e-001
    outer loop
      vertex  2.500000e+000  6.950000e+000  6.000000e+000
      vertex -9.201648e-001  6.950000e+000  6.000000e+000
      vertex  2.500000e+000  6.818198e+000  5.681802e+000
    endloop
  endfacet
  facet normal -7.944882e-003 -9.511628e-001  3.085874e-001
    outer loop
      vertex  2.500000e+000  6.818198e+000  5.681802e+000
      vertex -9.201648e-001  6.950000e+000  6.000000e+000
      vertex -1.174747e+000  6.868188e+000  5.741277e+000
    endloop
  endfacet
  facet normal  3.968004e-003 -6.311444e-001  7.756553e-001
    outer loop
      vertex  2.500000e+000  6.818198e+000  5.681802e+000
      vertex -1.174747e+000  6.868188e+000  5.741277e+000
      vertex -1.321894e+000  6.676509e+000  5.586062e+000
    endloop
  endfacet
  facet normal -1.663805e-002  2.118524e-001  9.771601e-001
    outer loop
      vertex -1.322001e+000  6.323759e+000  5.585948e+000
      vertex  2.500000e+000  6.181802e+000  5.681802e+000
      vertex -1.355301e+000  6.485937e+000  5.550220e+000
    endloop
  endfacet
  facet normal -1.343222e-003  3.826821e-001  9.238791e-001
    outer loop
      vertex -1.355301e+000  6.485937e+000  5.550220e+000
      vertex  2.500000e+000  6.181802e+000  5.681802e+000
      vertex  2.500000e+000  6.500000e+000  5.550000e+000
    endloop
  endfacet
  facet normal  7.307039e-004 -1.849588e-001  9.827459e-001
    outer loop
      vertex -1.355301e+000  6.485937e+000  5.550220e+000
      vertex  2.500000e+000  6.500000e+000  5.550000e+000
      vertex -1.321894e+000  6.676509e+000  5.586062e+000
    endloop
  endfacet
  facet normal  0.000000e+000  9.382402e-001  3.459848e-001
    outer loop
      vertex -9.201648e-001  6.050000e+000  6.000000e+000
      vertex  2.500000e+000  6.050000e+000  6.000000e+000
      vertex -1.206787e+000  6.157735e+000  5.707844e+000
    endloop
  endfacet
  facet normal -3.309726e-003  9.238749e-001  3.826804e-001
    outer loop
      vertex -1.206787e+000  6.157735e+000  5.707844e+000
      vertex  2.500000e+000  6.050000e+000  6.000000e+000
      vertex  2.500000e+000  6.181802e+000  5.681802e+000
    endloop
  endfacet
  facet normal  1.811160e-003  5.926395e-001  8.054657e-001
    outer loop
      vertex -1.206787e+000  6.157735e+000  5.707844e+000
      vertex  2.500000e+000  6.181802e+000  5.681802e+000
      vertex -1.322001e+000  6.323759e+000  5.585948e+000
    endloop
  endfacet
  facet normal -8.955963e-003 -3.826671e-001  9.238429e-001
    outer loop
      vertex -1.321894e+000 -4.323491e+000  5.586062e+000
      vertex  2.500000e+000 -4.500000e+000  5.550000e+000
      vertex  2.500000e+000 -4.181802e+000  5.681802e+000
    endloop
  endfacet
  facet normal  0.000000e+000 -9.238799e-001  3.826824e-001
    outer loop
      vertex  2.500000e+000 -4.050000e+000  6.000000e+000
      vertex -9.201648e-001 -4.050000e+000  6.000000e+000
      vertex  2.500000e+000 -4.181802e+000  5.681802e+000
    endloop
  endfacet
  facet normal -7.944882e-003 -9.511628e-001  3.085874e-001
    outer loop
      vertex  2.500000e+000 -4.181802e+000  5.681802e+000
      vertex -9.201648e-001 -4.050000e+000  6.000000e+000
      vertex -1.174747e+000 -4.131812e+000  5.741277e+000
    endloop
  endfacet
  facet normal  3.968004e-003 -6.311444e-001  7.756553e-001
    outer loop
      vertex  2.500000e+000 -4.181802e+000  5.681802e+000
      vertex -1.174747e+000 -4.131812e+000  5.741277e+000
      vertex -1.321894e+000 -4.323491e+000  5.586062e+000
    endloop
  endfacet
  facet normal -1.663805e-002  2.118524e-001  9.771601e-001
    outer loop
      vertex -1.322001e+000 -4.676241e+000  5.585948e+000
      vertex  2.500000e+000 -4.818198e+000  5.681802e+000
      vertex -1.355301e+000 -4.514063e+000  5.550220e+000
    endloop
  endfacet
  facet normal -1.343222e-003  3.826821e-001  9.238791e-001
    outer loop
      vertex -1.355301e+000 -4.514063e+000  5.550220e+000
      vertex  2.500000e+000 -4.818198e+000  5.681802e+000
      vertex  2.500000e+000 -4.500000e+000  5.550000e+000
    endloop
  endfacet
  facet normal  7.307039e-004 -1.849588e-001  9.827459e-001
    outer loop
      vertex -1.355301e+000 -4.514063e+000  5.550220e+000
      vertex  2.500000e+000 -4.500000e+000  5.550000e+000
      vertex -1.321894e+000 -4.323491e+000  5.586062e+000
    endloop
  endfacet
  facet normal  0.000000e+000  9.382402e-001  3.459848e-001
    outer loop
      vertex -9.201648e-001 -4.950000e+000  6.000000e+000
      vertex  2.500000e+000 -4.950000e+000  6.000000e+000
      vertex -1.206787e+000 -4.842265e+000  5.707844e+000
    endloop
  endfacet
  facet normal -3.309726e-003  9.238749e-001  3.826804e-001
    outer loop
      vertex -1.206787e+000 -4.842265e+000  5.707844e+000
      vertex  2.500000e+000 -4.950000e+000  6.000000e+000
      vertex  2.500000e+000 -4.818198e+000  5.681802e+000
    endloop
  endfacet
  facet normal  1.811160e-003  5.926395e-001  8.054657e-001
    outer loop
      vertex -1.206787e+000 -4.842265e+000  5.707844e+000
      vertex  2.500000e+000 -4.818198e+000  5.681802e+000
      vertex -1.322001e+000 -4.676241e+000  5.585948e+000
    endloop
  endfacet
  facet normal -8.956108e-003 -3.826681e-001  9.238425e-001
    outer loop
      vertex -1.321894e+000 -1.632349e+001  5.586062e+000
      vertex  2.500000e+000 -1.650000e+001  5.550000e+000
      vertex  2.500000e+000 -1.618180e+001  5.681802e+000
    endloop
  endfacet
  facet normal  0.000000e+000 -9.238780e-001  3.826872e-001
    outer loop
      vertex  2.500000e+000 -1.605000e+001  6.000000e+000
      vertex -9.201648e-001 -1.605000e+001  6.000000e+000
      vertex  2.500000e+000 -1.618180e+001  5.681802e+000
    endloop
  endfacet
  facet normal -7.945213e-003 -9.511622e-001  3.085893e-001
    outer loop
      vertex  2.500000e+000 -1.618180e+001  5.681802e+000
      vertex -9.201648e-001 -1.605000e+001  6.000000e+000
      vertex -1.174747e+000 -1.613181e+001  5.741277e+000
    endloop
  endfacet
  facet normal  3.967735e-003 -6.311452e-001  7.756546e-001
    outer loop
      vertex  2.500000e+000 -1.618180e+001  5.681802e+000
      vertex -1.174747e+000 -1.613181e+001  5.741277e+000
      vertex -1.321894e+000 -1.632349e+001  5.586062e+000
    endloop
  endfacet
  facet normal -1.663805e-002  2.118530e-001  9.771600e-001
    outer loop
      vertex -1.322001e+000 -1.667624e+001  5.585948e+000
      vertex  2.500000e+000 -1.681820e+001  5.681802e+000
      vertex -1.355301e+000 -1.651406e+001  5.550220e+000
    endloop
  endfacet
  facet normal -1.343225e-003  3.826830e-001  9.238787e-001
    outer loop
      vertex -1.355301e+000 -1.651406e+001  5.550220e+000
      vertex  2.500000e+000 -1.681820e+001  5.681802e+000
      vertex  2.500000e+000 -1.650000e+001  5.550000e+000
    endloop
  endfacet
  facet normal  7.307005e-004 -1.849579e-001  9.827461e-001
    outer loop
      vertex -1.355301e+000 -1.651406e+001  5.550220e+000
      vertex  2.500000e+000 -1.650000e+001  5.550000e+000
      vertex -1.321894e+000 -1.632349e+001  5.586062e+000
    endloop
  endfacet
  facet normal  0.000000e+000  9.382386e-001  3.459888e-001
    outer loop
      vertex -9.201648e-001 -1.695000e+001  6.000000e+000
      vertex  2.500000e+000 -1.695000e+001  6.000000e+000
      vertex -1.206787e+000 -1.684226e+001  5.707844e+000
    endloop
  endfacet
  facet normal -3.309799e-003  9.238729e-001  3.826850e-001
    outer loop
      vertex -1.206787e+000 -1.684226e+001  5.707844e+000
      vertex  2.500000e+000 -1.695000e+001  6.000000e+000
      vertex  2.500000e+000 -1.681820e+001  5.681802e+000
    endloop
  endfacet
  facet normal  1.811084e-003  5.926394e-001  8.054658e-001
    outer loop
      vertex -1.206787e+000 -1.684226e+001  5.707844e+000
      vertex  2.500000e+000 -1.681820e+001  5.681802e+000
      vertex -1.322001e+000 -1.667624e+001  5.585948e+000
    endloop
  endfacet
  facet normal -8.956108e-003 -3.826681e-001  9.238425e-001
    outer loop
      vertex -1.321894e+000  1.667651e+001  5.586062e+000
      vertex  2.500000e+000  1.650000e+001  5.550000e+000
      vertex  2.500000e+000  1.681820e+001  5.681802e+000
    endloop
  endfacet
  facet normal  0.000000e+000 -9.238780e-001  3.826872e-001
    outer loop
      vertex  2.500000e+000  1.695000e+001  6.000000e+000
      vertex -9.201648e-001  1.695000e+001  6.000000e+000
      vertex  2.500000e+000  1.681820e+001  5.681802e+000
    endloop
  endfacet
  facet normal -7.945213e-003 -9.511622e-001  3.085893e-001
    outer loop
      vertex  2.500000e+000  1.681820e+001  5.681802e+000
      vertex -9.201648e-001  1.695000e+001  6.000000e+000
      vertex -1.174747e+000  1.686819e+001  5.741277e+000
    endloop
  endfacet
  facet normal  3.967735e-003 -6.311452e-001  7.756546e-001
    outer loop
      vertex  2.500000e+000  1.681820e+001  5.681802e+000
      vertex -1.174747e+000  1.686819e+001  5.741277e+000
      vertex -1.321894e+000  1.667651e+001  5.586062e+000
    endloop
  endfacet
  facet normal -1.663805e-002  2.118530e-001  9.771600e-001
    outer loop
      vertex -1.322001e+000  1.632376e+001  5.585948e+000
      vertex  2.500000e+000  1.618180e+001  5.681802e+000
      vertex -1.355301e+000  1.648594e+001  5.550220e+000
    endloop
  endfacet
  facet normal -1.343225e-003  3.826830e-001  9.238787e-001
    outer loop
      vertex -1.355301e+000  1.648594e+001  5.550220e+000
      vertex  2.500000e+000  1.618180e+001  5.681802e+000
      vertex  2.500000e+000  1.650000e+001  5.550000e+000
    endloop
  endfacet
  facet normal  7.307005e-004 -1.849579e-001  9.827461e-001
    outer loop
      vertex -1.355301e+000  1.648594e+001  5.550220e+000
      vertex  2.500000e+000  1.650000e+001  5.550000e+000
      vertex -1.321894e+000  1.667651e+001  5.586062e+000
    endloop
  endfacet
  facet normal  0.000000e+000  9.382386e-001  3.459888e-001
    outer loop
      vertex -9.201648e-001  1.605000e+001  6.000000e+000
      vertex  2.500000e+000  1.605000e+001  6.000000e+000
      vertex -1.206787e+000  1.615774e+001  5.707844e+000
    endloop
  endfacet
  facet normal -3.309799e-003  9.238729e-001  3.826850e-001
    outer loop
      vertex -1.206787e+000  1.615774e+001  5.707844e+000
      vertex  2.500000e+000  1.605000e+001  6.000000e+000
      vertex  2.500000e+000  1.618180e+001  5.681802e+000
    endloop
  endfacet
  facet normal  1.811084e-003  5.926394e-001  8.054658e-001
    outer loop
      vertex -1.206787e+000  1.615774e+001  5.707844e+000
      vertex  2.500000e+000  1.618180e+001  5.681802e+000
      vertex -1.322001e+000  1.632376e+001  5.585948e+000
    endloop
  endfacet
  facet normal  0.000000e+000  0.000000e+000  9.999999e-001
    outer loop
      vertex -9.201648e-001 -1.850000e+001  6.000000e+000
      vertex  2.500000e+000 -1.850000e+001  6.000000e+000
      vertex -9.201648e-001 -1.695000e+001  6.000000e+000
    endloop
  endfacet
  facet normal  -0.000000e+000  0.000000e+000  9.999999e-001
    outer loop
      vertex -9.201648e-001 -1.695000e+001  6.000000e+000
      vertex  2.500000e+000 -1.850000e+001  6.000000e+000
      vertex  2.500000e+000 -1.695000e+001  6.000000e+000
    endloop
  endfacet
  facet normal  0.000000e+000  0.000000e+000  9.999999e-001
    outer loop
      vertex -9.201648e-001  1.695000e+001  6.000000e+000
      vertex  2.500000e+000  1.695000e+001  6.000000e+000
      vertex -9.201648e-001  1.850000e+001  6.000000e+000
    endloop
  endfacet
  facet normal  -0.000000e+000  0.000000e+000  9.999999e-001
    outer loop
      vertex -9.201648e-001  1.850000e+001  6.000000e+000
      vertex  2.500000e+000  1.695000e+001  6.000000e+000
      vertex  2.500000e+000  1.850000e+001  6.000000e+000
    endloop
  endfacet
  facet normal  1.000000e+000  0.000000e+000  0.000000e+000
    outer loop
      vertex  2.500000e+000 -6.050000e+000  6.000000e+000
      vertex  2.500000e+000 -4.500000e+000  5.550000e+000
      vertex  2.500000e+000 -4.818198e+000  5.681802e+000
    endloop
  endfacet
  facet normal  1.000000e+000  0.000000e+000  0.000000e+000
    outer loop
      vertex  2.500000e+000 -6.050000e+000  6.000000e+000
      vertex  2.500000e+000 -4.818198e+000  5.681802e+000
      vertex  2.500000e+000 -4.950000e+000  6.000000e+000
    endloop
  endfacet
  facet normal  1.000000e+000  0.000000e+000  0.000000e+000
    outer loop
      vertex  2.500000e+000 -1.405000e+001  6.000000e+000
      vertex  2.500000e+000 -6.500000e+000  5.550000e+000
      vertex  2.500000e+000 -6.818198e+000  5.681802e+000
    endloop
  endfacet
  facet normal  1.000000e+000  0.000000e+000  0.000000e+000
    outer loop
      vertex  2.500000e+000 -1.405000e+001  6.000000e+000
      vertex  2.500000e+000 -6.818198e+000  5.681802e+000
      vertex  2.500000e+000 -6.950000e+000  6.000000e+000
    endloop
  endfacet
  facet normal  9.999999e-001  0.000000e+000  0.000000e+000
    outer loop
      vertex  2.500000e+000 -1.605000e+001  6.000000e+000
      vertex  2.500000e+000 -1.450000e+001  5.550000e+000
      vertex  2.500000e+000 -1.481820e+001  5.681802e+000
    endloop
  endfacet
  facet normal  1.000000e+000  0.000000e+000  0.000000e+000
    outer loop
      vertex  2.500000e+000 -1.605000e+001  6.000000e+000
      vertex  2.500000e+000 -1.481820e+001  5.681802e+000
      vertex  2.500000e+000 -1.495000e+001  6.000000e+000
    endloop
  endfacet
  facet normal  1.000000e+000  0.000000e+000  0.000000e+000
    outer loop
      vertex  2.500000e+000 -1.850000e+001  6.000000e+000
      vertex  2.500000e+000 -1.650000e+001  5.550000e+000
      vertex  2.500000e+000 -1.681820e+001  5.681802e+000
    endloop
  endfacet
  facet normal  1.000000e+000  0.000000e+000  0.000000e+000
    outer loop
      vertex  2.500000e+000 -1.850000e+001  6.000000e+000
      vertex  2.500000e+000 -1.681820e+001  5.681802e+000
      vertex  2.500000e+000 -1.695000e+001  6.000000e+000
    endloop
  endfacet
  facet normal  1.000000e+000  0.000000e+000  0.000000e+000
    outer loop
      vertex  2.500000e+000 -4.050000e+000  6.000000e+000
      vertex  2.500000e+000  4.181802e+000  5.681802e+000
      vertex  2.500000e+000  4.050000e+000  6.000000e+000
    endloop
  endfacet
  facet normal  1.000000e+000  0.000000e+000  0.000000e+000
    outer loop
      vertex  2.500000e+000  4.950000e+000  6.000000e+000
      vertex  2.500000e+000  6.181802e+000  5.681802e+000
      vertex  2.500000e+000  6.050000e+000  6.000000e+000
    endloop
  endfacet
  facet normal  1.000000e+000  0.000000e+000  0.000000e+000
    outer loop
      vertex  2.500000e+000  6.950000e+000  6.000000e+000
      vertex  2.500000e+000  1.418180e+001  5.681802e+000
      vertex  2.500000e+000  1.405000e+001  6.000000e+000
    endloop
  endfacet
  facet normal  1.000000e+000  0.000000e+000  0.000000e+000
    outer loop
      vertex  2.500000e+000  2.250000e+001  2.000000e+000
      vertex  2.500000e+000  2.230423e+001  3.236068e+000
      vertex  2.500000e+000  2.250000e+001  0.000000e+000
    endloop
  endfacet
  facet normal  1.000000e+000  0.000000e+000  0.000000e+000
    outer loop
      vertex  2.500000e+000  2.000000e+001 -5.000000e+000
      vertex  2.500000e+000  2.000000e+001  0.000000e+000
      vertex  2.500000e+000  1.973607e+001  5.804226e+000
    endloop
  endfacet
  facet normal  1.000000e+000  0.000000e+000  0.000000e+000
    outer loop
      vertex  2.500000e+000  2.000000e+001 -5.000000e+000
      vertex  2.500000e+000  1.973607e+001  5.804226e+000
      vertex  2.500000e+000  1.850000e+001  6.000000e+000
    endloop
  endfacet
  facet normal  1.000000e+000  0.000000e+000  0.000000e+000
    outer loop
      vertex  2.500000e+000  2.000000e+001 -5.000000e+000
      vertex  2.500000e+000  1.850000e+001  6.000000e+000
      vertex  2.500000e+000  1.695000e+001  6.000000e+000
    endloop
  endfacet
  facet normal  1.000000e+000  0.000000e+000  0.000000e+000
    outer loop
      vertex  2.500000e+000  2.000000e+001 -5.000000e+000
      vertex  2.500000e+000  1.695000e+001  6.000000e+000
      vertex  2.500000e+000  1.681820e+001  5.681802e+000
    endloop
  endfacet
  facet normal  1.000000e+000  0.000000e+000  0.000000e+000
    outer loop
      vertex  2.500000e+000  2.000000e+001 -5.000000e+000
      vertex  2.500000e+000  1.681820e+001  5.681802e+000
      vertex  2.500000e+000  1.650000e+001  5.550000e+000
    endloop
  endfacet
  facet normal  1.000000e+000  0.000000e+000  0.000000e+000
    outer loop
      vertex  2.500000e+000  2.000000e+001 -5.000000e+000
      vertex  2.500000e+000  1.650000e+001  5.550000e+000
      vertex  2.500000e+000  1.618180e+001  5.681802e+000
    endloop
  endfacet
  facet normal  1.000000e+000  0.000000e+000  0.000000e+000
    outer loop
      vertex  2.500000e+000  2.000000e+001 -5.000000e+000
      vertex  2.500000e+000  1.618180e+001  5.681802e+000
      vertex  2.500000e+000  1.605000e+001  6.000000e+000
    endloop
  endfacet
  facet normal  1.000000e+000  0.000000e+000  0.000000e+000
    outer loop
      vertex  2.500000e+000  2.000000e+001 -5.000000e+000
      vertex  2.500000e+000  1.605000e+001  6.000000e+000
      vertex  2.500000e+000  1.495000e+001  6.000000e+000
    endloop
  endfacet
  facet normal  1.000000e+000  0.000000e+000  0.000000e+000
    outer loop
      vertex  2.500000e+000  2.000000e+001 -5.000000e+000
      vertex  2.500000e+000  1.495000e+001  6.000000e+000
      vertex  2.500000e+000  1.481820e+001  5.681802e+000
    endloop
  endfacet
  facet normal  1.000000e+000  0.000000e+000  0.000000e+000
    outer loop
      vertex  2.500000e+000  2.000000e+001 -5.000000e+000
      vertex  2.500000e+000  1.481820e+001  5.681802e+000
      vertex  2.500000e+000  1.450000e+001  5.550000e+000
    endloop
  endfacet
  facet normal  1.000000e+000  0.000000e+000  0.000000e+000
    outer loop
      vertex  2.500000e+000  2.000000e+001 -5.000000e+000
      vertex  2.500000e+000  1.450000e+001  5.550000e+000
      vertex  2.500000e+000  1.418180e+001  5.681802e+000
    endloop
  endfacet
  facet normal  1.000000e+000  0.000000e+000  0.000000e+000
    outer loop
      vertex  2.500000e+000  2.000000e+001 -5.000000e+000
      vertex  2.500000e+000  1.418180e+001  5.681802e+000
      vertex  2.500000e+000  6.950000e+000  6.000000e+000
    endloop
  endfacet
  facet normal  1.000000e+000  0.000000e+000  0.000000e+000
    outer loop
      vertex  2.500000e+000  2.000000e+001 -5.000000e+000
      vertex  2.500000e+000  6.950000e+000  6.000000e+000
      vertex  2.500000e+000  6.818198e+000  5.681802e+000
    endloop
  endfacet
  facet normal  9.999999e-001  0.000000e+000  0.000000e+000
    outer loop
      vertex  2.500000e+000  2.000000e+001 -5.000000e+000
      vertex  2.500000e+000  6.818198e+000  5.681802e+000
      vertex  2.500000e+000  6.500000e+000  5.550000e+000
    endloop
  endfacet
  facet normal  1.000000e+000  0.000000e+000  0.000000e+000
    outer loop
      vertex  2.500000e+000  2.000000e+001 -5.000000e+000
      vertex  2.500000e+000  6.500000e+000  5.550000e+000
      vertex  2.500000e+000  6.181802e+000  5.681802e+000
    endloop
  endfacet
  facet normal  1.000000e+000  0.000000e+000  0.000000e+000
    outer loop
      vertex  2.500000e+000  2.000000e+001 -5.000000e+000
      vertex  2.500000e+000  6.181802e+000  5.681802e+000
      vertex  2.500000e+000  4.950000e+000  6.000000e+000
    endloop
  endfacet
  facet normal  1.000000e+000  0.000000e+000  0.000000e+000
    outer loop
      vertex  2.500000e+000  2.000000e+001 -5.000000e+000
      vertex  2.500000e+000  4.950000e+000  6.000000e+000
      vertex  2.500000e+000  4.818198e+000  5.681802e+000
    endloop
  endfacet
  facet normal  1.000000e+000  0.000000e+000  0.000000e+000
    outer loop
      vertex  2.500000e+000  2.000000e+001 -5.000000e+000
      vertex  2.500000e+000  4.818198e+000  5.681802e+000
      vertex  2.500000e+000  4.500000e+000  5.550000e+000
    endloop
  endfacet
  facet normal  1.000000e+000  0.000000e+000  0.000000e+000
    outer loop
      vertex  2.500000e+000  2.000000e+001 -5.000000e+000
      vertex  2.500000e+000  4.500000e+000  5.550000e+000
      vertex  2.500000e+000  4.181802e+000  5.681802e+000
    endloop
  endfacet
  facet normal  1.000000e+000  0.000000e+000  0.000000e+000
    outer loop
      vertex  2.500000e+000  2.000000e+001 -5.000000e+000
      vertex  2.500000e+000  4.181802e+000  5.681802e+000
      vertex  2.500000e+000 -4.050000e+000  6.000000e+000
    endloop
  endfacet
  facet normal  1.000000e+000  0.000000e+000  0.000000e+000
    outer loop
      vertex  2.500000e+000  2.000000e+001 -5.000000e+000
      vertex  2.500000e+000 -4.050000e+000  6.000000e+000
      vertex  2.500000e+000 -4.181802e+000  5.681802e+000
    endloop
  endfacet
  facet normal  1.000000e+000  0.000000e+000  0.000000e+000
    outer loop
      vertex  2.500000e+000  2.000000e+001 -5.000000e+000
      vertex  2.500000e+000 -4.181802e+000  5.681802e+000
      vertex  2.500000e+000 -4.500000e+000  5.550000e+000
    endloop
  endfacet
  facet normal  1.000000e+000  0.000000e+000  0.000000e+000
    outer loop
      vertex  2.500000e+000  2.000000e+001 -5.000000e+000
      vertex  2.500000e+000 -4.500000e+000  5.550000e+000
      vertex  2.500000e+000 -6.050000e+000  6.000000e+000
    endloop
  endfacet
  facet normal  1.000000e+000  0.000000e+000  0.000000e+000
    outer loop
      vertex  2.500000e+000  2.000000e+001 -5.000000e+000
      vertex  2.500000e+000 -6.050000e+000  6.000000e+000
      vertex  2.500000e+000 -6.181802e+000  5.681802e+000
    endloop
  endfacet
  facet normal  1.000000e+000  0.000000e+000  0.000000e+000
    outer loop
      vertex  2.500000e+000  2.000000e+001 -5.000000e+000
      vertex  2.500000e+000 -6.181802e+000  5.681802e+000
      vertex  2.500000e+000 -6.500000e+000  5.550000e+000
    endloop
  endfacet
  facet normal  1.000000e+000  0.000000e+000  0.000000e+000
    outer loop
      vertex  2.500000e+000  2.000000e+001 -5.000000e+000
      vertex  2.500000e+000 -6.500000e+000  5.550000e+000
      vertex  2.500000e+000 -1.405000e+001  6.000000e+000
    endloop
  endfacet
  facet normal  1.000000e+000  0.000000e+000  0.000000e+000
    outer loop
      vertex  2.500000e+000  2.000000e+001 -5.000000e+000
      vertex  2.500000e+000 -1.405000e+001  6.000000e+000
      vertex  2.500000e+000 -1.418180e+001  5.681802e+000
    endloop
  endfacet
  facet normal  1.000000e+000  0.000000e+000  0.000000e+000
    outer loop
      vertex  2.500000e+000  2.000000e+001 -5.000000e+000
      vertex  2.500000e+000 -1.418180e+001  5.681802e+000
      vertex  2.500000e+000 -1.450000e+001  5.550000e+000
    endloop
  endfacet
  facet normal  1.000000e+000  0.000000e+000  0.000000e+000
    outer loop
      vertex  2.500000e+000  2.000000e+001 -5.000000e+000
      vertex  2.500000e+000 -1.450000e+001  5.550000e+000
      vertex  2.500000e+000 -1.605000e+001  6.000000e+000
    endloop
  endfacet
  facet normal  1.000000e+000  0.000000e+000  0.000000e+000
    outer loop
      vertex  2.500000e+000  2.000000e+001 -5.000000e+000
      vertex  2.500000e+000 -1.605000e+001  6.000000e+000
      vertex  2.500000e+000 -1.618180e+001  5.681802e+000
    endloop
  endfacet
  facet normal  1.000000e+000  0.000000e+000  0.000000e+000
    outer loop
      vertex  2.500000e+000  2.000000e+001 -5.000000e+000
      vertex  2.500000e+000 -1.618180e+001  5.681802e+000
      vertex  2.500000e+000 -1.650000e+001  5.550000e+000
    endloop
  endfacet
  facet normal  1.000000e+000  0.000000e+000  0.000000e+000
    outer loop
      vertex  2.500000e+000  2.000000e+001 -5.000000e+000
      vertex  2.500000e+000 -1.650000e+001  5.550000e+000
      vertex  2.500000e+000 -1.850000e+001  6.000000e+000
    endloop
  endfacet
  facet normal  1.000000e+000  0.000000e+000  0.000000e+000
    outer loop
      vertex  2.500000e+000  2.000000e+001 -5.000000e+000
      vertex  2.500000e+000 -1.850000e+001  6.000000e+000
      vertex  2.500000e+000 -1.973607e+001  5.804226e+000
    endloop
  endfacet
  facet normal  1.000000e+000  0.000000e+000  0.000000e+000
    outer loop
      vertex  2.500000e+000  2.000000e+001 -5.000000e+000
      vertex  2.500000e+000 -1.973607e+001  5.804226e+000
      vertex  2.500000e+000 -2.000000e+001 -5.000000e+000
    endloop
  endfacet
  facet normal  1.000000e+000  0.000000e+000  0.000000e+000
    outer loop
      vertex  2.500000e+000 -2.000000e+001  0.000000e+000
      vertex  2.500000e+000 -2.000000e+001 -5.000000e+000
      vertex  2.500000e+000 -1.973607e+001  5.804226e+000
    endloop
  endfacet
  facet normal  1.000000e+000  0.000000e+000  0.000000e+000
    outer loop
      vertex  2.500000e+000 -2.000000e+001  0.000000e+000
      vertex  2.500000e+000 -1.973607e+001  5.804226e+000
      vertex  2.500000e+000 -2.085114e+001  5.236068e+000
    endloop
  endfacet
  facet normal  1.000000e+000  0.000000e+000  0.000000e+000
    outer loop
      vertex  2.500000e+000 -2.000000e+001  0.000000e+000
      vertex  2.500000e+000 -2.085114e+001  5.236068e+000
      vertex  2.500000e+000 -2.173607e+001  4.351141e+000
    endloop
  endfacet
  facet normal  1.000000e+000  0.000000e+000  0.000000e+000
    outer loop
      vertex  2.500000e+000 -2.000000e+001  0.000000e+000
      vertex  2.500000e+000 -2.173607e+001  4.351141e+000
      vertex  2.500000e+000 -2.230423e+001  3.236068e+000
    endloop
  endfacet
  facet normal  1.000000e+000  0.000000e+000  0.000000e+000
    outer loop
      vertex  2.500000e+000 -2.000000e+001  0.000000e+000
      vertex  2.500000e+000 -2.230423e+001  3.236068e+000
      vertex  2.500000e+000 -2.250000e+001  2.000000e+000
    endloop
  endfacet
  facet normal  1.000000e+000  0.000000e+000  0.000000e+000
    outer loop
      vertex  2.500000e+000 -2.000000e+001  0.000000e+000
      vertex  2.500000e+000 -2.250000e+001  2.000000e+000
      vertex  2.500000e+000 -2.250000e+001  0.000000e+000
    endloop
  endfacet
  facet normal  1.000000e+000  0.000000e+000  -0.000000e+000
    outer loop
      vertex  2.500000e+000  1.973607e+001  5.804226e+000
      vertex  2.500000e+000  2.000000e+001  0.000000e+000
      vertex  2.500000e+000  2.085114e+001  5.236068e+000
    endloop
  endfacet
  facet normal  1.000000e+000  0.000000e+000  0.000000e+000
    outer loop
      vertex  2.500000e+000  2.085114e+001  5.236068e+000
      vertex  2.500000e+000  2.000000e+001  0.000000e+000
      vertex  2.500000e+000  2.250000e+001  0.000000e+000
    endloop
  endfacet
  facet normal  1.000000e+000  0.000000e+000  0.000000e+000
    outer loop
      vertex  2.500000e+000  2.085114e+001  5.236068e+000
      vertex  2.500000e+000  2.250000e+001  0.000000e+000
      vertex  2.500000e+000  2.173607e+001  4.351141e+000
    endloop
  endfacet
  facet normal  1.000000e+000  0.000000e+000  0.000000e+000
    outer loop
      vertex  2.500000e+000  2.173607e+001  4.351141e+000
      vertex  2.500000e+000  2.250000e+001  0.000000e+000
      vertex  2.500000e+000  2.230423e+001  3.236068e+000
    endloop
  endfacet
  facet normal  0.000000e+000  1.000000e+000  0.000000e+000
    outer loop
      vertex  2.500000e+000  2.250000e+001  0.000000e+000
      vertex -2.500000e+000  2.250000e+001  0.000000e+000
      vertex  2.500000e+000  2.250000e+001  2.000000e+000
    endloop
  endfacet
  facet normal  0.000000e+000  1.000000e+000  0.000000e+000
    outer loop
      vertex  2.500000e+000  2.250000e+001  2.000000e+000
      vertex -2.500000e+000  2.250000e+001  0.000000e+000
      vertex -2.500000e+000  2.250000e+001  2.000000e+000
    endloop
  endfacet
  facet normal  0.000000e+000 -1.000000e+000  0.000000e+000
    outer loop
      vertex -2.500000e+000 -2.250000e+001  0.000000e+000
      vertex  2.500000e+000 -2.250000e+001  0.000000e+000
      vertex -2.500000e+000 -2.250000e+001  2.000000e+000
    endloop
  endfacet
  facet normal  0.000000e+000 -1.000000e+000  0.000000e+000
    outer loop
      vertex -2.500000e+000 -2.250000e+001  2.000000e+000
      vertex  2.500000e+000 -2.250000e+001  0.000000e+000
      vertex  2.500000e+000 -2.250000e+001  2.000000e+000
    endloop
  endfacet
  facet normal  0.000000e+000  0.000000e+000 -1.000000e+000
    outer loop
      vertex  2.500000e+000 -2.250000e+001  0.000000e+000
      vertex -2.500000e+000 -2.250000e+001  0.000000e+000
      vertex  2.500000e+000 -2.000000e+001  0.000000e+000
    endloop
  endfacet
  facet normal  -0.000000e+000  0.000000e+000 -1.000000e+000
    outer loop
      vertex  2.500000e+000 -2.000000e+001  0.000000e+000
      vertex -2.500000e+000 -2.250000e+001  0.000000e+000
      vertex -2.500000e+000 -2.000000e+001  0.000000e+000
    endloop
  endfacet
  facet normal  0.000000e+000  0.000000e+000 -1.000000e+000
    outer loop
      vertex  2.500000e+000  2.000000e+001  0.000000e+000
      vertex -2.500000e+000  2.000000e+001  0.000000e+000
      vertex  2.500000e+000  2.250000e+001  0.000000e+000
    endloop
  endfacet
  facet normal  -0.000000e+000  0.000000e+000 -1.000000e+000
    outer loop
      vertex  2.500000e+000  2.250000e+001  0.000000e+000
      vertex -2.500000e+000  2.000000e+001  0.000000e+000
      vertex -2.500000e+000  2.250000e+001  0.000000e+000
    endloop
  endfacet
  facet normal  0.000000e+000 -1.000000e+000  0.000000e+000
    outer loop
      vertex  2.500000e+000 -2.000000e+001  0.000000e+000
      vertex -2.500000e+000 -2.000000e+001  0.000000e+000
      vertex  2.500000e+000 -2.000000e+001 -5.000000e+000
    endloop
  endfacet
  facet normal  0.000000e+000 -1.000000e+000  0.000000e+000
    outer loop
      vertex  2.500000e+000 -2.000000e+001 -5.000000e+000
      vertex -2.500000e+000 -2.000000e+001  0.000000e+000
      vertex -2.500000e+000 -2.000000e+001 -5.000000e+000
    endloop
  endfacet
  facet normal  0.000000e+000  1.000000e+000  0.000000e+000
    outer loop
      vertex -2.500000e+000  2.000000e+001  0.000000e+000
      vertex  2.500000e+000  2.000000e+001  0.000000e+000
      vertex -2.500000e+000  2.000000e+001 -5.000000e+000
    endloop
  endfacet
  facet normal  0.000000e+000  1.000000e+000  0.000000e+000
    outer loop
      vertex -2.500000e+000  2.000000e+001 -5.000000e+000
      vertex  2.500000e+000  2.000000e+001  0.000000e+000
      vertex  2.500000e+000  2.000000e+001 -5.000000e+000
    endloop
  endfacet
  facet normal  0.000000e+000  0.000000e+000 -1.000000e+000
    outer loop
      vertex  2.500000e+000 -2.000000e+001 -5.000000e+000
      vertex -2.500000e+000 -2.000000e+001 -5.000000e+000
      vertex  2.500000e+000  2.000000e+001 -5.000000e+000
    endloop
  endfacet
  facet normal  -0.000000e+000  0.000000e+000 -1.000000e+000
    outer loop
      vertex  2.500000e+000  2.000000e+001 -5.000000e+000
      vertex -2.500000e+000 -2.000000e+001 -5.000000e+000
      vertex -2.500000e+000  2.000000e+001 -5.000000e+000
    endloop
  endfacet
endsolid CATIA STL
