solid CATIA STL
  facet normal  -0.000000e+000  0.000000e+000  1.000000e+000
    outer loop
      vertex  2.000000e+000 -3.464102e+000  0.000000e+000
      vertex -2.000000e+000 -3.464102e+000  0.000000e+000
      vertex -2.138491e-014 -4.000000e+000  0.000000e+000
    endloop
  endfacet
  facet normal  0.000000e+000  0.000000e+000  1.000000e+000
    outer loop
      vertex  2.000000e+000 -3.464102e+000  0.000000e+000
      vertex  3.464102e+000 -2.000000e+000  0.000000e+000
      vertex -2.000000e+000 -3.464102e+000  0.000000e+000
    endloop
  endfacet
  facet normal  0.000000e+000  0.000000e+000  1.000000e+000
    outer loop
      vertex -2.000000e+000 -3.464102e+000  0.000000e+000
      vertex  3.464102e+000 -2.000000e+000  0.000000e+000
      vertex -2.176037e-014 -2.000000e+000  0.000000e+000
    endloop
  endfacet
  facet normal  0.000000e+000  0.000000e+000  1.000000e+000
    outer loop
      vertex -2.000000e+000 -3.464102e+000  0.000000e+000
      vertex -2.176037e-014 -2.000000e+000  0.000000e+000
      vertex -3.464102e+000 -2.000000e+000  0.000000e+000
    endloop
  endfacet
  facet normal  1.099909e-001 -9.939320e-001 -1.111094e-003
    outer loop
      vertex -9.184548e-016 -5.000000e+000 -2.500000e+001
      vertex  8.036103e-001 -4.934999e+000 -3.595156e+000
      vertex  2.871139e-001 -4.991750e+000 -3.957896e+000
    endloop
  endfacet
  facet normal -5.671883e-003 -9.999838e-001  4.694673e-004
    outer loop
      vertex -9.184548e-016 -5.000000e+000 -2.500000e+001
      vertex  2.871139e-001 -4.991750e+000 -3.957896e+000
      vertex -3.438588e-001 -4.988162e+000 -3.939021e+000
    endloop
  endfacet
  facet normal -1.193529e-001 -9.928510e-001 -1.390592e-003
    outer loop
      vertex -9.184548e-016 -5.000000e+000 -2.500000e+001
      vertex -3.438588e-001 -4.988162e+000 -3.939021e+000
      vertex -8.373120e-001 -4.929392e+000 -3.546726e+000
    endloop
  endfacet
  facet normal  7.991189e-001 -5.991789e-001  4.892652e-002
    outer loop
      vertex  4.582576e+000 -2.000000e+000 -1.000000e+000
      vertex  3.204107e+000 -3.838450e+000 -1.000000e+000
      vertex  4.330127e+000 -2.500000e+000 -3.000000e+000
    endloop
  endfacet
  facet normal  7.051209e-001 -7.051209e-001 -7.489433e-002
    outer loop
      vertex  4.330127e+000 -2.500000e+000 -3.000000e+000
      vertex  3.204107e+000 -3.838450e+000 -1.000000e+000
      vertex  2.500000e+000 -4.330127e+000 -3.000000e+000
    endloop
  endfacet
  facet normal -7.051209e-001 -7.051209e-001 -7.489433e-002
    outer loop
      vertex -4.330127e+000 -2.500000e+000 -3.000000e+000
      vertex -2.500000e+000 -4.330127e+000 -3.000000e+000
      vertex -3.204107e+000 -3.838450e+000 -1.000000e+000
    endloop
  endfacet
  facet normal -7.991189e-001 -5.991789e-001  4.892652e-002
    outer loop
      vertex -4.582576e+000 -2.000000e+000 -1.000000e+000
      vertex -4.330127e+000 -2.500000e+000 -3.000000e+000
      vertex -3.204107e+000 -3.838450e+000 -1.000000e+000
    endloop
  endfacet
  facet normal  9.789063e-001 -2.043096e-001  0.000000e+000
    outer loop
      vertex  5.000000e+000  0.000000e+000 -2.500000e+001
      vertex  5.000000e+000  0.000000e+000  0.000000e+000
      vertex  4.582576e+000 -2.000000e+000  0.000000e+000
    endloop
  endfacet
  facet normal  9.789064e-001 -2.043096e-001  0.000000e+000
    outer loop
      vertex  5.000000e+000  0.000000e+000 -2.500000e+001
      vertex  4.582576e+000 -2.000000e+000  0.000000e+000
      vertex  4.582576e+000 -2.000000e+000 -1.000000e+000
    endloop
  endfacet
  facet normal  9.182526e-001 -3.956299e-001 -1.699829e-002
    outer loop
      vertex  5.000000e+000  0.000000e+000 -2.500000e+001
      vertex  4.582576e+000 -2.000000e+000 -1.000000e+000
      vertex  4.330127e+000 -2.500000e+000 -3.000000e+000
    endloop
  endfacet
  facet normal  9.659259e-001 -2.588190e-001  0.000000e+000
    outer loop
      vertex  5.000000e+000  0.000000e+000 -2.500000e+001
      vertex  4.330127e+000 -2.500000e+000 -3.000000e+000
      vertex  4.330127e+000 -2.500000e+000 -2.500000e+001
    endloop
  endfacet
  facet normal -9.659259e-001 -2.588190e-001  0.000000e+000
    outer loop
      vertex -5.000000e+000  6.123032e-016 -2.500000e+001
      vertex -4.330127e+000 -2.500000e+000 -2.500000e+001
      vertex -4.330127e+000 -2.500000e+000 -3.000000e+000
    endloop
  endfacet
  facet normal -9.182526e-001 -3.956299e-001 -1.699829e-002
    outer loop
      vertex -5.000000e+000  6.123032e-016 -2.500000e+001
      vertex -4.330127e+000 -2.500000e+000 -3.000000e+000
      vertex -4.582576e+000 -2.000000e+000 -1.000000e+000
    endloop
  endfacet
  facet normal -9.789064e-001 -2.043096e-001  0.000000e+000
    outer loop
      vertex -5.000000e+000  6.123032e-016 -2.500000e+001
      vertex -4.582576e+000 -2.000000e+000 -1.000000e+000
      vertex -4.582576e+000 -2.000000e+000  0.000000e+000
    endloop
  endfacet
  facet normal -9.789063e-001 -2.043096e-001  0.000000e+000
    outer loop
      vertex -5.000000e+000  6.123032e-016 -2.500000e+001
      vertex -4.582576e+000 -2.000000e+000  0.000000e+000
      vertex -5.000000e+000  6.123032e-016  0.000000e+000
    endloop
  endfacet
  facet normal -4.464024e-001 -8.926615e-001  6.229312e-002
    outer loop
      vertex -1.148921e+000 -4.866208e+000 -1.000000e+000
      vertex -3.204107e+000 -3.838450e+000 -1.000000e+000
      vertex -2.500000e+000 -4.330127e+000 -3.000000e+000
    endloop
  endfacet
  facet normal -3.545708e-001 -9.349635e-001 -1.108136e-002
    outer loop
      vertex -1.148921e+000 -4.866208e+000 -1.000000e+000
      vertex -2.500000e+000 -4.330127e+000 -3.000000e+000
      vertex -1.000000e+000 -4.898980e+000 -3.000000e+000
    endloop
  endfacet
  facet normal -1.868058e-001 -9.823945e-001  2.187681e-003
    outer loop
      vertex -1.148921e+000 -4.866208e+000 -1.000000e+000
      vertex -1.000000e+000 -4.898980e+000 -3.000000e+000
      vertex -8.036103e-001 -4.934999e+000 -2.404844e+000
    endloop
  endfacet
  facet normal -1.220871e-001 -9.923454e-001  1.858277e-002
    outer loop
      vertex -1.148921e+000 -4.866208e+000 -1.000000e+000
      vertex -8.036103e-001 -4.934999e+000 -2.404844e+000
      vertex -2.871139e-001 -4.991750e+000 -2.042104e+000
    endloop
  endfacet
  facet normal  9.447509e-003 -9.918197e-001  1.272970e-001
    outer loop
      vertex -1.148921e+000 -4.866208e+000 -1.000000e+000
      vertex -2.871139e-001 -4.991750e+000 -2.042104e+000
      vertex  3.438588e-001 -4.988162e+000 -2.060979e+000
    endloop
  endfacet
  facet normal  0.000000e+000 -9.934586e-001  1.141929e-001
    outer loop
      vertex  1.148921e+000 -4.866208e+000 -1.000000e+000
      vertex -1.148921e+000 -4.866208e+000 -1.000000e+000
      vertex  3.438588e-001 -4.988162e+000 -2.060979e+000
    endloop
  endfacet
  facet normal  1.301522e-001 -9.913776e-001  1.519527e-002
    outer loop
      vertex  1.148921e+000 -4.866208e+000 -1.000000e+000
      vertex  3.438588e-001 -4.988162e+000 -2.060979e+000
      vertex  8.373120e-001 -4.929392e+000 -2.453274e+000
    endloop
  endfacet
  facet normal  1.900400e-001 -9.817744e-001  1.936702e-003
    outer loop
      vertex  1.148921e+000 -4.866208e+000 -1.000000e+000
      vertex  8.373120e-001 -4.929392e+000 -2.453274e+000
      vertex  1.000000e+000 -4.898980e+000 -3.000000e+000
    endloop
  endfacet
  facet normal  3.545708e-001 -9.349635e-001 -1.108136e-002
    outer loop
      vertex  1.148921e+000 -4.866208e+000 -1.000000e+000
      vertex  1.000000e+000 -4.898980e+000 -3.000000e+000
      vertex  2.500000e+000 -4.330127e+000 -3.000000e+000
    endloop
  endfacet
  facet normal  4.464024e-001 -8.926615e-001  6.229312e-002
    outer loop
      vertex  1.148921e+000 -4.866208e+000 -1.000000e+000
      vertex  2.500000e+000 -4.330127e+000 -3.000000e+000
      vertex  3.204107e+000 -3.838450e+000 -1.000000e+000
    endloop
  endfacet
  facet normal  7.071068e-001 -7.071068e-001  0.000000e+000
    outer loop
      vertex  4.330127e+000 -2.500000e+000 -2.500000e+001
      vertex  4.330127e+000 -2.500000e+000 -3.000000e+000
      vertex  2.500000e+000 -4.330127e+000 -2.500000e+001
    endloop
  endfacet
  facet normal  7.071068e-001 -7.071068e-001  0.000000e+000
    outer loop
      vertex  2.500000e+000 -4.330127e+000 -2.500000e+001
      vertex  4.330127e+000 -2.500000e+000 -3.000000e+000
      vertex  2.500000e+000 -4.330127e+000 -3.000000e+000
    endloop
  endfacet
  facet normal  2.588190e-001 -9.659259e-001  0.000000e+000
    outer loop
      vertex  2.500000e+000 -4.330127e+000 -2.500000e+001
      vertex  2.500000e+000 -4.330127e+000 -3.000000e+000
      vertex -9.184548e-016 -5.000000e+000 -2.500000e+001
    endloop
  endfacet
  facet normal  3.545678e-001 -9.349555e-001 -1.182356e-002
    outer loop
      vertex -9.184548e-016 -5.000000e+000 -2.500000e+001
      vertex  2.500000e+000 -4.330127e+000 -3.000000e+000
      vertex  1.000000e+000 -4.898980e+000 -3.000000e+000
    endloop
  endfacet
  facet normal  1.928738e-001 -9.812143e-001 -4.261417e-003
    outer loop
      vertex -9.184548e-016 -5.000000e+000 -2.500000e+001
      vertex  1.000000e+000 -4.898980e+000 -3.000000e+000
      vertex  8.036103e-001 -4.934999e+000 -3.595156e+000
    endloop
  endfacet
  facet normal -7.071068e-001 -7.071068e-001  0.000000e+000
    outer loop
      vertex -4.330127e+000 -2.500000e+000 -3.000000e+000
      vertex -4.330127e+000 -2.500000e+000 -2.500000e+001
      vertex -2.500000e+000 -4.330127e+000 -3.000000e+000
    endloop
  endfacet
  facet normal -7.071068e-001 -7.071068e-001  -0.000000e+000
    outer loop
      vertex -2.500000e+000 -4.330127e+000 -3.000000e+000
      vertex -4.330127e+000 -2.500000e+000 -2.500000e+001
      vertex -2.500000e+000 -4.330127e+000 -2.500000e+001
    endloop
  endfacet
  facet normal -3.545926e-001 -9.350209e-001  0.000000e+000
    outer loop
      vertex -2.500000e+000 -4.330127e+000 -3.000000e+000
      vertex -2.500000e+000 -4.330127e+000 -2.500000e+001
      vertex -1.000000e+000 -4.898980e+000 -3.000000e+000
    endloop
  endfacet
  facet normal -2.588120e-001 -9.658999e-001 -7.328931e-003
    outer loop
      vertex -1.000000e+000 -4.898980e+000 -3.000000e+000
      vertex -2.500000e+000 -4.330127e+000 -2.500000e+001
      vertex -9.184548e-016 -5.000000e+000 -2.500000e+001
    endloop
  endfacet
  facet normal -1.984029e-001 -9.801102e-001 -4.517812e-003
    outer loop
      vertex -1.000000e+000 -4.898980e+000 -3.000000e+000
      vertex -9.184548e-016 -5.000000e+000 -2.500000e+001
      vertex -8.373120e-001 -4.929392e+000 -3.546726e+000
    endloop
  endfacet
  facet normal  0.000000e+000 -1.000000e+000  0.000000e+000
    outer loop
      vertex  4.582576e+000 -2.000000e+000  0.000000e+000
      vertex  3.464102e+000 -2.000000e+000  0.000000e+000
      vertex  3.986296e+000 -2.000000e+000 -1.120206e-001
    endloop
  endfacet
  facet normal  0.000000e+000 -1.000000e+000  0.000000e+000
    outer loop
      vertex  4.582576e+000 -2.000000e+000  0.000000e+000
      vertex  3.986296e+000 -2.000000e+000 -1.120206e-001
      vertex  4.382172e+000 -2.000000e+000 -4.233534e-001
    endloop
  endfacet
  facet normal  0.000000e+000 -1.000000e+000  0.000000e+000
    outer loop
      vertex  4.582576e+000 -2.000000e+000  0.000000e+000
      vertex  4.382172e+000 -2.000000e+000 -4.233534e-001
      vertex  4.582576e+000 -2.000000e+000 -1.000000e+000
    endloop
  endfacet
  facet normal  0.000000e+000 -1.000000e+000  0.000000e+000
    outer loop
      vertex -4.582576e+000 -2.000000e+000  0.000000e+000
      vertex -4.582576e+000 -2.000000e+000 -1.000000e+000
      vertex -4.382172e+000 -2.000000e+000 -4.233534e-001
    endloop
  endfacet
  facet normal  0.000000e+000 -1.000000e+000  0.000000e+000
    outer loop
      vertex -4.582576e+000 -2.000000e+000  0.000000e+000
      vertex -4.382172e+000 -2.000000e+000 -4.233534e-001
      vertex -3.986296e+000 -2.000000e+000 -1.120206e-001
    endloop
  endfacet
  facet normal  0.000000e+000 -1.000000e+000  0.000000e+000
    outer loop
      vertex -4.582576e+000 -2.000000e+000  0.000000e+000
      vertex -3.986296e+000 -2.000000e+000 -1.120206e-001
      vertex -3.464102e+000 -2.000000e+000  0.000000e+000
    endloop
  endfacet
  facet normal  0.000000e+000 -1.000000e+000  0.000000e+000
    outer loop
      vertex -6.500000e+000 -2.000000e+000  9.000000e+000
      vertex -6.500000e+000 -2.000000e+000  0.000000e+000
      vertex -4.582576e+000 -2.000000e+000  0.000000e+000
    endloop
  endfacet
  facet normal  0.000000e+000 -1.000000e+000  0.000000e+000
    outer loop
      vertex -6.500000e+000 -2.000000e+000  9.000000e+000
      vertex -4.582576e+000 -2.000000e+000  0.000000e+000
      vertex -3.464102e+000 -2.000000e+000  0.000000e+000
    endloop
  endfacet
  facet normal  0.000000e+000 -9.999999e-001  0.000000e+000
    outer loop
      vertex -6.500000e+000 -2.000000e+000  9.000000e+000
      vertex -3.464102e+000 -2.000000e+000  0.000000e+000
      vertex -2.176037e-014 -2.000000e+000  0.000000e+000
    endloop
  endfacet
  facet normal  0.000000e+000 -9.999999e-001  0.000000e+000
    outer loop
      vertex -6.500000e+000 -2.000000e+000  9.000000e+000
      vertex -2.176037e-014 -2.000000e+000  0.000000e+000
      vertex  3.464102e+000 -2.000000e+000  0.000000e+000
    endloop
  endfacet
  facet normal  0.000000e+000 -1.000000e+000  0.000000e+000
    outer loop
      vertex -6.500000e+000 -2.000000e+000  9.000000e+000
      vertex  3.464102e+000 -2.000000e+000  0.000000e+000
      vertex  4.582576e+000 -2.000000e+000  0.000000e+000
    endloop
  endfacet
  facet normal  0.000000e+000 -1.000000e+000  0.000000e+000
    outer loop
      vertex -6.500000e+000 -2.000000e+000  9.000000e+000
      vertex  4.582576e+000 -2.000000e+000  0.000000e+000
      vertex  6.500000e+000 -2.000000e+000  0.000000e+000
    endloop
  endfacet
  facet normal  0.000000e+000 -1.000000e+000  0.000000e+000
    outer loop
      vertex -6.500000e+000 -2.000000e+000  9.000000e+000
      vertex  6.500000e+000 -2.000000e+000  0.000000e+000
      vertex  6.500000e+000 -2.000000e+000  9.000000e+000
    endloop
  endfacet
  facet normal  2.367187e-001 -2.367187e-001  9.422996e-001
    outer loop
      vertex  3.464102e+000 -2.000000e+000  0.000000e+000
      vertex  2.000000e+000 -3.464102e+000  0.000000e+000
      vertex  3.016415e+000 -3.613599e+000 -2.928932e-001
    endloop
  endfacet
  facet normal  2.041542e-001 -2.293872e-001  9.516841e-001
    outer loop
      vertex  3.464102e+000 -2.000000e+000  0.000000e+000
      vertex  3.016415e+000 -3.613599e+000 -2.928932e-001
      vertex  3.986296e+000 -2.000000e+000 -1.120206e-001
    endloop
  endfacet
  facet normal -2.041542e-001 -2.293872e-001  9.516841e-001
    outer loop
      vertex -3.464102e+000 -2.000000e+000  0.000000e+000
      vertex -3.986296e+000 -2.000000e+000 -1.120206e-001
      vertex -3.016415e+000 -3.613599e+000 -2.928932e-001
    endloop
  endfacet
  facet normal -2.367187e-001 -2.367187e-001  9.422996e-001
    outer loop
      vertex -3.464102e+000 -2.000000e+000  0.000000e+000
      vertex -3.016415e+000 -3.613599e+000 -2.928932e-001
      vertex -2.000000e+000 -3.464102e+000  0.000000e+000
    endloop
  endfacet
  facet normal -8.509722e-002 -3.175871e-001  9.444030e-001
    outer loop
      vertex -1.081619e+000 -4.581152e+000 -2.928932e-001
      vertex -2.138491e-014 -4.000000e+000  0.000000e+000
      vertex -2.000000e+000 -3.464102e+000  0.000000e+000
    endloop
  endfacet
  facet normal -1.993348e-001 -3.986056e-001  8.951978e-001
    outer loop
      vertex -1.081619e+000 -4.581152e+000 -2.928932e-001
      vertex -2.000000e+000 -3.464102e+000  0.000000e+000
      vertex -3.016415e+000 -3.613599e+000 -2.928932e-001
    endloop
  endfacet
  facet normal  8.509722e-002 -3.175871e-001  9.444030e-001
    outer loop
      vertex  1.081619e+000 -4.581152e+000 -2.928932e-001
      vertex  2.000000e+000 -3.464102e+000  0.000000e+000
      vertex -2.138491e-014 -4.000000e+000  0.000000e+000
    endloop
  endfacet
  facet normal  0.000000e+000 -4.500596e-001  8.929986e-001
    outer loop
      vertex  1.081619e+000 -4.581152e+000 -2.928932e-001
      vertex -2.138491e-014 -4.000000e+000  0.000000e+000
      vertex -1.081619e+000 -4.581152e+000 -2.928932e-001
    endloop
  endfacet
  facet normal  1.993348e-001 -3.986056e-001  8.951978e-001
    outer loop
      vertex  3.016415e+000 -3.613599e+000 -2.928932e-001
      vertex  2.000000e+000 -3.464102e+000  0.000000e+000
      vertex  1.081619e+000 -4.581152e+000 -2.928932e-001
    endloop
  endfacet
  facet normal  5.616754e-001 -4.176612e-001  7.141988e-001
    outer loop
      vertex  3.986296e+000 -2.000000e+000 -1.120206e-001
      vertex  3.016415e+000 -3.613599e+000 -2.928932e-001
      vertex  4.382172e+000 -2.000000e+000 -4.233534e-001
    endloop
  endfacet
  facet normal -5.616754e-001 -4.176612e-001  7.141988e-001
    outer loop
      vertex -3.986296e+000 -2.000000e+000 -1.120206e-001
      vertex -4.382172e+000 -2.000000e+000 -4.233534e-001
      vertex -3.016415e+000 -3.613599e+000 -2.928932e-001
    endloop
  endfacet
  facet normal -7.473507e-001 -6.115615e-001  2.597296e-001
    outer loop
      vertex -4.382172e+000 -2.000000e+000 -4.233534e-001
      vertex -4.582576e+000 -2.000000e+000 -1.000000e+000
      vertex -3.016415e+000 -3.613599e+000 -2.928932e-001
    endloop
  endfacet
  facet normal -7.420493e-001 -5.563882e-001  3.738917e-001
    outer loop
      vertex -3.016415e+000 -3.613599e+000 -2.928932e-001
      vertex -4.582576e+000 -2.000000e+000 -1.000000e+000
      vertex -3.204107e+000 -3.838450e+000 -1.000000e+000
    endloop
  endfacet
  facet normal -4.148315e-001 -8.295299e-001  3.738917e-001
    outer loop
      vertex -3.016415e+000 -3.613599e+000 -2.928932e-001
      vertex -3.204107e+000 -3.838450e+000 -1.000000e+000
      vertex -1.081619e+000 -4.581152e+000 -2.928932e-001
    endloop
  endfacet
  facet normal -4.148315e-001 -8.295300e-001  3.738916e-001
    outer loop
      vertex -1.081619e+000 -4.581152e+000 -2.928932e-001
      vertex -3.204107e+000 -3.838450e+000 -1.000000e+000
      vertex -1.148921e+000 -4.866208e+000 -1.000000e+000
    endloop
  endfacet
  facet normal  0.000000e+000 -9.274725e-001  3.738916e-001
    outer loop
      vertex -1.081619e+000 -4.581152e+000 -2.928932e-001
      vertex -1.148921e+000 -4.866208e+000 -1.000000e+000
      vertex  1.081619e+000 -4.581152e+000 -2.928932e-001
    endloop
  endfacet
  facet normal  0.000000e+000 -9.274724e-001  3.738915e-001
    outer loop
      vertex  1.081619e+000 -4.581152e+000 -2.928932e-001
      vertex -1.148921e+000 -4.866208e+000 -1.000000e+000
      vertex  1.148921e+000 -4.866208e+000 -1.000000e+000
    endloop
  endfacet
  facet normal  4.148316e-001 -8.295299e-001  3.738916e-001
    outer loop
      vertex  1.081619e+000 -4.581152e+000 -2.928932e-001
      vertex  1.148921e+000 -4.866208e+000 -1.000000e+000
      vertex  3.016415e+000 -3.613599e+000 -2.928932e-001
    endloop
  endfacet
  facet normal  4.148315e-001 -8.295299e-001  3.738917e-001
    outer loop
      vertex  3.016415e+000 -3.613599e+000 -2.928932e-001
      vertex  1.148921e+000 -4.866208e+000 -1.000000e+000
      vertex  3.204107e+000 -3.838450e+000 -1.000000e+000
    endloop
  endfacet
  facet normal  7.219743e-001 -5.806596e-001  3.762811e-001
    outer loop
      vertex  3.016415e+000 -3.613599e+000 -2.928932e-001
      vertex  3.204107e+000 -3.838450e+000 -1.000000e+000
      vertex  4.382172e+000 -2.000000e+000 -4.233534e-001
    endloop
  endfacet
  facet normal  7.708336e-001 -5.779706e-001  2.678907e-001
    outer loop
      vertex  4.382172e+000 -2.000000e+000 -4.233534e-001
      vertex  3.204107e+000 -3.838450e+000 -1.000000e+000
      vertex  4.582576e+000 -2.000000e+000 -1.000000e+000
    endloop
  endfacet
  facet normal  0.000000e+000  0.000000e+000  1.000000e+000
    outer loop
      vertex -2.000000e+000  3.464102e+000  0.000000e+000
      vertex  2.000000e+000  3.464102e+000  0.000000e+000
      vertex -5.084149e-015  4.000000e+000  0.000000e+000
    endloop
  endfacet
  facet normal  0.000000e+000  0.000000e+000  1.000000e+000
    outer loop
      vertex -2.000000e+000  3.464102e+000  0.000000e+000
      vertex -3.464102e+000  2.000000e+000  0.000000e+000
      vertex  2.000000e+000  3.464102e+000  0.000000e+000
    endloop
  endfacet
  facet normal  0.000000e+000  0.000000e+000  1.000000e+000
    outer loop
      vertex  2.000000e+000  3.464102e+000  0.000000e+000
      vertex -3.464102e+000  2.000000e+000  0.000000e+000
      vertex -4.884981e-015  2.000000e+000  0.000000e+000
    endloop
  endfacet
  facet normal  0.000000e+000  0.000000e+000  1.000000e+000
    outer loop
      vertex  2.000000e+000  3.464102e+000  0.000000e+000
      vertex -4.884981e-015  2.000000e+000  0.000000e+000
      vertex  3.464102e+000  2.000000e+000  0.000000e+000
    endloop
  endfacet
  facet normal -1.193529e-001  9.928510e-001 -1.390592e-003
    outer loop
      vertex  3.061516e-016  5.000000e+000 -2.500000e+001
      vertex -8.373120e-001  4.929392e+000 -3.546726e+000
      vertex -3.438588e-001  4.988162e+000 -3.939021e+000
    endloop
  endfacet
  facet normal -5.671883e-003  9.999838e-001  4.694673e-004
    outer loop
      vertex -3.438588e-001  4.988162e+000 -3.939021e+000
      vertex  2.871139e-001  4.991750e+000 -3.957896e+000
      vertex  3.061516e-016  5.000000e+000 -2.500000e+001
    endloop
  endfacet
  facet normal  1.099909e-001  9.939320e-001 -1.111094e-003
    outer loop
      vertex  3.061516e-016  5.000000e+000 -2.500000e+001
      vertex  2.871139e-001  4.991750e+000 -3.957896e+000
      vertex  8.036103e-001  4.934999e+000 -3.595156e+000
    endloop
  endfacet
  facet normal -7.991189e-001  5.991789e-001  4.892652e-002
    outer loop
      vertex -4.582576e+000  2.000000e+000 -1.000000e+000
      vertex -3.204107e+000  3.838450e+000 -1.000000e+000
      vertex -4.330127e+000  2.500000e+000 -3.000000e+000
    endloop
  endfacet
  facet normal -1.868058e-001  9.823945e-001  2.187681e-003
    outer loop
      vertex -1.000000e+000  4.898980e+000 -3.000000e+000
      vertex -1.148921e+000  4.866208e+000 -1.000000e+000
      vertex -8.036103e-001  4.934999e+000 -2.404844e+000
    endloop
  endfacet
  facet normal  7.051209e-001  7.051209e-001 -7.489433e-002
    outer loop
      vertex  4.330127e+000  2.500000e+000 -3.000000e+000
      vertex  2.500000e+000  4.330127e+000 -3.000000e+000
      vertex  3.204107e+000  3.838450e+000 -1.000000e+000
    endloop
  endfacet
  facet normal  7.991189e-001  5.991789e-001  4.892652e-002
    outer loop
      vertex  4.582576e+000  2.000000e+000 -1.000000e+000
      vertex  4.330127e+000  2.500000e+000 -3.000000e+000
      vertex  3.204107e+000  3.838450e+000 -1.000000e+000
    endloop
  endfacet
  facet normal -9.789063e-001  2.043096e-001  0.000000e+000
    outer loop
      vertex -5.000000e+000  6.123032e-016 -2.500000e+001
      vertex -5.000000e+000  6.123032e-016  0.000000e+000
      vertex -4.582576e+000  2.000000e+000  0.000000e+000
    endloop
  endfacet
  facet normal -9.789064e-001  2.043096e-001  0.000000e+000
    outer loop
      vertex -5.000000e+000  6.123032e-016 -2.500000e+001
      vertex -4.582576e+000  2.000000e+000  0.000000e+000
      vertex -4.582576e+000  2.000000e+000 -1.000000e+000
    endloop
  endfacet
  facet normal -9.182526e-001  3.956299e-001 -1.699829e-002
    outer loop
      vertex -5.000000e+000  6.123032e-016 -2.500000e+001
      vertex -4.582576e+000  2.000000e+000 -1.000000e+000
      vertex -4.330127e+000  2.500000e+000 -3.000000e+000
    endloop
  endfacet
  facet normal -9.659259e-001  2.588190e-001  0.000000e+000
    outer loop
      vertex -5.000000e+000  6.123032e-016 -2.500000e+001
      vertex -4.330127e+000  2.500000e+000 -3.000000e+000
      vertex -4.330127e+000  2.500000e+000 -2.500000e+001
    endloop
  endfacet
  facet normal  9.659259e-001  2.588190e-001  -0.000000e+000
    outer loop
      vertex  5.000000e+000  0.000000e+000 -2.500000e+001
      vertex  4.330127e+000  2.500000e+000 -2.500000e+001
      vertex  4.330127e+000  2.500000e+000 -3.000000e+000
    endloop
  endfacet
  facet normal  9.182526e-001  3.956299e-001 -1.699829e-002
    outer loop
      vertex  5.000000e+000  0.000000e+000 -2.500000e+001
      vertex  4.330127e+000  2.500000e+000 -3.000000e+000
      vertex  4.582576e+000  2.000000e+000 -1.000000e+000
    endloop
  endfacet
  facet normal  9.789064e-001  2.043096e-001  -0.000000e+000
    outer loop
      vertex  5.000000e+000  0.000000e+000 -2.500000e+001
      vertex  4.582576e+000  2.000000e+000 -1.000000e+000
      vertex  4.582576e+000  2.000000e+000  0.000000e+000
    endloop
  endfacet
  facet normal  9.789063e-001  2.043096e-001  0.000000e+000
    outer loop
      vertex  5.000000e+000  0.000000e+000 -2.500000e+001
      vertex  4.582576e+000  2.000000e+000  0.000000e+000
      vertex  5.000000e+000  0.000000e+000  0.000000e+000
    endloop
  endfacet
  facet normal  4.464024e-001  8.926615e-001  6.229312e-002
    outer loop
      vertex  1.148921e+000  4.866208e+000 -1.000000e+000
      vertex  3.204107e+000  3.838450e+000 -1.000000e+000
      vertex  2.500000e+000  4.330127e+000 -3.000000e+000
    endloop
  endfacet
  facet normal  3.545708e-001  9.349635e-001 -1.108136e-002
    outer loop
      vertex  1.148921e+000  4.866208e+000 -1.000000e+000
      vertex  2.500000e+000  4.330127e+000 -3.000000e+000
      vertex  1.000000e+000  4.898980e+000 -3.000000e+000
    endloop
  endfacet
  facet normal  1.900400e-001  9.817744e-001  1.936702e-003
    outer loop
      vertex  1.148921e+000  4.866208e+000 -1.000000e+000
      vertex  1.000000e+000  4.898980e+000 -3.000000e+000
      vertex  8.373120e-001  4.929392e+000 -2.453274e+000
    endloop
  endfacet
  facet normal  1.301522e-001  9.913776e-001  1.519527e-002
    outer loop
      vertex  1.148921e+000  4.866208e+000 -1.000000e+000
      vertex  8.373120e-001  4.929392e+000 -2.453274e+000
      vertex  3.438588e-001  4.988162e+000 -2.060979e+000
    endloop
  endfacet
  facet normal  8.869900e-003  9.941609e-001  1.075432e-001
    outer loop
      vertex  1.148921e+000  4.866208e+000 -1.000000e+000
      vertex  3.438588e-001  4.988162e+000 -2.060979e+000
      vertex -2.871139e-001  4.991750e+000 -2.042104e+000
    endloop
  endfacet
  facet normal -5.791167e-001  9.589879e-002  8.095846e-001
    outer loop
      vertex  1.148921e+000  4.866208e+000 -1.000000e+000
      vertex -2.871139e-001  4.991750e+000 -2.042104e+000
      vertex -8.036103e-001  4.934999e+000 -2.404844e+000
    endloop
  endfacet
  facet normal  0.000000e+000  9.988033e-001  4.890799e-002
    outer loop
      vertex  1.148921e+000  4.866208e+000 -1.000000e+000
      vertex -8.036103e-001  4.934999e+000 -2.404844e+000
      vertex -1.148921e+000  4.866208e+000 -1.000000e+000
    endloop
  endfacet
  facet normal -7.071068e-001  7.071068e-001  0.000000e+000
    outer loop
      vertex -4.330127e+000  2.500000e+000 -2.500000e+001
      vertex -4.330127e+000  2.500000e+000 -3.000000e+000
      vertex -2.500000e+000  4.330127e+000 -2.500000e+001
    endloop
  endfacet
  facet normal -7.071068e-001  7.071068e-001  0.000000e+000
    outer loop
      vertex -2.500000e+000  4.330127e+000 -2.500000e+001
      vertex -4.330127e+000  2.500000e+000 -3.000000e+000
      vertex -2.500000e+000  4.330127e+000 -3.000000e+000
    endloop
  endfacet
  facet normal -2.588190e-001  9.659259e-001  0.000000e+000
    outer loop
      vertex -2.500000e+000  4.330127e+000 -2.500000e+001
      vertex -2.500000e+000  4.330127e+000 -3.000000e+000
      vertex  3.061516e-016  5.000000e+000 -2.500000e+001
    endloop
  endfacet
  facet normal -3.545678e-001  9.349555e-001 -1.182356e-002
    outer loop
      vertex  3.061516e-016  5.000000e+000 -2.500000e+001
      vertex -2.500000e+000  4.330127e+000 -3.000000e+000
      vertex -1.000000e+000  4.898980e+000 -3.000000e+000
    endloop
  endfacet
  facet normal -1.984029e-001  9.801101e-001 -4.517810e-003
    outer loop
      vertex  3.061516e-016  5.000000e+000 -2.500000e+001
      vertex -1.000000e+000  4.898980e+000 -3.000000e+000
      vertex -8.373120e-001  4.929392e+000 -3.546726e+000
    endloop
  endfacet
  facet normal  7.071068e-001  7.071068e-001  -0.000000e+000
    outer loop
      vertex  4.330127e+000  2.500000e+000 -3.000000e+000
      vertex  4.330127e+000  2.500000e+000 -2.500000e+001
      vertex  2.500000e+000  4.330127e+000 -3.000000e+000
    endloop
  endfacet
  facet normal  7.071068e-001  7.071068e-001  0.000000e+000
    outer loop
      vertex  2.500000e+000  4.330127e+000 -3.000000e+000
      vertex  4.330127e+000  2.500000e+000 -2.500000e+001
      vertex  2.500000e+000  4.330127e+000 -2.500000e+001
    endloop
  endfacet
  facet normal  3.545926e-001  9.350209e-001  -0.000000e+000
    outer loop
      vertex  2.500000e+000  4.330127e+000 -3.000000e+000
      vertex  2.500000e+000  4.330127e+000 -2.500000e+001
      vertex  1.000000e+000  4.898980e+000 -3.000000e+000
    endloop
  endfacet
  facet normal  2.588120e-001  9.658999e-001 -7.328931e-003
    outer loop
      vertex  1.000000e+000  4.898980e+000 -3.000000e+000
      vertex  2.500000e+000  4.330127e+000 -2.500000e+001
      vertex  3.061516e-016  5.000000e+000 -2.500000e+001
    endloop
  endfacet
  facet normal  1.928738e-001  9.812143e-001 -4.261417e-003
    outer loop
      vertex  1.000000e+000  4.898980e+000 -3.000000e+000
      vertex  3.061516e-016  5.000000e+000 -2.500000e+001
      vertex  8.036103e-001  4.934999e+000 -3.595156e+000
    endloop
  endfacet
  facet normal -4.471932e-001  8.942429e-001 -1.864530e-002
    outer loop
      vertex -1.148921e+000  4.866208e+000 -1.000000e+000
      vertex -1.000000e+000  4.898980e+000 -3.000000e+000
      vertex -3.204107e+000  3.838450e+000 -1.000000e+000
    endloop
  endfacet
  facet normal -3.526529e-001  9.299061e-001  1.044541e-001
    outer loop
      vertex -3.204107e+000  3.838450e+000 -1.000000e+000
      vertex -1.000000e+000  4.898980e+000 -3.000000e+000
      vertex -2.500000e+000  4.330127e+000 -3.000000e+000
    endloop
  endfacet
  facet normal -7.051209e-001  7.051209e-001 -7.489433e-002
    outer loop
      vertex -3.204107e+000  3.838450e+000 -1.000000e+000
      vertex -2.500000e+000  4.330127e+000 -3.000000e+000
      vertex -4.330127e+000  2.500000e+000 -3.000000e+000
    endloop
  endfacet
  facet normal  0.000000e+000  1.000000e+000  0.000000e+000
    outer loop
      vertex -4.582576e+000  2.000000e+000  0.000000e+000
      vertex -3.464102e+000  2.000000e+000  0.000000e+000
      vertex -3.986296e+000  2.000000e+000 -1.120206e-001
    endloop
  endfacet
  facet normal  0.000000e+000  1.000000e+000  0.000000e+000
    outer loop
      vertex -4.582576e+000  2.000000e+000  0.000000e+000
      vertex -3.986296e+000  2.000000e+000 -1.120206e-001
      vertex -4.382172e+000  2.000000e+000 -4.233534e-001
    endloop
  endfacet
  facet normal  0.000000e+000  1.000000e+000  0.000000e+000
    outer loop
      vertex -4.582576e+000  2.000000e+000  0.000000e+000
      vertex -4.382172e+000  2.000000e+000 -4.233534e-001
      vertex -4.582576e+000  2.000000e+000 -1.000000e+000
    endloop
  endfacet
  facet normal  0.000000e+000  1.000000e+000  -0.000000e+000
    outer loop
      vertex  4.582576e+000  2.000000e+000  0.000000e+000
      vertex  4.582576e+000  2.000000e+000 -1.000000e+000
      vertex  4.382172e+000  2.000000e+000 -4.233534e-001
    endloop
  endfacet
  facet normal  0.000000e+000  1.000000e+000  -0.000000e+000
    outer loop
      vertex  4.582576e+000  2.000000e+000  0.000000e+000
      vertex  4.382172e+000  2.000000e+000 -4.233534e-001
      vertex  3.986296e+000  2.000000e+000 -1.120206e-001
    endloop
  endfacet
  facet normal  0.000000e+000  1.000000e+000  -0.000000e+000
    outer loop
      vertex  4.582576e+000  2.000000e+000  0.000000e+000
      vertex  3.986296e+000  2.000000e+000 -1.120206e-001
      vertex  3.464102e+000  2.000000e+000  0.000000e+000
    endloop
  endfacet
  facet normal  0.000000e+000  1.000000e+000  -0.000000e+000
    outer loop
      vertex  6.500000e+000  2.000000e+000  9.000000e+000
      vertex  6.500000e+000  2.000000e+000  0.000000e+000
      vertex  4.582576e+000  2.000000e+000  0.000000e+000
    endloop
  endfacet
  facet normal  0.000000e+000  1.000000e+000  -0.000000e+000
    outer loop
      vertex  6.500000e+000  2.000000e+000  9.000000e+000
      vertex  4.582576e+000  2.000000e+000  0.000000e+000
      vertex  3.464102e+000  2.000000e+000  0.000000e+000
    endloop
  endfacet
  facet normal  0.000000e+000  9.999999e-001  -0.000000e+000
    outer loop
      vertex  6.500000e+000  2.000000e+000  9.000000e+000
      vertex  3.464102e+000  2.000000e+000  0.000000e+000
      vertex -4.884981e-015  2.000000e+000  0.000000e+000
    endloop
  endfacet
  facet normal  0.000000e+000  9.999999e-001  -0.000000e+000
    outer loop
      vertex  6.500000e+000  2.000000e+000  9.000000e+000
      vertex -4.884981e-015  2.000000e+000  0.000000e+000
      vertex -3.464102e+000  2.000000e+000  0.000000e+000
    endloop
  endfacet
  facet normal  0.000000e+000  1.000000e+000  -0.000000e+000
    outer loop
      vertex  6.500000e+000  2.000000e+000  9.000000e+000
      vertex -3.464102e+000  2.000000e+000  0.000000e+000
      vertex -4.582576e+000  2.000000e+000  0.000000e+000
    endloop
  endfacet
  facet normal  0.000000e+000  1.000000e+000  -0.000000e+000
    outer loop
      vertex  6.500000e+000  2.000000e+000  9.000000e+000
      vertex -4.582576e+000  2.000000e+000  0.000000e+000
      vertex -6.500000e+000  2.000000e+000  0.000000e+000
    endloop
  endfacet
  facet normal  0.000000e+000  1.000000e+000  0.000000e+000
    outer loop
      vertex  6.500000e+000  2.000000e+000  9.000000e+000
      vertex -6.500000e+000  2.000000e+000  0.000000e+000
      vertex -6.500000e+000  2.000000e+000  9.000000e+000
    endloop
  endfacet
  facet normal -2.367187e-001  2.367187e-001  9.422996e-001
    outer loop
      vertex -3.464102e+000  2.000000e+000  0.000000e+000
      vertex -2.000000e+000  3.464102e+000  0.000000e+000
      vertex -3.016415e+000  3.613599e+000 -2.928932e-001
    endloop
  endfacet
  facet normal -2.041542e-001  2.293872e-001  9.516841e-001
    outer loop
      vertex -3.464102e+000  2.000000e+000  0.000000e+000
      vertex -3.016415e+000  3.613599e+000 -2.928932e-001
      vertex -3.986296e+000  2.000000e+000 -1.120206e-001
    endloop
  endfacet
  facet normal  2.041542e-001  2.293872e-001  9.516841e-001
    outer loop
      vertex  3.464102e+000  2.000000e+000  0.000000e+000
      vertex  3.986296e+000  2.000000e+000 -1.120206e-001
      vertex  3.016415e+000  3.613599e+000 -2.928932e-001
    endloop
  endfacet
  facet normal  2.367187e-001  2.367187e-001  9.422996e-001
    outer loop
      vertex  3.464102e+000  2.000000e+000  0.000000e+000
      vertex  3.016415e+000  3.613599e+000 -2.928932e-001
      vertex  2.000000e+000  3.464102e+000  0.000000e+000
    endloop
  endfacet
  facet normal  8.509722e-002  3.175871e-001  9.444030e-001
    outer loop
      vertex  1.081619e+000  4.581152e+000 -2.928932e-001
      vertex -5.084149e-015  4.000000e+000  0.000000e+000
      vertex  2.000000e+000  3.464102e+000  0.000000e+000
    endloop
  endfacet
  facet normal  1.993348e-001  3.986056e-001  8.951978e-001
    outer loop
      vertex  1.081619e+000  4.581152e+000 -2.928932e-001
      vertex  2.000000e+000  3.464102e+000  0.000000e+000
      vertex  3.016415e+000  3.613599e+000 -2.928932e-001
    endloop
  endfacet
  facet normal -8.509722e-002  3.175871e-001  9.444030e-001
    outer loop
      vertex -1.081619e+000  4.581152e+000 -2.928932e-001
      vertex -2.000000e+000  3.464102e+000  0.000000e+000
      vertex -5.084149e-015  4.000000e+000  0.000000e+000
    endloop
  endfacet
  facet normal  0.000000e+000  4.500596e-001  8.929986e-001
    outer loop
      vertex -1.081619e+000  4.581152e+000 -2.928932e-001
      vertex -5.084149e-015  4.000000e+000  0.000000e+000
      vertex  1.081619e+000  4.581152e+000 -2.928932e-001
    endloop
  endfacet
  facet normal -1.993348e-001  3.986056e-001  8.951978e-001
    outer loop
      vertex -3.016415e+000  3.613599e+000 -2.928932e-001
      vertex -2.000000e+000  3.464102e+000  0.000000e+000
      vertex -1.081619e+000  4.581152e+000 -2.928932e-001
    endloop
  endfacet
  facet normal -5.616754e-001  4.176612e-001  7.141988e-001
    outer loop
      vertex -3.986296e+000  2.000000e+000 -1.120206e-001
      vertex -3.016415e+000  3.613599e+000 -2.928932e-001
      vertex -4.382172e+000  2.000000e+000 -4.233534e-001
    endloop
  endfacet
  facet normal  5.616754e-001  4.176612e-001  7.141988e-001
    outer loop
      vertex  3.986296e+000  2.000000e+000 -1.120206e-001
      vertex  4.382172e+000  2.000000e+000 -4.233534e-001
      vertex  3.016415e+000  3.613599e+000 -2.928932e-001
    endloop
  endfacet
  facet normal  7.473507e-001  6.115615e-001  2.597296e-001
    outer loop
      vertex  4.382172e+000  2.000000e+000 -4.233534e-001
      vertex  4.582576e+000  2.000000e+000 -1.000000e+000
      vertex  3.016415e+000  3.613599e+000 -2.928932e-001
    endloop
  endfacet
  facet normal  7.420493e-001  5.563882e-001  3.738917e-001
    outer loop
      vertex  3.016415e+000  3.613599e+000 -2.928932e-001
      vertex  4.582576e+000  2.000000e+000 -1.000000e+000
      vertex  3.204107e+000  3.838450e+000 -1.000000e+000
    endloop
  endfacet
  facet normal  4.148315e-001  8.295299e-001  3.738917e-001
    outer loop
      vertex  3.016415e+000  3.613599e+000 -2.928932e-001
      vertex  3.204107e+000  3.838450e+000 -1.000000e+000
      vertex  1.081619e+000  4.581152e+000 -2.928932e-001
    endloop
  endfacet
  facet normal  4.148315e-001  8.295300e-001  3.738916e-001
    outer loop
      vertex  1.081619e+000  4.581152e+000 -2.928932e-001
      vertex  3.204107e+000  3.838450e+000 -1.000000e+000
      vertex  1.148921e+000  4.866208e+000 -1.000000e+000
    endloop
  endfacet
  facet normal  0.000000e+000  9.274725e-001  3.738916e-001
    outer loop
      vertex  1.081619e+000  4.581152e+000 -2.928932e-001
      vertex  1.148921e+000  4.866208e+000 -1.000000e+000
      vertex -1.081619e+000  4.581152e+000 -2.928932e-001
    endloop
  endfacet
  facet normal  0.000000e+000  9.274724e-001  3.738915e-001
    outer loop
      vertex -1.081619e+000  4.581152e+000 -2.928932e-001
      vertex  1.148921e+000  4.866208e+000 -1.000000e+000
      vertex -1.148921e+000  4.866208e+000 -1.000000e+000
    endloop
  endfacet
  facet normal -4.148316e-001  8.295299e-001  3.738916e-001
    outer loop
      vertex -1.081619e+000  4.581152e+000 -2.928932e-001
      vertex -1.148921e+000  4.866208e+000 -1.000000e+000
      vertex -3.016415e+000  3.613599e+000 -2.928932e-001
    endloop
  endfacet
  facet normal -4.148315e-001  8.295299e-001  3.738917e-001
    outer loop
      vertex -3.016415e+000  3.613599e+000 -2.928932e-001
      vertex -1.148921e+000  4.866208e+000 -1.000000e+000
      vertex -3.204107e+000  3.838450e+000 -1.000000e+000
    endloop
  endfacet
  facet normal -7.219743e-001  5.806596e-001  3.762811e-001
    outer loop
      vertex -3.016415e+000  3.613599e+000 -2.928932e-001
      vertex -3.204107e+000  3.838450e+000 -1.000000e+000
      vertex -4.382172e+000  2.000000e+000 -4.233534e-001
    endloop
  endfacet
  facet normal -7.708336e-001  5.779706e-001  2.678907e-001
    outer loop
      vertex -4.382172e+000  2.000000e+000 -4.233534e-001
      vertex -3.204107e+000  3.838450e+000 -1.000000e+000
      vertex -4.582576e+000  2.000000e+000 -1.000000e+000
    endloop
  endfacet
  facet normal  0.000000e+000  3.826836e-001  9.238794e-001
    outer loop
      vertex -6.500000e+000  1.000000e+000  1.000000e+001
      vertex  6.500000e+000  1.000000e+000  1.000000e+001
      vertex -6.500000e+000  1.707107e+000  9.707107e+000
    endloop
  endfacet
  facet normal  -0.000000e+000  3.826836e-001  9.238794e-001
    outer loop
      vertex -6.500000e+000  1.707107e+000  9.707107e+000
      vertex  6.500000e+000  1.000000e+000  1.000000e+001
      vertex  6.500000e+000  1.707107e+000  9.707107e+000
    endloop
  endfacet
  facet normal  0.000000e+000  9.238795e-001  3.826835e-001
    outer loop
      vertex -6.500000e+000  1.707107e+000  9.707107e+000
      vertex  6.500000e+000  1.707107e+000  9.707107e+000
      vertex -6.500000e+000  2.000000e+000  9.000000e+000
    endloop
  endfacet
  facet normal  -0.000000e+000  9.238795e-001  3.826835e-001
    outer loop
      vertex -6.500000e+000  2.000000e+000  9.000000e+000
      vertex  6.500000e+000  1.707107e+000  9.707107e+000
      vertex  6.500000e+000  2.000000e+000  9.000000e+000
    endloop
  endfacet
  facet normal  0.000000e+000 -9.238795e-001  3.826835e-001
    outer loop
      vertex -6.500000e+000 -2.000000e+000  9.000000e+000
      vertex  6.500000e+000 -2.000000e+000  9.000000e+000
      vertex -6.500000e+000 -1.707107e+000  9.707107e+000
    endloop
  endfacet
  facet normal  0.000000e+000 -9.238795e-001  3.826835e-001
    outer loop
      vertex -6.500000e+000 -1.707107e+000  9.707107e+000
      vertex  6.500000e+000 -2.000000e+000  9.000000e+000
      vertex  6.500000e+000 -1.707107e+000  9.707107e+000
    endloop
  endfacet
  facet normal  0.000000e+000 -3.826836e-001  9.238794e-001
    outer loop
      vertex -6.500000e+000 -1.707107e+000  9.707107e+000
      vertex  6.500000e+000 -1.707107e+000  9.707107e+000
      vertex -6.500000e+000 -1.000000e+000  1.000000e+001
    endloop
  endfacet
  facet normal  0.000000e+000 -3.826836e-001  9.238794e-001
    outer loop
      vertex -6.500000e+000 -1.000000e+000  1.000000e+001
      vertex  6.500000e+000 -1.707107e+000  9.707107e+000
      vertex  6.500000e+000 -1.000000e+000  1.000000e+001
    endloop
  endfacet
  facet normal -3.826837e-001  0.000000e+000  9.238794e-001
    outer loop
      vertex -6.500000e+000 -1.000000e+000  1.000000e+001
      vertex -6.500000e+000  1.000000e+000  1.000000e+001
      vertex -7.207107e+000 -1.000000e+000  9.707107e+000
    endloop
  endfacet
  facet normal -3.826837e-001  0.000000e+000  9.238794e-001
    outer loop
      vertex -7.207107e+000 -1.000000e+000  9.707107e+000
      vertex -6.500000e+000  1.000000e+000  1.000000e+001
      vertex -7.207107e+000  1.000000e+000  9.707107e+000
    endloop
  endfacet
  facet normal -9.238794e-001  0.000000e+000  3.826837e-001
    outer loop
      vertex -7.207107e+000 -1.000000e+000  9.707107e+000
      vertex -7.207107e+000  1.000000e+000  9.707107e+000
      vertex -7.500000e+000 -1.000000e+000  9.000000e+000
    endloop
  endfacet
  facet normal -9.238794e-001  0.000000e+000  3.826837e-001
    outer loop
      vertex -7.500000e+000 -1.000000e+000  9.000000e+000
      vertex -7.207107e+000  1.000000e+000  9.707107e+000
      vertex -7.500000e+000  1.000000e+000  9.000000e+000
    endloop
  endfacet
  facet normal -1.000000e+000  0.000000e+000  0.000000e+000
    outer loop
      vertex -7.500000e+000  1.000000e+000  1.000000e+000
      vertex -7.500000e+000 -1.000000e+000  1.000000e+000
      vertex -7.500000e+000  1.000000e+000  9.000000e+000
    endloop
  endfacet
  facet normal -1.000000e+000  -0.000000e+000  0.000000e+000
    outer loop
      vertex -7.500000e+000  1.000000e+000  9.000000e+000
      vertex -7.500000e+000 -1.000000e+000  1.000000e+000
      vertex -7.500000e+000 -1.000000e+000  9.000000e+000
    endloop
  endfacet
  facet normal  -0.000000e+000  0.000000e+000 -1.000000e+000
    outer loop
      vertex -6.500000e+000  2.000000e+000  0.000000e+000
      vertex -4.582576e+000  2.000000e+000  0.000000e+000
      vertex -6.500000e+000 -2.000000e+000  0.000000e+000
    endloop
  endfacet
  facet normal  0.000000e+000  0.000000e+000 -1.000000e+000
    outer loop
      vertex -6.500000e+000 -2.000000e+000  0.000000e+000
      vertex -4.582576e+000  2.000000e+000  0.000000e+000
      vertex -5.000000e+000  6.123032e-016  0.000000e+000
    endloop
  endfacet
  facet normal  0.000000e+000  -0.000000e+000 -1.000000e+000
    outer loop
      vertex -6.500000e+000 -2.000000e+000  0.000000e+000
      vertex -5.000000e+000  6.123032e-016  0.000000e+000
      vertex -4.582576e+000 -2.000000e+000  0.000000e+000
    endloop
  endfacet
  facet normal -2.230963e-001 -9.747964e-001  -0.000000e+000
    outer loop
      vertex -6.500000e+000 -2.000000e+000  0.000000e+000
      vertex -6.500000e+000 -2.000000e+000  9.000000e+000
      vertex -6.934947e+000 -1.900456e+000  9.954410e-002
    endloop
  endfacet
  facet normal -3.826701e-001 -9.238472e-001  8.367876e-003
    outer loop
      vertex -6.934947e+000 -1.900456e+000  9.954410e-002
      vertex -6.500000e+000 -2.000000e+000  9.000000e+000
      vertex -7.207107e+000 -1.707107e+000  9.000000e+000
    endloop
  endfacet
  facet normal -5.857161e-001 -8.105161e-001 -3.028371e-004
    outer loop
      vertex -6.934947e+000 -1.900456e+000  9.954410e-002
      vertex -7.207107e+000 -1.707107e+000  9.000000e+000
      vertex -7.218185e+000 -1.695852e+000  3.041536e-001
    endloop
  endfacet
  facet normal -8.942666e-001 -4.475343e-001  5.600798e-004
    outer loop
      vertex -7.218185e+000 -1.695852e+000  3.041536e-001
      vertex -7.207107e+000 -1.707107e+000  9.000000e+000
      vertex -7.487637e+000 -1.156757e+000  8.432434e-001
    endloop
  endfacet
  facet normal -9.238631e-001 -3.826768e-001  5.954016e-003
    outer loop
      vertex -7.487637e+000 -1.156757e+000  8.432434e-001
      vertex -7.207107e+000 -1.707107e+000  9.000000e+000
      vertex -7.500000e+000 -1.000000e+000  9.000000e+000
    endloop
  endfacet
  facet normal -9.969044e-001 -7.862306e-002  -0.000000e+000
    outer loop
      vertex -7.487637e+000 -1.156757e+000  8.432434e-001
      vertex -7.500000e+000 -1.000000e+000  9.000000e+000
      vertex -7.500000e+000 -1.000000e+000  1.000000e+000
    endloop
  endfacet
  facet normal -2.230964e-001  0.000000e+000 -9.747963e-001
    outer loop
      vertex -6.500000e+000  2.000000e+000  0.000000e+000
      vertex -6.500000e+000 -2.000000e+000  0.000000e+000
      vertex -6.934947e+000  1.900456e+000  9.954410e-002
    endloop
  endfacet
  facet normal -2.230964e-001  -0.000000e+000 -9.747964e-001
    outer loop
      vertex -6.934947e+000  1.900456e+000  9.954410e-002
      vertex -6.500000e+000 -2.000000e+000  0.000000e+000
      vertex -6.934947e+000 -1.900456e+000  9.954410e-002
    endloop
  endfacet
  facet normal -5.855722e-001  0.000000e+000 -8.106202e-001
    outer loop
      vertex -6.934947e+000  1.900456e+000  9.954410e-002
      vertex -6.934947e+000 -1.900456e+000  9.954410e-002
      vertex -7.218185e+000  1.695846e+000  3.041483e-001
    endloop
  endfacet
  facet normal -5.855828e-001 -1.267845e-006 -8.106126e-001
    outer loop
      vertex -7.218185e+000  1.695846e+000  3.041483e-001
      vertex -6.934947e+000 -1.900456e+000  9.954410e-002
      vertex -7.218185e+000 -1.695852e+000  3.041536e-001
    endloop
  endfacet
  facet normal -8.944907e-001 -6.992698e-007 -4.470868e-001
    outer loop
      vertex -7.218185e+000  1.695846e+000  3.041483e-001
      vertex -7.218185e+000 -1.695852e+000  3.041536e-001
      vertex -7.487637e+000  1.156757e+000  8.432434e-001
    endloop
  endfacet
  facet normal -8.944891e-001  -0.000000e+000 -4.470897e-001
    outer loop
      vertex -7.487637e+000  1.156757e+000  8.432434e-001
      vertex -7.218185e+000 -1.695852e+000  3.041536e-001
      vertex -7.487637e+000 -1.156757e+000  8.432434e-001
    endloop
  endfacet
  facet normal -9.969044e-001  0.000000e+000 -7.862309e-002
    outer loop
      vertex -7.487637e+000  1.156757e+000  8.432434e-001
      vertex -7.487637e+000 -1.156757e+000  8.432434e-001
      vertex -7.500000e+000  1.000000e+000  1.000000e+000
    endloop
  endfacet
  facet normal -9.969044e-001  -0.000000e+000 -7.862309e-002
    outer loop
      vertex -7.500000e+000  1.000000e+000  1.000000e+000
      vertex -7.487637e+000 -1.156757e+000  8.432434e-001
      vertex -7.500000e+000 -1.000000e+000  1.000000e+000
    endloop
  endfacet
  facet normal -3.826835e-001  9.238795e-001  0.000000e+000
    outer loop
      vertex -7.207107e+000  1.707107e+000  9.000000e+000
      vertex -6.500000e+000  2.000000e+000  9.000000e+000
      vertex -6.500000e+000  2.000000e+000  0.000000e+000
    endloop
  endfacet
  facet normal -2.199262e-001  9.754093e-001  1.446438e-002
    outer loop
      vertex -7.207107e+000  1.707107e+000  9.000000e+000
      vertex -6.500000e+000  2.000000e+000  0.000000e+000
      vertex -6.934947e+000  1.900456e+000  9.954410e-002
    endloop
  endfacet
  facet normal -5.857262e-001  8.105089e-001 -3.033035e-004
    outer loop
      vertex -7.207107e+000  1.707107e+000  9.000000e+000
      vertex -6.934947e+000  1.900456e+000  9.954410e-002
      vertex -7.218185e+000  1.695846e+000  3.041483e-001
    endloop
  endfacet
  facet normal -8.942650e-001  4.475375e-001  5.598033e-004
    outer loop
      vertex -7.207107e+000  1.707107e+000  9.000000e+000
      vertex -7.218185e+000  1.695846e+000  3.041483e-001
      vertex -7.487637e+000  1.156757e+000  8.432434e-001
    endloop
  endfacet
  facet normal -9.940540e-001  1.054699e-001  2.707167e-002
    outer loop
      vertex -7.207107e+000  1.707107e+000  9.000000e+000
      vertex -7.487637e+000  1.156757e+000  8.432434e-001
      vertex -7.500000e+000  1.000000e+000  1.000000e+000
    endloop
  endfacet
  facet normal -9.238794e-001  3.826836e-001  0.000000e+000
    outer loop
      vertex -7.207107e+000  1.707107e+000  9.000000e+000
      vertex -7.500000e+000  1.000000e+000  1.000000e+000
      vertex -7.500000e+000  1.000000e+000  9.000000e+000
    endloop
  endfacet
  facet normal -1.565581e-001  3.779646e-001  9.124869e-001
    outer loop
      vertex -6.500000e+000  1.000000e+000  1.000000e+001
      vertex -6.500000e+000  1.707107e+000  9.707107e+000
      vertex -7.000000e+000  1.500000e+000  9.707107e+000
    endloop
  endfacet
  facet normal -3.779648e-001  1.565580e-001  9.124869e-001
    outer loop
      vertex -6.500000e+000  1.000000e+000  1.000000e+001
      vertex -7.000000e+000  1.500000e+000  9.707107e+000
      vertex -7.207107e+000  1.000000e+000  9.707107e+000
    endloop
  endfacet
  facet normal -8.628560e-001  3.574069e-001  3.574070e-001
    outer loop
      vertex -7.500000e+000  1.000000e+000  9.000000e+000
      vertex -7.207107e+000  1.000000e+000  9.707107e+000
      vertex -7.207107e+000  1.707107e+000  9.000000e+000
    endloop
  endfacet
  facet normal -8.628563e-001  3.574065e-001  3.574066e-001
    outer loop
      vertex -7.207107e+000  1.707107e+000  9.000000e+000
      vertex -7.207107e+000  1.000000e+000  9.707107e+000
      vertex -7.000000e+000  1.500000e+000  9.707107e+000
    endloop
  endfacet
  facet normal -3.574068e-001  8.628562e-001  3.574068e-001
    outer loop
      vertex -7.207107e+000  1.707107e+000  9.000000e+000
      vertex -7.000000e+000  1.500000e+000  9.707107e+000
      vertex -6.500000e+000  2.000000e+000  9.000000e+000
    endloop
  endfacet
  facet normal -3.574068e-001  8.628562e-001  3.574068e-001
    outer loop
      vertex -6.500000e+000  2.000000e+000  9.000000e+000
      vertex -7.000000e+000  1.500000e+000  9.707107e+000
      vertex -6.500000e+000  1.707107e+000  9.707107e+000
    endloop
  endfacet
  facet normal -3.779648e-001 -1.565580e-001  9.124869e-001
    outer loop
      vertex -6.500000e+000 -1.000000e+000  1.000000e+001
      vertex -7.207107e+000 -1.000000e+000  9.707107e+000
      vertex -7.000000e+000 -1.500000e+000  9.707107e+000
    endloop
  endfacet
  facet normal -1.565581e-001 -3.779646e-001  9.124869e-001
    outer loop
      vertex -6.500000e+000 -1.000000e+000  1.000000e+001
      vertex -7.000000e+000 -1.500000e+000  9.707107e+000
      vertex -6.500000e+000 -1.707107e+000  9.707107e+000
    endloop
  endfacet
  facet normal -3.574068e-001 -8.628562e-001  3.574068e-001
    outer loop
      vertex -6.500000e+000 -2.000000e+000  9.000000e+000
      vertex -6.500000e+000 -1.707107e+000  9.707107e+000
      vertex -7.207107e+000 -1.707107e+000  9.000000e+000
    endloop
  endfacet
  facet normal -3.574068e-001 -8.628562e-001  3.574068e-001
    outer loop
      vertex -7.207107e+000 -1.707107e+000  9.000000e+000
      vertex -6.500000e+000 -1.707107e+000  9.707107e+000
      vertex -7.000000e+000 -1.500000e+000  9.707107e+000
    endloop
  endfacet
  facet normal -8.628561e-001 -3.574069e-001  3.574067e-001
    outer loop
      vertex -7.207107e+000 -1.707107e+000  9.000000e+000
      vertex -7.000000e+000 -1.500000e+000  9.707107e+000
      vertex -7.500000e+000 -1.000000e+000  9.000000e+000
    endloop
  endfacet
  facet normal -8.628563e-001 -3.574064e-001  3.574071e-001
    outer loop
      vertex -7.500000e+000 -1.000000e+000  9.000000e+000
      vertex -7.000000e+000 -1.500000e+000  9.707107e+000
      vertex -7.207107e+000 -1.000000e+000  9.707107e+000
    endloop
  endfacet
  facet normal  9.238794e-001  0.000000e+000  3.826837e-001
    outer loop
      vertex  7.500000e+000 -1.000000e+000  9.000000e+000
      vertex  7.500000e+000  1.000000e+000  9.000000e+000
      vertex  7.207107e+000 -1.000000e+000  9.707107e+000
    endloop
  endfacet
  facet normal  9.238794e-001  -0.000000e+000  3.826837e-001
    outer loop
      vertex  7.207107e+000 -1.000000e+000  9.707107e+000
      vertex  7.500000e+000  1.000000e+000  9.000000e+000
      vertex  7.207107e+000  1.000000e+000  9.707107e+000
    endloop
  endfacet
  facet normal  3.826837e-001  0.000000e+000  9.238794e-001
    outer loop
      vertex  7.207107e+000 -1.000000e+000  9.707107e+000
      vertex  7.207107e+000  1.000000e+000  9.707107e+000
      vertex  6.500000e+000 -1.000000e+000  1.000000e+001
    endloop
  endfacet
  facet normal  3.826837e-001  -0.000000e+000  9.238794e-001
    outer loop
      vertex  6.500000e+000 -1.000000e+000  1.000000e+001
      vertex  7.207107e+000  1.000000e+000  9.707107e+000
      vertex  6.500000e+000  1.000000e+000  1.000000e+001
    endloop
  endfacet
  facet normal  1.000000e+000  0.000000e+000  0.000000e+000
    outer loop
      vertex  7.500000e+000 -1.000000e+000  1.000000e+000
      vertex  7.500000e+000  1.000000e+000  1.000000e+000
      vertex  7.500000e+000 -1.000000e+000  9.000000e+000
    endloop
  endfacet
  facet normal  1.000000e+000  -0.000000e+000  0.000000e+000
    outer loop
      vertex  7.500000e+000 -1.000000e+000  9.000000e+000
      vertex  7.500000e+000  1.000000e+000  1.000000e+000
      vertex  7.500000e+000  1.000000e+000  9.000000e+000
    endloop
  endfacet
  facet normal  -0.000000e+000  0.000000e+000 -1.000000e+000
    outer loop
      vertex  4.582576e+000  2.000000e+000  0.000000e+000
      vertex  6.500000e+000  2.000000e+000  0.000000e+000
      vertex  5.000000e+000  0.000000e+000  0.000000e+000
    endloop
  endfacet
  facet normal  0.000000e+000  0.000000e+000 -1.000000e+000
    outer loop
      vertex  5.000000e+000  0.000000e+000  0.000000e+000
      vertex  6.500000e+000  2.000000e+000  0.000000e+000
      vertex  6.500000e+000 -2.000000e+000  0.000000e+000
    endloop
  endfacet
  facet normal  0.000000e+000  0.000000e+000 -1.000000e+000
    outer loop
      vertex  5.000000e+000  0.000000e+000  0.000000e+000
      vertex  6.500000e+000 -2.000000e+000  0.000000e+000
      vertex  4.582576e+000 -2.000000e+000  0.000000e+000
    endloop
  endfacet
  facet normal  0.000000e+000  0.000000e+000  1.000000e+000
    outer loop
      vertex -6.500000e+000 -1.000000e+000  1.000000e+001
      vertex  6.500000e+000 -1.000000e+000  1.000000e+001
      vertex -6.500000e+000  1.000000e+000  1.000000e+001
    endloop
  endfacet
  facet normal  -0.000000e+000  0.000000e+000  1.000000e+000
    outer loop
      vertex -6.500000e+000  1.000000e+000  1.000000e+001
      vertex  6.500000e+000 -1.000000e+000  1.000000e+001
      vertex  6.500000e+000  1.000000e+000  1.000000e+001
    endloop
  endfacet
  facet normal  2.230963e-001  9.747964e-001  0.000000e+000
    outer loop
      vertex  6.500000e+000  2.000000e+000  0.000000e+000
      vertex  6.500000e+000  2.000000e+000  9.000000e+000
      vertex  6.934947e+000  1.900456e+000  9.954410e-002
    endloop
  endfacet
  facet normal  3.826701e-001  9.238472e-001  8.367876e-003
    outer loop
      vertex  6.934947e+000  1.900456e+000  9.954410e-002
      vertex  6.500000e+000  2.000000e+000  9.000000e+000
      vertex  7.207107e+000  1.707107e+000  9.000000e+000
    endloop
  endfacet
  facet normal  5.857161e-001  8.105161e-001 -3.028371e-004
    outer loop
      vertex  6.934947e+000  1.900456e+000  9.954410e-002
      vertex  7.207107e+000  1.707107e+000  9.000000e+000
      vertex  7.218185e+000  1.695852e+000  3.041536e-001
    endloop
  endfacet
  facet normal  8.942666e-001  4.475343e-001  5.600798e-004
    outer loop
      vertex  7.218185e+000  1.695852e+000  3.041536e-001
      vertex  7.207107e+000  1.707107e+000  9.000000e+000
      vertex  7.487637e+000  1.156757e+000  8.432434e-001
    endloop
  endfacet
  facet normal  9.238631e-001  3.826768e-001  5.954016e-003
    outer loop
      vertex  7.487637e+000  1.156757e+000  8.432434e-001
      vertex  7.207107e+000  1.707107e+000  9.000000e+000
      vertex  7.500000e+000  1.000000e+000  9.000000e+000
    endloop
  endfacet
  facet normal  9.969044e-001  7.862306e-002  0.000000e+000
    outer loop
      vertex  7.487637e+000  1.156757e+000  8.432434e-001
      vertex  7.500000e+000  1.000000e+000  9.000000e+000
      vertex  7.500000e+000  1.000000e+000  1.000000e+000
    endloop
  endfacet
  facet normal  2.230964e-001  0.000000e+000 -9.747963e-001
    outer loop
      vertex  6.500000e+000 -2.000000e+000  0.000000e+000
      vertex  6.500000e+000  2.000000e+000  0.000000e+000
      vertex  6.934947e+000 -1.900456e+000  9.954410e-002
    endloop
  endfacet
  facet normal  2.230964e-001  0.000000e+000 -9.747964e-001
    outer loop
      vertex  6.934947e+000 -1.900456e+000  9.954410e-002
      vertex  6.500000e+000  2.000000e+000  0.000000e+000
      vertex  6.934947e+000  1.900456e+000  9.954410e-002
    endloop
  endfacet
  facet normal  5.855722e-001  0.000000e+000 -8.106202e-001
    outer loop
      vertex  6.934947e+000 -1.900456e+000  9.954410e-002
      vertex  6.934947e+000  1.900456e+000  9.954410e-002
      vertex  7.218185e+000 -1.695846e+000  3.041483e-001
    endloop
  endfacet
  facet normal  5.855828e-001  1.267845e-006 -8.106126e-001
    outer loop
      vertex  7.218185e+000 -1.695846e+000  3.041483e-001
      vertex  6.934947e+000  1.900456e+000  9.954410e-002
      vertex  7.218185e+000  1.695852e+000  3.041536e-001
    endloop
  endfacet
  facet normal  8.944907e-001  6.992698e-007 -4.470868e-001
    outer loop
      vertex  7.218185e+000 -1.695846e+000  3.041483e-001
      vertex  7.218185e+000  1.695852e+000  3.041536e-001
      vertex  7.487637e+000 -1.156757e+000  8.432434e-001
    endloop
  endfacet
  facet normal  8.944891e-001  0.000000e+000 -4.470897e-001
    outer loop
      vertex  7.487637e+000 -1.156757e+000  8.432434e-001
      vertex  7.218185e+000  1.695852e+000  3.041536e-001
      vertex  7.487637e+000  1.156757e+000  8.432434e-001
    endloop
  endfacet
  facet normal  9.969044e-001  0.000000e+000 -7.862309e-002
    outer loop
      vertex  7.487637e+000 -1.156757e+000  8.432434e-001
      vertex  7.487637e+000  1.156757e+000  8.432434e-001
      vertex  7.500000e+000 -1.000000e+000  1.000000e+000
    endloop
  endfacet
  facet normal  9.969044e-001  0.000000e+000 -7.862309e-002
    outer loop
      vertex  7.500000e+000 -1.000000e+000  1.000000e+000
      vertex  7.487637e+000  1.156757e+000  8.432434e-001
      vertex  7.500000e+000  1.000000e+000  1.000000e+000
    endloop
  endfacet
  facet normal  3.826835e-001 -9.238795e-001  0.000000e+000
    outer loop
      vertex  7.207107e+000 -1.707107e+000  9.000000e+000
      vertex  6.500000e+000 -2.000000e+000  9.000000e+000
      vertex  6.500000e+000 -2.000000e+000  0.000000e+000
    endloop
  endfacet
  facet normal  2.199262e-001 -9.754093e-001  1.446438e-002
    outer loop
      vertex  7.207107e+000 -1.707107e+000  9.000000e+000
      vertex  6.500000e+000 -2.000000e+000  0.000000e+000
      vertex  6.934947e+000 -1.900456e+000  9.954410e-002
    endloop
  endfacet
  facet normal  5.857262e-001 -8.105089e-001 -3.033035e-004
    outer loop
      vertex  7.207107e+000 -1.707107e+000  9.000000e+000
      vertex  6.934947e+000 -1.900456e+000  9.954410e-002
      vertex  7.218185e+000 -1.695846e+000  3.041483e-001
    endloop
  endfacet
  facet normal  8.942650e-001 -4.475375e-001  5.598033e-004
    outer loop
      vertex  7.207107e+000 -1.707107e+000  9.000000e+000
      vertex  7.218185e+000 -1.695846e+000  3.041483e-001
      vertex  7.487637e+000 -1.156757e+000  8.432434e-001
    endloop
  endfacet
  facet normal  9.940540e-001 -1.054699e-001  2.707167e-002
    outer loop
      vertex  7.207107e+000 -1.707107e+000  9.000000e+000
      vertex  7.487637e+000 -1.156757e+000  8.432434e-001
      vertex  7.500000e+000 -1.000000e+000  1.000000e+000
    endloop
  endfacet
  facet normal  9.238794e-001 -3.826836e-001  0.000000e+000
    outer loop
      vertex  7.207107e+000 -1.707107e+000  9.000000e+000
      vertex  7.500000e+000 -1.000000e+000  1.000000e+000
      vertex  7.500000e+000 -1.000000e+000  9.000000e+000
    endloop
  endfacet
  facet normal  1.565581e-001 -3.779646e-001  9.124869e-001
    outer loop
      vertex  6.500000e+000 -1.000000e+000  1.000000e+001
      vertex  6.500000e+000 -1.707107e+000  9.707107e+000
      vertex  7.000000e+000 -1.500000e+000  9.707107e+000
    endloop
  endfacet
  facet normal  3.779648e-001 -1.565580e-001  9.124869e-001
    outer loop
      vertex  6.500000e+000 -1.000000e+000  1.000000e+001
      vertex  7.000000e+000 -1.500000e+000  9.707107e+000
      vertex  7.207107e+000 -1.000000e+000  9.707107e+000
    endloop
  endfacet
  facet normal  8.628560e-001 -3.574069e-001  3.574070e-001
    outer loop
      vertex  7.500000e+000 -1.000000e+000  9.000000e+000
      vertex  7.207107e+000 -1.000000e+000  9.707107e+000
      vertex  7.207107e+000 -1.707107e+000  9.000000e+000
    endloop
  endfacet
  facet normal  8.628563e-001 -3.574065e-001  3.574066e-001
    outer loop
      vertex  7.207107e+000 -1.707107e+000  9.000000e+000
      vertex  7.207107e+000 -1.000000e+000  9.707107e+000
      vertex  7.000000e+000 -1.500000e+000  9.707107e+000
    endloop
  endfacet
  facet normal  3.574068e-001 -8.628562e-001  3.574068e-001
    outer loop
      vertex  7.207107e+000 -1.707107e+000  9.000000e+000
      vertex  7.000000e+000 -1.500000e+000  9.707107e+000
      vertex  6.500000e+000 -2.000000e+000  9.000000e+000
    endloop
  endfacet
  facet normal  3.574068e-001 -8.628562e-001  3.574068e-001
    outer loop
      vertex  6.500000e+000 -2.000000e+000  9.000000e+000
      vertex  7.000000e+000 -1.500000e+000  9.707107e+000
      vertex  6.500000e+000 -1.707107e+000  9.707107e+000
    endloop
  endfacet
  facet normal  3.779648e-001  1.565580e-001  9.124869e-001
    outer loop
      vertex  6.500000e+000  1.000000e+000  1.000000e+001
      vertex  7.207107e+000  1.000000e+000  9.707107e+000
      vertex  7.000000e+000  1.500000e+000  9.707107e+000
    endloop
  endfacet
  facet normal  1.565581e-001  3.779646e-001  9.124869e-001
    outer loop
      vertex  6.500000e+000  1.000000e+000  1.000000e+001
      vertex  7.000000e+000  1.500000e+000  9.707107e+000
      vertex  6.500000e+000  1.707107e+000  9.707107e+000
    endloop
  endfacet
  facet normal  3.574068e-001  8.628562e-001  3.574068e-001
    outer loop
      vertex  6.500000e+000  2.000000e+000  9.000000e+000
      vertex  6.500000e+000  1.707107e+000  9.707107e+000
      vertex  7.207107e+000  1.707107e+000  9.000000e+000
    endloop
  endfacet
  facet normal  3.574068e-001  8.628562e-001  3.574068e-001
    outer loop
      vertex  7.207107e+000  1.707107e+000  9.000000e+000
      vertex  6.500000e+000  1.707107e+000  9.707107e+000
      vertex  7.000000e+000  1.500000e+000  9.707107e+000
    endloop
  endfacet
  facet normal  8.628561e-001  3.574069e-001  3.574067e-001
    outer loop
      vertex  7.207107e+000  1.707107e+000  9.000000e+000
      vertex  7.000000e+000  1.500000e+000  9.707107e+000
      vertex  7.500000e+000  1.000000e+000  9.000000e+000
    endloop
  endfacet
  facet normal  8.628563e-001  3.574064e-001  3.574071e-001
    outer loop
      vertex  7.500000e+000  1.000000e+000  9.000000e+000
      vertex  7.000000e+000  1.500000e+000  9.707107e+000
      vertex  7.207107e+000  1.000000e+000  9.707107e+000
    endloop
  endfacet
  facet normal -9.584655e-001  0.000000e+000 -2.852086e-001
    outer loop
      vertex  1.000000e+000  4.898980e+000 -3.000000e+000
      vertex  1.000000e+000 -4.898980e+000 -3.000000e+000
      vertex  8.373120e-001  4.929392e+000 -2.453274e+000
    endloop
  endfacet
  facet normal -9.584654e-001  -0.000000e+000 -2.852086e-001
    outer loop
      vertex  8.373120e-001  4.929392e+000 -2.453274e+000
      vertex  1.000000e+000 -4.898980e+000 -3.000000e+000
      vertex  8.373120e-001 -4.929392e+000 -2.453274e+000
    endloop
  endfacet
  facet normal -6.223062e-001  0.000000e+000 -7.827739e-001
    outer loop
      vertex  8.373120e-001  4.929392e+000 -2.453274e+000
      vertex  8.373120e-001 -4.929392e+000 -2.453274e+000
      vertex  3.438588e-001  4.988162e+000 -2.060979e+000
    endloop
  endfacet
  facet normal -6.223062e-001  -0.000000e+000 -7.827740e-001
    outer loop
      vertex  3.438588e-001  4.988162e+000 -2.060979e+000
      vertex  8.373120e-001 -4.929392e+000 -2.453274e+000
      vertex  3.438588e-001 -4.988162e+000 -2.060979e+000
    endloop
  endfacet
  facet normal -2.990095e-002  0.000000e+000 -9.995529e-001
    outer loop
      vertex  3.438588e-001  4.988162e+000 -2.060979e+000
      vertex  3.438588e-001 -4.988162e+000 -2.060979e+000
      vertex -2.871139e-001  4.991750e+000 -2.042104e+000
    endloop
  endfacet
  facet normal -2.990095e-002  -0.000000e+000 -9.995528e-001
    outer loop
      vertex -2.871139e-001  4.991750e+000 -2.042104e+000
      vertex  3.438588e-001 -4.988162e+000 -2.060979e+000
      vertex -2.871139e-001 -4.991750e+000 -2.042104e+000
    endloop
  endfacet
  facet normal  5.747305e-001  0.000000e+000 -8.183427e-001
    outer loop
      vertex -2.871139e-001  4.991750e+000 -2.042104e+000
      vertex -2.871139e-001 -4.991750e+000 -2.042104e+000
      vertex -8.036103e-001  4.934999e+000 -2.404844e+000
    endloop
  endfacet
  facet normal  5.747306e-001  0.000000e+000 -8.183427e-001
    outer loop
      vertex -8.036103e-001  4.934999e+000 -2.404844e+000
      vertex -2.871139e-001 -4.991750e+000 -2.042104e+000
      vertex -8.036103e-001 -4.934999e+000 -2.404844e+000
    endloop
  endfacet
  facet normal  9.496343e-001  0.000000e+000 -3.133606e-001
    outer loop
      vertex -8.036103e-001  4.934999e+000 -2.404844e+000
      vertex -8.036103e-001 -4.934999e+000 -2.404844e+000
      vertex -1.000000e+000  4.898980e+000 -3.000000e+000
    endloop
  endfacet
  facet normal  9.496342e-001  0.000000e+000 -3.133606e-001
    outer loop
      vertex -1.000000e+000  4.898980e+000 -3.000000e+000
      vertex -8.036103e-001 -4.934999e+000 -2.404844e+000
      vertex -1.000000e+000 -4.898980e+000 -3.000000e+000
    endloop
  endfacet
  facet normal  9.584655e-001  -0.000000e+000  2.852086e-001
    outer loop
      vertex -1.000000e+000  4.898980e+000 -3.000000e+000
      vertex -1.000000e+000 -4.898980e+000 -3.000000e+000
      vertex -8.373120e-001  4.929392e+000 -3.546726e+000
    endloop
  endfacet
  facet normal  9.584654e-001  0.000000e+000  2.852086e-001
    outer loop
      vertex -8.373120e-001  4.929392e+000 -3.546726e+000
      vertex -1.000000e+000 -4.898980e+000 -3.000000e+000
      vertex -8.373120e-001 -4.929392e+000 -3.546726e+000
    endloop
  endfacet
  facet normal  6.223062e-001  -0.000000e+000  7.827739e-001
    outer loop
      vertex -8.373120e-001  4.929392e+000 -3.546726e+000
      vertex -8.373120e-001 -4.929392e+000 -3.546726e+000
      vertex -3.438588e-001  4.988162e+000 -3.939021e+000
    endloop
  endfacet
  facet normal  6.223062e-001  0.000000e+000  7.827740e-001
    outer loop
      vertex -3.438588e-001  4.988162e+000 -3.939021e+000
      vertex -8.373120e-001 -4.929392e+000 -3.546726e+000
      vertex -3.438588e-001 -4.988162e+000 -3.939021e+000
    endloop
  endfacet
  facet normal  2.990095e-002  -0.000000e+000  9.995529e-001
    outer loop
      vertex -3.438588e-001  4.988162e+000 -3.939021e+000
      vertex -3.438588e-001 -4.988162e+000 -3.939021e+000
      vertex  2.871139e-001  4.991750e+000 -3.957896e+000
    endloop
  endfacet
  facet normal  2.990095e-002  0.000000e+000  9.995528e-001
    outer loop
      vertex  2.871139e-001  4.991750e+000 -3.957896e+000
      vertex -3.438588e-001 -4.988162e+000 -3.939021e+000
      vertex  2.871139e-001 -4.991750e+000 -3.957896e+000
    endloop
  endfacet
  facet normal -5.747305e-001  0.000000e+000  8.183427e-001
    outer loop
      vertex  2.871139e-001  4.991750e+000 -3.957896e+000
      vertex  2.871139e-001 -4.991750e+000 -3.957896e+000
      vertex  8.036103e-001  4.934999e+000 -3.595156e+000
    endloop
  endfacet
  facet normal -5.747306e-001  0.000000e+000  8.183427e-001
    outer loop
      vertex  8.036103e-001  4.934999e+000 -3.595156e+000
      vertex  2.871139e-001 -4.991750e+000 -3.957896e+000
      vertex  8.036103e-001 -4.934999e+000 -3.595156e+000
    endloop
  endfacet
  facet normal -9.496343e-001  0.000000e+000  3.133606e-001
    outer loop
      vertex  8.036103e-001  4.934999e+000 -3.595156e+000
      vertex  8.036103e-001 -4.934999e+000 -3.595156e+000
      vertex  1.000000e+000  4.898980e+000 -3.000000e+000
    endloop
  endfacet
  facet normal -9.496342e-001  0.000000e+000  3.133606e-001
    outer loop
      vertex  1.000000e+000  4.898980e+000 -3.000000e+000
      vertex  8.036103e-001 -4.934999e+000 -3.595156e+000
      vertex  1.000000e+000 -4.898980e+000 -3.000000e+000
    endloop
  endfacet
  facet normal  0.000000e+000  0.000000e+000 -1.000000e+000
    outer loop
      vertex  3.061516e-016  5.000000e+000 -2.500000e+001
      vertex  2.500000e+000  4.330127e+000 -2.500000e+001
      vertex -2.500000e+000  4.330127e+000 -2.500000e+001
    endloop
  endfacet
  facet normal  -0.000000e+000  0.000000e+000 -1.000000e+000
    outer loop
      vertex -2.500000e+000  4.330127e+000 -2.500000e+001
      vertex  2.500000e+000  4.330127e+000 -2.500000e+001
      vertex -4.330127e+000  2.500000e+000 -2.500000e+001
    endloop
  endfacet
  facet normal  0.000000e+000  0.000000e+000 -1.000000e+000
    outer loop
      vertex -4.330127e+000  2.500000e+000 -2.500000e+001
      vertex  2.500000e+000  4.330127e+000 -2.500000e+001
      vertex  4.330127e+000  2.500000e+000 -2.500000e+001
    endloop
  endfacet
  facet normal  -0.000000e+000  0.000000e+000 -1.000000e+000
    outer loop
      vertex -4.330127e+000  2.500000e+000 -2.500000e+001
      vertex  4.330127e+000  2.500000e+000 -2.500000e+001
      vertex -5.000000e+000  6.123032e-016 -2.500000e+001
    endloop
  endfacet
  facet normal  0.000000e+000  0.000000e+000 -1.000000e+000
    outer loop
      vertex -5.000000e+000  6.123032e-016 -2.500000e+001
      vertex  4.330127e+000  2.500000e+000 -2.500000e+001
      vertex  5.000000e+000  0.000000e+000 -2.500000e+001
    endloop
  endfacet
  facet normal  -0.000000e+000  0.000000e+000 -1.000000e+000
    outer loop
      vertex -5.000000e+000  6.123032e-016 -2.500000e+001
      vertex  5.000000e+000  0.000000e+000 -2.500000e+001
      vertex -4.330127e+000 -2.500000e+000 -2.500000e+001
    endloop
  endfacet
  facet normal  0.000000e+000  0.000000e+000 -1.000000e+000
    outer loop
      vertex -4.330127e+000 -2.500000e+000 -2.500000e+001
      vertex  5.000000e+000  0.000000e+000 -2.500000e+001
      vertex  4.330127e+000 -2.500000e+000 -2.500000e+001
    endloop
  endfacet
  facet normal  -0.000000e+000  0.000000e+000 -1.000000e+000
    outer loop
      vertex -4.330127e+000 -2.500000e+000 -2.500000e+001
      vertex  4.330127e+000 -2.500000e+000 -2.500000e+001
      vertex -2.500000e+000 -4.330127e+000 -2.500000e+001
    endloop
  endfacet
  facet normal  0.000000e+000  0.000000e+000 -1.000000e+000
    outer loop
      vertex -2.500000e+000 -4.330127e+000 -2.500000e+001
      vertex  4.330127e+000 -2.500000e+000 -2.500000e+001
      vertex  2.500000e+000 -4.330127e+000 -2.500000e+001
    endloop
  endfacet
  facet normal  -0.000000e+000  0.000000e+000 -1.000000e+000
    outer loop
      vertex -2.500000e+000 -4.330127e+000 -2.500000e+001
      vertex  2.500000e+000 -4.330127e+000 -2.500000e+001
      vertex -9.184548e-016 -5.000000e+000 -2.500000e+001
    endloop
  endfacet
endsolid CATIA STL
