solid CATIA STL
  facet normal  0.000000e+000  0.000000e+000  1.000000e+000
    outer loop
      vertex -1.294095e+000  4.829629e+000  1.000000e+001
      vertex  1.294095e+000  4.829629e+000  1.000000e+001
      vertex  3.061516e-016  5.000000e+000  1.000000e+001
    endloop
  endfacet
  facet normal  -0.000000e+000  0.000000e+000  1.000000e+000
    outer loop
      vertex  1.294095e+000  4.829629e+000  1.000000e+001
      vertex -1.294095e+000  4.829629e+000  1.000000e+001
      vertex  2.500000e+000  4.330127e+000  1.000000e+001
    endloop
  endfacet
  facet normal  0.000000e+000  0.000000e+000  1.000000e+000
    outer loop
      vertex  2.500000e+000  4.330127e+000  1.000000e+001
      vertex -1.294095e+000  4.829629e+000  1.000000e+001
      vertex -2.500000e+000  4.330127e+000  1.000000e+001
    endloop
  endfacet
  facet normal  -0.000000e+000  0.000000e+000  1.000000e+000
    outer loop
      vertex  2.500000e+000  4.330127e+000  1.000000e+001
      vertex -2.500000e+000  4.330127e+000  1.000000e+001
      vertex  3.535534e+000  3.535534e+000  1.000000e+001
    endloop
  endfacet
  facet normal  0.000000e+000  0.000000e+000  1.000000e+000
    outer loop
      vertex  3.535534e+000  3.535534e+000  1.000000e+001
      vertex -2.500000e+000  4.330127e+000  1.000000e+001
      vertex -3.535534e+000  3.535534e+000  1.000000e+001
    endloop
  endfacet
  facet normal  -0.000000e+000  0.000000e+000  1.000000e+000
    outer loop
      vertex  3.535534e+000  3.535534e+000  1.000000e+001
      vertex -3.535534e+000  3.535534e+000  1.000000e+001
      vertex  4.330127e+000  2.500000e+000  1.000000e+001
    endloop
  endfacet
  facet normal  0.000000e+000  0.000000e+000  1.000000e+000
    outer loop
      vertex  4.330127e+000  2.500000e+000  1.000000e+001
      vertex -3.535534e+000  3.535534e+000  1.000000e+001
      vertex -4.330127e+000  2.500000e+000  1.000000e+001
    endloop
  endfacet
  facet normal  -0.000000e+000  0.000000e+000  1.000000e+000
    outer loop
      vertex  4.330127e+000  2.500000e+000  1.000000e+001
      vertex -4.330127e+000  2.500000e+000  1.000000e+001
      vertex  4.829629e+000  1.294095e+000  1.000000e+001
    endloop
  endfacet
  facet normal  0.000000e+000  0.000000e+000  1.000000e+000
    outer loop
      vertex  4.829629e+000  1.294095e+000  1.000000e+001
      vertex -4.330127e+000  2.500000e+000  1.000000e+001
      vertex -4.829629e+000  1.294095e+000  1.000000e+001
    endloop
  endfacet
  facet normal  -0.000000e+000  0.000000e+000  1.000000e+000
    outer loop
      vertex  4.829629e+000  1.294095e+000  1.000000e+001
      vertex -4.829629e+000  1.294095e+000  1.000000e+001
      vertex  5.000000e+000  0.000000e+000  1.000000e+001
    endloop
  endfacet
  facet normal  0.000000e+000  0.000000e+000  1.000000e+000
    outer loop
      vertex  5.000000e+000  0.000000e+000  1.000000e+001
      vertex -4.829629e+000  1.294095e+000  1.000000e+001
      vertex -5.000000e+000  6.123032e-016  1.000000e+001
    endloop
  endfacet
  facet normal  0.000000e+000  0.000000e+000  1.000000e+000
    outer loop
      vertex  5.000000e+000  0.000000e+000  1.000000e+001
      vertex -5.000000e+000  6.123032e-016  1.000000e+001
      vertex  4.829629e+000 -1.294095e+000  1.000000e+001
    endloop
  endfacet
  facet normal  0.000000e+000  0.000000e+000  1.000000e+000
    outer loop
      vertex  4.829629e+000 -1.294095e+000  1.000000e+001
      vertex -5.000000e+000  6.123032e-016  1.000000e+001
      vertex -4.829629e+000 -1.294095e+000  1.000000e+001
    endloop
  endfacet
  facet normal  -0.000000e+000  0.000000e+000  1.000000e+000
    outer loop
      vertex  4.829629e+000 -1.294095e+000  1.000000e+001
      vertex -4.829629e+000 -1.294095e+000  1.000000e+001
      vertex  4.330127e+000 -2.500000e+000  1.000000e+001
    endloop
  endfacet
  facet normal  0.000000e+000  0.000000e+000  1.000000e+000
    outer loop
      vertex  4.330127e+000 -2.500000e+000  1.000000e+001
      vertex -4.829629e+000 -1.294095e+000  1.000000e+001
      vertex -4.330127e+000 -2.500000e+000  1.000000e+001
    endloop
  endfacet
  facet normal  -0.000000e+000  0.000000e+000  1.000000e+000
    outer loop
      vertex  4.330127e+000 -2.500000e+000  1.000000e+001
      vertex -4.330127e+000 -2.500000e+000  1.000000e+001
      vertex  3.535534e+000 -3.535534e+000  1.000000e+001
    endloop
  endfacet
  facet normal  0.000000e+000  0.000000e+000  1.000000e+000
    outer loop
      vertex  3.535534e+000 -3.535534e+000  1.000000e+001
      vertex -4.330127e+000 -2.500000e+000  1.000000e+001
      vertex -3.535534e+000 -3.535534e+000  1.000000e+001
    endloop
  endfacet
  facet normal  -0.000000e+000  0.000000e+000  1.000000e+000
    outer loop
      vertex  3.535534e+000 -3.535534e+000  1.000000e+001
      vertex -3.535534e+000 -3.535534e+000  1.000000e+001
      vertex  2.500000e+000 -4.330127e+000  1.000000e+001
    endloop
  endfacet
  facet normal  0.000000e+000  0.000000e+000  1.000000e+000
    outer loop
      vertex  2.500000e+000 -4.330127e+000  1.000000e+001
      vertex -3.535534e+000 -3.535534e+000  1.000000e+001
      vertex -2.500000e+000 -4.330127e+000  1.000000e+001
    endloop
  endfacet
  facet normal  -0.000000e+000  0.000000e+000  1.000000e+000
    outer loop
      vertex  2.500000e+000 -4.330127e+000  1.000000e+001
      vertex -2.500000e+000 -4.330127e+000  1.000000e+001
      vertex  1.294095e+000 -4.829629e+000  1.000000e+001
    endloop
  endfacet
  facet normal  0.000000e+000  0.000000e+000  1.000000e+000
    outer loop
      vertex  1.294095e+000 -4.829629e+000  1.000000e+001
      vertex -2.500000e+000 -4.330127e+000  1.000000e+001
      vertex -1.294095e+000 -4.829629e+000  1.000000e+001
    endloop
  endfacet
  facet normal  -0.000000e+000  0.000000e+000  1.000000e+000
    outer loop
      vertex  1.294095e+000 -4.829629e+000  1.000000e+001
      vertex -1.294095e+000 -4.829629e+000  1.000000e+001
      vertex -9.184548e-016 -5.000000e+000  1.000000e+001
    endloop
  endfacet
  facet normal  0.000000e+000  0.000000e+000 -1.000000e+000
    outer loop
      vertex  3.061516e-016  5.000000e+000  0.000000e+000
      vertex  1.294095e+000  4.829629e+000  0.000000e+000
      vertex -1.294095e+000  4.829629e+000  0.000000e+000
    endloop
  endfacet
  facet normal  -0.000000e+000  0.000000e+000 -1.000000e+000
    outer loop
      vertex -1.294095e+000  4.829629e+000  0.000000e+000
      vertex  1.294095e+000  4.829629e+000  0.000000e+000
      vertex -2.500000e+000  4.330127e+000  0.000000e+000
    endloop
  endfacet
  facet normal  0.000000e+000  0.000000e+000 -1.000000e+000
    outer loop
      vertex -2.500000e+000  4.330127e+000  0.000000e+000
      vertex  1.294095e+000  4.829629e+000  0.000000e+000
      vertex  2.500000e+000  4.330127e+000  0.000000e+000
    endloop
  endfacet
  facet normal  -0.000000e+000  0.000000e+000 -1.000000e+000
    outer loop
      vertex -2.500000e+000  4.330127e+000  0.000000e+000
      vertex  2.500000e+000  4.330127e+000  0.000000e+000
      vertex -3.535534e+000  3.535534e+000  0.000000e+000
    endloop
  endfacet
  facet normal  0.000000e+000  0.000000e+000 -1.000000e+000
    outer loop
      vertex -3.535534e+000  3.535534e+000  0.000000e+000
      vertex  2.500000e+000  4.330127e+000  0.000000e+000
      vertex  3.535534e+000  3.535534e+000  0.000000e+000
    endloop
  endfacet
  facet normal  -0.000000e+000  0.000000e+000 -1.000000e+000
    outer loop
      vertex -3.535534e+000  3.535534e+000  0.000000e+000
      vertex  3.535534e+000  3.535534e+000  0.000000e+000
      vertex -4.330127e+000  2.500000e+000  0.000000e+000
    endloop
  endfacet
  facet normal  0.000000e+000  0.000000e+000 -1.000000e+000
    outer loop
      vertex -4.330127e+000  2.500000e+000  0.000000e+000
      vertex  3.535534e+000  3.535534e+000  0.000000e+000
      vertex  4.330127e+000  2.500000e+000  0.000000e+000
    endloop
  endfacet
  facet normal  -0.000000e+000  0.000000e+000 -1.000000e+000
    outer loop
      vertex -4.330127e+000  2.500000e+000  0.000000e+000
      vertex  4.330127e+000  2.500000e+000  0.000000e+000
      vertex -4.829629e+000  1.294095e+000  0.000000e+000
    endloop
  endfacet
  facet normal  0.000000e+000  0.000000e+000 -1.000000e+000
    outer loop
      vertex -4.829629e+000  1.294095e+000  0.000000e+000
      vertex  4.330127e+000  2.500000e+000  0.000000e+000
      vertex  4.829629e+000  1.294095e+000  0.000000e+000
    endloop
  endfacet
  facet normal  -0.000000e+000  0.000000e+000 -1.000000e+000
    outer loop
      vertex -4.829629e+000  1.294095e+000  0.000000e+000
      vertex  4.829629e+000  1.294095e+000  0.000000e+000
      vertex -5.000000e+000  6.123032e-016  0.000000e+000
    endloop
  endfacet
  facet normal  0.000000e+000  0.000000e+000 -1.000000e+000
    outer loop
      vertex -5.000000e+000  6.123032e-016  0.000000e+000
      vertex  4.829629e+000  1.294095e+000  0.000000e+000
      vertex  5.000000e+000  0.000000e+000  0.000000e+000
    endloop
  endfacet
  facet normal  -0.000000e+000  0.000000e+000 -1.000000e+000
    outer loop
      vertex -5.000000e+000  6.123032e-016  0.000000e+000
      vertex  5.000000e+000  0.000000e+000  0.000000e+000
      vertex -4.829629e+000 -1.294095e+000  0.000000e+000
    endloop
  endfacet
  facet normal  0.000000e+000  0.000000e+000 -1.000000e+000
    outer loop
      vertex -4.829629e+000 -1.294095e+000  0.000000e+000
      vertex  5.000000e+000  0.000000e+000  0.000000e+000
      vertex  4.829629e+000 -1.294095e+000  0.000000e+000
    endloop
  endfacet
  facet normal  -0.000000e+000  0.000000e+000 -1.000000e+000
    outer loop
      vertex -4.829629e+000 -1.294095e+000  0.000000e+000
      vertex  4.829629e+000 -1.294095e+000  0.000000e+000
      vertex -4.330127e+000 -2.500000e+000  0.000000e+000
    endloop
  endfacet
  facet normal  0.000000e+000  0.000000e+000 -1.000000e+000
    outer loop
      vertex -4.330127e+000 -2.500000e+000  0.000000e+000
      vertex  4.829629e+000 -1.294095e+000  0.000000e+000
      vertex  4.330127e+000 -2.500000e+000  0.000000e+000
    endloop
  endfacet
  facet normal  -0.000000e+000  0.000000e+000 -1.000000e+000
    outer loop
      vertex -4.330127e+000 -2.500000e+000  0.000000e+000
      vertex  4.330127e+000 -2.500000e+000  0.000000e+000
      vertex -3.535534e+000 -3.535534e+000  0.000000e+000
    endloop
  endfacet
  facet normal  0.000000e+000  0.000000e+000 -1.000000e+000
    outer loop
      vertex -3.535534e+000 -3.535534e+000  0.000000e+000
      vertex  4.330127e+000 -2.500000e+000  0.000000e+000
      vertex  3.535534e+000 -3.535534e+000  0.000000e+000
    endloop
  endfacet
  facet normal  -0.000000e+000  0.000000e+000 -1.000000e+000
    outer loop
      vertex -3.535534e+000 -3.535534e+000  0.000000e+000
      vertex  3.535534e+000 -3.535534e+000  0.000000e+000
      vertex -2.500000e+000 -4.330127e+000  0.000000e+000
    endloop
  endfacet
  facet normal  0.000000e+000  0.000000e+000 -1.000000e+000
    outer loop
      vertex -2.500000e+000 -4.330127e+000  0.000000e+000
      vertex  3.535534e+000 -3.535534e+000  0.000000e+000
      vertex  2.500000e+000 -4.330127e+000  0.000000e+000
    endloop
  endfacet
  facet normal  -0.000000e+000  0.000000e+000 -1.000000e+000
    outer loop
      vertex -2.500000e+000 -4.330127e+000  0.000000e+000
      vertex  2.500000e+000 -4.330127e+000  0.000000e+000
      vertex -1.294095e+000 -4.829629e+000  0.000000e+000
    endloop
  endfacet
  facet normal  0.000000e+000  0.000000e+000 -1.000000e+000
    outer loop
      vertex -1.294095e+000 -4.829629e+000  0.000000e+000
      vertex  2.500000e+000 -4.330127e+000  0.000000e+000
      vertex  1.294095e+000 -4.829629e+000  0.000000e+000
    endloop
  endfacet
  facet normal  -0.000000e+000  0.000000e+000 -1.000000e+000
    outer loop
      vertex -1.294095e+000 -4.829629e+000  0.000000e+000
      vertex  1.294095e+000 -4.829629e+000  0.000000e+000
      vertex -9.184548e-016 -5.000000e+000  0.000000e+000
    endloop
  endfacet
  facet normal  9.914448e-001 -1.305263e-001  0.000000e+000
    outer loop
      vertex  5.000000e+000  0.000000e+000  0.000000e+000
      vertex  5.000000e+000  0.000000e+000  1.000000e+001
      vertex  4.829629e+000 -1.294095e+000  0.000000e+000
    endloop
  endfacet
  facet normal  9.914448e-001 -1.305263e-001  0.000000e+000
    outer loop
      vertex  4.829629e+000 -1.294095e+000  0.000000e+000
      vertex  5.000000e+000  0.000000e+000  1.000000e+001
      vertex  4.829629e+000 -1.294095e+000  1.000000e+001
    endloop
  endfacet
  facet normal  9.238796e-001 -3.826831e-001  0.000000e+000
    outer loop
      vertex  4.829629e+000 -1.294095e+000  0.000000e+000
      vertex  4.829629e+000 -1.294095e+000  1.000000e+001
      vertex  4.330127e+000 -2.500000e+000  0.000000e+000
    endloop
  endfacet
  facet normal  9.238796e-001 -3.826831e-001  0.000000e+000
    outer loop
      vertex  4.330127e+000 -2.500000e+000  0.000000e+000
      vertex  4.829629e+000 -1.294095e+000  1.000000e+001
      vertex  4.330127e+000 -2.500000e+000  1.000000e+001
    endloop
  endfacet
  facet normal  7.933532e-001 -6.087615e-001  0.000000e+000
    outer loop
      vertex  4.330127e+000 -2.500000e+000  0.000000e+000
      vertex  4.330127e+000 -2.500000e+000  1.000000e+001
      vertex  3.535534e+000 -3.535534e+000  0.000000e+000
    endloop
  endfacet
  facet normal  7.933532e-001 -6.087615e-001  0.000000e+000
    outer loop
      vertex  3.535534e+000 -3.535534e+000  0.000000e+000
      vertex  4.330127e+000 -2.500000e+000  1.000000e+001
      vertex  3.535534e+000 -3.535534e+000  1.000000e+001
    endloop
  endfacet
  facet normal  6.087615e-001 -7.933532e-001  0.000000e+000
    outer loop
      vertex  3.535534e+000 -3.535534e+000  0.000000e+000
      vertex  3.535534e+000 -3.535534e+000  1.000000e+001
      vertex  2.500000e+000 -4.330127e+000  0.000000e+000
    endloop
  endfacet
  facet normal  6.087615e-001 -7.933532e-001  0.000000e+000
    outer loop
      vertex  2.500000e+000 -4.330127e+000  0.000000e+000
      vertex  3.535534e+000 -3.535534e+000  1.000000e+001
      vertex  2.500000e+000 -4.330127e+000  1.000000e+001
    endloop
  endfacet
  facet normal  3.826831e-001 -9.238796e-001  0.000000e+000
    outer loop
      vertex  2.500000e+000 -4.330127e+000  0.000000e+000
      vertex  2.500000e+000 -4.330127e+000  1.000000e+001
      vertex  1.294095e+000 -4.829629e+000  0.000000e+000
    endloop
  endfacet
  facet normal  3.826831e-001 -9.238796e-001  0.000000e+000
    outer loop
      vertex  1.294095e+000 -4.829629e+000  0.000000e+000
      vertex  2.500000e+000 -4.330127e+000  1.000000e+001
      vertex  1.294095e+000 -4.829629e+000  1.000000e+001
    endloop
  endfacet
  facet normal  1.305263e-001 -9.914448e-001  0.000000e+000
    outer loop
      vertex  1.294095e+000 -4.829629e+000  0.000000e+000
      vertex  1.294095e+000 -4.829629e+000  1.000000e+001
      vertex -9.184548e-016 -5.000000e+000  0.000000e+000
    endloop
  endfacet
  facet normal  1.305263e-001 -9.914448e-001  0.000000e+000
    outer loop
      vertex -9.184548e-016 -5.000000e+000  0.000000e+000
      vertex  1.294095e+000 -4.829629e+000  1.000000e+001
      vertex -9.184548e-016 -5.000000e+000  1.000000e+001
    endloop
  endfacet
  facet normal -1.305263e-001 -9.914448e-001  -0.000000e+000
    outer loop
      vertex -9.184548e-016 -5.000000e+000  0.000000e+000
      vertex -9.184548e-016 -5.000000e+000  1.000000e+001
      vertex -1.294095e+000 -4.829629e+000  0.000000e+000
    endloop
  endfacet
  facet normal -1.305263e-001 -9.914448e-001  0.000000e+000
    outer loop
      vertex -1.294095e+000 -4.829629e+000  0.000000e+000
      vertex -9.184548e-016 -5.000000e+000  1.000000e+001
      vertex -1.294095e+000 -4.829629e+000  1.000000e+001
    endloop
  endfacet
  facet normal -3.826831e-001 -9.238796e-001  -0.000000e+000
    outer loop
      vertex -1.294095e+000 -4.829629e+000  0.000000e+000
      vertex -1.294095e+000 -4.829629e+000  1.000000e+001
      vertex -2.500000e+000 -4.330127e+000  0.000000e+000
    endloop
  endfacet
  facet normal -3.826831e-001 -9.238796e-001  0.000000e+000
    outer loop
      vertex -2.500000e+000 -4.330127e+000  0.000000e+000
      vertex -1.294095e+000 -4.829629e+000  1.000000e+001
      vertex -2.500000e+000 -4.330127e+000  1.000000e+001
    endloop
  endfacet
  facet normal -6.087615e-001 -7.933532e-001  -0.000000e+000
    outer loop
      vertex -2.500000e+000 -4.330127e+000  0.000000e+000
      vertex -2.500000e+000 -4.330127e+000  1.000000e+001
      vertex -3.535534e+000 -3.535534e+000  0.000000e+000
    endloop
  endfacet
  facet normal -6.087615e-001 -7.933532e-001  0.000000e+000
    outer loop
      vertex -3.535534e+000 -3.535534e+000  0.000000e+000
      vertex -2.500000e+000 -4.330127e+000  1.000000e+001
      vertex -3.535534e+000 -3.535534e+000  1.000000e+001
    endloop
  endfacet
  facet normal -7.933532e-001 -6.087615e-001  -0.000000e+000
    outer loop
      vertex -3.535534e+000 -3.535534e+000  0.000000e+000
      vertex -3.535534e+000 -3.535534e+000  1.000000e+001
      vertex -4.330127e+000 -2.500000e+000  0.000000e+000
    endloop
  endfacet
  facet normal -7.933532e-001 -6.087615e-001  0.000000e+000
    outer loop
      vertex -4.330127e+000 -2.500000e+000  0.000000e+000
      vertex -3.535534e+000 -3.535534e+000  1.000000e+001
      vertex -4.330127e+000 -2.500000e+000  1.000000e+001
    endloop
  endfacet
  facet normal -9.238796e-001 -3.826831e-001  -0.000000e+000
    outer loop
      vertex -4.330127e+000 -2.500000e+000  0.000000e+000
      vertex -4.330127e+000 -2.500000e+000  1.000000e+001
      vertex -4.829629e+000 -1.294095e+000  0.000000e+000
    endloop
  endfacet
  facet normal -9.238796e-001 -3.826831e-001  0.000000e+000
    outer loop
      vertex -4.829629e+000 -1.294095e+000  0.000000e+000
      vertex -4.330127e+000 -2.500000e+000  1.000000e+001
      vertex -4.829629e+000 -1.294095e+000  1.000000e+001
    endloop
  endfacet
  facet normal -9.914448e-001 -1.305263e-001  -0.000000e+000
    outer loop
      vertex -4.829629e+000 -1.294095e+000  0.000000e+000
      vertex -4.829629e+000 -1.294095e+000  1.000000e+001
      vertex -5.000000e+000  6.123032e-016  0.000000e+000
    endloop
  endfacet
  facet normal -9.914448e-001 -1.305263e-001  0.000000e+000
    outer loop
      vertex -5.000000e+000  6.123032e-016  0.000000e+000
      vertex -4.829629e+000 -1.294095e+000  1.000000e+001
      vertex -5.000000e+000  6.123032e-016  1.000000e+001
    endloop
  endfacet
  facet normal -9.914448e-001  1.305263e-001  0.000000e+000
    outer loop
      vertex -5.000000e+000  6.123032e-016  0.000000e+000
      vertex -5.000000e+000  6.123032e-016  1.000000e+001
      vertex -4.829629e+000  1.294095e+000  0.000000e+000
    endloop
  endfacet
  facet normal -9.914448e-001  1.305263e-001  0.000000e+000
    outer loop
      vertex -4.829629e+000  1.294095e+000  0.000000e+000
      vertex -5.000000e+000  6.123032e-016  1.000000e+001
      vertex -4.829629e+000  1.294095e+000  1.000000e+001
    endloop
  endfacet
  facet normal -9.238796e-001  3.826831e-001  0.000000e+000
    outer loop
      vertex -4.829629e+000  1.294095e+000  0.000000e+000
      vertex -4.829629e+000  1.294095e+000  1.000000e+001
      vertex -4.330127e+000  2.500000e+000  0.000000e+000
    endloop
  endfacet
  facet normal -9.238796e-001  3.826831e-001  0.000000e+000
    outer loop
      vertex -4.330127e+000  2.500000e+000  0.000000e+000
      vertex -4.829629e+000  1.294095e+000  1.000000e+001
      vertex -4.330127e+000  2.500000e+000  1.000000e+001
    endloop
  endfacet
  facet normal -7.933532e-001  6.087615e-001  0.000000e+000
    outer loop
      vertex -4.330127e+000  2.500000e+000  0.000000e+000
      vertex -4.330127e+000  2.500000e+000  1.000000e+001
      vertex -3.535534e+000  3.535534e+000  0.000000e+000
    endloop
  endfacet
  facet normal -7.933532e-001  6.087615e-001  0.000000e+000
    outer loop
      vertex -3.535534e+000  3.535534e+000  0.000000e+000
      vertex -4.330127e+000  2.500000e+000  1.000000e+001
      vertex -3.535534e+000  3.535534e+000  1.000000e+001
    endloop
  endfacet
  facet normal -6.087615e-001  7.933532e-001  0.000000e+000
    outer loop
      vertex -3.535534e+000  3.535534e+000  0.000000e+000
      vertex -3.535534e+000  3.535534e+000  1.000000e+001
      vertex -2.500000e+000  4.330127e+000  0.000000e+000
    endloop
  endfacet
  facet normal -6.087615e-001  7.933532e-001  0.000000e+000
    outer loop
      vertex -2.500000e+000  4.330127e+000  0.000000e+000
      vertex -3.535534e+000  3.535534e+000  1.000000e+001
      vertex -2.500000e+000  4.330127e+000  1.000000e+001
    endloop
  endfacet
  facet normal -3.826831e-001  9.238796e-001  0.000000e+000
    outer loop
      vertex -2.500000e+000  4.330127e+000  0.000000e+000
      vertex -2.500000e+000  4.330127e+000  1.000000e+001
      vertex -1.294095e+000  4.829629e+000  0.000000e+000
    endloop
  endfacet
  facet normal -3.826831e-001  9.238796e-001  0.000000e+000
    outer loop
      vertex -1.294095e+000  4.829629e+000  0.000000e+000
      vertex -2.500000e+000  4.330127e+000  1.000000e+001
      vertex -1.294095e+000  4.829629e+000  1.000000e+001
    endloop
  endfacet
  facet normal -1.305263e-001  9.914448e-001  0.000000e+000
    outer loop
      vertex -1.294095e+000  4.829629e+000  0.000000e+000
      vertex -1.294095e+000  4.829629e+000  1.000000e+001
      vertex  3.061516e-016  5.000000e+000  0.000000e+000
    endloop
  endfacet
  facet normal -1.305263e-001  9.914448e-001  0.000000e+000
    outer loop
      vertex  3.061516e-016  5.000000e+000  0.000000e+000
      vertex -1.294095e+000  4.829629e+000  1.000000e+001
      vertex  3.061516e-016  5.000000e+000  1.000000e+001
    endloop
  endfacet
  facet normal  1.305263e-001  9.914448e-001  0.000000e+000
    outer loop
      vertex  3.061516e-016  5.000000e+000  0.000000e+000
      vertex  3.061516e-016  5.000000e+000  1.000000e+001
      vertex  1.294095e+000  4.829629e+000  0.000000e+000
    endloop
  endfacet
  facet normal  1.305263e-001  9.914448e-001  -0.000000e+000
    outer loop
      vertex  1.294095e+000  4.829629e+000  0.000000e+000
      vertex  3.061516e-016  5.000000e+000  1.000000e+001
      vertex  1.294095e+000  4.829629e+000  1.000000e+001
    endloop
  endfacet
  facet normal  3.826831e-001  9.238796e-001  0.000000e+000
    outer loop
      vertex  1.294095e+000  4.829629e+000  0.000000e+000
      vertex  1.294095e+000  4.829629e+000  1.000000e+001
      vertex  2.500000e+000  4.330127e+000  0.000000e+000
    endloop
  endfacet
  facet normal  3.826831e-001  9.238796e-001  -0.000000e+000
    outer loop
      vertex  2.500000e+000  4.330127e+000  0.000000e+000
      vertex  1.294095e+000  4.829629e+000  1.000000e+001
      vertex  2.500000e+000  4.330127e+000  1.000000e+001
    endloop
  endfacet
  facet normal  6.087615e-001  7.933532e-001  0.000000e+000
    outer loop
      vertex  2.500000e+000  4.330127e+000  0.000000e+000
      vertex  2.500000e+000  4.330127e+000  1.000000e+001
      vertex  3.535534e+000  3.535534e+000  0.000000e+000
    endloop
  endfacet
  facet normal  6.087615e-001  7.933532e-001  -0.000000e+000
    outer loop
      vertex  3.535534e+000  3.535534e+000  0.000000e+000
      vertex  2.500000e+000  4.330127e+000  1.000000e+001
      vertex  3.535534e+000  3.535534e+000  1.000000e+001
    endloop
  endfacet
  facet normal  7.933532e-001  6.087615e-001  0.000000e+000
    outer loop
      vertex  3.535534e+000  3.535534e+000  0.000000e+000
      vertex  3.535534e+000  3.535534e+000  1.000000e+001
      vertex  4.330127e+000  2.500000e+000  0.000000e+000
    endloop
  endfacet
  facet normal  7.933532e-001  6.087615e-001  -0.000000e+000
    outer loop
      vertex  4.330127e+000  2.500000e+000  0.000000e+000
      vertex  3.535534e+000  3.535534e+000  1.000000e+001
      vertex  4.330127e+000  2.500000e+000  1.000000e+001
    endloop
  endfacet
  facet normal  9.238796e-001  3.826831e-001  0.000000e+000
    outer loop
      vertex  4.330127e+000  2.500000e+000  0.000000e+000
      vertex  4.330127e+000  2.500000e+000  1.000000e+001
      vertex  4.829629e+000  1.294095e+000  0.000000e+000
    endloop
  endfacet
  facet normal  9.238796e-001  3.826831e-001  -0.000000e+000
    outer loop
      vertex  4.829629e+000  1.294095e+000  0.000000e+000
      vertex  4.330127e+000  2.500000e+000  1.000000e+001
      vertex  4.829629e+000  1.294095e+000  1.000000e+001
    endloop
  endfacet
  facet normal  9.914448e-001  1.305263e-001  0.000000e+000
    outer loop
      vertex  4.829629e+000  1.294095e+000  0.000000e+000
      vertex  4.829629e+000  1.294095e+000  1.000000e+001
      vertex  5.000000e+000  0.000000e+000  0.000000e+000
    endloop
  endfacet
  facet normal  9.914448e-001  1.305263e-001  -0.000000e+000
    outer loop
      vertex  5.000000e+000  0.000000e+000  0.000000e+000
      vertex  4.829629e+000  1.294095e+000  1.000000e+001
      vertex  5.000000e+000  0.000000e+000  1.000000e+001
    endloop
  endfacet
endsolid CATIA STL
