solid CATIA STL
  facet normal -1.000000e+000  -0.000000e+000  0.000000e+000
    outer loop
      vertex -3.550000e+001 -1.000000e+000 -2.000000e+000
      vertex -3.550000e+001  0.000000e+000 -2.000000e+000
      vertex -3.550000e+001 -1.000000e+000 -1.400000e+001
    endloop
  endfacet
  facet normal -1.000000e+000  0.000000e+000  0.000000e+000
    outer loop
      vertex -3.550000e+001 -1.000000e+000 -1.400000e+001
      vertex -3.550000e+001  0.000000e+000 -2.000000e+000
      vertex -3.550000e+001  0.000000e+000 -1.500000e+001
    endloop
  endfacet
  facet normal  1.000000e+000  -0.000000e+000  0.000000e+000
    outer loop
      vertex -4.850000e+001  0.000000e+000 -2.000000e+000
      vertex -4.850000e+001 -1.000000e+000 -2.000000e+000
      vertex -4.850000e+001  0.000000e+000 -1.500000e+001
    endloop
  endfacet
  facet normal  1.000000e+000  0.000000e+000  0.000000e+000
    outer loop
      vertex -4.850000e+001  0.000000e+000 -1.500000e+001
      vertex -4.850000e+001 -1.000000e+000 -2.000000e+000
      vertex -4.850000e+001 -1.000000e+000 -1.400000e+001
    endloop
  endfacet
  facet normal  0.000000e+000 -1.000000e+000  0.000000e+000
    outer loop
      vertex -4.850000e+001 -1.000000e+000 -2.000000e+000
      vertex -3.550000e+001 -1.000000e+000 -2.000000e+000
      vertex -3.350000e+001 -1.000000e+000  2.500000e+001
    endloop
  endfacet
  facet normal  0.000000e+000 -1.000000e+000  0.000000e+000
    outer loop
      vertex -3.350000e+001 -1.000000e+000  2.500000e+001
      vertex -3.550000e+001 -1.000000e+000 -2.000000e+000
      vertex -3.550000e+001 -1.000000e+000 -1.400000e+001
    endloop
  endfacet
  facet normal  0.000000e+000 -1.000000e+000  0.000000e+000
    outer loop
      vertex -3.350000e+001 -1.000000e+000  2.500000e+001
      vertex -3.550000e+001 -1.000000e+000 -1.400000e+001
      vertex -3.350000e+001 -1.000000e+000 -1.400000e+001
    endloop
  endfacet
  facet normal  0.000000e+000 -1.000000e+000  0.000000e+000
    outer loop
      vertex -5.050000e+001 -1.000000e+000  4.300000e+001
      vertex  3.350000e+001 -1.000000e+000  2.500000e+001
      vertex  5.050000e+001 -1.000000e+000  4.300000e+001
    endloop
  endfacet
  facet normal  0.000000e+000 -1.000000e+000  0.000000e+000
    outer loop
      vertex  5.050000e+001 -1.000000e+000  4.300000e+001
      vertex  3.350000e+001 -1.000000e+000  2.500000e+001
      vertex  3.350000e+001 -1.000000e+000 -1.500000e+001
    endloop
  endfacet
  facet normal  0.000000e+000 -1.000000e+000  0.000000e+000
    outer loop
      vertex  5.050000e+001 -1.000000e+000  4.300000e+001
      vertex  3.350000e+001 -1.000000e+000 -1.500000e+001
      vertex  5.050000e+001 -1.000000e+000 -1.500000e+001
    endloop
  endfacet
  facet normal  0.000000e+000 -1.000000e+000  0.000000e+000
    outer loop
      vertex  3.350000e+001 -1.000000e+000  2.500000e+001
      vertex -5.050000e+001 -1.000000e+000  4.300000e+001
      vertex -3.350000e+001 -1.000000e+000  2.500000e+001
    endloop
  endfacet
  facet normal  0.000000e+000 -1.000000e+000  0.000000e+000
    outer loop
      vertex -3.350000e+001 -1.000000e+000  2.500000e+001
      vertex -5.050000e+001 -1.000000e+000  4.300000e+001
      vertex -5.050000e+001 -1.000000e+000  3.900000e+001
    endloop
  endfacet
  facet normal  0.000000e+000 -1.000000e+000  0.000000e+000
    outer loop
      vertex -3.350000e+001 -1.000000e+000  2.500000e+001
      vertex -5.050000e+001 -1.000000e+000  3.900000e+001
      vertex -4.850000e+001 -1.000000e+000 -2.000000e+000
    endloop
  endfacet
  facet normal  -0.000000e+000 -1.000000e+000  0.000000e+000
    outer loop
      vertex -4.850000e+001 -1.000000e+000 -2.000000e+000
      vertex -5.050000e+001 -1.000000e+000  3.900000e+001
      vertex -5.050000e+001 -1.000000e+000 -1.400000e+001
    endloop
  endfacet
  facet normal  0.000000e+000 -1.000000e+000  0.000000e+000
    outer loop
      vertex -4.850000e+001 -1.000000e+000 -2.000000e+000
      vertex -5.050000e+001 -1.000000e+000 -1.400000e+001
      vertex -4.850000e+001 -1.000000e+000 -1.400000e+001
    endloop
  endfacet
  facet normal  0.000000e+000  1.000000e+000  0.000000e+000
    outer loop
      vertex -3.350000e+001  1.600000e+001 -1.400000e+001
      vertex -5.050000e+001  1.600000e+001  4.300000e+001
      vertex -3.350000e+001  1.600000e+001  2.500000e+001
    endloop
  endfacet
  facet normal  0.000000e+000  1.000000e+000  0.000000e+000
    outer loop
      vertex -5.050000e+001  1.600000e+001  4.300000e+001
      vertex  3.350000e+001  1.600000e+001  2.500000e+001
      vertex -3.350000e+001  1.600000e+001  2.500000e+001
    endloop
  endfacet
  facet normal  0.000000e+000  1.000000e+000  0.000000e+000
    outer loop
      vertex -5.050000e+001  1.600000e+001  4.300000e+001
      vertex -3.350000e+001  1.600000e+001 -1.400000e+001
      vertex -5.050000e+001  1.600000e+001  3.900000e+001
    endloop
  endfacet
  facet normal  0.000000e+000  1.000000e+000  0.000000e+000
    outer loop
      vertex -3.350000e+001  1.600000e+001 -1.400000e+001
      vertex -5.050000e+001  1.600000e+001 -1.400000e+001
      vertex -5.050000e+001  1.600000e+001  3.900000e+001
    endloop
  endfacet
  facet normal  -0.000000e+000  1.000000e+000  0.000000e+000
    outer loop
      vertex  3.350000e+001  1.600000e+001  2.500000e+001
      vertex -5.050000e+001  1.600000e+001  4.300000e+001
      vertex  5.050000e+001  1.600000e+001  4.300000e+001
    endloop
  endfacet
  facet normal  0.000000e+000  1.000000e+000  0.000000e+000
    outer loop
      vertex  3.350000e+001  1.600000e+001  2.500000e+001
      vertex  5.050000e+001  1.600000e+001  4.300000e+001
      vertex  5.050000e+001  1.600000e+001 -1.500000e+001
    endloop
  endfacet
  facet normal  0.000000e+000  1.000000e+000  0.000000e+000
    outer loop
      vertex  3.350000e+001  1.600000e+001  2.500000e+001
      vertex  5.050000e+001  1.600000e+001 -1.500000e+001
      vertex  3.350000e+001  1.600000e+001 -1.500000e+001
    endloop
  endfacet
  facet normal -1.000000e+000  -0.000000e+000  0.000000e+000
    outer loop
      vertex -5.050000e+001 -1.000000e+000  4.300000e+001
      vertex -5.050000e+001  1.600000e+001  4.300000e+001
      vertex -5.050000e+001 -1.000000e+000  3.900000e+001
    endloop
  endfacet
  facet normal -1.000000e+000  0.000000e+000  0.000000e+000
    outer loop
      vertex -5.050000e+001 -1.000000e+000  3.900000e+001
      vertex -5.050000e+001  1.600000e+001  4.300000e+001
      vertex -5.050000e+001  1.600000e+001  3.900000e+001
    endloop
  endfacet
  facet normal -1.000000e+000  -0.000000e+000  0.000000e+000
    outer loop
      vertex -5.050000e+001 -1.000000e+000  3.900000e+001
      vertex -5.050000e+001  1.600000e+001  3.900000e+001
      vertex -5.050000e+001 -1.000000e+000 -1.400000e+001
    endloop
  endfacet
  facet normal -1.000000e+000  0.000000e+000  0.000000e+000
    outer loop
      vertex -5.050000e+001 -1.000000e+000 -1.400000e+001
      vertex -5.050000e+001  1.600000e+001  3.900000e+001
      vertex -5.050000e+001  1.600000e+001 -1.400000e+001
    endloop
  endfacet
  facet normal  1.000000e+000  0.000000e+000  0.000000e+000
    outer loop
      vertex -3.350000e+001  1.600000e+001 -1.400000e+001
      vertex -3.350000e+001  1.300000e+001 -6.000000e+000
      vertex -3.350000e+001 -1.000000e+000 -1.400000e+001
    endloop
  endfacet
  facet normal  1.000000e+000  0.000000e+000  0.000000e+000
    outer loop
      vertex -3.350000e+001 -1.000000e+000 -1.400000e+001
      vertex -3.350000e+001  1.300000e+001 -6.000000e+000
      vertex -3.350000e+001  1.000000e+000 -6.000000e+000
    endloop
  endfacet
  facet normal  1.000000e+000  0.000000e+000  0.000000e+000
    outer loop
      vertex -3.350000e+001 -1.000000e+000 -1.400000e+001
      vertex -3.350000e+001  1.000000e+000 -6.000000e+000
      vertex -3.350000e+001 -1.000000e+000  2.500000e+001
    endloop
  endfacet
  facet normal  1.000000e+000  0.000000e+000  0.000000e+000
    outer loop
      vertex -3.350000e+001 -1.000000e+000  2.500000e+001
      vertex -3.350000e+001  1.000000e+000 -6.000000e+000
      vertex -3.350000e+001  1.000000e+000  6.000000e+000
    endloop
  endfacet
  facet normal  1.000000e+000  0.000000e+000  -0.000000e+000
    outer loop
      vertex -3.350000e+001 -1.000000e+000  2.500000e+001
      vertex -3.350000e+001  1.000000e+000  6.000000e+000
      vertex -3.350000e+001  1.600000e+001  2.500000e+001
    endloop
  endfacet
  facet normal  1.000000e+000  0.000000e+000  0.000000e+000
    outer loop
      vertex -3.350000e+001  1.600000e+001  2.500000e+001
      vertex -3.350000e+001  1.000000e+000  6.000000e+000
      vertex -3.350000e+001  1.300000e+001  6.000000e+000
    endloop
  endfacet
  facet normal  1.000000e+000  -0.000000e+000  0.000000e+000
    outer loop
      vertex -3.350000e+001  1.600000e+001  2.500000e+001
      vertex -3.350000e+001  1.300000e+001  6.000000e+000
      vertex -3.350000e+001  1.600000e+001 -1.400000e+001
    endloop
  endfacet
  facet normal  1.000000e+000  0.000000e+000  0.000000e+000
    outer loop
      vertex -3.350000e+001  1.600000e+001 -1.400000e+001
      vertex -3.350000e+001  1.300000e+001  6.000000e+000
      vertex -3.350000e+001  1.300000e+001 -6.000000e+000
    endloop
  endfacet
  facet normal  0.000000e+000  1.000000e+000  -0.000000e+000
    outer loop
      vertex -4.850000e+001  0.000000e+000 -2.000000e+000
      vertex -4.850000e+001  0.000000e+000 -1.500000e+001
      vertex -4.950000e+001  0.000000e+000 -1.500000e+001
    endloop
  endfacet
  facet normal  1.282924e-015  1.000000e+000 -9.868649e-017
    outer loop
      vertex -4.850000e+001  0.000000e+000 -2.000000e+000
      vertex -4.950000e+001  0.000000e+000 -1.500000e+001
      vertex -4.950000e+001  5.329071e-015  3.900000e+001
    endloop
  endfacet
  facet normal  3.806479e-016  1.000000e+000 -1.206932e-016
    outer loop
      vertex -4.850000e+001  0.000000e+000 -2.000000e+000
      vertex -4.950000e+001  5.329071e-015  3.900000e+001
      vertex -3.550000e+001  0.000000e+000  3.900000e+001
    endloop
  endfacet
  facet normal  5.602356e-015  1.000000e+000 -1.776357e-015
    outer loop
      vertex -4.850000e+001  0.000000e+000 -2.000000e+000
      vertex -3.550000e+001  0.000000e+000  3.900000e+001
      vertex -3.550000e+001 -1.065814e-014  3.300000e+001
    endloop
  endfacet
  facet normal -2.767018e-015  1.000000e+000  1.332268e-015
    outer loop
      vertex -4.850000e+001  0.000000e+000 -2.000000e+000
      vertex -3.550000e+001 -1.065814e-014  3.300000e+001
      vertex -3.550000e+001  0.000000e+000  2.500000e+001
    endloop
  endfacet
  facet normal  -0.000000e+000  1.000000e+000  0.000000e+000
    outer loop
      vertex -4.850000e+001  0.000000e+000 -2.000000e+000
      vertex -3.550000e+001  0.000000e+000  2.500000e+001
      vertex -3.450000e+001  0.000000e+000  2.500000e+001
    endloop
  endfacet
  facet normal  0.000000e+000  1.000000e+000  0.000000e+000
    outer loop
      vertex -4.850000e+001  0.000000e+000 -2.000000e+000
      vertex -3.450000e+001  0.000000e+000  2.500000e+001
      vertex -3.550000e+001  0.000000e+000 -2.000000e+000
    endloop
  endfacet
  facet normal  0.000000e+000  1.000000e+000  0.000000e+000
    outer loop
      vertex -3.450000e+001  0.000000e+000 -1.500000e+001
      vertex -3.550000e+001  0.000000e+000 -1.500000e+001
      vertex -3.450000e+001  0.000000e+000  2.500000e+001
    endloop
  endfacet
  facet normal  0.000000e+000  1.000000e+000  0.000000e+000
    outer loop
      vertex -3.450000e+001  0.000000e+000  2.500000e+001
      vertex -3.550000e+001  0.000000e+000 -1.500000e+001
      vertex -3.550000e+001  0.000000e+000 -2.000000e+000
    endloop
  endfacet
  facet normal  9.999999e-001  0.000000e+000  0.000000e+000
    outer loop
      vertex -4.950000e+001  5.329071e-015  3.900000e+001
      vertex -4.950000e+001  0.000000e+000 -1.500000e+001
      vertex -4.950000e+001  1.400000e+001  3.900000e+001
    endloop
  endfacet
  facet normal  1.000000e+000  0.000000e+000  0.000000e+000
    outer loop
      vertex -4.950000e+001  1.400000e+001  3.900000e+001
      vertex -4.950000e+001  0.000000e+000 -1.500000e+001
      vertex -4.950000e+001  1.400000e+001  2.500000e+001
    endloop
  endfacet
  facet normal  1.000000e+000  0.000000e+000  0.000000e+000
    outer loop
      vertex -4.950000e+001  0.000000e+000 -1.500000e+001
      vertex -4.950000e+001  1.500000e+001 -1.500000e+001
      vertex -4.950000e+001  1.400000e+001  2.500000e+001
    endloop
  endfacet
  facet normal  1.000000e+000  -0.000000e+000  0.000000e+000
    outer loop
      vertex -4.950000e+001  1.400000e+001  2.500000e+001
      vertex -4.950000e+001  1.500000e+001 -1.500000e+001
      vertex -4.950000e+001  1.500000e+001  2.500000e+001
    endloop
  endfacet
  facet normal -1.000000e+000  0.000000e+000  0.000000e+000
    outer loop
      vertex -3.450000e+001  0.000000e+000 -1.500000e+001
      vertex -3.450000e+001  0.000000e+000  2.500000e+001
      vertex -3.450000e+001  1.500000e+001 -1.500000e+001
    endloop
  endfacet
  facet normal -1.000000e+000  0.000000e+000  0.000000e+000
    outer loop
      vertex -3.450000e+001  1.500000e+001 -1.500000e+001
      vertex -3.450000e+001  0.000000e+000  2.500000e+001
      vertex -3.450000e+001  1.500000e+001  2.500000e+001
    endloop
  endfacet
  facet normal  0.000000e+000 -1.000000e+000  0.000000e+000
    outer loop
      vertex -4.950000e+001  1.500000e+001  2.500000e+001
      vertex -4.950000e+001  1.500000e+001 -1.500000e+001
      vertex -3.450000e+001  1.500000e+001  2.500000e+001
    endloop
  endfacet
  facet normal  0.000000e+000 -1.000000e+000  -0.000000e+000
    outer loop
      vertex -3.450000e+001  1.500000e+001  2.500000e+001
      vertex -4.950000e+001  1.500000e+001 -1.500000e+001
      vertex -3.450000e+001  1.500000e+001 -1.500000e+001
    endloop
  endfacet
  facet normal  0.000000e+000 -7.071068e-001 -7.071068e-001
    outer loop
      vertex -4.850000e+001 -1.000000e+000 -1.400000e+001
      vertex -5.050000e+001 -1.000000e+000 -1.400000e+001
      vertex -4.850000e+001  0.000000e+000 -1.500000e+001
    endloop
  endfacet
  facet normal  -0.000000e+000 -7.071068e-001 -7.071068e-001
    outer loop
      vertex -4.850000e+001  0.000000e+000 -1.500000e+001
      vertex -5.050000e+001 -1.000000e+000 -1.400000e+001
      vertex -4.950000e+001  0.000000e+000 -1.500000e+001
    endloop
  endfacet
  facet normal -7.071068e-001  0.000000e+000 -7.071068e-001
    outer loop
      vertex -5.050000e+001  1.600000e+001 -1.400000e+001
      vertex -4.950000e+001  1.500000e+001 -1.500000e+001
      vertex -5.050000e+001 -1.000000e+000 -1.400000e+001
    endloop
  endfacet
  facet normal -7.071068e-001  0.000000e+000 -7.071068e-001
    outer loop
      vertex -5.050000e+001 -1.000000e+000 -1.400000e+001
      vertex -4.950000e+001  1.500000e+001 -1.500000e+001
      vertex -4.950000e+001  0.000000e+000 -1.500000e+001
    endloop
  endfacet
  facet normal  0.000000e+000  7.071068e-001 -7.071068e-001
    outer loop
      vertex -5.050000e+001  1.600000e+001 -1.400000e+001
      vertex -3.350000e+001  1.600000e+001 -1.400000e+001
      vertex -4.950000e+001  1.500000e+001 -1.500000e+001
    endloop
  endfacet
  facet normal  0.000000e+000  7.071068e-001 -7.071068e-001
    outer loop
      vertex -4.950000e+001  1.500000e+001 -1.500000e+001
      vertex -3.350000e+001  1.600000e+001 -1.400000e+001
      vertex -3.450000e+001  1.500000e+001 -1.500000e+001
    endloop
  endfacet
  facet normal  7.071068e-001  0.000000e+000 -7.071068e-001
    outer loop
      vertex -3.350000e+001 -1.000000e+000 -1.400000e+001
      vertex -3.450000e+001  0.000000e+000 -1.500000e+001
      vertex -3.350000e+001  1.600000e+001 -1.400000e+001
    endloop
  endfacet
  facet normal  7.071068e-001  0.000000e+000 -7.071068e-001
    outer loop
      vertex -3.350000e+001  1.600000e+001 -1.400000e+001
      vertex -3.450000e+001  0.000000e+000 -1.500000e+001
      vertex -3.450000e+001  1.500000e+001 -1.500000e+001
    endloop
  endfacet
  facet normal  0.000000e+000 -7.071068e-001 -7.071068e-001
    outer loop
      vertex -3.350000e+001 -1.000000e+000 -1.400000e+001
      vertex -3.550000e+001 -1.000000e+000 -1.400000e+001
      vertex -3.450000e+001  0.000000e+000 -1.500000e+001
    endloop
  endfacet
  facet normal  -0.000000e+000 -7.071068e-001 -7.071068e-001
    outer loop
      vertex -3.450000e+001  0.000000e+000 -1.500000e+001
      vertex -3.550000e+001 -1.000000e+000 -1.400000e+001
      vertex -3.550000e+001  0.000000e+000 -1.500000e+001
    endloop
  endfacet
  facet normal  0.000000e+000  0.000000e+000 -1.000000e+000
    outer loop
      vertex -3.550000e+001  0.000000e+000 -2.000000e+000
      vertex -3.550000e+001 -1.000000e+000 -2.000000e+000
      vertex -4.850000e+001  0.000000e+000 -2.000000e+000
    endloop
  endfacet
  facet normal  0.000000e+000  0.000000e+000 -1.000000e+000
    outer loop
      vertex -4.850000e+001  0.000000e+000 -2.000000e+000
      vertex -3.550000e+001 -1.000000e+000 -2.000000e+000
      vertex -4.850000e+001 -1.000000e+000 -2.000000e+000
    endloop
  endfacet
  facet normal  -0.000000e+000  0.000000e+000  1.000000e+000
    outer loop
      vertex  5.050000e+001  1.600000e+001  4.300000e+001
      vertex -5.050000e+001  1.600000e+001  4.300000e+001
      vertex  5.050000e+001 -1.000000e+000  4.300000e+001
    endloop
  endfacet
  facet normal  0.000000e+000  0.000000e+000  1.000000e+000
    outer loop
      vertex  5.050000e+001 -1.000000e+000  4.300000e+001
      vertex -5.050000e+001  1.600000e+001  4.300000e+001
      vertex -5.050000e+001 -1.000000e+000  4.300000e+001
    endloop
  endfacet
  facet normal  -0.000000e+000  0.000000e+000 -1.000000e+000
    outer loop
      vertex  3.350000e+001  1.600000e+001 -1.500000e+001
      vertex  3.450000e+001 -2.486900e-014 -1.500000e+001
      vertex  3.350000e+001 -1.000000e+000 -1.500000e+001
    endloop
  endfacet
  facet normal  0.000000e+000  0.000000e+000 -1.000000e+000
    outer loop
      vertex  3.350000e+001 -1.000000e+000 -1.500000e+001
      vertex  3.450000e+001 -2.486900e-014 -1.500000e+001
      vertex  4.950000e+001  1.421085e-014 -1.500000e+001
    endloop
  endfacet
  facet normal  0.000000e+000  -0.000000e+000 -1.000000e+000
    outer loop
      vertex  3.350000e+001 -1.000000e+000 -1.500000e+001
      vertex  4.950000e+001  1.421085e-014 -1.500000e+001
      vertex  5.050000e+001 -1.000000e+000 -1.500000e+001
    endloop
  endfacet
  facet normal  0.000000e+000  0.000000e+000 -1.000000e+000
    outer loop
      vertex  3.450000e+001 -2.486900e-014 -1.500000e+001
      vertex  3.350000e+001  1.600000e+001 -1.500000e+001
      vertex  3.450000e+001  1.500000e+001 -1.500000e+001
    endloop
  endfacet
  facet normal  0.000000e+000  0.000000e+000 -1.000000e+000
    outer loop
      vertex  3.450000e+001  1.500000e+001 -1.500000e+001
      vertex  3.350000e+001  1.600000e+001 -1.500000e+001
      vertex  5.050000e+001  1.600000e+001 -1.500000e+001
    endloop
  endfacet
  facet normal  0.000000e+000  0.000000e+000 -1.000000e+000
    outer loop
      vertex  3.450000e+001  1.500000e+001 -1.500000e+001
      vertex  5.050000e+001  1.600000e+001 -1.500000e+001
      vertex  4.950000e+001  1.500000e+001 -1.500000e+001
    endloop
  endfacet
  facet normal  0.000000e+000  0.000000e+000 -1.000000e+000
    outer loop
      vertex  4.950000e+001  1.500000e+001 -1.500000e+001
      vertex  5.050000e+001  1.600000e+001 -1.500000e+001
      vertex  5.050000e+001 -1.000000e+000 -1.500000e+001
    endloop
  endfacet
  facet normal  0.000000e+000  0.000000e+000 -1.000000e+000
    outer loop
      vertex  4.950000e+001  1.500000e+001 -1.500000e+001
      vertex  5.050000e+001 -1.000000e+000 -1.500000e+001
      vertex  4.950000e+001  1.421085e-014 -1.500000e+001
    endloop
  endfacet
  facet normal  1.000000e+000  0.000000e+000  0.000000e+000
    outer loop
      vertex  5.050000e+001  1.600000e+001 -1.500000e+001
      vertex  5.050000e+001  1.600000e+001  4.300000e+001
      vertex  5.050000e+001 -1.000000e+000 -1.500000e+001
    endloop
  endfacet
  facet normal  1.000000e+000  0.000000e+000  0.000000e+000
    outer loop
      vertex  5.050000e+001 -1.000000e+000 -1.500000e+001
      vertex  5.050000e+001  1.600000e+001  4.300000e+001
      vertex  5.050000e+001 -1.000000e+000  4.300000e+001
    endloop
  endfacet
  facet normal  0.000000e+000  9.853101e-001 -1.707750e-001
    outer loop
      vertex -3.550000e+001  4.082972e-001  3.535573e+001
      vertex  3.550000e+001 -1.065814e-014  3.300000e+001
      vertex -3.550000e+001 -1.065814e-014  3.300000e+001
    endloop
  endfacet
  facet normal  0.000000e+000  9.853101e-001 -1.707750e-001
    outer loop
      vertex  3.550000e+001 -1.065814e-014  3.300000e+001
      vertex -3.550000e+001  4.082972e-001  3.535573e+001
      vertex  3.550000e+001  4.082972e-001  3.535573e+001
    endloop
  endfacet
  facet normal  0.000000e+000  8.703673e-001 -4.924029e-001
    outer loop
      vertex  3.550000e+001  4.082972e-001  3.535573e+001
      vertex -3.550000e+001  4.082972e-001  3.535573e+001
      vertex -3.550000e+001  1.585559e+000  3.743665e+001
    endloop
  endfacet
  facet normal  0.000000e+000  8.703673e-001 -4.924029e-001
    outer loop
      vertex  3.550000e+001  4.082972e-001  3.535573e+001
      vertex -3.550000e+001  1.585559e+000  3.743665e+001
      vertex  3.550000e+001  1.585559e+000  3.743665e+001
    endloop
  endfacet
  facet normal  0.000000e+000  6.538908e-001 -7.565889e-001
    outer loop
      vertex  3.550000e+001  1.585559e+000  3.743665e+001
      vertex -3.550000e+001  1.585559e+000  3.743665e+001
      vertex -3.550000e+001  3.394449e+000  3.900000e+001
    endloop
  endfacet
  facet normal  0.000000e+000  6.538908e-001 -7.565889e-001
    outer loop
      vertex  3.550000e+001  1.585559e+000  3.743665e+001
      vertex -3.550000e+001  3.394449e+000  3.900000e+001
      vertex  3.550000e+001  3.394449e+000  3.900000e+001
    endloop
  endfacet
  facet normal  -0.000000e+000 -6.538909e-001 -7.565888e-001
    outer loop
      vertex -3.550000e+001  1.241444e+001  3.743665e+001
      vertex  3.550000e+001  1.060555e+001  3.900000e+001
      vertex -3.550000e+001  1.060555e+001  3.900000e+001
    endloop
  endfacet
  facet normal  0.000000e+000 -6.538909e-001 -7.565888e-001
    outer loop
      vertex  3.550000e+001  1.060555e+001  3.900000e+001
      vertex -3.550000e+001  1.241444e+001  3.743665e+001
      vertex  3.550000e+001  1.241444e+001  3.743665e+001
    endloop
  endfacet
  facet normal  -0.000000e+000 -8.703673e-001 -4.924029e-001
    outer loop
      vertex  3.550000e+001  1.241444e+001  3.743665e+001
      vertex -3.550000e+001  1.241444e+001  3.743665e+001
      vertex -3.550000e+001  1.359170e+001  3.535573e+001
    endloop
  endfacet
  facet normal  0.000000e+000 -8.703673e-001 -4.924029e-001
    outer loop
      vertex  3.550000e+001  1.241444e+001  3.743665e+001
      vertex -3.550000e+001  1.359170e+001  3.535573e+001
      vertex  3.550000e+001  1.359170e+001  3.535573e+001
    endloop
  endfacet
  facet normal  -0.000000e+000 -9.853101e-001 -1.707751e-001
    outer loop
      vertex  3.550000e+001  1.359170e+001  3.535573e+001
      vertex -3.550000e+001  1.359170e+001  3.535573e+001
      vertex -3.550000e+001  1.400000e+001  3.300000e+001
    endloop
  endfacet
  facet normal  0.000000e+000 -9.853101e-001 -1.707751e-001
    outer loop
      vertex  3.550000e+001  1.359170e+001  3.535573e+001
      vertex -3.550000e+001  1.400000e+001  3.300000e+001
      vertex  3.550000e+001  1.400000e+001  3.300000e+001
    endloop
  endfacet
  facet normal  0.000000e+000 -1.000000e+000  0.000000e+000
    outer loop
      vertex  3.550000e+001  1.400000e+001  3.900000e+001
      vertex  3.550000e+001  1.400000e+001  3.300000e+001
      vertex  4.950000e+001  1.400000e+001  3.900000e+001
    endloop
  endfacet
  facet normal  0.000000e+000 -1.000000e+000  0.000000e+000
    outer loop
      vertex  4.950000e+001  1.400000e+001  3.900000e+001
      vertex  3.550000e+001  1.400000e+001  3.300000e+001
      vertex  3.550000e+001  1.400000e+001  2.500000e+001
    endloop
  endfacet
  facet normal  0.000000e+000 -1.000000e+000  0.000000e+000
    outer loop
      vertex  4.950000e+001  1.400000e+001  3.900000e+001
      vertex  3.550000e+001  1.400000e+001  2.500000e+001
      vertex  4.950000e+001  1.400000e+001  2.500000e+001
    endloop
  endfacet
  facet normal  1.000000e+000  0.000000e+000  -0.000000e+000
    outer loop
      vertex  3.550000e+001 -1.421085e-014  3.900000e+001
      vertex  3.550000e+001 -1.065814e-014  3.300000e+001
      vertex  3.550000e+001  4.082972e-001  3.535573e+001
    endloop
  endfacet
  facet normal  1.000000e+000  0.000000e+000  -0.000000e+000
    outer loop
      vertex  3.550000e+001 -1.421085e-014  3.900000e+001
      vertex  3.550000e+001  4.082972e-001  3.535573e+001
      vertex  3.550000e+001  1.585559e+000  3.743665e+001
    endloop
  endfacet
  facet normal  1.000000e+000  0.000000e+000  -0.000000e+000
    outer loop
      vertex  3.550000e+001 -1.421085e-014  3.900000e+001
      vertex  3.550000e+001  1.585559e+000  3.743665e+001
      vertex  3.550000e+001  3.394449e+000  3.900000e+001
    endloop
  endfacet
  facet normal  1.000000e+000  -0.000000e+000  0.000000e+000
    outer loop
      vertex  3.550000e+001  1.400000e+001  3.900000e+001
      vertex  3.550000e+001  1.060555e+001  3.900000e+001
      vertex  3.550000e+001  1.241444e+001  3.743665e+001
    endloop
  endfacet
  facet normal  9.999999e-001  -0.000000e+000  0.000000e+000
    outer loop
      vertex  3.550000e+001  1.400000e+001  3.900000e+001
      vertex  3.550000e+001  1.241444e+001  3.743665e+001
      vertex  3.550000e+001  1.359170e+001  3.535573e+001
    endloop
  endfacet
  facet normal  1.000000e+000  -0.000000e+000  0.000000e+000
    outer loop
      vertex  3.550000e+001  1.400000e+001  3.900000e+001
      vertex  3.550000e+001  1.359170e+001  3.535573e+001
      vertex  3.550000e+001  1.400000e+001  3.300000e+001
    endloop
  endfacet
  facet normal  0.000000e+000 -1.000000e+000  0.000000e+000
    outer loop
      vertex -3.550000e+001  1.400000e+001  3.900000e+001
      vertex -4.950000e+001  1.400000e+001  3.900000e+001
      vertex -3.550000e+001  1.400000e+001  3.300000e+001
    endloop
  endfacet
  facet normal  -0.000000e+000 -1.000000e+000  0.000000e+000
    outer loop
      vertex -3.550000e+001  1.400000e+001  3.300000e+001
      vertex -4.950000e+001  1.400000e+001  3.900000e+001
      vertex -4.950000e+001  1.400000e+001  2.500000e+001
    endloop
  endfacet
  facet normal  0.000000e+000 -1.000000e+000  0.000000e+000
    outer loop
      vertex -3.550000e+001  1.400000e+001  3.300000e+001
      vertex -4.950000e+001  1.400000e+001  2.500000e+001
      vertex -3.550000e+001  1.400000e+001  2.500000e+001
    endloop
  endfacet
  facet normal -1.000000e+000  -0.000000e+000  0.000000e+000
    outer loop
      vertex -3.550000e+001  0.000000e+000  3.900000e+001
      vertex -3.550000e+001  3.394449e+000  3.900000e+001
      vertex -3.550000e+001  1.585559e+000  3.743665e+001
    endloop
  endfacet
  facet normal -1.000000e+000  -0.000000e+000  0.000000e+000
    outer loop
      vertex -3.550000e+001  0.000000e+000  3.900000e+001
      vertex -3.550000e+001  1.585559e+000  3.743665e+001
      vertex -3.550000e+001  4.082972e-001  3.535573e+001
    endloop
  endfacet
  facet normal -1.000000e+000  -0.000000e+000  0.000000e+000
    outer loop
      vertex -3.550000e+001  0.000000e+000  3.900000e+001
      vertex -3.550000e+001  4.082972e-001  3.535573e+001
      vertex -3.550000e+001 -1.065814e-014  3.300000e+001
    endloop
  endfacet
  facet normal -1.000000e+000  0.000000e+000  0.000000e+000
    outer loop
      vertex -3.550000e+001  1.400000e+001  3.900000e+001
      vertex -3.550000e+001  1.400000e+001  3.300000e+001
      vertex -3.550000e+001  1.359170e+001  3.535573e+001
    endloop
  endfacet
  facet normal -9.999999e-001  0.000000e+000  0.000000e+000
    outer loop
      vertex -3.550000e+001  1.400000e+001  3.900000e+001
      vertex -3.550000e+001  1.359170e+001  3.535573e+001
      vertex -3.550000e+001  1.241444e+001  3.743665e+001
    endloop
  endfacet
  facet normal -1.000000e+000  0.000000e+000  0.000000e+000
    outer loop
      vertex -3.550000e+001  1.400000e+001  3.900000e+001
      vertex -3.550000e+001  1.241444e+001  3.743665e+001
      vertex -3.550000e+001  1.060555e+001  3.900000e+001
    endloop
  endfacet
  facet normal -9.999999e-001  0.000000e+000  0.000000e+000
    outer loop
      vertex  4.950000e+001  1.421085e-014 -1.500000e+001
      vertex  4.950000e+001  0.000000e+000  3.900000e+001
      vertex  4.950000e+001  1.400000e+001  3.900000e+001
    endloop
  endfacet
  facet normal -1.000000e+000  0.000000e+000  -0.000000e+000
    outer loop
      vertex  4.950000e+001  1.421085e-014 -1.500000e+001
      vertex  4.950000e+001  1.400000e+001  3.900000e+001
      vertex  4.950000e+001  1.400000e+001  2.500000e+001
    endloop
  endfacet
  facet normal -1.000000e+000  0.000000e+000  -0.000000e+000
    outer loop
      vertex  4.950000e+001  1.421085e-014 -1.500000e+001
      vertex  4.950000e+001  1.400000e+001  2.500000e+001
      vertex  4.950000e+001  1.500000e+001  2.500000e+001
    endloop
  endfacet
  facet normal -1.000000e+000  0.000000e+000  -0.000000e+000
    outer loop
      vertex  4.950000e+001  1.421085e-014 -1.500000e+001
      vertex  4.950000e+001  1.500000e+001  2.500000e+001
      vertex  4.950000e+001  1.500000e+001 -1.500000e+001
    endloop
  endfacet
  facet normal -2.605323e-015  1.000000e+000  0.000000e+000
    outer loop
      vertex  4.950000e+001  1.421085e-014 -1.500000e+001
      vertex  3.450000e+001 -2.486900e-014 -1.500000e+001
      vertex  3.450000e+001 -2.486900e-014  2.500000e+001
    endloop
  endfacet
  facet normal -2.486900e-014  1.000000e+000 -8.348878e-015
    outer loop
      vertex  4.950000e+001  1.421085e-014 -1.500000e+001
      vertex  3.450000e+001 -2.486900e-014  2.500000e+001
      vertex  3.550000e+001  0.000000e+000  2.500000e+001
    endloop
  endfacet
  facet normal  2.791418e-015  1.000000e+000  1.332268e-015
    outer loop
      vertex  4.950000e+001  1.421085e-014 -1.500000e+001
      vertex  3.550000e+001  0.000000e+000  2.500000e+001
      vertex  3.550000e+001 -1.065814e-014  3.300000e+001
    endloop
  endfacet
  facet normal  2.537653e-016  1.000000e+000  5.921190e-016
    outer loop
      vertex  4.950000e+001  1.421085e-014 -1.500000e+001
      vertex  3.550000e+001 -1.065814e-014  3.300000e+001
      vertex  3.550000e+001 -1.421085e-014  3.900000e+001
    endloop
  endfacet
  facet normal -1.015061e-015  9.999999e-001  2.631640e-016
    outer loop
      vertex  4.950000e+001  1.421085e-014 -1.500000e+001
      vertex  3.550000e+001 -1.421085e-014  3.900000e+001
      vertex  4.950000e+001  0.000000e+000  3.900000e+001
    endloop
  endfacet
  facet normal  0.000000e+000  0.000000e+000 -1.000000e+000
    outer loop
      vertex  4.950000e+001  0.000000e+000  3.900000e+001
      vertex  3.550000e+001 -1.421085e-014  3.900000e+001
      vertex  3.550000e+001  3.394449e+000  3.900000e+001
    endloop
  endfacet
  facet normal  0.000000e+000  0.000000e+000 -1.000000e+000
    outer loop
      vertex  4.950000e+001  0.000000e+000  3.900000e+001
      vertex  3.550000e+001  3.394449e+000  3.900000e+001
      vertex  3.550000e+001  1.060555e+001  3.900000e+001
    endloop
  endfacet
  facet normal  0.000000e+000  0.000000e+000 -1.000000e+000
    outer loop
      vertex  4.950000e+001  0.000000e+000  3.900000e+001
      vertex  3.550000e+001  1.060555e+001  3.900000e+001
      vertex  3.550000e+001  1.400000e+001  3.900000e+001
    endloop
  endfacet
  facet normal  0.000000e+000  0.000000e+000 -1.000000e+000
    outer loop
      vertex  4.950000e+001  0.000000e+000  3.900000e+001
      vertex  3.550000e+001  1.400000e+001  3.900000e+001
      vertex  4.950000e+001  1.400000e+001  3.900000e+001
    endloop
  endfacet
  facet normal  -0.000000e+000  -0.000000e+000 -1.000000e+000
    outer loop
      vertex -4.950000e+001  1.400000e+001  3.900000e+001
      vertex -3.550000e+001  1.400000e+001  3.900000e+001
      vertex -3.550000e+001  1.060555e+001  3.900000e+001
    endloop
  endfacet
  facet normal  -0.000000e+000  -0.000000e+000 -1.000000e+000
    outer loop
      vertex -4.950000e+001  1.400000e+001  3.900000e+001
      vertex -3.550000e+001  1.060555e+001  3.900000e+001
      vertex -3.550000e+001  3.394449e+000  3.900000e+001
    endloop
  endfacet
  facet normal  -0.000000e+000  -0.000000e+000 -1.000000e+000
    outer loop
      vertex -4.950000e+001  1.400000e+001  3.900000e+001
      vertex -3.550000e+001  3.394449e+000  3.900000e+001
      vertex -3.550000e+001  0.000000e+000  3.900000e+001
    endloop
  endfacet
  facet normal  0.000000e+000  0.000000e+000 -1.000000e+000
    outer loop
      vertex -4.950000e+001  1.400000e+001  3.900000e+001
      vertex -3.550000e+001  0.000000e+000  3.900000e+001
      vertex -4.950000e+001  5.329071e-015  3.900000e+001
    endloop
  endfacet
  facet normal  -0.000000e+000  0.000000e+000 -1.000000e+000
    outer loop
      vertex -3.550000e+001  1.060555e+001  3.900000e+001
      vertex  3.550000e+001  1.060555e+001  3.900000e+001
      vertex -3.550000e+001  3.394449e+000  3.900000e+001
    endloop
  endfacet
  facet normal  0.000000e+000  0.000000e+000 -1.000000e+000
    outer loop
      vertex -3.550000e+001  3.394449e+000  3.900000e+001
      vertex  3.550000e+001  1.060555e+001  3.900000e+001
      vertex  3.550000e+001  3.394449e+000  3.900000e+001
    endloop
  endfacet
  facet normal -1.000000e+000  0.000000e+000  0.000000e+000
    outer loop
      vertex -3.550000e+001  1.400000e+001  2.500000e+001
      vertex -3.550000e+001  5.442353e+000  2.617550e+001
      vertex -3.550000e+001  8.557647e+000  2.617550e+001
    endloop
  endfacet
  facet normal -1.000000e+000  0.000000e+000  0.000000e+000
    outer loop
      vertex -3.550000e+001  1.400000e+001  2.500000e+001
      vertex -3.550000e+001  8.557647e+000  2.617550e+001
      vertex -3.550000e+001  1.136443e+001  2.752718e+001
    endloop
  endfacet
  facet normal -1.000000e+000  0.000000e+000  0.000000e+000
    outer loop
      vertex -3.550000e+001  1.400000e+001  2.500000e+001
      vertex -3.550000e+001  1.136443e+001  2.752718e+001
      vertex -3.550000e+001  1.330678e+001  2.996281e+001
    endloop
  endfacet
  facet normal -1.000000e+000  0.000000e+000  0.000000e+000
    outer loop
      vertex -3.550000e+001  1.400000e+001  2.500000e+001
      vertex -3.550000e+001  1.330678e+001  2.996281e+001
      vertex -3.550000e+001  1.400000e+001  3.300000e+001
    endloop
  endfacet
  facet normal -1.000000e+000  0.000000e+000  0.000000e+000
    outer loop
      vertex -3.550000e+001  0.000000e+000  2.500000e+001
      vertex -3.550000e+001 -1.065814e-014  3.300000e+001
      vertex -3.550000e+001  6.932179e-001  2.996281e+001
    endloop
  endfacet
  facet normal -1.000000e+000  0.000000e+000  -0.000000e+000
    outer loop
      vertex -3.550000e+001  0.000000e+000  2.500000e+001
      vertex -3.550000e+001  6.932179e-001  2.996281e+001
      vertex -3.550000e+001  2.635571e+000  2.752718e+001
    endloop
  endfacet
  facet normal -1.000000e+000  0.000000e+000  -0.000000e+000
    outer loop
      vertex -3.550000e+001  0.000000e+000  2.500000e+001
      vertex -3.550000e+001  2.635571e+000  2.752718e+001
      vertex -3.550000e+001  5.442353e+000  2.617550e+001
    endloop
  endfacet
  facet normal -1.000000e+000  0.000000e+000  -0.000000e+000
    outer loop
      vertex -3.550000e+001  0.000000e+000  2.500000e+001
      vertex -3.550000e+001  5.442353e+000  2.617550e+001
      vertex -3.550000e+001  1.400000e+001  2.500000e+001
    endloop
  endfacet
  facet normal  1.000000e+000  0.000000e+000  0.000000e+000
    outer loop
      vertex  3.550000e+001  1.400000e+001  2.500000e+001
      vertex  3.550000e+001  1.400000e+001  3.300000e+001
      vertex  3.550000e+001  1.330678e+001  2.996281e+001
    endloop
  endfacet
  facet normal  1.000000e+000  0.000000e+000  0.000000e+000
    outer loop
      vertex  3.550000e+001  1.400000e+001  2.500000e+001
      vertex  3.550000e+001  1.330678e+001  2.996281e+001
      vertex  3.550000e+001  1.136443e+001  2.752718e+001
    endloop
  endfacet
  facet normal  1.000000e+000  0.000000e+000  0.000000e+000
    outer loop
      vertex  3.550000e+001  1.400000e+001  2.500000e+001
      vertex  3.550000e+001  1.136443e+001  2.752718e+001
      vertex  3.550000e+001  8.557647e+000  2.617550e+001
    endloop
  endfacet
  facet normal  1.000000e+000  0.000000e+000  0.000000e+000
    outer loop
      vertex  3.550000e+001  1.400000e+001  2.500000e+001
      vertex  3.550000e+001  8.557647e+000  2.617550e+001
      vertex  3.550000e+001  5.442353e+000  2.617550e+001
    endloop
  endfacet
  facet normal  1.000000e+000  0.000000e+000  0.000000e+000
    outer loop
      vertex  3.550000e+001  0.000000e+000  2.500000e+001
      vertex  3.550000e+001  1.400000e+001  2.500000e+001
      vertex  3.550000e+001  5.442353e+000  2.617550e+001
    endloop
  endfacet
  facet normal  1.000000e+000  0.000000e+000  0.000000e+000
    outer loop
      vertex  3.550000e+001  0.000000e+000  2.500000e+001
      vertex  3.550000e+001  5.442353e+000  2.617550e+001
      vertex  3.550000e+001  2.635571e+000  2.752718e+001
    endloop
  endfacet
  facet normal  1.000000e+000  0.000000e+000  0.000000e+000
    outer loop
      vertex  3.550000e+001  0.000000e+000  2.500000e+001
      vertex  3.550000e+001  2.635571e+000  2.752718e+001
      vertex  3.550000e+001  6.932179e-001  2.996281e+001
    endloop
  endfacet
  facet normal  1.000000e+000  0.000000e+000  0.000000e+000
    outer loop
      vertex  3.550000e+001  0.000000e+000  2.500000e+001
      vertex  3.550000e+001  6.932179e-001  2.996281e+001
      vertex  3.550000e+001 -1.065814e-014  3.300000e+001
    endloop
  endfacet
  facet normal  0.000000e+000 -4.338838e-001  9.009688e-001
    outer loop
      vertex -3.550000e+001  8.557647e+000  2.617550e+001
      vertex  3.550000e+001  1.136443e+001  2.752718e+001
      vertex -3.550000e+001  1.136443e+001  2.752718e+001
    endloop
  endfacet
  facet normal  0.000000e+000 -7.818316e-001  6.234897e-001
    outer loop
      vertex -3.550000e+001  1.136443e+001  2.752718e+001
      vertex  3.550000e+001  1.136443e+001  2.752718e+001
      vertex  3.550000e+001  1.330678e+001  2.996281e+001
    endloop
  endfacet
  facet normal  0.000000e+000 -7.818316e-001  6.234897e-001
    outer loop
      vertex -3.550000e+001  1.136443e+001  2.752718e+001
      vertex  3.550000e+001  1.330678e+001  2.996281e+001
      vertex -3.550000e+001  1.330678e+001  2.996281e+001
    endloop
  endfacet
  facet normal  0.000000e+000 -9.749279e-001  2.225211e-001
    outer loop
      vertex -3.550000e+001  1.330678e+001  2.996281e+001
      vertex  3.550000e+001  1.330678e+001  2.996281e+001
      vertex  3.550000e+001  1.400000e+001  3.300000e+001
    endloop
  endfacet
  facet normal  0.000000e+000 -9.749279e-001  2.225211e-001
    outer loop
      vertex -3.550000e+001  1.330678e+001  2.996281e+001
      vertex  3.550000e+001  1.400000e+001  3.300000e+001
      vertex -3.550000e+001  1.400000e+001  3.300000e+001
    endloop
  endfacet
  facet normal  0.000000e+000 -4.338838e-001  9.009688e-001
    outer loop
      vertex  3.550000e+001  1.136443e+001  2.752718e+001
      vertex -3.550000e+001  8.557647e+000  2.617550e+001
      vertex  3.550000e+001  8.557647e+000  2.617550e+001
    endloop
  endfacet
  facet normal  0.000000e+000  0.000000e+000  9.999999e-001
    outer loop
      vertex  3.550000e+001  8.557647e+000  2.617550e+001
      vertex -3.550000e+001  8.557647e+000  2.617550e+001
      vertex -3.550000e+001  5.442353e+000  2.617550e+001
    endloop
  endfacet
  facet normal  0.000000e+000  0.000000e+000  9.999999e-001
    outer loop
      vertex  3.550000e+001  8.557647e+000  2.617550e+001
      vertex -3.550000e+001  5.442353e+000  2.617550e+001
      vertex  3.550000e+001  5.442353e+000  2.617550e+001
    endloop
  endfacet
  facet normal  0.000000e+000  4.338838e-001  9.009688e-001
    outer loop
      vertex  3.550000e+001  5.442353e+000  2.617550e+001
      vertex -3.550000e+001  5.442353e+000  2.617550e+001
      vertex -3.550000e+001  2.635571e+000  2.752718e+001
    endloop
  endfacet
  facet normal  -0.000000e+000  4.338838e-001  9.009688e-001
    outer loop
      vertex  3.550000e+001  5.442353e+000  2.617550e+001
      vertex -3.550000e+001  2.635571e+000  2.752718e+001
      vertex  3.550000e+001  2.635571e+000  2.752718e+001
    endloop
  endfacet
  facet normal  0.000000e+000  7.818314e-001  6.234897e-001
    outer loop
      vertex  3.550000e+001  2.635571e+000  2.752718e+001
      vertex -3.550000e+001  2.635571e+000  2.752718e+001
      vertex -3.550000e+001  6.932179e-001  2.996281e+001
    endloop
  endfacet
  facet normal  -0.000000e+000  7.818314e-001  6.234897e-001
    outer loop
      vertex  3.550000e+001  2.635571e+000  2.752718e+001
      vertex -3.550000e+001  6.932179e-001  2.996281e+001
      vertex  3.550000e+001  6.932179e-001  2.996281e+001
    endloop
  endfacet
  facet normal  0.000000e+000  9.749279e-001  2.225210e-001
    outer loop
      vertex  3.550000e+001  6.932179e-001  2.996281e+001
      vertex -3.550000e+001  6.932179e-001  2.996281e+001
      vertex -3.550000e+001 -1.065814e-014  3.300000e+001
    endloop
  endfacet
  facet normal  -0.000000e+000  9.749279e-001  2.225210e-001
    outer loop
      vertex  3.550000e+001  6.932179e-001  2.996281e+001
      vertex -3.550000e+001 -1.065814e-014  3.300000e+001
      vertex  3.550000e+001 -1.065814e-014  3.300000e+001
    endloop
  endfacet
  facet normal  -0.000000e+000  0.000000e+000 -1.000000e+000
    outer loop
      vertex -4.950000e+001  1.500000e+001  2.500000e+001
      vertex -3.450000e+001  1.500000e+001  2.500000e+001
      vertex -4.950000e+001  1.400000e+001  2.500000e+001
    endloop
  endfacet
  facet normal  0.000000e+000  0.000000e+000 -1.000000e+000
    outer loop
      vertex -4.950000e+001  1.400000e+001  2.500000e+001
      vertex -3.450000e+001  1.500000e+001  2.500000e+001
      vertex -3.550000e+001  1.400000e+001  2.500000e+001
    endloop
  endfacet
  facet normal  0.000000e+000  0.000000e+000 -1.000000e+000
    outer loop
      vertex -3.450000e+001  1.500000e+001  2.500000e+001
      vertex -3.450000e+001  0.000000e+000  2.500000e+001
      vertex -3.550000e+001  1.400000e+001  2.500000e+001
    endloop
  endfacet
  facet normal  0.000000e+000  0.000000e+000 -1.000000e+000
    outer loop
      vertex -3.550000e+001  1.400000e+001  2.500000e+001
      vertex -3.450000e+001  0.000000e+000  2.500000e+001
      vertex -3.550000e+001  0.000000e+000  2.500000e+001
    endloop
  endfacet
  facet normal  0.000000e+000  0.000000e+000 -1.000000e+000
    outer loop
      vertex  3.450000e+001 -2.486900e-014  2.500000e+001
      vertex  3.450000e+001  1.500000e+001  2.500000e+001
      vertex  3.550000e+001  0.000000e+000  2.500000e+001
    endloop
  endfacet
  facet normal  0.000000e+000  0.000000e+000 -1.000000e+000
    outer loop
      vertex  3.550000e+001  0.000000e+000  2.500000e+001
      vertex  3.450000e+001  1.500000e+001  2.500000e+001
      vertex  3.550000e+001  1.400000e+001  2.500000e+001
    endloop
  endfacet
  facet normal  -0.000000e+000  0.000000e+000 -1.000000e+000
    outer loop
      vertex  3.450000e+001  1.500000e+001  2.500000e+001
      vertex  4.950000e+001  1.500000e+001  2.500000e+001
      vertex  3.550000e+001  1.400000e+001  2.500000e+001
    endloop
  endfacet
  facet normal  0.000000e+000  0.000000e+000 -1.000000e+000
    outer loop
      vertex  3.550000e+001  1.400000e+001  2.500000e+001
      vertex  4.950000e+001  1.500000e+001  2.500000e+001
      vertex  4.950000e+001  1.400000e+001  2.500000e+001
    endloop
  endfacet
  facet normal  0.000000e+000  0.000000e+000 -1.000000e+000
    outer loop
      vertex -3.350000e+001 -1.000000e+000  2.500000e+001
      vertex -3.350000e+001  1.600000e+001  2.500000e+001
      vertex  3.350000e+001 -1.000000e+000  2.500000e+001
    endloop
  endfacet
  facet normal  0.000000e+000  0.000000e+000 -1.000000e+000
    outer loop
      vertex  3.350000e+001 -1.000000e+000  2.500000e+001
      vertex -3.350000e+001  1.600000e+001  2.500000e+001
      vertex  3.350000e+001  1.600000e+001  2.500000e+001
    endloop
  endfacet
  facet normal  0.000000e+000 -1.000000e+000  0.000000e+000
    outer loop
      vertex  3.450000e+001  1.500000e+001  2.500000e+001
      vertex  3.450000e+001  1.500000e+001 -1.500000e+001
      vertex  4.950000e+001  1.500000e+001  2.500000e+001
    endloop
  endfacet
  facet normal  0.000000e+000 -1.000000e+000  -0.000000e+000
    outer loop
      vertex  4.950000e+001  1.500000e+001  2.500000e+001
      vertex  3.450000e+001  1.500000e+001 -1.500000e+001
      vertex  4.950000e+001  1.500000e+001 -1.500000e+001
    endloop
  endfacet
  facet normal  1.000000e+000  0.000000e+000  0.000000e+000
    outer loop
      vertex  3.450000e+001  1.500000e+001 -1.500000e+001
      vertex  3.450000e+001  1.500000e+001  2.500000e+001
      vertex  3.450000e+001 -2.486900e-014 -1.500000e+001
    endloop
  endfacet
  facet normal  1.000000e+000  0.000000e+000  0.000000e+000
    outer loop
      vertex  3.450000e+001 -2.486900e-014 -1.500000e+001
      vertex  3.450000e+001  1.500000e+001  2.500000e+001
      vertex  3.450000e+001 -2.486900e-014  2.500000e+001
    endloop
  endfacet
  facet normal -1.000000e+000  -0.000000e+000  0.000000e+000
    outer loop
      vertex  3.350000e+001 -1.000000e+000  2.500000e+001
      vertex  3.350000e+001  1.000000e+000 -6.000000e+000
      vertex  3.350000e+001 -1.000000e+000 -1.500000e+001
    endloop
  endfacet
  facet normal -1.000000e+000  0.000000e+000  0.000000e+000
    outer loop
      vertex  3.350000e+001 -1.000000e+000 -1.500000e+001
      vertex  3.350000e+001  1.000000e+000 -6.000000e+000
      vertex  3.350000e+001  1.300000e+001 -6.000000e+000
    endloop
  endfacet
  facet normal -1.000000e+000  0.000000e+000  -0.000000e+000
    outer loop
      vertex  3.350000e+001 -1.000000e+000 -1.500000e+001
      vertex  3.350000e+001  1.300000e+001 -6.000000e+000
      vertex  3.350000e+001  1.600000e+001 -1.500000e+001
    endloop
  endfacet
  facet normal -1.000000e+000  0.000000e+000  0.000000e+000
    outer loop
      vertex  3.350000e+001  1.000000e+000 -6.000000e+000
      vertex  3.350000e+001 -1.000000e+000  2.500000e+001
      vertex  3.350000e+001  1.000000e+000  6.000000e+000
    endloop
  endfacet
  facet normal -1.000000e+000  0.000000e+000  0.000000e+000
    outer loop
      vertex  3.350000e+001  1.000000e+000  6.000000e+000
      vertex  3.350000e+001 -1.000000e+000  2.500000e+001
      vertex  3.350000e+001  1.600000e+001  2.500000e+001
    endloop
  endfacet
  facet normal -1.000000e+000  0.000000e+000  0.000000e+000
    outer loop
      vertex  3.350000e+001  1.000000e+000  6.000000e+000
      vertex  3.350000e+001  1.600000e+001  2.500000e+001
      vertex  3.350000e+001  1.300000e+001  6.000000e+000
    endloop
  endfacet
  facet normal -1.000000e+000  0.000000e+000  0.000000e+000
    outer loop
      vertex  3.350000e+001  1.300000e+001  6.000000e+000
      vertex  3.350000e+001  1.600000e+001  2.500000e+001
      vertex  3.350000e+001  1.600000e+001 -1.500000e+001
    endloop
  endfacet
  facet normal -1.000000e+000  0.000000e+000  0.000000e+000
    outer loop
      vertex  3.350000e+001  1.300000e+001  6.000000e+000
      vertex  3.350000e+001  1.600000e+001 -1.500000e+001
      vertex  3.350000e+001  1.300000e+001 -6.000000e+000
    endloop
  endfacet
  facet normal  0.000000e+000 -1.000000e+000  0.000000e+000
    outer loop
      vertex -3.350000e+001  1.000000e+000  6.000000e+000
      vertex -3.350000e+001  1.000000e+000 -6.000000e+000
      vertex  3.350000e+001  1.000000e+000  6.000000e+000
    endloop
  endfacet
  facet normal  0.000000e+000 -1.000000e+000  -0.000000e+000
    outer loop
      vertex  3.350000e+001  1.000000e+000  6.000000e+000
      vertex -3.350000e+001  1.000000e+000 -6.000000e+000
      vertex  3.350000e+001  1.000000e+000 -6.000000e+000
    endloop
  endfacet
  facet normal  -0.000000e+000  0.000000e+000 -1.000000e+000
    outer loop
      vertex -3.350000e+001  1.300000e+001 -6.000000e+000
      vertex  3.350000e+001  1.300000e+001 -6.000000e+000
      vertex -3.350000e+001  1.000000e+000 -6.000000e+000
    endloop
  endfacet
  facet normal  0.000000e+000  0.000000e+000 -1.000000e+000
    outer loop
      vertex -3.350000e+001  1.000000e+000 -6.000000e+000
      vertex  3.350000e+001  1.300000e+001 -6.000000e+000
      vertex  3.350000e+001  1.000000e+000 -6.000000e+000
    endloop
  endfacet
  facet normal  0.000000e+000  1.000000e+000  0.000000e+000
    outer loop
      vertex -3.350000e+001  1.300000e+001 -6.000000e+000
      vertex -3.350000e+001  1.300000e+001  6.000000e+000
      vertex  3.350000e+001  1.300000e+001 -6.000000e+000
    endloop
  endfacet
  facet normal  0.000000e+000  1.000000e+000  -0.000000e+000
    outer loop
      vertex  3.350000e+001  1.300000e+001 -6.000000e+000
      vertex -3.350000e+001  1.300000e+001  6.000000e+000
      vertex  3.350000e+001  1.300000e+001  6.000000e+000
    endloop
  endfacet
  facet normal  0.000000e+000  0.000000e+000  1.000000e+000
    outer loop
      vertex -3.350000e+001  1.000000e+000  6.000000e+000
      vertex  3.350000e+001  1.000000e+000  6.000000e+000
      vertex -3.350000e+001  1.300000e+001  6.000000e+000
    endloop
  endfacet
  facet normal  -0.000000e+000  0.000000e+000  1.000000e+000
    outer loop
      vertex -3.350000e+001  1.300000e+001  6.000000e+000
      vertex  3.350000e+001  1.000000e+000  6.000000e+000
      vertex  3.350000e+001  1.300000e+001  6.000000e+000
    endloop
  endfacet
endsolid CATIA STL
