solid CATIA STL
  facet normal  1.000000e+000  0.000000e+000  -0.000000e+000
    outer loop
      vertex -3.500000e+001  0.000000e+000 -3.000000e+001
      vertex -3.500000e+001  1.000000e+000 -6.000000e+000
      vertex -3.500000e+001  1.000000e+000  6.000000e+000
    endloop
  endfacet
  facet normal  1.000000e+000  0.000000e+000  0.000000e+000
    outer loop
      vertex -3.500000e+001  1.400000e+001 -3.000000e+001
      vertex -3.500000e+001  1.400000e+001  1.400000e+002
      vertex -3.500000e+001  1.300000e+001  6.000000e+000
    endloop
  endfacet
  facet normal  1.000000e+000  0.000000e+000  0.000000e+000
    outer loop
      vertex -3.500000e+001  1.400000e+001 -3.000000e+001
      vertex -3.500000e+001  1.300000e+001  6.000000e+000
      vertex -3.500000e+001  1.300000e+001 -6.000000e+000
    endloop
  endfacet
  facet normal  1.000000e+000  0.000000e+000  0.000000e+000
    outer loop
      vertex -3.500000e+001  1.400000e+001 -3.000000e+001
      vertex -3.500000e+001  1.300000e+001 -6.000000e+000
      vertex -3.500000e+001  1.000000e+000 -6.000000e+000
    endloop
  endfacet
  facet normal  1.000000e+000  0.000000e+000  0.000000e+000
    outer loop
      vertex -3.500000e+001  1.400000e+001 -3.000000e+001
      vertex -3.500000e+001  1.000000e+000 -6.000000e+000
      vertex -3.500000e+001  0.000000e+000 -3.000000e+001
    endloop
  endfacet
  facet normal  1.000000e+000  0.000000e+000  0.000000e+000
    outer loop
      vertex -3.500000e+001  1.300000e+001  6.000000e+000
      vertex -3.500000e+001  1.400000e+001  1.400000e+002
      vertex -3.500000e+001  1.000000e+000  6.000000e+000
    endloop
  endfacet
  facet normal  1.000000e+000  0.000000e+000  -0.000000e+000
    outer loop
      vertex -3.500000e+001  1.000000e+000  6.000000e+000
      vertex -3.500000e+001  1.400000e+001  1.400000e+002
      vertex -3.500000e+001  0.000000e+000  1.400000e+002
    endloop
  endfacet
  facet normal  1.000000e+000  0.000000e+000  0.000000e+000
    outer loop
      vertex -3.500000e+001  1.000000e+000  6.000000e+000
      vertex -3.500000e+001  0.000000e+000  1.400000e+002
      vertex -3.500000e+001  0.000000e+000 -3.000000e+001
    endloop
  endfacet
  facet normal -1.000000e+000  0.000000e+000  0.000000e+000
    outer loop
      vertex  3.500000e+001  1.400000e+001 -3.000000e+001
      vertex  3.500000e+001  1.300000e+001 -6.000000e+000
      vertex  3.500000e+001  1.300000e+001  6.000000e+000
    endloop
  endfacet
  facet normal -1.000000e+000  0.000000e+000  0.000000e+000
    outer loop
      vertex  3.500000e+001 -2.042810e-014 -3.000000e+001
      vertex  3.500000e+001 -2.042810e-014  1.400000e+002
      vertex  3.500000e+001  1.000000e+000  6.000000e+000
    endloop
  endfacet
  facet normal -1.000000e+000  0.000000e+000  -0.000000e+000
    outer loop
      vertex  3.500000e+001 -2.042810e-014 -3.000000e+001
      vertex  3.500000e+001  1.000000e+000  6.000000e+000
      vertex  3.500000e+001  1.000000e+000 -6.000000e+000
    endloop
  endfacet
  facet normal -1.000000e+000  0.000000e+000  -0.000000e+000
    outer loop
      vertex  3.500000e+001 -2.042810e-014 -3.000000e+001
      vertex  3.500000e+001  1.000000e+000 -6.000000e+000
      vertex  3.500000e+001  1.300000e+001 -6.000000e+000
    endloop
  endfacet
  facet normal -1.000000e+000  0.000000e+000  -0.000000e+000
    outer loop
      vertex  3.500000e+001 -2.042810e-014 -3.000000e+001
      vertex  3.500000e+001  1.300000e+001 -6.000000e+000
      vertex  3.500000e+001  1.400000e+001 -3.000000e+001
    endloop
  endfacet
  facet normal -1.000000e+000  0.000000e+000  0.000000e+000
    outer loop
      vertex  3.500000e+001  1.000000e+000  6.000000e+000
      vertex  3.500000e+001 -2.042810e-014  1.400000e+002
      vertex  3.500000e+001  1.300000e+001  6.000000e+000
    endloop
  endfacet
  facet normal -1.000000e+000  0.000000e+000  0.000000e+000
    outer loop
      vertex  3.500000e+001  1.300000e+001  6.000000e+000
      vertex  3.500000e+001 -2.042810e-014  1.400000e+002
      vertex  3.500000e+001  1.400000e+001  1.400000e+002
    endloop
  endfacet
  facet normal -1.000000e+000  0.000000e+000  -0.000000e+000
    outer loop
      vertex  3.500000e+001  1.300000e+001  6.000000e+000
      vertex  3.500000e+001  1.400000e+001  1.400000e+002
      vertex  3.500000e+001  1.400000e+001 -3.000000e+001
    endloop
  endfacet
  facet normal  0.000000e+000 -1.000000e+000  0.000000e+000
    outer loop
      vertex -3.500000e+001  1.000000e+000  6.000000e+000
      vertex -3.500000e+001  1.000000e+000 -6.000000e+000
      vertex  3.500000e+001  1.000000e+000  6.000000e+000
    endloop
  endfacet
  facet normal  0.000000e+000 -1.000000e+000  -0.000000e+000
    outer loop
      vertex  3.500000e+001  1.000000e+000  6.000000e+000
      vertex -3.500000e+001  1.000000e+000 -6.000000e+000
      vertex  3.500000e+001  1.000000e+000 -6.000000e+000
    endloop
  endfacet
  facet normal  -0.000000e+000  0.000000e+000 -1.000000e+000
    outer loop
      vertex -3.500000e+001  1.300000e+001 -6.000000e+000
      vertex  3.500000e+001  1.300000e+001 -6.000000e+000
      vertex -3.500000e+001  1.000000e+000 -6.000000e+000
    endloop
  endfacet
  facet normal  0.000000e+000  0.000000e+000 -1.000000e+000
    outer loop
      vertex -3.500000e+001  1.000000e+000 -6.000000e+000
      vertex  3.500000e+001  1.300000e+001 -6.000000e+000
      vertex  3.500000e+001  1.000000e+000 -6.000000e+000
    endloop
  endfacet
  facet normal  0.000000e+000  1.000000e+000  0.000000e+000
    outer loop
      vertex -3.500000e+001  1.300000e+001 -6.000000e+000
      vertex -3.500000e+001  1.300000e+001  6.000000e+000
      vertex  3.500000e+001  1.300000e+001 -6.000000e+000
    endloop
  endfacet
  facet normal  0.000000e+000  1.000000e+000  -0.000000e+000
    outer loop
      vertex  3.500000e+001  1.300000e+001 -6.000000e+000
      vertex -3.500000e+001  1.300000e+001  6.000000e+000
      vertex  3.500000e+001  1.300000e+001  6.000000e+000
    endloop
  endfacet
  facet normal  0.000000e+000  0.000000e+000  1.000000e+000
    outer loop
      vertex -3.500000e+001  1.000000e+000  6.000000e+000
      vertex  3.500000e+001  1.000000e+000  6.000000e+000
      vertex -3.500000e+001  1.300000e+001  6.000000e+000
    endloop
  endfacet
  facet normal  -0.000000e+000  0.000000e+000  1.000000e+000
    outer loop
      vertex -3.500000e+001  1.300000e+001  6.000000e+000
      vertex  3.500000e+001  1.000000e+000  6.000000e+000
      vertex  3.500000e+001  1.300000e+001  6.000000e+000
    endloop
  endfacet
  facet normal  0.000000e+000  0.000000e+000  1.000000e+000
    outer loop
      vertex -4.900000e+001  1.065814e-014  1.400000e+002
      vertex -3.500000e+001  0.000000e+000  1.400000e+002
      vertex -4.058699e+001  8.092077e-001  1.400000e+002
    endloop
  endfacet
  facet normal  0.000000e+000  0.000000e+000  1.000000e+000
    outer loop
      vertex -4.900000e+001  1.065814e-014  1.400000e+002
      vertex -4.058699e+001  8.092077e-001  1.400000e+002
      vertex -4.341301e+001  8.092077e-001  1.400000e+002
    endloop
  endfacet
  facet normal  0.000000e+000  0.000000e+000  1.000000e+000
    outer loop
      vertex -4.900000e+001  1.065814e-014  1.400000e+002
      vertex -4.341301e+001  8.092077e-001  1.400000e+002
      vertex -4.595916e+001  2.035370e+000  1.400000e+002
    endloop
  endfacet
  facet normal  0.000000e+000  0.000000e+000  1.000000e+000
    outer loop
      vertex -4.900000e+001  1.065814e-014  1.400000e+002
      vertex -4.595916e+001  2.035370e+000  1.400000e+002
      vertex -4.772115e+001  4.244838e+000  1.400000e+002
    endloop
  endfacet
  facet normal  0.000000e+000  0.000000e+000  1.000000e+000
    outer loop
      vertex -4.900000e+001  1.065814e-014  1.400000e+002
      vertex -4.772115e+001  4.244838e+000  1.400000e+002
      vertex -4.835000e+001  7.000000e+000  1.400000e+002
    endloop
  endfacet
  facet normal  0.000000e+000  0.000000e+000  1.000000e+000
    outer loop
      vertex -4.900000e+001  1.400000e+001  1.400000e+002
      vertex -4.900000e+001  1.065814e-014  1.400000e+002
      vertex -4.835000e+001  7.000000e+000  1.400000e+002
    endloop
  endfacet
  facet normal  0.000000e+000  -0.000000e+000  1.000000e+000
    outer loop
      vertex -4.900000e+001  1.400000e+001  1.400000e+002
      vertex -4.835000e+001  7.000000e+000  1.400000e+002
      vertex -4.772115e+001  9.755161e+000  1.400000e+002
    endloop
  endfacet
  facet normal  0.000000e+000  -0.000000e+000  1.000000e+000
    outer loop
      vertex -4.900000e+001  1.400000e+001  1.400000e+002
      vertex -4.772115e+001  9.755161e+000  1.400000e+002
      vertex -4.595916e+001  1.196463e+001  1.400000e+002
    endloop
  endfacet
  facet normal  0.000000e+000  -0.000000e+000  1.000000e+000
    outer loop
      vertex -4.900000e+001  1.400000e+001  1.400000e+002
      vertex -4.595916e+001  1.196463e+001  1.400000e+002
      vertex -4.341301e+001  1.319079e+001  1.400000e+002
    endloop
  endfacet
  facet normal  0.000000e+000  -0.000000e+000  1.000000e+000
    outer loop
      vertex -4.900000e+001  1.400000e+001  1.400000e+002
      vertex -4.341301e+001  1.319079e+001  1.400000e+002
      vertex -4.058699e+001  1.319079e+001  1.400000e+002
    endloop
  endfacet
  facet normal  0.000000e+000  -0.000000e+000  1.000000e+000
    outer loop
      vertex -4.900000e+001  1.400000e+001  1.400000e+002
      vertex -4.058699e+001  1.319079e+001  1.400000e+002
      vertex -3.500000e+001  1.400000e+001  1.400000e+002
    endloop
  endfacet
  facet normal  0.000000e+000  0.000000e+000  1.000000e+000
    outer loop
      vertex -3.500000e+001  0.000000e+000  1.400000e+002
      vertex -3.565000e+001  7.000000e+000  1.400000e+002
      vertex -3.627885e+001  4.244838e+000  1.400000e+002
    endloop
  endfacet
  facet normal  0.000000e+000  0.000000e+000  1.000000e+000
    outer loop
      vertex -3.500000e+001  0.000000e+000  1.400000e+002
      vertex -3.627885e+001  4.244838e+000  1.400000e+002
      vertex -3.804084e+001  2.035370e+000  1.400000e+002
    endloop
  endfacet
  facet normal  0.000000e+000  0.000000e+000  1.000000e+000
    outer loop
      vertex -3.500000e+001  0.000000e+000  1.400000e+002
      vertex -3.804084e+001  2.035370e+000  1.400000e+002
      vertex -4.058699e+001  8.092077e-001  1.400000e+002
    endloop
  endfacet
  facet normal  -0.000000e+000  0.000000e+000  1.000000e+000
    outer loop
      vertex -3.500000e+001  1.400000e+001  1.400000e+002
      vertex -4.058699e+001  1.319079e+001  1.400000e+002
      vertex -3.804084e+001  1.196463e+001  1.400000e+002
    endloop
  endfacet
  facet normal  -0.000000e+000  0.000000e+000  1.000000e+000
    outer loop
      vertex -3.500000e+001  1.400000e+001  1.400000e+002
      vertex -3.804084e+001  1.196463e+001  1.400000e+002
      vertex -3.627885e+001  9.755161e+000  1.400000e+002
    endloop
  endfacet
  facet normal  -0.000000e+000  0.000000e+000  1.000000e+000
    outer loop
      vertex -3.500000e+001  1.400000e+001  1.400000e+002
      vertex -3.627885e+001  9.755161e+000  1.400000e+002
      vertex -3.565000e+001  7.000000e+000  1.400000e+002
    endloop
  endfacet
  facet normal  -0.000000e+000  0.000000e+000  1.000000e+000
    outer loop
      vertex -3.500000e+001  1.400000e+001  1.400000e+002
      vertex -3.565000e+001  7.000000e+000  1.400000e+002
      vertex -3.500000e+001  0.000000e+000  1.400000e+002
    endloop
  endfacet
  facet normal  0.000000e+000  -0.000000e+000 -1.000000e+000
    outer loop
      vertex -4.900000e+001  1.065814e-014 -3.000000e+001
      vertex -4.835000e+001  7.000000e+000 -3.000000e+001
      vertex -4.772115e+001  4.244838e+000 -3.000000e+001
    endloop
  endfacet
  facet normal  0.000000e+000  -0.000000e+000 -1.000000e+000
    outer loop
      vertex -4.900000e+001  1.065814e-014 -3.000000e+001
      vertex -4.772115e+001  4.244838e+000 -3.000000e+001
      vertex -4.595916e+001  2.035370e+000 -3.000000e+001
    endloop
  endfacet
  facet normal  0.000000e+000  -0.000000e+000 -1.000000e+000
    outer loop
      vertex -4.900000e+001  1.065814e-014 -3.000000e+001
      vertex -4.595916e+001  2.035370e+000 -3.000000e+001
      vertex -4.341301e+001  8.092077e-001 -3.000000e+001
    endloop
  endfacet
  facet normal  0.000000e+000  -0.000000e+000 -1.000000e+000
    outer loop
      vertex -4.900000e+001  1.065814e-014 -3.000000e+001
      vertex -4.341301e+001  8.092077e-001 -3.000000e+001
      vertex -4.058699e+001  8.092077e-001 -3.000000e+001
    endloop
  endfacet
  facet normal  0.000000e+000  -0.000000e+000 -1.000000e+000
    outer loop
      vertex -4.900000e+001  1.065814e-014 -3.000000e+001
      vertex -4.058699e+001  8.092077e-001 -3.000000e+001
      vertex -3.500000e+001  0.000000e+000 -3.000000e+001
    endloop
  endfacet
  facet normal  -0.000000e+000  0.000000e+000 -1.000000e+000
    outer loop
      vertex -4.900000e+001  1.400000e+001 -3.000000e+001
      vertex -3.500000e+001  1.400000e+001 -3.000000e+001
      vertex -4.058699e+001  1.319079e+001 -3.000000e+001
    endloop
  endfacet
  facet normal  0.000000e+000  0.000000e+000 -1.000000e+000
    outer loop
      vertex -4.900000e+001  1.400000e+001 -3.000000e+001
      vertex -4.058699e+001  1.319079e+001 -3.000000e+001
      vertex -4.341301e+001  1.319079e+001 -3.000000e+001
    endloop
  endfacet
  facet normal  -0.000000e+000  0.000000e+000 -1.000000e+000
    outer loop
      vertex -4.900000e+001  1.400000e+001 -3.000000e+001
      vertex -4.341301e+001  1.319079e+001 -3.000000e+001
      vertex -4.595916e+001  1.196463e+001 -3.000000e+001
    endloop
  endfacet
  facet normal  -0.000000e+000  0.000000e+000 -1.000000e+000
    outer loop
      vertex -4.900000e+001  1.400000e+001 -3.000000e+001
      vertex -4.595916e+001  1.196463e+001 -3.000000e+001
      vertex -4.772115e+001  9.755161e+000 -3.000000e+001
    endloop
  endfacet
  facet normal  -0.000000e+000  0.000000e+000 -1.000000e+000
    outer loop
      vertex -4.900000e+001  1.400000e+001 -3.000000e+001
      vertex -4.772115e+001  9.755161e+000 -3.000000e+001
      vertex -4.835000e+001  7.000000e+000 -3.000000e+001
    endloop
  endfacet
  facet normal  -0.000000e+000  0.000000e+000 -1.000000e+000
    outer loop
      vertex -4.900000e+001  1.400000e+001 -3.000000e+001
      vertex -4.835000e+001  7.000000e+000 -3.000000e+001
      vertex -4.900000e+001  1.065814e-014 -3.000000e+001
    endloop
  endfacet
  facet normal  0.000000e+000  0.000000e+000 -1.000000e+000
    outer loop
      vertex -3.500000e+001  0.000000e+000 -3.000000e+001
      vertex -4.058699e+001  8.092077e-001 -3.000000e+001
      vertex -3.804084e+001  2.035370e+000 -3.000000e+001
    endloop
  endfacet
  facet normal  0.000000e+000  0.000000e+000 -1.000000e+000
    outer loop
      vertex -3.500000e+001  0.000000e+000 -3.000000e+001
      vertex -3.804084e+001  2.035370e+000 -3.000000e+001
      vertex -3.627885e+001  4.244838e+000 -3.000000e+001
    endloop
  endfacet
  facet normal  0.000000e+000  0.000000e+000 -1.000000e+000
    outer loop
      vertex -3.500000e+001  0.000000e+000 -3.000000e+001
      vertex -3.627885e+001  4.244838e+000 -3.000000e+001
      vertex -3.565000e+001  7.000000e+000 -3.000000e+001
    endloop
  endfacet
  facet normal  0.000000e+000  0.000000e+000 -1.000000e+000
    outer loop
      vertex -3.500000e+001  1.400000e+001 -3.000000e+001
      vertex -3.500000e+001  0.000000e+000 -3.000000e+001
      vertex -3.565000e+001  7.000000e+000 -3.000000e+001
    endloop
  endfacet
  facet normal  0.000000e+000  0.000000e+000 -1.000000e+000
    outer loop
      vertex -3.500000e+001  1.400000e+001 -3.000000e+001
      vertex -3.565000e+001  7.000000e+000 -3.000000e+001
      vertex -3.627885e+001  9.755161e+000 -3.000000e+001
    endloop
  endfacet
  facet normal  0.000000e+000  0.000000e+000 -1.000000e+000
    outer loop
      vertex -3.500000e+001  1.400000e+001 -3.000000e+001
      vertex -3.627885e+001  9.755161e+000 -3.000000e+001
      vertex -3.804084e+001  1.196463e+001 -3.000000e+001
    endloop
  endfacet
  facet normal  0.000000e+000  0.000000e+000 -1.000000e+000
    outer loop
      vertex -3.500000e+001  1.400000e+001 -3.000000e+001
      vertex -3.804084e+001  1.196463e+001 -3.000000e+001
      vertex -4.058699e+001  1.319079e+001 -3.000000e+001
    endloop
  endfacet
  facet normal  4.338840e-001 -9.009688e-001  0.000000e+000
    outer loop
      vertex -4.341301e+001  1.319079e+001 -3.000000e+001
      vertex -4.595916e+001  1.196463e+001  1.400000e+002
      vertex -4.595916e+001  1.196463e+001 -3.000000e+001
    endloop
  endfacet
  facet normal  7.818314e-001 -6.234900e-001  0.000000e+000
    outer loop
      vertex -4.595916e+001  1.196463e+001 -3.000000e+001
      vertex -4.595916e+001  1.196463e+001  1.400000e+002
      vertex -4.772115e+001  9.755161e+000  1.400000e+002
    endloop
  endfacet
  facet normal  7.818314e-001 -6.234900e-001  0.000000e+000
    outer loop
      vertex -4.595916e+001  1.196463e+001 -3.000000e+001
      vertex -4.772115e+001  9.755161e+000  1.400000e+002
      vertex -4.772115e+001  9.755161e+000 -3.000000e+001
    endloop
  endfacet
  facet normal  9.749281e-001 -2.225201e-001  0.000000e+000
    outer loop
      vertex -4.772115e+001  9.755161e+000 -3.000000e+001
      vertex -4.772115e+001  9.755161e+000  1.400000e+002
      vertex -4.835000e+001  7.000000e+000  1.400000e+002
    endloop
  endfacet
  facet normal  9.749281e-001 -2.225201e-001  0.000000e+000
    outer loop
      vertex -4.772115e+001  9.755161e+000 -3.000000e+001
      vertex -4.835000e+001  7.000000e+000  1.400000e+002
      vertex -4.835000e+001  7.000000e+000 -3.000000e+001
    endloop
  endfacet
  facet normal  4.338840e-001 -9.009688e-001  0.000000e+000
    outer loop
      vertex -4.595916e+001  1.196463e+001  1.400000e+002
      vertex -4.341301e+001  1.319079e+001 -3.000000e+001
      vertex -4.341301e+001  1.319079e+001  1.400000e+002
    endloop
  endfacet
  facet normal  0.000000e+000 -1.000000e+000  0.000000e+000
    outer loop
      vertex -4.341301e+001  1.319079e+001  1.400000e+002
      vertex -4.341301e+001  1.319079e+001 -3.000000e+001
      vertex -4.058699e+001  1.319079e+001 -3.000000e+001
    endloop
  endfacet
  facet normal  0.000000e+000 -1.000000e+000  0.000000e+000
    outer loop
      vertex -4.341301e+001  1.319079e+001  1.400000e+002
      vertex -4.058699e+001  1.319079e+001 -3.000000e+001
      vertex -4.058699e+001  1.319079e+001  1.400000e+002
    endloop
  endfacet
  facet normal -4.338840e-001 -9.009688e-001  -0.000000e+000
    outer loop
      vertex -4.058699e+001  1.319079e+001  1.400000e+002
      vertex -4.058699e+001  1.319079e+001 -3.000000e+001
      vertex -3.804084e+001  1.196463e+001 -3.000000e+001
    endloop
  endfacet
  facet normal -4.338840e-001 -9.009688e-001  0.000000e+000
    outer loop
      vertex -4.058699e+001  1.319079e+001  1.400000e+002
      vertex -3.804084e+001  1.196463e+001 -3.000000e+001
      vertex -3.804084e+001  1.196463e+001  1.400000e+002
    endloop
  endfacet
  facet normal -7.818314e-001 -6.234900e-001  -0.000000e+000
    outer loop
      vertex -3.804084e+001  1.196463e+001  1.400000e+002
      vertex -3.804084e+001  1.196463e+001 -3.000000e+001
      vertex -3.627885e+001  9.755161e+000 -3.000000e+001
    endloop
  endfacet
  facet normal -7.818314e-001 -6.234900e-001  0.000000e+000
    outer loop
      vertex -3.804084e+001  1.196463e+001  1.400000e+002
      vertex -3.627885e+001  9.755161e+000 -3.000000e+001
      vertex -3.627885e+001  9.755161e+000  1.400000e+002
    endloop
  endfacet
  facet normal -9.749281e-001 -2.225201e-001  -0.000000e+000
    outer loop
      vertex -3.627885e+001  9.755161e+000  1.400000e+002
      vertex -3.627885e+001  9.755161e+000 -3.000000e+001
      vertex -3.565000e+001  7.000000e+000 -3.000000e+001
    endloop
  endfacet
  facet normal -9.749281e-001 -2.225201e-001  0.000000e+000
    outer loop
      vertex -3.627885e+001  9.755161e+000  1.400000e+002
      vertex -3.565000e+001  7.000000e+000 -3.000000e+001
      vertex -3.565000e+001  7.000000e+000  1.400000e+002
    endloop
  endfacet
  facet normal -4.338841e-001  9.009687e-001  0.000000e+000
    outer loop
      vertex -4.058699e+001  8.092077e-001 -3.000000e+001
      vertex -3.804084e+001  2.035370e+000  1.400000e+002
      vertex -3.804084e+001  2.035370e+000 -3.000000e+001
    endloop
  endfacet
  facet normal -7.818312e-001  6.234901e-001  0.000000e+000
    outer loop
      vertex -3.804084e+001  2.035370e+000 -3.000000e+001
      vertex -3.804084e+001  2.035370e+000  1.400000e+002
      vertex -3.627885e+001  4.244838e+000  1.400000e+002
    endloop
  endfacet
  facet normal -7.818312e-001  6.234901e-001  0.000000e+000
    outer loop
      vertex -3.804084e+001  2.035370e+000 -3.000000e+001
      vertex -3.627885e+001  4.244838e+000  1.400000e+002
      vertex -3.627885e+001  4.244838e+000 -3.000000e+001
    endloop
  endfacet
  facet normal -9.749281e-001  2.225201e-001  0.000000e+000
    outer loop
      vertex -3.627885e+001  4.244838e+000 -3.000000e+001
      vertex -3.627885e+001  4.244838e+000  1.400000e+002
      vertex -3.565000e+001  7.000000e+000  1.400000e+002
    endloop
  endfacet
  facet normal -9.749281e-001  2.225201e-001  0.000000e+000
    outer loop
      vertex -3.627885e+001  4.244838e+000 -3.000000e+001
      vertex -3.565000e+001  7.000000e+000  1.400000e+002
      vertex -3.565000e+001  7.000000e+000 -3.000000e+001
    endloop
  endfacet
  facet normal -4.338841e-001  9.009687e-001  0.000000e+000
    outer loop
      vertex -3.804084e+001  2.035370e+000  1.400000e+002
      vertex -4.058699e+001  8.092077e-001 -3.000000e+001
      vertex -4.058699e+001  8.092077e-001  1.400000e+002
    endloop
  endfacet
  facet normal  0.000000e+000  1.000000e+000  0.000000e+000
    outer loop
      vertex -4.058699e+001  8.092077e-001  1.400000e+002
      vertex -4.058699e+001  8.092077e-001 -3.000000e+001
      vertex -4.341301e+001  8.092077e-001 -3.000000e+001
    endloop
  endfacet
  facet normal  0.000000e+000  1.000000e+000  0.000000e+000
    outer loop
      vertex -4.058699e+001  8.092077e-001  1.400000e+002
      vertex -4.341301e+001  8.092077e-001 -3.000000e+001
      vertex -4.341301e+001  8.092077e-001  1.400000e+002
    endloop
  endfacet
  facet normal  4.338841e-001  9.009687e-001  0.000000e+000
    outer loop
      vertex -4.341301e+001  8.092077e-001  1.400000e+002
      vertex -4.341301e+001  8.092077e-001 -3.000000e+001
      vertex -4.595916e+001  2.035370e+000 -3.000000e+001
    endloop
  endfacet
  facet normal  4.338841e-001  9.009687e-001  -0.000000e+000
    outer loop
      vertex -4.341301e+001  8.092077e-001  1.400000e+002
      vertex -4.595916e+001  2.035370e+000 -3.000000e+001
      vertex -4.595916e+001  2.035370e+000  1.400000e+002
    endloop
  endfacet
  facet normal  7.818312e-001  6.234901e-001  0.000000e+000
    outer loop
      vertex -4.595916e+001  2.035370e+000  1.400000e+002
      vertex -4.595916e+001  2.035370e+000 -3.000000e+001
      vertex -4.772115e+001  4.244838e+000 -3.000000e+001
    endloop
  endfacet
  facet normal  7.818312e-001  6.234901e-001  -0.000000e+000
    outer loop
      vertex -4.595916e+001  2.035370e+000  1.400000e+002
      vertex -4.772115e+001  4.244838e+000 -3.000000e+001
      vertex -4.772115e+001  4.244838e+000  1.400000e+002
    endloop
  endfacet
  facet normal  9.749281e-001  2.225201e-001  0.000000e+000
    outer loop
      vertex -4.772115e+001  4.244838e+000  1.400000e+002
      vertex -4.772115e+001  4.244838e+000 -3.000000e+001
      vertex -4.835000e+001  7.000000e+000 -3.000000e+001
    endloop
  endfacet
  facet normal  9.749281e-001  2.225201e-001  -0.000000e+000
    outer loop
      vertex -4.772115e+001  4.244838e+000  1.400000e+002
      vertex -4.835000e+001  7.000000e+000 -3.000000e+001
      vertex -4.835000e+001  7.000000e+000  1.400000e+002
    endloop
  endfacet
  facet normal  0.000000e+000  1.000000e+000  0.000000e+000
    outer loop
      vertex -4.900000e+001  1.400000e+001 -3.000000e+001
      vertex -4.900000e+001  1.400000e+001  1.400000e+002
      vertex -3.500000e+001  1.400000e+001 -3.000000e+001
    endloop
  endfacet
  facet normal  0.000000e+000  1.000000e+000  -0.000000e+000
    outer loop
      vertex -3.500000e+001  1.400000e+001 -3.000000e+001
      vertex -4.900000e+001  1.400000e+001  1.400000e+002
      vertex -3.500000e+001  1.400000e+001  1.400000e+002
    endloop
  endfacet
  facet normal -7.612958e-016 -1.000000e+000  -0.000000e+000
    outer loop
      vertex -3.500000e+001  0.000000e+000 -3.000000e+001
      vertex -3.500000e+001  0.000000e+000  1.400000e+002
      vertex -4.900000e+001  1.065814e-014 -3.000000e+001
    endloop
  endfacet
  facet normal -7.612958e-016 -1.000000e+000  0.000000e+000
    outer loop
      vertex -4.900000e+001  1.065814e-014 -3.000000e+001
      vertex -3.500000e+001  0.000000e+000  1.400000e+002
      vertex -4.900000e+001  1.065814e-014  1.400000e+002
    endloop
  endfacet
  facet normal -1.000000e+000  0.000000e+000  0.000000e+000
    outer loop
      vertex -4.900000e+001  1.400000e+001 -3.000000e+001
      vertex -4.900000e+001  1.065814e-014 -3.000000e+001
      vertex -4.900000e+001  1.400000e+001  1.400000e+002
    endloop
  endfacet
  facet normal -1.000000e+000  -0.000000e+000  0.000000e+000
    outer loop
      vertex -4.900000e+001  1.400000e+001  1.400000e+002
      vertex -4.900000e+001  1.065814e-014 -3.000000e+001
      vertex -4.900000e+001  1.065814e-014  1.400000e+002
    endloop
  endfacet
  facet normal  0.000000e+000  0.000000e+000  1.000000e+000
    outer loop
      vertex  3.500000e+001 -2.042810e-014  1.400000e+002
      vertex  4.900000e+001  0.000000e+000  1.400000e+002
      vertex  4.339075e+001  9.067006e-001  1.400000e+002
    endloop
  endfacet
  facet normal  0.000000e+000  0.000000e+000  1.000000e+000
    outer loop
      vertex  3.500000e+001 -2.042810e-014  1.400000e+002
      vertex  4.339075e+001  9.067006e-001  1.400000e+002
      vertex  4.060925e+001  9.067006e-001  1.400000e+002
    endloop
  endfacet
  facet normal  0.000000e+000  0.000000e+000  1.000000e+000
    outer loop
      vertex  3.500000e+001 -2.042810e-014  1.400000e+002
      vertex  4.060925e+001  9.067006e-001  1.400000e+002
      vertex  3.810319e+001  2.113553e+000  1.400000e+002
    endloop
  endfacet
  facet normal  0.000000e+000  0.000000e+000  1.000000e+000
    outer loop
      vertex  3.500000e+001 -2.042810e-014  1.400000e+002
      vertex  3.810319e+001  2.113553e+000  1.400000e+002
      vertex  3.636895e+001  4.288227e+000  1.400000e+002
    endloop
  endfacet
  facet normal  0.000000e+000  0.000000e+000  1.000000e+000
    outer loop
      vertex  3.500000e+001 -2.042810e-014  1.400000e+002
      vertex  3.636895e+001  4.288227e+000  1.400000e+002
      vertex  3.575000e+001  7.000000e+000  1.400000e+002
    endloop
  endfacet
  facet normal  0.000000e+000  0.000000e+000  1.000000e+000
    outer loop
      vertex  3.500000e+001  1.400000e+001  1.400000e+002
      vertex  3.500000e+001 -2.042810e-014  1.400000e+002
      vertex  3.575000e+001  7.000000e+000  1.400000e+002
    endloop
  endfacet
  facet normal  0.000000e+000  -0.000000e+000  9.999999e-001
    outer loop
      vertex  3.500000e+001  1.400000e+001  1.400000e+002
      vertex  3.575000e+001  7.000000e+000  1.400000e+002
      vertex  3.636895e+001  9.711773e+000  1.400000e+002
    endloop
  endfacet
  facet normal  0.000000e+000  -0.000000e+000  1.000000e+000
    outer loop
      vertex  3.500000e+001  1.400000e+001  1.400000e+002
      vertex  3.636895e+001  9.711773e+000  1.400000e+002
      vertex  3.810319e+001  1.188645e+001  1.400000e+002
    endloop
  endfacet
  facet normal  0.000000e+000  -0.000000e+000  1.000000e+000
    outer loop
      vertex  3.500000e+001  1.400000e+001  1.400000e+002
      vertex  3.810319e+001  1.188645e+001  1.400000e+002
      vertex  4.060925e+001  1.309330e+001  1.400000e+002
    endloop
  endfacet
  facet normal  0.000000e+000  -0.000000e+000  1.000000e+000
    outer loop
      vertex  3.500000e+001  1.400000e+001  1.400000e+002
      vertex  4.060925e+001  1.309330e+001  1.400000e+002
      vertex  4.339075e+001  1.309330e+001  1.400000e+002
    endloop
  endfacet
  facet normal  0.000000e+000  -0.000000e+000  9.999999e-001
    outer loop
      vertex  3.500000e+001  1.400000e+001  1.400000e+002
      vertex  4.339075e+001  1.309330e+001  1.400000e+002
      vertex  4.900000e+001  1.400000e+001  1.400000e+002
    endloop
  endfacet
  facet normal  0.000000e+000  0.000000e+000  1.000000e+000
    outer loop
      vertex  4.900000e+001  0.000000e+000  1.400000e+002
      vertex  4.825000e+001  7.000000e+000  1.400000e+002
      vertex  4.763105e+001  4.288227e+000  1.400000e+002
    endloop
  endfacet
  facet normal  0.000000e+000  0.000000e+000  1.000000e+000
    outer loop
      vertex  4.900000e+001  0.000000e+000  1.400000e+002
      vertex  4.763105e+001  4.288227e+000  1.400000e+002
      vertex  4.589681e+001  2.113553e+000  1.400000e+002
    endloop
  endfacet
  facet normal  0.000000e+000  0.000000e+000  1.000000e+000
    outer loop
      vertex  4.900000e+001  0.000000e+000  1.400000e+002
      vertex  4.589681e+001  2.113553e+000  1.400000e+002
      vertex  4.339075e+001  9.067006e-001  1.400000e+002
    endloop
  endfacet
  facet normal  -0.000000e+000  0.000000e+000  1.000000e+000
    outer loop
      vertex  4.900000e+001  1.400000e+001  1.400000e+002
      vertex  4.339075e+001  1.309330e+001  1.400000e+002
      vertex  4.589681e+001  1.188645e+001  1.400000e+002
    endloop
  endfacet
  facet normal  -0.000000e+000  0.000000e+000  1.000000e+000
    outer loop
      vertex  4.900000e+001  1.400000e+001  1.400000e+002
      vertex  4.589681e+001  1.188645e+001  1.400000e+002
      vertex  4.763105e+001  9.711773e+000  1.400000e+002
    endloop
  endfacet
  facet normal  -0.000000e+000  0.000000e+000  9.999999e-001
    outer loop
      vertex  4.900000e+001  1.400000e+001  1.400000e+002
      vertex  4.763105e+001  9.711773e+000  1.400000e+002
      vertex  4.825000e+001  7.000000e+000  1.400000e+002
    endloop
  endfacet
  facet normal  -0.000000e+000  0.000000e+000  1.000000e+000
    outer loop
      vertex  4.900000e+001  1.400000e+001  1.400000e+002
      vertex  4.825000e+001  7.000000e+000  1.400000e+002
      vertex  4.900000e+001  0.000000e+000  1.400000e+002
    endloop
  endfacet
  facet normal  0.000000e+000  -0.000000e+000 -1.000000e+000
    outer loop
      vertex  3.500000e+001 -2.042810e-014 -3.000000e+001
      vertex  3.575000e+001  7.000000e+000 -3.000000e+001
      vertex  3.636895e+001  4.288227e+000 -3.000000e+001
    endloop
  endfacet
  facet normal  0.000000e+000  -0.000000e+000 -1.000000e+000
    outer loop
      vertex  3.500000e+001 -2.042810e-014 -3.000000e+001
      vertex  3.636895e+001  4.288227e+000 -3.000000e+001
      vertex  3.810319e+001  2.113553e+000 -3.000000e+001
    endloop
  endfacet
  facet normal  0.000000e+000  -0.000000e+000 -1.000000e+000
    outer loop
      vertex  3.500000e+001 -2.042810e-014 -3.000000e+001
      vertex  3.810319e+001  2.113553e+000 -3.000000e+001
      vertex  4.060925e+001  9.067006e-001 -3.000000e+001
    endloop
  endfacet
  facet normal  0.000000e+000  -0.000000e+000 -1.000000e+000
    outer loop
      vertex  3.500000e+001 -2.042810e-014 -3.000000e+001
      vertex  4.060925e+001  9.067006e-001 -3.000000e+001
      vertex  4.339075e+001  9.067006e-001 -3.000000e+001
    endloop
  endfacet
  facet normal  0.000000e+000  -0.000000e+000 -1.000000e+000
    outer loop
      vertex  3.500000e+001 -2.042810e-014 -3.000000e+001
      vertex  4.339075e+001  9.067006e-001 -3.000000e+001
      vertex  4.900000e+001  0.000000e+000 -3.000000e+001
    endloop
  endfacet
  facet normal  -0.000000e+000  0.000000e+000 -9.999999e-001
    outer loop
      vertex  3.500000e+001  1.400000e+001 -3.000000e+001
      vertex  4.900000e+001  1.400000e+001 -3.000000e+001
      vertex  4.339075e+001  1.309330e+001 -3.000000e+001
    endloop
  endfacet
  facet normal  0.000000e+000  0.000000e+000 -1.000000e+000
    outer loop
      vertex  3.500000e+001  1.400000e+001 -3.000000e+001
      vertex  4.339075e+001  1.309330e+001 -3.000000e+001
      vertex  4.060925e+001  1.309330e+001 -3.000000e+001
    endloop
  endfacet
  facet normal  -0.000000e+000  0.000000e+000 -1.000000e+000
    outer loop
      vertex  3.500000e+001  1.400000e+001 -3.000000e+001
      vertex  4.060925e+001  1.309330e+001 -3.000000e+001
      vertex  3.810319e+001  1.188645e+001 -3.000000e+001
    endloop
  endfacet
  facet normal  -0.000000e+000  0.000000e+000 -1.000000e+000
    outer loop
      vertex  3.500000e+001  1.400000e+001 -3.000000e+001
      vertex  3.810319e+001  1.188645e+001 -3.000000e+001
      vertex  3.636895e+001  9.711773e+000 -3.000000e+001
    endloop
  endfacet
  facet normal  -0.000000e+000  0.000000e+000 -9.999999e-001
    outer loop
      vertex  3.500000e+001  1.400000e+001 -3.000000e+001
      vertex  3.636895e+001  9.711773e+000 -3.000000e+001
      vertex  3.575000e+001  7.000000e+000 -3.000000e+001
    endloop
  endfacet
  facet normal  -0.000000e+000  0.000000e+000 -1.000000e+000
    outer loop
      vertex  3.500000e+001  1.400000e+001 -3.000000e+001
      vertex  3.575000e+001  7.000000e+000 -3.000000e+001
      vertex  3.500000e+001 -2.042810e-014 -3.000000e+001
    endloop
  endfacet
  facet normal  0.000000e+000  0.000000e+000 -1.000000e+000
    outer loop
      vertex  4.900000e+001  0.000000e+000 -3.000000e+001
      vertex  4.339075e+001  9.067006e-001 -3.000000e+001
      vertex  4.589681e+001  2.113553e+000 -3.000000e+001
    endloop
  endfacet
  facet normal  0.000000e+000  0.000000e+000 -1.000000e+000
    outer loop
      vertex  4.900000e+001  0.000000e+000 -3.000000e+001
      vertex  4.589681e+001  2.113553e+000 -3.000000e+001
      vertex  4.763105e+001  4.288227e+000 -3.000000e+001
    endloop
  endfacet
  facet normal  0.000000e+000  0.000000e+000 -1.000000e+000
    outer loop
      vertex  4.900000e+001  0.000000e+000 -3.000000e+001
      vertex  4.763105e+001  4.288227e+000 -3.000000e+001
      vertex  4.825000e+001  7.000000e+000 -3.000000e+001
    endloop
  endfacet
  facet normal  0.000000e+000  0.000000e+000 -1.000000e+000
    outer loop
      vertex  4.900000e+001  1.400000e+001 -3.000000e+001
      vertex  4.900000e+001  0.000000e+000 -3.000000e+001
      vertex  4.825000e+001  7.000000e+000 -3.000000e+001
    endloop
  endfacet
  facet normal  0.000000e+000  0.000000e+000 -9.999999e-001
    outer loop
      vertex  4.900000e+001  1.400000e+001 -3.000000e+001
      vertex  4.825000e+001  7.000000e+000 -3.000000e+001
      vertex  4.763105e+001  9.711773e+000 -3.000000e+001
    endloop
  endfacet
  facet normal  0.000000e+000  0.000000e+000 -1.000000e+000
    outer loop
      vertex  4.900000e+001  1.400000e+001 -3.000000e+001
      vertex  4.763105e+001  9.711773e+000 -3.000000e+001
      vertex  4.589681e+001  1.188645e+001 -3.000000e+001
    endloop
  endfacet
  facet normal  0.000000e+000  0.000000e+000 -1.000000e+000
    outer loop
      vertex  4.900000e+001  1.400000e+001 -3.000000e+001
      vertex  4.589681e+001  1.188645e+001 -3.000000e+001
      vertex  4.339075e+001  1.309330e+001 -3.000000e+001
    endloop
  endfacet
  facet normal  4.338835e-001 -9.009690e-001  0.000000e+000
    outer loop
      vertex  4.060925e+001  1.309330e+001 -3.000000e+001
      vertex  3.810319e+001  1.188645e+001  1.400000e+002
      vertex  3.810319e+001  1.188645e+001 -3.000000e+001
    endloop
  endfacet
  facet normal  7.818320e-001 -6.234891e-001  0.000000e+000
    outer loop
      vertex  3.810319e+001  1.188645e+001 -3.000000e+001
      vertex  3.810319e+001  1.188645e+001  1.400000e+002
      vertex  3.636895e+001  9.711773e+000  1.400000e+002
    endloop
  endfacet
  facet normal  7.818320e-001 -6.234891e-001  0.000000e+000
    outer loop
      vertex  3.810319e+001  1.188645e+001 -3.000000e+001
      vertex  3.636895e+001  9.711773e+000  1.400000e+002
      vertex  3.636895e+001  9.711773e+000 -3.000000e+001
    endloop
  endfacet
  facet normal  9.749278e-001 -2.225215e-001  0.000000e+000
    outer loop
      vertex  3.636895e+001  9.711773e+000 -3.000000e+001
      vertex  3.636895e+001  9.711773e+000  1.400000e+002
      vertex  3.575000e+001  7.000000e+000  1.400000e+002
    endloop
  endfacet
  facet normal  9.749278e-001 -2.225215e-001  0.000000e+000
    outer loop
      vertex  3.636895e+001  9.711773e+000 -3.000000e+001
      vertex  3.575000e+001  7.000000e+000  1.400000e+002
      vertex  3.575000e+001  7.000000e+000 -3.000000e+001
    endloop
  endfacet
  facet normal  4.338835e-001 -9.009690e-001  0.000000e+000
    outer loop
      vertex  3.810319e+001  1.188645e+001  1.400000e+002
      vertex  4.060925e+001  1.309330e+001 -3.000000e+001
      vertex  4.060925e+001  1.309330e+001  1.400000e+002
    endloop
  endfacet
  facet normal  0.000000e+000 -1.000000e+000  0.000000e+000
    outer loop
      vertex  4.060925e+001  1.309330e+001  1.400000e+002
      vertex  4.060925e+001  1.309330e+001 -3.000000e+001
      vertex  4.339075e+001  1.309330e+001 -3.000000e+001
    endloop
  endfacet
  facet normal  0.000000e+000 -1.000000e+000  0.000000e+000
    outer loop
      vertex  4.060925e+001  1.309330e+001  1.400000e+002
      vertex  4.339075e+001  1.309330e+001 -3.000000e+001
      vertex  4.339075e+001  1.309330e+001  1.400000e+002
    endloop
  endfacet
  facet normal -4.338835e-001 -9.009690e-001  -0.000000e+000
    outer loop
      vertex  4.339075e+001  1.309330e+001  1.400000e+002
      vertex  4.339075e+001  1.309330e+001 -3.000000e+001
      vertex  4.589681e+001  1.188645e+001 -3.000000e+001
    endloop
  endfacet
  facet normal -4.338835e-001 -9.009690e-001  0.000000e+000
    outer loop
      vertex  4.339075e+001  1.309330e+001  1.400000e+002
      vertex  4.589681e+001  1.188645e+001 -3.000000e+001
      vertex  4.589681e+001  1.188645e+001  1.400000e+002
    endloop
  endfacet
  facet normal -7.818320e-001 -6.234891e-001  -0.000000e+000
    outer loop
      vertex  4.589681e+001  1.188645e+001  1.400000e+002
      vertex  4.589681e+001  1.188645e+001 -3.000000e+001
      vertex  4.763105e+001  9.711773e+000 -3.000000e+001
    endloop
  endfacet
  facet normal -7.818320e-001 -6.234891e-001  0.000000e+000
    outer loop
      vertex  4.589681e+001  1.188645e+001  1.400000e+002
      vertex  4.763105e+001  9.711773e+000 -3.000000e+001
      vertex  4.763105e+001  9.711773e+000  1.400000e+002
    endloop
  endfacet
  facet normal -9.749278e-001 -2.225215e-001  -0.000000e+000
    outer loop
      vertex  4.763105e+001  9.711773e+000  1.400000e+002
      vertex  4.763105e+001  9.711773e+000 -3.000000e+001
      vertex  4.825000e+001  7.000000e+000 -3.000000e+001
    endloop
  endfacet
  facet normal -9.749278e-001 -2.225215e-001  0.000000e+000
    outer loop
      vertex  4.763105e+001  9.711773e+000  1.400000e+002
      vertex  4.825000e+001  7.000000e+000 -3.000000e+001
      vertex  4.825000e+001  7.000000e+000  1.400000e+002
    endloop
  endfacet
  facet normal -4.338834e-001  9.009691e-001  0.000000e+000
    outer loop
      vertex  4.339075e+001  9.067006e-001 -3.000000e+001
      vertex  4.589681e+001  2.113553e+000  1.400000e+002
      vertex  4.589681e+001  2.113553e+000 -3.000000e+001
    endloop
  endfacet
  facet normal -7.818319e-001  6.234892e-001  0.000000e+000
    outer loop
      vertex  4.589681e+001  2.113553e+000 -3.000000e+001
      vertex  4.589681e+001  2.113553e+000  1.400000e+002
      vertex  4.763105e+001  4.288227e+000  1.400000e+002
    endloop
  endfacet
  facet normal -7.818319e-001  6.234892e-001  0.000000e+000
    outer loop
      vertex  4.589681e+001  2.113553e+000 -3.000000e+001
      vertex  4.763105e+001  4.288227e+000  1.400000e+002
      vertex  4.763105e+001  4.288227e+000 -3.000000e+001
    endloop
  endfacet
  facet normal -9.749277e-001  2.225214e-001  0.000000e+000
    outer loop
      vertex  4.763105e+001  4.288227e+000 -3.000000e+001
      vertex  4.763105e+001  4.288227e+000  1.400000e+002
      vertex  4.825000e+001  7.000000e+000  1.400000e+002
    endloop
  endfacet
  facet normal -9.749277e-001  2.225214e-001  0.000000e+000
    outer loop
      vertex  4.763105e+001  4.288227e+000 -3.000000e+001
      vertex  4.825000e+001  7.000000e+000  1.400000e+002
      vertex  4.825000e+001  7.000000e+000 -3.000000e+001
    endloop
  endfacet
  facet normal -4.338834e-001  9.009691e-001  0.000000e+000
    outer loop
      vertex  4.589681e+001  2.113553e+000  1.400000e+002
      vertex  4.339075e+001  9.067006e-001 -3.000000e+001
      vertex  4.339075e+001  9.067006e-001  1.400000e+002
    endloop
  endfacet
  facet normal  0.000000e+000  1.000000e+000  0.000000e+000
    outer loop
      vertex  4.339075e+001  9.067006e-001  1.400000e+002
      vertex  4.339075e+001  9.067006e-001 -3.000000e+001
      vertex  4.060925e+001  9.067006e-001 -3.000000e+001
    endloop
  endfacet
  facet normal  0.000000e+000  1.000000e+000  0.000000e+000
    outer loop
      vertex  4.339075e+001  9.067006e-001  1.400000e+002
      vertex  4.060925e+001  9.067006e-001 -3.000000e+001
      vertex  4.060925e+001  9.067006e-001  1.400000e+002
    endloop
  endfacet
  facet normal  4.338834e-001  9.009691e-001  0.000000e+000
    outer loop
      vertex  4.060925e+001  9.067006e-001  1.400000e+002
      vertex  4.060925e+001  9.067006e-001 -3.000000e+001
      vertex  3.810319e+001  2.113553e+000 -3.000000e+001
    endloop
  endfacet
  facet normal  4.338834e-001  9.009691e-001  -0.000000e+000
    outer loop
      vertex  4.060925e+001  9.067006e-001  1.400000e+002
      vertex  3.810319e+001  2.113553e+000 -3.000000e+001
      vertex  3.810319e+001  2.113553e+000  1.400000e+002
    endloop
  endfacet
  facet normal  7.818319e-001  6.234892e-001  0.000000e+000
    outer loop
      vertex  3.810319e+001  2.113553e+000  1.400000e+002
      vertex  3.810319e+001  2.113553e+000 -3.000000e+001
      vertex  3.636895e+001  4.288227e+000 -3.000000e+001
    endloop
  endfacet
  facet normal  7.818319e-001  6.234892e-001  -0.000000e+000
    outer loop
      vertex  3.810319e+001  2.113553e+000  1.400000e+002
      vertex  3.636895e+001  4.288227e+000 -3.000000e+001
      vertex  3.636895e+001  4.288227e+000  1.400000e+002
    endloop
  endfacet
  facet normal  9.749277e-001  2.225214e-001  0.000000e+000
    outer loop
      vertex  3.636895e+001  4.288227e+000  1.400000e+002
      vertex  3.636895e+001  4.288227e+000 -3.000000e+001
      vertex  3.575000e+001  7.000000e+000 -3.000000e+001
    endloop
  endfacet
  facet normal  9.749277e-001  2.225214e-001  -0.000000e+000
    outer loop
      vertex  3.636895e+001  4.288227e+000  1.400000e+002
      vertex  3.575000e+001  7.000000e+000 -3.000000e+001
      vertex  3.575000e+001  7.000000e+000  1.400000e+002
    endloop
  endfacet
  facet normal  0.000000e+000  1.000000e+000  0.000000e+000
    outer loop
      vertex  3.500000e+001  1.400000e+001 -3.000000e+001
      vertex  3.500000e+001  1.400000e+001  1.400000e+002
      vertex  4.900000e+001  1.400000e+001 -3.000000e+001
    endloop
  endfacet
  facet normal  0.000000e+000  1.000000e+000  -0.000000e+000
    outer loop
      vertex  4.900000e+001  1.400000e+001 -3.000000e+001
      vertex  3.500000e+001  1.400000e+001  1.400000e+002
      vertex  4.900000e+001  1.400000e+001  1.400000e+002
    endloop
  endfacet
  facet normal  1.000000e+000  0.000000e+000  0.000000e+000
    outer loop
      vertex  4.900000e+001  0.000000e+000 -3.000000e+001
      vertex  4.900000e+001  1.400000e+001 -3.000000e+001
      vertex  4.900000e+001  0.000000e+000  1.400000e+002
    endloop
  endfacet
  facet normal  1.000000e+000  -0.000000e+000  0.000000e+000
    outer loop
      vertex  4.900000e+001  0.000000e+000  1.400000e+002
      vertex  4.900000e+001  1.400000e+001 -3.000000e+001
      vertex  4.900000e+001  1.400000e+001  1.400000e+002
    endloop
  endfacet
  facet normal  1.459150e-015 -1.000000e+000  0.000000e+000
    outer loop
      vertex  4.900000e+001  0.000000e+000 -3.000000e+001
      vertex  4.900000e+001  0.000000e+000  1.400000e+002
      vertex  3.500000e+001 -2.042810e-014 -3.000000e+001
    endloop
  endfacet
  facet normal  1.459150e-015 -1.000000e+000  0.000000e+000
    outer loop
      vertex  3.500000e+001 -2.042810e-014 -3.000000e+001
      vertex  4.900000e+001  0.000000e+000  1.400000e+002
      vertex  3.500000e+001 -2.042810e-014  1.400000e+002
    endloop
  endfacet
endsolid CATIA STL
