solid CATIA STL
  facet normal -4.736952e-015  1.000000e+000  0.000000e+000
    outer loop
      vertex  5.000000e+001  4.973799e-014 -1.500000e+001
      vertex  3.500000e+001 -2.131628e-014 -1.500000e+001
      vertex  3.500000e+001 -2.131628e-014  1.400000e+002
    endloop
  endfacet
  facet normal -2.131628e-014  1.000000e+000 -1.604451e-015
    outer loop
      vertex  5.000000e+001  4.973799e-014 -1.500000e+001
      vertex  3.500000e+001 -2.131628e-014  1.400000e+002
      vertex  3.600000e+001  0.000000e+000  1.400000e+002
    endloop
  endfacet
  facet normal  1.611410e-014  1.000000e+000  1.776357e-015
    outer loop
      vertex  5.000000e+001  4.973799e-014 -1.500000e+001
      vertex  3.600000e+001  0.000000e+000  1.400000e+002
      vertex  3.600000e+001 -1.421085e-014  1.480000e+002
    endloop
  endfacet
  facet normal -5.921189e-016  1.000000e+000  3.414674e-016
    outer loop
      vertex  5.000000e+001  4.973799e-014 -1.500000e+001
      vertex  3.600000e+001 -1.421085e-014  1.480000e+002
      vertex  4.800000e+001 -7.105427e-015  1.480000e+002
    endloop
  endfacet
  facet normal  -0.000000e+000  1.000000e+000  3.487326e-016
    outer loop
      vertex  5.000000e+001  4.973799e-014 -1.500000e+001
      vertex  4.800000e+001 -7.105427e-015  1.480000e+002
      vertex  5.000000e+001 -7.105427e-015  1.480000e+002
    endloop
  endfacet
  facet normal -1.000000e+000  0.000000e+000  0.000000e+000
    outer loop
      vertex  5.000000e+001  4.973799e-014 -1.500000e+001
      vertex  5.000000e+001 -7.105427e-015  1.480000e+002
      vertex  5.000000e+001  1.400000e+001  1.480000e+002
    endloop
  endfacet
  facet normal -1.000000e+000  0.000000e+000  -0.000000e+000
    outer loop
      vertex  5.000000e+001  4.973799e-014 -1.500000e+001
      vertex  5.000000e+001  1.400000e+001  1.480000e+002
      vertex  5.000000e+001  1.400000e+001  1.400000e+002
    endloop
  endfacet
  facet normal -1.000000e+000  0.000000e+000  -0.000000e+000
    outer loop
      vertex  5.000000e+001  4.973799e-014 -1.500000e+001
      vertex  5.000000e+001  1.400000e+001  1.400000e+002
      vertex  5.000000e+001  1.500000e+001  1.400000e+002
    endloop
  endfacet
  facet normal -1.000000e+000  0.000000e+000  -0.000000e+000
    outer loop
      vertex  5.000000e+001  4.973799e-014 -1.500000e+001
      vertex  5.000000e+001  1.500000e+001  1.400000e+002
      vertex  5.000000e+001  1.500000e+001 -1.500000e+001
    endloop
  endfacet
  facet normal  1.000000e+000  0.000000e+000  -0.000000e+000
    outer loop
      vertex -5.000000e+001 -1.776357e-015  1.480000e+002
      vertex -5.000000e+001  0.000000e+000 -1.500000e+001
      vertex -5.000000e+001  1.400000e+001  1.480000e+002
    endloop
  endfacet
  facet normal  1.000000e+000  0.000000e+000  0.000000e+000
    outer loop
      vertex -5.000000e+001  1.400000e+001  1.480000e+002
      vertex -5.000000e+001  0.000000e+000 -1.500000e+001
      vertex -5.000000e+001  1.400000e+001  1.400000e+002
    endloop
  endfacet
  facet normal  1.000000e+000  0.000000e+000  0.000000e+000
    outer loop
      vertex -5.000000e+001  0.000000e+000 -1.500000e+001
      vertex -5.000000e+001  1.500000e+001 -1.500000e+001
      vertex -5.000000e+001  1.400000e+001  1.400000e+002
    endloop
  endfacet
  facet normal  1.000000e+000  -0.000000e+000  0.000000e+000
    outer loop
      vertex -5.000000e+001  1.400000e+001  1.400000e+002
      vertex -5.000000e+001  1.500000e+001 -1.500000e+001
      vertex -5.000000e+001  1.500000e+001  1.400000e+002
    endloop
  endfacet
  facet normal  -0.000000e+000  1.000000e+000  1.332268e-015
    outer loop
      vertex -3.600000e+001  0.000000e+000  1.400000e+002
      vertex -4.800000e+001 -1.065814e-014  1.480000e+002
      vertex -3.600000e+001 -1.065814e-014  1.480000e+002
    endloop
  endfacet
  facet normal  4.440892e-015  1.000000e+000  1.089789e-017
    outer loop
      vertex -5.000000e+001 -1.776357e-015  1.480000e+002
      vertex -4.800000e+001 -1.065814e-014  1.480000e+002
      vertex -5.000000e+001  0.000000e+000 -1.500000e+001
    endloop
  endfacet
  facet normal -8.377342e-016  1.000000e+000  7.566631e-017
    outer loop
      vertex -5.000000e+001  0.000000e+000 -1.500000e+001
      vertex -4.800000e+001 -1.065814e-014  1.480000e+002
      vertex -3.600000e+001  0.000000e+000  1.400000e+002
    endloop
  endfacet
  facet normal  0.000000e+000  1.000000e+000  0.000000e+000
    outer loop
      vertex -5.000000e+001  0.000000e+000 -1.500000e+001
      vertex -3.600000e+001  0.000000e+000  1.400000e+002
      vertex -3.500000e+001  0.000000e+000 -1.500000e+001
    endloop
  endfacet
  facet normal  0.000000e+000  1.000000e+000  -0.000000e+000
    outer loop
      vertex -3.500000e+001  0.000000e+000 -1.500000e+001
      vertex -3.600000e+001  0.000000e+000  1.400000e+002
      vertex -3.500000e+001  0.000000e+000  1.400000e+002
    endloop
  endfacet
  facet normal  1.000000e+000  0.000000e+000  0.000000e+000
    outer loop
      vertex  3.600000e+001  1.400000e+001  1.400000e+002
      vertex  3.600000e+001  1.400000e+001  1.480000e+002
      vertex  3.600000e+001  1.330678e+001  1.449628e+002
    endloop
  endfacet
  facet normal  1.000000e+000  0.000000e+000  0.000000e+000
    outer loop
      vertex  3.600000e+001  1.400000e+001  1.400000e+002
      vertex  3.600000e+001  1.330678e+001  1.449628e+002
      vertex  3.600000e+001  1.136443e+001  1.425272e+002
    endloop
  endfacet
  facet normal  1.000000e+000  0.000000e+000  0.000000e+000
    outer loop
      vertex  3.600000e+001  1.400000e+001  1.400000e+002
      vertex  3.600000e+001  1.136443e+001  1.425272e+002
      vertex  3.600000e+001  8.557647e+000  1.411755e+002
    endloop
  endfacet
  facet normal  1.000000e+000  0.000000e+000  0.000000e+000
    outer loop
      vertex  3.600000e+001  1.400000e+001  1.400000e+002
      vertex  3.600000e+001  8.557647e+000  1.411755e+002
      vertex  3.600000e+001  5.442353e+000  1.411755e+002
    endloop
  endfacet
  facet normal  1.000000e+000  0.000000e+000  0.000000e+000
    outer loop
      vertex  3.600000e+001  0.000000e+000  1.400000e+002
      vertex  3.600000e+001  1.400000e+001  1.400000e+002
      vertex  3.600000e+001  5.442353e+000  1.411755e+002
    endloop
  endfacet
  facet normal  1.000000e+000  0.000000e+000  0.000000e+000
    outer loop
      vertex  3.600000e+001  0.000000e+000  1.400000e+002
      vertex  3.600000e+001  5.442353e+000  1.411755e+002
      vertex  3.600000e+001  2.635571e+000  1.425272e+002
    endloop
  endfacet
  facet normal  1.000000e+000  0.000000e+000  0.000000e+000
    outer loop
      vertex  3.600000e+001  0.000000e+000  1.400000e+002
      vertex  3.600000e+001  2.635571e+000  1.425272e+002
      vertex  3.600000e+001  6.932179e-001  1.449628e+002
    endloop
  endfacet
  facet normal  1.000000e+000  0.000000e+000  0.000000e+000
    outer loop
      vertex  3.600000e+001  0.000000e+000  1.400000e+002
      vertex  3.600000e+001  6.932179e-001  1.449628e+002
      vertex  3.600000e+001 -1.421085e-014  1.480000e+002
    endloop
  endfacet
  facet normal  0.000000e+000 -1.000000e+000  0.000000e+000
    outer loop
      vertex  5.000000e+001  1.400000e+001  1.480000e+002
      vertex  4.800000e+001  1.400000e+001  1.480000e+002
      vertex  5.000000e+001  1.400000e+001  1.400000e+002
    endloop
  endfacet
  facet normal  0.000000e+000 -1.000000e+000  0.000000e+000
    outer loop
      vertex  5.000000e+001  1.400000e+001  1.400000e+002
      vertex  4.800000e+001  1.400000e+001  1.480000e+002
      vertex  3.600000e+001  1.400000e+001  1.480000e+002
    endloop
  endfacet
  facet normal  0.000000e+000 -1.000000e+000  0.000000e+000
    outer loop
      vertex  5.000000e+001  1.400000e+001  1.400000e+002
      vertex  3.600000e+001  1.400000e+001  1.480000e+002
      vertex  3.600000e+001  1.400000e+001  1.400000e+002
    endloop
  endfacet
  facet normal  0.000000e+000  0.000000e+000 -1.000000e+000
    outer loop
      vertex  4.800000e+001 -7.105427e-015  1.480000e+002
      vertex  4.800000e+001  7.000000e+000  1.480000e+002
      vertex  5.000000e+001 -7.105427e-015  1.480000e+002
    endloop
  endfacet
  facet normal  0.000000e+000  0.000000e+000 -1.000000e+000
    outer loop
      vertex  5.000000e+001 -7.105427e-015  1.480000e+002
      vertex  4.800000e+001  7.000000e+000  1.480000e+002
      vertex  4.800000e+001  1.400000e+001  1.480000e+002
    endloop
  endfacet
  facet normal  0.000000e+000  0.000000e+000 -1.000000e+000
    outer loop
      vertex  5.000000e+001 -7.105427e-015  1.480000e+002
      vertex  4.800000e+001  1.400000e+001  1.480000e+002
      vertex  5.000000e+001  1.400000e+001  1.480000e+002
    endloop
  endfacet
  facet normal -1.000000e+000  0.000000e+000  0.000000e+000
    outer loop
      vertex -3.600000e+001  1.400000e+001  1.400000e+002
      vertex -3.600000e+001  5.442353e+000  1.411755e+002
      vertex -3.600000e+001  8.557647e+000  1.411755e+002
    endloop
  endfacet
  facet normal -1.000000e+000  0.000000e+000  0.000000e+000
    outer loop
      vertex -3.600000e+001  1.400000e+001  1.400000e+002
      vertex -3.600000e+001  8.557647e+000  1.411755e+002
      vertex -3.600000e+001  1.136443e+001  1.425272e+002
    endloop
  endfacet
  facet normal -1.000000e+000  0.000000e+000  0.000000e+000
    outer loop
      vertex -3.600000e+001  1.400000e+001  1.400000e+002
      vertex -3.600000e+001  1.136443e+001  1.425272e+002
      vertex -3.600000e+001  1.330678e+001  1.449628e+002
    endloop
  endfacet
  facet normal -1.000000e+000  0.000000e+000  0.000000e+000
    outer loop
      vertex -3.600000e+001  1.400000e+001  1.400000e+002
      vertex -3.600000e+001  1.330678e+001  1.449628e+002
      vertex -3.600000e+001  1.400000e+001  1.480000e+002
    endloop
  endfacet
  facet normal -1.000000e+000  0.000000e+000  0.000000e+000
    outer loop
      vertex -3.600000e+001  0.000000e+000  1.400000e+002
      vertex -3.600000e+001 -1.065814e-014  1.480000e+002
      vertex -3.600000e+001  6.932179e-001  1.449628e+002
    endloop
  endfacet
  facet normal -1.000000e+000  0.000000e+000  -0.000000e+000
    outer loop
      vertex -3.600000e+001  0.000000e+000  1.400000e+002
      vertex -3.600000e+001  6.932179e-001  1.449628e+002
      vertex -3.600000e+001  2.635571e+000  1.425272e+002
    endloop
  endfacet
  facet normal -1.000000e+000  0.000000e+000  -0.000000e+000
    outer loop
      vertex -3.600000e+001  0.000000e+000  1.400000e+002
      vertex -3.600000e+001  2.635571e+000  1.425272e+002
      vertex -3.600000e+001  5.442353e+000  1.411755e+002
    endloop
  endfacet
  facet normal -1.000000e+000  0.000000e+000  -0.000000e+000
    outer loop
      vertex -3.600000e+001  0.000000e+000  1.400000e+002
      vertex -3.600000e+001  5.442353e+000  1.411755e+002
      vertex -3.600000e+001  1.400000e+001  1.400000e+002
    endloop
  endfacet
  facet normal  0.000000e+000 -1.000000e+000  0.000000e+000
    outer loop
      vertex -3.600000e+001  1.400000e+001  1.480000e+002
      vertex -4.800000e+001  1.400000e+001  1.480000e+002
      vertex -3.600000e+001  1.400000e+001  1.400000e+002
    endloop
  endfacet
  facet normal  0.000000e+000 -1.000000e+000  0.000000e+000
    outer loop
      vertex -3.600000e+001  1.400000e+001  1.400000e+002
      vertex -4.800000e+001  1.400000e+001  1.480000e+002
      vertex -5.000000e+001  1.400000e+001  1.480000e+002
    endloop
  endfacet
  facet normal  0.000000e+000 -1.000000e+000  0.000000e+000
    outer loop
      vertex -3.600000e+001  1.400000e+001  1.400000e+002
      vertex -5.000000e+001  1.400000e+001  1.480000e+002
      vertex -5.000000e+001  1.400000e+001  1.400000e+002
    endloop
  endfacet
  facet normal  0.000000e+000  0.000000e+000 -1.000000e+000
    outer loop
      vertex -4.800000e+001 -1.065814e-014  1.480000e+002
      vertex -5.000000e+001 -1.776357e-015  1.480000e+002
      vertex -4.800000e+001  7.000000e+000  1.480000e+002
    endloop
  endfacet
  facet normal  -0.000000e+000  0.000000e+000 -1.000000e+000
    outer loop
      vertex -4.800000e+001  7.000000e+000  1.480000e+002
      vertex -5.000000e+001 -1.776357e-015  1.480000e+002
      vertex -5.000000e+001  1.400000e+001  1.480000e+002
    endloop
  endfacet
  facet normal  0.000000e+000  0.000000e+000 -1.000000e+000
    outer loop
      vertex -4.800000e+001  7.000000e+000  1.480000e+002
      vertex -5.000000e+001  1.400000e+001  1.480000e+002
      vertex -4.800000e+001  1.400000e+001  1.480000e+002
    endloop
  endfacet
  facet normal  0.000000e+000 -4.338823e-001  9.009695e-001
    outer loop
      vertex -3.600000e+001  8.557647e+000  1.411755e+002
      vertex  3.600000e+001  1.136443e+001  1.425272e+002
      vertex -3.600000e+001  1.136443e+001  1.425272e+002
    endloop
  endfacet
  facet normal  0.000000e+000 -7.818320e-001  6.234890e-001
    outer loop
      vertex -3.600000e+001  1.136443e+001  1.425272e+002
      vertex  3.600000e+001  1.136443e+001  1.425272e+002
      vertex  3.600000e+001  1.330678e+001  1.449628e+002
    endloop
  endfacet
  facet normal  0.000000e+000 -7.818320e-001  6.234890e-001
    outer loop
      vertex -3.600000e+001  1.136443e+001  1.425272e+002
      vertex  3.600000e+001  1.330678e+001  1.449628e+002
      vertex -3.600000e+001  1.330678e+001  1.449628e+002
    endloop
  endfacet
  facet normal  0.000000e+000 -9.749278e-001  2.225211e-001
    outer loop
      vertex -3.600000e+001  1.330678e+001  1.449628e+002
      vertex  3.600000e+001  1.330678e+001  1.449628e+002
      vertex  3.600000e+001  1.400000e+001  1.480000e+002
    endloop
  endfacet
  facet normal  0.000000e+000 -9.749278e-001  2.225211e-001
    outer loop
      vertex -3.600000e+001  1.330678e+001  1.449628e+002
      vertex  3.600000e+001  1.400000e+001  1.480000e+002
      vertex -3.600000e+001  1.400000e+001  1.480000e+002
    endloop
  endfacet
  facet normal  0.000000e+000 -4.338823e-001  9.009695e-001
    outer loop
      vertex  3.600000e+001  1.136443e+001  1.425272e+002
      vertex -3.600000e+001  8.557647e+000  1.411755e+002
      vertex  3.600000e+001  8.557647e+000  1.411755e+002
    endloop
  endfacet
  facet normal  0.000000e+000  0.000000e+000  1.000000e+000
    outer loop
      vertex  3.600000e+001  8.557647e+000  1.411755e+002
      vertex -3.600000e+001  8.557647e+000  1.411755e+002
      vertex -3.600000e+001  5.442353e+000  1.411755e+002
    endloop
  endfacet
  facet normal  0.000000e+000  0.000000e+000  1.000000e+000
    outer loop
      vertex  3.600000e+001  8.557647e+000  1.411755e+002
      vertex -3.600000e+001  5.442353e+000  1.411755e+002
      vertex  3.600000e+001  5.442353e+000  1.411755e+002
    endloop
  endfacet
  facet normal  0.000000e+000  4.338823e-001  9.009695e-001
    outer loop
      vertex  3.600000e+001  5.442353e+000  1.411755e+002
      vertex -3.600000e+001  5.442353e+000  1.411755e+002
      vertex -3.600000e+001  2.635571e+000  1.425272e+002
    endloop
  endfacet
  facet normal  -0.000000e+000  4.338823e-001  9.009695e-001
    outer loop
      vertex  3.600000e+001  5.442353e+000  1.411755e+002
      vertex -3.600000e+001  2.635571e+000  1.425272e+002
      vertex  3.600000e+001  2.635571e+000  1.425272e+002
    endloop
  endfacet
  facet normal  0.000000e+000  7.818320e-001  6.234892e-001
    outer loop
      vertex  3.600000e+001  2.635571e+000  1.425272e+002
      vertex -3.600000e+001  2.635571e+000  1.425272e+002
      vertex -3.600000e+001  6.932179e-001  1.449628e+002
    endloop
  endfacet
  facet normal  -0.000000e+000  7.818320e-001  6.234892e-001
    outer loop
      vertex  3.600000e+001  2.635571e+000  1.425272e+002
      vertex -3.600000e+001  6.932179e-001  1.449628e+002
      vertex  3.600000e+001  6.932179e-001  1.449628e+002
    endloop
  endfacet
  facet normal  0.000000e+000  9.749278e-001  2.225209e-001
    outer loop
      vertex  3.600000e+001  6.932179e-001  1.449628e+002
      vertex -3.600000e+001  6.932179e-001  1.449628e+002
      vertex -3.600000e+001 -1.065814e-014  1.480000e+002
    endloop
  endfacet
  facet normal  4.810610e-017  9.749278e-001  2.225209e-001
    outer loop
      vertex  3.600000e+001  6.932179e-001  1.449628e+002
      vertex -3.600000e+001 -1.065814e-014  1.480000e+002
      vertex  3.600000e+001 -1.421085e-014  1.480000e+002
    endloop
  endfacet
  facet normal -1.000000e+000  0.000000e+000  -0.000000e+000
    outer loop
      vertex  4.800000e+001  7.000000e+000  1.480000e+002
      vertex  4.800000e+001  1.330678e+001  1.510372e+002
      vertex  4.800000e+001  1.400000e+001  1.480000e+002
    endloop
  endfacet
  facet normal -1.000000e+000  0.000000e+000  0.000000e+000
    outer loop
      vertex  4.800000e+001  1.136443e+001  1.534728e+002
      vertex  4.800000e+001  5.442353e+000  1.548245e+002
      vertex  4.800000e+001  8.557647e+000  1.548245e+002
    endloop
  endfacet
  facet normal -1.000000e+000  0.000000e+000  0.000000e+000
    outer loop
      vertex  4.800000e+001  5.442353e+000  1.548245e+002
      vertex  4.800000e+001  1.136443e+001  1.534728e+002
      vertex  4.800000e+001  2.635571e+000  1.534728e+002
    endloop
  endfacet
  facet normal -1.000000e+000  0.000000e+000  0.000000e+000
    outer loop
      vertex  4.800000e+001  2.635571e+000  1.534728e+002
      vertex  4.800000e+001  1.136443e+001  1.534728e+002
      vertex  4.800000e+001  1.330678e+001  1.510372e+002
    endloop
  endfacet
  facet normal -1.000000e+000  0.000000e+000  0.000000e+000
    outer loop
      vertex  4.800000e+001  2.635571e+000  1.534728e+002
      vertex  4.800000e+001  1.330678e+001  1.510372e+002
      vertex  4.800000e+001  6.932179e-001  1.510372e+002
    endloop
  endfacet
  facet normal -9.999999e-001  0.000000e+000  0.000000e+000
    outer loop
      vertex  4.800000e+001  6.932179e-001  1.510372e+002
      vertex  4.800000e+001  1.330678e+001  1.510372e+002
      vertex  4.800000e+001  7.000000e+000  1.480000e+002
    endloop
  endfacet
  facet normal -1.000000e+000  0.000000e+000  0.000000e+000
    outer loop
      vertex  4.800000e+001  6.932179e-001  1.510372e+002
      vertex  4.800000e+001  7.000000e+000  1.480000e+002
      vertex  4.800000e+001 -7.105427e-015  1.480000e+002
    endloop
  endfacet
  facet normal  1.000000e+000  0.000000e+000  0.000000e+000
    outer loop
      vertex -4.800000e+001  1.400000e+001  1.480000e+002
      vertex -4.800000e+001  1.330678e+001  1.510372e+002
      vertex -4.800000e+001  7.000000e+000  1.480000e+002
    endloop
  endfacet
  facet normal  1.000000e+000  -0.000000e+000  0.000000e+000
    outer loop
      vertex -4.800000e+001  8.557647e+000  1.548245e+002
      vertex -4.800000e+001  5.442353e+000  1.548245e+002
      vertex -4.800000e+001  1.136443e+001  1.534728e+002
    endloop
  endfacet
  facet normal  1.000000e+000  0.000000e+000  0.000000e+000
    outer loop
      vertex -4.800000e+001  1.136443e+001  1.534728e+002
      vertex -4.800000e+001  5.442353e+000  1.548245e+002
      vertex -4.800000e+001  2.635571e+000  1.534728e+002
    endloop
  endfacet
  facet normal  1.000000e+000  -0.000000e+000  0.000000e+000
    outer loop
      vertex -4.800000e+001  1.136443e+001  1.534728e+002
      vertex -4.800000e+001  2.635571e+000  1.534728e+002
      vertex -4.800000e+001  1.330678e+001  1.510372e+002
    endloop
  endfacet
  facet normal  1.000000e+000  0.000000e+000  0.000000e+000
    outer loop
      vertex -4.800000e+001  1.330678e+001  1.510372e+002
      vertex -4.800000e+001  2.635571e+000  1.534728e+002
      vertex -4.800000e+001  6.932179e-001  1.510372e+002
    endloop
  endfacet
  facet normal  9.999999e-001  -0.000000e+000  0.000000e+000
    outer loop
      vertex -4.800000e+001  1.330678e+001  1.510372e+002
      vertex -4.800000e+001  6.932179e-001  1.510372e+002
      vertex -4.800000e+001  7.000000e+000  1.480000e+002
    endloop
  endfacet
  facet normal  1.000000e+000  0.000000e+000  0.000000e+000
    outer loop
      vertex -4.800000e+001  7.000000e+000  1.480000e+002
      vertex -4.800000e+001  6.932179e-001  1.510372e+002
      vertex -4.800000e+001 -1.065814e-014  1.480000e+002
    endloop
  endfacet
  facet normal  -0.000000e+000  0.000000e+000 -1.000000e+000
    outer loop
      vertex -5.000000e+001  1.500000e+001  1.400000e+002
      vertex -3.500000e+001  1.500000e+001  1.400000e+002
      vertex -5.000000e+001  1.400000e+001  1.400000e+002
    endloop
  endfacet
  facet normal  0.000000e+000  0.000000e+000 -1.000000e+000
    outer loop
      vertex -5.000000e+001  1.400000e+001  1.400000e+002
      vertex -3.500000e+001  1.500000e+001  1.400000e+002
      vertex -3.600000e+001  1.400000e+001  1.400000e+002
    endloop
  endfacet
  facet normal  0.000000e+000  0.000000e+000 -1.000000e+000
    outer loop
      vertex -3.500000e+001  1.500000e+001  1.400000e+002
      vertex -3.500000e+001  0.000000e+000  1.400000e+002
      vertex -3.600000e+001  1.400000e+001  1.400000e+002
    endloop
  endfacet
  facet normal  0.000000e+000  0.000000e+000 -1.000000e+000
    outer loop
      vertex -3.600000e+001  1.400000e+001  1.400000e+002
      vertex -3.500000e+001  0.000000e+000  1.400000e+002
      vertex -3.600000e+001  0.000000e+000  1.400000e+002
    endloop
  endfacet
  facet normal  0.000000e+000  0.000000e+000 -1.000000e+000
    outer loop
      vertex  3.500000e+001 -2.131628e-014  1.400000e+002
      vertex  3.500000e+001  1.500000e+001  1.400000e+002
      vertex  3.600000e+001  0.000000e+000  1.400000e+002
    endloop
  endfacet
  facet normal  0.000000e+000  0.000000e+000 -1.000000e+000
    outer loop
      vertex  3.600000e+001  0.000000e+000  1.400000e+002
      vertex  3.500000e+001  1.500000e+001  1.400000e+002
      vertex  3.600000e+001  1.400000e+001  1.400000e+002
    endloop
  endfacet
  facet normal  -0.000000e+000  0.000000e+000 -1.000000e+000
    outer loop
      vertex  3.500000e+001  1.500000e+001  1.400000e+002
      vertex  5.000000e+001  1.500000e+001  1.400000e+002
      vertex  3.600000e+001  1.400000e+001  1.400000e+002
    endloop
  endfacet
  facet normal  0.000000e+000  0.000000e+000 -1.000000e+000
    outer loop
      vertex  3.600000e+001  1.400000e+001  1.400000e+002
      vertex  5.000000e+001  1.500000e+001  1.400000e+002
      vertex  5.000000e+001  1.400000e+001  1.400000e+002
    endloop
  endfacet
  facet normal -5.772733e-016  9.749279e-001 -2.225210e-001
    outer loop
      vertex  4.800000e+001  6.932179e-001  1.510372e+002
      vertex  4.800000e+001 -7.105427e-015  1.480000e+002
      vertex  3.600000e+001 -1.421085e-014  1.480000e+002
    endloop
  endfacet
  facet normal  4.810610e-017  9.749278e-001 -2.225209e-001
    outer loop
      vertex  4.800000e+001  6.932179e-001  1.510372e+002
      vertex  3.600000e+001 -1.421085e-014  1.480000e+002
      vertex -3.600000e+001 -1.065814e-014  1.480000e+002
    endloop
  endfacet
  facet normal  0.000000e+000  9.749279e-001 -2.225210e-001
    outer loop
      vertex  4.800000e+001  6.932179e-001  1.510372e+002
      vertex -3.600000e+001 -1.065814e-014  1.480000e+002
      vertex -4.800000e+001 -1.065814e-014  1.480000e+002
    endloop
  endfacet
  facet normal  0.000000e+000  9.749279e-001 -2.225210e-001
    outer loop
      vertex  4.800000e+001  6.932179e-001  1.510372e+002
      vertex -4.800000e+001 -1.065814e-014  1.480000e+002
      vertex -4.800000e+001  6.932179e-001  1.510372e+002
    endloop
  endfacet
  facet normal  0.000000e+000 -9.749279e-001 -2.225211e-001
    outer loop
      vertex -4.800000e+001  1.330678e+001  1.510372e+002
      vertex -4.800000e+001  1.400000e+001  1.480000e+002
      vertex -3.600000e+001  1.400000e+001  1.480000e+002
    endloop
  endfacet
  facet normal  0.000000e+000 -9.749278e-001 -2.225211e-001
    outer loop
      vertex -4.800000e+001  1.330678e+001  1.510372e+002
      vertex -3.600000e+001  1.400000e+001  1.480000e+002
      vertex  3.600000e+001  1.400000e+001  1.480000e+002
    endloop
  endfacet
  facet normal  0.000000e+000 -9.749279e-001 -2.225211e-001
    outer loop
      vertex -4.800000e+001  1.330678e+001  1.510372e+002
      vertex  3.600000e+001  1.400000e+001  1.480000e+002
      vertex  4.800000e+001  1.400000e+001  1.480000e+002
    endloop
  endfacet
  facet normal  0.000000e+000 -9.749279e-001 -2.225211e-001
    outer loop
      vertex -4.800000e+001  1.330678e+001  1.510372e+002
      vertex  4.800000e+001  1.400000e+001  1.480000e+002
      vertex  4.800000e+001  1.330678e+001  1.510372e+002
    endloop
  endfacet
  facet normal  0.000000e+000  4.338823e-001 -9.009696e-001
    outer loop
      vertex -4.800000e+001  5.442353e+000  1.548245e+002
      vertex  4.800000e+001  2.635571e+000  1.534728e+002
      vertex -4.800000e+001  2.635571e+000  1.534728e+002
    endloop
  endfacet
  facet normal  0.000000e+000  7.818320e-001 -6.234891e-001
    outer loop
      vertex -4.800000e+001  2.635571e+000  1.534728e+002
      vertex  4.800000e+001  2.635571e+000  1.534728e+002
      vertex  4.800000e+001  6.932179e-001  1.510372e+002
    endloop
  endfacet
  facet normal  0.000000e+000  7.818320e-001 -6.234891e-001
    outer loop
      vertex -4.800000e+001  2.635571e+000  1.534728e+002
      vertex  4.800000e+001  6.932179e-001  1.510372e+002
      vertex -4.800000e+001  6.932179e-001  1.510372e+002
    endloop
  endfacet
  facet normal  0.000000e+000  4.338823e-001 -9.009696e-001
    outer loop
      vertex  4.800000e+001  2.635571e+000  1.534728e+002
      vertex -4.800000e+001  5.442353e+000  1.548245e+002
      vertex  4.800000e+001  5.442353e+000  1.548245e+002
    endloop
  endfacet
  facet normal  0.000000e+000  0.000000e+000 -1.000000e+000
    outer loop
      vertex  4.800000e+001  5.442353e+000  1.548245e+002
      vertex -4.800000e+001  5.442353e+000  1.548245e+002
      vertex -4.800000e+001  8.557647e+000  1.548245e+002
    endloop
  endfacet
  facet normal  0.000000e+000  0.000000e+000 -1.000000e+000
    outer loop
      vertex  4.800000e+001  5.442353e+000  1.548245e+002
      vertex -4.800000e+001  8.557647e+000  1.548245e+002
      vertex  4.800000e+001  8.557647e+000  1.548245e+002
    endloop
  endfacet
  facet normal  -0.000000e+000 -4.338823e-001 -9.009696e-001
    outer loop
      vertex  4.800000e+001  8.557647e+000  1.548245e+002
      vertex -4.800000e+001  8.557647e+000  1.548245e+002
      vertex -4.800000e+001  1.136443e+001  1.534728e+002
    endloop
  endfacet
  facet normal  0.000000e+000 -4.338823e-001 -9.009696e-001
    outer loop
      vertex  4.800000e+001  8.557647e+000  1.548245e+002
      vertex -4.800000e+001  1.136443e+001  1.534728e+002
      vertex  4.800000e+001  1.136443e+001  1.534728e+002
    endloop
  endfacet
  facet normal  -0.000000e+000 -7.818320e-001 -6.234891e-001
    outer loop
      vertex  4.800000e+001  1.136443e+001  1.534728e+002
      vertex -4.800000e+001  1.136443e+001  1.534728e+002
      vertex -4.800000e+001  1.330678e+001  1.510372e+002
    endloop
  endfacet
  facet normal  0.000000e+000 -7.818320e-001 -6.234891e-001
    outer loop
      vertex  4.800000e+001  1.136443e+001  1.534728e+002
      vertex -4.800000e+001  1.330678e+001  1.510372e+002
      vertex  4.800000e+001  1.330678e+001  1.510372e+002
    endloop
  endfacet
  facet normal  -0.000000e+000  0.000000e+000 -1.000000e+000
    outer loop
      vertex  3.400000e+001  1.600000e+001 -1.500000e+001
      vertex  3.500000e+001 -2.131628e-014 -1.500000e+001
      vertex  3.400000e+001 -1.000000e+000 -1.500000e+001
    endloop
  endfacet
  facet normal  0.000000e+000  0.000000e+000 -1.000000e+000
    outer loop
      vertex  3.400000e+001 -1.000000e+000 -1.500000e+001
      vertex  3.500000e+001 -2.131628e-014 -1.500000e+001
      vertex  5.000000e+001  4.973799e-014 -1.500000e+001
    endloop
  endfacet
  facet normal  0.000000e+000  -0.000000e+000 -1.000000e+000
    outer loop
      vertex  3.400000e+001 -1.000000e+000 -1.500000e+001
      vertex  5.000000e+001  4.973799e-014 -1.500000e+001
      vertex  5.100000e+001 -1.000000e+000 -1.500000e+001
    endloop
  endfacet
  facet normal  0.000000e+000  0.000000e+000 -1.000000e+000
    outer loop
      vertex  3.500000e+001 -2.131628e-014 -1.500000e+001
      vertex  3.400000e+001  1.600000e+001 -1.500000e+001
      vertex  3.500000e+001  1.500000e+001 -1.500000e+001
    endloop
  endfacet
  facet normal  0.000000e+000  0.000000e+000 -1.000000e+000
    outer loop
      vertex  3.500000e+001  1.500000e+001 -1.500000e+001
      vertex  3.400000e+001  1.600000e+001 -1.500000e+001
      vertex  5.100000e+001  1.600000e+001 -1.500000e+001
    endloop
  endfacet
  facet normal  0.000000e+000  0.000000e+000 -1.000000e+000
    outer loop
      vertex  3.500000e+001  1.500000e+001 -1.500000e+001
      vertex  5.100000e+001  1.600000e+001 -1.500000e+001
      vertex  5.000000e+001  1.500000e+001 -1.500000e+001
    endloop
  endfacet
  facet normal  0.000000e+000  0.000000e+000 -1.000000e+000
    outer loop
      vertex  5.000000e+001  1.500000e+001 -1.500000e+001
      vertex  5.100000e+001  1.600000e+001 -1.500000e+001
      vertex  5.100000e+001 -1.000000e+000 -1.500000e+001
    endloop
  endfacet
  facet normal  0.000000e+000  0.000000e+000 -1.000000e+000
    outer loop
      vertex  5.000000e+001  1.500000e+001 -1.500000e+001
      vertex  5.100000e+001 -1.000000e+000 -1.500000e+001
      vertex  5.000000e+001  4.973799e-014 -1.500000e+001
    endloop
  endfacet
  facet normal  -0.000000e+000  0.000000e+000 -1.000000e+000
    outer loop
      vertex -5.100000e+001  1.600000e+001 -1.500000e+001
      vertex -5.000000e+001  0.000000e+000 -1.500000e+001
      vertex -5.100000e+001 -1.000000e+000 -1.500000e+001
    endloop
  endfacet
  facet normal  0.000000e+000  0.000000e+000 -1.000000e+000
    outer loop
      vertex -5.100000e+001 -1.000000e+000 -1.500000e+001
      vertex -5.000000e+001  0.000000e+000 -1.500000e+001
      vertex -3.500000e+001  0.000000e+000 -1.500000e+001
    endloop
  endfacet
  facet normal  0.000000e+000  -0.000000e+000 -1.000000e+000
    outer loop
      vertex -5.100000e+001 -1.000000e+000 -1.500000e+001
      vertex -3.500000e+001  0.000000e+000 -1.500000e+001
      vertex -3.400000e+001 -1.000000e+000 -1.500000e+001
    endloop
  endfacet
  facet normal  0.000000e+000  0.000000e+000 -1.000000e+000
    outer loop
      vertex -5.000000e+001  0.000000e+000 -1.500000e+001
      vertex -5.100000e+001  1.600000e+001 -1.500000e+001
      vertex -5.000000e+001  1.500000e+001 -1.500000e+001
    endloop
  endfacet
  facet normal  0.000000e+000  0.000000e+000 -1.000000e+000
    outer loop
      vertex -5.000000e+001  1.500000e+001 -1.500000e+001
      vertex -5.100000e+001  1.600000e+001 -1.500000e+001
      vertex -3.400000e+001  1.600000e+001 -1.500000e+001
    endloop
  endfacet
  facet normal  0.000000e+000  0.000000e+000 -1.000000e+000
    outer loop
      vertex -5.000000e+001  1.500000e+001 -1.500000e+001
      vertex -3.400000e+001  1.600000e+001 -1.500000e+001
      vertex -3.500000e+001  1.500000e+001 -1.500000e+001
    endloop
  endfacet
  facet normal  0.000000e+000  0.000000e+000 -1.000000e+000
    outer loop
      vertex -3.500000e+001  1.500000e+001 -1.500000e+001
      vertex -3.400000e+001  1.600000e+001 -1.500000e+001
      vertex -3.400000e+001 -1.000000e+000 -1.500000e+001
    endloop
  endfacet
  facet normal  0.000000e+000  0.000000e+000 -1.000000e+000
    outer loop
      vertex -3.500000e+001  1.500000e+001 -1.500000e+001
      vertex -3.400000e+001 -1.000000e+000 -1.500000e+001
      vertex -3.500000e+001  0.000000e+000 -1.500000e+001
    endloop
  endfacet
  facet normal  0.000000e+000  0.000000e+000  9.999999e-001
    outer loop
      vertex -5.100000e+001 -1.000000e+000  1.560000e+002
      vertex  5.100000e+001 -1.000000e+000  1.560000e+002
      vertex -5.100000e+001  1.600000e+001  1.560000e+002
    endloop
  endfacet
  facet normal  -0.000000e+000  0.000000e+000  9.999999e-001
    outer loop
      vertex -5.100000e+001  1.600000e+001  1.560000e+002
      vertex  5.100000e+001 -1.000000e+000  1.560000e+002
      vertex  5.100000e+001  1.600000e+001  1.560000e+002
    endloop
  endfacet
  facet normal  0.000000e+000 -9.999999e-001  0.000000e+000
    outer loop
      vertex  5.100000e+001 -1.000000e+000  1.560000e+002
      vertex  3.400000e+001 -1.000000e+000 -1.500000e+001
      vertex  5.100000e+001 -1.000000e+000 -1.500000e+001
    endloop
  endfacet
  facet normal  0.000000e+000 -1.000000e+000  0.000000e+000
    outer loop
      vertex  3.400000e+001 -1.000000e+000 -1.500000e+001
      vertex  5.100000e+001 -1.000000e+000  1.560000e+002
      vertex  3.400000e+001 -1.000000e+000  1.400000e+002
    endloop
  endfacet
  facet normal  0.000000e+000 -1.000000e+000  0.000000e+000
    outer loop
      vertex  3.400000e+001 -1.000000e+000  1.400000e+002
      vertex  5.100000e+001 -1.000000e+000  1.560000e+002
      vertex -5.100000e+001 -1.000000e+000  1.560000e+002
    endloop
  endfacet
  facet normal  0.000000e+000 -1.000000e+000  0.000000e+000
    outer loop
      vertex  3.400000e+001 -1.000000e+000  1.400000e+002
      vertex -5.100000e+001 -1.000000e+000  1.560000e+002
      vertex -3.400000e+001 -1.000000e+000  1.400000e+002
    endloop
  endfacet
  facet normal  -0.000000e+000 -9.999999e-001  0.000000e+000
    outer loop
      vertex -3.400000e+001 -1.000000e+000  1.400000e+002
      vertex -5.100000e+001 -1.000000e+000  1.560000e+002
      vertex -5.100000e+001 -1.000000e+000 -1.500000e+001
    endloop
  endfacet
  facet normal  0.000000e+000 -1.000000e+000  0.000000e+000
    outer loop
      vertex -3.400000e+001 -1.000000e+000  1.400000e+002
      vertex -5.100000e+001 -1.000000e+000 -1.500000e+001
      vertex -3.400000e+001 -1.000000e+000 -1.500000e+001
    endloop
  endfacet
  facet normal -9.999999e-001  0.000000e+000  0.000000e+000
    outer loop
      vertex -5.100000e+001  1.600000e+001 -1.500000e+001
      vertex -5.100000e+001 -1.000000e+000 -1.500000e+001
      vertex -5.100000e+001  1.600000e+001  1.560000e+002
    endloop
  endfacet
  facet normal -9.999999e-001  -0.000000e+000  0.000000e+000
    outer loop
      vertex -5.100000e+001  1.600000e+001  1.560000e+002
      vertex -5.100000e+001 -1.000000e+000 -1.500000e+001
      vertex -5.100000e+001 -1.000000e+000  1.560000e+002
    endloop
  endfacet
  facet normal  9.999999e-001  0.000000e+000  0.000000e+000
    outer loop
      vertex  5.100000e+001  1.600000e+001 -1.500000e+001
      vertex  5.100000e+001  1.600000e+001  1.560000e+002
      vertex  5.100000e+001 -1.000000e+000 -1.500000e+001
    endloop
  endfacet
  facet normal  9.999999e-001  0.000000e+000  0.000000e+000
    outer loop
      vertex  5.100000e+001 -1.000000e+000 -1.500000e+001
      vertex  5.100000e+001  1.600000e+001  1.560000e+002
      vertex  5.100000e+001 -1.000000e+000  1.560000e+002
    endloop
  endfacet
  facet normal  0.000000e+000  1.000000e+000  0.000000e+000
    outer loop
      vertex  3.400000e+001  1.600000e+001  1.400000e+002
      vertex  5.100000e+001  1.600000e+001 -1.500000e+001
      vertex  3.400000e+001  1.600000e+001 -1.500000e+001
    endloop
  endfacet
  facet normal  -0.000000e+000  9.999999e-001  0.000000e+000
    outer loop
      vertex  5.100000e+001  1.600000e+001 -1.500000e+001
      vertex  3.400000e+001  1.600000e+001  1.400000e+002
      vertex  5.100000e+001  1.600000e+001  1.560000e+002
    endloop
  endfacet
  facet normal  0.000000e+000  1.000000e+000  0.000000e+000
    outer loop
      vertex  5.100000e+001  1.600000e+001  1.560000e+002
      vertex  3.400000e+001  1.600000e+001  1.400000e+002
      vertex -3.400000e+001  1.600000e+001  1.400000e+002
    endloop
  endfacet
  facet normal  0.000000e+000  1.000000e+000  -0.000000e+000
    outer loop
      vertex  5.100000e+001  1.600000e+001  1.560000e+002
      vertex -3.400000e+001  1.600000e+001  1.400000e+002
      vertex -5.100000e+001  1.600000e+001  1.560000e+002
    endloop
  endfacet
  facet normal  0.000000e+000  1.000000e+000  0.000000e+000
    outer loop
      vertex -5.100000e+001  1.600000e+001  1.560000e+002
      vertex -3.400000e+001  1.600000e+001  1.400000e+002
      vertex -3.400000e+001  1.600000e+001 -1.500000e+001
    endloop
  endfacet
  facet normal  0.000000e+000  9.999999e-001  0.000000e+000
    outer loop
      vertex -5.100000e+001  1.600000e+001  1.560000e+002
      vertex -3.400000e+001  1.600000e+001 -1.500000e+001
      vertex -5.100000e+001  1.600000e+001 -1.500000e+001
    endloop
  endfacet
  facet normal  0.000000e+000  0.000000e+000 -1.000000e+000
    outer loop
      vertex -3.400000e+001 -1.000000e+000  1.400000e+002
      vertex -3.400000e+001  1.600000e+001  1.400000e+002
      vertex  3.400000e+001 -1.000000e+000  1.400000e+002
    endloop
  endfacet
  facet normal  0.000000e+000  0.000000e+000 -1.000000e+000
    outer loop
      vertex  3.400000e+001 -1.000000e+000  1.400000e+002
      vertex -3.400000e+001  1.600000e+001  1.400000e+002
      vertex  3.400000e+001  1.600000e+001  1.400000e+002
    endloop
  endfacet
  facet normal  0.000000e+000 -1.000000e+000  0.000000e+000
    outer loop
      vertex  3.500000e+001  1.500000e+001 -1.500000e+001
      vertex  5.000000e+001  1.500000e+001 -1.500000e+001
      vertex  3.500000e+001  1.500000e+001  1.400000e+002
    endloop
  endfacet
  facet normal  0.000000e+000 -1.000000e+000  0.000000e+000
    outer loop
      vertex  3.500000e+001  1.500000e+001  1.400000e+002
      vertex  5.000000e+001  1.500000e+001 -1.500000e+001
      vertex  5.000000e+001  1.500000e+001  1.400000e+002
    endloop
  endfacet
  facet normal  1.000000e+000  0.000000e+000  0.000000e+000
    outer loop
      vertex  3.500000e+001  1.500000e+001 -1.500000e+001
      vertex  3.500000e+001  1.500000e+001  1.400000e+002
      vertex  3.500000e+001 -2.131628e-014 -1.500000e+001
    endloop
  endfacet
  facet normal  1.000000e+000  0.000000e+000  0.000000e+000
    outer loop
      vertex  3.500000e+001 -2.131628e-014 -1.500000e+001
      vertex  3.500000e+001  1.500000e+001  1.400000e+002
      vertex  3.500000e+001 -2.131628e-014  1.400000e+002
    endloop
  endfacet
  facet normal -1.000000e+000  -0.000000e+000  0.000000e+000
    outer loop
      vertex  3.400000e+001 -1.000000e+000  1.400000e+002
      vertex  3.400000e+001  1.000000e+000 -6.000000e+000
      vertex  3.400000e+001 -1.000000e+000 -1.500000e+001
    endloop
  endfacet
  facet normal -1.000000e+000  0.000000e+000  0.000000e+000
    outer loop
      vertex  3.400000e+001 -1.000000e+000 -1.500000e+001
      vertex  3.400000e+001  1.000000e+000 -6.000000e+000
      vertex  3.400000e+001  1.300000e+001 -6.000000e+000
    endloop
  endfacet
  facet normal -1.000000e+000  0.000000e+000  -0.000000e+000
    outer loop
      vertex  3.400000e+001 -1.000000e+000 -1.500000e+001
      vertex  3.400000e+001  1.300000e+001 -6.000000e+000
      vertex  3.400000e+001  1.600000e+001 -1.500000e+001
    endloop
  endfacet
  facet normal -1.000000e+000  0.000000e+000  0.000000e+000
    outer loop
      vertex  3.400000e+001  1.000000e+000 -6.000000e+000
      vertex  3.400000e+001 -1.000000e+000  1.400000e+002
      vertex  3.400000e+001  1.000000e+000  6.000000e+000
    endloop
  endfacet
  facet normal -1.000000e+000  0.000000e+000  0.000000e+000
    outer loop
      vertex  3.400000e+001  1.000000e+000  6.000000e+000
      vertex  3.400000e+001 -1.000000e+000  1.400000e+002
      vertex  3.400000e+001  1.600000e+001  1.400000e+002
    endloop
  endfacet
  facet normal -1.000000e+000  0.000000e+000  0.000000e+000
    outer loop
      vertex  3.400000e+001  1.000000e+000  6.000000e+000
      vertex  3.400000e+001  1.600000e+001  1.400000e+002
      vertex  3.400000e+001  1.300000e+001  6.000000e+000
    endloop
  endfacet
  facet normal -1.000000e+000  0.000000e+000  0.000000e+000
    outer loop
      vertex  3.400000e+001  1.300000e+001  6.000000e+000
      vertex  3.400000e+001  1.600000e+001  1.400000e+002
      vertex  3.400000e+001  1.600000e+001 -1.500000e+001
    endloop
  endfacet
  facet normal -1.000000e+000  0.000000e+000  0.000000e+000
    outer loop
      vertex  3.400000e+001  1.300000e+001  6.000000e+000
      vertex  3.400000e+001  1.600000e+001 -1.500000e+001
      vertex  3.400000e+001  1.300000e+001 -6.000000e+000
    endloop
  endfacet
  facet normal  0.000000e+000 -1.000000e+000  0.000000e+000
    outer loop
      vertex -5.000000e+001  1.500000e+001 -1.500000e+001
      vertex -3.500000e+001  1.500000e+001 -1.500000e+001
      vertex -5.000000e+001  1.500000e+001  1.400000e+002
    endloop
  endfacet
  facet normal  0.000000e+000 -1.000000e+000  0.000000e+000
    outer loop
      vertex -5.000000e+001  1.500000e+001  1.400000e+002
      vertex -3.500000e+001  1.500000e+001 -1.500000e+001
      vertex -3.500000e+001  1.500000e+001  1.400000e+002
    endloop
  endfacet
  facet normal -1.000000e+000  0.000000e+000  0.000000e+000
    outer loop
      vertex -3.500000e+001  0.000000e+000 -1.500000e+001
      vertex -3.500000e+001  0.000000e+000  1.400000e+002
      vertex -3.500000e+001  1.500000e+001 -1.500000e+001
    endloop
  endfacet
  facet normal -1.000000e+000  0.000000e+000  0.000000e+000
    outer loop
      vertex -3.500000e+001  1.500000e+001 -1.500000e+001
      vertex -3.500000e+001  0.000000e+000  1.400000e+002
      vertex -3.500000e+001  1.500000e+001  1.400000e+002
    endloop
  endfacet
  facet normal  1.000000e+000  0.000000e+000  0.000000e+000
    outer loop
      vertex -3.400000e+001  1.600000e+001 -1.500000e+001
      vertex -3.400000e+001  1.300000e+001 -6.000000e+000
      vertex -3.400000e+001 -1.000000e+000 -1.500000e+001
    endloop
  endfacet
  facet normal  1.000000e+000  0.000000e+000  0.000000e+000
    outer loop
      vertex -3.400000e+001 -1.000000e+000 -1.500000e+001
      vertex -3.400000e+001  1.300000e+001 -6.000000e+000
      vertex -3.400000e+001  1.000000e+000 -6.000000e+000
    endloop
  endfacet
  facet normal  1.000000e+000  0.000000e+000  0.000000e+000
    outer loop
      vertex -3.400000e+001 -1.000000e+000 -1.500000e+001
      vertex -3.400000e+001  1.000000e+000 -6.000000e+000
      vertex -3.400000e+001 -1.000000e+000  1.400000e+002
    endloop
  endfacet
  facet normal  1.000000e+000  0.000000e+000  0.000000e+000
    outer loop
      vertex -3.400000e+001 -1.000000e+000  1.400000e+002
      vertex -3.400000e+001  1.000000e+000 -6.000000e+000
      vertex -3.400000e+001  1.000000e+000  6.000000e+000
    endloop
  endfacet
  facet normal  1.000000e+000  0.000000e+000  -0.000000e+000
    outer loop
      vertex -3.400000e+001 -1.000000e+000  1.400000e+002
      vertex -3.400000e+001  1.000000e+000  6.000000e+000
      vertex -3.400000e+001  1.600000e+001  1.400000e+002
    endloop
  endfacet
  facet normal  1.000000e+000  0.000000e+000  0.000000e+000
    outer loop
      vertex -3.400000e+001  1.600000e+001  1.400000e+002
      vertex -3.400000e+001  1.000000e+000  6.000000e+000
      vertex -3.400000e+001  1.300000e+001  6.000000e+000
    endloop
  endfacet
  facet normal  1.000000e+000  -0.000000e+000  0.000000e+000
    outer loop
      vertex -3.400000e+001  1.600000e+001  1.400000e+002
      vertex -3.400000e+001  1.300000e+001  6.000000e+000
      vertex -3.400000e+001  1.600000e+001 -1.500000e+001
    endloop
  endfacet
  facet normal  1.000000e+000  0.000000e+000  0.000000e+000
    outer loop
      vertex -3.400000e+001  1.600000e+001 -1.500000e+001
      vertex -3.400000e+001  1.300000e+001  6.000000e+000
      vertex -3.400000e+001  1.300000e+001 -6.000000e+000
    endloop
  endfacet
  facet normal  0.000000e+000 -1.000000e+000  0.000000e+000
    outer loop
      vertex -3.400000e+001  1.000000e+000  6.000000e+000
      vertex -3.400000e+001  1.000000e+000 -6.000000e+000
      vertex  3.400000e+001  1.000000e+000  6.000000e+000
    endloop
  endfacet
  facet normal  0.000000e+000 -1.000000e+000  -0.000000e+000
    outer loop
      vertex  3.400000e+001  1.000000e+000  6.000000e+000
      vertex -3.400000e+001  1.000000e+000 -6.000000e+000
      vertex  3.400000e+001  1.000000e+000 -6.000000e+000
    endloop
  endfacet
  facet normal  -0.000000e+000  0.000000e+000 -1.000000e+000
    outer loop
      vertex -3.400000e+001  1.300000e+001 -6.000000e+000
      vertex  3.400000e+001  1.300000e+001 -6.000000e+000
      vertex -3.400000e+001  1.000000e+000 -6.000000e+000
    endloop
  endfacet
  facet normal  0.000000e+000  0.000000e+000 -1.000000e+000
    outer loop
      vertex -3.400000e+001  1.000000e+000 -6.000000e+000
      vertex  3.400000e+001  1.300000e+001 -6.000000e+000
      vertex  3.400000e+001  1.000000e+000 -6.000000e+000
    endloop
  endfacet
  facet normal  0.000000e+000  1.000000e+000  0.000000e+000
    outer loop
      vertex -3.400000e+001  1.300000e+001 -6.000000e+000
      vertex -3.400000e+001  1.300000e+001  6.000000e+000
      vertex  3.400000e+001  1.300000e+001 -6.000000e+000
    endloop
  endfacet
  facet normal  0.000000e+000  1.000000e+000  -0.000000e+000
    outer loop
      vertex  3.400000e+001  1.300000e+001 -6.000000e+000
      vertex -3.400000e+001  1.300000e+001  6.000000e+000
      vertex  3.400000e+001  1.300000e+001  6.000000e+000
    endloop
  endfacet
  facet normal  0.000000e+000  0.000000e+000  1.000000e+000
    outer loop
      vertex -3.400000e+001  1.000000e+000  6.000000e+000
      vertex  3.400000e+001  1.000000e+000  6.000000e+000
      vertex -3.400000e+001  1.300000e+001  6.000000e+000
    endloop
  endfacet
  facet normal  -0.000000e+000  0.000000e+000  1.000000e+000
    outer loop
      vertex -3.400000e+001  1.300000e+001  6.000000e+000
      vertex  3.400000e+001  1.000000e+000  6.000000e+000
      vertex  3.400000e+001  1.300000e+001  6.000000e+000
    endloop
  endfacet
endsolid CATIA STL
