solid CATIA STL
  facet normal  0.000000e+000  0.000000e+000  1.000000e+000
    outer loop
      vertex -1.320000e+001  1.400000e+001  3.000000e+000
      vertex -2.176529e+001  1.180422e+001  3.000000e+000
      vertex -1.280000e+001  1.400000e+001  3.000000e+000
    endloop
  endfacet
  facet normal  0.000000e+000  0.000000e+000  9.999999e-001
    outer loop
      vertex -2.000003e-001  1.400000e+001  3.000000e+000
      vertex -1.826346e+000  1.467365e+001  3.000000e+000
      vertex -1.050000e+001  1.630000e+001  3.000000e+000
    endloop
  endfacet
  facet normal  0.000000e+000  0.000000e+000  1.000000e+000
    outer loop
      vertex -2.000003e-001  1.400000e+001  3.000000e+000
      vertex -1.050000e+001  1.630000e+001  3.000000e+000
      vertex -1.117365e+001  1.467365e+001  3.000000e+000
    endloop
  endfacet
  facet normal  0.000000e+000  0.000000e+000  1.000000e+000
    outer loop
      vertex -2.000003e-001  1.400000e+001  3.000000e+000
      vertex -1.117365e+001  1.467365e+001  3.000000e+000
      vertex -1.280000e+001  1.400000e+001  3.000000e+000
    endloop
  endfacet
  facet normal  -0.000000e+000  0.000000e+000  1.000000e+000
    outer loop
      vertex -2.000003e-001  1.400000e+001  3.000000e+000
      vertex -1.280000e+001  1.400000e+001  3.000000e+000
      vertex -2.176529e+001  1.180422e+001  3.000000e+000
    endloop
  endfacet
  facet normal  0.000000e+000  0.000000e+000  1.000000e+000
    outer loop
      vertex -2.000003e-001  1.400000e+001  3.000000e+000
      vertex -2.176529e+001  1.180422e+001  3.000000e+000
      vertex  2.000000e-001  1.400000e+001  3.000000e+000
    endloop
  endfacet
  facet normal  0.000000e+000  0.000000e+000  1.000000e+000
    outer loop
      vertex -1.863295e+001  1.586705e+001  3.000000e+000
      vertex -2.176529e+001  1.180422e+001  3.000000e+000
      vertex -1.320000e+001  1.400000e+001  3.000000e+000
    endloop
  endfacet
  facet normal  0.000000e+000  0.000000e+000  1.000000e+000
    outer loop
      vertex -1.863295e+001  1.586705e+001  3.000000e+000
      vertex -1.320000e+001  1.400000e+001  3.000000e+000
      vertex -1.482635e+001  1.467365e+001  3.000000e+000
    endloop
  endfacet
  facet normal  0.000000e+000  0.000000e+000  1.000000e+000
    outer loop
      vertex -1.863295e+001  1.586705e+001  3.000000e+000
      vertex -1.482635e+001  1.467365e+001  3.000000e+000
      vertex -1.550000e+001  1.630000e+001  3.000000e+000
    endloop
  endfacet
  facet normal  0.000000e+000  -0.000000e+000  1.000000e+000
    outer loop
      vertex -1.863295e+001  1.586705e+001  3.000000e+000
      vertex -1.550000e+001  1.630000e+001  3.000000e+000
      vertex -1.550000e+001  1.900000e+001  3.000000e+000
    endloop
  endfacet
  facet normal  0.000000e+000  0.000000e+000  1.000000e+000
    outer loop
      vertex  1.280000e+001  1.400000e+001  3.000000e+000
      vertex  1.117365e+001  1.467365e+001  3.000000e+000
      vertex  2.500000e+000  1.630000e+001  3.000000e+000
    endloop
  endfacet
  facet normal  0.000000e+000  0.000000e+000  1.000000e+000
    outer loop
      vertex  1.280000e+001  1.400000e+001  3.000000e+000
      vertex  2.500000e+000  1.630000e+001  3.000000e+000
      vertex  1.826346e+000  1.467365e+001  3.000000e+000
    endloop
  endfacet
  facet normal  0.000000e+000  0.000000e+000  1.000000e+000
    outer loop
      vertex  1.280000e+001  1.400000e+001  3.000000e+000
      vertex  1.826346e+000  1.467365e+001  3.000000e+000
      vertex  2.000000e-001  1.400000e+001  3.000000e+000
    endloop
  endfacet
  facet normal  -0.000000e+000  0.000000e+000  1.000000e+000
    outer loop
      vertex  1.280000e+001  1.400000e+001  3.000000e+000
      vertex  2.000000e-001  1.400000e+001  3.000000e+000
      vertex -2.176529e+001  1.180422e+001  3.000000e+000
    endloop
  endfacet
  facet normal  -0.000000e+000  0.000000e+000  1.000000e+000
    outer loop
      vertex  1.280000e+001  1.400000e+001  3.000000e+000
      vertex -2.176529e+001  1.180422e+001  3.000000e+000
      vertex -2.376105e+001  7.078224e+000  3.000000e+000
    endloop
  endfacet
  facet normal  -0.000000e+000  0.000000e+000  1.000000e+000
    outer loop
      vertex  1.280000e+001  1.400000e+001  3.000000e+000
      vertex -2.376105e+001  7.078224e+000  3.000000e+000
      vertex -2.448892e+001  2.000000e+000  3.000000e+000
    endloop
  endfacet
  facet normal  0.000000e+000  0.000000e+000  1.000000e+000
    outer loop
      vertex  1.280000e+001  1.400000e+001  3.000000e+000
      vertex -2.448892e+001  2.000000e+000  3.000000e+000
      vertex  2.453927e+001  2.000000e+000  3.000000e+000
    endloop
  endfacet
  facet normal  0.000000e+000  0.000000e+000  1.000000e+000
    outer loop
      vertex  1.280000e+001  1.400000e+001  3.000000e+000
      vertex  2.453927e+001  2.000000e+000  3.000000e+000
      vertex  1.320000e+001  1.400000e+001  3.000000e+000
    endloop
  endfacet
  facet normal  0.000000e+000  0.000000e+000  1.000000e+000
    outer loop
      vertex  2.453927e+001  2.000000e+000  3.000000e+000
      vertex  2.380302e+001  7.059934e+000  3.000000e+000
      vertex  2.180782e+001  1.176782e+001  3.000000e+000
    endloop
  endfacet
  facet normal  0.000000e+000  0.000000e+000  1.000000e+000
    outer loop
      vertex  2.453927e+001  2.000000e+000  3.000000e+000
      vertex  2.180782e+001  1.176782e+001  3.000000e+000
      vertex  1.868407e+001  1.581593e+001  3.000000e+000
    endloop
  endfacet
  facet normal  0.000000e+000  0.000000e+000  1.000000e+000
    outer loop
      vertex  2.453927e+001  2.000000e+000  3.000000e+000
      vertex  1.868407e+001  1.581593e+001  3.000000e+000
      vertex  1.550000e+001  1.900000e+001  3.000000e+000
    endloop
  endfacet
  facet normal  0.000000e+000  0.000000e+000  1.000000e+000
    outer loop
      vertex  2.453927e+001  2.000000e+000  3.000000e+000
      vertex  1.550000e+001  1.900000e+001  3.000000e+000
      vertex  1.550000e+001  1.630000e+001  3.000000e+000
    endloop
  endfacet
  facet normal  0.000000e+000  0.000000e+000  1.000000e+000
    outer loop
      vertex  2.453927e+001  2.000000e+000  3.000000e+000
      vertex  1.550000e+001  1.630000e+001  3.000000e+000
      vertex  1.482635e+001  1.467365e+001  3.000000e+000
    endloop
  endfacet
  facet normal  0.000000e+000  0.000000e+000  1.000000e+000
    outer loop
      vertex  2.453927e+001  2.000000e+000  3.000000e+000
      vertex  1.482635e+001  1.467365e+001  3.000000e+000
      vertex  1.320000e+001  1.400000e+001  3.000000e+000
    endloop
  endfacet
  facet normal  0.000000e+000  0.000000e+000  1.000000e+000
    outer loop
      vertex  2.500000e+000  1.630000e+001  3.000000e+000
      vertex  1.117365e+001  1.467365e+001  3.000000e+000
      vertex  2.500000e+000  1.900000e+001  3.000000e+000
    endloop
  endfacet
  facet normal  0.000000e+000  0.000000e+000  1.000000e+000
    outer loop
      vertex  2.500000e+000  1.900000e+001  3.000000e+000
      vertex  1.117365e+001  1.467365e+001  3.000000e+000
      vertex  1.050000e+001  1.630000e+001  3.000000e+000
    endloop
  endfacet
  facet normal  0.000000e+000  -0.000000e+000  1.000000e+000
    outer loop
      vertex  2.500000e+000  1.900000e+001  3.000000e+000
      vertex  1.050000e+001  1.630000e+001  3.000000e+000
      vertex  1.050000e+001  1.900000e+001  3.000000e+000
    endloop
  endfacet
  facet normal  0.000000e+000  0.000000e+000  1.000000e+000
    outer loop
      vertex -1.050000e+001  1.630000e+001  3.000000e+000
      vertex -1.826346e+000  1.467365e+001  3.000000e+000
      vertex -1.050000e+001  1.900000e+001  3.000000e+000
    endloop
  endfacet
  facet normal  0.000000e+000  0.000000e+000  1.000000e+000
    outer loop
      vertex -1.050000e+001  1.900000e+001  3.000000e+000
      vertex -1.826346e+000  1.467365e+001  3.000000e+000
      vertex -2.500000e+000  1.630000e+001  3.000000e+000
    endloop
  endfacet
  facet normal  0.000000e+000  -0.000000e+000  1.000000e+000
    outer loop
      vertex -1.050000e+001  1.900000e+001  3.000000e+000
      vertex -2.500000e+000  1.630000e+001  3.000000e+000
      vertex -2.500000e+000  1.900000e+001  3.000000e+000
    endloop
  endfacet
  facet normal  7.071111e-001  7.071024e-001 -3.529441e-006
    outer loop
      vertex  1.459808e+001  1.990192e+001  2.431912e+000
      vertex  1.490518e+001  1.959482e+001  2.803856e+000
      vertex  1.450000e+001  2.000000e+001  2.000000e+000
    endloop
  endfacet
  facet normal  7.071069e-001  7.071066e-001 -4.080293e-006
    outer loop
      vertex  1.550000e+001  1.900000e+001  3.000000e+000
      vertex  1.868407e+001  1.581593e+001  3.000000e+000
      vertex  1.490518e+001  1.959482e+001  2.803856e+000
    endloop
  endfacet
  facet normal  7.071068e-001  7.071068e-001  8.614309e-007
    outer loop
      vertex  1.490518e+001  1.959482e+001  2.803856e+000
      vertex  1.868407e+001  1.581593e+001  3.000000e+000
      vertex  1.450000e+001  2.000000e+001  2.000000e+000
    endloop
  endfacet
  facet normal  7.071068e-001  7.071067e-001  -0.000000e+000
    outer loop
      vertex  1.868407e+001  1.581593e+001  3.000000e+000
      vertex  1.868407e+001  1.581593e+001 -2.000000e+000
      vertex  1.450000e+001  2.000000e+001  2.000000e+000
    endloop
  endfacet
  facet normal  7.071068e-001  7.071067e-001  0.000000e+000
    outer loop
      vertex  1.450000e+001  2.000000e+001  2.000000e+000
      vertex  1.868407e+001  1.581593e+001 -2.000000e+000
      vertex  1.450000e+001  2.000000e+001 -2.000000e+000
    endloop
  endfacet
  facet normal -1.000000e+000  0.000000e+000  0.000000e+000
    outer loop
      vertex  1.450000e+001  1.630000e+001 -2.000000e+000
      vertex  1.450000e+001  1.630000e+001  2.000000e+000
      vertex  1.450000e+001  2.000000e+001 -2.000000e+000
    endloop
  endfacet
  facet normal -1.000000e+000  0.000000e+000  0.000000e+000
    outer loop
      vertex  1.450000e+001  2.000000e+001 -2.000000e+000
      vertex  1.450000e+001  1.630000e+001  2.000000e+000
      vertex  1.450000e+001  2.000000e+001  2.000000e+000
    endloop
  endfacet
  facet normal -9.238794e-001  3.826837e-001  0.000000e+000
    outer loop
      vertex  1.450000e+001  1.630000e+001 -2.000000e+000
      vertex  1.411924e+001  1.538076e+001 -2.000000e+000
      vertex  1.450000e+001  1.630000e+001  2.000000e+000
    endloop
  endfacet
  facet normal -9.238794e-001  3.826837e-001  0.000000e+000
    outer loop
      vertex  1.450000e+001  1.630000e+001  2.000000e+000
      vertex  1.411924e+001  1.538076e+001 -2.000000e+000
      vertex  1.411924e+001  1.538076e+001  2.000000e+000
    endloop
  endfacet
  facet normal -3.826833e-001  9.238796e-001  0.000000e+000
    outer loop
      vertex  1.411924e+001  1.538076e+001 -2.000000e+000
      vertex  1.320000e+001  1.500000e+001 -2.000000e+000
      vertex  1.411924e+001  1.538076e+001  2.000000e+000
    endloop
  endfacet
  facet normal -3.826833e-001  9.238796e-001  0.000000e+000
    outer loop
      vertex  1.411924e+001  1.538076e+001  2.000000e+000
      vertex  1.320000e+001  1.500000e+001 -2.000000e+000
      vertex  1.320000e+001  1.500000e+001  2.000000e+000
    endloop
  endfacet
  facet normal  0.000000e+000  1.000000e+000  0.000000e+000
    outer loop
      vertex  1.280000e+001  1.500000e+001  2.000000e+000
      vertex  1.320000e+001  1.500000e+001  2.000000e+000
      vertex  1.280000e+001  1.500000e+001 -2.000000e+000
    endloop
  endfacet
  facet normal  0.000000e+000  1.000000e+000  0.000000e+000
    outer loop
      vertex  1.280000e+001  1.500000e+001 -2.000000e+000
      vertex  1.320000e+001  1.500000e+001  2.000000e+000
      vertex  1.320000e+001  1.500000e+001 -2.000000e+000
    endloop
  endfacet
  facet normal  3.826833e-001  9.238796e-001  0.000000e+000
    outer loop
      vertex  1.280000e+001  1.500000e+001 -2.000000e+000
      vertex  1.188076e+001  1.538076e+001 -2.000000e+000
      vertex  1.280000e+001  1.500000e+001  2.000000e+000
    endloop
  endfacet
  facet normal  3.826833e-001  9.238796e-001  0.000000e+000
    outer loop
      vertex  1.280000e+001  1.500000e+001  2.000000e+000
      vertex  1.188076e+001  1.538076e+001 -2.000000e+000
      vertex  1.188076e+001  1.538076e+001  2.000000e+000
    endloop
  endfacet
  facet normal  9.238794e-001  3.826837e-001  0.000000e+000
    outer loop
      vertex  1.188076e+001  1.538076e+001 -2.000000e+000
      vertex  1.150000e+001  1.630000e+001 -2.000000e+000
      vertex  1.188076e+001  1.538076e+001  2.000000e+000
    endloop
  endfacet
  facet normal  9.238794e-001  3.826837e-001  0.000000e+000
    outer loop
      vertex  1.188076e+001  1.538076e+001  2.000000e+000
      vertex  1.150000e+001  1.630000e+001 -2.000000e+000
      vertex  1.150000e+001  1.630000e+001  2.000000e+000
    endloop
  endfacet
  facet normal -9.238794e-001  3.826837e-001  0.000000e+000
    outer loop
      vertex  1.500000e+000  1.630000e+001 -2.000000e+000
      vertex  1.119239e+000  1.538076e+001 -2.000000e+000
      vertex  1.500000e+000  1.630000e+001  2.000000e+000
    endloop
  endfacet
  facet normal -9.238794e-001  3.826837e-001  0.000000e+000
    outer loop
      vertex  1.500000e+000  1.630000e+001  2.000000e+000
      vertex  1.119239e+000  1.538076e+001 -2.000000e+000
      vertex  1.119239e+000  1.538076e+001  2.000000e+000
    endloop
  endfacet
  facet normal -3.826834e-001  9.238796e-001  0.000000e+000
    outer loop
      vertex  1.119239e+000  1.538076e+001 -2.000000e+000
      vertex  2.000000e-001  1.500000e+001 -2.000000e+000
      vertex  1.119239e+000  1.538076e+001  2.000000e+000
    endloop
  endfacet
  facet normal -3.826834e-001  9.238796e-001  0.000000e+000
    outer loop
      vertex  1.119239e+000  1.538076e+001  2.000000e+000
      vertex  2.000000e-001  1.500000e+001 -2.000000e+000
      vertex  2.000000e-001  1.500000e+001  2.000000e+000
    endloop
  endfacet
  facet normal  0.000000e+000  1.000000e+000  0.000000e+000
    outer loop
      vertex -2.000000e-001  1.500000e+001  2.000000e+000
      vertex  2.000000e-001  1.500000e+001  2.000000e+000
      vertex -2.000000e-001  1.500000e+001 -2.000000e+000
    endloop
  endfacet
  facet normal  0.000000e+000  1.000000e+000  0.000000e+000
    outer loop
      vertex -2.000000e-001  1.500000e+001 -2.000000e+000
      vertex  2.000000e-001  1.500000e+001  2.000000e+000
      vertex  2.000000e-001  1.500000e+001 -2.000000e+000
    endloop
  endfacet
  facet normal  3.826834e-001  9.238796e-001  0.000000e+000
    outer loop
      vertex -2.000000e-001  1.500000e+001 -2.000000e+000
      vertex -1.119239e+000  1.538076e+001 -2.000000e+000
      vertex -2.000000e-001  1.500000e+001  2.000000e+000
    endloop
  endfacet
  facet normal  3.826834e-001  9.238796e-001  0.000000e+000
    outer loop
      vertex -2.000000e-001  1.500000e+001  2.000000e+000
      vertex -1.119239e+000  1.538076e+001 -2.000000e+000
      vertex -1.119239e+000  1.538076e+001  2.000000e+000
    endloop
  endfacet
  facet normal  9.238794e-001  3.826837e-001  0.000000e+000
    outer loop
      vertex -1.119239e+000  1.538076e+001 -2.000000e+000
      vertex -1.500000e+000  1.630000e+001 -2.000000e+000
      vertex -1.119239e+000  1.538076e+001  2.000000e+000
    endloop
  endfacet
  facet normal  9.238794e-001  3.826837e-001  0.000000e+000
    outer loop
      vertex -1.119239e+000  1.538076e+001  2.000000e+000
      vertex -1.500000e+000  1.630000e+001 -2.000000e+000
      vertex -1.500000e+000  1.630000e+001  2.000000e+000
    endloop
  endfacet
  facet normal -9.238794e-001  3.826837e-001  0.000000e+000
    outer loop
      vertex -1.150000e+001  1.630000e+001 -2.000000e+000
      vertex -1.188076e+001  1.538076e+001 -2.000000e+000
      vertex -1.150000e+001  1.630000e+001  2.000000e+000
    endloop
  endfacet
  facet normal -9.238794e-001  3.826837e-001  0.000000e+000
    outer loop
      vertex -1.150000e+001  1.630000e+001  2.000000e+000
      vertex -1.188076e+001  1.538076e+001 -2.000000e+000
      vertex -1.188076e+001  1.538076e+001  2.000000e+000
    endloop
  endfacet
  facet normal -3.826833e-001  9.238796e-001  0.000000e+000
    outer loop
      vertex -1.188076e+001  1.538076e+001 -2.000000e+000
      vertex -1.280000e+001  1.500000e+001 -2.000000e+000
      vertex -1.188076e+001  1.538076e+001  2.000000e+000
    endloop
  endfacet
  facet normal -3.826833e-001  9.238796e-001  0.000000e+000
    outer loop
      vertex -1.188076e+001  1.538076e+001  2.000000e+000
      vertex -1.280000e+001  1.500000e+001 -2.000000e+000
      vertex -1.280000e+001  1.500000e+001  2.000000e+000
    endloop
  endfacet
  facet normal  0.000000e+000  1.000000e+000  0.000000e+000
    outer loop
      vertex -1.320000e+001  1.500000e+001  2.000000e+000
      vertex -1.280000e+001  1.500000e+001  2.000000e+000
      vertex -1.320000e+001  1.500000e+001 -2.000000e+000
    endloop
  endfacet
  facet normal  0.000000e+000  1.000000e+000  0.000000e+000
    outer loop
      vertex -1.320000e+001  1.500000e+001 -2.000000e+000
      vertex -1.280000e+001  1.500000e+001  2.000000e+000
      vertex -1.280000e+001  1.500000e+001 -2.000000e+000
    endloop
  endfacet
  facet normal  3.826833e-001  9.238796e-001  0.000000e+000
    outer loop
      vertex -1.320000e+001  1.500000e+001 -2.000000e+000
      vertex -1.411924e+001  1.538076e+001 -2.000000e+000
      vertex -1.320000e+001  1.500000e+001  2.000000e+000
    endloop
  endfacet
  facet normal  3.826833e-001  9.238796e-001  0.000000e+000
    outer loop
      vertex -1.320000e+001  1.500000e+001  2.000000e+000
      vertex -1.411924e+001  1.538076e+001 -2.000000e+000
      vertex -1.411924e+001  1.538076e+001  2.000000e+000
    endloop
  endfacet
  facet normal  9.238794e-001  3.826837e-001  0.000000e+000
    outer loop
      vertex -1.411924e+001  1.538076e+001 -2.000000e+000
      vertex -1.450000e+001  1.630000e+001 -2.000000e+000
      vertex -1.411924e+001  1.538076e+001  2.000000e+000
    endloop
  endfacet
  facet normal  9.238794e-001  3.826837e-001  0.000000e+000
    outer loop
      vertex -1.411924e+001  1.538076e+001  2.000000e+000
      vertex -1.450000e+001  1.630000e+001 -2.000000e+000
      vertex -1.450000e+001  1.630000e+001  2.000000e+000
    endloop
  endfacet
  facet normal  1.000000e+000  0.000000e+000  0.000000e+000
    outer loop
      vertex -1.450000e+001  2.000000e+001 -2.000000e+000
      vertex -1.450000e+001  2.000000e+001  2.000000e+000
      vertex -1.450000e+001  1.630000e+001 -2.000000e+000
    endloop
  endfacet
  facet normal  1.000000e+000  0.000000e+000  0.000000e+000
    outer loop
      vertex -1.450000e+001  1.630000e+001 -2.000000e+000
      vertex -1.450000e+001  2.000000e+001  2.000000e+000
      vertex -1.450000e+001  1.630000e+001  2.000000e+000
    endloop
  endfacet
  facet normal -7.071067e-001  7.071069e-001  0.000000e+000
    outer loop
      vertex -1.450000e+001  2.000000e+001  2.000000e+000
      vertex -1.450000e+001  2.000000e+001 -2.000000e+000
      vertex -1.863295e+001  1.586705e+001 -2.000000e+000
    endloop
  endfacet
  facet normal -7.071067e-001  7.071068e-001  0.000000e+000
    outer loop
      vertex -1.450000e+001  2.000000e+001  2.000000e+000
      vertex -1.863295e+001  1.586705e+001 -2.000000e+000
      vertex -1.863295e+001  1.586705e+001  3.000000e+000
    endloop
  endfacet
  facet normal -7.071067e-001  7.071069e-001  2.152446e-007
    outer loop
      vertex -1.450000e+001  2.000000e+001  2.000000e+000
      vertex -1.863295e+001  1.586705e+001  3.000000e+000
      vertex -1.550000e+001  1.900000e+001  3.000000e+000
    endloop
  endfacet
  facet normal -7.071059e-001  7.071076e-001  1.691456e-006
    outer loop
      vertex -1.450000e+001  2.000000e+001  2.000000e+000
      vertex -1.550000e+001  1.900000e+001  3.000000e+000
      vertex -1.490518e+001  1.959482e+001  2.803856e+000
    endloop
  endfacet
  facet normal -7.071111e-001  7.071024e-001 -3.529441e-006
    outer loop
      vertex -1.450000e+001  2.000000e+001  2.000000e+000
      vertex -1.490518e+001  1.959482e+001  2.803856e+000
      vertex -1.459808e+001  1.990192e+001  2.431912e+000
    endloop
  endfacet
  facet normal  1.000000e+000  0.000000e+000  0.000000e+000
    outer loop
      vertex  1.150000e+001  1.900000e+001 -2.000000e+000
      vertex  1.150000e+001  1.900000e+001  2.000000e+000
      vertex  1.150000e+001  1.630000e+001 -2.000000e+000
    endloop
  endfacet
  facet normal  1.000000e+000  0.000000e+000  0.000000e+000
    outer loop
      vertex  1.150000e+001  1.630000e+001 -2.000000e+000
      vertex  1.150000e+001  1.900000e+001  2.000000e+000
      vertex  1.150000e+001  1.630000e+001  2.000000e+000
    endloop
  endfacet
  facet normal  0.000000e+000  1.000000e+000  0.000000e+000
    outer loop
      vertex  2.500000e+000  2.000000e+001  2.000000e+000
      vertex  1.050000e+001  2.000000e+001  2.000000e+000
      vertex  2.500000e+000  2.000000e+001 -2.000000e+000
    endloop
  endfacet
  facet normal  0.000000e+000  1.000000e+000  0.000000e+000
    outer loop
      vertex  2.500000e+000  2.000000e+001 -2.000000e+000
      vertex  1.050000e+001  2.000000e+001  2.000000e+000
      vertex  1.050000e+001  2.000000e+001 -2.000000e+000
    endloop
  endfacet
  facet normal -1.000000e+000  0.000000e+000  0.000000e+000
    outer loop
      vertex  1.500000e+000  1.900000e+001 -2.000000e+000
      vertex  1.500000e+000  1.630000e+001 -2.000000e+000
      vertex  1.500000e+000  1.900000e+001  2.000000e+000
    endloop
  endfacet
  facet normal -1.000000e+000  -0.000000e+000  0.000000e+000
    outer loop
      vertex  1.500000e+000  1.900000e+001  2.000000e+000
      vertex  1.500000e+000  1.630000e+001 -2.000000e+000
      vertex  1.500000e+000  1.630000e+001  2.000000e+000
    endloop
  endfacet
  facet normal  3.826827e-001  9.238798e-001  0.000000e+000
    outer loop
      vertex  1.050000e+001  2.000000e+001 -2.000000e+000
      vertex  1.050000e+001  2.000000e+001  2.000000e+000
      vertex  1.120711e+001  1.970711e+001 -2.000000e+000
    endloop
  endfacet
  facet normal  3.826827e-001  9.238798e-001  -0.000000e+000
    outer loop
      vertex  1.120711e+001  1.970711e+001 -2.000000e+000
      vertex  1.050000e+001  2.000000e+001  2.000000e+000
      vertex  1.120711e+001  1.970711e+001  2.000000e+000
    endloop
  endfacet
  facet normal  9.238796e-001  3.826833e-001  0.000000e+000
    outer loop
      vertex  1.120711e+001  1.970711e+001 -2.000000e+000
      vertex  1.120711e+001  1.970711e+001  2.000000e+000
      vertex  1.150000e+001  1.900000e+001 -2.000000e+000
    endloop
  endfacet
  facet normal  9.238796e-001  3.826833e-001  -0.000000e+000
    outer loop
      vertex  1.150000e+001  1.900000e+001 -2.000000e+000
      vertex  1.120711e+001  1.970711e+001  2.000000e+000
      vertex  1.150000e+001  1.900000e+001  2.000000e+000
    endloop
  endfacet
  facet normal -9.238796e-001  3.826830e-001  0.000000e+000
    outer loop
      vertex  1.500000e+000  1.900000e+001 -2.000000e+000
      vertex  1.500000e+000  1.900000e+001  2.000000e+000
      vertex  1.792893e+000  1.970711e+001 -2.000000e+000
    endloop
  endfacet
  facet normal -9.238796e-001  3.826830e-001  0.000000e+000
    outer loop
      vertex  1.792893e+000  1.970711e+001 -2.000000e+000
      vertex  1.500000e+000  1.900000e+001  2.000000e+000
      vertex  1.792893e+000  1.970711e+001  2.000000e+000
    endloop
  endfacet
  facet normal -3.826826e-001  9.238799e-001  0.000000e+000
    outer loop
      vertex  1.792893e+000  1.970711e+001 -2.000000e+000
      vertex  1.792893e+000  1.970711e+001  2.000000e+000
      vertex  2.500000e+000  2.000000e+001 -2.000000e+000
    endloop
  endfacet
  facet normal -3.826826e-001  9.238799e-001  0.000000e+000
    outer loop
      vertex  2.500000e+000  2.000000e+001 -2.000000e+000
      vertex  1.792893e+000  1.970711e+001  2.000000e+000
      vertex  2.500000e+000  2.000000e+001  2.000000e+000
    endloop
  endfacet
  facet normal  1.000000e+000  0.000000e+000  0.000000e+000
    outer loop
      vertex -1.500000e+000  1.900000e+001 -2.000000e+000
      vertex -1.500000e+000  1.900000e+001  2.000000e+000
      vertex -1.500000e+000  1.630000e+001 -2.000000e+000
    endloop
  endfacet
  facet normal  1.000000e+000  0.000000e+000  0.000000e+000
    outer loop
      vertex -1.500000e+000  1.630000e+001 -2.000000e+000
      vertex -1.500000e+000  1.900000e+001  2.000000e+000
      vertex -1.500000e+000  1.630000e+001  2.000000e+000
    endloop
  endfacet
  facet normal  0.000000e+000  1.000000e+000  0.000000e+000
    outer loop
      vertex -1.050000e+001  2.000000e+001  2.000000e+000
      vertex -2.500000e+000  2.000000e+001  2.000000e+000
      vertex -1.050000e+001  2.000000e+001 -2.000000e+000
    endloop
  endfacet
  facet normal  0.000000e+000  1.000000e+000  0.000000e+000
    outer loop
      vertex -1.050000e+001  2.000000e+001 -2.000000e+000
      vertex -2.500000e+000  2.000000e+001  2.000000e+000
      vertex -2.500000e+000  2.000000e+001 -2.000000e+000
    endloop
  endfacet
  facet normal -1.000000e+000  0.000000e+000  0.000000e+000
    outer loop
      vertex -1.150000e+001  1.630000e+001 -2.000000e+000
      vertex -1.150000e+001  1.630000e+001  2.000000e+000
      vertex -1.150000e+001  1.900000e+001 -2.000000e+000
    endloop
  endfacet
  facet normal -1.000000e+000  0.000000e+000  0.000000e+000
    outer loop
      vertex -1.150000e+001  1.900000e+001 -2.000000e+000
      vertex -1.150000e+001  1.630000e+001  2.000000e+000
      vertex -1.150000e+001  1.900000e+001  2.000000e+000
    endloop
  endfacet
  facet normal  3.826826e-001  9.238799e-001  0.000000e+000
    outer loop
      vertex -2.500000e+000  2.000000e+001 -2.000000e+000
      vertex -2.500000e+000  2.000000e+001  2.000000e+000
      vertex -1.792893e+000  1.970711e+001 -2.000000e+000
    endloop
  endfacet
  facet normal  3.826826e-001  9.238799e-001  -0.000000e+000
    outer loop
      vertex -1.792893e+000  1.970711e+001 -2.000000e+000
      vertex -2.500000e+000  2.000000e+001  2.000000e+000
      vertex -1.792893e+000  1.970711e+001  2.000000e+000
    endloop
  endfacet
  facet normal  9.238796e-001  3.826830e-001  0.000000e+000
    outer loop
      vertex -1.792893e+000  1.970711e+001 -2.000000e+000
      vertex -1.792893e+000  1.970711e+001  2.000000e+000
      vertex -1.500000e+000  1.900000e+001 -2.000000e+000
    endloop
  endfacet
  facet normal  9.238796e-001  3.826830e-001  -0.000000e+000
    outer loop
      vertex -1.500000e+000  1.900000e+001 -2.000000e+000
      vertex -1.792893e+000  1.970711e+001  2.000000e+000
      vertex -1.500000e+000  1.900000e+001  2.000000e+000
    endloop
  endfacet
  facet normal -9.238796e-001  3.826833e-001  0.000000e+000
    outer loop
      vertex -1.150000e+001  1.900000e+001 -2.000000e+000
      vertex -1.150000e+001  1.900000e+001  2.000000e+000
      vertex -1.120711e+001  1.970711e+001 -2.000000e+000
    endloop
  endfacet
  facet normal -9.238796e-001  3.826833e-001  0.000000e+000
    outer loop
      vertex -1.120711e+001  1.970711e+001 -2.000000e+000
      vertex -1.150000e+001  1.900000e+001  2.000000e+000
      vertex -1.120711e+001  1.970711e+001  2.000000e+000
    endloop
  endfacet
  facet normal -3.826827e-001  9.238798e-001  0.000000e+000
    outer loop
      vertex -1.120711e+001  1.970711e+001 -2.000000e+000
      vertex -1.120711e+001  1.970711e+001  2.000000e+000
      vertex -1.050000e+001  2.000000e+001 -2.000000e+000
    endloop
  endfacet
  facet normal -3.826827e-001  9.238798e-001  0.000000e+000
    outer loop
      vertex -1.050000e+001  2.000000e+001 -2.000000e+000
      vertex -1.120711e+001  1.970711e+001  2.000000e+000
      vertex -1.050000e+001  2.000000e+001  2.000000e+000
    endloop
  endfacet
  facet normal  3.131646e-001  -0.000000e+000  9.496989e-001
    outer loop
      vertex -1.550000e+001  1.900000e+001  3.000000e+000
      vertex -1.550000e+001  1.630000e+001  3.000000e+000
      vertex -1.490518e+001  1.959482e+001  2.803856e+000
    endloop
  endfacet
  facet normal  3.826455e-001 -1.408611e-002  9.237879e-001
    outer loop
      vertex -1.490518e+001  1.959482e+001  2.803856e+000
      vertex -1.550000e+001  1.630000e+001  3.000000e+000
      vertex -1.479289e+001  1.630000e+001  2.707107e+000
    endloop
  endfacet
  facet normal  7.681128e-001  7.375055e-003  6.402721e-001
    outer loop
      vertex -1.490518e+001  1.959482e+001  2.803856e+000
      vertex -1.479289e+001  1.630000e+001  2.707107e+000
      vertex -1.459808e+001  1.990192e+001  2.431912e+000
    endloop
  endfacet
  facet normal  9.751706e-001  0.000000e+000  2.214550e-001
    outer loop
      vertex -1.450000e+001  2.000000e+001  2.000000e+000
      vertex -1.459808e+001  1.990192e+001  2.431912e+000
      vertex -1.450000e+001  1.630000e+001  2.000000e+000
    endloop
  endfacet
  facet normal  9.236810e-001 -2.072546e-002  3.826014e-001
    outer loop
      vertex -1.450000e+001  1.630000e+001  2.000000e+000
      vertex -1.459808e+001  1.990192e+001  2.431912e+000
      vertex -1.479289e+001  1.630000e+001  2.707107e+000
    endloop
  endfacet
  facet normal -3.826835e-001  0.000000e+000  9.238795e-001
    outer loop
      vertex  1.550000e+001  1.630000e+001  3.000000e+000
      vertex  1.550000e+001  1.900000e+001  3.000000e+000
      vertex  1.479289e+001  1.630000e+001  2.707107e+000
    endloop
  endfacet
  facet normal -3.280160e-001 -1.655678e-002  9.445271e-001
    outer loop
      vertex  1.479289e+001  1.630000e+001  2.707107e+000
      vertex  1.550000e+001  1.900000e+001  3.000000e+000
      vertex  1.490518e+001  1.959482e+001  2.803856e+000
    endloop
  endfacet
  facet normal -7.681128e-001  7.375055e-003  6.402721e-001
    outer loop
      vertex  1.479289e+001  1.630000e+001  2.707107e+000
      vertex  1.490518e+001  1.959482e+001  2.803856e+000
      vertex  1.459808e+001  1.990192e+001  2.431912e+000
    endloop
  endfacet
  facet normal -9.751706e-001  0.000000e+000  2.214550e-001
    outer loop
      vertex  1.450000e+001  2.000000e+001  2.000000e+000
      vertex  1.450000e+001  1.630000e+001  2.000000e+000
      vertex  1.459808e+001  1.990192e+001  2.431912e+000
    endloop
  endfacet
  facet normal -9.236810e-001 -2.072546e-002  3.826014e-001
    outer loop
      vertex  1.459808e+001  1.990192e+001  2.431912e+000
      vertex  1.450000e+001  1.630000e+001  2.000000e+000
      vertex  1.479289e+001  1.630000e+001  2.707107e+000
    endloop
  endfacet
  facet normal -1.020050e-001  3.806874e-001  9.190605e-001
    outer loop
      vertex  1.320000e+001  1.400000e+001  3.000000e+000
      vertex  1.399645e+001  1.492051e+001  2.707107e+000
      vertex  1.320000e+001  1.470711e+001  2.707107e+000
    endloop
  endfacet
  facet normal -1.809883e-001  4.369442e-001  8.810920e-001
    outer loop
      vertex  1.320000e+001  1.400000e+001  3.000000e+000
      vertex  1.482635e+001  1.467365e+001  3.000000e+000
      vertex  1.399645e+001  1.492051e+001  2.707107e+000
    endloop
  endfacet
  facet normal -4.369441e-001  1.809883e-001  8.810920e-001
    outer loop
      vertex  1.550000e+001  1.630000e+001  3.000000e+000
      vertex  1.457949e+001  1.550355e+001  2.707107e+000
      vertex  1.482635e+001  1.467365e+001  3.000000e+000
    endloop
  endfacet
  facet normal -3.806874e-001  1.020051e-001  9.190605e-001
    outer loop
      vertex  1.550000e+001  1.630000e+001  3.000000e+000
      vertex  1.479289e+001  1.630000e+001  2.707107e+000
      vertex  1.457949e+001  1.550355e+001  2.707107e+000
    endloop
  endfacet
  facet normal -8.968087e-001  2.402997e-001  3.714705e-001
    outer loop
      vertex  1.450000e+001  1.630000e+001  2.000000e+000
      vertex  1.457949e+001  1.550355e+001  2.707107e+000
      vertex  1.479289e+001  1.630000e+001  2.707107e+000
    endloop
  endfacet
  facet normal -8.146616e-001  3.374441e-001  4.716544e-001
    outer loop
      vertex  1.450000e+001  1.630000e+001  2.000000e+000
      vertex  1.411924e+001  1.538076e+001  2.000000e+000
      vertex  1.457949e+001  1.550355e+001  2.707107e+000
    endloop
  endfacet
  facet normal -3.374438e-001  8.146617e-001  4.716545e-001
    outer loop
      vertex  1.320000e+001  1.500000e+001  2.000000e+000
      vertex  1.399645e+001  1.492051e+001  2.707107e+000
      vertex  1.411924e+001  1.538076e+001  2.000000e+000
    endloop
  endfacet
  facet normal -2.402994e-001  8.968087e-001  3.714705e-001
    outer loop
      vertex  1.320000e+001  1.500000e+001  2.000000e+000
      vertex  1.320000e+001  1.470711e+001  2.707107e+000
      vertex  1.399645e+001  1.492051e+001  2.707107e+000
    endloop
  endfacet
  facet normal -2.538770e-001  2.538770e-001  9.333236e-001
    outer loop
      vertex  1.482635e+001  1.467365e+001  3.000000e+000
      vertex  1.457949e+001  1.550355e+001  2.707107e+000
      vertex  1.399645e+001  1.492051e+001  2.707107e+000
    endloop
  endfacet
  facet normal -6.699873e-001  6.699873e-001  3.197401e-001
    outer loop
      vertex  1.457949e+001  1.550355e+001  2.707107e+000
      vertex  1.411924e+001  1.538076e+001  2.000000e+000
      vertex  1.399645e+001  1.492051e+001  2.707107e+000
    endloop
  endfacet
  facet normal  0.000000e+000  3.826835e-001  9.238795e-001
    outer loop
      vertex  1.280000e+001  1.400000e+001  3.000000e+000
      vertex  1.320000e+001  1.400000e+001  3.000000e+000
      vertex  1.280000e+001  1.470711e+001  2.707107e+000
    endloop
  endfacet
  facet normal  -0.000000e+000  3.826835e-001  9.238795e-001
    outer loop
      vertex  1.280000e+001  1.470711e+001  2.707107e+000
      vertex  1.320000e+001  1.400000e+001  3.000000e+000
      vertex  1.320000e+001  1.470711e+001  2.707107e+000
    endloop
  endfacet
  facet normal  0.000000e+000  9.238794e-001  3.826836e-001
    outer loop
      vertex  1.280000e+001  1.470711e+001  2.707107e+000
      vertex  1.320000e+001  1.470711e+001  2.707107e+000
      vertex  1.280000e+001  1.500000e+001  2.000000e+000
    endloop
  endfacet
  facet normal  -0.000000e+000  9.238794e-001  3.826836e-001
    outer loop
      vertex  1.280000e+001  1.500000e+001  2.000000e+000
      vertex  1.320000e+001  1.470711e+001  2.707107e+000
      vertex  1.320000e+001  1.500000e+001  2.000000e+000
    endloop
  endfacet
  facet normal  3.806874e-001  1.020051e-001  9.190605e-001
    outer loop
      vertex  1.050000e+001  1.630000e+001  3.000000e+000
      vertex  1.142051e+001  1.550355e+001  2.707107e+000
      vertex  1.120711e+001  1.630000e+001  2.707107e+000
    endloop
  endfacet
  facet normal  4.369441e-001  1.809883e-001  8.810920e-001
    outer loop
      vertex  1.050000e+001  1.630000e+001  3.000000e+000
      vertex  1.117365e+001  1.467365e+001  3.000000e+000
      vertex  1.142051e+001  1.550355e+001  2.707107e+000
    endloop
  endfacet
  facet normal  1.809883e-001  4.369442e-001  8.810920e-001
    outer loop
      vertex  1.280000e+001  1.400000e+001  3.000000e+000
      vertex  1.200355e+001  1.492051e+001  2.707107e+000
      vertex  1.117365e+001  1.467365e+001  3.000000e+000
    endloop
  endfacet
  facet normal  1.020050e-001  3.806874e-001  9.190605e-001
    outer loop
      vertex  1.280000e+001  1.400000e+001  3.000000e+000
      vertex  1.280000e+001  1.470711e+001  2.707107e+000
      vertex  1.200355e+001  1.492051e+001  2.707107e+000
    endloop
  endfacet
  facet normal  2.402994e-001  8.968087e-001  3.714705e-001
    outer loop
      vertex  1.280000e+001  1.500000e+001  2.000000e+000
      vertex  1.200355e+001  1.492051e+001  2.707107e+000
      vertex  1.280000e+001  1.470711e+001  2.707107e+000
    endloop
  endfacet
  facet normal  3.374438e-001  8.146617e-001  4.716545e-001
    outer loop
      vertex  1.280000e+001  1.500000e+001  2.000000e+000
      vertex  1.188076e+001  1.538076e+001  2.000000e+000
      vertex  1.200355e+001  1.492051e+001  2.707107e+000
    endloop
  endfacet
  facet normal  8.146616e-001  3.374441e-001  4.716544e-001
    outer loop
      vertex  1.150000e+001  1.630000e+001  2.000000e+000
      vertex  1.142051e+001  1.550355e+001  2.707107e+000
      vertex  1.188076e+001  1.538076e+001  2.000000e+000
    endloop
  endfacet
  facet normal  8.968087e-001  2.402997e-001  3.714705e-001
    outer loop
      vertex  1.150000e+001  1.630000e+001  2.000000e+000
      vertex  1.120711e+001  1.630000e+001  2.707107e+000
      vertex  1.142051e+001  1.550355e+001  2.707107e+000
    endloop
  endfacet
  facet normal  2.538770e-001  2.538770e-001  9.333236e-001
    outer loop
      vertex  1.117365e+001  1.467365e+001  3.000000e+000
      vertex  1.200355e+001  1.492051e+001  2.707107e+000
      vertex  1.142051e+001  1.550355e+001  2.707107e+000
    endloop
  endfacet
  facet normal  6.699873e-001  6.699873e-001  3.197401e-001
    outer loop
      vertex  1.200355e+001  1.492051e+001  2.707107e+000
      vertex  1.188076e+001  1.538076e+001  2.000000e+000
      vertex  1.142051e+001  1.550355e+001  2.707107e+000
    endloop
  endfacet
  facet normal  3.826835e-001  -0.000000e+000  9.238795e-001
    outer loop
      vertex  1.050000e+001  1.900000e+001  3.000000e+000
      vertex  1.050000e+001  1.630000e+001  3.000000e+000
      vertex  1.120711e+001  1.900000e+001  2.707107e+000
    endloop
  endfacet
  facet normal  3.826835e-001  0.000000e+000  9.238795e-001
    outer loop
      vertex  1.120711e+001  1.900000e+001  2.707107e+000
      vertex  1.050000e+001  1.630000e+001  3.000000e+000
      vertex  1.120711e+001  1.630000e+001  2.707107e+000
    endloop
  endfacet
  facet normal  9.238795e-001  -0.000000e+000  3.826836e-001
    outer loop
      vertex  1.120711e+001  1.900000e+001  2.707107e+000
      vertex  1.120711e+001  1.630000e+001  2.707107e+000
      vertex  1.150000e+001  1.900000e+001  2.000000e+000
    endloop
  endfacet
  facet normal  9.238795e-001  0.000000e+000  3.826836e-001
    outer loop
      vertex  1.150000e+001  1.900000e+001  2.000000e+000
      vertex  1.120711e+001  1.630000e+001  2.707107e+000
      vertex  1.150000e+001  1.630000e+001  2.000000e+000
    endloop
  endfacet
  facet normal  1.565584e-001  3.779640e-001  9.124870e-001
    outer loop
      vertex  1.050000e+001  1.900000e+001  3.000000e+000
      vertex  1.100000e+001  1.950000e+001  2.707107e+000
      vertex  1.050000e+001  1.970711e+001  2.707107e+000
    endloop
  endfacet
  facet normal  3.779645e-001  1.565579e-001  9.124870e-001
    outer loop
      vertex  1.050000e+001  1.900000e+001  3.000000e+000
      vertex  1.120711e+001  1.900000e+001  2.707107e+000
      vertex  1.100000e+001  1.950000e+001  2.707107e+000
    endloop
  endfacet
  facet normal  8.628562e-001  3.574064e-001  3.574069e-001
    outer loop
      vertex  1.120711e+001  1.900000e+001  2.707107e+000
      vertex  1.150000e+001  1.900000e+001  2.000000e+000
      vertex  1.100000e+001  1.950000e+001  2.707107e+000
    endloop
  endfacet
  facet normal  8.628563e-001  3.574066e-001  3.574069e-001
    outer loop
      vertex  1.100000e+001  1.950000e+001  2.707107e+000
      vertex  1.150000e+001  1.900000e+001  2.000000e+000
      vertex  1.120711e+001  1.970711e+001  2.000000e+000
    endloop
  endfacet
  facet normal  3.574077e-001  8.628554e-001  3.574076e-001
    outer loop
      vertex  1.100000e+001  1.950000e+001  2.707107e+000
      vertex  1.120711e+001  1.970711e+001  2.000000e+000
      vertex  1.050000e+001  1.970711e+001  2.707107e+000
    endloop
  endfacet
  facet normal  3.574061e-001  8.628567e-001  3.574060e-001
    outer loop
      vertex  1.050000e+001  1.970711e+001  2.707107e+000
      vertex  1.120711e+001  1.970711e+001  2.000000e+000
      vertex  1.050000e+001  2.000000e+001  2.000000e+000
    endloop
  endfacet
  facet normal  0.000000e+000  3.826830e-001  9.238796e-001
    outer loop
      vertex  2.500000e+000  1.900000e+001  3.000000e+000
      vertex  1.050000e+001  1.900000e+001  3.000000e+000
      vertex  2.500000e+000  1.970711e+001  2.707107e+000
    endloop
  endfacet
  facet normal  -0.000000e+000  3.826830e-001  9.238796e-001
    outer loop
      vertex  2.500000e+000  1.970711e+001  2.707107e+000
      vertex  1.050000e+001  1.900000e+001  3.000000e+000
      vertex  1.050000e+001  1.970711e+001  2.707107e+000
    endloop
  endfacet
  facet normal  0.000000e+000  9.238799e-001  3.826826e-001
    outer loop
      vertex  2.500000e+000  1.970711e+001  2.707107e+000
      vertex  1.050000e+001  1.970711e+001  2.707107e+000
      vertex  2.500000e+000  2.000000e+001  2.000000e+000
    endloop
  endfacet
  facet normal  -0.000000e+000  9.238799e-001  3.826826e-001
    outer loop
      vertex  2.500000e+000  2.000000e+001  2.000000e+000
      vertex  1.050000e+001  1.970711e+001  2.707107e+000
      vertex  1.050000e+001  2.000000e+001  2.000000e+000
    endloop
  endfacet
  facet normal -3.779644e-001  1.565580e-001  9.124869e-001
    outer loop
      vertex  2.500000e+000  1.900000e+001  3.000000e+000
      vertex  2.000000e+000  1.950000e+001  2.707107e+000
      vertex  1.792893e+000  1.900000e+001  2.707107e+000
    endloop
  endfacet
  facet normal -1.565584e-001  3.779640e-001  9.124870e-001
    outer loop
      vertex  2.500000e+000  1.900000e+001  3.000000e+000
      vertex  2.500000e+000  1.970711e+001  2.707107e+000
      vertex  2.000000e+000  1.950000e+001  2.707107e+000
    endloop
  endfacet
  facet normal -3.574080e-001  8.628561e-001  3.574058e-001
    outer loop
      vertex  2.500000e+000  1.970711e+001  2.707107e+000
      vertex  2.500000e+000  2.000000e+001  2.000000e+000
      vertex  2.000000e+000  1.950000e+001  2.707107e+000
    endloop
  endfacet
  facet normal -3.574058e-001  8.628563e-001  3.574074e-001
    outer loop
      vertex  2.000000e+000  1.950000e+001  2.707107e+000
      vertex  2.500000e+000  2.000000e+001  2.000000e+000
      vertex  1.792893e+000  1.970711e+001  2.000000e+000
    endloop
  endfacet
  facet normal -8.628560e-001  3.574068e-001  3.574071e-001
    outer loop
      vertex  2.000000e+000  1.950000e+001  2.707107e+000
      vertex  1.792893e+000  1.970711e+001  2.000000e+000
      vertex  1.792893e+000  1.900000e+001  2.707107e+000
    endloop
  endfacet
  facet normal -8.628563e-001  3.574063e-001  3.574067e-001
    outer loop
      vertex  1.792893e+000  1.900000e+001  2.707107e+000
      vertex  1.792893e+000  1.970711e+001  2.000000e+000
      vertex  1.500000e+000  1.900000e+001  2.000000e+000
    endloop
  endfacet
  facet normal -9.238796e-001  0.000000e+000  3.826834e-001
    outer loop
      vertex  1.500000e+000  1.900000e+001  2.000000e+000
      vertex  1.500000e+000  1.630000e+001  2.000000e+000
      vertex  1.792893e+000  1.900000e+001  2.707107e+000
    endloop
  endfacet
  facet normal -9.238796e-001  0.000000e+000  3.826834e-001
    outer loop
      vertex  1.792893e+000  1.900000e+001  2.707107e+000
      vertex  1.500000e+000  1.630000e+001  2.000000e+000
      vertex  1.792893e+000  1.630000e+001  2.707107e+000
    endloop
  endfacet
  facet normal -3.826834e-001  0.000000e+000  9.238796e-001
    outer loop
      vertex  1.792893e+000  1.900000e+001  2.707107e+000
      vertex  1.792893e+000  1.630000e+001  2.707107e+000
      vertex  2.500000e+000  1.900000e+001  3.000000e+000
    endloop
  endfacet
  facet normal -3.826834e-001  0.000000e+000  9.238796e-001
    outer loop
      vertex  2.500000e+000  1.900000e+001  3.000000e+000
      vertex  1.792893e+000  1.630000e+001  2.707107e+000
      vertex  2.500000e+000  1.630000e+001  3.000000e+000
    endloop
  endfacet
  facet normal -1.020050e-001  3.806873e-001  9.190605e-001
    outer loop
      vertex  2.000000e-001  1.400000e+001  3.000000e+000
      vertex  9.964465e-001  1.492051e+001  2.707107e+000
      vertex  2.000000e-001  1.470711e+001  2.707107e+000
    endloop
  endfacet
  facet normal -1.809882e-001  4.369442e-001  8.810919e-001
    outer loop
      vertex  2.000000e-001  1.400000e+001  3.000000e+000
      vertex  1.826346e+000  1.467365e+001  3.000000e+000
      vertex  9.964465e-001  1.492051e+001  2.707107e+000
    endloop
  endfacet
  facet normal -4.369441e-001  1.809883e-001  8.810921e-001
    outer loop
      vertex  2.500000e+000  1.630000e+001  3.000000e+000
      vertex  1.579486e+000  1.550355e+001  2.707107e+000
      vertex  1.826346e+000  1.467365e+001  3.000000e+000
    endloop
  endfacet
  facet normal -3.806872e-001  1.020050e-001  9.190605e-001
    outer loop
      vertex  2.500000e+000  1.630000e+001  3.000000e+000
      vertex  1.792893e+000  1.630000e+001  2.707107e+000
      vertex  1.579486e+000  1.550355e+001  2.707107e+000
    endloop
  endfacet
  facet normal -8.968087e-001  2.402995e-001  3.714703e-001
    outer loop
      vertex  1.500000e+000  1.630000e+001  2.000000e+000
      vertex  1.579486e+000  1.550355e+001  2.707107e+000
      vertex  1.792893e+000  1.630000e+001  2.707107e+000
    endloop
  endfacet
  facet normal -8.146616e-001  3.374441e-001  4.716544e-001
    outer loop
      vertex  1.500000e+000  1.630000e+001  2.000000e+000
      vertex  1.119239e+000  1.538076e+001  2.000000e+000
      vertex  1.579486e+000  1.550355e+001  2.707107e+000
    endloop
  endfacet
  facet normal -3.374439e-001  8.146617e-001  4.716545e-001
    outer loop
      vertex  2.000000e-001  1.500000e+001  2.000000e+000
      vertex  9.964465e-001  1.492051e+001  2.707107e+000
      vertex  1.119239e+000  1.538076e+001  2.000000e+000
    endloop
  endfacet
  facet normal -2.402995e-001  8.968087e-001  3.714705e-001
    outer loop
      vertex  2.000000e-001  1.500000e+001  2.000000e+000
      vertex  2.000000e-001  1.470711e+001  2.707107e+000
      vertex  9.964465e-001  1.492051e+001  2.707107e+000
    endloop
  endfacet
  facet normal -2.538769e-001  2.538769e-001  9.333236e-001
    outer loop
      vertex  1.826346e+000  1.467365e+001  3.000000e+000
      vertex  1.579486e+000  1.550355e+001  2.707107e+000
      vertex  9.964465e-001  1.492051e+001  2.707107e+000
    endloop
  endfacet
  facet normal -6.699873e-001  6.699874e-001  3.197401e-001
    outer loop
      vertex  1.579486e+000  1.550355e+001  2.707107e+000
      vertex  1.119239e+000  1.538076e+001  2.000000e+000
      vertex  9.964465e-001  1.492051e+001  2.707107e+000
    endloop
  endfacet
  facet normal  0.000000e+000  3.826835e-001  9.238795e-001
    outer loop
      vertex -2.000003e-001  1.400000e+001  3.000000e+000
      vertex  2.000000e-001  1.400000e+001  3.000000e+000
      vertex -2.000002e-001  1.470711e+001  2.707107e+000
    endloop
  endfacet
  facet normal  -0.000000e+000  3.826835e-001  9.238795e-001
    outer loop
      vertex -2.000002e-001  1.470711e+001  2.707107e+000
      vertex  2.000000e-001  1.400000e+001  3.000000e+000
      vertex  2.000000e-001  1.470711e+001  2.707107e+000
    endloop
  endfacet
  facet normal  0.000000e+000  9.238795e-001  3.826836e-001
    outer loop
      vertex -2.000002e-001  1.470711e+001  2.707107e+000
      vertex  2.000000e-001  1.470711e+001  2.707107e+000
      vertex -2.000000e-001  1.500000e+001  2.000000e+000
    endloop
  endfacet
  facet normal  -0.000000e+000  9.238795e-001  3.826837e-001
    outer loop
      vertex -2.000000e-001  1.500000e+001  2.000000e+000
      vertex  2.000000e-001  1.470711e+001  2.707107e+000
      vertex  2.000000e-001  1.500000e+001  2.000000e+000
    endloop
  endfacet
  facet normal  3.806872e-001  1.020049e-001  9.190605e-001
    outer loop
      vertex -2.500000e+000  1.630000e+001  3.000000e+000
      vertex -1.579486e+000  1.550355e+001  2.707107e+000
      vertex -1.792893e+000  1.630000e+001  2.707107e+000
    endloop
  endfacet
  facet normal  4.369441e-001  1.809883e-001  8.810920e-001
    outer loop
      vertex -2.500000e+000  1.630000e+001  3.000000e+000
      vertex -1.826346e+000  1.467365e+001  3.000000e+000
      vertex -1.579486e+000  1.550355e+001  2.707107e+000
    endloop
  endfacet
  facet normal  1.809883e-001  4.369442e-001  8.810920e-001
    outer loop
      vertex -2.000003e-001  1.400000e+001  3.000000e+000
      vertex -9.964467e-001  1.492051e+001  2.707107e+000
      vertex -1.826346e+000  1.467365e+001  3.000000e+000
    endloop
  endfacet
  facet normal  1.020050e-001  3.806873e-001  9.190605e-001
    outer loop
      vertex -2.000003e-001  1.400000e+001  3.000000e+000
      vertex -2.000002e-001  1.470711e+001  2.707107e+000
      vertex -9.964467e-001  1.492051e+001  2.707107e+000
    endloop
  endfacet
  facet normal  2.402995e-001  8.968087e-001  3.714706e-001
    outer loop
      vertex -2.000000e-001  1.500000e+001  2.000000e+000
      vertex -9.964467e-001  1.492051e+001  2.707107e+000
      vertex -2.000002e-001  1.470711e+001  2.707107e+000
    endloop
  endfacet
  facet normal  3.374438e-001  8.146617e-001  4.716546e-001
    outer loop
      vertex -2.000000e-001  1.500000e+001  2.000000e+000
      vertex -1.119239e+000  1.538076e+001  2.000000e+000
      vertex -9.964467e-001  1.492051e+001  2.707107e+000
    endloop
  endfacet
  facet normal  8.146616e-001  3.374441e-001  4.716546e-001
    outer loop
      vertex -1.500000e+000  1.630000e+001  2.000000e+000
      vertex -1.579486e+000  1.550355e+001  2.707107e+000
      vertex -1.119239e+000  1.538076e+001  2.000000e+000
    endloop
  endfacet
  facet normal  8.968088e-001  2.402994e-001  3.714703e-001
    outer loop
      vertex -1.500000e+000  1.630000e+001  2.000000e+000
      vertex -1.792893e+000  1.630000e+001  2.707107e+000
      vertex -1.579486e+000  1.550355e+001  2.707107e+000
    endloop
  endfacet
  facet normal  2.538770e-001  2.538770e-001  9.333237e-001
    outer loop
      vertex -1.826346e+000  1.467365e+001  3.000000e+000
      vertex -9.964467e-001  1.492051e+001  2.707107e+000
      vertex -1.579486e+000  1.550355e+001  2.707107e+000
    endloop
  endfacet
  facet normal  6.699873e-001  6.699873e-001  3.197403e-001
    outer loop
      vertex -9.964467e-001  1.492051e+001  2.707107e+000
      vertex -1.119239e+000  1.538076e+001  2.000000e+000
      vertex -1.579486e+000  1.550355e+001  2.707107e+000
    endloop
  endfacet
  facet normal  3.826834e-001  -0.000000e+000  9.238796e-001
    outer loop
      vertex -2.500000e+000  1.900000e+001  3.000000e+000
      vertex -2.500000e+000  1.630000e+001  3.000000e+000
      vertex -1.792893e+000  1.900000e+001  2.707107e+000
    endloop
  endfacet
  facet normal  3.826834e-001  0.000000e+000  9.238796e-001
    outer loop
      vertex -1.792893e+000  1.900000e+001  2.707107e+000
      vertex -2.500000e+000  1.630000e+001  3.000000e+000
      vertex -1.792893e+000  1.630000e+001  2.707107e+000
    endloop
  endfacet
  facet normal  9.238796e-001  -0.000000e+000  3.826834e-001
    outer loop
      vertex -1.792893e+000  1.900000e+001  2.707107e+000
      vertex -1.792893e+000  1.630000e+001  2.707107e+000
      vertex -1.500000e+000  1.900000e+001  2.000000e+000
    endloop
  endfacet
  facet normal  9.238796e-001  0.000000e+000  3.826834e-001
    outer loop
      vertex -1.500000e+000  1.900000e+001  2.000000e+000
      vertex -1.792893e+000  1.630000e+001  2.707107e+000
      vertex -1.500000e+000  1.630000e+001  2.000000e+000
    endloop
  endfacet
  facet normal  1.565584e-001  3.779640e-001  9.124870e-001
    outer loop
      vertex -2.500000e+000  1.900000e+001  3.000000e+000
      vertex -2.000000e+000  1.950000e+001  2.707107e+000
      vertex -2.500000e+000  1.970711e+001  2.707107e+000
    endloop
  endfacet
  facet normal  3.779644e-001  1.565580e-001  9.124869e-001
    outer loop
      vertex -2.500000e+000  1.900000e+001  3.000000e+000
      vertex -1.792893e+000  1.900000e+001  2.707107e+000
      vertex -2.000000e+000  1.950000e+001  2.707107e+000
    endloop
  endfacet
  facet normal  8.628562e-001  3.574069e-001  3.574067e-001
    outer loop
      vertex -1.792893e+000  1.900000e+001  2.707107e+000
      vertex -1.500000e+000  1.900000e+001  2.000000e+000
      vertex -2.000000e+000  1.950000e+001  2.707107e+000
    endloop
  endfacet
  facet normal  8.628563e-001  3.574063e-001  3.574071e-001
    outer loop
      vertex -2.000000e+000  1.950000e+001  2.707107e+000
      vertex -1.500000e+000  1.900000e+001  2.000000e+000
      vertex -1.792893e+000  1.970711e+001  2.000000e+000
    endloop
  endfacet
  facet normal  3.574077e-001  8.628554e-001  3.574077e-001
    outer loop
      vertex -2.000000e+000  1.950000e+001  2.707107e+000
      vertex -1.792893e+000  1.970711e+001  2.000000e+000
      vertex -2.500000e+000  1.970711e+001  2.707107e+000
    endloop
  endfacet
  facet normal  3.574060e-001  8.628568e-001  3.574060e-001
    outer loop
      vertex -2.500000e+000  1.970711e+001  2.707107e+000
      vertex -1.792893e+000  1.970711e+001  2.000000e+000
      vertex -2.500000e+000  2.000000e+001  2.000000e+000
    endloop
  endfacet
  facet normal  0.000000e+000  3.826830e-001  9.238796e-001
    outer loop
      vertex -1.050000e+001  1.900000e+001  3.000000e+000
      vertex -2.500000e+000  1.900000e+001  3.000000e+000
      vertex -1.050000e+001  1.970711e+001  2.707107e+000
    endloop
  endfacet
  facet normal  -0.000000e+000  3.826830e-001  9.238796e-001
    outer loop
      vertex -1.050000e+001  1.970711e+001  2.707107e+000
      vertex -2.500000e+000  1.900000e+001  3.000000e+000
      vertex -2.500000e+000  1.970711e+001  2.707107e+000
    endloop
  endfacet
  facet normal  0.000000e+000  9.238799e-001  3.826826e-001
    outer loop
      vertex -1.050000e+001  1.970711e+001  2.707107e+000
      vertex -2.500000e+000  1.970711e+001  2.707107e+000
      vertex -1.050000e+001  2.000000e+001  2.000000e+000
    endloop
  endfacet
  facet normal  -0.000000e+000  9.238799e-001  3.826826e-001
    outer loop
      vertex -1.050000e+001  2.000000e+001  2.000000e+000
      vertex -2.500000e+000  1.970711e+001  2.707107e+000
      vertex -2.500000e+000  2.000000e+001  2.000000e+000
    endloop
  endfacet
  facet normal -3.779645e-001  1.565579e-001  9.124870e-001
    outer loop
      vertex -1.050000e+001  1.900000e+001  3.000000e+000
      vertex -1.100000e+001  1.950000e+001  2.707107e+000
      vertex -1.120711e+001  1.900000e+001  2.707107e+000
    endloop
  endfacet
  facet normal -1.565584e-001  3.779640e-001  9.124870e-001
    outer loop
      vertex -1.050000e+001  1.900000e+001  3.000000e+000
      vertex -1.050000e+001  1.970711e+001  2.707107e+000
      vertex -1.100000e+001  1.950000e+001  2.707107e+000
    endloop
  endfacet
  facet normal -3.574080e-001  8.628561e-001  3.574058e-001
    outer loop
      vertex -1.050000e+001  1.970711e+001  2.707107e+000
      vertex -1.050000e+001  2.000000e+001  2.000000e+000
      vertex -1.100000e+001  1.950000e+001  2.707107e+000
    endloop
  endfacet
  facet normal -3.574059e-001  8.628562e-001  3.574073e-001
    outer loop
      vertex -1.100000e+001  1.950000e+001  2.707107e+000
      vertex -1.050000e+001  2.000000e+001  2.000000e+000
      vertex -1.120711e+001  1.970711e+001  2.000000e+000
    endloop
  endfacet
  facet normal -8.628563e-001  3.574064e-001  3.574068e-001
    outer loop
      vertex -1.100000e+001  1.950000e+001  2.707107e+000
      vertex -1.120711e+001  1.970711e+001  2.000000e+000
      vertex -1.120711e+001  1.900000e+001  2.707107e+000
    endloop
  endfacet
  facet normal -8.628561e-001  3.574066e-001  3.574069e-001
    outer loop
      vertex -1.120711e+001  1.900000e+001  2.707107e+000
      vertex -1.120711e+001  1.970711e+001  2.000000e+000
      vertex -1.150000e+001  1.900000e+001  2.000000e+000
    endloop
  endfacet
  facet normal -3.826835e-001  0.000000e+000  9.238795e-001
    outer loop
      vertex -1.050000e+001  1.630000e+001  3.000000e+000
      vertex -1.050000e+001  1.900000e+001  3.000000e+000
      vertex -1.120711e+001  1.630000e+001  2.707107e+000
    endloop
  endfacet
  facet normal -3.826835e-001  0.000000e+000  9.238795e-001
    outer loop
      vertex -1.120711e+001  1.630000e+001  2.707107e+000
      vertex -1.050000e+001  1.900000e+001  3.000000e+000
      vertex -1.120711e+001  1.900000e+001  2.707107e+000
    endloop
  endfacet
  facet normal -9.238795e-001  0.000000e+000  3.826836e-001
    outer loop
      vertex -1.120711e+001  1.630000e+001  2.707107e+000
      vertex -1.120711e+001  1.900000e+001  2.707107e+000
      vertex -1.150000e+001  1.630000e+001  2.000000e+000
    endloop
  endfacet
  facet normal -9.238795e-001  0.000000e+000  3.826836e-001
    outer loop
      vertex -1.150000e+001  1.630000e+001  2.000000e+000
      vertex -1.120711e+001  1.900000e+001  2.707107e+000
      vertex -1.150000e+001  1.900000e+001  2.000000e+000
    endloop
  endfacet
  facet normal -1.020050e-001  3.806874e-001  9.190605e-001
    outer loop
      vertex -1.280000e+001  1.400000e+001  3.000000e+000
      vertex -1.200355e+001  1.492051e+001  2.707107e+000
      vertex -1.280000e+001  1.470711e+001  2.707107e+000
    endloop
  endfacet
  facet normal -1.809883e-001  4.369442e-001  8.810920e-001
    outer loop
      vertex -1.280000e+001  1.400000e+001  3.000000e+000
      vertex -1.117365e+001  1.467365e+001  3.000000e+000
      vertex -1.200355e+001  1.492051e+001  2.707107e+000
    endloop
  endfacet
  facet normal -4.369441e-001  1.809883e-001  8.810920e-001
    outer loop
      vertex -1.050000e+001  1.630000e+001  3.000000e+000
      vertex -1.142051e+001  1.550355e+001  2.707107e+000
      vertex -1.117365e+001  1.467365e+001  3.000000e+000
    endloop
  endfacet
  facet normal -3.806874e-001  1.020051e-001  9.190605e-001
    outer loop
      vertex -1.050000e+001  1.630000e+001  3.000000e+000
      vertex -1.120711e+001  1.630000e+001  2.707107e+000
      vertex -1.142051e+001  1.550355e+001  2.707107e+000
    endloop
  endfacet
  facet normal -8.968087e-001  2.402997e-001  3.714705e-001
    outer loop
      vertex -1.150000e+001  1.630000e+001  2.000000e+000
      vertex -1.142051e+001  1.550355e+001  2.707107e+000
      vertex -1.120711e+001  1.630000e+001  2.707107e+000
    endloop
  endfacet
  facet normal -8.146616e-001  3.374441e-001  4.716544e-001
    outer loop
      vertex -1.150000e+001  1.630000e+001  2.000000e+000
      vertex -1.188076e+001  1.538076e+001  2.000000e+000
      vertex -1.142051e+001  1.550355e+001  2.707107e+000
    endloop
  endfacet
  facet normal -3.374438e-001  8.146617e-001  4.716545e-001
    outer loop
      vertex -1.280000e+001  1.500000e+001  2.000000e+000
      vertex -1.200355e+001  1.492051e+001  2.707107e+000
      vertex -1.188076e+001  1.538076e+001  2.000000e+000
    endloop
  endfacet
  facet normal -2.402994e-001  8.968087e-001  3.714705e-001
    outer loop
      vertex -1.280000e+001  1.500000e+001  2.000000e+000
      vertex -1.280000e+001  1.470711e+001  2.707107e+000
      vertex -1.200355e+001  1.492051e+001  2.707107e+000
    endloop
  endfacet
  facet normal -2.538770e-001  2.538770e-001  9.333236e-001
    outer loop
      vertex -1.117365e+001  1.467365e+001  3.000000e+000
      vertex -1.142051e+001  1.550355e+001  2.707107e+000
      vertex -1.200355e+001  1.492051e+001  2.707107e+000
    endloop
  endfacet
  facet normal -6.699873e-001  6.699873e-001  3.197401e-001
    outer loop
      vertex -1.142051e+001  1.550355e+001  2.707107e+000
      vertex -1.188076e+001  1.538076e+001  2.000000e+000
      vertex -1.200355e+001  1.492051e+001  2.707107e+000
    endloop
  endfacet
  facet normal  0.000000e+000  3.826835e-001  9.238795e-001
    outer loop
      vertex -1.320000e+001  1.400000e+001  3.000000e+000
      vertex -1.280000e+001  1.400000e+001  3.000000e+000
      vertex -1.320000e+001  1.470711e+001  2.707107e+000
    endloop
  endfacet
  facet normal  -0.000000e+000  3.826835e-001  9.238795e-001
    outer loop
      vertex -1.320000e+001  1.470711e+001  2.707107e+000
      vertex -1.280000e+001  1.400000e+001  3.000000e+000
      vertex -1.280000e+001  1.470711e+001  2.707107e+000
    endloop
  endfacet
  facet normal  0.000000e+000  9.238794e-001  3.826836e-001
    outer loop
      vertex -1.320000e+001  1.470711e+001  2.707107e+000
      vertex -1.280000e+001  1.470711e+001  2.707107e+000
      vertex -1.320000e+001  1.500000e+001  2.000000e+000
    endloop
  endfacet
  facet normal  -0.000000e+000  9.238794e-001  3.826836e-001
    outer loop
      vertex -1.320000e+001  1.500000e+001  2.000000e+000
      vertex -1.280000e+001  1.470711e+001  2.707107e+000
      vertex -1.280000e+001  1.500000e+001  2.000000e+000
    endloop
  endfacet
  facet normal  3.806874e-001  1.020051e-001  9.190605e-001
    outer loop
      vertex -1.550000e+001  1.630000e+001  3.000000e+000
      vertex -1.457949e+001  1.550355e+001  2.707107e+000
      vertex -1.479289e+001  1.630000e+001  2.707107e+000
    endloop
  endfacet
  facet normal  4.369441e-001  1.809883e-001  8.810920e-001
    outer loop
      vertex -1.550000e+001  1.630000e+001  3.000000e+000
      vertex -1.482635e+001  1.467365e+001  3.000000e+000
      vertex -1.457949e+001  1.550355e+001  2.707107e+000
    endloop
  endfacet
  facet normal  1.809883e-001  4.369442e-001  8.810920e-001
    outer loop
      vertex -1.320000e+001  1.400000e+001  3.000000e+000
      vertex -1.399645e+001  1.492051e+001  2.707107e+000
      vertex -1.482635e+001  1.467365e+001  3.000000e+000
    endloop
  endfacet
  facet normal  1.020050e-001  3.806874e-001  9.190605e-001
    outer loop
      vertex -1.320000e+001  1.400000e+001  3.000000e+000
      vertex -1.320000e+001  1.470711e+001  2.707107e+000
      vertex -1.399645e+001  1.492051e+001  2.707107e+000
    endloop
  endfacet
  facet normal  2.402994e-001  8.968087e-001  3.714705e-001
    outer loop
      vertex -1.320000e+001  1.500000e+001  2.000000e+000
      vertex -1.399645e+001  1.492051e+001  2.707107e+000
      vertex -1.320000e+001  1.470711e+001  2.707107e+000
    endloop
  endfacet
  facet normal  3.374438e-001  8.146617e-001  4.716545e-001
    outer loop
      vertex -1.320000e+001  1.500000e+001  2.000000e+000
      vertex -1.411924e+001  1.538076e+001  2.000000e+000
      vertex -1.399645e+001  1.492051e+001  2.707107e+000
    endloop
  endfacet
  facet normal  8.146616e-001  3.374441e-001  4.716544e-001
    outer loop
      vertex -1.450000e+001  1.630000e+001  2.000000e+000
      vertex -1.457949e+001  1.550355e+001  2.707107e+000
      vertex -1.411924e+001  1.538076e+001  2.000000e+000
    endloop
  endfacet
  facet normal  8.968087e-001  2.402997e-001  3.714705e-001
    outer loop
      vertex -1.450000e+001  1.630000e+001  2.000000e+000
      vertex -1.479289e+001  1.630000e+001  2.707107e+000
      vertex -1.457949e+001  1.550355e+001  2.707107e+000
    endloop
  endfacet
  facet normal  2.538770e-001  2.538770e-001  9.333236e-001
    outer loop
      vertex -1.482635e+001  1.467365e+001  3.000000e+000
      vertex -1.399645e+001  1.492051e+001  2.707107e+000
      vertex -1.457949e+001  1.550355e+001  2.707107e+000
    endloop
  endfacet
  facet normal  6.699873e-001  6.699873e-001  3.197401e-001
    outer loop
      vertex -1.399645e+001  1.492051e+001  2.707107e+000
      vertex -1.411924e+001  1.538076e+001  2.000000e+000
      vertex -1.457949e+001  1.550355e+001  2.707107e+000
    endloop
  endfacet
  facet normal  0.000000e+000  1.000000e+000  0.000000e+000
    outer loop
      vertex -3.000000e+001  2.000000e+000 -5.000000e+000
      vertex -2.448892e+001  2.000000e+000 -2.000000e+000
      vertex  3.000000e+001  2.000000e+000 -5.000000e+000
    endloop
  endfacet
  facet normal  0.000000e+000  1.000000e+000  0.000000e+000
    outer loop
      vertex  3.000000e+001  2.000000e+000 -5.000000e+000
      vertex -2.448892e+001  2.000000e+000 -2.000000e+000
      vertex  2.453927e+001  2.000000e+000 -2.000000e+000
    endloop
  endfacet
  facet normal  -0.000000e+000  1.000000e+000  0.000000e+000
    outer loop
      vertex  3.000000e+001  2.000000e+000 -5.000000e+000
      vertex  2.453927e+001  2.000000e+000 -2.000000e+000
      vertex  3.000000e+001  2.000000e+000  5.000000e+000
    endloop
  endfacet
  facet normal  0.000000e+000  1.000000e+000  0.000000e+000
    outer loop
      vertex  3.000000e+001  2.000000e+000  5.000000e+000
      vertex  2.453927e+001  2.000000e+000 -2.000000e+000
      vertex  2.453927e+001  2.000000e+000  3.000000e+000
    endloop
  endfacet
  facet normal  0.000000e+000  1.000000e+000  -0.000000e+000
    outer loop
      vertex  3.000000e+001  2.000000e+000  5.000000e+000
      vertex  2.453927e+001  2.000000e+000  3.000000e+000
      vertex -3.000000e+001  2.000000e+000  5.000000e+000
    endloop
  endfacet
  facet normal  0.000000e+000  9.999999e-001  0.000000e+000
    outer loop
      vertex -3.000000e+001  2.000000e+000  5.000000e+000
      vertex  2.453927e+001  2.000000e+000  3.000000e+000
      vertex -2.448892e+001  2.000000e+000  3.000000e+000
    endloop
  endfacet
  facet normal  0.000000e+000  1.000000e+000  0.000000e+000
    outer loop
      vertex -3.000000e+001  2.000000e+000  5.000000e+000
      vertex -2.448892e+001  2.000000e+000  3.000000e+000
      vertex -3.000000e+001  2.000000e+000 -5.000000e+000
    endloop
  endfacet
  facet normal  0.000000e+000  1.000000e+000  0.000000e+000
    outer loop
      vertex -3.000000e+001  2.000000e+000 -5.000000e+000
      vertex -2.448892e+001  2.000000e+000  3.000000e+000
      vertex -2.448892e+001  2.000000e+000 -2.000000e+000
    endloop
  endfacet
  facet normal  0.000000e+000  0.000000e+000 -9.999999e-001
    outer loop
      vertex -1.411924e+001  1.538076e+001 -2.000000e+000
      vertex -1.863295e+001  1.586705e+001 -2.000000e+000
      vertex -1.450000e+001  1.630000e+001 -2.000000e+000
    endloop
  endfacet
  facet normal  0.000000e+000  -0.000000e+000 -1.000000e+000
    outer loop
      vertex -1.863295e+001  1.586705e+001 -2.000000e+000
      vertex -1.450000e+001  2.000000e+001 -2.000000e+000
      vertex -1.450000e+001  1.630000e+001 -2.000000e+000
    endloop
  endfacet
  facet normal  -0.000000e+000  0.000000e+000 -1.000000e+000
    outer loop
      vertex -2.000000e-001  1.500000e+001 -2.000000e+000
      vertex  2.000000e-001  1.500000e+001 -2.000000e+000
      vertex -2.176529e+001  1.180422e+001 -2.000000e+000
    endloop
  endfacet
  facet normal  0.000000e+000  0.000000e+000 -1.000000e+000
    outer loop
      vertex -2.000000e-001  1.500000e+001 -2.000000e+000
      vertex -2.176529e+001  1.180422e+001 -2.000000e+000
      vertex -1.280000e+001  1.500000e+001 -2.000000e+000
    endloop
  endfacet
  facet normal  0.000000e+000  0.000000e+000 -1.000000e+000
    outer loop
      vertex -2.000000e-001  1.500000e+001 -2.000000e+000
      vertex -1.280000e+001  1.500000e+001 -2.000000e+000
      vertex -1.188076e+001  1.538076e+001 -2.000000e+000
    endloop
  endfacet
  facet normal  0.000000e+000  0.000000e+000 -1.000000e+000
    outer loop
      vertex -2.000000e-001  1.500000e+001 -2.000000e+000
      vertex -1.188076e+001  1.538076e+001 -2.000000e+000
      vertex -1.150000e+001  1.630000e+001 -2.000000e+000
    endloop
  endfacet
  facet normal  0.000000e+000  0.000000e+000 -1.000000e+000
    outer loop
      vertex -2.000000e-001  1.500000e+001 -2.000000e+000
      vertex -1.150000e+001  1.630000e+001 -2.000000e+000
      vertex -1.150000e+001  1.900000e+001 -2.000000e+000
    endloop
  endfacet
  facet normal  0.000000e+000  0.000000e+000 -1.000000e+000
    outer loop
      vertex -2.000000e-001  1.500000e+001 -2.000000e+000
      vertex -1.150000e+001  1.900000e+001 -2.000000e+000
      vertex -1.119239e+000  1.538076e+001 -2.000000e+000
    endloop
  endfacet
  facet normal  0.000000e+000  0.000000e+000 -1.000000e+000
    outer loop
      vertex  1.150000e+001  1.630000e+001 -2.000000e+000
      vertex  2.500000e+000  2.000000e+001 -2.000000e+000
      vertex  1.050000e+001  2.000000e+001 -2.000000e+000
    endloop
  endfacet
  facet normal  0.000000e+000  0.000000e+000 -1.000000e+000
    outer loop
      vertex  1.150000e+001  1.630000e+001 -2.000000e+000
      vertex  1.050000e+001  2.000000e+001 -2.000000e+000
      vertex  1.120711e+001  1.970711e+001 -2.000000e+000
    endloop
  endfacet
  facet normal  0.000000e+000  0.000000e+000 -9.999999e-001
    outer loop
      vertex  1.150000e+001  1.630000e+001 -2.000000e+000
      vertex  1.120711e+001  1.970711e+001 -2.000000e+000
      vertex  1.150000e+001  1.900000e+001 -2.000000e+000
    endloop
  endfacet
  facet normal  0.000000e+000  0.000000e+000 -1.000000e+000
    outer loop
      vertex  1.188076e+001  1.538076e+001 -2.000000e+000
      vertex  1.500000e+000  1.900000e+001 -2.000000e+000
      vertex  1.792893e+000  1.970711e+001 -2.000000e+000
    endloop
  endfacet
  facet normal  0.000000e+000  0.000000e+000 -1.000000e+000
    outer loop
      vertex  1.188076e+001  1.538076e+001 -2.000000e+000
      vertex  1.792893e+000  1.970711e+001 -2.000000e+000
      vertex  2.500000e+000  2.000000e+001 -2.000000e+000
    endloop
  endfacet
  facet normal  0.000000e+000  0.000000e+000 -9.999999e-001
    outer loop
      vertex  1.188076e+001  1.538076e+001 -2.000000e+000
      vertex  2.500000e+000  2.000000e+001 -2.000000e+000
      vertex  1.150000e+001  1.630000e+001 -2.000000e+000
    endloop
  endfacet
  facet normal  -0.000000e+000  -0.000000e+000 -1.000000e+000
    outer loop
      vertex  1.280000e+001  1.500000e+001 -2.000000e+000
      vertex  1.320000e+001  1.500000e+001 -2.000000e+000
      vertex  2.453927e+001  2.000000e+000 -2.000000e+000
    endloop
  endfacet
  facet normal  0.000000e+000  0.000000e+000 -9.999999e-001
    outer loop
      vertex  1.280000e+001  1.500000e+001 -2.000000e+000
      vertex  2.453927e+001  2.000000e+000 -2.000000e+000
      vertex -2.448892e+001  2.000000e+000 -2.000000e+000
    endloop
  endfacet
  facet normal  0.000000e+000  0.000000e+000 -9.999999e-001
    outer loop
      vertex  1.280000e+001  1.500000e+001 -2.000000e+000
      vertex -2.448892e+001  2.000000e+000 -2.000000e+000
      vertex -2.376105e+001  7.078224e+000 -2.000000e+000
    endloop
  endfacet
  facet normal  0.000000e+000  0.000000e+000 -1.000000e+000
    outer loop
      vertex  1.280000e+001  1.500000e+001 -2.000000e+000
      vertex -2.376105e+001  7.078224e+000 -2.000000e+000
      vertex -2.176529e+001  1.180422e+001 -2.000000e+000
    endloop
  endfacet
  facet normal  0.000000e+000  0.000000e+000 -1.000000e+000
    outer loop
      vertex  1.280000e+001  1.500000e+001 -2.000000e+000
      vertex -2.176529e+001  1.180422e+001 -2.000000e+000
      vertex  2.000000e-001  1.500000e+001 -2.000000e+000
    endloop
  endfacet
  facet normal  0.000000e+000  0.000000e+000 -1.000000e+000
    outer loop
      vertex  1.280000e+001  1.500000e+001 -2.000000e+000
      vertex  2.000000e-001  1.500000e+001 -2.000000e+000
      vertex  1.119239e+000  1.538076e+001 -2.000000e+000
    endloop
  endfacet
  facet normal  0.000000e+000  0.000000e+000 -1.000000e+000
    outer loop
      vertex  1.280000e+001  1.500000e+001 -2.000000e+000
      vertex  1.119239e+000  1.538076e+001 -2.000000e+000
      vertex  1.500000e+000  1.630000e+001 -2.000000e+000
    endloop
  endfacet
  facet normal  0.000000e+000  0.000000e+000 -1.000000e+000
    outer loop
      vertex  1.280000e+001  1.500000e+001 -2.000000e+000
      vertex  1.500000e+000  1.630000e+001 -2.000000e+000
      vertex  1.500000e+000  1.900000e+001 -2.000000e+000
    endloop
  endfacet
  facet normal  0.000000e+000  0.000000e+000 -1.000000e+000
    outer loop
      vertex  1.280000e+001  1.500000e+001 -2.000000e+000
      vertex  1.500000e+000  1.900000e+001 -2.000000e+000
      vertex  1.188076e+001  1.538076e+001 -2.000000e+000
    endloop
  endfacet
  facet normal  0.000000e+000  0.000000e+000 -1.000000e+000
    outer loop
      vertex -1.500000e+000  1.630000e+001 -2.000000e+000
      vertex -1.050000e+001  2.000000e+001 -2.000000e+000
      vertex -2.500000e+000  2.000000e+001 -2.000000e+000
    endloop
  endfacet
  facet normal  0.000000e+000  0.000000e+000 -9.999999e-001
    outer loop
      vertex -1.500000e+000  1.630000e+001 -2.000000e+000
      vertex -2.500000e+000  2.000000e+001 -2.000000e+000
      vertex -1.792893e+000  1.970711e+001 -2.000000e+000
    endloop
  endfacet
  facet normal  0.000000e+000  0.000000e+000 -1.000000e+000
    outer loop
      vertex -1.500000e+000  1.630000e+001 -2.000000e+000
      vertex -1.792893e+000  1.970711e+001 -2.000000e+000
      vertex -1.500000e+000  1.900000e+001 -2.000000e+000
    endloop
  endfacet
  facet normal  0.000000e+000  0.000000e+000 -1.000000e+000
    outer loop
      vertex -1.119239e+000  1.538076e+001 -2.000000e+000
      vertex -1.150000e+001  1.900000e+001 -2.000000e+000
      vertex -1.120711e+001  1.970711e+001 -2.000000e+000
    endloop
  endfacet
  facet normal  0.000000e+000  0.000000e+000 -1.000000e+000
    outer loop
      vertex -1.119239e+000  1.538076e+001 -2.000000e+000
      vertex -1.120711e+001  1.970711e+001 -2.000000e+000
      vertex -1.050000e+001  2.000000e+001 -2.000000e+000
    endloop
  endfacet
  facet normal  0.000000e+000  0.000000e+000 -9.999999e-001
    outer loop
      vertex -1.119239e+000  1.538076e+001 -2.000000e+000
      vertex -1.050000e+001  2.000000e+001 -2.000000e+000
      vertex -1.500000e+000  1.630000e+001 -2.000000e+000
    endloop
  endfacet
  facet normal  0.000000e+000  0.000000e+000 -1.000000e+000
    outer loop
      vertex  2.453927e+001  2.000000e+000 -2.000000e+000
      vertex  1.320000e+001  1.500000e+001 -2.000000e+000
      vertex  1.411924e+001  1.538076e+001 -2.000000e+000
    endloop
  endfacet
  facet normal  0.000000e+000  0.000000e+000 -1.000000e+000
    outer loop
      vertex  2.453927e+001  2.000000e+000 -2.000000e+000
      vertex  1.411924e+001  1.538076e+001 -2.000000e+000
      vertex  1.450000e+001  1.630000e+001 -2.000000e+000
    endloop
  endfacet
  facet normal  0.000000e+000  0.000000e+000 -1.000000e+000
    outer loop
      vertex  2.453927e+001  2.000000e+000 -2.000000e+000
      vertex  1.450000e+001  1.630000e+001 -2.000000e+000
      vertex  1.450000e+001  2.000000e+001 -2.000000e+000
    endloop
  endfacet
  facet normal  0.000000e+000  0.000000e+000 -1.000000e+000
    outer loop
      vertex  2.453927e+001  2.000000e+000 -2.000000e+000
      vertex  1.450000e+001  2.000000e+001 -2.000000e+000
      vertex  1.868407e+001  1.581593e+001 -2.000000e+000
    endloop
  endfacet
  facet normal  0.000000e+000  0.000000e+000 -1.000000e+000
    outer loop
      vertex  2.453927e+001  2.000000e+000 -2.000000e+000
      vertex  1.868407e+001  1.581593e+001 -2.000000e+000
      vertex  2.180782e+001  1.176782e+001 -2.000000e+000
    endloop
  endfacet
  facet normal  0.000000e+000  0.000000e+000 -1.000000e+000
    outer loop
      vertex  2.453927e+001  2.000000e+000 -2.000000e+000
      vertex  2.180782e+001  1.176782e+001 -2.000000e+000
      vertex  2.380302e+001  7.059934e+000 -2.000000e+000
    endloop
  endfacet
  facet normal  0.000000e+000  0.000000e+000 -1.000000e+000
    outer loop
      vertex -1.280000e+001  1.500000e+001 -2.000000e+000
      vertex -2.176529e+001  1.180422e+001 -2.000000e+000
      vertex -1.320000e+001  1.500000e+001 -2.000000e+000
    endloop
  endfacet
  facet normal  -0.000000e+000  0.000000e+000 -1.000000e+000
    outer loop
      vertex -1.320000e+001  1.500000e+001 -2.000000e+000
      vertex -2.176529e+001  1.180422e+001 -2.000000e+000
      vertex -1.863295e+001  1.586705e+001 -2.000000e+000
    endloop
  endfacet
  facet normal  0.000000e+000  0.000000e+000 -1.000000e+000
    outer loop
      vertex -1.320000e+001  1.500000e+001 -2.000000e+000
      vertex -1.863295e+001  1.586705e+001 -2.000000e+000
      vertex -1.411924e+001  1.538076e+001 -2.000000e+000
    endloop
  endfacet
  facet normal  7.916954e-001  6.109160e-001  0.000000e+000
    outer loop
      vertex  1.868407e+001  1.581593e+001 -2.000000e+000
      vertex  1.868407e+001  1.581593e+001  3.000000e+000
      vertex  2.180782e+001  1.176782e+001 -2.000000e+000
    endloop
  endfacet
  facet normal  7.916954e-001  6.109160e-001  -0.000000e+000
    outer loop
      vertex  2.180782e+001  1.176782e+001 -2.000000e+000
      vertex  1.868407e+001  1.581593e+001  3.000000e+000
      vertex  2.180782e+001  1.176782e+001  3.000000e+000
    endloop
  endfacet
  facet normal  9.207278e-001  3.902053e-001  0.000000e+000
    outer loop
      vertex  2.180782e+001  1.176782e+001 -2.000000e+000
      vertex  2.180782e+001  1.176782e+001  3.000000e+000
      vertex  2.380302e+001  7.059934e+000 -2.000000e+000
    endloop
  endfacet
  facet normal  9.207278e-001  3.902053e-001  -0.000000e+000
    outer loop
      vertex  2.380302e+001  7.059934e+000 -2.000000e+000
      vertex  2.180782e+001  1.176782e+001  3.000000e+000
      vertex  2.380302e+001  7.059934e+000  3.000000e+000
    endloop
  endfacet
  facet normal  9.895791e-001  1.439899e-001  0.000000e+000
    outer loop
      vertex  2.380302e+001  7.059934e+000 -2.000000e+000
      vertex  2.380302e+001  7.059934e+000  3.000000e+000
      vertex  2.453927e+001  2.000000e+000 -2.000000e+000
    endloop
  endfacet
  facet normal  9.895791e-001  1.439899e-001  -0.000000e+000
    outer loop
      vertex  2.453927e+001  2.000000e+000 -2.000000e+000
      vertex  2.380302e+001  7.059934e+000  3.000000e+000
      vertex  2.453927e+001  2.000000e+000  3.000000e+000
    endloop
  endfacet
  facet normal -9.898836e-001  1.418814e-001  0.000000e+000
    outer loop
      vertex -2.448892e+001  2.000000e+000 -2.000000e+000
      vertex -2.448892e+001  2.000000e+000  3.000000e+000
      vertex -2.376105e+001  7.078224e+000 -2.000000e+000
    endloop
  endfacet
  facet normal -9.898836e-001  1.418814e-001  0.000000e+000
    outer loop
      vertex -2.376105e+001  7.078224e+000 -2.000000e+000
      vertex -2.448892e+001  2.000000e+000  3.000000e+000
      vertex -2.376105e+001  7.078224e+000  3.000000e+000
    endloop
  endfacet
  facet normal -9.212258e-001  3.890282e-001  0.000000e+000
    outer loop
      vertex -2.376105e+001  7.078224e+000 -2.000000e+000
      vertex -2.376105e+001  7.078224e+000  3.000000e+000
      vertex -2.176529e+001  1.180422e+001 -2.000000e+000
    endloop
  endfacet
  facet normal -9.212258e-001  3.890282e-001  0.000000e+000
    outer loop
      vertex -2.176529e+001  1.180422e+001 -2.000000e+000
      vertex -2.376105e+001  7.078224e+000  3.000000e+000
      vertex -2.176529e+001  1.180422e+001  3.000000e+000
    endloop
  endfacet
  facet normal -7.919559e-001  6.105784e-001  0.000000e+000
    outer loop
      vertex -2.176529e+001  1.180422e+001 -2.000000e+000
      vertex -2.176529e+001  1.180422e+001  3.000000e+000
      vertex -1.863295e+001  1.586705e+001 -2.000000e+000
    endloop
  endfacet
  facet normal -7.919559e-001  6.105784e-001  0.000000e+000
    outer loop
      vertex -1.863295e+001  1.586705e+001 -2.000000e+000
      vertex -2.176529e+001  1.180422e+001  3.000000e+000
      vertex -1.863295e+001  1.586705e+001  3.000000e+000
    endloop
  endfacet
  facet normal  0.000000e+000  0.000000e+000  1.000000e+000
    outer loop
      vertex -3.000000e+001  0.000000e+000  5.000000e+000
      vertex  3.000000e+001  0.000000e+000  5.000000e+000
      vertex -3.000000e+001  2.000000e+000  5.000000e+000
    endloop
  endfacet
  facet normal  -0.000000e+000  0.000000e+000  1.000000e+000
    outer loop
      vertex -3.000000e+001  2.000000e+000  5.000000e+000
      vertex  3.000000e+001  0.000000e+000  5.000000e+000
      vertex  3.000000e+001  2.000000e+000  5.000000e+000
    endloop
  endfacet
  facet normal  0.000000e+000  0.000000e+000 -1.000000e+000
    outer loop
      vertex -3.000000e+001  0.000000e+000 -5.000000e+000
      vertex -3.000000e+001  2.000000e+000 -5.000000e+000
      vertex  3.000000e+001  0.000000e+000 -5.000000e+000
    endloop
  endfacet
  facet normal  0.000000e+000  0.000000e+000 -1.000000e+000
    outer loop
      vertex  3.000000e+001  0.000000e+000 -5.000000e+000
      vertex -3.000000e+001  2.000000e+000 -5.000000e+000
      vertex  3.000000e+001  2.000000e+000 -5.000000e+000
    endloop
  endfacet
  facet normal -1.000000e+000  0.000000e+000  0.000000e+000
    outer loop
      vertex -3.000000e+001  2.000000e+000  5.000000e+000
      vertex -3.000000e+001  2.000000e+000 -5.000000e+000
      vertex -3.000000e+001  0.000000e+000  5.000000e+000
    endloop
  endfacet
  facet normal -1.000000e+000  0.000000e+000  0.000000e+000
    outer loop
      vertex -3.000000e+001  0.000000e+000  5.000000e+000
      vertex -3.000000e+001  2.000000e+000 -5.000000e+000
      vertex -3.000000e+001  0.000000e+000 -5.000000e+000
    endloop
  endfacet
  facet normal  1.000000e+000  0.000000e+000  0.000000e+000
    outer loop
      vertex  3.000000e+001  2.000000e+000 -5.000000e+000
      vertex  3.000000e+001  2.000000e+000  5.000000e+000
      vertex  3.000000e+001  0.000000e+000 -5.000000e+000
    endloop
  endfacet
  facet normal  1.000000e+000  0.000000e+000  0.000000e+000
    outer loop
      vertex  3.000000e+001  0.000000e+000 -5.000000e+000
      vertex  3.000000e+001  2.000000e+000  5.000000e+000
      vertex  3.000000e+001  0.000000e+000  5.000000e+000
    endloop
  endfacet
  facet normal  0.000000e+000 -1.000000e+000  0.000000e+000
    outer loop
      vertex -3.000000e+001  0.000000e+000  5.000000e+000
      vertex -3.000000e+001  0.000000e+000 -5.000000e+000
      vertex  3.000000e+001  0.000000e+000  5.000000e+000
    endloop
  endfacet
  facet normal  0.000000e+000 -1.000000e+000  -0.000000e+000
    outer loop
      vertex  3.000000e+001  0.000000e+000  5.000000e+000
      vertex -3.000000e+001  0.000000e+000 -5.000000e+000
      vertex  3.000000e+001  0.000000e+000 -5.000000e+000
    endloop
  endfacet
endsolid CATIA STL
