solid CATIA STL
  facet normal  9.983037e-001  5.570458e-002 -1.693745e-002
    outer loop
      vertex  4.498747e+000 -1.061846e-001  0.000000e+000
      vertex  5.072455e+000  1.464369e+000  3.898000e+001
      vertex  5.203880e+000 -8.909576e-001  3.898000e+001
    endloop
  endfacet
  facet normal  9.592954e-001 -2.814648e-001 -2.301994e-002
    outer loop
      vertex  4.498747e+000 -1.061846e-001  0.000000e+000
      vertex  5.203880e+000 -8.909576e-001  3.898000e+001
      vertex  3.842937e+000 -2.341332e+000  0.000000e+000
    endloop
  endfacet
  facet normal  8.743972e-001  4.849274e-001 -1.657677e-002
    outer loop
      vertex  3.949121e+000  2.157415e+000  0.000000e+000
      vertex  3.928359e+000  3.527347e+000  3.898000e+001
      vertex  5.072455e+000  1.464369e+000  3.898000e+001
    endloop
  endfacet
  facet normal  9.714888e-001  2.358875e-001 -2.380259e-002
    outer loop
      vertex  3.949121e+000  2.157415e+000  0.000000e+000
      vertex  5.072455e+000  1.464369e+000  3.898000e+001
      vertex  4.498747e+000 -1.061846e-001  0.000000e+000
    endloop
  endfacet
  facet normal  7.233891e-001  6.900280e-001 -2.386536e-002
    outer loop
      vertex  2.341332e+000  3.842937e+000  0.000000e+000
      vertex  3.928359e+000  3.527347e+000  3.898000e+001
      vertex  3.949121e+000  2.157415e+000  0.000000e+000
    endloop
  endfacet
  facet normal -1.215442e-001  9.921597e-001 -2.909040e-002
    outer loop
      vertex -2.157415e+000  3.949121e+000  0.000000e+000
      vertex -8.381284e-001  5.120957e+000  3.445453e+001
      vertex -3.471424e-001  5.169601e+000  3.406219e+001
    endloop
  endfacet
  facet normal -4.252301e-001  8.933533e-001 -1.452559e-001
    outer loop
      vertex -2.531175e+000  4.633285e+000  3.898000e+001
      vertex -2.000000e+000  4.886121e+000  3.898000e+001
      vertex -2.845362e-001  5.211411e+000  3.595866e+001
    endloop
  endfacet
  facet normal -1.638145e-001  9.842457e-001  6.652227e-002
    outer loop
      vertex -2.531175e+000  4.633285e+000  3.898000e+001
      vertex -2.845362e-001  5.211411e+000  3.595866e+001
      vertex -8.035204e-001  5.149594e+000  3.559528e+001
    endloop
  endfacet
  facet normal -2.649012e-001  9.642025e-001  1.186755e-002
    outer loop
      vertex -2.531175e+000  4.633285e+000  3.898000e+001
      vertex -8.035204e-001  5.149594e+000  3.559528e+001
      vertex -1.000000e+000  5.102941e+000  3.500000e+001
    endloop
  endfacet
  facet normal -6.835108e-001  7.075343e-001 -1.794665e-001
    outer loop
      vertex -2.531175e+000  4.633285e+000  3.898000e+001
      vertex -1.000000e+000  5.102941e+000  3.500000e+001
      vertex -8.381284e-001  5.120957e+000  3.445453e+001
    endloop
  endfacet
  facet normal -3.250334e-001  9.454971e-001 -1.971163e-002
    outer loop
      vertex -2.531175e+000  4.633285e+000  3.898000e+001
      vertex -8.381284e-001  5.120957e+000  3.445453e+001
      vertex -2.157415e+000  3.949121e+000  0.000000e+000
    endloop
  endfacet
  facet normal  5.759166e-001  8.173351e-001 -1.683047e-002
    outer loop
      vertex  2.000000e+000  4.886121e+000  3.898000e+001
      vertex  3.928359e+000  3.527347e+000  3.898000e+001
      vertex  2.341332e+000  3.842937e+000  0.000000e+000
    endloop
  endfacet
  facet normal  2.981476e-001  9.542443e-001 -2.292675e-002
    outer loop
      vertex  2.000000e+000  4.886121e+000  3.898000e+001
      vertex  2.341332e+000  3.842937e+000  0.000000e+000
      vertex  1.000000e+000  5.102941e+000  3.500000e+001
    endloop
  endfacet
  facet normal  2.274581e-001  9.737793e-001 -4.101377e-003
    outer loop
      vertex  2.000000e+000  4.886121e+000  3.898000e+001
      vertex  1.000000e+000  5.102941e+000  3.500000e+001
      vertex  8.377714e-001  5.143134e+000  3.554602e+001
    endloop
  endfacet
  facet normal  1.481588e-001  9.886759e-001  2.385232e-002
    outer loop
      vertex  2.000000e+000  4.886121e+000  3.898000e+001
      vertex  8.377714e-001  5.143134e+000  3.554602e+001
      vertex  3.472556e-001  5.207190e+000  3.593777e+001
    endloop
  endfacet
  facet normal  2.000588e-001  9.797696e-001 -5.283180e-003
    outer loop
      vertex  2.000000e+000  4.886121e+000  3.898000e+001
      vertex  3.472556e-001  5.207190e+000  3.593777e+001
      vertex  1.622603e-015  5.300000e+000  4.000000e+001
    endloop
  endfacet
  facet normal  1.922233e-001  9.811223e-001 -2.119577e-002
    outer loop
      vertex  2.000000e+000  4.886121e+000  3.898000e+001
      vertex  1.622603e-015  5.300000e+000  4.000000e+001
      vertex  2.000000e+000  4.908156e+000  4.000000e+001
    endloop
  endfacet
  facet normal  6.632395e-001 -7.481533e-001 -1.949081e-002
    outer loop
      vertex  2.531175e+000 -4.633285e+000  3.898000e+001
      vertex  2.157415e+000 -3.949121e+000  0.000000e+000
      vertex  4.296397e+000 -3.068412e+000  3.898000e+001
    endloop
  endfacet
  facet normal  6.900647e-001 -7.234276e-001 -2.152145e-002
    outer loop
      vertex  4.296397e+000 -3.068412e+000  3.898000e+001
      vertex  2.157415e+000 -3.949121e+000  0.000000e+000
      vertex  3.842937e+000 -2.341332e+000  0.000000e+000
    endloop
  endfacet
  facet normal  9.228970e-001 -3.846298e-001 -1.791055e-002
    outer loop
      vertex  4.296397e+000 -3.068412e+000  3.898000e+001
      vertex  3.842937e+000 -2.341332e+000  0.000000e+000
      vertex  5.203880e+000 -8.909576e-001  3.898000e+001
    endloop
  endfacet
  facet normal -2.358959e-001  9.715231e-001 -2.227363e-002
    outer loop
      vertex -2.157415e+000  3.949121e+000  0.000000e+000
      vertex -3.471424e-001  5.169601e+000  3.406219e+001
      vertex  1.061846e-001  4.498747e+000  0.000000e+000
    endloop
  endfacet
  facet normal -6.056919e-003  9.997862e-001 -1.977139e-002
    outer loop
      vertex  1.061846e-001  4.498747e+000  0.000000e+000
      vertex -3.471424e-001  5.169601e+000  3.406219e+001
      vertex  2.843924e-001  5.173014e+000  3.404129e+001
    endloop
  endfacet
  facet normal  2.814804e-001  9.593485e-001 -2.047570e-002
    outer loop
      vertex  1.061846e-001  4.498747e+000  0.000000e+000
      vertex  2.843924e-001  5.173014e+000  3.404129e+001
      vertex  2.341332e+000  3.842937e+000  0.000000e+000
    endloop
  endfacet
  facet normal  1.132374e-001  9.930538e-001 -3.195871e-002
    outer loop
      vertex  2.341332e+000  3.842937e+000  0.000000e+000
      vertex  2.843924e-001  5.173014e+000  3.404129e+001
      vertex  8.031598e-001  5.125540e+000  3.440424e+001
    endloop
  endfacet
  facet normal  1.965227e-001  9.801065e-001 -2.775244e-002
    outer loop
      vertex  2.341332e+000  3.842937e+000  0.000000e+000
      vertex  8.031598e-001  5.125540e+000  3.440424e+001
      vertex  1.000000e+000  5.102941e+000  3.500000e+001
    endloop
  endfacet
  facet normal -2.219417e-001  9.748325e-001 -2.105989e-002
    outer loop
      vertex -2.000000e+000  4.886121e+000  3.898000e+001
      vertex -2.000000e+000  4.908156e+000  4.000000e+001
      vertex -2.845362e-001  5.211411e+000  3.595866e+001
    endloop
  endfacet
  facet normal -1.922604e-001  9.813115e-001 -7.974609e-003
    outer loop
      vertex -2.845362e-001  5.211411e+000  3.595866e+001
      vertex -2.000000e+000  4.908156e+000  4.000000e+001
      vertex  1.622603e-015  5.300000e+000  4.000000e+001
    endloop
  endfacet
  facet normal  5.942115e-003  9.997329e-001 -2.233316e-002
    outer loop
      vertex -2.845362e-001  5.211411e+000  3.595866e+001
      vertex  1.622603e-015  5.300000e+000  4.000000e+001
      vertex  3.472556e-001  5.207190e+000  3.593777e+001
    endloop
  endfacet
  facet normal -9.983037e-001 -5.570458e-002 -1.693745e-002
    outer loop
      vertex -4.498747e+000  1.061846e-001  0.000000e+000
      vertex -5.072455e+000 -1.464369e+000  3.898000e+001
      vertex -5.203880e+000  8.909576e-001  3.898000e+001
    endloop
  endfacet
  facet normal -9.592954e-001  2.814648e-001 -2.301994e-002
    outer loop
      vertex -4.498747e+000  1.061846e-001  0.000000e+000
      vertex -5.203880e+000  8.909576e-001  3.898000e+001
      vertex -3.842937e+000  2.341332e+000  0.000000e+000
    endloop
  endfacet
  facet normal -8.743972e-001 -4.849274e-001 -1.657677e-002
    outer loop
      vertex -3.949121e+000 -2.157415e+000  0.000000e+000
      vertex -3.928359e+000 -3.527347e+000  3.898000e+001
      vertex -5.072455e+000 -1.464369e+000  3.898000e+001
    endloop
  endfacet
  facet normal -9.714888e-001 -2.358875e-001 -2.380259e-002
    outer loop
      vertex -3.949121e+000 -2.157415e+000  0.000000e+000
      vertex -5.072455e+000 -1.464369e+000  3.898000e+001
      vertex -4.498747e+000  1.061846e-001  0.000000e+000
    endloop
  endfacet
  facet normal -7.233891e-001 -6.900280e-001 -2.386536e-002
    outer loop
      vertex -2.341332e+000 -3.842937e+000  0.000000e+000
      vertex -3.928359e+000 -3.527347e+000  3.898000e+001
      vertex -3.949121e+000 -2.157415e+000  0.000000e+000
    endloop
  endfacet
  facet normal -6.055673e-003 -9.997869e-001 -1.973364e-002
    outer loop
      vertex -1.061846e-001 -4.498747e+000  0.000000e+000
      vertex  2.843924e-001 -5.173014e+000  3.404129e+001
      vertex -3.471424e-001 -5.169601e+000  3.406219e+001
    endloop
  endfacet
  facet normal -2.814780e-001 -9.593405e-001 -2.088539e-002
    outer loop
      vertex -1.061846e-001 -4.498747e+000  0.000000e+000
      vertex -3.471424e-001 -5.169601e+000  3.406219e+001
      vertex -2.341332e+000 -3.842937e+000  0.000000e+000
    endloop
  endfacet
  facet normal -2.016946e-001 -9.790618e-001 -2.751663e-002
    outer loop
      vertex -1.000000e+000 -5.102941e+000  3.500000e+001
      vertex -2.341332e+000 -3.842937e+000  0.000000e+000
      vertex -8.381284e-001 -5.120957e+000  3.445453e+001
    endloop
  endfacet
  facet normal -1.233675e-001 -9.918638e-001 -3.140879e-002
    outer loop
      vertex -2.341332e+000 -3.842937e+000  0.000000e+000
      vertex -3.471424e-001 -5.169601e+000  3.406219e+001
      vertex -8.381284e-001 -5.120957e+000  3.445453e+001
    endloop
  endfacet
  facet normal -5.759166e-001 -8.173351e-001 -1.683047e-002
    outer loop
      vertex -2.000000e+000 -4.886121e+000  3.898000e+001
      vertex -3.928359e+000 -3.527347e+000  3.898000e+001
      vertex -2.341332e+000 -3.842937e+000  0.000000e+000
    endloop
  endfacet
  facet normal -2.981476e-001 -9.542443e-001 -2.292675e-002
    outer loop
      vertex -2.000000e+000 -4.886121e+000  3.898000e+001
      vertex -2.341332e+000 -3.842937e+000  0.000000e+000
      vertex -1.000000e+000 -5.102941e+000  3.500000e+001
    endloop
  endfacet
  facet normal -2.227864e-001 -9.748631e-001 -2.868546e-003
    outer loop
      vertex -2.000000e+000 -4.886121e+000  3.898000e+001
      vertex -1.000000e+000 -5.102941e+000  3.500000e+001
      vertex -8.035204e-001 -5.149594e+000  3.559528e+001
    endloop
  endfacet
  facet normal -1.377864e-001 -9.900559e-001  2.836103e-002
    outer loop
      vertex -2.000000e+000 -4.886121e+000  3.898000e+001
      vertex -8.035204e-001 -5.149594e+000  3.559528e+001
      vertex -2.845362e-001 -5.211411e+000  3.595866e+001
    endloop
  endfacet
  facet normal -1.989849e-001 -9.799741e-001 -7.471843e-003
    outer loop
      vertex -2.000000e+000 -4.886121e+000  3.898000e+001
      vertex -2.845362e-001 -5.211411e+000  3.595866e+001
      vertex -1.168634e-014 -5.300000e+000  4.000000e+001
    endloop
  endfacet
  facet normal -1.922233e-001 -9.811223e-001 -2.119577e-002
    outer loop
      vertex -2.000000e+000 -4.886121e+000  3.898000e+001
      vertex -1.168634e-014 -5.300000e+000  4.000000e+001
      vertex -2.000000e+000 -4.908156e+000  4.000000e+001
    endloop
  endfacet
  facet normal  1.913903e-001 -9.811692e-001 -2.601639e-002
    outer loop
      vertex  2.157415e+000 -3.949121e+000  0.000000e+000
      vertex  1.000000e+000 -5.102941e+000  3.500000e+001
      vertex  8.031598e-001 -5.125540e+000  3.440424e+001
    endloop
  endfacet
  facet normal  1.115920e-001 -9.933140e-001 -2.957278e-002
    outer loop
      vertex  2.157415e+000 -3.949121e+000  0.000000e+000
      vertex  8.031598e-001 -5.125540e+000  3.440424e+001
      vertex  2.843924e-001 -5.173014e+000  3.404129e+001
    endloop
  endfacet
  facet normal  2.358975e-001 -9.715300e-001 -2.195002e-002
    outer loop
      vertex  2.157415e+000 -3.949121e+000  0.000000e+000
      vertex  2.843924e-001 -5.173014e+000  3.404129e+001
      vertex -1.061846e-001 -4.498747e+000  0.000000e+000
    endloop
  endfacet
  facet normal  4.257421e-001 -8.944289e-001 -1.368961e-001
    outer loop
      vertex  2.531175e+000 -4.633285e+000  3.898000e+001
      vertex  2.000000e+000 -4.886121e+000  3.898000e+001
      vertex  3.472556e-001 -5.207190e+000  3.593777e+001
    endloop
  endfacet
  facet normal  1.756626e-001 -9.826644e-001  5.927311e-002
    outer loop
      vertex  2.531175e+000 -4.633285e+000  3.898000e+001
      vertex  3.472556e-001 -5.207190e+000  3.593777e+001
      vertex  8.377714e-001 -5.143134e+000  3.554602e+001
    endloop
  endfacet
  facet normal  2.705390e-001 -9.626620e-001  9.516801e-003
    outer loop
      vertex  2.531175e+000 -4.633285e+000  3.898000e+001
      vertex  8.377714e-001 -5.143134e+000  3.554602e+001
      vertex  1.000000e+000 -5.102941e+000  3.500000e+001
    endloop
  endfacet
  facet normal  3.397830e-001 -9.402962e-001 -1.976177e-002
    outer loop
      vertex  2.531175e+000 -4.633285e+000  3.898000e+001
      vertex  1.000000e+000 -5.102941e+000  3.500000e+001
      vertex  2.157415e+000 -3.949121e+000  0.000000e+000
    endloop
  endfacet
  facet normal -6.632395e-001  7.481533e-001 -1.949081e-002
    outer loop
      vertex -2.531175e+000  4.633285e+000  3.898000e+001
      vertex -2.157415e+000  3.949121e+000  0.000000e+000
      vertex -4.296397e+000  3.068412e+000  3.898000e+001
    endloop
  endfacet
  facet normal -6.900647e-001  7.234276e-001 -2.152145e-002
    outer loop
      vertex -4.296397e+000  3.068412e+000  3.898000e+001
      vertex -2.157415e+000  3.949121e+000  0.000000e+000
      vertex -3.842937e+000  2.341332e+000  0.000000e+000
    endloop
  endfacet
  facet normal -9.228970e-001  3.846298e-001 -1.791055e-002
    outer loop
      vertex -4.296397e+000  3.068412e+000  3.898000e+001
      vertex -3.842937e+000  2.341332e+000  0.000000e+000
      vertex -5.203880e+000  8.909576e-001  3.898000e+001
    endloop
  endfacet
  facet normal  2.278226e-001 -9.734755e-001 -2.103058e-002
    outer loop
      vertex  2.000000e+000 -4.886121e+000  3.898000e+001
      vertex  2.000000e+000 -4.908156e+000  4.000000e+001
      vertex  3.472556e-001 -5.207190e+000  3.593777e+001
    endloop
  endfacet
  facet normal  1.922631e-001 -9.813251e-001 -5.985130e-003
    outer loop
      vertex  3.472556e-001 -5.207190e+000  3.593777e+001
      vertex  2.000000e+000 -4.908156e+000  4.000000e+001
      vertex -1.168634e-014 -5.300000e+000  4.000000e+001
    endloop
  endfacet
  facet normal  5.942115e-003 -9.997329e-001 -2.233316e-002
    outer loop
      vertex  3.472556e-001 -5.207190e+000  3.593777e+001
      vertex -1.168634e-014 -5.300000e+000  4.000000e+001
      vertex -2.845362e-001 -5.211411e+000  3.595866e+001
    endloop
  endfacet
  facet normal  0.000000e+000  0.000000e+000  1.000000e+000
    outer loop
      vertex -2.000000e+000 -3.783740e+000  4.000000e+001
      vertex -2.000000e+000  3.783740e+000  4.000000e+001
      vertex -2.051846e+000  3.755878e+000  4.000000e+001
    endloop
  endfacet
  facet normal  0.000000e+000  0.000000e+000  1.000000e+000
    outer loop
      vertex -2.000000e+000 -3.783740e+000  4.000000e+001
      vertex -2.051846e+000  3.755878e+000  4.000000e+001
      vertex -3.688394e+000  2.170815e+000  4.000000e+001
    endloop
  endfacet
  facet normal  0.000000e+000  0.000000e+000  1.000000e+000
    outer loop
      vertex -2.000000e+000 -3.783740e+000  4.000000e+001
      vertex -3.688394e+000  2.170815e+000  4.000000e+001
      vertex -4.279699e+000 -2.942892e-002  4.000000e+001
    endloop
  endfacet
  facet normal  0.000000e+000  0.000000e+000  1.000000e+000
    outer loop
      vertex -2.000000e+000 -3.783740e+000  4.000000e+001
      vertex -4.279699e+000 -2.942892e-002  4.000000e+001
      vertex -3.658192e+000 -2.221333e+000  4.000000e+001
    endloop
  endfacet
  facet normal -1.000000e+000  0.000000e+000  0.000000e+000
    outer loop
      vertex -2.000000e+000  4.886121e+000  3.898000e+001
      vertex -2.000000e+000  4.694779e+000  3.956770e+001
      vertex -2.000000e+000  4.908156e+000  4.000000e+001
    endloop
  endfacet
  facet normal -1.000000e+000  0.000000e+000  0.000000e+000
    outer loop
      vertex -2.000000e+000  8.944272e+000  4.000000e+001
      vertex -2.000000e+000  8.314469e+000  4.344523e+001
      vertex -2.000000e+000  9.000000e+000  4.000155e+001
    endloop
  endfacet
  facet normal -1.000000e+000  -0.000000e+000  0.000000e+000
    outer loop
      vertex -2.000000e+000 -3.443792e+000  4.831506e+001
      vertex -2.000000e+000 -3.783740e+000  4.000000e+001
      vertex -2.000000e+000 -4.302269e+000  3.988551e+001
    endloop
  endfacet
  facet normal -1.000000e+000  -0.000000e+000  0.000000e+000
    outer loop
      vertex -2.000000e+000 -3.443792e+000  4.831506e+001
      vertex -2.000000e+000 -4.302269e+000  3.988551e+001
      vertex -2.000000e+000 -4.694779e+000  3.956770e+001
    endloop
  endfacet
  facet normal -1.000000e+000  -0.000000e+000  0.000000e+000
    outer loop
      vertex -2.000000e+000 -3.443792e+000  4.831506e+001
      vertex -2.000000e+000 -4.694779e+000  3.956770e+001
      vertex -2.000000e+000 -4.886121e+000  3.898000e+001
    endloop
  endfacet
  facet normal -1.000000e+000  0.000000e+000  0.000000e+000
    outer loop
      vertex -2.000000e+000 -3.443792e+000  4.831506e+001
      vertex -2.000000e+000 -4.886121e+000  3.898000e+001
      vertex -2.000000e+000 -4.908156e+000  4.000000e+001
    endloop
  endfacet
  facet normal -1.000000e+000  0.000000e+000  0.000000e+000
    outer loop
      vertex -2.000000e+000 -3.443792e+000  4.831506e+001
      vertex -2.000000e+000 -4.908156e+000  4.000000e+001
      vertex -2.000000e+000 -6.363411e+000  4.636451e+001
    endloop
  endfacet
  facet normal -1.000000e+000  0.000000e+000  0.000000e+000
    outer loop
      vertex -2.000000e+000  3.783740e+000  4.000000e+001
      vertex -2.000000e+000 -3.783740e+000  4.000000e+001
      vertex -2.000000e+000 -3.443792e+000  4.831506e+001
    endloop
  endfacet
  facet normal -1.000000e+000  0.000000e+000  0.000000e+000
    outer loop
      vertex -2.000000e+000  3.783740e+000  4.000000e+001
      vertex -2.000000e+000 -3.443792e+000  4.831506e+001
      vertex -2.000000e+000  9.325873e-015  4.900000e+001
    endloop
  endfacet
  facet normal -1.000000e+000  0.000000e+000  0.000000e+000
    outer loop
      vertex -2.000000e+000  3.783740e+000  4.000000e+001
      vertex -2.000000e+000  9.325873e-015  4.900000e+001
      vertex -2.000000e+000  3.443792e+000  4.831506e+001
    endloop
  endfacet
  facet normal -1.000000e+000  0.000000e+000  0.000000e+000
    outer loop
      vertex -2.000000e+000  3.783740e+000  4.000000e+001
      vertex -2.000000e+000  3.443792e+000  4.831506e+001
      vertex -2.000000e+000  6.363411e+000  4.636451e+001
    endloop
  endfacet
  facet normal -1.000000e+000  -0.000000e+000  -0.000000e+000
    outer loop
      vertex -2.000000e+000  6.363411e+000  4.636451e+001
      vertex -2.000000e+000  8.314469e+000  4.344523e+001
      vertex -2.000000e+000  8.944272e+000  4.000000e+001
    endloop
  endfacet
  facet normal -1.000000e+000  0.000000e+000  0.000000e+000
    outer loop
      vertex -2.000000e+000  6.363411e+000  4.636451e+001
      vertex -2.000000e+000  8.944272e+000  4.000000e+001
      vertex -2.000000e+000  4.908156e+000  4.000000e+001
    endloop
  endfacet
  facet normal -1.000000e+000  -0.000000e+000  0.000000e+000
    outer loop
      vertex -2.000000e+000  6.363411e+000  4.636451e+001
      vertex -2.000000e+000  4.908156e+000  4.000000e+001
      vertex -2.000000e+000  4.694779e+000  3.956770e+001
    endloop
  endfacet
  facet normal -1.000000e+000  0.000000e+000  0.000000e+000
    outer loop
      vertex -2.000000e+000  6.363411e+000  4.636451e+001
      vertex -2.000000e+000  4.694779e+000  3.956770e+001
      vertex -2.000000e+000  4.302269e+000  3.988551e+001
    endloop
  endfacet
  facet normal -9.999999e-001  0.000000e+000  0.000000e+000
    outer loop
      vertex -2.000000e+000  6.363411e+000  4.636451e+001
      vertex -2.000000e+000  4.302269e+000  3.988551e+001
      vertex -2.000000e+000  3.783740e+000  4.000000e+001
    endloop
  endfacet
  facet normal -1.000000e+000  0.000000e+000  0.000000e+000
    outer loop
      vertex -2.000000e+000 -6.363411e+000  4.636451e+001
      vertex -2.000000e+000 -4.908156e+000  4.000000e+001
      vertex -2.000000e+000 -8.314469e+000  4.344523e+001
    endloop
  endfacet
  facet normal -1.000000e+000  0.000000e+000  -0.000000e+000
    outer loop
      vertex -2.000000e+000 -8.314469e+000  4.344523e+001
      vertex -2.000000e+000 -4.908156e+000  4.000000e+001
      vertex -2.000000e+000 -8.944272e+000  4.000000e+001
    endloop
  endfacet
  facet normal -1.000000e+000  0.000000e+000  0.000000e+000
    outer loop
      vertex -2.000000e+000 -8.314469e+000  4.344523e+001
      vertex -2.000000e+000 -8.944272e+000  4.000000e+001
      vertex -2.000000e+000 -9.000000e+000  4.000155e+001
    endloop
  endfacet
  facet normal -1.240442e-001  2.308205e-001  9.650570e-001
    outer loop
      vertex -2.051846e+000  3.755878e+000  4.000000e+001
      vertex -2.000000e+000  3.783740e+000  4.000000e+001
      vertex -2.294320e+000  4.199726e+000  3.986267e+001
    endloop
  endfacet
  facet normal -1.491903e-001  2.131925e-001  9.655523e-001
    outer loop
      vertex -2.294320e+000  4.199726e+000  3.986267e+001
      vertex -2.000000e+000  3.783740e+000  4.000000e+001
      vertex -2.000000e+000  4.302269e+000  3.988551e+001
    endloop
  endfacet
  facet normal -2.831813e-001  6.572520e-001  6.984469e-001
    outer loop
      vertex -2.294320e+000  4.199726e+000  3.986267e+001
      vertex -2.000000e+000  4.302269e+000  3.988551e+001
      vertex -2.470199e+000  4.521669e+000  3.948841e+001
    endloop
  endfacet
  facet normal -3.409956e-001  5.915547e-001  7.306059e-001
    outer loop
      vertex -2.470199e+000  4.521669e+000  3.948841e+001
      vertex -2.000000e+000  4.302269e+000  3.988551e+001
      vertex -2.000000e+000  4.694779e+000  3.956770e+001
    endloop
  endfacet
  facet normal -3.708626e-001  8.967759e-001  2.413585e-001
    outer loop
      vertex -2.470199e+000  4.521669e+000  3.948841e+001
      vertex -2.000000e+000  4.694779e+000  3.956770e+001
      vertex -2.531175e+000  4.633285e+000  3.898000e+001
    endloop
  endfacet
  facet normal -4.123403e-001  8.662735e-001  2.820385e-001
    outer loop
      vertex -2.531175e+000  4.633285e+000  3.898000e+001
      vertex -2.000000e+000  4.694779e+000  3.956770e+001
      vertex -2.000000e+000  4.886121e+000  3.898000e+001
    endloop
  endfacet
  facet normal -3.224394e-001  8.665400e-002  9.426155e-001
    outer loop
      vertex -4.922319e+000  8.427513e-001  3.970000e+001
      vertex -4.279699e+000 -2.942892e-002  4.000000e+001
      vertex -3.688394e+000  2.170815e+000  4.000000e+001
    endloop
  endfacet
  facet normal -3.978389e-001  1.658048e-001  9.023486e-001
    outer loop
      vertex -4.922319e+000  8.427513e-001  3.970000e+001
      vertex -3.688394e+000  2.170815e+000  4.000000e+001
      vertex -4.063935e+000  2.902392e+000  3.970000e+001
    endloop
  endfacet
  facet normal -3.141183e-001 -8.906716e-002  9.451967e-001
    outer loop
      vertex -4.798004e+000 -1.385137e+000  3.970000e+001
      vertex -3.658192e+000 -2.221333e+000  4.000000e+001
      vertex -4.279699e+000 -2.942892e-002  4.000000e+001
    endloop
  endfacet
  facet normal -4.507014e-001 -2.514885e-002  8.923205e-001
    outer loop
      vertex -4.798004e+000 -1.385137e+000  3.970000e+001
      vertex -4.279699e+000 -2.942892e-002  4.000000e+001
      vertex -4.922319e+000  8.427513e-001  3.970000e+001
    endloop
  endfacet
  facet normal -2.279654e-001 -2.419411e-001  9.431311e-001
    outer loop
      vertex -2.000000e+000 -3.783740e+000  4.000000e+001
      vertex -3.658192e+000 -2.221333e+000  4.000000e+001
      vertex -3.715811e+000 -3.336496e+000  3.970000e+001
    endloop
  endfacet
  facet normal -3.957127e-001 -2.194563e-001  8.917682e-001
    outer loop
      vertex -3.715811e+000 -3.336496e+000  3.970000e+001
      vertex -3.658192e+000 -2.221333e+000  4.000000e+001
      vertex -4.798004e+000 -1.385137e+000  3.970000e+001
    endloop
  endfacet
  facet normal -2.478712e-001  2.559225e-001  9.343787e-001
    outer loop
      vertex -3.688394e+000  2.170815e+000  4.000000e+001
      vertex -2.051846e+000  3.755878e+000  4.000000e+001
      vertex -4.063935e+000  2.902392e+000  3.970000e+001
    endloop
  endfacet
  facet normal -2.183948e-001  1.775781e-001  9.595675e-001
    outer loop
      vertex -4.063935e+000  2.902392e+000  3.970000e+001
      vertex -2.051846e+000  3.755878e+000  4.000000e+001
      vertex -2.294320e+000  4.199726e+000  3.986267e+001
    endloop
  endfacet
  facet normal -4.668638e-001  5.499882e-001  6.924964e-001
    outer loop
      vertex -4.063935e+000  2.902392e+000  3.970000e+001
      vertex -2.294320e+000  4.199726e+000  3.986267e+001
      vertex -2.470199e+000  4.521669e+000  3.948841e+001
    endloop
  endfacet
  facet normal -1.000000e+000  0.000000e+000  0.000000e+000
    outer loop
      vertex -2.000000e+000 -4.302269e+000  3.988551e+001
      vertex -2.000000e+000 -3.783740e+000  4.000000e+001
      vertex -2.000000e+000 -4.694779e+000  3.956770e+001
    endloop
  endfacet
  facet normal -2.604019e-001 -4.139053e-001  8.722804e-001
    outer loop
      vertex -2.000000e+000 -4.694779e+000  3.956770e+001
      vertex -2.000000e+000 -3.783740e+000  4.000000e+001
      vertex -3.715811e+000 -3.336496e+000  3.970000e+001
    endloop
  endfacet
  facet normal -5.890141e-001 -7.684218e-001  2.501803e-001
    outer loop
      vertex -2.000000e+000 -4.694779e+000  3.956770e+001
      vertex -3.715811e+000 -3.336496e+000  3.970000e+001
      vertex -2.000000e+000 -4.886121e+000  3.898000e+001
    endloop
  endfacet
  facet normal -5.372254e-001 -7.624249e-001  3.606900e-001
    outer loop
      vertex -2.000000e+000 -4.886121e+000  3.898000e+001
      vertex -3.715811e+000 -3.336496e+000  3.970000e+001
      vertex -3.928359e+000 -3.527347e+000  3.898000e+001
    endloop
  endfacet
  facet normal -8.156499e-001 -4.523470e-001  3.606900e-001
    outer loop
      vertex -3.928359e+000 -3.527347e+000  3.898000e+001
      vertex -3.715811e+000 -3.336496e+000  3.970000e+001
      vertex -5.072455e+000 -1.464369e+000  3.898000e+001
    endloop
  endfacet
  facet normal -8.156499e-001 -4.523471e-001  3.606899e-001
    outer loop
      vertex -5.072455e+000 -1.464369e+000  3.898000e+001
      vertex -3.715811e+000 -3.336496e+000  3.970000e+001
      vertex -4.798004e+000 -1.385137e+000  3.970000e+001
    endloop
  endfacet
  facet normal -9.312372e-001 -5.196231e-002  3.606899e-001
    outer loop
      vertex -5.072455e+000 -1.464369e+000  3.898000e+001
      vertex -4.798004e+000 -1.385137e+000  3.970000e+001
      vertex -5.203880e+000  8.909576e-001  3.898000e+001
    endloop
  endfacet
  facet normal -9.312373e-001 -5.196246e-002  3.606896e-001
    outer loop
      vertex -5.203880e+000  8.909576e-001  3.898000e+001
      vertex -4.798004e+000 -1.385137e+000  3.970000e+001
      vertex -4.922319e+000  8.427513e-001  3.970000e+001
    endloop
  endfacet
  facet normal -8.609113e-001  3.587964e-001  3.606896e-001
    outer loop
      vertex -5.203880e+000  8.909576e-001  3.898000e+001
      vertex -4.922319e+000  8.427513e-001  3.970000e+001
      vertex -4.296397e+000  3.068412e+000  3.898000e+001
    endloop
  endfacet
  facet normal -8.609110e-001  3.587965e-001  3.606901e-001
    outer loop
      vertex -4.296397e+000  3.068412e+000  3.898000e+001
      vertex -4.922319e+000  8.427513e-001  3.970000e+001
      vertex -4.063935e+000  2.902392e+000  3.970000e+001
    endloop
  endfacet
  facet normal -6.187116e-001  6.979244e-001  3.606901e-001
    outer loop
      vertex -4.296397e+000  3.068412e+000  3.898000e+001
      vertex -4.063935e+000  2.902392e+000  3.970000e+001
      vertex -2.531175e+000  4.633285e+000  3.898000e+001
    endloop
  endfacet
  facet normal -6.773786e-001  6.973143e-001  2.343308e-001
    outer loop
      vertex -2.531175e+000  4.633285e+000  3.898000e+001
      vertex -4.063935e+000  2.902392e+000  3.970000e+001
      vertex -2.470199e+000  4.521669e+000  3.948841e+001
    endloop
  endfacet
  facet normal  0.000000e+000  -0.000000e+000  1.000000e+000
    outer loop
      vertex  2.000000e+000 -3.783740e+000  4.000000e+001
      vertex  2.051845e+000 -3.755878e+000  4.000000e+001
      vertex  3.688394e+000 -2.170815e+000  4.000000e+001
    endloop
  endfacet
  facet normal  0.000000e+000  -0.000000e+000  1.000000e+000
    outer loop
      vertex  2.000000e+000 -3.783740e+000  4.000000e+001
      vertex  3.688394e+000 -2.170815e+000  4.000000e+001
      vertex  4.279699e+000  2.942892e-002  4.000000e+001
    endloop
  endfacet
  facet normal  0.000000e+000  0.000000e+000  1.000000e+000
    outer loop
      vertex  2.000000e+000 -3.783740e+000  4.000000e+001
      vertex  4.279699e+000  2.942892e-002  4.000000e+001
      vertex  3.658192e+000  2.221333e+000  4.000000e+001
    endloop
  endfacet
  facet normal  0.000000e+000  0.000000e+000  1.000000e+000
    outer loop
      vertex  2.000000e+000 -3.783740e+000  4.000000e+001
      vertex  3.658192e+000  2.221333e+000  4.000000e+001
      vertex  2.000000e+000  3.783740e+000  4.000000e+001
    endloop
  endfacet
  facet normal  1.000000e+000  -0.000000e+000  0.000000e+000
    outer loop
      vertex  2.000000e+000  4.908156e+000  4.000000e+001
      vertex  2.000000e+000  4.694779e+000  3.956770e+001
      vertex  2.000000e+000  4.886121e+000  3.898000e+001
    endloop
  endfacet
  facet normal  1.000000e+000  0.000000e+000  0.000000e+000
    outer loop
      vertex  2.000000e+000  9.000000e+000  4.000155e+001
      vertex  2.000000e+000  8.314469e+000  4.344523e+001
      vertex  2.000000e+000  8.944272e+000  4.000000e+001
    endloop
  endfacet
  facet normal  1.000000e+000  -0.000000e+000  0.000000e+000
    outer loop
      vertex  2.000000e+000 -3.443792e+000  4.831506e+001
      vertex  2.000000e+000 -6.363411e+000  4.636451e+001
      vertex  2.000000e+000 -4.908156e+000  4.000000e+001
    endloop
  endfacet
  facet normal  1.000000e+000  -0.000000e+000  0.000000e+000
    outer loop
      vertex  2.000000e+000 -3.443792e+000  4.831506e+001
      vertex  2.000000e+000 -4.908156e+000  4.000000e+001
      vertex  2.000000e+000 -4.886121e+000  3.898000e+001
    endloop
  endfacet
  facet normal  1.000000e+000  0.000000e+000  0.000000e+000
    outer loop
      vertex  2.000000e+000 -3.443792e+000  4.831506e+001
      vertex  2.000000e+000 -4.886121e+000  3.898000e+001
      vertex  2.000000e+000 -4.694779e+000  3.956770e+001
    endloop
  endfacet
  facet normal  1.000000e+000  0.000000e+000  0.000000e+000
    outer loop
      vertex  2.000000e+000 -3.443792e+000  4.831506e+001
      vertex  2.000000e+000 -4.694779e+000  3.956770e+001
      vertex  2.000000e+000 -4.302269e+000  3.988551e+001
    endloop
  endfacet
  facet normal  1.000000e+000  0.000000e+000  0.000000e+000
    outer loop
      vertex  2.000000e+000 -3.443792e+000  4.831506e+001
      vertex  2.000000e+000 -4.302269e+000  3.988551e+001
      vertex  2.000000e+000 -3.783740e+000  4.000000e+001
    endloop
  endfacet
  facet normal  1.000000e+000  0.000000e+000  0.000000e+000
    outer loop
      vertex  2.000000e+000  3.783740e+000  4.000000e+001
      vertex  2.000000e+000  6.363411e+000  4.636451e+001
      vertex  2.000000e+000  3.443792e+000  4.831506e+001
    endloop
  endfacet
  facet normal  1.000000e+000  0.000000e+000  0.000000e+000
    outer loop
      vertex  2.000000e+000  3.783740e+000  4.000000e+001
      vertex  2.000000e+000  3.443792e+000  4.831506e+001
      vertex  2.000000e+000 -1.332268e-015  4.900000e+001
    endloop
  endfacet
  facet normal  1.000000e+000  0.000000e+000  0.000000e+000
    outer loop
      vertex  2.000000e+000  3.783740e+000  4.000000e+001
      vertex  2.000000e+000 -1.332268e-015  4.900000e+001
      vertex  2.000000e+000 -3.443792e+000  4.831506e+001
    endloop
  endfacet
  facet normal  1.000000e+000  0.000000e+000  0.000000e+000
    outer loop
      vertex  2.000000e+000  3.783740e+000  4.000000e+001
      vertex  2.000000e+000 -3.443792e+000  4.831506e+001
      vertex  2.000000e+000 -3.783740e+000  4.000000e+001
    endloop
  endfacet
  facet normal  9.999999e-001  -0.000000e+000  0.000000e+000
    outer loop
      vertex  2.000000e+000  6.363411e+000  4.636451e+001
      vertex  2.000000e+000  3.783740e+000  4.000000e+001
      vertex  2.000000e+000  4.302269e+000  3.988551e+001
    endloop
  endfacet
  facet normal  1.000000e+000  -0.000000e+000  0.000000e+000
    outer loop
      vertex  2.000000e+000  6.363411e+000  4.636451e+001
      vertex  2.000000e+000  4.302269e+000  3.988551e+001
      vertex  2.000000e+000  4.694779e+000  3.956770e+001
    endloop
  endfacet
  facet normal  1.000000e+000  0.000000e+000  0.000000e+000
    outer loop
      vertex  2.000000e+000  6.363411e+000  4.636451e+001
      vertex  2.000000e+000  4.694779e+000  3.956770e+001
      vertex  2.000000e+000  4.908156e+000  4.000000e+001
    endloop
  endfacet
  facet normal  1.000000e+000  0.000000e+000  0.000000e+000
    outer loop
      vertex  2.000000e+000  6.363411e+000  4.636451e+001
      vertex  2.000000e+000  4.908156e+000  4.000000e+001
      vertex  2.000000e+000  8.944272e+000  4.000000e+001
    endloop
  endfacet
  facet normal  1.000000e+000  0.000000e+000  0.000000e+000
    outer loop
      vertex  2.000000e+000  6.363411e+000  4.636451e+001
      vertex  2.000000e+000  8.944272e+000  4.000000e+001
      vertex  2.000000e+000  8.314469e+000  4.344523e+001
    endloop
  endfacet
  facet normal  1.000000e+000  0.000000e+000  0.000000e+000
    outer loop
      vertex  2.000000e+000 -4.908156e+000  4.000000e+001
      vertex  2.000000e+000 -6.363411e+000  4.636451e+001
      vertex  2.000000e+000 -8.944272e+000  4.000000e+001
    endloop
  endfacet
  facet normal  1.000000e+000  0.000000e+000  0.000000e+000
    outer loop
      vertex  2.000000e+000 -8.944272e+000  4.000000e+001
      vertex  2.000000e+000 -6.363411e+000  4.636451e+001
      vertex  2.000000e+000 -8.314469e+000  4.344523e+001
    endloop
  endfacet
  facet normal  1.000000e+000  0.000000e+000  0.000000e+000
    outer loop
      vertex  2.000000e+000 -8.944272e+000  4.000000e+001
      vertex  2.000000e+000 -8.314469e+000  4.344523e+001
      vertex  2.000000e+000 -9.000000e+000  4.000155e+001
    endloop
  endfacet
  facet normal  0.000000e+000  0.000000e+000 -1.000000e+000
    outer loop
      vertex  2.000000e+000 -4.908156e+000  4.000000e+001
      vertex  2.000000e+000 -8.944272e+000  4.000000e+001
      vertex -1.168634e-014 -5.300000e+000  4.000000e+001
    endloop
  endfacet
  facet normal  0.000000e+000  -0.000000e+000 -1.000000e+000
    outer loop
      vertex -1.168634e-014 -5.300000e+000  4.000000e+001
      vertex  2.000000e+000 -8.944272e+000  4.000000e+001
      vertex -2.000000e+000 -8.944272e+000  4.000000e+001
    endloop
  endfacet
  facet normal  0.000000e+000  0.000000e+000 -1.000000e+000
    outer loop
      vertex -1.168634e-014 -5.300000e+000  4.000000e+001
      vertex -2.000000e+000 -8.944272e+000  4.000000e+001
      vertex -2.000000e+000 -4.908156e+000  4.000000e+001
    endloop
  endfacet
  facet normal  0.000000e+000  0.000000e+000 -1.000000e+000
    outer loop
      vertex  2.000000e+000  8.944272e+000  4.000000e+001
      vertex  2.000000e+000  4.908156e+000  4.000000e+001
      vertex -2.000000e+000  8.944272e+000  4.000000e+001
    endloop
  endfacet
  facet normal  0.000000e+000  0.000000e+000 -1.000000e+000
    outer loop
      vertex -2.000000e+000  8.944272e+000  4.000000e+001
      vertex  2.000000e+000  4.908156e+000  4.000000e+001
      vertex  1.622603e-015  5.300000e+000  4.000000e+001
    endloop
  endfacet
  facet normal  -0.000000e+000  0.000000e+000 -1.000000e+000
    outer loop
      vertex -2.000000e+000  8.944272e+000  4.000000e+001
      vertex  1.622603e-015  5.300000e+000  4.000000e+001
      vertex -2.000000e+000  4.908156e+000  4.000000e+001
    endloop
  endfacet
  facet normal  1.240446e-001 -2.308202e-001  9.650570e-001
    outer loop
      vertex  2.051845e+000 -3.755878e+000  4.000000e+001
      vertex  2.000000e+000 -3.783740e+000  4.000000e+001
      vertex  2.294320e+000 -4.199726e+000  3.986267e+001
    endloop
  endfacet
  facet normal  1.491903e-001 -2.131925e-001  9.655523e-001
    outer loop
      vertex  2.294320e+000 -4.199726e+000  3.986267e+001
      vertex  2.000000e+000 -3.783740e+000  4.000000e+001
      vertex  2.000000e+000 -4.302269e+000  3.988551e+001
    endloop
  endfacet
  facet normal  2.831813e-001 -6.572520e-001  6.984469e-001
    outer loop
      vertex  2.294320e+000 -4.199726e+000  3.986267e+001
      vertex  2.000000e+000 -4.302269e+000  3.988551e+001
      vertex  2.470199e+000 -4.521669e+000  3.948841e+001
    endloop
  endfacet
  facet normal  3.409956e-001 -5.915547e-001  7.306059e-001
    outer loop
      vertex  2.470199e+000 -4.521669e+000  3.948841e+001
      vertex  2.000000e+000 -4.302269e+000  3.988551e+001
      vertex  2.000000e+000 -4.694779e+000  3.956770e+001
    endloop
  endfacet
  facet normal  3.708626e-001 -8.967759e-001  2.413585e-001
    outer loop
      vertex  2.470199e+000 -4.521669e+000  3.948841e+001
      vertex  2.000000e+000 -4.694779e+000  3.956770e+001
      vertex  2.531175e+000 -4.633285e+000  3.898000e+001
    endloop
  endfacet
  facet normal  4.123403e-001 -8.662735e-001  2.820385e-001
    outer loop
      vertex  2.531175e+000 -4.633285e+000  3.898000e+001
      vertex  2.000000e+000 -4.694779e+000  3.956770e+001
      vertex  2.000000e+000 -4.886121e+000  3.898000e+001
    endloop
  endfacet
  facet normal  3.224394e-001 -8.665400e-002  9.426155e-001
    outer loop
      vertex  4.922319e+000 -8.427513e-001  3.970000e+001
      vertex  4.279699e+000  2.942892e-002  4.000000e+001
      vertex  3.688394e+000 -2.170815e+000  4.000000e+001
    endloop
  endfacet
  facet normal  3.978389e-001 -1.658048e-001  9.023486e-001
    outer loop
      vertex  4.922319e+000 -8.427513e-001  3.970000e+001
      vertex  3.688394e+000 -2.170815e+000  4.000000e+001
      vertex  4.063935e+000 -2.902392e+000  3.970000e+001
    endloop
  endfacet
  facet normal  3.141183e-001  8.906716e-002  9.451967e-001
    outer loop
      vertex  4.798004e+000  1.385137e+000  3.970000e+001
      vertex  3.658192e+000  2.221333e+000  4.000000e+001
      vertex  4.279699e+000  2.942892e-002  4.000000e+001
    endloop
  endfacet
  facet normal  4.507014e-001  2.514885e-002  8.923205e-001
    outer loop
      vertex  4.798004e+000  1.385137e+000  3.970000e+001
      vertex  4.279699e+000  2.942892e-002  4.000000e+001
      vertex  4.922319e+000 -8.427513e-001  3.970000e+001
    endloop
  endfacet
  facet normal  2.279654e-001  2.419411e-001  9.431311e-001
    outer loop
      vertex  2.000000e+000  3.783740e+000  4.000000e+001
      vertex  3.658192e+000  2.221333e+000  4.000000e+001
      vertex  3.715811e+000  3.336496e+000  3.970000e+001
    endloop
  endfacet
  facet normal  3.957127e-001  2.194563e-001  8.917682e-001
    outer loop
      vertex  3.715811e+000  3.336496e+000  3.970000e+001
      vertex  3.658192e+000  2.221333e+000  4.000000e+001
      vertex  4.798004e+000  1.385137e+000  3.970000e+001
    endloop
  endfacet
  facet normal  2.478712e-001 -2.559225e-001  9.343787e-001
    outer loop
      vertex  3.688394e+000 -2.170815e+000  4.000000e+001
      vertex  2.051845e+000 -3.755878e+000  4.000000e+001
      vertex  4.063935e+000 -2.902392e+000  3.970000e+001
    endloop
  endfacet
  facet normal  2.183948e-001 -1.775781e-001  9.595675e-001
    outer loop
      vertex  4.063935e+000 -2.902392e+000  3.970000e+001
      vertex  2.051845e+000 -3.755878e+000  4.000000e+001
      vertex  2.294320e+000 -4.199726e+000  3.986267e+001
    endloop
  endfacet
  facet normal  4.668638e-001 -5.499882e-001  6.924964e-001
    outer loop
      vertex  4.063935e+000 -2.902392e+000  3.970000e+001
      vertex  2.294320e+000 -4.199726e+000  3.986267e+001
      vertex  2.470199e+000 -4.521669e+000  3.948841e+001
    endloop
  endfacet
  facet normal  1.000000e+000  0.000000e+000  0.000000e+000
    outer loop
      vertex  2.000000e+000  4.302269e+000  3.988551e+001
      vertex  2.000000e+000  3.783740e+000  4.000000e+001
      vertex  2.000000e+000  4.694779e+000  3.956770e+001
    endloop
  endfacet
  facet normal  2.604019e-001  4.139053e-001  8.722804e-001
    outer loop
      vertex  2.000000e+000  4.694779e+000  3.956770e+001
      vertex  2.000000e+000  3.783740e+000  4.000000e+001
      vertex  3.715811e+000  3.336496e+000  3.970000e+001
    endloop
  endfacet
  facet normal  5.890141e-001  7.684218e-001  2.501803e-001
    outer loop
      vertex  2.000000e+000  4.694779e+000  3.956770e+001
      vertex  3.715811e+000  3.336496e+000  3.970000e+001
      vertex  2.000000e+000  4.886121e+000  3.898000e+001
    endloop
  endfacet
  facet normal  5.372254e-001  7.624249e-001  3.606900e-001
    outer loop
      vertex  2.000000e+000  4.886121e+000  3.898000e+001
      vertex  3.715811e+000  3.336496e+000  3.970000e+001
      vertex  3.928359e+000  3.527347e+000  3.898000e+001
    endloop
  endfacet
  facet normal  8.156499e-001  4.523470e-001  3.606900e-001
    outer loop
      vertex  3.928359e+000  3.527347e+000  3.898000e+001
      vertex  3.715811e+000  3.336496e+000  3.970000e+001
      vertex  5.072455e+000  1.464369e+000  3.898000e+001
    endloop
  endfacet
  facet normal  8.156499e-001  4.523471e-001  3.606899e-001
    outer loop
      vertex  5.072455e+000  1.464369e+000  3.898000e+001
      vertex  3.715811e+000  3.336496e+000  3.970000e+001
      vertex  4.798004e+000  1.385137e+000  3.970000e+001
    endloop
  endfacet
  facet normal  9.312372e-001  5.196231e-002  3.606899e-001
    outer loop
      vertex  5.072455e+000  1.464369e+000  3.898000e+001
      vertex  4.798004e+000  1.385137e+000  3.970000e+001
      vertex  5.203880e+000 -8.909576e-001  3.898000e+001
    endloop
  endfacet
  facet normal  9.312373e-001  5.196246e-002  3.606896e-001
    outer loop
      vertex  5.203880e+000 -8.909576e-001  3.898000e+001
      vertex  4.798004e+000  1.385137e+000  3.970000e+001
      vertex  4.922319e+000 -8.427513e-001  3.970000e+001
    endloop
  endfacet
  facet normal  8.609113e-001 -3.587964e-001  3.606896e-001
    outer loop
      vertex  5.203880e+000 -8.909576e-001  3.898000e+001
      vertex  4.922319e+000 -8.427513e-001  3.970000e+001
      vertex  4.296397e+000 -3.068412e+000  3.898000e+001
    endloop
  endfacet
  facet normal  8.609110e-001 -3.587965e-001  3.606901e-001
    outer loop
      vertex  4.296397e+000 -3.068412e+000  3.898000e+001
      vertex  4.922319e+000 -8.427513e-001  3.970000e+001
      vertex  4.063935e+000 -2.902392e+000  3.970000e+001
    endloop
  endfacet
  facet normal  6.187116e-001 -6.979244e-001  3.606901e-001
    outer loop
      vertex  4.296397e+000 -3.068412e+000  3.898000e+001
      vertex  4.063935e+000 -2.902392e+000  3.970000e+001
      vertex  2.531175e+000 -4.633285e+000  3.898000e+001
    endloop
  endfacet
  facet normal  6.773786e-001 -6.973143e-001  2.343308e-001
    outer loop
      vertex  2.531175e+000 -4.633285e+000  3.898000e+001
      vertex  4.063935e+000 -2.902392e+000  3.970000e+001
      vertex  2.470199e+000 -4.521669e+000  3.948841e+001
    endloop
  endfacet
  facet normal -9.585851e-001  0.000000e+000 -2.848061e-001
    outer loop
      vertex  1.000000e+000  5.102941e+000  3.500000e+001
      vertex  1.000000e+000 -5.102941e+000  3.500000e+001
      vertex  8.377714e-001  5.143134e+000  3.554602e+001
    endloop
  endfacet
  facet normal -9.585851e-001  -0.000000e+000 -2.848061e-001
    outer loop
      vertex  8.377714e-001  5.143134e+000  3.554602e+001
      vertex  1.000000e+000 -5.102941e+000  3.500000e+001
      vertex  8.377714e-001 -5.143134e+000  3.554602e+001
    endloop
  endfacet
  facet normal -6.240516e-001  0.000000e+000 -7.813832e-001
    outer loop
      vertex  8.377714e-001  5.143134e+000  3.554602e+001
      vertex  8.377714e-001 -5.143134e+000  3.554602e+001
      vertex  3.472556e-001  5.207190e+000  3.593777e+001
    endloop
  endfacet
  facet normal -6.240515e-001  -0.000000e+000 -7.813832e-001
    outer loop
      vertex  3.472556e-001  5.207190e+000  3.593777e+001
      vertex  8.377714e-001 -5.143134e+000  3.554602e+001
      vertex  3.472556e-001 -5.207190e+000  3.593777e+001
    endloop
  endfacet
  facet normal -3.305152e-002  0.000000e+000 -9.994537e-001
    outer loop
      vertex  3.472556e-001  5.207190e+000  3.593777e+001
      vertex  3.472556e-001 -5.207190e+000  3.593777e+001
      vertex -2.845362e-001  5.211411e+000  3.595866e+001
    endloop
  endfacet
  facet normal -3.305152e-002  -0.000000e+000 -9.994536e-001
    outer loop
      vertex -2.845362e-001  5.211411e+000  3.595866e+001
      vertex  3.472556e-001 -5.207190e+000  3.593777e+001
      vertex -2.845362e-001 -5.211411e+000  3.595866e+001
    endloop
  endfacet
  facet normal  5.735673e-001  0.000000e+000 -8.191584e-001
    outer loop
      vertex -2.845362e-001  5.211411e+000  3.595866e+001
      vertex -2.845362e-001 -5.211411e+000  3.595866e+001
      vertex -8.035204e-001  5.149594e+000  3.559528e+001
    endloop
  endfacet
  facet normal  5.735673e-001  0.000000e+000 -8.191584e-001
    outer loop
      vertex -8.035204e-001  5.149594e+000  3.559528e+001
      vertex -2.845362e-001 -5.211411e+000  3.595866e+001
      vertex -8.035204e-001 -5.149594e+000  3.559528e+001
    endloop
  endfacet
  facet normal  9.496104e-001  0.000000e+000 -3.134329e-001
    outer loop
      vertex -8.035204e-001  5.149594e+000  3.559528e+001
      vertex -8.035204e-001 -5.149594e+000  3.559528e+001
      vertex -1.000000e+000  5.102941e+000  3.500000e+001
    endloop
  endfacet
  facet normal  9.496104e-001  0.000000e+000 -3.134329e-001
    outer loop
      vertex -1.000000e+000  5.102941e+000  3.500000e+001
      vertex -8.035204e-001 -5.149594e+000  3.559528e+001
      vertex -1.000000e+000 -5.102941e+000  3.500000e+001
    endloop
  endfacet
  facet normal  9.586781e-001  -0.000000e+000  2.844931e-001
    outer loop
      vertex -1.000000e+000  5.102941e+000  3.500000e+001
      vertex -1.000000e+000 -5.102941e+000  3.500000e+001
      vertex -8.381284e-001  5.120957e+000  3.445453e+001
    endloop
  endfacet
  facet normal  9.586781e-001  0.000000e+000  2.844930e-001
    outer loop
      vertex -8.381284e-001  5.120957e+000  3.445453e+001
      vertex -1.000000e+000 -5.102941e+000  3.500000e+001
      vertex -8.381284e-001 -5.120957e+000  3.445453e+001
    endloop
  endfacet
  facet normal  6.242611e-001  -0.000000e+000  7.812157e-001
    outer loop
      vertex -8.381284e-001  5.120957e+000  3.445453e+001
      vertex -8.381284e-001 -5.120957e+000  3.445453e+001
      vertex -3.471424e-001  5.169601e+000  3.406219e+001
    endloop
  endfacet
  facet normal  6.242611e-001  0.000000e+000  7.812158e-001
    outer loop
      vertex -3.471424e-001  5.169601e+000  3.406219e+001
      vertex -8.381284e-001 -5.120957e+000  3.445453e+001
      vertex -3.471424e-001 -5.169601e+000  3.406219e+001
    endloop
  endfacet
  facet normal  3.307099e-002  -0.000000e+000  9.994529e-001
    outer loop
      vertex -3.471424e-001  5.169601e+000  3.406219e+001
      vertex -3.471424e-001 -5.169601e+000  3.406219e+001
      vertex  2.843924e-001  5.173014e+000  3.404129e+001
    endloop
  endfacet
  facet normal  3.307099e-002  0.000000e+000  9.994529e-001
    outer loop
      vertex  2.843924e-001  5.173014e+000  3.404129e+001
      vertex -3.471424e-001 -5.169601e+000  3.406219e+001
      vertex  2.843924e-001 -5.173014e+000  3.404129e+001
    endloop
  endfacet
  facet normal -5.732591e-001  0.000000e+000  8.193741e-001
    outer loop
      vertex  2.843924e-001  5.173014e+000  3.404129e+001
      vertex  2.843924e-001 -5.173014e+000  3.404129e+001
      vertex  8.031598e-001  5.125540e+000  3.440424e+001
    endloop
  endfacet
  facet normal -5.732591e-001  0.000000e+000  8.193741e-001
    outer loop
      vertex  8.031598e-001  5.125540e+000  3.440424e+001
      vertex  2.843924e-001 -5.173014e+000  3.404129e+001
      vertex  8.031598e-001 -5.125540e+000  3.440424e+001
    endloop
  endfacet
  facet normal -9.495157e-001  0.000000e+000  3.137195e-001
    outer loop
      vertex  8.031598e-001  5.125540e+000  3.440424e+001
      vertex  8.031598e-001 -5.125540e+000  3.440424e+001
      vertex  1.000000e+000  5.102941e+000  3.500000e+001
    endloop
  endfacet
  facet normal -9.495158e-001  0.000000e+000  3.137195e-001
    outer loop
      vertex  1.000000e+000  5.102941e+000  3.500000e+001
      vertex  8.031598e-001 -5.125540e+000  3.440424e+001
      vertex  1.000000e+000 -5.102941e+000  3.500000e+001
    endloop
  endfacet
  facet normal  0.000000e+000 -9.571581e-001  2.895657e-001
    outer loop
      vertex -1.000000e+000 -9.938080e+000  4.111111e+001
      vertex  1.000000e+000 -9.938080e+000  4.111111e+001
      vertex -1.000000e+000 -8.887410e+000  4.458410e+001
    endloop
  endfacet
  facet normal  0.000000e+000 -9.571581e-001  2.895657e-001
    outer loop
      vertex -1.000000e+000 -8.887410e+000  4.458410e+001
      vertex  1.000000e+000 -9.938080e+000  4.111111e+001
      vertex  1.000000e+000 -8.887410e+000  4.458410e+001
    endloop
  endfacet
  facet normal  0.000000e+000 -7.908274e-001  6.120391e-001
    outer loop
      vertex -1.000000e+000 -8.887410e+000  4.458410e+001
      vertex  1.000000e+000 -8.887410e+000  4.458410e+001
      vertex -1.000000e+000 -6.666667e+000  4.745356e+001
    endloop
  endfacet
  facet normal  0.000000e+000 -7.908274e-001  6.120391e-001
    outer loop
      vertex -1.000000e+000 -6.666667e+000  4.745356e+001
      vertex  1.000000e+000 -8.887410e+000  4.458410e+001
      vertex  1.000000e+000 -6.666667e+000  4.745356e+001
    endloop
  endfacet
  facet normal  0.000000e+000 -5.203800e-001  8.539347e-001
    outer loop
      vertex -1.000000e+000 -6.666667e+000  4.745356e+001
      vertex  1.000000e+000 -6.666667e+000  4.745356e+001
      vertex -1.000000e+000 -3.568221e+000  4.934172e+001
    endloop
  endfacet
  facet normal  0.000000e+000 -5.203800e-001  8.539347e-001
    outer loop
      vertex -1.000000e+000 -3.568221e+000  4.934172e+001
      vertex  1.000000e+000 -6.666667e+000  4.745356e+001
      vertex  1.000000e+000 -3.568221e+000  4.934172e+001
    endloop
  endfacet
  facet normal  0.000000e+000 -1.814215e-001  9.834055e-001
    outer loop
      vertex -1.000000e+000 -3.568221e+000  4.934172e+001
      vertex  1.000000e+000 -3.568221e+000  4.934172e+001
      vertex -1.000000e+000  2.832749e-015  5.000000e+001
    endloop
  endfacet
  facet normal -2.014183e-016 -1.814215e-001  9.834055e-001
    outer loop
      vertex -1.000000e+000  2.832749e-015  5.000000e+001
      vertex  1.000000e+000 -3.568221e+000  4.934172e+001
      vertex  1.000000e+000  6.123032e-016  5.000000e+001
    endloop
  endfacet
  facet normal  2.014183e-016  1.814215e-001  9.834055e-001
    outer loop
      vertex -1.000000e+000  2.832749e-015  5.000000e+001
      vertex  1.000000e+000  6.123032e-016  5.000000e+001
      vertex -1.000000e+000  3.568221e+000  4.934172e+001
    endloop
  endfacet
  facet normal  -0.000000e+000  1.814215e-001  9.834055e-001
    outer loop
      vertex -1.000000e+000  3.568221e+000  4.934172e+001
      vertex  1.000000e+000  6.123032e-016  5.000000e+001
      vertex  1.000000e+000  3.568221e+000  4.934172e+001
    endloop
  endfacet
  facet normal  0.000000e+000  5.203800e-001  8.539347e-001
    outer loop
      vertex -1.000000e+000  3.568221e+000  4.934172e+001
      vertex  1.000000e+000  3.568221e+000  4.934172e+001
      vertex -1.000000e+000  6.666667e+000  4.745356e+001
    endloop
  endfacet
  facet normal  -0.000000e+000  5.203800e-001  8.539347e-001
    outer loop
      vertex -1.000000e+000  6.666667e+000  4.745356e+001
      vertex  1.000000e+000  3.568221e+000  4.934172e+001
      vertex  1.000000e+000  6.666667e+000  4.745356e+001
    endloop
  endfacet
  facet normal  0.000000e+000  7.908274e-001  6.120391e-001
    outer loop
      vertex -1.000000e+000  6.666667e+000  4.745356e+001
      vertex  1.000000e+000  6.666667e+000  4.745356e+001
      vertex -1.000000e+000  8.887410e+000  4.458410e+001
    endloop
  endfacet
  facet normal  -0.000000e+000  7.908274e-001  6.120391e-001
    outer loop
      vertex -1.000000e+000  8.887410e+000  4.458410e+001
      vertex  1.000000e+000  6.666667e+000  4.745356e+001
      vertex  1.000000e+000  8.887410e+000  4.458410e+001
    endloop
  endfacet
  facet normal  0.000000e+000  9.571581e-001  2.895657e-001
    outer loop
      vertex -1.000000e+000  8.887410e+000  4.458410e+001
      vertex  1.000000e+000  8.887410e+000  4.458410e+001
      vertex -1.000000e+000  9.938080e+000  4.111111e+001
    endloop
  endfacet
  facet normal  -0.000000e+000  9.571581e-001  2.895657e-001
    outer loop
      vertex -1.000000e+000  9.938080e+000  4.111111e+001
      vertex  1.000000e+000  8.887410e+000  4.458410e+001
      vertex  1.000000e+000  9.938080e+000  4.111111e+001
    endloop
  endfacet
  facet normal -2.783685e-001  7.595695e-001  5.878480e-001
    outer loop
      vertex -1.707107e+000  6.863369e+000  4.686456e+001
      vertex -1.000000e+000  6.666667e+000  4.745356e+001
      vertex -1.000000e+000  8.887410e+000  4.458410e+001
    endloop
  endfacet
  facet normal -5.067503e-001  7.167524e-001  4.790305e-001
    outer loop
      vertex -1.707107e+000  6.863369e+000  4.686456e+001
      vertex -1.000000e+000  8.887410e+000  4.458410e+001
      vertex -1.707107e+000  8.967716e+000  4.371591e+001
    endloop
  endfacet
  facet normal -3.247382e-001  4.921775e-001  8.076549e-001
    outer loop
      vertex -1.707107e+000  3.714362e+000  4.896836e+001
      vertex -1.000000e+000  3.568221e+000  4.934172e+001
      vertex -1.000000e+000  6.666667e+000  4.745356e+001
    endloop
  endfacet
  facet normal -4.738485e-001  4.891908e-001  7.322293e-001
    outer loop
      vertex -1.707107e+000  3.714362e+000  4.896836e+001
      vertex -1.000000e+000  6.666667e+000  4.745356e+001
      vertex -1.707107e+000  6.863369e+000  4.686456e+001
    endloop
  endfacet
  facet normal -2.783685e-001 -7.595695e-001  5.878480e-001
    outer loop
      vertex -1.707107e+000 -6.863369e+000  4.686456e+001
      vertex -1.000000e+000 -8.887410e+000  4.458410e+001
      vertex -1.000000e+000 -6.666667e+000  4.745356e+001
    endloop
  endfacet
  facet normal -4.738485e-001 -4.891908e-001  7.322293e-001
    outer loop
      vertex -1.707107e+000 -6.863369e+000  4.686456e+001
      vertex -1.000000e+000 -6.666667e+000  4.745356e+001
      vertex -1.707107e+000 -3.714362e+000  4.896836e+001
    endloop
  endfacet
  facet normal -5.547172e-001 -8.132085e-001  1.760141e-001
    outer loop
      vertex -1.156726e+000 -9.942786e+000  4.094551e+001
      vertex -1.707107e+000 -8.967716e+000  4.371591e+001
      vertex -1.714384e+000 -9.693860e+000  4.033810e+001
    endloop
  endfacet
  facet normal -9.848007e-001 -1.703456e-001  3.391061e-002
    outer loop
      vertex -2.000000e+000 -9.000000e+000  4.000155e+001
      vertex -1.936507e+000 -9.350234e+000  4.008611e+001
      vertex -2.000000e+000 -8.314469e+000  4.344523e+001
    endloop
  endfacet
  facet normal -9.848007e-001  1.703456e-001  3.391061e-002
    outer loop
      vertex -2.000000e+000  9.000000e+000  4.000155e+001
      vertex -2.000000e+000  8.314469e+000  4.344523e+001
      vertex -1.936507e+000  9.350234e+000  4.008611e+001
    endloop
  endfacet
  facet normal -2.396318e-001  9.292703e-001  2.811289e-001
    outer loop
      vertex -1.000000e+000  8.887410e+000  4.458410e+001
      vertex -1.000000e+000  9.938080e+000  4.111111e+001
      vertex -1.707107e+000  8.967716e+000  4.371591e+001
    endloop
  endfacet
  facet normal -2.615122e-001  9.255502e-001  2.738033e-001
    outer loop
      vertex -1.707107e+000  8.967716e+000  4.371591e+001
      vertex -1.000000e+000  9.938080e+000  4.111111e+001
      vertex -1.156726e+000  9.942786e+000  4.094551e+001
    endloop
  endfacet
  facet normal -5.547172e-001  8.132085e-001  1.760141e-001
    outer loop
      vertex -1.707107e+000  8.967716e+000  4.371591e+001
      vertex -1.156726e+000  9.942786e+000  4.094551e+001
      vertex -1.714384e+000  9.693860e+000  4.033810e+001
    endloop
  endfacet
  facet normal -2.615122e-001 -9.255502e-001  2.738033e-001
    outer loop
      vertex -1.156726e+000 -9.942786e+000  4.094551e+001
      vertex -1.000000e+000 -9.938080e+000  4.111111e+001
      vertex -1.707107e+000 -8.967716e+000  4.371591e+001
    endloop
  endfacet
  facet normal -2.396318e-001 -9.292703e-001  2.811289e-001
    outer loop
      vertex -1.707107e+000 -8.967716e+000  4.371591e+001
      vertex -1.000000e+000 -9.938080e+000  4.111111e+001
      vertex -1.000000e+000 -8.887410e+000  4.458410e+001
    endloop
  endfacet
  facet normal -5.067503e-001 -7.167524e-001  4.790305e-001
    outer loop
      vertex -1.707107e+000 -8.967716e+000  4.371591e+001
      vertex -1.000000e+000 -8.887410e+000  4.458410e+001
      vertex -1.707107e+000 -6.863369e+000  4.686456e+001
    endloop
  endfacet
  facet normal -8.687024e-001  4.838829e-001  1.058939e-001
    outer loop
      vertex -1.714384e+000  9.693860e+000  4.033810e+001
      vertex -1.936507e+000  9.350234e+000  4.008611e+001
      vertex -1.707107e+000  8.967716e+000  4.371591e+001
    endloop
  endfacet
  facet normal -9.225976e-001  3.732035e-001  9.763637e-002
    outer loop
      vertex -1.707107e+000  8.967716e+000  4.371591e+001
      vertex -1.936507e+000  9.350234e+000  4.008611e+001
      vertex -2.000000e+000  8.314469e+000  4.344523e+001
    endloop
  endfacet
  facet normal -9.212152e-001  3.234627e-001  2.161813e-001
    outer loop
      vertex -1.707107e+000  8.967716e+000  4.371591e+001
      vertex -2.000000e+000  8.314469e+000  4.344523e+001
      vertex -1.707107e+000  6.863369e+000  4.686456e+001
    endloop
  endfacet
  facet normal -9.212154e-001  3.234622e-001  2.161812e-001
    outer loop
      vertex -1.707107e+000  6.863369e+000  4.686456e+001
      vertex -2.000000e+000  8.314469e+000  4.344523e+001
      vertex -2.000000e+000  6.363411e+000  4.636451e+001
    endloop
  endfacet
  facet normal -9.212155e-001  2.161249e-001  3.234995e-001
    outer loop
      vertex -1.707107e+000  6.863369e+000  4.686456e+001
      vertex -2.000000e+000  6.363411e+000  4.636451e+001
      vertex -1.707107e+000  3.714362e+000  4.896836e+001
    endloop
  endfacet
  facet normal -9.212152e-001  2.161255e-001  3.235001e-001
    outer loop
      vertex -1.707107e+000  3.714362e+000  4.896836e+001
      vertex -2.000000e+000  6.363411e+000  4.636451e+001
      vertex -2.000000e+000  3.443792e+000  4.831506e+001
    endloop
  endfacet
  facet normal -9.212152e-001  7.589244e-002  3.815795e-001
    outer loop
      vertex -1.707107e+000  3.714362e+000  4.896836e+001
      vertex -2.000000e+000  3.443792e+000  4.831506e+001
      vertex -1.707107e+000  9.769963e-015  4.970711e+001
    endloop
  endfacet
  facet normal -9.212152e-001  7.589240e-002  3.815794e-001
    outer loop
      vertex -1.707107e+000  9.769963e-015  4.970711e+001
      vertex -2.000000e+000  3.443792e+000  4.831506e+001
      vertex -2.000000e+000  9.325873e-015  4.900000e+001
    endloop
  endfacet
  facet normal -9.212152e-001 -7.589242e-002  3.815794e-001
    outer loop
      vertex -1.707107e+000  9.769963e-015  4.970711e+001
      vertex -2.000000e+000  9.325873e-015  4.900000e+001
      vertex -1.707107e+000 -3.714362e+000  4.896836e+001
    endloop
  endfacet
  facet normal -9.212152e-001 -7.589243e-002  3.815795e-001
    outer loop
      vertex -1.707107e+000 -3.714362e+000  4.896836e+001
      vertex -2.000000e+000  9.325873e-015  4.900000e+001
      vertex -2.000000e+000 -3.443792e+000  4.831506e+001
    endloop
  endfacet
  facet normal -9.212152e-001 -2.161254e-001  3.235002e-001
    outer loop
      vertex -1.707107e+000 -3.714362e+000  4.896836e+001
      vertex -2.000000e+000 -3.443792e+000  4.831506e+001
      vertex -1.707107e+000 -6.863369e+000  4.686456e+001
    endloop
  endfacet
  facet normal -9.212155e-001 -2.161251e-001  3.234994e-001
    outer loop
      vertex -1.707107e+000 -6.863369e+000  4.686456e+001
      vertex -2.000000e+000 -3.443792e+000  4.831506e+001
      vertex -2.000000e+000 -6.363411e+000  4.636451e+001
    endloop
  endfacet
  facet normal -9.212154e-001 -3.234623e-001  2.161811e-001
    outer loop
      vertex -1.707107e+000 -6.863369e+000  4.686456e+001
      vertex -2.000000e+000 -6.363411e+000  4.636451e+001
      vertex -1.707107e+000 -8.967716e+000  4.371591e+001
    endloop
  endfacet
  facet normal -9.212152e-001 -3.234626e-001  2.161814e-001
    outer loop
      vertex -1.707107e+000 -8.967716e+000  4.371591e+001
      vertex -2.000000e+000 -6.363411e+000  4.636451e+001
      vertex -2.000000e+000 -8.314469e+000  4.344523e+001
    endloop
  endfacet
  facet normal -9.217458e-001 -3.787203e-001  8.340093e-002
    outer loop
      vertex -1.707107e+000 -8.967716e+000  4.371591e+001
      vertex -2.000000e+000 -8.314469e+000  4.344523e+001
      vertex -1.714384e+000 -9.693860e+000  4.033810e+001
    endloop
  endfacet
  facet normal -8.731577e-001 -4.702006e-001  1.284794e-001
    outer loop
      vertex -1.714384e+000 -9.693860e+000  4.033810e+001
      vertex -2.000000e+000 -8.314469e+000  4.344523e+001
      vertex -1.936507e+000 -9.350234e+000  4.008611e+001
    endloop
  endfacet
  facet normal -4.340219e-001  1.634430e-001  8.859522e-001
    outer loop
      vertex -1.000000e+000  3.568221e+000  4.934172e+001
      vertex -1.707107e+000  3.714362e+000  4.896836e+001
      vertex -1.000000e+000  2.832749e-015  5.000000e+001
    endloop
  endfacet
  facet normal -3.763812e-001  1.807250e-001  9.086669e-001
    outer loop
      vertex -1.000000e+000  2.832749e-015  5.000000e+001
      vertex -1.707107e+000  3.714362e+000  4.896836e+001
      vertex -1.707107e+000  9.769963e-015  4.970711e+001
    endloop
  endfacet
  facet normal -3.772424e-001 -1.680171e-001  9.107462e-001
    outer loop
      vertex -1.000000e+000  2.832749e-015  5.000000e+001
      vertex -1.707107e+000  9.769963e-015  4.970711e+001
      vertex -1.000000e+000 -3.568221e+000  4.934172e+001
    endloop
  endfacet
  facet normal -4.309418e-001 -1.760267e-001  8.850445e-001
    outer loop
      vertex -1.000000e+000 -3.568221e+000  4.934172e+001
      vertex -1.707107e+000  9.769963e-015  4.970711e+001
      vertex -1.707107e+000 -3.714362e+000  4.896836e+001
    endloop
  endfacet
  facet normal -3.247382e-001 -4.921775e-001  8.076549e-001
    outer loop
      vertex -1.000000e+000 -3.568221e+000  4.934172e+001
      vertex -1.707107e+000 -3.714362e+000  4.896836e+001
      vertex -1.000000e+000 -6.666667e+000  4.745356e+001
    endloop
  endfacet
  facet normal  0.000000e+000 -9.995964e-001  2.840875e-002
    outer loop
      vertex  1.000000e+000 -9.938080e+000  4.111111e+001
      vertex -1.000000e+000 -9.938080e+000  4.111111e+001
      vertex  1.156726e+000 -9.942786e+000  4.094551e+001
    endloop
  endfacet
  facet normal  0.000000e+000 -9.995965e-001  2.840875e-002
    outer loop
      vertex  1.156726e+000 -9.942786e+000  4.094551e+001
      vertex -1.000000e+000 -9.938080e+000  4.111111e+001
      vertex -1.156726e+000 -9.942786e+000  4.094551e+001
    endloop
  endfacet
  facet normal  0.000000e+000 -9.253127e-001 -3.792050e-001
    outer loop
      vertex  1.156726e+000 -9.942786e+000  4.094551e+001
      vertex -1.156726e+000 -9.942786e+000  4.094551e+001
      vertex  1.714384e+000 -9.693860e+000  4.033810e+001
    endloop
  endfacet
  facet normal  -0.000000e+000 -9.253127e-001 -3.792050e-001
    outer loop
      vertex  1.714384e+000 -9.693860e+000  4.033810e+001
      vertex -1.156726e+000 -9.942786e+000  4.094551e+001
      vertex -1.714384e+000 -9.693860e+000  4.033810e+001
    endloop
  endfacet
  facet normal  0.000000e+000 -5.913560e-001 -8.064105e-001
    outer loop
      vertex  1.714384e+000 -9.693860e+000  4.033810e+001
      vertex -1.714384e+000 -9.693860e+000  4.033810e+001
      vertex  1.936507e+000 -9.350234e+000  4.008611e+001
    endloop
  endfacet
  facet normal  -0.000000e+000 -5.913560e-001 -8.064105e-001
    outer loop
      vertex  1.936507e+000 -9.350234e+000  4.008611e+001
      vertex -1.714384e+000 -9.693860e+000  4.033810e+001
      vertex -1.936507e+000 -9.350234e+000  4.008611e+001
    endloop
  endfacet
  facet normal  0.000000e+000 -2.346860e-001 -9.720713e-001
    outer loop
      vertex  1.936507e+000 -9.350234e+000  4.008611e+001
      vertex -1.936507e+000 -9.350234e+000  4.008611e+001
      vertex  2.000000e+000 -9.000000e+000  4.000155e+001
    endloop
  endfacet
  facet normal  -0.000000e+000 -2.346860e-001 -9.720712e-001
    outer loop
      vertex  2.000000e+000 -9.000000e+000  4.000155e+001
      vertex -1.936507e+000 -9.350234e+000  4.008611e+001
      vertex -2.000000e+000 -9.000000e+000  4.000155e+001
    endloop
  endfacet
  facet normal  0.000000e+000 -2.784921e-002 -9.996121e-001
    outer loop
      vertex  2.000000e+000 -9.000000e+000  4.000155e+001
      vertex -2.000000e+000 -9.000000e+000  4.000155e+001
      vertex  2.000000e+000 -8.944272e+000  4.000000e+001
    endloop
  endfacet
  facet normal  -0.000000e+000 -2.784921e-002 -9.996121e-001
    outer loop
      vertex  2.000000e+000 -8.944272e+000  4.000000e+001
      vertex -2.000000e+000 -9.000000e+000  4.000155e+001
      vertex -2.000000e+000 -8.944272e+000  4.000000e+001
    endloop
  endfacet
  facet normal  5.067503e-001  7.167524e-001  4.790305e-001
    outer loop
      vertex  1.000000e+000  8.887410e+000  4.458410e+001
      vertex  1.707107e+000  6.863369e+000  4.686456e+001
      vertex  1.707107e+000  8.967716e+000  4.371591e+001
    endloop
  endfacet
  facet normal  4.738485e-001  4.891908e-001  7.322293e-001
    outer loop
      vertex  1.000000e+000  6.666667e+000  4.745356e+001
      vertex  1.707107e+000  3.714362e+000  4.896836e+001
      vertex  1.707107e+000  6.863369e+000  4.686456e+001
    endloop
  endfacet
  facet normal  2.783685e-001  7.595695e-001  5.878480e-001
    outer loop
      vertex  1.000000e+000  6.666667e+000  4.745356e+001
      vertex  1.707107e+000  6.863369e+000  4.686456e+001
      vertex  1.000000e+000  8.887410e+000  4.458410e+001
    endloop
  endfacet
  facet normal  3.247382e-001  4.921775e-001  8.076549e-001
    outer loop
      vertex  1.000000e+000  3.568221e+000  4.934172e+001
      vertex  1.707107e+000  3.714362e+000  4.896836e+001
      vertex  1.000000e+000  6.666667e+000  4.745356e+001
    endloop
  endfacet
  facet normal  4.738485e-001 -4.891908e-001  7.322293e-001
    outer loop
      vertex  1.000000e+000 -6.666667e+000  4.745356e+001
      vertex  1.707107e+000 -6.863369e+000  4.686456e+001
      vertex  1.707107e+000 -3.714362e+000  4.896836e+001
    endloop
  endfacet
  facet normal  2.783685e-001 -7.595695e-001  5.878480e-001
    outer loop
      vertex  1.000000e+000 -8.887410e+000  4.458410e+001
      vertex  1.707107e+000 -6.863369e+000  4.686456e+001
      vertex  1.000000e+000 -6.666667e+000  4.745356e+001
    endloop
  endfacet
  facet normal  8.687024e-001  4.838829e-001  1.058939e-001
    outer loop
      vertex  1.707107e+000  8.967716e+000  4.371591e+001
      vertex  1.936507e+000  9.350234e+000  4.008611e+001
      vertex  1.714384e+000  9.693860e+000  4.033810e+001
    endloop
  endfacet
  facet normal  8.687024e-001 -4.838829e-001  1.058939e-001
    outer loop
      vertex  1.707107e+000 -8.967716e+000  4.371591e+001
      vertex  1.714384e+000 -9.693860e+000  4.033810e+001
      vertex  1.936507e+000 -9.350234e+000  4.008611e+001
    endloop
  endfacet
  facet normal  9.840608e-001 -1.593299e-001  7.898226e-002
    outer loop
      vertex  1.707107e+000 -8.967716e+000  4.371591e+001
      vertex  1.936507e+000 -9.350234e+000  4.008611e+001
      vertex  2.000000e+000 -9.000000e+000  4.000155e+001
    endloop
  endfacet
  facet normal  9.212152e-001 -3.815664e-001  7.595820e-002
    outer loop
      vertex  1.707107e+000 -8.967716e+000  4.371591e+001
      vertex  2.000000e+000 -9.000000e+000  4.000155e+001
      vertex  2.000000e+000 -8.314469e+000  4.344523e+001
    endloop
  endfacet
  facet normal  9.212152e-001 -3.234626e-001  2.161814e-001
    outer loop
      vertex  1.707107e+000 -8.967716e+000  4.371591e+001
      vertex  2.000000e+000 -8.314469e+000  4.344523e+001
      vertex  2.000000e+000 -6.363411e+000  4.636451e+001
    endloop
  endfacet
  facet normal  9.212154e-001 -3.234623e-001  2.161811e-001
    outer loop
      vertex  1.707107e+000 -8.967716e+000  4.371591e+001
      vertex  2.000000e+000 -6.363411e+000  4.636451e+001
      vertex  1.707107e+000 -6.863369e+000  4.686456e+001
    endloop
  endfacet
  facet normal  5.067503e-001 -7.167524e-001  4.790305e-001
    outer loop
      vertex  1.707107e+000 -8.967716e+000  4.371591e+001
      vertex  1.707107e+000 -6.863369e+000  4.686456e+001
      vertex  1.000000e+000 -8.887410e+000  4.458410e+001
    endloop
  endfacet
  facet normal  2.396318e-001 -9.292703e-001  2.811289e-001
    outer loop
      vertex  1.707107e+000 -8.967716e+000  4.371591e+001
      vertex  1.000000e+000 -8.887410e+000  4.458410e+001
      vertex  1.000000e+000 -9.938080e+000  4.111111e+001
    endloop
  endfacet
  facet normal  2.615122e-001 -9.255502e-001  2.738033e-001
    outer loop
      vertex  1.707107e+000 -8.967716e+000  4.371591e+001
      vertex  1.000000e+000 -9.938080e+000  4.111111e+001
      vertex  1.156726e+000 -9.942786e+000  4.094551e+001
    endloop
  endfacet
  facet normal  5.547172e-001 -8.132085e-001  1.760141e-001
    outer loop
      vertex  1.707107e+000 -8.967716e+000  4.371591e+001
      vertex  1.156726e+000 -9.942786e+000  4.094551e+001
      vertex  1.714384e+000 -9.693860e+000  4.033810e+001
    endloop
  endfacet
  facet normal  2.671429e-001  9.223720e-001  2.790420e-001
    outer loop
      vertex  1.000000e+000  9.938080e+000  4.111111e+001
      vertex  1.000000e+000  8.887410e+000  4.458410e+001
      vertex  1.156726e+000  9.942786e+000  4.094551e+001
    endloop
  endfacet
  facet normal  2.381675e-001  9.299864e-001  2.800024e-001
    outer loop
      vertex  1.156726e+000  9.942786e+000  4.094551e+001
      vertex  1.000000e+000  8.887410e+000  4.458410e+001
      vertex  1.707107e+000  8.967716e+000  4.371591e+001
    endloop
  endfacet
  facet normal  5.547172e-001  8.132085e-001  1.760141e-001
    outer loop
      vertex  1.156726e+000  9.942786e+000  4.094551e+001
      vertex  1.707107e+000  8.967716e+000  4.371591e+001
      vertex  1.714384e+000  9.693860e+000  4.033810e+001
    endloop
  endfacet
  facet normal  9.848007e-001  1.703456e-001  3.391061e-002
    outer loop
      vertex  2.000000e+000  9.000000e+000  4.000155e+001
      vertex  1.936507e+000  9.350234e+000  4.008611e+001
      vertex  2.000000e+000  8.314469e+000  4.344523e+001
    endloop
  endfacet
  facet normal  9.225976e-001  3.732035e-001  9.763637e-002
    outer loop
      vertex  2.000000e+000  8.314469e+000  4.344523e+001
      vertex  1.936507e+000  9.350234e+000  4.008611e+001
      vertex  1.707107e+000  8.967716e+000  4.371591e+001
    endloop
  endfacet
  facet normal  9.212152e-001  3.234626e-001  2.161814e-001
    outer loop
      vertex  2.000000e+000  8.314469e+000  4.344523e+001
      vertex  1.707107e+000  8.967716e+000  4.371591e+001
      vertex  2.000000e+000  6.363411e+000  4.636451e+001
    endloop
  endfacet
  facet normal  9.212154e-001  3.234623e-001  2.161811e-001
    outer loop
      vertex  2.000000e+000  6.363411e+000  4.636451e+001
      vertex  1.707107e+000  8.967716e+000  4.371591e+001
      vertex  1.707107e+000  6.863369e+000  4.686456e+001
    endloop
  endfacet
  facet normal  9.212155e-001  2.161251e-001  3.234994e-001
    outer loop
      vertex  2.000000e+000  6.363411e+000  4.636451e+001
      vertex  1.707107e+000  6.863369e+000  4.686456e+001
      vertex  2.000000e+000  3.443792e+000  4.831506e+001
    endloop
  endfacet
  facet normal  9.212152e-001  2.161254e-001  3.235002e-001
    outer loop
      vertex  2.000000e+000  3.443792e+000  4.831506e+001
      vertex  1.707107e+000  6.863369e+000  4.686456e+001
      vertex  1.707107e+000  3.714362e+000  4.896836e+001
    endloop
  endfacet
  facet normal  9.212152e-001  7.589243e-002  3.815795e-001
    outer loop
      vertex  2.000000e+000  3.443792e+000  4.831506e+001
      vertex  1.707107e+000  3.714362e+000  4.896836e+001
      vertex  2.000000e+000 -1.332268e-015  4.900000e+001
    endloop
  endfacet
  facet normal  9.212152e-001  7.589242e-002  3.815794e-001
    outer loop
      vertex  2.000000e+000 -1.332268e-015  4.900000e+001
      vertex  1.707107e+000  3.714362e+000  4.896836e+001
      vertex  1.707107e+000  1.776357e-015  4.970711e+001
    endloop
  endfacet
  facet normal  9.212152e-001 -7.589240e-002  3.815794e-001
    outer loop
      vertex  2.000000e+000 -1.332268e-015  4.900000e+001
      vertex  1.707107e+000  1.776357e-015  4.970711e+001
      vertex  2.000000e+000 -3.443792e+000  4.831506e+001
    endloop
  endfacet
  facet normal  9.212152e-001 -7.589244e-002  3.815795e-001
    outer loop
      vertex  2.000000e+000 -3.443792e+000  4.831506e+001
      vertex  1.707107e+000  1.776357e-015  4.970711e+001
      vertex  1.707107e+000 -3.714362e+000  4.896836e+001
    endloop
  endfacet
  facet normal  9.212152e-001 -2.161255e-001  3.235001e-001
    outer loop
      vertex  2.000000e+000 -3.443792e+000  4.831506e+001
      vertex  1.707107e+000 -3.714362e+000  4.896836e+001
      vertex  2.000000e+000 -6.363411e+000  4.636451e+001
    endloop
  endfacet
  facet normal  9.212155e-001 -2.161249e-001  3.234995e-001
    outer loop
      vertex  2.000000e+000 -6.363411e+000  4.636451e+001
      vertex  1.707107e+000 -3.714362e+000  4.896836e+001
      vertex  1.707107e+000 -6.863369e+000  4.686456e+001
    endloop
  endfacet
  facet normal  4.309418e-001  1.760267e-001  8.850445e-001
    outer loop
      vertex  1.707107e+000  3.714362e+000  4.896836e+001
      vertex  1.000000e+000  3.568221e+000  4.934172e+001
      vertex  1.707107e+000  1.776357e-015  4.970711e+001
    endloop
  endfacet
  facet normal  3.772424e-001  1.680171e-001  9.107462e-001
    outer loop
      vertex  1.707107e+000  1.776357e-015  4.970711e+001
      vertex  1.000000e+000  3.568221e+000  4.934172e+001
      vertex  1.000000e+000  6.123032e-016  5.000000e+001
    endloop
  endfacet
  facet normal  3.763812e-001 -1.807250e-001  9.086669e-001
    outer loop
      vertex  1.707107e+000  1.776357e-015  4.970711e+001
      vertex  1.000000e+000  6.123032e-016  5.000000e+001
      vertex  1.707107e+000 -3.714362e+000  4.896836e+001
    endloop
  endfacet
  facet normal  4.340219e-001 -1.634430e-001  8.859522e-001
    outer loop
      vertex  1.707107e+000 -3.714362e+000  4.896836e+001
      vertex  1.000000e+000  6.123032e-016  5.000000e+001
      vertex  1.000000e+000 -3.568221e+000  4.934172e+001
    endloop
  endfacet
  facet normal  3.247382e-001 -4.921775e-001  8.076549e-001
    outer loop
      vertex  1.707107e+000 -3.714362e+000  4.896836e+001
      vertex  1.000000e+000 -3.568221e+000  4.934172e+001
      vertex  1.000000e+000 -6.666667e+000  4.745356e+001
    endloop
  endfacet
  facet normal  0.000000e+000  9.995964e-001  2.840875e-002
    outer loop
      vertex -1.000000e+000  9.938080e+000  4.111111e+001
      vertex  1.000000e+000  9.938080e+000  4.111111e+001
      vertex -1.156726e+000  9.942786e+000  4.094551e+001
    endloop
  endfacet
  facet normal  -0.000000e+000  9.995965e-001  2.840875e-002
    outer loop
      vertex -1.156726e+000  9.942786e+000  4.094551e+001
      vertex  1.000000e+000  9.938080e+000  4.111111e+001
      vertex  1.156726e+000  9.942786e+000  4.094551e+001
    endloop
  endfacet
  facet normal  0.000000e+000  9.253127e-001 -3.792050e-001
    outer loop
      vertex -1.156726e+000  9.942786e+000  4.094551e+001
      vertex  1.156726e+000  9.942786e+000  4.094551e+001
      vertex -1.714384e+000  9.693860e+000  4.033810e+001
    endloop
  endfacet
  facet normal  0.000000e+000  9.253127e-001 -3.792050e-001
    outer loop
      vertex -1.714384e+000  9.693860e+000  4.033810e+001
      vertex  1.156726e+000  9.942786e+000  4.094551e+001
      vertex  1.714384e+000  9.693860e+000  4.033810e+001
    endloop
  endfacet
  facet normal  0.000000e+000  5.913560e-001 -8.064105e-001
    outer loop
      vertex -1.714384e+000  9.693860e+000  4.033810e+001
      vertex  1.714384e+000  9.693860e+000  4.033810e+001
      vertex -1.936507e+000  9.350234e+000  4.008611e+001
    endloop
  endfacet
  facet normal  0.000000e+000  5.913560e-001 -8.064105e-001
    outer loop
      vertex -1.936507e+000  9.350234e+000  4.008611e+001
      vertex  1.714384e+000  9.693860e+000  4.033810e+001
      vertex  1.936507e+000  9.350234e+000  4.008611e+001
    endloop
  endfacet
  facet normal  0.000000e+000  2.346860e-001 -9.720713e-001
    outer loop
      vertex -1.936507e+000  9.350234e+000  4.008611e+001
      vertex  1.936507e+000  9.350234e+000  4.008611e+001
      vertex -2.000000e+000  9.000000e+000  4.000155e+001
    endloop
  endfacet
  facet normal  0.000000e+000  2.346860e-001 -9.720712e-001
    outer loop
      vertex -2.000000e+000  9.000000e+000  4.000155e+001
      vertex  1.936507e+000  9.350234e+000  4.008611e+001
      vertex  2.000000e+000  9.000000e+000  4.000155e+001
    endloop
  endfacet
  facet normal  0.000000e+000  2.784921e-002 -9.996121e-001
    outer loop
      vertex -2.000000e+000  9.000000e+000  4.000155e+001
      vertex  2.000000e+000  9.000000e+000  4.000155e+001
      vertex -2.000000e+000  8.944272e+000  4.000000e+001
    endloop
  endfacet
  facet normal  0.000000e+000  2.784921e-002 -9.996121e-001
    outer loop
      vertex -2.000000e+000  8.944272e+000  4.000000e+001
      vertex  2.000000e+000  9.000000e+000  4.000155e+001
      vertex  2.000000e+000  8.944272e+000  4.000000e+001
    endloop
  endfacet
  facet normal  0.000000e+000  0.000000e+000 -1.000000e+000
    outer loop
      vertex  1.061846e-001  4.498747e+000  0.000000e+000
      vertex  2.341332e+000  3.842937e+000  0.000000e+000
      vertex -2.157415e+000  3.949121e+000  0.000000e+000
    endloop
  endfacet
  facet normal  -0.000000e+000  0.000000e+000 -1.000000e+000
    outer loop
      vertex -2.157415e+000  3.949121e+000  0.000000e+000
      vertex  2.341332e+000  3.842937e+000  0.000000e+000
      vertex -3.842937e+000  2.341332e+000  0.000000e+000
    endloop
  endfacet
  facet normal  0.000000e+000  0.000000e+000 -1.000000e+000
    outer loop
      vertex -3.842937e+000  2.341332e+000  0.000000e+000
      vertex  2.341332e+000  3.842937e+000  0.000000e+000
      vertex  3.949121e+000  2.157415e+000  0.000000e+000
    endloop
  endfacet
  facet normal  -0.000000e+000  0.000000e+000 -1.000000e+000
    outer loop
      vertex -3.842937e+000  2.341332e+000  0.000000e+000
      vertex  3.949121e+000  2.157415e+000  0.000000e+000
      vertex -4.498747e+000  1.061846e-001  0.000000e+000
    endloop
  endfacet
  facet normal  0.000000e+000  0.000000e+000 -1.000000e+000
    outer loop
      vertex -4.498747e+000  1.061846e-001  0.000000e+000
      vertex  3.949121e+000  2.157415e+000  0.000000e+000
      vertex  4.498747e+000 -1.061846e-001  0.000000e+000
    endloop
  endfacet
  facet normal  -0.000000e+000  0.000000e+000 -1.000000e+000
    outer loop
      vertex -4.498747e+000  1.061846e-001  0.000000e+000
      vertex  4.498747e+000 -1.061846e-001  0.000000e+000
      vertex -3.949121e+000 -2.157415e+000  0.000000e+000
    endloop
  endfacet
  facet normal  0.000000e+000  0.000000e+000 -1.000000e+000
    outer loop
      vertex -3.949121e+000 -2.157415e+000  0.000000e+000
      vertex  4.498747e+000 -1.061846e-001  0.000000e+000
      vertex  3.842937e+000 -2.341332e+000  0.000000e+000
    endloop
  endfacet
  facet normal  -0.000000e+000  0.000000e+000 -1.000000e+000
    outer loop
      vertex -3.949121e+000 -2.157415e+000  0.000000e+000
      vertex  3.842937e+000 -2.341332e+000  0.000000e+000
      vertex -2.341332e+000 -3.842937e+000  0.000000e+000
    endloop
  endfacet
  facet normal  0.000000e+000  0.000000e+000 -1.000000e+000
    outer loop
      vertex -2.341332e+000 -3.842937e+000  0.000000e+000
      vertex  3.842937e+000 -2.341332e+000  0.000000e+000
      vertex  2.157415e+000 -3.949121e+000  0.000000e+000
    endloop
  endfacet
  facet normal  -0.000000e+000  0.000000e+000 -1.000000e+000
    outer loop
      vertex -2.341332e+000 -3.842937e+000  0.000000e+000
      vertex  2.157415e+000 -3.949121e+000  0.000000e+000
      vertex -1.061846e-001 -4.498747e+000  0.000000e+000
    endloop
  endfacet
endsolid CATIA STL
