solid CATIA STL
  facet normal  0.000000e+000  0.000000e+000  1.000000e+000
    outer loop
      vertex  3.950000e+001 -3.250000e+001  1.850000e+001
      vertex  3.100000e+001 -2.400000e+001  1.850000e+001
      vertex -3.950000e+001 -3.250000e+001  1.850000e+001
    endloop
  endfacet
  facet normal  0.000000e+000  0.000000e+000  1.000000e+000
    outer loop
      vertex -3.950000e+001 -3.250000e+001  1.850000e+001
      vertex  3.100000e+001 -2.400000e+001  1.850000e+001
      vertex -3.100000e+001 -2.400000e+001  1.850000e+001
    endloop
  endfacet
  facet normal  0.000000e+000  0.000000e+000  1.000000e+000
    outer loop
      vertex -3.950000e+001 -3.250000e+001  1.850000e+001
      vertex -3.100000e+001 -2.400000e+001  1.850000e+001
      vertex -3.950000e+001  4.650000e+001  1.850000e+001
    endloop
  endfacet
  facet normal  0.000000e+000  0.000000e+000  1.000000e+000
    outer loop
      vertex -3.950000e+001  4.650000e+001  1.850000e+001
      vertex -3.100000e+001 -2.400000e+001  1.850000e+001
      vertex -3.100000e+001  3.800000e+001  1.850000e+001
    endloop
  endfacet
  facet normal  0.000000e+000  -0.000000e+000  1.000000e+000
    outer loop
      vertex -3.950000e+001  4.650000e+001  1.850000e+001
      vertex -3.100000e+001  3.800000e+001  1.850000e+001
      vertex  3.950000e+001  4.650000e+001  1.850000e+001
    endloop
  endfacet
  facet normal  0.000000e+000  0.000000e+000  1.000000e+000
    outer loop
      vertex  3.950000e+001  4.650000e+001  1.850000e+001
      vertex -3.100000e+001  3.800000e+001  1.850000e+001
      vertex  3.100000e+001  3.800000e+001  1.850000e+001
    endloop
  endfacet
  facet normal  -0.000000e+000  0.000000e+000  1.000000e+000
    outer loop
      vertex  3.950000e+001  4.650000e+001  1.850000e+001
      vertex  3.100000e+001  3.800000e+001  1.850000e+001
      vertex  3.950000e+001 -3.250000e+001  1.850000e+001
    endloop
  endfacet
  facet normal  0.000000e+000  0.000000e+000  1.000000e+000
    outer loop
      vertex  3.950000e+001 -3.250000e+001  1.850000e+001
      vertex  3.100000e+001  3.800000e+001  1.850000e+001
      vertex  3.100000e+001 -2.400000e+001  1.850000e+001
    endloop
  endfacet
  facet normal  -0.000000e+000  0.000000e+000 -1.000000e+000
    outer loop
      vertex -5.250000e+001  5.950000e+001  1.850000e+001
      vertex -4.050000e+001 -3.350000e+001  1.850000e+001
      vertex -5.250000e+001 -4.550000e+001  1.850000e+001
    endloop
  endfacet
  facet normal  0.000000e+000  0.000000e+000 -9.999999e-001
    outer loop
      vertex -5.250000e+001 -4.550000e+001  1.850000e+001
      vertex -4.050000e+001 -3.350000e+001  1.850000e+001
      vertex  4.050000e+001 -3.350000e+001  1.850000e+001
    endloop
  endfacet
  facet normal  0.000000e+000  -0.000000e+000 -1.000000e+000
    outer loop
      vertex -5.250000e+001 -4.550000e+001  1.850000e+001
      vertex  4.050000e+001 -3.350000e+001  1.850000e+001
      vertex  5.250000e+001 -4.550000e+001  1.850000e+001
    endloop
  endfacet
  facet normal  0.000000e+000  0.000000e+000 -9.999999e-001
    outer loop
      vertex -4.050000e+001 -3.350000e+001  1.850000e+001
      vertex -5.250000e+001  5.950000e+001  1.850000e+001
      vertex -4.050000e+001  4.750000e+001  1.850000e+001
    endloop
  endfacet
  facet normal  0.000000e+000  0.000000e+000 -1.000000e+000
    outer loop
      vertex -4.050000e+001  4.750000e+001  1.850000e+001
      vertex -5.250000e+001  5.950000e+001  1.850000e+001
      vertex  5.250000e+001  5.950000e+001  1.850000e+001
    endloop
  endfacet
  facet normal  0.000000e+000  0.000000e+000 -9.999999e-001
    outer loop
      vertex -4.050000e+001  4.750000e+001  1.850000e+001
      vertex  5.250000e+001  5.950000e+001  1.850000e+001
      vertex  4.050000e+001  4.750000e+001  1.850000e+001
    endloop
  endfacet
  facet normal  0.000000e+000  0.000000e+000 -1.000000e+000
    outer loop
      vertex  4.050000e+001  4.750000e+001  1.850000e+001
      vertex  5.250000e+001  5.950000e+001  1.850000e+001
      vertex  5.250000e+001 -4.550000e+001  1.850000e+001
    endloop
  endfacet
  facet normal  0.000000e+000  0.000000e+000 -9.999999e-001
    outer loop
      vertex  4.050000e+001  4.750000e+001  1.850000e+001
      vertex  5.250000e+001 -4.550000e+001  1.850000e+001
      vertex  4.050000e+001 -3.350000e+001  1.850000e+001
    endloop
  endfacet
  facet normal  9.999999e-001  -0.000000e+000  0.000000e+000
    outer loop
      vertex -3.950000e+001  4.650000e+001  2.000000e+001
      vertex -3.950000e+001 -3.250000e+001  2.000000e+001
      vertex -3.950000e+001  4.650000e+001  1.850000e+001
    endloop
  endfacet
  facet normal  9.999999e-001  0.000000e+000  0.000000e+000
    outer loop
      vertex -3.950000e+001  4.650000e+001  1.850000e+001
      vertex -3.950000e+001 -3.250000e+001  2.000000e+001
      vertex -3.950000e+001 -3.250000e+001  1.850000e+001
    endloop
  endfacet
  facet normal  0.000000e+000  9.999999e-001  -0.000000e+000
    outer loop
      vertex  3.950000e+001 -3.250000e+001  2.000000e+001
      vertex  3.950000e+001 -3.250000e+001  1.850000e+001
      vertex -3.950000e+001 -3.250000e+001  2.000000e+001
    endloop
  endfacet
  facet normal  0.000000e+000  9.999999e-001  0.000000e+000
    outer loop
      vertex -3.950000e+001 -3.250000e+001  2.000000e+001
      vertex  3.950000e+001 -3.250000e+001  1.850000e+001
      vertex -3.950000e+001 -3.250000e+001  1.850000e+001
    endloop
  endfacet
  facet normal -9.999999e-001  -0.000000e+000  0.000000e+000
    outer loop
      vertex  3.950000e+001 -3.250000e+001  2.000000e+001
      vertex  3.950000e+001  4.650000e+001  2.000000e+001
      vertex  3.950000e+001 -3.250000e+001  1.850000e+001
    endloop
  endfacet
  facet normal -9.999999e-001  0.000000e+000  0.000000e+000
    outer loop
      vertex  3.950000e+001 -3.250000e+001  1.850000e+001
      vertex  3.950000e+001  4.650000e+001  2.000000e+001
      vertex  3.950000e+001  4.650000e+001  1.850000e+001
    endloop
  endfacet
  facet normal  0.000000e+000 -9.999999e-001  0.000000e+000
    outer loop
      vertex -3.950000e+001  4.650000e+001  2.000000e+001
      vertex -3.950000e+001  4.650000e+001  1.850000e+001
      vertex  3.950000e+001  4.650000e+001  2.000000e+001
    endloop
  endfacet
  facet normal  0.000000e+000 -9.999999e-001  -0.000000e+000
    outer loop
      vertex  3.950000e+001  4.650000e+001  2.000000e+001
      vertex -3.950000e+001  4.650000e+001  1.850000e+001
      vertex  3.950000e+001  4.650000e+001  1.850000e+001
    endloop
  endfacet
  facet normal  1.000000e+000  0.000000e+000  0.000000e+000
    outer loop
      vertex  4.050000e+001 -3.350000e+001  1.850000e+001
      vertex  4.050000e+001 -3.350000e+001  1.650000e+001
      vertex  4.050000e+001  4.750000e+001  1.850000e+001
    endloop
  endfacet
  facet normal  1.000000e+000  0.000000e+000  0.000000e+000
    outer loop
      vertex  4.050000e+001  4.750000e+001  1.850000e+001
      vertex  4.050000e+001 -3.350000e+001  1.650000e+001
      vertex  4.050000e+001  4.750000e+001  1.650000e+001
    endloop
  endfacet
  facet normal  0.000000e+000 -1.000000e+000  0.000000e+000
    outer loop
      vertex  4.050000e+001 -3.350000e+001  1.850000e+001
      vertex -4.050000e+001 -3.350000e+001  1.850000e+001
      vertex  4.050000e+001 -3.350000e+001  1.650000e+001
    endloop
  endfacet
  facet normal  0.000000e+000 -1.000000e+000  0.000000e+000
    outer loop
      vertex  4.050000e+001 -3.350000e+001  1.650000e+001
      vertex -4.050000e+001 -3.350000e+001  1.850000e+001
      vertex -4.050000e+001 -3.350000e+001  1.650000e+001
    endloop
  endfacet
  facet normal  0.000000e+000  1.000000e+000  0.000000e+000
    outer loop
      vertex -4.050000e+001  4.750000e+001  1.850000e+001
      vertex  4.050000e+001  4.750000e+001  1.850000e+001
      vertex -4.050000e+001  4.750000e+001  1.650000e+001
    endloop
  endfacet
  facet normal  0.000000e+000  1.000000e+000  0.000000e+000
    outer loop
      vertex -4.050000e+001  4.750000e+001  1.650000e+001
      vertex  4.050000e+001  4.750000e+001  1.850000e+001
      vertex  4.050000e+001  4.750000e+001  1.650000e+001
    endloop
  endfacet
  facet normal -1.000000e+000  0.000000e+000  0.000000e+000
    outer loop
      vertex -4.050000e+001  4.750000e+001  1.850000e+001
      vertex -4.050000e+001  4.750000e+001  1.650000e+001
      vertex -4.050000e+001 -3.350000e+001  1.850000e+001
    endloop
  endfacet
  facet normal -1.000000e+000  0.000000e+000  0.000000e+000
    outer loop
      vertex -4.050000e+001 -3.350000e+001  1.850000e+001
      vertex -4.050000e+001  4.750000e+001  1.650000e+001
      vertex -4.050000e+001 -3.350000e+001  1.650000e+001
    endloop
  endfacet
  facet normal  0.000000e+000  0.000000e+000  1.000000e+000
    outer loop
      vertex  5.250000e+001 -4.550000e+001  2.000000e+001
      vertex  3.950000e+001 -3.250000e+001  2.000000e+001
      vertex -5.250000e+001 -4.550000e+001  2.000000e+001
    endloop
  endfacet
  facet normal  0.000000e+000  0.000000e+000  1.000000e+000
    outer loop
      vertex -5.250000e+001 -4.550000e+001  2.000000e+001
      vertex  3.950000e+001 -3.250000e+001  2.000000e+001
      vertex -3.950000e+001 -3.250000e+001  2.000000e+001
    endloop
  endfacet
  facet normal  0.000000e+000  0.000000e+000  1.000000e+000
    outer loop
      vertex -5.250000e+001 -4.550000e+001  2.000000e+001
      vertex -3.950000e+001 -3.250000e+001  2.000000e+001
      vertex -5.250000e+001  5.950000e+001  2.000000e+001
    endloop
  endfacet
  facet normal  0.000000e+000  0.000000e+000  1.000000e+000
    outer loop
      vertex -5.250000e+001  5.950000e+001  2.000000e+001
      vertex -3.950000e+001 -3.250000e+001  2.000000e+001
      vertex -3.950000e+001  4.650000e+001  2.000000e+001
    endloop
  endfacet
  facet normal  0.000000e+000  -0.000000e+000  1.000000e+000
    outer loop
      vertex -5.250000e+001  5.950000e+001  2.000000e+001
      vertex -3.950000e+001  4.650000e+001  2.000000e+001
      vertex  5.250000e+001  5.950000e+001  2.000000e+001
    endloop
  endfacet
  facet normal  0.000000e+000  0.000000e+000  1.000000e+000
    outer loop
      vertex  5.250000e+001  5.950000e+001  2.000000e+001
      vertex -3.950000e+001  4.650000e+001  2.000000e+001
      vertex  3.950000e+001  4.650000e+001  2.000000e+001
    endloop
  endfacet
  facet normal  -0.000000e+000  0.000000e+000  1.000000e+000
    outer loop
      vertex  5.250000e+001  5.950000e+001  2.000000e+001
      vertex  3.950000e+001  4.650000e+001  2.000000e+001
      vertex  5.250000e+001 -4.550000e+001  2.000000e+001
    endloop
  endfacet
  facet normal  0.000000e+000  0.000000e+000  1.000000e+000
    outer loop
      vertex  5.250000e+001 -4.550000e+001  2.000000e+001
      vertex  3.950000e+001  4.650000e+001  2.000000e+001
      vertex  3.950000e+001 -3.250000e+001  2.000000e+001
    endloop
  endfacet
  facet normal  0.000000e+000  1.000000e+000  0.000000e+000
    outer loop
      vertex -5.250000e+001  5.950000e+001  2.000000e+001
      vertex  5.250000e+001  5.950000e+001  2.000000e+001
      vertex -5.250000e+001  5.950000e+001  1.850000e+001
    endloop
  endfacet
  facet normal  0.000000e+000  1.000000e+000  0.000000e+000
    outer loop
      vertex -5.250000e+001  5.950000e+001  1.850000e+001
      vertex  5.250000e+001  5.950000e+001  2.000000e+001
      vertex  5.250000e+001  5.950000e+001  1.850000e+001
    endloop
  endfacet
  facet normal  1.000000e+000  0.000000e+000  0.000000e+000
    outer loop
      vertex  5.250000e+001 -4.550000e+001  2.000000e+001
      vertex  5.250000e+001 -4.550000e+001  1.850000e+001
      vertex  5.250000e+001  5.950000e+001  2.000000e+001
    endloop
  endfacet
  facet normal  1.000000e+000  0.000000e+000  0.000000e+000
    outer loop
      vertex  5.250000e+001  5.950000e+001  2.000000e+001
      vertex  5.250000e+001 -4.550000e+001  1.850000e+001
      vertex  5.250000e+001  5.950000e+001  1.850000e+001
    endloop
  endfacet
  facet normal  0.000000e+000 -1.000000e+000  0.000000e+000
    outer loop
      vertex  5.250000e+001 -4.550000e+001  2.000000e+001
      vertex -5.250000e+001 -4.550000e+001  2.000000e+001
      vertex  5.250000e+001 -4.550000e+001  1.850000e+001
    endloop
  endfacet
  facet normal  0.000000e+000 -1.000000e+000  0.000000e+000
    outer loop
      vertex  5.250000e+001 -4.550000e+001  1.850000e+001
      vertex -5.250000e+001 -4.550000e+001  2.000000e+001
      vertex -5.250000e+001 -4.550000e+001  1.850000e+001
    endloop
  endfacet
  facet normal -1.000000e+000  0.000000e+000  0.000000e+000
    outer loop
      vertex -5.250000e+001  5.950000e+001  2.000000e+001
      vertex -5.250000e+001  5.950000e+001  1.850000e+001
      vertex -5.250000e+001 -4.550000e+001  2.000000e+001
    endloop
  endfacet
  facet normal -1.000000e+000  0.000000e+000  0.000000e+000
    outer loop
      vertex -5.250000e+001 -4.550000e+001  2.000000e+001
      vertex -5.250000e+001  5.950000e+001  1.850000e+001
      vertex -5.250000e+001 -4.550000e+001  1.850000e+001
    endloop
  endfacet
  facet normal  1.000000e+000  -0.000000e+000  0.000000e+000
    outer loop
      vertex -2.950000e+001  3.650000e+001  1.700000e+001
      vertex -2.950000e+001 -2.250000e+001  1.700000e+001
      vertex -2.950000e+001  3.650000e+001  1.650000e+001
    endloop
  endfacet
  facet normal  1.000000e+000  0.000000e+000  0.000000e+000
    outer loop
      vertex -2.950000e+001  3.650000e+001  1.650000e+001
      vertex -2.950000e+001 -2.250000e+001  1.700000e+001
      vertex -2.950000e+001 -2.250000e+001  1.650000e+001
    endloop
  endfacet
  facet normal  0.000000e+000  1.000000e+000  -0.000000e+000
    outer loop
      vertex  2.950000e+001 -2.250000e+001  1.700000e+001
      vertex  2.950000e+001 -2.250000e+001  1.650000e+001
      vertex -2.950000e+001 -2.250000e+001  1.700000e+001
    endloop
  endfacet
  facet normal  0.000000e+000  1.000000e+000  0.000000e+000
    outer loop
      vertex -2.950000e+001 -2.250000e+001  1.700000e+001
      vertex  2.950000e+001 -2.250000e+001  1.650000e+001
      vertex -2.950000e+001 -2.250000e+001  1.650000e+001
    endloop
  endfacet
  facet normal -1.000000e+000  -0.000000e+000  0.000000e+000
    outer loop
      vertex  2.950000e+001 -2.250000e+001  1.700000e+001
      vertex  2.950000e+001  3.650000e+001  1.700000e+001
      vertex  2.950000e+001 -2.250000e+001  1.650000e+001
    endloop
  endfacet
  facet normal -1.000000e+000  0.000000e+000  0.000000e+000
    outer loop
      vertex  2.950000e+001 -2.250000e+001  1.650000e+001
      vertex  2.950000e+001  3.650000e+001  1.700000e+001
      vertex  2.950000e+001  3.650000e+001  1.650000e+001
    endloop
  endfacet
  facet normal  0.000000e+000 -1.000000e+000  0.000000e+000
    outer loop
      vertex -2.950000e+001  3.650000e+001  1.700000e+001
      vertex -2.950000e+001  3.650000e+001  1.650000e+001
      vertex  2.950000e+001  3.650000e+001  1.700000e+001
    endloop
  endfacet
  facet normal  0.000000e+000 -1.000000e+000  -0.000000e+000
    outer loop
      vertex  2.950000e+001  3.650000e+001  1.700000e+001
      vertex -2.950000e+001  3.650000e+001  1.650000e+001
      vertex  2.950000e+001  3.650000e+001  1.650000e+001
    endloop
  endfacet
  facet normal  0.000000e+000 -7.071068e-001  7.071068e-001
    outer loop
      vertex -2.950000e+001  3.650000e+001  1.700000e+001
      vertex  2.950000e+001  3.650000e+001  1.700000e+001
      vertex -3.100000e+001  3.800000e+001  1.850000e+001
    endloop
  endfacet
  facet normal  0.000000e+000 -7.071068e-001  7.071068e-001
    outer loop
      vertex -3.100000e+001  3.800000e+001  1.850000e+001
      vertex  2.950000e+001  3.650000e+001  1.700000e+001
      vertex  3.100000e+001  3.800000e+001  1.850000e+001
    endloop
  endfacet
  facet normal -7.071068e-001  0.000000e+000  7.071068e-001
    outer loop
      vertex  2.950000e+001 -2.250000e+001  1.700000e+001
      vertex  3.100000e+001 -2.400000e+001  1.850000e+001
      vertex  2.950000e+001  3.650000e+001  1.700000e+001
    endloop
  endfacet
  facet normal -7.071068e-001  0.000000e+000  7.071068e-001
    outer loop
      vertex  2.950000e+001  3.650000e+001  1.700000e+001
      vertex  3.100000e+001 -2.400000e+001  1.850000e+001
      vertex  3.100000e+001  3.800000e+001  1.850000e+001
    endloop
  endfacet
  facet normal  -0.000000e+000  7.071068e-001  7.071068e-001
    outer loop
      vertex  2.950000e+001 -2.250000e+001  1.700000e+001
      vertex -2.950000e+001 -2.250000e+001  1.700000e+001
      vertex  3.100000e+001 -2.400000e+001  1.850000e+001
    endloop
  endfacet
  facet normal  0.000000e+000  7.071068e-001  7.071068e-001
    outer loop
      vertex  3.100000e+001 -2.400000e+001  1.850000e+001
      vertex -2.950000e+001 -2.250000e+001  1.700000e+001
      vertex -3.100000e+001 -2.400000e+001  1.850000e+001
    endloop
  endfacet
  facet normal  7.071068e-001  0.000000e+000  7.071068e-001
    outer loop
      vertex -2.950000e+001  3.650000e+001  1.700000e+001
      vertex -3.100000e+001  3.800000e+001  1.850000e+001
      vertex -2.950000e+001 -2.250000e+001  1.700000e+001
    endloop
  endfacet
  facet normal  7.071068e-001  0.000000e+000  7.071068e-001
    outer loop
      vertex -2.950000e+001 -2.250000e+001  1.700000e+001
      vertex -3.100000e+001  3.800000e+001  1.850000e+001
      vertex -3.100000e+001 -2.400000e+001  1.850000e+001
    endloop
  endfacet
  facet normal  0.000000e+000  0.000000e+000  1.000000e+000
    outer loop
      vertex  2.950000e+001 -2.250000e+001  1.650000e+001
      vertex  2.400000e+001 -1.700000e+001  1.650000e+001
      vertex -2.950000e+001 -2.250000e+001  1.650000e+001
    endloop
  endfacet
  facet normal  0.000000e+000  0.000000e+000  1.000000e+000
    outer loop
      vertex -2.950000e+001 -2.250000e+001  1.650000e+001
      vertex  2.400000e+001 -1.700000e+001  1.650000e+001
      vertex -2.400000e+001 -1.700000e+001  1.650000e+001
    endloop
  endfacet
  facet normal  0.000000e+000  0.000000e+000  1.000000e+000
    outer loop
      vertex -2.950000e+001 -2.250000e+001  1.650000e+001
      vertex -2.400000e+001 -1.700000e+001  1.650000e+001
      vertex -2.950000e+001  3.650000e+001  1.650000e+001
    endloop
  endfacet
  facet normal  0.000000e+000  0.000000e+000  1.000000e+000
    outer loop
      vertex -2.950000e+001  3.650000e+001  1.650000e+001
      vertex -2.400000e+001 -1.700000e+001  1.650000e+001
      vertex -2.400000e+001  3.100000e+001  1.650000e+001
    endloop
  endfacet
  facet normal  0.000000e+000  -0.000000e+000  1.000000e+000
    outer loop
      vertex -2.950000e+001  3.650000e+001  1.650000e+001
      vertex -2.400000e+001  3.100000e+001  1.650000e+001
      vertex  2.950000e+001  3.650000e+001  1.650000e+001
    endloop
  endfacet
  facet normal  0.000000e+000  0.000000e+000  1.000000e+000
    outer loop
      vertex  2.950000e+001  3.650000e+001  1.650000e+001
      vertex -2.400000e+001  3.100000e+001  1.650000e+001
      vertex  2.400000e+001  3.100000e+001  1.650000e+001
    endloop
  endfacet
  facet normal  -0.000000e+000  0.000000e+000  1.000000e+000
    outer loop
      vertex  2.950000e+001  3.650000e+001  1.650000e+001
      vertex  2.400000e+001  3.100000e+001  1.650000e+001
      vertex  2.950000e+001 -2.250000e+001  1.650000e+001
    endloop
  endfacet
  facet normal  0.000000e+000  0.000000e+000  1.000000e+000
    outer loop
      vertex  2.950000e+001 -2.250000e+001  1.650000e+001
      vertex  2.400000e+001  3.100000e+001  1.650000e+001
      vertex  2.400000e+001 -1.700000e+001  1.650000e+001
    endloop
  endfacet
  facet normal  -0.000000e+000  7.071068e-001  7.071068e-001
    outer loop
      vertex  2.250000e+001 -1.550000e+001  1.500000e+001
      vertex -2.250000e+001 -1.550000e+001  1.500000e+001
      vertex  2.400000e+001 -1.700000e+001  1.650000e+001
    endloop
  endfacet
  facet normal  0.000000e+000  7.071067e-001  7.071067e-001
    outer loop
      vertex  2.400000e+001 -1.700000e+001  1.650000e+001
      vertex -2.250000e+001 -1.550000e+001  1.500000e+001
      vertex -2.400000e+001 -1.700000e+001  1.650000e+001
    endloop
  endfacet
  facet normal  7.071068e-001  0.000000e+000  7.071068e-001
    outer loop
      vertex -2.250000e+001  2.950000e+001  1.500000e+001
      vertex -2.400000e+001  3.100000e+001  1.650000e+001
      vertex -2.250000e+001 -1.550000e+001  1.500000e+001
    endloop
  endfacet
  facet normal  7.071067e-001  0.000000e+000  7.071067e-001
    outer loop
      vertex -2.250000e+001 -1.550000e+001  1.500000e+001
      vertex -2.400000e+001  3.100000e+001  1.650000e+001
      vertex -2.400000e+001 -1.700000e+001  1.650000e+001
    endloop
  endfacet
  facet normal  0.000000e+000 -7.071068e-001  7.071068e-001
    outer loop
      vertex -2.250000e+001  2.950000e+001  1.500000e+001
      vertex  2.250000e+001  2.950000e+001  1.500000e+001
      vertex -2.400000e+001  3.100000e+001  1.650000e+001
    endloop
  endfacet
  facet normal  0.000000e+000 -7.071067e-001  7.071067e-001
    outer loop
      vertex -2.400000e+001  3.100000e+001  1.650000e+001
      vertex  2.250000e+001  2.950000e+001  1.500000e+001
      vertex  2.400000e+001  3.100000e+001  1.650000e+001
    endloop
  endfacet
  facet normal -7.071068e-001  0.000000e+000  7.071068e-001
    outer loop
      vertex  2.250000e+001 -1.550000e+001  1.500000e+001
      vertex  2.400000e+001 -1.700000e+001  1.650000e+001
      vertex  2.250000e+001  2.950000e+001  1.500000e+001
    endloop
  endfacet
  facet normal -7.071067e-001  0.000000e+000  7.071067e-001
    outer loop
      vertex  2.250000e+001  2.950000e+001  1.500000e+001
      vertex  2.400000e+001 -1.700000e+001  1.650000e+001
      vertex  2.400000e+001  3.100000e+001  1.650000e+001
    endloop
  endfacet
  facet normal  0.000000e+000  0.000000e+000  1.000000e+000
    outer loop
      vertex  2.250000e+001 -1.550000e+001  1.500000e+001
      vertex  1.800000e+001 -1.100000e+001  1.500000e+001
      vertex -2.250000e+001 -1.550000e+001  1.500000e+001
    endloop
  endfacet
  facet normal  0.000000e+000  0.000000e+000  1.000000e+000
    outer loop
      vertex -2.250000e+001 -1.550000e+001  1.500000e+001
      vertex  1.800000e+001 -1.100000e+001  1.500000e+001
      vertex -1.800000e+001 -1.100000e+001  1.500000e+001
    endloop
  endfacet
  facet normal  0.000000e+000  0.000000e+000  1.000000e+000
    outer loop
      vertex -2.250000e+001 -1.550000e+001  1.500000e+001
      vertex -1.800000e+001 -1.100000e+001  1.500000e+001
      vertex -2.250000e+001  2.950000e+001  1.500000e+001
    endloop
  endfacet
  facet normal  0.000000e+000  0.000000e+000  1.000000e+000
    outer loop
      vertex -2.250000e+001  2.950000e+001  1.500000e+001
      vertex -1.800000e+001 -1.100000e+001  1.500000e+001
      vertex -1.800000e+001  2.500000e+001  1.500000e+001
    endloop
  endfacet
  facet normal  0.000000e+000  -0.000000e+000  1.000000e+000
    outer loop
      vertex -2.250000e+001  2.950000e+001  1.500000e+001
      vertex -1.800000e+001  2.500000e+001  1.500000e+001
      vertex  2.250000e+001  2.950000e+001  1.500000e+001
    endloop
  endfacet
  facet normal  0.000000e+000  0.000000e+000  1.000000e+000
    outer loop
      vertex  2.250000e+001  2.950000e+001  1.500000e+001
      vertex -1.800000e+001  2.500000e+001  1.500000e+001
      vertex  1.800000e+001  2.500000e+001  1.500000e+001
    endloop
  endfacet
  facet normal  -0.000000e+000  0.000000e+000  1.000000e+000
    outer loop
      vertex  2.250000e+001  2.950000e+001  1.500000e+001
      vertex  1.800000e+001  2.500000e+001  1.500000e+001
      vertex  2.250000e+001 -1.550000e+001  1.500000e+001
    endloop
  endfacet
  facet normal  0.000000e+000  0.000000e+000  1.000000e+000
    outer loop
      vertex  2.250000e+001 -1.550000e+001  1.500000e+001
      vertex  1.800000e+001  2.500000e+001  1.500000e+001
      vertex  1.800000e+001 -1.100000e+001  1.500000e+001
    endloop
  endfacet
  facet normal  1.000000e+000  -0.000000e+000  0.000000e+000
    outer loop
      vertex -1.650000e+001  2.350000e+001  1.350000e+001
      vertex -1.650000e+001 -9.500000e+000  1.350000e+001
      vertex -1.650000e+001  2.350000e+001  1.300000e+001
    endloop
  endfacet
  facet normal  1.000000e+000  0.000000e+000  0.000000e+000
    outer loop
      vertex -1.650000e+001  2.350000e+001  1.300000e+001
      vertex -1.650000e+001 -9.500000e+000  1.350000e+001
      vertex -1.650000e+001 -9.500000e+000  1.300000e+001
    endloop
  endfacet
  facet normal  0.000000e+000 -1.000000e+000  0.000000e+000
    outer loop
      vertex -1.650000e+001  2.350000e+001  1.350000e+001
      vertex -1.650000e+001  2.350000e+001  1.300000e+001
      vertex  1.650000e+001  2.350000e+001  1.350000e+001
    endloop
  endfacet
  facet normal  0.000000e+000 -1.000000e+000  -0.000000e+000
    outer loop
      vertex  1.650000e+001  2.350000e+001  1.350000e+001
      vertex -1.650000e+001  2.350000e+001  1.300000e+001
      vertex  1.650000e+001  2.350000e+001  1.300000e+001
    endloop
  endfacet
  facet normal -1.000000e+000  -0.000000e+000  0.000000e+000
    outer loop
      vertex  1.650000e+001 -9.500000e+000  1.350000e+001
      vertex  1.650000e+001  2.350000e+001  1.350000e+001
      vertex  1.650000e+001 -9.500000e+000  1.300000e+001
    endloop
  endfacet
  facet normal -1.000000e+000  0.000000e+000  0.000000e+000
    outer loop
      vertex  1.650000e+001 -9.500000e+000  1.300000e+001
      vertex  1.650000e+001  2.350000e+001  1.350000e+001
      vertex  1.650000e+001  2.350000e+001  1.300000e+001
    endloop
  endfacet
  facet normal  0.000000e+000  1.000000e+000  -0.000000e+000
    outer loop
      vertex  1.650000e+001 -9.500000e+000  1.350000e+001
      vertex  1.650000e+001 -9.500000e+000  1.300000e+001
      vertex -1.650000e+001 -9.500000e+000  1.350000e+001
    endloop
  endfacet
  facet normal  0.000000e+000  1.000000e+000  0.000000e+000
    outer loop
      vertex -1.650000e+001 -9.500000e+000  1.350000e+001
      vertex  1.650000e+001 -9.500000e+000  1.300000e+001
      vertex -1.650000e+001 -9.500000e+000  1.300000e+001
    endloop
  endfacet
  facet normal -7.071068e-001  0.000000e+000  7.071068e-001
    outer loop
      vertex  1.650000e+001 -9.500000e+000  1.350000e+001
      vertex  1.800000e+001 -1.100000e+001  1.500000e+001
      vertex  1.650000e+001  2.350000e+001  1.350000e+001
    endloop
  endfacet
  facet normal -7.071068e-001  0.000000e+000  7.071068e-001
    outer loop
      vertex  1.650000e+001  2.350000e+001  1.350000e+001
      vertex  1.800000e+001 -1.100000e+001  1.500000e+001
      vertex  1.800000e+001  2.500000e+001  1.500000e+001
    endloop
  endfacet
  facet normal  -0.000000e+000  7.071068e-001  7.071068e-001
    outer loop
      vertex  1.650000e+001 -9.500000e+000  1.350000e+001
      vertex -1.650000e+001 -9.500000e+000  1.350000e+001
      vertex  1.800000e+001 -1.100000e+001  1.500000e+001
    endloop
  endfacet
  facet normal  0.000000e+000  7.071068e-001  7.071068e-001
    outer loop
      vertex  1.800000e+001 -1.100000e+001  1.500000e+001
      vertex -1.650000e+001 -9.500000e+000  1.350000e+001
      vertex -1.800000e+001 -1.100000e+001  1.500000e+001
    endloop
  endfacet
  facet normal  7.071068e-001  0.000000e+000  7.071068e-001
    outer loop
      vertex -1.650000e+001  2.350000e+001  1.350000e+001
      vertex -1.800000e+001  2.500000e+001  1.500000e+001
      vertex -1.650000e+001 -9.500000e+000  1.350000e+001
    endloop
  endfacet
  facet normal  7.071068e-001  0.000000e+000  7.071068e-001
    outer loop
      vertex -1.650000e+001 -9.500000e+000  1.350000e+001
      vertex -1.800000e+001  2.500000e+001  1.500000e+001
      vertex -1.800000e+001 -1.100000e+001  1.500000e+001
    endloop
  endfacet
  facet normal  0.000000e+000 -7.071068e-001  7.071068e-001
    outer loop
      vertex -1.650000e+001  2.350000e+001  1.350000e+001
      vertex  1.650000e+001  2.350000e+001  1.350000e+001
      vertex -1.800000e+001  2.500000e+001  1.500000e+001
    endloop
  endfacet
  facet normal  0.000000e+000 -7.071068e-001  7.071068e-001
    outer loop
      vertex -1.800000e+001  2.500000e+001  1.500000e+001
      vertex  1.650000e+001  2.350000e+001  1.350000e+001
      vertex  1.800000e+001  2.500000e+001  1.500000e+001
    endloop
  endfacet
  facet normal  0.000000e+000  0.000000e+000  9.999999e-001
    outer loop
      vertex  1.650000e+001 -9.500000e+000  1.300000e+001
      vertex  1.400000e+001 -7.000000e+000  1.300000e+001
      vertex -1.650000e+001 -9.500000e+000  1.300000e+001
    endloop
  endfacet
  facet normal  0.000000e+000  0.000000e+000  1.000000e+000
    outer loop
      vertex -1.650000e+001 -9.500000e+000  1.300000e+001
      vertex  1.400000e+001 -7.000000e+000  1.300000e+001
      vertex -1.400000e+001 -7.000000e+000  1.300000e+001
    endloop
  endfacet
  facet normal  0.000000e+000  0.000000e+000  9.999999e-001
    outer loop
      vertex -1.650000e+001 -9.500000e+000  1.300000e+001
      vertex -1.400000e+001 -7.000000e+000  1.300000e+001
      vertex -1.650000e+001  2.350000e+001  1.300000e+001
    endloop
  endfacet
  facet normal  0.000000e+000  0.000000e+000  1.000000e+000
    outer loop
      vertex -1.650000e+001  2.350000e+001  1.300000e+001
      vertex -1.400000e+001 -7.000000e+000  1.300000e+001
      vertex -1.400000e+001  2.100000e+001  1.300000e+001
    endloop
  endfacet
  facet normal  0.000000e+000  -0.000000e+000  9.999999e-001
    outer loop
      vertex -1.650000e+001  2.350000e+001  1.300000e+001
      vertex -1.400000e+001  2.100000e+001  1.300000e+001
      vertex  1.650000e+001  2.350000e+001  1.300000e+001
    endloop
  endfacet
  facet normal  0.000000e+000  0.000000e+000  1.000000e+000
    outer loop
      vertex  1.650000e+001  2.350000e+001  1.300000e+001
      vertex -1.400000e+001  2.100000e+001  1.300000e+001
      vertex  1.400000e+001  2.100000e+001  1.300000e+001
    endloop
  endfacet
  facet normal  -0.000000e+000  0.000000e+000  9.999999e-001
    outer loop
      vertex  1.650000e+001  2.350000e+001  1.300000e+001
      vertex  1.400000e+001  2.100000e+001  1.300000e+001
      vertex  1.650000e+001 -9.500000e+000  1.300000e+001
    endloop
  endfacet
  facet normal  0.000000e+000  0.000000e+000  1.000000e+000
    outer loop
      vertex  1.650000e+001 -9.500000e+000  1.300000e+001
      vertex  1.400000e+001  2.100000e+001  1.300000e+001
      vertex  1.400000e+001 -7.000000e+000  1.300000e+001
    endloop
  endfacet
  facet normal  1.000000e+000  -0.000000e+000  0.000000e+000
    outer loop
      vertex -1.250000e+001  1.950000e+001  1.150000e+001
      vertex -1.250000e+001 -5.500000e+000  1.150000e+001
      vertex -1.250000e+001  1.950000e+001  1.100000e+001
    endloop
  endfacet
  facet normal  1.000000e+000  0.000000e+000  0.000000e+000
    outer loop
      vertex -1.250000e+001  1.950000e+001  1.100000e+001
      vertex -1.250000e+001 -5.500000e+000  1.150000e+001
      vertex -1.250000e+001 -5.500000e+000  1.100000e+001
    endloop
  endfacet
  facet normal  0.000000e+000 -1.000000e+000  0.000000e+000
    outer loop
      vertex -1.250000e+001  1.950000e+001  1.150000e+001
      vertex -1.250000e+001  1.950000e+001  1.100000e+001
      vertex  1.250000e+001  1.950000e+001  1.150000e+001
    endloop
  endfacet
  facet normal  0.000000e+000 -1.000000e+000  -0.000000e+000
    outer loop
      vertex  1.250000e+001  1.950000e+001  1.150000e+001
      vertex -1.250000e+001  1.950000e+001  1.100000e+001
      vertex  1.250000e+001  1.950000e+001  1.100000e+001
    endloop
  endfacet
  facet normal -1.000000e+000  -0.000000e+000  0.000000e+000
    outer loop
      vertex  1.250000e+001 -5.500000e+000  1.150000e+001
      vertex  1.250000e+001  1.950000e+001  1.150000e+001
      vertex  1.250000e+001 -5.500000e+000  1.100000e+001
    endloop
  endfacet
  facet normal -1.000000e+000  0.000000e+000  0.000000e+000
    outer loop
      vertex  1.250000e+001 -5.500000e+000  1.100000e+001
      vertex  1.250000e+001  1.950000e+001  1.150000e+001
      vertex  1.250000e+001  1.950000e+001  1.100000e+001
    endloop
  endfacet
  facet normal  0.000000e+000  1.000000e+000  -0.000000e+000
    outer loop
      vertex  1.250000e+001 -5.500000e+000  1.150000e+001
      vertex  1.250000e+001 -5.500000e+000  1.100000e+001
      vertex -1.250000e+001 -5.500000e+000  1.150000e+001
    endloop
  endfacet
  facet normal  0.000000e+000  1.000000e+000  0.000000e+000
    outer loop
      vertex -1.250000e+001 -5.500000e+000  1.150000e+001
      vertex  1.250000e+001 -5.500000e+000  1.100000e+001
      vertex -1.250000e+001 -5.500000e+000  1.100000e+001
    endloop
  endfacet
  facet normal -7.071068e-001  0.000000e+000  7.071068e-001
    outer loop
      vertex  1.250000e+001 -5.500000e+000  1.150000e+001
      vertex  1.400000e+001 -7.000000e+000  1.300000e+001
      vertex  1.250000e+001  1.950000e+001  1.150000e+001
    endloop
  endfacet
  facet normal -7.071068e-001  0.000000e+000  7.071068e-001
    outer loop
      vertex  1.250000e+001  1.950000e+001  1.150000e+001
      vertex  1.400000e+001 -7.000000e+000  1.300000e+001
      vertex  1.400000e+001  2.100000e+001  1.300000e+001
    endloop
  endfacet
  facet normal  -0.000000e+000  7.071068e-001  7.071068e-001
    outer loop
      vertex  1.250000e+001 -5.500000e+000  1.150000e+001
      vertex -1.250000e+001 -5.500000e+000  1.150000e+001
      vertex  1.400000e+001 -7.000000e+000  1.300000e+001
    endloop
  endfacet
  facet normal  0.000000e+000  7.071068e-001  7.071068e-001
    outer loop
      vertex  1.400000e+001 -7.000000e+000  1.300000e+001
      vertex -1.250000e+001 -5.500000e+000  1.150000e+001
      vertex -1.400000e+001 -7.000000e+000  1.300000e+001
    endloop
  endfacet
  facet normal  7.071068e-001  0.000000e+000  7.071068e-001
    outer loop
      vertex -1.250000e+001  1.950000e+001  1.150000e+001
      vertex -1.400000e+001  2.100000e+001  1.300000e+001
      vertex -1.250000e+001 -5.500000e+000  1.150000e+001
    endloop
  endfacet
  facet normal  7.071068e-001  0.000000e+000  7.071068e-001
    outer loop
      vertex -1.250000e+001 -5.500000e+000  1.150000e+001
      vertex -1.400000e+001  2.100000e+001  1.300000e+001
      vertex -1.400000e+001 -7.000000e+000  1.300000e+001
    endloop
  endfacet
  facet normal  0.000000e+000 -7.071068e-001  7.071068e-001
    outer loop
      vertex -1.250000e+001  1.950000e+001  1.150000e+001
      vertex  1.250000e+001  1.950000e+001  1.150000e+001
      vertex -1.400000e+001  2.100000e+001  1.300000e+001
    endloop
  endfacet
  facet normal  0.000000e+000 -7.071068e-001  7.071068e-001
    outer loop
      vertex -1.400000e+001  2.100000e+001  1.300000e+001
      vertex  1.250000e+001  1.950000e+001  1.150000e+001
      vertex  1.400000e+001  2.100000e+001  1.300000e+001
    endloop
  endfacet
  facet normal  -0.000000e+000  7.071068e-001  7.071068e-001
    outer loop
      vertex  1.050000e+001 -3.500000e+000  1.000000e+001
      vertex -1.050000e+001 -3.500000e+000  1.000000e+001
      vertex  1.150000e+001 -4.500000e+000  1.100000e+001
    endloop
  endfacet
  facet normal  0.000000e+000  7.071068e-001  7.071068e-001
    outer loop
      vertex  1.150000e+001 -4.500000e+000  1.100000e+001
      vertex -1.050000e+001 -3.500000e+000  1.000000e+001
      vertex -1.150000e+001 -4.500000e+000  1.100000e+001
    endloop
  endfacet
  facet normal  0.000000e+000  0.000000e+000  1.000000e+000
    outer loop
      vertex  1.250000e+001 -5.500000e+000  1.100000e+001
      vertex  1.150000e+001 -4.500000e+000  1.100000e+001
      vertex -1.250000e+001 -5.500000e+000  1.100000e+001
    endloop
  endfacet
  facet normal  0.000000e+000  0.000000e+000  1.000000e+000
    outer loop
      vertex -1.250000e+001 -5.500000e+000  1.100000e+001
      vertex  1.150000e+001 -4.500000e+000  1.100000e+001
      vertex -1.150000e+001 -4.500000e+000  1.100000e+001
    endloop
  endfacet
  facet normal  0.000000e+000  0.000000e+000  1.000000e+000
    outer loop
      vertex -1.250000e+001 -5.500000e+000  1.100000e+001
      vertex -1.150000e+001 -4.500000e+000  1.100000e+001
      vertex -1.250000e+001  1.950000e+001  1.100000e+001
    endloop
  endfacet
  facet normal  0.000000e+000  0.000000e+000  1.000000e+000
    outer loop
      vertex -1.250000e+001  1.950000e+001  1.100000e+001
      vertex -1.150000e+001 -4.500000e+000  1.100000e+001
      vertex -1.150000e+001  1.850000e+001  1.100000e+001
    endloop
  endfacet
  facet normal  0.000000e+000  -0.000000e+000  1.000000e+000
    outer loop
      vertex -1.250000e+001  1.950000e+001  1.100000e+001
      vertex -1.150000e+001  1.850000e+001  1.100000e+001
      vertex  1.250000e+001  1.950000e+001  1.100000e+001
    endloop
  endfacet
  facet normal  0.000000e+000  0.000000e+000  1.000000e+000
    outer loop
      vertex  1.250000e+001  1.950000e+001  1.100000e+001
      vertex -1.150000e+001  1.850000e+001  1.100000e+001
      vertex  1.150000e+001  1.850000e+001  1.100000e+001
    endloop
  endfacet
  facet normal  -0.000000e+000  0.000000e+000  1.000000e+000
    outer loop
      vertex  1.250000e+001  1.950000e+001  1.100000e+001
      vertex  1.150000e+001  1.850000e+001  1.100000e+001
      vertex  1.250000e+001 -5.500000e+000  1.100000e+001
    endloop
  endfacet
  facet normal  0.000000e+000  0.000000e+000  1.000000e+000
    outer loop
      vertex  1.250000e+001 -5.500000e+000  1.100000e+001
      vertex  1.150000e+001  1.850000e+001  1.100000e+001
      vertex  1.150000e+001 -4.500000e+000  1.100000e+001
    endloop
  endfacet
  facet normal  0.000000e+000 -1.000000e+000  0.000000e+000
    outer loop
      vertex -1.050000e+001  1.750000e+001  1.000000e+001
      vertex -1.050000e+001  1.750000e+001  8.000000e+000
      vertex  1.050000e+001  1.750000e+001  1.000000e+001
    endloop
  endfacet
  facet normal  0.000000e+000 -1.000000e+000  -0.000000e+000
    outer loop
      vertex  1.050000e+001  1.750000e+001  1.000000e+001
      vertex -1.050000e+001  1.750000e+001  8.000000e+000
      vertex  1.050000e+001  1.750000e+001  8.000000e+000
    endloop
  endfacet
  facet normal -7.071068e-001  0.000000e+000  7.071068e-001
    outer loop
      vertex  1.050000e+001 -3.500000e+000  1.000000e+001
      vertex  1.150000e+001 -4.500000e+000  1.100000e+001
      vertex  1.050000e+001  1.750000e+001  1.000000e+001
    endloop
  endfacet
  facet normal -7.071068e-001  0.000000e+000  7.071068e-001
    outer loop
      vertex  1.050000e+001  1.750000e+001  1.000000e+001
      vertex  1.150000e+001 -4.500000e+000  1.100000e+001
      vertex  1.150000e+001  1.850000e+001  1.100000e+001
    endloop
  endfacet
  facet normal  7.071068e-001  0.000000e+000  7.071068e-001
    outer loop
      vertex -1.050000e+001  1.750000e+001  1.000000e+001
      vertex -1.150000e+001  1.850000e+001  1.100000e+001
      vertex -1.050000e+001 -3.500000e+000  1.000000e+001
    endloop
  endfacet
  facet normal  7.071068e-001  0.000000e+000  7.071068e-001
    outer loop
      vertex -1.050000e+001 -3.500000e+000  1.000000e+001
      vertex -1.150000e+001  1.850000e+001  1.100000e+001
      vertex -1.150000e+001 -4.500000e+000  1.100000e+001
    endloop
  endfacet
  facet normal  0.000000e+000 -7.071068e-001  7.071068e-001
    outer loop
      vertex -1.050000e+001  1.750000e+001  1.000000e+001
      vertex  1.050000e+001  1.750000e+001  1.000000e+001
      vertex -1.150000e+001  1.850000e+001  1.100000e+001
    endloop
  endfacet
  facet normal  0.000000e+000 -7.071068e-001  7.071068e-001
    outer loop
      vertex -1.150000e+001  1.850000e+001  1.100000e+001
      vertex  1.050000e+001  1.750000e+001  1.000000e+001
      vertex  1.150000e+001  1.850000e+001  1.100000e+001
    endloop
  endfacet
  facet normal  -0.000000e+000  7.071067e-001  7.071067e-001
    outer loop
      vertex  9.000000e+000 -2.000000e+000  7.000000e+000
      vertex -9.000000e+000 -2.000000e+000  7.000000e+000
      vertex  1.000000e+001 -3.000000e+000  8.000000e+000
    endloop
  endfacet
  facet normal  0.000000e+000  7.071068e-001  7.071068e-001
    outer loop
      vertex  1.000000e+001 -3.000000e+000  8.000000e+000
      vertex -9.000000e+000 -2.000000e+000  7.000000e+000
      vertex -9.000000e+000 -3.000000e+000  8.000000e+000
    endloop
  endfacet
  facet normal  0.000000e+000  0.000000e+000  1.000000e+000
    outer loop
      vertex  1.050000e+001 -3.500000e+000  8.000000e+000
      vertex  1.000000e+001 -3.000000e+000  8.000000e+000
      vertex -1.050000e+001 -3.500000e+000  8.000000e+000
    endloop
  endfacet
  facet normal  0.000000e+000  0.000000e+000  1.000000e+000
    outer loop
      vertex -1.050000e+001 -3.500000e+000  8.000000e+000
      vertex  1.000000e+001 -3.000000e+000  8.000000e+000
      vertex -9.000000e+000 -3.000000e+000  8.000000e+000
    endloop
  endfacet
  facet normal  0.000000e+000  0.000000e+000  1.000000e+000
    outer loop
      vertex -1.050000e+001 -3.500000e+000  8.000000e+000
      vertex -9.000000e+000 -3.000000e+000  8.000000e+000
      vertex -1.050000e+001  1.750000e+001  8.000000e+000
    endloop
  endfacet
  facet normal  0.000000e+000  0.000000e+000  1.000000e+000
    outer loop
      vertex -1.050000e+001  1.750000e+001  8.000000e+000
      vertex -9.000000e+000 -3.000000e+000  8.000000e+000
      vertex -9.000000e+000  1.700000e+001  8.000000e+000
    endloop
  endfacet
  facet normal  0.000000e+000  -0.000000e+000  1.000000e+000
    outer loop
      vertex -1.050000e+001  1.750000e+001  8.000000e+000
      vertex -9.000000e+000  1.700000e+001  8.000000e+000
      vertex  1.050000e+001  1.750000e+001  8.000000e+000
    endloop
  endfacet
  facet normal  0.000000e+000  0.000000e+000  1.000000e+000
    outer loop
      vertex  1.050000e+001  1.750000e+001  8.000000e+000
      vertex -9.000000e+000  1.700000e+001  8.000000e+000
      vertex  1.000000e+001  1.700000e+001  8.000000e+000
    endloop
  endfacet
  facet normal  -0.000000e+000  0.000000e+000  1.000000e+000
    outer loop
      vertex  1.050000e+001  1.750000e+001  8.000000e+000
      vertex  1.000000e+001  1.700000e+001  8.000000e+000
      vertex  1.050000e+001 -3.500000e+000  8.000000e+000
    endloop
  endfacet
  facet normal  0.000000e+000  0.000000e+000  1.000000e+000
    outer loop
      vertex  1.050000e+001 -3.500000e+000  8.000000e+000
      vertex  1.000000e+001  1.700000e+001  8.000000e+000
      vertex  1.000000e+001 -3.000000e+000  8.000000e+000
    endloop
  endfacet
  facet normal  0.000000e+000 -1.000000e+000  0.000000e+000
    outer loop
      vertex -9.000000e+000  1.600000e+001  7.000000e+000
      vertex -9.000000e+000  1.600000e+001  4.000000e+000
      vertex  9.000000e+000  1.600000e+001  7.000000e+000
    endloop
  endfacet
  facet normal  0.000000e+000 -1.000000e+000  -0.000000e+000
    outer loop
      vertex  9.000000e+000  1.600000e+001  7.000000e+000
      vertex -9.000000e+000  1.600000e+001  4.000000e+000
      vertex  9.000000e+000  1.600000e+001  4.000000e+000
    endloop
  endfacet
  facet normal -7.071067e-001  0.000000e+000  7.071067e-001
    outer loop
      vertex  9.000000e+000 -2.000000e+000  7.000000e+000
      vertex  1.000000e+001 -3.000000e+000  8.000000e+000
      vertex  9.000000e+000  1.600000e+001  7.000000e+000
    endloop
  endfacet
  facet normal -7.071068e-001  0.000000e+000  7.071068e-001
    outer loop
      vertex  9.000000e+000  1.600000e+001  7.000000e+000
      vertex  1.000000e+001 -3.000000e+000  8.000000e+000
      vertex  1.000000e+001  1.700000e+001  8.000000e+000
    endloop
  endfacet
  facet normal  1.000000e+000  0.000000e+000  0.000000e+000
    outer loop
      vertex -9.000000e+000  1.600000e+001  4.000000e+000
      vertex -9.000000e+000  1.600000e+001  7.000000e+000
      vertex -9.000000e+000 -2.000000e+000  4.000000e+000
    endloop
  endfacet
  facet normal  1.000000e+000  -0.000000e+000  0.000000e+000
    outer loop
      vertex -9.000000e+000  1.700000e+001  8.000000e+000
      vertex -9.000000e+000 -3.000000e+000  8.000000e+000
      vertex -9.000000e+000 -2.000000e+000  7.000000e+000
    endloop
  endfacet
  facet normal  1.000000e+000  -0.000000e+000  0.000000e+000
    outer loop
      vertex -9.000000e+000  1.700000e+001  8.000000e+000
      vertex -9.000000e+000 -2.000000e+000  7.000000e+000
      vertex -9.000000e+000 -2.000000e+000  4.000000e+000
    endloop
  endfacet
  facet normal  1.000000e+000  0.000000e+000  0.000000e+000
    outer loop
      vertex -9.000000e+000  1.700000e+001  8.000000e+000
      vertex -9.000000e+000 -2.000000e+000  4.000000e+000
      vertex -9.000000e+000  1.600000e+001  7.000000e+000
    endloop
  endfacet
  facet normal  1.000000e+000  -0.000000e+000  0.000000e+000
    outer loop
      vertex -1.050000e+001  1.750000e+001  1.000000e+001
      vertex -1.050000e+001 -3.500000e+000  1.000000e+001
      vertex -1.050000e+001  1.750000e+001  8.000000e+000
    endloop
  endfacet
  facet normal  1.000000e+000  0.000000e+000  0.000000e+000
    outer loop
      vertex -1.050000e+001  1.750000e+001  8.000000e+000
      vertex -1.050000e+001 -3.500000e+000  1.000000e+001
      vertex -1.050000e+001 -3.500000e+000  8.000000e+000
    endloop
  endfacet
  facet normal -1.000000e+000  -0.000000e+000  0.000000e+000
    outer loop
      vertex  1.050000e+001 -3.500000e+000  1.000000e+001
      vertex  1.050000e+001  1.750000e+001  1.000000e+001
      vertex  1.050000e+001 -3.500000e+000  8.000000e+000
    endloop
  endfacet
  facet normal -1.000000e+000  0.000000e+000  0.000000e+000
    outer loop
      vertex  1.050000e+001 -3.500000e+000  8.000000e+000
      vertex  1.050000e+001  1.750000e+001  1.000000e+001
      vertex  1.050000e+001  1.750000e+001  8.000000e+000
    endloop
  endfacet
  facet normal -1.000000e+000  -0.000000e+000  0.000000e+000
    outer loop
      vertex  9.000000e+000 -2.000000e+000  7.000000e+000
      vertex  9.000000e+000  1.600000e+001  7.000000e+000
      vertex  9.000000e+000 -2.000000e+000  4.000000e+000
    endloop
  endfacet
  facet normal -1.000000e+000  0.000000e+000  0.000000e+000
    outer loop
      vertex  9.000000e+000 -2.000000e+000  4.000000e+000
      vertex  9.000000e+000  1.600000e+001  7.000000e+000
      vertex  9.000000e+000  1.600000e+001  4.000000e+000
    endloop
  endfacet
  facet normal  0.000000e+000 -7.071067e-001  7.071067e-001
    outer loop
      vertex -9.000000e+000  1.600000e+001  7.000000e+000
      vertex  9.000000e+000  1.600000e+001  7.000000e+000
      vertex -9.000000e+000  1.700000e+001  8.000000e+000
    endloop
  endfacet
  facet normal  0.000000e+000 -7.071068e-001  7.071068e-001
    outer loop
      vertex -9.000000e+000  1.700000e+001  8.000000e+000
      vertex  9.000000e+000  1.600000e+001  7.000000e+000
      vertex  1.000000e+001  1.700000e+001  8.000000e+000
    endloop
  endfacet
  facet normal  0.000000e+000  1.000000e+000  -0.000000e+000
    outer loop
      vertex  1.050000e+001 -3.500000e+000  1.000000e+001
      vertex  1.050000e+001 -3.500000e+000  8.000000e+000
      vertex -1.050000e+001 -3.500000e+000  1.000000e+001
    endloop
  endfacet
  facet normal  0.000000e+000  1.000000e+000  0.000000e+000
    outer loop
      vertex -1.050000e+001 -3.500000e+000  1.000000e+001
      vertex  1.050000e+001 -3.500000e+000  8.000000e+000
      vertex -1.050000e+001 -3.500000e+000  8.000000e+000
    endloop
  endfacet
  facet normal  0.000000e+000  1.000000e+000  -0.000000e+000
    outer loop
      vertex  9.000000e+000 -2.000000e+000  7.000000e+000
      vertex  9.000000e+000 -2.000000e+000  4.000000e+000
      vertex -9.000000e+000 -2.000000e+000  7.000000e+000
    endloop
  endfacet
  facet normal  0.000000e+000  1.000000e+000  0.000000e+000
    outer loop
      vertex -9.000000e+000 -2.000000e+000  7.000000e+000
      vertex  9.000000e+000 -2.000000e+000  4.000000e+000
      vertex -9.000000e+000 -2.000000e+000  4.000000e+000
    endloop
  endfacet
  facet normal  -0.000000e+000  0.000000e+000 -1.000000e+000
    outer loop
      vertex -4.050000e+001  4.750000e+001  1.650000e+001
      vertex -3.150000e+001 -2.450000e+001  1.650000e+001
      vertex -4.050000e+001 -3.350000e+001  1.650000e+001
    endloop
  endfacet
  facet normal  0.000000e+000  0.000000e+000 -9.999999e-001
    outer loop
      vertex -4.050000e+001 -3.350000e+001  1.650000e+001
      vertex -3.150000e+001 -2.450000e+001  1.650000e+001
      vertex  3.150000e+001 -2.450000e+001  1.650000e+001
    endloop
  endfacet
  facet normal  0.000000e+000  -0.000000e+000 -1.000000e+000
    outer loop
      vertex -4.050000e+001 -3.350000e+001  1.650000e+001
      vertex  3.150000e+001 -2.450000e+001  1.650000e+001
      vertex  4.050000e+001 -3.350000e+001  1.650000e+001
    endloop
  endfacet
  facet normal  0.000000e+000  0.000000e+000 -9.999999e-001
    outer loop
      vertex -3.150000e+001 -2.450000e+001  1.650000e+001
      vertex -4.050000e+001  4.750000e+001  1.650000e+001
      vertex -3.150000e+001  3.850000e+001  1.650000e+001
    endloop
  endfacet
  facet normal  0.000000e+000  0.000000e+000 -1.000000e+000
    outer loop
      vertex -3.150000e+001  3.850000e+001  1.650000e+001
      vertex -4.050000e+001  4.750000e+001  1.650000e+001
      vertex  4.050000e+001  4.750000e+001  1.650000e+001
    endloop
  endfacet
  facet normal  0.000000e+000  0.000000e+000 -9.999999e-001
    outer loop
      vertex -3.150000e+001  3.850000e+001  1.650000e+001
      vertex  4.050000e+001  4.750000e+001  1.650000e+001
      vertex  3.150000e+001  3.850000e+001  1.650000e+001
    endloop
  endfacet
  facet normal  0.000000e+000  0.000000e+000 -1.000000e+000
    outer loop
      vertex  3.150000e+001  3.850000e+001  1.650000e+001
      vertex  4.050000e+001  4.750000e+001  1.650000e+001
      vertex  4.050000e+001 -3.350000e+001  1.650000e+001
    endloop
  endfacet
  facet normal  0.000000e+000  0.000000e+000 -9.999999e-001
    outer loop
      vertex  3.150000e+001  3.850000e+001  1.650000e+001
      vertex  4.050000e+001 -3.350000e+001  1.650000e+001
      vertex  3.150000e+001 -2.450000e+001  1.650000e+001
    endloop
  endfacet
  facet normal  1.000000e+000  0.000000e+000  0.000000e+000
    outer loop
      vertex  3.150000e+001 -2.450000e+001  1.650000e+001
      vertex  3.150000e+001 -2.450000e+001  1.450000e+001
      vertex  3.150000e+001  3.850000e+001  1.650000e+001
    endloop
  endfacet
  facet normal  1.000000e+000  0.000000e+000  0.000000e+000
    outer loop
      vertex  3.150000e+001  3.850000e+001  1.650000e+001
      vertex  3.150000e+001 -2.450000e+001  1.450000e+001
      vertex  3.150000e+001  3.850000e+001  1.450000e+001
    endloop
  endfacet
  facet normal  0.000000e+000 -1.000000e+000  0.000000e+000
    outer loop
      vertex  3.150000e+001 -2.450000e+001  1.650000e+001
      vertex -3.150000e+001 -2.450000e+001  1.650000e+001
      vertex  3.150000e+001 -2.450000e+001  1.450000e+001
    endloop
  endfacet
  facet normal  0.000000e+000 -1.000000e+000  0.000000e+000
    outer loop
      vertex  3.150000e+001 -2.450000e+001  1.450000e+001
      vertex -3.150000e+001 -2.450000e+001  1.650000e+001
      vertex -3.150000e+001 -2.450000e+001  1.450000e+001
    endloop
  endfacet
  facet normal  0.000000e+000  1.000000e+000  0.000000e+000
    outer loop
      vertex -3.150000e+001  3.850000e+001  1.650000e+001
      vertex  3.150000e+001  3.850000e+001  1.650000e+001
      vertex -3.150000e+001  3.850000e+001  1.450000e+001
    endloop
  endfacet
  facet normal  0.000000e+000  1.000000e+000  0.000000e+000
    outer loop
      vertex -3.150000e+001  3.850000e+001  1.450000e+001
      vertex  3.150000e+001  3.850000e+001  1.650000e+001
      vertex  3.150000e+001  3.850000e+001  1.450000e+001
    endloop
  endfacet
  facet normal -1.000000e+000  0.000000e+000  0.000000e+000
    outer loop
      vertex -3.150000e+001  3.850000e+001  1.650000e+001
      vertex -3.150000e+001  3.850000e+001  1.450000e+001
      vertex -3.150000e+001 -2.450000e+001  1.650000e+001
    endloop
  endfacet
  facet normal -1.000000e+000  0.000000e+000  0.000000e+000
    outer loop
      vertex -3.150000e+001 -2.450000e+001  1.650000e+001
      vertex -3.150000e+001  3.850000e+001  1.450000e+001
      vertex -3.150000e+001 -2.450000e+001  1.450000e+001
    endloop
  endfacet
  facet normal -9.999999e-001  0.000000e+000  0.000000e+000
    outer loop
      vertex -2.350000e+001  3.050000e+001  1.450000e+001
      vertex -2.350000e+001  3.050000e+001  1.250000e+001
      vertex -2.350000e+001 -1.650000e+001  1.450000e+001
    endloop
  endfacet
  facet normal -9.999999e-001  0.000000e+000  0.000000e+000
    outer loop
      vertex -2.350000e+001 -1.650000e+001  1.450000e+001
      vertex -2.350000e+001  3.050000e+001  1.250000e+001
      vertex -2.350000e+001 -1.650000e+001  1.250000e+001
    endloop
  endfacet
  facet normal  0.000000e+000  9.999999e-001  0.000000e+000
    outer loop
      vertex -2.350000e+001  3.050000e+001  1.450000e+001
      vertex  2.350000e+001  3.050000e+001  1.450000e+001
      vertex -2.350000e+001  3.050000e+001  1.250000e+001
    endloop
  endfacet
  facet normal  0.000000e+000  9.999999e-001  0.000000e+000
    outer loop
      vertex -2.350000e+001  3.050000e+001  1.250000e+001
      vertex  2.350000e+001  3.050000e+001  1.450000e+001
      vertex  2.350000e+001  3.050000e+001  1.250000e+001
    endloop
  endfacet
  facet normal  0.000000e+000 -9.999999e-001  0.000000e+000
    outer loop
      vertex  2.350000e+001 -1.650000e+001  1.450000e+001
      vertex -2.350000e+001 -1.650000e+001  1.450000e+001
      vertex  2.350000e+001 -1.650000e+001  1.250000e+001
    endloop
  endfacet
  facet normal  0.000000e+000 -9.999999e-001  0.000000e+000
    outer loop
      vertex  2.350000e+001 -1.650000e+001  1.250000e+001
      vertex -2.350000e+001 -1.650000e+001  1.450000e+001
      vertex -2.350000e+001 -1.650000e+001  1.250000e+001
    endloop
  endfacet
  facet normal  9.999999e-001  0.000000e+000  0.000000e+000
    outer loop
      vertex  2.350000e+001 -1.650000e+001  1.450000e+001
      vertex  2.350000e+001 -1.650000e+001  1.250000e+001
      vertex  2.350000e+001  3.050000e+001  1.450000e+001
    endloop
  endfacet
  facet normal  9.999999e-001  0.000000e+000  0.000000e+000
    outer loop
      vertex  2.350000e+001  3.050000e+001  1.450000e+001
      vertex  2.350000e+001 -1.650000e+001  1.250000e+001
      vertex  2.350000e+001  3.050000e+001  1.250000e+001
    endloop
  endfacet
  facet normal  -0.000000e+000  0.000000e+000 -1.000000e+000
    outer loop
      vertex -3.150000e+001  3.850000e+001  1.450000e+001
      vertex -2.350000e+001 -1.650000e+001  1.450000e+001
      vertex -3.150000e+001 -2.450000e+001  1.450000e+001
    endloop
  endfacet
  facet normal  0.000000e+000  0.000000e+000 -9.999999e-001
    outer loop
      vertex -3.150000e+001 -2.450000e+001  1.450000e+001
      vertex -2.350000e+001 -1.650000e+001  1.450000e+001
      vertex  2.350000e+001 -1.650000e+001  1.450000e+001
    endloop
  endfacet
  facet normal  0.000000e+000  -0.000000e+000 -1.000000e+000
    outer loop
      vertex -3.150000e+001 -2.450000e+001  1.450000e+001
      vertex  2.350000e+001 -1.650000e+001  1.450000e+001
      vertex  3.150000e+001 -2.450000e+001  1.450000e+001
    endloop
  endfacet
  facet normal  0.000000e+000  0.000000e+000 -9.999999e-001
    outer loop
      vertex -2.350000e+001 -1.650000e+001  1.450000e+001
      vertex -3.150000e+001  3.850000e+001  1.450000e+001
      vertex -2.350000e+001  3.050000e+001  1.450000e+001
    endloop
  endfacet
  facet normal  0.000000e+000  0.000000e+000 -1.000000e+000
    outer loop
      vertex -2.350000e+001  3.050000e+001  1.450000e+001
      vertex -3.150000e+001  3.850000e+001  1.450000e+001
      vertex  3.150000e+001  3.850000e+001  1.450000e+001
    endloop
  endfacet
  facet normal  0.000000e+000  0.000000e+000 -9.999999e-001
    outer loop
      vertex -2.350000e+001  3.050000e+001  1.450000e+001
      vertex  3.150000e+001  3.850000e+001  1.450000e+001
      vertex  2.350000e+001  3.050000e+001  1.450000e+001
    endloop
  endfacet
  facet normal  0.000000e+000  0.000000e+000 -1.000000e+000
    outer loop
      vertex  2.350000e+001  3.050000e+001  1.450000e+001
      vertex  3.150000e+001  3.850000e+001  1.450000e+001
      vertex  3.150000e+001 -2.450000e+001  1.450000e+001
    endloop
  endfacet
  facet normal  0.000000e+000  0.000000e+000 -9.999999e-001
    outer loop
      vertex  2.350000e+001  3.050000e+001  1.450000e+001
      vertex  3.150000e+001 -2.450000e+001  1.450000e+001
      vertex  2.350000e+001 -1.650000e+001  1.450000e+001
    endloop
  endfacet
  facet normal -1.000000e+000  0.000000e+000  0.000000e+000
    outer loop
      vertex -1.750000e+001  2.450000e+001  1.250000e+001
      vertex -1.750000e+001  2.450000e+001  1.000000e+001
      vertex -1.750000e+001 -1.050000e+001  1.250000e+001
    endloop
  endfacet
  facet normal -1.000000e+000  0.000000e+000  0.000000e+000
    outer loop
      vertex -1.750000e+001 -1.050000e+001  1.250000e+001
      vertex -1.750000e+001  2.450000e+001  1.000000e+001
      vertex -1.750000e+001 -1.050000e+001  1.000000e+001
    endloop
  endfacet
  facet normal  0.000000e+000  1.000000e+000  0.000000e+000
    outer loop
      vertex -1.750000e+001  2.450000e+001  1.250000e+001
      vertex  1.750000e+001  2.450000e+001  1.250000e+001
      vertex -1.750000e+001  2.450000e+001  1.000000e+001
    endloop
  endfacet
  facet normal  0.000000e+000  1.000000e+000  0.000000e+000
    outer loop
      vertex -1.750000e+001  2.450000e+001  1.000000e+001
      vertex  1.750000e+001  2.450000e+001  1.250000e+001
      vertex  1.750000e+001  2.450000e+001  1.000000e+001
    endloop
  endfacet
  facet normal  0.000000e+000 -1.000000e+000  0.000000e+000
    outer loop
      vertex  1.750000e+001 -1.050000e+001  1.250000e+001
      vertex -1.750000e+001 -1.050000e+001  1.250000e+001
      vertex  1.750000e+001 -1.050000e+001  1.000000e+001
    endloop
  endfacet
  facet normal  0.000000e+000 -1.000000e+000  0.000000e+000
    outer loop
      vertex  1.750000e+001 -1.050000e+001  1.000000e+001
      vertex -1.750000e+001 -1.050000e+001  1.250000e+001
      vertex -1.750000e+001 -1.050000e+001  1.000000e+001
    endloop
  endfacet
  facet normal  1.000000e+000  0.000000e+000  0.000000e+000
    outer loop
      vertex  1.750000e+001 -1.050000e+001  1.250000e+001
      vertex  1.750000e+001 -1.050000e+001  1.000000e+001
      vertex  1.750000e+001  2.450000e+001  1.250000e+001
    endloop
  endfacet
  facet normal  1.000000e+000  0.000000e+000  0.000000e+000
    outer loop
      vertex  1.750000e+001  2.450000e+001  1.250000e+001
      vertex  1.750000e+001 -1.050000e+001  1.000000e+001
      vertex  1.750000e+001  2.450000e+001  1.000000e+001
    endloop
  endfacet
  facet normal  -0.000000e+000  0.000000e+000 -9.999999e-001
    outer loop
      vertex -2.350000e+001  3.050000e+001  1.250000e+001
      vertex -1.750000e+001 -1.050000e+001  1.250000e+001
      vertex -2.350000e+001 -1.650000e+001  1.250000e+001
    endloop
  endfacet
  facet normal  0.000000e+000  0.000000e+000 -1.000000e+000
    outer loop
      vertex -2.350000e+001 -1.650000e+001  1.250000e+001
      vertex -1.750000e+001 -1.050000e+001  1.250000e+001
      vertex  1.750000e+001 -1.050000e+001  1.250000e+001
    endloop
  endfacet
  facet normal  0.000000e+000  -0.000000e+000 -9.999999e-001
    outer loop
      vertex -2.350000e+001 -1.650000e+001  1.250000e+001
      vertex  1.750000e+001 -1.050000e+001  1.250000e+001
      vertex  2.350000e+001 -1.650000e+001  1.250000e+001
    endloop
  endfacet
  facet normal  0.000000e+000  0.000000e+000 -1.000000e+000
    outer loop
      vertex -1.750000e+001 -1.050000e+001  1.250000e+001
      vertex -2.350000e+001  3.050000e+001  1.250000e+001
      vertex -1.750000e+001  2.450000e+001  1.250000e+001
    endloop
  endfacet
  facet normal  0.000000e+000  0.000000e+000 -9.999999e-001
    outer loop
      vertex -1.750000e+001  2.450000e+001  1.250000e+001
      vertex -2.350000e+001  3.050000e+001  1.250000e+001
      vertex  2.350000e+001  3.050000e+001  1.250000e+001
    endloop
  endfacet
  facet normal  0.000000e+000  0.000000e+000 -1.000000e+000
    outer loop
      vertex -1.750000e+001  2.450000e+001  1.250000e+001
      vertex  2.350000e+001  3.050000e+001  1.250000e+001
      vertex  1.750000e+001  2.450000e+001  1.250000e+001
    endloop
  endfacet
  facet normal  0.000000e+000  0.000000e+000 -9.999999e-001
    outer loop
      vertex  1.750000e+001  2.450000e+001  1.250000e+001
      vertex  2.350000e+001  3.050000e+001  1.250000e+001
      vertex  2.350000e+001 -1.650000e+001  1.250000e+001
    endloop
  endfacet
  facet normal  0.000000e+000  0.000000e+000 -1.000000e+000
    outer loop
      vertex  1.750000e+001  2.450000e+001  1.250000e+001
      vertex  2.350000e+001 -1.650000e+001  1.250000e+001
      vertex  1.750000e+001 -1.050000e+001  1.250000e+001
    endloop
  endfacet
  facet normal -1.000000e+000  0.000000e+000  0.000000e+000
    outer loop
      vertex -1.350000e+001  2.050000e+001  1.000000e+001
      vertex -1.350000e+001  2.050000e+001  7.500000e+000
      vertex -1.350000e+001 -6.500000e+000  1.000000e+001
    endloop
  endfacet
  facet normal -1.000000e+000  0.000000e+000  0.000000e+000
    outer loop
      vertex -1.350000e+001 -6.500000e+000  1.000000e+001
      vertex -1.350000e+001  2.050000e+001  7.500000e+000
      vertex -1.350000e+001 -6.500000e+000  7.500000e+000
    endloop
  endfacet
  facet normal  0.000000e+000  1.000000e+000  0.000000e+000
    outer loop
      vertex -1.350000e+001  2.050000e+001  1.000000e+001
      vertex  1.350000e+001  2.050000e+001  1.000000e+001
      vertex -1.350000e+001  2.050000e+001  7.500000e+000
    endloop
  endfacet
  facet normal  0.000000e+000  1.000000e+000  0.000000e+000
    outer loop
      vertex -1.350000e+001  2.050000e+001  7.500000e+000
      vertex  1.350000e+001  2.050000e+001  1.000000e+001
      vertex  1.350000e+001  2.050000e+001  7.500000e+000
    endloop
  endfacet
  facet normal  0.000000e+000 -1.000000e+000  0.000000e+000
    outer loop
      vertex  1.350000e+001 -6.500000e+000  1.000000e+001
      vertex -1.350000e+001 -6.500000e+000  1.000000e+001
      vertex  1.350000e+001 -6.500000e+000  7.500000e+000
    endloop
  endfacet
  facet normal  0.000000e+000 -1.000000e+000  0.000000e+000
    outer loop
      vertex  1.350000e+001 -6.500000e+000  7.500000e+000
      vertex -1.350000e+001 -6.500000e+000  1.000000e+001
      vertex -1.350000e+001 -6.500000e+000  7.500000e+000
    endloop
  endfacet
  facet normal  1.000000e+000  0.000000e+000  0.000000e+000
    outer loop
      vertex  1.350000e+001 -6.500000e+000  1.000000e+001
      vertex  1.350000e+001 -6.500000e+000  7.500000e+000
      vertex  1.350000e+001  2.050000e+001  1.000000e+001
    endloop
  endfacet
  facet normal  1.000000e+000  0.000000e+000  0.000000e+000
    outer loop
      vertex  1.350000e+001  2.050000e+001  1.000000e+001
      vertex  1.350000e+001 -6.500000e+000  7.500000e+000
      vertex  1.350000e+001  2.050000e+001  7.500000e+000
    endloop
  endfacet
  facet normal  -0.000000e+000  0.000000e+000 -1.000000e+000
    outer loop
      vertex -1.750000e+001  2.450000e+001  1.000000e+001
      vertex -1.350000e+001 -6.500000e+000  1.000000e+001
      vertex -1.750000e+001 -1.050000e+001  1.000000e+001
    endloop
  endfacet
  facet normal  0.000000e+000  0.000000e+000 -1.000000e+000
    outer loop
      vertex -1.750000e+001 -1.050000e+001  1.000000e+001
      vertex -1.350000e+001 -6.500000e+000  1.000000e+001
      vertex  1.350000e+001 -6.500000e+000  1.000000e+001
    endloop
  endfacet
  facet normal  0.000000e+000  -0.000000e+000 -1.000000e+000
    outer loop
      vertex -1.750000e+001 -1.050000e+001  1.000000e+001
      vertex  1.350000e+001 -6.500000e+000  1.000000e+001
      vertex  1.750000e+001 -1.050000e+001  1.000000e+001
    endloop
  endfacet
  facet normal  0.000000e+000  0.000000e+000 -1.000000e+000
    outer loop
      vertex -1.350000e+001 -6.500000e+000  1.000000e+001
      vertex -1.750000e+001  2.450000e+001  1.000000e+001
      vertex -1.350000e+001  2.050000e+001  1.000000e+001
    endloop
  endfacet
  facet normal  0.000000e+000  0.000000e+000 -1.000000e+000
    outer loop
      vertex -1.350000e+001  2.050000e+001  1.000000e+001
      vertex -1.750000e+001  2.450000e+001  1.000000e+001
      vertex  1.750000e+001  2.450000e+001  1.000000e+001
    endloop
  endfacet
  facet normal  0.000000e+000  0.000000e+000 -1.000000e+000
    outer loop
      vertex -1.350000e+001  2.050000e+001  1.000000e+001
      vertex  1.750000e+001  2.450000e+001  1.000000e+001
      vertex  1.350000e+001  2.050000e+001  1.000000e+001
    endloop
  endfacet
  facet normal  0.000000e+000  0.000000e+000 -1.000000e+000
    outer loop
      vertex  1.350000e+001  2.050000e+001  1.000000e+001
      vertex  1.750000e+001  2.450000e+001  1.000000e+001
      vertex  1.750000e+001 -1.050000e+001  1.000000e+001
    endloop
  endfacet
  facet normal  0.000000e+000  0.000000e+000 -1.000000e+000
    outer loop
      vertex  1.350000e+001  2.050000e+001  1.000000e+001
      vertex  1.750000e+001 -1.050000e+001  1.000000e+001
      vertex  1.350000e+001 -6.500000e+000  1.000000e+001
    endloop
  endfacet
  facet normal -1.000000e+000  0.000000e+000  0.000000e+000
    outer loop
      vertex -1.150000e+001  1.850000e+001  7.500000e+000
      vertex -1.150000e+001  1.850000e+001  3.800000e+000
      vertex -1.150000e+001 -4.500000e+000  7.500000e+000
    endloop
  endfacet
  facet normal -1.000000e+000  0.000000e+000  0.000000e+000
    outer loop
      vertex -1.150000e+001 -4.500000e+000  7.500000e+000
      vertex -1.150000e+001  1.850000e+001  3.800000e+000
      vertex -1.150000e+001 -4.500000e+000  3.800000e+000
    endloop
  endfacet
  facet normal  0.000000e+000  1.000000e+000  0.000000e+000
    outer loop
      vertex -1.150000e+001  1.850000e+001  7.500000e+000
      vertex  1.150000e+001  1.850000e+001  7.500000e+000
      vertex -1.150000e+001  1.850000e+001  3.800000e+000
    endloop
  endfacet
  facet normal  0.000000e+000  1.000000e+000  0.000000e+000
    outer loop
      vertex -1.150000e+001  1.850000e+001  3.800000e+000
      vertex  1.150000e+001  1.850000e+001  7.500000e+000
      vertex  1.150000e+001  1.850000e+001  3.800000e+000
    endloop
  endfacet
  facet normal  0.000000e+000 -1.000000e+000  0.000000e+000
    outer loop
      vertex  1.150000e+001 -4.500000e+000  7.500000e+000
      vertex -1.150000e+001 -4.500000e+000  7.500000e+000
      vertex  1.150000e+001 -4.500000e+000  3.800000e+000
    endloop
  endfacet
  facet normal  0.000000e+000 -1.000000e+000  0.000000e+000
    outer loop
      vertex  1.150000e+001 -4.500000e+000  3.800000e+000
      vertex -1.150000e+001 -4.500000e+000  7.500000e+000
      vertex -1.150000e+001 -4.500000e+000  3.800000e+000
    endloop
  endfacet
  facet normal  1.000000e+000  0.000000e+000  0.000000e+000
    outer loop
      vertex  1.150000e+001 -4.500000e+000  7.500000e+000
      vertex  1.150000e+001 -4.500000e+000  3.800000e+000
      vertex  1.150000e+001  1.850000e+001  7.500000e+000
    endloop
  endfacet
  facet normal  1.000000e+000  0.000000e+000  0.000000e+000
    outer loop
      vertex  1.150000e+001  1.850000e+001  7.500000e+000
      vertex  1.150000e+001 -4.500000e+000  3.800000e+000
      vertex  1.150000e+001  1.850000e+001  3.800000e+000
    endloop
  endfacet
  facet normal  -0.000000e+000  0.000000e+000 -1.000000e+000
    outer loop
      vertex -1.350000e+001  2.050000e+001  7.500000e+000
      vertex -1.150000e+001 -4.500000e+000  7.500000e+000
      vertex -1.350000e+001 -6.500000e+000  7.500000e+000
    endloop
  endfacet
  facet normal  0.000000e+000  0.000000e+000 -1.000000e+000
    outer loop
      vertex -1.350000e+001 -6.500000e+000  7.500000e+000
      vertex -1.150000e+001 -4.500000e+000  7.500000e+000
      vertex  1.150000e+001 -4.500000e+000  7.500000e+000
    endloop
  endfacet
  facet normal  0.000000e+000  -0.000000e+000 -1.000000e+000
    outer loop
      vertex -1.350000e+001 -6.500000e+000  7.500000e+000
      vertex  1.150000e+001 -4.500000e+000  7.500000e+000
      vertex  1.350000e+001 -6.500000e+000  7.500000e+000
    endloop
  endfacet
  facet normal  0.000000e+000  0.000000e+000 -1.000000e+000
    outer loop
      vertex -1.150000e+001 -4.500000e+000  7.500000e+000
      vertex -1.350000e+001  2.050000e+001  7.500000e+000
      vertex -1.150000e+001  1.850000e+001  7.500000e+000
    endloop
  endfacet
  facet normal  0.000000e+000  0.000000e+000 -1.000000e+000
    outer loop
      vertex -1.150000e+001  1.850000e+001  7.500000e+000
      vertex -1.350000e+001  2.050000e+001  7.500000e+000
      vertex  1.350000e+001  2.050000e+001  7.500000e+000
    endloop
  endfacet
  facet normal  0.000000e+000  0.000000e+000 -1.000000e+000
    outer loop
      vertex -1.150000e+001  1.850000e+001  7.500000e+000
      vertex  1.350000e+001  2.050000e+001  7.500000e+000
      vertex  1.150000e+001  1.850000e+001  7.500000e+000
    endloop
  endfacet
  facet normal  0.000000e+000  0.000000e+000 -1.000000e+000
    outer loop
      vertex  1.150000e+001  1.850000e+001  7.500000e+000
      vertex  1.350000e+001  2.050000e+001  7.500000e+000
      vertex  1.350000e+001 -6.500000e+000  7.500000e+000
    endloop
  endfacet
  facet normal  0.000000e+000  0.000000e+000 -1.000000e+000
    outer loop
      vertex  1.150000e+001  1.850000e+001  7.500000e+000
      vertex  1.350000e+001 -6.500000e+000  7.500000e+000
      vertex  1.150000e+001 -4.500000e+000  7.500000e+000
    endloop
  endfacet
  facet normal -1.000000e+000  0.000000e+000  0.000000e+000
    outer loop
      vertex -1.000000e+001  1.700000e+001  3.800000e+000
      vertex -1.000000e+001  1.700000e+001  0.000000e+000
      vertex -1.000000e+001 -3.000000e+000  3.800000e+000
    endloop
  endfacet
  facet normal -1.000000e+000  0.000000e+000  0.000000e+000
    outer loop
      vertex -1.000000e+001 -3.000000e+000  3.800000e+000
      vertex -1.000000e+001  1.700000e+001  0.000000e+000
      vertex -1.000000e+001 -3.000000e+000  0.000000e+000
    endloop
  endfacet
  facet normal  0.000000e+000  1.000000e+000  0.000000e+000
    outer loop
      vertex -1.000000e+001  1.700000e+001  3.800000e+000
      vertex  1.000000e+001  1.700000e+001  3.800000e+000
      vertex -1.000000e+001  1.700000e+001  0.000000e+000
    endloop
  endfacet
  facet normal  0.000000e+000  1.000000e+000  0.000000e+000
    outer loop
      vertex -1.000000e+001  1.700000e+001  0.000000e+000
      vertex  1.000000e+001  1.700000e+001  3.800000e+000
      vertex  1.000000e+001  1.700000e+001  0.000000e+000
    endloop
  endfacet
  facet normal  0.000000e+000 -1.000000e+000  0.000000e+000
    outer loop
      vertex  1.000000e+001 -3.000000e+000  3.800000e+000
      vertex -1.000000e+001 -3.000000e+000  3.800000e+000
      vertex  1.000000e+001 -3.000000e+000  0.000000e+000
    endloop
  endfacet
  facet normal  0.000000e+000 -1.000000e+000  0.000000e+000
    outer loop
      vertex  1.000000e+001 -3.000000e+000  0.000000e+000
      vertex -1.000000e+001 -3.000000e+000  3.800000e+000
      vertex -1.000000e+001 -3.000000e+000  0.000000e+000
    endloop
  endfacet
  facet normal  1.000000e+000  0.000000e+000  0.000000e+000
    outer loop
      vertex  1.000000e+001 -3.000000e+000  3.800000e+000
      vertex  1.000000e+001 -3.000000e+000  0.000000e+000
      vertex  1.000000e+001  1.700000e+001  3.800000e+000
    endloop
  endfacet
  facet normal  1.000000e+000  0.000000e+000  0.000000e+000
    outer loop
      vertex  1.000000e+001  1.700000e+001  3.800000e+000
      vertex  1.000000e+001 -3.000000e+000  0.000000e+000
      vertex  1.000000e+001  1.700000e+001  0.000000e+000
    endloop
  endfacet
  facet normal  -0.000000e+000  0.000000e+000 -1.000000e+000
    outer loop
      vertex -1.150000e+001  1.850000e+001  3.800000e+000
      vertex -1.000000e+001 -3.000000e+000  3.800000e+000
      vertex -1.150000e+001 -4.500000e+000  3.800000e+000
    endloop
  endfacet
  facet normal  0.000000e+000  0.000000e+000 -1.000000e+000
    outer loop
      vertex -1.150000e+001 -4.500000e+000  3.800000e+000
      vertex -1.000000e+001 -3.000000e+000  3.800000e+000
      vertex  1.000000e+001 -3.000000e+000  3.800000e+000
    endloop
  endfacet
  facet normal  0.000000e+000  -0.000000e+000 -1.000000e+000
    outer loop
      vertex -1.150000e+001 -4.500000e+000  3.800000e+000
      vertex  1.000000e+001 -3.000000e+000  3.800000e+000
      vertex  1.150000e+001 -4.500000e+000  3.800000e+000
    endloop
  endfacet
  facet normal  0.000000e+000  0.000000e+000 -1.000000e+000
    outer loop
      vertex -1.000000e+001 -3.000000e+000  3.800000e+000
      vertex -1.150000e+001  1.850000e+001  3.800000e+000
      vertex -1.000000e+001  1.700000e+001  3.800000e+000
    endloop
  endfacet
  facet normal  0.000000e+000  0.000000e+000 -1.000000e+000
    outer loop
      vertex -1.000000e+001  1.700000e+001  3.800000e+000
      vertex -1.150000e+001  1.850000e+001  3.800000e+000
      vertex  1.150000e+001  1.850000e+001  3.800000e+000
    endloop
  endfacet
  facet normal  0.000000e+000  0.000000e+000 -1.000000e+000
    outer loop
      vertex -1.000000e+001  1.700000e+001  3.800000e+000
      vertex  1.150000e+001  1.850000e+001  3.800000e+000
      vertex  1.000000e+001  1.700000e+001  3.800000e+000
    endloop
  endfacet
  facet normal  0.000000e+000  0.000000e+000 -1.000000e+000
    outer loop
      vertex  1.000000e+001  1.700000e+001  3.800000e+000
      vertex  1.150000e+001  1.850000e+001  3.800000e+000
      vertex  1.150000e+001 -4.500000e+000  3.800000e+000
    endloop
  endfacet
  facet normal  0.000000e+000  0.000000e+000 -1.000000e+000
    outer loop
      vertex  1.000000e+001  1.700000e+001  3.800000e+000
      vertex  1.150000e+001 -4.500000e+000  3.800000e+000
      vertex  1.000000e+001 -3.000000e+000  3.800000e+000
    endloop
  endfacet
  facet normal  0.000000e+000 -7.071067e-001  7.071067e-001
    outer loop
      vertex -6.000000e+000  1.300000e+001  1.000000e+000
      vertex  6.000000e+000  1.300000e+001  1.000000e+000
      vertex -9.000000e+000  1.600000e+001  4.000000e+000
    endloop
  endfacet
  facet normal  0.000000e+000 -7.071068e-001  7.071068e-001
    outer loop
      vertex -9.000000e+000  1.600000e+001  4.000000e+000
      vertex  6.000000e+000  1.300000e+001  1.000000e+000
      vertex  9.000000e+000  1.600000e+001  4.000000e+000
    endloop
  endfacet
  facet normal  -0.000000e+000  7.071067e-001  7.071067e-001
    outer loop
      vertex  6.000000e+000  1.000000e+000  1.000000e+000
      vertex -6.000000e+000  1.000000e+000  1.000000e+000
      vertex  9.000000e+000 -2.000000e+000  4.000000e+000
    endloop
  endfacet
  facet normal  0.000000e+000  7.071068e-001  7.071068e-001
    outer loop
      vertex  9.000000e+000 -2.000000e+000  4.000000e+000
      vertex -6.000000e+000  1.000000e+000  1.000000e+000
      vertex -9.000000e+000 -2.000000e+000  4.000000e+000
    endloop
  endfacet
  facet normal  7.071067e-001  0.000000e+000  7.071067e-001
    outer loop
      vertex -6.000000e+000  1.300000e+001  1.000000e+000
      vertex -9.000000e+000  1.600000e+001  4.000000e+000
      vertex -6.000000e+000  1.000000e+000  1.000000e+000
    endloop
  endfacet
  facet normal  7.071068e-001  0.000000e+000  7.071068e-001
    outer loop
      vertex -6.000000e+000  1.000000e+000  1.000000e+000
      vertex -9.000000e+000  1.600000e+001  4.000000e+000
      vertex -9.000000e+000 -2.000000e+000  4.000000e+000
    endloop
  endfacet
  facet normal -7.071067e-001  0.000000e+000  7.071067e-001
    outer loop
      vertex  6.000000e+000  1.000000e+000  1.000000e+000
      vertex  9.000000e+000 -2.000000e+000  4.000000e+000
      vertex  6.000000e+000  1.300000e+001  1.000000e+000
    endloop
  endfacet
  facet normal -7.071068e-001  0.000000e+000  7.071068e-001
    outer loop
      vertex  6.000000e+000  1.300000e+001  1.000000e+000
      vertex  9.000000e+000 -2.000000e+000  4.000000e+000
      vertex  9.000000e+000  1.600000e+001  4.000000e+000
    endloop
  endfacet
  facet normal  0.000000e+000  1.000000e+000  0.000000e+000
    outer loop
      vertex  6.000000e+000  1.000000e+000 -2.900000e+001
      vertex -6.000000e+000  1.000000e+000 -2.900000e+001
      vertex  6.000000e+000  1.000000e+000  1.000000e+000
    endloop
  endfacet
  facet normal  0.000000e+000  1.000000e+000  0.000000e+000
    outer loop
      vertex  6.000000e+000  1.000000e+000  1.000000e+000
      vertex -6.000000e+000  1.000000e+000 -2.900000e+001
      vertex -6.000000e+000  1.000000e+000  1.000000e+000
    endloop
  endfacet
  facet normal -1.000000e+000  0.000000e+000  0.000000e+000
    outer loop
      vertex  6.000000e+000  1.000000e+000 -2.900000e+001
      vertex  6.000000e+000  1.000000e+000  1.000000e+000
      vertex  6.000000e+000  1.300000e+001 -2.900000e+001
    endloop
  endfacet
  facet normal -1.000000e+000  0.000000e+000  0.000000e+000
    outer loop
      vertex  6.000000e+000  1.300000e+001 -2.900000e+001
      vertex  6.000000e+000  1.000000e+000  1.000000e+000
      vertex  6.000000e+000  1.300000e+001  1.000000e+000
    endloop
  endfacet
  facet normal  1.000000e+000  0.000000e+000  0.000000e+000
    outer loop
      vertex -6.000000e+000  1.300000e+001 -2.900000e+001
      vertex -6.000000e+000  1.300000e+001  1.000000e+000
      vertex -6.000000e+000  1.000000e+000 -2.900000e+001
    endloop
  endfacet
  facet normal  1.000000e+000  0.000000e+000  0.000000e+000
    outer loop
      vertex -6.000000e+000  1.000000e+000 -2.900000e+001
      vertex -6.000000e+000  1.300000e+001  1.000000e+000
      vertex -6.000000e+000  1.000000e+000  1.000000e+000
    endloop
  endfacet
  facet normal  0.000000e+000 -1.000000e+000  0.000000e+000
    outer loop
      vertex -6.000000e+000  1.300000e+001 -2.900000e+001
      vertex  6.000000e+000  1.300000e+001 -2.900000e+001
      vertex -6.000000e+000  1.300000e+001  1.000000e+000
    endloop
  endfacet
  facet normal  0.000000e+000 -1.000000e+000  0.000000e+000
    outer loop
      vertex -6.000000e+000  1.300000e+001  1.000000e+000
      vertex  6.000000e+000  1.300000e+001 -2.900000e+001
      vertex  6.000000e+000  1.300000e+001  1.000000e+000
    endloop
  endfacet
  facet normal -1.000000e+000  0.000000e+000  0.000000e+000
    outer loop
      vertex -8.500000e+000  1.550000e+001  0.000000e+000
      vertex -8.500000e+000  1.550000e+001 -8.000000e+000
      vertex -8.500000e+000 -1.500000e+000  0.000000e+000
    endloop
  endfacet
  facet normal -1.000000e+000  0.000000e+000  0.000000e+000
    outer loop
      vertex -8.500000e+000 -1.500000e+000  0.000000e+000
      vertex -8.500000e+000  1.550000e+001 -8.000000e+000
      vertex -8.500000e+000 -1.500000e+000 -8.000000e+000
    endloop
  endfacet
  facet normal  0.000000e+000  1.000000e+000  0.000000e+000
    outer loop
      vertex -8.500000e+000  1.550000e+001  0.000000e+000
      vertex  8.500000e+000  1.550000e+001  0.000000e+000
      vertex -8.500000e+000  1.550000e+001 -8.000000e+000
    endloop
  endfacet
  facet normal  0.000000e+000  1.000000e+000  0.000000e+000
    outer loop
      vertex -8.500000e+000  1.550000e+001 -8.000000e+000
      vertex  8.500000e+000  1.550000e+001  0.000000e+000
      vertex  8.500000e+000  1.550000e+001 -8.000000e+000
    endloop
  endfacet
  facet normal  0.000000e+000 -1.000000e+000  0.000000e+000
    outer loop
      vertex  8.500000e+000 -1.500000e+000  0.000000e+000
      vertex -8.500000e+000 -1.500000e+000  0.000000e+000
      vertex  8.500000e+000 -1.500000e+000 -8.000000e+000
    endloop
  endfacet
  facet normal  0.000000e+000 -1.000000e+000  0.000000e+000
    outer loop
      vertex  8.500000e+000 -1.500000e+000 -8.000000e+000
      vertex -8.500000e+000 -1.500000e+000  0.000000e+000
      vertex -8.500000e+000 -1.500000e+000 -8.000000e+000
    endloop
  endfacet
  facet normal  1.000000e+000  0.000000e+000  0.000000e+000
    outer loop
      vertex  8.500000e+000 -1.500000e+000  0.000000e+000
      vertex  8.500000e+000 -1.500000e+000 -8.000000e+000
      vertex  8.500000e+000  1.550000e+001  0.000000e+000
    endloop
  endfacet
  facet normal  1.000000e+000  0.000000e+000  0.000000e+000
    outer loop
      vertex  8.500000e+000  1.550000e+001  0.000000e+000
      vertex  8.500000e+000 -1.500000e+000 -8.000000e+000
      vertex  8.500000e+000  1.550000e+001 -8.000000e+000
    endloop
  endfacet
  facet normal  -0.000000e+000  0.000000e+000 -1.000000e+000
    outer loop
      vertex -1.000000e+001  1.700000e+001  0.000000e+000
      vertex -8.500000e+000 -1.500000e+000  0.000000e+000
      vertex -1.000000e+001 -3.000000e+000  0.000000e+000
    endloop
  endfacet
  facet normal  0.000000e+000  0.000000e+000 -1.000000e+000
    outer loop
      vertex -1.000000e+001 -3.000000e+000  0.000000e+000
      vertex -8.500000e+000 -1.500000e+000  0.000000e+000
      vertex  8.500000e+000 -1.500000e+000  0.000000e+000
    endloop
  endfacet
  facet normal  0.000000e+000  -0.000000e+000 -1.000000e+000
    outer loop
      vertex -1.000000e+001 -3.000000e+000  0.000000e+000
      vertex  8.500000e+000 -1.500000e+000  0.000000e+000
      vertex  1.000000e+001 -3.000000e+000  0.000000e+000
    endloop
  endfacet
  facet normal  0.000000e+000  0.000000e+000 -1.000000e+000
    outer loop
      vertex -8.500000e+000 -1.500000e+000  0.000000e+000
      vertex -1.000000e+001  1.700000e+001  0.000000e+000
      vertex -8.500000e+000  1.550000e+001  0.000000e+000
    endloop
  endfacet
  facet normal  0.000000e+000  0.000000e+000 -1.000000e+000
    outer loop
      vertex -8.500000e+000  1.550000e+001  0.000000e+000
      vertex -1.000000e+001  1.700000e+001  0.000000e+000
      vertex  1.000000e+001  1.700000e+001  0.000000e+000
    endloop
  endfacet
  facet normal  0.000000e+000  0.000000e+000 -1.000000e+000
    outer loop
      vertex -8.500000e+000  1.550000e+001  0.000000e+000
      vertex  1.000000e+001  1.700000e+001  0.000000e+000
      vertex  8.500000e+000  1.550000e+001  0.000000e+000
    endloop
  endfacet
  facet normal  0.000000e+000  0.000000e+000 -1.000000e+000
    outer loop
      vertex  8.500000e+000  1.550000e+001  0.000000e+000
      vertex  1.000000e+001  1.700000e+001  0.000000e+000
      vertex  1.000000e+001 -3.000000e+000  0.000000e+000
    endloop
  endfacet
  facet normal  0.000000e+000  0.000000e+000 -1.000000e+000
    outer loop
      vertex  8.500000e+000  1.550000e+001  0.000000e+000
      vertex  1.000000e+001 -3.000000e+000  0.000000e+000
      vertex  8.500000e+000 -1.500000e+000  0.000000e+000
    endloop
  endfacet
  facet normal  2.314063e-016  1.657984e-001 -9.861596e-001
    outer loop
      vertex  7.000000e+000  0.000000e+000 -3.000000e+001
      vertex -7.000000e+000  1.953993e-014 -3.000000e+001
      vertex  6.672997e+000  3.270026e-001 -2.994502e+001
    endloop
  endfacet
  facet normal  0.000000e+000  1.657984e-001 -9.861597e-001
    outer loop
      vertex  6.672997e+000  3.270026e-001 -2.994502e+001
      vertex -7.000000e+000  1.953993e-014 -3.000000e+001
      vertex -6.672997e+000  3.270026e-001 -2.994502e+001
    endloop
  endfacet
  facet normal  0.000000e+000  5.473950e-001 -8.368744e-001
    outer loop
      vertex  6.672997e+000  3.270026e-001 -2.994502e+001
      vertex -6.672997e+000  3.270026e-001 -2.994502e+001
      vertex  6.265203e+000  7.347984e-001 -2.967829e+001
    endloop
  endfacet
  facet normal -5.988868e-008  5.473963e-001 -8.368736e-001
    outer loop
      vertex  6.265203e+000  7.347984e-001 -2.967829e+001
      vertex -6.672997e+000  3.270026e-001 -2.994502e+001
      vertex -6.265202e+000  7.347971e-001 -2.967829e+001
    endloop
  endfacet
  facet normal -8.987927e-008  8.215173e-001 -5.701836e-001
    outer loop
      vertex  6.265203e+000  7.347984e-001 -2.967829e+001
      vertex -6.265202e+000  7.347971e-001 -2.967829e+001
      vertex  6.107542e+000  8.924584e-001 -2.945113e+001
    endloop
  endfacet
  facet normal  0.000000e+000  8.215150e-001 -5.701869e-001
    outer loop
      vertex  6.107542e+000  8.924584e-001 -2.945113e+001
      vertex -6.265202e+000  7.347971e-001 -2.967829e+001
      vertex -6.107542e+000  8.924584e-001 -2.945113e+001
    endloop
  endfacet
  facet normal  0.000000e+000  9.727432e-001 -2.318851e-001
    outer loop
      vertex  6.107542e+000  8.924584e-001 -2.945113e+001
      vertex -6.107542e+000  8.924584e-001 -2.945113e+001
      vertex  6.000000e+000  1.000000e+000 -2.900000e+001
    endloop
  endfacet
  facet normal  0.000000e+000  9.727432e-001 -2.318852e-001
    outer loop
      vertex  6.000000e+000  1.000000e+000 -2.900000e+001
      vertex -6.107542e+000  8.924584e-001 -2.945113e+001
      vertex -6.000000e+000  1.000000e+000 -2.900000e+001
    endloop
  endfacet
  facet normal -1.395709e-015 -1.000000e+000  -0.000000e+000
    outer loop
      vertex  7.000000e+000  0.000000e+000 -3.000000e+001
      vertex  7.000000e+000  0.000000e+000 -8.000000e+000
      vertex -7.000000e+000  1.953993e-014 -3.000000e+001
    endloop
  endfacet
  facet normal -1.395709e-015 -1.000000e+000  0.000000e+000
    outer loop
      vertex -7.000000e+000  1.953993e-014 -3.000000e+001
      vertex  7.000000e+000  0.000000e+000 -8.000000e+000
      vertex -7.000000e+000  1.953993e-014 -8.000000e+000
    endloop
  endfacet
  facet normal -9.727432e-001  -0.000000e+000 -2.318852e-001
    outer loop
      vertex  6.000000e+000  1.000000e+000 -2.900000e+001
      vertex  6.000000e+000  1.300000e+001 -2.900000e+001
      vertex  6.107542e+000  8.924584e-001 -2.945113e+001
    endloop
  endfacet
  facet normal -9.727432e-001  0.000000e+000 -2.318851e-001
    outer loop
      vertex  6.107542e+000  8.924584e-001 -2.945113e+001
      vertex  6.000000e+000  1.300000e+001 -2.900000e+001
      vertex  6.107542e+000  1.310754e+001 -2.945113e+001
    endloop
  endfacet
  facet normal -8.215149e-001  -0.000000e+000 -5.701870e-001
    outer loop
      vertex  6.107542e+000  8.924584e-001 -2.945113e+001
      vertex  6.107542e+000  1.310754e+001 -2.945113e+001
      vertex  6.265203e+000  7.347984e-001 -2.967829e+001
    endloop
  endfacet
  facet normal -8.215173e-001 -9.378707e-008 -5.701836e-001
    outer loop
      vertex  6.265203e+000  7.347984e-001 -2.967829e+001
      vertex  6.107542e+000  1.310754e+001 -2.945113e+001
      vertex  6.265202e+000  1.326520e+001 -2.967829e+001
    endloop
  endfacet
  facet normal -5.473962e-001 -6.249253e-008 -8.368737e-001
    outer loop
      vertex  6.265203e+000  7.347984e-001 -2.967829e+001
      vertex  6.265202e+000  1.326520e+001 -2.967829e+001
      vertex  6.672997e+000  3.270026e-001 -2.994502e+001
    endloop
  endfacet
  facet normal -5.473949e-001  0.000000e+000 -8.368745e-001
    outer loop
      vertex  6.672997e+000  3.270026e-001 -2.994502e+001
      vertex  6.265202e+000  1.326520e+001 -2.967829e+001
      vertex  6.672997e+000  1.367300e+001 -2.994502e+001
    endloop
  endfacet
  facet normal -1.657985e-001  -0.000000e+000 -9.861597e-001
    outer loop
      vertex  6.672997e+000  3.270026e-001 -2.994502e+001
      vertex  6.672997e+000  1.367300e+001 -2.994502e+001
      vertex  7.000000e+000  0.000000e+000 -3.000000e+001
    endloop
  endfacet
  facet normal -1.657984e-001  0.000000e+000 -9.861596e-001
    outer loop
      vertex  7.000000e+000  0.000000e+000 -3.000000e+001
      vertex  6.672997e+000  1.367300e+001 -2.994502e+001
      vertex  7.000000e+000  1.400000e+001 -3.000000e+001
    endloop
  endfacet
  facet normal  5.473948e-001  0.000000e+000 -8.368745e-001
    outer loop
      vertex -6.672997e+000  1.367300e+001 -2.994502e+001
      vertex -6.265202e+000  1.326520e+001 -2.967829e+001
      vertex -6.265202e+000  7.347971e-001 -2.967829e+001
    endloop
  endfacet
  facet normal  5.473948e-001  0.000000e+000 -8.368745e-001
    outer loop
      vertex -6.672997e+000  1.367300e+001 -2.994502e+001
      vertex -6.265202e+000  7.347971e-001 -2.967829e+001
      vertex -6.672997e+000  3.270026e-001 -2.994502e+001
    endloop
  endfacet
  facet normal  1.657985e-001  0.000000e+000 -9.861597e-001
    outer loop
      vertex -6.672997e+000  1.367300e+001 -2.994502e+001
      vertex -6.672997e+000  3.270026e-001 -2.994502e+001
      vertex -7.000000e+000  1.953993e-014 -3.000000e+001
    endloop
  endfacet
  facet normal  1.657984e-001  0.000000e+000 -9.861596e-001
    outer loop
      vertex -6.672997e+000  1.367300e+001 -2.994502e+001
      vertex -7.000000e+000  1.953993e-014 -3.000000e+001
      vertex -7.000000e+000  1.000000e+000 -3.000000e+001
    endloop
  endfacet
  facet normal  1.657985e-001  0.000000e+000 -9.861597e-001
    outer loop
      vertex -6.672997e+000  1.367300e+001 -2.994502e+001
      vertex -7.000000e+000  1.000000e+000 -3.000000e+001
      vertex -7.000000e+000  1.300000e+001 -3.000000e+001
    endloop
  endfacet
  facet normal  1.657984e-001  0.000000e+000 -9.861596e-001
    outer loop
      vertex -6.672997e+000  1.367300e+001 -2.994502e+001
      vertex -7.000000e+000  1.300000e+001 -3.000000e+001
      vertex -7.000000e+000  1.400000e+001 -3.000000e+001
    endloop
  endfacet
  facet normal  9.727432e-001  0.000000e+000 -2.318852e-001
    outer loop
      vertex -6.000000e+000  1.300000e+001 -2.900000e+001
      vertex -6.000000e+000  1.000000e+000 -2.900000e+001
      vertex -6.107542e+000  1.310754e+001 -2.945113e+001
    endloop
  endfacet
  facet normal  9.727432e-001  0.000000e+000 -2.318851e-001
    outer loop
      vertex -6.107542e+000  1.310754e+001 -2.945113e+001
      vertex -6.000000e+000  1.000000e+000 -2.900000e+001
      vertex -6.107542e+000  8.924584e-001 -2.945113e+001
    endloop
  endfacet
  facet normal  8.215173e-001  0.000000e+000 -5.701835e-001
    outer loop
      vertex -6.107542e+000  1.310754e+001 -2.945113e+001
      vertex -6.107542e+000  8.924584e-001 -2.945113e+001
      vertex -6.265202e+000  1.326520e+001 -2.967829e+001
    endloop
  endfacet
  facet normal  8.215173e-001  0.000000e+000 -5.701835e-001
    outer loop
      vertex -6.265202e+000  1.326520e+001 -2.967829e+001
      vertex -6.107542e+000  8.924584e-001 -2.945113e+001
      vertex -6.265202e+000  7.347971e-001 -2.967829e+001
    endloop
  endfacet
  facet normal -1.000000e+000  -0.000000e+000  -0.000000e+000
    outer loop
      vertex -7.000000e+000  1.953993e-014 -8.000000e+000
      vertex -7.000000e+000  1.400000e+001 -8.000000e+000
      vertex -7.000000e+000  1.400000e+001 -3.000000e+001
    endloop
  endfacet
  facet normal -1.000000e+000  0.000000e+000  0.000000e+000
    outer loop
      vertex -7.000000e+000  1.953993e-014 -8.000000e+000
      vertex -7.000000e+000  1.400000e+001 -3.000000e+001
      vertex -7.000000e+000  1.300000e+001 -3.000000e+001
    endloop
  endfacet
  facet normal -1.000000e+000  0.000000e+000  0.000000e+000
    outer loop
      vertex -7.000000e+000  1.953993e-014 -8.000000e+000
      vertex -7.000000e+000  1.300000e+001 -3.000000e+001
      vertex -7.000000e+000  1.000000e+000 -3.000000e+001
    endloop
  endfacet
  facet normal -1.000000e+000  0.000000e+000  0.000000e+000
    outer loop
      vertex -7.000000e+000  1.953993e-014 -8.000000e+000
      vertex -7.000000e+000  1.000000e+000 -3.000000e+001
      vertex -7.000000e+000  1.953993e-014 -3.000000e+001
    endloop
  endfacet
  facet normal  0.000000e+000  1.000000e+000  0.000000e+000
    outer loop
      vertex -7.000000e+000  1.400000e+001 -3.000000e+001
      vertex -7.000000e+000  1.400000e+001 -8.000000e+000
      vertex  7.000000e+000  1.400000e+001 -3.000000e+001
    endloop
  endfacet
  facet normal  0.000000e+000  1.000000e+000  -0.000000e+000
    outer loop
      vertex  7.000000e+000  1.400000e+001 -3.000000e+001
      vertex -7.000000e+000  1.400000e+001 -8.000000e+000
      vertex  7.000000e+000  1.400000e+001 -8.000000e+000
    endloop
  endfacet
  facet normal  1.000000e+000  0.000000e+000  0.000000e+000
    outer loop
      vertex  7.000000e+000  0.000000e+000 -3.000000e+001
      vertex  7.000000e+000  1.400000e+001 -3.000000e+001
      vertex  7.000000e+000  0.000000e+000 -8.000000e+000
    endloop
  endfacet
  facet normal  1.000000e+000  -0.000000e+000  0.000000e+000
    outer loop
      vertex  7.000000e+000  0.000000e+000 -8.000000e+000
      vertex  7.000000e+000  1.400000e+001 -3.000000e+001
      vertex  7.000000e+000  1.400000e+001 -8.000000e+000
    endloop
  endfacet
  facet normal  -0.000000e+000 -1.657984e-001 -9.861596e-001
    outer loop
      vertex -7.000000e+000  1.400000e+001 -3.000000e+001
      vertex  7.000000e+000  1.400000e+001 -3.000000e+001
      vertex -6.672997e+000  1.367300e+001 -2.994502e+001
    endloop
  endfacet
  facet normal  0.000000e+000 -1.657985e-001 -9.861597e-001
    outer loop
      vertex -6.672997e+000  1.367300e+001 -2.994502e+001
      vertex  7.000000e+000  1.400000e+001 -3.000000e+001
      vertex  6.672997e+000  1.367300e+001 -2.994502e+001
    endloop
  endfacet
  facet normal  -0.000000e+000 -5.473958e-001 -8.368739e-001
    outer loop
      vertex -6.672997e+000  1.367300e+001 -2.994502e+001
      vertex  6.672997e+000  1.367300e+001 -2.994502e+001
      vertex -6.265202e+000  1.326520e+001 -2.967829e+001
    endloop
  endfacet
  facet normal  0.000000e+000 -5.473957e-001 -8.368738e-001
    outer loop
      vertex -6.265202e+000  1.326520e+001 -2.967829e+001
      vertex  6.672997e+000  1.367300e+001 -2.994502e+001
      vertex  6.265202e+000  1.326520e+001 -2.967829e+001
    endloop
  endfacet
  facet normal  -0.000000e+000 -8.215150e-001 -5.701870e-001
    outer loop
      vertex -6.265202e+000  1.326520e+001 -2.967829e+001
      vertex  6.265202e+000  1.326520e+001 -2.967829e+001
      vertex -6.107542e+000  1.310754e+001 -2.945113e+001
    endloop
  endfacet
  facet normal  0.000000e+000 -8.215150e-001 -5.701870e-001
    outer loop
      vertex -6.107542e+000  1.310754e+001 -2.945113e+001
      vertex  6.265202e+000  1.326520e+001 -2.967829e+001
      vertex  6.107542e+000  1.310754e+001 -2.945113e+001
    endloop
  endfacet
  facet normal  -0.000000e+000 -9.727435e-001 -2.318842e-001
    outer loop
      vertex -6.107542e+000  1.310754e+001 -2.945113e+001
      vertex  6.107542e+000  1.310754e+001 -2.945113e+001
      vertex -6.000000e+000  1.300000e+001 -2.900000e+001
    endloop
  endfacet
  facet normal  0.000000e+000 -9.727435e-001 -2.318842e-001
    outer loop
      vertex -6.000000e+000  1.300000e+001 -2.900000e+001
      vertex  6.107542e+000  1.310754e+001 -2.945113e+001
      vertex  6.000000e+000  1.300000e+001 -2.900000e+001
    endloop
  endfacet
  facet normal  -0.000000e+000  0.000000e+000 -1.000000e+000
    outer loop
      vertex -8.500000e+000  1.550000e+001 -8.000000e+000
      vertex -7.000000e+000  1.953993e-014 -8.000000e+000
      vertex -8.500000e+000 -1.500000e+000 -8.000000e+000
    endloop
  endfacet
  facet normal  0.000000e+000  0.000000e+000 -1.000000e+000
    outer loop
      vertex -8.500000e+000 -1.500000e+000 -8.000000e+000
      vertex -7.000000e+000  1.953993e-014 -8.000000e+000
      vertex  7.000000e+000  0.000000e+000 -8.000000e+000
    endloop
  endfacet
  facet normal  0.000000e+000  -0.000000e+000 -1.000000e+000
    outer loop
      vertex -8.500000e+000 -1.500000e+000 -8.000000e+000
      vertex  7.000000e+000  0.000000e+000 -8.000000e+000
      vertex  8.500000e+000 -1.500000e+000 -8.000000e+000
    endloop
  endfacet
  facet normal  0.000000e+000  0.000000e+000 -1.000000e+000
    outer loop
      vertex -7.000000e+000  1.953993e-014 -8.000000e+000
      vertex -8.500000e+000  1.550000e+001 -8.000000e+000
      vertex -7.000000e+000  1.400000e+001 -8.000000e+000
    endloop
  endfacet
  facet normal  0.000000e+000  0.000000e+000 -1.000000e+000
    outer loop
      vertex -7.000000e+000  1.400000e+001 -8.000000e+000
      vertex -8.500000e+000  1.550000e+001 -8.000000e+000
      vertex  8.500000e+000  1.550000e+001 -8.000000e+000
    endloop
  endfacet
  facet normal  0.000000e+000  0.000000e+000 -1.000000e+000
    outer loop
      vertex -7.000000e+000  1.400000e+001 -8.000000e+000
      vertex  8.500000e+000  1.550000e+001 -8.000000e+000
      vertex  7.000000e+000  1.400000e+001 -8.000000e+000
    endloop
  endfacet
  facet normal  0.000000e+000  0.000000e+000 -1.000000e+000
    outer loop
      vertex  7.000000e+000  1.400000e+001 -8.000000e+000
      vertex  8.500000e+000  1.550000e+001 -8.000000e+000
      vertex  8.500000e+000 -1.500000e+000 -8.000000e+000
    endloop
  endfacet
  facet normal  0.000000e+000  0.000000e+000 -1.000000e+000
    outer loop
      vertex  7.000000e+000  1.400000e+001 -8.000000e+000
      vertex  8.500000e+000 -1.500000e+000 -8.000000e+000
      vertex  7.000000e+000  0.000000e+000 -8.000000e+000
    endloop
  endfacet
endsolid CATIA STL
