solid CATIA STL
  facet normal  0.000000e+000  9.807853e-001 -1.950907e-001
    outer loop
      vertex -8.900000e+001  8.000000e+000  1.600000e+002
      vertex -1.100000e+001  8.000000e+000  1.600000e+002
      vertex -8.900000e+001  7.391036e+000  1.569385e+002
    endloop
  endfacet
  facet normal  0.000000e+000  9.807853e-001 -1.950907e-001
    outer loop
      vertex -8.900000e+001  7.391036e+000  1.569385e+002
      vertex -1.100000e+001  8.000000e+000  1.600000e+002
      vertex -1.100000e+001  7.391036e+000  1.569385e+002
    endloop
  endfacet
  facet normal  0.000000e+000  8.314707e-001 -5.555686e-001
    outer loop
      vertex -8.900000e+001  7.391036e+000  1.569385e+002
      vertex -1.100000e+001  7.391036e+000  1.569385e+002
      vertex -8.900000e+001  5.656854e+000  1.543431e+002
    endloop
  endfacet
  facet normal  0.000000e+000  8.314707e-001 -5.555686e-001
    outer loop
      vertex -8.900000e+001  5.656854e+000  1.543431e+002
      vertex -1.100000e+001  7.391036e+000  1.569385e+002
      vertex -1.100000e+001  5.656854e+000  1.543431e+002
    endloop
  endfacet
  facet normal  0.000000e+000  5.555691e-001 -8.314704e-001
    outer loop
      vertex -8.900000e+001  5.656854e+000  1.543431e+002
      vertex -1.100000e+001  5.656854e+000  1.543431e+002
      vertex -8.900000e+001  3.061467e+000  1.526090e+002
    endloop
  endfacet
  facet normal  0.000000e+000  5.555691e-001 -8.314704e-001
    outer loop
      vertex -8.900000e+001  3.061467e+000  1.526090e+002
      vertex -1.100000e+001  5.656854e+000  1.543431e+002
      vertex -1.100000e+001  3.061467e+000  1.526090e+002
    endloop
  endfacet
  facet normal  0.000000e+000  1.950901e-001 -9.807853e-001
    outer loop
      vertex -8.900000e+001  3.061467e+000  1.526090e+002
      vertex -1.100000e+001  3.061467e+000  1.526090e+002
      vertex -8.900000e+001  0.000000e+000  1.520000e+002
    endloop
  endfacet
  facet normal  0.000000e+000  1.950901e-001 -9.807853e-001
    outer loop
      vertex -8.900000e+001  0.000000e+000  1.520000e+002
      vertex -1.100000e+001  3.061467e+000  1.526090e+002
      vertex -1.100000e+001  0.000000e+000  1.520000e+002
    endloop
  endfacet
  facet normal  -0.000000e+000 -1.950901e-001 -9.807853e-001
    outer loop
      vertex -8.900000e+001  0.000000e+000  1.520000e+002
      vertex -1.100000e+001  0.000000e+000  1.520000e+002
      vertex -8.900000e+001 -3.061467e+000  1.526090e+002
    endloop
  endfacet
  facet normal  0.000000e+000 -1.950901e-001 -9.807853e-001
    outer loop
      vertex -8.900000e+001 -3.061467e+000  1.526090e+002
      vertex -1.100000e+001  0.000000e+000  1.520000e+002
      vertex -1.100000e+001 -3.061467e+000  1.526090e+002
    endloop
  endfacet
  facet normal  -0.000000e+000 -5.555691e-001 -8.314704e-001
    outer loop
      vertex -8.900000e+001 -3.061467e+000  1.526090e+002
      vertex -1.100000e+001 -3.061467e+000  1.526090e+002
      vertex -8.900000e+001 -5.656854e+000  1.543431e+002
    endloop
  endfacet
  facet normal  0.000000e+000 -5.555691e-001 -8.314704e-001
    outer loop
      vertex -8.900000e+001 -5.656854e+000  1.543431e+002
      vertex -1.100000e+001 -3.061467e+000  1.526090e+002
      vertex -1.100000e+001 -5.656854e+000  1.543431e+002
    endloop
  endfacet
  facet normal  -0.000000e+000 -8.314707e-001 -5.555686e-001
    outer loop
      vertex -8.900000e+001 -5.656854e+000  1.543431e+002
      vertex -1.100000e+001 -5.656854e+000  1.543431e+002
      vertex -8.900000e+001 -7.391036e+000  1.569385e+002
    endloop
  endfacet
  facet normal  0.000000e+000 -8.314707e-001 -5.555686e-001
    outer loop
      vertex -8.900000e+001 -7.391036e+000  1.569385e+002
      vertex -1.100000e+001 -5.656854e+000  1.543431e+002
      vertex -1.100000e+001 -7.391036e+000  1.569385e+002
    endloop
  endfacet
  facet normal  -0.000000e+000 -9.807853e-001 -1.950907e-001
    outer loop
      vertex -8.900000e+001 -7.391036e+000  1.569385e+002
      vertex -1.100000e+001 -7.391036e+000  1.569385e+002
      vertex -8.900000e+001 -8.000000e+000  1.600000e+002
    endloop
  endfacet
  facet normal  0.000000e+000 -9.807853e-001 -1.950907e-001
    outer loop
      vertex -8.900000e+001 -8.000000e+000  1.600000e+002
      vertex -1.100000e+001 -7.391036e+000  1.569385e+002
      vertex -1.100000e+001 -8.000000e+000  1.600000e+002
    endloop
  endfacet
  facet normal  0.000000e+000 -9.807853e-001  1.950907e-001
    outer loop
      vertex -8.900000e+001 -8.000000e+000  1.600000e+002
      vertex -1.100000e+001 -8.000000e+000  1.600000e+002
      vertex -8.900000e+001 -7.391036e+000  1.630615e+002
    endloop
  endfacet
  facet normal  0.000000e+000 -9.807853e-001  1.950907e-001
    outer loop
      vertex -8.900000e+001 -7.391036e+000  1.630615e+002
      vertex -1.100000e+001 -8.000000e+000  1.600000e+002
      vertex -1.100000e+001 -7.391036e+000  1.630615e+002
    endloop
  endfacet
  facet normal  0.000000e+000 -8.314707e-001  5.555686e-001
    outer loop
      vertex -8.900000e+001 -7.391036e+000  1.630615e+002
      vertex -1.100000e+001 -7.391036e+000  1.630615e+002
      vertex -8.900000e+001 -5.656854e+000  1.656569e+002
    endloop
  endfacet
  facet normal  0.000000e+000 -8.314707e-001  5.555686e-001
    outer loop
      vertex -8.900000e+001 -5.656854e+000  1.656569e+002
      vertex -1.100000e+001 -7.391036e+000  1.630615e+002
      vertex -1.100000e+001 -5.656854e+000  1.656569e+002
    endloop
  endfacet
  facet normal  0.000000e+000 -5.555691e-001  8.314704e-001
    outer loop
      vertex -8.900000e+001 -5.656854e+000  1.656569e+002
      vertex -1.100000e+001 -5.656854e+000  1.656569e+002
      vertex -8.900000e+001 -3.061467e+000  1.673910e+002
    endloop
  endfacet
  facet normal  0.000000e+000 -5.555691e-001  8.314704e-001
    outer loop
      vertex -8.900000e+001 -3.061467e+000  1.673910e+002
      vertex -1.100000e+001 -5.656854e+000  1.656569e+002
      vertex -1.100000e+001 -3.061467e+000  1.673910e+002
    endloop
  endfacet
  facet normal  0.000000e+000 -1.950901e-001  9.807853e-001
    outer loop
      vertex -8.900000e+001 -3.061467e+000  1.673910e+002
      vertex -1.100000e+001 -3.061467e+000  1.673910e+002
      vertex -8.900000e+001 -1.246410e-014  1.680000e+002
    endloop
  endfacet
  facet normal  3.117464e-017 -1.950901e-001  9.807853e-001
    outer loop
      vertex -8.900000e+001 -1.246410e-014  1.680000e+002
      vertex -1.100000e+001 -3.061467e+000  1.673910e+002
      vertex -1.100000e+001  0.000000e+000  1.680000e+002
    endloop
  endfacet
  facet normal -3.117464e-017  1.950901e-001  9.807853e-001
    outer loop
      vertex -8.900000e+001 -1.246410e-014  1.680000e+002
      vertex -1.100000e+001  0.000000e+000  1.680000e+002
      vertex -8.900000e+001  3.061467e+000  1.673910e+002
    endloop
  endfacet
  facet normal  -0.000000e+000  1.950901e-001  9.807853e-001
    outer loop
      vertex -8.900000e+001  3.061467e+000  1.673910e+002
      vertex -1.100000e+001  0.000000e+000  1.680000e+002
      vertex -1.100000e+001  3.061467e+000  1.673910e+002
    endloop
  endfacet
  facet normal  0.000000e+000  5.555691e-001  8.314704e-001
    outer loop
      vertex -8.900000e+001  3.061467e+000  1.673910e+002
      vertex -1.100000e+001  3.061467e+000  1.673910e+002
      vertex -8.900000e+001  5.656854e+000  1.656569e+002
    endloop
  endfacet
  facet normal  -0.000000e+000  5.555691e-001  8.314704e-001
    outer loop
      vertex -8.900000e+001  5.656854e+000  1.656569e+002
      vertex -1.100000e+001  3.061467e+000  1.673910e+002
      vertex -1.100000e+001  5.656854e+000  1.656569e+002
    endloop
  endfacet
  facet normal  0.000000e+000  8.314707e-001  5.555686e-001
    outer loop
      vertex -8.900000e+001  5.656854e+000  1.656569e+002
      vertex -1.100000e+001  5.656854e+000  1.656569e+002
      vertex -8.900000e+001  7.391036e+000  1.630615e+002
    endloop
  endfacet
  facet normal  -0.000000e+000  8.314707e-001  5.555686e-001
    outer loop
      vertex -8.900000e+001  7.391036e+000  1.630615e+002
      vertex -1.100000e+001  5.656854e+000  1.656569e+002
      vertex -1.100000e+001  7.391036e+000  1.630615e+002
    endloop
  endfacet
  facet normal  0.000000e+000  9.807853e-001  1.950907e-001
    outer loop
      vertex -8.900000e+001  7.391036e+000  1.630615e+002
      vertex -1.100000e+001  7.391036e+000  1.630615e+002
      vertex -8.900000e+001  8.000000e+000  1.600000e+002
    endloop
  endfacet
  facet normal  -0.000000e+000  9.807853e-001  1.950907e-001
    outer loop
      vertex -8.900000e+001  8.000000e+000  1.600000e+002
      vertex -1.100000e+001  7.391036e+000  1.630615e+002
      vertex -1.100000e+001  8.000000e+000  1.600000e+002
    endloop
  endfacet
  facet normal  2.641699e-001  4.369408e-002  9.634859e-001
    outer loop
      vertex -1.161880e+001 -2.206197e-014  1.515406e+002
      vertex -1.100000e+001 -3.741180e+000  1.515406e+002
      vertex -1.100000e+001  0.000000e+000  1.513710e+002
    endloop
  endfacet
  facet normal  2.641699e-001 -4.369408e-002  9.634859e-001
    outer loop
      vertex -1.100000e+001  3.741180e+000  1.515406e+002
      vertex -1.161880e+001 -2.206197e-014  1.515406e+002
      vertex -1.100000e+001  0.000000e+000  1.513710e+002
    endloop
  endfacet
  facet normal -9.861234e-001 -1.658579e-001  7.186766e-003
    outer loop
      vertex -1.100000e+001 -3.807937e+000  1.500000e+002
      vertex -1.100000e+001 -3.741180e+000  1.515406e+002
      vertex -1.164046e+001 -3.201855e-015  1.500000e+002
    endloop
  endfacet
  facet normal -9.865006e-001 -1.631686e-001  1.387401e-002
    outer loop
      vertex -1.164046e+001 -3.201855e-015  1.500000e+002
      vertex -1.100000e+001 -3.741180e+000  1.515406e+002
      vertex -1.161880e+001 -2.206197e-014  1.515406e+002
    endloop
  endfacet
  facet normal -9.860541e-001  1.658462e-001  1.386773e-002
    outer loop
      vertex -1.164046e+001 -3.201855e-015  1.500000e+002
      vertex -1.161880e+001 -2.206197e-014  1.515406e+002
      vertex -1.100000e+001  3.807937e+000  1.500000e+002
    endloop
  endfacet
  facet normal -9.865710e-001  1.631802e-001  7.070741e-003
    outer loop
      vertex -1.100000e+001  3.807937e+000  1.500000e+002
      vertex -1.161880e+001 -2.206197e-014  1.515406e+002
      vertex -1.100000e+001  3.741180e+000  1.515406e+002
    endloop
  endfacet
  facet normal -1.000000e+000  0.000000e+000  0.000000e+000
    outer loop
      vertex -8.900000e+001 -7.391036e+000  1.630615e+002
      vertex -8.900000e+001 -7.391036e+000  1.569385e+002
      vertex -8.900000e+001 -8.000000e+000  1.600000e+002
    endloop
  endfacet
  facet normal -1.000000e+000  0.000000e+000  0.000000e+000
    outer loop
      vertex -8.900000e+001 -7.391036e+000  1.569385e+002
      vertex -8.900000e+001 -7.391036e+000  1.630615e+002
      vertex -8.900000e+001 -5.656854e+000  1.543431e+002
    endloop
  endfacet
  facet normal -1.000000e+000  0.000000e+000  0.000000e+000
    outer loop
      vertex -8.900000e+001 -5.656854e+000  1.543431e+002
      vertex -8.900000e+001 -7.391036e+000  1.630615e+002
      vertex -8.900000e+001 -5.656854e+000  1.656569e+002
    endloop
  endfacet
  facet normal -1.000000e+000  0.000000e+000  0.000000e+000
    outer loop
      vertex -8.900000e+001 -5.656854e+000  1.543431e+002
      vertex -8.900000e+001 -5.656854e+000  1.656569e+002
      vertex -8.900000e+001 -3.061467e+000  1.526090e+002
    endloop
  endfacet
  facet normal -1.000000e+000  0.000000e+000  0.000000e+000
    outer loop
      vertex -8.900000e+001 -3.061467e+000  1.526090e+002
      vertex -8.900000e+001 -5.656854e+000  1.656569e+002
      vertex -8.900000e+001 -3.061467e+000  1.673910e+002
    endloop
  endfacet
  facet normal -9.999999e-001  0.000000e+000  0.000000e+000
    outer loop
      vertex -8.900000e+001 -3.061467e+000  1.526090e+002
      vertex -8.900000e+001 -3.061467e+000  1.673910e+002
      vertex -8.900000e+001  0.000000e+000  1.520000e+002
    endloop
  endfacet
  facet normal -1.000000e+000  0.000000e+000  0.000000e+000
    outer loop
      vertex -8.900000e+001  0.000000e+000  1.520000e+002
      vertex -8.900000e+001 -3.061467e+000  1.673910e+002
      vertex -8.900000e+001 -1.246410e-014  1.680000e+002
    endloop
  endfacet
  facet normal -1.000000e+000  0.000000e+000  0.000000e+000
    outer loop
      vertex -8.900000e+001  0.000000e+000  1.520000e+002
      vertex -8.900000e+001 -1.246410e-014  1.680000e+002
      vertex -8.900000e+001  3.061467e+000  1.526090e+002
    endloop
  endfacet
  facet normal -9.999999e-001  0.000000e+000  0.000000e+000
    outer loop
      vertex -8.900000e+001  3.061467e+000  1.526090e+002
      vertex -8.900000e+001 -1.246410e-014  1.680000e+002
      vertex -8.900000e+001  3.061467e+000  1.673910e+002
    endloop
  endfacet
  facet normal -1.000000e+000  0.000000e+000  0.000000e+000
    outer loop
      vertex -8.900000e+001  3.061467e+000  1.526090e+002
      vertex -8.900000e+001  3.061467e+000  1.673910e+002
      vertex -8.900000e+001  5.656854e+000  1.543431e+002
    endloop
  endfacet
  facet normal -1.000000e+000  0.000000e+000  0.000000e+000
    outer loop
      vertex -8.900000e+001  5.656854e+000  1.543431e+002
      vertex -8.900000e+001  3.061467e+000  1.673910e+002
      vertex -8.900000e+001  5.656854e+000  1.656569e+002
    endloop
  endfacet
  facet normal -1.000000e+000  0.000000e+000  0.000000e+000
    outer loop
      vertex -8.900000e+001  5.656854e+000  1.543431e+002
      vertex -8.900000e+001  5.656854e+000  1.656569e+002
      vertex -8.900000e+001  7.391036e+000  1.569385e+002
    endloop
  endfacet
  facet normal -1.000000e+000  0.000000e+000  0.000000e+000
    outer loop
      vertex -8.900000e+001  7.391036e+000  1.569385e+002
      vertex -8.900000e+001  5.656854e+000  1.656569e+002
      vertex -8.900000e+001  7.391036e+000  1.630615e+002
    endloop
  endfacet
  facet normal -1.000000e+000  0.000000e+000  0.000000e+000
    outer loop
      vertex -8.900000e+001  7.391036e+000  1.569385e+002
      vertex -8.900000e+001  7.391036e+000  1.630615e+002
      vertex -8.900000e+001  8.000000e+000  1.600000e+002
    endloop
  endfacet
  facet normal  0.000000e+000  0.000000e+000 -1.000000e+000
    outer loop
      vertex -1.100000e+001 -3.807937e+000  1.500000e+002
      vertex -1.164046e+001 -3.201855e-015  1.500000e+002
      vertex -1.100000e+001 -5.329071e-015  1.500000e+002
    endloop
  endfacet
  facet normal  0.000000e+000  0.000000e+000 -1.000000e+000
    outer loop
      vertex -1.100000e+001  3.807937e+000  1.500000e+002
      vertex -1.100000e+001 -5.329071e-015  1.500000e+002
      vertex -1.164046e+001 -3.201855e-015  1.500000e+002
    endloop
  endfacet
  facet normal  1.000000e+000  0.000000e+000  0.000000e+000
    outer loop
      vertex -1.100000e+001 -7.391036e+000  1.569385e+002
      vertex -1.100000e+001 -7.391036e+000  1.630615e+002
      vertex -1.100000e+001 -8.000000e+000  1.600000e+002
    endloop
  endfacet
  facet normal  1.000000e+000  0.000000e+000  0.000000e+000
    outer loop
      vertex -1.100000e+001 -7.391036e+000  1.630615e+002
      vertex -1.100000e+001 -7.391036e+000  1.569385e+002
      vertex -1.100000e+001 -5.656854e+000  1.656569e+002
    endloop
  endfacet
  facet normal  1.000000e+000  0.000000e+000  0.000000e+000
    outer loop
      vertex -1.100000e+001 -5.656854e+000  1.656569e+002
      vertex -1.100000e+001 -7.391036e+000  1.569385e+002
      vertex -1.100000e+001 -5.656854e+000  1.543431e+002
    endloop
  endfacet
  facet normal  1.000000e+000  0.000000e+000  0.000000e+000
    outer loop
      vertex -1.100000e+001 -5.656854e+000  1.656569e+002
      vertex -1.100000e+001 -5.656854e+000  1.543431e+002
      vertex -1.100000e+001 -3.061467e+000  1.673910e+002
    endloop
  endfacet
  facet normal  1.000000e+000  0.000000e+000  0.000000e+000
    outer loop
      vertex -1.100000e+001 -3.061467e+000  1.673910e+002
      vertex -1.100000e+001 -5.656854e+000  1.543431e+002
      vertex -1.100000e+001 -3.061467e+000  1.526090e+002
    endloop
  endfacet
  facet normal  9.999999e-001  0.000000e+000  0.000000e+000
    outer loop
      vertex -1.100000e+001 -3.061467e+000  1.673910e+002
      vertex -1.100000e+001 -3.061467e+000  1.526090e+002
      vertex -1.100000e+001  0.000000e+000  1.680000e+002
    endloop
  endfacet
  facet normal  1.000000e+000  0.000000e+000  0.000000e+000
    outer loop
      vertex -1.100000e+001  0.000000e+000  1.680000e+002
      vertex -1.100000e+001 -3.061467e+000  1.526090e+002
      vertex -1.100000e+001  0.000000e+000  1.520000e+002
    endloop
  endfacet
  facet normal  1.000000e+000  0.000000e+000  0.000000e+000
    outer loop
      vertex -1.100000e+001  0.000000e+000  1.680000e+002
      vertex -1.100000e+001  0.000000e+000  1.520000e+002
      vertex -1.100000e+001  3.061467e+000  1.673910e+002
    endloop
  endfacet
  facet normal  9.999999e-001  0.000000e+000  0.000000e+000
    outer loop
      vertex -1.100000e+001  3.061467e+000  1.673910e+002
      vertex -1.100000e+001  0.000000e+000  1.520000e+002
      vertex -1.100000e+001  3.061467e+000  1.526090e+002
    endloop
  endfacet
  facet normal  1.000000e+000  0.000000e+000  0.000000e+000
    outer loop
      vertex -1.100000e+001  3.061467e+000  1.673910e+002
      vertex -1.100000e+001  3.061467e+000  1.526090e+002
      vertex -1.100000e+001  5.656854e+000  1.656569e+002
    endloop
  endfacet
  facet normal  1.000000e+000  0.000000e+000  0.000000e+000
    outer loop
      vertex -1.100000e+001  5.656854e+000  1.656569e+002
      vertex -1.100000e+001  3.061467e+000  1.526090e+002
      vertex -1.100000e+001  5.656854e+000  1.543431e+002
    endloop
  endfacet
  facet normal  1.000000e+000  0.000000e+000  0.000000e+000
    outer loop
      vertex -1.100000e+001  5.656854e+000  1.656569e+002
      vertex -1.100000e+001  5.656854e+000  1.543431e+002
      vertex -1.100000e+001  7.391036e+000  1.630615e+002
    endloop
  endfacet
  facet normal  1.000000e+000  0.000000e+000  0.000000e+000
    outer loop
      vertex -1.100000e+001  7.391036e+000  1.630615e+002
      vertex -1.100000e+001  5.656854e+000  1.543431e+002
      vertex -1.100000e+001  7.391036e+000  1.569385e+002
    endloop
  endfacet
  facet normal  1.000000e+000  0.000000e+000  0.000000e+000
    outer loop
      vertex -1.100000e+001  7.391036e+000  1.630615e+002
      vertex -1.100000e+001  7.391036e+000  1.569385e+002
      vertex -1.100000e+001  8.000000e+000  1.600000e+002
    endloop
  endfacet
  facet normal  1.000000e+000  0.000000e+000  0.000000e+000
    outer loop
      vertex -1.100000e+001 -3.741180e+000  1.515406e+002
      vertex -1.100000e+001 -3.807937e+000  1.500000e+002
      vertex -1.100000e+001  0.000000e+000  1.513710e+002
    endloop
  endfacet
  facet normal  1.000000e+000  0.000000e+000  0.000000e+000
    outer loop
      vertex -1.100000e+001  0.000000e+000  1.513710e+002
      vertex -1.100000e+001 -3.807937e+000  1.500000e+002
      vertex -1.100000e+001 -5.329071e-015  1.500000e+002
    endloop
  endfacet
  facet normal  1.000000e+000  0.000000e+000  0.000000e+000
    outer loop
      vertex -1.100000e+001  0.000000e+000  1.513710e+002
      vertex -1.100000e+001 -5.329071e-015  1.500000e+002
      vertex -1.100000e+001  3.741180e+000  1.515406e+002
    endloop
  endfacet
  facet normal  1.000000e+000  0.000000e+000  0.000000e+000
    outer loop
      vertex -1.100000e+001  3.741180e+000  1.515406e+002
      vertex -1.100000e+001 -5.329071e-015  1.500000e+002
      vertex -1.100000e+001  3.807937e+000  1.500000e+002
    endloop
  endfacet
endsolid CATIA STL
