solid CATIA STL
  facet normal -9.749280e-001  2.225209e-001  0.000000e+000
    outer loop
      vertex  6.000000e+000  0.000000e+000  2.190685e+002
      vertex  6.000000e+000  0.000000e+000  1.150000e+002
      vertex  5.405813e+000 -2.603302e+000  2.190685e+002
    endloop
  endfacet
  facet normal -9.749280e-001  2.225209e-001  0.000000e+000
    outer loop
      vertex  5.405813e+000 -2.603302e+000  2.190685e+002
      vertex  6.000000e+000  0.000000e+000  1.150000e+002
      vertex  5.405813e+000 -2.603302e+000  1.150000e+002
    endloop
  endfacet
  facet normal -7.818315e-001  6.234898e-001  0.000000e+000
    outer loop
      vertex  5.405813e+000 -2.603302e+000  2.190685e+002
      vertex  5.405813e+000 -2.603302e+000  1.150000e+002
      vertex  3.740939e+000 -4.690989e+000  2.190685e+002
    endloop
  endfacet
  facet normal -7.818315e-001  6.234898e-001  0.000000e+000
    outer loop
      vertex  3.740939e+000 -4.690989e+000  2.190685e+002
      vertex  5.405813e+000 -2.603302e+000  1.150000e+002
      vertex  3.740939e+000 -4.690989e+000  1.150000e+002
    endloop
  endfacet
  facet normal -4.338837e-001  9.009690e-001  0.000000e+000
    outer loop
      vertex  3.740939e+000 -4.690989e+000  2.190685e+002
      vertex  3.740939e+000 -4.690989e+000  1.150000e+002
      vertex  1.335126e+000 -5.849567e+000  2.190685e+002
    endloop
  endfacet
  facet normal -4.338837e-001  9.009690e-001  0.000000e+000
    outer loop
      vertex  1.335126e+000 -5.849567e+000  2.190685e+002
      vertex  3.740939e+000 -4.690989e+000  1.150000e+002
      vertex  1.335126e+000 -5.849567e+000  1.150000e+002
    endloop
  endfacet
  facet normal  0.000000e+000  1.000000e+000  -0.000000e+000
    outer loop
      vertex  1.335126e+000 -5.849567e+000  2.190685e+002
      vertex  1.335126e+000 -5.849567e+000  1.150000e+002
      vertex -1.335126e+000 -5.849567e+000  2.190685e+002
    endloop
  endfacet
  facet normal  0.000000e+000  1.000000e+000  0.000000e+000
    outer loop
      vertex -1.335126e+000 -5.849567e+000  2.190685e+002
      vertex  1.335126e+000 -5.849567e+000  1.150000e+002
      vertex -1.335126e+000 -5.849567e+000  1.150000e+002
    endloop
  endfacet
  facet normal  4.338837e-001  9.009690e-001  -0.000000e+000
    outer loop
      vertex -1.335126e+000 -5.849567e+000  2.190685e+002
      vertex -1.335126e+000 -5.849567e+000  1.150000e+002
      vertex -3.740939e+000 -4.690989e+000  2.190685e+002
    endloop
  endfacet
  facet normal  4.338837e-001  9.009690e-001  0.000000e+000
    outer loop
      vertex -3.740939e+000 -4.690989e+000  2.190685e+002
      vertex -1.335126e+000 -5.849567e+000  1.150000e+002
      vertex -3.740939e+000 -4.690989e+000  1.150000e+002
    endloop
  endfacet
  facet normal  7.818315e-001  6.234898e-001  -0.000000e+000
    outer loop
      vertex -3.740939e+000 -4.690989e+000  2.190685e+002
      vertex -3.740939e+000 -4.690989e+000  1.150000e+002
      vertex -5.405813e+000 -2.603302e+000  2.190685e+002
    endloop
  endfacet
  facet normal  7.818315e-001  6.234898e-001  0.000000e+000
    outer loop
      vertex -5.405813e+000 -2.603302e+000  2.190685e+002
      vertex -3.740939e+000 -4.690989e+000  1.150000e+002
      vertex -5.405813e+000 -2.603302e+000  1.150000e+002
    endloop
  endfacet
  facet normal  9.749280e-001  2.225209e-001  -0.000000e+000
    outer loop
      vertex -5.405813e+000 -2.603302e+000  2.190685e+002
      vertex -5.405813e+000 -2.603302e+000  1.150000e+002
      vertex -6.000000e+000  7.347638e-016  2.190685e+002
    endloop
  endfacet
  facet normal  9.749280e-001  2.225209e-001  0.000000e+000
    outer loop
      vertex -6.000000e+000  7.347638e-016  2.190685e+002
      vertex -5.405813e+000 -2.603302e+000  1.150000e+002
      vertex -6.000000e+000  7.347638e-016  1.150000e+002
    endloop
  endfacet
  facet normal  9.749280e-001 -2.225209e-001  0.000000e+000
    outer loop
      vertex -6.000000e+000  7.347638e-016  2.190685e+002
      vertex -6.000000e+000  7.347638e-016  1.150000e+002
      vertex -5.405813e+000  2.603302e+000  2.190685e+002
    endloop
  endfacet
  facet normal  9.749280e-001 -2.225209e-001  0.000000e+000
    outer loop
      vertex -5.405813e+000  2.603302e+000  2.190685e+002
      vertex -6.000000e+000  7.347638e-016  1.150000e+002
      vertex -5.405813e+000  2.603302e+000  1.150000e+002
    endloop
  endfacet
  facet normal  7.818315e-001 -6.234898e-001  0.000000e+000
    outer loop
      vertex -5.405813e+000  2.603302e+000  2.190685e+002
      vertex -5.405813e+000  2.603302e+000  1.150000e+002
      vertex -3.740939e+000  4.690989e+000  2.190685e+002
    endloop
  endfacet
  facet normal  7.818315e-001 -6.234898e-001  0.000000e+000
    outer loop
      vertex -3.740939e+000  4.690989e+000  2.190685e+002
      vertex -5.405813e+000  2.603302e+000  1.150000e+002
      vertex -3.740939e+000  4.690989e+000  1.150000e+002
    endloop
  endfacet
  facet normal  4.338837e-001 -9.009690e-001  0.000000e+000
    outer loop
      vertex -3.740939e+000  4.690989e+000  2.190685e+002
      vertex -3.740939e+000  4.690989e+000  1.150000e+002
      vertex -1.335126e+000  5.849567e+000  2.190685e+002
    endloop
  endfacet
  facet normal  4.338837e-001 -9.009690e-001  0.000000e+000
    outer loop
      vertex -1.335126e+000  5.849567e+000  2.190685e+002
      vertex -3.740939e+000  4.690989e+000  1.150000e+002
      vertex -1.335126e+000  5.849567e+000  1.150000e+002
    endloop
  endfacet
  facet normal  0.000000e+000 -1.000000e+000  0.000000e+000
    outer loop
      vertex -1.335126e+000  5.849567e+000  2.190685e+002
      vertex -1.335126e+000  5.849567e+000  1.150000e+002
      vertex  1.335126e+000  5.849567e+000  2.190685e+002
    endloop
  endfacet
  facet normal  0.000000e+000 -1.000000e+000  -0.000000e+000
    outer loop
      vertex  1.335126e+000  5.849567e+000  2.190685e+002
      vertex -1.335126e+000  5.849567e+000  1.150000e+002
      vertex  1.335126e+000  5.849567e+000  1.150000e+002
    endloop
  endfacet
  facet normal -4.338837e-001 -9.009690e-001  0.000000e+000
    outer loop
      vertex  1.335126e+000  5.849567e+000  2.190685e+002
      vertex  1.335126e+000  5.849567e+000  1.150000e+002
      vertex  3.740939e+000  4.690989e+000  2.190685e+002
    endloop
  endfacet
  facet normal -4.338837e-001 -9.009690e-001  -0.000000e+000
    outer loop
      vertex  3.740939e+000  4.690989e+000  2.190685e+002
      vertex  1.335126e+000  5.849567e+000  1.150000e+002
      vertex  3.740939e+000  4.690989e+000  1.150000e+002
    endloop
  endfacet
  facet normal -7.818315e-001 -6.234898e-001  0.000000e+000
    outer loop
      vertex  3.740939e+000  4.690989e+000  2.190685e+002
      vertex  3.740939e+000  4.690989e+000  1.150000e+002
      vertex  5.405813e+000  2.603302e+000  2.190685e+002
    endloop
  endfacet
  facet normal -7.818315e-001 -6.234898e-001  -0.000000e+000
    outer loop
      vertex  5.405813e+000  2.603302e+000  2.190685e+002
      vertex  3.740939e+000  4.690989e+000  1.150000e+002
      vertex  5.405813e+000  2.603302e+000  1.150000e+002
    endloop
  endfacet
  facet normal -9.749280e-001 -2.225209e-001  0.000000e+000
    outer loop
      vertex  5.405813e+000  2.603302e+000  2.190685e+002
      vertex  5.405813e+000  2.603302e+000  1.150000e+002
      vertex  6.000000e+000  0.000000e+000  2.190685e+002
    endloop
  endfacet
  facet normal -9.749280e-001 -2.225209e-001  -0.000000e+000
    outer loop
      vertex  6.000000e+000  0.000000e+000  2.190685e+002
      vertex  5.405813e+000  2.603302e+000  1.150000e+002
      vertex  6.000000e+000  0.000000e+000  1.150000e+002
    endloop
  endfacet
  facet normal  0.000000e+000  0.000000e+000  9.999999e-001
    outer loop
      vertex -7.483424e+000  3.099736e+000  2.340685e+002
      vertex -7.071068e+000  7.071068e+000  2.340685e+002
      vertex -8.100000e+000  9.919312e-016  2.340685e+002
    endloop
  endfacet
  facet normal  0.000000e+000  0.000000e+000  1.000000e+000
    outer loop
      vertex -3.826834e+000 -9.238795e+000  2.340685e+002
      vertex -3.099736e+000 -7.483424e+000  2.340685e+002
      vertex -5.727565e+000 -5.727565e+000  2.340685e+002
    endloop
  endfacet
  facet normal  0.000000e+000  0.000000e+000  1.000000e+000
    outer loop
      vertex  9.238795e+000 -3.826834e+000  2.340685e+002
      vertex  1.000000e+001  0.000000e+000  2.340685e+002
      vertex  8.100000e+000  0.000000e+000  2.340685e+002
    endloop
  endfacet
  facet normal  0.000000e+000  0.000000e+000  1.000000e+000
    outer loop
      vertex  8.100000e+000  0.000000e+000  2.340685e+002
      vertex  1.000000e+001  0.000000e+000  2.340685e+002
      vertex  9.238795e+000  3.826834e+000  2.340685e+002
    endloop
  endfacet
  facet normal  0.000000e+000  0.000000e+000  1.000000e+000
    outer loop
      vertex  8.100000e+000  0.000000e+000  2.340685e+002
      vertex  9.238795e+000  3.826834e+000  2.340685e+002
      vertex  7.483424e+000  3.099736e+000  2.340685e+002
    endloop
  endfacet
  facet normal  0.000000e+000  -0.000000e+000  1.000000e+000
    outer loop
      vertex  7.483424e+000  3.099736e+000  2.340685e+002
      vertex  9.238795e+000  3.826834e+000  2.340685e+002
      vertex  7.071068e+000  7.071068e+000  2.340685e+002
    endloop
  endfacet
  facet normal  0.000000e+000  0.000000e+000  1.000000e+000
    outer loop
      vertex  7.483424e+000  3.099736e+000  2.340685e+002
      vertex  7.071068e+000  7.071068e+000  2.340685e+002
      vertex  5.727565e+000  5.727565e+000  2.340685e+002
    endloop
  endfacet
  facet normal  -0.000000e+000  0.000000e+000  1.000000e+000
    outer loop
      vertex -7.071068e+000  7.071068e+000  2.340685e+002
      vertex -9.238795e+000  3.826834e+000  2.340685e+002
      vertex -8.100000e+000  9.919312e-016  2.340685e+002
    endloop
  endfacet
  facet normal  0.000000e+000  0.000000e+000  1.000000e+000
    outer loop
      vertex -8.100000e+000  9.919312e-016  2.340685e+002
      vertex -9.238795e+000  3.826834e+000  2.340685e+002
      vertex -1.000000e+001  1.224606e-015  2.340685e+002
    endloop
  endfacet
  facet normal  0.000000e+000  0.000000e+000  1.000000e+000
    outer loop
      vertex -8.100000e+000  9.919312e-016  2.340685e+002
      vertex -1.000000e+001  1.224606e-015  2.340685e+002
      vertex -7.071068e+000 -7.071068e+000  2.340685e+002
    endloop
  endfacet
  facet normal  0.000000e+000  0.000000e+000  1.000000e+000
    outer loop
      vertex -7.071068e+000 -7.071068e+000  2.340685e+002
      vertex -1.000000e+001  1.224606e-015  2.340685e+002
      vertex -9.238795e+000 -3.826834e+000  2.340685e+002
    endloop
  endfacet
  facet normal  0.000000e+000  0.000000e+000  9.999999e-001
    outer loop
      vertex -7.071068e+000  7.071068e+000  2.340685e+002
      vertex -7.483424e+000  3.099736e+000  2.340685e+002
      vertex -3.826834e+000  9.238795e+000  2.340685e+002
    endloop
  endfacet
  facet normal  0.000000e+000  0.000000e+000  1.000000e+000
    outer loop
      vertex -3.826834e+000  9.238795e+000  2.340685e+002
      vertex -7.483424e+000  3.099736e+000  2.340685e+002
      vertex -5.727565e+000  5.727565e+000  2.340685e+002
    endloop
  endfacet
  facet normal  0.000000e+000  0.000000e+000  1.000000e+000
    outer loop
      vertex -3.826834e+000  9.238795e+000  2.340685e+002
      vertex -5.727565e+000  5.727565e+000  2.340685e+002
      vertex -3.099736e+000  7.483424e+000  2.340685e+002
    endloop
  endfacet
  facet normal  0.000000e+000  -0.000000e+000  1.000000e+000
    outer loop
      vertex -3.826834e+000  9.238795e+000  2.340685e+002
      vertex -3.099736e+000  7.483424e+000  2.340685e+002
      vertex  5.517505e-016  1.000000e+001  2.340685e+002
    endloop
  endfacet
  facet normal  0.000000e+000  0.000000e+000  1.000000e+000
    outer loop
      vertex  5.517505e-016  1.000000e+001  2.340685e+002
      vertex -3.099736e+000  7.483424e+000  2.340685e+002
      vertex  3.493370e-015  8.100000e+000  2.340685e+002
    endloop
  endfacet
  facet normal  0.000000e+000  -0.000000e+000  1.000000e+000
    outer loop
      vertex  5.517505e-016  1.000000e+001  2.340685e+002
      vertex  3.493370e-015  8.100000e+000  2.340685e+002
      vertex  3.826834e+000  9.238795e+000  2.340685e+002
    endloop
  endfacet
  facet normal  0.000000e+000  0.000000e+000  1.000000e+000
    outer loop
      vertex  3.826834e+000  9.238795e+000  2.340685e+002
      vertex  3.493370e-015  8.100000e+000  2.340685e+002
      vertex  3.099736e+000  7.483424e+000  2.340685e+002
    endloop
  endfacet
  facet normal  -0.000000e+000  0.000000e+000  1.000000e+000
    outer loop
      vertex  3.826834e+000  9.238795e+000  2.340685e+002
      vertex  3.099736e+000  7.483424e+000  2.340685e+002
      vertex  7.071068e+000  7.071068e+000  2.340685e+002
    endloop
  endfacet
  facet normal  0.000000e+000  0.000000e+000  1.000000e+000
    outer loop
      vertex  7.071068e+000  7.071068e+000  2.340685e+002
      vertex  3.099736e+000  7.483424e+000  2.340685e+002
      vertex  5.727565e+000  5.727565e+000  2.340685e+002
    endloop
  endfacet
  facet normal  0.000000e+000  0.000000e+000  1.000000e+000
    outer loop
      vertex -3.826834e+000 -9.238795e+000  2.340685e+002
      vertex -5.727565e+000 -5.727565e+000  2.340685e+002
      vertex -7.071068e+000 -7.071068e+000  2.340685e+002
    endloop
  endfacet
  facet normal  0.000000e+000  -0.000000e+000  1.000000e+000
    outer loop
      vertex -7.071068e+000 -7.071068e+000  2.340685e+002
      vertex -5.727565e+000 -5.727565e+000  2.340685e+002
      vertex -7.483424e+000 -3.099736e+000  2.340685e+002
    endloop
  endfacet
  facet normal  0.000000e+000  0.000000e+000  9.999999e-001
    outer loop
      vertex -7.071068e+000 -7.071068e+000  2.340685e+002
      vertex -7.483424e+000 -3.099736e+000  2.340685e+002
      vertex -8.100000e+000  9.919312e-016  2.340685e+002
    endloop
  endfacet
  facet normal  0.000000e+000  0.000000e+000  1.000000e+000
    outer loop
      vertex -3.099736e+000 -7.483424e+000  2.340685e+002
      vertex -3.826834e+000 -9.238795e+000  2.340685e+002
      vertex  1.983862e-015 -8.100000e+000  2.340685e+002
    endloop
  endfacet
  facet normal  0.000000e+000  0.000000e+000  1.000000e+000
    outer loop
      vertex  1.983862e-015 -8.100000e+000  2.340685e+002
      vertex -3.826834e+000 -9.238795e+000  2.340685e+002
      vertex  2.449213e-015 -1.000000e+001  2.340685e+002
    endloop
  endfacet
  facet normal  0.000000e+000  -0.000000e+000  1.000000e+000
    outer loop
      vertex  1.983862e-015 -8.100000e+000  2.340685e+002
      vertex  2.449213e-015 -1.000000e+001  2.340685e+002
      vertex  3.099736e+000 -7.483424e+000  2.340685e+002
    endloop
  endfacet
  facet normal  0.000000e+000  0.000000e+000  1.000000e+000
    outer loop
      vertex  3.099736e+000 -7.483424e+000  2.340685e+002
      vertex  2.449213e-015 -1.000000e+001  2.340685e+002
      vertex  3.826834e+000 -9.238795e+000  2.340685e+002
    endloop
  endfacet
  facet normal  0.000000e+000  -0.000000e+000  1.000000e+000
    outer loop
      vertex  3.099736e+000 -7.483424e+000  2.340685e+002
      vertex  3.826834e+000 -9.238795e+000  2.340685e+002
      vertex  5.727565e+000 -5.727565e+000  2.340685e+002
    endloop
  endfacet
  facet normal  0.000000e+000  0.000000e+000  1.000000e+000
    outer loop
      vertex  5.727565e+000 -5.727565e+000  2.340685e+002
      vertex  3.826834e+000 -9.238795e+000  2.340685e+002
      vertex  7.071068e+000 -7.071068e+000  2.340685e+002
    endloop
  endfacet
  facet normal  0.000000e+000  -0.000000e+000  1.000000e+000
    outer loop
      vertex  5.727565e+000 -5.727565e+000  2.340685e+002
      vertex  7.071068e+000 -7.071068e+000  2.340685e+002
      vertex  7.483424e+000 -3.099736e+000  2.340685e+002
    endloop
  endfacet
  facet normal  0.000000e+000  0.000000e+000  1.000000e+000
    outer loop
      vertex  9.238795e+000 -3.826834e+000  2.340685e+002
      vertex  8.100000e+000  0.000000e+000  2.340685e+002
      vertex  7.071068e+000 -7.071068e+000  2.340685e+002
    endloop
  endfacet
  facet normal  0.000000e+000  0.000000e+000  9.999999e-001
    outer loop
      vertex  7.071068e+000 -7.071068e+000  2.340685e+002
      vertex  8.100000e+000  0.000000e+000  2.340685e+002
      vertex  7.483424e+000 -3.099736e+000  2.340685e+002
    endloop
  endfacet
  facet normal  9.807853e-001 -1.950905e-001  0.000000e+000
    outer loop
      vertex -8.100000e+000  9.919312e-016  2.340685e+002
      vertex -8.100000e+000  9.919312e-016  2.190685e+002
      vertex -7.483424e+000  3.099736e+000  2.340685e+002
    endloop
  endfacet
  facet normal  9.807853e-001 -1.950905e-001  0.000000e+000
    outer loop
      vertex -7.483424e+000  3.099736e+000  2.340685e+002
      vertex -8.100000e+000  9.919312e-016  2.190685e+002
      vertex -7.483424e+000  3.099736e+000  2.190685e+002
    endloop
  endfacet
  facet normal  8.314696e-001 -5.555703e-001  0.000000e+000
    outer loop
      vertex -7.483424e+000  3.099736e+000  2.340685e+002
      vertex -7.483424e+000  3.099736e+000  2.190685e+002
      vertex -5.727565e+000  5.727565e+000  2.340685e+002
    endloop
  endfacet
  facet normal  8.314696e-001 -5.555703e-001  0.000000e+000
    outer loop
      vertex -5.727565e+000  5.727565e+000  2.340685e+002
      vertex -7.483424e+000  3.099736e+000  2.190685e+002
      vertex -5.727565e+000  5.727565e+000  2.190685e+002
    endloop
  endfacet
  facet normal  5.555703e-001 -8.314696e-001  0.000000e+000
    outer loop
      vertex -5.727565e+000  5.727565e+000  2.340685e+002
      vertex -5.727565e+000  5.727565e+000  2.190685e+002
      vertex -3.099736e+000  7.483424e+000  2.340685e+002
    endloop
  endfacet
  facet normal  5.555703e-001 -8.314696e-001  0.000000e+000
    outer loop
      vertex -3.099736e+000  7.483424e+000  2.340685e+002
      vertex -5.727565e+000  5.727565e+000  2.190685e+002
      vertex -3.099736e+000  7.483424e+000  2.190685e+002
    endloop
  endfacet
  facet normal  1.950905e-001 -9.807853e-001  0.000000e+000
    outer loop
      vertex -3.099736e+000  7.483424e+000  2.340685e+002
      vertex -3.099736e+000  7.483424e+000  2.190685e+002
      vertex  3.493370e-015  8.100000e+000  2.340685e+002
    endloop
  endfacet
  facet normal  1.950905e-001 -9.807853e-001 -3.898433e-017
    outer loop
      vertex  3.493370e-015  8.100000e+000  2.340685e+002
      vertex -3.099736e+000  7.483424e+000  2.190685e+002
      vertex  4.959656e-016  8.100000e+000  2.190685e+002
    endloop
  endfacet
  facet normal -1.950905e-001 -9.807853e-001  3.898433e-017
    outer loop
      vertex  3.493370e-015  8.100000e+000  2.340685e+002
      vertex  4.959656e-016  8.100000e+000  2.190685e+002
      vertex  3.099736e+000  7.483424e+000  2.340685e+002
    endloop
  endfacet
  facet normal -1.950905e-001 -9.807853e-001  -0.000000e+000
    outer loop
      vertex  3.099736e+000  7.483424e+000  2.340685e+002
      vertex  4.959656e-016  8.100000e+000  2.190685e+002
      vertex  3.099736e+000  7.483424e+000  2.190685e+002
    endloop
  endfacet
  facet normal -5.555703e-001 -8.314696e-001  0.000000e+000
    outer loop
      vertex  3.099736e+000  7.483424e+000  2.340685e+002
      vertex  3.099736e+000  7.483424e+000  2.190685e+002
      vertex  5.727565e+000  5.727565e+000  2.340685e+002
    endloop
  endfacet
  facet normal -5.555703e-001 -8.314696e-001  -0.000000e+000
    outer loop
      vertex  5.727565e+000  5.727565e+000  2.340685e+002
      vertex  3.099736e+000  7.483424e+000  2.190685e+002
      vertex  5.727565e+000  5.727565e+000  2.190685e+002
    endloop
  endfacet
  facet normal -8.314696e-001 -5.555703e-001  0.000000e+000
    outer loop
      vertex  5.727565e+000  5.727565e+000  2.340685e+002
      vertex  5.727565e+000  5.727565e+000  2.190685e+002
      vertex  7.483424e+000  3.099736e+000  2.340685e+002
    endloop
  endfacet
  facet normal -8.314696e-001 -5.555703e-001  -0.000000e+000
    outer loop
      vertex  7.483424e+000  3.099736e+000  2.340685e+002
      vertex  5.727565e+000  5.727565e+000  2.190685e+002
      vertex  7.483424e+000  3.099736e+000  2.190685e+002
    endloop
  endfacet
  facet normal -9.807853e-001 -1.950905e-001  0.000000e+000
    outer loop
      vertex  7.483424e+000  3.099736e+000  2.340685e+002
      vertex  7.483424e+000  3.099736e+000  2.190685e+002
      vertex  8.100000e+000  0.000000e+000  2.340685e+002
    endloop
  endfacet
  facet normal -9.807853e-001 -1.950905e-001  -0.000000e+000
    outer loop
      vertex  8.100000e+000  0.000000e+000  2.340685e+002
      vertex  7.483424e+000  3.099736e+000  2.190685e+002
      vertex  8.100000e+000  0.000000e+000  2.190685e+002
    endloop
  endfacet
  facet normal -9.807853e-001  1.950905e-001  0.000000e+000
    outer loop
      vertex  8.100000e+000  0.000000e+000  2.340685e+002
      vertex  8.100000e+000  0.000000e+000  2.190685e+002
      vertex  7.483424e+000 -3.099736e+000  2.340685e+002
    endloop
  endfacet
  facet normal -9.807853e-001  1.950905e-001  0.000000e+000
    outer loop
      vertex  7.483424e+000 -3.099736e+000  2.340685e+002
      vertex  8.100000e+000  0.000000e+000  2.190685e+002
      vertex  7.483424e+000 -3.099736e+000  2.190685e+002
    endloop
  endfacet
  facet normal -8.314696e-001  5.555703e-001  0.000000e+000
    outer loop
      vertex  7.483424e+000 -3.099736e+000  2.340685e+002
      vertex  7.483424e+000 -3.099736e+000  2.190685e+002
      vertex  5.727565e+000 -5.727565e+000  2.340685e+002
    endloop
  endfacet
  facet normal -8.314696e-001  5.555703e-001  0.000000e+000
    outer loop
      vertex  5.727565e+000 -5.727565e+000  2.340685e+002
      vertex  7.483424e+000 -3.099736e+000  2.190685e+002
      vertex  5.727565e+000 -5.727565e+000  2.190685e+002
    endloop
  endfacet
  facet normal -5.555703e-001  8.314696e-001  0.000000e+000
    outer loop
      vertex  5.727565e+000 -5.727565e+000  2.340685e+002
      vertex  5.727565e+000 -5.727565e+000  2.190685e+002
      vertex  3.099736e+000 -7.483424e+000  2.340685e+002
    endloop
  endfacet
  facet normal -5.555703e-001  8.314696e-001  0.000000e+000
    outer loop
      vertex  3.099736e+000 -7.483424e+000  2.340685e+002
      vertex  5.727565e+000 -5.727565e+000  2.190685e+002
      vertex  3.099736e+000 -7.483424e+000  2.190685e+002
    endloop
  endfacet
  facet normal -1.950905e-001  9.807853e-001  0.000000e+000
    outer loop
      vertex  3.099736e+000 -7.483424e+000  2.340685e+002
      vertex  3.099736e+000 -7.483424e+000  2.190685e+002
      vertex  1.983862e-015 -8.100000e+000  2.340685e+002
    endloop
  endfacet
  facet normal -1.950905e-001  9.807853e-001  4.515380e-017
    outer loop
      vertex  1.983862e-015 -8.100000e+000  2.340685e+002
      vertex  3.099736e+000 -7.483424e+000  2.190685e+002
      vertex -1.487897e-015 -8.100000e+000  2.190685e+002
    endloop
  endfacet
  facet normal  1.950905e-001  9.807853e-001 -4.515380e-017
    outer loop
      vertex  1.983862e-015 -8.100000e+000  2.340685e+002
      vertex -1.487897e-015 -8.100000e+000  2.190685e+002
      vertex -3.099736e+000 -7.483424e+000  2.340685e+002
    endloop
  endfacet
  facet normal  1.950905e-001  9.807853e-001  0.000000e+000
    outer loop
      vertex -3.099736e+000 -7.483424e+000  2.340685e+002
      vertex -1.487897e-015 -8.100000e+000  2.190685e+002
      vertex -3.099736e+000 -7.483424e+000  2.190685e+002
    endloop
  endfacet
  facet normal  5.555703e-001  8.314696e-001  -0.000000e+000
    outer loop
      vertex -3.099736e+000 -7.483424e+000  2.340685e+002
      vertex -3.099736e+000 -7.483424e+000  2.190685e+002
      vertex -5.727565e+000 -5.727565e+000  2.340685e+002
    endloop
  endfacet
  facet normal  5.555703e-001  8.314696e-001  0.000000e+000
    outer loop
      vertex -5.727565e+000 -5.727565e+000  2.340685e+002
      vertex -3.099736e+000 -7.483424e+000  2.190685e+002
      vertex -5.727565e+000 -5.727565e+000  2.190685e+002
    endloop
  endfacet
  facet normal  8.314696e-001  5.555703e-001  -0.000000e+000
    outer loop
      vertex -5.727565e+000 -5.727565e+000  2.340685e+002
      vertex -5.727565e+000 -5.727565e+000  2.190685e+002
      vertex -7.483424e+000 -3.099736e+000  2.340685e+002
    endloop
  endfacet
  facet normal  8.314696e-001  5.555703e-001  0.000000e+000
    outer loop
      vertex -7.483424e+000 -3.099736e+000  2.340685e+002
      vertex -5.727565e+000 -5.727565e+000  2.190685e+002
      vertex -7.483424e+000 -3.099736e+000  2.190685e+002
    endloop
  endfacet
  facet normal  9.807853e-001  1.950905e-001  -0.000000e+000
    outer loop
      vertex -7.483424e+000 -3.099736e+000  2.340685e+002
      vertex -7.483424e+000 -3.099736e+000  2.190685e+002
      vertex -8.100000e+000  9.919312e-016  2.340685e+002
    endloop
  endfacet
  facet normal  9.807853e-001  1.950905e-001  0.000000e+000
    outer loop
      vertex -8.100000e+000  9.919312e-016  2.340685e+002
      vertex -7.483424e+000 -3.099736e+000  2.190685e+002
      vertex -8.100000e+000  9.919312e-016  2.190685e+002
    endloop
  endfacet
  facet normal  0.000000e+000  -0.000000e+000  1.000000e+000
    outer loop
      vertex -5.727565e+000 -5.727565e+000  2.190685e+002
      vertex -3.099736e+000 -7.483424e+000  2.190685e+002
      vertex -1.335126e+000 -5.849567e+000  2.190685e+002
    endloop
  endfacet
  facet normal  0.000000e+000  0.000000e+000  1.000000e+000
    outer loop
      vertex -1.335126e+000 -5.849567e+000  2.190685e+002
      vertex -3.099736e+000 -7.483424e+000  2.190685e+002
      vertex -1.487897e-015 -8.100000e+000  2.190685e+002
    endloop
  endfacet
  facet normal  0.000000e+000  -0.000000e+000  1.000000e+000
    outer loop
      vertex -1.335126e+000 -5.849567e+000  2.190685e+002
      vertex -1.487897e-015 -8.100000e+000  2.190685e+002
      vertex  1.335126e+000 -5.849567e+000  2.190685e+002
    endloop
  endfacet
  facet normal  0.000000e+000  0.000000e+000  1.000000e+000
    outer loop
      vertex  1.335126e+000 -5.849567e+000  2.190685e+002
      vertex -1.487897e-015 -8.100000e+000  2.190685e+002
      vertex  3.099736e+000 -7.483424e+000  2.190685e+002
    endloop
  endfacet
  facet normal  0.000000e+000  -0.000000e+000  1.000000e+000
    outer loop
      vertex  1.335126e+000 -5.849567e+000  2.190685e+002
      vertex  3.099736e+000 -7.483424e+000  2.190685e+002
      vertex  5.727565e+000 -5.727565e+000  2.190685e+002
    endloop
  endfacet
  facet normal  0.000000e+000  0.000000e+000  9.999999e-001
    outer loop
      vertex  4.959656e-016  8.100000e+000  2.190685e+002
      vertex -1.335126e+000  5.849567e+000  2.190685e+002
      vertex  3.099736e+000  7.483424e+000  2.190685e+002
    endloop
  endfacet
  facet normal  0.000000e+000  0.000000e+000  1.000000e+000
    outer loop
      vertex  3.099736e+000  7.483424e+000  2.190685e+002
      vertex -1.335126e+000  5.849567e+000  2.190685e+002
      vertex  1.335126e+000  5.849567e+000  2.190685e+002
    endloop
  endfacet
  facet normal  -0.000000e+000  0.000000e+000  1.000000e+000
    outer loop
      vertex  3.099736e+000  7.483424e+000  2.190685e+002
      vertex  1.335126e+000  5.849567e+000  2.190685e+002
      vertex  5.727565e+000  5.727565e+000  2.190685e+002
    endloop
  endfacet
  facet normal  -0.000000e+000  0.000000e+000  1.000000e+000
    outer loop
      vertex  4.959656e-016  8.100000e+000  2.190685e+002
      vertex -3.099736e+000  7.483424e+000  2.190685e+002
      vertex -1.335126e+000  5.849567e+000  2.190685e+002
    endloop
  endfacet
  facet normal  0.000000e+000  0.000000e+000  1.000000e+000
    outer loop
      vertex -1.335126e+000  5.849567e+000  2.190685e+002
      vertex -3.099736e+000  7.483424e+000  2.190685e+002
      vertex -5.727565e+000  5.727565e+000  2.190685e+002
    endloop
  endfacet
  facet normal  -0.000000e+000  0.000000e+000  1.000000e+000
    outer loop
      vertex -1.335126e+000  5.849567e+000  2.190685e+002
      vertex -5.727565e+000  5.727565e+000  2.190685e+002
      vertex -3.740939e+000  4.690989e+000  2.190685e+002
    endloop
  endfacet
  facet normal  0.000000e+000  0.000000e+000  1.000000e+000
    outer loop
      vertex -3.740939e+000  4.690989e+000  2.190685e+002
      vertex -5.727565e+000  5.727565e+000  2.190685e+002
      vertex -7.483424e+000  3.099736e+000  2.190685e+002
    endloop
  endfacet
  facet normal  -0.000000e+000  0.000000e+000  1.000000e+000
    outer loop
      vertex -3.740939e+000  4.690989e+000  2.190685e+002
      vertex -7.483424e+000  3.099736e+000  2.190685e+002
      vertex -5.405813e+000  2.603302e+000  2.190685e+002
    endloop
  endfacet
  facet normal  0.000000e+000  0.000000e+000  1.000000e+000
    outer loop
      vertex -5.405813e+000  2.603302e+000  2.190685e+002
      vertex -7.483424e+000  3.099736e+000  2.190685e+002
      vertex -6.000000e+000  7.347638e-016  2.190685e+002
    endloop
  endfacet
  facet normal  0.000000e+000  0.000000e+000  9.999999e-001
    outer loop
      vertex -6.000000e+000  7.347638e-016  2.190685e+002
      vertex -7.483424e+000  3.099736e+000  2.190685e+002
      vertex -8.100000e+000  9.919312e-016  2.190685e+002
    endloop
  endfacet
  facet normal  0.000000e+000  0.000000e+000  1.000000e+000
    outer loop
      vertex -6.000000e+000  7.347638e-016  2.190685e+002
      vertex -8.100000e+000  9.919312e-016  2.190685e+002
      vertex -5.405813e+000 -2.603302e+000  2.190685e+002
    endloop
  endfacet
  facet normal  0.000000e+000  0.000000e+000  1.000000e+000
    outer loop
      vertex -5.405813e+000 -2.603302e+000  2.190685e+002
      vertex -8.100000e+000  9.919312e-016  2.190685e+002
      vertex -7.483424e+000 -3.099736e+000  2.190685e+002
    endloop
  endfacet
  facet normal  -0.000000e+000  0.000000e+000  1.000000e+000
    outer loop
      vertex -5.405813e+000 -2.603302e+000  2.190685e+002
      vertex -7.483424e+000 -3.099736e+000  2.190685e+002
      vertex -3.740939e+000 -4.690989e+000  2.190685e+002
    endloop
  endfacet
  facet normal  0.000000e+000  0.000000e+000  1.000000e+000
    outer loop
      vertex -3.740939e+000 -4.690989e+000  2.190685e+002
      vertex -7.483424e+000 -3.099736e+000  2.190685e+002
      vertex -5.727565e+000 -5.727565e+000  2.190685e+002
    endloop
  endfacet
  facet normal  -0.000000e+000  0.000000e+000  1.000000e+000
    outer loop
      vertex -3.740939e+000 -4.690989e+000  2.190685e+002
      vertex -5.727565e+000 -5.727565e+000  2.190685e+002
      vertex -1.335126e+000 -5.849567e+000  2.190685e+002
    endloop
  endfacet
  facet normal  0.000000e+000  0.000000e+000  1.000000e+000
    outer loop
      vertex  5.727565e+000  5.727565e+000  2.190685e+002
      vertex  1.335126e+000  5.849567e+000  2.190685e+002
      vertex  7.483424e+000  3.099736e+000  2.190685e+002
    endloop
  endfacet
  facet normal  0.000000e+000  0.000000e+000  1.000000e+000
    outer loop
      vertex  7.483424e+000  3.099736e+000  2.190685e+002
      vertex  1.335126e+000  5.849567e+000  2.190685e+002
      vertex  3.740939e+000  4.690989e+000  2.190685e+002
    endloop
  endfacet
  facet normal  0.000000e+000  0.000000e+000  1.000000e+000
    outer loop
      vertex  7.483424e+000  3.099736e+000  2.190685e+002
      vertex  3.740939e+000  4.690989e+000  2.190685e+002
      vertex  5.405813e+000  2.603302e+000  2.190685e+002
    endloop
  endfacet
  facet normal  -0.000000e+000  0.000000e+000  1.000000e+000
    outer loop
      vertex  7.483424e+000  3.099736e+000  2.190685e+002
      vertex  5.405813e+000  2.603302e+000  2.190685e+002
      vertex  8.100000e+000  0.000000e+000  2.190685e+002
    endloop
  endfacet
  facet normal  0.000000e+000  0.000000e+000  1.000000e+000
    outer loop
      vertex  8.100000e+000  0.000000e+000  2.190685e+002
      vertex  5.405813e+000  2.603302e+000  2.190685e+002
      vertex  6.000000e+000  0.000000e+000  2.190685e+002
    endloop
  endfacet
  facet normal  -0.000000e+000  0.000000e+000  9.999999e-001
    outer loop
      vertex  8.100000e+000  0.000000e+000  2.190685e+002
      vertex  6.000000e+000  0.000000e+000  2.190685e+002
      vertex  7.483424e+000 -3.099736e+000  2.190685e+002
    endloop
  endfacet
  facet normal  0.000000e+000  0.000000e+000  1.000000e+000
    outer loop
      vertex  7.483424e+000 -3.099736e+000  2.190685e+002
      vertex  6.000000e+000  0.000000e+000  2.190685e+002
      vertex  5.405813e+000 -2.603302e+000  2.190685e+002
    endloop
  endfacet
  facet normal  0.000000e+000  0.000000e+000  1.000000e+000
    outer loop
      vertex  7.483424e+000 -3.099736e+000  2.190685e+002
      vertex  5.405813e+000 -2.603302e+000  2.190685e+002
      vertex  5.727565e+000 -5.727565e+000  2.190685e+002
    endloop
  endfacet
  facet normal  0.000000e+000  0.000000e+000  9.999999e-001
    outer loop
      vertex  5.727565e+000 -5.727565e+000  2.190685e+002
      vertex  5.405813e+000 -2.603302e+000  2.190685e+002
      vertex  3.740939e+000 -4.690989e+000  2.190685e+002
    endloop
  endfacet
  facet normal  0.000000e+000  0.000000e+000  1.000000e+000
    outer loop
      vertex  5.727565e+000 -5.727565e+000  2.190685e+002
      vertex  3.740939e+000 -4.690989e+000  2.190685e+002
      vertex  1.335126e+000 -5.849567e+000  2.190685e+002
    endloop
  endfacet
  facet normal  9.807853e-001 -1.950903e-001  0.000000e+000
    outer loop
      vertex  1.000000e+001  0.000000e+000  1.000000e+002
      vertex  1.000000e+001  0.000000e+000  2.340685e+002
      vertex  9.238795e+000 -3.826834e+000  1.000000e+002
    endloop
  endfacet
  facet normal  9.807853e-001 -1.950903e-001  0.000000e+000
    outer loop
      vertex  9.238795e+000 -3.826834e+000  1.000000e+002
      vertex  1.000000e+001  0.000000e+000  2.340685e+002
      vertex  9.238795e+000 -3.826834e+000  2.340685e+002
    endloop
  endfacet
  facet normal  8.314696e-001 -5.555702e-001  0.000000e+000
    outer loop
      vertex  9.238795e+000 -3.826834e+000  1.000000e+002
      vertex  9.238795e+000 -3.826834e+000  2.340685e+002
      vertex  7.071068e+000 -7.071068e+000  1.000000e+002
    endloop
  endfacet
  facet normal  8.314696e-001 -5.555702e-001  0.000000e+000
    outer loop
      vertex  7.071068e+000 -7.071068e+000  1.000000e+002
      vertex  9.238795e+000 -3.826834e+000  2.340685e+002
      vertex  7.071068e+000 -7.071068e+000  2.340685e+002
    endloop
  endfacet
  facet normal  5.555702e-001 -8.314696e-001  0.000000e+000
    outer loop
      vertex  7.071068e+000 -7.071068e+000  1.000000e+002
      vertex  7.071068e+000 -7.071068e+000  2.340685e+002
      vertex  3.826834e+000 -9.238795e+000  1.000000e+002
    endloop
  endfacet
  facet normal  5.555702e-001 -8.314696e-001  0.000000e+000
    outer loop
      vertex  3.826834e+000 -9.238795e+000  1.000000e+002
      vertex  7.071068e+000 -7.071068e+000  2.340685e+002
      vertex  3.826834e+000 -9.238795e+000  2.340685e+002
    endloop
  endfacet
  facet normal  1.950903e-001 -9.807853e-001  0.000000e+000
    outer loop
      vertex  3.826834e+000 -9.238795e+000  1.000000e+002
      vertex  3.826834e+000 -9.238795e+000  2.340685e+002
      vertex  2.449213e-015 -1.000000e+001  1.000000e+002
    endloop
  endfacet
  facet normal  1.950903e-001 -9.807853e-001  0.000000e+000
    outer loop
      vertex  2.449213e-015 -1.000000e+001  1.000000e+002
      vertex  3.826834e+000 -9.238795e+000  2.340685e+002
      vertex  2.449213e-015 -1.000000e+001  2.340685e+002
    endloop
  endfacet
  facet normal -1.950903e-001 -9.807853e-001  -0.000000e+000
    outer loop
      vertex  2.449213e-015 -1.000000e+001  1.000000e+002
      vertex  2.449213e-015 -1.000000e+001  2.340685e+002
      vertex -3.826834e+000 -9.238795e+000  1.000000e+002
    endloop
  endfacet
  facet normal -1.950903e-001 -9.807853e-001  0.000000e+000
    outer loop
      vertex -3.826834e+000 -9.238795e+000  1.000000e+002
      vertex  2.449213e-015 -1.000000e+001  2.340685e+002
      vertex -3.826834e+000 -9.238795e+000  2.340685e+002
    endloop
  endfacet
  facet normal -5.555702e-001 -8.314696e-001  -0.000000e+000
    outer loop
      vertex -3.826834e+000 -9.238795e+000  1.000000e+002
      vertex -3.826834e+000 -9.238795e+000  2.340685e+002
      vertex -7.071068e+000 -7.071068e+000  1.000000e+002
    endloop
  endfacet
  facet normal -5.555702e-001 -8.314696e-001  0.000000e+000
    outer loop
      vertex -7.071068e+000 -7.071068e+000  1.000000e+002
      vertex -3.826834e+000 -9.238795e+000  2.340685e+002
      vertex -7.071068e+000 -7.071068e+000  2.340685e+002
    endloop
  endfacet
  facet normal -8.314696e-001 -5.555702e-001  -0.000000e+000
    outer loop
      vertex -7.071068e+000 -7.071068e+000  1.000000e+002
      vertex -7.071068e+000 -7.071068e+000  2.340685e+002
      vertex -9.238795e+000 -3.826834e+000  1.000000e+002
    endloop
  endfacet
  facet normal -8.314696e-001 -5.555702e-001  0.000000e+000
    outer loop
      vertex -9.238795e+000 -3.826834e+000  1.000000e+002
      vertex -7.071068e+000 -7.071068e+000  2.340685e+002
      vertex -9.238795e+000 -3.826834e+000  2.340685e+002
    endloop
  endfacet
  facet normal -9.807853e-001 -1.950903e-001  -0.000000e+000
    outer loop
      vertex -9.238795e+000 -3.826834e+000  1.000000e+002
      vertex -9.238795e+000 -3.826834e+000  2.340685e+002
      vertex -1.000000e+001  1.224606e-015  1.000000e+002
    endloop
  endfacet
  facet normal -9.807853e-001 -1.950903e-001  0.000000e+000
    outer loop
      vertex -1.000000e+001  1.224606e-015  1.000000e+002
      vertex -9.238795e+000 -3.826834e+000  2.340685e+002
      vertex -1.000000e+001  1.224606e-015  2.340685e+002
    endloop
  endfacet
  facet normal -9.807853e-001  1.950903e-001  0.000000e+000
    outer loop
      vertex -1.000000e+001  1.224606e-015  1.000000e+002
      vertex -1.000000e+001  1.224606e-015  2.340685e+002
      vertex -9.238795e+000  3.826834e+000  1.000000e+002
    endloop
  endfacet
  facet normal -9.807853e-001  1.950903e-001  0.000000e+000
    outer loop
      vertex -9.238795e+000  3.826834e+000  1.000000e+002
      vertex -1.000000e+001  1.224606e-015  2.340685e+002
      vertex -9.238795e+000  3.826834e+000  2.340685e+002
    endloop
  endfacet
  facet normal -8.314696e-001  5.555702e-001  0.000000e+000
    outer loop
      vertex -9.238795e+000  3.826834e+000  1.000000e+002
      vertex -9.238795e+000  3.826834e+000  2.340685e+002
      vertex -7.071068e+000  7.071068e+000  1.000000e+002
    endloop
  endfacet
  facet normal -8.314696e-001  5.555702e-001  0.000000e+000
    outer loop
      vertex -7.071068e+000  7.071068e+000  1.000000e+002
      vertex -9.238795e+000  3.826834e+000  2.340685e+002
      vertex -7.071068e+000  7.071068e+000  2.340685e+002
    endloop
  endfacet
  facet normal -5.555702e-001  8.314696e-001  0.000000e+000
    outer loop
      vertex -7.071068e+000  7.071068e+000  1.000000e+002
      vertex -7.071068e+000  7.071068e+000  2.340685e+002
      vertex -3.826834e+000  9.238795e+000  1.000000e+002
    endloop
  endfacet
  facet normal -5.555702e-001  8.314696e-001  0.000000e+000
    outer loop
      vertex -3.826834e+000  9.238795e+000  1.000000e+002
      vertex -7.071068e+000  7.071068e+000  2.340685e+002
      vertex -3.826834e+000  9.238795e+000  2.340685e+002
    endloop
  endfacet
  facet normal -1.950903e-001  9.807853e-001  0.000000e+000
    outer loop
      vertex -3.826834e+000  9.238795e+000  1.000000e+002
      vertex -3.826834e+000  9.238795e+000  2.340685e+002
      vertex  5.517505e-016  1.000000e+001  1.000000e+002
    endloop
  endfacet
  facet normal -1.950903e-001  9.807853e-001  0.000000e+000
    outer loop
      vertex  5.517505e-016  1.000000e+001  1.000000e+002
      vertex -3.826834e+000  9.238795e+000  2.340685e+002
      vertex  5.517505e-016  1.000000e+001  2.340685e+002
    endloop
  endfacet
  facet normal  1.950903e-001  9.807853e-001  0.000000e+000
    outer loop
      vertex  5.517505e-016  1.000000e+001  1.000000e+002
      vertex  5.517505e-016  1.000000e+001  2.340685e+002
      vertex  3.826834e+000  9.238795e+000  1.000000e+002
    endloop
  endfacet
  facet normal  1.950903e-001  9.807853e-001  -0.000000e+000
    outer loop
      vertex  3.826834e+000  9.238795e+000  1.000000e+002
      vertex  5.517505e-016  1.000000e+001  2.340685e+002
      vertex  3.826834e+000  9.238795e+000  2.340685e+002
    endloop
  endfacet
  facet normal  5.555702e-001  8.314696e-001  0.000000e+000
    outer loop
      vertex  3.826834e+000  9.238795e+000  1.000000e+002
      vertex  3.826834e+000  9.238795e+000  2.340685e+002
      vertex  7.071068e+000  7.071068e+000  1.000000e+002
    endloop
  endfacet
  facet normal  5.555702e-001  8.314696e-001  -0.000000e+000
    outer loop
      vertex  7.071068e+000  7.071068e+000  1.000000e+002
      vertex  3.826834e+000  9.238795e+000  2.340685e+002
      vertex  7.071068e+000  7.071068e+000  2.340685e+002
    endloop
  endfacet
  facet normal  8.314696e-001  5.555702e-001  0.000000e+000
    outer loop
      vertex  7.071068e+000  7.071068e+000  1.000000e+002
      vertex  7.071068e+000  7.071068e+000  2.340685e+002
      vertex  9.238795e+000  3.826834e+000  1.000000e+002
    endloop
  endfacet
  facet normal  8.314696e-001  5.555702e-001  -0.000000e+000
    outer loop
      vertex  9.238795e+000  3.826834e+000  1.000000e+002
      vertex  7.071068e+000  7.071068e+000  2.340685e+002
      vertex  9.238795e+000  3.826834e+000  2.340685e+002
    endloop
  endfacet
  facet normal  9.807853e-001  1.950903e-001  0.000000e+000
    outer loop
      vertex  9.238795e+000  3.826834e+000  1.000000e+002
      vertex  9.238795e+000  3.826834e+000  2.340685e+002
      vertex  1.000000e+001  0.000000e+000  1.000000e+002
    endloop
  endfacet
  facet normal  9.807853e-001  1.950903e-001  -0.000000e+000
    outer loop
      vertex  1.000000e+001  0.000000e+000  1.000000e+002
      vertex  9.238795e+000  3.826834e+000  2.340685e+002
      vertex  1.000000e+001  0.000000e+000  2.340685e+002
    endloop
  endfacet
  facet normal  0.000000e+000  0.000000e+000 -9.999999e-001
    outer loop
      vertex -8.100000e+000 -9.919312e-016  1.000000e+002
      vertex -7.071068e+000  7.071068e+000  1.000000e+002
      vertex -7.483424e+000  3.099736e+000  1.000000e+002
    endloop
  endfacet
  facet normal  -0.000000e+000  0.000000e+000 -1.000000e+000
    outer loop
      vertex -5.727565e+000 -5.727565e+000  1.000000e+002
      vertex -3.099736e+000 -7.483424e+000  1.000000e+002
      vertex -3.826834e+000 -9.238795e+000  1.000000e+002
    endloop
  endfacet
  facet normal  0.000000e+000  0.000000e+000 -1.000000e+000
    outer loop
      vertex  1.000000e+001  0.000000e+000  1.000000e+002
      vertex  9.238795e+000 -3.826834e+000  1.000000e+002
      vertex  9.238795e+000  3.826834e+000  1.000000e+002
    endloop
  endfacet
  facet normal  0.000000e+000  -0.000000e+000 -1.000000e+000
    outer loop
      vertex  9.238795e+000  3.826834e+000  1.000000e+002
      vertex  9.238795e+000 -3.826834e+000  1.000000e+002
      vertex  8.100000e+000  0.000000e+000  1.000000e+002
    endloop
  endfacet
  facet normal  0.000000e+000  0.000000e+000 -1.000000e+000
    outer loop
      vertex  9.238795e+000  3.826834e+000  1.000000e+002
      vertex  8.100000e+000  0.000000e+000  1.000000e+002
      vertex  7.071068e+000  7.071068e+000  1.000000e+002
    endloop
  endfacet
  facet normal  0.000000e+000  0.000000e+000 -9.999999e-001
    outer loop
      vertex  7.071068e+000  7.071068e+000  1.000000e+002
      vertex  8.100000e+000  0.000000e+000  1.000000e+002
      vertex  7.483424e+000  3.099736e+000  1.000000e+002
    endloop
  endfacet
  facet normal  0.000000e+000  0.000000e+000 -1.000000e+000
    outer loop
      vertex  7.071068e+000  7.071068e+000  1.000000e+002
      vertex  7.483424e+000  3.099736e+000  1.000000e+002
      vertex  5.727565e+000  5.727565e+000  1.000000e+002
    endloop
  endfacet
  facet normal  0.000000e+000  0.000000e+000 -1.000000e+000
    outer loop
      vertex -9.238795e+000  3.826834e+000  1.000000e+002
      vertex -7.071068e+000  7.071068e+000  1.000000e+002
      vertex -1.000000e+001  1.224606e-015  1.000000e+002
    endloop
  endfacet
  facet normal  0.000000e+000  0.000000e+000 -1.000000e+000
    outer loop
      vertex -1.000000e+001  1.224606e-015  1.000000e+002
      vertex -7.071068e+000  7.071068e+000  1.000000e+002
      vertex -8.100000e+000 -9.919312e-016  1.000000e+002
    endloop
  endfacet
  facet normal  -0.000000e+000  0.000000e+000 -1.000000e+000
    outer loop
      vertex -1.000000e+001  1.224606e-015  1.000000e+002
      vertex -8.100000e+000 -9.919312e-016  1.000000e+002
      vertex -9.238795e+000 -3.826834e+000  1.000000e+002
    endloop
  endfacet
  facet normal  0.000000e+000  0.000000e+000 -1.000000e+000
    outer loop
      vertex -9.238795e+000 -3.826834e+000  1.000000e+002
      vertex -8.100000e+000 -9.919312e-016  1.000000e+002
      vertex -7.071068e+000 -7.071068e+000  1.000000e+002
    endloop
  endfacet
  facet normal  0.000000e+000  -0.000000e+000 -1.000000e+000
    outer loop
      vertex -7.483424e+000  3.099736e+000  1.000000e+002
      vertex -7.071068e+000  7.071068e+000  1.000000e+002
      vertex -5.727565e+000  5.727565e+000  1.000000e+002
    endloop
  endfacet
  facet normal  0.000000e+000  0.000000e+000 -1.000000e+000
    outer loop
      vertex -5.727565e+000  5.727565e+000  1.000000e+002
      vertex -7.071068e+000  7.071068e+000  1.000000e+002
      vertex -3.826834e+000  9.238795e+000  1.000000e+002
    endloop
  endfacet
  facet normal  0.000000e+000  -0.000000e+000 -1.000000e+000
    outer loop
      vertex -5.727565e+000  5.727565e+000  1.000000e+002
      vertex -3.826834e+000  9.238795e+000  1.000000e+002
      vertex -3.099736e+000  7.483424e+000  1.000000e+002
    endloop
  endfacet
  facet normal  0.000000e+000  0.000000e+000 -1.000000e+000
    outer loop
      vertex -3.099736e+000  7.483424e+000  1.000000e+002
      vertex -3.826834e+000  9.238795e+000  1.000000e+002
      vertex  2.605191e-015  8.100000e+000  1.000000e+002
    endloop
  endfacet
  facet normal  0.000000e+000  0.000000e+000 -1.000000e+000
    outer loop
      vertex  2.605191e-015  8.100000e+000  1.000000e+002
      vertex -3.826834e+000  9.238795e+000  1.000000e+002
      vertex  5.517505e-016  1.000000e+001  1.000000e+002
    endloop
  endfacet
  facet normal  0.000000e+000  0.000000e+000 -1.000000e+000
    outer loop
      vertex  2.605191e-015  8.100000e+000  1.000000e+002
      vertex  5.517505e-016  1.000000e+001  1.000000e+002
      vertex  3.099736e+000  7.483424e+000  1.000000e+002
    endloop
  endfacet
  facet normal  0.000000e+000  0.000000e+000 -1.000000e+000
    outer loop
      vertex  3.099736e+000  7.483424e+000  1.000000e+002
      vertex  5.517505e-016  1.000000e+001  1.000000e+002
      vertex  3.826834e+000  9.238795e+000  1.000000e+002
    endloop
  endfacet
  facet normal  0.000000e+000  -0.000000e+000 -1.000000e+000
    outer loop
      vertex  3.099736e+000  7.483424e+000  1.000000e+002
      vertex  3.826834e+000  9.238795e+000  1.000000e+002
      vertex  5.727565e+000  5.727565e+000  1.000000e+002
    endloop
  endfacet
  facet normal  0.000000e+000  0.000000e+000 -1.000000e+000
    outer loop
      vertex  5.727565e+000  5.727565e+000  1.000000e+002
      vertex  3.826834e+000  9.238795e+000  1.000000e+002
      vertex  7.071068e+000  7.071068e+000  1.000000e+002
    endloop
  endfacet
  facet normal  0.000000e+000  0.000000e+000 -1.000000e+000
    outer loop
      vertex -5.727565e+000 -5.727565e+000  1.000000e+002
      vertex -3.826834e+000 -9.238795e+000  1.000000e+002
      vertex -7.483424e+000 -3.099736e+000  1.000000e+002
    endloop
  endfacet
  facet normal  0.000000e+000  0.000000e+000 -9.999999e-001
    outer loop
      vertex -7.483424e+000 -3.099736e+000  1.000000e+002
      vertex -3.826834e+000 -9.238795e+000  1.000000e+002
      vertex -7.071068e+000 -7.071068e+000  1.000000e+002
    endloop
  endfacet
  facet normal  0.000000e+000  0.000000e+000 -9.999999e-001
    outer loop
      vertex -7.483424e+000 -3.099736e+000  1.000000e+002
      vertex -7.071068e+000 -7.071068e+000  1.000000e+002
      vertex -8.100000e+000 -9.919312e-016  1.000000e+002
    endloop
  endfacet
  facet normal  0.000000e+000  -0.000000e+000 -1.000000e+000
    outer loop
      vertex -3.826834e+000 -9.238795e+000  1.000000e+002
      vertex -3.099736e+000 -7.483424e+000  1.000000e+002
      vertex  2.449213e-015 -1.000000e+001  1.000000e+002
    endloop
  endfacet
  facet normal  0.000000e+000  0.000000e+000 -1.000000e+000
    outer loop
      vertex  2.449213e-015 -1.000000e+001  1.000000e+002
      vertex -3.099736e+000 -7.483424e+000  1.000000e+002
      vertex  2.872041e-015 -8.100000e+000  1.000000e+002
    endloop
  endfacet
  facet normal  0.000000e+000  -0.000000e+000 -1.000000e+000
    outer loop
      vertex  2.449213e-015 -1.000000e+001  1.000000e+002
      vertex  2.872041e-015 -8.100000e+000  1.000000e+002
      vertex  3.826834e+000 -9.238795e+000  1.000000e+002
    endloop
  endfacet
  facet normal  0.000000e+000  0.000000e+000 -1.000000e+000
    outer loop
      vertex  3.826834e+000 -9.238795e+000  1.000000e+002
      vertex  2.872041e-015 -8.100000e+000  1.000000e+002
      vertex  3.099736e+000 -7.483424e+000  1.000000e+002
    endloop
  endfacet
  facet normal  0.000000e+000  0.000000e+000 -1.000000e+000
    outer loop
      vertex  3.826834e+000 -9.238795e+000  1.000000e+002
      vertex  3.099736e+000 -7.483424e+000  1.000000e+002
      vertex  7.071068e+000 -7.071068e+000  1.000000e+002
    endloop
  endfacet
  facet normal  -0.000000e+000  0.000000e+000 -1.000000e+000
    outer loop
      vertex  7.071068e+000 -7.071068e+000  1.000000e+002
      vertex  3.099736e+000 -7.483424e+000  1.000000e+002
      vertex  5.727565e+000 -5.727565e+000  1.000000e+002
    endloop
  endfacet
  facet normal  0.000000e+000  0.000000e+000 -1.000000e+000
    outer loop
      vertex  7.071068e+000 -7.071068e+000  1.000000e+002
      vertex  5.727565e+000 -5.727565e+000  1.000000e+002
      vertex  7.483424e+000 -3.099736e+000  1.000000e+002
    endloop
  endfacet
  facet normal  0.000000e+000  0.000000e+000 -1.000000e+000
    outer loop
      vertex  8.100000e+000  0.000000e+000  1.000000e+002
      vertex  9.238795e+000 -3.826834e+000  1.000000e+002
      vertex  7.483424e+000 -3.099736e+000  1.000000e+002
    endloop
  endfacet
  facet normal  0.000000e+000  -0.000000e+000 -1.000000e+000
    outer loop
      vertex  7.483424e+000 -3.099736e+000  1.000000e+002
      vertex  9.238795e+000 -3.826834e+000  1.000000e+002
      vertex  7.071068e+000 -7.071068e+000  1.000000e+002
    endloop
  endfacet
  facet normal  9.807853e-001  1.950905e-001  0.000000e+000
    outer loop
      vertex -8.100000e+000 -9.919312e-016  1.000000e+002
      vertex -8.100000e+000 -9.919312e-016  1.150000e+002
      vertex -7.483424e+000 -3.099736e+000  1.000000e+002
    endloop
  endfacet
  facet normal  9.807853e-001  1.950905e-001  -0.000000e+000
    outer loop
      vertex -7.483424e+000 -3.099736e+000  1.000000e+002
      vertex -8.100000e+000 -9.919312e-016  1.150000e+002
      vertex -7.483424e+000 -3.099736e+000  1.150000e+002
    endloop
  endfacet
  facet normal  8.314696e-001  5.555703e-001  0.000000e+000
    outer loop
      vertex -7.483424e+000 -3.099736e+000  1.000000e+002
      vertex -7.483424e+000 -3.099736e+000  1.150000e+002
      vertex -5.727565e+000 -5.727565e+000  1.000000e+002
    endloop
  endfacet
  facet normal  8.314696e-001  5.555703e-001  -0.000000e+000
    outer loop
      vertex -5.727565e+000 -5.727565e+000  1.000000e+002
      vertex -7.483424e+000 -3.099736e+000  1.150000e+002
      vertex -5.727565e+000 -5.727565e+000  1.150000e+002
    endloop
  endfacet
  facet normal  5.555703e-001  8.314696e-001  0.000000e+000
    outer loop
      vertex -5.727565e+000 -5.727565e+000  1.000000e+002
      vertex -5.727565e+000 -5.727565e+000  1.150000e+002
      vertex -3.099736e+000 -7.483424e+000  1.000000e+002
    endloop
  endfacet
  facet normal  5.555703e-001  8.314696e-001  -0.000000e+000
    outer loop
      vertex -3.099736e+000 -7.483424e+000  1.000000e+002
      vertex -5.727565e+000 -5.727565e+000  1.150000e+002
      vertex -3.099736e+000 -7.483424e+000  1.150000e+002
    endloop
  endfacet
  facet normal  1.950905e-001  9.807853e-001  0.000000e+000
    outer loop
      vertex -3.099736e+000 -7.483424e+000  1.000000e+002
      vertex -3.099736e+000 -7.483424e+000  1.150000e+002
      vertex  2.872041e-015 -8.100000e+000  1.000000e+002
    endloop
  endfacet
  facet normal  1.950905e-001  9.807853e-001  3.090331e-017
    outer loop
      vertex  2.872041e-015 -8.100000e+000  1.000000e+002
      vertex -3.099736e+000 -7.483424e+000  1.150000e+002
      vertex  4.959656e-016 -8.100000e+000  1.150000e+002
    endloop
  endfacet
  facet normal -1.950905e-001  9.807853e-001 -3.090331e-017
    outer loop
      vertex  2.872041e-015 -8.100000e+000  1.000000e+002
      vertex  4.959656e-016 -8.100000e+000  1.150000e+002
      vertex  3.099736e+000 -7.483424e+000  1.000000e+002
    endloop
  endfacet
  facet normal -1.950905e-001  9.807853e-001  0.000000e+000
    outer loop
      vertex  3.099736e+000 -7.483424e+000  1.000000e+002
      vertex  4.959656e-016 -8.100000e+000  1.150000e+002
      vertex  3.099736e+000 -7.483424e+000  1.150000e+002
    endloop
  endfacet
  facet normal -5.555703e-001  8.314696e-001  0.000000e+000
    outer loop
      vertex  3.099736e+000 -7.483424e+000  1.000000e+002
      vertex  3.099736e+000 -7.483424e+000  1.150000e+002
      vertex  5.727565e+000 -5.727565e+000  1.000000e+002
    endloop
  endfacet
  facet normal -5.555703e-001  8.314696e-001  0.000000e+000
    outer loop
      vertex  5.727565e+000 -5.727565e+000  1.000000e+002
      vertex  3.099736e+000 -7.483424e+000  1.150000e+002
      vertex  5.727565e+000 -5.727565e+000  1.150000e+002
    endloop
  endfacet
  facet normal -8.314696e-001  5.555703e-001  0.000000e+000
    outer loop
      vertex  5.727565e+000 -5.727565e+000  1.000000e+002
      vertex  5.727565e+000 -5.727565e+000  1.150000e+002
      vertex  7.483424e+000 -3.099736e+000  1.000000e+002
    endloop
  endfacet
  facet normal -8.314696e-001  5.555703e-001  0.000000e+000
    outer loop
      vertex  7.483424e+000 -3.099736e+000  1.000000e+002
      vertex  5.727565e+000 -5.727565e+000  1.150000e+002
      vertex  7.483424e+000 -3.099736e+000  1.150000e+002
    endloop
  endfacet
  facet normal -9.807853e-001  1.950905e-001  0.000000e+000
    outer loop
      vertex  7.483424e+000 -3.099736e+000  1.000000e+002
      vertex  7.483424e+000 -3.099736e+000  1.150000e+002
      vertex  8.100000e+000  0.000000e+000  1.000000e+002
    endloop
  endfacet
  facet normal -9.807853e-001  1.950905e-001  0.000000e+000
    outer loop
      vertex  8.100000e+000  0.000000e+000  1.000000e+002
      vertex  7.483424e+000 -3.099736e+000  1.150000e+002
      vertex  8.100000e+000  0.000000e+000  1.150000e+002
    endloop
  endfacet
  facet normal -9.807853e-001 -1.950905e-001  -0.000000e+000
    outer loop
      vertex  8.100000e+000  0.000000e+000  1.000000e+002
      vertex  8.100000e+000  0.000000e+000  1.150000e+002
      vertex  7.483424e+000  3.099736e+000  1.000000e+002
    endloop
  endfacet
  facet normal -9.807853e-001 -1.950905e-001  0.000000e+000
    outer loop
      vertex  7.483424e+000  3.099736e+000  1.000000e+002
      vertex  8.100000e+000  0.000000e+000  1.150000e+002
      vertex  7.483424e+000  3.099736e+000  1.150000e+002
    endloop
  endfacet
  facet normal -8.314696e-001 -5.555703e-001  -0.000000e+000
    outer loop
      vertex  7.483424e+000  3.099736e+000  1.000000e+002
      vertex  7.483424e+000  3.099736e+000  1.150000e+002
      vertex  5.727565e+000  5.727565e+000  1.000000e+002
    endloop
  endfacet
  facet normal -8.314696e-001 -5.555703e-001  0.000000e+000
    outer loop
      vertex  5.727565e+000  5.727565e+000  1.000000e+002
      vertex  7.483424e+000  3.099736e+000  1.150000e+002
      vertex  5.727565e+000  5.727565e+000  1.150000e+002
    endloop
  endfacet
  facet normal -5.555703e-001 -8.314696e-001  -0.000000e+000
    outer loop
      vertex  5.727565e+000  5.727565e+000  1.000000e+002
      vertex  5.727565e+000  5.727565e+000  1.150000e+002
      vertex  3.099736e+000  7.483424e+000  1.000000e+002
    endloop
  endfacet
  facet normal -5.555703e-001 -8.314696e-001  0.000000e+000
    outer loop
      vertex  3.099736e+000  7.483424e+000  1.000000e+002
      vertex  5.727565e+000  5.727565e+000  1.150000e+002
      vertex  3.099736e+000  7.483424e+000  1.150000e+002
    endloop
  endfacet
  facet normal -1.950905e-001 -9.807853e-001  -0.000000e+000
    outer loop
      vertex  3.099736e+000  7.483424e+000  1.000000e+002
      vertex  3.099736e+000  7.483424e+000  1.150000e+002
      vertex  2.605191e-015  8.100000e+000  1.000000e+002
    endloop
  endfacet
  facet normal -1.950905e-001 -9.807853e-001 -5.323483e-017
    outer loop
      vertex  2.605191e-015  8.100000e+000  1.000000e+002
      vertex  3.099736e+000  7.483424e+000  1.150000e+002
      vertex -1.487897e-015  8.100000e+000  1.150000e+002
    endloop
  endfacet
  facet normal  1.950905e-001 -9.807853e-001  5.323483e-017
    outer loop
      vertex  2.605191e-015  8.100000e+000  1.000000e+002
      vertex -1.487897e-015  8.100000e+000  1.150000e+002
      vertex -3.099736e+000  7.483424e+000  1.000000e+002
    endloop
  endfacet
  facet normal  1.950905e-001 -9.807853e-001  0.000000e+000
    outer loop
      vertex -3.099736e+000  7.483424e+000  1.000000e+002
      vertex -1.487897e-015  8.100000e+000  1.150000e+002
      vertex -3.099736e+000  7.483424e+000  1.150000e+002
    endloop
  endfacet
  facet normal  5.555703e-001 -8.314696e-001  0.000000e+000
    outer loop
      vertex -3.099736e+000  7.483424e+000  1.000000e+002
      vertex -3.099736e+000  7.483424e+000  1.150000e+002
      vertex -5.727565e+000  5.727565e+000  1.000000e+002
    endloop
  endfacet
  facet normal  5.555703e-001 -8.314696e-001  0.000000e+000
    outer loop
      vertex -5.727565e+000  5.727565e+000  1.000000e+002
      vertex -3.099736e+000  7.483424e+000  1.150000e+002
      vertex -5.727565e+000  5.727565e+000  1.150000e+002
    endloop
  endfacet
  facet normal  8.314696e-001 -5.555703e-001  0.000000e+000
    outer loop
      vertex -5.727565e+000  5.727565e+000  1.000000e+002
      vertex -5.727565e+000  5.727565e+000  1.150000e+002
      vertex -7.483424e+000  3.099736e+000  1.000000e+002
    endloop
  endfacet
  facet normal  8.314696e-001 -5.555703e-001  0.000000e+000
    outer loop
      vertex -7.483424e+000  3.099736e+000  1.000000e+002
      vertex -5.727565e+000  5.727565e+000  1.150000e+002
      vertex -7.483424e+000  3.099736e+000  1.150000e+002
    endloop
  endfacet
  facet normal  9.807853e-001 -1.950905e-001  0.000000e+000
    outer loop
      vertex -7.483424e+000  3.099736e+000  1.000000e+002
      vertex -7.483424e+000  3.099736e+000  1.150000e+002
      vertex -8.100000e+000 -9.919312e-016  1.000000e+002
    endloop
  endfacet
  facet normal  9.807853e-001 -1.950905e-001  0.000000e+000
    outer loop
      vertex -8.100000e+000 -9.919312e-016  1.000000e+002
      vertex -7.483424e+000  3.099736e+000  1.150000e+002
      vertex -8.100000e+000 -9.919312e-016  1.150000e+002
    endloop
  endfacet
  facet normal  0.000000e+000  -0.000000e+000 -1.000000e+000
    outer loop
      vertex -5.727565e+000  5.727565e+000  1.150000e+002
      vertex -3.099736e+000  7.483424e+000  1.150000e+002
      vertex -1.335126e+000  5.849567e+000  1.150000e+002
    endloop
  endfacet
  facet normal  0.000000e+000  0.000000e+000 -1.000000e+000
    outer loop
      vertex -1.335126e+000  5.849567e+000  1.150000e+002
      vertex -3.099736e+000  7.483424e+000  1.150000e+002
      vertex -1.487897e-015  8.100000e+000  1.150000e+002
    endloop
  endfacet
  facet normal  0.000000e+000  -0.000000e+000 -1.000000e+000
    outer loop
      vertex -1.335126e+000  5.849567e+000  1.150000e+002
      vertex -1.487897e-015  8.100000e+000  1.150000e+002
      vertex  1.335126e+000  5.849567e+000  1.150000e+002
    endloop
  endfacet
  facet normal  0.000000e+000  0.000000e+000 -1.000000e+000
    outer loop
      vertex  1.335126e+000  5.849567e+000  1.150000e+002
      vertex -1.487897e-015  8.100000e+000  1.150000e+002
      vertex  3.099736e+000  7.483424e+000  1.150000e+002
    endloop
  endfacet
  facet normal  0.000000e+000  -0.000000e+000 -1.000000e+000
    outer loop
      vertex  1.335126e+000  5.849567e+000  1.150000e+002
      vertex  3.099736e+000  7.483424e+000  1.150000e+002
      vertex  5.727565e+000  5.727565e+000  1.150000e+002
    endloop
  endfacet
  facet normal  0.000000e+000  0.000000e+000 -9.999999e-001
    outer loop
      vertex  4.959656e-016 -8.100000e+000  1.150000e+002
      vertex -1.335126e+000 -5.849567e+000  1.150000e+002
      vertex  3.099736e+000 -7.483424e+000  1.150000e+002
    endloop
  endfacet
  facet normal  0.000000e+000  0.000000e+000 -1.000000e+000
    outer loop
      vertex  3.099736e+000 -7.483424e+000  1.150000e+002
      vertex -1.335126e+000 -5.849567e+000  1.150000e+002
      vertex  1.335126e+000 -5.849567e+000  1.150000e+002
    endloop
  endfacet
  facet normal  0.000000e+000  0.000000e+000 -1.000000e+000
    outer loop
      vertex  3.099736e+000 -7.483424e+000  1.150000e+002
      vertex  1.335126e+000 -5.849567e+000  1.150000e+002
      vertex  5.727565e+000 -5.727565e+000  1.150000e+002
    endloop
  endfacet
  facet normal  0.000000e+000  0.000000e+000 -1.000000e+000
    outer loop
      vertex  4.959656e-016 -8.100000e+000  1.150000e+002
      vertex -3.099736e+000 -7.483424e+000  1.150000e+002
      vertex -1.335126e+000 -5.849567e+000  1.150000e+002
    endloop
  endfacet
  facet normal  -0.000000e+000  0.000000e+000 -1.000000e+000
    outer loop
      vertex -1.335126e+000 -5.849567e+000  1.150000e+002
      vertex -3.099736e+000 -7.483424e+000  1.150000e+002
      vertex -5.727565e+000 -5.727565e+000  1.150000e+002
    endloop
  endfacet
  facet normal  0.000000e+000  0.000000e+000 -1.000000e+000
    outer loop
      vertex -1.335126e+000 -5.849567e+000  1.150000e+002
      vertex -5.727565e+000 -5.727565e+000  1.150000e+002
      vertex -3.740939e+000 -4.690989e+000  1.150000e+002
    endloop
  endfacet
  facet normal  -0.000000e+000  0.000000e+000 -1.000000e+000
    outer loop
      vertex -3.740939e+000 -4.690989e+000  1.150000e+002
      vertex -5.727565e+000 -5.727565e+000  1.150000e+002
      vertex -7.483424e+000 -3.099736e+000  1.150000e+002
    endloop
  endfacet
  facet normal  0.000000e+000  0.000000e+000 -1.000000e+000
    outer loop
      vertex -3.740939e+000 -4.690989e+000  1.150000e+002
      vertex -7.483424e+000 -3.099736e+000  1.150000e+002
      vertex -5.405813e+000 -2.603302e+000  1.150000e+002
    endloop
  endfacet
  facet normal  0.000000e+000  0.000000e+000 -1.000000e+000
    outer loop
      vertex -5.405813e+000 -2.603302e+000  1.150000e+002
      vertex -7.483424e+000 -3.099736e+000  1.150000e+002
      vertex -6.000000e+000  7.347638e-016  1.150000e+002
    endloop
  endfacet
  facet normal  0.000000e+000  0.000000e+000 -9.999999e-001
    outer loop
      vertex -6.000000e+000  7.347638e-016  1.150000e+002
      vertex -7.483424e+000 -3.099736e+000  1.150000e+002
      vertex -8.100000e+000 -9.919312e-016  1.150000e+002
    endloop
  endfacet
  facet normal  0.000000e+000  0.000000e+000 -1.000000e+000
    outer loop
      vertex -6.000000e+000  7.347638e-016  1.150000e+002
      vertex -8.100000e+000 -9.919312e-016  1.150000e+002
      vertex -5.405813e+000  2.603302e+000  1.150000e+002
    endloop
  endfacet
  facet normal  -0.000000e+000  0.000000e+000 -1.000000e+000
    outer loop
      vertex -5.405813e+000  2.603302e+000  1.150000e+002
      vertex -8.100000e+000 -9.919312e-016  1.150000e+002
      vertex -7.483424e+000  3.099736e+000  1.150000e+002
    endloop
  endfacet
  facet normal  0.000000e+000  0.000000e+000 -1.000000e+000
    outer loop
      vertex -5.405813e+000  2.603302e+000  1.150000e+002
      vertex -7.483424e+000  3.099736e+000  1.150000e+002
      vertex -3.740939e+000  4.690989e+000  1.150000e+002
    endloop
  endfacet
  facet normal  -0.000000e+000  0.000000e+000 -1.000000e+000
    outer loop
      vertex -3.740939e+000  4.690989e+000  1.150000e+002
      vertex -7.483424e+000  3.099736e+000  1.150000e+002
      vertex -5.727565e+000  5.727565e+000  1.150000e+002
    endloop
  endfacet
  facet normal  0.000000e+000  0.000000e+000 -1.000000e+000
    outer loop
      vertex -3.740939e+000  4.690989e+000  1.150000e+002
      vertex -5.727565e+000  5.727565e+000  1.150000e+002
      vertex -1.335126e+000  5.849567e+000  1.150000e+002
    endloop
  endfacet
  facet normal  0.000000e+000  0.000000e+000 -1.000000e+000
    outer loop
      vertex  5.727565e+000 -5.727565e+000  1.150000e+002
      vertex  1.335126e+000 -5.849567e+000  1.150000e+002
      vertex  7.483424e+000 -3.099736e+000  1.150000e+002
    endloop
  endfacet
  facet normal  0.000000e+000  0.000000e+000 -1.000000e+000
    outer loop
      vertex  7.483424e+000 -3.099736e+000  1.150000e+002
      vertex  1.335126e+000 -5.849567e+000  1.150000e+002
      vertex  3.740939e+000 -4.690989e+000  1.150000e+002
    endloop
  endfacet
  facet normal  0.000000e+000  0.000000e+000 -1.000000e+000
    outer loop
      vertex  7.483424e+000 -3.099736e+000  1.150000e+002
      vertex  3.740939e+000 -4.690989e+000  1.150000e+002
      vertex  5.405813e+000 -2.603302e+000  1.150000e+002
    endloop
  endfacet
  facet normal  0.000000e+000  0.000000e+000 -1.000000e+000
    outer loop
      vertex  7.483424e+000 -3.099736e+000  1.150000e+002
      vertex  5.405813e+000 -2.603302e+000  1.150000e+002
      vertex  8.100000e+000  0.000000e+000  1.150000e+002
    endloop
  endfacet
  facet normal  -0.000000e+000  0.000000e+000 -1.000000e+000
    outer loop
      vertex  8.100000e+000  0.000000e+000  1.150000e+002
      vertex  5.405813e+000 -2.603302e+000  1.150000e+002
      vertex  6.000000e+000  0.000000e+000  1.150000e+002
    endloop
  endfacet
  facet normal  0.000000e+000  0.000000e+000 -9.999999e-001
    outer loop
      vertex  8.100000e+000  0.000000e+000  1.150000e+002
      vertex  6.000000e+000  0.000000e+000  1.150000e+002
      vertex  7.483424e+000  3.099736e+000  1.150000e+002
    endloop
  endfacet
  facet normal  0.000000e+000  0.000000e+000 -1.000000e+000
    outer loop
      vertex  7.483424e+000  3.099736e+000  1.150000e+002
      vertex  6.000000e+000  0.000000e+000  1.150000e+002
      vertex  5.405813e+000  2.603302e+000  1.150000e+002
    endloop
  endfacet
  facet normal  0.000000e+000  0.000000e+000 -1.000000e+000
    outer loop
      vertex  7.483424e+000  3.099736e+000  1.150000e+002
      vertex  5.405813e+000  2.603302e+000  1.150000e+002
      vertex  5.727565e+000  5.727565e+000  1.150000e+002
    endloop
  endfacet
  facet normal  0.000000e+000  0.000000e+000 -9.999999e-001
    outer loop
      vertex  5.727565e+000  5.727565e+000  1.150000e+002
      vertex  5.405813e+000  2.603302e+000  1.150000e+002
      vertex  3.740939e+000  4.690989e+000  1.150000e+002
    endloop
  endfacet
  facet normal  0.000000e+000  0.000000e+000 -1.000000e+000
    outer loop
      vertex  5.727565e+000  5.727565e+000  1.150000e+002
      vertex  3.740939e+000  4.690989e+000  1.150000e+002
      vertex  1.335126e+000  5.849567e+000  1.150000e+002
    endloop
  endfacet
endsolid CATIA STL
