solid CATIA STL
  facet normal -9.749279e-001  2.225209e-001  0.000000e+000
    outer loop
      vertex  6.000000e+000  0.000000e+000  3.500000e+002
      vertex  6.000000e+000  0.000000e+000  2.490685e+002
      vertex  5.405813e+000 -2.603302e+000  3.500000e+002
    endloop
  endfacet
  facet normal -9.749279e-001  2.225209e-001  0.000000e+000
    outer loop
      vertex  5.405813e+000 -2.603302e+000  3.500000e+002
      vertex  6.000000e+000  0.000000e+000  2.490685e+002
      vertex  5.405813e+000 -2.603302e+000  2.490685e+002
    endloop
  endfacet
  facet normal -7.818314e-001  6.234897e-001  0.000000e+000
    outer loop
      vertex  5.405813e+000 -2.603302e+000  3.500000e+002
      vertex  5.405813e+000 -2.603302e+000  2.490685e+002
      vertex  3.740939e+000 -4.690989e+000  3.500000e+002
    endloop
  endfacet
  facet normal -7.818314e-001  6.234897e-001  0.000000e+000
    outer loop
      vertex  3.740939e+000 -4.690989e+000  3.500000e+002
      vertex  5.405813e+000 -2.603302e+000  2.490685e+002
      vertex  3.740939e+000 -4.690989e+000  2.490685e+002
    endloop
  endfacet
  facet normal -4.338837e-001  9.009690e-001  0.000000e+000
    outer loop
      vertex  3.740939e+000 -4.690989e+000  3.500000e+002
      vertex  3.740939e+000 -4.690989e+000  2.490685e+002
      vertex  1.335126e+000 -5.849567e+000  3.500000e+002
    endloop
  endfacet
  facet normal -4.338837e-001  9.009690e-001  0.000000e+000
    outer loop
      vertex  1.335126e+000 -5.849567e+000  3.500000e+002
      vertex  3.740939e+000 -4.690989e+000  2.490685e+002
      vertex  1.335126e+000 -5.849567e+000  2.490685e+002
    endloop
  endfacet
  facet normal  0.000000e+000  1.000000e+000  -0.000000e+000
    outer loop
      vertex  1.335126e+000 -5.849567e+000  3.500000e+002
      vertex  1.335126e+000 -5.849567e+000  2.490685e+002
      vertex -1.335126e+000 -5.849567e+000  3.500000e+002
    endloop
  endfacet
  facet normal  0.000000e+000  1.000000e+000  0.000000e+000
    outer loop
      vertex -1.335126e+000 -5.849567e+000  3.500000e+002
      vertex  1.335126e+000 -5.849567e+000  2.490685e+002
      vertex -1.335126e+000 -5.849567e+000  2.490685e+002
    endloop
  endfacet
  facet normal  4.338837e-001  9.009690e-001  -0.000000e+000
    outer loop
      vertex -1.335126e+000 -5.849567e+000  3.500000e+002
      vertex -1.335126e+000 -5.849567e+000  2.490685e+002
      vertex -3.740939e+000 -4.690989e+000  3.500000e+002
    endloop
  endfacet
  facet normal  4.338837e-001  9.009690e-001  0.000000e+000
    outer loop
      vertex -3.740939e+000 -4.690989e+000  3.500000e+002
      vertex -1.335126e+000 -5.849567e+000  2.490685e+002
      vertex -3.740939e+000 -4.690989e+000  2.490685e+002
    endloop
  endfacet
  facet normal  7.818314e-001  6.234897e-001  -0.000000e+000
    outer loop
      vertex -3.740939e+000 -4.690989e+000  3.500000e+002
      vertex -3.740939e+000 -4.690989e+000  2.490685e+002
      vertex -5.405813e+000 -2.603302e+000  3.500000e+002
    endloop
  endfacet
  facet normal  7.818314e-001  6.234897e-001  0.000000e+000
    outer loop
      vertex -5.405813e+000 -2.603302e+000  3.500000e+002
      vertex -3.740939e+000 -4.690989e+000  2.490685e+002
      vertex -5.405813e+000 -2.603302e+000  2.490685e+002
    endloop
  endfacet
  facet normal  9.749279e-001  2.225209e-001  -0.000000e+000
    outer loop
      vertex -5.405813e+000 -2.603302e+000  3.500000e+002
      vertex -5.405813e+000 -2.603302e+000  2.490685e+002
      vertex -6.000000e+000  7.347638e-016  3.500000e+002
    endloop
  endfacet
  facet normal  9.749279e-001  2.225209e-001  0.000000e+000
    outer loop
      vertex -6.000000e+000  7.347638e-016  3.500000e+002
      vertex -5.405813e+000 -2.603302e+000  2.490685e+002
      vertex -6.000000e+000  7.347638e-016  2.490685e+002
    endloop
  endfacet
  facet normal  9.749279e-001 -2.225209e-001  0.000000e+000
    outer loop
      vertex -6.000000e+000  7.347638e-016  3.500000e+002
      vertex -6.000000e+000  7.347638e-016  2.490685e+002
      vertex -5.405813e+000  2.603302e+000  3.500000e+002
    endloop
  endfacet
  facet normal  9.749279e-001 -2.225209e-001  0.000000e+000
    outer loop
      vertex -5.405813e+000  2.603302e+000  3.500000e+002
      vertex -6.000000e+000  7.347638e-016  2.490685e+002
      vertex -5.405813e+000  2.603302e+000  2.490685e+002
    endloop
  endfacet
  facet normal  7.818314e-001 -6.234897e-001  0.000000e+000
    outer loop
      vertex -5.405813e+000  2.603302e+000  3.500000e+002
      vertex -5.405813e+000  2.603302e+000  2.490685e+002
      vertex -3.740939e+000  4.690989e+000  3.500000e+002
    endloop
  endfacet
  facet normal  7.818314e-001 -6.234897e-001  0.000000e+000
    outer loop
      vertex -3.740939e+000  4.690989e+000  3.500000e+002
      vertex -5.405813e+000  2.603302e+000  2.490685e+002
      vertex -3.740939e+000  4.690989e+000  2.490685e+002
    endloop
  endfacet
  facet normal  4.338837e-001 -9.009690e-001  0.000000e+000
    outer loop
      vertex -3.740939e+000  4.690989e+000  3.500000e+002
      vertex -3.740939e+000  4.690989e+000  2.490685e+002
      vertex -1.335126e+000  5.849567e+000  3.500000e+002
    endloop
  endfacet
  facet normal  4.338837e-001 -9.009690e-001  0.000000e+000
    outer loop
      vertex -1.335126e+000  5.849567e+000  3.500000e+002
      vertex -3.740939e+000  4.690989e+000  2.490685e+002
      vertex -1.335126e+000  5.849567e+000  2.490685e+002
    endloop
  endfacet
  facet normal  0.000000e+000 -1.000000e+000  0.000000e+000
    outer loop
      vertex -1.335126e+000  5.849567e+000  3.500000e+002
      vertex -1.335126e+000  5.849567e+000  2.490685e+002
      vertex  1.335126e+000  5.849567e+000  3.500000e+002
    endloop
  endfacet
  facet normal  0.000000e+000 -1.000000e+000  -0.000000e+000
    outer loop
      vertex  1.335126e+000  5.849567e+000  3.500000e+002
      vertex -1.335126e+000  5.849567e+000  2.490685e+002
      vertex  1.335126e+000  5.849567e+000  2.490685e+002
    endloop
  endfacet
  facet normal -4.338837e-001 -9.009690e-001  0.000000e+000
    outer loop
      vertex  1.335126e+000  5.849567e+000  3.500000e+002
      vertex  1.335126e+000  5.849567e+000  2.490685e+002
      vertex  3.740939e+000  4.690989e+000  3.500000e+002
    endloop
  endfacet
  facet normal -4.338837e-001 -9.009690e-001  -0.000000e+000
    outer loop
      vertex  3.740939e+000  4.690989e+000  3.500000e+002
      vertex  1.335126e+000  5.849567e+000  2.490685e+002
      vertex  3.740939e+000  4.690989e+000  2.490685e+002
    endloop
  endfacet
  facet normal -7.818314e-001 -6.234897e-001  0.000000e+000
    outer loop
      vertex  3.740939e+000  4.690989e+000  3.500000e+002
      vertex  3.740939e+000  4.690989e+000  2.490685e+002
      vertex  5.405813e+000  2.603302e+000  3.500000e+002
    endloop
  endfacet
  facet normal -7.818314e-001 -6.234897e-001  -0.000000e+000
    outer loop
      vertex  5.405813e+000  2.603302e+000  3.500000e+002
      vertex  3.740939e+000  4.690989e+000  2.490685e+002
      vertex  5.405813e+000  2.603302e+000  2.490685e+002
    endloop
  endfacet
  facet normal -9.749279e-001 -2.225209e-001  0.000000e+000
    outer loop
      vertex  5.405813e+000  2.603302e+000  3.500000e+002
      vertex  5.405813e+000  2.603302e+000  2.490685e+002
      vertex  6.000000e+000  0.000000e+000  3.500000e+002
    endloop
  endfacet
  facet normal -9.749279e-001 -2.225209e-001  -0.000000e+000
    outer loop
      vertex  6.000000e+000  0.000000e+000  3.500000e+002
      vertex  5.405813e+000  2.603302e+000  2.490685e+002
      vertex  6.000000e+000  0.000000e+000  2.490685e+002
    endloop
  endfacet
  facet normal  0.000000e+000  0.000000e+000 -9.999999e-001
    outer loop
      vertex -8.100000e+000 -9.919312e-016  2.340685e+002
      vertex -7.071068e+000  7.071068e+000  2.340685e+002
      vertex -7.483424e+000  3.099736e+000  2.340685e+002
    endloop
  endfacet
  facet normal  -0.000000e+000  0.000000e+000 -1.000000e+000
    outer loop
      vertex -5.727565e+000 -5.727565e+000  2.340685e+002
      vertex -3.099736e+000 -7.483424e+000  2.340685e+002
      vertex -3.826834e+000 -9.238795e+000  2.340685e+002
    endloop
  endfacet
  facet normal  0.000000e+000  0.000000e+000 -1.000000e+000
    outer loop
      vertex  1.000000e+001  0.000000e+000  2.340685e+002
      vertex  9.238795e+000 -3.826834e+000  2.340685e+002
      vertex  9.238795e+000  3.826834e+000  2.340685e+002
    endloop
  endfacet
  facet normal  0.000000e+000  -0.000000e+000 -1.000000e+000
    outer loop
      vertex  9.238795e+000  3.826834e+000  2.340685e+002
      vertex  9.238795e+000 -3.826834e+000  2.340685e+002
      vertex  8.100000e+000  0.000000e+000  2.340685e+002
    endloop
  endfacet
  facet normal  0.000000e+000  0.000000e+000 -1.000000e+000
    outer loop
      vertex  9.238795e+000  3.826834e+000  2.340685e+002
      vertex  8.100000e+000  0.000000e+000  2.340685e+002
      vertex  7.071068e+000  7.071068e+000  2.340685e+002
    endloop
  endfacet
  facet normal  0.000000e+000  0.000000e+000 -9.999999e-001
    outer loop
      vertex  7.071068e+000  7.071068e+000  2.340685e+002
      vertex  8.100000e+000  0.000000e+000  2.340685e+002
      vertex  7.483424e+000  3.099736e+000  2.340685e+002
    endloop
  endfacet
  facet normal  0.000000e+000  0.000000e+000 -1.000000e+000
    outer loop
      vertex  7.071068e+000  7.071068e+000  2.340685e+002
      vertex  7.483424e+000  3.099736e+000  2.340685e+002
      vertex  5.727565e+000  5.727565e+000  2.340685e+002
    endloop
  endfacet
  facet normal  0.000000e+000  0.000000e+000 -1.000000e+000
    outer loop
      vertex -9.238795e+000  3.826834e+000  2.340685e+002
      vertex -7.071068e+000  7.071068e+000  2.340685e+002
      vertex -1.000000e+001  1.224606e-015  2.340685e+002
    endloop
  endfacet
  facet normal  0.000000e+000  0.000000e+000 -1.000000e+000
    outer loop
      vertex -1.000000e+001  1.224606e-015  2.340685e+002
      vertex -7.071068e+000  7.071068e+000  2.340685e+002
      vertex -8.100000e+000 -9.919312e-016  2.340685e+002
    endloop
  endfacet
  facet normal  -0.000000e+000  0.000000e+000 -1.000000e+000
    outer loop
      vertex -1.000000e+001  1.224606e-015  2.340685e+002
      vertex -8.100000e+000 -9.919312e-016  2.340685e+002
      vertex -9.238795e+000 -3.826834e+000  2.340685e+002
    endloop
  endfacet
  facet normal  0.000000e+000  0.000000e+000 -1.000000e+000
    outer loop
      vertex -9.238795e+000 -3.826834e+000  2.340685e+002
      vertex -8.100000e+000 -9.919312e-016  2.340685e+002
      vertex -7.071068e+000 -7.071068e+000  2.340685e+002
    endloop
  endfacet
  facet normal  0.000000e+000  -0.000000e+000 -1.000000e+000
    outer loop
      vertex -7.483424e+000  3.099736e+000  2.340685e+002
      vertex -7.071068e+000  7.071068e+000  2.340685e+002
      vertex -5.727565e+000  5.727565e+000  2.340685e+002
    endloop
  endfacet
  facet normal  0.000000e+000  0.000000e+000 -1.000000e+000
    outer loop
      vertex -5.727565e+000  5.727565e+000  2.340685e+002
      vertex -7.071068e+000  7.071068e+000  2.340685e+002
      vertex -3.826834e+000  9.238795e+000  2.340685e+002
    endloop
  endfacet
  facet normal  0.000000e+000  -0.000000e+000 -1.000000e+000
    outer loop
      vertex -5.727565e+000  5.727565e+000  2.340685e+002
      vertex -3.826834e+000  9.238795e+000  2.340685e+002
      vertex -3.099736e+000  7.483424e+000  2.340685e+002
    endloop
  endfacet
  facet normal  0.000000e+000  0.000000e+000 -1.000000e+000
    outer loop
      vertex -3.099736e+000  7.483424e+000  2.340685e+002
      vertex -3.826834e+000  9.238795e+000  2.340685e+002
      vertex -6.365411e-015  8.100000e+000  2.340685e+002
    endloop
  endfacet
  facet normal  0.000000e+000  0.000000e+000 -1.000000e+000
    outer loop
      vertex -6.365411e-015  8.100000e+000  2.340685e+002
      vertex -3.826834e+000  9.238795e+000  2.340685e+002
      vertex  5.517505e-016  1.000000e+001  2.340685e+002
    endloop
  endfacet
  facet normal  0.000000e+000  -0.000000e+000 -1.000000e+000
    outer loop
      vertex -6.365411e-015  8.100000e+000  2.340685e+002
      vertex  5.517505e-016  1.000000e+001  2.340685e+002
      vertex  3.099736e+000  7.483424e+000  2.340685e+002
    endloop
  endfacet
  facet normal  0.000000e+000  0.000000e+000 -1.000000e+000
    outer loop
      vertex  3.099736e+000  7.483424e+000  2.340685e+002
      vertex  5.517505e-016  1.000000e+001  2.340685e+002
      vertex  3.826834e+000  9.238795e+000  2.340685e+002
    endloop
  endfacet
  facet normal  0.000000e+000  -0.000000e+000 -1.000000e+000
    outer loop
      vertex  3.099736e+000  7.483424e+000  2.340685e+002
      vertex  3.826834e+000  9.238795e+000  2.340685e+002
      vertex  5.727565e+000  5.727565e+000  2.340685e+002
    endloop
  endfacet
  facet normal  0.000000e+000  0.000000e+000 -1.000000e+000
    outer loop
      vertex  5.727565e+000  5.727565e+000  2.340685e+002
      vertex  3.826834e+000  9.238795e+000  2.340685e+002
      vertex  7.071068e+000  7.071068e+000  2.340685e+002
    endloop
  endfacet
  facet normal  0.000000e+000  0.000000e+000 -1.000000e+000
    outer loop
      vertex -5.727565e+000 -5.727565e+000  2.340685e+002
      vertex -3.826834e+000 -9.238795e+000  2.340685e+002
      vertex -7.483424e+000 -3.099736e+000  2.340685e+002
    endloop
  endfacet
  facet normal  0.000000e+000  0.000000e+000 -9.999999e-001
    outer loop
      vertex -7.483424e+000 -3.099736e+000  2.340685e+002
      vertex -3.826834e+000 -9.238795e+000  2.340685e+002
      vertex -7.071068e+000 -7.071068e+000  2.340685e+002
    endloop
  endfacet
  facet normal  0.000000e+000  0.000000e+000 -9.999999e-001
    outer loop
      vertex -7.483424e+000 -3.099736e+000  2.340685e+002
      vertex -7.071068e+000 -7.071068e+000  2.340685e+002
      vertex -8.100000e+000 -9.919312e-016  2.340685e+002
    endloop
  endfacet
  facet normal  0.000000e+000  -0.000000e+000 -1.000000e+000
    outer loop
      vertex -3.826834e+000 -9.238795e+000  2.340685e+002
      vertex -3.099736e+000 -7.483424e+000  2.340685e+002
      vertex  2.449213e-015 -1.000000e+001  2.340685e+002
    endloop
  endfacet
  facet normal  0.000000e+000  0.000000e+000 -1.000000e+000
    outer loop
      vertex  2.449213e-015 -1.000000e+001  2.340685e+002
      vertex -3.099736e+000 -7.483424e+000  2.340685e+002
      vertex  2.872041e-015 -8.100000e+000  2.340685e+002
    endloop
  endfacet
  facet normal  0.000000e+000  -0.000000e+000 -1.000000e+000
    outer loop
      vertex  2.449213e-015 -1.000000e+001  2.340685e+002
      vertex  2.872041e-015 -8.100000e+000  2.340685e+002
      vertex  3.826834e+000 -9.238795e+000  2.340685e+002
    endloop
  endfacet
  facet normal  0.000000e+000  0.000000e+000 -1.000000e+000
    outer loop
      vertex  3.826834e+000 -9.238795e+000  2.340685e+002
      vertex  2.872041e-015 -8.100000e+000  2.340685e+002
      vertex  3.099736e+000 -7.483424e+000  2.340685e+002
    endloop
  endfacet
  facet normal  0.000000e+000  0.000000e+000 -1.000000e+000
    outer loop
      vertex  3.826834e+000 -9.238795e+000  2.340685e+002
      vertex  3.099736e+000 -7.483424e+000  2.340685e+002
      vertex  7.071068e+000 -7.071068e+000  2.340685e+002
    endloop
  endfacet
  facet normal  -0.000000e+000  0.000000e+000 -1.000000e+000
    outer loop
      vertex  7.071068e+000 -7.071068e+000  2.340685e+002
      vertex  3.099736e+000 -7.483424e+000  2.340685e+002
      vertex  5.727565e+000 -5.727565e+000  2.340685e+002
    endloop
  endfacet
  facet normal  0.000000e+000  0.000000e+000 -1.000000e+000
    outer loop
      vertex  7.071068e+000 -7.071068e+000  2.340685e+002
      vertex  5.727565e+000 -5.727565e+000  2.340685e+002
      vertex  7.483424e+000 -3.099736e+000  2.340685e+002
    endloop
  endfacet
  facet normal  0.000000e+000  0.000000e+000 -1.000000e+000
    outer loop
      vertex  8.100000e+000  0.000000e+000  2.340685e+002
      vertex  9.238795e+000 -3.826834e+000  2.340685e+002
      vertex  7.483424e+000 -3.099736e+000  2.340685e+002
    endloop
  endfacet
  facet normal  0.000000e+000  -0.000000e+000 -1.000000e+000
    outer loop
      vertex  7.483424e+000 -3.099736e+000  2.340685e+002
      vertex  9.238795e+000 -3.826834e+000  2.340685e+002
      vertex  7.071068e+000 -7.071068e+000  2.340685e+002
    endloop
  endfacet
  facet normal  9.807853e-001  1.950905e-001  0.000000e+000
    outer loop
      vertex -8.100000e+000 -9.919312e-016  2.340685e+002
      vertex -8.100000e+000 -9.919312e-016  2.490685e+002
      vertex -7.483424e+000 -3.099736e+000  2.340685e+002
    endloop
  endfacet
  facet normal  9.807853e-001  1.950905e-001  -0.000000e+000
    outer loop
      vertex -7.483424e+000 -3.099736e+000  2.340685e+002
      vertex -8.100000e+000 -9.919312e-016  2.490685e+002
      vertex -7.483424e+000 -3.099736e+000  2.490685e+002
    endloop
  endfacet
  facet normal  8.314696e-001  5.555703e-001  0.000000e+000
    outer loop
      vertex -7.483424e+000 -3.099736e+000  2.340685e+002
      vertex -7.483424e+000 -3.099736e+000  2.490685e+002
      vertex -5.727565e+000 -5.727565e+000  2.340685e+002
    endloop
  endfacet
  facet normal  8.314696e-001  5.555703e-001  -0.000000e+000
    outer loop
      vertex -5.727565e+000 -5.727565e+000  2.340685e+002
      vertex -7.483424e+000 -3.099736e+000  2.490685e+002
      vertex -5.727565e+000 -5.727565e+000  2.490685e+002
    endloop
  endfacet
  facet normal  5.555703e-001  8.314696e-001  0.000000e+000
    outer loop
      vertex -5.727565e+000 -5.727565e+000  2.340685e+002
      vertex -5.727565e+000 -5.727565e+000  2.490685e+002
      vertex -3.099736e+000 -7.483424e+000  2.340685e+002
    endloop
  endfacet
  facet normal  5.555703e-001  8.314696e-001  -0.000000e+000
    outer loop
      vertex -3.099736e+000 -7.483424e+000  2.340685e+002
      vertex -5.727565e+000 -5.727565e+000  2.490685e+002
      vertex -3.099736e+000 -7.483424e+000  2.490685e+002
    endloop
  endfacet
  facet normal  1.950905e-001  9.807853e-001  0.000000e+000
    outer loop
      vertex -3.099736e+000 -7.483424e+000  2.340685e+002
      vertex -3.099736e+000 -7.483424e+000  2.490685e+002
      vertex  2.872041e-015 -8.100000e+000  2.340685e+002
    endloop
  endfacet
  facet normal  1.950905e-001  9.807853e-001  3.090331e-017
    outer loop
      vertex  2.872041e-015 -8.100000e+000  2.340685e+002
      vertex -3.099736e+000 -7.483424e+000  2.490685e+002
      vertex  4.959656e-016 -8.100000e+000  2.490685e+002
    endloop
  endfacet
  facet normal -1.950905e-001  9.807853e-001 -3.090331e-017
    outer loop
      vertex  2.872041e-015 -8.100000e+000  2.340685e+002
      vertex  4.959656e-016 -8.100000e+000  2.490685e+002
      vertex  3.099736e+000 -7.483424e+000  2.340685e+002
    endloop
  endfacet
  facet normal -1.950905e-001  9.807853e-001  0.000000e+000
    outer loop
      vertex  3.099736e+000 -7.483424e+000  2.340685e+002
      vertex  4.959656e-016 -8.100000e+000  2.490685e+002
      vertex  3.099736e+000 -7.483424e+000  2.490685e+002
    endloop
  endfacet
  facet normal -5.555703e-001  8.314696e-001  0.000000e+000
    outer loop
      vertex  3.099736e+000 -7.483424e+000  2.340685e+002
      vertex  3.099736e+000 -7.483424e+000  2.490685e+002
      vertex  5.727565e+000 -5.727565e+000  2.340685e+002
    endloop
  endfacet
  facet normal -5.555703e-001  8.314696e-001  0.000000e+000
    outer loop
      vertex  5.727565e+000 -5.727565e+000  2.340685e+002
      vertex  3.099736e+000 -7.483424e+000  2.490685e+002
      vertex  5.727565e+000 -5.727565e+000  2.490685e+002
    endloop
  endfacet
  facet normal -8.314696e-001  5.555703e-001  0.000000e+000
    outer loop
      vertex  5.727565e+000 -5.727565e+000  2.340685e+002
      vertex  5.727565e+000 -5.727565e+000  2.490685e+002
      vertex  7.483424e+000 -3.099736e+000  2.340685e+002
    endloop
  endfacet
  facet normal -8.314696e-001  5.555703e-001  0.000000e+000
    outer loop
      vertex  7.483424e+000 -3.099736e+000  2.340685e+002
      vertex  5.727565e+000 -5.727565e+000  2.490685e+002
      vertex  7.483424e+000 -3.099736e+000  2.490685e+002
    endloop
  endfacet
  facet normal -9.807853e-001  1.950905e-001  0.000000e+000
    outer loop
      vertex  7.483424e+000 -3.099736e+000  2.340685e+002
      vertex  7.483424e+000 -3.099736e+000  2.490685e+002
      vertex  8.100000e+000  0.000000e+000  2.340685e+002
    endloop
  endfacet
  facet normal -9.807853e-001  1.950905e-001  0.000000e+000
    outer loop
      vertex  8.100000e+000  0.000000e+000  2.340685e+002
      vertex  7.483424e+000 -3.099736e+000  2.490685e+002
      vertex  8.100000e+000  0.000000e+000  2.490685e+002
    endloop
  endfacet
  facet normal -9.807853e-001 -1.950905e-001  -0.000000e+000
    outer loop
      vertex  8.100000e+000  0.000000e+000  2.340685e+002
      vertex  8.100000e+000  0.000000e+000  2.490685e+002
      vertex  7.483424e+000  3.099736e+000  2.340685e+002
    endloop
  endfacet
  facet normal -9.807853e-001 -1.950905e-001  0.000000e+000
    outer loop
      vertex  7.483424e+000  3.099736e+000  2.340685e+002
      vertex  8.100000e+000  0.000000e+000  2.490685e+002
      vertex  7.483424e+000  3.099736e+000  2.490685e+002
    endloop
  endfacet
  facet normal -8.314696e-001 -5.555703e-001  -0.000000e+000
    outer loop
      vertex  7.483424e+000  3.099736e+000  2.340685e+002
      vertex  7.483424e+000  3.099736e+000  2.490685e+002
      vertex  5.727565e+000  5.727565e+000  2.340685e+002
    endloop
  endfacet
  facet normal -8.314696e-001 -5.555703e-001  0.000000e+000
    outer loop
      vertex  5.727565e+000  5.727565e+000  2.340685e+002
      vertex  7.483424e+000  3.099736e+000  2.490685e+002
      vertex  5.727565e+000  5.727565e+000  2.490685e+002
    endloop
  endfacet
  facet normal -5.555703e-001 -8.314696e-001  -0.000000e+000
    outer loop
      vertex  5.727565e+000  5.727565e+000  2.340685e+002
      vertex  5.727565e+000  5.727565e+000  2.490685e+002
      vertex  3.099736e+000  7.483424e+000  2.340685e+002
    endloop
  endfacet
  facet normal -5.555703e-001 -8.314696e-001  0.000000e+000
    outer loop
      vertex  3.099736e+000  7.483424e+000  2.340685e+002
      vertex  5.727565e+000  5.727565e+000  2.490685e+002
      vertex  3.099736e+000  7.483424e+000  2.490685e+002
    endloop
  endfacet
  facet normal -1.950905e-001 -9.807853e-001  -0.000000e+000
    outer loop
      vertex  3.099736e+000  7.483424e+000  2.340685e+002
      vertex  3.099736e+000  7.483424e+000  2.490685e+002
      vertex -6.365411e-015  8.100000e+000  2.340685e+002
    endloop
  endfacet
  facet normal -1.950905e-001 -9.807853e-001  6.343710e-017
    outer loop
      vertex -6.365411e-015  8.100000e+000  2.340685e+002
      vertex  3.099736e+000  7.483424e+000  2.490685e+002
      vertex -1.487897e-015  8.100000e+000  2.490685e+002
    endloop
  endfacet
  facet normal  1.950905e-001 -9.807853e-001 -6.343710e-017
    outer loop
      vertex -6.365411e-015  8.100000e+000  2.340685e+002
      vertex -1.487897e-015  8.100000e+000  2.490685e+002
      vertex -3.099736e+000  7.483424e+000  2.340685e+002
    endloop
  endfacet
  facet normal  1.950905e-001 -9.807853e-001  0.000000e+000
    outer loop
      vertex -3.099736e+000  7.483424e+000  2.340685e+002
      vertex -1.487897e-015  8.100000e+000  2.490685e+002
      vertex -3.099736e+000  7.483424e+000  2.490685e+002
    endloop
  endfacet
  facet normal  5.555703e-001 -8.314696e-001  0.000000e+000
    outer loop
      vertex -3.099736e+000  7.483424e+000  2.340685e+002
      vertex -3.099736e+000  7.483424e+000  2.490685e+002
      vertex -5.727565e+000  5.727565e+000  2.340685e+002
    endloop
  endfacet
  facet normal  5.555703e-001 -8.314696e-001  0.000000e+000
    outer loop
      vertex -5.727565e+000  5.727565e+000  2.340685e+002
      vertex -3.099736e+000  7.483424e+000  2.490685e+002
      vertex -5.727565e+000  5.727565e+000  2.490685e+002
    endloop
  endfacet
  facet normal  8.314696e-001 -5.555703e-001  0.000000e+000
    outer loop
      vertex -5.727565e+000  5.727565e+000  2.340685e+002
      vertex -5.727565e+000  5.727565e+000  2.490685e+002
      vertex -7.483424e+000  3.099736e+000  2.340685e+002
    endloop
  endfacet
  facet normal  8.314696e-001 -5.555703e-001  0.000000e+000
    outer loop
      vertex -7.483424e+000  3.099736e+000  2.340685e+002
      vertex -5.727565e+000  5.727565e+000  2.490685e+002
      vertex -7.483424e+000  3.099736e+000  2.490685e+002
    endloop
  endfacet
  facet normal  9.807853e-001 -1.950905e-001  0.000000e+000
    outer loop
      vertex -7.483424e+000  3.099736e+000  2.340685e+002
      vertex -7.483424e+000  3.099736e+000  2.490685e+002
      vertex -8.100000e+000 -9.919312e-016  2.340685e+002
    endloop
  endfacet
  facet normal  9.807853e-001 -1.950905e-001  0.000000e+000
    outer loop
      vertex -8.100000e+000 -9.919312e-016  2.340685e+002
      vertex -7.483424e+000  3.099736e+000  2.490685e+002
      vertex -8.100000e+000 -9.919312e-016  2.490685e+002
    endloop
  endfacet
  facet normal  0.000000e+000  -0.000000e+000 -1.000000e+000
    outer loop
      vertex -5.727565e+000  5.727565e+000  2.490685e+002
      vertex -3.099736e+000  7.483424e+000  2.490685e+002
      vertex -1.335126e+000  5.849567e+000  2.490685e+002
    endloop
  endfacet
  facet normal  0.000000e+000  0.000000e+000 -1.000000e+000
    outer loop
      vertex -1.335126e+000  5.849567e+000  2.490685e+002
      vertex -3.099736e+000  7.483424e+000  2.490685e+002
      vertex -1.487897e-015  8.100000e+000  2.490685e+002
    endloop
  endfacet
  facet normal  0.000000e+000  -0.000000e+000 -1.000000e+000
    outer loop
      vertex -1.335126e+000  5.849567e+000  2.490685e+002
      vertex -1.487897e-015  8.100000e+000  2.490685e+002
      vertex  1.335126e+000  5.849567e+000  2.490685e+002
    endloop
  endfacet
  facet normal  0.000000e+000  0.000000e+000 -1.000000e+000
    outer loop
      vertex  1.335126e+000  5.849567e+000  2.490685e+002
      vertex -1.487897e-015  8.100000e+000  2.490685e+002
      vertex  3.099736e+000  7.483424e+000  2.490685e+002
    endloop
  endfacet
  facet normal  0.000000e+000  -0.000000e+000 -1.000000e+000
    outer loop
      vertex  1.335126e+000  5.849567e+000  2.490685e+002
      vertex  3.099736e+000  7.483424e+000  2.490685e+002
      vertex  5.727565e+000  5.727565e+000  2.490685e+002
    endloop
  endfacet
  facet normal  0.000000e+000  0.000000e+000 -9.999999e-001
    outer loop
      vertex  4.959656e-016 -8.100000e+000  2.490685e+002
      vertex -1.335126e+000 -5.849567e+000  2.490685e+002
      vertex  3.099736e+000 -7.483424e+000  2.490685e+002
    endloop
  endfacet
  facet normal  0.000000e+000  0.000000e+000 -1.000000e+000
    outer loop
      vertex  3.099736e+000 -7.483424e+000  2.490685e+002
      vertex -1.335126e+000 -5.849567e+000  2.490685e+002
      vertex  1.335126e+000 -5.849567e+000  2.490685e+002
    endloop
  endfacet
  facet normal  0.000000e+000  0.000000e+000 -1.000000e+000
    outer loop
      vertex  3.099736e+000 -7.483424e+000  2.490685e+002
      vertex  1.335126e+000 -5.849567e+000  2.490685e+002
      vertex  5.727565e+000 -5.727565e+000  2.490685e+002
    endloop
  endfacet
  facet normal  0.000000e+000  0.000000e+000 -1.000000e+000
    outer loop
      vertex  4.959656e-016 -8.100000e+000  2.490685e+002
      vertex -3.099736e+000 -7.483424e+000  2.490685e+002
      vertex -1.335126e+000 -5.849567e+000  2.490685e+002
    endloop
  endfacet
  facet normal  -0.000000e+000  0.000000e+000 -1.000000e+000
    outer loop
      vertex -1.335126e+000 -5.849567e+000  2.490685e+002
      vertex -3.099736e+000 -7.483424e+000  2.490685e+002
      vertex -5.727565e+000 -5.727565e+000  2.490685e+002
    endloop
  endfacet
  facet normal  0.000000e+000  0.000000e+000 -1.000000e+000
    outer loop
      vertex -1.335126e+000 -5.849567e+000  2.490685e+002
      vertex -5.727565e+000 -5.727565e+000  2.490685e+002
      vertex -3.740939e+000 -4.690989e+000  2.490685e+002
    endloop
  endfacet
  facet normal  -0.000000e+000  0.000000e+000 -1.000000e+000
    outer loop
      vertex -3.740939e+000 -4.690989e+000  2.490685e+002
      vertex -5.727565e+000 -5.727565e+000  2.490685e+002
      vertex -7.483424e+000 -3.099736e+000  2.490685e+002
    endloop
  endfacet
  facet normal  0.000000e+000  0.000000e+000 -1.000000e+000
    outer loop
      vertex -3.740939e+000 -4.690989e+000  2.490685e+002
      vertex -7.483424e+000 -3.099736e+000  2.490685e+002
      vertex -5.405813e+000 -2.603302e+000  2.490685e+002
    endloop
  endfacet
  facet normal  0.000000e+000  0.000000e+000 -1.000000e+000
    outer loop
      vertex -5.405813e+000 -2.603302e+000  2.490685e+002
      vertex -7.483424e+000 -3.099736e+000  2.490685e+002
      vertex -6.000000e+000  7.347638e-016  2.490685e+002
    endloop
  endfacet
  facet normal  0.000000e+000  0.000000e+000 -9.999999e-001
    outer loop
      vertex -6.000000e+000  7.347638e-016  2.490685e+002
      vertex -7.483424e+000 -3.099736e+000  2.490685e+002
      vertex -8.100000e+000 -9.919312e-016  2.490685e+002
    endloop
  endfacet
  facet normal  0.000000e+000  0.000000e+000 -1.000000e+000
    outer loop
      vertex -6.000000e+000  7.347638e-016  2.490685e+002
      vertex -8.100000e+000 -9.919312e-016  2.490685e+002
      vertex -5.405813e+000  2.603302e+000  2.490685e+002
    endloop
  endfacet
  facet normal  -0.000000e+000  0.000000e+000 -1.000000e+000
    outer loop
      vertex -5.405813e+000  2.603302e+000  2.490685e+002
      vertex -8.100000e+000 -9.919312e-016  2.490685e+002
      vertex -7.483424e+000  3.099736e+000  2.490685e+002
    endloop
  endfacet
  facet normal  0.000000e+000  0.000000e+000 -1.000000e+000
    outer loop
      vertex -5.405813e+000  2.603302e+000  2.490685e+002
      vertex -7.483424e+000  3.099736e+000  2.490685e+002
      vertex -3.740939e+000  4.690989e+000  2.490685e+002
    endloop
  endfacet
  facet normal  -0.000000e+000  0.000000e+000 -1.000000e+000
    outer loop
      vertex -3.740939e+000  4.690989e+000  2.490685e+002
      vertex -7.483424e+000  3.099736e+000  2.490685e+002
      vertex -5.727565e+000  5.727565e+000  2.490685e+002
    endloop
  endfacet
  facet normal  0.000000e+000  0.000000e+000 -1.000000e+000
    outer loop
      vertex -3.740939e+000  4.690989e+000  2.490685e+002
      vertex -5.727565e+000  5.727565e+000  2.490685e+002
      vertex -1.335126e+000  5.849567e+000  2.490685e+002
    endloop
  endfacet
  facet normal  0.000000e+000  0.000000e+000 -1.000000e+000
    outer loop
      vertex  5.727565e+000 -5.727565e+000  2.490685e+002
      vertex  1.335126e+000 -5.849567e+000  2.490685e+002
      vertex  7.483424e+000 -3.099736e+000  2.490685e+002
    endloop
  endfacet
  facet normal  0.000000e+000  0.000000e+000 -1.000000e+000
    outer loop
      vertex  7.483424e+000 -3.099736e+000  2.490685e+002
      vertex  1.335126e+000 -5.849567e+000  2.490685e+002
      vertex  3.740939e+000 -4.690989e+000  2.490685e+002
    endloop
  endfacet
  facet normal  0.000000e+000  0.000000e+000 -1.000000e+000
    outer loop
      vertex  7.483424e+000 -3.099736e+000  2.490685e+002
      vertex  3.740939e+000 -4.690989e+000  2.490685e+002
      vertex  5.405813e+000 -2.603302e+000  2.490685e+002
    endloop
  endfacet
  facet normal  0.000000e+000  0.000000e+000 -1.000000e+000
    outer loop
      vertex  7.483424e+000 -3.099736e+000  2.490685e+002
      vertex  5.405813e+000 -2.603302e+000  2.490685e+002
      vertex  8.100000e+000  0.000000e+000  2.490685e+002
    endloop
  endfacet
  facet normal  -0.000000e+000  0.000000e+000 -1.000000e+000
    outer loop
      vertex  8.100000e+000  0.000000e+000  2.490685e+002
      vertex  5.405813e+000 -2.603302e+000  2.490685e+002
      vertex  6.000000e+000  0.000000e+000  2.490685e+002
    endloop
  endfacet
  facet normal  0.000000e+000  0.000000e+000 -9.999999e-001
    outer loop
      vertex  8.100000e+000  0.000000e+000  2.490685e+002
      vertex  6.000000e+000  0.000000e+000  2.490685e+002
      vertex  7.483424e+000  3.099736e+000  2.490685e+002
    endloop
  endfacet
  facet normal  0.000000e+000  0.000000e+000 -1.000000e+000
    outer loop
      vertex  7.483424e+000  3.099736e+000  2.490685e+002
      vertex  6.000000e+000  0.000000e+000  2.490685e+002
      vertex  5.405813e+000  2.603302e+000  2.490685e+002
    endloop
  endfacet
  facet normal  0.000000e+000  0.000000e+000 -1.000000e+000
    outer loop
      vertex  7.483424e+000  3.099736e+000  2.490685e+002
      vertex  5.405813e+000  2.603302e+000  2.490685e+002
      vertex  5.727565e+000  5.727565e+000  2.490685e+002
    endloop
  endfacet
  facet normal  0.000000e+000  0.000000e+000 -9.999999e-001
    outer loop
      vertex  5.727565e+000  5.727565e+000  2.490685e+002
      vertex  5.405813e+000  2.603302e+000  2.490685e+002
      vertex  3.740939e+000  4.690989e+000  2.490685e+002
    endloop
  endfacet
  facet normal  0.000000e+000  0.000000e+000 -1.000000e+000
    outer loop
      vertex  5.727565e+000  5.727565e+000  2.490685e+002
      vertex  3.740939e+000  4.690989e+000  2.490685e+002
      vertex  1.335126e+000  5.849567e+000  2.490685e+002
    endloop
  endfacet
  facet normal  9.807853e-001 -1.950903e-001 -4.231042e-018
    outer loop
      vertex  1.000000e+001  0.000000e+000  2.340685e+002
      vertex  1.000000e+001 -2.449213e-015  3.470000e+002
      vertex  9.238795e+000 -3.826834e+000  2.340685e+002
    endloop
  endfacet
  facet normal  9.807853e-001 -1.950903e-001  0.000000e+000
    outer loop
      vertex  9.238795e+000 -3.826834e+000  2.340685e+002
      vertex  1.000000e+001 -2.449213e-015  3.470000e+002
      vertex  9.238795e+000 -3.826834e+000  3.470000e+002
    endloop
  endfacet
  facet normal  8.314696e-001 -5.555702e-001  0.000000e+000
    outer loop
      vertex  9.238795e+000 -3.826834e+000  2.340685e+002
      vertex  9.238795e+000 -3.826834e+000  3.470000e+002
      vertex  7.071068e+000 -7.071068e+000  2.340685e+002
    endloop
  endfacet
  facet normal  8.314696e-001 -5.555702e-001  0.000000e+000
    outer loop
      vertex  7.071068e+000 -7.071068e+000  2.340685e+002
      vertex  9.238795e+000 -3.826834e+000  3.470000e+002
      vertex  7.071068e+000 -7.071068e+000  3.470000e+002
    endloop
  endfacet
  facet normal  5.555702e-001 -8.314696e-001  0.000000e+000
    outer loop
      vertex  7.071068e+000 -7.071068e+000  2.340685e+002
      vertex  7.071068e+000 -7.071068e+000  3.470000e+002
      vertex  3.826834e+000 -9.238795e+000  2.340685e+002
    endloop
  endfacet
  facet normal  5.555702e-001 -8.314696e-001  0.000000e+000
    outer loop
      vertex  3.826834e+000 -9.238795e+000  2.340685e+002
      vertex  7.071068e+000 -7.071068e+000  3.470000e+002
      vertex  3.826834e+000 -9.238795e+000  3.470000e+002
    endloop
  endfacet
  facet normal  1.950903e-001 -9.807853e-001  0.000000e+000
    outer loop
      vertex  3.826834e+000 -9.238795e+000  2.340685e+002
      vertex  3.826834e+000 -9.238795e+000  3.470000e+002
      vertex  2.449213e-015 -1.000000e+001  2.340685e+002
    endloop
  endfacet
  facet normal  1.950903e-001 -9.807853e-001  7.404324e-018
    outer loop
      vertex  2.449213e-015 -1.000000e+001  2.340685e+002
      vertex  3.826834e+000 -9.238795e+000  3.470000e+002
      vertex -1.836910e-015 -1.000000e+001  3.470000e+002
    endloop
  endfacet
  facet normal -1.950903e-001 -9.807853e-001 -7.404324e-018
    outer loop
      vertex  2.449213e-015 -1.000000e+001  2.340685e+002
      vertex -1.836910e-015 -1.000000e+001  3.470000e+002
      vertex -3.826834e+000 -9.238795e+000  2.340685e+002
    endloop
  endfacet
  facet normal -1.950903e-001 -9.807853e-001  0.000000e+000
    outer loop
      vertex -3.826834e+000 -9.238795e+000  2.340685e+002
      vertex -1.836910e-015 -1.000000e+001  3.470000e+002
      vertex -3.826834e+000 -9.238795e+000  3.470000e+002
    endloop
  endfacet
  facet normal -5.555702e-001 -8.314696e-001  -0.000000e+000
    outer loop
      vertex -3.826834e+000 -9.238795e+000  2.340685e+002
      vertex -3.826834e+000 -9.238795e+000  3.470000e+002
      vertex -7.071068e+000 -7.071068e+000  2.340685e+002
    endloop
  endfacet
  facet normal -5.555702e-001 -8.314696e-001  0.000000e+000
    outer loop
      vertex -7.071068e+000 -7.071068e+000  2.340685e+002
      vertex -3.826834e+000 -9.238795e+000  3.470000e+002
      vertex -7.071068e+000 -7.071068e+000  3.470000e+002
    endloop
  endfacet
  facet normal -8.314696e-001 -5.555702e-001  -0.000000e+000
    outer loop
      vertex -7.071068e+000 -7.071068e+000  2.340685e+002
      vertex -7.071068e+000 -7.071068e+000  3.470000e+002
      vertex -9.238795e+000 -3.826834e+000  2.340685e+002
    endloop
  endfacet
  facet normal -8.314696e-001 -5.555702e-001  0.000000e+000
    outer loop
      vertex -9.238795e+000 -3.826834e+000  2.340685e+002
      vertex -7.071068e+000 -7.071068e+000  3.470000e+002
      vertex -9.238795e+000 -3.826834e+000  3.470000e+002
    endloop
  endfacet
  facet normal -9.807853e-001 -1.950903e-001  -0.000000e+000
    outer loop
      vertex -9.238795e+000 -3.826834e+000  2.340685e+002
      vertex -9.238795e+000 -3.826834e+000  3.470000e+002
      vertex -1.000000e+001  1.224606e-015  2.340685e+002
    endloop
  endfacet
  facet normal -9.807853e-001 -1.950903e-001  0.000000e+000
    outer loop
      vertex -1.000000e+001  1.224606e-015  2.340685e+002
      vertex -9.238795e+000 -3.826834e+000  3.470000e+002
      vertex -1.000000e+001  1.224606e-015  3.470000e+002
    endloop
  endfacet
  facet normal -9.807853e-001  1.950903e-001  0.000000e+000
    outer loop
      vertex -1.000000e+001  1.224606e-015  2.340685e+002
      vertex -1.000000e+001  1.224606e-015  3.470000e+002
      vertex -9.238795e+000  3.826834e+000  2.340685e+002
    endloop
  endfacet
  facet normal -9.807853e-001  1.950903e-001  0.000000e+000
    outer loop
      vertex -9.238795e+000  3.826834e+000  2.340685e+002
      vertex -1.000000e+001  1.224606e-015  3.470000e+002
      vertex -9.238795e+000  3.826834e+000  3.470000e+002
    endloop
  endfacet
  facet normal -8.314696e-001  5.555702e-001  0.000000e+000
    outer loop
      vertex -9.238795e+000  3.826834e+000  2.340685e+002
      vertex -9.238795e+000  3.826834e+000  3.470000e+002
      vertex -7.071068e+000  7.071068e+000  2.340685e+002
    endloop
  endfacet
  facet normal -8.314696e-001  5.555702e-001  0.000000e+000
    outer loop
      vertex -7.071068e+000  7.071068e+000  2.340685e+002
      vertex -9.238795e+000  3.826834e+000  3.470000e+002
      vertex -7.071068e+000  7.071068e+000  3.470000e+002
    endloop
  endfacet
  facet normal -5.555702e-001  8.314696e-001  0.000000e+000
    outer loop
      vertex -7.071068e+000  7.071068e+000  2.340685e+002
      vertex -7.071068e+000  7.071068e+000  3.470000e+002
      vertex -3.826834e+000  9.238795e+000  2.340685e+002
    endloop
  endfacet
  facet normal -5.555702e-001  8.314696e-001  0.000000e+000
    outer loop
      vertex -3.826834e+000  9.238795e+000  2.340685e+002
      vertex -7.071068e+000  7.071068e+000  3.470000e+002
      vertex -3.826834e+000  9.238795e+000  3.470000e+002
    endloop
  endfacet
  facet normal -1.950903e-001  9.807853e-001  0.000000e+000
    outer loop
      vertex -3.826834e+000  9.238795e+000  2.340685e+002
      vertex -3.826834e+000  9.238795e+000  3.470000e+002
      vertex  5.517505e-016  1.000000e+001  2.340685e+002
    endloop
  endfacet
  facet normal -1.950903e-001  9.807853e-001  1.046054e-019
    outer loop
      vertex  5.517505e-016  1.000000e+001  2.340685e+002
      vertex -3.826834e+000  9.238795e+000  3.470000e+002
      vertex  6.123032e-016  1.000000e+001  3.470000e+002
    endloop
  endfacet
  facet normal  1.950903e-001  9.807853e-001 -1.046054e-019
    outer loop
      vertex  5.517505e-016  1.000000e+001  2.340685e+002
      vertex  6.123032e-016  1.000000e+001  3.470000e+002
      vertex  3.826834e+000  9.238795e+000  2.340685e+002
    endloop
  endfacet
  facet normal  1.950903e-001  9.807853e-001  -0.000000e+000
    outer loop
      vertex  3.826834e+000  9.238795e+000  2.340685e+002
      vertex  6.123032e-016  1.000000e+001  3.470000e+002
      vertex  3.826834e+000  9.238795e+000  3.470000e+002
    endloop
  endfacet
  facet normal  5.555702e-001  8.314696e-001  0.000000e+000
    outer loop
      vertex  3.826834e+000  9.238795e+000  2.340685e+002
      vertex  3.826834e+000  9.238795e+000  3.470000e+002
      vertex  7.071068e+000  7.071068e+000  2.340685e+002
    endloop
  endfacet
  facet normal  5.555702e-001  8.314696e-001  -0.000000e+000
    outer loop
      vertex  7.071068e+000  7.071068e+000  2.340685e+002
      vertex  3.826834e+000  9.238795e+000  3.470000e+002
      vertex  7.071068e+000  7.071068e+000  3.470000e+002
    endloop
  endfacet
  facet normal  8.314696e-001  5.555702e-001  0.000000e+000
    outer loop
      vertex  7.071068e+000  7.071068e+000  2.340685e+002
      vertex  7.071068e+000  7.071068e+000  3.470000e+002
      vertex  9.238795e+000  3.826834e+000  2.340685e+002
    endloop
  endfacet
  facet normal  8.314696e-001  5.555702e-001  -0.000000e+000
    outer loop
      vertex  9.238795e+000  3.826834e+000  2.340685e+002
      vertex  7.071068e+000  7.071068e+000  3.470000e+002
      vertex  9.238795e+000  3.826834e+000  3.470000e+002
    endloop
  endfacet
  facet normal  9.807853e-001  1.950903e-001  0.000000e+000
    outer loop
      vertex  9.238795e+000  3.826834e+000  2.340685e+002
      vertex  9.238795e+000  3.826834e+000  3.470000e+002
      vertex  1.000000e+001  0.000000e+000  2.340685e+002
    endloop
  endfacet
  facet normal  9.807853e-001  1.950903e-001  4.231042e-018
    outer loop
      vertex  1.000000e+001  0.000000e+000  2.340685e+002
      vertex  9.238795e+000  3.826834e+000  3.470000e+002
      vertex  1.000000e+001 -2.449213e-015  3.470000e+002
    endloop
  endfacet
  facet normal  -0.000000e+000  0.000000e+000  1.000000e+000
    outer loop
      vertex -3.740939e+000 -4.690989e+000  3.500000e+002
      vertex -4.364429e+000 -5.472821e+000  3.500000e+002
      vertex -1.335126e+000 -5.849567e+000  3.500000e+002
    endloop
  endfacet
  facet normal  0.000000e+000  0.000000e+000  1.000000e+000
    outer loop
      vertex -1.335126e+000 -5.849567e+000  3.500000e+002
      vertex -4.364429e+000 -5.472821e+000  3.500000e+002
      vertex -1.557646e+000 -6.824495e+000  3.500000e+002
    endloop
  endfacet
  facet normal  0.000000e+000  0.000000e+000  1.000000e+000
    outer loop
      vertex -1.335126e+000 -5.849567e+000  3.500000e+002
      vertex -1.557646e+000 -6.824495e+000  3.500000e+002
      vertex  1.335126e+000 -5.849567e+000  3.500000e+002
    endloop
  endfacet
  facet normal  0.000000e+000  0.000000e+000  1.000000e+000
    outer loop
      vertex  1.335126e+000 -5.849567e+000  3.500000e+002
      vertex -1.557646e+000 -6.824495e+000  3.500000e+002
      vertex  1.557647e+000 -6.824495e+000  3.500000e+002
    endloop
  endfacet
  facet normal  0.000000e+000  -0.000000e+000  1.000000e+000
    outer loop
      vertex  1.335126e+000 -5.849567e+000  3.500000e+002
      vertex  1.557647e+000 -6.824495e+000  3.500000e+002
      vertex  4.364429e+000 -5.472820e+000  3.500000e+002
    endloop
  endfacet
  facet normal  0.000000e+000  0.000000e+000  1.000000e+000
    outer loop
      vertex  3.740939e+000  4.690989e+000  3.500000e+002
      vertex  4.364429e+000  5.472820e+000  3.500000e+002
      vertex  1.335126e+000  5.849567e+000  3.500000e+002
    endloop
  endfacet
  facet normal  -0.000000e+000  0.000000e+000  1.000000e+000
    outer loop
      vertex  1.335126e+000  5.849567e+000  3.500000e+002
      vertex  4.364429e+000  5.472820e+000  3.500000e+002
      vertex  1.557647e+000  6.824495e+000  3.500000e+002
    endloop
  endfacet
  facet normal  0.000000e+000  0.000000e+000  1.000000e+000
    outer loop
      vertex  1.335126e+000  5.849567e+000  3.500000e+002
      vertex  1.557647e+000  6.824495e+000  3.500000e+002
      vertex -1.335126e+000  5.849567e+000  3.500000e+002
    endloop
  endfacet
  facet normal  0.000000e+000  -0.000000e+000  1.000000e+000
    outer loop
      vertex -1.335126e+000  5.849567e+000  3.500000e+002
      vertex  1.557647e+000  6.824495e+000  3.500000e+002
      vertex -1.557646e+000  6.824495e+000  3.500000e+002
    endloop
  endfacet
  facet normal  0.000000e+000  0.000000e+000  1.000000e+000
    outer loop
      vertex -1.335126e+000  5.849567e+000  3.500000e+002
      vertex -1.557646e+000  6.824495e+000  3.500000e+002
      vertex -4.364429e+000  5.472821e+000  3.500000e+002
    endloop
  endfacet
  facet normal  0.000000e+000  0.000000e+000  1.000000e+000
    outer loop
      vertex -4.364429e+000 -5.472821e+000  3.500000e+002
      vertex -3.740939e+000 -4.690989e+000  3.500000e+002
      vertex -6.306782e+000 -3.037187e+000  3.500000e+002
    endloop
  endfacet
  facet normal  -0.000000e+000  0.000000e+000  1.000000e+000
    outer loop
      vertex -6.306782e+000 -3.037187e+000  3.500000e+002
      vertex -3.740939e+000 -4.690989e+000  3.500000e+002
      vertex -5.405813e+000 -2.603302e+000  3.500000e+002
    endloop
  endfacet
  facet normal  0.000000e+000  0.000000e+000  1.000000e+000
    outer loop
      vertex -6.306782e+000 -3.037187e+000  3.500000e+002
      vertex -5.405813e+000 -2.603302e+000  3.500000e+002
      vertex -7.000000e+000  5.196782e-007  3.500000e+002
    endloop
  endfacet
  facet normal  0.000000e+000  0.000000e+000  1.000000e+000
    outer loop
      vertex -7.000000e+000  5.196782e-007  3.500000e+002
      vertex -5.405813e+000 -2.603302e+000  3.500000e+002
      vertex -6.000000e+000  7.347638e-016  3.500000e+002
    endloop
  endfacet
  facet normal  0.000000e+000  0.000000e+000  1.000000e+000
    outer loop
      vertex -7.000000e+000  5.196782e-007  3.500000e+002
      vertex -6.000000e+000  7.347638e-016  3.500000e+002
      vertex -6.306782e+000  3.037187e+000  3.500000e+002
    endloop
  endfacet
  facet normal  0.000000e+000  0.000000e+000  9.999999e-001
    outer loop
      vertex -6.306782e+000  3.037187e+000  3.500000e+002
      vertex -6.000000e+000  7.347638e-016  3.500000e+002
      vertex -5.405813e+000  2.603302e+000  3.500000e+002
    endloop
  endfacet
  facet normal  0.000000e+000  -0.000000e+000  1.000000e+000
    outer loop
      vertex -6.306782e+000  3.037187e+000  3.500000e+002
      vertex -5.405813e+000  2.603302e+000  3.500000e+002
      vertex -4.364429e+000  5.472821e+000  3.500000e+002
    endloop
  endfacet
  facet normal  0.000000e+000  0.000000e+000  1.000000e+000
    outer loop
      vertex -4.364429e+000  5.472821e+000  3.500000e+002
      vertex -5.405813e+000  2.603302e+000  3.500000e+002
      vertex -3.740939e+000  4.690989e+000  3.500000e+002
    endloop
  endfacet
  facet normal  0.000000e+000  -0.000000e+000  1.000000e+000
    outer loop
      vertex -4.364429e+000  5.472821e+000  3.500000e+002
      vertex -3.740939e+000  4.690989e+000  3.500000e+002
      vertex -1.335126e+000  5.849567e+000  3.500000e+002
    endloop
  endfacet
  facet normal  -0.000000e+000  0.000000e+000  1.000000e+000
    outer loop
      vertex  4.364429e+000  5.472820e+000  3.500000e+002
      vertex  3.740939e+000  4.690989e+000  3.500000e+002
      vertex  6.306782e+000  3.037186e+000  3.500000e+002
    endloop
  endfacet
  facet normal  0.000000e+000  0.000000e+000  1.000000e+000
    outer loop
      vertex  6.306782e+000  3.037186e+000  3.500000e+002
      vertex  3.740939e+000  4.690989e+000  3.500000e+002
      vertex  5.405813e+000  2.603302e+000  3.500000e+002
    endloop
  endfacet
  facet normal  -0.000000e+000  0.000000e+000  9.999999e-001
    outer loop
      vertex  6.306782e+000  3.037186e+000  3.500000e+002
      vertex  5.405813e+000  2.603302e+000  3.500000e+002
      vertex  7.000000e+000 -1.936494e-015  3.500000e+002
    endloop
  endfacet
  facet normal  0.000000e+000  0.000000e+000  1.000000e+000
    outer loop
      vertex  7.000000e+000 -1.936494e-015  3.500000e+002
      vertex  5.405813e+000  2.603302e+000  3.500000e+002
      vertex  6.000000e+000  0.000000e+000  3.500000e+002
    endloop
  endfacet
  facet normal  0.000000e+000  0.000000e+000  1.000000e+000
    outer loop
      vertex  7.000000e+000 -1.936494e-015  3.500000e+002
      vertex  6.000000e+000  0.000000e+000  3.500000e+002
      vertex  6.306782e+000 -3.037186e+000  3.500000e+002
    endloop
  endfacet
  facet normal  0.000000e+000  0.000000e+000  1.000000e+000
    outer loop
      vertex  6.306782e+000 -3.037186e+000  3.500000e+002
      vertex  6.000000e+000  0.000000e+000  3.500000e+002
      vertex  5.405813e+000 -2.603302e+000  3.500000e+002
    endloop
  endfacet
  facet normal  0.000000e+000  0.000000e+000  1.000000e+000
    outer loop
      vertex  6.306782e+000 -3.037186e+000  3.500000e+002
      vertex  5.405813e+000 -2.603302e+000  3.500000e+002
      vertex  4.364429e+000 -5.472820e+000  3.500000e+002
    endloop
  endfacet
  facet normal  0.000000e+000  -0.000000e+000  1.000000e+000
    outer loop
      vertex  4.364429e+000 -5.472820e+000  3.500000e+002
      vertex  5.405813e+000 -2.603302e+000  3.500000e+002
      vertex  3.740939e+000 -4.690989e+000  3.500000e+002
    endloop
  endfacet
  facet normal  0.000000e+000  0.000000e+000  1.000000e+000
    outer loop
      vertex  4.364429e+000 -5.472820e+000  3.500000e+002
      vertex  3.740939e+000 -4.690989e+000  3.500000e+002
      vertex  1.335126e+000 -5.849567e+000  3.500000e+002
    endloop
  endfacet
  facet normal -2.439094e-001  5.567075e-002  9.681988e-001
    outer loop
      vertex -7.000000e+000  5.196782e-007  3.500000e+002
      vertex -6.306782e+000  3.037187e+000  3.500000e+002
      vertex -7.852976e+000  3.252809e+000  3.495981e+002
    endloop
  endfacet
  facet normal  2.439094e-001  5.567072e-002  9.681989e-001
    outer loop
      vertex  7.000000e+000 -1.936494e-015  3.500000e+002
      vertex  7.852976e+000  3.252809e+000  3.495981e+002
      vertex  6.306782e+000  3.037186e+000  3.500000e+002
    endloop
  endfacet
  facet normal  1.880372e-001  1.499547e-001  9.706470e-001
    outer loop
      vertex  6.010407e+000  6.010407e+000  3.495981e+002
      vertex  4.364429e+000  5.472820e+000  3.500000e+002
      vertex  6.306782e+000  3.037186e+000  3.500000e+002
    endloop
  endfacet
  facet normal  1.019775e-001  2.117583e-001  9.719871e-001
    outer loop
      vertex  3.252809e+000  7.852976e+000  3.495981e+002
      vertex  1.557647e+000  6.824495e+000  3.500000e+002
      vertex  4.364429e+000  5.472820e+000  3.500000e+002
    endloop
  endfacet
  facet normal  -0.000000e+000  2.332607e-001  9.724142e-001
    outer loop
      vertex  0.000000e+000  8.500000e+000  3.495981e+002
      vertex -1.557646e+000  6.824495e+000  3.500000e+002
      vertex  1.557647e+000  6.824495e+000  3.500000e+002
    endloop
  endfacet
  facet normal -1.019774e-001  2.117583e-001  9.719871e-001
    outer loop
      vertex -3.252809e+000  7.852976e+000  3.495981e+002
      vertex -4.364429e+000  5.472821e+000  3.500000e+002
      vertex -1.557646e+000  6.824495e+000  3.500000e+002
    endloop
  endfacet
  facet normal -1.880373e-001  1.499547e-001  9.706470e-001
    outer loop
      vertex -6.010407e+000  6.010407e+000  3.495981e+002
      vertex -6.306782e+000  3.037187e+000  3.500000e+002
      vertex -4.364429e+000  5.472821e+000  3.500000e+002
    endloop
  endfacet
  facet normal -9.485758e-001  1.886835e-001  2.541702e-001
    outer loop
      vertex -9.238795e+000  3.826834e+000  3.470000e+002
      vertex -1.000000e+001  1.224606e-015  3.470000e+002
      vertex -8.867466e+000  3.673025e+000  3.485000e+002
    endloop
  endfacet
  facet normal -9.485758e-001  1.886834e-001  2.541703e-001
    outer loop
      vertex -8.867466e+000  3.673025e+000  3.485000e+002
      vertex -1.000000e+001  1.224606e-015  3.470000e+002
      vertex -9.598076e+000  1.776357e-015  3.485000e+002
    endloop
  endfacet
  facet normal -7.002168e-001  1.392817e-001  7.002121e-001
    outer loop
      vertex -8.867466e+000  3.673025e+000  3.485000e+002
      vertex -9.598076e+000  1.776357e-015  3.485000e+002
      vertex -7.852976e+000  3.252809e+000  3.495981e+002
    endloop
  endfacet
  facet normal -7.002169e-001  1.392818e-001  7.002120e-001
    outer loop
      vertex -7.852976e+000  3.252809e+000  3.495981e+002
      vertex -9.598076e+000  1.776357e-015  3.485000e+002
      vertex -8.500000e+000  1.332268e-015  3.495981e+002
    endloop
  endfacet
  facet normal -2.584724e-001  5.141336e-002  9.646495e-001
    outer loop
      vertex -7.852976e+000  3.252809e+000  3.495981e+002
      vertex -8.500000e+000  1.332268e-015  3.495981e+002
      vertex -7.000000e+000  5.196782e-007  3.500000e+002
    endloop
  endfacet
  facet normal  9.485758e-001  1.886835e-001  2.541704e-001
    outer loop
      vertex  1.000000e+001 -2.449213e-015  3.470000e+002
      vertex  9.238795e+000  3.826834e+000  3.470000e+002
      vertex  9.598076e+000 -3.996803e-015  3.485000e+002
    endloop
  endfacet
  facet normal  9.485758e-001  1.886834e-001  2.541702e-001
    outer loop
      vertex  9.598076e+000 -3.996803e-015  3.485000e+002
      vertex  9.238795e+000  3.826834e+000  3.470000e+002
      vertex  8.867466e+000  3.673025e+000  3.485000e+002
    endloop
  endfacet
  facet normal  7.002169e-001  1.392818e-001  7.002121e-001
    outer loop
      vertex  9.598076e+000 -3.996803e-015  3.485000e+002
      vertex  8.867466e+000  3.673025e+000  3.485000e+002
      vertex  8.500000e+000 -3.552714e-015  3.495981e+002
    endloop
  endfacet
  facet normal  7.002168e-001  1.392818e-001  7.002121e-001
    outer loop
      vertex  8.500000e+000 -3.552714e-015  3.495981e+002
      vertex  8.867466e+000  3.673025e+000  3.485000e+002
      vertex  7.852976e+000  3.252809e+000  3.495981e+002
    endloop
  endfacet
  facet normal  2.584724e-001  5.141336e-002  9.646495e-001
    outer loop
      vertex  8.500000e+000 -3.552714e-015  3.495981e+002
      vertex  7.852976e+000  3.252809e+000  3.495981e+002
      vertex  7.000000e+000 -1.936494e-015  3.500000e+002
    endloop
  endfacet
  facet normal  8.041638e-001  5.373250e-001  2.541703e-001
    outer loop
      vertex  9.238795e+000  3.826834e+000  3.470000e+002
      vertex  7.071068e+000  7.071068e+000  3.470000e+002
      vertex  8.867466e+000  3.673025e+000  3.485000e+002
    endloop
  endfacet
  facet normal  8.041638e-001  5.373250e-001  2.541701e-001
    outer loop
      vertex  8.867466e+000  3.673025e+000  3.485000e+002
      vertex  7.071068e+000  7.071068e+000  3.470000e+002
      vertex  6.786865e+000  6.786865e+000  3.485000e+002
    endloop
  endfacet
  facet normal  5.936152e-001  3.966410e-001  7.002121e-001
    outer loop
      vertex  8.867466e+000  3.673025e+000  3.485000e+002
      vertex  6.786865e+000  6.786865e+000  3.485000e+002
      vertex  7.852976e+000  3.252809e+000  3.495981e+002
    endloop
  endfacet
  facet normal  5.936151e-001  3.966410e-001  7.002122e-001
    outer loop
      vertex  7.852976e+000  3.252809e+000  3.495981e+002
      vertex  6.786865e+000  6.786865e+000  3.485000e+002
      vertex  6.010407e+000  6.010407e+000  3.495981e+002
    endloop
  endfacet
  facet normal  2.286177e-001  1.527575e-001  9.614567e-001
    outer loop
      vertex  7.852976e+000  3.252809e+000  3.495981e+002
      vertex  6.010407e+000  6.010407e+000  3.495981e+002
      vertex  6.306782e+000  3.037186e+000  3.500000e+002
    endloop
  endfacet
  facet normal  5.373250e-001  8.041638e-001  2.541701e-001
    outer loop
      vertex  7.071068e+000  7.071068e+000  3.470000e+002
      vertex  3.826834e+000  9.238795e+000  3.470000e+002
      vertex  6.786865e+000  6.786865e+000  3.485000e+002
    endloop
  endfacet
  facet normal  5.373250e-001  8.041638e-001  2.541703e-001
    outer loop
      vertex  6.786865e+000  6.786865e+000  3.485000e+002
      vertex  3.826834e+000  9.238795e+000  3.470000e+002
      vertex  3.673025e+000  8.867466e+000  3.485000e+002
    endloop
  endfacet
  facet normal  3.966409e-001  5.936151e-001  7.002122e-001
    outer loop
      vertex  6.786865e+000  6.786865e+000  3.485000e+002
      vertex  3.673025e+000  8.867466e+000  3.485000e+002
      vertex  6.010407e+000  6.010407e+000  3.495981e+002
    endloop
  endfacet
  facet normal  3.966410e-001  5.936151e-001  7.002121e-001
    outer loop
      vertex  6.010407e+000  6.010407e+000  3.495981e+002
      vertex  3.673025e+000  8.867466e+000  3.485000e+002
      vertex  3.252809e+000  7.852976e+000  3.495981e+002
    endloop
  endfacet
  facet normal  1.573005e-001  2.354168e-001  9.590806e-001
    outer loop
      vertex  6.010407e+000  6.010407e+000  3.495981e+002
      vertex  3.252809e+000  7.852976e+000  3.495981e+002
      vertex  4.364429e+000  5.472820e+000  3.500000e+002
    endloop
  endfacet
  facet normal  1.886835e-001  9.485758e-001  2.541702e-001
    outer loop
      vertex  3.826834e+000  9.238795e+000  3.470000e+002
      vertex  6.123032e-016  1.000000e+001  3.470000e+002
      vertex  3.673025e+000  8.867466e+000  3.485000e+002
    endloop
  endfacet
  facet normal  1.886834e-001  9.485758e-001  2.541703e-001
    outer loop
      vertex  3.673025e+000  8.867466e+000  3.485000e+002
      vertex  6.123032e-016  1.000000e+001  3.470000e+002
      vertex  8.881784e-016  9.598076e+000  3.485000e+002
    endloop
  endfacet
  facet normal  1.392817e-001  7.002168e-001  7.002121e-001
    outer loop
      vertex  3.673025e+000  8.867466e+000  3.485000e+002
      vertex  8.881784e-016  9.598076e+000  3.485000e+002
      vertex  3.252809e+000  7.852976e+000  3.495981e+002
    endloop
  endfacet
  facet normal  1.392818e-001  7.002169e-001  7.002120e-001
    outer loop
      vertex  3.252809e+000  7.852976e+000  3.495981e+002
      vertex  8.881784e-016  9.598076e+000  3.485000e+002
      vertex  0.000000e+000  8.500000e+000  3.495981e+002
    endloop
  endfacet
  facet normal  5.607006e-002  2.818832e-001  9.578089e-001
    outer loop
      vertex  3.252809e+000  7.852976e+000  3.495981e+002
      vertex  0.000000e+000  8.500000e+000  3.495981e+002
      vertex  1.557647e+000  6.824495e+000  3.500000e+002
    endloop
  endfacet
  facet normal -1.886835e-001  9.485758e-001  2.541704e-001
    outer loop
      vertex  6.123032e-016  1.000000e+001  3.470000e+002
      vertex -3.826834e+000  9.238795e+000  3.470000e+002
      vertex  8.881784e-016  9.598076e+000  3.485000e+002
    endloop
  endfacet
  facet normal -1.886834e-001  9.485758e-001  2.541702e-001
    outer loop
      vertex  8.881784e-016  9.598076e+000  3.485000e+002
      vertex -3.826834e+000  9.238795e+000  3.470000e+002
      vertex -3.673025e+000  8.867466e+000  3.485000e+002
    endloop
  endfacet
  facet normal -1.392818e-001  7.002169e-001  7.002121e-001
    outer loop
      vertex  8.881784e-016  9.598076e+000  3.485000e+002
      vertex -3.673025e+000  8.867466e+000  3.485000e+002
      vertex  0.000000e+000  8.500000e+000  3.495981e+002
    endloop
  endfacet
  facet normal -1.392818e-001  7.002168e-001  7.002121e-001
    outer loop
      vertex  0.000000e+000  8.500000e+000  3.495981e+002
      vertex -3.673025e+000  8.867466e+000  3.485000e+002
      vertex -3.252809e+000  7.852976e+000  3.495981e+002
    endloop
  endfacet
  facet normal -5.607006e-002  2.818832e-001  9.578090e-001
    outer loop
      vertex  0.000000e+000  8.500000e+000  3.495981e+002
      vertex -3.252809e+000  7.852976e+000  3.495981e+002
      vertex -1.557646e+000  6.824495e+000  3.500000e+002
    endloop
  endfacet
  facet normal -5.373250e-001  8.041638e-001  2.541703e-001
    outer loop
      vertex -3.826834e+000  9.238795e+000  3.470000e+002
      vertex -7.071068e+000  7.071068e+000  3.470000e+002
      vertex -3.673025e+000  8.867466e+000  3.485000e+002
    endloop
  endfacet
  facet normal -5.373250e-001  8.041638e-001  2.541701e-001
    outer loop
      vertex -3.673025e+000  8.867466e+000  3.485000e+002
      vertex -7.071068e+000  7.071068e+000  3.470000e+002
      vertex -6.786865e+000  6.786865e+000  3.485000e+002
    endloop
  endfacet
  facet normal -3.966410e-001  5.936152e-001  7.002121e-001
    outer loop
      vertex -3.673025e+000  8.867466e+000  3.485000e+002
      vertex -6.786865e+000  6.786865e+000  3.485000e+002
      vertex -3.252809e+000  7.852976e+000  3.495981e+002
    endloop
  endfacet
  facet normal -3.966410e-001  5.936151e-001  7.002122e-001
    outer loop
      vertex -3.252809e+000  7.852976e+000  3.495981e+002
      vertex -6.786865e+000  6.786865e+000  3.485000e+002
      vertex -6.010407e+000  6.010407e+000  3.495981e+002
    endloop
  endfacet
  facet normal -1.573005e-001  2.354168e-001  9.590806e-001
    outer loop
      vertex -3.252809e+000  7.852976e+000  3.495981e+002
      vertex -6.010407e+000  6.010407e+000  3.495981e+002
      vertex -4.364429e+000  5.472821e+000  3.500000e+002
    endloop
  endfacet
  facet normal -8.041638e-001  5.373250e-001  2.541701e-001
    outer loop
      vertex -7.071068e+000  7.071068e+000  3.470000e+002
      vertex -9.238795e+000  3.826834e+000  3.470000e+002
      vertex -6.786865e+000  6.786865e+000  3.485000e+002
    endloop
  endfacet
  facet normal -8.041638e-001  5.373250e-001  2.541703e-001
    outer loop
      vertex -6.786865e+000  6.786865e+000  3.485000e+002
      vertex -9.238795e+000  3.826834e+000  3.470000e+002
      vertex -8.867466e+000  3.673025e+000  3.485000e+002
    endloop
  endfacet
  facet normal -5.936151e-001  3.966409e-001  7.002122e-001
    outer loop
      vertex -6.786865e+000  6.786865e+000  3.485000e+002
      vertex -8.867466e+000  3.673025e+000  3.485000e+002
      vertex -6.010407e+000  6.010407e+000  3.495981e+002
    endloop
  endfacet
  facet normal -5.936151e-001  3.966410e-001  7.002121e-001
    outer loop
      vertex -6.010407e+000  6.010407e+000  3.495981e+002
      vertex -8.867466e+000  3.673025e+000  3.485000e+002
      vertex -7.852976e+000  3.252809e+000  3.495981e+002
    endloop
  endfacet
  facet normal -2.286177e-001  1.527575e-001  9.614567e-001
    outer loop
      vertex -6.010407e+000  6.010407e+000  3.495981e+002
      vertex -7.852976e+000  3.252809e+000  3.495981e+002
      vertex -6.306782e+000  3.037187e+000  3.500000e+002
    endloop
  endfacet
  facet normal  2.439094e-001 -5.567072e-002  9.681989e-001
    outer loop
      vertex  7.000000e+000 -1.936494e-015  3.500000e+002
      vertex  6.306782e+000 -3.037186e+000  3.500000e+002
      vertex  7.852976e+000 -3.252809e+000  3.495981e+002
    endloop
  endfacet
  facet normal -2.439094e-001 -5.567073e-002  9.681989e-001
    outer loop
      vertex -7.000000e+000  5.196782e-007  3.500000e+002
      vertex -7.852976e+000 -3.252809e+000  3.495981e+002
      vertex -6.306782e+000 -3.037187e+000  3.500000e+002
    endloop
  endfacet
  facet normal -1.880373e-001 -1.499547e-001  9.706470e-001
    outer loop
      vertex -6.010407e+000 -6.010407e+000  3.495981e+002
      vertex -4.364429e+000 -5.472821e+000  3.500000e+002
      vertex -6.306782e+000 -3.037187e+000  3.500000e+002
    endloop
  endfacet
  facet normal -1.019774e-001 -2.117583e-001  9.719871e-001
    outer loop
      vertex -3.252809e+000 -7.852976e+000  3.495981e+002
      vertex -1.557646e+000 -6.824495e+000  3.500000e+002
      vertex -4.364429e+000 -5.472821e+000  3.500000e+002
    endloop
  endfacet
  facet normal  0.000000e+000 -2.332607e-001  9.724142e-001
    outer loop
      vertex -8.881784e-016 -8.500000e+000  3.495981e+002
      vertex  1.557647e+000 -6.824495e+000  3.500000e+002
      vertex -1.557646e+000 -6.824495e+000  3.500000e+002
    endloop
  endfacet
  facet normal  1.019775e-001 -2.117583e-001  9.719871e-001
    outer loop
      vertex  3.252809e+000 -7.852976e+000  3.495981e+002
      vertex  4.364429e+000 -5.472820e+000  3.500000e+002
      vertex  1.557647e+000 -6.824495e+000  3.500000e+002
    endloop
  endfacet
  facet normal  1.880372e-001 -1.499547e-001  9.706470e-001
    outer loop
      vertex  6.010407e+000 -6.010407e+000  3.495981e+002
      vertex  6.306782e+000 -3.037186e+000  3.500000e+002
      vertex  4.364429e+000 -5.472820e+000  3.500000e+002
    endloop
  endfacet
  facet normal  9.485758e-001 -1.886835e-001  2.541702e-001
    outer loop
      vertex  9.238795e+000 -3.826834e+000  3.470000e+002
      vertex  1.000000e+001 -2.449213e-015  3.470000e+002
      vertex  8.867466e+000 -3.673025e+000  3.485000e+002
    endloop
  endfacet
  facet normal  9.485758e-001 -1.886834e-001  2.541703e-001
    outer loop
      vertex  8.867466e+000 -3.673025e+000  3.485000e+002
      vertex  1.000000e+001 -2.449213e-015  3.470000e+002
      vertex  9.598076e+000 -3.996803e-015  3.485000e+002
    endloop
  endfacet
  facet normal  7.002168e-001 -1.392817e-001  7.002121e-001
    outer loop
      vertex  8.867466e+000 -3.673025e+000  3.485000e+002
      vertex  9.598076e+000 -3.996803e-015  3.485000e+002
      vertex  7.852976e+000 -3.252809e+000  3.495981e+002
    endloop
  endfacet
  facet normal  7.002169e-001 -1.392818e-001  7.002120e-001
    outer loop
      vertex  7.852976e+000 -3.252809e+000  3.495981e+002
      vertex  9.598076e+000 -3.996803e-015  3.485000e+002
      vertex  8.500000e+000 -3.552714e-015  3.495981e+002
    endloop
  endfacet
  facet normal  2.584724e-001 -5.141336e-002  9.646495e-001
    outer loop
      vertex  7.852976e+000 -3.252809e+000  3.495981e+002
      vertex  8.500000e+000 -3.552714e-015  3.495981e+002
      vertex  7.000000e+000 -1.936494e-015  3.500000e+002
    endloop
  endfacet
  facet normal -9.485758e-001 -1.886835e-001  2.541704e-001
    outer loop
      vertex -1.000000e+001  1.224606e-015  3.470000e+002
      vertex -9.238795e+000 -3.826834e+000  3.470000e+002
      vertex -9.598076e+000  1.776357e-015  3.485000e+002
    endloop
  endfacet
  facet normal -9.485758e-001 -1.886834e-001  2.541702e-001
    outer loop
      vertex -9.598076e+000  1.776357e-015  3.485000e+002
      vertex -9.238795e+000 -3.826834e+000  3.470000e+002
      vertex -8.867466e+000 -3.673025e+000  3.485000e+002
    endloop
  endfacet
  facet normal -7.002169e-001 -1.392818e-001  7.002121e-001
    outer loop
      vertex -9.598076e+000  1.776357e-015  3.485000e+002
      vertex -8.867466e+000 -3.673025e+000  3.485000e+002
      vertex -8.500000e+000  1.332268e-015  3.495981e+002
    endloop
  endfacet
  facet normal -7.002168e-001 -1.392818e-001  7.002121e-001
    outer loop
      vertex -8.500000e+000  1.332268e-015  3.495981e+002
      vertex -8.867466e+000 -3.673025e+000  3.485000e+002
      vertex -7.852976e+000 -3.252809e+000  3.495981e+002
    endloop
  endfacet
  facet normal -2.584724e-001 -5.141336e-002  9.646495e-001
    outer loop
      vertex -8.500000e+000  1.332268e-015  3.495981e+002
      vertex -7.852976e+000 -3.252809e+000  3.495981e+002
      vertex -7.000000e+000  5.196782e-007  3.500000e+002
    endloop
  endfacet
  facet normal -8.041638e-001 -5.373250e-001  2.541703e-001
    outer loop
      vertex -9.238795e+000 -3.826834e+000  3.470000e+002
      vertex -7.071068e+000 -7.071068e+000  3.470000e+002
      vertex -8.867466e+000 -3.673025e+000  3.485000e+002
    endloop
  endfacet
  facet normal -8.041638e-001 -5.373250e-001  2.541701e-001
    outer loop
      vertex -8.867466e+000 -3.673025e+000  3.485000e+002
      vertex -7.071068e+000 -7.071068e+000  3.470000e+002
      vertex -6.786865e+000 -6.786865e+000  3.485000e+002
    endloop
  endfacet
  facet normal -5.936152e-001 -3.966410e-001  7.002121e-001
    outer loop
      vertex -8.867466e+000 -3.673025e+000  3.485000e+002
      vertex -6.786865e+000 -6.786865e+000  3.485000e+002
      vertex -7.852976e+000 -3.252809e+000  3.495981e+002
    endloop
  endfacet
  facet normal -5.936151e-001 -3.966410e-001  7.002122e-001
    outer loop
      vertex -7.852976e+000 -3.252809e+000  3.495981e+002
      vertex -6.786865e+000 -6.786865e+000  3.485000e+002
      vertex -6.010407e+000 -6.010407e+000  3.495981e+002
    endloop
  endfacet
  facet normal -2.286177e-001 -1.527575e-001  9.614567e-001
    outer loop
      vertex -7.852976e+000 -3.252809e+000  3.495981e+002
      vertex -6.010407e+000 -6.010407e+000  3.495981e+002
      vertex -6.306782e+000 -3.037187e+000  3.500000e+002
    endloop
  endfacet
  facet normal -5.373250e-001 -8.041638e-001  2.541701e-001
    outer loop
      vertex -7.071068e+000 -7.071068e+000  3.470000e+002
      vertex -3.826834e+000 -9.238795e+000  3.470000e+002
      vertex -6.786865e+000 -6.786865e+000  3.485000e+002
    endloop
  endfacet
  facet normal -5.373250e-001 -8.041638e-001  2.541703e-001
    outer loop
      vertex -6.786865e+000 -6.786865e+000  3.485000e+002
      vertex -3.826834e+000 -9.238795e+000  3.470000e+002
      vertex -3.673025e+000 -8.867466e+000  3.485000e+002
    endloop
  endfacet
  facet normal -3.966409e-001 -5.936151e-001  7.002122e-001
    outer loop
      vertex -6.786865e+000 -6.786865e+000  3.485000e+002
      vertex -3.673025e+000 -8.867466e+000  3.485000e+002
      vertex -6.010407e+000 -6.010407e+000  3.495981e+002
    endloop
  endfacet
  facet normal -3.966410e-001 -5.936151e-001  7.002121e-001
    outer loop
      vertex -6.010407e+000 -6.010407e+000  3.495981e+002
      vertex -3.673025e+000 -8.867466e+000  3.485000e+002
      vertex -3.252809e+000 -7.852976e+000  3.495981e+002
    endloop
  endfacet
  facet normal -1.573005e-001 -2.354168e-001  9.590806e-001
    outer loop
      vertex -6.010407e+000 -6.010407e+000  3.495981e+002
      vertex -3.252809e+000 -7.852976e+000  3.495981e+002
      vertex -4.364429e+000 -5.472821e+000  3.500000e+002
    endloop
  endfacet
  facet normal -1.886835e-001 -9.485758e-001  2.541702e-001
    outer loop
      vertex -3.826834e+000 -9.238795e+000  3.470000e+002
      vertex -1.836910e-015 -1.000000e+001  3.470000e+002
      vertex -3.673025e+000 -8.867466e+000  3.485000e+002
    endloop
  endfacet
  facet normal -1.886834e-001 -9.485758e-001  2.541703e-001
    outer loop
      vertex -3.673025e+000 -8.867466e+000  3.485000e+002
      vertex -1.836910e-015 -1.000000e+001  3.470000e+002
      vertex -8.881784e-016 -9.598076e+000  3.485000e+002
    endloop
  endfacet
  facet normal -1.392817e-001 -7.002168e-001  7.002121e-001
    outer loop
      vertex -3.673025e+000 -8.867466e+000  3.485000e+002
      vertex -8.881784e-016 -9.598076e+000  3.485000e+002
      vertex -3.252809e+000 -7.852976e+000  3.495981e+002
    endloop
  endfacet
  facet normal -1.392818e-001 -7.002169e-001  7.002120e-001
    outer loop
      vertex -3.252809e+000 -7.852976e+000  3.495981e+002
      vertex -8.881784e-016 -9.598076e+000  3.485000e+002
      vertex -8.881784e-016 -8.500000e+000  3.495981e+002
    endloop
  endfacet
  facet normal -5.607006e-002 -2.818832e-001  9.578090e-001
    outer loop
      vertex -3.252809e+000 -7.852976e+000  3.495981e+002
      vertex -8.881784e-016 -8.500000e+000  3.495981e+002
      vertex -1.557646e+000 -6.824495e+000  3.500000e+002
    endloop
  endfacet
  facet normal  1.886835e-001 -9.485758e-001  2.541704e-001
    outer loop
      vertex -1.836910e-015 -1.000000e+001  3.470000e+002
      vertex  3.826834e+000 -9.238795e+000  3.470000e+002
      vertex -8.881784e-016 -9.598076e+000  3.485000e+002
    endloop
  endfacet
  facet normal  1.886834e-001 -9.485758e-001  2.541702e-001
    outer loop
      vertex -8.881784e-016 -9.598076e+000  3.485000e+002
      vertex  3.826834e+000 -9.238795e+000  3.470000e+002
      vertex  3.673025e+000 -8.867466e+000  3.485000e+002
    endloop
  endfacet
  facet normal  1.392818e-001 -7.002169e-001  7.002121e-001
    outer loop
      vertex -8.881784e-016 -9.598076e+000  3.485000e+002
      vertex  3.673025e+000 -8.867466e+000  3.485000e+002
      vertex -8.881784e-016 -8.500000e+000  3.495981e+002
    endloop
  endfacet
  facet normal  1.392818e-001 -7.002168e-001  7.002121e-001
    outer loop
      vertex -8.881784e-016 -8.500000e+000  3.495981e+002
      vertex  3.673025e+000 -8.867466e+000  3.485000e+002
      vertex  3.252809e+000 -7.852976e+000  3.495981e+002
    endloop
  endfacet
  facet normal  5.607006e-002 -2.818832e-001  9.578089e-001
    outer loop
      vertex -8.881784e-016 -8.500000e+000  3.495981e+002
      vertex  3.252809e+000 -7.852976e+000  3.495981e+002
      vertex  1.557647e+000 -6.824495e+000  3.500000e+002
    endloop
  endfacet
  facet normal  5.373250e-001 -8.041638e-001  2.541703e-001
    outer loop
      vertex  3.826834e+000 -9.238795e+000  3.470000e+002
      vertex  7.071068e+000 -7.071068e+000  3.470000e+002
      vertex  3.673025e+000 -8.867466e+000  3.485000e+002
    endloop
  endfacet
  facet normal  5.373250e-001 -8.041638e-001  2.541701e-001
    outer loop
      vertex  3.673025e+000 -8.867466e+000  3.485000e+002
      vertex  7.071068e+000 -7.071068e+000  3.470000e+002
      vertex  6.786865e+000 -6.786865e+000  3.485000e+002
    endloop
  endfacet
  facet normal  3.966410e-001 -5.936152e-001  7.002121e-001
    outer loop
      vertex  3.673025e+000 -8.867466e+000  3.485000e+002
      vertex  6.786865e+000 -6.786865e+000  3.485000e+002
      vertex  3.252809e+000 -7.852976e+000  3.495981e+002
    endloop
  endfacet
  facet normal  3.966410e-001 -5.936151e-001  7.002122e-001
    outer loop
      vertex  3.252809e+000 -7.852976e+000  3.495981e+002
      vertex  6.786865e+000 -6.786865e+000  3.485000e+002
      vertex  6.010407e+000 -6.010407e+000  3.495981e+002
    endloop
  endfacet
  facet normal  1.573005e-001 -2.354168e-001  9.590806e-001
    outer loop
      vertex  3.252809e+000 -7.852976e+000  3.495981e+002
      vertex  6.010407e+000 -6.010407e+000  3.495981e+002
      vertex  4.364429e+000 -5.472820e+000  3.500000e+002
    endloop
  endfacet
  facet normal  8.041638e-001 -5.373250e-001  2.541701e-001
    outer loop
      vertex  7.071068e+000 -7.071068e+000  3.470000e+002
      vertex  9.238795e+000 -3.826834e+000  3.470000e+002
      vertex  6.786865e+000 -6.786865e+000  3.485000e+002
    endloop
  endfacet
  facet normal  8.041638e-001 -5.373250e-001  2.541703e-001
    outer loop
      vertex  6.786865e+000 -6.786865e+000  3.485000e+002
      vertex  9.238795e+000 -3.826834e+000  3.470000e+002
      vertex  8.867466e+000 -3.673025e+000  3.485000e+002
    endloop
  endfacet
  facet normal  5.936151e-001 -3.966409e-001  7.002122e-001
    outer loop
      vertex  6.786865e+000 -6.786865e+000  3.485000e+002
      vertex  8.867466e+000 -3.673025e+000  3.485000e+002
      vertex  6.010407e+000 -6.010407e+000  3.495981e+002
    endloop
  endfacet
  facet normal  5.936151e-001 -3.966410e-001  7.002121e-001
    outer loop
      vertex  6.010407e+000 -6.010407e+000  3.495981e+002
      vertex  8.867466e+000 -3.673025e+000  3.485000e+002
      vertex  7.852976e+000 -3.252809e+000  3.495981e+002
    endloop
  endfacet
  facet normal  2.286177e-001 -1.527575e-001  9.614567e-001
    outer loop
      vertex  6.010407e+000 -6.010407e+000  3.495981e+002
      vertex  7.852976e+000 -3.252809e+000  3.495981e+002
      vertex  6.306782e+000 -3.037186e+000  3.500000e+002
    endloop
  endfacet
endsolid CATIA STL
