solid CATIA STL
  facet normal  0.000000e+000  9.510565e-001 -3.090170e-001
    outer loop
      vertex  4.500000e+000 -3.000000e+000  2.368476e-015
      vertex  0.000000e+000 -3.000000e+000  2.368476e-015
      vertex  4.500000e+000 -2.427051e+000  1.763356e+000
    endloop
  endfacet
  facet normal  0.000000e+000  9.510565e-001 -3.090170e-001
    outer loop
      vertex  4.500000e+000 -2.427051e+000  1.763356e+000
      vertex  0.000000e+000 -3.000000e+000  2.368476e-015
      vertex  0.000000e+000 -2.427051e+000  1.763356e+000
    endloop
  endfacet
  facet normal  0.000000e+000  5.877852e-001 -8.090171e-001
    outer loop
      vertex  4.500000e+000 -2.427051e+000  1.763356e+000
      vertex  0.000000e+000 -2.427051e+000  1.763356e+000
      vertex  4.500000e+000 -9.270510e-001  2.853169e+000
    endloop
  endfacet
  facet normal  0.000000e+000  5.877852e-001 -8.090171e-001
    outer loop
      vertex  4.500000e+000 -9.270510e-001  2.853169e+000
      vertex  0.000000e+000 -2.427051e+000  1.763356e+000
      vertex  0.000000e+000 -9.270510e-001  2.853169e+000
    endloop
  endfacet
  facet normal  0.000000e+000  0.000000e+000 -1.000000e+000
    outer loop
      vertex  4.500000e+000 -9.270510e-001  2.853169e+000
      vertex  0.000000e+000 -9.270510e-001  2.853169e+000
      vertex  4.500000e+000  9.270510e-001  2.853169e+000
    endloop
  endfacet
  facet normal  -0.000000e+000  0.000000e+000 -1.000000e+000
    outer loop
      vertex  4.500000e+000  9.270510e-001  2.853169e+000
      vertex  0.000000e+000 -9.270510e-001  2.853169e+000
      vertex  0.000000e+000  9.270510e-001  2.853169e+000
    endloop
  endfacet
  facet normal  0.000000e+000 -5.877852e-001 -8.090171e-001
    outer loop
      vertex  4.500000e+000  9.270510e-001  2.853169e+000
      vertex  0.000000e+000  9.270510e-001  2.853169e+000
      vertex  4.500000e+000  2.427051e+000  1.763356e+000
    endloop
  endfacet
  facet normal  -0.000000e+000 -5.877852e-001 -8.090171e-001
    outer loop
      vertex  4.500000e+000  2.427051e+000  1.763356e+000
      vertex  0.000000e+000  9.270510e-001  2.853169e+000
      vertex  0.000000e+000  2.427051e+000  1.763356e+000
    endloop
  endfacet
  facet normal  0.000000e+000 -9.510565e-001 -3.090170e-001
    outer loop
      vertex  4.500000e+000  2.427051e+000  1.763356e+000
      vertex  0.000000e+000  2.427051e+000  1.763356e+000
      vertex  4.500000e+000  3.000000e+000  3.552714e-016
    endloop
  endfacet
  facet normal  -0.000000e+000 -9.510565e-001 -3.090170e-001
    outer loop
      vertex  4.500000e+000  3.000000e+000  3.552714e-016
      vertex  0.000000e+000  2.427051e+000  1.763356e+000
      vertex  0.000000e+000  3.000000e+000  3.552714e-016
    endloop
  endfacet
  facet normal  0.000000e+000  5.572884e-016 -1.000000e+000
    outer loop
      vertex  4.500000e+000 -2.000000e+001 -7.105427e-015
      vertex  0.000000e+000 -2.000000e+001 -7.105427e-015
      vertex  4.500000e+000 -3.000000e+000  2.368476e-015
    endloop
  endfacet
  facet normal  0.000000e+000  5.572884e-016 -1.000000e+000
    outer loop
      vertex  4.500000e+000 -3.000000e+000  2.368476e-015
      vertex  0.000000e+000 -2.000000e+001 -7.105427e-015
      vertex  0.000000e+000 -3.000000e+000  2.368476e-015
    endloop
  endfacet
  facet normal  0.000000e+000  1.184238e-016 -1.000000e+000
    outer loop
      vertex  4.500000e+000  3.000000e+000  3.552714e-016
      vertex  0.000000e+000  3.000000e+000  3.552714e-016
      vertex  4.500000e+000  2.000000e+001  2.368476e-015
    endloop
  endfacet
  facet normal  0.000000e+000  1.184238e-016 -1.000000e+000
    outer loop
      vertex  4.500000e+000  2.000000e+001  2.368476e-015
      vertex  0.000000e+000  3.000000e+000  3.552714e-016
      vertex  0.000000e+000  2.000000e+001  2.368476e-015
    endloop
  endfacet
  facet normal -1.000000e+000  -0.000000e+000  0.000000e+000
    outer loop
      vertex  0.000000e+000 -9.866667e+000  1.000000e+001
      vertex  0.000000e+000 -9.866667e+000  8.000000e+000
      vertex  0.000000e+000 -2.000000e+001 -7.105427e-015
    endloop
  endfacet
  facet normal -1.000000e+000  -0.000000e+000  0.000000e+000
    outer loop
      vertex  0.000000e+000  2.427051e+000  1.763356e+000
      vertex  0.000000e+000  2.000000e+001  2.368476e-015
      vertex  0.000000e+000  3.000000e+000  3.552714e-016
    endloop
  endfacet
  facet normal -1.000000e+000  0.000000e+000  0.000000e+000
    outer loop
      vertex  0.000000e+000  9.270510e-001  2.853169e+000
      vertex  0.000000e+000 -9.270510e-001  2.853169e+000
      vertex  0.000000e+000 -9.866667e+000  8.000000e+000
    endloop
  endfacet
  facet normal -1.000000e+000  0.000000e+000  0.000000e+000
    outer loop
      vertex  0.000000e+000  9.270510e-001  2.853169e+000
      vertex  0.000000e+000 -9.866667e+000  8.000000e+000
      vertex  0.000000e+000 -8.866667e+000  8.000000e+000
    endloop
  endfacet
  facet normal -1.000000e+000  0.000000e+000  0.000000e+000
    outer loop
      vertex  0.000000e+000  9.270510e-001  2.853169e+000
      vertex  0.000000e+000 -8.866667e+000  8.000000e+000
      vertex  0.000000e+000 -5.000000e-001  8.000000e+000
    endloop
  endfacet
  facet normal -1.000000e+000  0.000000e+000  0.000000e+000
    outer loop
      vertex  0.000000e+000  9.270510e-001  2.853169e+000
      vertex  0.000000e+000 -5.000000e-001  8.000000e+000
      vertex  0.000000e+000  0.000000e+000  8.000000e+000
    endloop
  endfacet
  facet normal -1.000000e+000  0.000000e+000  0.000000e+000
    outer loop
      vertex  0.000000e+000  9.270510e-001  2.853169e+000
      vertex  0.000000e+000  0.000000e+000  8.000000e+000
      vertex  0.000000e+000  5.000000e-001  8.000000e+000
    endloop
  endfacet
  facet normal -1.000000e+000  0.000000e+000  0.000000e+000
    outer loop
      vertex  0.000000e+000  9.270510e-001  2.853169e+000
      vertex  0.000000e+000  5.000000e-001  8.000000e+000
      vertex  0.000000e+000  2.427051e+000  1.763356e+000
    endloop
  endfacet
  facet normal -9.999999e-001  0.000000e+000  0.000000e+000
    outer loop
      vertex  0.000000e+000  2.427051e+000  1.763356e+000
      vertex  0.000000e+000  5.000000e-001  8.000000e+000
      vertex  0.000000e+000  8.866667e+000  8.000000e+000
    endloop
  endfacet
  facet normal -1.000000e+000  0.000000e+000  -0.000000e+000
    outer loop
      vertex  0.000000e+000  2.427051e+000  1.763356e+000
      vertex  0.000000e+000  8.866667e+000  8.000000e+000
      vertex  0.000000e+000  2.000000e+001  2.368476e-015
    endloop
  endfacet
  facet normal -1.000000e+000  0.000000e+000  0.000000e+000
    outer loop
      vertex  0.000000e+000  2.000000e+001  2.368476e-015
      vertex  0.000000e+000  8.866667e+000  8.000000e+000
      vertex  0.000000e+000  9.866667e+000  8.000000e+000
    endloop
  endfacet
  facet normal -1.000000e+000  0.000000e+000  0.000000e+000
    outer loop
      vertex  0.000000e+000  2.000000e+001  2.368476e-015
      vertex  0.000000e+000  9.866667e+000  8.000000e+000
      vertex  0.000000e+000  9.866667e+000  1.000000e+001
    endloop
  endfacet
  facet normal -1.000000e+000  -0.000000e+000  0.000000e+000
    outer loop
      vertex  0.000000e+000 -9.866667e+000  8.000000e+000
      vertex  0.000000e+000 -9.270510e-001  2.853169e+000
      vertex  0.000000e+000 -2.000000e+001 -7.105427e-015
    endloop
  endfacet
  facet normal -1.000000e+000  0.000000e+000  0.000000e+000
    outer loop
      vertex  0.000000e+000 -2.000000e+001 -7.105427e-015
      vertex  0.000000e+000 -9.270510e-001  2.853169e+000
      vertex  0.000000e+000 -2.427051e+000  1.763356e+000
    endloop
  endfacet
  facet normal -1.000000e+000  0.000000e+000  0.000000e+000
    outer loop
      vertex  0.000000e+000 -2.000000e+001 -7.105427e-015
      vertex  0.000000e+000 -2.427051e+000  1.763356e+000
      vertex  0.000000e+000 -3.000000e+000  2.368476e-015
    endloop
  endfacet
  facet normal -1.000000e+000  0.000000e+000  0.000000e+000
    outer loop
      vertex  0.000000e+000 -5.000000e-001  8.000000e+000
      vertex  0.000000e+000 -8.866667e+000  8.000000e+000
      vertex  0.000000e+000 -5.000000e-001  1.000000e+001
    endloop
  endfacet
  facet normal -1.000000e+000  -0.000000e+000  0.000000e+000
    outer loop
      vertex  0.000000e+000 -5.000000e-001  1.000000e+001
      vertex  0.000000e+000 -8.866667e+000  8.000000e+000
      vertex  0.000000e+000 -8.866667e+000  1.000000e+001
    endloop
  endfacet
  facet normal -1.000000e+000  0.000000e+000  0.000000e+000
    outer loop
      vertex  0.000000e+000  8.866667e+000  8.000000e+000
      vertex  0.000000e+000  5.000000e-001  8.000000e+000
      vertex  0.000000e+000  8.866667e+000  1.000000e+001
    endloop
  endfacet
  facet normal -1.000000e+000  -0.000000e+000  0.000000e+000
    outer loop
      vertex  0.000000e+000  8.866667e+000  1.000000e+001
      vertex  0.000000e+000  5.000000e-001  8.000000e+000
      vertex  0.000000e+000  5.000000e-001  1.000000e+001
    endloop
  endfacet
  facet normal  1.000000e+000  0.000000e+000  -0.000000e+000
    outer loop
      vertex  4.500000e+000 -2.000000e+001 -7.105427e-015
      vertex  4.500000e+000 -9.866667e+000  8.000000e+000
      vertex  4.500000e+000 -9.866667e+000  1.000000e+001
    endloop
  endfacet
  facet normal  1.000000e+000  0.000000e+000  0.000000e+000
    outer loop
      vertex  4.500000e+000  3.000000e+000  3.552714e-016
      vertex  4.500000e+000  2.000000e+001  2.368476e-015
      vertex  4.500000e+000  2.427051e+000  1.763356e+000
    endloop
  endfacet
  facet normal  1.000000e+000  0.000000e+000  0.000000e+000
    outer loop
      vertex  4.500000e+000  9.270510e-001  2.853169e+000
      vertex  4.500000e+000  5.000000e-001  8.000000e+000
      vertex  4.500000e+000  0.000000e+000  8.000000e+000
    endloop
  endfacet
  facet normal  1.000000e+000  0.000000e+000  0.000000e+000
    outer loop
      vertex  4.500000e+000  9.270510e-001  2.853169e+000
      vertex  4.500000e+000  0.000000e+000  8.000000e+000
      vertex  4.500000e+000 -5.000000e-001  8.000000e+000
    endloop
  endfacet
  facet normal  1.000000e+000  0.000000e+000  0.000000e+000
    outer loop
      vertex  4.500000e+000  9.270510e-001  2.853169e+000
      vertex  4.500000e+000 -5.000000e-001  8.000000e+000
      vertex  4.500000e+000 -8.866667e+000  8.000000e+000
    endloop
  endfacet
  facet normal  1.000000e+000  0.000000e+000  0.000000e+000
    outer loop
      vertex  4.500000e+000  9.270510e-001  2.853169e+000
      vertex  4.500000e+000 -8.866667e+000  8.000000e+000
      vertex  4.500000e+000 -9.866667e+000  8.000000e+000
    endloop
  endfacet
  facet normal  1.000000e+000  0.000000e+000  0.000000e+000
    outer loop
      vertex  4.500000e+000  9.270510e-001  2.853169e+000
      vertex  4.500000e+000 -9.866667e+000  8.000000e+000
      vertex  4.500000e+000 -9.270510e-001  2.853169e+000
    endloop
  endfacet
  facet normal  1.000000e+000  0.000000e+000  -0.000000e+000
    outer loop
      vertex  4.500000e+000  5.000000e-001  8.000000e+000
      vertex  4.500000e+000  9.270510e-001  2.853169e+000
      vertex  4.500000e+000  8.866667e+000  8.000000e+000
    endloop
  endfacet
  facet normal  1.000000e+000  0.000000e+000  0.000000e+000
    outer loop
      vertex  4.500000e+000  8.866667e+000  8.000000e+000
      vertex  4.500000e+000  9.270510e-001  2.853169e+000
      vertex  4.500000e+000  2.427051e+000  1.763356e+000
    endloop
  endfacet
  facet normal  9.999999e-001  0.000000e+000  0.000000e+000
    outer loop
      vertex  4.500000e+000  8.866667e+000  8.000000e+000
      vertex  4.500000e+000  2.427051e+000  1.763356e+000
      vertex  4.500000e+000  9.866667e+000  8.000000e+000
    endloop
  endfacet
  facet normal  1.000000e+000  0.000000e+000  0.000000e+000
    outer loop
      vertex  4.500000e+000  9.866667e+000  8.000000e+000
      vertex  4.500000e+000  2.427051e+000  1.763356e+000
      vertex  4.500000e+000  2.000000e+001  2.368476e-015
    endloop
  endfacet
  facet normal  1.000000e+000  0.000000e+000  0.000000e+000
    outer loop
      vertex  4.500000e+000  9.866667e+000  8.000000e+000
      vertex  4.500000e+000  2.000000e+001  2.368476e-015
      vertex  4.500000e+000  9.866667e+000  1.000000e+001
    endloop
  endfacet
  facet normal  1.000000e+000  0.000000e+000  0.000000e+000
    outer loop
      vertex  4.500000e+000 -9.270510e-001  2.853169e+000
      vertex  4.500000e+000 -9.866667e+000  8.000000e+000
      vertex  4.500000e+000 -2.427051e+000  1.763356e+000
    endloop
  endfacet
  facet normal  1.000000e+000  0.000000e+000  0.000000e+000
    outer loop
      vertex  4.500000e+000 -2.427051e+000  1.763356e+000
      vertex  4.500000e+000 -9.866667e+000  8.000000e+000
      vertex  4.500000e+000 -2.000000e+001 -7.105427e-015
    endloop
  endfacet
  facet normal  1.000000e+000  0.000000e+000  0.000000e+000
    outer loop
      vertex  4.500000e+000 -2.427051e+000  1.763356e+000
      vertex  4.500000e+000 -2.000000e+001 -7.105427e-015
      vertex  4.500000e+000 -3.000000e+000  2.368476e-015
    endloop
  endfacet
  facet normal  1.000000e+000  0.000000e+000  0.000000e+000
    outer loop
      vertex  4.500000e+000 -8.866667e+000  8.000000e+000
      vertex  4.500000e+000 -5.000000e-001  8.000000e+000
      vertex  4.500000e+000 -8.866667e+000  1.000000e+001
    endloop
  endfacet
  facet normal  1.000000e+000  -0.000000e+000  0.000000e+000
    outer loop
      vertex  4.500000e+000 -8.866667e+000  1.000000e+001
      vertex  4.500000e+000 -5.000000e-001  8.000000e+000
      vertex  4.500000e+000 -5.000000e-001  1.000000e+001
    endloop
  endfacet
  facet normal  1.000000e+000  0.000000e+000  0.000000e+000
    outer loop
      vertex  4.500000e+000  5.000000e-001  8.000000e+000
      vertex  4.500000e+000  8.866667e+000  8.000000e+000
      vertex  4.500000e+000  5.000000e-001  1.000000e+001
    endloop
  endfacet
  facet normal  1.000000e+000  -0.000000e+000  0.000000e+000
    outer loop
      vertex  4.500000e+000  5.000000e-001  1.000000e+001
      vertex  4.500000e+000  8.866667e+000  8.000000e+000
      vertex  4.500000e+000  8.866667e+000  1.000000e+001
    endloop
  endfacet
  facet normal  0.000000e+000  7.024086e-001  7.117740e-001
    outer loop
      vertex  0.000000e+000  9.866667e+000  1.000000e+001
      vertex  4.500000e+000  9.866667e+000  1.000000e+001
      vertex  0.000000e+000  2.000000e+001  2.368476e-015
    endloop
  endfacet
  facet normal  -0.000000e+000  7.024086e-001  7.117740e-001
    outer loop
      vertex  0.000000e+000  2.000000e+001  2.368476e-015
      vertex  4.500000e+000  9.866667e+000  1.000000e+001
      vertex  4.500000e+000  2.000000e+001  2.368476e-015
    endloop
  endfacet
  facet normal  0.000000e+000 -7.024086e-001  7.117740e-001
    outer loop
      vertex  4.500000e+000 -9.866667e+000  1.000000e+001
      vertex  0.000000e+000 -9.866667e+000  1.000000e+001
      vertex  4.500000e+000 -2.000000e+001 -7.105427e-015
    endloop
  endfacet
  facet normal  0.000000e+000 -7.024086e-001  7.117740e-001
    outer loop
      vertex  4.500000e+000 -2.000000e+001 -7.105427e-015
      vertex  0.000000e+000 -9.866667e+000  1.000000e+001
      vertex  0.000000e+000 -2.000000e+001 -7.105427e-015
    endloop
  endfacet
  facet normal  0.000000e+000 -1.000000e+000  0.000000e+000
    outer loop
      vertex  0.000000e+000  5.000000e-001  1.000000e+001
      vertex  0.000000e+000  5.000000e-001  8.000000e+000
      vertex  4.500000e+000  5.000000e-001  1.000000e+001
    endloop
  endfacet
  facet normal  0.000000e+000 -1.000000e+000  -0.000000e+000
    outer loop
      vertex  4.500000e+000  5.000000e-001  1.000000e+001
      vertex  0.000000e+000  5.000000e-001  8.000000e+000
      vertex  4.500000e+000  5.000000e-001  8.000000e+000
    endloop
  endfacet
  facet normal  -0.000000e+000  0.000000e+000  1.000000e+000
    outer loop
      vertex  4.500000e+000  8.866667e+000  1.000000e+001
      vertex  0.000000e+000  8.866667e+000  1.000000e+001
      vertex  4.500000e+000  5.000000e-001  1.000000e+001
    endloop
  endfacet
  facet normal  0.000000e+000  0.000000e+000  1.000000e+000
    outer loop
      vertex  4.500000e+000  5.000000e-001  1.000000e+001
      vertex  0.000000e+000  8.866667e+000  1.000000e+001
      vertex  0.000000e+000  5.000000e-001  1.000000e+001
    endloop
  endfacet
  facet normal  0.000000e+000  1.000000e+000  0.000000e+000
    outer loop
      vertex  0.000000e+000  8.866667e+000  8.000000e+000
      vertex  0.000000e+000  8.866667e+000  1.000000e+001
      vertex  4.500000e+000  8.866667e+000  8.000000e+000
    endloop
  endfacet
  facet normal  0.000000e+000  1.000000e+000  -0.000000e+000
    outer loop
      vertex  4.500000e+000  8.866667e+000  8.000000e+000
      vertex  0.000000e+000  8.866667e+000  1.000000e+001
      vertex  4.500000e+000  8.866667e+000  1.000000e+001
    endloop
  endfacet
  facet normal  0.000000e+000  0.000000e+000  1.000000e+000
    outer loop
      vertex  0.000000e+000  8.866667e+000  8.000000e+000
      vertex  4.500000e+000  8.866667e+000  8.000000e+000
      vertex  0.000000e+000  9.866667e+000  8.000000e+000
    endloop
  endfacet
  facet normal  -0.000000e+000  0.000000e+000  1.000000e+000
    outer loop
      vertex  0.000000e+000  9.866667e+000  8.000000e+000
      vertex  4.500000e+000  8.866667e+000  8.000000e+000
      vertex  4.500000e+000  9.866667e+000  8.000000e+000
    endloop
  endfacet
  facet normal  0.000000e+000 -1.000000e+000  0.000000e+000
    outer loop
      vertex  0.000000e+000  9.866667e+000  1.000000e+001
      vertex  0.000000e+000  9.866667e+000  8.000000e+000
      vertex  4.500000e+000  9.866667e+000  1.000000e+001
    endloop
  endfacet
  facet normal  0.000000e+000 -1.000000e+000  -0.000000e+000
    outer loop
      vertex  4.500000e+000  9.866667e+000  1.000000e+001
      vertex  0.000000e+000  9.866667e+000  8.000000e+000
      vertex  4.500000e+000  9.866667e+000  8.000000e+000
    endloop
  endfacet
  facet normal  0.000000e+000  1.000000e+000  0.000000e+000
    outer loop
      vertex  0.000000e+000 -9.866667e+000  8.000000e+000
      vertex  0.000000e+000 -9.866667e+000  1.000000e+001
      vertex  4.500000e+000 -9.866667e+000  8.000000e+000
    endloop
  endfacet
  facet normal  0.000000e+000  1.000000e+000  -0.000000e+000
    outer loop
      vertex  4.500000e+000 -9.866667e+000  8.000000e+000
      vertex  0.000000e+000 -9.866667e+000  1.000000e+001
      vertex  4.500000e+000 -9.866667e+000  1.000000e+001
    endloop
  endfacet
  facet normal  0.000000e+000  0.000000e+000  1.000000e+000
    outer loop
      vertex  0.000000e+000 -9.866667e+000  8.000000e+000
      vertex  4.500000e+000 -9.866667e+000  8.000000e+000
      vertex  0.000000e+000 -8.866667e+000  8.000000e+000
    endloop
  endfacet
  facet normal  -0.000000e+000  0.000000e+000  1.000000e+000
    outer loop
      vertex  0.000000e+000 -8.866667e+000  8.000000e+000
      vertex  4.500000e+000 -9.866667e+000  8.000000e+000
      vertex  4.500000e+000 -8.866667e+000  8.000000e+000
    endloop
  endfacet
  facet normal  0.000000e+000 -1.000000e+000  0.000000e+000
    outer loop
      vertex  0.000000e+000 -8.866667e+000  1.000000e+001
      vertex  0.000000e+000 -8.866667e+000  8.000000e+000
      vertex  4.500000e+000 -8.866667e+000  1.000000e+001
    endloop
  endfacet
  facet normal  0.000000e+000 -1.000000e+000  -0.000000e+000
    outer loop
      vertex  4.500000e+000 -8.866667e+000  1.000000e+001
      vertex  0.000000e+000 -8.866667e+000  8.000000e+000
      vertex  4.500000e+000 -8.866667e+000  8.000000e+000
    endloop
  endfacet
  facet normal  -0.000000e+000  0.000000e+000  1.000000e+000
    outer loop
      vertex  4.500000e+000 -5.000000e-001  1.000000e+001
      vertex  0.000000e+000 -5.000000e-001  1.000000e+001
      vertex  4.500000e+000 -8.866667e+000  1.000000e+001
    endloop
  endfacet
  facet normal  0.000000e+000  0.000000e+000  1.000000e+000
    outer loop
      vertex  4.500000e+000 -8.866667e+000  1.000000e+001
      vertex  0.000000e+000 -5.000000e-001  1.000000e+001
      vertex  0.000000e+000 -8.866667e+000  1.000000e+001
    endloop
  endfacet
  facet normal  0.000000e+000  1.000000e+000  0.000000e+000
    outer loop
      vertex  0.000000e+000 -5.000000e-001  8.000000e+000
      vertex  0.000000e+000 -5.000000e-001  1.000000e+001
      vertex  4.500000e+000 -5.000000e-001  8.000000e+000
    endloop
  endfacet
  facet normal  0.000000e+000  1.000000e+000  -0.000000e+000
    outer loop
      vertex  4.500000e+000 -5.000000e-001  8.000000e+000
      vertex  0.000000e+000 -5.000000e-001  1.000000e+001
      vertex  4.500000e+000 -5.000000e-001  1.000000e+001
    endloop
  endfacet
  facet normal  0.000000e+000  0.000000e+000  1.000000e+000
    outer loop
      vertex  0.000000e+000 -5.000000e-001  8.000000e+000
      vertex  4.500000e+000 -5.000000e-001  8.000000e+000
      vertex  0.000000e+000  0.000000e+000  8.000000e+000
    endloop
  endfacet
  facet normal  -0.000000e+000  0.000000e+000  1.000000e+000
    outer loop
      vertex  0.000000e+000  0.000000e+000  8.000000e+000
      vertex  4.500000e+000 -5.000000e-001  8.000000e+000
      vertex  4.500000e+000  0.000000e+000  8.000000e+000
    endloop
  endfacet
  facet normal  0.000000e+000  0.000000e+000  1.000000e+000
    outer loop
      vertex  0.000000e+000  0.000000e+000  8.000000e+000
      vertex  4.500000e+000  0.000000e+000  8.000000e+000
      vertex  0.000000e+000  5.000000e-001  8.000000e+000
    endloop
  endfacet
  facet normal  -0.000000e+000  0.000000e+000  1.000000e+000
    outer loop
      vertex  0.000000e+000  5.000000e-001  8.000000e+000
      vertex  4.500000e+000  0.000000e+000  8.000000e+000
      vertex  4.500000e+000  5.000000e-001  8.000000e+000
    endloop
  endfacet
endsolid CATIA STL
