solid CATIA STL
  facet normal  9.848077e-001 -1.736480e-001  0.000000e+000
    outer loop
      vertex  1.290000e+001 -3.159484e-015 -1.400000e+001
      vertex  1.290000e+001 -3.159484e-015  1.400000e+001
      vertex  1.212204e+001 -4.412060e+000 -1.400000e+001
    endloop
  endfacet
  facet normal  9.848077e-001 -1.736480e-001  0.000000e+000
    outer loop
      vertex  1.212204e+001 -4.412060e+000 -1.400000e+001
      vertex  1.290000e+001 -3.159484e-015  1.400000e+001
      vertex  1.212204e+001 -4.412060e+000  1.400000e+001
    endloop
  endfacet
  facet normal  8.660253e-001 -5.000001e-001  0.000000e+000
    outer loop
      vertex  1.212204e+001 -4.412060e+000 -1.400000e+001
      vertex  1.212204e+001 -4.412060e+000  1.400000e+001
      vertex  9.881973e+000 -8.291960e+000 -1.400000e+001
    endloop
  endfacet
  facet normal  8.660253e-001 -5.000001e-001  0.000000e+000
    outer loop
      vertex  9.881973e+000 -8.291960e+000 -1.400000e+001
      vertex  1.212204e+001 -4.412060e+000  1.400000e+001
      vertex  9.881973e+000 -8.291960e+000  1.400000e+001
    endloop
  endfacet
  facet normal  6.427877e-001 -7.660444e-001  0.000000e+000
    outer loop
      vertex  9.881973e+000 -8.291960e+000 -1.400000e+001
      vertex  9.881973e+000 -8.291960e+000  1.400000e+001
      vertex  6.450000e+000 -1.117173e+001 -1.400000e+001
    endloop
  endfacet
  facet normal  6.427877e-001 -7.660444e-001  0.000000e+000
    outer loop
      vertex  6.450000e+000 -1.117173e+001 -1.400000e+001
      vertex  9.881973e+000 -8.291960e+000  1.400000e+001
      vertex  6.450000e+000 -1.117173e+001  1.400000e+001
    endloop
  endfacet
  facet normal  3.420200e-001 -9.396926e-001  0.000000e+000
    outer loop
      vertex  6.450000e+000 -1.117173e+001 -1.400000e+001
      vertex  6.450000e+000 -1.117173e+001  1.400000e+001
      vertex  2.240062e+000 -1.270402e+001 -1.400000e+001
    endloop
  endfacet
  facet normal  3.420200e-001 -9.396926e-001  0.000000e+000
    outer loop
      vertex  2.240062e+000 -1.270402e+001 -1.400000e+001
      vertex  6.450000e+000 -1.117173e+001  1.400000e+001
      vertex  2.240062e+000 -1.270402e+001  1.400000e+001
    endloop
  endfacet
  facet normal  0.000000e+000 -1.000000e+000  -0.000000e+000
    outer loop
      vertex  2.240062e+000 -1.270402e+001 -1.400000e+001
      vertex  2.240062e+000 -1.270402e+001  1.400000e+001
      vertex -2.240062e+000 -1.270402e+001 -1.400000e+001
    endloop
  endfacet
  facet normal  0.000000e+000 -1.000000e+000  0.000000e+000
    outer loop
      vertex -2.240062e+000 -1.270402e+001 -1.400000e+001
      vertex  2.240062e+000 -1.270402e+001  1.400000e+001
      vertex -2.240062e+000 -1.270402e+001  1.400000e+001
    endloop
  endfacet
  facet normal -3.420200e-001 -9.396926e-001  -0.000000e+000
    outer loop
      vertex -2.240062e+000 -1.270402e+001 -1.400000e+001
      vertex -2.240062e+000 -1.270402e+001  1.400000e+001
      vertex -6.450000e+000 -1.117173e+001 -1.400000e+001
    endloop
  endfacet
  facet normal -3.420200e-001 -9.396926e-001  0.000000e+000
    outer loop
      vertex -6.450000e+000 -1.117173e+001 -1.400000e+001
      vertex -2.240062e+000 -1.270402e+001  1.400000e+001
      vertex -6.450000e+000 -1.117173e+001  1.400000e+001
    endloop
  endfacet
  facet normal -6.427877e-001 -7.660444e-001  -0.000000e+000
    outer loop
      vertex -6.450000e+000 -1.117173e+001 -1.400000e+001
      vertex -6.450000e+000 -1.117173e+001  1.400000e+001
      vertex -9.881973e+000 -8.291960e+000 -1.400000e+001
    endloop
  endfacet
  facet normal -6.427877e-001 -7.660444e-001  0.000000e+000
    outer loop
      vertex -9.881973e+000 -8.291960e+000 -1.400000e+001
      vertex -6.450000e+000 -1.117173e+001  1.400000e+001
      vertex -9.881973e+000 -8.291960e+000  1.400000e+001
    endloop
  endfacet
  facet normal -8.660253e-001 -5.000001e-001  -0.000000e+000
    outer loop
      vertex -9.881973e+000 -8.291960e+000 -1.400000e+001
      vertex -9.881973e+000 -8.291960e+000  1.400000e+001
      vertex -1.212204e+001 -4.412060e+000 -1.400000e+001
    endloop
  endfacet
  facet normal -8.660253e-001 -5.000001e-001  0.000000e+000
    outer loop
      vertex -1.212204e+001 -4.412060e+000 -1.400000e+001
      vertex -9.881973e+000 -8.291960e+000  1.400000e+001
      vertex -1.212204e+001 -4.412060e+000  1.400000e+001
    endloop
  endfacet
  facet normal -9.848077e-001 -1.736480e-001  -0.000000e+000
    outer loop
      vertex -1.212204e+001 -4.412060e+000 -1.400000e+001
      vertex -1.212204e+001 -4.412060e+000  1.400000e+001
      vertex -1.290000e+001  1.579742e-015 -1.400000e+001
    endloop
  endfacet
  facet normal -9.848077e-001 -1.736480e-001  0.000000e+000
    outer loop
      vertex -1.290000e+001  1.579742e-015 -1.400000e+001
      vertex -1.212204e+001 -4.412060e+000  1.400000e+001
      vertex -1.290000e+001  1.579742e-015  1.400000e+001
    endloop
  endfacet
  facet normal -9.848077e-001  1.736480e-001  0.000000e+000
    outer loop
      vertex -1.290000e+001  1.579742e-015 -1.400000e+001
      vertex -1.290000e+001  1.579742e-015  1.400000e+001
      vertex -1.212204e+001  4.412060e+000 -1.400000e+001
    endloop
  endfacet
  facet normal -9.848077e-001  1.736480e-001  0.000000e+000
    outer loop
      vertex -1.212204e+001  4.412060e+000 -1.400000e+001
      vertex -1.290000e+001  1.579742e-015  1.400000e+001
      vertex -1.212204e+001  4.412060e+000  1.400000e+001
    endloop
  endfacet
  facet normal -8.660253e-001  5.000001e-001  0.000000e+000
    outer loop
      vertex -1.212204e+001  4.412060e+000 -1.400000e+001
      vertex -1.212204e+001  4.412060e+000  1.400000e+001
      vertex -9.881973e+000  8.291960e+000 -1.400000e+001
    endloop
  endfacet
  facet normal -8.660253e-001  5.000001e-001  0.000000e+000
    outer loop
      vertex -9.881973e+000  8.291960e+000 -1.400000e+001
      vertex -1.212204e+001  4.412060e+000  1.400000e+001
      vertex -9.881973e+000  8.291960e+000  1.400000e+001
    endloop
  endfacet
  facet normal -6.427877e-001  7.660444e-001  0.000000e+000
    outer loop
      vertex -9.881973e+000  8.291960e+000 -1.400000e+001
      vertex -9.881973e+000  8.291960e+000  1.400000e+001
      vertex -6.450000e+000  1.117173e+001 -1.400000e+001
    endloop
  endfacet
  facet normal -6.427877e-001  7.660444e-001  0.000000e+000
    outer loop
      vertex -6.450000e+000  1.117173e+001 -1.400000e+001
      vertex -9.881973e+000  8.291960e+000  1.400000e+001
      vertex -6.450000e+000  1.117173e+001  1.400000e+001
    endloop
  endfacet
  facet normal -3.420200e-001  9.396926e-001  0.000000e+000
    outer loop
      vertex -6.450000e+000  1.117173e+001 -1.400000e+001
      vertex -6.450000e+000  1.117173e+001  1.400000e+001
      vertex -2.240062e+000  1.270402e+001 -1.400000e+001
    endloop
  endfacet
  facet normal -3.420200e-001  9.396926e-001  0.000000e+000
    outer loop
      vertex -2.240062e+000  1.270402e+001 -1.400000e+001
      vertex -6.450000e+000  1.117173e+001  1.400000e+001
      vertex -2.240062e+000  1.270402e+001  1.400000e+001
    endloop
  endfacet
  facet normal  0.000000e+000  1.000000e+000  0.000000e+000
    outer loop
      vertex -2.240062e+000  1.270402e+001 -1.400000e+001
      vertex -2.240062e+000  1.270402e+001  1.400000e+001
      vertex  2.240062e+000  1.270402e+001 -1.400000e+001
    endloop
  endfacet
  facet normal  0.000000e+000  1.000000e+000  -0.000000e+000
    outer loop
      vertex  2.240062e+000  1.270402e+001 -1.400000e+001
      vertex -2.240062e+000  1.270402e+001  1.400000e+001
      vertex  2.240062e+000  1.270402e+001  1.400000e+001
    endloop
  endfacet
  facet normal  3.420200e-001  9.396926e-001  0.000000e+000
    outer loop
      vertex  2.240062e+000  1.270402e+001 -1.400000e+001
      vertex  2.240062e+000  1.270402e+001  1.400000e+001
      vertex  6.450000e+000  1.117173e+001 -1.400000e+001
    endloop
  endfacet
  facet normal  3.420200e-001  9.396926e-001  -0.000000e+000
    outer loop
      vertex  6.450000e+000  1.117173e+001 -1.400000e+001
      vertex  2.240062e+000  1.270402e+001  1.400000e+001
      vertex  6.450000e+000  1.117173e+001  1.400000e+001
    endloop
  endfacet
  facet normal  6.427877e-001  7.660444e-001  0.000000e+000
    outer loop
      vertex  6.450000e+000  1.117173e+001 -1.400000e+001
      vertex  6.450000e+000  1.117173e+001  1.400000e+001
      vertex  9.881973e+000  8.291960e+000 -1.400000e+001
    endloop
  endfacet
  facet normal  6.427877e-001  7.660444e-001  -0.000000e+000
    outer loop
      vertex  9.881973e+000  8.291960e+000 -1.400000e+001
      vertex  6.450000e+000  1.117173e+001  1.400000e+001
      vertex  9.881973e+000  8.291960e+000  1.400000e+001
    endloop
  endfacet
  facet normal  8.660253e-001  5.000001e-001  0.000000e+000
    outer loop
      vertex  9.881973e+000  8.291960e+000 -1.400000e+001
      vertex  9.881973e+000  8.291960e+000  1.400000e+001
      vertex  1.212204e+001  4.412060e+000 -1.400000e+001
    endloop
  endfacet
  facet normal  8.660253e-001  5.000001e-001  -0.000000e+000
    outer loop
      vertex  1.212204e+001  4.412060e+000 -1.400000e+001
      vertex  9.881973e+000  8.291960e+000  1.400000e+001
      vertex  1.212204e+001  4.412060e+000  1.400000e+001
    endloop
  endfacet
  facet normal  9.848077e-001  1.736480e-001  0.000000e+000
    outer loop
      vertex  1.212204e+001  4.412060e+000 -1.400000e+001
      vertex  1.212204e+001  4.412060e+000  1.400000e+001
      vertex  1.290000e+001 -3.159484e-015 -1.400000e+001
    endloop
  endfacet
  facet normal  9.848077e-001  1.736480e-001  -0.000000e+000
    outer loop
      vertex  1.290000e+001 -3.159484e-015 -1.400000e+001
      vertex  1.212204e+001  4.412060e+000  1.400000e+001
      vertex  1.290000e+001 -3.159484e-015  1.400000e+001
    endloop
  endfacet
  facet normal  0.000000e+000  -0.000000e+000 -1.000000e+000
    outer loop
      vertex -5.950000e+000 -1.030570e+001 -1.500000e+001
      vertex -5.500000e+000 -9.526279e+000 -1.500000e+001
      vertex -2.066413e+000 -1.171921e+001 -1.500000e+001
    endloop
  endfacet
  facet normal  0.000000e+000  0.000000e+000 -9.999999e-001
    outer loop
      vertex -2.066413e+000 -1.171921e+001 -1.500000e+001
      vertex -5.500000e+000 -9.526279e+000 -1.500000e+001
      vertex -1.910130e+000 -1.083289e+001 -1.500000e+001
    endloop
  endfacet
  facet normal  0.000000e+000  -0.000000e+000 -1.000000e+000
    outer loop
      vertex -2.066413e+000 -1.171921e+001 -1.500000e+001
      vertex -1.910130e+000 -1.083289e+001 -1.500000e+001
      vertex  2.066413e+000 -1.171921e+001 -1.500000e+001
    endloop
  endfacet
  facet normal  0.000000e+000  0.000000e+000 -1.000000e+000
    outer loop
      vertex  2.066413e+000 -1.171921e+001 -1.500000e+001
      vertex -1.910130e+000 -1.083289e+001 -1.500000e+001
      vertex  1.910130e+000 -1.083289e+001 -1.500000e+001
    endloop
  endfacet
  facet normal  0.000000e+000  0.000000e+000 -1.000000e+000
    outer loop
      vertex  2.066413e+000 -1.171921e+001 -1.500000e+001
      vertex  1.910130e+000 -1.083289e+001 -1.500000e+001
      vertex  5.950000e+000 -1.030570e+001 -1.500000e+001
    endloop
  endfacet
  facet normal  0.000000e+000  0.000000e+000 -1.000000e+000
    outer loop
      vertex  5.950000e+000  1.030570e+001 -1.500000e+001
      vertex  5.500000e+000  9.526279e+000 -1.500000e+001
      vertex  2.066413e+000  1.171921e+001 -1.500000e+001
    endloop
  endfacet
  facet normal  0.000000e+000  -0.000000e+000 -9.999999e-001
    outer loop
      vertex  2.066413e+000  1.171921e+001 -1.500000e+001
      vertex  5.500000e+000  9.526279e+000 -1.500000e+001
      vertex  1.910130e+000  1.083289e+001 -1.500000e+001
    endloop
  endfacet
  facet normal  0.000000e+000  0.000000e+000 -1.000000e+000
    outer loop
      vertex  2.066413e+000  1.171921e+001 -1.500000e+001
      vertex  1.910130e+000  1.083289e+001 -1.500000e+001
      vertex -2.066413e+000  1.171921e+001 -1.500000e+001
    endloop
  endfacet
  facet normal  0.000000e+000  0.000000e+000 -1.000000e+000
    outer loop
      vertex -2.066413e+000  1.171921e+001 -1.500000e+001
      vertex  1.910130e+000  1.083289e+001 -1.500000e+001
      vertex -1.910130e+000  1.083289e+001 -1.500000e+001
    endloop
  endfacet
  facet normal  -0.000000e+000  0.000000e+000 -1.000000e+000
    outer loop
      vertex -2.066413e+000  1.171921e+001 -1.500000e+001
      vertex -1.910130e+000  1.083289e+001 -1.500000e+001
      vertex -5.950000e+000  1.030570e+001 -1.500000e+001
    endloop
  endfacet
  facet normal  0.000000e+000  0.000000e+000 -1.000000e+000
    outer loop
      vertex -5.500000e+000 -9.526279e+000 -1.500000e+001
      vertex -5.950000e+000 -1.030570e+001 -1.500000e+001
      vertex -8.426489e+000 -7.070664e+000 -1.500000e+001
    endloop
  endfacet
  facet normal  0.000000e+000  -0.000000e+000 -1.000000e+000
    outer loop
      vertex -8.426489e+000 -7.070664e+000 -1.500000e+001
      vertex -5.950000e+000 -1.030570e+001 -1.500000e+001
      vertex -9.115929e+000 -7.649173e+000 -1.500000e+001
    endloop
  endfacet
  facet normal  0.000000e+000  0.000000e+000 -1.000000e+000
    outer loop
      vertex -8.426489e+000 -7.070664e+000 -1.500000e+001
      vertex -9.115929e+000 -7.649173e+000 -1.500000e+001
      vertex -1.033662e+001 -3.762222e+000 -1.500000e+001
    endloop
  endfacet
  facet normal  0.000000e+000  -0.000000e+000 -1.000000e+000
    outer loop
      vertex -1.033662e+001 -3.762222e+000 -1.500000e+001
      vertex -9.115929e+000 -7.649173e+000 -1.500000e+001
      vertex -1.118234e+001 -4.070040e+000 -1.500000e+001
    endloop
  endfacet
  facet normal  0.000000e+000  0.000000e+000 -1.000000e+000
    outer loop
      vertex -1.033662e+001 -3.762222e+000 -1.500000e+001
      vertex -1.118234e+001 -4.070040e+000 -1.500000e+001
      vertex -1.100000e+001  6.232048e-015 -1.500000e+001
    endloop
  endfacet
  facet normal  -0.000000e+000  0.000000e+000 -1.000000e+000
    outer loop
      vertex -1.100000e+001  6.232048e-015 -1.500000e+001
      vertex -1.118234e+001 -4.070040e+000 -1.500000e+001
      vertex -1.190000e+001  1.339418e-008 -1.500000e+001
    endloop
  endfacet
  facet normal  0.000000e+000  0.000000e+000 -1.000000e+000
    outer loop
      vertex -1.100000e+001  6.232048e-015 -1.500000e+001
      vertex -1.190000e+001  1.339418e-008 -1.500000e+001
      vertex -1.033662e+001  3.762222e+000 -1.500000e+001
    endloop
  endfacet
  facet normal  -0.000000e+000  0.000000e+000 -1.000000e+000
    outer loop
      vertex -1.033662e+001  3.762222e+000 -1.500000e+001
      vertex -1.190000e+001  1.339418e-008 -1.500000e+001
      vertex -1.118234e+001  4.070040e+000 -1.500000e+001
    endloop
  endfacet
  facet normal  0.000000e+000  0.000000e+000 -9.999999e-001
    outer loop
      vertex -1.033662e+001  3.762222e+000 -1.500000e+001
      vertex -1.118234e+001  4.070040e+000 -1.500000e+001
      vertex -8.426489e+000  7.070664e+000 -1.500000e+001
    endloop
  endfacet
  facet normal  -0.000000e+000  0.000000e+000 -1.000000e+000
    outer loop
      vertex -8.426489e+000  7.070664e+000 -1.500000e+001
      vertex -1.118234e+001  4.070040e+000 -1.500000e+001
      vertex -9.115929e+000  7.649173e+000 -1.500000e+001
    endloop
  endfacet
  facet normal  0.000000e+000  0.000000e+000 -1.000000e+000
    outer loop
      vertex -8.426489e+000  7.070664e+000 -1.500000e+001
      vertex -9.115929e+000  7.649173e+000 -1.500000e+001
      vertex -5.500000e+000  9.526279e+000 -1.500000e+001
    endloop
  endfacet
  facet normal  -0.000000e+000  0.000000e+000 -9.999999e-001
    outer loop
      vertex -5.500000e+000  9.526279e+000 -1.500000e+001
      vertex -9.115929e+000  7.649173e+000 -1.500000e+001
      vertex -5.950000e+000  1.030570e+001 -1.500000e+001
    endloop
  endfacet
  facet normal  0.000000e+000  0.000000e+000 -9.999999e-001
    outer loop
      vertex -5.500000e+000  9.526279e+000 -1.500000e+001
      vertex -5.950000e+000  1.030570e+001 -1.500000e+001
      vertex -1.910130e+000  1.083289e+001 -1.500000e+001
    endloop
  endfacet
  facet normal  0.000000e+000  -0.000000e+000 -1.000000e+000
    outer loop
      vertex  5.500000e+000  9.526279e+000 -1.500000e+001
      vertex  5.950000e+000  1.030570e+001 -1.500000e+001
      vertex  8.426489e+000  7.070664e+000 -1.500000e+001
    endloop
  endfacet
  facet normal  0.000000e+000  0.000000e+000 -1.000000e+000
    outer loop
      vertex  8.426489e+000  7.070664e+000 -1.500000e+001
      vertex  5.950000e+000  1.030570e+001 -1.500000e+001
      vertex  9.115929e+000  7.649173e+000 -1.500000e+001
    endloop
  endfacet
  facet normal  0.000000e+000  -0.000000e+000 -1.000000e+000
    outer loop
      vertex  8.426489e+000  7.070664e+000 -1.500000e+001
      vertex  9.115929e+000  7.649173e+000 -1.500000e+001
      vertex  1.033662e+001  3.762222e+000 -1.500000e+001
    endloop
  endfacet
  facet normal  0.000000e+000  0.000000e+000 -1.000000e+000
    outer loop
      vertex  1.033662e+001  3.762222e+000 -1.500000e+001
      vertex  9.115929e+000  7.649173e+000 -1.500000e+001
      vertex  1.118234e+001  4.070040e+000 -1.500000e+001
    endloop
  endfacet
  facet normal  0.000000e+000  0.000000e+000 -1.000000e+000
    outer loop
      vertex  1.033662e+001  3.762222e+000 -1.500000e+001
      vertex  1.118234e+001  4.070040e+000 -1.500000e+001
      vertex  1.100000e+001  0.000000e+000 -1.500000e+001
    endloop
  endfacet
  facet normal  0.000000e+000  0.000000e+000 -1.000000e+000
    outer loop
      vertex  1.100000e+001  0.000000e+000 -1.500000e+001
      vertex  1.118234e+001  4.070040e+000 -1.500000e+001
      vertex  1.190000e+001 -2.984181e-015 -1.500000e+001
    endloop
  endfacet
  facet normal  -0.000000e+000  0.000000e+000 -1.000000e+000
    outer loop
      vertex  1.100000e+001  0.000000e+000 -1.500000e+001
      vertex  1.190000e+001 -2.984181e-015 -1.500000e+001
      vertex  1.033662e+001 -3.762222e+000 -1.500000e+001
    endloop
  endfacet
  facet normal  0.000000e+000  0.000000e+000 -1.000000e+000
    outer loop
      vertex  1.033662e+001 -3.762222e+000 -1.500000e+001
      vertex  1.190000e+001 -2.984181e-015 -1.500000e+001
      vertex  1.118234e+001 -4.070040e+000 -1.500000e+001
    endloop
  endfacet
  facet normal  -0.000000e+000  0.000000e+000 -9.999999e-001
    outer loop
      vertex  1.033662e+001 -3.762222e+000 -1.500000e+001
      vertex  1.118234e+001 -4.070040e+000 -1.500000e+001
      vertex  8.426489e+000 -7.070664e+000 -1.500000e+001
    endloop
  endfacet
  facet normal  0.000000e+000  0.000000e+000 -1.000000e+000
    outer loop
      vertex  8.426489e+000 -7.070664e+000 -1.500000e+001
      vertex  1.118234e+001 -4.070040e+000 -1.500000e+001
      vertex  9.115929e+000 -7.649173e+000 -1.500000e+001
    endloop
  endfacet
  facet normal  -0.000000e+000  0.000000e+000 -1.000000e+000
    outer loop
      vertex  8.426489e+000 -7.070664e+000 -1.500000e+001
      vertex  9.115929e+000 -7.649173e+000 -1.500000e+001
      vertex  5.500000e+000 -9.526279e+000 -1.500000e+001
    endloop
  endfacet
  facet normal  0.000000e+000  0.000000e+000 -9.999999e-001
    outer loop
      vertex  5.500000e+000 -9.526279e+000 -1.500000e+001
      vertex  9.115929e+000 -7.649173e+000 -1.500000e+001
      vertex  5.950000e+000 -1.030570e+001 -1.500000e+001
    endloop
  endfacet
  facet normal  -0.000000e+000  0.000000e+000 -9.999999e-001
    outer loop
      vertex  5.500000e+000 -9.526279e+000 -1.500000e+001
      vertex  5.950000e+000 -1.030570e+001 -1.500000e+001
      vertex  1.910130e+000 -1.083289e+001 -1.500000e+001
    endloop
  endfacet
  facet normal  9.118596e-001 -1.607853e-001 -3.777037e-001
    outer loop
      vertex  1.290000e+001 -3.159484e-015 -1.400000e+001
      vertex  1.212204e+001 -4.412060e+000 -1.400000e+001
      vertex  1.260711e+001 -8.881784e-016 -1.470711e+001
    endloop
  endfacet
  facet normal  9.118594e-001 -1.607854e-001 -3.777044e-001
    outer loop
      vertex  1.260711e+001 -8.881784e-016 -1.470711e+001
      vertex  1.212204e+001 -4.412060e+000 -1.400000e+001
      vertex  1.184681e+001 -4.311884e+000 -1.470711e+001
    endloop
  endfacet
  facet normal  3.818150e-001 -6.732430e-002 -9.217834e-001
    outer loop
      vertex  1.260711e+001 -8.881784e-016 -1.470711e+001
      vertex  1.184681e+001 -4.311884e+000 -1.470711e+001
      vertex  1.190000e+001 -2.984181e-015 -1.500000e+001
    endloop
  endfacet
  facet normal  3.818154e-001 -6.732429e-002 -9.217833e-001
    outer loop
      vertex  1.190000e+001 -2.984181e-015 -1.500000e+001
      vertex  1.184681e+001 -4.311884e+000 -1.470711e+001
      vertex  1.118234e+001 -4.070040e+000 -1.500000e+001
    endloop
  endfacet
  facet normal -9.118594e-001 -1.607853e-001 -3.777044e-001
    outer loop
      vertex -1.212204e+001 -4.412060e+000 -1.400000e+001
      vertex -1.290000e+001  1.579742e-015 -1.400000e+001
      vertex -1.184681e+001 -4.311884e+000 -1.470711e+001
    endloop
  endfacet
  facet normal -9.118596e-001 -1.607855e-001 -3.777037e-001
    outer loop
      vertex -1.184681e+001 -4.311884e+000 -1.470711e+001
      vertex -1.290000e+001  1.579742e-015 -1.400000e+001
      vertex -1.260711e+001  1.419007e-008 -1.470711e+001
    endloop
  endfacet
  facet normal -3.818154e-001 -6.732436e-002 -9.217833e-001
    outer loop
      vertex -1.184681e+001 -4.311884e+000 -1.470711e+001
      vertex -1.260711e+001  1.419007e-008 -1.470711e+001
      vertex -1.118234e+001 -4.070040e+000 -1.500000e+001
    endloop
  endfacet
  facet normal -3.818150e-001 -6.732422e-002 -9.217834e-001
    outer loop
      vertex -1.118234e+001 -4.070040e+000 -1.500000e+001
      vertex -1.260711e+001  1.419007e-008 -1.470711e+001
      vertex -1.190000e+001  1.339418e-008 -1.500000e+001
    endloop
  endfacet
  facet normal -8.018757e-001 -4.629632e-001 -3.777041e-001
    outer loop
      vertex -9.881973e+000 -8.291960e+000 -1.400000e+001
      vertex -1.212204e+001 -4.412060e+000 -1.400000e+001
      vertex -9.657604e+000 -8.103692e+000 -1.470711e+001
    endloop
  endfacet
  facet normal -8.018756e-001 -4.629631e-001 -3.777044e-001
    outer loop
      vertex -9.657604e+000 -8.103692e+000 -1.470711e+001
      vertex -1.212204e+001 -4.412060e+000 -1.400000e+001
      vertex -1.184681e+001 -4.311884e+000 -1.470711e+001
    endloop
  endfacet
  facet normal -3.357627e-001 -1.938527e-001 -9.217834e-001
    outer loop
      vertex -9.657604e+000 -8.103692e+000 -1.470711e+001
      vertex -1.184681e+001 -4.311884e+000 -1.470711e+001
      vertex -9.115929e+000 -7.649173e+000 -1.500000e+001
    endloop
  endfacet
  facet normal -3.357628e-001 -1.938528e-001 -9.217834e-001
    outer loop
      vertex -9.115929e+000 -7.649173e+000 -1.500000e+001
      vertex -1.184681e+001 -4.311884e+000 -1.470711e+001
      vertex -1.118234e+001 -4.070040e+000 -1.500000e+001
    endloop
  endfacet
  facet normal -5.951738e-001 -7.093004e-001 -3.777047e-001
    outer loop
      vertex -6.450000e+000 -1.117173e+001 -1.400000e+001
      vertex -9.881973e+000 -8.291960e+000 -1.400000e+001
      vertex -6.303554e+000 -1.091807e+001 -1.470711e+001
    endloop
  endfacet
  facet normal -5.951740e-001 -7.093007e-001 -3.777041e-001
    outer loop
      vertex -6.303554e+000 -1.091807e+001 -1.470711e+001
      vertex -9.881973e+000 -8.291960e+000 -1.400000e+001
      vertex -9.657604e+000 -8.103692e+000 -1.470711e+001
    endloop
  endfacet
  facet normal -2.492122e-001 -2.969996e-001 -9.217833e-001
    outer loop
      vertex -6.303554e+000 -1.091807e+001 -1.470711e+001
      vertex -9.657604e+000 -8.103692e+000 -1.470711e+001
      vertex -5.950000e+000 -1.030570e+001 -1.500000e+001
    endloop
  endfacet
  facet normal -2.492123e-001 -2.969997e-001 -9.217834e-001
    outer loop
      vertex -5.950000e+000 -1.030570e+001 -1.500000e+001
      vertex -9.657604e+000 -8.103692e+000 -1.470711e+001
      vertex -9.115929e+000 -7.649173e+000 -1.500000e+001
    endloop
  endfacet
  facet normal -3.166854e-001 -8.700864e-001 -3.777036e-001
    outer loop
      vertex -2.240062e+000 -1.270402e+001 -1.400000e+001
      vertex -6.450000e+000 -1.117173e+001 -1.400000e+001
      vertex -2.189201e+000 -1.241558e+001 -1.470711e+001
    endloop
  endfacet
  facet normal -3.166854e-001 -8.700858e-001 -3.777050e-001
    outer loop
      vertex -2.189201e+000 -1.241558e+001 -1.470711e+001
      vertex -6.450000e+000 -1.117173e+001 -1.400000e+001
      vertex -6.303554e+000 -1.091807e+001 -1.470711e+001
    endloop
  endfacet
  facet normal -1.326031e-001 -3.643239e-001 -9.217834e-001
    outer loop
      vertex -2.189201e+000 -1.241558e+001 -1.470711e+001
      vertex -6.303554e+000 -1.091807e+001 -1.470711e+001
      vertex -2.066413e+000 -1.171921e+001 -1.500000e+001
    endloop
  endfacet
  facet normal -1.326031e-001 -3.643239e-001 -9.217833e-001
    outer loop
      vertex -2.066413e+000 -1.171921e+001 -1.500000e+001
      vertex -6.303554e+000 -1.091807e+001 -1.470711e+001
      vertex -5.950000e+000 -1.030570e+001 -1.500000e+001
    endloop
  endfacet
  facet normal  0.000000e+000 -9.259266e-001 -3.777035e-001
    outer loop
      vertex  2.240062e+000 -1.270402e+001 -1.400000e+001
      vertex -2.240062e+000 -1.270402e+001 -1.400000e+001
      vertex  2.189201e+000 -1.241558e+001 -1.470711e+001
    endloop
  endfacet
  facet normal  -0.000000e+000 -9.259265e-001 -3.777035e-001
    outer loop
      vertex  2.189201e+000 -1.241558e+001 -1.470711e+001
      vertex -2.240062e+000 -1.270402e+001 -1.400000e+001
      vertex -2.189201e+000 -1.241558e+001 -1.470711e+001
    endloop
  endfacet
  facet normal  0.000000e+000 -3.877054e-001 -9.217833e-001
    outer loop
      vertex  2.189201e+000 -1.241558e+001 -1.470711e+001
      vertex -2.189201e+000 -1.241558e+001 -1.470711e+001
      vertex  2.066413e+000 -1.171921e+001 -1.500000e+001
    endloop
  endfacet
  facet normal  -0.000000e+000 -3.877054e-001 -9.217833e-001
    outer loop
      vertex  2.066413e+000 -1.171921e+001 -1.500000e+001
      vertex -2.189201e+000 -1.241558e+001 -1.470711e+001
      vertex -2.066413e+000 -1.171921e+001 -1.500000e+001
    endloop
  endfacet
  facet normal  3.166852e-001 -8.700858e-001 -3.777050e-001
    outer loop
      vertex  6.450000e+000 -1.117173e+001 -1.400000e+001
      vertex  2.240062e+000 -1.270402e+001 -1.400000e+001
      vertex  6.303554e+000 -1.091807e+001 -1.470711e+001
    endloop
  endfacet
  facet normal  3.166856e-001 -8.700863e-001 -3.777036e-001
    outer loop
      vertex  6.303554e+000 -1.091807e+001 -1.470711e+001
      vertex  2.240062e+000 -1.270402e+001 -1.400000e+001
      vertex  2.189201e+000 -1.241558e+001 -1.470711e+001
    endloop
  endfacet
  facet normal  1.326031e-001 -3.643240e-001 -9.217833e-001
    outer loop
      vertex  6.303554e+000 -1.091807e+001 -1.470711e+001
      vertex  2.189201e+000 -1.241558e+001 -1.470711e+001
      vertex  5.950000e+000 -1.030570e+001 -1.500000e+001
    endloop
  endfacet
  facet normal  1.326031e-001 -3.643239e-001 -9.217833e-001
    outer loop
      vertex  5.950000e+000 -1.030570e+001 -1.500000e+001
      vertex  2.189201e+000 -1.241558e+001 -1.470711e+001
      vertex  2.066413e+000 -1.171921e+001 -1.500000e+001
    endloop
  endfacet
  facet normal  5.951741e-001 -7.093007e-001 -3.777041e-001
    outer loop
      vertex  9.881973e+000 -8.291960e+000 -1.400000e+001
      vertex  6.450000e+000 -1.117173e+001 -1.400000e+001
      vertex  9.657604e+000 -8.103692e+000 -1.470711e+001
    endloop
  endfacet
  facet normal  5.951738e-001 -7.093005e-001 -3.777048e-001
    outer loop
      vertex  9.657604e+000 -8.103692e+000 -1.470711e+001
      vertex  6.450000e+000 -1.117173e+001 -1.400000e+001
      vertex  6.303554e+000 -1.091807e+001 -1.470711e+001
    endloop
  endfacet
  facet normal  2.492123e-001 -2.969997e-001 -9.217833e-001
    outer loop
      vertex  9.657604e+000 -8.103692e+000 -1.470711e+001
      vertex  6.303554e+000 -1.091807e+001 -1.470711e+001
      vertex  9.115929e+000 -7.649173e+000 -1.500000e+001
    endloop
  endfacet
  facet normal  2.492122e-001 -2.969996e-001 -9.217833e-001
    outer loop
      vertex  9.115929e+000 -7.649173e+000 -1.500000e+001
      vertex  6.303554e+000 -1.091807e+001 -1.470711e+001
      vertex  5.950000e+000 -1.030570e+001 -1.500000e+001
    endloop
  endfacet
  facet normal  8.018756e-001 -4.629632e-001 -3.777044e-001
    outer loop
      vertex  1.212204e+001 -4.412060e+000 -1.400000e+001
      vertex  9.881973e+000 -8.291960e+000 -1.400000e+001
      vertex  1.184681e+001 -4.311884e+000 -1.470711e+001
    endloop
  endfacet
  facet normal  8.018757e-001 -4.629632e-001 -3.777042e-001
    outer loop
      vertex  1.184681e+001 -4.311884e+000 -1.470711e+001
      vertex  9.881973e+000 -8.291960e+000 -1.400000e+001
      vertex  9.657604e+000 -8.103692e+000 -1.470711e+001
    endloop
  endfacet
  facet normal  3.357628e-001 -1.938528e-001 -9.217833e-001
    outer loop
      vertex  1.184681e+001 -4.311884e+000 -1.470711e+001
      vertex  9.657604e+000 -8.103692e+000 -1.470711e+001
      vertex  1.118234e+001 -4.070040e+000 -1.500000e+001
    endloop
  endfacet
  facet normal  3.357627e-001 -1.938528e-001 -9.217833e-001
    outer loop
      vertex  1.118234e+001 -4.070040e+000 -1.500000e+001
      vertex  9.657604e+000 -8.103692e+000 -1.470711e+001
      vertex  9.115929e+000 -7.649173e+000 -1.500000e+001
    endloop
  endfacet
  facet normal -9.118596e-001  1.607853e-001 -3.777037e-001
    outer loop
      vertex -1.290000e+001  1.579742e-015 -1.400000e+001
      vertex -1.212204e+001  4.412060e+000 -1.400000e+001
      vertex -1.260711e+001  1.419007e-008 -1.470711e+001
    endloop
  endfacet
  facet normal -9.118594e-001  1.607854e-001 -3.777044e-001
    outer loop
      vertex -1.260711e+001  1.419007e-008 -1.470711e+001
      vertex -1.212204e+001  4.412060e+000 -1.400000e+001
      vertex -1.184681e+001  4.311884e+000 -1.470711e+001
    endloop
  endfacet
  facet normal -3.818150e-001  6.732430e-002 -9.217834e-001
    outer loop
      vertex -1.260711e+001  1.419007e-008 -1.470711e+001
      vertex -1.184681e+001  4.311884e+000 -1.470711e+001
      vertex -1.190000e+001  1.339418e-008 -1.500000e+001
    endloop
  endfacet
  facet normal -3.818154e-001  6.732429e-002 -9.217833e-001
    outer loop
      vertex -1.190000e+001  1.339418e-008 -1.500000e+001
      vertex -1.184681e+001  4.311884e+000 -1.470711e+001
      vertex -1.118234e+001  4.070040e+000 -1.500000e+001
    endloop
  endfacet
  facet normal  9.118594e-001  1.607853e-001 -3.777044e-001
    outer loop
      vertex  1.212204e+001  4.412060e+000 -1.400000e+001
      vertex  1.290000e+001 -3.159484e-015 -1.400000e+001
      vertex  1.184681e+001  4.311884e+000 -1.470711e+001
    endloop
  endfacet
  facet normal  9.118596e-001  1.607855e-001 -3.777037e-001
    outer loop
      vertex  1.184681e+001  4.311884e+000 -1.470711e+001
      vertex  1.290000e+001 -3.159484e-015 -1.400000e+001
      vertex  1.260711e+001 -8.881784e-016 -1.470711e+001
    endloop
  endfacet
  facet normal  3.818154e-001  6.732436e-002 -9.217833e-001
    outer loop
      vertex  1.184681e+001  4.311884e+000 -1.470711e+001
      vertex  1.260711e+001 -8.881784e-016 -1.470711e+001
      vertex  1.118234e+001  4.070040e+000 -1.500000e+001
    endloop
  endfacet
  facet normal  3.818150e-001  6.732422e-002 -9.217834e-001
    outer loop
      vertex  1.118234e+001  4.070040e+000 -1.500000e+001
      vertex  1.260711e+001 -8.881784e-016 -1.470711e+001
      vertex  1.190000e+001 -2.984181e-015 -1.500000e+001
    endloop
  endfacet
  facet normal  8.018757e-001  4.629632e-001 -3.777041e-001
    outer loop
      vertex  9.881973e+000  8.291960e+000 -1.400000e+001
      vertex  1.212204e+001  4.412060e+000 -1.400000e+001
      vertex  9.657604e+000  8.103692e+000 -1.470711e+001
    endloop
  endfacet
  facet normal  8.018756e-001  4.629631e-001 -3.777044e-001
    outer loop
      vertex  9.657604e+000  8.103692e+000 -1.470711e+001
      vertex  1.212204e+001  4.412060e+000 -1.400000e+001
      vertex  1.184681e+001  4.311884e+000 -1.470711e+001
    endloop
  endfacet
  facet normal  3.357627e-001  1.938527e-001 -9.217834e-001
    outer loop
      vertex  9.657604e+000  8.103692e+000 -1.470711e+001
      vertex  1.184681e+001  4.311884e+000 -1.470711e+001
      vertex  9.115929e+000  7.649173e+000 -1.500000e+001
    endloop
  endfacet
  facet normal  3.357628e-001  1.938528e-001 -9.217834e-001
    outer loop
      vertex  9.115929e+000  7.649173e+000 -1.500000e+001
      vertex  1.184681e+001  4.311884e+000 -1.470711e+001
      vertex  1.118234e+001  4.070040e+000 -1.500000e+001
    endloop
  endfacet
  facet normal  5.951738e-001  7.093004e-001 -3.777047e-001
    outer loop
      vertex  6.450000e+000  1.117173e+001 -1.400000e+001
      vertex  9.881973e+000  8.291960e+000 -1.400000e+001
      vertex  6.303554e+000  1.091807e+001 -1.470711e+001
    endloop
  endfacet
  facet normal  5.951740e-001  7.093007e-001 -3.777041e-001
    outer loop
      vertex  6.303554e+000  1.091807e+001 -1.470711e+001
      vertex  9.881973e+000  8.291960e+000 -1.400000e+001
      vertex  9.657604e+000  8.103692e+000 -1.470711e+001
    endloop
  endfacet
  facet normal  2.492122e-001  2.969996e-001 -9.217833e-001
    outer loop
      vertex  6.303554e+000  1.091807e+001 -1.470711e+001
      vertex  9.657604e+000  8.103692e+000 -1.470711e+001
      vertex  5.950000e+000  1.030570e+001 -1.500000e+001
    endloop
  endfacet
  facet normal  2.492123e-001  2.969997e-001 -9.217834e-001
    outer loop
      vertex  5.950000e+000  1.030570e+001 -1.500000e+001
      vertex  9.657604e+000  8.103692e+000 -1.470711e+001
      vertex  9.115929e+000  7.649173e+000 -1.500000e+001
    endloop
  endfacet
  facet normal  3.166854e-001  8.700864e-001 -3.777036e-001
    outer loop
      vertex  2.240062e+000  1.270402e+001 -1.400000e+001
      vertex  6.450000e+000  1.117173e+001 -1.400000e+001
      vertex  2.189201e+000  1.241558e+001 -1.470711e+001
    endloop
  endfacet
  facet normal  3.166854e-001  8.700858e-001 -3.777050e-001
    outer loop
      vertex  2.189201e+000  1.241558e+001 -1.470711e+001
      vertex  6.450000e+000  1.117173e+001 -1.400000e+001
      vertex  6.303554e+000  1.091807e+001 -1.470711e+001
    endloop
  endfacet
  facet normal  1.326031e-001  3.643239e-001 -9.217834e-001
    outer loop
      vertex  2.189201e+000  1.241558e+001 -1.470711e+001
      vertex  6.303554e+000  1.091807e+001 -1.470711e+001
      vertex  2.066413e+000  1.171921e+001 -1.500000e+001
    endloop
  endfacet
  facet normal  1.326031e-001  3.643239e-001 -9.217833e-001
    outer loop
      vertex  2.066413e+000  1.171921e+001 -1.500000e+001
      vertex  6.303554e+000  1.091807e+001 -1.470711e+001
      vertex  5.950000e+000  1.030570e+001 -1.500000e+001
    endloop
  endfacet
  facet normal  0.000000e+000  9.259266e-001 -3.777035e-001
    outer loop
      vertex -2.240062e+000  1.270402e+001 -1.400000e+001
      vertex  2.240062e+000  1.270402e+001 -1.400000e+001
      vertex -2.189201e+000  1.241558e+001 -1.470711e+001
    endloop
  endfacet
  facet normal  0.000000e+000  9.259265e-001 -3.777035e-001
    outer loop
      vertex -2.189201e+000  1.241558e+001 -1.470711e+001
      vertex  2.240062e+000  1.270402e+001 -1.400000e+001
      vertex  2.189201e+000  1.241558e+001 -1.470711e+001
    endloop
  endfacet
  facet normal  0.000000e+000  3.877054e-001 -9.217833e-001
    outer loop
      vertex -2.189201e+000  1.241558e+001 -1.470711e+001
      vertex  2.189201e+000  1.241558e+001 -1.470711e+001
      vertex -2.066413e+000  1.171921e+001 -1.500000e+001
    endloop
  endfacet
  facet normal  0.000000e+000  3.877054e-001 -9.217833e-001
    outer loop
      vertex -2.066413e+000  1.171921e+001 -1.500000e+001
      vertex  2.189201e+000  1.241558e+001 -1.470711e+001
      vertex  2.066413e+000  1.171921e+001 -1.500000e+001
    endloop
  endfacet
  facet normal -3.166852e-001  8.700858e-001 -3.777050e-001
    outer loop
      vertex -6.450000e+000  1.117173e+001 -1.400000e+001
      vertex -2.240062e+000  1.270402e+001 -1.400000e+001
      vertex -6.303554e+000  1.091807e+001 -1.470711e+001
    endloop
  endfacet
  facet normal -3.166856e-001  8.700863e-001 -3.777036e-001
    outer loop
      vertex -6.303554e+000  1.091807e+001 -1.470711e+001
      vertex -2.240062e+000  1.270402e+001 -1.400000e+001
      vertex -2.189201e+000  1.241558e+001 -1.470711e+001
    endloop
  endfacet
  facet normal -1.326031e-001  3.643240e-001 -9.217833e-001
    outer loop
      vertex -6.303554e+000  1.091807e+001 -1.470711e+001
      vertex -2.189201e+000  1.241558e+001 -1.470711e+001
      vertex -5.950000e+000  1.030570e+001 -1.500000e+001
    endloop
  endfacet
  facet normal -1.326031e-001  3.643239e-001 -9.217833e-001
    outer loop
      vertex -5.950000e+000  1.030570e+001 -1.500000e+001
      vertex -2.189201e+000  1.241558e+001 -1.470711e+001
      vertex -2.066413e+000  1.171921e+001 -1.500000e+001
    endloop
  endfacet
  facet normal -5.951741e-001  7.093007e-001 -3.777041e-001
    outer loop
      vertex -9.881973e+000  8.291960e+000 -1.400000e+001
      vertex -6.450000e+000  1.117173e+001 -1.400000e+001
      vertex -9.657604e+000  8.103692e+000 -1.470711e+001
    endloop
  endfacet
  facet normal -5.951738e-001  7.093005e-001 -3.777048e-001
    outer loop
      vertex -9.657604e+000  8.103692e+000 -1.470711e+001
      vertex -6.450000e+000  1.117173e+001 -1.400000e+001
      vertex -6.303554e+000  1.091807e+001 -1.470711e+001
    endloop
  endfacet
  facet normal -2.492123e-001  2.969997e-001 -9.217833e-001
    outer loop
      vertex -9.657604e+000  8.103692e+000 -1.470711e+001
      vertex -6.303554e+000  1.091807e+001 -1.470711e+001
      vertex -9.115929e+000  7.649173e+000 -1.500000e+001
    endloop
  endfacet
  facet normal -2.492122e-001  2.969996e-001 -9.217833e-001
    outer loop
      vertex -9.115929e+000  7.649173e+000 -1.500000e+001
      vertex -6.303554e+000  1.091807e+001 -1.470711e+001
      vertex -5.950000e+000  1.030570e+001 -1.500000e+001
    endloop
  endfacet
  facet normal -8.018756e-001  4.629632e-001 -3.777044e-001
    outer loop
      vertex -1.212204e+001  4.412060e+000 -1.400000e+001
      vertex -9.881973e+000  8.291960e+000 -1.400000e+001
      vertex -1.184681e+001  4.311884e+000 -1.470711e+001
    endloop
  endfacet
  facet normal -8.018757e-001  4.629632e-001 -3.777042e-001
    outer loop
      vertex -1.184681e+001  4.311884e+000 -1.470711e+001
      vertex -9.881973e+000  8.291960e+000 -1.400000e+001
      vertex -9.657604e+000  8.103692e+000 -1.470711e+001
    endloop
  endfacet
  facet normal -3.357628e-001  1.938528e-001 -9.217833e-001
    outer loop
      vertex -1.184681e+001  4.311884e+000 -1.470711e+001
      vertex -9.657604e+000  8.103692e+000 -1.470711e+001
      vertex -1.118234e+001  4.070040e+000 -1.500000e+001
    endloop
  endfacet
  facet normal -3.357627e-001  1.938528e-001 -9.217833e-001
    outer loop
      vertex -1.118234e+001  4.070040e+000 -1.500000e+001
      vertex -9.657604e+000  8.103692e+000 -1.470711e+001
      vertex -9.115929e+000  7.649173e+000 -1.500000e+001
    endloop
  endfacet
  facet normal  -0.000000e+000  0.000000e+000  9.999999e-001
    outer loop
      vertex -5.500000e+000 -9.526279e+000  1.500000e+001
      vertex -5.950000e+000 -1.030570e+001  1.500000e+001
      vertex -1.910130e+000 -1.083289e+001  1.500000e+001
    endloop
  endfacet
  facet normal  0.000000e+000  0.000000e+000  1.000000e+000
    outer loop
      vertex -1.910130e+000 -1.083289e+001  1.500000e+001
      vertex -5.950000e+000 -1.030570e+001  1.500000e+001
      vertex -2.066413e+000 -1.171921e+001  1.500000e+001
    endloop
  endfacet
  facet normal  0.000000e+000  0.000000e+000  1.000000e+000
    outer loop
      vertex -1.910130e+000 -1.083289e+001  1.500000e+001
      vertex -2.066413e+000 -1.171921e+001  1.500000e+001
      vertex  1.910130e+000 -1.083289e+001  1.500000e+001
    endloop
  endfacet
  facet normal  0.000000e+000  0.000000e+000  1.000000e+000
    outer loop
      vertex  1.910130e+000 -1.083289e+001  1.500000e+001
      vertex -2.066413e+000 -1.171921e+001  1.500000e+001
      vertex  2.066413e+000 -1.171921e+001  1.500000e+001
    endloop
  endfacet
  facet normal  0.000000e+000  -0.000000e+000  1.000000e+000
    outer loop
      vertex  1.910130e+000 -1.083289e+001  1.500000e+001
      vertex  2.066413e+000 -1.171921e+001  1.500000e+001
      vertex  5.950000e+000 -1.030570e+001  1.500000e+001
    endloop
  endfacet
  facet normal  0.000000e+000  0.000000e+000  9.999999e-001
    outer loop
      vertex  5.500000e+000  9.526279e+000  1.500000e+001
      vertex  5.950000e+000  1.030570e+001  1.500000e+001
      vertex  1.910130e+000  1.083289e+001  1.500000e+001
    endloop
  endfacet
  facet normal  -0.000000e+000  0.000000e+000  1.000000e+000
    outer loop
      vertex  1.910130e+000  1.083289e+001  1.500000e+001
      vertex  5.950000e+000  1.030570e+001  1.500000e+001
      vertex  2.066413e+000  1.171921e+001  1.500000e+001
    endloop
  endfacet
  facet normal  0.000000e+000  0.000000e+000  1.000000e+000
    outer loop
      vertex  1.910130e+000  1.083289e+001  1.500000e+001
      vertex  2.066413e+000  1.171921e+001  1.500000e+001
      vertex -1.910130e+000  1.083289e+001  1.500000e+001
    endloop
  endfacet
  facet normal  0.000000e+000  -0.000000e+000  1.000000e+000
    outer loop
      vertex -1.910130e+000  1.083289e+001  1.500000e+001
      vertex  2.066413e+000  1.171921e+001  1.500000e+001
      vertex -2.066413e+000  1.171921e+001  1.500000e+001
    endloop
  endfacet
  facet normal  0.000000e+000  0.000000e+000  1.000000e+000
    outer loop
      vertex -1.910130e+000  1.083289e+001  1.500000e+001
      vertex -2.066413e+000  1.171921e+001  1.500000e+001
      vertex -5.950000e+000  1.030570e+001  1.500000e+001
    endloop
  endfacet
  facet normal  0.000000e+000  0.000000e+000  9.999999e-001
    outer loop
      vertex -5.950000e+000 -1.030570e+001  1.500000e+001
      vertex -5.500000e+000 -9.526279e+000  1.500000e+001
      vertex -9.115929e+000 -7.649173e+000  1.500000e+001
    endloop
  endfacet
  facet normal  -0.000000e+000  0.000000e+000  1.000000e+000
    outer loop
      vertex -9.115929e+000 -7.649173e+000  1.500000e+001
      vertex -5.500000e+000 -9.526279e+000  1.500000e+001
      vertex -8.426489e+000 -7.070664e+000  1.500000e+001
    endloop
  endfacet
  facet normal  0.000000e+000  0.000000e+000  1.000000e+000
    outer loop
      vertex -9.115929e+000 -7.649173e+000  1.500000e+001
      vertex -8.426489e+000 -7.070664e+000  1.500000e+001
      vertex -1.118234e+001 -4.070040e+000  1.500000e+001
    endloop
  endfacet
  facet normal  -0.000000e+000  0.000000e+000  9.999999e-001
    outer loop
      vertex -1.118234e+001 -4.070040e+000  1.500000e+001
      vertex -8.426489e+000 -7.070664e+000  1.500000e+001
      vertex -1.033662e+001 -3.762222e+000  1.500000e+001
    endloop
  endfacet
  facet normal  0.000000e+000  0.000000e+000  1.000000e+000
    outer loop
      vertex -1.118234e+001 -4.070040e+000  1.500000e+001
      vertex -1.033662e+001 -3.762222e+000  1.500000e+001
      vertex -1.190000e+001  2.411770e-008  1.500000e+001
    endloop
  endfacet
  facet normal  0.000000e+000  0.000000e+000  1.000000e+000
    outer loop
      vertex -1.190000e+001  2.411770e-008  1.500000e+001
      vertex -1.033662e+001 -3.762222e+000  1.500000e+001
      vertex -1.100000e+001  6.232048e-015  1.500000e+001
    endloop
  endfacet
  facet normal  0.000000e+000  0.000000e+000  1.000000e+000
    outer loop
      vertex -1.190000e+001  2.411770e-008  1.500000e+001
      vertex -1.100000e+001  6.232048e-015  1.500000e+001
      vertex -1.118234e+001  4.070040e+000  1.500000e+001
    endloop
  endfacet
  facet normal  0.000000e+000  0.000000e+000  1.000000e+000
    outer loop
      vertex -1.118234e+001  4.070040e+000  1.500000e+001
      vertex -1.100000e+001  6.232048e-015  1.500000e+001
      vertex -1.033662e+001  3.762222e+000  1.500000e+001
    endloop
  endfacet
  facet normal  0.000000e+000  -0.000000e+000  1.000000e+000
    outer loop
      vertex -1.118234e+001  4.070040e+000  1.500000e+001
      vertex -1.033662e+001  3.762222e+000  1.500000e+001
      vertex -9.115929e+000  7.649173e+000  1.500000e+001
    endloop
  endfacet
  facet normal  0.000000e+000  0.000000e+000  1.000000e+000
    outer loop
      vertex -9.115929e+000  7.649173e+000  1.500000e+001
      vertex -1.033662e+001  3.762222e+000  1.500000e+001
      vertex -8.426489e+000  7.070664e+000  1.500000e+001
    endloop
  endfacet
  facet normal  0.000000e+000  -0.000000e+000  1.000000e+000
    outer loop
      vertex -9.115929e+000  7.649173e+000  1.500000e+001
      vertex -8.426489e+000  7.070664e+000  1.500000e+001
      vertex -5.950000e+000  1.030570e+001  1.500000e+001
    endloop
  endfacet
  facet normal  0.000000e+000  0.000000e+000  1.000000e+000
    outer loop
      vertex -5.950000e+000  1.030570e+001  1.500000e+001
      vertex -8.426489e+000  7.070664e+000  1.500000e+001
      vertex -5.500000e+000  9.526279e+000  1.500000e+001
    endloop
  endfacet
  facet normal  0.000000e+000  -0.000000e+000  9.999999e-001
    outer loop
      vertex -5.950000e+000  1.030570e+001  1.500000e+001
      vertex -5.500000e+000  9.526279e+000  1.500000e+001
      vertex -1.910130e+000  1.083289e+001  1.500000e+001
    endloop
  endfacet
  facet normal  -0.000000e+000  0.000000e+000  9.999999e-001
    outer loop
      vertex  5.950000e+000  1.030570e+001  1.500000e+001
      vertex  5.500000e+000  9.526279e+000  1.500000e+001
      vertex  9.115929e+000  7.649173e+000  1.500000e+001
    endloop
  endfacet
  facet normal  0.000000e+000  0.000000e+000  1.000000e+000
    outer loop
      vertex  9.115929e+000  7.649173e+000  1.500000e+001
      vertex  5.500000e+000  9.526279e+000  1.500000e+001
      vertex  8.426489e+000  7.070664e+000  1.500000e+001
    endloop
  endfacet
  facet normal  -0.000000e+000  0.000000e+000  1.000000e+000
    outer loop
      vertex  9.115929e+000  7.649173e+000  1.500000e+001
      vertex  8.426489e+000  7.070664e+000  1.500000e+001
      vertex  1.118234e+001  4.070040e+000  1.500000e+001
    endloop
  endfacet
  facet normal  0.000000e+000  0.000000e+000  9.999999e-001
    outer loop
      vertex  1.118234e+001  4.070040e+000  1.500000e+001
      vertex  8.426489e+000  7.070664e+000  1.500000e+001
      vertex  1.033662e+001  3.762222e+000  1.500000e+001
    endloop
  endfacet
  facet normal  -0.000000e+000  0.000000e+000  1.000000e+000
    outer loop
      vertex  1.118234e+001  4.070040e+000  1.500000e+001
      vertex  1.033662e+001  3.762222e+000  1.500000e+001
      vertex  1.190000e+001 -1.409451e-014  1.500000e+001
    endloop
  endfacet
  facet normal  0.000000e+000  0.000000e+000  1.000000e+000
    outer loop
      vertex  1.190000e+001 -1.409451e-014  1.500000e+001
      vertex  1.033662e+001  3.762222e+000  1.500000e+001
      vertex  1.100000e+001  0.000000e+000  1.500000e+001
    endloop
  endfacet
  facet normal  0.000000e+000  0.000000e+000  1.000000e+000
    outer loop
      vertex  1.190000e+001 -1.409451e-014  1.500000e+001
      vertex  1.100000e+001  0.000000e+000  1.500000e+001
      vertex  1.118234e+001 -4.070040e+000  1.500000e+001
    endloop
  endfacet
  facet normal  0.000000e+000  0.000000e+000  1.000000e+000
    outer loop
      vertex  1.118234e+001 -4.070040e+000  1.500000e+001
      vertex  1.100000e+001  0.000000e+000  1.500000e+001
      vertex  1.033662e+001 -3.762222e+000  1.500000e+001
    endloop
  endfacet
  facet normal  0.000000e+000  0.000000e+000  1.000000e+000
    outer loop
      vertex  1.118234e+001 -4.070040e+000  1.500000e+001
      vertex  1.033662e+001 -3.762222e+000  1.500000e+001
      vertex  9.115929e+000 -7.649173e+000  1.500000e+001
    endloop
  endfacet
  facet normal  0.000000e+000  -0.000000e+000  1.000000e+000
    outer loop
      vertex  9.115929e+000 -7.649173e+000  1.500000e+001
      vertex  1.033662e+001 -3.762222e+000  1.500000e+001
      vertex  8.426489e+000 -7.070664e+000  1.500000e+001
    endloop
  endfacet
  facet normal  0.000000e+000  0.000000e+000  1.000000e+000
    outer loop
      vertex  9.115929e+000 -7.649173e+000  1.500000e+001
      vertex  8.426489e+000 -7.070664e+000  1.500000e+001
      vertex  5.950000e+000 -1.030570e+001  1.500000e+001
    endloop
  endfacet
  facet normal  0.000000e+000  -0.000000e+000  1.000000e+000
    outer loop
      vertex  5.950000e+000 -1.030570e+001  1.500000e+001
      vertex  8.426489e+000 -7.070664e+000  1.500000e+001
      vertex  5.500000e+000 -9.526279e+000  1.500000e+001
    endloop
  endfacet
  facet normal  0.000000e+000  0.000000e+000  9.999999e-001
    outer loop
      vertex  5.950000e+000 -1.030570e+001  1.500000e+001
      vertex  5.500000e+000 -9.526279e+000  1.500000e+001
      vertex  1.910130e+000 -1.083289e+001  1.500000e+001
    endloop
  endfacet
  facet normal -3.818150e-001  6.732422e-002  9.217834e-001
    outer loop
      vertex -1.190000e+001  2.411770e-008  1.500000e+001
      vertex -1.118234e+001  4.070040e+000  1.500000e+001
      vertex -1.260711e+001  2.664535e-015  1.470711e+001
    endloop
  endfacet
  facet normal -3.818154e-001  6.732436e-002  9.217833e-001
    outer loop
      vertex -1.260711e+001  2.664535e-015  1.470711e+001
      vertex -1.118234e+001  4.070040e+000  1.500000e+001
      vertex -1.184681e+001  4.311884e+000  1.470711e+001
    endloop
  endfacet
  facet normal -9.118596e-001  1.607855e-001  3.777037e-001
    outer loop
      vertex -1.260711e+001  2.664535e-015  1.470711e+001
      vertex -1.184681e+001  4.311884e+000  1.470711e+001
      vertex -1.290000e+001  1.579742e-015  1.400000e+001
    endloop
  endfacet
  facet normal -9.118594e-001  1.607853e-001  3.777044e-001
    outer loop
      vertex -1.290000e+001  1.579742e-015  1.400000e+001
      vertex -1.184681e+001  4.311884e+000  1.470711e+001
      vertex -1.212204e+001  4.412060e+000  1.400000e+001
    endloop
  endfacet
  facet normal  3.818154e-001  6.732429e-002  9.217833e-001
    outer loop
      vertex  1.118234e+001  4.070040e+000  1.500000e+001
      vertex  1.190000e+001 -1.409451e-014  1.500000e+001
      vertex  1.184681e+001  4.311884e+000  1.470711e+001
    endloop
  endfacet
  facet normal  3.818150e-001  6.732430e-002  9.217834e-001
    outer loop
      vertex  1.184681e+001  4.311884e+000  1.470711e+001
      vertex  1.190000e+001 -1.409451e-014  1.500000e+001
      vertex  1.260711e+001 -9.769963e-015  1.470711e+001
    endloop
  endfacet
  facet normal  9.118594e-001  1.607854e-001  3.777044e-001
    outer loop
      vertex  1.184681e+001  4.311884e+000  1.470711e+001
      vertex  1.260711e+001 -9.769963e-015  1.470711e+001
      vertex  1.212204e+001  4.412060e+000  1.400000e+001
    endloop
  endfacet
  facet normal  9.118596e-001  1.607853e-001  3.777037e-001
    outer loop
      vertex  1.212204e+001  4.412060e+000  1.400000e+001
      vertex  1.260711e+001 -9.769963e-015  1.470711e+001
      vertex  1.290000e+001 -3.159484e-015  1.400000e+001
    endloop
  endfacet
  facet normal  3.357627e-001  1.938528e-001  9.217833e-001
    outer loop
      vertex  9.115929e+000  7.649173e+000  1.500000e+001
      vertex  1.118234e+001  4.070040e+000  1.500000e+001
      vertex  9.657604e+000  8.103692e+000  1.470711e+001
    endloop
  endfacet
  facet normal  3.357628e-001  1.938528e-001  9.217833e-001
    outer loop
      vertex  9.657604e+000  8.103692e+000  1.470711e+001
      vertex  1.118234e+001  4.070040e+000  1.500000e+001
      vertex  1.184681e+001  4.311884e+000  1.470711e+001
    endloop
  endfacet
  facet normal  8.018757e-001  4.629632e-001  3.777042e-001
    outer loop
      vertex  9.657604e+000  8.103692e+000  1.470711e+001
      vertex  1.184681e+001  4.311884e+000  1.470711e+001
      vertex  9.881973e+000  8.291960e+000  1.400000e+001
    endloop
  endfacet
  facet normal  8.018756e-001  4.629632e-001  3.777044e-001
    outer loop
      vertex  9.881973e+000  8.291960e+000  1.400000e+001
      vertex  1.184681e+001  4.311884e+000  1.470711e+001
      vertex  1.212204e+001  4.412060e+000  1.400000e+001
    endloop
  endfacet
  facet normal  2.492122e-001  2.969996e-001  9.217833e-001
    outer loop
      vertex  5.950000e+000  1.030570e+001  1.500000e+001
      vertex  9.115929e+000  7.649173e+000  1.500000e+001
      vertex  6.303554e+000  1.091807e+001  1.470711e+001
    endloop
  endfacet
  facet normal  2.492123e-001  2.969997e-001  9.217833e-001
    outer loop
      vertex  6.303554e+000  1.091807e+001  1.470711e+001
      vertex  9.115929e+000  7.649173e+000  1.500000e+001
      vertex  9.657604e+000  8.103692e+000  1.470711e+001
    endloop
  endfacet
  facet normal  5.951738e-001  7.093005e-001  3.777048e-001
    outer loop
      vertex  6.303554e+000  1.091807e+001  1.470711e+001
      vertex  9.657604e+000  8.103692e+000  1.470711e+001
      vertex  6.450000e+000  1.117173e+001  1.400000e+001
    endloop
  endfacet
  facet normal  5.951741e-001  7.093007e-001  3.777041e-001
    outer loop
      vertex  6.450000e+000  1.117173e+001  1.400000e+001
      vertex  9.657604e+000  8.103692e+000  1.470711e+001
      vertex  9.881973e+000  8.291960e+000  1.400000e+001
    endloop
  endfacet
  facet normal  1.326031e-001  3.643239e-001  9.217833e-001
    outer loop
      vertex  2.066413e+000  1.171921e+001  1.500000e+001
      vertex  5.950000e+000  1.030570e+001  1.500000e+001
      vertex  2.189201e+000  1.241558e+001  1.470711e+001
    endloop
  endfacet
  facet normal  1.326031e-001  3.643240e-001  9.217833e-001
    outer loop
      vertex  2.189201e+000  1.241558e+001  1.470711e+001
      vertex  5.950000e+000  1.030570e+001  1.500000e+001
      vertex  6.303554e+000  1.091807e+001  1.470711e+001
    endloop
  endfacet
  facet normal  3.166856e-001  8.700863e-001  3.777036e-001
    outer loop
      vertex  2.189201e+000  1.241558e+001  1.470711e+001
      vertex  6.303554e+000  1.091807e+001  1.470711e+001
      vertex  2.240062e+000  1.270402e+001  1.400000e+001
    endloop
  endfacet
  facet normal  3.166852e-001  8.700858e-001  3.777050e-001
    outer loop
      vertex  2.240062e+000  1.270402e+001  1.400000e+001
      vertex  6.303554e+000  1.091807e+001  1.470711e+001
      vertex  6.450000e+000  1.117173e+001  1.400000e+001
    endloop
  endfacet
  facet normal  0.000000e+000  3.877054e-001  9.217833e-001
    outer loop
      vertex -2.066413e+000  1.171921e+001  1.500000e+001
      vertex  2.066413e+000  1.171921e+001  1.500000e+001
      vertex -2.189201e+000  1.241558e+001  1.470711e+001
    endloop
  endfacet
  facet normal  -0.000000e+000  3.877054e-001  9.217833e-001
    outer loop
      vertex -2.189201e+000  1.241558e+001  1.470711e+001
      vertex  2.066413e+000  1.171921e+001  1.500000e+001
      vertex  2.189201e+000  1.241558e+001  1.470711e+001
    endloop
  endfacet
  facet normal  0.000000e+000  9.259265e-001  3.777035e-001
    outer loop
      vertex -2.189201e+000  1.241558e+001  1.470711e+001
      vertex  2.189201e+000  1.241558e+001  1.470711e+001
      vertex -2.240062e+000  1.270402e+001  1.400000e+001
    endloop
  endfacet
  facet normal  -0.000000e+000  9.259266e-001  3.777035e-001
    outer loop
      vertex -2.240062e+000  1.270402e+001  1.400000e+001
      vertex  2.189201e+000  1.241558e+001  1.470711e+001
      vertex  2.240062e+000  1.270402e+001  1.400000e+001
    endloop
  endfacet
  facet normal -1.326031e-001  3.643239e-001  9.217833e-001
    outer loop
      vertex -5.950000e+000  1.030570e+001  1.500000e+001
      vertex -2.066413e+000  1.171921e+001  1.500000e+001
      vertex -6.303554e+000  1.091807e+001  1.470711e+001
    endloop
  endfacet
  facet normal -1.326031e-001  3.643239e-001  9.217834e-001
    outer loop
      vertex -6.303554e+000  1.091807e+001  1.470711e+001
      vertex -2.066413e+000  1.171921e+001  1.500000e+001
      vertex -2.189201e+000  1.241558e+001  1.470711e+001
    endloop
  endfacet
  facet normal -3.166854e-001  8.700858e-001  3.777050e-001
    outer loop
      vertex -6.303554e+000  1.091807e+001  1.470711e+001
      vertex -2.189201e+000  1.241558e+001  1.470711e+001
      vertex -6.450000e+000  1.117173e+001  1.400000e+001
    endloop
  endfacet
  facet normal -3.166854e-001  8.700864e-001  3.777036e-001
    outer loop
      vertex -6.450000e+000  1.117173e+001  1.400000e+001
      vertex -2.189201e+000  1.241558e+001  1.470711e+001
      vertex -2.240062e+000  1.270402e+001  1.400000e+001
    endloop
  endfacet
  facet normal -2.492123e-001  2.969997e-001  9.217834e-001
    outer loop
      vertex -9.115929e+000  7.649173e+000  1.500000e+001
      vertex -5.950000e+000  1.030570e+001  1.500000e+001
      vertex -9.657604e+000  8.103692e+000  1.470711e+001
    endloop
  endfacet
  facet normal -2.492122e-001  2.969996e-001  9.217833e-001
    outer loop
      vertex -9.657604e+000  8.103692e+000  1.470711e+001
      vertex -5.950000e+000  1.030570e+001  1.500000e+001
      vertex -6.303554e+000  1.091807e+001  1.470711e+001
    endloop
  endfacet
  facet normal -5.951740e-001  7.093007e-001  3.777041e-001
    outer loop
      vertex -9.657604e+000  8.103692e+000  1.470711e+001
      vertex -6.303554e+000  1.091807e+001  1.470711e+001
      vertex -9.881973e+000  8.291960e+000  1.400000e+001
    endloop
  endfacet
  facet normal -5.951738e-001  7.093004e-001  3.777047e-001
    outer loop
      vertex -9.881973e+000  8.291960e+000  1.400000e+001
      vertex -6.303554e+000  1.091807e+001  1.470711e+001
      vertex -6.450000e+000  1.117173e+001  1.400000e+001
    endloop
  endfacet
  facet normal -3.357628e-001  1.938528e-001  9.217834e-001
    outer loop
      vertex -1.118234e+001  4.070040e+000  1.500000e+001
      vertex -9.115929e+000  7.649173e+000  1.500000e+001
      vertex -1.184681e+001  4.311884e+000  1.470711e+001
    endloop
  endfacet
  facet normal -3.357627e-001  1.938527e-001  9.217834e-001
    outer loop
      vertex -1.184681e+001  4.311884e+000  1.470711e+001
      vertex -9.115929e+000  7.649173e+000  1.500000e+001
      vertex -9.657604e+000  8.103692e+000  1.470711e+001
    endloop
  endfacet
  facet normal -8.018756e-001  4.629631e-001  3.777044e-001
    outer loop
      vertex -1.184681e+001  4.311884e+000  1.470711e+001
      vertex -9.657604e+000  8.103692e+000  1.470711e+001
      vertex -1.212204e+001  4.412060e+000  1.400000e+001
    endloop
  endfacet
  facet normal -8.018757e-001  4.629632e-001  3.777041e-001
    outer loop
      vertex -1.212204e+001  4.412060e+000  1.400000e+001
      vertex -9.657604e+000  8.103692e+000  1.470711e+001
      vertex -9.881973e+000  8.291960e+000  1.400000e+001
    endloop
  endfacet
  facet normal  3.818150e-001 -6.732422e-002  9.217834e-001
    outer loop
      vertex  1.190000e+001 -1.409451e-014  1.500000e+001
      vertex  1.118234e+001 -4.070040e+000  1.500000e+001
      vertex  1.260711e+001 -9.769963e-015  1.470711e+001
    endloop
  endfacet
  facet normal  3.818154e-001 -6.732436e-002  9.217833e-001
    outer loop
      vertex  1.260711e+001 -9.769963e-015  1.470711e+001
      vertex  1.118234e+001 -4.070040e+000  1.500000e+001
      vertex  1.184681e+001 -4.311884e+000  1.470711e+001
    endloop
  endfacet
  facet normal  9.118596e-001 -1.607855e-001  3.777037e-001
    outer loop
      vertex  1.260711e+001 -9.769963e-015  1.470711e+001
      vertex  1.184681e+001 -4.311884e+000  1.470711e+001
      vertex  1.290000e+001 -3.159484e-015  1.400000e+001
    endloop
  endfacet
  facet normal  9.118594e-001 -1.607853e-001  3.777044e-001
    outer loop
      vertex  1.290000e+001 -3.159484e-015  1.400000e+001
      vertex  1.184681e+001 -4.311884e+000  1.470711e+001
      vertex  1.212204e+001 -4.412060e+000  1.400000e+001
    endloop
  endfacet
  facet normal -3.818154e-001 -6.732429e-002  9.217833e-001
    outer loop
      vertex -1.118234e+001 -4.070040e+000  1.500000e+001
      vertex -1.190000e+001  2.411770e-008  1.500000e+001
      vertex -1.184681e+001 -4.311884e+000  1.470711e+001
    endloop
  endfacet
  facet normal -3.818150e-001 -6.732430e-002  9.217834e-001
    outer loop
      vertex -1.184681e+001 -4.311884e+000  1.470711e+001
      vertex -1.190000e+001  2.411770e-008  1.500000e+001
      vertex -1.260711e+001  2.664535e-015  1.470711e+001
    endloop
  endfacet
  facet normal -9.118594e-001 -1.607854e-001  3.777044e-001
    outer loop
      vertex -1.184681e+001 -4.311884e+000  1.470711e+001
      vertex -1.260711e+001  2.664535e-015  1.470711e+001
      vertex -1.212204e+001 -4.412060e+000  1.400000e+001
    endloop
  endfacet
  facet normal -9.118596e-001 -1.607853e-001  3.777037e-001
    outer loop
      vertex -1.212204e+001 -4.412060e+000  1.400000e+001
      vertex -1.260711e+001  2.664535e-015  1.470711e+001
      vertex -1.290000e+001  1.579742e-015  1.400000e+001
    endloop
  endfacet
  facet normal -3.357627e-001 -1.938528e-001  9.217833e-001
    outer loop
      vertex -9.115929e+000 -7.649173e+000  1.500000e+001
      vertex -1.118234e+001 -4.070040e+000  1.500000e+001
      vertex -9.657604e+000 -8.103692e+000  1.470711e+001
    endloop
  endfacet
  facet normal -3.357628e-001 -1.938528e-001  9.217833e-001
    outer loop
      vertex -9.657604e+000 -8.103692e+000  1.470711e+001
      vertex -1.118234e+001 -4.070040e+000  1.500000e+001
      vertex -1.184681e+001 -4.311884e+000  1.470711e+001
    endloop
  endfacet
  facet normal -8.018757e-001 -4.629632e-001  3.777042e-001
    outer loop
      vertex -9.657604e+000 -8.103692e+000  1.470711e+001
      vertex -1.184681e+001 -4.311884e+000  1.470711e+001
      vertex -9.881973e+000 -8.291960e+000  1.400000e+001
    endloop
  endfacet
  facet normal -8.018756e-001 -4.629632e-001  3.777044e-001
    outer loop
      vertex -9.881973e+000 -8.291960e+000  1.400000e+001
      vertex -1.184681e+001 -4.311884e+000  1.470711e+001
      vertex -1.212204e+001 -4.412060e+000  1.400000e+001
    endloop
  endfacet
  facet normal -2.492122e-001 -2.969996e-001  9.217833e-001
    outer loop
      vertex -5.950000e+000 -1.030570e+001  1.500000e+001
      vertex -9.115929e+000 -7.649173e+000  1.500000e+001
      vertex -6.303554e+000 -1.091807e+001  1.470711e+001
    endloop
  endfacet
  facet normal -2.492123e-001 -2.969997e-001  9.217833e-001
    outer loop
      vertex -6.303554e+000 -1.091807e+001  1.470711e+001
      vertex -9.115929e+000 -7.649173e+000  1.500000e+001
      vertex -9.657604e+000 -8.103692e+000  1.470711e+001
    endloop
  endfacet
  facet normal -5.951738e-001 -7.093005e-001  3.777048e-001
    outer loop
      vertex -6.303554e+000 -1.091807e+001  1.470711e+001
      vertex -9.657604e+000 -8.103692e+000  1.470711e+001
      vertex -6.450000e+000 -1.117173e+001  1.400000e+001
    endloop
  endfacet
  facet normal -5.951741e-001 -7.093007e-001  3.777041e-001
    outer loop
      vertex -6.450000e+000 -1.117173e+001  1.400000e+001
      vertex -9.657604e+000 -8.103692e+000  1.470711e+001
      vertex -9.881973e+000 -8.291960e+000  1.400000e+001
    endloop
  endfacet
  facet normal -1.326031e-001 -3.643239e-001  9.217833e-001
    outer loop
      vertex -2.066413e+000 -1.171921e+001  1.500000e+001
      vertex -5.950000e+000 -1.030570e+001  1.500000e+001
      vertex -2.189201e+000 -1.241558e+001  1.470711e+001
    endloop
  endfacet
  facet normal -1.326031e-001 -3.643240e-001  9.217833e-001
    outer loop
      vertex -2.189201e+000 -1.241558e+001  1.470711e+001
      vertex -5.950000e+000 -1.030570e+001  1.500000e+001
      vertex -6.303554e+000 -1.091807e+001  1.470711e+001
    endloop
  endfacet
  facet normal -3.166856e-001 -8.700863e-001  3.777036e-001
    outer loop
      vertex -2.189201e+000 -1.241558e+001  1.470711e+001
      vertex -6.303554e+000 -1.091807e+001  1.470711e+001
      vertex -2.240062e+000 -1.270402e+001  1.400000e+001
    endloop
  endfacet
  facet normal -3.166852e-001 -8.700858e-001  3.777050e-001
    outer loop
      vertex -2.240062e+000 -1.270402e+001  1.400000e+001
      vertex -6.303554e+000 -1.091807e+001  1.470711e+001
      vertex -6.450000e+000 -1.117173e+001  1.400000e+001
    endloop
  endfacet
  facet normal  0.000000e+000 -3.877054e-001  9.217833e-001
    outer loop
      vertex  2.066413e+000 -1.171921e+001  1.500000e+001
      vertex -2.066413e+000 -1.171921e+001  1.500000e+001
      vertex  2.189201e+000 -1.241558e+001  1.470711e+001
    endloop
  endfacet
  facet normal  0.000000e+000 -3.877054e-001  9.217833e-001
    outer loop
      vertex  2.189201e+000 -1.241558e+001  1.470711e+001
      vertex -2.066413e+000 -1.171921e+001  1.500000e+001
      vertex -2.189201e+000 -1.241558e+001  1.470711e+001
    endloop
  endfacet
  facet normal  0.000000e+000 -9.259265e-001  3.777035e-001
    outer loop
      vertex  2.189201e+000 -1.241558e+001  1.470711e+001
      vertex -2.189201e+000 -1.241558e+001  1.470711e+001
      vertex  2.240062e+000 -1.270402e+001  1.400000e+001
    endloop
  endfacet
  facet normal  0.000000e+000 -9.259266e-001  3.777035e-001
    outer loop
      vertex  2.240062e+000 -1.270402e+001  1.400000e+001
      vertex -2.189201e+000 -1.241558e+001  1.470711e+001
      vertex -2.240062e+000 -1.270402e+001  1.400000e+001
    endloop
  endfacet
  facet normal  1.326031e-001 -3.643239e-001  9.217833e-001
    outer loop
      vertex  5.950000e+000 -1.030570e+001  1.500000e+001
      vertex  2.066413e+000 -1.171921e+001  1.500000e+001
      vertex  6.303554e+000 -1.091807e+001  1.470711e+001
    endloop
  endfacet
  facet normal  1.326031e-001 -3.643239e-001  9.217834e-001
    outer loop
      vertex  6.303554e+000 -1.091807e+001  1.470711e+001
      vertex  2.066413e+000 -1.171921e+001  1.500000e+001
      vertex  2.189201e+000 -1.241558e+001  1.470711e+001
    endloop
  endfacet
  facet normal  3.166854e-001 -8.700858e-001  3.777050e-001
    outer loop
      vertex  6.303554e+000 -1.091807e+001  1.470711e+001
      vertex  2.189201e+000 -1.241558e+001  1.470711e+001
      vertex  6.450000e+000 -1.117173e+001  1.400000e+001
    endloop
  endfacet
  facet normal  3.166854e-001 -8.700864e-001  3.777036e-001
    outer loop
      vertex  6.450000e+000 -1.117173e+001  1.400000e+001
      vertex  2.189201e+000 -1.241558e+001  1.470711e+001
      vertex  2.240062e+000 -1.270402e+001  1.400000e+001
    endloop
  endfacet
  facet normal  2.492123e-001 -2.969997e-001  9.217834e-001
    outer loop
      vertex  9.115929e+000 -7.649173e+000  1.500000e+001
      vertex  5.950000e+000 -1.030570e+001  1.500000e+001
      vertex  9.657604e+000 -8.103692e+000  1.470711e+001
    endloop
  endfacet
  facet normal  2.492122e-001 -2.969996e-001  9.217833e-001
    outer loop
      vertex  9.657604e+000 -8.103692e+000  1.470711e+001
      vertex  5.950000e+000 -1.030570e+001  1.500000e+001
      vertex  6.303554e+000 -1.091807e+001  1.470711e+001
    endloop
  endfacet
  facet normal  5.951740e-001 -7.093007e-001  3.777041e-001
    outer loop
      vertex  9.657604e+000 -8.103692e+000  1.470711e+001
      vertex  6.303554e+000 -1.091807e+001  1.470711e+001
      vertex  9.881973e+000 -8.291960e+000  1.400000e+001
    endloop
  endfacet
  facet normal  5.951738e-001 -7.093004e-001  3.777047e-001
    outer loop
      vertex  9.881973e+000 -8.291960e+000  1.400000e+001
      vertex  6.303554e+000 -1.091807e+001  1.470711e+001
      vertex  6.450000e+000 -1.117173e+001  1.400000e+001
    endloop
  endfacet
  facet normal  3.357628e-001 -1.938528e-001  9.217834e-001
    outer loop
      vertex  1.118234e+001 -4.070040e+000  1.500000e+001
      vertex  9.115929e+000 -7.649173e+000  1.500000e+001
      vertex  1.184681e+001 -4.311884e+000  1.470711e+001
    endloop
  endfacet
  facet normal  3.357627e-001 -1.938527e-001  9.217834e-001
    outer loop
      vertex  1.184681e+001 -4.311884e+000  1.470711e+001
      vertex  9.115929e+000 -7.649173e+000  1.500000e+001
      vertex  9.657604e+000 -8.103692e+000  1.470711e+001
    endloop
  endfacet
  facet normal  8.018756e-001 -4.629631e-001  3.777044e-001
    outer loop
      vertex  1.184681e+001 -4.311884e+000  1.470711e+001
      vertex  9.657604e+000 -8.103692e+000  1.470711e+001
      vertex  1.212204e+001 -4.412060e+000  1.400000e+001
    endloop
  endfacet
  facet normal  8.018757e-001 -4.629632e-001  3.777041e-001
    outer loop
      vertex  1.212204e+001 -4.412060e+000  1.400000e+001
      vertex  9.657604e+000 -8.103692e+000  1.470711e+001
      vertex  9.881973e+000 -8.291960e+000  1.400000e+001
    endloop
  endfacet
  facet normal  9.848078e-001 -1.736483e-001  0.000000e+000
    outer loop
      vertex -1.100000e+001  6.232048e-015  1.500000e+001
      vertex -1.100000e+001  6.232048e-015 -1.500000e+001
      vertex -1.033662e+001  3.762222e+000  1.500000e+001
    endloop
  endfacet
  facet normal  9.848078e-001 -1.736483e-001  0.000000e+000
    outer loop
      vertex -1.033662e+001  3.762222e+000  1.500000e+001
      vertex -1.100000e+001  6.232048e-015 -1.500000e+001
      vertex -1.033662e+001  3.762222e+000 -1.500000e+001
    endloop
  endfacet
  facet normal  8.660255e-001 -4.999999e-001  0.000000e+000
    outer loop
      vertex -1.033662e+001  3.762222e+000  1.500000e+001
      vertex -1.033662e+001  3.762222e+000 -1.500000e+001
      vertex -8.426489e+000  7.070664e+000  1.500000e+001
    endloop
  endfacet
  facet normal  8.660255e-001 -4.999999e-001  0.000000e+000
    outer loop
      vertex -8.426489e+000  7.070664e+000  1.500000e+001
      vertex -1.033662e+001  3.762222e+000 -1.500000e+001
      vertex -8.426489e+000  7.070664e+000 -1.500000e+001
    endloop
  endfacet
  facet normal  6.427876e-001 -7.660444e-001  0.000000e+000
    outer loop
      vertex -8.426489e+000  7.070664e+000  1.500000e+001
      vertex -8.426489e+000  7.070664e+000 -1.500000e+001
      vertex -5.500000e+000  9.526279e+000  1.500000e+001
    endloop
  endfacet
  facet normal  6.427876e-001 -7.660444e-001  0.000000e+000
    outer loop
      vertex -5.500000e+000  9.526279e+000  1.500000e+001
      vertex -8.426489e+000  7.070664e+000 -1.500000e+001
      vertex -5.500000e+000  9.526279e+000 -1.500000e+001
    endloop
  endfacet
  facet normal  3.420203e-001 -9.396927e-001  0.000000e+000
    outer loop
      vertex -5.500000e+000  9.526279e+000  1.500000e+001
      vertex -5.500000e+000  9.526279e+000 -1.500000e+001
      vertex -1.910130e+000  1.083289e+001  1.500000e+001
    endloop
  endfacet
  facet normal  3.420203e-001 -9.396927e-001  0.000000e+000
    outer loop
      vertex -1.910130e+000  1.083289e+001  1.500000e+001
      vertex -5.500000e+000  9.526279e+000 -1.500000e+001
      vertex -1.910130e+000  1.083289e+001 -1.500000e+001
    endloop
  endfacet
  facet normal  0.000000e+000 -1.000000e+000  0.000000e+000
    outer loop
      vertex -1.910130e+000  1.083289e+001  1.500000e+001
      vertex -1.910130e+000  1.083289e+001 -1.500000e+001
      vertex  1.910130e+000  1.083289e+001  1.500000e+001
    endloop
  endfacet
  facet normal  0.000000e+000 -1.000000e+000  -0.000000e+000
    outer loop
      vertex  1.910130e+000  1.083289e+001  1.500000e+001
      vertex -1.910130e+000  1.083289e+001 -1.500000e+001
      vertex  1.910130e+000  1.083289e+001 -1.500000e+001
    endloop
  endfacet
  facet normal -3.420203e-001 -9.396927e-001  0.000000e+000
    outer loop
      vertex  1.910130e+000  1.083289e+001  1.500000e+001
      vertex  1.910130e+000  1.083289e+001 -1.500000e+001
      vertex  5.500000e+000  9.526279e+000  1.500000e+001
    endloop
  endfacet
  facet normal -3.420203e-001 -9.396927e-001  -0.000000e+000
    outer loop
      vertex  5.500000e+000  9.526279e+000  1.500000e+001
      vertex  1.910130e+000  1.083289e+001 -1.500000e+001
      vertex  5.500000e+000  9.526279e+000 -1.500000e+001
    endloop
  endfacet
  facet normal -6.427876e-001 -7.660444e-001  0.000000e+000
    outer loop
      vertex  5.500000e+000  9.526279e+000  1.500000e+001
      vertex  5.500000e+000  9.526279e+000 -1.500000e+001
      vertex  8.426489e+000  7.070664e+000  1.500000e+001
    endloop
  endfacet
  facet normal -6.427876e-001 -7.660444e-001  -0.000000e+000
    outer loop
      vertex  8.426489e+000  7.070664e+000  1.500000e+001
      vertex  5.500000e+000  9.526279e+000 -1.500000e+001
      vertex  8.426489e+000  7.070664e+000 -1.500000e+001
    endloop
  endfacet
  facet normal -8.660255e-001 -4.999999e-001  0.000000e+000
    outer loop
      vertex  8.426489e+000  7.070664e+000  1.500000e+001
      vertex  8.426489e+000  7.070664e+000 -1.500000e+001
      vertex  1.033662e+001  3.762222e+000  1.500000e+001
    endloop
  endfacet
  facet normal -8.660255e-001 -4.999999e-001  -0.000000e+000
    outer loop
      vertex  1.033662e+001  3.762222e+000  1.500000e+001
      vertex  8.426489e+000  7.070664e+000 -1.500000e+001
      vertex  1.033662e+001  3.762222e+000 -1.500000e+001
    endloop
  endfacet
  facet normal -9.848078e-001 -1.736483e-001  0.000000e+000
    outer loop
      vertex  1.033662e+001  3.762222e+000  1.500000e+001
      vertex  1.033662e+001  3.762222e+000 -1.500000e+001
      vertex  1.100000e+001  0.000000e+000  1.500000e+001
    endloop
  endfacet
  facet normal -9.848078e-001 -1.736483e-001  -0.000000e+000
    outer loop
      vertex  1.100000e+001  0.000000e+000  1.500000e+001
      vertex  1.033662e+001  3.762222e+000 -1.500000e+001
      vertex  1.100000e+001  0.000000e+000 -1.500000e+001
    endloop
  endfacet
  facet normal -9.848078e-001  1.736483e-001  0.000000e+000
    outer loop
      vertex  1.100000e+001  0.000000e+000  1.500000e+001
      vertex  1.100000e+001  0.000000e+000 -1.500000e+001
      vertex  1.033662e+001 -3.762222e+000  1.500000e+001
    endloop
  endfacet
  facet normal -9.848078e-001  1.736483e-001  0.000000e+000
    outer loop
      vertex  1.033662e+001 -3.762222e+000  1.500000e+001
      vertex  1.100000e+001  0.000000e+000 -1.500000e+001
      vertex  1.033662e+001 -3.762222e+000 -1.500000e+001
    endloop
  endfacet
  facet normal -8.660255e-001  4.999999e-001  0.000000e+000
    outer loop
      vertex  1.033662e+001 -3.762222e+000  1.500000e+001
      vertex  1.033662e+001 -3.762222e+000 -1.500000e+001
      vertex  8.426489e+000 -7.070664e+000  1.500000e+001
    endloop
  endfacet
  facet normal -8.660255e-001  4.999999e-001  0.000000e+000
    outer loop
      vertex  8.426489e+000 -7.070664e+000  1.500000e+001
      vertex  1.033662e+001 -3.762222e+000 -1.500000e+001
      vertex  8.426489e+000 -7.070664e+000 -1.500000e+001
    endloop
  endfacet
  facet normal -6.427876e-001  7.660444e-001  0.000000e+000
    outer loop
      vertex  8.426489e+000 -7.070664e+000  1.500000e+001
      vertex  8.426489e+000 -7.070664e+000 -1.500000e+001
      vertex  5.500000e+000 -9.526279e+000  1.500000e+001
    endloop
  endfacet
  facet normal -6.427876e-001  7.660444e-001  0.000000e+000
    outer loop
      vertex  5.500000e+000 -9.526279e+000  1.500000e+001
      vertex  8.426489e+000 -7.070664e+000 -1.500000e+001
      vertex  5.500000e+000 -9.526279e+000 -1.500000e+001
    endloop
  endfacet
  facet normal -3.420203e-001  9.396927e-001  0.000000e+000
    outer loop
      vertex  5.500000e+000 -9.526279e+000  1.500000e+001
      vertex  5.500000e+000 -9.526279e+000 -1.500000e+001
      vertex  1.910130e+000 -1.083289e+001  1.500000e+001
    endloop
  endfacet
  facet normal -3.420203e-001  9.396927e-001  0.000000e+000
    outer loop
      vertex  1.910130e+000 -1.083289e+001  1.500000e+001
      vertex  5.500000e+000 -9.526279e+000 -1.500000e+001
      vertex  1.910130e+000 -1.083289e+001 -1.500000e+001
    endloop
  endfacet
  facet normal  0.000000e+000  1.000000e+000  -0.000000e+000
    outer loop
      vertex  1.910130e+000 -1.083289e+001  1.500000e+001
      vertex  1.910130e+000 -1.083289e+001 -1.500000e+001
      vertex -1.910130e+000 -1.083289e+001  1.500000e+001
    endloop
  endfacet
  facet normal  0.000000e+000  1.000000e+000  0.000000e+000
    outer loop
      vertex -1.910130e+000 -1.083289e+001  1.500000e+001
      vertex  1.910130e+000 -1.083289e+001 -1.500000e+001
      vertex -1.910130e+000 -1.083289e+001 -1.500000e+001
    endloop
  endfacet
  facet normal  3.420203e-001  9.396927e-001  -0.000000e+000
    outer loop
      vertex -1.910130e+000 -1.083289e+001  1.500000e+001
      vertex -1.910130e+000 -1.083289e+001 -1.500000e+001
      vertex -5.500000e+000 -9.526279e+000  1.500000e+001
    endloop
  endfacet
  facet normal  3.420203e-001  9.396927e-001  0.000000e+000
    outer loop
      vertex -5.500000e+000 -9.526279e+000  1.500000e+001
      vertex -1.910130e+000 -1.083289e+001 -1.500000e+001
      vertex -5.500000e+000 -9.526279e+000 -1.500000e+001
    endloop
  endfacet
  facet normal  6.427876e-001  7.660444e-001  -0.000000e+000
    outer loop
      vertex -5.500000e+000 -9.526279e+000  1.500000e+001
      vertex -5.500000e+000 -9.526279e+000 -1.500000e+001
      vertex -8.426489e+000 -7.070664e+000  1.500000e+001
    endloop
  endfacet
  facet normal  6.427876e-001  7.660444e-001  0.000000e+000
    outer loop
      vertex -8.426489e+000 -7.070664e+000  1.500000e+001
      vertex -5.500000e+000 -9.526279e+000 -1.500000e+001
      vertex -8.426489e+000 -7.070664e+000 -1.500000e+001
    endloop
  endfacet
  facet normal  8.660255e-001  4.999999e-001  -0.000000e+000
    outer loop
      vertex -8.426489e+000 -7.070664e+000  1.500000e+001
      vertex -8.426489e+000 -7.070664e+000 -1.500000e+001
      vertex -1.033662e+001 -3.762222e+000  1.500000e+001
    endloop
  endfacet
  facet normal  8.660255e-001  4.999999e-001  0.000000e+000
    outer loop
      vertex -1.033662e+001 -3.762222e+000  1.500000e+001
      vertex -8.426489e+000 -7.070664e+000 -1.500000e+001
      vertex -1.033662e+001 -3.762222e+000 -1.500000e+001
    endloop
  endfacet
  facet normal  9.848078e-001  1.736483e-001  -0.000000e+000
    outer loop
      vertex -1.033662e+001 -3.762222e+000  1.500000e+001
      vertex -1.033662e+001 -3.762222e+000 -1.500000e+001
      vertex -1.100000e+001  6.232048e-015  1.500000e+001
    endloop
  endfacet
  facet normal  9.848078e-001  1.736483e-001  0.000000e+000
    outer loop
      vertex -1.100000e+001  6.232048e-015  1.500000e+001
      vertex -1.033662e+001 -3.762222e+000 -1.500000e+001
      vertex -1.100000e+001  6.232048e-015 -1.500000e+001
    endloop
  endfacet
endsolid CATIA STL
