solid CATIA STL
  facet normal  9.848077e-001 -1.736482e-001  0.000000e+000
    outer loop
      vertex  1.285100e+001 -3.147483e-015 -1.400000e+001
      vertex  1.285100e+001 -3.147483e-015  1.400000e+001
      vertex  1.207599e+001 -4.395301e+000 -1.400000e+001
    endloop
  endfacet
  facet normal  9.848077e-001 -1.736482e-001  0.000000e+000
    outer loop
      vertex  1.207599e+001 -4.395301e+000 -1.400000e+001
      vertex  1.285100e+001 -3.147483e-015  1.400000e+001
      vertex  1.207599e+001 -4.395301e+000  1.400000e+001
    endloop
  endfacet
  facet normal  8.660254e-001 -4.999999e-001  0.000000e+000
    outer loop
      vertex  1.207599e+001 -4.395301e+000 -1.400000e+001
      vertex  1.207599e+001 -4.395301e+000  1.400000e+001
      vertex  9.844438e+000 -8.260464e+000 -1.400000e+001
    endloop
  endfacet
  facet normal  8.660254e-001 -4.999999e-001  0.000000e+000
    outer loop
      vertex  9.844438e+000 -8.260464e+000 -1.400000e+001
      vertex  1.207599e+001 -4.395301e+000  1.400000e+001
      vertex  9.844438e+000 -8.260464e+000  1.400000e+001
    endloop
  endfacet
  facet normal  6.427875e-001 -7.660444e-001  0.000000e+000
    outer loop
      vertex  9.844438e+000 -8.260464e+000 -1.400000e+001
      vertex  9.844438e+000 -8.260464e+000  1.400000e+001
      vertex  6.425500e+000 -1.112929e+001 -1.400000e+001
    endloop
  endfacet
  facet normal  6.427875e-001 -7.660444e-001  0.000000e+000
    outer loop
      vertex  6.425500e+000 -1.112929e+001 -1.400000e+001
      vertex  9.844438e+000 -8.260464e+000  1.400000e+001
      vertex  6.425500e+000 -1.112929e+001  1.400000e+001
    endloop
  endfacet
  facet normal  3.420202e-001 -9.396926e-001  0.000000e+000
    outer loop
      vertex  6.425500e+000 -1.112929e+001 -1.400000e+001
      vertex  6.425500e+000 -1.112929e+001  1.400000e+001
      vertex  2.231553e+000 -1.265576e+001 -1.400000e+001
    endloop
  endfacet
  facet normal  3.420202e-001 -9.396926e-001  0.000000e+000
    outer loop
      vertex  2.231553e+000 -1.265576e+001 -1.400000e+001
      vertex  6.425500e+000 -1.112929e+001  1.400000e+001
      vertex  2.231553e+000 -1.265576e+001  1.400000e+001
    endloop
  endfacet
  facet normal  0.000000e+000 -1.000000e+000  -0.000000e+000
    outer loop
      vertex  2.231553e+000 -1.265576e+001 -1.400000e+001
      vertex  2.231553e+000 -1.265576e+001  1.400000e+001
      vertex -2.231553e+000 -1.265576e+001 -1.400000e+001
    endloop
  endfacet
  facet normal  0.000000e+000 -1.000000e+000  0.000000e+000
    outer loop
      vertex -2.231553e+000 -1.265576e+001 -1.400000e+001
      vertex  2.231553e+000 -1.265576e+001  1.400000e+001
      vertex -2.231553e+000 -1.265576e+001  1.400000e+001
    endloop
  endfacet
  facet normal -3.420202e-001 -9.396926e-001  -0.000000e+000
    outer loop
      vertex -2.231553e+000 -1.265576e+001 -1.400000e+001
      vertex -2.231553e+000 -1.265576e+001  1.400000e+001
      vertex -6.425500e+000 -1.112929e+001 -1.400000e+001
    endloop
  endfacet
  facet normal -3.420202e-001 -9.396926e-001  0.000000e+000
    outer loop
      vertex -6.425500e+000 -1.112929e+001 -1.400000e+001
      vertex -2.231553e+000 -1.265576e+001  1.400000e+001
      vertex -6.425500e+000 -1.112929e+001  1.400000e+001
    endloop
  endfacet
  facet normal -6.427875e-001 -7.660444e-001  -0.000000e+000
    outer loop
      vertex -6.425500e+000 -1.112929e+001 -1.400000e+001
      vertex -6.425500e+000 -1.112929e+001  1.400000e+001
      vertex -9.844438e+000 -8.260464e+000 -1.400000e+001
    endloop
  endfacet
  facet normal -6.427875e-001 -7.660444e-001  0.000000e+000
    outer loop
      vertex -9.844438e+000 -8.260464e+000 -1.400000e+001
      vertex -6.425500e+000 -1.112929e+001  1.400000e+001
      vertex -9.844438e+000 -8.260464e+000  1.400000e+001
    endloop
  endfacet
  facet normal -8.660254e-001 -4.999999e-001  -0.000000e+000
    outer loop
      vertex -9.844438e+000 -8.260464e+000 -1.400000e+001
      vertex -9.844438e+000 -8.260464e+000  1.400000e+001
      vertex -1.207599e+001 -4.395301e+000 -1.400000e+001
    endloop
  endfacet
  facet normal -8.660254e-001 -4.999999e-001  0.000000e+000
    outer loop
      vertex -1.207599e+001 -4.395301e+000 -1.400000e+001
      vertex -9.844438e+000 -8.260464e+000  1.400000e+001
      vertex -1.207599e+001 -4.395301e+000  1.400000e+001
    endloop
  endfacet
  facet normal -9.848077e-001 -1.736482e-001  -0.000000e+000
    outer loop
      vertex -1.207599e+001 -4.395301e+000 -1.400000e+001
      vertex -1.207599e+001 -4.395301e+000  1.400000e+001
      vertex -1.285100e+001  1.298772e-014 -1.400000e+001
    endloop
  endfacet
  facet normal -9.848077e-001 -1.736482e-001  0.000000e+000
    outer loop
      vertex -1.285100e+001  1.298772e-014 -1.400000e+001
      vertex -1.207599e+001 -4.395301e+000  1.400000e+001
      vertex -1.285100e+001  1.298772e-014  1.400000e+001
    endloop
  endfacet
  facet normal -9.848077e-001  1.736482e-001  0.000000e+000
    outer loop
      vertex -1.285100e+001  1.298772e-014 -1.400000e+001
      vertex -1.285100e+001  1.298772e-014  1.400000e+001
      vertex -1.207599e+001  4.395301e+000 -1.400000e+001
    endloop
  endfacet
  facet normal -9.848077e-001  1.736482e-001  0.000000e+000
    outer loop
      vertex -1.207599e+001  4.395301e+000 -1.400000e+001
      vertex -1.285100e+001  1.298772e-014  1.400000e+001
      vertex -1.207599e+001  4.395301e+000  1.400000e+001
    endloop
  endfacet
  facet normal -8.660254e-001  4.999999e-001  0.000000e+000
    outer loop
      vertex -1.207599e+001  4.395301e+000 -1.400000e+001
      vertex -1.207599e+001  4.395301e+000  1.400000e+001
      vertex -9.844438e+000  8.260464e+000 -1.400000e+001
    endloop
  endfacet
  facet normal -8.660254e-001  4.999999e-001  0.000000e+000
    outer loop
      vertex -9.844438e+000  8.260464e+000 -1.400000e+001
      vertex -1.207599e+001  4.395301e+000  1.400000e+001
      vertex -9.844438e+000  8.260464e+000  1.400000e+001
    endloop
  endfacet
  facet normal -6.427875e-001  7.660444e-001  0.000000e+000
    outer loop
      vertex -9.844438e+000  8.260464e+000 -1.400000e+001
      vertex -9.844438e+000  8.260464e+000  1.400000e+001
      vertex -6.425500e+000  1.112929e+001 -1.400000e+001
    endloop
  endfacet
  facet normal -6.427875e-001  7.660444e-001  0.000000e+000
    outer loop
      vertex -6.425500e+000  1.112929e+001 -1.400000e+001
      vertex -9.844438e+000  8.260464e+000  1.400000e+001
      vertex -6.425500e+000  1.112929e+001  1.400000e+001
    endloop
  endfacet
  facet normal -3.420202e-001  9.396926e-001  0.000000e+000
    outer loop
      vertex -6.425500e+000  1.112929e+001 -1.400000e+001
      vertex -6.425500e+000  1.112929e+001  1.400000e+001
      vertex -2.231553e+000  1.265576e+001 -1.400000e+001
    endloop
  endfacet
  facet normal -3.420202e-001  9.396926e-001  0.000000e+000
    outer loop
      vertex -2.231553e+000  1.265576e+001 -1.400000e+001
      vertex -6.425500e+000  1.112929e+001  1.400000e+001
      vertex -2.231553e+000  1.265576e+001  1.400000e+001
    endloop
  endfacet
  facet normal  0.000000e+000  1.000000e+000  0.000000e+000
    outer loop
      vertex -2.231553e+000  1.265576e+001 -1.400000e+001
      vertex -2.231553e+000  1.265576e+001  1.400000e+001
      vertex  2.231553e+000  1.265576e+001 -1.400000e+001
    endloop
  endfacet
  facet normal  0.000000e+000  1.000000e+000  -0.000000e+000
    outer loop
      vertex  2.231553e+000  1.265576e+001 -1.400000e+001
      vertex -2.231553e+000  1.265576e+001  1.400000e+001
      vertex  2.231553e+000  1.265576e+001  1.400000e+001
    endloop
  endfacet
  facet normal  3.420202e-001  9.396926e-001  0.000000e+000
    outer loop
      vertex  2.231553e+000  1.265576e+001 -1.400000e+001
      vertex  2.231553e+000  1.265576e+001  1.400000e+001
      vertex  6.425500e+000  1.112929e+001 -1.400000e+001
    endloop
  endfacet
  facet normal  3.420202e-001  9.396926e-001  -0.000000e+000
    outer loop
      vertex  6.425500e+000  1.112929e+001 -1.400000e+001
      vertex  2.231553e+000  1.265576e+001  1.400000e+001
      vertex  6.425500e+000  1.112929e+001  1.400000e+001
    endloop
  endfacet
  facet normal  6.427875e-001  7.660444e-001  0.000000e+000
    outer loop
      vertex  6.425500e+000  1.112929e+001 -1.400000e+001
      vertex  6.425500e+000  1.112929e+001  1.400000e+001
      vertex  9.844438e+000  8.260464e+000 -1.400000e+001
    endloop
  endfacet
  facet normal  6.427875e-001  7.660444e-001  -0.000000e+000
    outer loop
      vertex  9.844438e+000  8.260464e+000 -1.400000e+001
      vertex  6.425500e+000  1.112929e+001  1.400000e+001
      vertex  9.844438e+000  8.260464e+000  1.400000e+001
    endloop
  endfacet
  facet normal  8.660254e-001  4.999999e-001  0.000000e+000
    outer loop
      vertex  9.844438e+000  8.260464e+000 -1.400000e+001
      vertex  9.844438e+000  8.260464e+000  1.400000e+001
      vertex  1.207599e+001  4.395301e+000 -1.400000e+001
    endloop
  endfacet
  facet normal  8.660254e-001  4.999999e-001  -0.000000e+000
    outer loop
      vertex  1.207599e+001  4.395301e+000 -1.400000e+001
      vertex  9.844438e+000  8.260464e+000  1.400000e+001
      vertex  1.207599e+001  4.395301e+000  1.400000e+001
    endloop
  endfacet
  facet normal  9.848077e-001  1.736482e-001  0.000000e+000
    outer loop
      vertex  1.207599e+001  4.395301e+000 -1.400000e+001
      vertex  1.207599e+001  4.395301e+000  1.400000e+001
      vertex  1.285100e+001 -3.147483e-015 -1.400000e+001
    endloop
  endfacet
  facet normal  9.848077e-001  1.736482e-001  -0.000000e+000
    outer loop
      vertex  1.285100e+001 -3.147483e-015 -1.400000e+001
      vertex  1.207599e+001  4.395301e+000  1.400000e+001
      vertex  1.285100e+001 -3.147483e-015  1.400000e+001
    endloop
  endfacet
  facet normal  0.000000e+000  -0.000000e+000 -9.999999e-001
    outer loop
      vertex -5.925500e+000 -1.026327e+001 -1.500000e+001
      vertex -5.475500e+000 -9.483844e+000 -1.500000e+001
      vertex -2.057904e+000 -1.167096e+001 -1.500000e+001
    endloop
  endfacet
  facet normal  0.000000e+000  0.000000e+000 -1.000000e+000
    outer loop
      vertex -2.057904e+000 -1.167096e+001 -1.500000e+001
      vertex -5.475500e+000 -9.483844e+000 -1.500000e+001
      vertex -1.901621e+000 -1.078463e+001 -1.500000e+001
    endloop
  endfacet
  facet normal  0.000000e+000  -0.000000e+000 -1.000000e+000
    outer loop
      vertex -2.057904e+000 -1.167096e+001 -1.500000e+001
      vertex -1.901621e+000 -1.078463e+001 -1.500000e+001
      vertex  2.057904e+000 -1.167096e+001 -1.500000e+001
    endloop
  endfacet
  facet normal  0.000000e+000  0.000000e+000 -1.000000e+000
    outer loop
      vertex  2.057904e+000 -1.167096e+001 -1.500000e+001
      vertex -1.901621e+000 -1.078463e+001 -1.500000e+001
      vertex  1.901621e+000 -1.078463e+001 -1.500000e+001
    endloop
  endfacet
  facet normal  0.000000e+000  0.000000e+000 -1.000000e+000
    outer loop
      vertex  2.057904e+000 -1.167096e+001 -1.500000e+001
      vertex  1.901621e+000 -1.078463e+001 -1.500000e+001
      vertex  5.925500e+000 -1.026327e+001 -1.500000e+001
    endloop
  endfacet
  facet normal  0.000000e+000  0.000000e+000 -9.999999e-001
    outer loop
      vertex  5.925500e+000  1.026327e+001 -1.500000e+001
      vertex  5.475500e+000  9.483844e+000 -1.500000e+001
      vertex  2.057904e+000  1.167096e+001 -1.500000e+001
    endloop
  endfacet
  facet normal  0.000000e+000  -0.000000e+000 -1.000000e+000
    outer loop
      vertex  2.057904e+000  1.167096e+001 -1.500000e+001
      vertex  5.475500e+000  9.483844e+000 -1.500000e+001
      vertex  1.901621e+000  1.078463e+001 -1.500000e+001
    endloop
  endfacet
  facet normal  0.000000e+000  0.000000e+000 -1.000000e+000
    outer loop
      vertex  2.057904e+000  1.167096e+001 -1.500000e+001
      vertex  1.901621e+000  1.078463e+001 -1.500000e+001
      vertex -2.057904e+000  1.167096e+001 -1.500000e+001
    endloop
  endfacet
  facet normal  0.000000e+000  0.000000e+000 -1.000000e+000
    outer loop
      vertex -2.057904e+000  1.167096e+001 -1.500000e+001
      vertex  1.901621e+000  1.078463e+001 -1.500000e+001
      vertex -1.901621e+000  1.078463e+001 -1.500000e+001
    endloop
  endfacet
  facet normal  -0.000000e+000  0.000000e+000 -1.000000e+000
    outer loop
      vertex -2.057904e+000  1.167096e+001 -1.500000e+001
      vertex -1.901621e+000  1.078463e+001 -1.500000e+001
      vertex -5.925500e+000  1.026327e+001 -1.500000e+001
    endloop
  endfacet
  facet normal  0.000000e+000  0.000000e+000 -1.000000e+000
    outer loop
      vertex -5.475500e+000 -9.483844e+000 -1.500000e+001
      vertex -5.925500e+000 -1.026327e+001 -1.500000e+001
      vertex -8.388952e+000 -7.039167e+000 -1.500000e+001
    endloop
  endfacet
  facet normal  0.000000e+000  -0.000000e+000 -1.000000e+000
    outer loop
      vertex -8.388952e+000 -7.039167e+000 -1.500000e+001
      vertex -5.925500e+000 -1.026327e+001 -1.500000e+001
      vertex -9.078393e+000 -7.617676e+000 -1.500000e+001
    endloop
  endfacet
  facet normal  0.000000e+000  0.000000e+000 -1.000000e+000
    outer loop
      vertex -8.388952e+000 -7.039167e+000 -1.500000e+001
      vertex -9.078393e+000 -7.617676e+000 -1.500000e+001
      vertex -1.029057e+001 -3.745463e+000 -1.500000e+001
    endloop
  endfacet
  facet normal  0.000000e+000  -0.000000e+000 -1.000000e+000
    outer loop
      vertex -1.029057e+001 -3.745463e+000 -1.500000e+001
      vertex -9.078393e+000 -7.617676e+000 -1.500000e+001
      vertex -1.113630e+001 -4.053281e+000 -1.500000e+001
    endloop
  endfacet
  facet normal  0.000000e+000  0.000000e+000 -1.000000e+000
    outer loop
      vertex -1.029057e+001 -3.745463e+000 -1.500000e+001
      vertex -1.113630e+001 -4.053281e+000 -1.500000e+001
      vertex -1.095100e+001 -3.522154e-015 -1.500000e+001
    endloop
  endfacet
  facet normal  -0.000000e+000  0.000000e+000 -9.999999e-001
    outer loop
      vertex -1.095100e+001 -3.522154e-015 -1.500000e+001
      vertex -1.113630e+001 -4.053281e+000 -1.500000e+001
      vertex -1.185100e+001  2.503606e-008 -1.500000e+001
    endloop
  endfacet
  facet normal  0.000000e+000  0.000000e+000 -1.000000e+000
    outer loop
      vertex -1.095100e+001 -3.522154e-015 -1.500000e+001
      vertex -1.185100e+001  2.503606e-008 -1.500000e+001
      vertex -1.029057e+001  3.745463e+000 -1.500000e+001
    endloop
  endfacet
  facet normal  -0.000000e+000  0.000000e+000 -1.000000e+000
    outer loop
      vertex -1.029057e+001  3.745463e+000 -1.500000e+001
      vertex -1.185100e+001  2.503606e-008 -1.500000e+001
      vertex -1.113630e+001  4.053281e+000 -1.500000e+001
    endloop
  endfacet
  facet normal  0.000000e+000  0.000000e+000 -1.000000e+000
    outer loop
      vertex -1.029057e+001  3.745463e+000 -1.500000e+001
      vertex -1.113630e+001  4.053281e+000 -1.500000e+001
      vertex -8.388952e+000  7.039167e+000 -1.500000e+001
    endloop
  endfacet
  facet normal  -0.000000e+000  0.000000e+000 -1.000000e+000
    outer loop
      vertex -8.388952e+000  7.039167e+000 -1.500000e+001
      vertex -1.113630e+001  4.053281e+000 -1.500000e+001
      vertex -9.078393e+000  7.617676e+000 -1.500000e+001
    endloop
  endfacet
  facet normal  0.000000e+000  0.000000e+000 -1.000000e+000
    outer loop
      vertex -8.388952e+000  7.039167e+000 -1.500000e+001
      vertex -9.078393e+000  7.617676e+000 -1.500000e+001
      vertex -5.475500e+000  9.483844e+000 -1.500000e+001
    endloop
  endfacet
  facet normal  -0.000000e+000  0.000000e+000 -9.999999e-001
    outer loop
      vertex -5.475500e+000  9.483844e+000 -1.500000e+001
      vertex -9.078393e+000  7.617676e+000 -1.500000e+001
      vertex -5.925500e+000  1.026327e+001 -1.500000e+001
    endloop
  endfacet
  facet normal  0.000000e+000  0.000000e+000 -1.000000e+000
    outer loop
      vertex -5.475500e+000  9.483844e+000 -1.500000e+001
      vertex -5.925500e+000  1.026327e+001 -1.500000e+001
      vertex -1.901621e+000  1.078463e+001 -1.500000e+001
    endloop
  endfacet
  facet normal  0.000000e+000  -0.000000e+000 -1.000000e+000
    outer loop
      vertex  5.475500e+000  9.483844e+000 -1.500000e+001
      vertex  5.925500e+000  1.026327e+001 -1.500000e+001
      vertex  8.388952e+000  7.039167e+000 -1.500000e+001
    endloop
  endfacet
  facet normal  0.000000e+000  0.000000e+000 -1.000000e+000
    outer loop
      vertex  8.388952e+000  7.039167e+000 -1.500000e+001
      vertex  5.925500e+000  1.026327e+001 -1.500000e+001
      vertex  9.078393e+000  7.617676e+000 -1.500000e+001
    endloop
  endfacet
  facet normal  0.000000e+000  -0.000000e+000 -1.000000e+000
    outer loop
      vertex  8.388952e+000  7.039167e+000 -1.500000e+001
      vertex  9.078393e+000  7.617676e+000 -1.500000e+001
      vertex  1.029057e+001  3.745463e+000 -1.500000e+001
    endloop
  endfacet
  facet normal  0.000000e+000  0.000000e+000 -1.000000e+000
    outer loop
      vertex  1.029057e+001  3.745463e+000 -1.500000e+001
      vertex  9.078393e+000  7.617676e+000 -1.500000e+001
      vertex  1.113630e+001  4.053281e+000 -1.500000e+001
    endloop
  endfacet
  facet normal  0.000000e+000  0.000000e+000 -1.000000e+000
    outer loop
      vertex  1.029057e+001  3.745463e+000 -1.500000e+001
      vertex  1.113630e+001  4.053281e+000 -1.500000e+001
      vertex  1.095100e+001  0.000000e+000 -1.500000e+001
    endloop
  endfacet
  facet normal  0.000000e+000  0.000000e+000 -9.999999e-001
    outer loop
      vertex  1.095100e+001  0.000000e+000 -1.500000e+001
      vertex  1.113630e+001  4.053281e+000 -1.500000e+001
      vertex  1.185100e+001 -3.790741e-015 -1.500000e+001
    endloop
  endfacet
  facet normal  -0.000000e+000  0.000000e+000 -1.000000e+000
    outer loop
      vertex  1.095100e+001  0.000000e+000 -1.500000e+001
      vertex  1.185100e+001 -3.790741e-015 -1.500000e+001
      vertex  1.029057e+001 -3.745463e+000 -1.500000e+001
    endloop
  endfacet
  facet normal  0.000000e+000  0.000000e+000 -1.000000e+000
    outer loop
      vertex  1.029057e+001 -3.745463e+000 -1.500000e+001
      vertex  1.185100e+001 -3.790741e-015 -1.500000e+001
      vertex  1.113630e+001 -4.053281e+000 -1.500000e+001
    endloop
  endfacet
  facet normal  -0.000000e+000  0.000000e+000 -1.000000e+000
    outer loop
      vertex  1.029057e+001 -3.745463e+000 -1.500000e+001
      vertex  1.113630e+001 -4.053281e+000 -1.500000e+001
      vertex  8.388952e+000 -7.039167e+000 -1.500000e+001
    endloop
  endfacet
  facet normal  0.000000e+000  0.000000e+000 -1.000000e+000
    outer loop
      vertex  8.388952e+000 -7.039167e+000 -1.500000e+001
      vertex  1.113630e+001 -4.053281e+000 -1.500000e+001
      vertex  9.078393e+000 -7.617676e+000 -1.500000e+001
    endloop
  endfacet
  facet normal  -0.000000e+000  0.000000e+000 -1.000000e+000
    outer loop
      vertex  8.388952e+000 -7.039167e+000 -1.500000e+001
      vertex  9.078393e+000 -7.617676e+000 -1.500000e+001
      vertex  5.475500e+000 -9.483844e+000 -1.500000e+001
    endloop
  endfacet
  facet normal  0.000000e+000  0.000000e+000 -9.999999e-001
    outer loop
      vertex  5.475500e+000 -9.483844e+000 -1.500000e+001
      vertex  9.078393e+000 -7.617676e+000 -1.500000e+001
      vertex  5.925500e+000 -1.026327e+001 -1.500000e+001
    endloop
  endfacet
  facet normal  -0.000000e+000  0.000000e+000 -1.000000e+000
    outer loop
      vertex  5.475500e+000 -9.483844e+000 -1.500000e+001
      vertex  5.925500e+000 -1.026327e+001 -1.500000e+001
      vertex  1.901621e+000 -1.078463e+001 -1.500000e+001
    endloop
  endfacet
  facet normal -9.118592e-001  1.607854e-001 -3.777048e-001
    outer loop
      vertex -1.285100e+001  1.298772e-014 -1.400000e+001
      vertex -1.207599e+001  4.395301e+000 -1.400000e+001
      vertex -1.255811e+001  2.600464e-008 -1.470711e+001
    endloop
  endfacet
  facet normal -9.118593e-001  1.607853e-001 -3.777044e-001
    outer loop
      vertex -1.255811e+001  2.600464e-008 -1.470711e+001
      vertex -1.207599e+001  4.395301e+000 -1.400000e+001
      vertex -1.180076e+001  4.295125e+000 -1.470711e+001
    endloop
  endfacet
  facet normal -3.818155e-001  6.732434e-002 -9.217833e-001
    outer loop
      vertex -1.255811e+001  2.600464e-008 -1.470711e+001
      vertex -1.180076e+001  4.295125e+000 -1.470711e+001
      vertex -1.185100e+001  2.503606e-008 -1.500000e+001
    endloop
  endfacet
  facet normal -3.818154e-001  6.732434e-002 -9.217833e-001
    outer loop
      vertex -1.185100e+001  2.503606e-008 -1.500000e+001
      vertex -1.180076e+001  4.295125e+000 -1.470711e+001
      vertex -1.113630e+001  4.053281e+000 -1.500000e+001
    endloop
  endfacet
  facet normal  9.118593e-001  1.607854e-001 -3.777044e-001
    outer loop
      vertex  1.207599e+001  4.395301e+000 -1.400000e+001
      vertex  1.285100e+001 -3.147483e-015 -1.400000e+001
      vertex  1.180076e+001  4.295125e+000 -1.470711e+001
    endloop
  endfacet
  facet normal  9.118592e-001  1.607853e-001 -3.777048e-001
    outer loop
      vertex  1.180076e+001  4.295125e+000 -1.470711e+001
      vertex  1.285100e+001 -3.147483e-015 -1.400000e+001
      vertex  1.255811e+001 -5.329071e-015 -1.470711e+001
    endloop
  endfacet
  facet normal  3.818154e-001  6.732433e-002 -9.217833e-001
    outer loop
      vertex  1.180076e+001  4.295125e+000 -1.470711e+001
      vertex  1.255811e+001 -5.329071e-015 -1.470711e+001
      vertex  1.113630e+001  4.053281e+000 -1.500000e+001
    endloop
  endfacet
  facet normal  3.818155e-001  6.732436e-002 -9.217832e-001
    outer loop
      vertex  1.113630e+001  4.053281e+000 -1.500000e+001
      vertex  1.255811e+001 -5.329071e-015 -1.470711e+001
      vertex  1.185100e+001 -3.790741e-015 -1.500000e+001
    endloop
  endfacet
  facet normal  8.018752e-001  4.629628e-001 -3.777056e-001
    outer loop
      vertex  9.844438e+000  8.260464e+000 -1.400000e+001
      vertex  1.207599e+001  4.395301e+000 -1.400000e+001
      vertex  9.620068e+000  8.072195e+000 -1.470711e+001
    endloop
  endfacet
  facet normal  8.018756e-001  4.629632e-001 -3.777045e-001
    outer loop
      vertex  9.620068e+000  8.072195e+000 -1.470711e+001
      vertex  1.207599e+001  4.395301e+000 -1.400000e+001
      vertex  1.180076e+001  4.295125e+000 -1.470711e+001
    endloop
  endfacet
  facet normal  3.357630e-001  1.938529e-001 -9.217831e-001
    outer loop
      vertex  9.620068e+000  8.072195e+000 -1.470711e+001
      vertex  1.180076e+001  4.295125e+000 -1.470711e+001
      vertex  9.078393e+000  7.617676e+000 -1.500000e+001
    endloop
  endfacet
  facet normal  3.357629e-001  1.938528e-001 -9.217833e-001
    outer loop
      vertex  9.078393e+000  7.617676e+000 -1.500000e+001
      vertex  1.180076e+001  4.295125e+000 -1.470711e+001
      vertex  1.113630e+001  4.053281e+000 -1.500000e+001
    endloop
  endfacet
  facet normal  5.951738e-001  7.093007e-001 -3.777043e-001
    outer loop
      vertex  6.425500e+000  1.112929e+001 -1.400000e+001
      vertex  9.844438e+000  8.260464e+000 -1.400000e+001
      vertex  6.279053e+000  1.087564e+001 -1.470711e+001
    endloop
  endfacet
  facet normal  5.951737e-001  7.093002e-001 -3.777056e-001
    outer loop
      vertex  6.279053e+000  1.087564e+001 -1.470711e+001
      vertex  9.844438e+000  8.260464e+000 -1.400000e+001
      vertex  9.620068e+000  8.072195e+000 -1.470711e+001
    endloop
  endfacet
  facet normal  2.492124e-001  2.969997e-001 -9.217833e-001
    outer loop
      vertex  6.279053e+000  1.087564e+001 -1.470711e+001
      vertex  9.620068e+000  8.072195e+000 -1.470711e+001
      vertex  5.925500e+000  1.026327e+001 -1.500000e+001
    endloop
  endfacet
  facet normal  2.492125e-001  2.969998e-001 -9.217832e-001
    outer loop
      vertex  5.925500e+000  1.026327e+001 -1.500000e+001
      vertex  9.620068e+000  8.072195e+000 -1.470711e+001
      vertex  9.078393e+000  7.617676e+000 -1.500000e+001
    endloop
  endfacet
  facet normal  3.166855e-001  8.700860e-001 -3.777047e-001
    outer loop
      vertex  2.231553e+000  1.265576e+001 -1.400000e+001
      vertex  6.425500e+000  1.112929e+001 -1.400000e+001
      vertex  2.180692e+000  1.236732e+001 -1.470711e+001
    endloop
  endfacet
  facet normal  3.166854e-001  8.700862e-001 -3.777040e-001
    outer loop
      vertex  2.180692e+000  1.236732e+001 -1.470711e+001
      vertex  6.425500e+000  1.112929e+001 -1.400000e+001
      vertex  6.279053e+000  1.087564e+001 -1.470711e+001
    endloop
  endfacet
  facet normal  1.326030e-001  3.643240e-001 -9.217833e-001
    outer loop
      vertex  2.180692e+000  1.236732e+001 -1.470711e+001
      vertex  6.279053e+000  1.087564e+001 -1.470711e+001
      vertex  2.057904e+000  1.167096e+001 -1.500000e+001
    endloop
  endfacet
  facet normal  1.326031e-001  3.643241e-001 -9.217832e-001
    outer loop
      vertex  2.057904e+000  1.167096e+001 -1.500000e+001
      vertex  6.279053e+000  1.087564e+001 -1.470711e+001
      vertex  5.925500e+000  1.026327e+001 -1.500000e+001
    endloop
  endfacet
  facet normal  0.000000e+000  9.259262e-001 -3.777047e-001
    outer loop
      vertex -2.231553e+000  1.265576e+001 -1.400000e+001
      vertex  2.231553e+000  1.265576e+001 -1.400000e+001
      vertex -2.180692e+000  1.236732e+001 -1.470711e+001
    endloop
  endfacet
  facet normal  0.000000e+000  9.259261e-001 -3.777046e-001
    outer loop
      vertex -2.180692e+000  1.236732e+001 -1.470711e+001
      vertex  2.231553e+000  1.265576e+001 -1.400000e+001
      vertex  2.180692e+000  1.236732e+001 -1.470711e+001
    endloop
  endfacet
  facet normal  0.000000e+000  3.877054e-001 -9.217833e-001
    outer loop
      vertex -2.180692e+000  1.236732e+001 -1.470711e+001
      vertex  2.180692e+000  1.236732e+001 -1.470711e+001
      vertex -2.057904e+000  1.167096e+001 -1.500000e+001
    endloop
  endfacet
  facet normal  0.000000e+000  3.877054e-001 -9.217833e-001
    outer loop
      vertex -2.057904e+000  1.167096e+001 -1.500000e+001
      vertex  2.180692e+000  1.236732e+001 -1.470711e+001
      vertex  2.057904e+000  1.167096e+001 -1.500000e+001
    endloop
  endfacet
  facet normal -3.166856e-001  8.700862e-001 -3.777041e-001
    outer loop
      vertex -6.425500e+000  1.112929e+001 -1.400000e+001
      vertex -2.231553e+000  1.265576e+001 -1.400000e+001
      vertex -6.279053e+000  1.087564e+001 -1.470711e+001
    endloop
  endfacet
  facet normal -3.166853e-001  8.700860e-001 -3.777046e-001
    outer loop
      vertex -6.279053e+000  1.087564e+001 -1.470711e+001
      vertex -2.231553e+000  1.265576e+001 -1.400000e+001
      vertex -2.180692e+000  1.236732e+001 -1.470711e+001
    endloop
  endfacet
  facet normal -1.326031e-001  3.643240e-001 -9.217833e-001
    outer loop
      vertex -6.279053e+000  1.087564e+001 -1.470711e+001
      vertex -2.180692e+000  1.236732e+001 -1.470711e+001
      vertex -5.925500e+000  1.026327e+001 -1.500000e+001
    endloop
  endfacet
  facet normal -1.326030e-001  3.643239e-001 -9.217833e-001
    outer loop
      vertex -5.925500e+000  1.026327e+001 -1.500000e+001
      vertex -2.180692e+000  1.236732e+001 -1.470711e+001
      vertex -2.057904e+000  1.167096e+001 -1.500000e+001
    endloop
  endfacet
  facet normal -5.951735e-001  7.093003e-001 -3.777056e-001
    outer loop
      vertex -9.844438e+000  8.260464e+000 -1.400000e+001
      vertex -6.425500e+000  1.112929e+001 -1.400000e+001
      vertex -9.620068e+000  8.072195e+000 -1.470711e+001
    endloop
  endfacet
  facet normal -5.951740e-001  7.093005e-001 -3.777043e-001
    outer loop
      vertex -9.620068e+000  8.072195e+000 -1.470711e+001
      vertex -6.425500e+000  1.112929e+001 -1.400000e+001
      vertex -6.279053e+000  1.087564e+001 -1.470711e+001
    endloop
  endfacet
  facet normal -2.492125e-001  2.969998e-001 -9.217831e-001
    outer loop
      vertex -9.620068e+000  8.072195e+000 -1.470711e+001
      vertex -6.279053e+000  1.087564e+001 -1.470711e+001
      vertex -9.078393e+000  7.617676e+000 -1.500000e+001
    endloop
  endfacet
  facet normal -2.492123e-001  2.969997e-001 -9.217833e-001
    outer loop
      vertex -9.078393e+000  7.617676e+000 -1.500000e+001
      vertex -6.279053e+000  1.087564e+001 -1.470711e+001
      vertex -5.925500e+000  1.026327e+001 -1.500000e+001
    endloop
  endfacet
  facet normal -8.018757e-001  4.629630e-001 -3.777044e-001
    outer loop
      vertex -1.207599e+001  4.395301e+000 -1.400000e+001
      vertex -9.844438e+000  8.260464e+000 -1.400000e+001
      vertex -1.180076e+001  4.295125e+000 -1.470711e+001
    endloop
  endfacet
  facet normal -8.018751e-001  4.629630e-001 -3.777056e-001
    outer loop
      vertex -1.180076e+001  4.295125e+000 -1.470711e+001
      vertex -9.844438e+000  8.260464e+000 -1.400000e+001
      vertex -9.620068e+000  8.072195e+000 -1.470711e+001
    endloop
  endfacet
  facet normal -3.357628e-001  1.938528e-001 -9.217833e-001
    outer loop
      vertex -1.180076e+001  4.295125e+000 -1.470711e+001
      vertex -9.620068e+000  8.072195e+000 -1.470711e+001
      vertex -1.113630e+001  4.053281e+000 -1.500000e+001
    endloop
  endfacet
  facet normal -3.357631e-001  1.938529e-001 -9.217831e-001
    outer loop
      vertex -1.113630e+001  4.053281e+000 -1.500000e+001
      vertex -9.620068e+000  8.072195e+000 -1.470711e+001
      vertex -9.078393e+000  7.617676e+000 -1.500000e+001
    endloop
  endfacet
  facet normal  9.118592e-001 -1.607854e-001 -3.777048e-001
    outer loop
      vertex  1.285100e+001 -3.147483e-015 -1.400000e+001
      vertex  1.207599e+001 -4.395301e+000 -1.400000e+001
      vertex  1.255811e+001 -5.329071e-015 -1.470711e+001
    endloop
  endfacet
  facet normal  9.118593e-001 -1.607853e-001 -3.777044e-001
    outer loop
      vertex  1.255811e+001 -5.329071e-015 -1.470711e+001
      vertex  1.207599e+001 -4.395301e+000 -1.400000e+001
      vertex  1.180076e+001 -4.295125e+000 -1.470711e+001
    endloop
  endfacet
  facet normal  3.818155e-001 -6.732434e-002 -9.217833e-001
    outer loop
      vertex  1.255811e+001 -5.329071e-015 -1.470711e+001
      vertex  1.180076e+001 -4.295125e+000 -1.470711e+001
      vertex  1.185100e+001 -3.790741e-015 -1.500000e+001
    endloop
  endfacet
  facet normal  3.818154e-001 -6.732434e-002 -9.217833e-001
    outer loop
      vertex  1.185100e+001 -3.790741e-015 -1.500000e+001
      vertex  1.180076e+001 -4.295125e+000 -1.470711e+001
      vertex  1.113630e+001 -4.053281e+000 -1.500000e+001
    endloop
  endfacet
  facet normal -9.118593e-001 -1.607854e-001 -3.777044e-001
    outer loop
      vertex -1.207599e+001 -4.395301e+000 -1.400000e+001
      vertex -1.285100e+001  1.298772e-014 -1.400000e+001
      vertex -1.180076e+001 -4.295125e+000 -1.470711e+001
    endloop
  endfacet
  facet normal -9.118592e-001 -1.607853e-001 -3.777048e-001
    outer loop
      vertex -1.180076e+001 -4.295125e+000 -1.470711e+001
      vertex -1.285100e+001  1.298772e-014 -1.400000e+001
      vertex -1.255811e+001  2.600464e-008 -1.470711e+001
    endloop
  endfacet
  facet normal -3.818154e-001 -6.732433e-002 -9.217833e-001
    outer loop
      vertex -1.180076e+001 -4.295125e+000 -1.470711e+001
      vertex -1.255811e+001  2.600464e-008 -1.470711e+001
      vertex -1.113630e+001 -4.053281e+000 -1.500000e+001
    endloop
  endfacet
  facet normal -3.818155e-001 -6.732436e-002 -9.217832e-001
    outer loop
      vertex -1.113630e+001 -4.053281e+000 -1.500000e+001
      vertex -1.255811e+001  2.600464e-008 -1.470711e+001
      vertex -1.185100e+001  2.503606e-008 -1.500000e+001
    endloop
  endfacet
  facet normal -8.018752e-001 -4.629628e-001 -3.777056e-001
    outer loop
      vertex -9.844438e+000 -8.260464e+000 -1.400000e+001
      vertex -1.207599e+001 -4.395301e+000 -1.400000e+001
      vertex -9.620068e+000 -8.072195e+000 -1.470711e+001
    endloop
  endfacet
  facet normal -8.018756e-001 -4.629632e-001 -3.777045e-001
    outer loop
      vertex -9.620068e+000 -8.072195e+000 -1.470711e+001
      vertex -1.207599e+001 -4.395301e+000 -1.400000e+001
      vertex -1.180076e+001 -4.295125e+000 -1.470711e+001
    endloop
  endfacet
  facet normal -3.357630e-001 -1.938529e-001 -9.217831e-001
    outer loop
      vertex -9.620068e+000 -8.072195e+000 -1.470711e+001
      vertex -1.180076e+001 -4.295125e+000 -1.470711e+001
      vertex -9.078393e+000 -7.617676e+000 -1.500000e+001
    endloop
  endfacet
  facet normal -3.357629e-001 -1.938528e-001 -9.217833e-001
    outer loop
      vertex -9.078393e+000 -7.617676e+000 -1.500000e+001
      vertex -1.180076e+001 -4.295125e+000 -1.470711e+001
      vertex -1.113630e+001 -4.053281e+000 -1.500000e+001
    endloop
  endfacet
  facet normal -5.951738e-001 -7.093007e-001 -3.777043e-001
    outer loop
      vertex -6.425500e+000 -1.112929e+001 -1.400000e+001
      vertex -9.844438e+000 -8.260464e+000 -1.400000e+001
      vertex -6.279053e+000 -1.087564e+001 -1.470711e+001
    endloop
  endfacet
  facet normal -5.951737e-001 -7.093002e-001 -3.777056e-001
    outer loop
      vertex -6.279053e+000 -1.087564e+001 -1.470711e+001
      vertex -9.844438e+000 -8.260464e+000 -1.400000e+001
      vertex -9.620068e+000 -8.072195e+000 -1.470711e+001
    endloop
  endfacet
  facet normal -2.492124e-001 -2.969997e-001 -9.217833e-001
    outer loop
      vertex -6.279053e+000 -1.087564e+001 -1.470711e+001
      vertex -9.620068e+000 -8.072195e+000 -1.470711e+001
      vertex -5.925500e+000 -1.026327e+001 -1.500000e+001
    endloop
  endfacet
  facet normal -2.492125e-001 -2.969998e-001 -9.217832e-001
    outer loop
      vertex -5.925500e+000 -1.026327e+001 -1.500000e+001
      vertex -9.620068e+000 -8.072195e+000 -1.470711e+001
      vertex -9.078393e+000 -7.617676e+000 -1.500000e+001
    endloop
  endfacet
  facet normal -3.166855e-001 -8.700860e-001 -3.777047e-001
    outer loop
      vertex -2.231553e+000 -1.265576e+001 -1.400000e+001
      vertex -6.425500e+000 -1.112929e+001 -1.400000e+001
      vertex -2.180692e+000 -1.236732e+001 -1.470711e+001
    endloop
  endfacet
  facet normal -3.166854e-001 -8.700862e-001 -3.777040e-001
    outer loop
      vertex -2.180692e+000 -1.236732e+001 -1.470711e+001
      vertex -6.425500e+000 -1.112929e+001 -1.400000e+001
      vertex -6.279053e+000 -1.087564e+001 -1.470711e+001
    endloop
  endfacet
  facet normal -1.326030e-001 -3.643240e-001 -9.217833e-001
    outer loop
      vertex -2.180692e+000 -1.236732e+001 -1.470711e+001
      vertex -6.279053e+000 -1.087564e+001 -1.470711e+001
      vertex -2.057904e+000 -1.167096e+001 -1.500000e+001
    endloop
  endfacet
  facet normal -1.326031e-001 -3.643241e-001 -9.217832e-001
    outer loop
      vertex -2.057904e+000 -1.167096e+001 -1.500000e+001
      vertex -6.279053e+000 -1.087564e+001 -1.470711e+001
      vertex -5.925500e+000 -1.026327e+001 -1.500000e+001
    endloop
  endfacet
  facet normal  0.000000e+000 -9.259262e-001 -3.777047e-001
    outer loop
      vertex  2.231553e+000 -1.265576e+001 -1.400000e+001
      vertex -2.231553e+000 -1.265576e+001 -1.400000e+001
      vertex  2.180692e+000 -1.236732e+001 -1.470711e+001
    endloop
  endfacet
  facet normal  -0.000000e+000 -9.259261e-001 -3.777046e-001
    outer loop
      vertex  2.180692e+000 -1.236732e+001 -1.470711e+001
      vertex -2.231553e+000 -1.265576e+001 -1.400000e+001
      vertex -2.180692e+000 -1.236732e+001 -1.470711e+001
    endloop
  endfacet
  facet normal  0.000000e+000 -3.877054e-001 -9.217833e-001
    outer loop
      vertex  2.180692e+000 -1.236732e+001 -1.470711e+001
      vertex -2.180692e+000 -1.236732e+001 -1.470711e+001
      vertex  2.057904e+000 -1.167096e+001 -1.500000e+001
    endloop
  endfacet
  facet normal  -0.000000e+000 -3.877054e-001 -9.217833e-001
    outer loop
      vertex  2.057904e+000 -1.167096e+001 -1.500000e+001
      vertex -2.180692e+000 -1.236732e+001 -1.470711e+001
      vertex -2.057904e+000 -1.167096e+001 -1.500000e+001
    endloop
  endfacet
  facet normal  3.166856e-001 -8.700862e-001 -3.777041e-001
    outer loop
      vertex  6.425500e+000 -1.112929e+001 -1.400000e+001
      vertex  2.231553e+000 -1.265576e+001 -1.400000e+001
      vertex  6.279053e+000 -1.087564e+001 -1.470711e+001
    endloop
  endfacet
  facet normal  3.166853e-001 -8.700860e-001 -3.777046e-001
    outer loop
      vertex  6.279053e+000 -1.087564e+001 -1.470711e+001
      vertex  2.231553e+000 -1.265576e+001 -1.400000e+001
      vertex  2.180692e+000 -1.236732e+001 -1.470711e+001
    endloop
  endfacet
  facet normal  1.326031e-001 -3.643240e-001 -9.217833e-001
    outer loop
      vertex  6.279053e+000 -1.087564e+001 -1.470711e+001
      vertex  2.180692e+000 -1.236732e+001 -1.470711e+001
      vertex  5.925500e+000 -1.026327e+001 -1.500000e+001
    endloop
  endfacet
  facet normal  1.326030e-001 -3.643239e-001 -9.217833e-001
    outer loop
      vertex  5.925500e+000 -1.026327e+001 -1.500000e+001
      vertex  2.180692e+000 -1.236732e+001 -1.470711e+001
      vertex  2.057904e+000 -1.167096e+001 -1.500000e+001
    endloop
  endfacet
  facet normal  5.951735e-001 -7.093003e-001 -3.777056e-001
    outer loop
      vertex  9.844438e+000 -8.260464e+000 -1.400000e+001
      vertex  6.425500e+000 -1.112929e+001 -1.400000e+001
      vertex  9.620068e+000 -8.072195e+000 -1.470711e+001
    endloop
  endfacet
  facet normal  5.951740e-001 -7.093005e-001 -3.777043e-001
    outer loop
      vertex  9.620068e+000 -8.072195e+000 -1.470711e+001
      vertex  6.425500e+000 -1.112929e+001 -1.400000e+001
      vertex  6.279053e+000 -1.087564e+001 -1.470711e+001
    endloop
  endfacet
  facet normal  2.492125e-001 -2.969998e-001 -9.217831e-001
    outer loop
      vertex  9.620068e+000 -8.072195e+000 -1.470711e+001
      vertex  6.279053e+000 -1.087564e+001 -1.470711e+001
      vertex  9.078393e+000 -7.617676e+000 -1.500000e+001
    endloop
  endfacet
  facet normal  2.492123e-001 -2.969997e-001 -9.217833e-001
    outer loop
      vertex  9.078393e+000 -7.617676e+000 -1.500000e+001
      vertex  6.279053e+000 -1.087564e+001 -1.470711e+001
      vertex  5.925500e+000 -1.026327e+001 -1.500000e+001
    endloop
  endfacet
  facet normal  8.018757e-001 -4.629630e-001 -3.777044e-001
    outer loop
      vertex  1.207599e+001 -4.395301e+000 -1.400000e+001
      vertex  9.844438e+000 -8.260464e+000 -1.400000e+001
      vertex  1.180076e+001 -4.295125e+000 -1.470711e+001
    endloop
  endfacet
  facet normal  8.018751e-001 -4.629630e-001 -3.777056e-001
    outer loop
      vertex  1.180076e+001 -4.295125e+000 -1.470711e+001
      vertex  9.844438e+000 -8.260464e+000 -1.400000e+001
      vertex  9.620068e+000 -8.072195e+000 -1.470711e+001
    endloop
  endfacet
  facet normal  3.357628e-001 -1.938528e-001 -9.217833e-001
    outer loop
      vertex  1.180076e+001 -4.295125e+000 -1.470711e+001
      vertex  9.620068e+000 -8.072195e+000 -1.470711e+001
      vertex  1.113630e+001 -4.053281e+000 -1.500000e+001
    endloop
  endfacet
  facet normal  3.357631e-001 -1.938529e-001 -9.217831e-001
    outer loop
      vertex  1.113630e+001 -4.053281e+000 -1.500000e+001
      vertex  9.620068e+000 -8.072195e+000 -1.470711e+001
      vertex  9.078393e+000 -7.617676e+000 -1.500000e+001
    endloop
  endfacet
  facet normal  -0.000000e+000  0.000000e+000  1.000000e+000
    outer loop
      vertex -5.475500e+000 -9.483844e+000  1.500000e+001
      vertex -5.925500e+000 -1.026327e+001  1.500000e+001
      vertex -1.901621e+000 -1.078463e+001  1.500000e+001
    endloop
  endfacet
  facet normal  0.000000e+000  0.000000e+000  1.000000e+000
    outer loop
      vertex -1.901621e+000 -1.078463e+001  1.500000e+001
      vertex -5.925500e+000 -1.026327e+001  1.500000e+001
      vertex -2.057904e+000 -1.167096e+001  1.500000e+001
    endloop
  endfacet
  facet normal  0.000000e+000  0.000000e+000  1.000000e+000
    outer loop
      vertex -1.901621e+000 -1.078463e+001  1.500000e+001
      vertex -2.057904e+000 -1.167096e+001  1.500000e+001
      vertex  1.901621e+000 -1.078463e+001  1.500000e+001
    endloop
  endfacet
  facet normal  0.000000e+000  0.000000e+000  1.000000e+000
    outer loop
      vertex  1.901621e+000 -1.078463e+001  1.500000e+001
      vertex -2.057904e+000 -1.167096e+001  1.500000e+001
      vertex  2.057904e+000 -1.167096e+001  1.500000e+001
    endloop
  endfacet
  facet normal  0.000000e+000  -0.000000e+000  1.000000e+000
    outer loop
      vertex  1.901621e+000 -1.078463e+001  1.500000e+001
      vertex  2.057904e+000 -1.167096e+001  1.500000e+001
      vertex  5.925500e+000 -1.026327e+001  1.500000e+001
    endloop
  endfacet
  facet normal  0.000000e+000  0.000000e+000  1.000000e+000
    outer loop
      vertex  5.475500e+000  9.483844e+000  1.500000e+001
      vertex  5.925500e+000  1.026327e+001  1.500000e+001
      vertex  1.901621e+000  1.078463e+001  1.500000e+001
    endloop
  endfacet
  facet normal  -0.000000e+000  0.000000e+000  1.000000e+000
    outer loop
      vertex  1.901621e+000  1.078463e+001  1.500000e+001
      vertex  5.925500e+000  1.026327e+001  1.500000e+001
      vertex  2.057904e+000  1.167096e+001  1.500000e+001
    endloop
  endfacet
  facet normal  0.000000e+000  0.000000e+000  1.000000e+000
    outer loop
      vertex  1.901621e+000  1.078463e+001  1.500000e+001
      vertex  2.057904e+000  1.167096e+001  1.500000e+001
      vertex -1.901621e+000  1.078463e+001  1.500000e+001
    endloop
  endfacet
  facet normal  0.000000e+000  -0.000000e+000  1.000000e+000
    outer loop
      vertex -1.901621e+000  1.078463e+001  1.500000e+001
      vertex  2.057904e+000  1.167096e+001  1.500000e+001
      vertex -2.057904e+000  1.167096e+001  1.500000e+001
    endloop
  endfacet
  facet normal  0.000000e+000  0.000000e+000  1.000000e+000
    outer loop
      vertex -1.901621e+000  1.078463e+001  1.500000e+001
      vertex -2.057904e+000  1.167096e+001  1.500000e+001
      vertex -5.925500e+000  1.026327e+001  1.500000e+001
    endloop
  endfacet
  facet normal  0.000000e+000  0.000000e+000  9.999999e-001
    outer loop
      vertex -5.925500e+000 -1.026327e+001  1.500000e+001
      vertex -5.475500e+000 -9.483844e+000  1.500000e+001
      vertex -9.078393e+000 -7.617676e+000  1.500000e+001
    endloop
  endfacet
  facet normal  -0.000000e+000  0.000000e+000  1.000000e+000
    outer loop
      vertex -9.078393e+000 -7.617676e+000  1.500000e+001
      vertex -5.475500e+000 -9.483844e+000  1.500000e+001
      vertex -8.388952e+000 -7.039167e+000  1.500000e+001
    endloop
  endfacet
  facet normal  0.000000e+000  0.000000e+000  1.000000e+000
    outer loop
      vertex -9.078393e+000 -7.617676e+000  1.500000e+001
      vertex -8.388952e+000 -7.039167e+000  1.500000e+001
      vertex -1.113630e+001 -4.053281e+000  1.500000e+001
    endloop
  endfacet
  facet normal  -0.000000e+000  0.000000e+000  1.000000e+000
    outer loop
      vertex -1.113630e+001 -4.053281e+000  1.500000e+001
      vertex -8.388952e+000 -7.039167e+000  1.500000e+001
      vertex -1.029057e+001 -3.745463e+000  1.500000e+001
    endloop
  endfacet
  facet normal  0.000000e+000  0.000000e+000  1.000000e+000
    outer loop
      vertex -1.113630e+001 -4.053281e+000  1.500000e+001
      vertex -1.029057e+001 -3.745463e+000  1.500000e+001
      vertex -1.185100e+001  2.503609e-008  1.500000e+001
    endloop
  endfacet
  facet normal  0.000000e+000  0.000000e+000  1.000000e+000
    outer loop
      vertex -1.185100e+001  2.503609e-008  1.500000e+001
      vertex -1.029057e+001 -3.745463e+000  1.500000e+001
      vertex -1.095100e+001 -3.522154e-015  1.500000e+001
    endloop
  endfacet
  facet normal  0.000000e+000  0.000000e+000  9.999999e-001
    outer loop
      vertex -1.185100e+001  2.503609e-008  1.500000e+001
      vertex -1.095100e+001 -3.522154e-015  1.500000e+001
      vertex -1.113630e+001  4.053281e+000  1.500000e+001
    endloop
  endfacet
  facet normal  0.000000e+000  0.000000e+000  1.000000e+000
    outer loop
      vertex -1.113630e+001  4.053281e+000  1.500000e+001
      vertex -1.095100e+001 -3.522154e-015  1.500000e+001
      vertex -1.029057e+001  3.745463e+000  1.500000e+001
    endloop
  endfacet
  facet normal  0.000000e+000  -0.000000e+000  1.000000e+000
    outer loop
      vertex -1.113630e+001  4.053281e+000  1.500000e+001
      vertex -1.029057e+001  3.745463e+000  1.500000e+001
      vertex -9.078393e+000  7.617676e+000  1.500000e+001
    endloop
  endfacet
  facet normal  0.000000e+000  0.000000e+000  1.000000e+000
    outer loop
      vertex -9.078393e+000  7.617676e+000  1.500000e+001
      vertex -1.029057e+001  3.745463e+000  1.500000e+001
      vertex -8.388952e+000  7.039167e+000  1.500000e+001
    endloop
  endfacet
  facet normal  0.000000e+000  -0.000000e+000  1.000000e+000
    outer loop
      vertex -9.078393e+000  7.617676e+000  1.500000e+001
      vertex -8.388952e+000  7.039167e+000  1.500000e+001
      vertex -5.925500e+000  1.026327e+001  1.500000e+001
    endloop
  endfacet
  facet normal  0.000000e+000  0.000000e+000  1.000000e+000
    outer loop
      vertex -5.925500e+000  1.026327e+001  1.500000e+001
      vertex -8.388952e+000  7.039167e+000  1.500000e+001
      vertex -5.475500e+000  9.483844e+000  1.500000e+001
    endloop
  endfacet
  facet normal  0.000000e+000  -0.000000e+000  1.000000e+000
    outer loop
      vertex -5.925500e+000  1.026327e+001  1.500000e+001
      vertex -5.475500e+000  9.483844e+000  1.500000e+001
      vertex -1.901621e+000  1.078463e+001  1.500000e+001
    endloop
  endfacet
  facet normal  -0.000000e+000  0.000000e+000  9.999999e-001
    outer loop
      vertex  5.925500e+000  1.026327e+001  1.500000e+001
      vertex  5.475500e+000  9.483844e+000  1.500000e+001
      vertex  9.078393e+000  7.617676e+000  1.500000e+001
    endloop
  endfacet
  facet normal  0.000000e+000  0.000000e+000  1.000000e+000
    outer loop
      vertex  9.078393e+000  7.617676e+000  1.500000e+001
      vertex  5.475500e+000  9.483844e+000  1.500000e+001
      vertex  8.388952e+000  7.039167e+000  1.500000e+001
    endloop
  endfacet
  facet normal  -0.000000e+000  0.000000e+000  1.000000e+000
    outer loop
      vertex  9.078393e+000  7.617676e+000  1.500000e+001
      vertex  8.388952e+000  7.039167e+000  1.500000e+001
      vertex  1.113630e+001  4.053281e+000  1.500000e+001
    endloop
  endfacet
  facet normal  0.000000e+000  0.000000e+000  1.000000e+000
    outer loop
      vertex  1.113630e+001  4.053281e+000  1.500000e+001
      vertex  8.388952e+000  7.039167e+000  1.500000e+001
      vertex  1.029057e+001  3.745463e+000  1.500000e+001
    endloop
  endfacet
  facet normal  -0.000000e+000  0.000000e+000  1.000000e+000
    outer loop
      vertex  1.113630e+001  4.053281e+000  1.500000e+001
      vertex  1.029057e+001  3.745463e+000  1.500000e+001
      vertex  1.185100e+001 -2.625006e-015  1.500000e+001
    endloop
  endfacet
  facet normal  0.000000e+000  0.000000e+000  1.000000e+000
    outer loop
      vertex  1.185100e+001 -2.625006e-015  1.500000e+001
      vertex  1.029057e+001  3.745463e+000  1.500000e+001
      vertex  1.095100e+001  0.000000e+000  1.500000e+001
    endloop
  endfacet
  facet normal  0.000000e+000  0.000000e+000  9.999999e-001
    outer loop
      vertex  1.185100e+001 -2.625006e-015  1.500000e+001
      vertex  1.095100e+001  0.000000e+000  1.500000e+001
      vertex  1.113630e+001 -4.053281e+000  1.500000e+001
    endloop
  endfacet
  facet normal  0.000000e+000  0.000000e+000  1.000000e+000
    outer loop
      vertex  1.113630e+001 -4.053281e+000  1.500000e+001
      vertex  1.095100e+001  0.000000e+000  1.500000e+001
      vertex  1.029057e+001 -3.745463e+000  1.500000e+001
    endloop
  endfacet
  facet normal  0.000000e+000  0.000000e+000  1.000000e+000
    outer loop
      vertex  1.113630e+001 -4.053281e+000  1.500000e+001
      vertex  1.029057e+001 -3.745463e+000  1.500000e+001
      vertex  9.078393e+000 -7.617676e+000  1.500000e+001
    endloop
  endfacet
  facet normal  0.000000e+000  -0.000000e+000  1.000000e+000
    outer loop
      vertex  9.078393e+000 -7.617676e+000  1.500000e+001
      vertex  1.029057e+001 -3.745463e+000  1.500000e+001
      vertex  8.388952e+000 -7.039167e+000  1.500000e+001
    endloop
  endfacet
  facet normal  0.000000e+000  0.000000e+000  1.000000e+000
    outer loop
      vertex  9.078393e+000 -7.617676e+000  1.500000e+001
      vertex  8.388952e+000 -7.039167e+000  1.500000e+001
      vertex  5.925500e+000 -1.026327e+001  1.500000e+001
    endloop
  endfacet
  facet normal  0.000000e+000  -0.000000e+000  1.000000e+000
    outer loop
      vertex  5.925500e+000 -1.026327e+001  1.500000e+001
      vertex  8.388952e+000 -7.039167e+000  1.500000e+001
      vertex  5.475500e+000 -9.483844e+000  1.500000e+001
    endloop
  endfacet
  facet normal  0.000000e+000  0.000000e+000  1.000000e+000
    outer loop
      vertex  5.925500e+000 -1.026327e+001  1.500000e+001
      vertex  5.475500e+000 -9.483844e+000  1.500000e+001
      vertex  1.901621e+000 -1.078463e+001  1.500000e+001
    endloop
  endfacet
  facet normal -3.818155e-001  6.732436e-002  9.217832e-001
    outer loop
      vertex -1.185100e+001  2.503609e-008  1.500000e+001
      vertex -1.113630e+001  4.053281e+000  1.500000e+001
      vertex -1.255811e+001  1.243450e-014  1.470711e+001
    endloop
  endfacet
  facet normal -3.818154e-001  6.732433e-002  9.217833e-001
    outer loop
      vertex -1.255811e+001  1.243450e-014  1.470711e+001
      vertex -1.113630e+001  4.053281e+000  1.500000e+001
      vertex -1.180076e+001  4.295125e+000  1.470711e+001
    endloop
  endfacet
  facet normal -9.118592e-001  1.607853e-001  3.777048e-001
    outer loop
      vertex -1.255811e+001  1.243450e-014  1.470711e+001
      vertex -1.180076e+001  4.295125e+000  1.470711e+001
      vertex -1.285100e+001  1.298772e-014  1.400000e+001
    endloop
  endfacet
  facet normal -9.118593e-001  1.607854e-001  3.777044e-001
    outer loop
      vertex -1.285100e+001  1.298772e-014  1.400000e+001
      vertex -1.180076e+001  4.295125e+000  1.470711e+001
      vertex -1.207599e+001  4.395301e+000  1.400000e+001
    endloop
  endfacet
  facet normal  3.818154e-001  6.732434e-002  9.217833e-001
    outer loop
      vertex  1.113630e+001  4.053281e+000  1.500000e+001
      vertex  1.185100e+001 -2.625006e-015  1.500000e+001
      vertex  1.180076e+001  4.295125e+000  1.470711e+001
    endloop
  endfacet
  facet normal  3.818155e-001  6.732434e-002  9.217833e-001
    outer loop
      vertex  1.180076e+001  4.295125e+000  1.470711e+001
      vertex  1.185100e+001 -2.625006e-015  1.500000e+001
      vertex  1.255811e+001 -9.769963e-015  1.470711e+001
    endloop
  endfacet
  facet normal  9.118593e-001  1.607853e-001  3.777044e-001
    outer loop
      vertex  1.180076e+001  4.295125e+000  1.470711e+001
      vertex  1.255811e+001 -9.769963e-015  1.470711e+001
      vertex  1.207599e+001  4.395301e+000  1.400000e+001
    endloop
  endfacet
  facet normal  9.118592e-001  1.607854e-001  3.777048e-001
    outer loop
      vertex  1.207599e+001  4.395301e+000  1.400000e+001
      vertex  1.255811e+001 -9.769963e-015  1.470711e+001
      vertex  1.285100e+001 -3.147483e-015  1.400000e+001
    endloop
  endfacet
  facet normal  3.357631e-001  1.938529e-001  9.217831e-001
    outer loop
      vertex  9.078393e+000  7.617676e+000  1.500000e+001
      vertex  1.113630e+001  4.053281e+000  1.500000e+001
      vertex  9.620068e+000  8.072195e+000  1.470711e+001
    endloop
  endfacet
  facet normal  3.357628e-001  1.938528e-001  9.217833e-001
    outer loop
      vertex  9.620068e+000  8.072195e+000  1.470711e+001
      vertex  1.113630e+001  4.053281e+000  1.500000e+001
      vertex  1.180076e+001  4.295125e+000  1.470711e+001
    endloop
  endfacet
  facet normal  8.018751e-001  4.629630e-001  3.777056e-001
    outer loop
      vertex  9.620068e+000  8.072195e+000  1.470711e+001
      vertex  1.180076e+001  4.295125e+000  1.470711e+001
      vertex  9.844438e+000  8.260464e+000  1.400000e+001
    endloop
  endfacet
  facet normal  8.018757e-001  4.629630e-001  3.777044e-001
    outer loop
      vertex  9.844438e+000  8.260464e+000  1.400000e+001
      vertex  1.180076e+001  4.295125e+000  1.470711e+001
      vertex  1.207599e+001  4.395301e+000  1.400000e+001
    endloop
  endfacet
  facet normal  2.492123e-001  2.969997e-001  9.217833e-001
    outer loop
      vertex  5.925500e+000  1.026327e+001  1.500000e+001
      vertex  9.078393e+000  7.617676e+000  1.500000e+001
      vertex  6.279053e+000  1.087564e+001  1.470711e+001
    endloop
  endfacet
  facet normal  2.492125e-001  2.969998e-001  9.217831e-001
    outer loop
      vertex  6.279053e+000  1.087564e+001  1.470711e+001
      vertex  9.078393e+000  7.617676e+000  1.500000e+001
      vertex  9.620068e+000  8.072195e+000  1.470711e+001
    endloop
  endfacet
  facet normal  5.951740e-001  7.093005e-001  3.777043e-001
    outer loop
      vertex  6.279053e+000  1.087564e+001  1.470711e+001
      vertex  9.620068e+000  8.072195e+000  1.470711e+001
      vertex  6.425500e+000  1.112929e+001  1.400000e+001
    endloop
  endfacet
  facet normal  5.951735e-001  7.093003e-001  3.777056e-001
    outer loop
      vertex  6.425500e+000  1.112929e+001  1.400000e+001
      vertex  9.620068e+000  8.072195e+000  1.470711e+001
      vertex  9.844438e+000  8.260464e+000  1.400000e+001
    endloop
  endfacet
  facet normal  1.326030e-001  3.643239e-001  9.217833e-001
    outer loop
      vertex  2.057904e+000  1.167096e+001  1.500000e+001
      vertex  5.925500e+000  1.026327e+001  1.500000e+001
      vertex  2.180692e+000  1.236732e+001  1.470711e+001
    endloop
  endfacet
  facet normal  1.326031e-001  3.643240e-001  9.217833e-001
    outer loop
      vertex  2.180692e+000  1.236732e+001  1.470711e+001
      vertex  5.925500e+000  1.026327e+001  1.500000e+001
      vertex  6.279053e+000  1.087564e+001  1.470711e+001
    endloop
  endfacet
  facet normal  3.166853e-001  8.700860e-001  3.777046e-001
    outer loop
      vertex  2.180692e+000  1.236732e+001  1.470711e+001
      vertex  6.279053e+000  1.087564e+001  1.470711e+001
      vertex  2.231553e+000  1.265576e+001  1.400000e+001
    endloop
  endfacet
  facet normal  3.166856e-001  8.700862e-001  3.777041e-001
    outer loop
      vertex  2.231553e+000  1.265576e+001  1.400000e+001
      vertex  6.279053e+000  1.087564e+001  1.470711e+001
      vertex  6.425500e+000  1.112929e+001  1.400000e+001
    endloop
  endfacet
  facet normal  0.000000e+000  3.877054e-001  9.217833e-001
    outer loop
      vertex -2.057904e+000  1.167096e+001  1.500000e+001
      vertex  2.057904e+000  1.167096e+001  1.500000e+001
      vertex -2.180692e+000  1.236732e+001  1.470711e+001
    endloop
  endfacet
  facet normal  -0.000000e+000  3.877054e-001  9.217833e-001
    outer loop
      vertex -2.180692e+000  1.236732e+001  1.470711e+001
      vertex  2.057904e+000  1.167096e+001  1.500000e+001
      vertex  2.180692e+000  1.236732e+001  1.470711e+001
    endloop
  endfacet
  facet normal  0.000000e+000  9.259261e-001  3.777046e-001
    outer loop
      vertex -2.180692e+000  1.236732e+001  1.470711e+001
      vertex  2.180692e+000  1.236732e+001  1.470711e+001
      vertex -2.231553e+000  1.265576e+001  1.400000e+001
    endloop
  endfacet
  facet normal  -0.000000e+000  9.259262e-001  3.777047e-001
    outer loop
      vertex -2.231553e+000  1.265576e+001  1.400000e+001
      vertex  2.180692e+000  1.236732e+001  1.470711e+001
      vertex  2.231553e+000  1.265576e+001  1.400000e+001
    endloop
  endfacet
  facet normal -1.326031e-001  3.643241e-001  9.217832e-001
    outer loop
      vertex -5.925500e+000  1.026327e+001  1.500000e+001
      vertex -2.057904e+000  1.167096e+001  1.500000e+001
      vertex -6.279053e+000  1.087564e+001  1.470711e+001
    endloop
  endfacet
  facet normal -1.326030e-001  3.643240e-001  9.217833e-001
    outer loop
      vertex -6.279053e+000  1.087564e+001  1.470711e+001
      vertex -2.057904e+000  1.167096e+001  1.500000e+001
      vertex -2.180692e+000  1.236732e+001  1.470711e+001
    endloop
  endfacet
  facet normal -3.166854e-001  8.700862e-001  3.777040e-001
    outer loop
      vertex -6.279053e+000  1.087564e+001  1.470711e+001
      vertex -2.180692e+000  1.236732e+001  1.470711e+001
      vertex -6.425500e+000  1.112929e+001  1.400000e+001
    endloop
  endfacet
  facet normal -3.166855e-001  8.700860e-001  3.777047e-001
    outer loop
      vertex -6.425500e+000  1.112929e+001  1.400000e+001
      vertex -2.180692e+000  1.236732e+001  1.470711e+001
      vertex -2.231553e+000  1.265576e+001  1.400000e+001
    endloop
  endfacet
  facet normal -2.492125e-001  2.969998e-001  9.217832e-001
    outer loop
      vertex -9.078393e+000  7.617676e+000  1.500000e+001
      vertex -5.925500e+000  1.026327e+001  1.500000e+001
      vertex -9.620068e+000  8.072195e+000  1.470711e+001
    endloop
  endfacet
  facet normal -2.492124e-001  2.969997e-001  9.217833e-001
    outer loop
      vertex -9.620068e+000  8.072195e+000  1.470711e+001
      vertex -5.925500e+000  1.026327e+001  1.500000e+001
      vertex -6.279053e+000  1.087564e+001  1.470711e+001
    endloop
  endfacet
  facet normal -5.951737e-001  7.093002e-001  3.777056e-001
    outer loop
      vertex -9.620068e+000  8.072195e+000  1.470711e+001
      vertex -6.279053e+000  1.087564e+001  1.470711e+001
      vertex -9.844438e+000  8.260464e+000  1.400000e+001
    endloop
  endfacet
  facet normal -5.951738e-001  7.093007e-001  3.777043e-001
    outer loop
      vertex -9.844438e+000  8.260464e+000  1.400000e+001
      vertex -6.279053e+000  1.087564e+001  1.470711e+001
      vertex -6.425500e+000  1.112929e+001  1.400000e+001
    endloop
  endfacet
  facet normal -3.357629e-001  1.938528e-001  9.217833e-001
    outer loop
      vertex -1.113630e+001  4.053281e+000  1.500000e+001
      vertex -9.078393e+000  7.617676e+000  1.500000e+001
      vertex -1.180076e+001  4.295125e+000  1.470711e+001
    endloop
  endfacet
  facet normal -3.357630e-001  1.938529e-001  9.217831e-001
    outer loop
      vertex -1.180076e+001  4.295125e+000  1.470711e+001
      vertex -9.078393e+000  7.617676e+000  1.500000e+001
      vertex -9.620068e+000  8.072195e+000  1.470711e+001
    endloop
  endfacet
  facet normal -8.018756e-001  4.629632e-001  3.777045e-001
    outer loop
      vertex -1.180076e+001  4.295125e+000  1.470711e+001
      vertex -9.620068e+000  8.072195e+000  1.470711e+001
      vertex -1.207599e+001  4.395301e+000  1.400000e+001
    endloop
  endfacet
  facet normal -8.018752e-001  4.629628e-001  3.777056e-001
    outer loop
      vertex -1.207599e+001  4.395301e+000  1.400000e+001
      vertex -9.620068e+000  8.072195e+000  1.470711e+001
      vertex -9.844438e+000  8.260464e+000  1.400000e+001
    endloop
  endfacet
  facet normal  3.818155e-001 -6.732436e-002  9.217832e-001
    outer loop
      vertex  1.185100e+001 -2.625006e-015  1.500000e+001
      vertex  1.113630e+001 -4.053281e+000  1.500000e+001
      vertex  1.255811e+001 -9.769963e-015  1.470711e+001
    endloop
  endfacet
  facet normal  3.818154e-001 -6.732433e-002  9.217833e-001
    outer loop
      vertex  1.255811e+001 -9.769963e-015  1.470711e+001
      vertex  1.113630e+001 -4.053281e+000  1.500000e+001
      vertex  1.180076e+001 -4.295125e+000  1.470711e+001
    endloop
  endfacet
  facet normal  9.118592e-001 -1.607853e-001  3.777048e-001
    outer loop
      vertex  1.255811e+001 -9.769963e-015  1.470711e+001
      vertex  1.180076e+001 -4.295125e+000  1.470711e+001
      vertex  1.285100e+001 -3.147483e-015  1.400000e+001
    endloop
  endfacet
  facet normal  9.118593e-001 -1.607854e-001  3.777044e-001
    outer loop
      vertex  1.285100e+001 -3.147483e-015  1.400000e+001
      vertex  1.180076e+001 -4.295125e+000  1.470711e+001
      vertex  1.207599e+001 -4.395301e+000  1.400000e+001
    endloop
  endfacet
  facet normal -3.818154e-001 -6.732434e-002  9.217833e-001
    outer loop
      vertex -1.113630e+001 -4.053281e+000  1.500000e+001
      vertex -1.185100e+001  2.503609e-008  1.500000e+001
      vertex -1.180076e+001 -4.295125e+000  1.470711e+001
    endloop
  endfacet
  facet normal -3.818155e-001 -6.732434e-002  9.217833e-001
    outer loop
      vertex -1.180076e+001 -4.295125e+000  1.470711e+001
      vertex -1.185100e+001  2.503609e-008  1.500000e+001
      vertex -1.255811e+001  1.243450e-014  1.470711e+001
    endloop
  endfacet
  facet normal -9.118593e-001 -1.607853e-001  3.777044e-001
    outer loop
      vertex -1.180076e+001 -4.295125e+000  1.470711e+001
      vertex -1.255811e+001  1.243450e-014  1.470711e+001
      vertex -1.207599e+001 -4.395301e+000  1.400000e+001
    endloop
  endfacet
  facet normal -9.118592e-001 -1.607854e-001  3.777048e-001
    outer loop
      vertex -1.207599e+001 -4.395301e+000  1.400000e+001
      vertex -1.255811e+001  1.243450e-014  1.470711e+001
      vertex -1.285100e+001  1.298772e-014  1.400000e+001
    endloop
  endfacet
  facet normal -3.357631e-001 -1.938529e-001  9.217831e-001
    outer loop
      vertex -9.078393e+000 -7.617676e+000  1.500000e+001
      vertex -1.113630e+001 -4.053281e+000  1.500000e+001
      vertex -9.620068e+000 -8.072195e+000  1.470711e+001
    endloop
  endfacet
  facet normal -3.357628e-001 -1.938528e-001  9.217833e-001
    outer loop
      vertex -9.620068e+000 -8.072195e+000  1.470711e+001
      vertex -1.113630e+001 -4.053281e+000  1.500000e+001
      vertex -1.180076e+001 -4.295125e+000  1.470711e+001
    endloop
  endfacet
  facet normal -8.018751e-001 -4.629630e-001  3.777056e-001
    outer loop
      vertex -9.620068e+000 -8.072195e+000  1.470711e+001
      vertex -1.180076e+001 -4.295125e+000  1.470711e+001
      vertex -9.844438e+000 -8.260464e+000  1.400000e+001
    endloop
  endfacet
  facet normal -8.018757e-001 -4.629630e-001  3.777044e-001
    outer loop
      vertex -9.844438e+000 -8.260464e+000  1.400000e+001
      vertex -1.180076e+001 -4.295125e+000  1.470711e+001
      vertex -1.207599e+001 -4.395301e+000  1.400000e+001
    endloop
  endfacet
  facet normal -2.492123e-001 -2.969997e-001  9.217833e-001
    outer loop
      vertex -5.925500e+000 -1.026327e+001  1.500000e+001
      vertex -9.078393e+000 -7.617676e+000  1.500000e+001
      vertex -6.279053e+000 -1.087564e+001  1.470711e+001
    endloop
  endfacet
  facet normal -2.492125e-001 -2.969998e-001  9.217831e-001
    outer loop
      vertex -6.279053e+000 -1.087564e+001  1.470711e+001
      vertex -9.078393e+000 -7.617676e+000  1.500000e+001
      vertex -9.620068e+000 -8.072195e+000  1.470711e+001
    endloop
  endfacet
  facet normal -5.951740e-001 -7.093005e-001  3.777043e-001
    outer loop
      vertex -6.279053e+000 -1.087564e+001  1.470711e+001
      vertex -9.620068e+000 -8.072195e+000  1.470711e+001
      vertex -6.425500e+000 -1.112929e+001  1.400000e+001
    endloop
  endfacet
  facet normal -5.951735e-001 -7.093003e-001  3.777056e-001
    outer loop
      vertex -6.425500e+000 -1.112929e+001  1.400000e+001
      vertex -9.620068e+000 -8.072195e+000  1.470711e+001
      vertex -9.844438e+000 -8.260464e+000  1.400000e+001
    endloop
  endfacet
  facet normal -1.326030e-001 -3.643239e-001  9.217833e-001
    outer loop
      vertex -2.057904e+000 -1.167096e+001  1.500000e+001
      vertex -5.925500e+000 -1.026327e+001  1.500000e+001
      vertex -2.180692e+000 -1.236732e+001  1.470711e+001
    endloop
  endfacet
  facet normal -1.326031e-001 -3.643240e-001  9.217833e-001
    outer loop
      vertex -2.180692e+000 -1.236732e+001  1.470711e+001
      vertex -5.925500e+000 -1.026327e+001  1.500000e+001
      vertex -6.279053e+000 -1.087564e+001  1.470711e+001
    endloop
  endfacet
  facet normal -3.166853e-001 -8.700860e-001  3.777046e-001
    outer loop
      vertex -2.180692e+000 -1.236732e+001  1.470711e+001
      vertex -6.279053e+000 -1.087564e+001  1.470711e+001
      vertex -2.231553e+000 -1.265576e+001  1.400000e+001
    endloop
  endfacet
  facet normal -3.166856e-001 -8.700862e-001  3.777041e-001
    outer loop
      vertex -2.231553e+000 -1.265576e+001  1.400000e+001
      vertex -6.279053e+000 -1.087564e+001  1.470711e+001
      vertex -6.425500e+000 -1.112929e+001  1.400000e+001
    endloop
  endfacet
  facet normal  0.000000e+000 -3.877054e-001  9.217833e-001
    outer loop
      vertex  2.057904e+000 -1.167096e+001  1.500000e+001
      vertex -2.057904e+000 -1.167096e+001  1.500000e+001
      vertex  2.180692e+000 -1.236732e+001  1.470711e+001
    endloop
  endfacet
  facet normal  0.000000e+000 -3.877054e-001  9.217833e-001
    outer loop
      vertex  2.180692e+000 -1.236732e+001  1.470711e+001
      vertex -2.057904e+000 -1.167096e+001  1.500000e+001
      vertex -2.180692e+000 -1.236732e+001  1.470711e+001
    endloop
  endfacet
  facet normal  0.000000e+000 -9.259261e-001  3.777046e-001
    outer loop
      vertex  2.180692e+000 -1.236732e+001  1.470711e+001
      vertex -2.180692e+000 -1.236732e+001  1.470711e+001
      vertex  2.231553e+000 -1.265576e+001  1.400000e+001
    endloop
  endfacet
  facet normal  0.000000e+000 -9.259262e-001  3.777047e-001
    outer loop
      vertex  2.231553e+000 -1.265576e+001  1.400000e+001
      vertex -2.180692e+000 -1.236732e+001  1.470711e+001
      vertex -2.231553e+000 -1.265576e+001  1.400000e+001
    endloop
  endfacet
  facet normal  1.326031e-001 -3.643241e-001  9.217832e-001
    outer loop
      vertex  5.925500e+000 -1.026327e+001  1.500000e+001
      vertex  2.057904e+000 -1.167096e+001  1.500000e+001
      vertex  6.279053e+000 -1.087564e+001  1.470711e+001
    endloop
  endfacet
  facet normal  1.326030e-001 -3.643240e-001  9.217833e-001
    outer loop
      vertex  6.279053e+000 -1.087564e+001  1.470711e+001
      vertex  2.057904e+000 -1.167096e+001  1.500000e+001
      vertex  2.180692e+000 -1.236732e+001  1.470711e+001
    endloop
  endfacet
  facet normal  3.166854e-001 -8.700862e-001  3.777040e-001
    outer loop
      vertex  6.279053e+000 -1.087564e+001  1.470711e+001
      vertex  2.180692e+000 -1.236732e+001  1.470711e+001
      vertex  6.425500e+000 -1.112929e+001  1.400000e+001
    endloop
  endfacet
  facet normal  3.166855e-001 -8.700860e-001  3.777047e-001
    outer loop
      vertex  6.425500e+000 -1.112929e+001  1.400000e+001
      vertex  2.180692e+000 -1.236732e+001  1.470711e+001
      vertex  2.231553e+000 -1.265576e+001  1.400000e+001
    endloop
  endfacet
  facet normal  2.492125e-001 -2.969998e-001  9.217832e-001
    outer loop
      vertex  9.078393e+000 -7.617676e+000  1.500000e+001
      vertex  5.925500e+000 -1.026327e+001  1.500000e+001
      vertex  9.620068e+000 -8.072195e+000  1.470711e+001
    endloop
  endfacet
  facet normal  2.492124e-001 -2.969997e-001  9.217833e-001
    outer loop
      vertex  9.620068e+000 -8.072195e+000  1.470711e+001
      vertex  5.925500e+000 -1.026327e+001  1.500000e+001
      vertex  6.279053e+000 -1.087564e+001  1.470711e+001
    endloop
  endfacet
  facet normal  5.951737e-001 -7.093002e-001  3.777056e-001
    outer loop
      vertex  9.620068e+000 -8.072195e+000  1.470711e+001
      vertex  6.279053e+000 -1.087564e+001  1.470711e+001
      vertex  9.844438e+000 -8.260464e+000  1.400000e+001
    endloop
  endfacet
  facet normal  5.951738e-001 -7.093007e-001  3.777043e-001
    outer loop
      vertex  9.844438e+000 -8.260464e+000  1.400000e+001
      vertex  6.279053e+000 -1.087564e+001  1.470711e+001
      vertex  6.425500e+000 -1.112929e+001  1.400000e+001
    endloop
  endfacet
  facet normal  3.357629e-001 -1.938528e-001  9.217833e-001
    outer loop
      vertex  1.113630e+001 -4.053281e+000  1.500000e+001
      vertex  9.078393e+000 -7.617676e+000  1.500000e+001
      vertex  1.180076e+001 -4.295125e+000  1.470711e+001
    endloop
  endfacet
  facet normal  3.357630e-001 -1.938529e-001  9.217831e-001
    outer loop
      vertex  1.180076e+001 -4.295125e+000  1.470711e+001
      vertex  9.078393e+000 -7.617676e+000  1.500000e+001
      vertex  9.620068e+000 -8.072195e+000  1.470711e+001
    endloop
  endfacet
  facet normal  8.018756e-001 -4.629632e-001  3.777045e-001
    outer loop
      vertex  1.180076e+001 -4.295125e+000  1.470711e+001
      vertex  9.620068e+000 -8.072195e+000  1.470711e+001
      vertex  1.207599e+001 -4.395301e+000  1.400000e+001
    endloop
  endfacet
  facet normal  8.018752e-001 -4.629628e-001  3.777056e-001
    outer loop
      vertex  1.207599e+001 -4.395301e+000  1.400000e+001
      vertex  9.620068e+000 -8.072195e+000  1.470711e+001
      vertex  9.844438e+000 -8.260464e+000  1.400000e+001
    endloop
  endfacet
  facet normal  9.848077e-001 -1.736482e-001  0.000000e+000
    outer loop
      vertex -1.095100e+001 -3.522154e-015  1.500000e+001
      vertex -1.095100e+001 -3.522154e-015 -1.500000e+001
      vertex -1.029057e+001  3.745463e+000  1.500000e+001
    endloop
  endfacet
  facet normal  9.848077e-001 -1.736482e-001  0.000000e+000
    outer loop
      vertex -1.029057e+001  3.745463e+000  1.500000e+001
      vertex -1.095100e+001 -3.522154e-015 -1.500000e+001
      vertex -1.029057e+001  3.745463e+000 -1.500000e+001
    endloop
  endfacet
  facet normal  8.660253e-001 -5.000001e-001  0.000000e+000
    outer loop
      vertex -1.029057e+001  3.745463e+000  1.500000e+001
      vertex -1.029057e+001  3.745463e+000 -1.500000e+001
      vertex -8.388952e+000  7.039167e+000  1.500000e+001
    endloop
  endfacet
  facet normal  8.660253e-001 -5.000001e-001  0.000000e+000
    outer loop
      vertex -8.388952e+000  7.039167e+000  1.500000e+001
      vertex -1.029057e+001  3.745463e+000 -1.500000e+001
      vertex -8.388952e+000  7.039167e+000 -1.500000e+001
    endloop
  endfacet
  facet normal  6.427877e-001 -7.660444e-001  0.000000e+000
    outer loop
      vertex -8.388952e+000  7.039167e+000  1.500000e+001
      vertex -8.388952e+000  7.039167e+000 -1.500000e+001
      vertex -5.475500e+000  9.483844e+000  1.500000e+001
    endloop
  endfacet
  facet normal  6.427877e-001 -7.660444e-001  0.000000e+000
    outer loop
      vertex -5.475500e+000  9.483844e+000  1.500000e+001
      vertex -8.388952e+000  7.039167e+000 -1.500000e+001
      vertex -5.475500e+000  9.483844e+000 -1.500000e+001
    endloop
  endfacet
  facet normal  3.420203e-001 -9.396926e-001  0.000000e+000
    outer loop
      vertex -5.475500e+000  9.483844e+000  1.500000e+001
      vertex -5.475500e+000  9.483844e+000 -1.500000e+001
      vertex -1.901621e+000  1.078463e+001  1.500000e+001
    endloop
  endfacet
  facet normal  3.420203e-001 -9.396926e-001  0.000000e+000
    outer loop
      vertex -1.901621e+000  1.078463e+001  1.500000e+001
      vertex -5.475500e+000  9.483844e+000 -1.500000e+001
      vertex -1.901621e+000  1.078463e+001 -1.500000e+001
    endloop
  endfacet
  facet normal  0.000000e+000 -1.000000e+000  0.000000e+000
    outer loop
      vertex -1.901621e+000  1.078463e+001  1.500000e+001
      vertex -1.901621e+000  1.078463e+001 -1.500000e+001
      vertex  1.901621e+000  1.078463e+001  1.500000e+001
    endloop
  endfacet
  facet normal  0.000000e+000 -1.000000e+000  -0.000000e+000
    outer loop
      vertex  1.901621e+000  1.078463e+001  1.500000e+001
      vertex -1.901621e+000  1.078463e+001 -1.500000e+001
      vertex  1.901621e+000  1.078463e+001 -1.500000e+001
    endloop
  endfacet
  facet normal -3.420203e-001 -9.396926e-001  0.000000e+000
    outer loop
      vertex  1.901621e+000  1.078463e+001  1.500000e+001
      vertex  1.901621e+000  1.078463e+001 -1.500000e+001
      vertex  5.475500e+000  9.483844e+000  1.500000e+001
    endloop
  endfacet
  facet normal -3.420203e-001 -9.396926e-001  -0.000000e+000
    outer loop
      vertex  5.475500e+000  9.483844e+000  1.500000e+001
      vertex  1.901621e+000  1.078463e+001 -1.500000e+001
      vertex  5.475500e+000  9.483844e+000 -1.500000e+001
    endloop
  endfacet
  facet normal -6.427877e-001 -7.660444e-001  0.000000e+000
    outer loop
      vertex  5.475500e+000  9.483844e+000  1.500000e+001
      vertex  5.475500e+000  9.483844e+000 -1.500000e+001
      vertex  8.388952e+000  7.039167e+000  1.500000e+001
    endloop
  endfacet
  facet normal -6.427877e-001 -7.660444e-001  -0.000000e+000
    outer loop
      vertex  8.388952e+000  7.039167e+000  1.500000e+001
      vertex  5.475500e+000  9.483844e+000 -1.500000e+001
      vertex  8.388952e+000  7.039167e+000 -1.500000e+001
    endloop
  endfacet
  facet normal -8.660253e-001 -5.000001e-001  0.000000e+000
    outer loop
      vertex  8.388952e+000  7.039167e+000  1.500000e+001
      vertex  8.388952e+000  7.039167e+000 -1.500000e+001
      vertex  1.029057e+001  3.745463e+000  1.500000e+001
    endloop
  endfacet
  facet normal -8.660253e-001 -5.000001e-001  -0.000000e+000
    outer loop
      vertex  1.029057e+001  3.745463e+000  1.500000e+001
      vertex  8.388952e+000  7.039167e+000 -1.500000e+001
      vertex  1.029057e+001  3.745463e+000 -1.500000e+001
    endloop
  endfacet
  facet normal -9.848077e-001 -1.736482e-001  0.000000e+000
    outer loop
      vertex  1.029057e+001  3.745463e+000  1.500000e+001
      vertex  1.029057e+001  3.745463e+000 -1.500000e+001
      vertex  1.095100e+001  0.000000e+000  1.500000e+001
    endloop
  endfacet
  facet normal -9.848077e-001 -1.736482e-001  -0.000000e+000
    outer loop
      vertex  1.095100e+001  0.000000e+000  1.500000e+001
      vertex  1.029057e+001  3.745463e+000 -1.500000e+001
      vertex  1.095100e+001  0.000000e+000 -1.500000e+001
    endloop
  endfacet
  facet normal -9.848077e-001  1.736482e-001  0.000000e+000
    outer loop
      vertex  1.095100e+001  0.000000e+000  1.500000e+001
      vertex  1.095100e+001  0.000000e+000 -1.500000e+001
      vertex  1.029057e+001 -3.745463e+000  1.500000e+001
    endloop
  endfacet
  facet normal -9.848077e-001  1.736482e-001  0.000000e+000
    outer loop
      vertex  1.029057e+001 -3.745463e+000  1.500000e+001
      vertex  1.095100e+001  0.000000e+000 -1.500000e+001
      vertex  1.029057e+001 -3.745463e+000 -1.500000e+001
    endloop
  endfacet
  facet normal -8.660253e-001  5.000001e-001  0.000000e+000
    outer loop
      vertex  1.029057e+001 -3.745463e+000  1.500000e+001
      vertex  1.029057e+001 -3.745463e+000 -1.500000e+001
      vertex  8.388952e+000 -7.039167e+000  1.500000e+001
    endloop
  endfacet
  facet normal -8.660253e-001  5.000001e-001  0.000000e+000
    outer loop
      vertex  8.388952e+000 -7.039167e+000  1.500000e+001
      vertex  1.029057e+001 -3.745463e+000 -1.500000e+001
      vertex  8.388952e+000 -7.039167e+000 -1.500000e+001
    endloop
  endfacet
  facet normal -6.427877e-001  7.660444e-001  0.000000e+000
    outer loop
      vertex  8.388952e+000 -7.039167e+000  1.500000e+001
      vertex  8.388952e+000 -7.039167e+000 -1.500000e+001
      vertex  5.475500e+000 -9.483844e+000  1.500000e+001
    endloop
  endfacet
  facet normal -6.427877e-001  7.660444e-001  0.000000e+000
    outer loop
      vertex  5.475500e+000 -9.483844e+000  1.500000e+001
      vertex  8.388952e+000 -7.039167e+000 -1.500000e+001
      vertex  5.475500e+000 -9.483844e+000 -1.500000e+001
    endloop
  endfacet
  facet normal -3.420203e-001  9.396926e-001  0.000000e+000
    outer loop
      vertex  5.475500e+000 -9.483844e+000  1.500000e+001
      vertex  5.475500e+000 -9.483844e+000 -1.500000e+001
      vertex  1.901621e+000 -1.078463e+001  1.500000e+001
    endloop
  endfacet
  facet normal -3.420203e-001  9.396926e-001  0.000000e+000
    outer loop
      vertex  1.901621e+000 -1.078463e+001  1.500000e+001
      vertex  5.475500e+000 -9.483844e+000 -1.500000e+001
      vertex  1.901621e+000 -1.078463e+001 -1.500000e+001
    endloop
  endfacet
  facet normal  0.000000e+000  1.000000e+000  -0.000000e+000
    outer loop
      vertex  1.901621e+000 -1.078463e+001  1.500000e+001
      vertex  1.901621e+000 -1.078463e+001 -1.500000e+001
      vertex -1.901621e+000 -1.078463e+001  1.500000e+001
    endloop
  endfacet
  facet normal  0.000000e+000  1.000000e+000  0.000000e+000
    outer loop
      vertex -1.901621e+000 -1.078463e+001  1.500000e+001
      vertex  1.901621e+000 -1.078463e+001 -1.500000e+001
      vertex -1.901621e+000 -1.078463e+001 -1.500000e+001
    endloop
  endfacet
  facet normal  3.420203e-001  9.396926e-001  -0.000000e+000
    outer loop
      vertex -1.901621e+000 -1.078463e+001  1.500000e+001
      vertex -1.901621e+000 -1.078463e+001 -1.500000e+001
      vertex -5.475500e+000 -9.483844e+000  1.500000e+001
    endloop
  endfacet
  facet normal  3.420203e-001  9.396926e-001  0.000000e+000
    outer loop
      vertex -5.475500e+000 -9.483844e+000  1.500000e+001
      vertex -1.901621e+000 -1.078463e+001 -1.500000e+001
      vertex -5.475500e+000 -9.483844e+000 -1.500000e+001
    endloop
  endfacet
  facet normal  6.427877e-001  7.660444e-001  -0.000000e+000
    outer loop
      vertex -5.475500e+000 -9.483844e+000  1.500000e+001
      vertex -5.475500e+000 -9.483844e+000 -1.500000e+001
      vertex -8.388952e+000 -7.039167e+000  1.500000e+001
    endloop
  endfacet
  facet normal  6.427877e-001  7.660444e-001  0.000000e+000
    outer loop
      vertex -8.388952e+000 -7.039167e+000  1.500000e+001
      vertex -5.475500e+000 -9.483844e+000 -1.500000e+001
      vertex -8.388952e+000 -7.039167e+000 -1.500000e+001
    endloop
  endfacet
  facet normal  8.660253e-001  5.000001e-001  -0.000000e+000
    outer loop
      vertex -8.388952e+000 -7.039167e+000  1.500000e+001
      vertex -8.388952e+000 -7.039167e+000 -1.500000e+001
      vertex -1.029057e+001 -3.745463e+000  1.500000e+001
    endloop
  endfacet
  facet normal  8.660253e-001  5.000001e-001  0.000000e+000
    outer loop
      vertex -1.029057e+001 -3.745463e+000  1.500000e+001
      vertex -8.388952e+000 -7.039167e+000 -1.500000e+001
      vertex -1.029057e+001 -3.745463e+000 -1.500000e+001
    endloop
  endfacet
  facet normal  9.848077e-001  1.736482e-001  -0.000000e+000
    outer loop
      vertex -1.029057e+001 -3.745463e+000  1.500000e+001
      vertex -1.029057e+001 -3.745463e+000 -1.500000e+001
      vertex -1.095100e+001 -3.522154e-015  1.500000e+001
    endloop
  endfacet
  facet normal  9.848077e-001  1.736482e-001  0.000000e+000
    outer loop
      vertex -1.095100e+001 -3.522154e-015  1.500000e+001
      vertex -1.029057e+001 -3.745463e+000 -1.500000e+001
      vertex -1.095100e+001 -3.522154e-015 -1.500000e+001
    endloop
  endfacet
endsolid CATIA STL
