solid CATIA STL
  facet normal  9.807853e-001 -1.950904e-001  0.000000e+000
    outer loop
      vertex  9.286000e+000 -2.274339e-015 -1.400000e+001
      vertex  9.286000e+000 -2.274339e-015  1.400000e+001
      vertex  8.579145e+000 -3.553598e+000 -1.400000e+001
    endloop
  endfacet
  facet normal  9.807853e-001 -1.950904e-001  0.000000e+000
    outer loop
      vertex  8.579145e+000 -3.553598e+000 -1.400000e+001
      vertex  9.286000e+000 -2.274339e-015  1.400000e+001
      vertex  8.579145e+000 -3.553598e+000  1.400000e+001
    endloop
  endfacet
  facet normal  8.314696e-001 -5.555702e-001  0.000000e+000
    outer loop
      vertex  8.579145e+000 -3.553598e+000 -1.400000e+001
      vertex  8.579145e+000 -3.553598e+000  1.400000e+001
      vertex  6.566194e+000 -6.566194e+000 -1.400000e+001
    endloop
  endfacet
  facet normal  8.314696e-001 -5.555702e-001  0.000000e+000
    outer loop
      vertex  6.566194e+000 -6.566194e+000 -1.400000e+001
      vertex  8.579145e+000 -3.553598e+000  1.400000e+001
      vertex  6.566194e+000 -6.566194e+000  1.400000e+001
    endloop
  endfacet
  facet normal  5.555702e-001 -8.314696e-001  0.000000e+000
    outer loop
      vertex  6.566194e+000 -6.566194e+000 -1.400000e+001
      vertex  6.566194e+000 -6.566194e+000  1.400000e+001
      vertex  3.553598e+000 -8.579145e+000 -1.400000e+001
    endloop
  endfacet
  facet normal  5.555702e-001 -8.314696e-001  0.000000e+000
    outer loop
      vertex  3.553598e+000 -8.579145e+000 -1.400000e+001
      vertex  6.566194e+000 -6.566194e+000  1.400000e+001
      vertex  3.553598e+000 -8.579145e+000  1.400000e+001
    endloop
  endfacet
  facet normal  1.950904e-001 -9.807853e-001  0.000000e+000
    outer loop
      vertex  3.553598e+000 -8.579145e+000 -1.400000e+001
      vertex  3.553598e+000 -8.579145e+000  1.400000e+001
      vertex -1.705754e-015 -9.286000e+000 -1.400000e+001
    endloop
  endfacet
  facet normal  1.950904e-001 -9.807853e-001  0.000000e+000
    outer loop
      vertex -1.705754e-015 -9.286000e+000 -1.400000e+001
      vertex  3.553598e+000 -8.579145e+000  1.400000e+001
      vertex -1.705754e-015 -9.286000e+000  1.400000e+001
    endloop
  endfacet
  facet normal -1.950904e-001 -9.807853e-001  -0.000000e+000
    outer loop
      vertex -1.705754e-015 -9.286000e+000 -1.400000e+001
      vertex -1.705754e-015 -9.286000e+000  1.400000e+001
      vertex -3.553598e+000 -8.579145e+000 -1.400000e+001
    endloop
  endfacet
  facet normal -1.950904e-001 -9.807853e-001  0.000000e+000
    outer loop
      vertex -3.553598e+000 -8.579145e+000 -1.400000e+001
      vertex -1.705754e-015 -9.286000e+000  1.400000e+001
      vertex -3.553598e+000 -8.579145e+000  1.400000e+001
    endloop
  endfacet
  facet normal -5.555702e-001 -8.314696e-001  -0.000000e+000
    outer loop
      vertex -3.553598e+000 -8.579145e+000 -1.400000e+001
      vertex -3.553598e+000 -8.579145e+000  1.400000e+001
      vertex -6.566194e+000 -6.566194e+000 -1.400000e+001
    endloop
  endfacet
  facet normal -5.555702e-001 -8.314696e-001  0.000000e+000
    outer loop
      vertex -6.566194e+000 -6.566194e+000 -1.400000e+001
      vertex -3.553598e+000 -8.579145e+000  1.400000e+001
      vertex -6.566194e+000 -6.566194e+000  1.400000e+001
    endloop
  endfacet
  facet normal -8.314696e-001 -5.555702e-001  -0.000000e+000
    outer loop
      vertex -6.566194e+000 -6.566194e+000 -1.400000e+001
      vertex -6.566194e+000 -6.566194e+000  1.400000e+001
      vertex -8.579145e+000 -3.553598e+000 -1.400000e+001
    endloop
  endfacet
  facet normal -8.314696e-001 -5.555702e-001  0.000000e+000
    outer loop
      vertex -8.579145e+000 -3.553598e+000 -1.400000e+001
      vertex -6.566194e+000 -6.566194e+000  1.400000e+001
      vertex -8.579145e+000 -3.553598e+000  1.400000e+001
    endloop
  endfacet
  facet normal -9.807853e-001 -1.950904e-001  -0.000000e+000
    outer loop
      vertex -8.579145e+000 -3.553598e+000 -1.400000e+001
      vertex -8.579145e+000 -3.553598e+000  1.400000e+001
      vertex -9.286000e+000  5.260982e-015 -1.400000e+001
    endloop
  endfacet
  facet normal -9.807853e-001 -1.950904e-001  0.000000e+000
    outer loop
      vertex -9.286000e+000  5.260982e-015 -1.400000e+001
      vertex -8.579145e+000 -3.553598e+000  1.400000e+001
      vertex -9.286000e+000  5.260982e-015  1.400000e+001
    endloop
  endfacet
  facet normal -9.807853e-001  1.950904e-001  0.000000e+000
    outer loop
      vertex -9.286000e+000  5.260982e-015 -1.400000e+001
      vertex -9.286000e+000  5.260982e-015  1.400000e+001
      vertex -8.579145e+000  3.553598e+000 -1.400000e+001
    endloop
  endfacet
  facet normal -9.807853e-001  1.950904e-001  0.000000e+000
    outer loop
      vertex -8.579145e+000  3.553598e+000 -1.400000e+001
      vertex -9.286000e+000  5.260982e-015  1.400000e+001
      vertex -8.579145e+000  3.553598e+000  1.400000e+001
    endloop
  endfacet
  facet normal -8.314696e-001  5.555702e-001  0.000000e+000
    outer loop
      vertex -8.579145e+000  3.553598e+000 -1.400000e+001
      vertex -8.579145e+000  3.553598e+000  1.400000e+001
      vertex -6.566194e+000  6.566194e+000 -1.400000e+001
    endloop
  endfacet
  facet normal -8.314696e-001  5.555702e-001  0.000000e+000
    outer loop
      vertex -6.566194e+000  6.566194e+000 -1.400000e+001
      vertex -8.579145e+000  3.553598e+000  1.400000e+001
      vertex -6.566194e+000  6.566194e+000  1.400000e+001
    endloop
  endfacet
  facet normal -5.555702e-001  8.314696e-001  0.000000e+000
    outer loop
      vertex -6.566194e+000  6.566194e+000 -1.400000e+001
      vertex -6.566194e+000  6.566194e+000  1.400000e+001
      vertex -3.553598e+000  8.579145e+000 -1.400000e+001
    endloop
  endfacet
  facet normal -5.555702e-001  8.314696e-001  0.000000e+000
    outer loop
      vertex -3.553598e+000  8.579145e+000 -1.400000e+001
      vertex -6.566194e+000  6.566194e+000  1.400000e+001
      vertex -3.553598e+000  8.579145e+000  1.400000e+001
    endloop
  endfacet
  facet normal -1.950904e-001  9.807853e-001  0.000000e+000
    outer loop
      vertex -3.553598e+000  8.579145e+000 -1.400000e+001
      vertex -3.553598e+000  8.579145e+000  1.400000e+001
      vertex  2.630491e-015  9.286000e+000 -1.400000e+001
    endloop
  endfacet
  facet normal -1.950904e-001  9.807853e-001  0.000000e+000
    outer loop
      vertex  2.630491e-015  9.286000e+000 -1.400000e+001
      vertex -3.553598e+000  8.579145e+000  1.400000e+001
      vertex  2.630491e-015  9.286000e+000  1.400000e+001
    endloop
  endfacet
  facet normal  1.950904e-001  9.807853e-001  0.000000e+000
    outer loop
      vertex  2.630491e-015  9.286000e+000 -1.400000e+001
      vertex  2.630491e-015  9.286000e+000  1.400000e+001
      vertex  3.553598e+000  8.579145e+000 -1.400000e+001
    endloop
  endfacet
  facet normal  1.950904e-001  9.807853e-001  -0.000000e+000
    outer loop
      vertex  3.553598e+000  8.579145e+000 -1.400000e+001
      vertex  2.630491e-015  9.286000e+000  1.400000e+001
      vertex  3.553598e+000  8.579145e+000  1.400000e+001
    endloop
  endfacet
  facet normal  5.555702e-001  8.314696e-001  0.000000e+000
    outer loop
      vertex  3.553598e+000  8.579145e+000 -1.400000e+001
      vertex  3.553598e+000  8.579145e+000  1.400000e+001
      vertex  6.566194e+000  6.566194e+000 -1.400000e+001
    endloop
  endfacet
  facet normal  5.555702e-001  8.314696e-001  -0.000000e+000
    outer loop
      vertex  6.566194e+000  6.566194e+000 -1.400000e+001
      vertex  3.553598e+000  8.579145e+000  1.400000e+001
      vertex  6.566194e+000  6.566194e+000  1.400000e+001
    endloop
  endfacet
  facet normal  8.314696e-001  5.555702e-001  0.000000e+000
    outer loop
      vertex  6.566194e+000  6.566194e+000 -1.400000e+001
      vertex  6.566194e+000  6.566194e+000  1.400000e+001
      vertex  8.579145e+000  3.553598e+000 -1.400000e+001
    endloop
  endfacet
  facet normal  8.314696e-001  5.555702e-001  -0.000000e+000
    outer loop
      vertex  8.579145e+000  3.553598e+000 -1.400000e+001
      vertex  6.566194e+000  6.566194e+000  1.400000e+001
      vertex  8.579145e+000  3.553598e+000  1.400000e+001
    endloop
  endfacet
  facet normal  9.807853e-001  1.950904e-001  0.000000e+000
    outer loop
      vertex  8.579145e+000  3.553598e+000 -1.400000e+001
      vertex  8.579145e+000  3.553598e+000  1.400000e+001
      vertex  9.286000e+000 -2.274339e-015 -1.400000e+001
    endloop
  endfacet
  facet normal  9.807853e-001  1.950904e-001  -0.000000e+000
    outer loop
      vertex  9.286000e+000 -2.274339e-015 -1.400000e+001
      vertex  8.579145e+000  3.553598e+000  1.400000e+001
      vertex  9.286000e+000 -2.274339e-015  1.400000e+001
    endloop
  endfacet
  facet normal  0.000000e+000  0.000000e+000  1.000000e+000
    outer loop
      vertex  1.203148e-007  8.286000e+000  1.500000e+001
      vertex -1.643540e+000  7.200818e+000  1.500000e+001
      vertex  3.170915e+000  7.655266e+000  1.500000e+001
    endloop
  endfacet
  facet normal  0.000000e+000  0.000000e+000  1.000000e+000
    outer loop
      vertex  3.170915e+000  7.655266e+000  1.500000e+001
      vertex -1.643540e+000  7.200818e+000  1.500000e+001
      vertex  1.643540e+000  7.200818e+000  1.500000e+001
    endloop
  endfacet
  facet normal  -0.000000e+000  0.000000e+000  1.000000e+000
    outer loop
      vertex  3.170915e+000  7.655266e+000  1.500000e+001
      vertex  1.643540e+000  7.200818e+000  1.500000e+001
      vertex  5.859087e+000  5.859087e+000  1.500000e+001
    endloop
  endfacet
  facet normal  0.000000e+000  0.000000e+000  1.000000e+000
    outer loop
      vertex  5.859087e+000  5.859087e+000  1.500000e+001
      vertex  1.643540e+000  7.200818e+000  1.500000e+001
      vertex  4.605096e+000  5.774607e+000  1.500000e+001
    endloop
  endfacet
  facet normal  -0.000000e+000  0.000000e+000  1.000000e+000
    outer loop
      vertex  5.859087e+000  5.859087e+000  1.500000e+001
      vertex  4.605096e+000  5.774607e+000  1.500000e+001
      vertex  7.655266e+000  3.170915e+000  1.500000e+001
    endloop
  endfacet
  facet normal  0.000000e+000  0.000000e+000  1.000000e+000
    outer loop
      vertex  7.655266e+000  3.170915e+000  1.500000e+001
      vertex  4.605096e+000  5.774607e+000  1.500000e+001
      vertex  6.654556e+000  3.204665e+000  1.500000e+001
    endloop
  endfacet
  facet normal  0.000000e+000  0.000000e+000  1.000000e+000
    outer loop
      vertex  7.655266e+000  3.170915e+000  1.500000e+001
      vertex  6.654556e+000  3.204665e+000  1.500000e+001
      vertex  8.286000e+000 -2.584529e-015  1.500000e+001
    endloop
  endfacet
  facet normal  0.000000e+000  0.000000e+000  1.000000e+000
    outer loop
      vertex  8.286000e+000 -2.584529e-015  1.500000e+001
      vertex  6.654556e+000  3.204665e+000  1.500000e+001
      vertex  7.386000e+000  0.000000e+000  1.500000e+001
    endloop
  endfacet
  facet normal  0.000000e+000  0.000000e+000  1.000000e+000
    outer loop
      vertex  8.286000e+000 -2.584529e-015  1.500000e+001
      vertex  7.386000e+000  0.000000e+000  1.500000e+001
      vertex  7.655266e+000 -3.170915e+000  1.500000e+001
    endloop
  endfacet
  facet normal  0.000000e+000  0.000000e+000  1.000000e+000
    outer loop
      vertex  7.655266e+000 -3.170915e+000  1.500000e+001
      vertex  7.386000e+000  0.000000e+000  1.500000e+001
      vertex  6.654556e+000 -3.204665e+000  1.500000e+001
    endloop
  endfacet
  facet normal  -0.000000e+000  0.000000e+000  1.000000e+000
    outer loop
      vertex  7.655266e+000 -3.170915e+000  1.500000e+001
      vertex  6.654556e+000 -3.204665e+000  1.500000e+001
      vertex  5.859087e+000 -5.859087e+000  1.500000e+001
    endloop
  endfacet
  facet normal  0.000000e+000  -0.000000e+000  1.000000e+000
    outer loop
      vertex  5.859087e+000 -5.859087e+000  1.500000e+001
      vertex  6.654556e+000 -3.204665e+000  1.500000e+001
      vertex  4.605096e+000 -5.774607e+000  1.500000e+001
    endloop
  endfacet
  facet normal  0.000000e+000  0.000000e+000  9.999999e-001
    outer loop
      vertex  5.859087e+000 -5.859087e+000  1.500000e+001
      vertex  4.605096e+000 -5.774607e+000  1.500000e+001
      vertex  3.170915e+000 -7.655266e+000  1.500000e+001
    endloop
  endfacet
  facet normal  0.000000e+000  -0.000000e+000  1.000000e+000
    outer loop
      vertex  3.170915e+000 -7.655266e+000  1.500000e+001
      vertex  4.605096e+000 -5.774607e+000  1.500000e+001
      vertex  1.643540e+000 -7.200818e+000  1.500000e+001
    endloop
  endfacet
  facet normal  0.000000e+000  0.000000e+000  1.000000e+000
    outer loop
      vertex  3.170915e+000 -7.655266e+000  1.500000e+001
      vertex  1.643540e+000 -7.200818e+000  1.500000e+001
      vertex  8.590845e-008 -8.286000e+000  1.500000e+001
    endloop
  endfacet
  facet normal  0.000000e+000  -0.000000e+000  1.000000e+000
    outer loop
      vertex  8.590845e-008 -8.286000e+000  1.500000e+001
      vertex  1.643540e+000 -7.200818e+000  1.500000e+001
      vertex -1.643540e+000 -7.200818e+000  1.500000e+001
    endloop
  endfacet
  facet normal  0.000000e+000  0.000000e+000  1.000000e+000
    outer loop
      vertex  8.590845e-008 -8.286000e+000  1.500000e+001
      vertex -1.643540e+000 -7.200818e+000  1.500000e+001
      vertex -3.170915e+000 -7.655266e+000  1.500000e+001
    endloop
  endfacet
  facet normal  0.000000e+000  0.000000e+000  1.000000e+000
    outer loop
      vertex -3.170915e+000 -7.655266e+000  1.500000e+001
      vertex -1.643540e+000 -7.200818e+000  1.500000e+001
      vertex -5.859087e+000 -5.859087e+000  1.500000e+001
    endloop
  endfacet
  facet normal  -0.000000e+000  0.000000e+000  1.000000e+000
    outer loop
      vertex -5.859087e+000 -5.859087e+000  1.500000e+001
      vertex -1.643540e+000 -7.200818e+000  1.500000e+001
      vertex -4.605096e+000 -5.774607e+000  1.500000e+001
    endloop
  endfacet
  facet normal  0.000000e+000  0.000000e+000  1.000000e+000
    outer loop
      vertex -5.859087e+000 -5.859087e+000  1.500000e+001
      vertex -4.605096e+000 -5.774607e+000  1.500000e+001
      vertex -7.655266e+000 -3.170915e+000  1.500000e+001
    endloop
  endfacet
  facet normal  0.000000e+000  0.000000e+000  1.000000e+000
    outer loop
      vertex -7.655266e+000 -3.170915e+000  1.500000e+001
      vertex -4.605096e+000 -5.774607e+000  1.500000e+001
      vertex -6.654556e+000 -3.204665e+000  1.500000e+001
    endloop
  endfacet
  facet normal  0.000000e+000  0.000000e+000  1.000000e+000
    outer loop
      vertex -7.655266e+000 -3.170915e+000  1.500000e+001
      vertex -6.654556e+000 -3.204665e+000  1.500000e+001
      vertex -8.286000e+000  2.406297e-007  1.500000e+001
    endloop
  endfacet
  facet normal  0.000000e+000  0.000000e+000  1.000000e+000
    outer loop
      vertex -8.286000e+000  2.406297e-007  1.500000e+001
      vertex -6.654556e+000 -3.204665e+000  1.500000e+001
      vertex -7.386000e+000  9.044943e-016  1.500000e+001
    endloop
  endfacet
  facet normal  0.000000e+000  0.000000e+000  9.999999e-001
    outer loop
      vertex -8.286000e+000  2.406297e-007  1.500000e+001
      vertex -7.386000e+000  9.044943e-016  1.500000e+001
      vertex -7.655266e+000  3.170915e+000  1.500000e+001
    endloop
  endfacet
  facet normal  -0.000000e+000  0.000000e+000  1.000000e+000
    outer loop
      vertex -7.655266e+000  3.170915e+000  1.500000e+001
      vertex -7.386000e+000  9.044943e-016  1.500000e+001
      vertex -6.654556e+000  3.204665e+000  1.500000e+001
    endloop
  endfacet
  facet normal  0.000000e+000  -0.000000e+000  1.000000e+000
    outer loop
      vertex -7.655266e+000  3.170915e+000  1.500000e+001
      vertex -6.654556e+000  3.204665e+000  1.500000e+001
      vertex -5.859087e+000  5.859087e+000  1.500000e+001
    endloop
  endfacet
  facet normal  0.000000e+000  0.000000e+000  1.000000e+000
    outer loop
      vertex -5.859087e+000  5.859087e+000  1.500000e+001
      vertex -6.654556e+000  3.204665e+000  1.500000e+001
      vertex -4.605096e+000  5.774607e+000  1.500000e+001
    endloop
  endfacet
  facet normal  0.000000e+000  -0.000000e+000  1.000000e+000
    outer loop
      vertex -5.859087e+000  5.859087e+000  1.500000e+001
      vertex -4.605096e+000  5.774607e+000  1.500000e+001
      vertex -3.170915e+000  7.655266e+000  1.500000e+001
    endloop
  endfacet
  facet normal  0.000000e+000  0.000000e+000  1.000000e+000
    outer loop
      vertex -3.170915e+000  7.655266e+000  1.500000e+001
      vertex -4.605096e+000  5.774607e+000  1.500000e+001
      vertex -1.643540e+000  7.200818e+000  1.500000e+001
    endloop
  endfacet
  facet normal  0.000000e+000  -0.000000e+000  1.000000e+000
    outer loop
      vertex -3.170915e+000  7.655266e+000  1.500000e+001
      vertex -1.643540e+000  7.200818e+000  1.500000e+001
      vertex  1.203148e-007  8.286000e+000  1.500000e+001
    endloop
  endfacet
  facet normal -3.815798e-001  7.590099e-002  9.212143e-001
    outer loop
      vertex -8.286000e+000  2.406297e-007  1.500000e+001
      vertex -7.655266e+000  3.170915e+000  1.500000e+001
      vertex -8.993107e+000  4.440892e-015  1.470711e+001
    endloop
  endfacet
  facet normal -3.815799e-001  7.590099e-002  9.212144e-001
    outer loop
      vertex -8.993107e+000  4.440892e-015  1.470711e+001
      vertex -7.655266e+000  3.170915e+000  1.500000e+001
      vertex -8.308547e+000  3.441513e+000  1.470711e+001
    endloop
  endfacet
  facet normal -9.086632e-001  1.807444e-001  3.763810e-001
    outer loop
      vertex -8.993107e+000  4.440892e-015  1.470711e+001
      vertex -8.308547e+000  3.441513e+000  1.470711e+001
      vertex -9.286000e+000  5.260982e-015  1.400000e+001
    endloop
  endfacet
  facet normal -9.086632e-001  1.807444e-001  3.763812e-001
    outer loop
      vertex -9.286000e+000  5.260982e-015  1.400000e+001
      vertex -8.308547e+000  3.441513e+000  1.470711e+001
      vertex -8.579145e+000  3.553598e+000  1.400000e+001
    endloop
  endfacet
  facet normal  3.815798e-001  7.590099e-002  9.212143e-001
    outer loop
      vertex  7.655266e+000  3.170915e+000  1.500000e+001
      vertex  8.286000e+000 -2.584529e-015  1.500000e+001
      vertex  8.308547e+000  3.441513e+000  1.470711e+001
    endloop
  endfacet
  facet normal  3.815798e-001  7.590099e-002  9.212143e-001
    outer loop
      vertex  8.308547e+000  3.441513e+000  1.470711e+001
      vertex  8.286000e+000 -2.584529e-015  1.500000e+001
      vertex  8.993107e+000 -8.881784e-015  1.470711e+001
    endloop
  endfacet
  facet normal  9.086632e-001  1.807444e-001  3.763812e-001
    outer loop
      vertex  8.308547e+000  3.441513e+000  1.470711e+001
      vertex  8.993107e+000 -8.881784e-015  1.470711e+001
      vertex  8.579145e+000  3.553598e+000  1.400000e+001
    endloop
  endfacet
  facet normal  9.086632e-001  1.807444e-001  3.763810e-001
    outer loop
      vertex  8.579145e+000  3.553598e+000  1.400000e+001
      vertex  8.993107e+000 -8.881784e-015  1.470711e+001
      vertex  9.286000e+000 -2.274339e-015  1.400000e+001
    endloop
  endfacet
  facet normal  3.234876e-001  2.161475e-001  9.212145e-001
    outer loop
      vertex  5.859087e+000  5.859087e+000  1.500000e+001
      vertex  7.655266e+000  3.170915e+000  1.500000e+001
      vertex  6.359087e+000  6.359087e+000  1.470711e+001
    endloop
  endfacet
  facet normal  3.234878e-001  2.161476e-001  9.212143e-001
    outer loop
      vertex  6.359087e+000  6.359087e+000  1.470711e+001
      vertex  7.655266e+000  3.170915e+000  1.500000e+001
      vertex  8.308547e+000  3.441513e+000  1.470711e+001
    endloop
  endfacet
  facet normal  7.703277e-001  5.147164e-001  3.763804e-001
    outer loop
      vertex  6.359087e+000  6.359087e+000  1.470711e+001
      vertex  8.308547e+000  3.441513e+000  1.470711e+001
      vertex  6.566194e+000  6.566194e+000  1.400000e+001
    endloop
  endfacet
  facet normal  7.703274e-001  5.147164e-001  3.763811e-001
    outer loop
      vertex  6.566194e+000  6.566194e+000  1.400000e+001
      vertex  8.308547e+000  3.441513e+000  1.470711e+001
      vertex  8.579145e+000  3.553598e+000  1.400000e+001
    endloop
  endfacet
  facet normal  2.161476e-001  3.234878e-001  9.212143e-001
    outer loop
      vertex  3.170915e+000  7.655266e+000  1.500000e+001
      vertex  5.859087e+000  5.859087e+000  1.500000e+001
      vertex  3.441513e+000  8.308547e+000  1.470711e+001
    endloop
  endfacet
  facet normal  2.161474e-001  3.234876e-001  9.212145e-001
    outer loop
      vertex  3.441513e+000  8.308547e+000  1.470711e+001
      vertex  5.859087e+000  5.859087e+000  1.500000e+001
      vertex  6.359087e+000  6.359087e+000  1.470711e+001
    endloop
  endfacet
  facet normal  5.147163e-001  7.703275e-001  3.763811e-001
    outer loop
      vertex  3.441513e+000  8.308547e+000  1.470711e+001
      vertex  6.359087e+000  6.359087e+000  1.470711e+001
      vertex  3.553598e+000  8.579145e+000  1.400000e+001
    endloop
  endfacet
  facet normal  5.147165e-001  7.703276e-001  3.763805e-001
    outer loop
      vertex  3.553598e+000  8.579145e+000  1.400000e+001
      vertex  6.359087e+000  6.359087e+000  1.470711e+001
      vertex  6.566194e+000  6.566194e+000  1.400000e+001
    endloop
  endfacet
  facet normal  7.590099e-002  3.815798e-001  9.212143e-001
    outer loop
      vertex  1.203148e-007  8.286000e+000  1.500000e+001
      vertex  3.170915e+000  7.655266e+000  1.500000e+001
      vertex  4.440892e-015  8.993107e+000  1.470711e+001
    endloop
  endfacet
  facet normal  7.590099e-002  3.815798e-001  9.212143e-001
    outer loop
      vertex  4.440892e-015  8.993107e+000  1.470711e+001
      vertex  3.170915e+000  7.655266e+000  1.500000e+001
      vertex  3.441513e+000  8.308547e+000  1.470711e+001
    endloop
  endfacet
  facet normal  1.807444e-001  9.086632e-001  3.763810e-001
    outer loop
      vertex  4.440892e-015  8.993107e+000  1.470711e+001
      vertex  3.441513e+000  8.308547e+000  1.470711e+001
      vertex  2.630491e-015  9.286000e+000  1.400000e+001
    endloop
  endfacet
  facet normal  1.807444e-001  9.086632e-001  3.763812e-001
    outer loop
      vertex  2.630491e-015  9.286000e+000  1.400000e+001
      vertex  3.441513e+000  8.308547e+000  1.470711e+001
      vertex  3.553598e+000  8.579145e+000  1.400000e+001
    endloop
  endfacet
  facet normal -7.590098e-002  3.815798e-001  9.212143e-001
    outer loop
      vertex -3.170915e+000  7.655266e+000  1.500000e+001
      vertex  1.203148e-007  8.286000e+000  1.500000e+001
      vertex -3.441513e+000  8.308547e+000  1.470711e+001
    endloop
  endfacet
  facet normal -7.590099e-002  3.815798e-001  9.212144e-001
    outer loop
      vertex -3.441513e+000  8.308547e+000  1.470711e+001
      vertex  1.203148e-007  8.286000e+000  1.500000e+001
      vertex  4.440892e-015  8.993107e+000  1.470711e+001
    endloop
  endfacet
  facet normal -1.807444e-001  9.086632e-001  3.763812e-001
    outer loop
      vertex -3.441513e+000  8.308547e+000  1.470711e+001
      vertex  4.440892e-015  8.993107e+000  1.470711e+001
      vertex -3.553598e+000  8.579145e+000  1.400000e+001
    endloop
  endfacet
  facet normal -1.807444e-001  9.086632e-001  3.763810e-001
    outer loop
      vertex -3.553598e+000  8.579145e+000  1.400000e+001
      vertex  4.440892e-015  8.993107e+000  1.470711e+001
      vertex  2.630491e-015  9.286000e+000  1.400000e+001
    endloop
  endfacet
  facet normal -2.161475e-001  3.234876e-001  9.212145e-001
    outer loop
      vertex -5.859087e+000  5.859087e+000  1.500000e+001
      vertex -3.170915e+000  7.655266e+000  1.500000e+001
      vertex -6.359087e+000  6.359087e+000  1.470711e+001
    endloop
  endfacet
  facet normal -2.161476e-001  3.234878e-001  9.212143e-001
    outer loop
      vertex -6.359087e+000  6.359087e+000  1.470711e+001
      vertex -3.170915e+000  7.655266e+000  1.500000e+001
      vertex -3.441513e+000  8.308547e+000  1.470711e+001
    endloop
  endfacet
  facet normal -5.147164e-001  7.703277e-001  3.763804e-001
    outer loop
      vertex -6.359087e+000  6.359087e+000  1.470711e+001
      vertex -3.441513e+000  8.308547e+000  1.470711e+001
      vertex -6.566194e+000  6.566194e+000  1.400000e+001
    endloop
  endfacet
  facet normal -5.147164e-001  7.703274e-001  3.763811e-001
    outer loop
      vertex -6.566194e+000  6.566194e+000  1.400000e+001
      vertex -3.441513e+000  8.308547e+000  1.470711e+001
      vertex -3.553598e+000  8.579145e+000  1.400000e+001
    endloop
  endfacet
  facet normal -3.234878e-001  2.161477e-001  9.212143e-001
    outer loop
      vertex -7.655266e+000  3.170915e+000  1.500000e+001
      vertex -5.859087e+000  5.859087e+000  1.500000e+001
      vertex -8.308547e+000  3.441513e+000  1.470711e+001
    endloop
  endfacet
  facet normal -3.234876e-001  2.161474e-001  9.212145e-001
    outer loop
      vertex -8.308547e+000  3.441513e+000  1.470711e+001
      vertex -5.859087e+000  5.859087e+000  1.500000e+001
      vertex -6.359087e+000  6.359087e+000  1.470711e+001
    endloop
  endfacet
  facet normal -7.703275e-001  5.147163e-001  3.763811e-001
    outer loop
      vertex -8.308547e+000  3.441513e+000  1.470711e+001
      vertex -6.359087e+000  6.359087e+000  1.470711e+001
      vertex -8.579145e+000  3.553598e+000  1.400000e+001
    endloop
  endfacet
  facet normal -7.703276e-001  5.147165e-001  3.763805e-001
    outer loop
      vertex -8.579145e+000  3.553598e+000  1.400000e+001
      vertex -6.359087e+000  6.359087e+000  1.470711e+001
      vertex -6.566194e+000  6.566194e+000  1.400000e+001
    endloop
  endfacet
  facet normal  3.815798e-001 -7.590098e-002  9.212143e-001
    outer loop
      vertex  8.286000e+000 -2.584529e-015  1.500000e+001
      vertex  7.655266e+000 -3.170915e+000  1.500000e+001
      vertex  8.993107e+000 -8.881784e-015  1.470711e+001
    endloop
  endfacet
  facet normal  3.815798e-001 -7.590099e-002  9.212143e-001
    outer loop
      vertex  8.993107e+000 -8.881784e-015  1.470711e+001
      vertex  7.655266e+000 -3.170915e+000  1.500000e+001
      vertex  8.308547e+000 -3.441513e+000  1.470711e+001
    endloop
  endfacet
  facet normal  9.086632e-001 -1.807444e-001  3.763810e-001
    outer loop
      vertex  8.993107e+000 -8.881784e-015  1.470711e+001
      vertex  8.308547e+000 -3.441513e+000  1.470711e+001
      vertex  9.286000e+000 -2.274339e-015  1.400000e+001
    endloop
  endfacet
  facet normal  9.086632e-001 -1.807444e-001  3.763812e-001
    outer loop
      vertex  9.286000e+000 -2.274339e-015  1.400000e+001
      vertex  8.308547e+000 -3.441513e+000  1.470711e+001
      vertex  8.579145e+000 -3.553598e+000  1.400000e+001
    endloop
  endfacet
  facet normal -3.815799e-001 -7.590098e-002  9.212143e-001
    outer loop
      vertex -7.655266e+000 -3.170915e+000  1.500000e+001
      vertex -8.286000e+000  2.406297e-007  1.500000e+001
      vertex -8.308547e+000 -3.441513e+000  1.470711e+001
    endloop
  endfacet
  facet normal -3.815798e-001 -7.590099e-002  9.212144e-001
    outer loop
      vertex -8.308547e+000 -3.441513e+000  1.470711e+001
      vertex -8.286000e+000  2.406297e-007  1.500000e+001
      vertex -8.993107e+000  4.440892e-015  1.470711e+001
    endloop
  endfacet
  facet normal -9.086632e-001 -1.807444e-001  3.763812e-001
    outer loop
      vertex -8.308547e+000 -3.441513e+000  1.470711e+001
      vertex -8.993107e+000  4.440892e-015  1.470711e+001
      vertex -8.579145e+000 -3.553598e+000  1.400000e+001
    endloop
  endfacet
  facet normal -9.086632e-001 -1.807444e-001  3.763810e-001
    outer loop
      vertex -8.579145e+000 -3.553598e+000  1.400000e+001
      vertex -8.993107e+000  4.440892e-015  1.470711e+001
      vertex -9.286000e+000  5.260982e-015  1.400000e+001
    endloop
  endfacet
  facet normal -3.234875e-001 -2.161475e-001  9.212145e-001
    outer loop
      vertex -5.859087e+000 -5.859087e+000  1.500000e+001
      vertex -7.655266e+000 -3.170915e+000  1.500000e+001
      vertex -6.359087e+000 -6.359087e+000  1.470711e+001
    endloop
  endfacet
  facet normal -3.234878e-001 -2.161476e-001  9.212143e-001
    outer loop
      vertex -6.359087e+000 -6.359087e+000  1.470711e+001
      vertex -7.655266e+000 -3.170915e+000  1.500000e+001
      vertex -8.308547e+000 -3.441513e+000  1.470711e+001
    endloop
  endfacet
  facet normal -7.703277e-001 -5.147164e-001  3.763804e-001
    outer loop
      vertex -6.359087e+000 -6.359087e+000  1.470711e+001
      vertex -8.308547e+000 -3.441513e+000  1.470711e+001
      vertex -6.566194e+000 -6.566194e+000  1.400000e+001
    endloop
  endfacet
  facet normal -7.703274e-001 -5.147164e-001  3.763811e-001
    outer loop
      vertex -6.566194e+000 -6.566194e+000  1.400000e+001
      vertex -8.308547e+000 -3.441513e+000  1.470711e+001
      vertex -8.579145e+000 -3.553598e+000  1.400000e+001
    endloop
  endfacet
  facet normal -2.161476e-001 -3.234878e-001  9.212143e-001
    outer loop
      vertex -3.170915e+000 -7.655266e+000  1.500000e+001
      vertex -5.859087e+000 -5.859087e+000  1.500000e+001
      vertex -3.441513e+000 -8.308547e+000  1.470711e+001
    endloop
  endfacet
  facet normal -2.161475e-001 -3.234876e-001  9.212145e-001
    outer loop
      vertex -3.441513e+000 -8.308547e+000  1.470711e+001
      vertex -5.859087e+000 -5.859087e+000  1.500000e+001
      vertex -6.359087e+000 -6.359087e+000  1.470711e+001
    endloop
  endfacet
  facet normal -5.147163e-001 -7.703275e-001  3.763811e-001
    outer loop
      vertex -3.441513e+000 -8.308547e+000  1.470711e+001
      vertex -6.359087e+000 -6.359087e+000  1.470711e+001
      vertex -3.553598e+000 -8.579145e+000  1.400000e+001
    endloop
  endfacet
  facet normal -5.147165e-001 -7.703276e-001  3.763805e-001
    outer loop
      vertex -3.553598e+000 -8.579145e+000  1.400000e+001
      vertex -6.359087e+000 -6.359087e+000  1.470711e+001
      vertex -6.566194e+000 -6.566194e+000  1.400000e+001
    endloop
  endfacet
  facet normal -7.590098e-002 -3.815798e-001  9.212143e-001
    outer loop
      vertex  8.590845e-008 -8.286000e+000  1.500000e+001
      vertex -3.170915e+000 -7.655266e+000  1.500000e+001
      vertex -8.437695e-015 -8.993107e+000  1.470711e+001
    endloop
  endfacet
  facet normal -7.590099e-002 -3.815798e-001  9.212143e-001
    outer loop
      vertex -8.437695e-015 -8.993107e+000  1.470711e+001
      vertex -3.170915e+000 -7.655266e+000  1.500000e+001
      vertex -3.441513e+000 -8.308547e+000  1.470711e+001
    endloop
  endfacet
  facet normal -1.807444e-001 -9.086632e-001  3.763810e-001
    outer loop
      vertex -8.437695e-015 -8.993107e+000  1.470711e+001
      vertex -3.441513e+000 -8.308547e+000  1.470711e+001
      vertex -1.705754e-015 -9.286000e+000  1.400000e+001
    endloop
  endfacet
  facet normal -1.807444e-001 -9.086632e-001  3.763812e-001
    outer loop
      vertex -1.705754e-015 -9.286000e+000  1.400000e+001
      vertex -3.441513e+000 -8.308547e+000  1.470711e+001
      vertex -3.553598e+000 -8.579145e+000  1.400000e+001
    endloop
  endfacet
  facet normal  7.590099e-002 -3.815798e-001  9.212143e-001
    outer loop
      vertex  3.170915e+000 -7.655266e+000  1.500000e+001
      vertex  8.590845e-008 -8.286000e+000  1.500000e+001
      vertex  3.441513e+000 -8.308547e+000  1.470711e+001
    endloop
  endfacet
  facet normal  7.590099e-002 -3.815798e-001  9.212143e-001
    outer loop
      vertex  3.441513e+000 -8.308547e+000  1.470711e+001
      vertex  8.590845e-008 -8.286000e+000  1.500000e+001
      vertex -8.437695e-015 -8.993107e+000  1.470711e+001
    endloop
  endfacet
  facet normal  1.807444e-001 -9.086632e-001  3.763812e-001
    outer loop
      vertex  3.441513e+000 -8.308547e+000  1.470711e+001
      vertex -8.437695e-015 -8.993107e+000  1.470711e+001
      vertex  3.553598e+000 -8.579145e+000  1.400000e+001
    endloop
  endfacet
  facet normal  1.807444e-001 -9.086632e-001  3.763810e-001
    outer loop
      vertex  3.553598e+000 -8.579145e+000  1.400000e+001
      vertex -8.437695e-015 -8.993107e+000  1.470711e+001
      vertex -1.705754e-015 -9.286000e+000  1.400000e+001
    endloop
  endfacet
  facet normal  2.161475e-001 -3.234877e-001  9.212145e-001
    outer loop
      vertex  5.859087e+000 -5.859087e+000  1.500000e+001
      vertex  3.170915e+000 -7.655266e+000  1.500000e+001
      vertex  6.359087e+000 -6.359087e+000  1.470711e+001
    endloop
  endfacet
  facet normal  2.161476e-001 -3.234878e-001  9.212143e-001
    outer loop
      vertex  6.359087e+000 -6.359087e+000  1.470711e+001
      vertex  3.170915e+000 -7.655266e+000  1.500000e+001
      vertex  3.441513e+000 -8.308547e+000  1.470711e+001
    endloop
  endfacet
  facet normal  5.147164e-001 -7.703277e-001  3.763804e-001
    outer loop
      vertex  6.359087e+000 -6.359087e+000  1.470711e+001
      vertex  3.441513e+000 -8.308547e+000  1.470711e+001
      vertex  6.566194e+000 -6.566194e+000  1.400000e+001
    endloop
  endfacet
  facet normal  5.147164e-001 -7.703274e-001  3.763811e-001
    outer loop
      vertex  6.566194e+000 -6.566194e+000  1.400000e+001
      vertex  3.441513e+000 -8.308547e+000  1.470711e+001
      vertex  3.553598e+000 -8.579145e+000  1.400000e+001
    endloop
  endfacet
  facet normal  3.234878e-001 -2.161476e-001  9.212143e-001
    outer loop
      vertex  7.655266e+000 -3.170915e+000  1.500000e+001
      vertex  5.859087e+000 -5.859087e+000  1.500000e+001
      vertex  8.308547e+000 -3.441513e+000  1.470711e+001
    endloop
  endfacet
  facet normal  3.234878e-001 -2.161475e-001  9.212145e-001
    outer loop
      vertex  8.308547e+000 -3.441513e+000  1.470711e+001
      vertex  5.859087e+000 -5.859087e+000  1.500000e+001
      vertex  6.359087e+000 -6.359087e+000  1.470711e+001
    endloop
  endfacet
  facet normal  7.703275e-001 -5.147163e-001  3.763811e-001
    outer loop
      vertex  8.308547e+000 -3.441513e+000  1.470711e+001
      vertex  6.359087e+000 -6.359087e+000  1.470711e+001
      vertex  8.579145e+000 -3.553598e+000  1.400000e+001
    endloop
  endfacet
  facet normal  7.703276e-001 -5.147165e-001  3.763805e-001
    outer loop
      vertex  8.579145e+000 -3.553598e+000  1.400000e+001
      vertex  6.359087e+000 -6.359087e+000  1.470711e+001
      vertex  6.566194e+000 -6.566194e+000  1.400000e+001
    endloop
  endfacet
  facet normal  0.000000e+000  -0.000000e+000 -1.000000e+000
    outer loop
      vertex -1.643540e+000  7.200818e+000 -1.500000e+001
      vertex  1.203148e-007  8.286000e+000 -1.500000e+001
      vertex  1.643540e+000  7.200818e+000 -1.500000e+001
    endloop
  endfacet
  facet normal  0.000000e+000  0.000000e+000 -1.000000e+000
    outer loop
      vertex  1.643540e+000  7.200818e+000 -1.500000e+001
      vertex  1.203148e-007  8.286000e+000 -1.500000e+001
      vertex  3.170915e+000  7.655266e+000 -1.500000e+001
    endloop
  endfacet
  facet normal  0.000000e+000  -0.000000e+000 -1.000000e+000
    outer loop
      vertex  1.643540e+000  7.200818e+000 -1.500000e+001
      vertex  3.170915e+000  7.655266e+000 -1.500000e+001
      vertex  4.605096e+000  5.774607e+000 -1.500000e+001
    endloop
  endfacet
  facet normal  0.000000e+000  0.000000e+000 -1.000000e+000
    outer loop
      vertex  4.605096e+000  5.774607e+000 -1.500000e+001
      vertex  3.170915e+000  7.655266e+000 -1.500000e+001
      vertex  5.859087e+000  5.859087e+000 -1.500000e+001
    endloop
  endfacet
  facet normal  0.000000e+000  -0.000000e+000 -1.000000e+000
    outer loop
      vertex  4.605096e+000  5.774607e+000 -1.500000e+001
      vertex  5.859087e+000  5.859087e+000 -1.500000e+001
      vertex  6.654556e+000  3.204665e+000 -1.500000e+001
    endloop
  endfacet
  facet normal  0.000000e+000  0.000000e+000 -1.000000e+000
    outer loop
      vertex  6.654556e+000  3.204665e+000 -1.500000e+001
      vertex  5.859087e+000  5.859087e+000 -1.500000e+001
      vertex  7.655266e+000  3.170915e+000 -1.500000e+001
    endloop
  endfacet
  facet normal  -0.000000e+000  0.000000e+000 -1.000000e+000
    outer loop
      vertex  6.654556e+000  3.204665e+000 -1.500000e+001
      vertex  7.655266e+000  3.170915e+000 -1.500000e+001
      vertex  7.386000e+000  0.000000e+000 -1.500000e+001
    endloop
  endfacet
  facet normal  0.000000e+000  0.000000e+000 -1.000000e+000
    outer loop
      vertex  7.386000e+000  0.000000e+000 -1.500000e+001
      vertex  7.655266e+000  3.170915e+000 -1.500000e+001
      vertex  8.286000e+000 -9.139064e-015 -1.500000e+001
    endloop
  endfacet
  facet normal  -0.000000e+000  0.000000e+000 -1.000000e+000
    outer loop
      vertex  7.386000e+000  0.000000e+000 -1.500000e+001
      vertex  8.286000e+000 -9.139064e-015 -1.500000e+001
      vertex  6.654556e+000 -3.204665e+000 -1.500000e+001
    endloop
  endfacet
  facet normal  0.000000e+000  0.000000e+000 -1.000000e+000
    outer loop
      vertex  6.654556e+000 -3.204665e+000 -1.500000e+001
      vertex  8.286000e+000 -9.139064e-015 -1.500000e+001
      vertex  7.655266e+000 -3.170915e+000 -1.500000e+001
    endloop
  endfacet
  facet normal  0.000000e+000  0.000000e+000 -1.000000e+000
    outer loop
      vertex  6.654556e+000 -3.204665e+000 -1.500000e+001
      vertex  7.655266e+000 -3.170915e+000 -1.500000e+001
      vertex  4.605096e+000 -5.774607e+000 -1.500000e+001
    endloop
  endfacet
  facet normal  0.000000e+000  0.000000e+000 -1.000000e+000
    outer loop
      vertex  4.605096e+000 -5.774607e+000 -1.500000e+001
      vertex  7.655266e+000 -3.170915e+000 -1.500000e+001
      vertex  5.859087e+000 -5.859087e+000 -1.500000e+001
    endloop
  endfacet
  facet normal  -0.000000e+000  0.000000e+000 -1.000000e+000
    outer loop
      vertex  4.605096e+000 -5.774607e+000 -1.500000e+001
      vertex  5.859087e+000 -5.859087e+000 -1.500000e+001
      vertex  1.643540e+000 -7.200818e+000 -1.500000e+001
    endloop
  endfacet
  facet normal  0.000000e+000  0.000000e+000 -1.000000e+000
    outer loop
      vertex  1.643540e+000 -7.200818e+000 -1.500000e+001
      vertex  5.859087e+000 -5.859087e+000 -1.500000e+001
      vertex  3.170915e+000 -7.655266e+000 -1.500000e+001
    endloop
  endfacet
  facet normal  0.000000e+000  0.000000e+000 -1.000000e+000
    outer loop
      vertex  1.643540e+000 -7.200818e+000 -1.500000e+001
      vertex  3.170915e+000 -7.655266e+000 -1.500000e+001
      vertex -1.643540e+000 -7.200818e+000 -1.500000e+001
    endloop
  endfacet
  facet normal  0.000000e+000  0.000000e+000 -1.000000e+000
    outer loop
      vertex -1.643540e+000 -7.200818e+000 -1.500000e+001
      vertex  3.170915e+000 -7.655266e+000 -1.500000e+001
      vertex -1.517459e-008 -8.286000e+000 -1.500000e+001
    endloop
  endfacet
  facet normal  0.000000e+000  0.000000e+000 -1.000000e+000
    outer loop
      vertex -1.643540e+000 -7.200818e+000 -1.500000e+001
      vertex -1.517459e-008 -8.286000e+000 -1.500000e+001
      vertex -3.170915e+000 -7.655266e+000 -1.500000e+001
    endloop
  endfacet
  facet normal  0.000000e+000  0.000000e+000 -1.000000e+000
    outer loop
      vertex -1.643540e+000 -7.200818e+000 -1.500000e+001
      vertex -3.170915e+000 -7.655266e+000 -1.500000e+001
      vertex -4.605096e+000 -5.774607e+000 -1.500000e+001
    endloop
  endfacet
  facet normal  0.000000e+000  -0.000000e+000 -9.999999e-001
    outer loop
      vertex -4.605096e+000 -5.774607e+000 -1.500000e+001
      vertex -3.170915e+000 -7.655266e+000 -1.500000e+001
      vertex -5.859087e+000 -5.859087e+000 -1.500000e+001
    endloop
  endfacet
  facet normal  0.000000e+000  0.000000e+000 -1.000000e+000
    outer loop
      vertex -4.605096e+000 -5.774607e+000 -1.500000e+001
      vertex -5.859087e+000 -5.859087e+000 -1.500000e+001
      vertex -6.654556e+000 -3.204665e+000 -1.500000e+001
    endloop
  endfacet
  facet normal  -0.000000e+000  -0.000000e+000 -1.000000e+000
    outer loop
      vertex -6.654556e+000 -3.204665e+000 -1.500000e+001
      vertex -5.859087e+000 -5.859087e+000 -1.500000e+001
      vertex -7.655266e+000 -3.170915e+000 -1.500000e+001
    endloop
  endfacet
  facet normal  0.000000e+000  0.000000e+000 -1.000000e+000
    outer loop
      vertex -6.654556e+000 -3.204665e+000 -1.500000e+001
      vertex -7.655266e+000 -3.170915e+000 -1.500000e+001
      vertex -7.386000e+000  9.044943e-016 -1.500000e+001
    endloop
  endfacet
  facet normal  -0.000000e+000  0.000000e+000 -1.000000e+000
    outer loop
      vertex -7.386000e+000  9.044943e-016 -1.500000e+001
      vertex -7.655266e+000 -3.170915e+000 -1.500000e+001
      vertex -8.286000e+000  2.406297e-007 -1.500000e+001
    endloop
  endfacet
  facet normal  0.000000e+000  0.000000e+000 -1.000000e+000
    outer loop
      vertex -7.386000e+000  9.044943e-016 -1.500000e+001
      vertex -8.286000e+000  2.406297e-007 -1.500000e+001
      vertex -6.654556e+000  3.204665e+000 -1.500000e+001
    endloop
  endfacet
  facet normal  0.000000e+000  0.000000e+000 -1.000000e+000
    outer loop
      vertex -6.654556e+000  3.204665e+000 -1.500000e+001
      vertex -8.286000e+000  2.406297e-007 -1.500000e+001
      vertex -7.655266e+000  3.170915e+000 -1.500000e+001
    endloop
  endfacet
  facet normal  0.000000e+000  0.000000e+000 -1.000000e+000
    outer loop
      vertex -6.654556e+000  3.204665e+000 -1.500000e+001
      vertex -7.655266e+000  3.170915e+000 -1.500000e+001
      vertex -4.605096e+000  5.774607e+000 -1.500000e+001
    endloop
  endfacet
  facet normal  -0.000000e+000  0.000000e+000 -1.000000e+000
    outer loop
      vertex -4.605096e+000  5.774607e+000 -1.500000e+001
      vertex -7.655266e+000  3.170915e+000 -1.500000e+001
      vertex -5.859087e+000  5.859087e+000 -1.500000e+001
    endloop
  endfacet
  facet normal  0.000000e+000  0.000000e+000 -1.000000e+000
    outer loop
      vertex -4.605096e+000  5.774607e+000 -1.500000e+001
      vertex -5.859087e+000  5.859087e+000 -1.500000e+001
      vertex -1.643540e+000  7.200818e+000 -1.500000e+001
    endloop
  endfacet
  facet normal  -0.000000e+000  0.000000e+000 -1.000000e+000
    outer loop
      vertex -1.643540e+000  7.200818e+000 -1.500000e+001
      vertex -5.859087e+000  5.859087e+000 -1.500000e+001
      vertex -3.170915e+000  7.655266e+000 -1.500000e+001
    endloop
  endfacet
  facet normal  0.000000e+000  0.000000e+000 -1.000000e+000
    outer loop
      vertex -1.643540e+000  7.200818e+000 -1.500000e+001
      vertex -3.170915e+000  7.655266e+000 -1.500000e+001
      vertex  1.203148e-007  8.286000e+000 -1.500000e+001
    endloop
  endfacet
  facet normal -9.086632e-001  1.807444e-001 -3.763810e-001
    outer loop
      vertex -9.286000e+000  5.260982e-015 -1.400000e+001
      vertex -8.579145e+000  3.553598e+000 -1.400000e+001
      vertex -8.993107e+000  3.293910e-008 -1.470711e+001
    endloop
  endfacet
  facet normal -9.086631e-001  1.807444e-001 -3.763811e-001
    outer loop
      vertex -8.993107e+000  3.293910e-008 -1.470711e+001
      vertex -8.579145e+000  3.553598e+000 -1.400000e+001
      vertex -8.308547e+000  3.441513e+000 -1.470711e+001
    endloop
  endfacet
  facet normal -3.815798e-001  7.590099e-002 -9.212143e-001
    outer loop
      vertex -8.993107e+000  3.293910e-008 -1.470711e+001
      vertex -8.308547e+000  3.441513e+000 -1.470711e+001
      vertex -8.286000e+000  2.406297e-007 -1.500000e+001
    endloop
  endfacet
  facet normal -3.815798e-001  7.590099e-002 -9.212143e-001
    outer loop
      vertex -8.286000e+000  2.406297e-007 -1.500000e+001
      vertex -8.308547e+000  3.441513e+000 -1.470711e+001
      vertex -7.655266e+000  3.170915e+000 -1.500000e+001
    endloop
  endfacet
  facet normal  9.086632e-001  1.807444e-001 -3.763812e-001
    outer loop
      vertex  8.579145e+000  3.553598e+000 -1.400000e+001
      vertex  9.286000e+000 -2.274339e-015 -1.400000e+001
      vertex  8.308547e+000  3.441513e+000 -1.470711e+001
    endloop
  endfacet
  facet normal  9.086632e-001  1.807444e-001 -3.763810e-001
    outer loop
      vertex  8.308547e+000  3.441513e+000 -1.470711e+001
      vertex  9.286000e+000 -2.274339e-015 -1.400000e+001
      vertex  8.993107e+000 -1.687539e-014 -1.470711e+001
    endloop
  endfacet
  facet normal  3.815799e-001  7.590099e-002 -9.212143e-001
    outer loop
      vertex  8.308547e+000  3.441513e+000 -1.470711e+001
      vertex  8.993107e+000 -1.687539e-014 -1.470711e+001
      vertex  7.655266e+000  3.170915e+000 -1.500000e+001
    endloop
  endfacet
  facet normal  3.815798e-001  7.590098e-002 -9.212143e-001
    outer loop
      vertex  7.655266e+000  3.170915e+000 -1.500000e+001
      vertex  8.993107e+000 -1.687539e-014 -1.470711e+001
      vertex  8.286000e+000 -9.139064e-015 -1.500000e+001
    endloop
  endfacet
  facet normal  7.703276e-001  5.147164e-001 -3.763808e-001
    outer loop
      vertex  6.566194e+000  6.566194e+000 -1.400000e+001
      vertex  8.579145e+000  3.553598e+000 -1.400000e+001
      vertex  6.359087e+000  6.359087e+000 -1.470711e+001
    endloop
  endfacet
  facet normal  7.703274e-001  5.147163e-001 -3.763812e-001
    outer loop
      vertex  6.359087e+000  6.359087e+000 -1.470711e+001
      vertex  8.579145e+000  3.553598e+000 -1.400000e+001
      vertex  8.308547e+000  3.441513e+000 -1.470711e+001
    endloop
  endfacet
  facet normal  3.234877e-001  2.161475e-001 -9.212145e-001
    outer loop
      vertex  6.359087e+000  6.359087e+000 -1.470711e+001
      vertex  8.308547e+000  3.441513e+000 -1.470711e+001
      vertex  5.859087e+000  5.859087e+000 -1.500000e+001
    endloop
  endfacet
  facet normal  3.234878e-001  2.161476e-001 -9.212143e-001
    outer loop
      vertex  5.859087e+000  5.859087e+000 -1.500000e+001
      vertex  8.308547e+000  3.441513e+000 -1.470711e+001
      vertex  7.655266e+000  3.170915e+000 -1.500000e+001
    endloop
  endfacet
  facet normal  5.147164e-001  7.703274e-001 -3.763811e-001
    outer loop
      vertex  3.553598e+000  8.579145e+000 -1.400000e+001
      vertex  6.566194e+000  6.566194e+000 -1.400000e+001
      vertex  3.441513e+000  8.308547e+000 -1.470711e+001
    endloop
  endfacet
  facet normal  5.147164e-001  7.703275e-001 -3.763809e-001
    outer loop
      vertex  3.441513e+000  8.308547e+000 -1.470711e+001
      vertex  6.566194e+000  6.566194e+000 -1.400000e+001
      vertex  6.359087e+000  6.359087e+000 -1.470711e+001
    endloop
  endfacet
  facet normal  2.161476e-001  3.234878e-001 -9.212144e-001
    outer loop
      vertex  3.441513e+000  8.308547e+000 -1.470711e+001
      vertex  6.359087e+000  6.359087e+000 -1.470711e+001
      vertex  3.170915e+000  7.655266e+000 -1.500000e+001
    endloop
  endfacet
  facet normal  2.161476e-001  3.234877e-001 -9.212144e-001
    outer loop
      vertex  3.170915e+000  7.655266e+000 -1.500000e+001
      vertex  6.359087e+000  6.359087e+000 -1.470711e+001
      vertex  5.859087e+000  5.859087e+000 -1.500000e+001
    endloop
  endfacet
  facet normal  1.807444e-001  9.086632e-001 -3.763809e-001
    outer loop
      vertex  2.630491e-015  9.286000e+000 -1.400000e+001
      vertex  3.553598e+000  8.579145e+000 -1.400000e+001
      vertex  1.305822e-007  8.993107e+000 -1.470711e+001
    endloop
  endfacet
  facet normal  1.807444e-001  9.086632e-001 -3.763812e-001
    outer loop
      vertex  1.305822e-007  8.993107e+000 -1.470711e+001
      vertex  3.553598e+000  8.579145e+000 -1.400000e+001
      vertex  3.441513e+000  8.308547e+000 -1.470711e+001
    endloop
  endfacet
  facet normal  7.590099e-002  3.815798e-001 -9.212143e-001
    outer loop
      vertex  1.305822e-007  8.993107e+000 -1.470711e+001
      vertex  3.441513e+000  8.308547e+000 -1.470711e+001
      vertex  1.203148e-007  8.286000e+000 -1.500000e+001
    endloop
  endfacet
  facet normal  7.590099e-002  3.815798e-001 -9.212143e-001
    outer loop
      vertex  1.203148e-007  8.286000e+000 -1.500000e+001
      vertex  3.441513e+000  8.308547e+000 -1.470711e+001
      vertex  3.170915e+000  7.655266e+000 -1.500000e+001
    endloop
  endfacet
  facet normal -1.807444e-001  9.086632e-001 -3.763812e-001
    outer loop
      vertex -3.553598e+000  8.579145e+000 -1.400000e+001
      vertex  2.630491e-015  9.286000e+000 -1.400000e+001
      vertex -3.441513e+000  8.308547e+000 -1.470711e+001
    endloop
  endfacet
  facet normal -1.807444e-001  9.086632e-001 -3.763810e-001
    outer loop
      vertex -3.441513e+000  8.308547e+000 -1.470711e+001
      vertex  2.630491e-015  9.286000e+000 -1.400000e+001
      vertex  1.305822e-007  8.993107e+000 -1.470711e+001
    endloop
  endfacet
  facet normal -7.590099e-002  3.815799e-001 -9.212144e-001
    outer loop
      vertex -3.441513e+000  8.308547e+000 -1.470711e+001
      vertex  1.305822e-007  8.993107e+000 -1.470711e+001
      vertex -3.170915e+000  7.655266e+000 -1.500000e+001
    endloop
  endfacet
  facet normal -7.590096e-002  3.815798e-001 -9.212143e-001
    outer loop
      vertex -3.170915e+000  7.655266e+000 -1.500000e+001
      vertex  1.305822e-007  8.993107e+000 -1.470711e+001
      vertex  1.203148e-007  8.286000e+000 -1.500000e+001
    endloop
  endfacet
  facet normal -5.147164e-001  7.703276e-001 -3.763808e-001
    outer loop
      vertex -6.566194e+000  6.566194e+000 -1.400000e+001
      vertex -3.553598e+000  8.579145e+000 -1.400000e+001
      vertex -6.359087e+000  6.359087e+000 -1.470711e+001
    endloop
  endfacet
  facet normal -5.147163e-001  7.703274e-001 -3.763812e-001
    outer loop
      vertex -6.359087e+000  6.359087e+000 -1.470711e+001
      vertex -3.553598e+000  8.579145e+000 -1.400000e+001
      vertex -3.441513e+000  8.308547e+000 -1.470711e+001
    endloop
  endfacet
  facet normal -2.161475e-001  3.234877e-001 -9.212145e-001
    outer loop
      vertex -6.359087e+000  6.359087e+000 -1.470711e+001
      vertex -3.441513e+000  8.308547e+000 -1.470711e+001
      vertex -5.859087e+000  5.859087e+000 -1.500000e+001
    endloop
  endfacet
  facet normal -2.161476e-001  3.234878e-001 -9.212143e-001
    outer loop
      vertex -5.859087e+000  5.859087e+000 -1.500000e+001
      vertex -3.441513e+000  8.308547e+000 -1.470711e+001
      vertex -3.170915e+000  7.655266e+000 -1.500000e+001
    endloop
  endfacet
  facet normal -7.703275e-001  5.147164e-001 -3.763809e-001
    outer loop
      vertex -8.579145e+000  3.553598e+000 -1.400000e+001
      vertex -6.566194e+000  6.566194e+000 -1.400000e+001
      vertex -8.308547e+000  3.441513e+000 -1.470711e+001
    endloop
  endfacet
  facet normal -7.703274e-001  5.147164e-001 -3.763809e-001
    outer loop
      vertex -8.308547e+000  3.441513e+000 -1.470711e+001
      vertex -6.566194e+000  6.566194e+000 -1.400000e+001
      vertex -6.359087e+000  6.359087e+000 -1.470711e+001
    endloop
  endfacet
  facet normal -3.234877e-001  2.161476e-001 -9.212143e-001
    outer loop
      vertex -8.308547e+000  3.441513e+000 -1.470711e+001
      vertex -6.359087e+000  6.359087e+000 -1.470711e+001
      vertex -7.655266e+000  3.170915e+000 -1.500000e+001
    endloop
  endfacet
  facet normal -3.234877e-001  2.161476e-001 -9.212145e-001
    outer loop
      vertex -7.655266e+000  3.170915e+000 -1.500000e+001
      vertex -6.359087e+000  6.359087e+000 -1.470711e+001
      vertex -5.859087e+000  5.859087e+000 -1.500000e+001
    endloop
  endfacet
  facet normal  9.086632e-001 -1.807444e-001 -3.763810e-001
    outer loop
      vertex  9.286000e+000 -2.274339e-015 -1.400000e+001
      vertex  8.579145e+000 -3.553598e+000 -1.400000e+001
      vertex  8.993107e+000 -1.687539e-014 -1.470711e+001
    endloop
  endfacet
  facet normal  9.086632e-001 -1.807444e-001 -3.763812e-001
    outer loop
      vertex  8.993107e+000 -1.687539e-014 -1.470711e+001
      vertex  8.579145e+000 -3.553598e+000 -1.400000e+001
      vertex  8.308547e+000 -3.441513e+000 -1.470711e+001
    endloop
  endfacet
  facet normal  3.815798e-001 -7.590099e-002 -9.212143e-001
    outer loop
      vertex  8.993107e+000 -1.687539e-014 -1.470711e+001
      vertex  8.308547e+000 -3.441513e+000 -1.470711e+001
      vertex  8.286000e+000 -9.139064e-015 -1.500000e+001
    endloop
  endfacet
  facet normal  3.815798e-001 -7.590099e-002 -9.212143e-001
    outer loop
      vertex  8.286000e+000 -9.139064e-015 -1.500000e+001
      vertex  8.308547e+000 -3.441513e+000 -1.470711e+001
      vertex  7.655266e+000 -3.170915e+000 -1.500000e+001
    endloop
  endfacet
  facet normal -9.086632e-001 -1.807444e-001 -3.763812e-001
    outer loop
      vertex -8.579145e+000 -3.553598e+000 -1.400000e+001
      vertex -9.286000e+000  5.260982e-015 -1.400000e+001
      vertex -8.308547e+000 -3.441513e+000 -1.470711e+001
    endloop
  endfacet
  facet normal -9.086632e-001 -1.807444e-001 -3.763810e-001
    outer loop
      vertex -8.308547e+000 -3.441513e+000 -1.470711e+001
      vertex -9.286000e+000  5.260982e-015 -1.400000e+001
      vertex -8.993107e+000  3.293910e-008 -1.470711e+001
    endloop
  endfacet
  facet normal -3.815798e-001 -7.590099e-002 -9.212143e-001
    outer loop
      vertex -8.308547e+000 -3.441513e+000 -1.470711e+001
      vertex -8.993107e+000  3.293910e-008 -1.470711e+001
      vertex -7.655266e+000 -3.170915e+000 -1.500000e+001
    endloop
  endfacet
  facet normal -3.815798e-001 -7.590096e-002 -9.212143e-001
    outer loop
      vertex -7.655266e+000 -3.170915e+000 -1.500000e+001
      vertex -8.993107e+000  3.293910e-008 -1.470711e+001
      vertex -8.286000e+000  2.406297e-007 -1.500000e+001
    endloop
  endfacet
  facet normal -7.703276e-001 -5.147165e-001 -3.763805e-001
    outer loop
      vertex -6.566194e+000 -6.566194e+000 -1.400000e+001
      vertex -8.579145e+000 -3.553598e+000 -1.400000e+001
      vertex -6.359087e+000 -6.359087e+000 -1.470711e+001
    endloop
  endfacet
  facet normal -7.703275e-001 -5.147163e-001 -3.763811e-001
    outer loop
      vertex -6.359087e+000 -6.359087e+000 -1.470711e+001
      vertex -8.579145e+000 -3.553598e+000 -1.400000e+001
      vertex -8.308547e+000 -3.441513e+000 -1.470711e+001
    endloop
  endfacet
  facet normal -3.234878e-001 -2.161475e-001 -9.212145e-001
    outer loop
      vertex -6.359087e+000 -6.359087e+000 -1.470711e+001
      vertex -8.308547e+000 -3.441513e+000 -1.470711e+001
      vertex -5.859087e+000 -5.859087e+000 -1.500000e+001
    endloop
  endfacet
  facet normal -3.234878e-001 -2.161476e-001 -9.212143e-001
    outer loop
      vertex -5.859087e+000 -5.859087e+000 -1.500000e+001
      vertex -8.308547e+000 -3.441513e+000 -1.470711e+001
      vertex -7.655266e+000 -3.170915e+000 -1.500000e+001
    endloop
  endfacet
  facet normal -5.147164e-001 -7.703274e-001 -3.763811e-001
    outer loop
      vertex -3.553598e+000 -8.579145e+000 -1.400000e+001
      vertex -6.566194e+000 -6.566194e+000 -1.400000e+001
      vertex -3.441513e+000 -8.308547e+000 -1.470711e+001
    endloop
  endfacet
  facet normal -5.147164e-001 -7.703277e-001 -3.763804e-001
    outer loop
      vertex -3.441513e+000 -8.308547e+000 -1.470711e+001
      vertex -6.566194e+000 -6.566194e+000 -1.400000e+001
      vertex -6.359087e+000 -6.359087e+000 -1.470711e+001
    endloop
  endfacet
  facet normal -2.161476e-001 -3.234878e-001 -9.212143e-001
    outer loop
      vertex -3.441513e+000 -8.308547e+000 -1.470711e+001
      vertex -6.359087e+000 -6.359087e+000 -1.470711e+001
      vertex -3.170915e+000 -7.655266e+000 -1.500000e+001
    endloop
  endfacet
  facet normal -2.161475e-001 -3.234877e-001 -9.212145e-001
    outer loop
      vertex -3.170915e+000 -7.655266e+000 -1.500000e+001
      vertex -6.359087e+000 -6.359087e+000 -1.470711e+001
      vertex -5.859087e+000 -5.859087e+000 -1.500000e+001
    endloop
  endfacet
  facet normal -1.807444e-001 -9.086632e-001 -3.763810e-001
    outer loop
      vertex -1.705754e-015 -9.286000e+000 -1.400000e+001
      vertex -3.553598e+000 -8.579145e+000 -1.400000e+001
      vertex -1.646955e-008 -8.993107e+000 -1.470711e+001
    endloop
  endfacet
  facet normal -1.807444e-001 -9.086632e-001 -3.763812e-001
    outer loop
      vertex -1.646955e-008 -8.993107e+000 -1.470711e+001
      vertex -3.553598e+000 -8.579145e+000 -1.400000e+001
      vertex -3.441513e+000 -8.308547e+000 -1.470711e+001
    endloop
  endfacet
  facet normal -7.590099e-002 -3.815798e-001 -9.212143e-001
    outer loop
      vertex -1.646955e-008 -8.993107e+000 -1.470711e+001
      vertex -3.441513e+000 -8.308547e+000 -1.470711e+001
      vertex -1.517459e-008 -8.286000e+000 -1.500000e+001
    endloop
  endfacet
  facet normal -7.590099e-002 -3.815798e-001 -9.212143e-001
    outer loop
      vertex -1.517459e-008 -8.286000e+000 -1.500000e+001
      vertex -3.441513e+000 -8.308547e+000 -1.470711e+001
      vertex -3.170915e+000 -7.655266e+000 -1.500000e+001
    endloop
  endfacet
  facet normal  1.807444e-001 -9.086632e-001 -3.763812e-001
    outer loop
      vertex  3.553598e+000 -8.579145e+000 -1.400000e+001
      vertex -1.705754e-015 -9.286000e+000 -1.400000e+001
      vertex  3.441513e+000 -8.308547e+000 -1.470711e+001
    endloop
  endfacet
  facet normal  1.807444e-001 -9.086632e-001 -3.763810e-001
    outer loop
      vertex  3.441513e+000 -8.308547e+000 -1.470711e+001
      vertex -1.705754e-015 -9.286000e+000 -1.400000e+001
      vertex -1.646955e-008 -8.993107e+000 -1.470711e+001
    endloop
  endfacet
  facet normal  7.590099e-002 -3.815798e-001 -9.212143e-001
    outer loop
      vertex  3.441513e+000 -8.308547e+000 -1.470711e+001
      vertex -1.646955e-008 -8.993107e+000 -1.470711e+001
      vertex  3.170915e+000 -7.655266e+000 -1.500000e+001
    endloop
  endfacet
  facet normal  7.590098e-002 -3.815798e-001 -9.212143e-001
    outer loop
      vertex  3.170915e+000 -7.655266e+000 -1.500000e+001
      vertex -1.646955e-008 -8.993107e+000 -1.470711e+001
      vertex -1.517459e-008 -8.286000e+000 -1.500000e+001
    endloop
  endfacet
  facet normal  5.147165e-001 -7.703276e-001 -3.763805e-001
    outer loop
      vertex  6.566194e+000 -6.566194e+000 -1.400000e+001
      vertex  3.553598e+000 -8.579145e+000 -1.400000e+001
      vertex  6.359087e+000 -6.359087e+000 -1.470711e+001
    endloop
  endfacet
  facet normal  5.147163e-001 -7.703275e-001 -3.763811e-001
    outer loop
      vertex  6.359087e+000 -6.359087e+000 -1.470711e+001
      vertex  3.553598e+000 -8.579145e+000 -1.400000e+001
      vertex  3.441513e+000 -8.308547e+000 -1.470711e+001
    endloop
  endfacet
  facet normal  2.161475e-001 -3.234878e-001 -9.212145e-001
    outer loop
      vertex  6.359087e+000 -6.359087e+000 -1.470711e+001
      vertex  3.441513e+000 -8.308547e+000 -1.470711e+001
      vertex  5.859087e+000 -5.859087e+000 -1.500000e+001
    endloop
  endfacet
  facet normal  2.161476e-001 -3.234878e-001 -9.212143e-001
    outer loop
      vertex  5.859087e+000 -5.859087e+000 -1.500000e+001
      vertex  3.441513e+000 -8.308547e+000 -1.470711e+001
      vertex  3.170915e+000 -7.655266e+000 -1.500000e+001
    endloop
  endfacet
  facet normal  7.703274e-001 -5.147164e-001 -3.763811e-001
    outer loop
      vertex  8.579145e+000 -3.553598e+000 -1.400000e+001
      vertex  6.566194e+000 -6.566194e+000 -1.400000e+001
      vertex  8.308547e+000 -3.441513e+000 -1.470711e+001
    endloop
  endfacet
  facet normal  7.703277e-001 -5.147164e-001 -3.763804e-001
    outer loop
      vertex  8.308547e+000 -3.441513e+000 -1.470711e+001
      vertex  6.566194e+000 -6.566194e+000 -1.400000e+001
      vertex  6.359087e+000 -6.359087e+000 -1.470711e+001
    endloop
  endfacet
  facet normal  3.234878e-001 -2.161476e-001 -9.212143e-001
    outer loop
      vertex  8.308547e+000 -3.441513e+000 -1.470711e+001
      vertex  6.359087e+000 -6.359087e+000 -1.470711e+001
      vertex  7.655266e+000 -3.170915e+000 -1.500000e+001
    endloop
  endfacet
  facet normal  3.234877e-001 -2.161475e-001 -9.212145e-001
    outer loop
      vertex  7.655266e+000 -3.170915e+000 -1.500000e+001
      vertex  6.359087e+000 -6.359087e+000 -1.470711e+001
      vertex  5.859087e+000 -5.859087e+000 -1.500000e+001
    endloop
  endfacet
  facet normal  9.749280e-001 -2.225209e-001  0.000000e+000
    outer loop
      vertex -7.386000e+000  9.044943e-016  1.500000e+001
      vertex -7.386000e+000  9.044943e-016 -1.500000e+001
      vertex -6.654556e+000  3.204665e+000  1.500000e+001
    endloop
  endfacet
  facet normal  9.749280e-001 -2.225209e-001  0.000000e+000
    outer loop
      vertex -6.654556e+000  3.204665e+000  1.500000e+001
      vertex -7.386000e+000  9.044943e-016 -1.500000e+001
      vertex -6.654556e+000  3.204665e+000 -1.500000e+001
    endloop
  endfacet
  facet normal  7.818315e-001 -6.234898e-001  0.000000e+000
    outer loop
      vertex -6.654556e+000  3.204665e+000  1.500000e+001
      vertex -6.654556e+000  3.204665e+000 -1.500000e+001
      vertex -4.605096e+000  5.774607e+000  1.500000e+001
    endloop
  endfacet
  facet normal  7.818315e-001 -6.234898e-001  0.000000e+000
    outer loop
      vertex -4.605096e+000  5.774607e+000  1.500000e+001
      vertex -6.654556e+000  3.204665e+000 -1.500000e+001
      vertex -4.605096e+000  5.774607e+000 -1.500000e+001
    endloop
  endfacet
  facet normal  4.338838e-001 -9.009688e-001  0.000000e+000
    outer loop
      vertex -4.605096e+000  5.774607e+000  1.500000e+001
      vertex -4.605096e+000  5.774607e+000 -1.500000e+001
      vertex -1.643540e+000  7.200818e+000  1.500000e+001
    endloop
  endfacet
  facet normal  4.338838e-001 -9.009688e-001  0.000000e+000
    outer loop
      vertex -1.643540e+000  7.200818e+000  1.500000e+001
      vertex -4.605096e+000  5.774607e+000 -1.500000e+001
      vertex -1.643540e+000  7.200818e+000 -1.500000e+001
    endloop
  endfacet
  facet normal  0.000000e+000 -1.000000e+000  0.000000e+000
    outer loop
      vertex -1.643540e+000  7.200818e+000  1.500000e+001
      vertex -1.643540e+000  7.200818e+000 -1.500000e+001
      vertex  1.643540e+000  7.200818e+000  1.500000e+001
    endloop
  endfacet
  facet normal  0.000000e+000 -1.000000e+000  -0.000000e+000
    outer loop
      vertex  1.643540e+000  7.200818e+000  1.500000e+001
      vertex -1.643540e+000  7.200818e+000 -1.500000e+001
      vertex  1.643540e+000  7.200818e+000 -1.500000e+001
    endloop
  endfacet
  facet normal -4.338838e-001 -9.009688e-001  0.000000e+000
    outer loop
      vertex  1.643540e+000  7.200818e+000  1.500000e+001
      vertex  1.643540e+000  7.200818e+000 -1.500000e+001
      vertex  4.605096e+000  5.774607e+000  1.500000e+001
    endloop
  endfacet
  facet normal -4.338838e-001 -9.009688e-001  -0.000000e+000
    outer loop
      vertex  4.605096e+000  5.774607e+000  1.500000e+001
      vertex  1.643540e+000  7.200818e+000 -1.500000e+001
      vertex  4.605096e+000  5.774607e+000 -1.500000e+001
    endloop
  endfacet
  facet normal -7.818315e-001 -6.234898e-001  0.000000e+000
    outer loop
      vertex  4.605096e+000  5.774607e+000  1.500000e+001
      vertex  4.605096e+000  5.774607e+000 -1.500000e+001
      vertex  6.654556e+000  3.204665e+000  1.500000e+001
    endloop
  endfacet
  facet normal -7.818315e-001 -6.234898e-001  -0.000000e+000
    outer loop
      vertex  6.654556e+000  3.204665e+000  1.500000e+001
      vertex  4.605096e+000  5.774607e+000 -1.500000e+001
      vertex  6.654556e+000  3.204665e+000 -1.500000e+001
    endloop
  endfacet
  facet normal -9.749280e-001 -2.225209e-001  0.000000e+000
    outer loop
      vertex  6.654556e+000  3.204665e+000  1.500000e+001
      vertex  6.654556e+000  3.204665e+000 -1.500000e+001
      vertex  7.386000e+000  0.000000e+000  1.500000e+001
    endloop
  endfacet
  facet normal -9.749280e-001 -2.225209e-001  -0.000000e+000
    outer loop
      vertex  7.386000e+000  0.000000e+000  1.500000e+001
      vertex  6.654556e+000  3.204665e+000 -1.500000e+001
      vertex  7.386000e+000  0.000000e+000 -1.500000e+001
    endloop
  endfacet
  facet normal -9.749280e-001  2.225209e-001  0.000000e+000
    outer loop
      vertex  7.386000e+000  0.000000e+000  1.500000e+001
      vertex  7.386000e+000  0.000000e+000 -1.500000e+001
      vertex  6.654556e+000 -3.204665e+000  1.500000e+001
    endloop
  endfacet
  facet normal -9.749280e-001  2.225209e-001  0.000000e+000
    outer loop
      vertex  6.654556e+000 -3.204665e+000  1.500000e+001
      vertex  7.386000e+000  0.000000e+000 -1.500000e+001
      vertex  6.654556e+000 -3.204665e+000 -1.500000e+001
    endloop
  endfacet
  facet normal -7.818315e-001  6.234898e-001  0.000000e+000
    outer loop
      vertex  6.654556e+000 -3.204665e+000  1.500000e+001
      vertex  6.654556e+000 -3.204665e+000 -1.500000e+001
      vertex  4.605096e+000 -5.774607e+000  1.500000e+001
    endloop
  endfacet
  facet normal -7.818315e-001  6.234898e-001  0.000000e+000
    outer loop
      vertex  4.605096e+000 -5.774607e+000  1.500000e+001
      vertex  6.654556e+000 -3.204665e+000 -1.500000e+001
      vertex  4.605096e+000 -5.774607e+000 -1.500000e+001
    endloop
  endfacet
  facet normal -4.338838e-001  9.009688e-001  0.000000e+000
    outer loop
      vertex  4.605096e+000 -5.774607e+000  1.500000e+001
      vertex  4.605096e+000 -5.774607e+000 -1.500000e+001
      vertex  1.643540e+000 -7.200818e+000  1.500000e+001
    endloop
  endfacet
  facet normal -4.338838e-001  9.009688e-001  0.000000e+000
    outer loop
      vertex  1.643540e+000 -7.200818e+000  1.500000e+001
      vertex  4.605096e+000 -5.774607e+000 -1.500000e+001
      vertex  1.643540e+000 -7.200818e+000 -1.500000e+001
    endloop
  endfacet
  facet normal  0.000000e+000  1.000000e+000  -0.000000e+000
    outer loop
      vertex  1.643540e+000 -7.200818e+000  1.500000e+001
      vertex  1.643540e+000 -7.200818e+000 -1.500000e+001
      vertex -1.643540e+000 -7.200818e+000  1.500000e+001
    endloop
  endfacet
  facet normal  0.000000e+000  1.000000e+000  0.000000e+000
    outer loop
      vertex -1.643540e+000 -7.200818e+000  1.500000e+001
      vertex  1.643540e+000 -7.200818e+000 -1.500000e+001
      vertex -1.643540e+000 -7.200818e+000 -1.500000e+001
    endloop
  endfacet
  facet normal  4.338838e-001  9.009688e-001  -0.000000e+000
    outer loop
      vertex -1.643540e+000 -7.200818e+000  1.500000e+001
      vertex -1.643540e+000 -7.200818e+000 -1.500000e+001
      vertex -4.605096e+000 -5.774607e+000  1.500000e+001
    endloop
  endfacet
  facet normal  4.338838e-001  9.009688e-001  0.000000e+000
    outer loop
      vertex -4.605096e+000 -5.774607e+000  1.500000e+001
      vertex -1.643540e+000 -7.200818e+000 -1.500000e+001
      vertex -4.605096e+000 -5.774607e+000 -1.500000e+001
    endloop
  endfacet
  facet normal  7.818315e-001  6.234898e-001  -0.000000e+000
    outer loop
      vertex -4.605096e+000 -5.774607e+000  1.500000e+001
      vertex -4.605096e+000 -5.774607e+000 -1.500000e+001
      vertex -6.654556e+000 -3.204665e+000  1.500000e+001
    endloop
  endfacet
  facet normal  7.818315e-001  6.234898e-001  0.000000e+000
    outer loop
      vertex -6.654556e+000 -3.204665e+000  1.500000e+001
      vertex -4.605096e+000 -5.774607e+000 -1.500000e+001
      vertex -6.654556e+000 -3.204665e+000 -1.500000e+001
    endloop
  endfacet
  facet normal  9.749280e-001  2.225209e-001  -0.000000e+000
    outer loop
      vertex -6.654556e+000 -3.204665e+000  1.500000e+001
      vertex -6.654556e+000 -3.204665e+000 -1.500000e+001
      vertex -7.386000e+000  9.044943e-016  1.500000e+001
    endloop
  endfacet
  facet normal  9.749280e-001  2.225209e-001  0.000000e+000
    outer loop
      vertex -7.386000e+000  9.044943e-016  1.500000e+001
      vertex -6.654556e+000 -3.204665e+000 -1.500000e+001
      vertex -7.386000e+000  9.044943e-016 -1.500000e+001
    endloop
  endfacet
endsolid CATIA STL
