solid CATIA STL
  facet normal  9.749279e-001 -2.225210e-001  0.000000e+000
    outer loop
      vertex  7.900000e+000 -1.934878e-015 -1.400000e+001
      vertex  7.900000e+000 -1.934878e-015  1.400000e+001
      vertex  7.117654e+000 -3.427681e+000 -1.400000e+001
    endloop
  endfacet
  facet normal  9.749279e-001 -2.225210e-001  0.000000e+000
    outer loop
      vertex  7.117654e+000 -3.427681e+000 -1.400000e+001
      vertex  7.900000e+000 -1.934878e-015  1.400000e+001
      vertex  7.117654e+000 -3.427681e+000  1.400000e+001
    endloop
  endfacet
  facet normal  7.818316e-001 -6.234897e-001  0.000000e+000
    outer loop
      vertex  7.117654e+000 -3.427681e+000 -1.400000e+001
      vertex  7.117654e+000 -3.427681e+000  1.400000e+001
      vertex  4.925570e+000 -6.176469e+000 -1.400000e+001
    endloop
  endfacet
  facet normal  7.818316e-001 -6.234897e-001  0.000000e+000
    outer loop
      vertex  4.925570e+000 -6.176469e+000 -1.400000e+001
      vertex  7.117654e+000 -3.427681e+000  1.400000e+001
      vertex  4.925570e+000 -6.176469e+000  1.400000e+001
    endloop
  endfacet
  facet normal  4.338837e-001 -9.009688e-001  0.000000e+000
    outer loop
      vertex  4.925570e+000 -6.176469e+000 -1.400000e+001
      vertex  4.925570e+000 -6.176469e+000  1.400000e+001
      vertex  1.757915e+000 -7.701931e+000 -1.400000e+001
    endloop
  endfacet
  facet normal  4.338837e-001 -9.009688e-001  0.000000e+000
    outer loop
      vertex  1.757915e+000 -7.701931e+000 -1.400000e+001
      vertex  4.925570e+000 -6.176469e+000  1.400000e+001
      vertex  1.757915e+000 -7.701931e+000  1.400000e+001
    endloop
  endfacet
  facet normal  0.000000e+000 -1.000000e+000  -0.000000e+000
    outer loop
      vertex  1.757915e+000 -7.701931e+000 -1.400000e+001
      vertex  1.757915e+000 -7.701931e+000  1.400000e+001
      vertex -1.757915e+000 -7.701931e+000 -1.400000e+001
    endloop
  endfacet
  facet normal  0.000000e+000 -1.000000e+000  0.000000e+000
    outer loop
      vertex -1.757915e+000 -7.701931e+000 -1.400000e+001
      vertex  1.757915e+000 -7.701931e+000  1.400000e+001
      vertex -1.757915e+000 -7.701931e+000  1.400000e+001
    endloop
  endfacet
  facet normal -4.338837e-001 -9.009688e-001  -0.000000e+000
    outer loop
      vertex -1.757915e+000 -7.701931e+000 -1.400000e+001
      vertex -1.757915e+000 -7.701931e+000  1.400000e+001
      vertex -4.925570e+000 -6.176469e+000 -1.400000e+001
    endloop
  endfacet
  facet normal -4.338837e-001 -9.009688e-001  0.000000e+000
    outer loop
      vertex -4.925570e+000 -6.176469e+000 -1.400000e+001
      vertex -1.757915e+000 -7.701931e+000  1.400000e+001
      vertex -4.925570e+000 -6.176469e+000  1.400000e+001
    endloop
  endfacet
  facet normal -7.818316e-001 -6.234897e-001  -0.000000e+000
    outer loop
      vertex -4.925570e+000 -6.176469e+000 -1.400000e+001
      vertex -4.925570e+000 -6.176469e+000  1.400000e+001
      vertex -7.117654e+000 -3.427681e+000 -1.400000e+001
    endloop
  endfacet
  facet normal -7.818316e-001 -6.234897e-001  0.000000e+000
    outer loop
      vertex -7.117654e+000 -3.427681e+000 -1.400000e+001
      vertex -4.925570e+000 -6.176469e+000  1.400000e+001
      vertex -7.117654e+000 -3.427681e+000  1.400000e+001
    endloop
  endfacet
  facet normal -9.749279e-001 -2.225210e-001  -0.000000e+000
    outer loop
      vertex -7.117654e+000 -3.427681e+000 -1.400000e+001
      vertex -7.117654e+000 -3.427681e+000  1.400000e+001
      vertex -7.900000e+000  4.475744e-015 -1.400000e+001
    endloop
  endfacet
  facet normal -9.749279e-001 -2.225210e-001  0.000000e+000
    outer loop
      vertex -7.900000e+000  4.475744e-015 -1.400000e+001
      vertex -7.117654e+000 -3.427681e+000  1.400000e+001
      vertex -7.900000e+000  4.475744e-015  1.400000e+001
    endloop
  endfacet
  facet normal -9.749279e-001  2.225210e-001  0.000000e+000
    outer loop
      vertex -7.900000e+000  4.475744e-015 -1.400000e+001
      vertex -7.900000e+000  4.475744e-015  1.400000e+001
      vertex -7.117654e+000  3.427681e+000 -1.400000e+001
    endloop
  endfacet
  facet normal -9.749279e-001  2.225210e-001  0.000000e+000
    outer loop
      vertex -7.117654e+000  3.427681e+000 -1.400000e+001
      vertex -7.900000e+000  4.475744e-015  1.400000e+001
      vertex -7.117654e+000  3.427681e+000  1.400000e+001
    endloop
  endfacet
  facet normal -7.818316e-001  6.234897e-001  0.000000e+000
    outer loop
      vertex -7.117654e+000  3.427681e+000 -1.400000e+001
      vertex -7.117654e+000  3.427681e+000  1.400000e+001
      vertex -4.925570e+000  6.176469e+000 -1.400000e+001
    endloop
  endfacet
  facet normal -7.818316e-001  6.234897e-001  0.000000e+000
    outer loop
      vertex -4.925570e+000  6.176469e+000 -1.400000e+001
      vertex -7.117654e+000  3.427681e+000  1.400000e+001
      vertex -4.925570e+000  6.176469e+000  1.400000e+001
    endloop
  endfacet
  facet normal -4.338837e-001  9.009688e-001  0.000000e+000
    outer loop
      vertex -4.925570e+000  6.176469e+000 -1.400000e+001
      vertex -4.925570e+000  6.176469e+000  1.400000e+001
      vertex -1.757915e+000  7.701931e+000 -1.400000e+001
    endloop
  endfacet
  facet normal -4.338837e-001  9.009688e-001  0.000000e+000
    outer loop
      vertex -1.757915e+000  7.701931e+000 -1.400000e+001
      vertex -4.925570e+000  6.176469e+000  1.400000e+001
      vertex -1.757915e+000  7.701931e+000  1.400000e+001
    endloop
  endfacet
  facet normal  0.000000e+000  1.000000e+000  0.000000e+000
    outer loop
      vertex -1.757915e+000  7.701931e+000 -1.400000e+001
      vertex -1.757915e+000  7.701931e+000  1.400000e+001
      vertex  1.757915e+000  7.701931e+000 -1.400000e+001
    endloop
  endfacet
  facet normal  0.000000e+000  1.000000e+000  -0.000000e+000
    outer loop
      vertex  1.757915e+000  7.701931e+000 -1.400000e+001
      vertex -1.757915e+000  7.701931e+000  1.400000e+001
      vertex  1.757915e+000  7.701931e+000  1.400000e+001
    endloop
  endfacet
  facet normal  4.338837e-001  9.009688e-001  0.000000e+000
    outer loop
      vertex  1.757915e+000  7.701931e+000 -1.400000e+001
      vertex  1.757915e+000  7.701931e+000  1.400000e+001
      vertex  4.925570e+000  6.176469e+000 -1.400000e+001
    endloop
  endfacet
  facet normal  4.338837e-001  9.009688e-001  -0.000000e+000
    outer loop
      vertex  4.925570e+000  6.176469e+000 -1.400000e+001
      vertex  1.757915e+000  7.701931e+000  1.400000e+001
      vertex  4.925570e+000  6.176469e+000  1.400000e+001
    endloop
  endfacet
  facet normal  7.818316e-001  6.234897e-001  0.000000e+000
    outer loop
      vertex  4.925570e+000  6.176469e+000 -1.400000e+001
      vertex  4.925570e+000  6.176469e+000  1.400000e+001
      vertex  7.117654e+000  3.427681e+000 -1.400000e+001
    endloop
  endfacet
  facet normal  7.818316e-001  6.234897e-001  -0.000000e+000
    outer loop
      vertex  7.117654e+000  3.427681e+000 -1.400000e+001
      vertex  4.925570e+000  6.176469e+000  1.400000e+001
      vertex  7.117654e+000  3.427681e+000  1.400000e+001
    endloop
  endfacet
  facet normal  9.749279e-001  2.225210e-001  0.000000e+000
    outer loop
      vertex  7.117654e+000  3.427681e+000 -1.400000e+001
      vertex  7.117654e+000  3.427681e+000  1.400000e+001
      vertex  7.900000e+000 -1.934878e-015 -1.400000e+001
    endloop
  endfacet
  facet normal  9.749279e-001  2.225210e-001  -0.000000e+000
    outer loop
      vertex  7.900000e+000 -1.934878e-015 -1.400000e+001
      vertex  7.117654e+000  3.427681e+000  1.400000e+001
      vertex  7.900000e+000 -1.934878e-015  1.400000e+001
    endloop
  endfacet
  facet normal  0.000000e+000  -0.000000e+000 -1.000000e+000
    outer loop
      vertex -4.302080e+000 -5.394637e+000 -1.500000e+001
      vertex -3.740939e+000 -4.690989e+000 -1.500000e+001
      vertex -1.535395e+000 -6.727003e+000 -1.500000e+001
    endloop
  endfacet
  facet normal  0.000000e+000  0.000000e+000 -1.000000e+000
    outer loop
      vertex -1.535395e+000 -6.727003e+000 -1.500000e+001
      vertex -3.740939e+000 -4.690989e+000 -1.500000e+001
      vertex -1.335126e+000 -5.849567e+000 -1.500000e+001
    endloop
  endfacet
  facet normal  0.000000e+000  -0.000000e+000 -9.999999e-001
    outer loop
      vertex -1.535395e+000 -6.727003e+000 -1.500000e+001
      vertex -1.335126e+000 -5.849567e+000 -1.500000e+001
      vertex  1.535394e+000 -6.727003e+000 -1.500000e+001
    endloop
  endfacet
  facet normal  0.000000e+000  0.000000e+000 -1.000000e+000
    outer loop
      vertex  1.535394e+000 -6.727003e+000 -1.500000e+001
      vertex -1.335126e+000 -5.849567e+000 -1.500000e+001
      vertex  1.335126e+000 -5.849567e+000 -1.500000e+001
    endloop
  endfacet
  facet normal  0.000000e+000  0.000000e+000 -9.999999e-001
    outer loop
      vertex  1.535394e+000 -6.727003e+000 -1.500000e+001
      vertex  1.335126e+000 -5.849567e+000 -1.500000e+001
      vertex  4.302080e+000 -5.394637e+000 -1.500000e+001
    endloop
  endfacet
  facet normal  0.000000e+000  0.000000e+000 -1.000000e+000
    outer loop
      vertex  4.302080e+000  5.394637e+000 -1.500000e+001
      vertex  3.740939e+000  4.690989e+000 -1.500000e+001
      vertex  1.535394e+000  6.727003e+000 -1.500000e+001
    endloop
  endfacet
  facet normal  0.000000e+000  -0.000000e+000 -1.000000e+000
    outer loop
      vertex  1.535394e+000  6.727003e+000 -1.500000e+001
      vertex  3.740939e+000  4.690989e+000 -1.500000e+001
      vertex  1.335126e+000  5.849567e+000 -1.500000e+001
    endloop
  endfacet
  facet normal  0.000000e+000  0.000000e+000 -9.999999e-001
    outer loop
      vertex  1.535394e+000  6.727003e+000 -1.500000e+001
      vertex  1.335126e+000  5.849567e+000 -1.500000e+001
      vertex -1.535394e+000  6.727003e+000 -1.500000e+001
    endloop
  endfacet
  facet normal  0.000000e+000  0.000000e+000 -1.000000e+000
    outer loop
      vertex -1.535394e+000  6.727003e+000 -1.500000e+001
      vertex  1.335126e+000  5.849567e+000 -1.500000e+001
      vertex -1.335126e+000  5.849567e+000 -1.500000e+001
    endloop
  endfacet
  facet normal  -0.000000e+000  0.000000e+000 -9.999999e-001
    outer loop
      vertex -1.535394e+000  6.727003e+000 -1.500000e+001
      vertex -1.335126e+000  5.849567e+000 -1.500000e+001
      vertex -4.302080e+000  5.394637e+000 -1.500000e+001
    endloop
  endfacet
  facet normal  0.000000e+000  0.000000e+000 -1.000000e+000
    outer loop
      vertex -3.740939e+000 -4.690989e+000 -1.500000e+001
      vertex -4.302080e+000 -5.394637e+000 -1.500000e+001
      vertex -5.405813e+000 -2.603302e+000 -1.500000e+001
    endloop
  endfacet
  facet normal  0.000000e+000  -0.000000e+000 -1.000000e+000
    outer loop
      vertex -5.405813e+000 -2.603302e+000 -1.500000e+001
      vertex -4.302080e+000 -5.394637e+000 -1.500000e+001
      vertex -6.216685e+000 -2.993798e+000 -1.500000e+001
    endloop
  endfacet
  facet normal  0.000000e+000  0.000000e+000 -1.000000e+000
    outer loop
      vertex -5.405813e+000 -2.603302e+000 -1.500000e+001
      vertex -6.216685e+000 -2.993798e+000 -1.500000e+001
      vertex -6.000000e+000  7.347638e-016 -1.500000e+001
    endloop
  endfacet
  facet normal  -0.000000e+000  0.000000e+000 -1.000000e+000
    outer loop
      vertex -6.000000e+000  7.347638e-016 -1.500000e+001
      vertex -6.216685e+000 -2.993798e+000 -1.500000e+001
      vertex -6.900000e+000  1.945249e-008 -1.500000e+001
    endloop
  endfacet
  facet normal  0.000000e+000  0.000000e+000 -1.000000e+000
    outer loop
      vertex -6.000000e+000  7.347638e-016 -1.500000e+001
      vertex -6.900000e+000  1.945249e-008 -1.500000e+001
      vertex -5.405813e+000  2.603302e+000 -1.500000e+001
    endloop
  endfacet
  facet normal  -0.000000e+000  0.000000e+000 -1.000000e+000
    outer loop
      vertex -5.405813e+000  2.603302e+000 -1.500000e+001
      vertex -6.900000e+000  1.945249e-008 -1.500000e+001
      vertex -6.216685e+000  2.993798e+000 -1.500000e+001
    endloop
  endfacet
  facet normal  0.000000e+000  0.000000e+000 -1.000000e+000
    outer loop
      vertex -5.405813e+000  2.603302e+000 -1.500000e+001
      vertex -6.216685e+000  2.993798e+000 -1.500000e+001
      vertex -3.740939e+000  4.690989e+000 -1.500000e+001
    endloop
  endfacet
  facet normal  -0.000000e+000  0.000000e+000 -1.000000e+000
    outer loop
      vertex -3.740939e+000  4.690989e+000 -1.500000e+001
      vertex -6.216685e+000  2.993798e+000 -1.500000e+001
      vertex -4.302080e+000  5.394637e+000 -1.500000e+001
    endloop
  endfacet
  facet normal  0.000000e+000  0.000000e+000 -1.000000e+000
    outer loop
      vertex -3.740939e+000  4.690989e+000 -1.500000e+001
      vertex -4.302080e+000  5.394637e+000 -1.500000e+001
      vertex -1.335126e+000  5.849567e+000 -1.500000e+001
    endloop
  endfacet
  facet normal  0.000000e+000  -0.000000e+000 -1.000000e+000
    outer loop
      vertex  3.740939e+000  4.690989e+000 -1.500000e+001
      vertex  4.302080e+000  5.394637e+000 -1.500000e+001
      vertex  5.405813e+000  2.603302e+000 -1.500000e+001
    endloop
  endfacet
  facet normal  0.000000e+000  0.000000e+000 -1.000000e+000
    outer loop
      vertex  5.405813e+000  2.603302e+000 -1.500000e+001
      vertex  4.302080e+000  5.394637e+000 -1.500000e+001
      vertex  6.216685e+000  2.993798e+000 -1.500000e+001
    endloop
  endfacet
  facet normal  0.000000e+000  0.000000e+000 -1.000000e+000
    outer loop
      vertex  5.405813e+000  2.603302e+000 -1.500000e+001
      vertex  6.216685e+000  2.993798e+000 -1.500000e+001
      vertex  6.000000e+000  0.000000e+000 -1.500000e+001
    endloop
  endfacet
  facet normal  0.000000e+000  0.000000e+000 -1.000000e+000
    outer loop
      vertex  6.000000e+000  0.000000e+000 -1.500000e+001
      vertex  6.216685e+000  2.993798e+000 -1.500000e+001
      vertex  6.900000e+000  4.105407e-015 -1.500000e+001
    endloop
  endfacet
  facet normal  0.000000e+000  0.000000e+000 -1.000000e+000
    outer loop
      vertex  6.000000e+000  0.000000e+000 -1.500000e+001
      vertex  6.900000e+000  4.105407e-015 -1.500000e+001
      vertex  5.405813e+000 -2.603302e+000 -1.500000e+001
    endloop
  endfacet
  facet normal  0.000000e+000  0.000000e+000 -1.000000e+000
    outer loop
      vertex  5.405813e+000 -2.603302e+000 -1.500000e+001
      vertex  6.900000e+000  4.105407e-015 -1.500000e+001
      vertex  6.216685e+000 -2.993798e+000 -1.500000e+001
    endloop
  endfacet
  facet normal  -0.000000e+000  0.000000e+000 -1.000000e+000
    outer loop
      vertex  5.405813e+000 -2.603302e+000 -1.500000e+001
      vertex  6.216685e+000 -2.993798e+000 -1.500000e+001
      vertex  3.740939e+000 -4.690989e+000 -1.500000e+001
    endloop
  endfacet
  facet normal  0.000000e+000  0.000000e+000 -1.000000e+000
    outer loop
      vertex  3.740939e+000 -4.690989e+000 -1.500000e+001
      vertex  6.216685e+000 -2.993798e+000 -1.500000e+001
      vertex  4.302080e+000 -5.394637e+000 -1.500000e+001
    endloop
  endfacet
  facet normal  -0.000000e+000  0.000000e+000 -1.000000e+000
    outer loop
      vertex  3.740939e+000 -4.690989e+000 -1.500000e+001
      vertex  4.302080e+000 -5.394637e+000 -1.500000e+001
      vertex  1.335126e+000 -5.849567e+000 -1.500000e+001
    endloop
  endfacet
  facet normal -9.039994e-001  2.063321e-001 -3.744491e-001
    outer loop
      vertex -7.900000e+000  4.475744e-015 -1.400000e+001
      vertex -7.117654e+000  3.427681e+000 -1.400000e+001
      vertex -7.607107e+000  1.303404e-007 -1.470711e+001
    endloop
  endfacet
  facet normal -9.039996e-001  2.063320e-001 -3.744486e-001
    outer loop
      vertex -7.607107e+000  1.303404e-007 -1.470711e+001
      vertex -7.117654e+000  3.427681e+000 -1.400000e+001
      vertex -6.853766e+000  3.300600e+000 -1.470711e+001
    endloop
  endfacet
  facet normal -3.812322e-001  8.701375e-002 -9.203752e-001
    outer loop
      vertex -7.607107e+000  1.303404e-007 -1.470711e+001
      vertex -6.853766e+000  3.300600e+000 -1.470711e+001
      vertex -6.900000e+000  1.945249e-008 -1.500000e+001
    endloop
  endfacet
  facet normal -3.812322e-001  8.701376e-002 -9.203752e-001
    outer loop
      vertex -6.900000e+000  1.945249e-008 -1.500000e+001
      vertex -6.853766e+000  3.300600e+000 -1.470711e+001
      vertex -6.216685e+000  2.993798e+000 -1.500000e+001
    endloop
  endfacet
  facet normal  9.039996e-001  2.063321e-001 -3.744487e-001
    outer loop
      vertex  7.117654e+000  3.427681e+000 -1.400000e+001
      vertex  7.900000e+000 -1.934878e-015 -1.400000e+001
      vertex  6.853766e+000  3.300600e+000 -1.470711e+001
    endloop
  endfacet
  facet normal  9.039994e-001  2.063319e-001 -3.744492e-001
    outer loop
      vertex  6.853766e+000  3.300600e+000 -1.470711e+001
      vertex  7.900000e+000 -1.934878e-015 -1.400000e+001
      vertex  7.607107e+000  1.332268e-015 -1.470711e+001
    endloop
  endfacet
  facet normal  3.812322e-001  8.701375e-002 -9.203752e-001
    outer loop
      vertex  6.853766e+000  3.300600e+000 -1.470711e+001
      vertex  7.607107e+000  1.332268e-015 -1.470711e+001
      vertex  6.216685e+000  2.993798e+000 -1.500000e+001
    endloop
  endfacet
  facet normal  3.812323e-001  8.701378e-002 -9.203752e-001
    outer loop
      vertex  6.216685e+000  2.993798e+000 -1.500000e+001
      vertex  7.607107e+000  1.332268e-015 -1.470711e+001
      vertex  6.900000e+000  4.105407e-015 -1.500000e+001
    endloop
  endfacet
  facet normal  7.249512e-001  5.781292e-001 -3.744494e-001
    outer loop
      vertex  4.925570e+000  6.176469e+000 -1.400000e+001
      vertex  7.117654e+000  3.427681e+000 -1.400000e+001
      vertex  4.742953e+000  5.947475e+000 -1.470711e+001
    endloop
  endfacet
  facet normal  7.249513e-001  5.781295e-001 -3.744487e-001
    outer loop
      vertex  4.742953e+000  5.947475e+000 -1.470711e+001
      vertex  7.117654e+000  3.427681e+000 -1.400000e+001
      vertex  6.853766e+000  3.300600e+000 -1.470711e+001
    endloop
  endfacet
  facet normal  3.057245e-001  2.438072e-001 -9.203752e-001
    outer loop
      vertex  4.742953e+000  5.947475e+000 -1.470711e+001
      vertex  6.853766e+000  3.300600e+000 -1.470711e+001
      vertex  4.302080e+000  5.394637e+000 -1.500000e+001
    endloop
  endfacet
  facet normal  3.057245e-001  2.438072e-001 -9.203752e-001
    outer loop
      vertex  4.302080e+000  5.394637e+000 -1.500000e+001
      vertex  6.853766e+000  3.300600e+000 -1.470711e+001
      vertex  6.216685e+000  2.993798e+000 -1.500000e+001
    endloop
  endfacet
  facet normal  4.023176e-001  8.354211e-001 -3.744489e-001
    outer loop
      vertex  1.757915e+000  7.701931e+000 -1.400000e+001
      vertex  4.925570e+000  6.176469e+000 -1.400000e+001
      vertex  1.692741e+000  7.416381e+000 -1.470711e+001
    endloop
  endfacet
  facet normal  4.023176e-001  8.354210e-001 -3.744494e-001
    outer loop
      vertex  1.692741e+000  7.416381e+000 -1.470711e+001
      vertex  4.925570e+000  6.176469e+000 -1.400000e+001
      vertex  4.742953e+000  5.947475e+000 -1.470711e+001
    endloop
  endfacet
  facet normal  1.696643e-001  3.523115e-001 -9.203753e-001
    outer loop
      vertex  1.692741e+000  7.416381e+000 -1.470711e+001
      vertex  4.742953e+000  5.947475e+000 -1.470711e+001
      vertex  1.535394e+000  6.727003e+000 -1.500000e+001
    endloop
  endfacet
  facet normal  1.696643e-001  3.523115e-001 -9.203752e-001
    outer loop
      vertex  1.535394e+000  6.727003e+000 -1.500000e+001
      vertex  4.742953e+000  5.947475e+000 -1.470711e+001
      vertex  4.302080e+000  5.394637e+000 -1.500000e+001
    endloop
  endfacet
  facet normal  0.000000e+000  9.272476e-001 -3.744488e-001
    outer loop
      vertex -1.757915e+000  7.701931e+000 -1.400000e+001
      vertex  1.757915e+000  7.701931e+000 -1.400000e+001
      vertex -1.692740e+000  7.416381e+000 -1.470711e+001
    endloop
  endfacet
  facet normal  0.000000e+000  9.272476e-001 -3.744488e-001
    outer loop
      vertex -1.692740e+000  7.416381e+000 -1.470711e+001
      vertex  1.757915e+000  7.701931e+000 -1.400000e+001
      vertex  1.692741e+000  7.416381e+000 -1.470711e+001
    endloop
  endfacet
  facet normal  0.000000e+000  3.910362e-001 -9.203753e-001
    outer loop
      vertex -1.692740e+000  7.416381e+000 -1.470711e+001
      vertex  1.692741e+000  7.416381e+000 -1.470711e+001
      vertex -1.535394e+000  6.727003e+000 -1.500000e+001
    endloop
  endfacet
  facet normal  0.000000e+000  3.910362e-001 -9.203753e-001
    outer loop
      vertex -1.535394e+000  6.727003e+000 -1.500000e+001
      vertex  1.692741e+000  7.416381e+000 -1.470711e+001
      vertex  1.535394e+000  6.727003e+000 -1.500000e+001
    endloop
  endfacet
  facet normal -4.023175e-001  8.354210e-001 -3.744494e-001
    outer loop
      vertex -4.925570e+000  6.176469e+000 -1.400000e+001
      vertex -1.757915e+000  7.701931e+000 -1.400000e+001
      vertex -4.742953e+000  5.947475e+000 -1.470711e+001
    endloop
  endfacet
  facet normal -4.023177e-001  8.354211e-001 -3.744489e-001
    outer loop
      vertex -4.742953e+000  5.947475e+000 -1.470711e+001
      vertex -1.757915e+000  7.701931e+000 -1.400000e+001
      vertex -1.692740e+000  7.416381e+000 -1.470711e+001
    endloop
  endfacet
  facet normal -1.696643e-001  3.523116e-001 -9.203752e-001
    outer loop
      vertex -4.742953e+000  5.947475e+000 -1.470711e+001
      vertex -1.692740e+000  7.416381e+000 -1.470711e+001
      vertex -4.302080e+000  5.394637e+000 -1.500000e+001
    endloop
  endfacet
  facet normal -1.696643e-001  3.523115e-001 -9.203753e-001
    outer loop
      vertex -4.302080e+000  5.394637e+000 -1.500000e+001
      vertex -1.692740e+000  7.416381e+000 -1.470711e+001
      vertex -1.535394e+000  6.727003e+000 -1.500000e+001
    endloop
  endfacet
  facet normal -7.249514e-001  5.781294e-001 -3.744486e-001
    outer loop
      vertex -7.117654e+000  3.427681e+000 -1.400000e+001
      vertex -4.925570e+000  6.176469e+000 -1.400000e+001
      vertex -6.853766e+000  3.300600e+000 -1.470711e+001
    endloop
  endfacet
  facet normal -7.249511e-001  5.781294e-001 -3.744494e-001
    outer loop
      vertex -6.853766e+000  3.300600e+000 -1.470711e+001
      vertex -4.925570e+000  6.176469e+000 -1.400000e+001
      vertex -4.742953e+000  5.947475e+000 -1.470711e+001
    endloop
  endfacet
  facet normal -3.057244e-001  2.438072e-001 -9.203753e-001
    outer loop
      vertex -6.853766e+000  3.300600e+000 -1.470711e+001
      vertex -4.742953e+000  5.947475e+000 -1.470711e+001
      vertex -6.216685e+000  2.993798e+000 -1.500000e+001
    endloop
  endfacet
  facet normal -3.057245e-001  2.438072e-001 -9.203752e-001
    outer loop
      vertex -6.216685e+000  2.993798e+000 -1.500000e+001
      vertex -4.742953e+000  5.947475e+000 -1.470711e+001
      vertex -4.302080e+000  5.394637e+000 -1.500000e+001
    endloop
  endfacet
  facet normal  9.039994e-001 -2.063321e-001 -3.744492e-001
    outer loop
      vertex  7.900000e+000 -1.934878e-015 -1.400000e+001
      vertex  7.117654e+000 -3.427681e+000 -1.400000e+001
      vertex  7.607107e+000  1.332268e-015 -1.470711e+001
    endloop
  endfacet
  facet normal  9.039997e-001 -2.063320e-001 -3.744486e-001
    outer loop
      vertex  7.607107e+000  1.332268e-015 -1.470711e+001
      vertex  7.117654e+000 -3.427681e+000 -1.400000e+001
      vertex  6.853766e+000 -3.300600e+000 -1.470711e+001
    endloop
  endfacet
  facet normal  3.812322e-001 -8.701375e-002 -9.203752e-001
    outer loop
      vertex  7.607107e+000  1.332268e-015 -1.470711e+001
      vertex  6.853766e+000 -3.300600e+000 -1.470711e+001
      vertex  6.900000e+000  4.105407e-015 -1.500000e+001
    endloop
  endfacet
  facet normal  3.812322e-001 -8.701376e-002 -9.203752e-001
    outer loop
      vertex  6.900000e+000  4.105407e-015 -1.500000e+001
      vertex  6.853766e+000 -3.300600e+000 -1.470711e+001
      vertex  6.216685e+000 -2.993798e+000 -1.500000e+001
    endloop
  endfacet
  facet normal -9.039996e-001 -2.063321e-001 -3.744487e-001
    outer loop
      vertex -7.117654e+000 -3.427681e+000 -1.400000e+001
      vertex -7.900000e+000  4.475744e-015 -1.400000e+001
      vertex -6.853766e+000 -3.300600e+000 -1.470711e+001
    endloop
  endfacet
  facet normal -9.039994e-001 -2.063319e-001 -3.744492e-001
    outer loop
      vertex -6.853766e+000 -3.300600e+000 -1.470711e+001
      vertex -7.900000e+000  4.475744e-015 -1.400000e+001
      vertex -7.607107e+000  1.303404e-007 -1.470711e+001
    endloop
  endfacet
  facet normal -3.812322e-001 -8.701374e-002 -9.203753e-001
    outer loop
      vertex -6.853766e+000 -3.300600e+000 -1.470711e+001
      vertex -7.607107e+000  1.303404e-007 -1.470711e+001
      vertex -6.216685e+000 -2.993798e+000 -1.500000e+001
    endloop
  endfacet
  facet normal -3.812323e-001 -8.701378e-002 -9.203752e-001
    outer loop
      vertex -6.216685e+000 -2.993798e+000 -1.500000e+001
      vertex -7.607107e+000  1.303404e-007 -1.470711e+001
      vertex -6.900000e+000  1.945249e-008 -1.500000e+001
    endloop
  endfacet
  facet normal -7.249513e-001 -5.781293e-001 -3.744490e-001
    outer loop
      vertex -4.925570e+000 -6.176469e+000 -1.400000e+001
      vertex -7.117654e+000 -3.427681e+000 -1.400000e+001
      vertex -4.742954e+000 -5.947475e+000 -1.470711e+001
    endloop
  endfacet
  facet normal -7.249514e-001 -5.781294e-001 -3.744487e-001
    outer loop
      vertex -4.742954e+000 -5.947475e+000 -1.470711e+001
      vertex -7.117654e+000 -3.427681e+000 -1.400000e+001
      vertex -6.853766e+000 -3.300600e+000 -1.470711e+001
    endloop
  endfacet
  facet normal -3.057244e-001 -2.438070e-001 -9.203753e-001
    outer loop
      vertex -4.742954e+000 -5.947475e+000 -1.470711e+001
      vertex -6.853766e+000 -3.300600e+000 -1.470711e+001
      vertex -4.302080e+000 -5.394637e+000 -1.500000e+001
    endloop
  endfacet
  facet normal -3.057245e-001 -2.438072e-001 -9.203752e-001
    outer loop
      vertex -4.302080e+000 -5.394637e+000 -1.500000e+001
      vertex -6.853766e+000 -3.300600e+000 -1.470711e+001
      vertex -6.216685e+000 -2.993798e+000 -1.500000e+001
    endloop
  endfacet
  facet normal -4.023176e-001 -8.354211e-001 -3.744489e-001
    outer loop
      vertex -1.757915e+000 -7.701931e+000 -1.400000e+001
      vertex -4.925570e+000 -6.176469e+000 -1.400000e+001
      vertex -1.692741e+000 -7.416381e+000 -1.470711e+001
    endloop
  endfacet
  facet normal -4.023176e-001 -8.354211e-001 -3.744491e-001
    outer loop
      vertex -1.692741e+000 -7.416381e+000 -1.470711e+001
      vertex -4.925570e+000 -6.176469e+000 -1.400000e+001
      vertex -4.742954e+000 -5.947475e+000 -1.470711e+001
    endloop
  endfacet
  facet normal -1.696643e-001 -3.523115e-001 -9.203753e-001
    outer loop
      vertex -1.692741e+000 -7.416381e+000 -1.470711e+001
      vertex -4.742954e+000 -5.947475e+000 -1.470711e+001
      vertex -1.535395e+000 -6.727003e+000 -1.500000e+001
    endloop
  endfacet
  facet normal -1.696643e-001 -3.523114e-001 -9.203753e-001
    outer loop
      vertex -1.535395e+000 -6.727003e+000 -1.500000e+001
      vertex -4.742954e+000 -5.947475e+000 -1.470711e+001
      vertex -4.302080e+000 -5.394637e+000 -1.500000e+001
    endloop
  endfacet
  facet normal  0.000000e+000 -9.272476e-001 -3.744488e-001
    outer loop
      vertex  1.757915e+000 -7.701931e+000 -1.400000e+001
      vertex -1.757915e+000 -7.701931e+000 -1.400000e+001
      vertex  1.692740e+000 -7.416381e+000 -1.470711e+001
    endloop
  endfacet
  facet normal  -0.000000e+000 -9.272476e-001 -3.744488e-001
    outer loop
      vertex  1.692740e+000 -7.416381e+000 -1.470711e+001
      vertex -1.757915e+000 -7.701931e+000 -1.400000e+001
      vertex -1.692741e+000 -7.416381e+000 -1.470711e+001
    endloop
  endfacet
  facet normal  0.000000e+000 -3.910362e-001 -9.203753e-001
    outer loop
      vertex  1.692740e+000 -7.416381e+000 -1.470711e+001
      vertex -1.692741e+000 -7.416381e+000 -1.470711e+001
      vertex  1.535394e+000 -6.727003e+000 -1.500000e+001
    endloop
  endfacet
  facet normal  -0.000000e+000 -3.910362e-001 -9.203753e-001
    outer loop
      vertex  1.535394e+000 -6.727003e+000 -1.500000e+001
      vertex -1.692741e+000 -7.416381e+000 -1.470711e+001
      vertex -1.535395e+000 -6.727003e+000 -1.500000e+001
    endloop
  endfacet
  facet normal  4.023175e-001 -8.354210e-001 -3.744494e-001
    outer loop
      vertex  4.925570e+000 -6.176469e+000 -1.400000e+001
      vertex  1.757915e+000 -7.701931e+000 -1.400000e+001
      vertex  4.742953e+000 -5.947475e+000 -1.470711e+001
    endloop
  endfacet
  facet normal  4.023177e-001 -8.354211e-001 -3.744489e-001
    outer loop
      vertex  4.742953e+000 -5.947475e+000 -1.470711e+001
      vertex  1.757915e+000 -7.701931e+000 -1.400000e+001
      vertex  1.692740e+000 -7.416381e+000 -1.470711e+001
    endloop
  endfacet
  facet normal  1.696643e-001 -3.523116e-001 -9.203752e-001
    outer loop
      vertex  4.742953e+000 -5.947475e+000 -1.470711e+001
      vertex  1.692740e+000 -7.416381e+000 -1.470711e+001
      vertex  4.302080e+000 -5.394637e+000 -1.500000e+001
    endloop
  endfacet
  facet normal  1.696643e-001 -3.523115e-001 -9.203753e-001
    outer loop
      vertex  4.302080e+000 -5.394637e+000 -1.500000e+001
      vertex  1.692740e+000 -7.416381e+000 -1.470711e+001
      vertex  1.535394e+000 -6.727003e+000 -1.500000e+001
    endloop
  endfacet
  facet normal  7.249514e-001 -5.781294e-001 -3.744486e-001
    outer loop
      vertex  7.117654e+000 -3.427681e+000 -1.400000e+001
      vertex  4.925570e+000 -6.176469e+000 -1.400000e+001
      vertex  6.853766e+000 -3.300600e+000 -1.470711e+001
    endloop
  endfacet
  facet normal  7.249511e-001 -5.781294e-001 -3.744494e-001
    outer loop
      vertex  6.853766e+000 -3.300600e+000 -1.470711e+001
      vertex  4.925570e+000 -6.176469e+000 -1.400000e+001
      vertex  4.742953e+000 -5.947475e+000 -1.470711e+001
    endloop
  endfacet
  facet normal  3.057244e-001 -2.438072e-001 -9.203753e-001
    outer loop
      vertex  6.853766e+000 -3.300600e+000 -1.470711e+001
      vertex  4.742953e+000 -5.947475e+000 -1.470711e+001
      vertex  6.216685e+000 -2.993798e+000 -1.500000e+001
    endloop
  endfacet
  facet normal  3.057245e-001 -2.438072e-001 -9.203752e-001
    outer loop
      vertex  6.216685e+000 -2.993798e+000 -1.500000e+001
      vertex  4.742953e+000 -5.947475e+000 -1.470711e+001
      vertex  4.302080e+000 -5.394637e+000 -1.500000e+001
    endloop
  endfacet
  facet normal  -0.000000e+000  0.000000e+000  1.000000e+000
    outer loop
      vertex -3.740939e+000 -4.690989e+000  1.500000e+001
      vertex -4.302080e+000 -5.394637e+000  1.500000e+001
      vertex -1.335126e+000 -5.849567e+000  1.500000e+001
    endloop
  endfacet
  facet normal  0.000000e+000  0.000000e+000  9.999999e-001
    outer loop
      vertex -1.335126e+000 -5.849567e+000  1.500000e+001
      vertex -4.302080e+000 -5.394637e+000  1.500000e+001
      vertex -1.535394e+000 -6.727003e+000  1.500000e+001
    endloop
  endfacet
  facet normal  0.000000e+000  0.000000e+000  1.000000e+000
    outer loop
      vertex -1.335126e+000 -5.849567e+000  1.500000e+001
      vertex -1.535394e+000 -6.727003e+000  1.500000e+001
      vertex  1.335126e+000 -5.849567e+000  1.500000e+001
    endloop
  endfacet
  facet normal  0.000000e+000  0.000000e+000  9.999999e-001
    outer loop
      vertex  1.335126e+000 -5.849567e+000  1.500000e+001
      vertex -1.535394e+000 -6.727003e+000  1.500000e+001
      vertex  1.535394e+000 -6.727003e+000  1.500000e+001
    endloop
  endfacet
  facet normal  0.000000e+000  -0.000000e+000  9.999999e-001
    outer loop
      vertex  1.335126e+000 -5.849567e+000  1.500000e+001
      vertex  1.535394e+000 -6.727003e+000  1.500000e+001
      vertex  4.302080e+000 -5.394637e+000  1.500000e+001
    endloop
  endfacet
  facet normal  0.000000e+000  0.000000e+000  1.000000e+000
    outer loop
      vertex  3.740939e+000  4.690989e+000  1.500000e+001
      vertex  4.302080e+000  5.394637e+000  1.500000e+001
      vertex  1.335126e+000  5.849567e+000  1.500000e+001
    endloop
  endfacet
  facet normal  -0.000000e+000  0.000000e+000  9.999999e-001
    outer loop
      vertex  1.335126e+000  5.849567e+000  1.500000e+001
      vertex  4.302080e+000  5.394637e+000  1.500000e+001
      vertex  1.535394e+000  6.727003e+000  1.500000e+001
    endloop
  endfacet
  facet normal  0.000000e+000  0.000000e+000  1.000000e+000
    outer loop
      vertex  1.335126e+000  5.849567e+000  1.500000e+001
      vertex  1.535394e+000  6.727003e+000  1.500000e+001
      vertex -1.335126e+000  5.849567e+000  1.500000e+001
    endloop
  endfacet
  facet normal  0.000000e+000  -0.000000e+000  9.999999e-001
    outer loop
      vertex -1.335126e+000  5.849567e+000  1.500000e+001
      vertex  1.535394e+000  6.727003e+000  1.500000e+001
      vertex -1.535394e+000  6.727003e+000  1.500000e+001
    endloop
  endfacet
  facet normal  0.000000e+000  0.000000e+000  9.999999e-001
    outer loop
      vertex -1.335126e+000  5.849567e+000  1.500000e+001
      vertex -1.535394e+000  6.727003e+000  1.500000e+001
      vertex -4.302080e+000  5.394637e+000  1.500000e+001
    endloop
  endfacet
  facet normal  0.000000e+000  0.000000e+000  1.000000e+000
    outer loop
      vertex -4.302080e+000 -5.394637e+000  1.500000e+001
      vertex -3.740939e+000 -4.690989e+000  1.500000e+001
      vertex -6.216685e+000 -2.993798e+000  1.500000e+001
    endloop
  endfacet
  facet normal  -0.000000e+000  0.000000e+000  1.000000e+000
    outer loop
      vertex -6.216685e+000 -2.993798e+000  1.500000e+001
      vertex -3.740939e+000 -4.690989e+000  1.500000e+001
      vertex -5.405813e+000 -2.603302e+000  1.500000e+001
    endloop
  endfacet
  facet normal  0.000000e+000  0.000000e+000  1.000000e+000
    outer loop
      vertex -6.216685e+000 -2.993798e+000  1.500000e+001
      vertex -5.405813e+000 -2.603302e+000  1.500000e+001
      vertex -6.900000e+000  1.945256e-008  1.500000e+001
    endloop
  endfacet
  facet normal  0.000000e+000  0.000000e+000  1.000000e+000
    outer loop
      vertex -6.900000e+000  1.945256e-008  1.500000e+001
      vertex -5.405813e+000 -2.603302e+000  1.500000e+001
      vertex -6.000000e+000  7.347638e-016  1.500000e+001
    endloop
  endfacet
  facet normal  0.000000e+000  0.000000e+000  1.000000e+000
    outer loop
      vertex -6.900000e+000  1.945256e-008  1.500000e+001
      vertex -6.000000e+000  7.347638e-016  1.500000e+001
      vertex -6.216685e+000  2.993798e+000  1.500000e+001
    endloop
  endfacet
  facet normal  0.000000e+000  0.000000e+000  1.000000e+000
    outer loop
      vertex -6.216685e+000  2.993798e+000  1.500000e+001
      vertex -6.000000e+000  7.347638e-016  1.500000e+001
      vertex -5.405813e+000  2.603302e+000  1.500000e+001
    endloop
  endfacet
  facet normal  0.000000e+000  -0.000000e+000  1.000000e+000
    outer loop
      vertex -6.216685e+000  2.993798e+000  1.500000e+001
      vertex -5.405813e+000  2.603302e+000  1.500000e+001
      vertex -4.302080e+000  5.394637e+000  1.500000e+001
    endloop
  endfacet
  facet normal  0.000000e+000  0.000000e+000  1.000000e+000
    outer loop
      vertex -4.302080e+000  5.394637e+000  1.500000e+001
      vertex -5.405813e+000  2.603302e+000  1.500000e+001
      vertex -3.740939e+000  4.690989e+000  1.500000e+001
    endloop
  endfacet
  facet normal  0.000000e+000  -0.000000e+000  1.000000e+000
    outer loop
      vertex -4.302080e+000  5.394637e+000  1.500000e+001
      vertex -3.740939e+000  4.690989e+000  1.500000e+001
      vertex -1.335126e+000  5.849567e+000  1.500000e+001
    endloop
  endfacet
  facet normal  -0.000000e+000  0.000000e+000  1.000000e+000
    outer loop
      vertex  4.302080e+000  5.394637e+000  1.500000e+001
      vertex  3.740939e+000  4.690989e+000  1.500000e+001
      vertex  6.216685e+000  2.993798e+000  1.500000e+001
    endloop
  endfacet
  facet normal  0.000000e+000  0.000000e+000  1.000000e+000
    outer loop
      vertex  6.216685e+000  2.993798e+000  1.500000e+001
      vertex  3.740939e+000  4.690989e+000  1.500000e+001
      vertex  5.405813e+000  2.603302e+000  1.500000e+001
    endloop
  endfacet
  facet normal  -0.000000e+000  0.000000e+000  1.000000e+000
    outer loop
      vertex  6.216685e+000  2.993798e+000  1.500000e+001
      vertex  5.405813e+000  2.603302e+000  1.500000e+001
      vertex  6.900000e+000  4.563374e-015  1.500000e+001
    endloop
  endfacet
  facet normal  0.000000e+000  0.000000e+000  1.000000e+000
    outer loop
      vertex  6.900000e+000  4.563374e-015  1.500000e+001
      vertex  5.405813e+000  2.603302e+000  1.500000e+001
      vertex  6.000000e+000  0.000000e+000  1.500000e+001
    endloop
  endfacet
  facet normal  -0.000000e+000  0.000000e+000  1.000000e+000
    outer loop
      vertex  6.900000e+000  4.563374e-015  1.500000e+001
      vertex  6.000000e+000  0.000000e+000  1.500000e+001
      vertex  6.216685e+000 -2.993798e+000  1.500000e+001
    endloop
  endfacet
  facet normal  0.000000e+000  0.000000e+000  1.000000e+000
    outer loop
      vertex  6.216685e+000 -2.993798e+000  1.500000e+001
      vertex  6.000000e+000  0.000000e+000  1.500000e+001
      vertex  5.405813e+000 -2.603302e+000  1.500000e+001
    endloop
  endfacet
  facet normal  0.000000e+000  0.000000e+000  1.000000e+000
    outer loop
      vertex  6.216685e+000 -2.993798e+000  1.500000e+001
      vertex  5.405813e+000 -2.603302e+000  1.500000e+001
      vertex  4.302080e+000 -5.394637e+000  1.500000e+001
    endloop
  endfacet
  facet normal  0.000000e+000  -0.000000e+000  1.000000e+000
    outer loop
      vertex  4.302080e+000 -5.394637e+000  1.500000e+001
      vertex  5.405813e+000 -2.603302e+000  1.500000e+001
      vertex  3.740939e+000 -4.690989e+000  1.500000e+001
    endloop
  endfacet
  facet normal  0.000000e+000  0.000000e+000  1.000000e+000
    outer loop
      vertex  4.302080e+000 -5.394637e+000  1.500000e+001
      vertex  3.740939e+000 -4.690989e+000  1.500000e+001
      vertex  1.335126e+000 -5.849567e+000  1.500000e+001
    endloop
  endfacet
  facet normal -3.812323e-001  8.701378e-002  9.203752e-001
    outer loop
      vertex -6.900000e+000  1.945256e-008  1.500000e+001
      vertex -6.216685e+000  2.993798e+000  1.500000e+001
      vertex -7.607107e+000  3.552714e-015  1.470711e+001
    endloop
  endfacet
  facet normal -3.812322e-001  8.701374e-002  9.203753e-001
    outer loop
      vertex -7.607107e+000  3.552714e-015  1.470711e+001
      vertex -6.216685e+000  2.993798e+000  1.500000e+001
      vertex -6.853766e+000  3.300600e+000  1.470711e+001
    endloop
  endfacet
  facet normal -9.039994e-001  2.063319e-001  3.744491e-001
    outer loop
      vertex -7.607107e+000  3.552714e-015  1.470711e+001
      vertex -6.853766e+000  3.300600e+000  1.470711e+001
      vertex -7.900000e+000  4.475744e-015  1.400000e+001
    endloop
  endfacet
  facet normal -9.039996e-001  2.063321e-001  3.744486e-001
    outer loop
      vertex -7.900000e+000  4.475744e-015  1.400000e+001
      vertex -6.853766e+000  3.300600e+000  1.470711e+001
      vertex -7.117654e+000  3.427681e+000  1.400000e+001
    endloop
  endfacet
  facet normal  3.812322e-001  8.701376e-002  9.203752e-001
    outer loop
      vertex  6.216685e+000  2.993798e+000  1.500000e+001
      vertex  6.900000e+000  4.563374e-015  1.500000e+001
      vertex  6.853766e+000  3.300600e+000  1.470711e+001
    endloop
  endfacet
  facet normal  3.812322e-001  8.701375e-002  9.203752e-001
    outer loop
      vertex  6.853766e+000  3.300600e+000  1.470711e+001
      vertex  6.900000e+000  4.563374e-015  1.500000e+001
      vertex  7.607107e+000 -1.332268e-015  1.470711e+001
    endloop
  endfacet
  facet normal  9.039997e-001  2.063320e-001  3.744486e-001
    outer loop
      vertex  6.853766e+000  3.300600e+000  1.470711e+001
      vertex  7.607107e+000 -1.332268e-015  1.470711e+001
      vertex  7.117654e+000  3.427681e+000  1.400000e+001
    endloop
  endfacet
  facet normal  9.039994e-001  2.063321e-001  3.744492e-001
    outer loop
      vertex  7.117654e+000  3.427681e+000  1.400000e+001
      vertex  7.607107e+000 -1.332268e-015  1.470711e+001
      vertex  7.900000e+000 -1.934878e-015  1.400000e+001
    endloop
  endfacet
  facet normal  3.057245e-001  2.438072e-001  9.203752e-001
    outer loop
      vertex  4.302080e+000  5.394637e+000  1.500000e+001
      vertex  6.216685e+000  2.993798e+000  1.500000e+001
      vertex  4.742953e+000  5.947475e+000  1.470711e+001
    endloop
  endfacet
  facet normal  3.057244e-001  2.438072e-001  9.203753e-001
    outer loop
      vertex  4.742953e+000  5.947475e+000  1.470711e+001
      vertex  6.216685e+000  2.993798e+000  1.500000e+001
      vertex  6.853766e+000  3.300600e+000  1.470711e+001
    endloop
  endfacet
  facet normal  7.249511e-001  5.781294e-001  3.744494e-001
    outer loop
      vertex  4.742953e+000  5.947475e+000  1.470711e+001
      vertex  6.853766e+000  3.300600e+000  1.470711e+001
      vertex  4.925570e+000  6.176469e+000  1.400000e+001
    endloop
  endfacet
  facet normal  7.249514e-001  5.781294e-001  3.744486e-001
    outer loop
      vertex  4.925570e+000  6.176469e+000  1.400000e+001
      vertex  6.853766e+000  3.300600e+000  1.470711e+001
      vertex  7.117654e+000  3.427681e+000  1.400000e+001
    endloop
  endfacet
  facet normal  1.696643e-001  3.523115e-001  9.203753e-001
    outer loop
      vertex  1.535394e+000  6.727003e+000  1.500000e+001
      vertex  4.302080e+000  5.394637e+000  1.500000e+001
      vertex  1.692741e+000  7.416381e+000  1.470711e+001
    endloop
  endfacet
  facet normal  1.696643e-001  3.523116e-001  9.203752e-001
    outer loop
      vertex  1.692741e+000  7.416381e+000  1.470711e+001
      vertex  4.302080e+000  5.394637e+000  1.500000e+001
      vertex  4.742953e+000  5.947475e+000  1.470711e+001
    endloop
  endfacet
  facet normal  4.023177e-001  8.354211e-001  3.744489e-001
    outer loop
      vertex  1.692741e+000  7.416381e+000  1.470711e+001
      vertex  4.742953e+000  5.947475e+000  1.470711e+001
      vertex  1.757915e+000  7.701931e+000  1.400000e+001
    endloop
  endfacet
  facet normal  4.023175e-001  8.354210e-001  3.744494e-001
    outer loop
      vertex  1.757915e+000  7.701931e+000  1.400000e+001
      vertex  4.742953e+000  5.947475e+000  1.470711e+001
      vertex  4.925570e+000  6.176469e+000  1.400000e+001
    endloop
  endfacet
  facet normal  0.000000e+000  3.910362e-001  9.203753e-001
    outer loop
      vertex -1.535394e+000  6.727003e+000  1.500000e+001
      vertex  1.535394e+000  6.727003e+000  1.500000e+001
      vertex -1.692741e+000  7.416381e+000  1.470711e+001
    endloop
  endfacet
  facet normal  -0.000000e+000  3.910362e-001  9.203753e-001
    outer loop
      vertex -1.692741e+000  7.416381e+000  1.470711e+001
      vertex  1.535394e+000  6.727003e+000  1.500000e+001
      vertex  1.692741e+000  7.416381e+000  1.470711e+001
    endloop
  endfacet
  facet normal  0.000000e+000  9.272475e-001  3.744487e-001
    outer loop
      vertex -1.692741e+000  7.416381e+000  1.470711e+001
      vertex  1.692741e+000  7.416381e+000  1.470711e+001
      vertex -1.757915e+000  7.701931e+000  1.400000e+001
    endloop
  endfacet
  facet normal  -0.000000e+000  9.272476e-001  3.744488e-001
    outer loop
      vertex -1.757915e+000  7.701931e+000  1.400000e+001
      vertex  1.692741e+000  7.416381e+000  1.470711e+001
      vertex  1.757915e+000  7.701931e+000  1.400000e+001
    endloop
  endfacet
  facet normal -1.696643e-001  3.523115e-001  9.203752e-001
    outer loop
      vertex -4.302080e+000  5.394637e+000  1.500000e+001
      vertex -1.535394e+000  6.727003e+000  1.500000e+001
      vertex -4.742953e+000  5.947475e+000  1.470711e+001
    endloop
  endfacet
  facet normal -1.696643e-001  3.523115e-001  9.203753e-001
    outer loop
      vertex -4.742953e+000  5.947475e+000  1.470711e+001
      vertex -1.535394e+000  6.727003e+000  1.500000e+001
      vertex -1.692741e+000  7.416381e+000  1.470711e+001
    endloop
  endfacet
  facet normal -4.023176e-001  8.354210e-001  3.744494e-001
    outer loop
      vertex -4.742953e+000  5.947475e+000  1.470711e+001
      vertex -1.692741e+000  7.416381e+000  1.470711e+001
      vertex -4.925570e+000  6.176469e+000  1.400000e+001
    endloop
  endfacet
  facet normal -4.023176e-001  8.354211e-001  3.744489e-001
    outer loop
      vertex -4.925570e+000  6.176469e+000  1.400000e+001
      vertex -1.692741e+000  7.416381e+000  1.470711e+001
      vertex -1.757915e+000  7.701931e+000  1.400000e+001
    endloop
  endfacet
  facet normal -3.057244e-001  2.438071e-001  9.203752e-001
    outer loop
      vertex -6.216685e+000  2.993798e+000  1.500000e+001
      vertex -4.302080e+000  5.394637e+000  1.500000e+001
      vertex -6.853766e+000  3.300600e+000  1.470711e+001
    endloop
  endfacet
  facet normal -3.057245e-001  2.438072e-001  9.203752e-001
    outer loop
      vertex -6.853766e+000  3.300600e+000  1.470711e+001
      vertex -4.302080e+000  5.394637e+000  1.500000e+001
      vertex -4.742953e+000  5.947475e+000  1.470711e+001
    endloop
  endfacet
  facet normal -7.249514e-001  5.781295e-001  3.744485e-001
    outer loop
      vertex -6.853766e+000  3.300600e+000  1.470711e+001
      vertex -4.742953e+000  5.947475e+000  1.470711e+001
      vertex -7.117654e+000  3.427681e+000  1.400000e+001
    endloop
  endfacet
  facet normal -7.249512e-001  5.781292e-001  3.744494e-001
    outer loop
      vertex -7.117654e+000  3.427681e+000  1.400000e+001
      vertex -4.742953e+000  5.947475e+000  1.470711e+001
      vertex -4.925570e+000  6.176469e+000  1.400000e+001
    endloop
  endfacet
  facet normal  3.812323e-001 -8.701378e-002  9.203752e-001
    outer loop
      vertex  6.900000e+000  4.563374e-015  1.500000e+001
      vertex  6.216685e+000 -2.993798e+000  1.500000e+001
      vertex  7.607107e+000 -1.332268e-015  1.470711e+001
    endloop
  endfacet
  facet normal  3.812322e-001 -8.701374e-002  9.203753e-001
    outer loop
      vertex  7.607107e+000 -1.332268e-015  1.470711e+001
      vertex  6.216685e+000 -2.993798e+000  1.500000e+001
      vertex  6.853766e+000 -3.300600e+000  1.470711e+001
    endloop
  endfacet
  facet normal  9.039994e-001 -2.063319e-001  3.744491e-001
    outer loop
      vertex  7.607107e+000 -1.332268e-015  1.470711e+001
      vertex  6.853766e+000 -3.300600e+000  1.470711e+001
      vertex  7.900000e+000 -1.934878e-015  1.400000e+001
    endloop
  endfacet
  facet normal  9.039996e-001 -2.063321e-001  3.744486e-001
    outer loop
      vertex  7.900000e+000 -1.934878e-015  1.400000e+001
      vertex  6.853766e+000 -3.300600e+000  1.470711e+001
      vertex  7.117654e+000 -3.427681e+000  1.400000e+001
    endloop
  endfacet
  facet normal -3.812322e-001 -8.701376e-002  9.203752e-001
    outer loop
      vertex -6.216685e+000 -2.993798e+000  1.500000e+001
      vertex -6.900000e+000  1.945256e-008  1.500000e+001
      vertex -6.853766e+000 -3.300600e+000  1.470711e+001
    endloop
  endfacet
  facet normal -3.812322e-001 -8.701375e-002  9.203752e-001
    outer loop
      vertex -6.853766e+000 -3.300600e+000  1.470711e+001
      vertex -6.900000e+000  1.945256e-008  1.500000e+001
      vertex -7.607107e+000  3.552714e-015  1.470711e+001
    endloop
  endfacet
  facet normal -9.039997e-001 -2.063320e-001  3.744486e-001
    outer loop
      vertex -6.853766e+000 -3.300600e+000  1.470711e+001
      vertex -7.607107e+000  3.552714e-015  1.470711e+001
      vertex -7.117654e+000 -3.427681e+000  1.400000e+001
    endloop
  endfacet
  facet normal -9.039994e-001 -2.063321e-001  3.744492e-001
    outer loop
      vertex -7.117654e+000 -3.427681e+000  1.400000e+001
      vertex -7.607107e+000  3.552714e-015  1.470711e+001
      vertex -7.900000e+000  4.475744e-015  1.400000e+001
    endloop
  endfacet
  facet normal -3.057245e-001 -2.438072e-001  9.203752e-001
    outer loop
      vertex -4.302080e+000 -5.394637e+000  1.500000e+001
      vertex -6.216685e+000 -2.993798e+000  1.500000e+001
      vertex -4.742953e+000 -5.947475e+000  1.470711e+001
    endloop
  endfacet
  facet normal -3.057244e-001 -2.438072e-001  9.203753e-001
    outer loop
      vertex -4.742953e+000 -5.947475e+000  1.470711e+001
      vertex -6.216685e+000 -2.993798e+000  1.500000e+001
      vertex -6.853766e+000 -3.300600e+000  1.470711e+001
    endloop
  endfacet
  facet normal -7.249511e-001 -5.781294e-001  3.744494e-001
    outer loop
      vertex -4.742953e+000 -5.947475e+000  1.470711e+001
      vertex -6.853766e+000 -3.300600e+000  1.470711e+001
      vertex -4.925570e+000 -6.176469e+000  1.400000e+001
    endloop
  endfacet
  facet normal -7.249514e-001 -5.781294e-001  3.744486e-001
    outer loop
      vertex -4.925570e+000 -6.176469e+000  1.400000e+001
      vertex -6.853766e+000 -3.300600e+000  1.470711e+001
      vertex -7.117654e+000 -3.427681e+000  1.400000e+001
    endloop
  endfacet
  facet normal -1.696643e-001 -3.523115e-001  9.203753e-001
    outer loop
      vertex -1.535394e+000 -6.727003e+000  1.500000e+001
      vertex -4.302080e+000 -5.394637e+000  1.500000e+001
      vertex -1.692741e+000 -7.416381e+000  1.470711e+001
    endloop
  endfacet
  facet normal -1.696643e-001 -3.523116e-001  9.203752e-001
    outer loop
      vertex -1.692741e+000 -7.416381e+000  1.470711e+001
      vertex -4.302080e+000 -5.394637e+000  1.500000e+001
      vertex -4.742953e+000 -5.947475e+000  1.470711e+001
    endloop
  endfacet
  facet normal -4.023177e-001 -8.354211e-001  3.744489e-001
    outer loop
      vertex -1.692741e+000 -7.416381e+000  1.470711e+001
      vertex -4.742953e+000 -5.947475e+000  1.470711e+001
      vertex -1.757915e+000 -7.701931e+000  1.400000e+001
    endloop
  endfacet
  facet normal -4.023175e-001 -8.354210e-001  3.744494e-001
    outer loop
      vertex -1.757915e+000 -7.701931e+000  1.400000e+001
      vertex -4.742953e+000 -5.947475e+000  1.470711e+001
      vertex -4.925570e+000 -6.176469e+000  1.400000e+001
    endloop
  endfacet
  facet normal  0.000000e+000 -3.910362e-001  9.203753e-001
    outer loop
      vertex  1.535394e+000 -6.727003e+000  1.500000e+001
      vertex -1.535394e+000 -6.727003e+000  1.500000e+001
      vertex  1.692741e+000 -7.416381e+000  1.470711e+001
    endloop
  endfacet
  facet normal  0.000000e+000 -3.910362e-001  9.203753e-001
    outer loop
      vertex  1.692741e+000 -7.416381e+000  1.470711e+001
      vertex -1.535394e+000 -6.727003e+000  1.500000e+001
      vertex -1.692741e+000 -7.416381e+000  1.470711e+001
    endloop
  endfacet
  facet normal  0.000000e+000 -9.272475e-001  3.744487e-001
    outer loop
      vertex  1.692741e+000 -7.416381e+000  1.470711e+001
      vertex -1.692741e+000 -7.416381e+000  1.470711e+001
      vertex  1.757915e+000 -7.701931e+000  1.400000e+001
    endloop
  endfacet
  facet normal  0.000000e+000 -9.272476e-001  3.744488e-001
    outer loop
      vertex  1.757915e+000 -7.701931e+000  1.400000e+001
      vertex -1.692741e+000 -7.416381e+000  1.470711e+001
      vertex -1.757915e+000 -7.701931e+000  1.400000e+001
    endloop
  endfacet
  facet normal  1.696643e-001 -3.523115e-001  9.203752e-001
    outer loop
      vertex  4.302080e+000 -5.394637e+000  1.500000e+001
      vertex  1.535394e+000 -6.727003e+000  1.500000e+001
      vertex  4.742953e+000 -5.947475e+000  1.470711e+001
    endloop
  endfacet
  facet normal  1.696643e-001 -3.523115e-001  9.203753e-001
    outer loop
      vertex  4.742953e+000 -5.947475e+000  1.470711e+001
      vertex  1.535394e+000 -6.727003e+000  1.500000e+001
      vertex  1.692741e+000 -7.416381e+000  1.470711e+001
    endloop
  endfacet
  facet normal  4.023176e-001 -8.354210e-001  3.744494e-001
    outer loop
      vertex  4.742953e+000 -5.947475e+000  1.470711e+001
      vertex  1.692741e+000 -7.416381e+000  1.470711e+001
      vertex  4.925570e+000 -6.176469e+000  1.400000e+001
    endloop
  endfacet
  facet normal  4.023176e-001 -8.354211e-001  3.744489e-001
    outer loop
      vertex  4.925570e+000 -6.176469e+000  1.400000e+001
      vertex  1.692741e+000 -7.416381e+000  1.470711e+001
      vertex  1.757915e+000 -7.701931e+000  1.400000e+001
    endloop
  endfacet
  facet normal  3.057244e-001 -2.438071e-001  9.203752e-001
    outer loop
      vertex  6.216685e+000 -2.993798e+000  1.500000e+001
      vertex  4.302080e+000 -5.394637e+000  1.500000e+001
      vertex  6.853766e+000 -3.300600e+000  1.470711e+001
    endloop
  endfacet
  facet normal  3.057245e-001 -2.438072e-001  9.203752e-001
    outer loop
      vertex  6.853766e+000 -3.300600e+000  1.470711e+001
      vertex  4.302080e+000 -5.394637e+000  1.500000e+001
      vertex  4.742953e+000 -5.947475e+000  1.470711e+001
    endloop
  endfacet
  facet normal  7.249514e-001 -5.781295e-001  3.744485e-001
    outer loop
      vertex  6.853766e+000 -3.300600e+000  1.470711e+001
      vertex  4.742953e+000 -5.947475e+000  1.470711e+001
      vertex  7.117654e+000 -3.427681e+000  1.400000e+001
    endloop
  endfacet
  facet normal  7.249512e-001 -5.781292e-001  3.744494e-001
    outer loop
      vertex  7.117654e+000 -3.427681e+000  1.400000e+001
      vertex  4.742953e+000 -5.947475e+000  1.470711e+001
      vertex  4.925570e+000 -6.176469e+000  1.400000e+001
    endloop
  endfacet
  facet normal  9.749279e-001 -2.225209e-001  0.000000e+000
    outer loop
      vertex -6.000000e+000  7.347638e-016  1.500000e+001
      vertex -6.000000e+000  7.347638e-016 -1.500000e+001
      vertex -5.405813e+000  2.603302e+000  1.500000e+001
    endloop
  endfacet
  facet normal  9.749279e-001 -2.225209e-001  0.000000e+000
    outer loop
      vertex -5.405813e+000  2.603302e+000  1.500000e+001
      vertex -6.000000e+000  7.347638e-016 -1.500000e+001
      vertex -5.405813e+000  2.603302e+000 -1.500000e+001
    endloop
  endfacet
  facet normal  7.818315e-001 -6.234897e-001  0.000000e+000
    outer loop
      vertex -5.405813e+000  2.603302e+000  1.500000e+001
      vertex -5.405813e+000  2.603302e+000 -1.500000e+001
      vertex -3.740939e+000  4.690989e+000  1.500000e+001
    endloop
  endfacet
  facet normal  7.818315e-001 -6.234897e-001  0.000000e+000
    outer loop
      vertex -3.740939e+000  4.690989e+000  1.500000e+001
      vertex -5.405813e+000  2.603302e+000 -1.500000e+001
      vertex -3.740939e+000  4.690989e+000 -1.500000e+001
    endloop
  endfacet
  facet normal  4.338837e-001 -9.009689e-001  0.000000e+000
    outer loop
      vertex -3.740939e+000  4.690989e+000  1.500000e+001
      vertex -3.740939e+000  4.690989e+000 -1.500000e+001
      vertex -1.335126e+000  5.849567e+000  1.500000e+001
    endloop
  endfacet
  facet normal  4.338837e-001 -9.009689e-001  0.000000e+000
    outer loop
      vertex -1.335126e+000  5.849567e+000  1.500000e+001
      vertex -3.740939e+000  4.690989e+000 -1.500000e+001
      vertex -1.335126e+000  5.849567e+000 -1.500000e+001
    endloop
  endfacet
  facet normal  0.000000e+000 -9.999999e-001  0.000000e+000
    outer loop
      vertex -1.335126e+000  5.849567e+000  1.500000e+001
      vertex -1.335126e+000  5.849567e+000 -1.500000e+001
      vertex  1.335126e+000  5.849567e+000  1.500000e+001
    endloop
  endfacet
  facet normal  0.000000e+000 -9.999999e-001  -0.000000e+000
    outer loop
      vertex  1.335126e+000  5.849567e+000  1.500000e+001
      vertex -1.335126e+000  5.849567e+000 -1.500000e+001
      vertex  1.335126e+000  5.849567e+000 -1.500000e+001
    endloop
  endfacet
  facet normal -4.338837e-001 -9.009689e-001  0.000000e+000
    outer loop
      vertex  1.335126e+000  5.849567e+000  1.500000e+001
      vertex  1.335126e+000  5.849567e+000 -1.500000e+001
      vertex  3.740939e+000  4.690989e+000  1.500000e+001
    endloop
  endfacet
  facet normal -4.338837e-001 -9.009689e-001  -0.000000e+000
    outer loop
      vertex  3.740939e+000  4.690989e+000  1.500000e+001
      vertex  1.335126e+000  5.849567e+000 -1.500000e+001
      vertex  3.740939e+000  4.690989e+000 -1.500000e+001
    endloop
  endfacet
  facet normal -7.818315e-001 -6.234897e-001  0.000000e+000
    outer loop
      vertex  3.740939e+000  4.690989e+000  1.500000e+001
      vertex  3.740939e+000  4.690989e+000 -1.500000e+001
      vertex  5.405813e+000  2.603302e+000  1.500000e+001
    endloop
  endfacet
  facet normal -7.818315e-001 -6.234897e-001  -0.000000e+000
    outer loop
      vertex  5.405813e+000  2.603302e+000  1.500000e+001
      vertex  3.740939e+000  4.690989e+000 -1.500000e+001
      vertex  5.405813e+000  2.603302e+000 -1.500000e+001
    endloop
  endfacet
  facet normal -9.749279e-001 -2.225209e-001  0.000000e+000
    outer loop
      vertex  5.405813e+000  2.603302e+000  1.500000e+001
      vertex  5.405813e+000  2.603302e+000 -1.500000e+001
      vertex  6.000000e+000  0.000000e+000  1.500000e+001
    endloop
  endfacet
  facet normal -9.749279e-001 -2.225209e-001  -0.000000e+000
    outer loop
      vertex  6.000000e+000  0.000000e+000  1.500000e+001
      vertex  5.405813e+000  2.603302e+000 -1.500000e+001
      vertex  6.000000e+000  0.000000e+000 -1.500000e+001
    endloop
  endfacet
  facet normal -9.749279e-001  2.225209e-001  0.000000e+000
    outer loop
      vertex  6.000000e+000  0.000000e+000  1.500000e+001
      vertex  6.000000e+000  0.000000e+000 -1.500000e+001
      vertex  5.405813e+000 -2.603302e+000  1.500000e+001
    endloop
  endfacet
  facet normal -9.749279e-001  2.225209e-001  0.000000e+000
    outer loop
      vertex  5.405813e+000 -2.603302e+000  1.500000e+001
      vertex  6.000000e+000  0.000000e+000 -1.500000e+001
      vertex  5.405813e+000 -2.603302e+000 -1.500000e+001
    endloop
  endfacet
  facet normal -7.818315e-001  6.234897e-001  0.000000e+000
    outer loop
      vertex  5.405813e+000 -2.603302e+000  1.500000e+001
      vertex  5.405813e+000 -2.603302e+000 -1.500000e+001
      vertex  3.740939e+000 -4.690989e+000  1.500000e+001
    endloop
  endfacet
  facet normal -7.818315e-001  6.234897e-001  0.000000e+000
    outer loop
      vertex  3.740939e+000 -4.690989e+000  1.500000e+001
      vertex  5.405813e+000 -2.603302e+000 -1.500000e+001
      vertex  3.740939e+000 -4.690989e+000 -1.500000e+001
    endloop
  endfacet
  facet normal -4.338837e-001  9.009689e-001  0.000000e+000
    outer loop
      vertex  3.740939e+000 -4.690989e+000  1.500000e+001
      vertex  3.740939e+000 -4.690989e+000 -1.500000e+001
      vertex  1.335126e+000 -5.849567e+000  1.500000e+001
    endloop
  endfacet
  facet normal -4.338837e-001  9.009689e-001  0.000000e+000
    outer loop
      vertex  1.335126e+000 -5.849567e+000  1.500000e+001
      vertex  3.740939e+000 -4.690989e+000 -1.500000e+001
      vertex  1.335126e+000 -5.849567e+000 -1.500000e+001
    endloop
  endfacet
  facet normal  0.000000e+000  9.999999e-001  -0.000000e+000
    outer loop
      vertex  1.335126e+000 -5.849567e+000  1.500000e+001
      vertex  1.335126e+000 -5.849567e+000 -1.500000e+001
      vertex -1.335126e+000 -5.849567e+000  1.500000e+001
    endloop
  endfacet
  facet normal  0.000000e+000  9.999999e-001  0.000000e+000
    outer loop
      vertex -1.335126e+000 -5.849567e+000  1.500000e+001
      vertex  1.335126e+000 -5.849567e+000 -1.500000e+001
      vertex -1.335126e+000 -5.849567e+000 -1.500000e+001
    endloop
  endfacet
  facet normal  4.338837e-001  9.009689e-001  -0.000000e+000
    outer loop
      vertex -1.335126e+000 -5.849567e+000  1.500000e+001
      vertex -1.335126e+000 -5.849567e+000 -1.500000e+001
      vertex -3.740939e+000 -4.690989e+000  1.500000e+001
    endloop
  endfacet
  facet normal  4.338837e-001  9.009689e-001  0.000000e+000
    outer loop
      vertex -3.740939e+000 -4.690989e+000  1.500000e+001
      vertex -1.335126e+000 -5.849567e+000 -1.500000e+001
      vertex -3.740939e+000 -4.690989e+000 -1.500000e+001
    endloop
  endfacet
  facet normal  7.818315e-001  6.234897e-001  -0.000000e+000
    outer loop
      vertex -3.740939e+000 -4.690989e+000  1.500000e+001
      vertex -3.740939e+000 -4.690989e+000 -1.500000e+001
      vertex -5.405813e+000 -2.603302e+000  1.500000e+001
    endloop
  endfacet
  facet normal  7.818315e-001  6.234897e-001  0.000000e+000
    outer loop
      vertex -5.405813e+000 -2.603302e+000  1.500000e+001
      vertex -3.740939e+000 -4.690989e+000 -1.500000e+001
      vertex -5.405813e+000 -2.603302e+000 -1.500000e+001
    endloop
  endfacet
  facet normal  9.749279e-001  2.225209e-001  -0.000000e+000
    outer loop
      vertex -5.405813e+000 -2.603302e+000  1.500000e+001
      vertex -5.405813e+000 -2.603302e+000 -1.500000e+001
      vertex -6.000000e+000  7.347638e-016  1.500000e+001
    endloop
  endfacet
  facet normal  9.749279e-001  2.225209e-001  0.000000e+000
    outer loop
      vertex -6.000000e+000  7.347638e-016  1.500000e+001
      vertex -5.405813e+000 -2.603302e+000 -1.500000e+001
      vertex -6.000000e+000  7.347638e-016 -1.500000e+001
    endloop
  endfacet
endsolid CATIA STL
