solid CATIA STL
  facet normal -3.826833e-001  0.000000e+000  9.238796e-001
    outer loop
      vertex -4.050000e+001  3.000000e+000  1.100000e+001
      vertex -4.050000e+001  1.000000e+001  1.100000e+001
      vertex -4.191422e+001  3.000000e+000  1.041421e+001
    endloop
  endfacet
  facet normal -3.826833e-001  0.000000e+000  9.238796e-001
    outer loop
      vertex -4.191422e+001  3.000000e+000  1.041421e+001
      vertex -4.050000e+001  1.000000e+001  1.100000e+001
      vertex -4.191422e+001  1.000000e+001  1.041421e+001
    endloop
  endfacet
  facet normal -9.238798e-001  0.000000e+000  3.826827e-001
    outer loop
      vertex -4.191422e+001  3.000000e+000  1.041421e+001
      vertex -4.191422e+001  1.000000e+001  1.041421e+001
      vertex -4.250000e+001  3.000000e+000  9.000000e+000
    endloop
  endfacet
  facet normal -9.238798e-001  0.000000e+000  3.826827e-001
    outer loop
      vertex -4.250000e+001  3.000000e+000  9.000000e+000
      vertex -4.191422e+001  1.000000e+001  1.041421e+001
      vertex -4.250000e+001  1.000000e+001  9.000000e+000
    endloop
  endfacet
  facet normal  -0.000000e+000 -1.000000e+000  -0.000000e+000
    outer loop
      vertex  5.000000e+001  0.000000e+000  0.000000e+000
      vertex  5.000000e+001  0.000000e+000  4.000000e+000
      vertex  4.250000e+001  0.000000e+000  4.000000e+000
    endloop
  endfacet
  facet normal  0.000000e+000 -1.000000e+000  0.000000e+000
    outer loop
      vertex -5.000000e+001  0.000000e+000  0.000000e+000
      vertex  5.000000e+001  0.000000e+000  0.000000e+000
      vertex  4.250000e+001  0.000000e+000  4.000000e+000
    endloop
  endfacet
  facet normal  -0.000000e+000 -1.000000e+000  0.000000e+000
    outer loop
      vertex -5.000000e+001  0.000000e+000  0.000000e+000
      vertex  4.250000e+001  0.000000e+000  4.000000e+000
      vertex  3.950000e+001  0.000000e+000  4.000000e+000
    endloop
  endfacet
  facet normal  -0.000000e+000 -1.000000e+000  0.000000e+000
    outer loop
      vertex -5.000000e+001  0.000000e+000  0.000000e+000
      vertex  3.950000e+001  0.000000e+000  4.000000e+000
      vertex -3.950000e+001  0.000000e+000  4.000000e+000
    endloop
  endfacet
  facet normal -5.921190e-016 -1.000000e+000  1.554312e-015
    outer loop
      vertex -5.000000e+001  0.000000e+000  0.000000e+000
      vertex -3.950000e+001  0.000000e+000  4.000000e+000
      vertex -4.250000e+001  1.776357e-015  4.000000e+000
    endloop
  endfacet
  facet normal  2.368476e-016 -1.000000e+000  0.000000e+000
    outer loop
      vertex -5.000000e+001  0.000000e+000  0.000000e+000
      vertex -4.250000e+001  1.776357e-015  4.000000e+000
      vertex -5.000000e+001  0.000000e+000  4.000000e+000
    endloop
  endfacet
  facet normal  0.000000e+000 -1.000000e+000  0.000000e+000
    outer loop
      vertex  3.950000e+001  0.000000e+000  8.000000e+000
      vertex -3.950000e+001  0.000000e+000  8.000000e+000
      vertex  3.950000e+001  0.000000e+000  4.000000e+000
    endloop
  endfacet
  facet normal  0.000000e+000 -1.000000e+000  0.000000e+000
    outer loop
      vertex  3.950000e+001  0.000000e+000  4.000000e+000
      vertex -3.950000e+001  0.000000e+000  8.000000e+000
      vertex -3.950000e+001  0.000000e+000  4.000000e+000
    endloop
  endfacet
  facet normal  0.000000e+000  0.000000e+000  9.999999e-001
    outer loop
      vertex -4.050000e+001  3.000000e+000  1.100000e+001
      vertex  4.050000e+001  3.000000e+000  1.100000e+001
      vertex -4.050000e+001  1.000000e+001  1.100000e+001
    endloop
  endfacet
  facet normal  -0.000000e+000  0.000000e+000  9.999999e-001
    outer loop
      vertex -4.050000e+001  1.000000e+001  1.100000e+001
      vertex  4.050000e+001  3.000000e+000  1.100000e+001
      vertex  4.050000e+001  1.000000e+001  1.100000e+001
    endloop
  endfacet
  facet normal -1.000000e+000  0.000000e+000  0.000000e+000
    outer loop
      vertex -4.250000e+001  1.000000e+001  9.000000e+000
      vertex -4.250000e+001  1.000000e+001  4.000000e+000
      vertex -4.250000e+001  3.000000e+000  9.000000e+000
    endloop
  endfacet
  facet normal -1.000000e+000  0.000000e+000  0.000000e+000
    outer loop
      vertex -4.250000e+001  3.000000e+000  9.000000e+000
      vertex -4.250000e+001  1.000000e+001  4.000000e+000
      vertex -4.250000e+001  3.000000e+000  4.000000e+000
    endloop
  endfacet
  facet normal  9.238798e-001  0.000000e+000  3.826827e-001
    outer loop
      vertex  4.250000e+001  3.000000e+000  9.000000e+000
      vertex  4.250000e+001  1.000000e+001  9.000000e+000
      vertex  4.191422e+001  3.000000e+000  1.041421e+001
    endloop
  endfacet
  facet normal  9.238798e-001  -0.000000e+000  3.826827e-001
    outer loop
      vertex  4.191422e+001  3.000000e+000  1.041421e+001
      vertex  4.250000e+001  1.000000e+001  9.000000e+000
      vertex  4.191422e+001  1.000000e+001  1.041421e+001
    endloop
  endfacet
  facet normal  3.826833e-001  0.000000e+000  9.238796e-001
    outer loop
      vertex  4.191422e+001  3.000000e+000  1.041421e+001
      vertex  4.191422e+001  1.000000e+001  1.041421e+001
      vertex  4.050000e+001  3.000000e+000  1.100000e+001
    endloop
  endfacet
  facet normal  3.826833e-001  -0.000000e+000  9.238796e-001
    outer loop
      vertex  4.050000e+001  3.000000e+000  1.100000e+001
      vertex  4.191422e+001  1.000000e+001  1.041421e+001
      vertex  4.050000e+001  1.000000e+001  1.100000e+001
    endloop
  endfacet
  facet normal  1.000000e+000  0.000000e+000  0.000000e+000
    outer loop
      vertex  4.250000e+001  3.000000e+000  9.000000e+000
      vertex  4.250000e+001  3.000000e+000  4.000000e+000
      vertex  4.250000e+001  1.000000e+001  9.000000e+000
    endloop
  endfacet
  facet normal  1.000000e+000  0.000000e+000  0.000000e+000
    outer loop
      vertex  4.250000e+001  1.000000e+001  9.000000e+000
      vertex  4.250000e+001  3.000000e+000  4.000000e+000
      vertex  4.250000e+001  1.000000e+001  4.000000e+000
    endloop
  endfacet
  facet normal  -0.000000e+000  0.000000e+000  1.000000e+000
    outer loop
      vertex -4.250000e+001  1.000000e+001  4.000000e+000
      vertex -5.000000e+001  1.000000e+001  4.000000e+000
      vertex -4.250000e+001  3.000000e+000  4.000000e+000
    endloop
  endfacet
  facet normal  0.000000e+000  0.000000e+000  1.000000e+000
    outer loop
      vertex -4.250000e+001  3.000000e+000  4.000000e+000
      vertex -5.000000e+001  1.000000e+001  4.000000e+000
      vertex -5.000000e+001  0.000000e+000  4.000000e+000
    endloop
  endfacet
  facet normal  0.000000e+000  0.000000e+000  9.999999e-001
    outer loop
      vertex -4.250000e+001  3.000000e+000  4.000000e+000
      vertex -5.000000e+001  0.000000e+000  4.000000e+000
      vertex -4.209808e+001  1.500000e+000  4.000000e+000
    endloop
  endfacet
  facet normal  0.000000e+000  0.000000e+000  1.000000e+000
    outer loop
      vertex -4.209808e+001  1.500000e+000  4.000000e+000
      vertex -5.000000e+001  0.000000e+000  4.000000e+000
      vertex -4.100000e+001  4.019238e-001  4.000000e+000
    endloop
  endfacet
  facet normal  0.000000e+000  0.000000e+000  1.000000e+000
    outer loop
      vertex -4.100000e+001  4.019238e-001  4.000000e+000
      vertex -5.000000e+001  0.000000e+000  4.000000e+000
      vertex -4.250000e+001  1.776357e-015  4.000000e+000
    endloop
  endfacet
  facet normal  -0.000000e+000  0.000000e+000  1.000000e+000
    outer loop
      vertex -4.100000e+001  4.019238e-001  4.000000e+000
      vertex -4.250000e+001  1.776357e-015  4.000000e+000
      vertex -3.950000e+001  0.000000e+000  4.000000e+000
    endloop
  endfacet
  facet normal  -0.000000e+000  0.000000e+000  1.000000e+000
    outer loop
      vertex  5.000000e+001  1.000000e+001  4.000000e+000
      vertex  4.250000e+001  1.000000e+001  4.000000e+000
      vertex  5.000000e+001  0.000000e+000  4.000000e+000
    endloop
  endfacet
  facet normal  0.000000e+000  0.000000e+000  1.000000e+000
    outer loop
      vertex  5.000000e+001  0.000000e+000  4.000000e+000
      vertex  4.250000e+001  1.000000e+001  4.000000e+000
      vertex  4.250000e+001  3.000000e+000  4.000000e+000
    endloop
  endfacet
  facet normal  0.000000e+000  0.000000e+000  9.999999e-001
    outer loop
      vertex  5.000000e+001  0.000000e+000  4.000000e+000
      vertex  4.250000e+001  3.000000e+000  4.000000e+000
      vertex  4.209808e+001  1.500000e+000  4.000000e+000
    endloop
  endfacet
  facet normal  0.000000e+000  0.000000e+000  1.000000e+000
    outer loop
      vertex  5.000000e+001  0.000000e+000  4.000000e+000
      vertex  4.209808e+001  1.500000e+000  4.000000e+000
      vertex  4.250000e+001  0.000000e+000  4.000000e+000
    endloop
  endfacet
  facet normal  0.000000e+000  0.000000e+000  1.000000e+000
    outer loop
      vertex  4.250000e+001  0.000000e+000  4.000000e+000
      vertex  4.209808e+001  1.500000e+000  4.000000e+000
      vertex  4.100000e+001  4.019238e-001  4.000000e+000
    endloop
  endfacet
  facet normal  0.000000e+000  0.000000e+000  1.000000e+000
    outer loop
      vertex  4.250000e+001  0.000000e+000  4.000000e+000
      vertex  4.100000e+001  4.019238e-001  4.000000e+000
      vertex  3.950000e+001  0.000000e+000  4.000000e+000
    endloop
  endfacet
  facet normal  0.000000e+000  0.000000e+000 -1.000000e+000
    outer loop
      vertex  5.000000e+001  0.000000e+000  0.000000e+000
      vertex -5.000000e+001  0.000000e+000  0.000000e+000
      vertex  5.000000e+001  1.000000e+001  0.000000e+000
    endloop
  endfacet
  facet normal  -0.000000e+000  0.000000e+000 -1.000000e+000
    outer loop
      vertex  5.000000e+001  1.000000e+001  0.000000e+000
      vertex -5.000000e+001  0.000000e+000  0.000000e+000
      vertex -5.000000e+001  1.000000e+001  0.000000e+000
    endloop
  endfacet
  facet normal  9.659258e-001 -2.588193e-001  0.000000e+000
    outer loop
      vertex  4.250000e+001  3.000000e+000  4.000000e+000
      vertex  4.250000e+001  3.000000e+000  9.000000e+000
      vertex  4.209808e+001  1.500000e+000  4.000000e+000
    endloop
  endfacet
  facet normal  9.452611e-001 -3.255929e-001  2.169322e-002
    outer loop
      vertex  4.209808e+001  1.500000e+000  4.000000e+000
      vertex  4.250000e+001  3.000000e+000  9.000000e+000
      vertex  4.187225e+001  1.163585e+000  8.790751e+000
    endloop
  endfacet
  facet normal  7.070127e-001 -7.070125e-001 -1.632109e-002
    outer loop
      vertex  4.209808e+001  1.500000e+000  4.000000e+000
      vertex  4.187225e+001  1.163585e+000  8.790751e+000
      vertex  4.100000e+001  4.019238e-001  4.000000e+000
    endloop
  endfacet
  facet normal  7.224442e-001 -6.910897e-001 -2.166221e-002
    outer loop
      vertex  4.100000e+001  4.019238e-001  4.000000e+000
      vertex  4.187225e+001  1.163585e+000  8.790751e+000
      vertex  4.141674e+001  6.921608e-001  8.638912e+000
    endloop
  endfacet
  facet normal  2.586403e-001 -9.652588e-001  3.715720e-002
    outer loop
      vertex  4.100000e+001  4.019238e-001  4.000000e+000
      vertex  4.141674e+001  6.921608e-001  8.638912e+000
      vertex  3.950000e+001  0.000000e+000  4.000000e+000
    endloop
  endfacet
  facet normal  3.396470e-001 -9.405529e-001  0.000000e+000
    outer loop
      vertex  3.950000e+001  0.000000e+000  4.000000e+000
      vertex  4.141674e+001  6.921608e-001  8.638912e+000
      vertex  3.950000e+001  0.000000e+000  8.000000e+000
    endloop
  endfacet
  facet normal -2.588190e-001 -9.659259e-001  -0.000000e+000
    outer loop
      vertex -3.950000e+001  0.000000e+000  4.000000e+000
      vertex -3.950000e+001  0.000000e+000  8.000000e+000
      vertex -4.100000e+001  4.019238e-001  4.000000e+000
    endloop
  endfacet
  facet normal -3.308493e-001 -9.432288e-001  2.929198e-002
    outer loop
      vertex -4.100000e+001  4.019238e-001  4.000000e+000
      vertex -3.950000e+001  0.000000e+000  8.000000e+000
      vertex -4.141674e+001  6.921608e-001  8.638912e+000
    endloop
  endfacet
  facet normal -7.069755e-001 -7.069753e-001 -1.927869e-002
    outer loop
      vertex -4.100000e+001  4.019238e-001  4.000000e+000
      vertex -4.141674e+001  6.921608e-001  8.638912e+000
      vertex -4.209808e+001  1.500000e+000  4.000000e+000
    endloop
  endfacet
  facet normal -7.214067e-001 -6.923574e-001 -1.461350e-002
    outer loop
      vertex -4.209808e+001  1.500000e+000  4.000000e+000
      vertex -4.141674e+001  6.921608e-001  8.638912e+000
      vertex -4.187225e+001  1.163585e+000  8.790751e+000
    endloop
  endfacet
  facet normal -9.655645e-001 -2.587225e-001  2.734603e-002
    outer loop
      vertex -4.209808e+001  1.500000e+000  4.000000e+000
      vertex -4.187225e+001  1.163585e+000  8.790751e+000
      vertex -4.250000e+001  3.000000e+000  4.000000e+000
    endloop
  endfacet
  facet normal -9.462430e-001 -3.234567e-001  0.000000e+000
    outer loop
      vertex -4.250000e+001  3.000000e+000  4.000000e+000
      vertex -4.187225e+001  1.163585e+000  8.790751e+000
      vertex -4.250000e+001  3.000000e+000  9.000000e+000
    endloop
  endfacet
  facet normal  0.000000e+000 -9.405530e-001  3.396471e-001
    outer loop
      vertex -3.950000e+001  0.000000e+000  8.000000e+000
      vertex  3.950000e+001  0.000000e+000  8.000000e+000
      vertex -4.013891e+001  6.921608e-001  9.916737e+000
    endloop
  endfacet
  facet normal  0.000000e+000 -9.405529e-001  3.396471e-001
    outer loop
      vertex -4.013891e+001  6.921608e-001  9.916737e+000
      vertex  3.950000e+001  0.000000e+000  8.000000e+000
      vertex  4.013891e+001  6.921608e-001  9.916737e+000
    endloop
  endfacet
  facet normal  0.000000e+000 -6.948690e-001  7.191364e-001
    outer loop
      vertex -4.013891e+001  6.921608e-001  9.916737e+000
      vertex  4.013891e+001  6.921608e-001  9.916737e+000
      vertex -4.029075e+001  1.163585e+000  1.037225e+001
    endloop
  endfacet
  facet normal  0.000000e+000 -6.948690e-001  7.191363e-001
    outer loop
      vertex -4.029075e+001  1.163585e+000  1.037225e+001
      vertex  4.013891e+001  6.921608e-001  9.916737e+000
      vertex  4.029075e+001  1.163585e+000  1.037225e+001
    endloop
  endfacet
  facet normal  0.000000e+000 -3.234572e-001  9.462428e-001
    outer loop
      vertex -4.029075e+001  1.163585e+000  1.037225e+001
      vertex  4.029075e+001  1.163585e+000  1.037225e+001
      vertex -4.050000e+001  3.000000e+000  1.100000e+001
    endloop
  endfacet
  facet normal  0.000000e+000 -3.234572e-001  9.462428e-001
    outer loop
      vertex -4.050000e+001  3.000000e+000  1.100000e+001
      vertex  4.029075e+001  1.163585e+000  1.037225e+001
      vertex  4.050000e+001  3.000000e+000  1.100000e+001
    endloop
  endfacet
  facet normal  1.751400e-002 -9.422595e-001  3.344253e-001
    outer loop
      vertex  4.085508e+001  5.061289e-001  9.355077e+000
      vertex  4.013891e+001  6.921608e-001  9.916737e+000
      vertex  3.950000e+001  0.000000e+000  8.000000e+000
    endloop
  endfacet
  facet normal  3.344252e-001 -9.422595e-001  1.751434e-002
    outer loop
      vertex  4.141674e+001  6.921608e-001  8.638912e+000
      vertex  4.085508e+001  5.061289e-001  9.355077e+000
      vertex  3.950000e+001  0.000000e+000  8.000000e+000
    endloop
  endfacet
  facet normal  3.682524e-001 -2.720250e-001  8.890403e-001
    outer loop
      vertex  4.158253e+001  1.466950e+000  1.008253e+001
      vertex  4.191422e+001  3.000000e+000  1.041421e+001
      vertex  4.050000e+001  3.000000e+000  1.100000e+001
    endloop
  endfacet
  facet normal  8.978716e-001 -3.389376e-001  2.809767e-001
    outer loop
      vertex  4.158253e+001  1.466950e+000  1.008253e+001
      vertex  4.187225e+001  1.163585e+000  8.790751e+000
      vertex  4.250000e+001  3.000000e+000  9.000000e+000
    endloop
  endfacet
  facet normal  8.890404e-001 -2.720253e-001  3.682517e-001
    outer loop
      vertex  4.191422e+001  3.000000e+000  1.041421e+001
      vertex  4.158253e+001  1.466950e+000  1.008253e+001
      vertex  4.250000e+001  3.000000e+000  9.000000e+000
    endloop
  endfacet
  facet normal  6.311777e-001 -7.115730e-001  3.086722e-001
    outer loop
      vertex  4.085508e+001  5.061289e-001  9.355077e+000
      vertex  4.187225e+001  1.163585e+000  8.790751e+000
      vertex  4.158253e+001  1.466950e+000  1.008253e+001
    endloop
  endfacet
  facet normal  6.315434e-001 -7.103303e-001  3.107792e-001
    outer loop
      vertex  4.141674e+001  6.921608e-001  8.638912e+000
      vertex  4.187225e+001  1.163585e+000  8.790751e+000
      vertex  4.085508e+001  5.061289e-001  9.355077e+000
    endloop
  endfacet
  facet normal  3.107789e-001 -7.103304e-001  6.315436e-001
    outer loop
      vertex  4.013891e+001  6.921608e-001  9.916737e+000
      vertex  4.085508e+001  5.061289e-001  9.355077e+000
      vertex  4.029075e+001  1.163585e+000  1.037225e+001
    endloop
  endfacet
  facet normal  3.086724e-001 -7.115727e-001  6.311780e-001
    outer loop
      vertex  4.029075e+001  1.163585e+000  1.037225e+001
      vertex  4.085508e+001  5.061289e-001  9.355077e+000
      vertex  4.158253e+001  1.466950e+000  1.008253e+001
    endloop
  endfacet
  facet normal  2.809769e-001 -3.389377e-001  8.978715e-001
    outer loop
      vertex  4.029075e+001  1.163585e+000  1.037225e+001
      vertex  4.158253e+001  1.466950e+000  1.008253e+001
      vertex  4.050000e+001  3.000000e+000  1.100000e+001
    endloop
  endfacet
  facet normal -3.344252e-001 -9.422595e-001  1.751434e-002
    outer loop
      vertex -4.085508e+001  5.061289e-001  9.355077e+000
      vertex -4.141674e+001  6.921608e-001  8.638912e+000
      vertex -3.950000e+001  0.000000e+000  8.000000e+000
    endloop
  endfacet
  facet normal -1.751400e-002 -9.422595e-001  3.344253e-001
    outer loop
      vertex -4.013891e+001  6.921608e-001  9.916737e+000
      vertex -4.085508e+001  5.061289e-001  9.355077e+000
      vertex -3.950000e+001  0.000000e+000  8.000000e+000
    endloop
  endfacet
  facet normal -8.890404e-001 -2.720253e-001  3.682517e-001
    outer loop
      vertex -4.158253e+001  1.466950e+000  1.008253e+001
      vertex -4.191422e+001  3.000000e+000  1.041421e+001
      vertex -4.250000e+001  3.000000e+000  9.000000e+000
    endloop
  endfacet
  facet normal -2.809769e-001 -3.389377e-001  8.978715e-001
    outer loop
      vertex -4.158253e+001  1.466950e+000  1.008253e+001
      vertex -4.029075e+001  1.163585e+000  1.037225e+001
      vertex -4.050000e+001  3.000000e+000  1.100000e+001
    endloop
  endfacet
  facet normal -3.682524e-001 -2.720250e-001  8.890403e-001
    outer loop
      vertex -4.191422e+001  3.000000e+000  1.041421e+001
      vertex -4.158253e+001  1.466950e+000  1.008253e+001
      vertex -4.050000e+001  3.000000e+000  1.100000e+001
    endloop
  endfacet
  facet normal -3.086724e-001 -7.115727e-001  6.311780e-001
    outer loop
      vertex -4.085508e+001  5.061289e-001  9.355077e+000
      vertex -4.029075e+001  1.163585e+000  1.037225e+001
      vertex -4.158253e+001  1.466950e+000  1.008253e+001
    endloop
  endfacet
  facet normal -3.107789e-001 -7.103304e-001  6.315436e-001
    outer loop
      vertex -4.013891e+001  6.921608e-001  9.916737e+000
      vertex -4.029075e+001  1.163585e+000  1.037225e+001
      vertex -4.085508e+001  5.061289e-001  9.355077e+000
    endloop
  endfacet
  facet normal -6.315434e-001 -7.103303e-001  3.107792e-001
    outer loop
      vertex -4.141674e+001  6.921608e-001  8.638912e+000
      vertex -4.085508e+001  5.061289e-001  9.355077e+000
      vertex -4.187225e+001  1.163585e+000  8.790751e+000
    endloop
  endfacet
  facet normal -6.311777e-001 -7.115730e-001  3.086722e-001
    outer loop
      vertex -4.187225e+001  1.163585e+000  8.790751e+000
      vertex -4.085508e+001  5.061289e-001  9.355077e+000
      vertex -4.158253e+001  1.466950e+000  1.008253e+001
    endloop
  endfacet
  facet normal -8.978716e-001 -3.389376e-001  2.809767e-001
    outer loop
      vertex -4.187225e+001  1.163585e+000  8.790751e+000
      vertex -4.158253e+001  1.466950e+000  1.008253e+001
      vertex -4.250000e+001  3.000000e+000  9.000000e+000
    endloop
  endfacet
  facet normal  0.000000e+000  1.000000e+000  0.000000e+000
    outer loop
      vertex  5.000000e+001  1.000000e+001  0.000000e+000
      vertex -5.000000e+001  1.000000e+001  0.000000e+000
      vertex -5.000000e+001  1.000000e+001  4.000000e+000
    endloop
  endfacet
  facet normal  -0.000000e+000  1.000000e+000  0.000000e+000
    outer loop
      vertex  5.000000e+001  1.000000e+001  0.000000e+000
      vertex -5.000000e+001  1.000000e+001  4.000000e+000
      vertex -4.250000e+001  1.000000e+001  4.000000e+000
    endloop
  endfacet
  facet normal  -0.000000e+000  1.000000e+000  0.000000e+000
    outer loop
      vertex  5.000000e+001  1.000000e+001  0.000000e+000
      vertex -4.250000e+001  1.000000e+001  4.000000e+000
      vertex  4.250000e+001  1.000000e+001  4.000000e+000
    endloop
  endfacet
  facet normal  -0.000000e+000  1.000000e+000  0.000000e+000
    outer loop
      vertex  5.000000e+001  1.000000e+001  0.000000e+000
      vertex  4.250000e+001  1.000000e+001  4.000000e+000
      vertex  5.000000e+001  1.000000e+001  4.000000e+000
    endloop
  endfacet
  facet normal  -0.000000e+000  1.000000e+000  0.000000e+000
    outer loop
      vertex -4.250000e+001  1.000000e+001  4.000000e+000
      vertex -4.250000e+001  1.000000e+001  9.000000e+000
      vertex -4.191422e+001  1.000000e+001  1.041421e+001
    endloop
  endfacet
  facet normal  -0.000000e+000  1.000000e+000  0.000000e+000
    outer loop
      vertex -4.250000e+001  1.000000e+001  4.000000e+000
      vertex -4.191422e+001  1.000000e+001  1.041421e+001
      vertex -4.050000e+001  1.000000e+001  1.100000e+001
    endloop
  endfacet
  facet normal  -0.000000e+000  9.999999e-001  0.000000e+000
    outer loop
      vertex -4.250000e+001  1.000000e+001  4.000000e+000
      vertex -4.050000e+001  1.000000e+001  1.100000e+001
      vertex  4.050000e+001  1.000000e+001  1.100000e+001
    endloop
  endfacet
  facet normal  0.000000e+000  9.999999e-001  0.000000e+000
    outer loop
      vertex -4.250000e+001  1.000000e+001  4.000000e+000
      vertex  4.050000e+001  1.000000e+001  1.100000e+001
      vertex  4.191422e+001  1.000000e+001  1.041421e+001
    endloop
  endfacet
  facet normal  0.000000e+000  1.000000e+000  0.000000e+000
    outer loop
      vertex -4.250000e+001  1.000000e+001  4.000000e+000
      vertex  4.191422e+001  1.000000e+001  1.041421e+001
      vertex  4.250000e+001  1.000000e+001  9.000000e+000
    endloop
  endfacet
  facet normal  0.000000e+000  9.999999e-001  0.000000e+000
    outer loop
      vertex -4.250000e+001  1.000000e+001  4.000000e+000
      vertex  4.250000e+001  1.000000e+001  9.000000e+000
      vertex  4.250000e+001  1.000000e+001  4.000000e+000
    endloop
  endfacet
  facet normal  1.000000e+000  0.000000e+000  0.000000e+000
    outer loop
      vertex  5.000000e+001  0.000000e+000  4.000000e+000
      vertex  5.000000e+001  0.000000e+000  0.000000e+000
      vertex  5.000000e+001  1.000000e+001  4.000000e+000
    endloop
  endfacet
  facet normal  1.000000e+000  0.000000e+000  0.000000e+000
    outer loop
      vertex  5.000000e+001  1.000000e+001  4.000000e+000
      vertex  5.000000e+001  0.000000e+000  0.000000e+000
      vertex  5.000000e+001  1.000000e+001  0.000000e+000
    endloop
  endfacet
  facet normal -1.000000e+000  0.000000e+000  0.000000e+000
    outer loop
      vertex -5.000000e+001  1.000000e+001  4.000000e+000
      vertex -5.000000e+001  1.000000e+001  0.000000e+000
      vertex -5.000000e+001  0.000000e+000  4.000000e+000
    endloop
  endfacet
  facet normal -1.000000e+000  0.000000e+000  0.000000e+000
    outer loop
      vertex -5.000000e+001  0.000000e+000  4.000000e+000
      vertex -5.000000e+001  1.000000e+001  0.000000e+000
      vertex -5.000000e+001  0.000000e+000  0.000000e+000
    endloop
  endfacet
endsolid CATIA STL
