solid CATIA STL
  facet normal  0.000000e+000  0.000000e+000  1.000000e+000
    outer loop
      vertex  2.459808e+001  5.500000e+000  4.700000e+000
      vertex  2.350000e+001  6.598076e+000  4.700000e+000
      vertex  2.154004e+001  6.292893e+000  4.700000e+000
    endloop
  endfacet
  facet normal  0.000000e+000  0.000000e+000  1.000000e+000
    outer loop
      vertex  2.459808e+001  5.500000e+000  4.700000e+000
      vertex  2.154004e+001  6.292893e+000  4.700000e+000
      vertex  2.083293e+001  6.000000e+000  4.700000e+000
    endloop
  endfacet
  facet normal  0.000000e+000  0.000000e+000  1.000000e+000
    outer loop
      vertex  2.459808e+001  5.500000e+000  4.700000e+000
      vertex  2.083293e+001  6.000000e+000  4.700000e+000
      vertex  1.249993e+001  6.000000e+000  4.700000e+000
    endloop
  endfacet
  facet normal  0.000000e+000  0.000000e+000  9.999999e-001
    outer loop
      vertex  2.459808e+001  5.500000e+000  4.700000e+000
      vertex  1.249993e+001  6.000000e+000  4.700000e+000
      vertex  4.166633e+000  6.000000e+000  4.700000e+000
    endloop
  endfacet
  facet normal  0.000000e+000  0.000000e+000  9.999999e-001
    outer loop
      vertex  2.459808e+001  5.500000e+000  4.700000e+000
      vertex  4.166633e+000  6.000000e+000  4.700000e+000
      vertex -4.166667e+000  6.000000e+000  4.700000e+000
    endloop
  endfacet
  facet normal  0.000000e+000  0.000000e+000  1.000000e+000
    outer loop
      vertex  2.459808e+001  5.500000e+000  4.700000e+000
      vertex -4.166667e+000  6.000000e+000  4.700000e+000
      vertex -1.250000e+001  6.000000e+000  4.700000e+000
    endloop
  endfacet
  facet normal  0.000000e+000  0.000000e+000  1.000000e+000
    outer loop
      vertex  2.459808e+001  5.500000e+000  4.700000e+000
      vertex -1.250000e+001  6.000000e+000  4.700000e+000
      vertex -2.083333e+001  6.000000e+000  4.700000e+000
    endloop
  endfacet
  facet normal  0.000000e+000  0.000000e+000  1.000000e+000
    outer loop
      vertex  2.459808e+001  5.500000e+000  4.700000e+000
      vertex -2.083333e+001  6.000000e+000  4.700000e+000
      vertex -2.459808e+001  5.500000e+000  4.700000e+000
    endloop
  endfacet
  facet normal  -0.000000e+000  0.000000e+000  1.000000e+000
    outer loop
      vertex  2.459808e+001  5.500000e+000  4.700000e+000
      vertex -2.459808e+001  5.500000e+000  4.700000e+000
      vertex -2.500000e+001  4.000000e+000  4.700000e+000
    endloop
  endfacet
  facet normal  0.000000e+000  0.000000e+000  1.000000e+000
    outer loop
      vertex  2.459808e+001  5.500000e+000  4.700000e+000
      vertex -2.500000e+001  4.000000e+000  4.700000e+000
      vertex  2.500000e+001  4.000000e+000  4.700000e+000
    endloop
  endfacet
  facet normal  0.000000e+000  0.000000e+000  1.000000e+000
    outer loop
      vertex  2.154004e+001  6.292893e+000  4.700000e+000
      vertex  2.350000e+001  6.598076e+000  4.700000e+000
      vertex  2.183293e+001  7.000000e+000  4.700000e+000
    endloop
  endfacet
  facet normal  -0.000000e+000  0.000000e+000  1.000000e+000
    outer loop
      vertex  2.183293e+001  7.000000e+000  4.700000e+000
      vertex  2.350000e+001  6.598076e+000  4.700000e+000
      vertex  2.200000e+001  7.000000e+000  4.700000e+000
    endloop
  endfacet
  facet normal  0.000000e+000  0.000000e+000  1.000000e+000
    outer loop
      vertex -2.500000e+001  0.000000e+000  4.700000e+000
      vertex  2.500000e+001  0.000000e+000  4.700000e+000
      vertex -2.500000e+001  4.000000e+000  4.700000e+000
    endloop
  endfacet
  facet normal  -0.000000e+000  0.000000e+000  1.000000e+000
    outer loop
      vertex -2.500000e+001  4.000000e+000  4.700000e+000
      vertex  2.500000e+001  0.000000e+000  4.700000e+000
      vertex  2.500000e+001  4.000000e+000  4.700000e+000
    endloop
  endfacet
  facet normal  -0.000000e+000  0.000000e+000  9.999999e-001
    outer loop
      vertex -2.183333e+001  7.000000e+000  4.700000e+000
      vertex -2.200000e+001  7.000000e+000  4.700000e+000
      vertex -2.154044e+001  6.292893e+000  4.700000e+000
    endloop
  endfacet
  facet normal  0.000000e+000  0.000000e+000  9.999999e-001
    outer loop
      vertex -2.154044e+001  6.292893e+000  4.700000e+000
      vertex -2.200000e+001  7.000000e+000  4.700000e+000
      vertex -2.350000e+001  6.598076e+000  4.700000e+000
    endloop
  endfacet
  facet normal  0.000000e+000  0.000000e+000  1.000000e+000
    outer loop
      vertex -2.154044e+001  6.292893e+000  4.700000e+000
      vertex -2.350000e+001  6.598076e+000  4.700000e+000
      vertex -2.083333e+001  6.000000e+000  4.700000e+000
    endloop
  endfacet
  facet normal  0.000000e+000  0.000000e+000  9.999999e-001
    outer loop
      vertex -2.083333e+001  6.000000e+000  4.700000e+000
      vertex -2.350000e+001  6.598076e+000  4.700000e+000
      vertex -2.459808e+001  5.500000e+000  4.700000e+000
    endloop
  endfacet
  facet normal -5.483105e-001  8.362744e-001 -8.639963e-004
    outer loop
      vertex  1.283213e+001  6.056789e+000  4.698386e+000
      vertex  1.323235e+001  6.319149e+000  4.647705e+000
      vertex  1.320704e+001  6.292893e+000 -4.700000e+000
    endloop
  endfacet
  facet normal  9.984857e-001  5.501063e-002  0.000000e+000
    outer loop
      vertex  1.149993e+001  7.000000e+000 -4.700000e+000
      vertex  1.149993e+001  7.000000e+000  3.700000e+000
      vertex  1.150599e+001  6.890134e+000  4.155699e+000
    endloop
  endfacet
  facet normal  9.634954e-001  2.677117e-001  2.662741e-003
    outer loop
      vertex  1.149993e+001  7.000000e+000 -4.700000e+000
      vertex  1.150599e+001  6.890134e+000  4.155699e+000
      vertex  1.158929e+001  6.586813e+000  4.509722e+000
    endloop
  endfacet
  facet normal  8.281534e-001  5.602407e-001  1.709991e-002
    outer loop
      vertex  1.149993e+001  7.000000e+000 -4.700000e+000
      vertex  1.158929e+001  6.586813e+000  4.509722e+000
      vertex  1.176751e+001  6.319149e+000  4.647705e+000
    endloop
  endfacet
  facet normal  9.238784e-001  3.826833e-001  1.427179e-003
    outer loop
      vertex  1.149993e+001  7.000000e+000 -4.700000e+000
      vertex  1.176751e+001  6.319149e+000  4.647705e+000
      vertex  1.179283e+001  6.292893e+000 -4.700000e+000
    endloop
  endfacet
  facet normal -9.984853e-001  5.501927e-002  0.000000e+000
    outer loop
      vertex  1.349993e+001  7.000000e+000  3.700000e+000
      vertex  1.349993e+001  7.000000e+000 -4.700000e+000
      vertex  1.349388e+001  6.890134e+000  4.155699e+000
    endloop
  endfacet
  facet normal -9.238716e-001  3.826805e-001  4.116059e-003
    outer loop
      vertex  1.349388e+001  6.890134e+000  4.155699e+000
      vertex  1.349993e+001  7.000000e+000 -4.700000e+000
      vertex  1.320704e+001  6.292893e+000 -4.700000e+000
    endloop
  endfacet
  facet normal -9.604504e-001  2.781774e-001  1.234869e-002
    outer loop
      vertex  1.349388e+001  6.890134e+000  4.155699e+000
      vertex  1.320704e+001  6.292893e+000 -4.700000e+000
      vertex  1.341058e+001  6.586813e+000  4.509722e+000
    endloop
  endfacet
  facet normal -8.321969e-001  5.544798e-001  6.962743e-004
    outer loop
      vertex  1.341058e+001  6.586813e+000  4.509722e+000
      vertex  1.320704e+001  6.292893e+000 -4.700000e+000
      vertex  1.323235e+001  6.319149e+000  4.647705e+000
    endloop
  endfacet
  facet normal -1.683938e-001  9.855546e-001  1.804150e-002
    outer loop
      vertex  1.283213e+001  6.056789e+000  4.698386e+000
      vertex  1.320704e+001  6.292893e+000 -4.700000e+000
      vertex  1.249993e+001  6.000000e+000  4.700000e+000
    endloop
  endfacet
  facet normal -3.826838e-001  9.238794e-001  0.000000e+000
    outer loop
      vertex  1.249993e+001  6.000000e+000  4.700000e+000
      vertex  1.320704e+001  6.292893e+000 -4.700000e+000
      vertex  1.249993e+001  6.000000e+000 -4.700000e+000
    endloop
  endfacet
  facet normal  1.685064e-001  9.857006e-001  -0.000000e+000
    outer loop
      vertex  1.249993e+001  6.000000e+000  4.700000e+000
      vertex  1.249993e+001  6.000000e+000 -4.700000e+000
      vertex  1.216774e+001  6.056789e+000  4.698386e+000
    endloop
  endfacet
  facet normal  3.826717e-001  9.238502e-001  7.943586e-003
    outer loop
      vertex  1.216774e+001  6.056789e+000  4.698386e+000
      vertex  1.249993e+001  6.000000e+000 -4.700000e+000
      vertex  1.179283e+001  6.292893e+000 -4.700000e+000
    endloop
  endfacet
  facet normal  5.483095e-001  8.362750e-001 -8.639445e-004
    outer loop
      vertex  1.216774e+001  6.056789e+000  4.698386e+000
      vertex  1.179283e+001  6.292893e+000 -4.700000e+000
      vertex  1.176751e+001  6.319149e+000  4.647705e+000
    endloop
  endfacet
  facet normal  9.984853e-001  5.501927e-002  0.000000e+000
    outer loop
      vertex  1.983293e+001  7.000000e+000 -4.700000e+000
      vertex  1.983293e+001  7.000000e+000  3.700000e+000
      vertex  1.983899e+001  6.890134e+000  4.155699e+000
    endloop
  endfacet
  facet normal  9.634963e-001  2.677087e-001  2.662600e-003
    outer loop
      vertex  1.983293e+001  7.000000e+000 -4.700000e+000
      vertex  1.983899e+001  6.890134e+000  4.155699e+000
      vertex  1.992229e+001  6.586813e+000  4.509722e+000
    endloop
  endfacet
  facet normal  8.281534e-001  5.602407e-001  1.709991e-002
    outer loop
      vertex  1.983293e+001  7.000000e+000 -4.700000e+000
      vertex  1.992229e+001  6.586813e+000  4.509722e+000
      vertex  2.010051e+001  6.319149e+000  4.647705e+000
    endloop
  endfacet
  facet normal  9.238789e-001  3.826823e-001  1.427089e-003
    outer loop
      vertex  1.983293e+001  7.000000e+000 -4.700000e+000
      vertex  2.010051e+001  6.319149e+000  4.647705e+000
      vertex  2.012583e+001  6.292893e+000 -4.700000e+000
    endloop
  endfacet
  facet normal -9.238790e-001  3.826848e-001  0.000000e+000
    outer loop
      vertex  2.183293e+001  7.000000e+000  4.700000e+000
      vertex  2.183293e+001  7.000000e+000 -4.700000e+000
      vertex  2.154004e+001  6.292893e+000  4.700000e+000
    endloop
  endfacet
  facet normal -9.238790e-001  3.826848e-001  0.000000e+000
    outer loop
      vertex  2.154004e+001  6.292893e+000  4.700000e+000
      vertex  2.183293e+001  7.000000e+000 -4.700000e+000
      vertex  2.154004e+001  6.292893e+000 -4.700000e+000
    endloop
  endfacet
  facet normal -3.826842e-001  9.238793e-001  0.000000e+000
    outer loop
      vertex  2.154004e+001  6.292893e+000  4.700000e+000
      vertex  2.154004e+001  6.292893e+000 -4.700000e+000
      vertex  2.083293e+001  6.000000e+000  4.700000e+000
    endloop
  endfacet
  facet normal -3.826842e-001  9.238793e-001  0.000000e+000
    outer loop
      vertex  2.083293e+001  6.000000e+000  4.700000e+000
      vertex  2.154004e+001  6.292893e+000 -4.700000e+000
      vertex  2.083293e+001  6.000000e+000 -4.700000e+000
    endloop
  endfacet
  facet normal  1.685059e-001  9.857007e-001  -0.000000e+000
    outer loop
      vertex  2.083293e+001  6.000000e+000  4.700000e+000
      vertex  2.083293e+001  6.000000e+000 -4.700000e+000
      vertex  2.050074e+001  6.056789e+000  4.698386e+000
    endloop
  endfacet
  facet normal  3.826712e-001  9.238504e-001  7.943609e-003
    outer loop
      vertex  2.050074e+001  6.056789e+000  4.698386e+000
      vertex  2.083293e+001  6.000000e+000 -4.700000e+000
      vertex  2.012583e+001  6.292893e+000 -4.700000e+000
    endloop
  endfacet
  facet normal  5.483105e-001  8.362744e-001 -8.639963e-004
    outer loop
      vertex  2.050074e+001  6.056789e+000  4.698386e+000
      vertex  2.012583e+001  6.292893e+000 -4.700000e+000
      vertex  2.010051e+001  6.319149e+000  4.647705e+000
    endloop
  endfacet
  facet normal  0.000000e+000  1.000000e+000  -0.000000e+000
    outer loop
      vertex  1.983293e+001  7.000000e+000  3.700000e+000
      vertex  1.983293e+001  7.000000e+000 -4.700000e+000
      vertex  1.349993e+001  7.000000e+000  3.700000e+000
    endloop
  endfacet
  facet normal  0.000000e+000  1.000000e+000  0.000000e+000
    outer loop
      vertex  1.349993e+001  7.000000e+000  3.700000e+000
      vertex  1.983293e+001  7.000000e+000 -4.700000e+000
      vertex  1.349993e+001  7.000000e+000 -4.700000e+000
    endloop
  endfacet
  facet normal  -0.000000e+000  9.721455e-001  2.343780e-001
    outer loop
      vertex  1.983293e+001  7.000000e+000  3.700000e+000
      vertex  1.349993e+001  7.000000e+000  3.700000e+000
      vertex  1.983899e+001  6.890134e+000  4.155699e+000
    endloop
  endfacet
  facet normal  0.000000e+000  9.721455e-001  2.343780e-001
    outer loop
      vertex  1.983899e+001  6.890134e+000  4.155699e+000
      vertex  1.349993e+001  7.000000e+000  3.700000e+000
      vertex  1.349388e+001  6.890134e+000  4.155699e+000
    endloop
  endfacet
  facet normal  -0.000000e+000  7.593921e-001  6.506333e-001
    outer loop
      vertex  1.983899e+001  6.890134e+000  4.155699e+000
      vertex  1.349388e+001  6.890134e+000  4.155699e+000
      vertex  1.992229e+001  6.586813e+000  4.509722e+000
    endloop
  endfacet
  facet normal  0.000000e+000  7.593921e-001  6.506333e-001
    outer loop
      vertex  1.992229e+001  6.586813e+000  4.509722e+000
      vertex  1.349388e+001  6.890134e+000  4.155699e+000
      vertex  1.341058e+001  6.586813e+000  4.509722e+000
    endloop
  endfacet
  facet normal  -0.000000e+000  4.582043e-001  8.888469e-001
    outer loop
      vertex  1.992229e+001  6.586813e+000  4.509722e+000
      vertex  1.341058e+001  6.586813e+000  4.509722e+000
      vertex  2.010051e+001  6.319149e+000  4.647705e+000
    endloop
  endfacet
  facet normal  0.000000e+000  4.582043e-001  8.888469e-001
    outer loop
      vertex  2.010051e+001  6.319149e+000  4.647705e+000
      vertex  1.341058e+001  6.586813e+000  4.509722e+000
      vertex  1.323235e+001  6.319149e+000  4.647705e+000
    endloop
  endfacet
  facet normal  -0.000000e+000  1.896695e-001  9.818480e-001
    outer loop
      vertex  2.010051e+001  6.319149e+000  4.647705e+000
      vertex  1.323235e+001  6.319149e+000  4.647705e+000
      vertex  2.050074e+001  6.056789e+000  4.698386e+000
    endloop
  endfacet
  facet normal  0.000000e+000  1.896695e-001  9.818479e-001
    outer loop
      vertex  2.050074e+001  6.056789e+000  4.698386e+000
      vertex  1.323235e+001  6.319149e+000  4.647705e+000
      vertex  1.283213e+001  6.056789e+000  4.698386e+000
    endloop
  endfacet
  facet normal  -0.000000e+000  2.840283e-002  9.995965e-001
    outer loop
      vertex  2.050074e+001  6.056789e+000  4.698386e+000
      vertex  1.283213e+001  6.056789e+000  4.698386e+000
      vertex  2.083293e+001  6.000000e+000  4.700000e+000
    endloop
  endfacet
  facet normal  0.000000e+000  2.840283e-002  9.995965e-001
    outer loop
      vertex  2.083293e+001  6.000000e+000  4.700000e+000
      vertex  1.283213e+001  6.056789e+000  4.698386e+000
      vertex  1.249993e+001  6.000000e+000  4.700000e+000
    endloop
  endfacet
  facet normal -5.483100e-001  8.362747e-001 -8.639704e-004
    outer loop
      vertex  4.498827e+000  6.056789e+000  4.698386e+000
      vertex  4.899055e+000  6.319149e+000  4.647705e+000
      vertex  4.873740e+000  6.292893e+000 -4.700000e+000
    endloop
  endfacet
  facet normal  9.984854e-001  5.501711e-002  0.000000e+000
    outer loop
      vertex  3.166633e+000  7.000000e+000 -4.700000e+000
      vertex  3.166633e+000  7.000000e+000  3.700000e+000
      vertex  3.172687e+000  6.890134e+000  4.155699e+000
    endloop
  endfacet
  facet normal  9.634960e-001  2.677094e-001  2.662636e-003
    outer loop
      vertex  3.166633e+000  7.000000e+000 -4.700000e+000
      vertex  3.172687e+000  6.890134e+000  4.155699e+000
      vertex  3.255986e+000  6.586813e+000  4.509722e+000
    endloop
  endfacet
  facet normal  8.281527e-001  5.602417e-001  1.709997e-002
    outer loop
      vertex  3.166633e+000  7.000000e+000 -4.700000e+000
      vertex  3.255986e+000  6.586813e+000  4.509722e+000
      vertex  3.434211e+000  6.319149e+000  4.647705e+000
    endloop
  endfacet
  facet normal  9.238784e-001  3.826833e-001  1.427132e-003
    outer loop
      vertex  3.166633e+000  7.000000e+000 -4.700000e+000
      vertex  3.434211e+000  6.319149e+000  4.647705e+000
      vertex  3.459526e+000  6.292893e+000 -4.700000e+000
    endloop
  endfacet
  facet normal -9.984853e-001  5.501927e-002  0.000000e+000
    outer loop
      vertex  5.166633e+000  7.000000e+000  3.700000e+000
      vertex  5.166633e+000  7.000000e+000 -4.700000e+000
      vertex  5.160579e+000  6.890134e+000  4.155699e+000
    endloop
  endfacet
  facet normal -9.238716e-001  3.826805e-001  4.116059e-003
    outer loop
      vertex  5.160579e+000  6.890134e+000  4.155699e+000
      vertex  5.166633e+000  7.000000e+000 -4.700000e+000
      vertex  4.873740e+000  6.292893e+000 -4.700000e+000
    endloop
  endfacet
  facet normal -9.604504e-001  2.781774e-001  1.234869e-002
    outer loop
      vertex  5.160579e+000  6.890134e+000  4.155699e+000
      vertex  4.873740e+000  6.292893e+000 -4.700000e+000
      vertex  5.077280e+000  6.586813e+000  4.509722e+000
    endloop
  endfacet
  facet normal -8.321975e-001  5.544788e-001  6.963214e-004
    outer loop
      vertex  5.077280e+000  6.586813e+000  4.509722e+000
      vertex  4.873740e+000  6.292893e+000 -4.700000e+000
      vertex  4.899055e+000  6.319149e+000  4.647705e+000
    endloop
  endfacet
  facet normal -1.683938e-001  9.855546e-001  1.804150e-002
    outer loop
      vertex  4.498827e+000  6.056789e+000  4.698386e+000
      vertex  4.873740e+000  6.292893e+000 -4.700000e+000
      vertex  4.166633e+000  6.000000e+000  4.700000e+000
    endloop
  endfacet
  facet normal -3.826838e-001  9.238794e-001  0.000000e+000
    outer loop
      vertex  4.166633e+000  6.000000e+000  4.700000e+000
      vertex  4.873740e+000  6.292893e+000 -4.700000e+000
      vertex  4.166633e+000  6.000000e+000 -4.700000e+000
    endloop
  endfacet
  facet normal  1.685063e-001  9.857006e-001  -0.000000e+000
    outer loop
      vertex  4.166633e+000  6.000000e+000  4.700000e+000
      vertex  4.166633e+000  6.000000e+000 -4.700000e+000
      vertex  3.834439e+000  6.056789e+000  4.698386e+000
    endloop
  endfacet
  facet normal  3.826716e-001  9.238503e-001  7.943593e-003
    outer loop
      vertex  3.834439e+000  6.056789e+000  4.698386e+000
      vertex  4.166633e+000  6.000000e+000 -4.700000e+000
      vertex  3.459526e+000  6.292893e+000 -4.700000e+000
    endloop
  endfacet
  facet normal  5.483100e-001  8.362747e-001 -8.639704e-004
    outer loop
      vertex  3.834439e+000  6.056789e+000  4.698386e+000
      vertex  3.459526e+000  6.292893e+000 -4.700000e+000
      vertex  3.434211e+000  6.319149e+000  4.647705e+000
    endloop
  endfacet
  facet normal  0.000000e+000  1.000000e+000  -0.000000e+000
    outer loop
      vertex  1.149993e+001  7.000000e+000  3.700000e+000
      vertex  1.149993e+001  7.000000e+000 -4.700000e+000
      vertex  5.166633e+000  7.000000e+000  3.700000e+000
    endloop
  endfacet
  facet normal  0.000000e+000  1.000000e+000  0.000000e+000
    outer loop
      vertex  5.166633e+000  7.000000e+000  3.700000e+000
      vertex  1.149993e+001  7.000000e+000 -4.700000e+000
      vertex  5.166633e+000  7.000000e+000 -4.700000e+000
    endloop
  endfacet
  facet normal  -0.000000e+000  9.721456e-001  2.343780e-001
    outer loop
      vertex  1.149993e+001  7.000000e+000  3.700000e+000
      vertex  5.166633e+000  7.000000e+000  3.700000e+000
      vertex  1.150599e+001  6.890134e+000  4.155699e+000
    endloop
  endfacet
  facet normal  0.000000e+000  9.721455e-001  2.343780e-001
    outer loop
      vertex  1.150599e+001  6.890134e+000  4.155699e+000
      vertex  5.166633e+000  7.000000e+000  3.700000e+000
      vertex  5.160579e+000  6.890134e+000  4.155699e+000
    endloop
  endfacet
  facet normal  -0.000000e+000  7.593921e-001  6.506332e-001
    outer loop
      vertex  1.150599e+001  6.890134e+000  4.155699e+000
      vertex  5.160579e+000  6.890134e+000  4.155699e+000
      vertex  1.158929e+001  6.586813e+000  4.509722e+000
    endloop
  endfacet
  facet normal  0.000000e+000  7.593921e-001  6.506333e-001
    outer loop
      vertex  1.158929e+001  6.586813e+000  4.509722e+000
      vertex  5.160579e+000  6.890134e+000  4.155699e+000
      vertex  5.077280e+000  6.586813e+000  4.509722e+000
    endloop
  endfacet
  facet normal  -0.000000e+000  4.582043e-001  8.888469e-001
    outer loop
      vertex  1.158929e+001  6.586813e+000  4.509722e+000
      vertex  5.077280e+000  6.586813e+000  4.509722e+000
      vertex  1.176751e+001  6.319149e+000  4.647705e+000
    endloop
  endfacet
  facet normal  0.000000e+000  4.582043e-001  8.888469e-001
    outer loop
      vertex  1.176751e+001  6.319149e+000  4.647705e+000
      vertex  5.077280e+000  6.586813e+000  4.509722e+000
      vertex  4.899055e+000  6.319149e+000  4.647705e+000
    endloop
  endfacet
  facet normal  -0.000000e+000  1.896695e-001  9.818479e-001
    outer loop
      vertex  1.176751e+001  6.319149e+000  4.647705e+000
      vertex  4.899055e+000  6.319149e+000  4.647705e+000
      vertex  1.216774e+001  6.056789e+000  4.698386e+000
    endloop
  endfacet
  facet normal  0.000000e+000  1.896695e-001  9.818479e-001
    outer loop
      vertex  1.216774e+001  6.056789e+000  4.698386e+000
      vertex  4.899055e+000  6.319149e+000  4.647705e+000
      vertex  4.498827e+000  6.056789e+000  4.698386e+000
    endloop
  endfacet
  facet normal  -0.000000e+000  2.840283e-002  9.995965e-001
    outer loop
      vertex  1.216774e+001  6.056789e+000  4.698386e+000
      vertex  4.498827e+000  6.056789e+000  4.698386e+000
      vertex  1.249993e+001  6.000000e+000  4.700000e+000
    endloop
  endfacet
  facet normal  0.000000e+000  2.840283e-002  9.995966e-001
    outer loop
      vertex  1.249993e+001  6.000000e+000  4.700000e+000
      vertex  4.498827e+000  6.056789e+000  4.698386e+000
      vertex  4.166633e+000  6.000000e+000  4.700000e+000
    endloop
  endfacet
  facet normal -5.483102e-001  8.362745e-001 -8.639834e-004
    outer loop
      vertex -3.834472e+000  6.056789e+000  4.698386e+000
      vertex -3.434246e+000  6.319149e+000  4.647705e+000
      vertex -3.459560e+000  6.292893e+000 -4.700000e+000
    endloop
  endfacet
  facet normal  9.984856e-001  5.501495e-002  0.000000e+000
    outer loop
      vertex -5.166667e+000  7.000000e+000 -4.700000e+000
      vertex -5.166667e+000  7.000000e+000  3.700000e+000
      vertex -5.160614e+000  6.890134e+000  4.155699e+000
    endloop
  endfacet
  facet normal  9.634959e-001  2.677102e-001  2.662671e-003
    outer loop
      vertex -5.166667e+000  7.000000e+000 -4.700000e+000
      vertex -5.160614e+000  6.890134e+000  4.155699e+000
      vertex -5.077313e+000  6.586813e+000  4.509722e+000
    endloop
  endfacet
  facet normal  8.281527e-001  5.602417e-001  1.709997e-002
    outer loop
      vertex -5.166667e+000  7.000000e+000 -4.700000e+000
      vertex -5.077313e+000  6.586813e+000  4.509722e+000
      vertex -4.899088e+000  6.319149e+000  4.647705e+000
    endloop
  endfacet
  facet normal  9.238784e-001  3.826833e-001  1.427132e-003
    outer loop
      vertex -5.166667e+000  7.000000e+000 -4.700000e+000
      vertex -4.899088e+000  6.319149e+000  4.647705e+000
      vertex -4.873774e+000  6.292893e+000 -4.700000e+000
    endloop
  endfacet
  facet normal -9.984854e-001  5.501711e-002  0.000000e+000
    outer loop
      vertex -3.166667e+000  7.000000e+000  3.700000e+000
      vertex -3.166667e+000  7.000000e+000 -4.700000e+000
      vertex -3.172721e+000  6.890134e+000  4.155699e+000
    endloop
  endfacet
  facet normal -9.238717e-001  3.826802e-001  4.116081e-003
    outer loop
      vertex -3.172721e+000  6.890134e+000  4.155699e+000
      vertex -3.166667e+000  7.000000e+000 -4.700000e+000
      vertex -3.459560e+000  6.292893e+000 -4.700000e+000
    endloop
  endfacet
  facet normal -9.604502e-001  2.781780e-001  1.234864e-002
    outer loop
      vertex -3.172721e+000  6.890134e+000  4.155699e+000
      vertex -3.459560e+000  6.292893e+000 -4.700000e+000
      vertex -3.256021e+000  6.586813e+000  4.509722e+000
    endloop
  endfacet
  facet normal -8.321975e-001  5.544788e-001  6.963002e-004
    outer loop
      vertex -3.256021e+000  6.586813e+000  4.509722e+000
      vertex -3.459560e+000  6.292893e+000 -4.700000e+000
      vertex -3.434246e+000  6.319149e+000  4.647705e+000
    endloop
  endfacet
  facet normal -1.683937e-001  9.855546e-001  1.804150e-002
    outer loop
      vertex -3.834472e+000  6.056789e+000  4.698386e+000
      vertex -3.459560e+000  6.292893e+000 -4.700000e+000
      vertex -4.166667e+000  6.000000e+000  4.700000e+000
    endloop
  endfacet
  facet normal -3.826836e-001  9.238795e-001  0.000000e+000
    outer loop
      vertex -4.166667e+000  6.000000e+000  4.700000e+000
      vertex -3.459560e+000  6.292893e+000 -4.700000e+000
      vertex -4.166667e+000  6.000000e+000 -4.700000e+000
    endloop
  endfacet
  facet normal  1.685064e-001  9.857006e-001  -0.000000e+000
    outer loop
      vertex -4.166667e+000  6.000000e+000  4.700000e+000
      vertex -4.166667e+000  6.000000e+000 -4.700000e+000
      vertex -4.498861e+000  6.056789e+000  4.698386e+000
    endloop
  endfacet
  facet normal  3.826717e-001  9.238502e-001  7.943586e-003
    outer loop
      vertex -4.498861e+000  6.056789e+000  4.698386e+000
      vertex -4.166667e+000  6.000000e+000 -4.700000e+000
      vertex -4.873774e+000  6.292893e+000 -4.700000e+000
    endloop
  endfacet
  facet normal  5.483100e-001  8.362747e-001 -8.639704e-004
    outer loop
      vertex -4.498861e+000  6.056789e+000  4.698386e+000
      vertex -4.873774e+000  6.292893e+000 -4.700000e+000
      vertex -4.899088e+000  6.319149e+000  4.647705e+000
    endloop
  endfacet
  facet normal  0.000000e+000  1.000000e+000  -0.000000e+000
    outer loop
      vertex  3.166633e+000  7.000000e+000  3.700000e+000
      vertex  3.166633e+000  7.000000e+000 -4.700000e+000
      vertex -3.166667e+000  7.000000e+000  3.700000e+000
    endloop
  endfacet
  facet normal  0.000000e+000  1.000000e+000  0.000000e+000
    outer loop
      vertex -3.166667e+000  7.000000e+000  3.700000e+000
      vertex  3.166633e+000  7.000000e+000 -4.700000e+000
      vertex -3.166667e+000  7.000000e+000 -4.700000e+000
    endloop
  endfacet
  facet normal  -0.000000e+000  9.721455e-001  2.343780e-001
    outer loop
      vertex  3.166633e+000  7.000000e+000  3.700000e+000
      vertex -3.166667e+000  7.000000e+000  3.700000e+000
      vertex  3.172687e+000  6.890134e+000  4.155699e+000
    endloop
  endfacet
  facet normal  0.000000e+000  9.721455e-001  2.343780e-001
    outer loop
      vertex  3.172687e+000  6.890134e+000  4.155699e+000
      vertex -3.166667e+000  7.000000e+000  3.700000e+000
      vertex -3.172721e+000  6.890134e+000  4.155699e+000
    endloop
  endfacet
  facet normal  -0.000000e+000  7.593921e-001  6.506332e-001
    outer loop
      vertex  3.172687e+000  6.890134e+000  4.155699e+000
      vertex -3.172721e+000  6.890134e+000  4.155699e+000
      vertex  3.255986e+000  6.586813e+000  4.509722e+000
    endloop
  endfacet
  facet normal  0.000000e+000  7.593921e-001  6.506332e-001
    outer loop
      vertex  3.255986e+000  6.586813e+000  4.509722e+000
      vertex -3.172721e+000  6.890134e+000  4.155699e+000
      vertex -3.256021e+000  6.586813e+000  4.509722e+000
    endloop
  endfacet
  facet normal  -0.000000e+000  4.582042e-001  8.888469e-001
    outer loop
      vertex  3.255986e+000  6.586813e+000  4.509722e+000
      vertex -3.256021e+000  6.586813e+000  4.509722e+000
      vertex  3.434211e+000  6.319149e+000  4.647705e+000
    endloop
  endfacet
  facet normal  0.000000e+000  4.582043e-001  8.888469e-001
    outer loop
      vertex  3.434211e+000  6.319149e+000  4.647705e+000
      vertex -3.256021e+000  6.586813e+000  4.509722e+000
      vertex -3.434246e+000  6.319149e+000  4.647705e+000
    endloop
  endfacet
  facet normal  -0.000000e+000  1.896695e-001  9.818479e-001
    outer loop
      vertex  3.434211e+000  6.319149e+000  4.647705e+000
      vertex -3.434246e+000  6.319149e+000  4.647705e+000
      vertex  3.834439e+000  6.056789e+000  4.698386e+000
    endloop
  endfacet
  facet normal  0.000000e+000  1.896695e-001  9.818479e-001
    outer loop
      vertex  3.834439e+000  6.056789e+000  4.698386e+000
      vertex -3.434246e+000  6.319149e+000  4.647705e+000
      vertex -3.834472e+000  6.056789e+000  4.698386e+000
    endloop
  endfacet
  facet normal  -0.000000e+000  2.840283e-002  9.995966e-001
    outer loop
      vertex  3.834439e+000  6.056789e+000  4.698386e+000
      vertex -3.834472e+000  6.056789e+000  4.698386e+000
      vertex  4.166633e+000  6.000000e+000  4.700000e+000
    endloop
  endfacet
  facet normal  0.000000e+000  2.840283e-002  9.995966e-001
    outer loop
      vertex  4.166633e+000  6.000000e+000  4.700000e+000
      vertex -3.834472e+000  6.056789e+000  4.698386e+000
      vertex -4.166667e+000  6.000000e+000  4.700000e+000
    endloop
  endfacet
  facet normal -5.483095e-001  8.362750e-001 -8.639445e-004
    outer loop
      vertex -1.216780e+001  6.056789e+000  4.698386e+000
      vertex -1.176758e+001  6.319149e+000  4.647705e+000
      vertex -1.179289e+001  6.292893e+000 -4.700000e+000
    endloop
  endfacet
  facet normal  9.984853e-001  5.501927e-002  0.000000e+000
    outer loop
      vertex -1.350000e+001  7.000000e+000 -4.700000e+000
      vertex -1.350000e+001  7.000000e+000  3.700000e+000
      vertex -1.349394e+001  6.890134e+000  4.155699e+000
    endloop
  endfacet
  facet normal  9.634963e-001  2.677087e-001  2.662600e-003
    outer loop
      vertex -1.350000e+001  7.000000e+000 -4.700000e+000
      vertex -1.349394e+001  6.890134e+000  4.155699e+000
      vertex -1.341064e+001  6.586813e+000  4.509722e+000
    endloop
  endfacet
  facet normal  8.281520e-001  5.602428e-001  1.710002e-002
    outer loop
      vertex -1.350000e+001  7.000000e+000 -4.700000e+000
      vertex -1.341064e+001  6.586813e+000  4.509722e+000
      vertex -1.323242e+001  6.319149e+000  4.647705e+000
    endloop
  endfacet
  facet normal  9.238784e-001  3.826833e-001  1.427085e-003
    outer loop
      vertex -1.350000e+001  7.000000e+000 -4.700000e+000
      vertex -1.323242e+001  6.319149e+000  4.647705e+000
      vertex -1.320710e+001  6.292893e+000 -4.700000e+000
    endloop
  endfacet
  facet normal -9.984853e-001  5.501927e-002  0.000000e+000
    outer loop
      vertex -1.150000e+001  7.000000e+000  3.700000e+000
      vertex -1.150000e+001  7.000000e+000 -4.700000e+000
      vertex -1.150605e+001  6.890134e+000  4.155699e+000
    endloop
  endfacet
  facet normal -9.238716e-001  3.826805e-001  4.116059e-003
    outer loop
      vertex -1.150605e+001  6.890134e+000  4.155699e+000
      vertex -1.150000e+001  7.000000e+000 -4.700000e+000
      vertex -1.179289e+001  6.292893e+000 -4.700000e+000
    endloop
  endfacet
  facet normal -9.604504e-001  2.781774e-001  1.234869e-002
    outer loop
      vertex -1.150605e+001  6.890134e+000  4.155699e+000
      vertex -1.179289e+001  6.292893e+000 -4.700000e+000
      vertex -1.158935e+001  6.586813e+000  4.509722e+000
    endloop
  endfacet
  facet normal -8.321982e-001  5.544778e-001  6.963685e-004
    outer loop
      vertex -1.158935e+001  6.586813e+000  4.509722e+000
      vertex -1.179289e+001  6.292893e+000 -4.700000e+000
      vertex -1.176758e+001  6.319149e+000  4.647705e+000
    endloop
  endfacet
  facet normal -1.683938e-001  9.855546e-001  1.804150e-002
    outer loop
      vertex -1.216780e+001  6.056789e+000  4.698386e+000
      vertex -1.179289e+001  6.292893e+000 -4.700000e+000
      vertex -1.250000e+001  6.000000e+000  4.700000e+000
    endloop
  endfacet
  facet normal -3.826838e-001  9.238794e-001  0.000000e+000
    outer loop
      vertex -1.250000e+001  6.000000e+000  4.700000e+000
      vertex -1.179289e+001  6.292893e+000 -4.700000e+000
      vertex -1.250000e+001  6.000000e+000 -4.700000e+000
    endloop
  endfacet
  facet normal  1.685064e-001  9.857006e-001  -0.000000e+000
    outer loop
      vertex -1.250000e+001  6.000000e+000  4.700000e+000
      vertex -1.250000e+001  6.000000e+000 -4.700000e+000
      vertex -1.283219e+001  6.056789e+000  4.698386e+000
    endloop
  endfacet
  facet normal  3.826717e-001  9.238502e-001  7.943586e-003
    outer loop
      vertex -1.283219e+001  6.056789e+000  4.698386e+000
      vertex -1.250000e+001  6.000000e+000 -4.700000e+000
      vertex -1.320710e+001  6.292893e+000 -4.700000e+000
    endloop
  endfacet
  facet normal  5.483105e-001  8.362744e-001 -8.639963e-004
    outer loop
      vertex -1.283219e+001  6.056789e+000  4.698386e+000
      vertex -1.320710e+001  6.292893e+000 -4.700000e+000
      vertex -1.323242e+001  6.319149e+000  4.647705e+000
    endloop
  endfacet
  facet normal  0.000000e+000  1.000000e+000  -0.000000e+000
    outer loop
      vertex -5.166667e+000  7.000000e+000  3.700000e+000
      vertex -5.166667e+000  7.000000e+000 -4.700000e+000
      vertex -1.150000e+001  7.000000e+000  3.700000e+000
    endloop
  endfacet
  facet normal  0.000000e+000  1.000000e+000  0.000000e+000
    outer loop
      vertex -1.150000e+001  7.000000e+000  3.700000e+000
      vertex -5.166667e+000  7.000000e+000 -4.700000e+000
      vertex -1.150000e+001  7.000000e+000 -4.700000e+000
    endloop
  endfacet
  facet normal  -0.000000e+000  9.721455e-001  2.343780e-001
    outer loop
      vertex -5.166667e+000  7.000000e+000  3.700000e+000
      vertex -1.150000e+001  7.000000e+000  3.700000e+000
      vertex -5.160614e+000  6.890134e+000  4.155699e+000
    endloop
  endfacet
  facet normal  0.000000e+000  9.721456e-001  2.343780e-001
    outer loop
      vertex -5.160614e+000  6.890134e+000  4.155699e+000
      vertex -1.150000e+001  7.000000e+000  3.700000e+000
      vertex -1.150605e+001  6.890134e+000  4.155699e+000
    endloop
  endfacet
  facet normal  -0.000000e+000  7.593921e-001  6.506333e-001
    outer loop
      vertex -5.160614e+000  6.890134e+000  4.155699e+000
      vertex -1.150605e+001  6.890134e+000  4.155699e+000
      vertex -5.077313e+000  6.586813e+000  4.509722e+000
    endloop
  endfacet
  facet normal  0.000000e+000  7.593921e-001  6.506333e-001
    outer loop
      vertex -5.077313e+000  6.586813e+000  4.509722e+000
      vertex -1.150605e+001  6.890134e+000  4.155699e+000
      vertex -1.158935e+001  6.586813e+000  4.509722e+000
    endloop
  endfacet
  facet normal  -0.000000e+000  4.582043e-001  8.888469e-001
    outer loop
      vertex -5.077313e+000  6.586813e+000  4.509722e+000
      vertex -1.158935e+001  6.586813e+000  4.509722e+000
      vertex -4.899088e+000  6.319149e+000  4.647705e+000
    endloop
  endfacet
  facet normal  0.000000e+000  4.582042e-001  8.888469e-001
    outer loop
      vertex -4.899088e+000  6.319149e+000  4.647705e+000
      vertex -1.158935e+001  6.586813e+000  4.509722e+000
      vertex -1.176758e+001  6.319149e+000  4.647705e+000
    endloop
  endfacet
  facet normal  -0.000000e+000  1.896695e-001  9.818479e-001
    outer loop
      vertex -4.899088e+000  6.319149e+000  4.647705e+000
      vertex -1.176758e+001  6.319149e+000  4.647705e+000
      vertex -4.498861e+000  6.056789e+000  4.698386e+000
    endloop
  endfacet
  facet normal  0.000000e+000  1.896695e-001  9.818480e-001
    outer loop
      vertex -4.498861e+000  6.056789e+000  4.698386e+000
      vertex -1.176758e+001  6.319149e+000  4.647705e+000
      vertex -1.216780e+001  6.056789e+000  4.698386e+000
    endloop
  endfacet
  facet normal  -0.000000e+000  2.840283e-002  9.995965e-001
    outer loop
      vertex -4.498861e+000  6.056789e+000  4.698386e+000
      vertex -1.216780e+001  6.056789e+000  4.698386e+000
      vertex -4.166667e+000  6.000000e+000  4.700000e+000
    endloop
  endfacet
  facet normal  0.000000e+000  2.840283e-002  9.995965e-001
    outer loop
      vertex -4.166667e+000  6.000000e+000  4.700000e+000
      vertex -1.216780e+001  6.056789e+000  4.698386e+000
      vertex -1.250000e+001  6.000000e+000  4.700000e+000
    endloop
  endfacet
  facet normal -9.984853e-001  5.501927e-002  0.000000e+000
    outer loop
      vertex -1.983333e+001  7.000000e+000  3.700000e+000
      vertex -1.983333e+001  7.000000e+000 -4.700000e+000
      vertex -1.983938e+001  6.890134e+000  4.155699e+000
    endloop
  endfacet
  facet normal -9.238721e-001  3.826795e-001  4.116046e-003
    outer loop
      vertex -1.983938e+001  6.890134e+000  4.155699e+000
      vertex -1.983333e+001  7.000000e+000 -4.700000e+000
      vertex -2.012622e+001  6.292893e+000 -4.700000e+000
    endloop
  endfacet
  facet normal -9.604504e-001  2.781773e-001  1.234859e-002
    outer loop
      vertex -1.983938e+001  6.890134e+000  4.155699e+000
      vertex -2.012622e+001  6.292893e+000 -4.700000e+000
      vertex -1.992268e+001  6.586813e+000  4.509722e+000
    endloop
  endfacet
  facet normal -8.321982e-001  5.544778e-001  6.962837e-004
    outer loop
      vertex -1.992268e+001  6.586813e+000  4.509722e+000
      vertex -2.012622e+001  6.292893e+000 -4.700000e+000
      vertex -2.010091e+001  6.319149e+000  4.647705e+000
    endloop
  endfacet
  facet normal  9.238799e-001  3.826827e-001  0.000000e+000
    outer loop
      vertex -2.183333e+001  7.000000e+000 -4.700000e+000
      vertex -2.183333e+001  7.000000e+000  4.700000e+000
      vertex -2.154044e+001  6.292893e+000 -4.700000e+000
    endloop
  endfacet
  facet normal  9.238799e-001  3.826827e-001  -0.000000e+000
    outer loop
      vertex -2.154044e+001  6.292893e+000 -4.700000e+000
      vertex -2.183333e+001  7.000000e+000  4.700000e+000
      vertex -2.154044e+001  6.292893e+000  4.700000e+000
    endloop
  endfacet
  facet normal  3.826833e-001  9.238795e-001  0.000000e+000
    outer loop
      vertex -2.154044e+001  6.292893e+000 -4.700000e+000
      vertex -2.154044e+001  6.292893e+000  4.700000e+000
      vertex -2.083333e+001  6.000000e+000 -4.700000e+000
    endloop
  endfacet
  facet normal  3.826833e-001  9.238795e-001  -0.000000e+000
    outer loop
      vertex -2.083333e+001  6.000000e+000 -4.700000e+000
      vertex -2.154044e+001  6.292893e+000  4.700000e+000
      vertex -2.083333e+001  6.000000e+000  4.700000e+000
    endloop
  endfacet
  facet normal -3.826833e-001  9.238795e-001  0.000000e+000
    outer loop
      vertex -2.083333e+001  6.000000e+000 -4.700000e+000
      vertex -2.083333e+001  6.000000e+000  4.700000e+000
      vertex -2.012622e+001  6.292893e+000 -4.700000e+000
    endloop
  endfacet
  facet normal -1.683934e-001  9.855548e-001  1.804152e-002
    outer loop
      vertex -2.012622e+001  6.292893e+000 -4.700000e+000
      vertex -2.083333e+001  6.000000e+000  4.700000e+000
      vertex -2.050113e+001  6.056789e+000  4.698386e+000
    endloop
  endfacet
  facet normal -5.483105e-001  8.362744e-001 -8.639962e-004
    outer loop
      vertex -2.012622e+001  6.292893e+000 -4.700000e+000
      vertex -2.050113e+001  6.056789e+000  4.698386e+000
      vertex -2.010091e+001  6.319149e+000  4.647705e+000
    endloop
  endfacet
  facet normal  0.000000e+000  1.000000e+000  -0.000000e+000
    outer loop
      vertex -1.350000e+001  7.000000e+000  3.700000e+000
      vertex -1.350000e+001  7.000000e+000 -4.700000e+000
      vertex -1.983333e+001  7.000000e+000  3.700000e+000
    endloop
  endfacet
  facet normal  0.000000e+000  1.000000e+000  0.000000e+000
    outer loop
      vertex -1.983333e+001  7.000000e+000  3.700000e+000
      vertex -1.350000e+001  7.000000e+000 -4.700000e+000
      vertex -1.983333e+001  7.000000e+000 -4.700000e+000
    endloop
  endfacet
  facet normal  2.588190e-001  9.659259e-001  0.000000e+000
    outer loop
      vertex  2.200000e+001  7.000000e+000 -4.700000e+000
      vertex  2.200000e+001  7.000000e+000  4.700000e+000
      vertex  2.350000e+001  6.598076e+000 -4.700000e+000
    endloop
  endfacet
  facet normal  2.588190e-001  9.659259e-001  -0.000000e+000
    outer loop
      vertex  2.350000e+001  6.598076e+000 -4.700000e+000
      vertex  2.200000e+001  7.000000e+000  4.700000e+000
      vertex  2.350000e+001  6.598076e+000  4.700000e+000
    endloop
  endfacet
  facet normal  7.071069e-001  7.071066e-001  0.000000e+000
    outer loop
      vertex  2.350000e+001  6.598076e+000 -4.700000e+000
      vertex  2.350000e+001  6.598076e+000  4.700000e+000
      vertex  2.459808e+001  5.500000e+000 -4.700000e+000
    endloop
  endfacet
  facet normal  7.071069e-001  7.071066e-001  -0.000000e+000
    outer loop
      vertex  2.459808e+001  5.500000e+000 -4.700000e+000
      vertex  2.350000e+001  6.598076e+000  4.700000e+000
      vertex  2.459808e+001  5.500000e+000  4.700000e+000
    endloop
  endfacet
  facet normal  9.659258e-001  2.588193e-001  0.000000e+000
    outer loop
      vertex  2.459808e+001  5.500000e+000 -4.700000e+000
      vertex  2.459808e+001  5.500000e+000  4.700000e+000
      vertex  2.500000e+001  4.000000e+000 -4.700000e+000
    endloop
  endfacet
  facet normal  9.659258e-001  2.588193e-001  -0.000000e+000
    outer loop
      vertex  2.500000e+001  4.000000e+000 -4.700000e+000
      vertex  2.459808e+001  5.500000e+000  4.700000e+000
      vertex  2.500000e+001  4.000000e+000  4.700000e+000
    endloop
  endfacet
  facet normal -9.659258e-001  2.588193e-001  0.000000e+000
    outer loop
      vertex -2.500000e+001  4.000000e+000 -4.700000e+000
      vertex -2.500000e+001  4.000000e+000  4.700000e+000
      vertex -2.459808e+001  5.500000e+000 -4.700000e+000
    endloop
  endfacet
  facet normal -9.659258e-001  2.588193e-001  0.000000e+000
    outer loop
      vertex -2.459808e+001  5.500000e+000 -4.700000e+000
      vertex -2.500000e+001  4.000000e+000  4.700000e+000
      vertex -2.459808e+001  5.500000e+000  4.700000e+000
    endloop
  endfacet
  facet normal -7.071069e-001  7.071066e-001  0.000000e+000
    outer loop
      vertex -2.459808e+001  5.500000e+000 -4.700000e+000
      vertex -2.459808e+001  5.500000e+000  4.700000e+000
      vertex -2.350000e+001  6.598076e+000 -4.700000e+000
    endloop
  endfacet
  facet normal -7.071069e-001  7.071066e-001  0.000000e+000
    outer loop
      vertex -2.350000e+001  6.598076e+000 -4.700000e+000
      vertex -2.459808e+001  5.500000e+000  4.700000e+000
      vertex -2.350000e+001  6.598076e+000  4.700000e+000
    endloop
  endfacet
  facet normal -2.588190e-001  9.659259e-001  0.000000e+000
    outer loop
      vertex -2.350000e+001  6.598076e+000 -4.700000e+000
      vertex -2.350000e+001  6.598076e+000  4.700000e+000
      vertex -2.200000e+001  7.000000e+000 -4.700000e+000
    endloop
  endfacet
  facet normal -2.588190e-001  9.659259e-001  0.000000e+000
    outer loop
      vertex -2.200000e+001  7.000000e+000 -4.700000e+000
      vertex -2.350000e+001  6.598076e+000  4.700000e+000
      vertex -2.200000e+001  7.000000e+000  4.700000e+000
    endloop
  endfacet
  facet normal  -0.000000e+000  9.721456e-001  2.343780e-001
    outer loop
      vertex -1.350000e+001  7.000000e+000  3.700000e+000
      vertex -1.983333e+001  7.000000e+000  3.700000e+000
      vertex -1.349394e+001  6.890134e+000  4.155699e+000
    endloop
  endfacet
  facet normal  0.000000e+000  9.721456e-001  2.343780e-001
    outer loop
      vertex -1.349394e+001  6.890134e+000  4.155699e+000
      vertex -1.983333e+001  7.000000e+000  3.700000e+000
      vertex -1.983938e+001  6.890134e+000  4.155699e+000
    endloop
  endfacet
  facet normal  -0.000000e+000  7.593921e-001  6.506333e-001
    outer loop
      vertex -1.349394e+001  6.890134e+000  4.155699e+000
      vertex -1.983938e+001  6.890134e+000  4.155699e+000
      vertex -1.341064e+001  6.586813e+000  4.509722e+000
    endloop
  endfacet
  facet normal  0.000000e+000  7.593921e-001  6.506333e-001
    outer loop
      vertex -1.341064e+001  6.586813e+000  4.509722e+000
      vertex -1.983938e+001  6.890134e+000  4.155699e+000
      vertex -1.992268e+001  6.586813e+000  4.509722e+000
    endloop
  endfacet
  facet normal  -0.000000e+000  4.582043e-001  8.888470e-001
    outer loop
      vertex -1.341064e+001  6.586813e+000  4.509722e+000
      vertex -1.992268e+001  6.586813e+000  4.509722e+000
      vertex -1.323242e+001  6.319149e+000  4.647705e+000
    endloop
  endfacet
  facet normal  0.000000e+000  4.582043e-001  8.888469e-001
    outer loop
      vertex -1.323242e+001  6.319149e+000  4.647705e+000
      vertex -1.992268e+001  6.586813e+000  4.509722e+000
      vertex -2.010091e+001  6.319149e+000  4.647705e+000
    endloop
  endfacet
  facet normal  -0.000000e+000  1.896695e-001  9.818480e-001
    outer loop
      vertex -1.323242e+001  6.319149e+000  4.647705e+000
      vertex -2.010091e+001  6.319149e+000  4.647705e+000
      vertex -1.283219e+001  6.056789e+000  4.698386e+000
    endloop
  endfacet
  facet normal  0.000000e+000  1.896695e-001  9.818480e-001
    outer loop
      vertex -1.283219e+001  6.056789e+000  4.698386e+000
      vertex -2.010091e+001  6.319149e+000  4.647705e+000
      vertex -2.050113e+001  6.056789e+000  4.698386e+000
    endloop
  endfacet
  facet normal  -0.000000e+000  2.840283e-002  9.995966e-001
    outer loop
      vertex -1.283219e+001  6.056789e+000  4.698386e+000
      vertex -2.050113e+001  6.056789e+000  4.698386e+000
      vertex -1.250000e+001  6.000000e+000  4.700000e+000
    endloop
  endfacet
  facet normal  0.000000e+000  2.840283e-002  9.995966e-001
    outer loop
      vertex -1.250000e+001  6.000000e+000  4.700000e+000
      vertex -2.050113e+001  6.056789e+000  4.698386e+000
      vertex -2.083333e+001  6.000000e+000  4.700000e+000
    endloop
  endfacet
  facet normal  0.000000e+000  -0.000000e+000 -1.000000e+000
    outer loop
      vertex -2.459808e+001  5.500000e+000 -4.700000e+000
      vertex -2.350000e+001  6.598076e+000 -4.700000e+000
      vertex -2.154044e+001  6.292893e+000 -4.700000e+000
    endloop
  endfacet
  facet normal  0.000000e+000  -0.000000e+000 -1.000000e+000
    outer loop
      vertex -2.459808e+001  5.500000e+000 -4.700000e+000
      vertex -2.154044e+001  6.292893e+000 -4.700000e+000
      vertex -2.083333e+001  6.000000e+000 -4.700000e+000
    endloop
  endfacet
  facet normal  0.000000e+000  -0.000000e+000 -1.000000e+000
    outer loop
      vertex -2.459808e+001  5.500000e+000 -4.700000e+000
      vertex -2.083333e+001  6.000000e+000 -4.700000e+000
      vertex -1.250000e+001  6.000000e+000 -4.700000e+000
    endloop
  endfacet
  facet normal  0.000000e+000  -0.000000e+000 -1.000000e+000
    outer loop
      vertex -2.459808e+001  5.500000e+000 -4.700000e+000
      vertex -1.250000e+001  6.000000e+000 -4.700000e+000
      vertex -4.166667e+000  6.000000e+000 -4.700000e+000
    endloop
  endfacet
  facet normal  0.000000e+000  -0.000000e+000 -9.999999e-001
    outer loop
      vertex -2.459808e+001  5.500000e+000 -4.700000e+000
      vertex -4.166667e+000  6.000000e+000 -4.700000e+000
      vertex  4.166633e+000  6.000000e+000 -4.700000e+000
    endloop
  endfacet
  facet normal  0.000000e+000  -0.000000e+000 -9.999999e-001
    outer loop
      vertex -2.459808e+001  5.500000e+000 -4.700000e+000
      vertex  4.166633e+000  6.000000e+000 -4.700000e+000
      vertex  1.249993e+001  6.000000e+000 -4.700000e+000
    endloop
  endfacet
  facet normal  0.000000e+000  -0.000000e+000 -1.000000e+000
    outer loop
      vertex -2.459808e+001  5.500000e+000 -4.700000e+000
      vertex  1.249993e+001  6.000000e+000 -4.700000e+000
      vertex  2.083293e+001  6.000000e+000 -4.700000e+000
    endloop
  endfacet
  facet normal  0.000000e+000  -0.000000e+000 -1.000000e+000
    outer loop
      vertex -2.459808e+001  5.500000e+000 -4.700000e+000
      vertex  2.083293e+001  6.000000e+000 -4.700000e+000
      vertex  2.459808e+001  5.500000e+000 -4.700000e+000
    endloop
  endfacet
  facet normal  -0.000000e+000  -0.000000e+000 -1.000000e+000
    outer loop
      vertex -2.459808e+001  5.500000e+000 -4.700000e+000
      vertex  2.459808e+001  5.500000e+000 -4.700000e+000
      vertex  2.500000e+001  4.000000e+000 -4.700000e+000
    endloop
  endfacet
  facet normal  0.000000e+000  0.000000e+000 -1.000000e+000
    outer loop
      vertex -2.459808e+001  5.500000e+000 -4.700000e+000
      vertex  2.500000e+001  4.000000e+000 -4.700000e+000
      vertex -2.500000e+001  4.000000e+000 -4.700000e+000
    endloop
  endfacet
  facet normal  -0.000000e+000  0.000000e+000 -1.000000e+000
    outer loop
      vertex -1.150000e+001  7.000000e+000 -4.700000e+000
      vertex -5.166667e+000  7.000000e+000 -4.700000e+000
      vertex -1.179289e+001  6.292893e+000 -4.700000e+000
    endloop
  endfacet
  facet normal  0.000000e+000  0.000000e+000 -1.000000e+000
    outer loop
      vertex -1.179289e+001  6.292893e+000 -4.700000e+000
      vertex -5.166667e+000  7.000000e+000 -4.700000e+000
      vertex -4.873774e+000  6.292893e+000 -4.700000e+000
    endloop
  endfacet
  facet normal  -0.000000e+000  0.000000e+000 -1.000000e+000
    outer loop
      vertex -1.179289e+001  6.292893e+000 -4.700000e+000
      vertex -4.873774e+000  6.292893e+000 -4.700000e+000
      vertex -1.250000e+001  6.000000e+000 -4.700000e+000
    endloop
  endfacet
  facet normal  0.000000e+000  0.000000e+000 -1.000000e+000
    outer loop
      vertex -1.250000e+001  6.000000e+000 -4.700000e+000
      vertex -4.873774e+000  6.292893e+000 -4.700000e+000
      vertex -4.166667e+000  6.000000e+000 -4.700000e+000
    endloop
  endfacet
  facet normal  -0.000000e+000  0.000000e+000 -1.000000e+000
    outer loop
      vertex  2.183293e+001  7.000000e+000 -4.700000e+000
      vertex  2.200000e+001  7.000000e+000 -4.700000e+000
      vertex  2.154004e+001  6.292893e+000 -4.700000e+000
    endloop
  endfacet
  facet normal  0.000000e+000  0.000000e+000 -1.000000e+000
    outer loop
      vertex  2.154004e+001  6.292893e+000 -4.700000e+000
      vertex  2.200000e+001  7.000000e+000 -4.700000e+000
      vertex  2.350000e+001  6.598076e+000 -4.700000e+000
    endloop
  endfacet
  facet normal  0.000000e+000  0.000000e+000 -1.000000e+000
    outer loop
      vertex  2.154004e+001  6.292893e+000 -4.700000e+000
      vertex  2.350000e+001  6.598076e+000 -4.700000e+000
      vertex  2.083293e+001  6.000000e+000 -4.700000e+000
    endloop
  endfacet
  facet normal  0.000000e+000  0.000000e+000 -1.000000e+000
    outer loop
      vertex  2.083293e+001  6.000000e+000 -4.700000e+000
      vertex  2.350000e+001  6.598076e+000 -4.700000e+000
      vertex  2.459808e+001  5.500000e+000 -4.700000e+000
    endloop
  endfacet
  facet normal  -0.000000e+000  0.000000e+000 -1.000000e+000
    outer loop
      vertex -3.166667e+000  7.000000e+000 -4.700000e+000
      vertex  3.166633e+000  7.000000e+000 -4.700000e+000
      vertex -3.459560e+000  6.292893e+000 -4.700000e+000
    endloop
  endfacet
  facet normal  0.000000e+000  0.000000e+000 -9.999999e-001
    outer loop
      vertex -3.459560e+000  6.292893e+000 -4.700000e+000
      vertex  3.166633e+000  7.000000e+000 -4.700000e+000
      vertex  3.459526e+000  6.292893e+000 -4.700000e+000
    endloop
  endfacet
  facet normal  -0.000000e+000  0.000000e+000 -1.000000e+000
    outer loop
      vertex -3.459560e+000  6.292893e+000 -4.700000e+000
      vertex  3.459526e+000  6.292893e+000 -4.700000e+000
      vertex -4.166667e+000  6.000000e+000 -4.700000e+000
    endloop
  endfacet
  facet normal  0.000000e+000  0.000000e+000 -1.000000e+000
    outer loop
      vertex -4.166667e+000  6.000000e+000 -4.700000e+000
      vertex  3.459526e+000  6.292893e+000 -4.700000e+000
      vertex  4.166633e+000  6.000000e+000 -4.700000e+000
    endloop
  endfacet
  facet normal  -0.000000e+000  0.000000e+000 -1.000000e+000
    outer loop
      vertex  1.349993e+001  7.000000e+000 -4.700000e+000
      vertex  1.983293e+001  7.000000e+000 -4.700000e+000
      vertex  1.320704e+001  6.292893e+000 -4.700000e+000
    endloop
  endfacet
  facet normal  0.000000e+000  0.000000e+000 -1.000000e+000
    outer loop
      vertex  1.320704e+001  6.292893e+000 -4.700000e+000
      vertex  1.983293e+001  7.000000e+000 -4.700000e+000
      vertex  2.012583e+001  6.292893e+000 -4.700000e+000
    endloop
  endfacet
  facet normal  -0.000000e+000  0.000000e+000 -1.000000e+000
    outer loop
      vertex  1.320704e+001  6.292893e+000 -4.700000e+000
      vertex  2.012583e+001  6.292893e+000 -4.700000e+000
      vertex  1.249993e+001  6.000000e+000 -4.700000e+000
    endloop
  endfacet
  facet normal  0.000000e+000  0.000000e+000 -1.000000e+000
    outer loop
      vertex  1.249993e+001  6.000000e+000 -4.700000e+000
      vertex  2.012583e+001  6.292893e+000 -4.700000e+000
      vertex  2.083293e+001  6.000000e+000 -4.700000e+000
    endloop
  endfacet
  facet normal  -0.000000e+000  0.000000e+000 -1.000000e+000
    outer loop
      vertex  5.166633e+000  7.000000e+000 -4.700000e+000
      vertex  1.149993e+001  7.000000e+000 -4.700000e+000
      vertex  4.873740e+000  6.292893e+000 -4.700000e+000
    endloop
  endfacet
  facet normal  0.000000e+000  0.000000e+000 -1.000000e+000
    outer loop
      vertex  4.873740e+000  6.292893e+000 -4.700000e+000
      vertex  1.149993e+001  7.000000e+000 -4.700000e+000
      vertex  1.179283e+001  6.292893e+000 -4.700000e+000
    endloop
  endfacet
  facet normal  -0.000000e+000  0.000000e+000 -1.000000e+000
    outer loop
      vertex  4.873740e+000  6.292893e+000 -4.700000e+000
      vertex  1.179283e+001  6.292893e+000 -4.700000e+000
      vertex  4.166633e+000  6.000000e+000 -4.700000e+000
    endloop
  endfacet
  facet normal  0.000000e+000  0.000000e+000 -1.000000e+000
    outer loop
      vertex  4.166633e+000  6.000000e+000 -4.700000e+000
      vertex  1.179283e+001  6.292893e+000 -4.700000e+000
      vertex  1.249993e+001  6.000000e+000 -4.700000e+000
    endloop
  endfacet
  facet normal  -0.000000e+000  0.000000e+000 -1.000000e+000
    outer loop
      vertex -1.983333e+001  7.000000e+000 -4.700000e+000
      vertex -1.350000e+001  7.000000e+000 -4.700000e+000
      vertex -2.012622e+001  6.292893e+000 -4.700000e+000
    endloop
  endfacet
  facet normal  0.000000e+000  0.000000e+000 -1.000000e+000
    outer loop
      vertex -2.012622e+001  6.292893e+000 -4.700000e+000
      vertex -1.350000e+001  7.000000e+000 -4.700000e+000
      vertex -1.320710e+001  6.292893e+000 -4.700000e+000
    endloop
  endfacet
  facet normal  -0.000000e+000  0.000000e+000 -1.000000e+000
    outer loop
      vertex -2.012622e+001  6.292893e+000 -4.700000e+000
      vertex -1.320710e+001  6.292893e+000 -4.700000e+000
      vertex -2.083333e+001  6.000000e+000 -4.700000e+000
    endloop
  endfacet
  facet normal  0.000000e+000  0.000000e+000 -1.000000e+000
    outer loop
      vertex -2.083333e+001  6.000000e+000 -4.700000e+000
      vertex -1.320710e+001  6.292893e+000 -4.700000e+000
      vertex -1.250000e+001  6.000000e+000 -4.700000e+000
    endloop
  endfacet
  facet normal  0.000000e+000  0.000000e+000 -1.000000e+000
    outer loop
      vertex  2.500000e+001  0.000000e+000 -4.700000e+000
      vertex -2.500000e+001  0.000000e+000 -4.700000e+000
      vertex  2.500000e+001  4.000000e+000 -4.700000e+000
    endloop
  endfacet
  facet normal  -0.000000e+000  0.000000e+000 -1.000000e+000
    outer loop
      vertex  2.500000e+001  4.000000e+000 -4.700000e+000
      vertex -2.500000e+001  0.000000e+000 -4.700000e+000
      vertex -2.500000e+001  4.000000e+000 -4.700000e+000
    endloop
  endfacet
  facet normal  0.000000e+000  0.000000e+000 -1.000000e+000
    outer loop
      vertex -2.154044e+001  6.292893e+000 -4.700000e+000
      vertex -2.350000e+001  6.598076e+000 -4.700000e+000
      vertex -2.183333e+001  7.000000e+000 -4.700000e+000
    endloop
  endfacet
  facet normal  -0.000000e+000  0.000000e+000 -1.000000e+000
    outer loop
      vertex -2.183333e+001  7.000000e+000 -4.700000e+000
      vertex -2.350000e+001  6.598076e+000 -4.700000e+000
      vertex -2.200000e+001  7.000000e+000 -4.700000e+000
    endloop
  endfacet
  facet normal  0.000000e+000  1.000000e+000  -0.000000e+000
    outer loop
      vertex  2.200000e+001  7.000000e+000  4.700000e+000
      vertex  2.200000e+001  7.000000e+000 -4.700000e+000
      vertex  2.183293e+001  7.000000e+000  4.700000e+000
    endloop
  endfacet
  facet normal  0.000000e+000  1.000000e+000  0.000000e+000
    outer loop
      vertex  2.183293e+001  7.000000e+000  4.700000e+000
      vertex  2.200000e+001  7.000000e+000 -4.700000e+000
      vertex  2.183293e+001  7.000000e+000 -4.700000e+000
    endloop
  endfacet
  facet normal  1.000000e+000  0.000000e+000  0.000000e+000
    outer loop
      vertex  2.500000e+001  0.000000e+000 -4.700000e+000
      vertex  2.500000e+001  4.000000e+000 -4.700000e+000
      vertex  2.500000e+001  0.000000e+000  4.700000e+000
    endloop
  endfacet
  facet normal  1.000000e+000  -0.000000e+000  0.000000e+000
    outer loop
      vertex  2.500000e+001  0.000000e+000  4.700000e+000
      vertex  2.500000e+001  4.000000e+000 -4.700000e+000
      vertex  2.500000e+001  4.000000e+000  4.700000e+000
    endloop
  endfacet
  facet normal  0.000000e+000  1.000000e+000  -0.000000e+000
    outer loop
      vertex -2.183333e+001  7.000000e+000  4.700000e+000
      vertex -2.183333e+001  7.000000e+000 -4.700000e+000
      vertex -2.200000e+001  7.000000e+000  4.700000e+000
    endloop
  endfacet
  facet normal  0.000000e+000  1.000000e+000  0.000000e+000
    outer loop
      vertex -2.200000e+001  7.000000e+000  4.700000e+000
      vertex -2.183333e+001  7.000000e+000 -4.700000e+000
      vertex -2.200000e+001  7.000000e+000 -4.700000e+000
    endloop
  endfacet
  facet normal -1.000000e+000  0.000000e+000  0.000000e+000
    outer loop
      vertex -2.500000e+001  4.000000e+000 -4.700000e+000
      vertex -2.500000e+001  0.000000e+000 -4.700000e+000
      vertex -2.500000e+001  4.000000e+000  4.700000e+000
    endloop
  endfacet
  facet normal -1.000000e+000  -0.000000e+000  0.000000e+000
    outer loop
      vertex -2.500000e+001  4.000000e+000  4.700000e+000
      vertex -2.500000e+001  0.000000e+000 -4.700000e+000
      vertex -2.500000e+001  0.000000e+000  4.700000e+000
    endloop
  endfacet
  facet normal  0.000000e+000 -1.000000e+000  0.000000e+000
    outer loop
      vertex -2.500000e+001  0.000000e+000  4.700000e+000
      vertex -2.500000e+001  0.000000e+000 -4.700000e+000
      vertex  2.500000e+001  0.000000e+000  4.700000e+000
    endloop
  endfacet
  facet normal  0.000000e+000 -1.000000e+000  -0.000000e+000
    outer loop
      vertex  2.500000e+001  0.000000e+000  4.700000e+000
      vertex -2.500000e+001  0.000000e+000 -4.700000e+000
      vertex  2.500000e+001  0.000000e+000 -4.700000e+000
    endloop
  endfacet
endsolid CATIA STL
