solid CATIA STL
  facet normal  9.510566e-001  -0.000000e+000  3.090171e-001
    outer loop
      vertex -3.200000e+000  4.400000e+002  3.200000e+000
      vertex -3.200000e+000  3.100000e+002  3.200000e+000
      vertex -2.588854e+000  4.400000e+002  1.319087e+000
    endloop
  endfacet
  facet normal  9.510566e-001  0.000000e+000  3.090171e-001
    outer loop
      vertex -2.588854e+000  4.400000e+002  1.319087e+000
      vertex -3.200000e+000  3.100000e+002  3.200000e+000
      vertex -2.588854e+000  3.100000e+002  1.319087e+000
    endloop
  endfacet
  facet normal  5.877853e-001  -0.000000e+000  8.090171e-001
    outer loop
      vertex -2.588854e+000  4.400000e+002  1.319087e+000
      vertex -2.588854e+000  3.100000e+002  1.319087e+000
      vertex -9.888544e-001  4.400000e+002  1.566191e-001
    endloop
  endfacet
  facet normal  5.877853e-001  0.000000e+000  8.090171e-001
    outer loop
      vertex -9.888544e-001  4.400000e+002  1.566191e-001
      vertex -2.588854e+000  3.100000e+002  1.319087e+000
      vertex -9.888544e-001  3.100000e+002  1.566191e-001
    endloop
  endfacet
  facet normal  0.000000e+000  0.000000e+000  1.000000e+000
    outer loop
      vertex -9.888544e-001  4.400000e+002  1.566191e-001
      vertex -9.888544e-001  3.100000e+002  1.566191e-001
      vertex  9.888544e-001  4.400000e+002  1.566191e-001
    endloop
  endfacet
  facet normal  0.000000e+000  0.000000e+000  1.000000e+000
    outer loop
      vertex  9.888544e-001  4.400000e+002  1.566191e-001
      vertex -9.888544e-001  3.100000e+002  1.566191e-001
      vertex  9.888544e-001  3.100000e+002  1.566191e-001
    endloop
  endfacet
  facet normal -5.877853e-001  0.000000e+000  8.090171e-001
    outer loop
      vertex  9.888544e-001  4.400000e+002  1.566191e-001
      vertex  9.888544e-001  3.100000e+002  1.566191e-001
      vertex  2.588854e+000  4.400000e+002  1.319087e+000
    endloop
  endfacet
  facet normal -5.877853e-001  0.000000e+000  8.090171e-001
    outer loop
      vertex  2.588854e+000  4.400000e+002  1.319087e+000
      vertex  9.888544e-001  3.100000e+002  1.566191e-001
      vertex  2.588854e+000  3.100000e+002  1.319087e+000
    endloop
  endfacet
  facet normal -9.510566e-001  0.000000e+000  3.090171e-001
    outer loop
      vertex  2.588854e+000  4.400000e+002  1.319087e+000
      vertex  2.588854e+000  3.100000e+002  1.319087e+000
      vertex  3.200000e+000  4.400000e+002  3.200000e+000
    endloop
  endfacet
  facet normal -9.510566e-001  0.000000e+000  3.090171e-001
    outer loop
      vertex  3.200000e+000  4.400000e+002  3.200000e+000
      vertex  2.588854e+000  3.100000e+002  1.319087e+000
      vertex  3.200000e+000  3.100000e+002  3.200000e+000
    endloop
  endfacet
  facet normal -9.510565e-001  0.000000e+000 -3.090171e-001
    outer loop
      vertex  3.200000e+000  4.400000e+002  3.200000e+000
      vertex  3.200000e+000  3.100000e+002  3.200000e+000
      vertex  2.588854e+000  4.400000e+002  5.080913e+000
    endloop
  endfacet
  facet normal -9.510565e-001  -0.000000e+000 -3.090171e-001
    outer loop
      vertex  2.588854e+000  4.400000e+002  5.080913e+000
      vertex  3.200000e+000  3.100000e+002  3.200000e+000
      vertex  2.588854e+000  3.100000e+002  5.080913e+000
    endloop
  endfacet
  facet normal -5.877854e-001  0.000000e+000 -8.090169e-001
    outer loop
      vertex  2.588854e+000  4.400000e+002  5.080913e+000
      vertex  2.588854e+000  3.100000e+002  5.080913e+000
      vertex  9.888544e-001  4.400000e+002  6.243381e+000
    endloop
  endfacet
  facet normal -5.877854e-001  -0.000000e+000 -8.090169e-001
    outer loop
      vertex  9.888544e-001  4.400000e+002  6.243381e+000
      vertex  2.588854e+000  3.100000e+002  5.080913e+000
      vertex  9.888544e-001  3.100000e+002  6.243381e+000
    endloop
  endfacet
  facet normal  0.000000e+000  0.000000e+000 -1.000000e+000
    outer loop
      vertex  9.888544e-001  4.400000e+002  6.243381e+000
      vertex  9.888544e-001  3.100000e+002  6.243381e+000
      vertex -9.888544e-001  4.400000e+002  6.243381e+000
    endloop
  endfacet
  facet normal  0.000000e+000  0.000000e+000 -1.000000e+000
    outer loop
      vertex -9.888544e-001  4.400000e+002  6.243381e+000
      vertex  9.888544e-001  3.100000e+002  6.243381e+000
      vertex -9.888544e-001  3.100000e+002  6.243381e+000
    endloop
  endfacet
  facet normal  5.877854e-001  0.000000e+000 -8.090169e-001
    outer loop
      vertex -9.888544e-001  4.400000e+002  6.243381e+000
      vertex -9.888544e-001  3.100000e+002  6.243381e+000
      vertex -2.588854e+000  4.400000e+002  5.080913e+000
    endloop
  endfacet
  facet normal  5.877854e-001  0.000000e+000 -8.090169e-001
    outer loop
      vertex -2.588854e+000  4.400000e+002  5.080913e+000
      vertex -9.888544e-001  3.100000e+002  6.243381e+000
      vertex -2.588854e+000  3.100000e+002  5.080913e+000
    endloop
  endfacet
  facet normal  9.510565e-001  0.000000e+000 -3.090171e-001
    outer loop
      vertex -2.588854e+000  4.400000e+002  5.080913e+000
      vertex -2.588854e+000  3.100000e+002  5.080913e+000
      vertex -3.200000e+000  4.400000e+002  3.200000e+000
    endloop
  endfacet
  facet normal  9.510565e-001  0.000000e+000 -3.090171e-001
    outer loop
      vertex -3.200000e+000  4.400000e+002  3.200000e+000
      vertex -2.588854e+000  3.100000e+002  5.080913e+000
      vertex -3.200000e+000  3.100000e+002  3.200000e+000
    endloop
  endfacet
  facet normal  7.066584e-001  2.518341e-002 -7.071066e-001
    outer loop
      vertex  3.143241e+001  3.200000e+002 -3.000000e+000
      vertex  2.943114e+001  3.200000e+002 -5.000000e+000
      vertex  2.751230e+001  4.300000e+002 -3.000000e+000
    endloop
  endfacet
  facet normal  7.066580e-001  2.518341e-002 -7.071069e-001
    outer loop
      vertex  2.751230e+001  4.300000e+002 -3.000000e+000
      vertex  2.943114e+001  3.200000e+002 -5.000000e+000
      vertex  2.551103e+001  4.300000e+002 -5.000000e+000
    endloop
  endfacet
  facet normal  0.000000e+000  0.000000e+000 -1.000000e+000
    outer loop
      vertex  2.943114e+001  3.200000e+002 -5.000000e+000
      vertex -2.549872e+001  4.300000e+002 -5.000000e+000
      vertex -1.000000e+001  4.300000e+002 -5.000000e+000
    endloop
  endfacet
  facet normal  0.000000e+000  0.000000e+000 -1.000000e+000
    outer loop
      vertex  2.943114e+001  3.200000e+002 -5.000000e+000
      vertex -1.000000e+001  4.300000e+002 -5.000000e+000
      vertex  1.000000e+001  4.300000e+002 -5.000000e+000
    endloop
  endfacet
  facet normal  0.000000e+000  0.000000e+000 -1.000000e+000
    outer loop
      vertex  2.943114e+001  3.200000e+002 -5.000000e+000
      vertex  1.000000e+001  4.300000e+002 -5.000000e+000
      vertex  2.551103e+001  4.300000e+002 -5.000000e+000
    endloop
  endfacet
  facet normal  0.000000e+000  0.000000e+000 -1.000000e+000
    outer loop
      vertex -2.549872e+001  4.300000e+002 -5.000000e+000
      vertex  2.943114e+001  3.200000e+002 -5.000000e+000
      vertex  2.000000e+001  3.200000e+002 -5.000000e+000
    endloop
  endfacet
  facet normal  0.000000e+000  0.000000e+000 -1.000000e+000
    outer loop
      vertex -2.549872e+001  4.300000e+002 -5.000000e+000
      vertex  2.000000e+001  3.200000e+002 -5.000000e+000
      vertex -2.000000e+001  3.200000e+002 -5.000000e+000
    endloop
  endfacet
  facet normal  0.000000e+000  0.000000e+000 -1.000000e+000
    outer loop
      vertex -2.549872e+001  4.300000e+002 -5.000000e+000
      vertex -2.000000e+001  3.200000e+002 -5.000000e+000
      vertex -2.942730e+001  3.200000e+002 -5.000000e+000
    endloop
  endfacet
  facet normal  -0.000000e+000  0.000000e+000 -1.000000e+000
    outer loop
      vertex -2.000000e+001  3.200000e+002 -5.000000e+000
      vertex  2.000000e+001  3.200000e+002 -5.000000e+000
      vertex -2.000000e+001  3.100000e+002 -5.000000e+000
    endloop
  endfacet
  facet normal  0.000000e+000  0.000000e+000 -1.000000e+000
    outer loop
      vertex -2.000000e+001  3.100000e+002 -5.000000e+000
      vertex  2.000000e+001  3.200000e+002 -5.000000e+000
      vertex  2.000000e+001  3.100000e+002 -5.000000e+000
    endloop
  endfacet
  facet normal  -0.000000e+000  0.000000e+000 -1.000000e+000
    outer loop
      vertex -1.000000e+001  4.400000e+002 -5.000000e+000
      vertex  1.000000e+001  4.400000e+002 -5.000000e+000
      vertex -1.000000e+001  4.300000e+002 -5.000000e+000
    endloop
  endfacet
  facet normal  0.000000e+000  0.000000e+000 -1.000000e+000
    outer loop
      vertex -1.000000e+001  4.300000e+002 -5.000000e+000
      vertex  1.000000e+001  4.400000e+002 -5.000000e+000
      vertex  1.000000e+001  4.300000e+002 -5.000000e+000
    endloop
  endfacet
  facet normal  3.826831e-001  0.000000e+000 -9.238796e-001
    outer loop
      vertex  1.000000e+001  4.300000e+002  1.175000e+001
      vertex  8.762563e+000  4.400000e+002  1.123744e+001
      vertex  1.000000e+001  4.400000e+002  1.175000e+001
    endloop
  endfacet
  facet normal -9.238796e-001  0.000000e+000 -3.826831e-001
    outer loop
      vertex  1.175000e+001  4.300000e+002  1.000000e+001
      vertex  1.175000e+001  3.100000e+002  1.000000e+001
      vertex  1.123744e+001  4.300000e+002  1.123744e+001
    endloop
  endfacet
  facet normal -9.238796e-001  -0.000000e+000 -3.826831e-001
    outer loop
      vertex  1.123744e+001  4.300000e+002  1.123744e+001
      vertex  1.175000e+001  3.100000e+002  1.000000e+001
      vertex  1.123744e+001  3.100000e+002  1.123744e+001
    endloop
  endfacet
  facet normal -3.826831e-001  0.000000e+000 -9.238796e-001
    outer loop
      vertex  1.123744e+001  4.300000e+002  1.123744e+001
      vertex  1.123744e+001  3.100000e+002  1.123744e+001
      vertex  1.000000e+001  4.300000e+002  1.175000e+001
    endloop
  endfacet
  facet normal -3.826831e-001  -0.000000e+000 -9.238796e-001
    outer loop
      vertex  1.000000e+001  4.300000e+002  1.175000e+001
      vertex  1.123744e+001  3.100000e+002  1.123744e+001
      vertex  1.000000e+001  3.100000e+002  1.175000e+001
    endloop
  endfacet
  facet normal  3.826831e-001  0.000000e+000 -9.238796e-001
    outer loop
      vertex  1.000000e+001  4.300000e+002  1.175000e+001
      vertex  1.000000e+001  3.100000e+002  1.175000e+001
      vertex  8.762563e+000  4.400000e+002  1.123744e+001
    endloop
  endfacet
  facet normal  3.826831e-001  0.000000e+000 -9.238796e-001
    outer loop
      vertex  8.762563e+000  4.400000e+002  1.123744e+001
      vertex  1.000000e+001  3.100000e+002  1.175000e+001
      vertex  8.762563e+000  3.100000e+002  1.123744e+001
    endloop
  endfacet
  facet normal  9.238796e-001  0.000000e+000 -3.826831e-001
    outer loop
      vertex  8.762563e+000  4.400000e+002  1.123744e+001
      vertex  8.762563e+000  3.100000e+002  1.123744e+001
      vertex  8.250000e+000  4.400000e+002  1.000000e+001
    endloop
  endfacet
  facet normal  9.238796e-001  0.000000e+000 -3.826831e-001
    outer loop
      vertex  8.250000e+000  4.400000e+002  1.000000e+001
      vertex  8.762563e+000  3.100000e+002  1.123744e+001
      vertex  8.250000e+000  3.100000e+002  1.000000e+001
    endloop
  endfacet
  facet normal  9.238796e-001  -0.000000e+000  3.826831e-001
    outer loop
      vertex  8.250000e+000  4.400000e+002  1.000000e+001
      vertex  8.250000e+000  3.100000e+002  1.000000e+001
      vertex  8.762563e+000  4.400000e+002  8.762563e+000
    endloop
  endfacet
  facet normal  9.238796e-001  0.000000e+000  3.826831e-001
    outer loop
      vertex  8.762563e+000  4.400000e+002  8.762563e+000
      vertex  8.250000e+000  3.100000e+002  1.000000e+001
      vertex  8.762563e+000  3.100000e+002  8.762563e+000
    endloop
  endfacet
  facet normal  3.826831e-001  -0.000000e+000  9.238796e-001
    outer loop
      vertex  8.762563e+000  4.400000e+002  8.762563e+000
      vertex  8.762563e+000  3.100000e+002  8.762563e+000
      vertex  1.000000e+001  4.400000e+002  8.250000e+000
    endloop
  endfacet
  facet normal  3.826831e-001  0.000000e+000  9.238796e-001
    outer loop
      vertex  1.000000e+001  4.400000e+002  8.250000e+000
      vertex  8.762563e+000  3.100000e+002  8.762563e+000
      vertex  1.000000e+001  4.300000e+002  8.250000e+000
    endloop
  endfacet
  facet normal -9.238796e-001  0.000000e+000  3.826831e-001
    outer loop
      vertex  1.175000e+001  3.100000e+002  1.000000e+001
      vertex  1.175000e+001  4.300000e+002  1.000000e+001
      vertex  1.123744e+001  3.100000e+002  8.762563e+000
    endloop
  endfacet
  facet normal -9.238796e-001  0.000000e+000  3.826831e-001
    outer loop
      vertex  1.123744e+001  3.100000e+002  8.762563e+000
      vertex  1.175000e+001  4.300000e+002  1.000000e+001
      vertex  1.123744e+001  4.300000e+002  8.762563e+000
    endloop
  endfacet
  facet normal -3.826831e-001  0.000000e+000  9.238796e-001
    outer loop
      vertex  1.123744e+001  3.100000e+002  8.762563e+000
      vertex  1.123744e+001  4.300000e+002  8.762563e+000
      vertex  1.000000e+001  3.100000e+002  8.250000e+000
    endloop
  endfacet
  facet normal -3.826831e-001  0.000000e+000  9.238796e-001
    outer loop
      vertex  1.000000e+001  3.100000e+002  8.250000e+000
      vertex  1.123744e+001  4.300000e+002  8.762563e+000
      vertex  1.000000e+001  4.300000e+002  8.250000e+000
    endloop
  endfacet
  facet normal  3.826831e-001  0.000000e+000  9.238796e-001
    outer loop
      vertex  1.000000e+001  3.100000e+002  8.250000e+000
      vertex  1.000000e+001  4.300000e+002  8.250000e+000
      vertex  8.762563e+000  3.100000e+002  8.762563e+000
    endloop
  endfacet
  facet normal -9.238796e-001  0.000000e+000 -3.826831e-001
    outer loop
      vertex -8.250000e+000  4.400000e+002  1.000000e+001
      vertex -8.250000e+000  3.100000e+002  1.000000e+001
      vertex -8.762563e+000  4.400000e+002  1.123744e+001
    endloop
  endfacet
  facet normal -9.238796e-001  -0.000000e+000 -3.826831e-001
    outer loop
      vertex -8.762563e+000  4.400000e+002  1.123744e+001
      vertex -8.250000e+000  3.100000e+002  1.000000e+001
      vertex -8.762563e+000  3.100000e+002  1.123744e+001
    endloop
  endfacet
  facet normal -3.826831e-001  0.000000e+000 -9.238796e-001
    outer loop
      vertex -8.762563e+000  4.400000e+002  1.123744e+001
      vertex -8.762563e+000  3.100000e+002  1.123744e+001
      vertex -1.000000e+001  4.400000e+002  1.175000e+001
    endloop
  endfacet
  facet normal -3.826831e-001  -0.000000e+000 -9.238796e-001
    outer loop
      vertex -1.000000e+001  4.400000e+002  1.175000e+001
      vertex -8.762563e+000  3.100000e+002  1.123744e+001
      vertex -1.000000e+001  4.300000e+002  1.175000e+001
    endloop
  endfacet
  facet normal  9.238796e-001  0.000000e+000 -3.826831e-001
    outer loop
      vertex -1.175000e+001  3.100000e+002  1.000000e+001
      vertex -1.175000e+001  4.300000e+002  1.000000e+001
      vertex -1.123744e+001  3.100000e+002  1.123744e+001
    endloop
  endfacet
  facet normal  9.238796e-001  0.000000e+000 -3.826831e-001
    outer loop
      vertex -1.123744e+001  3.100000e+002  1.123744e+001
      vertex -1.175000e+001  4.300000e+002  1.000000e+001
      vertex -1.123744e+001  4.300000e+002  1.123744e+001
    endloop
  endfacet
  facet normal  3.826831e-001  0.000000e+000 -9.238796e-001
    outer loop
      vertex -1.123744e+001  3.100000e+002  1.123744e+001
      vertex -1.123744e+001  4.300000e+002  1.123744e+001
      vertex -1.000000e+001  3.100000e+002  1.175000e+001
    endloop
  endfacet
  facet normal  3.826831e-001  0.000000e+000 -9.238796e-001
    outer loop
      vertex -1.000000e+001  3.100000e+002  1.175000e+001
      vertex -1.123744e+001  4.300000e+002  1.123744e+001
      vertex -1.000000e+001  4.300000e+002  1.175000e+001
    endloop
  endfacet
  facet normal -3.826831e-001  -0.000000e+000 -9.238796e-001
    outer loop
      vertex -1.000000e+001  3.100000e+002  1.175000e+001
      vertex -1.000000e+001  4.300000e+002  1.175000e+001
      vertex -8.762563e+000  3.100000e+002  1.123744e+001
    endloop
  endfacet
  facet normal -3.826831e-001  0.000000e+000  9.238796e-001
    outer loop
      vertex -1.000000e+001  4.300000e+002  8.250000e+000
      vertex -8.762563e+000  4.400000e+002  8.762563e+000
      vertex -1.000000e+001  4.400000e+002  8.250000e+000
    endloop
  endfacet
  facet normal  9.238796e-001  -0.000000e+000  3.826831e-001
    outer loop
      vertex -1.175000e+001  4.300000e+002  1.000000e+001
      vertex -1.175000e+001  3.100000e+002  1.000000e+001
      vertex -1.123744e+001  4.300000e+002  8.762563e+000
    endloop
  endfacet
  facet normal  9.238796e-001  0.000000e+000  3.826831e-001
    outer loop
      vertex -1.123744e+001  4.300000e+002  8.762563e+000
      vertex -1.175000e+001  3.100000e+002  1.000000e+001
      vertex -1.123744e+001  3.100000e+002  8.762563e+000
    endloop
  endfacet
  facet normal  3.826831e-001  -0.000000e+000  9.238796e-001
    outer loop
      vertex -1.123744e+001  4.300000e+002  8.762563e+000
      vertex -1.123744e+001  3.100000e+002  8.762563e+000
      vertex -1.000000e+001  4.300000e+002  8.250000e+000
    endloop
  endfacet
  facet normal  3.826831e-001  0.000000e+000  9.238796e-001
    outer loop
      vertex -1.000000e+001  4.300000e+002  8.250000e+000
      vertex -1.123744e+001  3.100000e+002  8.762563e+000
      vertex -1.000000e+001  3.100000e+002  8.250000e+000
    endloop
  endfacet
  facet normal -3.826831e-001  0.000000e+000  9.238796e-001
    outer loop
      vertex -1.000000e+001  4.300000e+002  8.250000e+000
      vertex -1.000000e+001  3.100000e+002  8.250000e+000
      vertex -8.762563e+000  4.400000e+002  8.762563e+000
    endloop
  endfacet
  facet normal -3.826831e-001  0.000000e+000  9.238796e-001
    outer loop
      vertex -8.762563e+000  4.400000e+002  8.762563e+000
      vertex -1.000000e+001  3.100000e+002  8.250000e+000
      vertex -8.762563e+000  3.100000e+002  8.762563e+000
    endloop
  endfacet
  facet normal -9.238796e-001  0.000000e+000  3.826831e-001
    outer loop
      vertex -8.762563e+000  4.400000e+002  8.762563e+000
      vertex -8.762563e+000  3.100000e+002  8.762563e+000
      vertex -8.250000e+000  4.400000e+002  1.000000e+001
    endloop
  endfacet
  facet normal -9.238796e-001  0.000000e+000  3.826831e-001
    outer loop
      vertex -8.250000e+000  4.400000e+002  1.000000e+001
      vertex -8.762563e+000  3.100000e+002  8.762563e+000
      vertex -8.250000e+000  3.100000e+002  1.000000e+001
    endloop
  endfacet
  facet normal  0.000000e+000  0.000000e+000  1.000000e+000
    outer loop
      vertex  3.142857e+001  3.200000e+002 -3.000000e+000
      vertex  3.143241e+001  3.200000e+002 -3.000000e+000
      vertex  2.751230e+001  4.300000e+002 -3.000000e+000
    endloop
  endfacet
  facet normal  0.000000e+000  0.000000e+000  1.000000e+000
    outer loop
      vertex  3.142857e+001  3.200000e+002 -3.000000e+000
      vertex  2.751230e+001  4.300000e+002 -3.000000e+000
      vertex  2.750000e+001  4.300000e+002 -3.000000e+000
    endloop
  endfacet
  facet normal -9.993629e-001  3.569153e-002  0.000000e+000
    outer loop
      vertex -2.750000e+001  4.300000e+002  3.000000e+000
      vertex -2.750000e+001  4.300000e+002 -3.000000e+000
      vertex -3.142857e+001  3.200000e+002  3.000000e+000
    endloop
  endfacet
  facet normal -9.993629e-001  3.569153e-002  0.000000e+000
    outer loop
      vertex -3.142857e+001  3.200000e+002  3.000000e+000
      vertex -2.750000e+001  4.300000e+002 -3.000000e+000
      vertex -3.142857e+001  3.200000e+002 -3.000000e+000
    endloop
  endfacet
  facet normal  0.000000e+000  -0.000000e+000  9.999999e-001
    outer loop
      vertex -3.142857e+001  3.200000e+002  3.000000e+000
      vertex -3.128506e+001  3.200000e+002  3.000000e+000
      vertex -2.750000e+001  4.300000e+002  3.000000e+000
    endloop
  endfacet
  facet normal  -0.000000e+000  0.000000e+000  1.000000e+000
    outer loop
      vertex -2.750000e+001  4.300000e+002  3.000000e+000
      vertex -3.128506e+001  3.200000e+002  3.000000e+000
      vertex -2.733587e+001  4.300000e+002  3.000000e+000
    endloop
  endfacet
  facet normal  0.000000e+000  0.000000e+000  9.999999e-001
    outer loop
      vertex  3.128506e+001  3.200000e+002  3.000000e+000
      vertex  3.142857e+001  3.200000e+002  3.000000e+000
      vertex  2.733587e+001  4.300000e+002  3.000000e+000
    endloop
  endfacet
  facet normal  -0.000000e+000  0.000000e+000  1.000000e+000
    outer loop
      vertex  2.733587e+001  4.300000e+002  3.000000e+000
      vertex  3.142857e+001  3.200000e+002  3.000000e+000
      vertex  2.750000e+001  4.300000e+002  3.000000e+000
    endloop
  endfacet
  facet normal  9.756330e-001  3.639603e-002  2.163688e-001
    outer loop
      vertex  2.733587e+001  4.300000e+002  3.000000e+000
      vertex  2.604126e+001  4.300000e+002  8.837583e+000
      vertex  3.009860e+001  3.200000e+002  9.045942e+000
    endloop
  endfacet
  facet normal  9.806754e-001  3.520792e-002  1.924482e-001
    outer loop
      vertex  2.733587e+001  4.300000e+002  3.000000e+000
      vertex  3.009860e+001  3.200000e+002  9.045942e+000
      vertex  3.128506e+001  3.200000e+002  3.000000e+000
    endloop
  endfacet
  facet normal -9.806754e-001  3.520792e-002  1.924482e-001
    outer loop
      vertex -2.733587e+001  4.300000e+002  3.000000e+000
      vertex -3.128506e+001  3.200000e+002  3.000000e+000
      vertex -3.009860e+001  3.200000e+002  9.045942e+000
    endloop
  endfacet
  facet normal -9.756330e-001  3.639603e-002  2.163688e-001
    outer loop
      vertex -2.733587e+001  4.300000e+002  3.000000e+000
      vertex -3.009860e+001  3.200000e+002  9.045942e+000
      vertex -2.604126e+001  4.300000e+002  8.837583e+000
    endloop
  endfacet
  facet normal  9.242979e-001  3.481264e-002  3.800810e-001
    outer loop
      vertex  2.604126e+001  4.300000e+002  8.837583e+000
      vertex  2.775541e+001  3.200000e+002  1.474423e+001
      vertex  3.009860e+001  3.200000e+002  9.045942e+000
    endloop
  endfacet
  facet normal  8.323926e-001  3.453256e-002  5.531095e-001
    outer loop
      vertex  2.351548e+001  4.300000e+002  1.425735e+001
      vertex  2.434552e+001  3.200000e+002  1.987588e+001
      vertex  2.775541e+001  3.200000e+002  1.474423e+001
    endloop
  endfacet
  facet normal  9.057908e-001  3.678191e-002  4.221258e-001
    outer loop
      vertex  2.351548e+001  4.300000e+002  1.425735e+001
      vertex  2.775541e+001  3.200000e+002  1.474423e+001
      vertex  2.604126e+001  4.300000e+002  8.837583e+000
    endloop
  endfacet
  facet normal  7.931316e-001  3.703605e-002  6.079231e-001
    outer loop
      vertex  2.351548e+001  4.300000e+002  1.425735e+001
      vertex  1.987796e+001  4.300000e+002  1.900307e+001
      vertex  2.434552e+001  3.200000e+002  1.987588e+001
    endloop
  endfacet
  facet normal  1.931019e-001  3.454255e-002  9.805705e-001
    outer loop
      vertex  5.090316e+000  4.400000e+002  2.666127e+001
      vertex  3.085345e+000  3.100000e+002  3.163562e+001
      vertex  9.139755e+000  3.100000e+002  3.044333e+001
    endloop
  endfacet
  facet normal  -0.000000e+000  3.453907e-002  9.994034e-001
    outer loop
      vertex -8.881784e-015  4.400000e+002  2.714286e+001
      vertex -3.085345e+000  3.100000e+002  3.163562e+001
      vertex  3.085345e+000  3.100000e+002  3.163562e+001
    endloop
  endfacet
  facet normal  9.412426e-002  3.661688e-002  9.948869e-001
    outer loop
      vertex -8.881784e-015  4.400000e+002  2.714286e+001
      vertex  3.085345e+000  3.100000e+002  3.163562e+001
      vertex  5.090316e+000  4.400000e+002  2.666127e+001
    endloop
  endfacet
  facet normal -1.931019e-001  3.454255e-002  9.805705e-001
    outer loop
      vertex -9.139755e+000  3.100000e+002  3.044333e+001
      vertex -3.085345e+000  3.100000e+002  3.163562e+001
      vertex -5.090316e+000  4.400000e+002  2.666127e+001
    endloop
  endfacet
  facet normal -9.412426e-002  3.661688e-002  9.948869e-001
    outer loop
      vertex -5.090316e+000  4.400000e+002  2.666127e+001
      vertex -3.085345e+000  3.100000e+002  3.163562e+001
      vertex -8.881784e-015  4.400000e+002  2.714286e+001
    endloop
  endfacet
  facet normal -7.931316e-001  3.703605e-002  6.079231e-001
    outer loop
      vertex -1.987796e+001  4.300000e+002  1.900307e+001
      vertex -2.351548e+001  4.300000e+002  1.425735e+001
      vertex -2.434552e+001  3.200000e+002  1.987588e+001
    endloop
  endfacet
  facet normal -9.057908e-001  3.678191e-002  4.221258e-001
    outer loop
      vertex -2.351548e+001  4.300000e+002  1.425735e+001
      vertex -2.604126e+001  4.300000e+002  8.837583e+000
      vertex -2.775541e+001  3.200000e+002  1.474423e+001
    endloop
  endfacet
  facet normal -8.323926e-001  3.453256e-002  5.531095e-001
    outer loop
      vertex -2.775541e+001  3.200000e+002  1.474423e+001
      vertex -2.434552e+001  3.200000e+002  1.987588e+001
      vertex -2.351548e+001  4.300000e+002  1.425735e+001
    endloop
  endfacet
  facet normal -9.242979e-001  3.481264e-002  3.800810e-001
    outer loop
      vertex -3.009860e+001  3.200000e+002  9.045942e+000
      vertex -2.775541e+001  3.200000e+002  1.474423e+001
      vertex -2.604126e+001  4.300000e+002  8.837583e+000
    endloop
  endfacet
  facet normal -4.624374e-001  3.704386e-002  8.858778e-001
    outer loop
      vertex -1.000000e+001  4.300000e+002  2.561738e+001
      vertex -1.530067e+001  4.300000e+002  2.285037e+001
      vertex -1.484971e+001  3.100000e+002  2.810370e+001
    endloop
  endfacet
  facet normal -3.789273e-001  3.447498e-002  9.247841e-001
    outer loop
      vertex -1.000000e+001  4.300000e+002  2.561738e+001
      vertex -1.484971e+001  3.100000e+002  2.810370e+001
      vertex -9.139755e+000  3.100000e+002  3.044333e+001
    endloop
  endfacet
  facet normal -2.785975e-001  3.659882e-002  9.597103e-001
    outer loop
      vertex -1.000000e+001  4.300000e+002  2.561738e+001
      vertex -9.139755e+000  3.100000e+002  3.044333e+001
      vertex -5.090316e+000  4.400000e+002  2.666127e+001
    endloop
  endfacet
  facet normal -2.790315e-001  3.682600e-002  9.595755e-001
    outer loop
      vertex -1.000000e+001  4.300000e+002  2.561738e+001
      vertex -5.090316e+000  4.400000e+002  2.666127e+001
      vertex -1.000000e+001  4.400000e+002  2.523360e+001
    endloop
  endfacet
  facet normal  2.790315e-001  3.682600e-002  9.595755e-001
    outer loop
      vertex  1.000000e+001  4.300000e+002  2.561738e+001
      vertex  1.000000e+001  4.400000e+002  2.523360e+001
      vertex  5.090316e+000  4.400000e+002  2.666127e+001
    endloop
  endfacet
  facet normal  2.785975e-001  3.659882e-002  9.597103e-001
    outer loop
      vertex  1.000000e+001  4.300000e+002  2.561738e+001
      vertex  5.090316e+000  4.400000e+002  2.666127e+001
      vertex  9.139755e+000  3.100000e+002  3.044333e+001
    endloop
  endfacet
  facet normal  3.789273e-001  3.447498e-002  9.247841e-001
    outer loop
      vertex  1.000000e+001  4.300000e+002  2.561738e+001
      vertex  9.139755e+000  3.100000e+002  3.044333e+001
      vertex  1.484971e+001  3.100000e+002  2.810370e+001
    endloop
  endfacet
  facet normal  4.624374e-001  3.704386e-002  8.858778e-001
    outer loop
      vertex  1.000000e+001  4.300000e+002  2.561738e+001
      vertex  1.484971e+001  3.100000e+002  2.810370e+001
      vertex  1.530067e+001  4.300000e+002  2.285037e+001
    endloop
  endfacet
  facet normal  7.084920e-001  3.436781e-002  7.048814e-001
    outer loop
      vertex  2.000000e+001  3.200000e+002  2.424366e+001
      vertex  2.434552e+001  3.200000e+002  1.987588e+001
      vertex  1.987796e+001  4.300000e+002  1.900307e+001
    endloop
  endfacet
  facet normal  6.429808e-001  3.715836e-002  7.649804e-001
    outer loop
      vertex  2.000000e+001  3.200000e+002  2.424366e+001
      vertex  1.987796e+001  4.300000e+002  1.900307e+001
      vertex  1.530067e+001  4.300000e+002  2.285037e+001
    endloop
  endfacet
  facet normal  5.559235e-001  3.426939e-002  8.305267e-001
    outer loop
      vertex  2.000000e+001  3.200000e+002  2.424366e+001
      vertex  1.530067e+001  4.300000e+002  2.285037e+001
      vertex  1.484971e+001  3.100000e+002  2.810370e+001
    endloop
  endfacet
  facet normal  5.503908e-001  3.846747e-002  8.340204e-001
    outer loop
      vertex  2.000000e+001  3.200000e+002  2.424366e+001
      vertex  1.484971e+001  3.100000e+002  2.810370e+001
      vertex  2.000000e+001  3.100000e+002  2.470489e+001
    endloop
  endfacet
  facet normal -5.503908e-001  3.846747e-002  8.340204e-001
    outer loop
      vertex -2.000000e+001  3.200000e+002  2.424366e+001
      vertex -2.000000e+001  3.100000e+002  2.470489e+001
      vertex -1.484971e+001  3.100000e+002  2.810370e+001
    endloop
  endfacet
  facet normal -5.559235e-001  3.426939e-002  8.305267e-001
    outer loop
      vertex -2.000000e+001  3.200000e+002  2.424366e+001
      vertex -1.484971e+001  3.100000e+002  2.810370e+001
      vertex -1.530067e+001  4.300000e+002  2.285037e+001
    endloop
  endfacet
  facet normal -6.429808e-001  3.715836e-002  7.649804e-001
    outer loop
      vertex -2.000000e+001  3.200000e+002  2.424366e+001
      vertex -1.530067e+001  4.300000e+002  2.285037e+001
      vertex -1.987796e+001  4.300000e+002  1.900307e+001
    endloop
  endfacet
  facet normal -7.084920e-001  3.436781e-002  7.048814e-001
    outer loop
      vertex -2.000000e+001  3.200000e+002  2.424366e+001
      vertex -1.987796e+001  4.300000e+002  1.900307e+001
      vertex -2.434552e+001  3.200000e+002  1.987588e+001
    endloop
  endfacet
  facet normal  9.993629e-001  3.569153e-002  0.000000e+000
    outer loop
      vertex  2.750000e+001  4.300000e+002 -3.000000e+000
      vertex  2.750000e+001  4.300000e+002  3.000000e+000
      vertex  3.142857e+001  3.200000e+002 -3.000000e+000
    endloop
  endfacet
  facet normal  9.993629e-001  3.569153e-002  -0.000000e+000
    outer loop
      vertex  3.142857e+001  3.200000e+002 -3.000000e+000
      vertex  2.750000e+001  4.300000e+002  3.000000e+000
      vertex  3.142857e+001  3.200000e+002  3.000000e+000
    endloop
  endfacet
  facet normal -7.066561e-001  2.523772e-002 -7.071069e-001
    outer loop
      vertex -2.750000e+001  4.300000e+002 -3.000000e+000
      vertex -2.549872e+001  4.300000e+002 -5.000000e+000
      vertex -3.142857e+001  3.200000e+002 -3.000000e+000
    endloop
  endfacet
  facet normal -7.066561e-001  2.523772e-002 -7.071069e-001
    outer loop
      vertex -3.142857e+001  3.200000e+002 -3.000000e+000
      vertex -2.549872e+001  4.300000e+002 -5.000000e+000
      vertex -2.942730e+001  3.200000e+002 -5.000000e+000
    endloop
  endfacet
  facet normal  -0.000000e+000  1.000000e+000  0.000000e+000
    outer loop
      vertex  1.000000e+001  4.400000e+002 -5.000000e+000
      vertex  9.888544e-001  4.400000e+002  1.566191e-001
      vertex  2.588854e+000  4.400000e+002  1.319087e+000
    endloop
  endfacet
  facet normal  0.000000e+000  1.000000e+000  0.000000e+000
    outer loop
      vertex -1.000000e+001  4.400000e+002 -5.000000e+000
      vertex -1.000000e+001  4.400000e+002  8.250000e+000
      vertex -2.588854e+000  4.400000e+002  1.319087e+000
    endloop
  endfacet
  facet normal  0.000000e+000  1.000000e+000  0.000000e+000
    outer loop
      vertex -1.000000e+001  4.400000e+002 -5.000000e+000
      vertex -2.588854e+000  4.400000e+002  1.319087e+000
      vertex -9.888544e-001  4.400000e+002  1.566191e-001
    endloop
  endfacet
  facet normal  -0.000000e+000  1.000000e+000  0.000000e+000
    outer loop
      vertex -1.000000e+001  4.400000e+002 -5.000000e+000
      vertex -9.888544e-001  4.400000e+002  1.566191e-001
      vertex  9.888544e-001  4.400000e+002  1.566191e-001
    endloop
  endfacet
  facet normal  0.000000e+000  9.999999e-001  0.000000e+000
    outer loop
      vertex -1.000000e+001  4.400000e+002 -5.000000e+000
      vertex  9.888544e-001  4.400000e+002  1.566191e-001
      vertex  1.000000e+001  4.400000e+002 -5.000000e+000
    endloop
  endfacet
  facet normal  0.000000e+000  1.000000e+000  0.000000e+000
    outer loop
      vertex -8.881784e-015  4.400000e+002  2.714286e+001
      vertex  5.090316e+000  4.400000e+002  2.666127e+001
      vertex  1.000000e+001  4.400000e+002  2.523360e+001
    endloop
  endfacet
  facet normal  0.000000e+000  1.000000e+000  0.000000e+000
    outer loop
      vertex -8.881784e-015  4.400000e+002  2.714286e+001
      vertex  1.000000e+001  4.400000e+002  2.523360e+001
      vertex  1.000000e+001  4.400000e+002  1.175000e+001
    endloop
  endfacet
  facet normal  0.000000e+000  9.999999e-001  0.000000e+000
    outer loop
      vertex -8.881784e-015  4.400000e+002  2.714286e+001
      vertex  1.000000e+001  4.400000e+002  1.175000e+001
      vertex  8.762563e+000  4.400000e+002  1.123744e+001
    endloop
  endfacet
  facet normal  0.000000e+000  1.000000e+000  0.000000e+000
    outer loop
      vertex -8.881784e-015  4.400000e+002  2.714286e+001
      vertex  8.762563e+000  4.400000e+002  1.123744e+001
      vertex  8.250000e+000  4.400000e+002  1.000000e+001
    endloop
  endfacet
  facet normal  0.000000e+000  1.000000e+000  0.000000e+000
    outer loop
      vertex -8.881784e-015  4.400000e+002  2.714286e+001
      vertex  8.250000e+000  4.400000e+002  1.000000e+001
      vertex  8.762563e+000  4.400000e+002  8.762563e+000
    endloop
  endfacet
  facet normal  0.000000e+000  1.000000e+000  0.000000e+000
    outer loop
      vertex -8.881784e-015  4.400000e+002  2.714286e+001
      vertex  8.762563e+000  4.400000e+002  8.762563e+000
      vertex  9.888544e-001  4.400000e+002  6.243381e+000
    endloop
  endfacet
  facet normal  0.000000e+000  1.000000e+000  0.000000e+000
    outer loop
      vertex -8.881784e-015  4.400000e+002  2.714286e+001
      vertex  9.888544e-001  4.400000e+002  6.243381e+000
      vertex -9.888544e-001  4.400000e+002  6.243381e+000
    endloop
  endfacet
  facet normal  0.000000e+000  1.000000e+000  -0.000000e+000
    outer loop
      vertex -8.881784e-015  4.400000e+002  2.714286e+001
      vertex -9.888544e-001  4.400000e+002  6.243381e+000
      vertex -8.762563e+000  4.400000e+002  8.762563e+000
    endloop
  endfacet
  facet normal  0.000000e+000  1.000000e+000  0.000000e+000
    outer loop
      vertex -8.881784e-015  4.400000e+002  2.714286e+001
      vertex -8.762563e+000  4.400000e+002  8.762563e+000
      vertex -8.250000e+000  4.400000e+002  1.000000e+001
    endloop
  endfacet
  facet normal  0.000000e+000  1.000000e+000  -0.000000e+000
    outer loop
      vertex -8.881784e-015  4.400000e+002  2.714286e+001
      vertex -8.250000e+000  4.400000e+002  1.000000e+001
      vertex -8.762563e+000  4.400000e+002  1.123744e+001
    endloop
  endfacet
  facet normal  0.000000e+000  9.999999e-001  -0.000000e+000
    outer loop
      vertex -8.881784e-015  4.400000e+002  2.714286e+001
      vertex -8.762563e+000  4.400000e+002  1.123744e+001
      vertex -1.000000e+001  4.400000e+002  1.175000e+001
    endloop
  endfacet
  facet normal  0.000000e+000  1.000000e+000  0.000000e+000
    outer loop
      vertex -8.881784e-015  4.400000e+002  2.714286e+001
      vertex -1.000000e+001  4.400000e+002  1.175000e+001
      vertex -1.000000e+001  4.400000e+002  2.523360e+001
    endloop
  endfacet
  facet normal  0.000000e+000  1.000000e+000  0.000000e+000
    outer loop
      vertex -8.881784e-015  4.400000e+002  2.714286e+001
      vertex -1.000000e+001  4.400000e+002  2.523360e+001
      vertex -5.090316e+000  4.400000e+002  2.666127e+001
    endloop
  endfacet
  facet normal  0.000000e+000  1.000000e+000  0.000000e+000
    outer loop
      vertex -1.000000e+001  4.400000e+002  8.250000e+000
      vertex -8.762563e+000  4.400000e+002  8.762563e+000
      vertex -9.888544e-001  4.400000e+002  6.243381e+000
    endloop
  endfacet
  facet normal  0.000000e+000  9.999999e-001  0.000000e+000
    outer loop
      vertex -1.000000e+001  4.400000e+002  8.250000e+000
      vertex -9.888544e-001  4.400000e+002  6.243381e+000
      vertex -2.588854e+000  4.400000e+002  5.080913e+000
    endloop
  endfacet
  facet normal  0.000000e+000  1.000000e+000  0.000000e+000
    outer loop
      vertex -1.000000e+001  4.400000e+002  8.250000e+000
      vertex -2.588854e+000  4.400000e+002  5.080913e+000
      vertex -3.200000e+000  4.400000e+002  3.200000e+000
    endloop
  endfacet
  facet normal  0.000000e+000  1.000000e+000  0.000000e+000
    outer loop
      vertex -1.000000e+001  4.400000e+002  8.250000e+000
      vertex -3.200000e+000  4.400000e+002  3.200000e+000
      vertex -2.588854e+000  4.400000e+002  1.319087e+000
    endloop
  endfacet
  facet normal  0.000000e+000  1.000000e+000  -0.000000e+000
    outer loop
      vertex  1.000000e+001  4.400000e+002  8.250000e+000
      vertex  1.000000e+001  4.400000e+002 -5.000000e+000
      vertex  2.588854e+000  4.400000e+002  1.319087e+000
    endloop
  endfacet
  facet normal  0.000000e+000  1.000000e+000  0.000000e+000
    outer loop
      vertex  1.000000e+001  4.400000e+002  8.250000e+000
      vertex  2.588854e+000  4.400000e+002  1.319087e+000
      vertex  3.200000e+000  4.400000e+002  3.200000e+000
    endloop
  endfacet
  facet normal  0.000000e+000  1.000000e+000  -0.000000e+000
    outer loop
      vertex  1.000000e+001  4.400000e+002  8.250000e+000
      vertex  3.200000e+000  4.400000e+002  3.200000e+000
      vertex  2.588854e+000  4.400000e+002  5.080913e+000
    endloop
  endfacet
  facet normal  0.000000e+000  9.999999e-001  -0.000000e+000
    outer loop
      vertex  1.000000e+001  4.400000e+002  8.250000e+000
      vertex  2.588854e+000  4.400000e+002  5.080913e+000
      vertex  9.888544e-001  4.400000e+002  6.243381e+000
    endloop
  endfacet
  facet normal  0.000000e+000  1.000000e+000  0.000000e+000
    outer loop
      vertex  1.000000e+001  4.400000e+002  8.250000e+000
      vertex  9.888544e-001  4.400000e+002  6.243381e+000
      vertex  8.762563e+000  4.400000e+002  8.762563e+000
    endloop
  endfacet
  facet normal  1.000000e+000  0.000000e+000  0.000000e+000
    outer loop
      vertex  1.000000e+001  4.400000e+002  2.523360e+001
      vertex  1.000000e+001  4.300000e+002  2.561738e+001
      vertex  1.000000e+001  4.400000e+002  1.175000e+001
    endloop
  endfacet
  facet normal  1.000000e+000  0.000000e+000  0.000000e+000
    outer loop
      vertex  1.000000e+001  4.400000e+002  1.175000e+001
      vertex  1.000000e+001  4.300000e+002  2.561738e+001
      vertex  1.000000e+001  4.300000e+002  1.175000e+001
    endloop
  endfacet
  facet normal  1.000000e+000  -0.000000e+000  0.000000e+000
    outer loop
      vertex  1.000000e+001  4.400000e+002  8.250000e+000
      vertex  1.000000e+001  4.300000e+002  8.250000e+000
      vertex  1.000000e+001  4.400000e+002 -5.000000e+000
    endloop
  endfacet
  facet normal  1.000000e+000  0.000000e+000  0.000000e+000
    outer loop
      vertex  1.000000e+001  4.400000e+002 -5.000000e+000
      vertex  1.000000e+001  4.300000e+002  8.250000e+000
      vertex  1.000000e+001  4.300000e+002 -5.000000e+000
    endloop
  endfacet
  facet normal  0.000000e+000  1.000000e+000  0.000000e+000
    outer loop
      vertex  1.000000e+001  4.300000e+002  1.175000e+001
      vertex  2.351548e+001  4.300000e+002  1.425735e+001
      vertex  1.123744e+001  4.300000e+002  1.123744e+001
    endloop
  endfacet
  facet normal  0.000000e+000  9.999999e-001  0.000000e+000
    outer loop
      vertex  2.733587e+001  4.300000e+002  3.000000e+000
      vertex  2.750000e+001  4.300000e+002  3.000000e+000
      vertex  2.750000e+001  4.300000e+002 -3.000000e+000
    endloop
  endfacet
  facet normal  0.000000e+000  9.999999e-001  0.000000e+000
    outer loop
      vertex  2.733587e+001  4.300000e+002  3.000000e+000
      vertex  2.750000e+001  4.300000e+002 -3.000000e+000
      vertex  1.000000e+001  4.300000e+002  8.250000e+000
    endloop
  endfacet
  facet normal  -0.000000e+000  1.000000e+000  0.000000e+000
    outer loop
      vertex  2.733587e+001  4.300000e+002  3.000000e+000
      vertex  1.000000e+001  4.300000e+002  8.250000e+000
      vertex  1.123744e+001  4.300000e+002  8.762563e+000
    endloop
  endfacet
  facet normal  -0.000000e+000  1.000000e+000  0.000000e+000
    outer loop
      vertex  2.733587e+001  4.300000e+002  3.000000e+000
      vertex  1.123744e+001  4.300000e+002  8.762563e+000
      vertex  2.604126e+001  4.300000e+002  8.837583e+000
    endloop
  endfacet
  facet normal  0.000000e+000  1.000000e+000  0.000000e+000
    outer loop
      vertex  1.000000e+001  4.300000e+002 -5.000000e+000
      vertex  1.000000e+001  4.300000e+002  8.250000e+000
      vertex  2.750000e+001  4.300000e+002 -3.000000e+000
    endloop
  endfacet
  facet normal  -0.000000e+000  1.000000e+000  0.000000e+000
    outer loop
      vertex  1.000000e+001  4.300000e+002 -5.000000e+000
      vertex  2.750000e+001  4.300000e+002 -3.000000e+000
      vertex  2.751230e+001  4.300000e+002 -3.000000e+000
    endloop
  endfacet
  facet normal  0.000000e+000  9.999999e-001  0.000000e+000
    outer loop
      vertex  1.000000e+001  4.300000e+002 -5.000000e+000
      vertex  2.751230e+001  4.300000e+002 -3.000000e+000
      vertex  2.551103e+001  4.300000e+002 -5.000000e+000
    endloop
  endfacet
  facet normal  0.000000e+000  1.000000e+000  0.000000e+000
    outer loop
      vertex  1.000000e+001  4.300000e+002  2.561738e+001
      vertex  1.530067e+001  4.300000e+002  2.285037e+001
      vertex  1.987796e+001  4.300000e+002  1.900307e+001
    endloop
  endfacet
  facet normal  0.000000e+000  1.000000e+000  0.000000e+000
    outer loop
      vertex  1.000000e+001  4.300000e+002  2.561738e+001
      vertex  1.987796e+001  4.300000e+002  1.900307e+001
      vertex  2.351548e+001  4.300000e+002  1.425735e+001
    endloop
  endfacet
  facet normal  0.000000e+000  1.000000e+000  0.000000e+000
    outer loop
      vertex  1.000000e+001  4.300000e+002  2.561738e+001
      vertex  2.351548e+001  4.300000e+002  1.425735e+001
      vertex  1.000000e+001  4.300000e+002  1.175000e+001
    endloop
  endfacet
  facet normal  0.000000e+000  1.000000e+000  0.000000e+000
    outer loop
      vertex  2.604126e+001  4.300000e+002  8.837583e+000
      vertex  1.123744e+001  4.300000e+002  8.762563e+000
      vertex  2.351548e+001  4.300000e+002  1.425735e+001
    endloop
  endfacet
  facet normal  0.000000e+000  1.000000e+000  0.000000e+000
    outer loop
      vertex  2.351548e+001  4.300000e+002  1.425735e+001
      vertex  1.123744e+001  4.300000e+002  8.762563e+000
      vertex  1.175000e+001  4.300000e+002  1.000000e+001
    endloop
  endfacet
  facet normal  0.000000e+000  1.000000e+000  -0.000000e+000
    outer loop
      vertex  2.351548e+001  4.300000e+002  1.425735e+001
      vertex  1.175000e+001  4.300000e+002  1.000000e+001
      vertex  1.123744e+001  4.300000e+002  1.123744e+001
    endloop
  endfacet
  facet normal  -0.000000e+000 -9.999999e-001  -0.000000e+000
    outer loop
      vertex  3.142857e+001  3.200000e+002 -3.000000e+000
      vertex  3.142857e+001  3.200000e+002  3.000000e+000
      vertex  3.128506e+001  3.200000e+002  3.000000e+000
    endloop
  endfacet
  facet normal  0.000000e+000 -1.000000e+000  0.000000e+000
    outer loop
      vertex  2.000000e+001  3.200000e+002  2.424366e+001
      vertex  3.142857e+001  3.200000e+002 -3.000000e+000
      vertex  3.128506e+001  3.200000e+002  3.000000e+000
    endloop
  endfacet
  facet normal  0.000000e+000 -1.000000e+000  0.000000e+000
    outer loop
      vertex  2.000000e+001  3.200000e+002  2.424366e+001
      vertex  3.128506e+001  3.200000e+002  3.000000e+000
      vertex  3.009860e+001  3.200000e+002  9.045942e+000
    endloop
  endfacet
  facet normal  0.000000e+000 -1.000000e+000  0.000000e+000
    outer loop
      vertex  2.000000e+001  3.200000e+002  2.424366e+001
      vertex  3.009860e+001  3.200000e+002  9.045942e+000
      vertex  2.775541e+001  3.200000e+002  1.474423e+001
    endloop
  endfacet
  facet normal  0.000000e+000 -1.000000e+000  0.000000e+000
    outer loop
      vertex  2.000000e+001  3.200000e+002  2.424366e+001
      vertex  2.775541e+001  3.200000e+002  1.474423e+001
      vertex  2.434552e+001  3.200000e+002  1.987588e+001
    endloop
  endfacet
  facet normal  0.000000e+000 -1.000000e+000  0.000000e+000
    outer loop
      vertex  2.000000e+001  3.200000e+002 -5.000000e+000
      vertex  2.943114e+001  3.200000e+002 -5.000000e+000
      vertex  3.143241e+001  3.200000e+002 -3.000000e+000
    endloop
  endfacet
  facet normal  -0.000000e+000 -9.999999e-001  0.000000e+000
    outer loop
      vertex  2.000000e+001  3.200000e+002 -5.000000e+000
      vertex  3.143241e+001  3.200000e+002 -3.000000e+000
      vertex  3.142857e+001  3.200000e+002 -3.000000e+000
    endloop
  endfacet
  facet normal  -0.000000e+000 -1.000000e+000  0.000000e+000
    outer loop
      vertex  2.000000e+001  3.200000e+002 -5.000000e+000
      vertex  3.142857e+001  3.200000e+002 -3.000000e+000
      vertex  2.000000e+001  3.200000e+002  2.424366e+001
    endloop
  endfacet
  facet normal  1.000000e+000  0.000000e+000  0.000000e+000
    outer loop
      vertex  2.000000e+001  3.200000e+002  2.424366e+001
      vertex  2.000000e+001  3.100000e+002  2.470489e+001
      vertex  2.000000e+001  3.200000e+002 -5.000000e+000
    endloop
  endfacet
  facet normal  1.000000e+000  0.000000e+000  0.000000e+000
    outer loop
      vertex  2.000000e+001  3.200000e+002 -5.000000e+000
      vertex  2.000000e+001  3.100000e+002  2.470489e+001
      vertex  2.000000e+001  3.100000e+002 -5.000000e+000
    endloop
  endfacet
  facet normal  0.000000e+000 -1.000000e+000  0.000000e+000
    outer loop
      vertex -3.085345e+000  3.100000e+002  3.163562e+001
      vertex  9.888544e-001  3.100000e+002  6.243381e+000
      vertex  3.085345e+000  3.100000e+002  3.163562e+001
    endloop
  endfacet
  facet normal  0.000000e+000 -1.000000e+000  0.000000e+000
    outer loop
      vertex -9.139755e+000  3.100000e+002  3.044333e+001
      vertex -1.000000e+001  3.100000e+002  1.175000e+001
      vertex -8.762563e+000  3.100000e+002  1.123744e+001
    endloop
  endfacet
  facet normal  0.000000e+000 -1.000000e+000  0.000000e+000
    outer loop
      vertex -8.250000e+000  3.100000e+002  1.000000e+001
      vertex -8.762563e+000  3.100000e+002  8.762563e+000
      vertex -9.888544e-001  3.100000e+002  6.243381e+000
    endloop
  endfacet
  facet normal  0.000000e+000 -1.000000e+000  0.000000e+000
    outer loop
      vertex -8.250000e+000  3.100000e+002  1.000000e+001
      vertex -9.888544e-001  3.100000e+002  6.243381e+000
      vertex  9.888544e-001  3.100000e+002  6.243381e+000
    endloop
  endfacet
  facet normal  0.000000e+000 -1.000000e+000  0.000000e+000
    outer loop
      vertex -8.250000e+000  3.100000e+002  1.000000e+001
      vertex  9.888544e-001  3.100000e+002  6.243381e+000
      vertex -3.085345e+000  3.100000e+002  3.163562e+001
    endloop
  endfacet
  facet normal  0.000000e+000 -1.000000e+000  0.000000e+000
    outer loop
      vertex -8.250000e+000  3.100000e+002  1.000000e+001
      vertex -3.085345e+000  3.100000e+002  3.163562e+001
      vertex -9.139755e+000  3.100000e+002  3.044333e+001
    endloop
  endfacet
  facet normal  0.000000e+000 -1.000000e+000  0.000000e+000
    outer loop
      vertex -8.250000e+000  3.100000e+002  1.000000e+001
      vertex -9.139755e+000  3.100000e+002  3.044333e+001
      vertex -8.762563e+000  3.100000e+002  1.123744e+001
    endloop
  endfacet
  facet normal  0.000000e+000 -1.000000e+000  -0.000000e+000
    outer loop
      vertex  2.000000e+001  3.100000e+002 -5.000000e+000
      vertex  2.000000e+001  3.100000e+002  2.470489e+001
      vertex  1.123744e+001  3.100000e+002  8.762563e+000
    endloop
  endfacet
  facet normal  0.000000e+000 -1.000000e+000  -0.000000e+000
    outer loop
      vertex  2.000000e+001  3.100000e+002 -5.000000e+000
      vertex  1.123744e+001  3.100000e+002  8.762563e+000
      vertex  1.000000e+001  3.100000e+002  8.250000e+000
    endloop
  endfacet
  facet normal  0.000000e+000 -1.000000e+000  -0.000000e+000
    outer loop
      vertex  2.000000e+001  3.100000e+002 -5.000000e+000
      vertex  1.000000e+001  3.100000e+002  8.250000e+000
      vertex  2.588854e+000  3.100000e+002  1.319087e+000
    endloop
  endfacet
  facet normal  0.000000e+000 -1.000000e+000  -0.000000e+000
    outer loop
      vertex  2.000000e+001  3.100000e+002 -5.000000e+000
      vertex  2.588854e+000  3.100000e+002  1.319087e+000
      vertex  9.888544e-001  3.100000e+002  1.566191e-001
    endloop
  endfacet
  facet normal  0.000000e+000 -9.999999e-001  -0.000000e+000
    outer loop
      vertex  2.000000e+001  3.100000e+002 -5.000000e+000
      vertex  9.888544e-001  3.100000e+002  1.566191e-001
      vertex -2.000000e+001  3.100000e+002 -5.000000e+000
    endloop
  endfacet
  facet normal  -0.000000e+000 -1.000000e+000  0.000000e+000
    outer loop
      vertex -2.000000e+001  3.100000e+002 -5.000000e+000
      vertex  9.888544e-001  3.100000e+002  1.566191e-001
      vertex -9.888544e-001  3.100000e+002  1.566191e-001
    endloop
  endfacet
  facet normal  -0.000000e+000 -1.000000e+000  0.000000e+000
    outer loop
      vertex -2.000000e+001  3.100000e+002 -5.000000e+000
      vertex -9.888544e-001  3.100000e+002  1.566191e-001
      vertex -2.588854e+000  3.100000e+002  1.319087e+000
    endloop
  endfacet
  facet normal  -0.000000e+000 -1.000000e+000  0.000000e+000
    outer loop
      vertex -2.000000e+001  3.100000e+002 -5.000000e+000
      vertex -2.588854e+000  3.100000e+002  1.319087e+000
      vertex -1.000000e+001  3.100000e+002  8.250000e+000
    endloop
  endfacet
  facet normal  -0.000000e+000 -1.000000e+000  0.000000e+000
    outer loop
      vertex -2.000000e+001  3.100000e+002 -5.000000e+000
      vertex -1.000000e+001  3.100000e+002  8.250000e+000
      vertex -1.123744e+001  3.100000e+002  8.762563e+000
    endloop
  endfacet
  facet normal  -0.000000e+000 -1.000000e+000  0.000000e+000
    outer loop
      vertex -2.000000e+001  3.100000e+002 -5.000000e+000
      vertex -1.123744e+001  3.100000e+002  8.762563e+000
      vertex -2.000000e+001  3.100000e+002  2.470489e+001
    endloop
  endfacet
  facet normal  0.000000e+000 -1.000000e+000  0.000000e+000
    outer loop
      vertex -2.000000e+001  3.100000e+002  2.470489e+001
      vertex -1.123744e+001  3.100000e+002  8.762563e+000
      vertex -1.175000e+001  3.100000e+002  1.000000e+001
    endloop
  endfacet
  facet normal  0.000000e+000 -1.000000e+000  0.000000e+000
    outer loop
      vertex -2.000000e+001  3.100000e+002  2.470489e+001
      vertex -1.175000e+001  3.100000e+002  1.000000e+001
      vertex -1.123744e+001  3.100000e+002  1.123744e+001
    endloop
  endfacet
  facet normal  0.000000e+000 -1.000000e+000  0.000000e+000
    outer loop
      vertex -2.000000e+001  3.100000e+002  2.470489e+001
      vertex -1.123744e+001  3.100000e+002  1.123744e+001
      vertex -1.000000e+001  3.100000e+002  1.175000e+001
    endloop
  endfacet
  facet normal  0.000000e+000 -1.000000e+000  0.000000e+000
    outer loop
      vertex -2.000000e+001  3.100000e+002  2.470489e+001
      vertex -1.000000e+001  3.100000e+002  1.175000e+001
      vertex -9.139755e+000  3.100000e+002  3.044333e+001
    endloop
  endfacet
  facet normal  0.000000e+000 -9.999999e-001  0.000000e+000
    outer loop
      vertex -2.000000e+001  3.100000e+002  2.470489e+001
      vertex -9.139755e+000  3.100000e+002  3.044333e+001
      vertex -1.484971e+001  3.100000e+002  2.810370e+001
    endloop
  endfacet
  facet normal  0.000000e+000 -1.000000e+000  0.000000e+000
    outer loop
      vertex -1.000000e+001  3.100000e+002  8.250000e+000
      vertex -2.588854e+000  3.100000e+002  1.319087e+000
      vertex -3.200000e+000  3.100000e+002  3.200000e+000
    endloop
  endfacet
  facet normal  0.000000e+000 -1.000000e+000  0.000000e+000
    outer loop
      vertex -1.000000e+001  3.100000e+002  8.250000e+000
      vertex -3.200000e+000  3.100000e+002  3.200000e+000
      vertex -2.588854e+000  3.100000e+002  5.080913e+000
    endloop
  endfacet
  facet normal  0.000000e+000 -9.999999e-001  0.000000e+000
    outer loop
      vertex -1.000000e+001  3.100000e+002  8.250000e+000
      vertex -2.588854e+000  3.100000e+002  5.080913e+000
      vertex -9.888544e-001  3.100000e+002  6.243381e+000
    endloop
  endfacet
  facet normal  0.000000e+000 -1.000000e+000  0.000000e+000
    outer loop
      vertex -1.000000e+001  3.100000e+002  8.250000e+000
      vertex -9.888544e-001  3.100000e+002  6.243381e+000
      vertex -8.762563e+000  3.100000e+002  8.762563e+000
    endloop
  endfacet
  facet normal  0.000000e+000 -1.000000e+000  -0.000000e+000
    outer loop
      vertex  1.000000e+001  3.100000e+002  8.250000e+000
      vertex  8.762563e+000  3.100000e+002  8.762563e+000
      vertex  9.888544e-001  3.100000e+002  6.243381e+000
    endloop
  endfacet
  facet normal  0.000000e+000 -9.999999e-001  0.000000e+000
    outer loop
      vertex  1.000000e+001  3.100000e+002  8.250000e+000
      vertex  9.888544e-001  3.100000e+002  6.243381e+000
      vertex  2.588854e+000  3.100000e+002  5.080913e+000
    endloop
  endfacet
  facet normal  0.000000e+000 -1.000000e+000  0.000000e+000
    outer loop
      vertex  1.000000e+001  3.100000e+002  8.250000e+000
      vertex  2.588854e+000  3.100000e+002  5.080913e+000
      vertex  3.200000e+000  3.100000e+002  3.200000e+000
    endloop
  endfacet
  facet normal  0.000000e+000 -1.000000e+000  -0.000000e+000
    outer loop
      vertex  1.000000e+001  3.100000e+002  8.250000e+000
      vertex  3.200000e+000  3.100000e+002  3.200000e+000
      vertex  2.588854e+000  3.100000e+002  1.319087e+000
    endloop
  endfacet
  facet normal  -0.000000e+000 -9.999999e-001  -0.000000e+000
    outer loop
      vertex  2.000000e+001  3.100000e+002  2.470489e+001
      vertex  1.484971e+001  3.100000e+002  2.810370e+001
      vertex  9.139755e+000  3.100000e+002  3.044333e+001
    endloop
  endfacet
  facet normal  0.000000e+000 -1.000000e+000  0.000000e+000
    outer loop
      vertex  2.000000e+001  3.100000e+002  2.470489e+001
      vertex  9.139755e+000  3.100000e+002  3.044333e+001
      vertex  1.000000e+001  3.100000e+002  1.175000e+001
    endloop
  endfacet
  facet normal  0.000000e+000 -1.000000e+000  0.000000e+000
    outer loop
      vertex  2.000000e+001  3.100000e+002  2.470489e+001
      vertex  1.000000e+001  3.100000e+002  1.175000e+001
      vertex  1.123744e+001  3.100000e+002  1.123744e+001
    endloop
  endfacet
  facet normal  0.000000e+000 -1.000000e+000  0.000000e+000
    outer loop
      vertex  2.000000e+001  3.100000e+002  2.470489e+001
      vertex  1.123744e+001  3.100000e+002  1.123744e+001
      vertex  1.175000e+001  3.100000e+002  1.000000e+001
    endloop
  endfacet
  facet normal  0.000000e+000 -1.000000e+000  -0.000000e+000
    outer loop
      vertex  2.000000e+001  3.100000e+002  2.470489e+001
      vertex  1.175000e+001  3.100000e+002  1.000000e+001
      vertex  1.123744e+001  3.100000e+002  8.762563e+000
    endloop
  endfacet
  facet normal  0.000000e+000 -1.000000e+000  -0.000000e+000
    outer loop
      vertex  1.000000e+001  3.100000e+002  1.175000e+001
      vertex  9.139755e+000  3.100000e+002  3.044333e+001
      vertex  8.762563e+000  3.100000e+002  1.123744e+001
    endloop
  endfacet
  facet normal  0.000000e+000 -1.000000e+000  0.000000e+000
    outer loop
      vertex  8.762563e+000  3.100000e+002  1.123744e+001
      vertex  9.139755e+000  3.100000e+002  3.044333e+001
      vertex  3.085345e+000  3.100000e+002  3.163562e+001
    endloop
  endfacet
  facet normal  0.000000e+000 -1.000000e+000  0.000000e+000
    outer loop
      vertex  8.762563e+000  3.100000e+002  1.123744e+001
      vertex  3.085345e+000  3.100000e+002  3.163562e+001
      vertex  8.250000e+000  3.100000e+002  1.000000e+001
    endloop
  endfacet
  facet normal  -0.000000e+000 -1.000000e+000  0.000000e+000
    outer loop
      vertex  8.250000e+000  3.100000e+002  1.000000e+001
      vertex  3.085345e+000  3.100000e+002  3.163562e+001
      vertex  9.888544e-001  3.100000e+002  6.243381e+000
    endloop
  endfacet
  facet normal  0.000000e+000 -1.000000e+000  0.000000e+000
    outer loop
      vertex  8.250000e+000  3.100000e+002  1.000000e+001
      vertex  9.888544e-001  3.100000e+002  6.243381e+000
      vertex  8.762563e+000  3.100000e+002  8.762563e+000
    endloop
  endfacet
  facet normal -1.000000e+000  0.000000e+000  0.000000e+000
    outer loop
      vertex -2.000000e+001  3.200000e+002  2.424366e+001
      vertex -2.000000e+001  3.200000e+002 -5.000000e+000
      vertex -2.000000e+001  3.100000e+002  2.470489e+001
    endloop
  endfacet
  facet normal -1.000000e+000  0.000000e+000  0.000000e+000
    outer loop
      vertex -2.000000e+001  3.100000e+002  2.470489e+001
      vertex -2.000000e+001  3.200000e+002 -5.000000e+000
      vertex -2.000000e+001  3.100000e+002 -5.000000e+000
    endloop
  endfacet
  facet normal  0.000000e+000 -1.000000e+000  0.000000e+000
    outer loop
      vertex -3.142857e+001  3.200000e+002 -3.000000e+000
      vertex -2.942730e+001  3.200000e+002 -5.000000e+000
      vertex -2.000000e+001  3.200000e+002 -5.000000e+000
    endloop
  endfacet
  facet normal  0.000000e+000 -1.000000e+000  0.000000e+000
    outer loop
      vertex -3.142857e+001  3.200000e+002 -3.000000e+000
      vertex -2.000000e+001  3.200000e+002 -5.000000e+000
      vertex -2.000000e+001  3.200000e+002  2.424366e+001
    endloop
  endfacet
  facet normal  0.000000e+000 -1.000000e+000  0.000000e+000
    outer loop
      vertex -3.142857e+001  3.200000e+002 -3.000000e+000
      vertex -2.000000e+001  3.200000e+002  2.424366e+001
      vertex -3.128506e+001  3.200000e+002  3.000000e+000
    endloop
  endfacet
  facet normal  -0.000000e+000 -9.999999e-001  0.000000e+000
    outer loop
      vertex -3.142857e+001  3.200000e+002 -3.000000e+000
      vertex -3.128506e+001  3.200000e+002  3.000000e+000
      vertex -3.142857e+001  3.200000e+002  3.000000e+000
    endloop
  endfacet
  facet normal  0.000000e+000 -1.000000e+000  -0.000000e+000
    outer loop
      vertex -2.000000e+001  3.200000e+002  2.424366e+001
      vertex -2.434552e+001  3.200000e+002  1.987588e+001
      vertex -2.775541e+001  3.200000e+002  1.474423e+001
    endloop
  endfacet
  facet normal  0.000000e+000 -1.000000e+000  -0.000000e+000
    outer loop
      vertex -2.000000e+001  3.200000e+002  2.424366e+001
      vertex -2.775541e+001  3.200000e+002  1.474423e+001
      vertex -3.009860e+001  3.200000e+002  9.045942e+000
    endloop
  endfacet
  facet normal  0.000000e+000 -1.000000e+000  -0.000000e+000
    outer loop
      vertex -2.000000e+001  3.200000e+002  2.424366e+001
      vertex -3.009860e+001  3.200000e+002  9.045942e+000
      vertex -3.128506e+001  3.200000e+002  3.000000e+000
    endloop
  endfacet
  facet normal  0.000000e+000  1.000000e+000  -0.000000e+000
    outer loop
      vertex -1.000000e+001  4.300000e+002  1.175000e+001
      vertex -1.123744e+001  4.300000e+002  1.123744e+001
      vertex -2.351548e+001  4.300000e+002  1.425735e+001
    endloop
  endfacet
  facet normal  -0.000000e+000  9.999999e-001  0.000000e+000
    outer loop
      vertex -2.750000e+001  4.300000e+002 -3.000000e+000
      vertex -2.750000e+001  4.300000e+002  3.000000e+000
      vertex -2.733587e+001  4.300000e+002  3.000000e+000
    endloop
  endfacet
  facet normal  -0.000000e+000  9.999999e-001  0.000000e+000
    outer loop
      vertex -2.750000e+001  4.300000e+002 -3.000000e+000
      vertex -2.733587e+001  4.300000e+002  3.000000e+000
      vertex -1.000000e+001  4.300000e+002  8.250000e+000
    endloop
  endfacet
  facet normal  0.000000e+000  1.000000e+000  0.000000e+000
    outer loop
      vertex -2.750000e+001  4.300000e+002 -3.000000e+000
      vertex -1.000000e+001  4.300000e+002  8.250000e+000
      vertex -1.000000e+001  4.300000e+002 -5.000000e+000
    endloop
  endfacet
  facet normal  0.000000e+000  1.000000e+000  0.000000e+000
    outer loop
      vertex -2.750000e+001  4.300000e+002 -3.000000e+000
      vertex -1.000000e+001  4.300000e+002 -5.000000e+000
      vertex -2.549872e+001  4.300000e+002 -5.000000e+000
    endloop
  endfacet
  facet normal  0.000000e+000  1.000000e+000  0.000000e+000
    outer loop
      vertex -1.000000e+001  4.300000e+002  8.250000e+000
      vertex -2.733587e+001  4.300000e+002  3.000000e+000
      vertex -1.123744e+001  4.300000e+002  8.762563e+000
    endloop
  endfacet
  facet normal  0.000000e+000  1.000000e+000  0.000000e+000
    outer loop
      vertex -1.123744e+001  4.300000e+002  8.762563e+000
      vertex -2.733587e+001  4.300000e+002  3.000000e+000
      vertex -2.604126e+001  4.300000e+002  8.837583e+000
    endloop
  endfacet
  facet normal  -0.000000e+000  1.000000e+000  0.000000e+000
    outer loop
      vertex -1.123744e+001  4.300000e+002  8.762563e+000
      vertex -2.604126e+001  4.300000e+002  8.837583e+000
      vertex -1.175000e+001  4.300000e+002  1.000000e+001
    endloop
  endfacet
  facet normal  0.000000e+000  1.000000e+000  0.000000e+000
    outer loop
      vertex -1.175000e+001  4.300000e+002  1.000000e+001
      vertex -2.604126e+001  4.300000e+002  8.837583e+000
      vertex -2.351548e+001  4.300000e+002  1.425735e+001
    endloop
  endfacet
  facet normal  0.000000e+000  1.000000e+000  0.000000e+000
    outer loop
      vertex -1.175000e+001  4.300000e+002  1.000000e+001
      vertex -2.351548e+001  4.300000e+002  1.425735e+001
      vertex -1.123744e+001  4.300000e+002  1.123744e+001
    endloop
  endfacet
  facet normal  -0.000000e+000  1.000000e+000  0.000000e+000
    outer loop
      vertex -1.000000e+001  4.300000e+002  1.175000e+001
      vertex -2.351548e+001  4.300000e+002  1.425735e+001
      vertex -1.000000e+001  4.300000e+002  2.561738e+001
    endloop
  endfacet
  facet normal  0.000000e+000  1.000000e+000  0.000000e+000
    outer loop
      vertex -1.000000e+001  4.300000e+002  2.561738e+001
      vertex -2.351548e+001  4.300000e+002  1.425735e+001
      vertex -1.987796e+001  4.300000e+002  1.900307e+001
    endloop
  endfacet
  facet normal  0.000000e+000  1.000000e+000  0.000000e+000
    outer loop
      vertex -1.000000e+001  4.300000e+002  2.561738e+001
      vertex -1.987796e+001  4.300000e+002  1.900307e+001
      vertex -1.530067e+001  4.300000e+002  2.285037e+001
    endloop
  endfacet
  facet normal -1.000000e+000  -0.000000e+000  0.000000e+000
    outer loop
      vertex -1.000000e+001  4.300000e+002  2.561738e+001
      vertex -1.000000e+001  4.400000e+002  2.523360e+001
      vertex -1.000000e+001  4.300000e+002  1.175000e+001
    endloop
  endfacet
  facet normal -1.000000e+000  0.000000e+000  0.000000e+000
    outer loop
      vertex -1.000000e+001  4.300000e+002  1.175000e+001
      vertex -1.000000e+001  4.400000e+002  2.523360e+001
      vertex -1.000000e+001  4.400000e+002  1.175000e+001
    endloop
  endfacet
  facet normal -1.000000e+000  -0.000000e+000  0.000000e+000
    outer loop
      vertex -1.000000e+001  4.300000e+002  8.250000e+000
      vertex -1.000000e+001  4.400000e+002  8.250000e+000
      vertex -1.000000e+001  4.300000e+002 -5.000000e+000
    endloop
  endfacet
  facet normal -1.000000e+000  0.000000e+000  0.000000e+000
    outer loop
      vertex -1.000000e+001  4.300000e+002 -5.000000e+000
      vertex -1.000000e+001  4.400000e+002  8.250000e+000
      vertex -1.000000e+001  4.400000e+002 -5.000000e+000
    endloop
  endfacet
endsolid CATIA STL
