solid CATIA STL
  facet normal  1.000000e+000  0.000000e+000  0.000000e+000
    outer loop
      vertex  4.500000e+000 -9.000000e+000 -9.000000e+000
      vertex  4.500000e+000  9.000000e+000 -9.000000e+000
      vertex  4.500000e+000 -9.000000e+000  9.000000e+000
    endloop
  endfacet
  facet normal  1.000000e+000  -0.000000e+000  0.000000e+000
    outer loop
      vertex  4.500000e+000 -9.000000e+000  9.000000e+000
      vertex  4.500000e+000  9.000000e+000 -9.000000e+000
      vertex  4.500000e+000  9.000000e+000  9.000000e+000
    endloop
  endfacet
  facet normal -1.000000e+000  0.000000e+000  0.000000e+000
    outer loop
      vertex -4.500000e+000  9.000000e+000 -9.000000e+000
      vertex -4.500000e+000 -9.000000e+000 -9.000000e+000
      vertex -4.500000e+000  9.000000e+000  9.000000e+000
    endloop
  endfacet
  facet normal -1.000000e+000  -0.000000e+000  0.000000e+000
    outer loop
      vertex -4.500000e+000  9.000000e+000  9.000000e+000
      vertex -4.500000e+000 -9.000000e+000 -9.000000e+000
      vertex -4.500000e+000 -9.000000e+000  9.000000e+000
    endloop
  endfacet
  facet normal  0.000000e+000  1.000000e+000  0.000000e+000
    outer loop
      vertex -4.500000e+000  9.000000e+000  9.000000e+000
      vertex  4.500000e+000  9.000000e+000  9.000000e+000
      vertex -4.500000e+000  9.000000e+000 -9.000000e+000
    endloop
  endfacet
  facet normal  0.000000e+000  1.000000e+000  0.000000e+000
    outer loop
      vertex -4.500000e+000  9.000000e+000 -9.000000e+000
      vertex  4.500000e+000  9.000000e+000  9.000000e+000
      vertex  4.500000e+000  9.000000e+000 -9.000000e+000
    endloop
  endfacet
  facet normal  -0.000000e+000  0.000000e+000 -1.000000e+000
    outer loop
      vertex -4.500000e+000  9.000000e+000 -9.000000e+000
      vertex  4.500000e+000  9.000000e+000 -9.000000e+000
      vertex -4.500000e+000 -9.000000e+000 -9.000000e+000
    endloop
  endfacet
  facet normal  0.000000e+000  0.000000e+000 -1.000000e+000
    outer loop
      vertex -4.500000e+000 -9.000000e+000 -9.000000e+000
      vertex  4.500000e+000  9.000000e+000 -9.000000e+000
      vertex  4.500000e+000 -9.000000e+000 -9.000000e+000
    endloop
  endfacet
  facet normal  0.000000e+000 -1.000000e+000  0.000000e+000
    outer loop
      vertex -4.500000e+000 -9.000000e+000 -9.000000e+000
      vertex  4.500000e+000 -9.000000e+000 -9.000000e+000
      vertex -4.500000e+000 -9.000000e+000  9.000000e+000
    endloop
  endfacet
  facet normal  0.000000e+000 -1.000000e+000  0.000000e+000
    outer loop
      vertex -4.500000e+000 -9.000000e+000  9.000000e+000
      vertex  4.500000e+000 -9.000000e+000 -9.000000e+000
      vertex  4.500000e+000 -9.000000e+000  9.000000e+000
    endloop
  endfacet
  facet normal  0.000000e+000  0.000000e+000  1.000000e+000
    outer loop
      vertex -4.500000e+000 -9.000000e+000  9.000000e+000
      vertex  4.500000e+000 -9.000000e+000  9.000000e+000
      vertex -4.500000e+000  9.000000e+000  9.000000e+000
    endloop
  endfacet
  facet normal  -0.000000e+000  0.000000e+000  1.000000e+000
    outer loop
      vertex -4.500000e+000  9.000000e+000  9.000000e+000
      vertex  4.500000e+000 -9.000000e+000  9.000000e+000
      vertex  4.500000e+000  9.000000e+000  9.000000e+000
    endloop
  endfacet
endsolid CATIA STL
