solid CATIA STL
  facet normal  0.000000e+000  0.000000e+000  1.000000e+000
    outer loop
      vertex -9.567086e-001  2.309699e+000  1.000000e+001
      vertex  9.567086e-001  2.309699e+000  1.000000e+001
      vertex  1.530758e-016  2.500000e+000  1.000000e+001
    endloop
  endfacet
  facet normal  -0.000000e+000  0.000000e+000  1.000000e+000
    outer loop
      vertex  9.567086e-001  2.309699e+000  1.000000e+001
      vertex -9.567086e-001  2.309699e+000  1.000000e+001
      vertex  1.767767e+000  1.767767e+000  1.000000e+001
    endloop
  endfacet
  facet normal  0.000000e+000  0.000000e+000  9.999999e-001
    outer loop
      vertex  1.767767e+000  1.767767e+000  1.000000e+001
      vertex -9.567086e-001  2.309699e+000  1.000000e+001
      vertex -1.767767e+000  1.767767e+000  1.000000e+001
    endloop
  endfacet
  facet normal  -0.000000e+000  0.000000e+000  1.000000e+000
    outer loop
      vertex  1.767767e+000  1.767767e+000  1.000000e+001
      vertex -1.767767e+000  1.767767e+000  1.000000e+001
      vertex  2.309699e+000  9.567086e-001  1.000000e+001
    endloop
  endfacet
  facet normal  0.000000e+000  0.000000e+000  1.000000e+000
    outer loop
      vertex  2.309699e+000  9.567086e-001  1.000000e+001
      vertex -1.767767e+000  1.767767e+000  1.000000e+001
      vertex -2.309699e+000  9.567086e-001  1.000000e+001
    endloop
  endfacet
  facet normal  -0.000000e+000  0.000000e+000  1.000000e+000
    outer loop
      vertex  2.309699e+000  9.567086e-001  1.000000e+001
      vertex -2.309699e+000  9.567086e-001  1.000000e+001
      vertex  2.500000e+000  0.000000e+000  1.000000e+001
    endloop
  endfacet
  facet normal  0.000000e+000  0.000000e+000  1.000000e+000
    outer loop
      vertex  2.500000e+000  0.000000e+000  1.000000e+001
      vertex -2.309699e+000  9.567086e-001  1.000000e+001
      vertex -2.500000e+000  3.061516e-016  1.000000e+001
    endloop
  endfacet
  facet normal  0.000000e+000  0.000000e+000  1.000000e+000
    outer loop
      vertex  2.500000e+000  0.000000e+000  1.000000e+001
      vertex -2.500000e+000  3.061516e-016  1.000000e+001
      vertex  2.309699e+000 -9.567086e-001  1.000000e+001
    endloop
  endfacet
  facet normal  0.000000e+000  0.000000e+000  1.000000e+000
    outer loop
      vertex  2.309699e+000 -9.567086e-001  1.000000e+001
      vertex -2.500000e+000  3.061516e-016  1.000000e+001
      vertex -2.309699e+000 -9.567086e-001  1.000000e+001
    endloop
  endfacet
  facet normal  -0.000000e+000  0.000000e+000  1.000000e+000
    outer loop
      vertex  2.309699e+000 -9.567086e-001  1.000000e+001
      vertex -2.309699e+000 -9.567086e-001  1.000000e+001
      vertex  1.767767e+000 -1.767767e+000  1.000000e+001
    endloop
  endfacet
  facet normal  0.000000e+000  0.000000e+000  1.000000e+000
    outer loop
      vertex  1.767767e+000 -1.767767e+000  1.000000e+001
      vertex -2.309699e+000 -9.567086e-001  1.000000e+001
      vertex -1.767767e+000 -1.767767e+000  1.000000e+001
    endloop
  endfacet
  facet normal  -0.000000e+000  0.000000e+000  9.999999e-001
    outer loop
      vertex  1.767767e+000 -1.767767e+000  1.000000e+001
      vertex -1.767767e+000 -1.767767e+000  1.000000e+001
      vertex  9.567086e-001 -2.309699e+000  1.000000e+001
    endloop
  endfacet
  facet normal  0.000000e+000  0.000000e+000  1.000000e+000
    outer loop
      vertex  9.567086e-001 -2.309699e+000  1.000000e+001
      vertex -1.767767e+000 -1.767767e+000  1.000000e+001
      vertex -9.567086e-001 -2.309699e+000  1.000000e+001
    endloop
  endfacet
  facet normal  -0.000000e+000  0.000000e+000  1.000000e+000
    outer loop
      vertex  9.567086e-001 -2.309699e+000  1.000000e+001
      vertex -9.567086e-001 -2.309699e+000  1.000000e+001
      vertex -4.592274e-016 -2.500000e+000  1.000000e+001
    endloop
  endfacet
  facet normal  0.000000e+000  0.000000e+000 -1.000000e+000
    outer loop
      vertex  1.530758e-016  2.500000e+000  0.000000e+000
      vertex  9.567086e-001  2.309699e+000  0.000000e+000
      vertex -9.567086e-001  2.309699e+000  0.000000e+000
    endloop
  endfacet
  facet normal  -0.000000e+000  0.000000e+000 -1.000000e+000
    outer loop
      vertex -9.567086e-001  2.309699e+000  0.000000e+000
      vertex  9.567086e-001  2.309699e+000  0.000000e+000
      vertex -1.767767e+000  1.767767e+000  0.000000e+000
    endloop
  endfacet
  facet normal  0.000000e+000  0.000000e+000 -9.999999e-001
    outer loop
      vertex -1.767767e+000  1.767767e+000  0.000000e+000
      vertex  9.567086e-001  2.309699e+000  0.000000e+000
      vertex  1.767767e+000  1.767767e+000  0.000000e+000
    endloop
  endfacet
  facet normal  -0.000000e+000  0.000000e+000 -1.000000e+000
    outer loop
      vertex -1.767767e+000  1.767767e+000  0.000000e+000
      vertex  1.767767e+000  1.767767e+000  0.000000e+000
      vertex -2.309699e+000  9.567086e-001  0.000000e+000
    endloop
  endfacet
  facet normal  0.000000e+000  0.000000e+000 -1.000000e+000
    outer loop
      vertex -2.309699e+000  9.567086e-001  0.000000e+000
      vertex  1.767767e+000  1.767767e+000  0.000000e+000
      vertex  2.309699e+000  9.567086e-001  0.000000e+000
    endloop
  endfacet
  facet normal  -0.000000e+000  0.000000e+000 -1.000000e+000
    outer loop
      vertex -2.309699e+000  9.567086e-001  0.000000e+000
      vertex  2.309699e+000  9.567086e-001  0.000000e+000
      vertex -2.500000e+000  3.061516e-016  0.000000e+000
    endloop
  endfacet
  facet normal  0.000000e+000  0.000000e+000 -1.000000e+000
    outer loop
      vertex -2.500000e+000  3.061516e-016  0.000000e+000
      vertex  2.309699e+000  9.567086e-001  0.000000e+000
      vertex  2.500000e+000  0.000000e+000  0.000000e+000
    endloop
  endfacet
  facet normal  -0.000000e+000  0.000000e+000 -1.000000e+000
    outer loop
      vertex -2.500000e+000  3.061516e-016  0.000000e+000
      vertex  2.500000e+000  0.000000e+000  0.000000e+000
      vertex -2.309699e+000 -9.567086e-001  0.000000e+000
    endloop
  endfacet
  facet normal  0.000000e+000  0.000000e+000 -1.000000e+000
    outer loop
      vertex -2.309699e+000 -9.567086e-001  0.000000e+000
      vertex  2.500000e+000  0.000000e+000  0.000000e+000
      vertex  2.309699e+000 -9.567086e-001  0.000000e+000
    endloop
  endfacet
  facet normal  -0.000000e+000  0.000000e+000 -1.000000e+000
    outer loop
      vertex -2.309699e+000 -9.567086e-001  0.000000e+000
      vertex  2.309699e+000 -9.567086e-001  0.000000e+000
      vertex -1.767767e+000 -1.767767e+000  0.000000e+000
    endloop
  endfacet
  facet normal  0.000000e+000  0.000000e+000 -1.000000e+000
    outer loop
      vertex -1.767767e+000 -1.767767e+000  0.000000e+000
      vertex  2.309699e+000 -9.567086e-001  0.000000e+000
      vertex  1.767767e+000 -1.767767e+000  0.000000e+000
    endloop
  endfacet
  facet normal  -0.000000e+000  0.000000e+000 -9.999999e-001
    outer loop
      vertex -1.767767e+000 -1.767767e+000  0.000000e+000
      vertex  1.767767e+000 -1.767767e+000  0.000000e+000
      vertex -9.567086e-001 -2.309699e+000  0.000000e+000
    endloop
  endfacet
  facet normal  0.000000e+000  0.000000e+000 -1.000000e+000
    outer loop
      vertex -9.567086e-001 -2.309699e+000  0.000000e+000
      vertex  1.767767e+000 -1.767767e+000  0.000000e+000
      vertex  9.567086e-001 -2.309699e+000  0.000000e+000
    endloop
  endfacet
  facet normal  -0.000000e+000  0.000000e+000 -1.000000e+000
    outer loop
      vertex -9.567086e-001 -2.309699e+000  0.000000e+000
      vertex  9.567086e-001 -2.309699e+000  0.000000e+000
      vertex -4.592274e-016 -2.500000e+000  0.000000e+000
    endloop
  endfacet
  facet normal  9.807853e-001 -1.950903e-001  0.000000e+000
    outer loop
      vertex  2.500000e+000  0.000000e+000  0.000000e+000
      vertex  2.500000e+000  0.000000e+000  1.000000e+001
      vertex  2.309699e+000 -9.567086e-001  0.000000e+000
    endloop
  endfacet
  facet normal  9.807853e-001 -1.950903e-001  0.000000e+000
    outer loop
      vertex  2.309699e+000 -9.567086e-001  0.000000e+000
      vertex  2.500000e+000  0.000000e+000  1.000000e+001
      vertex  2.309699e+000 -9.567086e-001  1.000000e+001
    endloop
  endfacet
  facet normal  8.314696e-001 -5.555702e-001  0.000000e+000
    outer loop
      vertex  2.309699e+000 -9.567086e-001  0.000000e+000
      vertex  2.309699e+000 -9.567086e-001  1.000000e+001
      vertex  1.767767e+000 -1.767767e+000  0.000000e+000
    endloop
  endfacet
  facet normal  8.314696e-001 -5.555702e-001  0.000000e+000
    outer loop
      vertex  1.767767e+000 -1.767767e+000  0.000000e+000
      vertex  2.309699e+000 -9.567086e-001  1.000000e+001
      vertex  1.767767e+000 -1.767767e+000  1.000000e+001
    endloop
  endfacet
  facet normal  5.555702e-001 -8.314696e-001  0.000000e+000
    outer loop
      vertex  1.767767e+000 -1.767767e+000  0.000000e+000
      vertex  1.767767e+000 -1.767767e+000  1.000000e+001
      vertex  9.567086e-001 -2.309699e+000  0.000000e+000
    endloop
  endfacet
  facet normal  5.555702e-001 -8.314696e-001  0.000000e+000
    outer loop
      vertex  9.567086e-001 -2.309699e+000  0.000000e+000
      vertex  1.767767e+000 -1.767767e+000  1.000000e+001
      vertex  9.567086e-001 -2.309699e+000  1.000000e+001
    endloop
  endfacet
  facet normal  1.950903e-001 -9.807853e-001  0.000000e+000
    outer loop
      vertex  9.567086e-001 -2.309699e+000  0.000000e+000
      vertex  9.567086e-001 -2.309699e+000  1.000000e+001
      vertex -4.592274e-016 -2.500000e+000  0.000000e+000
    endloop
  endfacet
  facet normal  1.950903e-001 -9.807853e-001  0.000000e+000
    outer loop
      vertex -4.592274e-016 -2.500000e+000  0.000000e+000
      vertex  9.567086e-001 -2.309699e+000  1.000000e+001
      vertex -4.592274e-016 -2.500000e+000  1.000000e+001
    endloop
  endfacet
  facet normal -1.950903e-001 -9.807853e-001  -0.000000e+000
    outer loop
      vertex -4.592274e-016 -2.500000e+000  0.000000e+000
      vertex -4.592274e-016 -2.500000e+000  1.000000e+001
      vertex -9.567086e-001 -2.309699e+000  0.000000e+000
    endloop
  endfacet
  facet normal -1.950903e-001 -9.807853e-001  0.000000e+000
    outer loop
      vertex -9.567086e-001 -2.309699e+000  0.000000e+000
      vertex -4.592274e-016 -2.500000e+000  1.000000e+001
      vertex -9.567086e-001 -2.309699e+000  1.000000e+001
    endloop
  endfacet
  facet normal -5.555702e-001 -8.314696e-001  -0.000000e+000
    outer loop
      vertex -9.567086e-001 -2.309699e+000  0.000000e+000
      vertex -9.567086e-001 -2.309699e+000  1.000000e+001
      vertex -1.767767e+000 -1.767767e+000  0.000000e+000
    endloop
  endfacet
  facet normal -5.555702e-001 -8.314696e-001  0.000000e+000
    outer loop
      vertex -1.767767e+000 -1.767767e+000  0.000000e+000
      vertex -9.567086e-001 -2.309699e+000  1.000000e+001
      vertex -1.767767e+000 -1.767767e+000  1.000000e+001
    endloop
  endfacet
  facet normal -8.314696e-001 -5.555702e-001  -0.000000e+000
    outer loop
      vertex -1.767767e+000 -1.767767e+000  0.000000e+000
      vertex -1.767767e+000 -1.767767e+000  1.000000e+001
      vertex -2.309699e+000 -9.567086e-001  0.000000e+000
    endloop
  endfacet
  facet normal -8.314696e-001 -5.555702e-001  0.000000e+000
    outer loop
      vertex -2.309699e+000 -9.567086e-001  0.000000e+000
      vertex -1.767767e+000 -1.767767e+000  1.000000e+001
      vertex -2.309699e+000 -9.567086e-001  1.000000e+001
    endloop
  endfacet
  facet normal -9.807853e-001 -1.950903e-001  -0.000000e+000
    outer loop
      vertex -2.309699e+000 -9.567086e-001  0.000000e+000
      vertex -2.309699e+000 -9.567086e-001  1.000000e+001
      vertex -2.500000e+000  3.061516e-016  0.000000e+000
    endloop
  endfacet
  facet normal -9.807853e-001 -1.950903e-001  0.000000e+000
    outer loop
      vertex -2.500000e+000  3.061516e-016  0.000000e+000
      vertex -2.309699e+000 -9.567086e-001  1.000000e+001
      vertex -2.500000e+000  3.061516e-016  1.000000e+001
    endloop
  endfacet
  facet normal -9.807853e-001  1.950903e-001  0.000000e+000
    outer loop
      vertex -2.500000e+000  3.061516e-016  0.000000e+000
      vertex -2.500000e+000  3.061516e-016  1.000000e+001
      vertex -2.309699e+000  9.567086e-001  0.000000e+000
    endloop
  endfacet
  facet normal -9.807853e-001  1.950903e-001  0.000000e+000
    outer loop
      vertex -2.309699e+000  9.567086e-001  0.000000e+000
      vertex -2.500000e+000  3.061516e-016  1.000000e+001
      vertex -2.309699e+000  9.567086e-001  1.000000e+001
    endloop
  endfacet
  facet normal -8.314696e-001  5.555702e-001  0.000000e+000
    outer loop
      vertex -2.309699e+000  9.567086e-001  0.000000e+000
      vertex -2.309699e+000  9.567086e-001  1.000000e+001
      vertex -1.767767e+000  1.767767e+000  0.000000e+000
    endloop
  endfacet
  facet normal -8.314696e-001  5.555702e-001  0.000000e+000
    outer loop
      vertex -1.767767e+000  1.767767e+000  0.000000e+000
      vertex -2.309699e+000  9.567086e-001  1.000000e+001
      vertex -1.767767e+000  1.767767e+000  1.000000e+001
    endloop
  endfacet
  facet normal -5.555702e-001  8.314696e-001  0.000000e+000
    outer loop
      vertex -1.767767e+000  1.767767e+000  0.000000e+000
      vertex -1.767767e+000  1.767767e+000  1.000000e+001
      vertex -9.567086e-001  2.309699e+000  0.000000e+000
    endloop
  endfacet
  facet normal -5.555702e-001  8.314696e-001  0.000000e+000
    outer loop
      vertex -9.567086e-001  2.309699e+000  0.000000e+000
      vertex -1.767767e+000  1.767767e+000  1.000000e+001
      vertex -9.567086e-001  2.309699e+000  1.000000e+001
    endloop
  endfacet
  facet normal -1.950903e-001  9.807853e-001  0.000000e+000
    outer loop
      vertex -9.567086e-001  2.309699e+000  0.000000e+000
      vertex -9.567086e-001  2.309699e+000  1.000000e+001
      vertex  1.530758e-016  2.500000e+000  0.000000e+000
    endloop
  endfacet
  facet normal -1.950903e-001  9.807853e-001  0.000000e+000
    outer loop
      vertex  1.530758e-016  2.500000e+000  0.000000e+000
      vertex -9.567086e-001  2.309699e+000  1.000000e+001
      vertex  1.530758e-016  2.500000e+000  1.000000e+001
    endloop
  endfacet
  facet normal  1.950903e-001  9.807853e-001  0.000000e+000
    outer loop
      vertex  1.530758e-016  2.500000e+000  0.000000e+000
      vertex  1.530758e-016  2.500000e+000  1.000000e+001
      vertex  9.567086e-001  2.309699e+000  0.000000e+000
    endloop
  endfacet
  facet normal  1.950903e-001  9.807853e-001  -0.000000e+000
    outer loop
      vertex  9.567086e-001  2.309699e+000  0.000000e+000
      vertex  1.530758e-016  2.500000e+000  1.000000e+001
      vertex  9.567086e-001  2.309699e+000  1.000000e+001
    endloop
  endfacet
  facet normal  5.555702e-001  8.314696e-001  0.000000e+000
    outer loop
      vertex  9.567086e-001  2.309699e+000  0.000000e+000
      vertex  9.567086e-001  2.309699e+000  1.000000e+001
      vertex  1.767767e+000  1.767767e+000  0.000000e+000
    endloop
  endfacet
  facet normal  5.555702e-001  8.314696e-001  -0.000000e+000
    outer loop
      vertex  1.767767e+000  1.767767e+000  0.000000e+000
      vertex  9.567086e-001  2.309699e+000  1.000000e+001
      vertex  1.767767e+000  1.767767e+000  1.000000e+001
    endloop
  endfacet
  facet normal  8.314696e-001  5.555702e-001  0.000000e+000
    outer loop
      vertex  1.767767e+000  1.767767e+000  0.000000e+000
      vertex  1.767767e+000  1.767767e+000  1.000000e+001
      vertex  2.309699e+000  9.567086e-001  0.000000e+000
    endloop
  endfacet
  facet normal  8.314696e-001  5.555702e-001  -0.000000e+000
    outer loop
      vertex  2.309699e+000  9.567086e-001  0.000000e+000
      vertex  1.767767e+000  1.767767e+000  1.000000e+001
      vertex  2.309699e+000  9.567086e-001  1.000000e+001
    endloop
  endfacet
  facet normal  9.807853e-001  1.950903e-001  0.000000e+000
    outer loop
      vertex  2.309699e+000  9.567086e-001  0.000000e+000
      vertex  2.309699e+000  9.567086e-001  1.000000e+001
      vertex  2.500000e+000  0.000000e+000  0.000000e+000
    endloop
  endfacet
  facet normal  9.807853e-001  1.950903e-001  -0.000000e+000
    outer loop
      vertex  2.500000e+000  0.000000e+000  0.000000e+000
      vertex  2.309699e+000  9.567086e-001  1.000000e+001
      vertex  2.500000e+000  0.000000e+000  1.000000e+001
    endloop
  endfacet
endsolid CATIA STL
