solid CATIA STL
  facet normal  1.450171e-001  0.000000e+000  9.894291e-001
    outer loop
      vertex  6.950000e+001 -4.500000e+000 -6.084083e+000
      vertex  6.950000e+001  4.263256e-014 -6.084083e+000
      vertex  4.646455e+001 -4.500000e+000 -2.707859e+000
    endloop
  endfacet
  facet normal  1.450171e-001  -0.000000e+000  9.894291e-001
    outer loop
      vertex  4.646455e+001 -4.500000e+000 -2.707859e+000
      vertex  6.950000e+001  4.263256e-014 -6.084083e+000
      vertex  4.646455e+001  0.000000e+000 -2.707859e+000
    endloop
  endfacet
  facet normal  8.720724e-002  0.000000e+000  9.961902e-001
    outer loop
      vertex  4.646455e+001 -4.500000e+000 -2.707859e+000
      vertex  4.646455e+001  0.000000e+000 -2.707859e+000
      vertex  2.327169e+001 -4.500000e+000 -6.775385e-001
    endloop
  endfacet
  facet normal  8.720724e-002  -0.000000e+000  9.961902e-001
    outer loop
      vertex  2.327169e+001 -4.500000e+000 -6.775385e-001
      vertex  4.646455e+001  0.000000e+000 -2.707859e+000
      vertex  2.327169e+001  0.000000e+000 -6.775385e-001
    endloop
  endfacet
  facet normal  2.910194e-002  0.000000e+000  9.995764e-001
    outer loop
      vertex  2.327169e+001 -4.500000e+000 -6.775385e-001
      vertex  2.327169e+001  0.000000e+000 -6.775385e-001
      vertex  7.105427e-014 -4.500000e+000  4.547474e-013
    endloop
  endfacet
  facet normal  2.910194e-002  2.532656e-013  9.995764e-001
    outer loop
      vertex  7.105427e-014 -4.500000e+000  4.547474e-013
      vertex  2.327169e+001  0.000000e+000 -6.775385e-001
      vertex -4.263256e-014  0.000000e+000 -6.821210e-013
    endloop
  endfacet
  facet normal -2.910194e-002  2.517952e-013  9.995764e-001
    outer loop
      vertex  7.105427e-014 -4.500000e+000  4.547474e-013
      vertex -4.263256e-014  0.000000e+000 -6.821210e-013
      vertex -2.327169e+001 -4.500000e+000 -6.775385e-001
    endloop
  endfacet
  facet normal -2.910194e-002  0.000000e+000  9.995764e-001
    outer loop
      vertex -2.327169e+001 -4.500000e+000 -6.775385e-001
      vertex -4.263256e-014  0.000000e+000 -6.821210e-013
      vertex -2.327169e+001  0.000000e+000 -6.775385e-001
    endloop
  endfacet
  facet normal -8.720724e-002  0.000000e+000  9.961902e-001
    outer loop
      vertex -2.327169e+001 -4.500000e+000 -6.775385e-001
      vertex -2.327169e+001  0.000000e+000 -6.775385e-001
      vertex -4.646455e+001 -4.500000e+000 -2.707859e+000
    endloop
  endfacet
  facet normal -8.720724e-002  0.000000e+000  9.961902e-001
    outer loop
      vertex -4.646455e+001 -4.500000e+000 -2.707859e+000
      vertex -2.327169e+001  0.000000e+000 -6.775385e-001
      vertex -4.646455e+001  0.000000e+000 -2.707859e+000
    endloop
  endfacet
  facet normal -1.450171e-001  0.000000e+000  9.894291e-001
    outer loop
      vertex -4.646455e+001 -4.500000e+000 -2.707859e+000
      vertex -4.646455e+001  0.000000e+000 -2.707859e+000
      vertex -6.950000e+001 -4.500000e+000 -6.084083e+000
    endloop
  endfacet
  facet normal -1.450171e-001  0.000000e+000  9.894291e-001
    outer loop
      vertex -6.950000e+001 -4.500000e+000 -6.084083e+000
      vertex -4.646455e+001  0.000000e+000 -2.707859e+000
      vertex -6.950000e+001  0.000000e+000 -6.084083e+000
    endloop
  endfacet
  facet normal -1.000000e+000  -0.000000e+000  0.000000e+000
    outer loop
      vertex -6.950000e+001 -4.500000e+000 -6.084083e+000
      vertex -6.950000e+001  0.000000e+000 -6.084083e+000
      vertex -6.950000e+001 -4.500000e+000 -1.500000e+001
    endloop
  endfacet
  facet normal -1.000000e+000  0.000000e+000  0.000000e+000
    outer loop
      vertex -6.950000e+001 -4.500000e+000 -1.500000e+001
      vertex -6.950000e+001  0.000000e+000 -6.084083e+000
      vertex -6.950000e+001  0.000000e+000 -1.500000e+001
    endloop
  endfacet
  facet normal  -0.000000e+000 -1.000000e+000  -0.000000e+000
    outer loop
      vertex  6.950000e+001 -4.500000e+000 -1.500000e+001
      vertex  6.950000e+001 -4.500000e+000 -6.084083e+000
      vertex  4.646455e+001 -4.500000e+000 -2.707859e+000
    endloop
  endfacet
  facet normal  -0.000000e+000 -1.000000e+000  -0.000000e+000
    outer loop
      vertex  6.950000e+001 -4.500000e+000 -1.500000e+001
      vertex  4.646455e+001 -4.500000e+000 -2.707859e+000
      vertex  2.327169e+001 -4.500000e+000 -6.775385e-001
    endloop
  endfacet
  facet normal  -0.000000e+000 -1.000000e+000  -0.000000e+000
    outer loop
      vertex  6.950000e+001 -4.500000e+000 -1.500000e+001
      vertex  2.327169e+001 -4.500000e+000 -6.775385e-001
      vertex  7.105427e-014 -4.500000e+000  4.547474e-013
    endloop
  endfacet
  facet normal  0.000000e+000 -1.000000e+000  -0.000000e+000
    outer loop
      vertex  6.950000e+001 -4.500000e+000 -1.500000e+001
      vertex  7.105427e-014 -4.500000e+000  4.547474e-013
      vertex -2.327169e+001 -4.500000e+000 -6.775385e-001
    endloop
  endfacet
  facet normal  0.000000e+000 -1.000000e+000  -0.000000e+000
    outer loop
      vertex  6.950000e+001 -4.500000e+000 -1.500000e+001
      vertex -2.327169e+001 -4.500000e+000 -6.775385e-001
      vertex -4.646455e+001 -4.500000e+000 -2.707859e+000
    endloop
  endfacet
  facet normal  0.000000e+000 -1.000000e+000  -0.000000e+000
    outer loop
      vertex  6.950000e+001 -4.500000e+000 -1.500000e+001
      vertex -4.646455e+001 -4.500000e+000 -2.707859e+000
      vertex -6.950000e+001 -4.500000e+000 -6.084083e+000
    endloop
  endfacet
  facet normal  0.000000e+000 -1.000000e+000  0.000000e+000
    outer loop
      vertex  6.950000e+001 -4.500000e+000 -1.500000e+001
      vertex -6.950000e+001 -4.500000e+000 -6.084083e+000
      vertex -6.950000e+001 -4.500000e+000 -1.500000e+001
    endloop
  endfacet
  facet normal  1.000000e+000  -0.000000e+000  0.000000e+000
    outer loop
      vertex  6.950000e+001  4.263256e-014 -6.084083e+000
      vertex  6.950000e+001 -4.500000e+000 -6.084083e+000
      vertex  6.950000e+001  4.263256e-014 -1.500000e+001
    endloop
  endfacet
  facet normal  1.000000e+000  0.000000e+000  0.000000e+000
    outer loop
      vertex  6.950000e+001  4.263256e-014 -1.500000e+001
      vertex  6.950000e+001 -4.500000e+000 -6.084083e+000
      vertex  6.950000e+001 -4.500000e+000 -1.500000e+001
    endloop
  endfacet
  facet normal  -0.000000e+000  1.000000e+000  0.000000e+000
    outer loop
      vertex -6.950000e+001  0.000000e+000 -1.500000e+001
      vertex -6.950000e+001  0.000000e+000 -6.084083e+000
      vertex -4.646455e+001  0.000000e+000 -2.707859e+000
    endloop
  endfacet
  facet normal  -0.000000e+000  1.000000e+000  0.000000e+000
    outer loop
      vertex -6.950000e+001  0.000000e+000 -1.500000e+001
      vertex -4.646455e+001  0.000000e+000 -2.707859e+000
      vertex -2.327169e+001  0.000000e+000 -6.775385e-001
    endloop
  endfacet
  facet normal  -0.000000e+000  1.000000e+000  0.000000e+000
    outer loop
      vertex -6.950000e+001  0.000000e+000 -1.500000e+001
      vertex -2.327169e+001  0.000000e+000 -6.775385e-001
      vertex -4.263256e-014  0.000000e+000 -6.821210e-013
    endloop
  endfacet
  facet normal  0.000000e+000  1.000000e+000  0.000000e+000
    outer loop
      vertex -6.950000e+001  0.000000e+000 -1.500000e+001
      vertex -4.263256e-014  0.000000e+000 -6.821210e-013
      vertex  2.327169e+001  0.000000e+000 -6.775385e-001
    endloop
  endfacet
  facet normal  0.000000e+000  1.000000e+000  0.000000e+000
    outer loop
      vertex -6.950000e+001  0.000000e+000 -1.500000e+001
      vertex  2.327169e+001  0.000000e+000 -6.775385e-001
      vertex  4.646455e+001  0.000000e+000 -2.707859e+000
    endloop
  endfacet
  facet normal -7.767350e-016  1.000000e+000  7.327750e-015
    outer loop
      vertex -6.950000e+001  0.000000e+000 -1.500000e+001
      vertex  4.646455e+001  0.000000e+000 -2.707859e+000
      vertex  6.950000e+001  4.263256e-014 -6.084083e+000
    endloop
  endfacet
  facet normal -3.067091e-016  1.000000e+000  0.000000e+000
    outer loop
      vertex -6.950000e+001  0.000000e+000 -1.500000e+001
      vertex  6.950000e+001  4.263256e-014 -6.084083e+000
      vertex  6.950000e+001  4.263256e-014 -1.500000e+001
    endloop
  endfacet
  facet normal  0.000000e+000  0.000000e+000 -1.000000e+000
    outer loop
      vertex  6.950000e+001 -4.500000e+000 -1.500000e+001
      vertex -6.950000e+001 -4.500000e+000 -1.500000e+001
      vertex  6.950000e+001  4.263256e-014 -1.500000e+001
    endloop
  endfacet
  facet normal  0.000000e+000  0.000000e+000 -1.000000e+000
    outer loop
      vertex  6.950000e+001  4.263256e-014 -1.500000e+001
      vertex -6.950000e+001 -4.500000e+000 -1.500000e+001
      vertex -6.950000e+001  0.000000e+000 -1.500000e+001
    endloop
  endfacet
endsolid CATIA STL
