solid CATIA STL
  facet normal  9.999999e-001  0.000000e+000  0.000000e+000
    outer loop
      vertex  4.500000e+000  1.330000e+001  6.611842e+000
      vertex  4.500000e+000  9.866667e+000  1.000000e+001
      vertex  4.500000e+000  9.866667e+000  8.000000e+000
    endloop
  endfacet
  facet normal  1.000000e+000  0.000000e+000  0.000000e+000
    outer loop
      vertex  4.500000e+000  1.330000e+001  6.611842e+000
      vertex  4.500000e+000  9.866667e+000  8.000000e+000
      vertex  4.500000e+000  8.866667e+000  8.000000e+000
    endloop
  endfacet
  facet normal  1.000000e+000  0.000000e+000  0.000000e+000
    outer loop
      vertex  4.500000e+000  1.330000e+001  6.611842e+000
      vertex  4.500000e+000  8.866667e+000  8.000000e+000
      vertex  4.500000e+000 -1.330000e+001  6.611842e+000
    endloop
  endfacet
  facet normal  1.000000e+000  -0.000000e+000  0.000000e+000
    outer loop
      vertex  4.500000e+000  1.330000e+001  6.611842e+000
      vertex  4.500000e+000 -1.330000e+001  6.611842e+000
      vertex  4.500000e+000 -1.330000e+001  4.000000e+000
    endloop
  endfacet
  facet normal  1.000000e+000  0.000000e+000  0.000000e+000
    outer loop
      vertex  4.500000e+000  1.330000e+001  6.611842e+000
      vertex  4.500000e+000 -1.330000e+001  4.000000e+000
      vertex  4.500000e+000  1.330000e+001  4.000000e+000
    endloop
  endfacet
  facet normal  1.000000e+000  0.000000e+000  0.000000e+000
    outer loop
      vertex  4.500000e+000 -1.330000e+001  6.611842e+000
      vertex  4.500000e+000  8.866667e+000  8.000000e+000
      vertex  4.500000e+000  5.000000e-001  8.000000e+000
    endloop
  endfacet
  facet normal  1.000000e+000  0.000000e+000  0.000000e+000
    outer loop
      vertex  4.500000e+000 -1.330000e+001  6.611842e+000
      vertex  4.500000e+000  5.000000e-001  8.000000e+000
      vertex  4.500000e+000  0.000000e+000  8.000000e+000
    endloop
  endfacet
  facet normal  1.000000e+000  0.000000e+000  0.000000e+000
    outer loop
      vertex  4.500000e+000 -1.330000e+001  6.611842e+000
      vertex  4.500000e+000  0.000000e+000  8.000000e+000
      vertex  4.500000e+000 -5.000000e-001  8.000000e+000
    endloop
  endfacet
  facet normal  1.000000e+000  0.000000e+000  0.000000e+000
    outer loop
      vertex  4.500000e+000 -1.330000e+001  6.611842e+000
      vertex  4.500000e+000 -5.000000e-001  8.000000e+000
      vertex  4.500000e+000 -8.866667e+000  8.000000e+000
    endloop
  endfacet
  facet normal  1.000000e+000  0.000000e+000  0.000000e+000
    outer loop
      vertex  4.500000e+000 -1.330000e+001  6.611842e+000
      vertex  4.500000e+000 -8.866667e+000  8.000000e+000
      vertex  4.500000e+000 -9.866667e+000  8.000000e+000
    endloop
  endfacet
  facet normal  9.999999e-001  0.000000e+000  -0.000000e+000
    outer loop
      vertex  4.500000e+000 -1.330000e+001  6.611842e+000
      vertex  4.500000e+000 -9.866667e+000  8.000000e+000
      vertex  4.500000e+000 -9.866667e+000  1.000000e+001
    endloop
  endfacet
  facet normal  1.000000e+000  0.000000e+000  0.000000e+000
    outer loop
      vertex  4.500000e+000  5.000000e-001  8.000000e+000
      vertex  4.500000e+000  8.866667e+000  8.000000e+000
      vertex  4.500000e+000  5.000000e-001  1.000000e+001
    endloop
  endfacet
  facet normal  1.000000e+000  -0.000000e+000  0.000000e+000
    outer loop
      vertex  4.500000e+000  5.000000e-001  1.000000e+001
      vertex  4.500000e+000  8.866667e+000  8.000000e+000
      vertex  4.500000e+000  8.866667e+000  1.000000e+001
    endloop
  endfacet
  facet normal  1.000000e+000  0.000000e+000  0.000000e+000
    outer loop
      vertex  4.500000e+000 -8.866667e+000  8.000000e+000
      vertex  4.500000e+000 -5.000000e-001  8.000000e+000
      vertex  4.500000e+000 -8.866667e+000  1.000000e+001
    endloop
  endfacet
  facet normal  1.000000e+000  -0.000000e+000  0.000000e+000
    outer loop
      vertex  4.500000e+000 -8.866667e+000  1.000000e+001
      vertex  4.500000e+000 -5.000000e-001  8.000000e+000
      vertex  4.500000e+000 -5.000000e-001  1.000000e+001
    endloop
  endfacet
  facet normal -1.000000e+000  0.000000e+000  0.000000e+000
    outer loop
      vertex  0.000000e+000  1.330000e+001  6.611842e+000
      vertex  0.000000e+000  1.330000e+001  4.000000e+000
      vertex  0.000000e+000 -1.330000e+001  4.000000e+000
    endloop
  endfacet
  facet normal -1.000000e+000  0.000000e+000  0.000000e+000
    outer loop
      vertex  0.000000e+000  1.330000e+001  6.611842e+000
      vertex  0.000000e+000 -1.330000e+001  4.000000e+000
      vertex  0.000000e+000 -1.330000e+001  6.611842e+000
    endloop
  endfacet
  facet normal -1.000000e+000  0.000000e+000  0.000000e+000
    outer loop
      vertex  0.000000e+000  1.330000e+001  6.611842e+000
      vertex  0.000000e+000 -1.330000e+001  6.611842e+000
      vertex  0.000000e+000  8.866667e+000  8.000000e+000
    endloop
  endfacet
  facet normal -1.000000e+000  0.000000e+000  0.000000e+000
    outer loop
      vertex  0.000000e+000  1.330000e+001  6.611842e+000
      vertex  0.000000e+000  8.866667e+000  8.000000e+000
      vertex  0.000000e+000  9.866667e+000  8.000000e+000
    endloop
  endfacet
  facet normal -9.999999e-001  0.000000e+000  0.000000e+000
    outer loop
      vertex  0.000000e+000  1.330000e+001  6.611842e+000
      vertex  0.000000e+000  9.866667e+000  8.000000e+000
      vertex  0.000000e+000  9.866667e+000  1.000000e+001
    endloop
  endfacet
  facet normal -9.999999e-001  0.000000e+000  -0.000000e+000
    outer loop
      vertex  0.000000e+000 -1.330000e+001  6.611842e+000
      vertex  0.000000e+000 -9.866667e+000  1.000000e+001
      vertex  0.000000e+000 -9.866667e+000  8.000000e+000
    endloop
  endfacet
  facet normal -1.000000e+000  0.000000e+000  -0.000000e+000
    outer loop
      vertex  0.000000e+000 -1.330000e+001  6.611842e+000
      vertex  0.000000e+000 -9.866667e+000  8.000000e+000
      vertex  0.000000e+000 -8.866667e+000  8.000000e+000
    endloop
  endfacet
  facet normal -1.000000e+000  0.000000e+000  -0.000000e+000
    outer loop
      vertex  0.000000e+000 -1.330000e+001  6.611842e+000
      vertex  0.000000e+000 -8.866667e+000  8.000000e+000
      vertex  0.000000e+000 -5.000000e-001  8.000000e+000
    endloop
  endfacet
  facet normal -1.000000e+000  0.000000e+000  -0.000000e+000
    outer loop
      vertex  0.000000e+000 -1.330000e+001  6.611842e+000
      vertex  0.000000e+000 -5.000000e-001  8.000000e+000
      vertex  0.000000e+000  0.000000e+000  8.000000e+000
    endloop
  endfacet
  facet normal -1.000000e+000  0.000000e+000  -0.000000e+000
    outer loop
      vertex  0.000000e+000 -1.330000e+001  6.611842e+000
      vertex  0.000000e+000  0.000000e+000  8.000000e+000
      vertex  0.000000e+000  5.000000e-001  8.000000e+000
    endloop
  endfacet
  facet normal -1.000000e+000  0.000000e+000  -0.000000e+000
    outer loop
      vertex  0.000000e+000 -1.330000e+001  6.611842e+000
      vertex  0.000000e+000  5.000000e-001  8.000000e+000
      vertex  0.000000e+000  8.866667e+000  8.000000e+000
    endloop
  endfacet
  facet normal -1.000000e+000  0.000000e+000  0.000000e+000
    outer loop
      vertex  0.000000e+000  8.866667e+000  8.000000e+000
      vertex  0.000000e+000  5.000000e-001  8.000000e+000
      vertex  0.000000e+000  8.866667e+000  1.000000e+001
    endloop
  endfacet
  facet normal -1.000000e+000  -0.000000e+000  0.000000e+000
    outer loop
      vertex  0.000000e+000  8.866667e+000  1.000000e+001
      vertex  0.000000e+000  5.000000e-001  8.000000e+000
      vertex  0.000000e+000  5.000000e-001  1.000000e+001
    endloop
  endfacet
  facet normal -1.000000e+000  0.000000e+000  0.000000e+000
    outer loop
      vertex  0.000000e+000 -5.000000e-001  8.000000e+000
      vertex  0.000000e+000 -8.866667e+000  8.000000e+000
      vertex  0.000000e+000 -5.000000e-001  1.000000e+001
    endloop
  endfacet
  facet normal -1.000000e+000  -0.000000e+000  0.000000e+000
    outer loop
      vertex  0.000000e+000 -5.000000e-001  1.000000e+001
      vertex  0.000000e+000 -8.866667e+000  8.000000e+000
      vertex  0.000000e+000 -8.866667e+000  1.000000e+001
    endloop
  endfacet
  facet normal  0.000000e+000  7.024086e-001  7.117741e-001
    outer loop
      vertex  0.000000e+000  9.866667e+000  1.000000e+001
      vertex  4.500000e+000  9.866667e+000  1.000000e+001
      vertex  0.000000e+000  1.330000e+001  6.611842e+000
    endloop
  endfacet
  facet normal  -0.000000e+000  7.024086e-001  7.117741e-001
    outer loop
      vertex  0.000000e+000  1.330000e+001  6.611842e+000
      vertex  4.500000e+000  9.866667e+000  1.000000e+001
      vertex  4.500000e+000  1.330000e+001  6.611842e+000
    endloop
  endfacet
  facet normal  0.000000e+000 -7.024086e-001  7.117741e-001
    outer loop
      vertex  4.500000e+000 -9.866667e+000  1.000000e+001
      vertex  0.000000e+000 -9.866667e+000  1.000000e+001
      vertex  4.500000e+000 -1.330000e+001  6.611842e+000
    endloop
  endfacet
  facet normal  0.000000e+000 -7.024086e-001  7.117741e-001
    outer loop
      vertex  4.500000e+000 -1.330000e+001  6.611842e+000
      vertex  0.000000e+000 -9.866667e+000  1.000000e+001
      vertex  0.000000e+000 -1.330000e+001  6.611842e+000
    endloop
  endfacet
  facet normal  0.000000e+000  0.000000e+000 -1.000000e+000
    outer loop
      vertex  4.500000e+000 -1.330000e+001  4.000000e+000
      vertex  0.000000e+000 -1.330000e+001  4.000000e+000
      vertex  4.500000e+000  1.330000e+001  4.000000e+000
    endloop
  endfacet
  facet normal  -0.000000e+000  0.000000e+000 -1.000000e+000
    outer loop
      vertex  4.500000e+000  1.330000e+001  4.000000e+000
      vertex  0.000000e+000 -1.330000e+001  4.000000e+000
      vertex  0.000000e+000  1.330000e+001  4.000000e+000
    endloop
  endfacet
  facet normal  0.000000e+000  1.000000e+000  0.000000e+000
    outer loop
      vertex  4.500000e+000  1.330000e+001  4.000000e+000
      vertex  0.000000e+000  1.330000e+001  4.000000e+000
      vertex  4.500000e+000  1.330000e+001  6.611842e+000
    endloop
  endfacet
  facet normal  0.000000e+000  1.000000e+000  0.000000e+000
    outer loop
      vertex  4.500000e+000  1.330000e+001  6.611842e+000
      vertex  0.000000e+000  1.330000e+001  4.000000e+000
      vertex  0.000000e+000  1.330000e+001  6.611842e+000
    endloop
  endfacet
  facet normal  0.000000e+000 -1.000000e+000  0.000000e+000
    outer loop
      vertex  4.500000e+000 -1.330000e+001  6.611842e+000
      vertex  0.000000e+000 -1.330000e+001  6.611842e+000
      vertex  4.500000e+000 -1.330000e+001  4.000000e+000
    endloop
  endfacet
  facet normal  0.000000e+000 -1.000000e+000  0.000000e+000
    outer loop
      vertex  4.500000e+000 -1.330000e+001  4.000000e+000
      vertex  0.000000e+000 -1.330000e+001  6.611842e+000
      vertex  0.000000e+000 -1.330000e+001  4.000000e+000
    endloop
  endfacet
  facet normal  0.000000e+000 -1.000000e+000  0.000000e+000
    outer loop
      vertex  0.000000e+000  5.000000e-001  1.000000e+001
      vertex  0.000000e+000  5.000000e-001  8.000000e+000
      vertex  4.500000e+000  5.000000e-001  1.000000e+001
    endloop
  endfacet
  facet normal  0.000000e+000 -1.000000e+000  -0.000000e+000
    outer loop
      vertex  4.500000e+000  5.000000e-001  1.000000e+001
      vertex  0.000000e+000  5.000000e-001  8.000000e+000
      vertex  4.500000e+000  5.000000e-001  8.000000e+000
    endloop
  endfacet
  facet normal  -0.000000e+000  0.000000e+000  1.000000e+000
    outer loop
      vertex  4.500000e+000  8.866667e+000  1.000000e+001
      vertex  0.000000e+000  8.866667e+000  1.000000e+001
      vertex  4.500000e+000  5.000000e-001  1.000000e+001
    endloop
  endfacet
  facet normal  0.000000e+000  0.000000e+000  1.000000e+000
    outer loop
      vertex  4.500000e+000  5.000000e-001  1.000000e+001
      vertex  0.000000e+000  8.866667e+000  1.000000e+001
      vertex  0.000000e+000  5.000000e-001  1.000000e+001
    endloop
  endfacet
  facet normal  0.000000e+000  1.000000e+000  0.000000e+000
    outer loop
      vertex  0.000000e+000  8.866667e+000  8.000000e+000
      vertex  0.000000e+000  8.866667e+000  1.000000e+001
      vertex  4.500000e+000  8.866667e+000  8.000000e+000
    endloop
  endfacet
  facet normal  0.000000e+000  1.000000e+000  -0.000000e+000
    outer loop
      vertex  4.500000e+000  8.866667e+000  8.000000e+000
      vertex  0.000000e+000  8.866667e+000  1.000000e+001
      vertex  4.500000e+000  8.866667e+000  1.000000e+001
    endloop
  endfacet
  facet normal  0.000000e+000  0.000000e+000  1.000000e+000
    outer loop
      vertex  0.000000e+000  8.866667e+000  8.000000e+000
      vertex  4.500000e+000  8.866667e+000  8.000000e+000
      vertex  0.000000e+000  9.866667e+000  8.000000e+000
    endloop
  endfacet
  facet normal  -0.000000e+000  0.000000e+000  1.000000e+000
    outer loop
      vertex  0.000000e+000  9.866667e+000  8.000000e+000
      vertex  4.500000e+000  8.866667e+000  8.000000e+000
      vertex  4.500000e+000  9.866667e+000  8.000000e+000
    endloop
  endfacet
  facet normal  0.000000e+000 -1.000000e+000  0.000000e+000
    outer loop
      vertex  0.000000e+000  9.866667e+000  1.000000e+001
      vertex  0.000000e+000  9.866667e+000  8.000000e+000
      vertex  4.500000e+000  9.866667e+000  1.000000e+001
    endloop
  endfacet
  facet normal  0.000000e+000 -1.000000e+000  -0.000000e+000
    outer loop
      vertex  4.500000e+000  9.866667e+000  1.000000e+001
      vertex  0.000000e+000  9.866667e+000  8.000000e+000
      vertex  4.500000e+000  9.866667e+000  8.000000e+000
    endloop
  endfacet
  facet normal  0.000000e+000  1.000000e+000  0.000000e+000
    outer loop
      vertex  0.000000e+000 -9.866667e+000  8.000000e+000
      vertex  0.000000e+000 -9.866667e+000  1.000000e+001
      vertex  4.500000e+000 -9.866667e+000  8.000000e+000
    endloop
  endfacet
  facet normal  0.000000e+000  1.000000e+000  -0.000000e+000
    outer loop
      vertex  4.500000e+000 -9.866667e+000  8.000000e+000
      vertex  0.000000e+000 -9.866667e+000  1.000000e+001
      vertex  4.500000e+000 -9.866667e+000  1.000000e+001
    endloop
  endfacet
  facet normal  0.000000e+000  0.000000e+000  1.000000e+000
    outer loop
      vertex  0.000000e+000 -9.866667e+000  8.000000e+000
      vertex  4.500000e+000 -9.866667e+000  8.000000e+000
      vertex  0.000000e+000 -8.866667e+000  8.000000e+000
    endloop
  endfacet
  facet normal  -0.000000e+000  0.000000e+000  1.000000e+000
    outer loop
      vertex  0.000000e+000 -8.866667e+000  8.000000e+000
      vertex  4.500000e+000 -9.866667e+000  8.000000e+000
      vertex  4.500000e+000 -8.866667e+000  8.000000e+000
    endloop
  endfacet
  facet normal  0.000000e+000 -1.000000e+000  0.000000e+000
    outer loop
      vertex  0.000000e+000 -8.866667e+000  1.000000e+001
      vertex  0.000000e+000 -8.866667e+000  8.000000e+000
      vertex  4.500000e+000 -8.866667e+000  1.000000e+001
    endloop
  endfacet
  facet normal  0.000000e+000 -1.000000e+000  -0.000000e+000
    outer loop
      vertex  4.500000e+000 -8.866667e+000  1.000000e+001
      vertex  0.000000e+000 -8.866667e+000  8.000000e+000
      vertex  4.500000e+000 -8.866667e+000  8.000000e+000
    endloop
  endfacet
  facet normal  -0.000000e+000  0.000000e+000  1.000000e+000
    outer loop
      vertex  4.500000e+000 -5.000000e-001  1.000000e+001
      vertex  0.000000e+000 -5.000000e-001  1.000000e+001
      vertex  4.500000e+000 -8.866667e+000  1.000000e+001
    endloop
  endfacet
  facet normal  0.000000e+000  0.000000e+000  1.000000e+000
    outer loop
      vertex  4.500000e+000 -8.866667e+000  1.000000e+001
      vertex  0.000000e+000 -5.000000e-001  1.000000e+001
      vertex  0.000000e+000 -8.866667e+000  1.000000e+001
    endloop
  endfacet
  facet normal  0.000000e+000  1.000000e+000  0.000000e+000
    outer loop
      vertex  0.000000e+000 -5.000000e-001  8.000000e+000
      vertex  0.000000e+000 -5.000000e-001  1.000000e+001
      vertex  4.500000e+000 -5.000000e-001  8.000000e+000
    endloop
  endfacet
  facet normal  0.000000e+000  1.000000e+000  -0.000000e+000
    outer loop
      vertex  4.500000e+000 -5.000000e-001  8.000000e+000
      vertex  0.000000e+000 -5.000000e-001  1.000000e+001
      vertex  4.500000e+000 -5.000000e-001  1.000000e+001
    endloop
  endfacet
  facet normal  0.000000e+000  0.000000e+000  1.000000e+000
    outer loop
      vertex  0.000000e+000 -5.000000e-001  8.000000e+000
      vertex  4.500000e+000 -5.000000e-001  8.000000e+000
      vertex  0.000000e+000  0.000000e+000  8.000000e+000
    endloop
  endfacet
  facet normal  -0.000000e+000  0.000000e+000  1.000000e+000
    outer loop
      vertex  0.000000e+000  0.000000e+000  8.000000e+000
      vertex  4.500000e+000 -5.000000e-001  8.000000e+000
      vertex  4.500000e+000  0.000000e+000  8.000000e+000
    endloop
  endfacet
  facet normal  0.000000e+000  0.000000e+000  1.000000e+000
    outer loop
      vertex  0.000000e+000  0.000000e+000  8.000000e+000
      vertex  4.500000e+000  0.000000e+000  8.000000e+000
      vertex  0.000000e+000  5.000000e-001  8.000000e+000
    endloop
  endfacet
  facet normal  -0.000000e+000  0.000000e+000  1.000000e+000
    outer loop
      vertex  0.000000e+000  5.000000e-001  8.000000e+000
      vertex  4.500000e+000  0.000000e+000  8.000000e+000
      vertex  4.500000e+000  5.000000e-001  8.000000e+000
    endloop
  endfacet
endsolid CATIA STL
