solid CATIA STL
  facet normal  -0.000000e+000 -1.000000e+000  -0.000000e+000
    outer loop
      vertex  4.000000e+001  0.000000e+000 -2.000000e+000
      vertex  4.000000e+001  0.000000e+000  2.000000e+000
      vertex  3.000000e+001  0.000000e+000  2.000000e+000
    endloop
  endfacet
  facet normal  -0.000000e+000 -1.000000e+000  -0.000000e+000
    outer loop
      vertex  4.000000e+001  0.000000e+000 -2.000000e+000
      vertex  3.000000e+001  0.000000e+000  2.000000e+000
      vertex  1.000000e+001  0.000000e+000  2.000000e+000
    endloop
  endfacet
  facet normal  -0.000000e+000 -1.000000e+000  -0.000000e+000
    outer loop
      vertex  4.000000e+001  0.000000e+000 -2.000000e+000
      vertex  1.000000e+001  0.000000e+000  2.000000e+000
      vertex  0.000000e+000  0.000000e+000  2.000000e+000
    endloop
  endfacet
  facet normal  0.000000e+000 -1.000000e+000  0.000000e+000
    outer loop
      vertex  4.000000e+001  0.000000e+000 -2.000000e+000
      vertex  0.000000e+000  0.000000e+000  2.000000e+000
      vertex  0.000000e+000  0.000000e+000 -2.000000e+000
    endloop
  endfacet
  facet normal  0.000000e+000 -1.000000e+000  0.000000e+000
    outer loop
      vertex  3.000000e+001  0.000000e+000  8.000000e+000
      vertex  1.000000e+001  0.000000e+000  8.000000e+000
      vertex  3.000000e+001  0.000000e+000  2.000000e+000
    endloop
  endfacet
  facet normal  0.000000e+000 -1.000000e+000  0.000000e+000
    outer loop
      vertex  3.000000e+001  0.000000e+000  2.000000e+000
      vertex  1.000000e+001  0.000000e+000  8.000000e+000
      vertex  1.000000e+001  0.000000e+000  2.000000e+000
    endloop
  endfacet
  facet normal  1.000000e+000  0.000000e+000  0.000000e+000
    outer loop
      vertex  3.000000e+001  0.000000e+000  8.000000e+000
      vertex  3.000000e+001  0.000000e+000  2.000000e+000
      vertex  3.000000e+001  1.000000e+001  8.000000e+000
    endloop
  endfacet
  facet normal  1.000000e+000  0.000000e+000  0.000000e+000
    outer loop
      vertex  3.000000e+001  1.000000e+001  8.000000e+000
      vertex  3.000000e+001  0.000000e+000  2.000000e+000
      vertex  3.000000e+001  1.000000e+001  2.000000e+000
    endloop
  endfacet
  facet normal -1.000000e+000  0.000000e+000  0.000000e+000
    outer loop
      vertex  1.000000e+001  1.000000e+001  8.000000e+000
      vertex  1.000000e+001  1.000000e+001  2.000000e+000
      vertex  1.000000e+001  0.000000e+000  8.000000e+000
    endloop
  endfacet
  facet normal -1.000000e+000  0.000000e+000  0.000000e+000
    outer loop
      vertex  1.000000e+001  0.000000e+000  8.000000e+000
      vertex  1.000000e+001  1.000000e+001  2.000000e+000
      vertex  1.000000e+001  0.000000e+000  2.000000e+000
    endloop
  endfacet
  facet normal  0.000000e+000  0.000000e+000  1.000000e+000
    outer loop
      vertex  3.000000e+001  0.000000e+000  2.000000e+000
      vertex  4.000000e+001  0.000000e+000  2.000000e+000
      vertex  3.000000e+001  1.000000e+001  2.000000e+000
    endloop
  endfacet
  facet normal  -0.000000e+000  0.000000e+000  1.000000e+000
    outer loop
      vertex  3.000000e+001  1.000000e+001  2.000000e+000
      vertex  4.000000e+001  0.000000e+000  2.000000e+000
      vertex  4.000000e+001  4.000000e+001  2.000000e+000
    endloop
  endfacet
  facet normal  0.000000e+000  0.000000e+000  1.000000e+000
    outer loop
      vertex  3.000000e+001  1.000000e+001  2.000000e+000
      vertex  4.000000e+001  4.000000e+001  2.000000e+000
      vertex  1.000000e+001  1.000000e+001  2.000000e+000
    endloop
  endfacet
  facet normal  0.000000e+000  -0.000000e+000  1.000000e+000
    outer loop
      vertex  1.000000e+001  1.000000e+001  2.000000e+000
      vertex  4.000000e+001  4.000000e+001  2.000000e+000
      vertex  0.000000e+000  4.000000e+001  2.000000e+000
    endloop
  endfacet
  facet normal  0.000000e+000  0.000000e+000  1.000000e+000
    outer loop
      vertex  1.000000e+001  1.000000e+001  2.000000e+000
      vertex  0.000000e+000  4.000000e+001  2.000000e+000
      vertex  1.000000e+001  0.000000e+000  2.000000e+000
    endloop
  endfacet
  facet normal  0.000000e+000  0.000000e+000  1.000000e+000
    outer loop
      vertex  1.000000e+001  0.000000e+000  2.000000e+000
      vertex  0.000000e+000  4.000000e+001  2.000000e+000
      vertex  0.000000e+000  0.000000e+000  2.000000e+000
    endloop
  endfacet
  facet normal  0.000000e+000  1.000000e+000  0.000000e+000
    outer loop
      vertex  1.000000e+001  1.000000e+001  2.000000e+000
      vertex  1.000000e+001  1.000000e+001  8.000000e+000
      vertex  3.000000e+001  1.000000e+001  2.000000e+000
    endloop
  endfacet
  facet normal  0.000000e+000  1.000000e+000  -0.000000e+000
    outer loop
      vertex  3.000000e+001  1.000000e+001  2.000000e+000
      vertex  1.000000e+001  1.000000e+001  8.000000e+000
      vertex  3.000000e+001  1.000000e+001  8.000000e+000
    endloop
  endfacet
  facet normal  0.000000e+000  0.000000e+000  1.000000e+000
    outer loop
      vertex  1.000000e+001  0.000000e+000  8.000000e+000
      vertex  3.000000e+001  0.000000e+000  8.000000e+000
      vertex  1.000000e+001  1.000000e+001  8.000000e+000
    endloop
  endfacet
  facet normal  -0.000000e+000  0.000000e+000  1.000000e+000
    outer loop
      vertex  1.000000e+001  1.000000e+001  8.000000e+000
      vertex  3.000000e+001  0.000000e+000  8.000000e+000
      vertex  3.000000e+001  1.000000e+001  8.000000e+000
    endloop
  endfacet
  facet normal  0.000000e+000  0.000000e+000 -1.000000e+000
    outer loop
      vertex  4.000000e+001  0.000000e+000 -2.000000e+000
      vertex  0.000000e+000  0.000000e+000 -2.000000e+000
      vertex  4.000000e+001  4.000000e+001 -2.000000e+000
    endloop
  endfacet
  facet normal  -0.000000e+000  0.000000e+000 -1.000000e+000
    outer loop
      vertex  4.000000e+001  4.000000e+001 -2.000000e+000
      vertex  0.000000e+000  0.000000e+000 -2.000000e+000
      vertex  0.000000e+000  4.000000e+001 -2.000000e+000
    endloop
  endfacet
  facet normal -1.000000e+000  0.000000e+000  0.000000e+000
    outer loop
      vertex  0.000000e+000  4.000000e+001  2.000000e+000
      vertex  0.000000e+000  4.000000e+001 -2.000000e+000
      vertex  0.000000e+000  0.000000e+000  2.000000e+000
    endloop
  endfacet
  facet normal -1.000000e+000  0.000000e+000  0.000000e+000
    outer loop
      vertex  0.000000e+000  0.000000e+000  2.000000e+000
      vertex  0.000000e+000  4.000000e+001 -2.000000e+000
      vertex  0.000000e+000  0.000000e+000 -2.000000e+000
    endloop
  endfacet
  facet normal  0.000000e+000  1.000000e+000  -0.000000e+000
    outer loop
      vertex  4.000000e+001  4.000000e+001  2.000000e+000
      vertex  4.000000e+001  4.000000e+001 -2.000000e+000
      vertex  0.000000e+000  4.000000e+001  2.000000e+000
    endloop
  endfacet
  facet normal  0.000000e+000  1.000000e+000  0.000000e+000
    outer loop
      vertex  0.000000e+000  4.000000e+001  2.000000e+000
      vertex  4.000000e+001  4.000000e+001 -2.000000e+000
      vertex  0.000000e+000  4.000000e+001 -2.000000e+000
    endloop
  endfacet
  facet normal  1.000000e+000  0.000000e+000  0.000000e+000
    outer loop
      vertex  4.000000e+001  0.000000e+000  2.000000e+000
      vertex  4.000000e+001  0.000000e+000 -2.000000e+000
      vertex  4.000000e+001  4.000000e+001  2.000000e+000
    endloop
  endfacet
  facet normal  1.000000e+000  0.000000e+000  0.000000e+000
    outer loop
      vertex  4.000000e+001  4.000000e+001  2.000000e+000
      vertex  4.000000e+001  0.000000e+000 -2.000000e+000
      vertex  4.000000e+001  4.000000e+001 -2.000000e+000
    endloop
  endfacet
endsolid CATIA STL
