solid CATIA STL
  facet normal  5.555699e-001  9.977062e-004 -8.314692e-001
    outer loop
      vertex  1.882683e+001  3.400000e+002  7.612047e-001
      vertex  2.207107e+001  3.400000e+002  2.928932e+000
      vertex  2.129585e+001  1.897708e+002  2.230684e+000
    endloop
  endfacet
  facet normal  7.606177e-001 -9.075559e-004 -6.491995e-001
    outer loop
      vertex  2.366252e+001  1.894884e+002  5.003922e+000
      vertex  2.129585e+001  1.897708e+002  2.230684e+000
      vertex  2.207107e+001  3.400000e+002  2.928932e+000
    endloop
  endfacet
  facet normal  8.314689e-001  1.132398e-003 -5.555700e-001
    outer loop
      vertex  2.207107e+001  3.400000e+002  2.928932e+000
      vertex  2.423880e+001  3.400000e+002  6.173166e+000
      vertex  2.366252e+001  1.894884e+002  5.003922e+000
    endloop
  endfacet
  facet normal  1.562426e-001  0.000000e+000 -9.877187e-001
    outer loop
      vertex  1.500000e+001  1.900000e+002  0.000000e+000
      vertex  1.500000e+001  3.400000e+002  0.000000e+000
      vertex  1.808647e+001  1.899497e+002  4.882346e-001
    endloop
  endfacet
  facet normal  1.950903e-001  8.216430e-004 -9.807849e-001
    outer loop
      vertex  1.808647e+001  1.899497e+002  4.882346e-001
      vertex  1.500000e+001  3.400000e+002  0.000000e+000
      vertex  1.882683e+001  3.400000e+002  7.612047e-001
    endloop
  endfacet
  facet normal  4.771049e-001 -7.552858e-004 -8.788460e-001
    outer loop
      vertex  1.808647e+001  1.899497e+002  4.882346e-001
      vertex  1.882683e+001  3.400000e+002  7.612047e-001
      vertex  2.129585e+001  1.897708e+002  2.230684e+000
    endloop
  endfacet
  facet normal  9.807853e-001  0.000000e+000 -1.950901e-001
    outer loop
      vertex  2.500000e+001  3.400000e+002  1.000000e+001
      vertex  2.500000e+001  1.889867e+002  1.000000e+001
      vertex  2.423880e+001  3.400000e+002  6.173166e+000
    endloop
  endfacet
  facet normal  9.969364e-001  3.044639e-003 -7.815620e-002
    outer loop
      vertex  2.423880e+001  3.400000e+002  6.173166e+000
      vertex  2.500000e+001  1.889867e+002  1.000000e+001
      vertex  2.487688e+001  1.891429e+002  8.435659e+000
    endloop
  endfacet
  facet normal  9.426844e-001 -1.017137e-003 -3.336841e-001
    outer loop
      vertex  2.423880e+001  3.400000e+002  6.173166e+000
      vertex  2.487688e+001  1.891429e+002  8.435659e+000
      vertex  2.366252e+001  1.894884e+002  5.003922e+000
    endloop
  endfacet
  facet normal  0.000000e+000  0.000000e+000 -1.000000e+000
    outer loop
      vertex  1.500000e+001  3.400000e+002  0.000000e+000
      vertex  1.500000e+001  1.900000e+002  0.000000e+000
      vertex  1.000000e+001  1.900000e+002  0.000000e+000
    endloop
  endfacet
  facet normal  0.000000e+000  0.000000e+000 -1.000000e+000
    outer loop
      vertex  1.500000e+001  3.400000e+002  0.000000e+000
      vertex  1.000000e+001  1.900000e+002  0.000000e+000
      vertex -1.000000e+001  1.900000e+002  0.000000e+000
    endloop
  endfacet
  facet normal  0.000000e+000  0.000000e+000 -1.000000e+000
    outer loop
      vertex  1.500000e+001  3.400000e+002  0.000000e+000
      vertex -1.000000e+001  1.900000e+002  0.000000e+000
      vertex -1.500000e+001  1.900000e+002  0.000000e+000
    endloop
  endfacet
  facet normal  0.000000e+000  0.000000e+000 -1.000000e+000
    outer loop
      vertex  1.500000e+001  3.400000e+002  0.000000e+000
      vertex -1.500000e+001  1.900000e+002  0.000000e+000
      vertex  1.000000e+001  3.400000e+002  0.000000e+000
    endloop
  endfacet
  facet normal  -0.000000e+000  0.000000e+000 -1.000000e+000
    outer loop
      vertex -1.000000e+001  3.500000e+002  0.000000e+000
      vertex  0.000000e+000  3.500000e+002  0.000000e+000
      vertex -1.500000e+001  3.450000e+002  0.000000e+000
    endloop
  endfacet
  facet normal  0.000000e+000  0.000000e+000 -1.000000e+000
    outer loop
      vertex -1.500000e+001  3.450000e+002  0.000000e+000
      vertex  0.000000e+000  3.500000e+002  0.000000e+000
      vertex  1.000000e+001  3.400000e+002  0.000000e+000
    endloop
  endfacet
  facet normal  -0.000000e+000  0.000000e+000 -1.000000e+000
    outer loop
      vertex -1.500000e+001  3.450000e+002  0.000000e+000
      vertex  1.000000e+001  3.400000e+002  0.000000e+000
      vertex -1.500000e+001  1.900000e+002  0.000000e+000
    endloop
  endfacet
  facet normal  1.000000e+000  0.000000e+000  0.000000e+000
    outer loop
      vertex  2.500000e+001  3.400000e+002  1.000000e+001
      vertex  2.500000e+001  3.400000e+002  1.795085e+001
      vertex  2.500000e+001  1.889867e+002  1.000000e+001
    endloop
  endfacet
  facet normal  1.000000e+000  0.000000e+000  -0.000000e+000
    outer loop
      vertex  2.500000e+001  1.889867e+002  1.000000e+001
      vertex  2.500000e+001  3.400000e+002  1.795085e+001
      vertex  2.500000e+001  1.750000e+002  1.795085e+001
    endloop
  endfacet
  facet normal  9.999999e-001  0.000000e+000  0.000000e+000
    outer loop
      vertex  2.500000e+001  1.889867e+002  1.000000e+001
      vertex  2.500000e+001  1.750000e+002  1.795085e+001
      vertex  2.500000e+001  1.750000e+002  6.462568e+000
    endloop
  endfacet
  facet normal -8.660249e-001  1.009368e-003 -4.999999e-001
    outer loop
      vertex -2.366252e+001  1.894884e+002  5.003922e+000
      vertex -2.439693e+001  3.400000e+002  6.579799e+000
      vertex -2.266044e+001  3.400000e+002  3.572124e+000
    endloop
  endfacet
  facet normal -7.606072e-001 -1.111911e-003 -6.492114e-001
    outer loop
      vertex -2.366252e+001  1.894884e+002  5.003922e+000
      vertex -2.266044e+001  3.400000e+002  3.572124e+000
      vertex -2.129585e+001  1.897708e+002  2.230684e+000
    endloop
  endfacet
  facet normal -9.969173e-001  -0.000000e+000 -7.845863e-002
    outer loop
      vertex -2.500000e+001  1.889867e+002  1.000000e+001
      vertex -2.500000e+001  3.400000e+002  1.000000e+001
      vertex -2.487688e+001  1.891429e+002  8.435659e+000
    endloop
  endfacet
  facet normal -9.848073e-001  9.969659e-004 -1.736479e-001
    outer loop
      vertex -2.487688e+001  1.891429e+002  8.435659e+000
      vertex -2.500000e+001  3.400000e+002  1.000000e+001
      vertex -2.439693e+001  3.400000e+002  6.579799e+000
    endloop
  endfacet
  facet normal -9.426815e-001 -1.105939e-003 -3.336920e-001
    outer loop
      vertex -2.487688e+001  1.891429e+002  8.435659e+000
      vertex -2.439693e+001  3.400000e+002  6.579799e+000
      vertex -2.366252e+001  1.894884e+002  5.003922e+000
    endloop
  endfacet
  facet normal -1.524774e-001  0.000000e+000 -9.883070e-001
    outer loop
      vertex -1.500000e+001  3.450000e+002  0.000000e+000
      vertex -1.500000e+001  1.900000e+002  0.000000e+000
      vertex -1.801388e+001  3.419861e+002  4.649861e-001
    endloop
  endfacet
  facet normal -1.562413e-001 -7.643851e-005 -9.877189e-001
    outer loop
      vertex -1.801388e+001  3.419861e+002  4.649861e-001
      vertex -1.500000e+001  1.900000e+002  0.000000e+000
      vertex -1.808647e+001  1.899497e+002  4.882346e-001
    endloop
  endfacet
  facet normal -4.031179e-001  5.252994e-005 -9.151480e-001
    outer loop
      vertex -1.801388e+001  3.419861e+002  4.649861e-001
      vertex -1.808647e+001  1.899497e+002  4.882346e-001
      vertex -2.000000e+001  3.400000e+002  1.339746e+000
    endloop
  endfacet
  facet normal -4.770901e-001 -1.096769e-003 -8.788537e-001
    outer loop
      vertex -2.000000e+001  3.400000e+002  1.339746e+000
      vertex -1.808647e+001  1.899497e+002  4.882346e-001
      vertex -2.129585e+001  1.897708e+002  2.230684e+000
    endloop
  endfacet
  facet normal -6.427873e-001  1.001527e-003 -7.660440e-001
    outer loop
      vertex -2.000000e+001  3.400000e+002  1.339746e+000
      vertex -2.129585e+001  1.897708e+002  2.230684e+000
      vertex -2.266044e+001  3.400000e+002  3.572124e+000
    endloop
  endfacet
  facet normal  2.987966e-001  0.000000e+000  9.543168e-001
    outer loop
      vertex  1.000000e+001  1.800000e+002  2.614208e+001
      vertex  1.239718e+001  1.792009e+002  2.539152e+001
      vertex  1.000000e+001  1.900000e+002  2.614208e+001
    endloop
  endfacet
  facet normal -6.743191e-002  4.741706e-004  9.977238e-001
    outer loop
      vertex  0.000000e+000  3.500000e+002  2.750000e+001
      vertex -5.045888e+000  3.500000e+002  2.715897e+001
      vertex -3.369609e+000  1.900000e+002  2.734830e+001
    endloop
  endfacet
  facet normal  0.000000e+000 -9.481068e-004  9.999996e-001
    outer loop
      vertex  0.000000e+000  3.500000e+002  2.750000e+001
      vertex -3.369609e+000  1.900000e+002  2.734830e+001
      vertex  3.369609e+000  1.900000e+002  2.734830e+001
    endloop
  endfacet
  facet normal  6.760310e-002  4.777869e-004  9.977122e-001
    outer loop
      vertex  0.000000e+000  3.500000e+002  2.750000e+001
      vertex  3.369609e+000  1.900000e+002  2.734830e+001
      vertex  5.023205e+000  3.449768e+002  2.716204e+001
    endloop
  endfacet
  facet normal -4.694543e-001  4.065977e-004  8.829567e-001
    outer loop
      vertex -1.508841e+001  3.449116e+002  2.433060e+001
      vertex -2.000000e+001  3.400000e+002  2.172144e+001
      vertex -1.903746e+001  1.769875e+002  2.230828e+001
    endloop
  endfacet
  facet normal -4.208584e-001 -1.027294e-003  9.071257e-001
    outer loop
      vertex -1.508841e+001  3.449116e+002  2.433060e+001
      vertex -1.903746e+001  1.769875e+002  2.230828e+001
      vertex -1.239718e+001  1.792009e+002  2.539152e+001
    endloop
  endfacet
  facet normal -2.991759e-001  1.250257e-003  9.541971e-001
    outer loop
      vertex -1.508841e+001  3.449116e+002  2.433060e+001
      vertex -1.239718e+001  1.792009e+002  2.539152e+001
      vertex -1.000000e+001  1.800000e+002  2.614208e+001
    endloop
  endfacet
  facet normal -3.353828e-001  0.000000e+000  9.420819e-001
    outer loop
      vertex -1.508841e+001  3.449116e+002  2.433060e+001
      vertex -1.000000e+001  1.800000e+002  2.614208e+001
      vertex -1.000000e+001  1.900000e+002  2.614208e+001
    endloop
  endfacet
  facet normal -3.353828e-001  0.000000e+000  9.420819e-001
    outer loop
      vertex -1.508841e+001  3.449116e+002  2.433060e+001
      vertex -1.000000e+001  1.900000e+002  2.614208e+001
      vertex -1.000000e+001  3.500000e+002  2.614208e+001
    endloop
  endfacet
  facet normal  5.900330e-001  0.000000e+000  8.073791e-001
    outer loop
      vertex  2.500000e+001  1.750000e+002  1.795085e+001
      vertex  2.500000e+001  3.400000e+002  1.795085e+001
      vertex  1.903746e+001  1.769875e+002  2.230828e+001
    endloop
  endfacet
  facet normal  6.076472e-001 -9.963957e-004  7.942064e-001
    outer loop
      vertex  1.903746e+001  1.769875e+002  2.230828e+001
      vertex  2.500000e+001  3.400000e+002  1.795085e+001
      vertex  2.043981e+001  3.400000e+002  2.143985e+001
    endloop
  endfacet
  facet normal  4.792764e-001  5.525585e-004  8.776638e-001
    outer loop
      vertex  1.903746e+001  1.769875e+002  2.230828e+001
      vertex  2.043981e+001  3.400000e+002  2.143985e+001
      vertex  1.540043e+001  3.400000e+002  2.419176e+001
    endloop
  endfacet
  facet normal  1.998541e-001 -9.548230e-004  9.798253e-001
    outer loop
      vertex  5.023205e+000  3.449768e+002  2.716204e+001
      vertex  3.369609e+000  1.900000e+002  2.734830e+001
      vertex  1.000000e+001  3.400000e+002  2.614208e+001
    endloop
  endfacet
  facet normal  1.789855e-001  0.000000e+000  9.838517e-001
    outer loop
      vertex  1.000000e+001  3.400000e+002  2.614208e+001
      vertex  3.369609e+000  1.900000e+002  2.734830e+001
      vertex  1.000000e+001  1.900000e+002  2.614208e+001
    endloop
  endfacet
  facet normal  3.396693e-001  -0.000000e+000  9.405449e-001
    outer loop
      vertex  1.000000e+001  3.400000e+002  2.614208e+001
      vertex  1.000000e+001  1.900000e+002  2.614208e+001
      vertex  1.540043e+001  3.400000e+002  2.419176e+001
    endloop
  endfacet
  facet normal  3.046064e-001  1.417511e-003  9.524773e-001
    outer loop
      vertex  1.540043e+001  3.400000e+002  2.419176e+001
      vertex  1.000000e+001  1.900000e+002  2.614208e+001
      vertex  1.239718e+001  1.792009e+002  2.539152e+001
    endloop
  endfacet
  facet normal  4.208407e-001 -1.091722e-003  9.071339e-001
    outer loop
      vertex  1.540043e+001  3.400000e+002  2.419176e+001
      vertex  1.239718e+001  1.792009e+002  2.539152e+001
      vertex  1.903746e+001  1.769875e+002  2.230828e+001
    endloop
  endfacet
  facet normal -2.010695e-001 -9.473910e-004  9.795765e-001
    outer loop
      vertex -5.045888e+000  3.500000e+002  2.715897e+001
      vertex -1.000000e+001  3.500000e+002  2.614208e+001
      vertex -3.369609e+000  1.900000e+002  2.734830e+001
    endloop
  endfacet
  facet normal -1.789856e-001  0.000000e+000  9.838518e-001
    outer loop
      vertex -3.369609e+000  1.900000e+002  2.734830e+001
      vertex -1.000000e+001  3.500000e+002  2.614208e+001
      vertex -1.000000e+001  1.900000e+002  2.614208e+001
    endloop
  endfacet
  facet normal -6.021024e-001 -6.809853e-004  7.984186e-001
    outer loop
      vertex -2.000000e+001  3.400000e+002  2.172144e+001
      vertex -2.500000e+001  3.400000e+002  1.795085e+001
      vertex -1.903746e+001  1.769875e+002  2.230828e+001
    endloop
  endfacet
  facet normal -5.900330e-001  0.000000e+000  8.073791e-001
    outer loop
      vertex -1.903746e+001  1.769875e+002  2.230828e+001
      vertex -2.500000e+001  3.400000e+002  1.795085e+001
      vertex -2.500000e+001  1.750000e+002  1.795085e+001
    endloop
  endfacet
  facet normal -1.000000e+000  0.000000e+000  0.000000e+000
    outer loop
      vertex -2.500000e+001  3.400000e+002  1.795085e+001
      vertex -2.500000e+001  3.400000e+002  1.000000e+001
      vertex -2.500000e+001  1.750000e+002  1.795085e+001
    endloop
  endfacet
  facet normal -1.000000e+000  0.000000e+000  0.000000e+000
    outer loop
      vertex -2.500000e+001  1.750000e+002  1.795085e+001
      vertex -2.500000e+001  3.400000e+002  1.000000e+001
      vertex -2.500000e+001  1.889867e+002  1.000000e+001
    endloop
  endfacet
  facet normal -9.999999e-001  -0.000000e+000  0.000000e+000
    outer loop
      vertex -2.500000e+001  1.750000e+002  1.795085e+001
      vertex -2.500000e+001  1.889867e+002  1.000000e+001
      vertex -2.500000e+001  1.750000e+002  6.462568e+000
    endloop
  endfacet
  facet normal  9.659258e-001  -0.000000e+000  2.588190e-001
    outer loop
      vertex -4.350000e+000  3.500000e+002  5.000000e+000
      vertex -4.350000e+000  1.900000e+002  5.000000e+000
      vertex -3.767210e+000  3.500000e+002  2.825000e+000
    endloop
  endfacet
  facet normal  9.659258e-001  0.000000e+000  2.588190e-001
    outer loop
      vertex -3.767210e+000  3.500000e+002  2.825000e+000
      vertex -4.350000e+000  1.900000e+002  5.000000e+000
      vertex -3.767210e+000  1.900000e+002  2.825000e+000
    endloop
  endfacet
  facet normal  7.071068e-001  -0.000000e+000  7.071068e-001
    outer loop
      vertex -3.767210e+000  3.500000e+002  2.825000e+000
      vertex -3.767210e+000  1.900000e+002  2.825000e+000
      vertex -2.175000e+000  3.500000e+002  1.232790e+000
    endloop
  endfacet
  facet normal  7.071068e-001  0.000000e+000  7.071068e-001
    outer loop
      vertex -2.175000e+000  3.500000e+002  1.232790e+000
      vertex -3.767210e+000  1.900000e+002  2.825000e+000
      vertex -2.175000e+000  1.900000e+002  1.232790e+000
    endloop
  endfacet
  facet normal  2.588190e-001  -0.000000e+000  9.659258e-001
    outer loop
      vertex -2.175000e+000  3.500000e+002  1.232790e+000
      vertex -2.175000e+000  1.900000e+002  1.232790e+000
      vertex  0.000000e+000  3.500000e+002  6.500000e-001
    endloop
  endfacet
  facet normal  2.588190e-001  2.873469e-018  9.659258e-001
    outer loop
      vertex  0.000000e+000  3.500000e+002  6.500000e-001
      vertex -2.175000e+000  1.900000e+002  1.232790e+000
      vertex  1.776357e-015  1.900000e+002  6.500000e-001
    endloop
  endfacet
  facet normal -2.659810e-001 -2.952982e-018  9.639782e-001
    outer loop
      vertex  0.000000e+000  3.500000e+002  6.500000e-001
      vertex  1.776357e-015  1.900000e+002  6.500000e-001
      vertex  2.230679e+000  3.477693e+002  1.265489e+000
    endloop
  endfacet
  facet normal -2.588190e-001 -1.088598e-004  9.659258e-001
    outer loop
      vertex  2.230679e+000  3.477693e+002  1.265489e+000
      vertex  1.776357e-015  1.900000e+002  6.500000e-001
      vertex  2.175000e+000  1.900000e+002  1.232790e+000
    endloop
  endfacet
  facet normal -6.654502e-001  8.013781e-005  7.464421e-001
    outer loop
      vertex  2.230679e+000  3.477693e+002  1.265489e+000
      vertex  2.175000e+000  1.900000e+002  1.232790e+000
      vertex  3.455247e+000  3.465447e+002  2.357318e+000
    endloop
  endfacet
  facet normal -7.071066e-001  7.033748e-004  7.071066e-001
    outer loop
      vertex  3.455247e+000  3.465447e+002  2.357318e+000
      vertex  2.175000e+000  1.900000e+002  1.232790e+000
      vertex  3.767210e+000  1.900000e+002  2.825000e+000
    endloop
  endfacet
  facet normal -8.892770e-001 -4.057547e-004  4.573689e-001
    outer loop
      vertex  3.455247e+000  3.465447e+002  2.357318e+000
      vertex  3.767210e+000  1.900000e+002  2.825000e+000
      vertex  4.158896e+000  3.458411e+002  3.724822e+000
    endloop
  endfacet
  facet normal -9.659258e-001  0.000000e+000  2.588190e-001
    outer loop
      vertex  4.350000e+000  1.900000e+002  5.000000e+000
      vertex  4.350000e+000  3.456500e+002  5.000000e+000
      vertex  3.767210e+000  1.900000e+002  2.825000e+000
    endloop
  endfacet
  facet normal -9.889190e-001  1.628385e-003  1.484475e-001
    outer loop
      vertex  3.767210e+000  1.900000e+002  2.825000e+000
      vertex  4.350000e+000  3.456500e+002  5.000000e+000
      vertex  4.158896e+000  3.458411e+002  3.724822e+000
    endloop
  endfacet
  facet normal -9.889560e-001  0.000000e+000 -1.482091e-001
    outer loop
      vertex  4.350000e+000  3.456500e+002  5.000000e+000
      vertex  4.350000e+000  1.900000e+002  5.000000e+000
      vertex  4.158896e+000  3.458411e+002  6.275178e+000
    endloop
  endfacet
  facet normal -9.659255e-001  9.333126e-004 -2.588189e-001
    outer loop
      vertex  4.158896e+000  3.458411e+002  6.275178e+000
      vertex  4.350000e+000  1.900000e+002  5.000000e+000
      vertex  3.767210e+000  1.900000e+002  7.175000e+000
    endloop
  endfacet
  facet normal -8.892770e-001 -4.057554e-004 -4.573689e-001
    outer loop
      vertex  4.158896e+000  3.458411e+002  6.275178e+000
      vertex  3.767210e+000  1.900000e+002  7.175000e+000
      vertex  3.455247e+000  3.465447e+002  7.642682e+000
    endloop
  endfacet
  facet normal -6.649897e-001  9.060455e-004 -7.468521e-001
    outer loop
      vertex  3.455247e+000  3.465447e+002  7.642682e+000
      vertex  3.767210e+000  1.900000e+002  7.175000e+000
      vertex  2.230679e+000  3.477693e+002  8.734510e+000
    endloop
  endfacet
  facet normal -7.071068e-001  1.029887e-004 -7.071067e-001
    outer loop
      vertex  2.230679e+000  3.477693e+002  8.734510e+000
      vertex  3.767210e+000  1.900000e+002  7.175000e+000
      vertex  2.175000e+000  1.900000e+002  8.767211e+000
    endloop
  endfacet
  facet normal -2.660797e-001 -1.058925e-004 -9.639510e-001
    outer loop
      vertex  2.230679e+000  3.477693e+002  8.734510e+000
      vertex  2.175000e+000  1.900000e+002  8.767211e+000
      vertex  0.000000e+000  3.500000e+002  9.350000e+000
    endloop
  endfacet
  facet normal -2.588190e-001  -0.000000e+000 -9.659258e-001
    outer loop
      vertex  0.000000e+000  3.500000e+002  9.350000e+000
      vertex  2.175000e+000  1.900000e+002  8.767211e+000
      vertex  0.000000e+000  1.900000e+002  9.350000e+000
    endloop
  endfacet
  facet normal  2.588190e-001  0.000000e+000 -9.659258e-001
    outer loop
      vertex  0.000000e+000  3.500000e+002  9.350000e+000
      vertex  0.000000e+000  1.900000e+002  9.350000e+000
      vertex -2.175000e+000  3.500000e+002  8.767211e+000
    endloop
  endfacet
  facet normal  2.588190e-001  0.000000e+000 -9.659258e-001
    outer loop
      vertex -2.175000e+000  3.500000e+002  8.767211e+000
      vertex  0.000000e+000  1.900000e+002  9.350000e+000
      vertex -2.175000e+000  1.900000e+002  8.767211e+000
    endloop
  endfacet
  facet normal  7.071068e-001  0.000000e+000 -7.071067e-001
    outer loop
      vertex -2.175000e+000  3.500000e+002  8.767211e+000
      vertex -2.175000e+000  1.900000e+002  8.767211e+000
      vertex -3.767210e+000  3.500000e+002  7.175000e+000
    endloop
  endfacet
  facet normal  7.071068e-001  0.000000e+000 -7.071067e-001
    outer loop
      vertex -3.767210e+000  3.500000e+002  7.175000e+000
      vertex -2.175000e+000  1.900000e+002  8.767211e+000
      vertex -3.767210e+000  1.900000e+002  7.175000e+000
    endloop
  endfacet
  facet normal  9.659258e-001  0.000000e+000 -2.588190e-001
    outer loop
      vertex -3.767210e+000  3.500000e+002  7.175000e+000
      vertex -3.767210e+000  1.900000e+002  7.175000e+000
      vertex -4.350000e+000  3.500000e+002  5.000000e+000
    endloop
  endfacet
  facet normal  9.659258e-001  0.000000e+000 -2.588190e-001
    outer loop
      vertex -4.350000e+000  3.500000e+002  5.000000e+000
      vertex -3.767210e+000  1.900000e+002  7.175000e+000
      vertex -4.350000e+000  1.900000e+002  5.000000e+000
    endloop
  endfacet
  facet normal  5.877851e-001  8.964695e-004  8.090166e-001
    outer loop
      vertex -1.019756e+000  1.900000e+002  1.686151e+001
      vertex -1.650000e+000  3.500000e+002  1.714212e+001
      vertex -2.669756e+000  1.900000e+002  1.806031e+001
    endloop
  endfacet
  facet normal  2.588188e-001 -6.745192e-004  9.659256e-001
    outer loop
      vertex  0.000000e+000  3.500000e+002  1.670000e+001
      vertex -1.650000e+000  3.500000e+002  1.714212e+001
      vertex -1.019756e+000  1.900000e+002  1.686151e+001
    endloop
  endfacet
  facet normal  -0.000000e+000  1.009452e-003  9.999994e-001
    outer loop
      vertex  0.000000e+000  3.500000e+002  1.670000e+001
      vertex -1.019756e+000  1.900000e+002  1.686151e+001
      vertex  1.019756e+000  1.900000e+002  1.686151e+001
    endloop
  endfacet
  facet normal -1.864823e-001 -1.967956e-004  9.824583e-001
    outer loop
      vertex  0.000000e+000  3.500000e+002  1.670000e+001
      vertex  1.019756e+000  1.900000e+002  1.686151e+001
      vertex  1.208014e+000  3.487920e+002  1.692905e+001
    endloop
  endfacet
  facet normal  9.659259e-001  -0.000000e+000  2.588190e-001
    outer loop
      vertex -3.300000e+000  3.500000e+002  2.000000e+001
      vertex -3.300000e+000  1.900000e+002  2.000000e+001
      vertex -2.857884e+000  3.500000e+002  1.835000e+001
    endloop
  endfacet
  facet normal  9.510564e-001  5.587526e-004  3.090169e-001
    outer loop
      vertex -2.857884e+000  3.500000e+002  1.835000e+001
      vertex -3.300000e+000  1.900000e+002  2.000000e+001
      vertex -2.669756e+000  1.900000e+002  1.806031e+001
    endloop
  endfacet
  facet normal  7.071066e-001 -4.488545e-004  7.071067e-001
    outer loop
      vertex -2.857884e+000  3.500000e+002  1.835000e+001
      vertex -2.669756e+000  1.900000e+002  1.806031e+001
      vertex -1.650000e+000  3.500000e+002  1.714212e+001
    endloop
  endfacet
  facet normal -5.625260e-001  3.152449e-004  8.267796e-001
    outer loop
      vertex  1.208014e+000  3.487920e+002  1.692905e+001
      vertex  1.019756e+000  1.900000e+002  1.686151e+001
      vertex  2.414174e+000  3.475858e+002  1.775016e+001
    endloop
  endfacet
  facet normal -5.877852e-001  6.389207e-004  8.090168e-001
    outer loop
      vertex  2.414174e+000  3.475858e+002  1.775016e+001
      vertex  1.019756e+000  1.900000e+002  1.686151e+001
      vertex  2.669756e+000  1.900000e+002  1.806031e+001
    endloop
  endfacet
  facet normal -8.547579e-001 -3.648007e-004  5.190266e-001
    outer loop
      vertex  2.414174e+000  3.475858e+002  1.775016e+001
      vertex  2.669756e+000  1.900000e+002  1.806031e+001
      vertex  3.109298e+000  3.468907e+002  1.889444e+001
    endloop
  endfacet
  facet normal -9.510566e-001  0.000000e+000  3.090169e-001
    outer loop
      vertex  3.300000e+000  1.900000e+002  2.000000e+001
      vertex  3.300000e+000  3.467000e+002  2.000000e+001
      vertex  2.669756e+000  1.900000e+002  1.806031e+001
    endloop
  endfacet
  facet normal -9.853916e-001  1.855261e-003  1.702938e-001
    outer loop
      vertex  2.669756e+000  1.900000e+002  1.806031e+001
      vertex  3.300000e+000  3.467000e+002  2.000000e+001
      vertex  3.109298e+000  3.468907e+002  1.889444e+001
    endloop
  endfacet
  facet normal  5.877851e-001  8.964695e-004 -8.090166e-001
    outer loop
      vertex -1.650000e+000  3.500000e+002  2.285788e+001
      vertex -1.019756e+000  1.900000e+002  2.313849e+001
      vertex -2.669756e+000  1.900000e+002  2.193969e+001
    endloop
  endfacet
  facet normal -1.864823e-001 -1.967956e-004 -9.824583e-001
    outer loop
      vertex  0.000000e+000  3.500000e+002  2.330000e+001
      vertex  1.208014e+000  3.487920e+002  2.307095e+001
      vertex  1.019756e+000  1.900000e+002  2.313849e+001
    endloop
  endfacet
  facet normal  0.000000e+000  1.009452e-003 -9.999994e-001
    outer loop
      vertex  0.000000e+000  3.500000e+002  2.330000e+001
      vertex  1.019756e+000  1.900000e+002  2.313849e+001
      vertex -1.019756e+000  1.900000e+002  2.313849e+001
    endloop
  endfacet
  facet normal  2.588188e-001 -6.745192e-004 -9.659256e-001
    outer loop
      vertex  0.000000e+000  3.500000e+002  2.330000e+001
      vertex -1.019756e+000  1.900000e+002  2.313849e+001
      vertex -1.650000e+000  3.500000e+002  2.285788e+001
    endloop
  endfacet
  facet normal -9.854470e-001  0.000000e+000 -1.699833e-001
    outer loop
      vertex  3.300000e+000  3.467000e+002  2.000000e+001
      vertex  3.300000e+000  1.900000e+002  2.000000e+001
      vertex  3.109298e+000  3.468907e+002  2.110556e+001
    endloop
  endfacet
  facet normal -9.510561e-001  1.021530e-003 -3.090167e-001
    outer loop
      vertex  3.109298e+000  3.468907e+002  2.110556e+001
      vertex  3.300000e+000  1.900000e+002  2.000000e+001
      vertex  2.669756e+000  1.900000e+002  2.193969e+001
    endloop
  endfacet
  facet normal -8.547579e-001 -3.648007e-004 -5.190266e-001
    outer loop
      vertex  3.109298e+000  3.468907e+002  2.110556e+001
      vertex  2.669756e+000  1.900000e+002  2.193969e+001
      vertex  2.414174e+000  3.475858e+002  2.224984e+001
    endloop
  endfacet
  facet normal -5.625260e-001  3.152449e-004 -8.267796e-001
    outer loop
      vertex  1.208014e+000  3.487920e+002  2.307095e+001
      vertex  2.414174e+000  3.475858e+002  2.224984e+001
      vertex  1.019756e+000  1.900000e+002  2.313849e+001
    endloop
  endfacet
  facet normal -5.877852e-001  6.389207e-004 -8.090168e-001
    outer loop
      vertex  1.019756e+000  1.900000e+002  2.313849e+001
      vertex  2.414174e+000  3.475858e+002  2.224984e+001
      vertex  2.669756e+000  1.900000e+002  2.193969e+001
    endloop
  endfacet
  facet normal  9.510566e-001  0.000000e+000 -3.090169e-001
    outer loop
      vertex -3.300000e+000  1.900000e+002  2.000000e+001
      vertex -3.300000e+000  3.500000e+002  2.000000e+001
      vertex -2.669756e+000  1.900000e+002  2.193969e+001
    endloop
  endfacet
  facet normal  9.659256e-001  6.671229e-004 -2.588190e-001
    outer loop
      vertex -2.669756e+000  1.900000e+002  2.193969e+001
      vertex -3.300000e+000  3.500000e+002  2.000000e+001
      vertex -2.857884e+000  3.500000e+002  2.165000e+001
    endloop
  endfacet
  facet normal  7.071066e-001 -4.488545e-004 -7.071067e-001
    outer loop
      vertex -2.669756e+000  1.900000e+002  2.193969e+001
      vertex -2.857884e+000  3.500000e+002  2.165000e+001
      vertex -1.650000e+000  3.500000e+002  2.285788e+001
    endloop
  endfacet
  facet normal  7.071050e-001  7.071086e-001  0.000000e+000
    outer loop
      vertex  0.000000e+000  3.500000e+002  9.350000e+000
      vertex  0.000000e+000  3.500000e+002  1.670000e+001
      vertex  1.208014e+000  3.487920e+002  1.692905e+001
    endloop
  endfacet
  facet normal  7.071124e-001  7.071011e-001 -2.372992e-006
    outer loop
      vertex  0.000000e+000  3.500000e+002  9.350000e+000
      vertex  1.208014e+000  3.487920e+002  1.692905e+001
      vertex  2.414174e+000  3.475858e+002  1.775016e+001
    endloop
  endfacet
  facet normal  7.071116e-001  7.071021e-001 -2.745350e-006
    outer loop
      vertex  1.000000e+001  3.400000e+002  2.614208e+001
      vertex  4.158896e+000  3.458411e+002  3.724822e+000
      vertex  4.350000e+000  3.456500e+002  5.000000e+000
    endloop
  endfacet
  facet normal  7.071049e-001  7.071086e-001  7.725646e-007
    outer loop
      vertex  1.000000e+001  3.400000e+002  2.614208e+001
      vertex  4.350000e+000  3.456500e+002  5.000000e+000
      vertex  4.158896e+000  3.458411e+002  6.275178e+000
    endloop
  endfacet
  facet normal  7.071047e-001  7.071088e-001  8.814638e-007
    outer loop
      vertex  1.000000e+001  3.400000e+002  2.614208e+001
      vertex  4.158896e+000  3.458411e+002  6.275178e+000
      vertex  3.455247e+000  3.465447e+002  7.642682e+000
    endloop
  endfacet
  facet normal  7.071090e-001  7.071045e-001 -2.155896e-006
    outer loop
      vertex  1.000000e+001  3.400000e+002  2.614208e+001
      vertex  3.455247e+000  3.465447e+002  7.642682e+000
      vertex  2.230679e+000  3.477693e+002  8.734510e+000
    endloop
  endfacet
  facet normal  7.071072e-001  7.071064e-001 -4.939000e-007
    outer loop
      vertex  1.000000e+001  3.400000e+002  2.614208e+001
      vertex  2.230679e+000  3.477693e+002  8.734510e+000
      vertex  0.000000e+000  3.500000e+002  9.350000e+000
    endloop
  endfacet
  facet normal  7.071053e-001  7.071081e-001  1.667932e-006
    outer loop
      vertex  1.000000e+001  3.400000e+002  2.614208e+001
      vertex  0.000000e+000  3.500000e+002  9.350000e+000
      vertex  2.414174e+000  3.475858e+002  1.775016e+001
    endloop
  endfacet
  facet normal  7.071306e-001  7.070829e-001 -4.400823e-005
    outer loop
      vertex  1.000000e+001  3.400000e+002  2.614208e+001
      vertex  2.414174e+000  3.475858e+002  1.775016e+001
      vertex  3.109298e+000  3.468907e+002  1.889444e+001
    endloop
  endfacet
  facet normal  7.071069e-001  7.071066e-001  1.180971e-006
    outer loop
      vertex  1.000000e+001  3.400000e+002  2.614208e+001
      vertex  3.109298e+000  3.468907e+002  1.889444e+001
      vertex  3.300000e+000  3.467000e+002  2.000000e+001
    endloop
  endfacet
  facet normal  7.071078e-001  7.071058e-001 -8.584725e-007
    outer loop
      vertex  1.000000e+001  3.400000e+002  2.614208e+001
      vertex  3.300000e+000  3.467000e+002  2.000000e+001
      vertex  3.109298e+000  3.468907e+002  2.110556e+001
    endloop
  endfacet
  facet normal  7.071036e-001  7.071101e-001  1.102455e-005
    outer loop
      vertex  1.000000e+001  3.400000e+002  2.614208e+001
      vertex  3.109298e+000  3.468907e+002  2.110556e+001
      vertex  2.414174e+000  3.475858e+002  2.224984e+001
    endloop
  endfacet
  facet normal  7.071085e-001  7.071049e-001 -8.897286e-006
    outer loop
      vertex  1.000000e+001  3.400000e+002  2.614208e+001
      vertex  2.414174e+000  3.475858e+002  2.224984e+001
      vertex  1.208014e+000  3.487920e+002  2.307095e+001
    endloop
  endfacet
  facet normal  7.071056e-001  7.071078e-001  7.586815e-006
    outer loop
      vertex  1.000000e+001  3.400000e+002  2.614208e+001
      vertex  1.208014e+000  3.487920e+002  2.307095e+001
      vertex  0.000000e+000  3.500000e+002  2.330000e+001
    endloop
  endfacet
  facet normal  7.071068e-001  7.071068e-001  -0.000000e+000
    outer loop
      vertex  1.000000e+001  3.400000e+002  2.614208e+001
      vertex  0.000000e+000  3.500000e+002  2.330000e+001
      vertex  0.000000e+000  3.500000e+002  2.750000e+001
    endloop
  endfacet
  facet normal  7.071052e-001  7.071084e-001 -2.351338e-005
    outer loop
      vertex  1.000000e+001  3.400000e+002  2.614208e+001
      vertex  0.000000e+000  3.500000e+002  2.750000e+001
      vertex  5.023205e+000  3.449768e+002  2.716204e+001
    endloop
  endfacet
  facet normal  7.071067e-001  7.071067e-001  -0.000000e+000
    outer loop
      vertex  1.000000e+001  3.400000e+002  0.000000e+000
      vertex  0.000000e+000  3.500000e+002  0.000000e+000
      vertex  0.000000e+000  3.500000e+002  6.500000e-001
    endloop
  endfacet
  facet normal  7.071069e-001  7.071067e-001  2.881898e-006
    outer loop
      vertex  1.000000e+001  3.400000e+002  0.000000e+000
      vertex  0.000000e+000  3.500000e+002  6.500000e-001
      vertex  2.230679e+000  3.477693e+002  1.265489e+000
    endloop
  endfacet
  facet normal  7.071072e-001  7.071064e-001  6.383128e-006
    outer loop
      vertex  1.000000e+001  3.400000e+002  0.000000e+000
      vertex  2.230679e+000  3.477693e+002  1.265489e+000
      vertex  3.455247e+000  3.465447e+002  2.357318e+000
    endloop
  endfacet
  facet normal  7.071056e-001  7.071078e-001 -1.825214e-006
    outer loop
      vertex  1.000000e+001  3.400000e+002  0.000000e+000
      vertex  3.455247e+000  3.465447e+002  2.357318e+000
      vertex  4.158896e+000  3.458411e+002  3.724822e+000
    endloop
  endfacet
  facet normal  7.071062e-001  7.071073e-001  0.000000e+000
    outer loop
      vertex  1.000000e+001  3.400000e+002  0.000000e+000
      vertex  4.158896e+000  3.458411e+002  3.724822e+000
      vertex  1.000000e+001  3.400000e+002  2.614208e+001
    endloop
  endfacet
  facet normal  0.000000e+000  9.999999e-001  0.000000e+000
    outer loop
      vertex  1.500000e+001  3.400000e+002  0.000000e+000
      vertex  1.000000e+001  3.400000e+002  0.000000e+000
      vertex  1.882683e+001  3.400000e+002  7.612047e-001
    endloop
  endfacet
  facet normal  0.000000e+000  1.000000e+000  -0.000000e+000
    outer loop
      vertex  1.882683e+001  3.400000e+002  7.612047e-001
      vertex  1.000000e+001  3.400000e+002  0.000000e+000
      vertex  2.500000e+001  3.400000e+002  1.000000e+001
    endloop
  endfacet
  facet normal  0.000000e+000  1.000000e+000  0.000000e+000
    outer loop
      vertex  1.882683e+001  3.400000e+002  7.612047e-001
      vertex  2.500000e+001  3.400000e+002  1.000000e+001
      vertex  2.207107e+001  3.400000e+002  2.928932e+000
    endloop
  endfacet
  facet normal  0.000000e+000  1.000000e+000  0.000000e+000
    outer loop
      vertex  2.207107e+001  3.400000e+002  2.928932e+000
      vertex  2.500000e+001  3.400000e+002  1.000000e+001
      vertex  2.423880e+001  3.400000e+002  6.173166e+000
    endloop
  endfacet
  facet normal  0.000000e+000  9.999999e-001  0.000000e+000
    outer loop
      vertex  2.500000e+001  3.400000e+002  1.000000e+001
      vertex  1.000000e+001  3.400000e+002  0.000000e+000
      vertex  2.500000e+001  3.400000e+002  1.795085e+001
    endloop
  endfacet
  facet normal  0.000000e+000  9.999999e-001  0.000000e+000
    outer loop
      vertex  2.500000e+001  3.400000e+002  1.795085e+001
      vertex  1.000000e+001  3.400000e+002  0.000000e+000
      vertex  1.000000e+001  3.400000e+002  2.614208e+001
    endloop
  endfacet
  facet normal  0.000000e+000  1.000000e+000  0.000000e+000
    outer loop
      vertex  2.500000e+001  3.400000e+002  1.795085e+001
      vertex  1.000000e+001  3.400000e+002  2.614208e+001
      vertex  2.043981e+001  3.400000e+002  2.143985e+001
    endloop
  endfacet
  facet normal  0.000000e+000  1.000000e+000  0.000000e+000
    outer loop
      vertex  2.043981e+001  3.400000e+002  2.143985e+001
      vertex  1.000000e+001  3.400000e+002  2.614208e+001
      vertex  1.540043e+001  3.400000e+002  2.419176e+001
    endloop
  endfacet
  facet normal  0.000000e+000  1.000000e+000  0.000000e+000
    outer loop
      vertex -2.500000e+001  3.400000e+002  1.795085e+001
      vertex -2.000000e+001  3.400000e+002  2.172144e+001
      vertex -2.500000e+001  3.400000e+002  1.000000e+001
    endloop
  endfacet
  facet normal  -0.000000e+000  1.000000e+000  0.000000e+000
    outer loop
      vertex -2.500000e+001  3.400000e+002  1.000000e+001
      vertex -2.000000e+001  3.400000e+002  2.172144e+001
      vertex -2.000000e+001  3.400000e+002  1.339746e+000
    endloop
  endfacet
  facet normal  0.000000e+000  1.000000e+000  0.000000e+000
    outer loop
      vertex -2.500000e+001  3.400000e+002  1.000000e+001
      vertex -2.000000e+001  3.400000e+002  1.339746e+000
      vertex -2.439693e+001  3.400000e+002  6.579799e+000
    endloop
  endfacet
  facet normal  0.000000e+000  1.000000e+000  0.000000e+000
    outer loop
      vertex -2.439693e+001  3.400000e+002  6.579799e+000
      vertex -2.000000e+001  3.400000e+002  1.339746e+000
      vertex -2.266044e+001  3.400000e+002  3.572124e+000
    endloop
  endfacet
  facet normal -7.071068e-001  7.071068e-001  2.900515e-006
    outer loop
      vertex -1.500000e+001  3.450000e+002  0.000000e+000
      vertex -1.801388e+001  3.419861e+002  4.649861e-001
      vertex -1.000000e+001  3.500000e+002  0.000000e+000
    endloop
  endfacet
  facet normal -7.071069e-001  7.071066e-001 -2.215811e-006
    outer loop
      vertex -1.000000e+001  3.500000e+002  0.000000e+000
      vertex -1.801388e+001  3.419861e+002  4.649861e-001
      vertex -2.000000e+001  3.400000e+002  1.339746e+000
    endloop
  endfacet
  facet normal -7.071068e-001  7.071068e-001  0.000000e+000
    outer loop
      vertex -1.000000e+001  3.500000e+002  0.000000e+000
      vertex -2.000000e+001  3.400000e+002  1.339746e+000
      vertex -1.000000e+001  3.500000e+002  2.614208e+001
    endloop
  endfacet
  facet normal -7.071068e-001  7.071068e-001  0.000000e+000
    outer loop
      vertex -1.000000e+001  3.500000e+002  2.614208e+001
      vertex -2.000000e+001  3.400000e+002  1.339746e+000
      vertex -2.000000e+001  3.400000e+002  2.172144e+001
    endloop
  endfacet
  facet normal -7.071078e-001  7.071058e-001  4.619687e-006
    outer loop
      vertex -1.000000e+001  3.500000e+002  2.614208e+001
      vertex -2.000000e+001  3.400000e+002  2.172144e+001
      vertex -1.508841e+001  3.449116e+002  2.433060e+001
    endloop
  endfacet
  facet normal  0.000000e+000  1.000000e+000  0.000000e+000
    outer loop
      vertex -1.650000e+000  3.500000e+002  1.714212e+001
      vertex  0.000000e+000  3.500000e+002  1.670000e+001
      vertex  0.000000e+000  3.500000e+002  9.350000e+000
    endloop
  endfacet
  facet normal  0.000000e+000  9.999999e-001  0.000000e+000
    outer loop
      vertex -2.857884e+000  3.500000e+002  1.835000e+001
      vertex -1.650000e+000  3.500000e+002  1.714212e+001
      vertex  0.000000e+000  3.500000e+002  9.350000e+000
    endloop
  endfacet
  facet normal  -0.000000e+000  1.000000e+000  0.000000e+000
    outer loop
      vertex -1.000000e+001  3.500000e+002  2.614208e+001
      vertex -5.045888e+000  3.500000e+002  2.715897e+001
      vertex  0.000000e+000  3.500000e+002  2.750000e+001
    endloop
  endfacet
  facet normal  0.000000e+000  9.999999e-001  0.000000e+000
    outer loop
      vertex -1.000000e+001  3.500000e+002  2.614208e+001
      vertex  0.000000e+000  3.500000e+002  2.750000e+001
      vertex  0.000000e+000  3.500000e+002  2.330000e+001
    endloop
  endfacet
  facet normal  0.000000e+000  1.000000e+000  0.000000e+000
    outer loop
      vertex -1.000000e+001  3.500000e+002  2.614208e+001
      vertex  0.000000e+000  3.500000e+002  2.330000e+001
      vertex -1.650000e+000  3.500000e+002  2.285788e+001
    endloop
  endfacet
  facet normal  0.000000e+000  1.000000e+000  0.000000e+000
    outer loop
      vertex -1.000000e+001  3.500000e+002  2.614208e+001
      vertex -1.650000e+000  3.500000e+002  2.285788e+001
      vertex -2.857884e+000  3.500000e+002  2.165000e+001
    endloop
  endfacet
  facet normal  0.000000e+000  1.000000e+000  0.000000e+000
    outer loop
      vertex -1.000000e+001  3.500000e+002  2.614208e+001
      vertex -2.857884e+000  3.500000e+002  2.165000e+001
      vertex -3.300000e+000  3.500000e+002  2.000000e+001
    endloop
  endfacet
  facet normal  0.000000e+000  1.000000e+000  0.000000e+000
    outer loop
      vertex -1.000000e+001  3.500000e+002  2.614208e+001
      vertex -3.300000e+000  3.500000e+002  2.000000e+001
      vertex -2.857884e+000  3.500000e+002  1.835000e+001
    endloop
  endfacet
  facet normal  0.000000e+000  1.000000e+000  0.000000e+000
    outer loop
      vertex -1.000000e+001  3.500000e+002  2.614208e+001
      vertex -2.857884e+000  3.500000e+002  1.835000e+001
      vertex  0.000000e+000  3.500000e+002  9.350000e+000
    endloop
  endfacet
  facet normal  0.000000e+000  1.000000e+000  0.000000e+000
    outer loop
      vertex -1.000000e+001  3.500000e+002  2.614208e+001
      vertex  0.000000e+000  3.500000e+002  9.350000e+000
      vertex -2.175000e+000  3.500000e+002  8.767211e+000
    endloop
  endfacet
  facet normal  0.000000e+000  1.000000e+000  0.000000e+000
    outer loop
      vertex -1.000000e+001  3.500000e+002  2.614208e+001
      vertex -2.175000e+000  3.500000e+002  8.767211e+000
      vertex -3.767210e+000  3.500000e+002  7.175000e+000
    endloop
  endfacet
  facet normal  0.000000e+000  1.000000e+000  0.000000e+000
    outer loop
      vertex -1.000000e+001  3.500000e+002  2.614208e+001
      vertex -3.767210e+000  3.500000e+002  7.175000e+000
      vertex -4.350000e+000  3.500000e+002  5.000000e+000
    endloop
  endfacet
  facet normal  0.000000e+000  1.000000e+000  0.000000e+000
    outer loop
      vertex -1.000000e+001  3.500000e+002  0.000000e+000
      vertex -1.000000e+001  3.500000e+002  2.614208e+001
      vertex -4.350000e+000  3.500000e+002  5.000000e+000
    endloop
  endfacet
  facet normal  0.000000e+000  9.999999e-001  0.000000e+000
    outer loop
      vertex -1.000000e+001  3.500000e+002  0.000000e+000
      vertex -4.350000e+000  3.500000e+002  5.000000e+000
      vertex -3.767210e+000  3.500000e+002  2.825000e+000
    endloop
  endfacet
  facet normal  0.000000e+000  9.999999e-001  0.000000e+000
    outer loop
      vertex -1.000000e+001  3.500000e+002  0.000000e+000
      vertex -3.767210e+000  3.500000e+002  2.825000e+000
      vertex -2.175000e+000  3.500000e+002  1.232790e+000
    endloop
  endfacet
  facet normal  0.000000e+000  1.000000e+000  0.000000e+000
    outer loop
      vertex -1.000000e+001  3.500000e+002  0.000000e+000
      vertex -2.175000e+000  3.500000e+002  1.232790e+000
      vertex  0.000000e+000  3.500000e+002  6.500000e-001
    endloop
  endfacet
  facet normal  0.000000e+000  1.000000e+000  0.000000e+000
    outer loop
      vertex -1.000000e+001  3.500000e+002  0.000000e+000
      vertex  0.000000e+000  3.500000e+002  6.500000e-001
      vertex  0.000000e+000  3.500000e+002  0.000000e+000
    endloop
  endfacet
  facet normal -1.000000e+000  0.000000e+000  0.000000e+000
    outer loop
      vertex  1.000000e+001  1.800000e+002 -2.482971e+000
      vertex  1.000000e+001  1.800000e+002  2.614208e+001
      vertex  1.000000e+001  1.900000e+002  0.000000e+000
    endloop
  endfacet
  facet normal -1.000000e+000  0.000000e+000  0.000000e+000
    outer loop
      vertex  1.000000e+001  1.900000e+002  0.000000e+000
      vertex  1.000000e+001  1.800000e+002  2.614208e+001
      vertex  1.000000e+001  1.900000e+002  2.614208e+001
    endloop
  endfacet
  facet normal  -0.000000e+000 -9.999999e-001  0.000000e+000
    outer loop
      vertex  0.000000e+000  1.900000e+002  9.350000e+000
      vertex  1.019756e+000  1.900000e+002  1.686151e+001
      vertex -1.019756e+000  1.900000e+002  1.686151e+001
    endloop
  endfacet
  facet normal  -0.000000e+000 -1.000000e+000  -0.000000e+000
    outer loop
      vertex  0.000000e+000  1.900000e+002  9.350000e+000
      vertex -1.019756e+000  1.900000e+002  1.686151e+001
      vertex -2.669756e+000  1.900000e+002  1.806031e+001
    endloop
  endfacet
  facet normal  0.000000e+000 -1.000000e+000  0.000000e+000
    outer loop
      vertex  1.019756e+000  1.900000e+002  1.686151e+001
      vertex  0.000000e+000  1.900000e+002  9.350000e+000
      vertex  2.669756e+000  1.900000e+002  1.806031e+001
    endloop
  endfacet
  facet normal  0.000000e+000 -1.000000e+000  0.000000e+000
    outer loop
      vertex -1.000000e+001  1.900000e+002  0.000000e+000
      vertex  1.000000e+001  1.900000e+002  0.000000e+000
      vertex  1.776357e-015  1.900000e+002  6.500000e-001
    endloop
  endfacet
  facet normal  -0.000000e+000 -1.000000e+000  0.000000e+000
    outer loop
      vertex -1.000000e+001  1.900000e+002  0.000000e+000
      vertex  1.776357e-015  1.900000e+002  6.500000e-001
      vertex -2.175000e+000  1.900000e+002  1.232790e+000
    endloop
  endfacet
  facet normal  -0.000000e+000 -1.000000e+000  0.000000e+000
    outer loop
      vertex -1.000000e+001  1.900000e+002  0.000000e+000
      vertex -2.175000e+000  1.900000e+002  1.232790e+000
      vertex -3.767210e+000  1.900000e+002  2.825000e+000
    endloop
  endfacet
  facet normal  -0.000000e+000 -9.999999e-001  0.000000e+000
    outer loop
      vertex -1.000000e+001  1.900000e+002  0.000000e+000
      vertex -3.767210e+000  1.900000e+002  2.825000e+000
      vertex -4.350000e+000  1.900000e+002  5.000000e+000
    endloop
  endfacet
  facet normal  -0.000000e+000 -1.000000e+000  0.000000e+000
    outer loop
      vertex -1.000000e+001  1.900000e+002  0.000000e+000
      vertex -4.350000e+000  1.900000e+002  5.000000e+000
      vertex -1.000000e+001  1.900000e+002  2.614208e+001
    endloop
  endfacet
  facet normal  0.000000e+000 -1.000000e+000  0.000000e+000
    outer loop
      vertex -1.000000e+001  1.900000e+002  2.614208e+001
      vertex -4.350000e+000  1.900000e+002  5.000000e+000
      vertex -3.767210e+000  1.900000e+002  7.175000e+000
    endloop
  endfacet
  facet normal  0.000000e+000 -1.000000e+000  0.000000e+000
    outer loop
      vertex -1.000000e+001  1.900000e+002  2.614208e+001
      vertex -3.767210e+000  1.900000e+002  7.175000e+000
      vertex -2.175000e+000  1.900000e+002  8.767211e+000
    endloop
  endfacet
  facet normal  0.000000e+000 -1.000000e+000  0.000000e+000
    outer loop
      vertex -1.000000e+001  1.900000e+002  2.614208e+001
      vertex -2.175000e+000  1.900000e+002  8.767211e+000
      vertex  0.000000e+000  1.900000e+002  9.350000e+000
    endloop
  endfacet
  facet normal  0.000000e+000 -1.000000e+000  0.000000e+000
    outer loop
      vertex -1.000000e+001  1.900000e+002  2.614208e+001
      vertex  0.000000e+000  1.900000e+002  9.350000e+000
      vertex -2.669756e+000  1.900000e+002  1.806031e+001
    endloop
  endfacet
  facet normal  0.000000e+000 -1.000000e+000  0.000000e+000
    outer loop
      vertex -1.000000e+001  1.900000e+002  2.614208e+001
      vertex -2.669756e+000  1.900000e+002  1.806031e+001
      vertex -3.300000e+000  1.900000e+002  2.000000e+001
    endloop
  endfacet
  facet normal  0.000000e+000 -1.000000e+000  0.000000e+000
    outer loop
      vertex -1.000000e+001  1.900000e+002  2.614208e+001
      vertex -3.300000e+000  1.900000e+002  2.000000e+001
      vertex -2.669756e+000  1.900000e+002  2.193969e+001
    endloop
  endfacet
  facet normal  0.000000e+000 -1.000000e+000  0.000000e+000
    outer loop
      vertex -1.000000e+001  1.900000e+002  2.614208e+001
      vertex -2.669756e+000  1.900000e+002  2.193969e+001
      vertex -1.019756e+000  1.900000e+002  2.313849e+001
    endloop
  endfacet
  facet normal  0.000000e+000 -9.999999e-001  0.000000e+000
    outer loop
      vertex  1.000000e+001  1.900000e+002  2.614208e+001
      vertex  1.019756e+000  1.900000e+002  2.313849e+001
      vertex  2.669756e+000  1.900000e+002  2.193969e+001
    endloop
  endfacet
  facet normal  0.000000e+000 -1.000000e+000  0.000000e+000
    outer loop
      vertex  1.000000e+001  1.900000e+002  2.614208e+001
      vertex  2.669756e+000  1.900000e+002  2.193969e+001
      vertex  3.300000e+000  1.900000e+002  2.000000e+001
    endloop
  endfacet
  facet normal  0.000000e+000 -1.000000e+000  -0.000000e+000
    outer loop
      vertex  1.000000e+001  1.900000e+002  2.614208e+001
      vertex  3.300000e+000  1.900000e+002  2.000000e+001
      vertex  2.669756e+000  1.900000e+002  1.806031e+001
    endloop
  endfacet
  facet normal  0.000000e+000 -9.999999e-001  -0.000000e+000
    outer loop
      vertex  1.000000e+001  1.900000e+002  2.614208e+001
      vertex  2.669756e+000  1.900000e+002  1.806031e+001
      vertex  0.000000e+000  1.900000e+002  9.350000e+000
    endloop
  endfacet
  facet normal  0.000000e+000 -1.000000e+000  0.000000e+000
    outer loop
      vertex  1.000000e+001  1.900000e+002  2.614208e+001
      vertex  0.000000e+000  1.900000e+002  9.350000e+000
      vertex  2.175000e+000  1.900000e+002  8.767211e+000
    endloop
  endfacet
  facet normal  0.000000e+000 -1.000000e+000  0.000000e+000
    outer loop
      vertex  1.000000e+001  1.900000e+002  2.614208e+001
      vertex  2.175000e+000  1.900000e+002  8.767211e+000
      vertex  3.767210e+000  1.900000e+002  7.175000e+000
    endloop
  endfacet
  facet normal  0.000000e+000 -1.000000e+000  0.000000e+000
    outer loop
      vertex  1.000000e+001  1.900000e+002  2.614208e+001
      vertex  3.767210e+000  1.900000e+002  7.175000e+000
      vertex  4.350000e+000  1.900000e+002  5.000000e+000
    endloop
  endfacet
  facet normal  0.000000e+000 -1.000000e+000  -0.000000e+000
    outer loop
      vertex  1.000000e+001  1.900000e+002  0.000000e+000
      vertex  1.000000e+001  1.900000e+002  2.614208e+001
      vertex  4.350000e+000  1.900000e+002  5.000000e+000
    endloop
  endfacet
  facet normal  0.000000e+000 -9.999999e-001  -0.000000e+000
    outer loop
      vertex  1.000000e+001  1.900000e+002  0.000000e+000
      vertex  4.350000e+000  1.900000e+002  5.000000e+000
      vertex  3.767210e+000  1.900000e+002  2.825000e+000
    endloop
  endfacet
  facet normal  0.000000e+000 -9.999999e-001  -0.000000e+000
    outer loop
      vertex  1.000000e+001  1.900000e+002  0.000000e+000
      vertex  3.767210e+000  1.900000e+002  2.825000e+000
      vertex  2.175000e+000  1.900000e+002  1.232790e+000
    endloop
  endfacet
  facet normal  0.000000e+000 -1.000000e+000  -0.000000e+000
    outer loop
      vertex  1.000000e+001  1.900000e+002  0.000000e+000
      vertex  2.175000e+000  1.900000e+002  1.232790e+000
      vertex  1.776357e-015  1.900000e+002  6.500000e-001
    endloop
  endfacet
  facet normal  0.000000e+000 -9.999999e-001  -0.000000e+000
    outer loop
      vertex  1.000000e+001  1.900000e+002  2.614208e+001
      vertex  3.369609e+000  1.900000e+002  2.734830e+001
      vertex  1.019756e+000  1.900000e+002  2.313849e+001
    endloop
  endfacet
  facet normal  0.000000e+000 -1.000000e+000  0.000000e+000
    outer loop
      vertex  1.019756e+000  1.900000e+002  2.313849e+001
      vertex  3.369609e+000  1.900000e+002  2.734830e+001
      vertex -3.369609e+000  1.900000e+002  2.734830e+001
    endloop
  endfacet
  facet normal  0.000000e+000 -1.000000e+000  0.000000e+000
    outer loop
      vertex  1.019756e+000  1.900000e+002  2.313849e+001
      vertex -3.369609e+000  1.900000e+002  2.734830e+001
      vertex -1.019756e+000  1.900000e+002  2.313849e+001
    endloop
  endfacet
  facet normal  0.000000e+000 -9.999999e-001  0.000000e+000
    outer loop
      vertex -1.019756e+000  1.900000e+002  2.313849e+001
      vertex -3.369609e+000  1.900000e+002  2.734830e+001
      vertex -1.000000e+001  1.900000e+002  2.614208e+001
    endloop
  endfacet
  facet normal  1.000000e+000  0.000000e+000  0.000000e+000
    outer loop
      vertex -1.000000e+001  1.900000e+002  0.000000e+000
      vertex -1.000000e+001  1.900000e+002  2.614208e+001
      vertex -1.000000e+001  1.800000e+002 -2.482971e+000
    endloop
  endfacet
  facet normal  1.000000e+000  0.000000e+000  0.000000e+000
    outer loop
      vertex -1.000000e+001  1.800000e+002 -2.482971e+000
      vertex -1.000000e+001  1.900000e+002  2.614208e+001
      vertex -1.000000e+001  1.800000e+002  2.614208e+001
    endloop
  endfacet
  facet normal  8.397472e-002  3.405411e-001 -9.364722e-001
    outer loop
      vertex  1.500000e+001  1.783333e+002 -2.975811e+000
      vertex  1.882683e+001  1.836683e+002 -6.926295e-001
      vertex  1.633188e+001  1.778894e+002 -3.017820e+000
    endloop
  endfacet
  facet normal  9.413508e-001  9.621470e-002 -3.234217e-001
    outer loop
      vertex  2.487688e+001  1.891429e+002  8.435659e+000
      vertex  2.423880e+001  1.823198e+002  4.548626e+000
      vertex  2.366252e+001  1.894884e+002  5.003922e+000
    endloop
  endfacet
  facet normal  8.308693e-001  1.015411e-001 -5.471249e-001
    outer loop
      vertex  2.366252e+001  1.894884e+002  5.003922e+000
      vertex  2.423880e+001  1.823198e+002  4.548626e+000
      vertex  2.207107e+001  1.831282e+002  1.406723e+000
    endloop
  endfacet
  facet normal  7.583386e-001  1.666705e-001 -6.301932e-001
    outer loop
      vertex  2.366252e+001  1.894884e+002  5.003922e+000
      vertex  2.207107e+001  1.831282e+002  1.406723e+000
      vertex  2.129585e+001  1.897708e+002  2.230684e+000
    endloop
  endfacet
  facet normal  5.550692e-001  1.658838e-001 -8.150955e-001
    outer loop
      vertex  2.129585e+001  1.897708e+002  2.230684e+000
      vertex  2.207107e+001  1.831282e+002  1.406723e+000
      vertex  1.882683e+001  1.836683e+002 -6.926295e-001
    endloop
  endfacet
  facet normal  9.570855e-001  7.912981e-002 -2.787935e-001
    outer loop
      vertex  2.480886e+001  1.750637e+002  4.446156e+000
      vertex  2.423021e+001  1.752566e+002  2.514405e+000
      vertex  2.423880e+001  1.823198e+002  4.548626e+000
    endloop
  endfacet
  facet normal  5.671893e-001  2.244424e-001 -7.924153e-001
    outer loop
      vertex  2.207107e+001  1.831282e+002  1.406723e+000
      vertex  2.212973e+001  1.759568e+002 -5.825069e-001
      vertex  1.905731e+001  1.769809e+002 -2.491586e+000
    endloop
  endfacet
  facet normal  5.553585e-001  2.338236e-001 -7.980623e-001
    outer loop
      vertex  2.207107e+001  1.831282e+002  1.406723e+000
      vertex  1.905731e+001  1.769809e+002 -2.491586e+000
      vertex  1.882683e+001  1.836683e+002 -6.926295e-001
    endloop
  endfacet
  facet normal  2.656276e-001  2.589656e-001 -9.286435e-001
    outer loop
      vertex  1.633188e+001  1.778894e+002 -3.017820e+000
      vertex  1.882683e+001  1.836683e+002 -6.926295e-001
      vertex  1.905731e+001  1.769809e+002 -2.491586e+000
    endloop
  endfacet
  facet normal  9.955002e-001 -4.585662e-002 -8.292468e-002
    outer loop
      vertex  2.487688e+001  1.891429e+002  8.435659e+000
      vertex  2.500000e+001  1.889867e+002  1.000000e+001
      vertex  2.423880e+001  1.823198e+002  4.548626e+000
    endloop
  endfacet
  facet normal  9.789412e-001  5.005417e-002 -1.979104e-001
    outer loop
      vertex  2.423880e+001  1.823198e+002  4.548626e+000
      vertex  2.500000e+001  1.889867e+002  1.000000e+001
      vertex  2.500000e+001  1.750000e+002  6.462568e+000
    endloop
  endfacet
  facet normal  9.926361e-001  7.927908e-002 -9.158804e-002
    outer loop
      vertex  2.423880e+001  1.823198e+002  4.548626e+000
      vertex  2.500000e+001  1.750000e+002  6.462568e+000
      vertex  2.480886e+001  1.750637e+002  4.446156e+000
    endloop
  endfacet
  facet normal  2.274342e-001  2.406789e-001 -9.435822e-001
    outer loop
      vertex  1.500000e+001  1.783333e+002 -2.975811e+000
      vertex  1.500000e+001  1.900000e+002  0.000000e+000
      vertex  1.882683e+001  1.836683e+002 -6.926295e-001
    endloop
  endfacet
  facet normal  1.562623e-001  2.002471e-001 -9.672038e-001
    outer loop
      vertex  1.882683e+001  1.836683e+002 -6.926295e-001
      vertex  1.500000e+001  1.900000e+002  0.000000e+000
      vertex  1.808647e+001  1.899497e+002  4.882346e-001
    endloop
  endfacet
  facet normal  4.751233e-001  2.163432e-001 -8.529088e-001
    outer loop
      vertex  1.882683e+001  1.836683e+002 -6.926295e-001
      vertex  1.808647e+001  1.899497e+002  4.882346e-001
      vertex  2.129585e+001  1.897708e+002  2.230684e+000
    endloop
  endfacet
  facet normal  8.313771e-001  1.528612e-001 -5.342710e-001
    outer loop
      vertex  2.423880e+001  1.823198e+002  4.548626e+000
      vertex  2.423021e+001  1.752566e+002  2.514405e+000
      vertex  2.207107e+001  1.831282e+002  1.406723e+000
    endloop
  endfacet
  facet normal  8.795080e-001  1.792092e-001 -4.408513e-001
    outer loop
      vertex  2.207107e+001  1.831282e+002  1.406723e+000
      vertex  2.423021e+001  1.752566e+002  2.514405e+000
      vertex  2.333480e+001  1.755551e+002  8.493895e-001
    endloop
  endfacet
  facet normal  7.769369e-001  1.741738e-001 -6.050062e-001
    outer loop
      vertex  2.207107e+001  1.831282e+002  1.406723e+000
      vertex  2.333480e+001  1.755551e+002  8.493895e-001
      vertex  2.212973e+001  1.759568e+002 -5.825069e-001
    endloop
  endfacet
  facet normal  0.000000e+000  2.471560e-001 -9.689757e-001
    outer loop
      vertex -1.500000e+001  1.900000e+002  0.000000e+000
      vertex -1.000000e+001  1.900000e+002  0.000000e+000
      vertex -1.500000e+001  1.783333e+002 -2.975811e+000
    endloop
  endfacet
  facet normal  1.533447e-002  2.409515e-001 -9.704159e-001
    outer loop
      vertex -1.500000e+001  1.783333e+002 -2.975811e+000
      vertex -1.000000e+001  1.900000e+002  0.000000e+000
      vertex -1.000000e+001  1.800000e+002 -2.482971e+000
    endloop
  endfacet
  facet normal  0.000000e+000  2.409798e-001 -9.705300e-001
    outer loop
      vertex  1.000000e+001  1.900000e+002  0.000000e+000
      vertex  1.500000e+001  1.900000e+002  0.000000e+000
      vertex  1.000000e+001  1.800000e+002 -2.482971e+000
    endloop
  endfacet
  facet normal -1.312319e-002  2.471347e-001 -9.688922e-001
    outer loop
      vertex  1.000000e+001  1.800000e+002 -2.482971e+000
      vertex  1.500000e+001  1.900000e+002  0.000000e+000
      vertex  1.500000e+001  1.783333e+002 -2.975811e+000
    endloop
  endfacet
  facet normal -1.562623e-001  2.002471e-001 -9.672038e-001
    outer loop
      vertex -1.500000e+001  1.900000e+002  0.000000e+000
      vertex -1.882683e+001  1.836683e+002 -6.926295e-001
      vertex -1.808647e+001  1.899497e+002  4.882346e-001
    endloop
  endfacet
  facet normal -9.413508e-001  9.621470e-002 -3.234217e-001
    outer loop
      vertex -2.487688e+001  1.891429e+002  8.435659e+000
      vertex -2.366252e+001  1.894884e+002  5.003922e+000
      vertex -2.423880e+001  1.823198e+002  4.548626e+000
    endloop
  endfacet
  facet normal -4.751233e-001  2.163432e-001 -8.529088e-001
    outer loop
      vertex -2.129585e+001  1.897708e+002  2.230684e+000
      vertex -1.808647e+001  1.899497e+002  4.882346e-001
      vertex -1.882683e+001  1.836683e+002 -6.926295e-001
    endloop
  endfacet
  facet normal -7.769369e-001  1.741738e-001 -6.050062e-001
    outer loop
      vertex -2.207107e+001  1.831282e+002  1.406723e+000
      vertex -2.212973e+001  1.759568e+002 -5.825070e-001
      vertex -2.333480e+001  1.755551e+002  8.493893e-001
    endloop
  endfacet
  facet normal -8.795080e-001  1.792093e-001 -4.408513e-001
    outer loop
      vertex -2.207107e+001  1.831282e+002  1.406723e+000
      vertex -2.333480e+001  1.755551e+002  8.493893e-001
      vertex -2.423021e+001  1.752566e+002  2.514405e+000
    endloop
  endfacet
  facet normal -8.313771e-001  1.528612e-001 -5.342710e-001
    outer loop
      vertex -2.207107e+001  1.831282e+002  1.406723e+000
      vertex -2.423021e+001  1.752566e+002  2.514405e+000
      vertex -2.423880e+001  1.823198e+002  4.548626e+000
    endloop
  endfacet
  facet normal -8.308693e-001  1.015411e-001 -5.471249e-001
    outer loop
      vertex -2.207107e+001  1.831282e+002  1.406723e+000
      vertex -2.423880e+001  1.823198e+002  4.548626e+000
      vertex -2.366252e+001  1.894884e+002  5.003922e+000
    endloop
  endfacet
  facet normal -7.583386e-001  1.666705e-001 -6.301932e-001
    outer loop
      vertex -2.207107e+001  1.831282e+002  1.406723e+000
      vertex -2.366252e+001  1.894884e+002  5.003922e+000
      vertex -2.129585e+001  1.897708e+002  2.230684e+000
    endloop
  endfacet
  facet normal -5.550692e-001  1.658838e-001 -8.150955e-001
    outer loop
      vertex -2.207107e+001  1.831282e+002  1.406723e+000
      vertex -2.129585e+001  1.897708e+002  2.230684e+000
      vertex -1.882683e+001  1.836683e+002 -6.926295e-001
    endloop
  endfacet
  facet normal -5.553585e-001  2.338236e-001 -7.980623e-001
    outer loop
      vertex -2.207107e+001  1.831282e+002  1.406723e+000
      vertex -1.882683e+001  1.836683e+002 -6.926295e-001
      vertex -1.905731e+001  1.769809e+002 -2.491586e+000
    endloop
  endfacet
  facet normal -5.671892e-001  2.244424e-001 -7.924153e-001
    outer loop
      vertex -2.207107e+001  1.831282e+002  1.406723e+000
      vertex -1.905731e+001  1.769809e+002 -2.491586e+000
      vertex -2.212973e+001  1.759568e+002 -5.825070e-001
    endloop
  endfacet
  facet normal -2.274342e-001  2.406789e-001 -9.435822e-001
    outer loop
      vertex -1.500000e+001  1.900000e+002  0.000000e+000
      vertex -1.500000e+001  1.783333e+002 -2.975811e+000
      vertex -1.882683e+001  1.836683e+002 -6.926295e-001
    endloop
  endfacet
  facet normal -8.397472e-002  3.405411e-001 -9.364722e-001
    outer loop
      vertex -1.882683e+001  1.836683e+002 -6.926295e-001
      vertex -1.500000e+001  1.783333e+002 -2.975811e+000
      vertex -1.633188e+001  1.778894e+002 -3.017820e+000
    endloop
  endfacet
  facet normal -2.656276e-001  2.589656e-001 -9.286435e-001
    outer loop
      vertex -1.882683e+001  1.836683e+002 -6.926295e-001
      vertex -1.633188e+001  1.778894e+002 -3.017820e+000
      vertex -1.905731e+001  1.769809e+002 -2.491586e+000
    endloop
  endfacet
  facet normal -9.570855e-001  7.912981e-002 -2.787935e-001
    outer loop
      vertex -2.423021e+001  1.752566e+002  2.514405e+000
      vertex -2.480886e+001  1.750637e+002  4.446156e+000
      vertex -2.423880e+001  1.823198e+002  4.548626e+000
    endloop
  endfacet
  facet normal -9.926361e-001  7.927908e-002 -9.158804e-002
    outer loop
      vertex -2.423880e+001  1.823198e+002  4.548626e+000
      vertex -2.480886e+001  1.750637e+002  4.446156e+000
      vertex -2.500000e+001  1.750000e+002  6.462568e+000
    endloop
  endfacet
  facet normal -9.721017e-001  4.068982e-002 -2.310036e-001
    outer loop
      vertex -2.423880e+001  1.823198e+002  4.548626e+000
      vertex -2.500000e+001  1.750000e+002  6.462568e+000
      vertex -2.487688e+001  1.891429e+002  8.435659e+000
    endloop
  endfacet
  facet normal -9.968799e-001  1.935386e-002 -7.652371e-002
    outer loop
      vertex -2.487688e+001  1.891429e+002  8.435659e+000
      vertex -2.500000e+001  1.750000e+002  6.462568e+000
      vertex -2.500000e+001  1.889867e+002  1.000000e+001
    endloop
  endfacet
  facet normal  3.162450e-001 -9.486776e-001  5.102653e-006
    outer loop
      vertex -2.500000e+001  1.750000e+002  6.462568e+000
      vertex -2.480886e+001  1.750637e+002  4.446156e+000
      vertex -2.423021e+001  1.752566e+002  2.514405e+000
    endloop
  endfacet
  facet normal  3.162456e-001 -9.486773e-001  5.247491e-006
    outer loop
      vertex -2.500000e+001  1.750000e+002  6.462568e+000
      vertex -2.423021e+001  1.752566e+002  2.514405e+000
      vertex -2.333480e+001  1.755551e+002  8.493893e-001
    endloop
  endfacet
  facet normal  3.162211e-001 -9.486855e-001 -2.830209e-006
    outer loop
      vertex -2.500000e+001  1.750000e+002  6.462568e+000
      vertex -2.333480e+001  1.755551e+002  8.493893e-001
      vertex -2.212973e+001  1.759568e+002 -5.825070e-001
    endloop
  endfacet
  facet normal  3.162276e-001 -9.486833e-001  1.221758e-007
    outer loop
      vertex -2.500000e+001  1.750000e+002  6.462568e+000
      vertex -2.212973e+001  1.759568e+002 -5.825070e-001
      vertex -1.905731e+001  1.769809e+002 -2.491586e+000
    endloop
  endfacet
  facet normal  3.162279e-001 -9.486832e-001  3.344605e-007
    outer loop
      vertex -2.500000e+001  1.750000e+002  6.462568e+000
      vertex -1.905731e+001  1.769809e+002 -2.491586e+000
      vertex -1.000000e+001  1.800000e+002 -2.482971e+000
    endloop
  endfacet
  facet normal  3.162278e-001 -9.486832e-001  0.000000e+000
    outer loop
      vertex -2.500000e+001  1.750000e+002  6.462568e+000
      vertex -1.000000e+001  1.800000e+002 -2.482971e+000
      vertex -1.000000e+001  1.800000e+002  2.614208e+001
    endloop
  endfacet
  facet normal  3.162278e-001 -9.486833e-001  0.000000e+000
    outer loop
      vertex -2.500000e+001  1.750000e+002  6.462568e+000
      vertex -1.000000e+001  1.800000e+002  2.614208e+001
      vertex -2.500000e+001  1.750000e+002  1.795085e+001
    endloop
  endfacet
  facet normal  3.162225e-001 -9.486850e-001  6.844982e-005
    outer loop
      vertex -1.500000e+001  1.783333e+002 -2.975811e+000
      vertex -1.000000e+001  1.800000e+002 -2.482971e+000
      vertex -1.633188e+001  1.778894e+002 -3.017820e+000
    endloop
  endfacet
  facet normal  3.162279e-001 -9.486832e-001 -2.392057e-006
    outer loop
      vertex -1.633188e+001  1.778894e+002 -3.017820e+000
      vertex -1.000000e+001  1.800000e+002 -2.482971e+000
      vertex -1.905731e+001  1.769809e+002 -2.491586e+000
    endloop
  endfacet
  facet normal  3.162254e-001 -9.486841e-001  4.859818e-006
    outer loop
      vertex -1.000000e+001  1.800000e+002  2.614208e+001
      vertex -1.239718e+001  1.792009e+002  2.539152e+001
      vertex -2.500000e+001  1.750000e+002  1.795085e+001
    endloop
  endfacet
  facet normal  3.162265e-001 -9.486837e-001  2.788979e-006
    outer loop
      vertex -2.500000e+001  1.750000e+002  1.795085e+001
      vertex -1.239718e+001  1.792009e+002  2.539152e+001
      vertex -1.903746e+001  1.769875e+002  2.230828e+001
    endloop
  endfacet
  facet normal -3.162278e-001 -9.486833e-001  -0.000000e+000
    outer loop
      vertex  2.500000e+001  1.750000e+002  6.462568e+000
      vertex  2.500000e+001  1.750000e+002  1.795085e+001
      vertex  1.000000e+001  1.800000e+002  2.614208e+001
    endloop
  endfacet
  facet normal -3.162278e-001 -9.486832e-001  -0.000000e+000
    outer loop
      vertex  2.500000e+001  1.750000e+002  6.462568e+000
      vertex  1.000000e+001  1.800000e+002  2.614208e+001
      vertex  1.000000e+001  1.800000e+002 -2.482971e+000
    endloop
  endfacet
  facet normal -3.162279e-001 -9.486832e-001  3.344605e-007
    outer loop
      vertex  2.500000e+001  1.750000e+002  6.462568e+000
      vertex  1.000000e+001  1.800000e+002 -2.482971e+000
      vertex  1.905731e+001  1.769809e+002 -2.491586e+000
    endloop
  endfacet
  facet normal -3.162277e-001 -9.486834e-001  1.221758e-007
    outer loop
      vertex  2.500000e+001  1.750000e+002  6.462568e+000
      vertex  1.905731e+001  1.769809e+002 -2.491586e+000
      vertex  2.212973e+001  1.759568e+002 -5.825069e-001
    endloop
  endfacet
  facet normal -3.162211e-001 -9.486856e-001 -2.830209e-006
    outer loop
      vertex  2.500000e+001  1.750000e+002  6.462568e+000
      vertex  2.212973e+001  1.759568e+002 -5.825069e-001
      vertex  2.333480e+001  1.755551e+002  8.493895e-001
    endloop
  endfacet
  facet normal -3.162457e-001 -9.486774e-001  5.247492e-006
    outer loop
      vertex  2.500000e+001  1.750000e+002  6.462568e+000
      vertex  2.333480e+001  1.755551e+002  8.493895e-001
      vertex  2.423021e+001  1.752566e+002  2.514405e+000
    endloop
  endfacet
  facet normal -3.162450e-001 -9.486775e-001  5.102652e-006
    outer loop
      vertex  2.500000e+001  1.750000e+002  6.462568e+000
      vertex  2.423021e+001  1.752566e+002  2.514405e+000
      vertex  2.480886e+001  1.750637e+002  4.446156e+000
    endloop
  endfacet
  facet normal -3.162279e-001 -9.486833e-001  7.839536e-006
    outer loop
      vertex  1.000000e+001  1.800000e+002 -2.482971e+000
      vertex  1.500000e+001  1.783333e+002 -2.975811e+000
      vertex  1.905731e+001  1.769809e+002 -2.491586e+000
    endloop
  endfacet
  facet normal -3.162251e-001 -9.486842e-001 -1.908436e-005
    outer loop
      vertex  1.905731e+001  1.769809e+002 -2.491586e+000
      vertex  1.500000e+001  1.783333e+002 -2.975811e+000
      vertex  1.633188e+001  1.778894e+002 -3.017820e+000
    endloop
  endfacet
  facet normal -3.162249e-001 -9.486842e-001  6.586232e-006
    outer loop
      vertex  1.239718e+001  1.792009e+002  2.539152e+001
      vertex  1.000000e+001  1.800000e+002  2.614208e+001
      vertex  1.903746e+001  1.769875e+002  2.230828e+001
    endloop
  endfacet
  facet normal -3.162262e-001 -9.486838e-001  3.285790e-006
    outer loop
      vertex  1.903746e+001  1.769875e+002  2.230828e+001
      vertex  1.000000e+001  1.800000e+002  2.614208e+001
      vertex  2.500000e+001  1.750000e+002  1.795085e+001
    endloop
  endfacet
endsolid CATIA STL
