solid CATIA STL
  facet normal -1.000000e+000  0.000000e+000  0.000000e+000
    outer loop
      vertex  1.000000e+001  1.800000e+002 -2.482971e+000
      vertex  1.000000e+001  1.800000e+002  2.614208e+001
      vertex  1.000000e+001  1.900000e+002  0.000000e+000
    endloop
  endfacet
  facet normal -1.000000e+000  0.000000e+000  0.000000e+000
    outer loop
      vertex  1.000000e+001  1.900000e+002  0.000000e+000
      vertex  1.000000e+001  1.800000e+002  2.614208e+001
      vertex  1.000000e+001  1.900000e+002  2.614208e+001
    endloop
  endfacet
  facet normal  -0.000000e+000 -9.999999e-001  0.000000e+000
    outer loop
      vertex  0.000000e+000  1.900000e+002  9.350000e+000
      vertex  1.019756e+000  1.900000e+002  1.686151e+001
      vertex -1.019756e+000  1.900000e+002  1.686151e+001
    endloop
  endfacet
  facet normal  -0.000000e+000 -1.000000e+000  -0.000000e+000
    outer loop
      vertex  0.000000e+000  1.900000e+002  9.350000e+000
      vertex -1.019756e+000  1.900000e+002  1.686151e+001
      vertex -2.669756e+000  1.900000e+002  1.806031e+001
    endloop
  endfacet
  facet normal  0.000000e+000 -1.000000e+000  0.000000e+000
    outer loop
      vertex  1.019756e+000  1.900000e+002  1.686151e+001
      vertex  0.000000e+000  1.900000e+002  9.350000e+000
      vertex  2.669756e+000  1.900000e+002  1.806031e+001
    endloop
  endfacet
  facet normal  0.000000e+000 -1.000000e+000  0.000000e+000
    outer loop
      vertex -1.000000e+001  1.900000e+002  0.000000e+000
      vertex  1.000000e+001  1.900000e+002  0.000000e+000
      vertex  1.776357e-015  1.900000e+002  6.500000e-001
    endloop
  endfacet
  facet normal  -0.000000e+000 -1.000000e+000  0.000000e+000
    outer loop
      vertex -1.000000e+001  1.900000e+002  0.000000e+000
      vertex  1.776357e-015  1.900000e+002  6.500000e-001
      vertex -2.175000e+000  1.900000e+002  1.232790e+000
    endloop
  endfacet
  facet normal  -0.000000e+000 -1.000000e+000  0.000000e+000
    outer loop
      vertex -1.000000e+001  1.900000e+002  0.000000e+000
      vertex -2.175000e+000  1.900000e+002  1.232790e+000
      vertex -3.767210e+000  1.900000e+002  2.825000e+000
    endloop
  endfacet
  facet normal  -0.000000e+000 -9.999999e-001  0.000000e+000
    outer loop
      vertex -1.000000e+001  1.900000e+002  0.000000e+000
      vertex -3.767210e+000  1.900000e+002  2.825000e+000
      vertex -4.350000e+000  1.900000e+002  5.000000e+000
    endloop
  endfacet
  facet normal  -0.000000e+000 -1.000000e+000  0.000000e+000
    outer loop
      vertex -1.000000e+001  1.900000e+002  0.000000e+000
      vertex -4.350000e+000  1.900000e+002  5.000000e+000
      vertex -1.000000e+001  1.900000e+002  2.614208e+001
    endloop
  endfacet
  facet normal  0.000000e+000 -1.000000e+000  0.000000e+000
    outer loop
      vertex -1.000000e+001  1.900000e+002  2.614208e+001
      vertex -4.350000e+000  1.900000e+002  5.000000e+000
      vertex -3.767210e+000  1.900000e+002  7.175000e+000
    endloop
  endfacet
  facet normal  0.000000e+000 -1.000000e+000  0.000000e+000
    outer loop
      vertex -1.000000e+001  1.900000e+002  2.614208e+001
      vertex -3.767210e+000  1.900000e+002  7.175000e+000
      vertex -2.175000e+000  1.900000e+002  8.767211e+000
    endloop
  endfacet
  facet normal  0.000000e+000 -1.000000e+000  0.000000e+000
    outer loop
      vertex -1.000000e+001  1.900000e+002  2.614208e+001
      vertex -2.175000e+000  1.900000e+002  8.767211e+000
      vertex  0.000000e+000  1.900000e+002  9.350000e+000
    endloop
  endfacet
  facet normal  0.000000e+000 -1.000000e+000  0.000000e+000
    outer loop
      vertex -1.000000e+001  1.900000e+002  2.614208e+001
      vertex  0.000000e+000  1.900000e+002  9.350000e+000
      vertex -2.669756e+000  1.900000e+002  1.806031e+001
    endloop
  endfacet
  facet normal  0.000000e+000 -1.000000e+000  0.000000e+000
    outer loop
      vertex -1.000000e+001  1.900000e+002  2.614208e+001
      vertex -2.669756e+000  1.900000e+002  1.806031e+001
      vertex -3.300000e+000  1.900000e+002  2.000000e+001
    endloop
  endfacet
  facet normal  0.000000e+000 -1.000000e+000  0.000000e+000
    outer loop
      vertex -1.000000e+001  1.900000e+002  2.614208e+001
      vertex -3.300000e+000  1.900000e+002  2.000000e+001
      vertex -2.669756e+000  1.900000e+002  2.193969e+001
    endloop
  endfacet
  facet normal  0.000000e+000 -1.000000e+000  0.000000e+000
    outer loop
      vertex -1.000000e+001  1.900000e+002  2.614208e+001
      vertex -2.669756e+000  1.900000e+002  2.193969e+001
      vertex -1.019756e+000  1.900000e+002  2.313849e+001
    endloop
  endfacet
  facet normal  0.000000e+000 -9.999999e-001  0.000000e+000
    outer loop
      vertex  1.000000e+001  1.900000e+002  2.614208e+001
      vertex  1.019756e+000  1.900000e+002  2.313849e+001
      vertex  2.669756e+000  1.900000e+002  2.193969e+001
    endloop
  endfacet
  facet normal  0.000000e+000 -1.000000e+000  0.000000e+000
    outer loop
      vertex  1.000000e+001  1.900000e+002  2.614208e+001
      vertex  2.669756e+000  1.900000e+002  2.193969e+001
      vertex  3.300000e+000  1.900000e+002  2.000000e+001
    endloop
  endfacet
  facet normal  0.000000e+000 -1.000000e+000  -0.000000e+000
    outer loop
      vertex  1.000000e+001  1.900000e+002  2.614208e+001
      vertex  3.300000e+000  1.900000e+002  2.000000e+001
      vertex  2.669756e+000  1.900000e+002  1.806031e+001
    endloop
  endfacet
  facet normal  0.000000e+000 -9.999999e-001  -0.000000e+000
    outer loop
      vertex  1.000000e+001  1.900000e+002  2.614208e+001
      vertex  2.669756e+000  1.900000e+002  1.806031e+001
      vertex  0.000000e+000  1.900000e+002  9.350000e+000
    endloop
  endfacet
  facet normal  0.000000e+000 -1.000000e+000  0.000000e+000
    outer loop
      vertex  1.000000e+001  1.900000e+002  2.614208e+001
      vertex  0.000000e+000  1.900000e+002  9.350000e+000
      vertex  2.175000e+000  1.900000e+002  8.767211e+000
    endloop
  endfacet
  facet normal  0.000000e+000 -1.000000e+000  0.000000e+000
    outer loop
      vertex  1.000000e+001  1.900000e+002  2.614208e+001
      vertex  2.175000e+000  1.900000e+002  8.767211e+000
      vertex  3.767210e+000  1.900000e+002  7.175000e+000
    endloop
  endfacet
  facet normal  0.000000e+000 -1.000000e+000  0.000000e+000
    outer loop
      vertex  1.000000e+001  1.900000e+002  2.614208e+001
      vertex  3.767210e+000  1.900000e+002  7.175000e+000
      vertex  4.350000e+000  1.900000e+002  5.000000e+000
    endloop
  endfacet
  facet normal  0.000000e+000 -1.000000e+000  -0.000000e+000
    outer loop
      vertex  1.000000e+001  1.900000e+002  0.000000e+000
      vertex  1.000000e+001  1.900000e+002  2.614208e+001
      vertex  4.350000e+000  1.900000e+002  5.000000e+000
    endloop
  endfacet
  facet normal  0.000000e+000 -9.999999e-001  -0.000000e+000
    outer loop
      vertex  1.000000e+001  1.900000e+002  0.000000e+000
      vertex  4.350000e+000  1.900000e+002  5.000000e+000
      vertex  3.767210e+000  1.900000e+002  2.825000e+000
    endloop
  endfacet
  facet normal  0.000000e+000 -9.999999e-001  -0.000000e+000
    outer loop
      vertex  1.000000e+001  1.900000e+002  0.000000e+000
      vertex  3.767210e+000  1.900000e+002  2.825000e+000
      vertex  2.175000e+000  1.900000e+002  1.232790e+000
    endloop
  endfacet
  facet normal  0.000000e+000 -1.000000e+000  -0.000000e+000
    outer loop
      vertex  1.000000e+001  1.900000e+002  0.000000e+000
      vertex  2.175000e+000  1.900000e+002  1.232790e+000
      vertex  1.776357e-015  1.900000e+002  6.500000e-001
    endloop
  endfacet
  facet normal  0.000000e+000 -9.999999e-001  -0.000000e+000
    outer loop
      vertex  1.000000e+001  1.900000e+002  2.614208e+001
      vertex  3.369609e+000  1.900000e+002  2.734830e+001
      vertex  1.019756e+000  1.900000e+002  2.313849e+001
    endloop
  endfacet
  facet normal  0.000000e+000 -1.000000e+000  0.000000e+000
    outer loop
      vertex  1.019756e+000  1.900000e+002  2.313849e+001
      vertex  3.369609e+000  1.900000e+002  2.734830e+001
      vertex -3.369609e+000  1.900000e+002  2.734830e+001
    endloop
  endfacet
  facet normal  0.000000e+000 -1.000000e+000  0.000000e+000
    outer loop
      vertex  1.019756e+000  1.900000e+002  2.313849e+001
      vertex -3.369609e+000  1.900000e+002  2.734830e+001
      vertex -1.019756e+000  1.900000e+002  2.313849e+001
    endloop
  endfacet
  facet normal  0.000000e+000 -9.999999e-001  0.000000e+000
    outer loop
      vertex -1.019756e+000  1.900000e+002  2.313849e+001
      vertex -3.369609e+000  1.900000e+002  2.734830e+001
      vertex -1.000000e+001  1.900000e+002  2.614208e+001
    endloop
  endfacet
  facet normal  1.000000e+000  0.000000e+000  0.000000e+000
    outer loop
      vertex -1.000000e+001  1.900000e+002  0.000000e+000
      vertex -1.000000e+001  1.900000e+002  2.614208e+001
      vertex -1.000000e+001  1.800000e+002 -2.482971e+000
    endloop
  endfacet
  facet normal  1.000000e+000  0.000000e+000  0.000000e+000
    outer loop
      vertex -1.000000e+001  1.800000e+002 -2.482971e+000
      vertex -1.000000e+001  1.900000e+002  2.614208e+001
      vertex -1.000000e+001  1.800000e+002  2.614208e+001
    endloop
  endfacet
  facet normal -9.659258e-001  0.000000e+000 -2.588190e-001
    outer loop
      vertex  4.350000e+000  4.300000e+002  5.000000e+000
      vertex  4.350000e+000  1.900000e+002  5.000000e+000
      vertex  3.767210e+000  4.300000e+002  7.175000e+000
    endloop
  endfacet
  facet normal -9.659258e-001  -0.000000e+000 -2.588190e-001
    outer loop
      vertex  3.767210e+000  4.300000e+002  7.175000e+000
      vertex  4.350000e+000  1.900000e+002  5.000000e+000
      vertex  3.767210e+000  1.900000e+002  7.175000e+000
    endloop
  endfacet
  facet normal -7.071068e-001  0.000000e+000 -7.071067e-001
    outer loop
      vertex  3.767210e+000  4.300000e+002  7.175000e+000
      vertex  3.767210e+000  1.900000e+002  7.175000e+000
      vertex  2.175000e+000  4.300000e+002  8.767211e+000
    endloop
  endfacet
  facet normal -7.071068e-001  -0.000000e+000 -7.071067e-001
    outer loop
      vertex  2.175000e+000  4.300000e+002  8.767211e+000
      vertex  3.767210e+000  1.900000e+002  7.175000e+000
      vertex  2.175000e+000  1.900000e+002  8.767211e+000
    endloop
  endfacet
  facet normal -2.588190e-001  0.000000e+000 -9.659258e-001
    outer loop
      vertex  2.175000e+000  4.300000e+002  8.767211e+000
      vertex  2.175000e+000  1.900000e+002  8.767211e+000
      vertex  0.000000e+000  4.300000e+002  9.350000e+000
    endloop
  endfacet
  facet normal -2.588190e-001  -0.000000e+000 -9.659258e-001
    outer loop
      vertex  0.000000e+000  4.300000e+002  9.350000e+000
      vertex  2.175000e+000  1.900000e+002  8.767211e+000
      vertex  0.000000e+000  1.900000e+002  9.350000e+000
    endloop
  endfacet
  facet normal  2.588190e-001  0.000000e+000 -9.659258e-001
    outer loop
      vertex  0.000000e+000  4.300000e+002  9.350000e+000
      vertex  0.000000e+000  1.900000e+002  9.350000e+000
      vertex -2.175000e+000  4.300000e+002  8.767211e+000
    endloop
  endfacet
  facet normal  2.588190e-001  0.000000e+000 -9.659258e-001
    outer loop
      vertex -2.175000e+000  4.300000e+002  8.767211e+000
      vertex  0.000000e+000  1.900000e+002  9.350000e+000
      vertex -2.175000e+000  1.900000e+002  8.767211e+000
    endloop
  endfacet
  facet normal  7.071068e-001  0.000000e+000 -7.071067e-001
    outer loop
      vertex -2.175000e+000  4.300000e+002  8.767211e+000
      vertex -2.175000e+000  1.900000e+002  8.767211e+000
      vertex -3.767210e+000  4.300000e+002  7.175000e+000
    endloop
  endfacet
  facet normal  7.071068e-001  0.000000e+000 -7.071067e-001
    outer loop
      vertex -3.767210e+000  4.300000e+002  7.175000e+000
      vertex -2.175000e+000  1.900000e+002  8.767211e+000
      vertex -3.767210e+000  1.900000e+002  7.175000e+000
    endloop
  endfacet
  facet normal  9.659258e-001  0.000000e+000 -2.588190e-001
    outer loop
      vertex -3.767210e+000  4.300000e+002  7.175000e+000
      vertex -3.767210e+000  1.900000e+002  7.175000e+000
      vertex -4.350000e+000  4.300000e+002  5.000000e+000
    endloop
  endfacet
  facet normal  9.659258e-001  0.000000e+000 -2.588190e-001
    outer loop
      vertex -4.350000e+000  4.300000e+002  5.000000e+000
      vertex -3.767210e+000  1.900000e+002  7.175000e+000
      vertex -4.350000e+000  1.900000e+002  5.000000e+000
    endloop
  endfacet
  facet normal  9.659258e-001  -0.000000e+000  2.588190e-001
    outer loop
      vertex -4.350000e+000  4.300000e+002  5.000000e+000
      vertex -4.350000e+000  1.900000e+002  5.000000e+000
      vertex -3.767210e+000  4.300000e+002  2.825000e+000
    endloop
  endfacet
  facet normal  9.659258e-001  0.000000e+000  2.588190e-001
    outer loop
      vertex -3.767210e+000  4.300000e+002  2.825000e+000
      vertex -4.350000e+000  1.900000e+002  5.000000e+000
      vertex -3.767210e+000  1.900000e+002  2.825000e+000
    endloop
  endfacet
  facet normal  7.071068e-001  -0.000000e+000  7.071068e-001
    outer loop
      vertex -3.767210e+000  4.300000e+002  2.825000e+000
      vertex -3.767210e+000  1.900000e+002  2.825000e+000
      vertex -2.175000e+000  4.300000e+002  1.232790e+000
    endloop
  endfacet
  facet normal  7.071068e-001  0.000000e+000  7.071068e-001
    outer loop
      vertex -2.175000e+000  4.300000e+002  1.232790e+000
      vertex -3.767210e+000  1.900000e+002  2.825000e+000
      vertex -2.175000e+000  1.900000e+002  1.232790e+000
    endloop
  endfacet
  facet normal  2.588191e-001  -0.000000e+000  9.659258e-001
    outer loop
      vertex -2.175000e+000  4.300000e+002  1.232790e+000
      vertex -2.175000e+000  1.900000e+002  1.232790e+000
      vertex  1.776357e-015  4.300000e+002  6.500000e-001
    endloop
  endfacet
  facet normal  2.588191e-001  0.000000e+000  9.659258e-001
    outer loop
      vertex  1.776357e-015  4.300000e+002  6.500000e-001
      vertex -2.175000e+000  1.900000e+002  1.232790e+000
      vertex  1.776357e-015  1.900000e+002  6.500000e-001
    endloop
  endfacet
  facet normal -2.588191e-001  0.000000e+000  9.659258e-001
    outer loop
      vertex  1.776357e-015  4.300000e+002  6.500000e-001
      vertex  1.776357e-015  1.900000e+002  6.500000e-001
      vertex  2.175000e+000  4.300000e+002  1.232790e+000
    endloop
  endfacet
  facet normal -2.588191e-001  0.000000e+000  9.659258e-001
    outer loop
      vertex  2.175000e+000  4.300000e+002  1.232790e+000
      vertex  1.776357e-015  1.900000e+002  6.500000e-001
      vertex  2.175000e+000  1.900000e+002  1.232790e+000
    endloop
  endfacet
  facet normal -7.071068e-001  0.000000e+000  7.071068e-001
    outer loop
      vertex  2.175000e+000  4.300000e+002  1.232790e+000
      vertex  2.175000e+000  1.900000e+002  1.232790e+000
      vertex  3.767210e+000  4.300000e+002  2.825000e+000
    endloop
  endfacet
  facet normal -7.071068e-001  0.000000e+000  7.071068e-001
    outer loop
      vertex  3.767210e+000  4.300000e+002  2.825000e+000
      vertex  2.175000e+000  1.900000e+002  1.232790e+000
      vertex  3.767210e+000  1.900000e+002  2.825000e+000
    endloop
  endfacet
  facet normal -9.659258e-001  0.000000e+000  2.588190e-001
    outer loop
      vertex  3.767210e+000  4.300000e+002  2.825000e+000
      vertex  3.767210e+000  1.900000e+002  2.825000e+000
      vertex  4.350000e+000  4.300000e+002  5.000000e+000
    endloop
  endfacet
  facet normal -9.659258e-001  0.000000e+000  2.588190e-001
    outer loop
      vertex  4.350000e+000  4.300000e+002  5.000000e+000
      vertex  3.767210e+000  1.900000e+002  2.825000e+000
      vertex  4.350000e+000  1.900000e+002  5.000000e+000
    endloop
  endfacet
  facet normal -9.510565e-001  0.000000e+000 -3.090169e-001
    outer loop
      vertex  3.300000e+000  4.300000e+002  2.000000e+001
      vertex  3.300000e+000  1.900000e+002  2.000000e+001
      vertex  2.669756e+000  4.300000e+002  2.193969e+001
    endloop
  endfacet
  facet normal -9.510565e-001  -0.000000e+000 -3.090169e-001
    outer loop
      vertex  2.669756e+000  4.300000e+002  2.193969e+001
      vertex  3.300000e+000  1.900000e+002  2.000000e+001
      vertex  2.669756e+000  1.900000e+002  2.193969e+001
    endloop
  endfacet
  facet normal -5.877852e-001  0.000000e+000 -8.090170e-001
    outer loop
      vertex  2.669756e+000  4.300000e+002  2.193969e+001
      vertex  2.669756e+000  1.900000e+002  2.193969e+001
      vertex  1.019756e+000  4.300000e+002  2.313849e+001
    endloop
  endfacet
  facet normal -5.877852e-001  -0.000000e+000 -8.090170e-001
    outer loop
      vertex  1.019756e+000  4.300000e+002  2.313849e+001
      vertex  2.669756e+000  1.900000e+002  2.193969e+001
      vertex  1.019756e+000  1.900000e+002  2.313849e+001
    endloop
  endfacet
  facet normal  0.000000e+000  0.000000e+000 -1.000000e+000
    outer loop
      vertex  1.019756e+000  4.300000e+002  2.313849e+001
      vertex  1.019756e+000  1.900000e+002  2.313849e+001
      vertex -1.019756e+000  4.300000e+002  2.313849e+001
    endloop
  endfacet
  facet normal  0.000000e+000  0.000000e+000 -1.000000e+000
    outer loop
      vertex -1.019756e+000  4.300000e+002  2.313849e+001
      vertex  1.019756e+000  1.900000e+002  2.313849e+001
      vertex -1.019756e+000  1.900000e+002  2.313849e+001
    endloop
  endfacet
  facet normal  5.877852e-001  0.000000e+000 -8.090170e-001
    outer loop
      vertex -1.019756e+000  4.300000e+002  2.313849e+001
      vertex -1.019756e+000  1.900000e+002  2.313849e+001
      vertex -2.669756e+000  4.300000e+002  2.193969e+001
    endloop
  endfacet
  facet normal  5.877852e-001  0.000000e+000 -8.090170e-001
    outer loop
      vertex -2.669756e+000  4.300000e+002  2.193969e+001
      vertex -1.019756e+000  1.900000e+002  2.313849e+001
      vertex -2.669756e+000  1.900000e+002  2.193969e+001
    endloop
  endfacet
  facet normal  9.510565e-001  0.000000e+000 -3.090169e-001
    outer loop
      vertex -2.669756e+000  4.300000e+002  2.193969e+001
      vertex -2.669756e+000  1.900000e+002  2.193969e+001
      vertex -3.300000e+000  4.300000e+002  2.000000e+001
    endloop
  endfacet
  facet normal  9.510565e-001  0.000000e+000 -3.090169e-001
    outer loop
      vertex -3.300000e+000  4.300000e+002  2.000000e+001
      vertex -2.669756e+000  1.900000e+002  2.193969e+001
      vertex -3.300000e+000  1.900000e+002  2.000000e+001
    endloop
  endfacet
  facet normal  9.510565e-001  -0.000000e+000  3.090169e-001
    outer loop
      vertex -3.300000e+000  4.300000e+002  2.000000e+001
      vertex -3.300000e+000  1.900000e+002  2.000000e+001
      vertex -2.669756e+000  4.300000e+002  1.806031e+001
    endloop
  endfacet
  facet normal  9.510565e-001  0.000000e+000  3.090169e-001
    outer loop
      vertex -2.669756e+000  4.300000e+002  1.806031e+001
      vertex -3.300000e+000  1.900000e+002  2.000000e+001
      vertex -2.669756e+000  1.900000e+002  1.806031e+001
    endloop
  endfacet
  facet normal  5.877852e-001  -0.000000e+000  8.090170e-001
    outer loop
      vertex -2.669756e+000  4.300000e+002  1.806031e+001
      vertex -2.669756e+000  1.900000e+002  1.806031e+001
      vertex -1.019756e+000  4.300000e+002  1.686151e+001
    endloop
  endfacet
  facet normal  5.877852e-001  0.000000e+000  8.090170e-001
    outer loop
      vertex -1.019756e+000  4.300000e+002  1.686151e+001
      vertex -2.669756e+000  1.900000e+002  1.806031e+001
      vertex -1.019756e+000  1.900000e+002  1.686151e+001
    endloop
  endfacet
  facet normal  0.000000e+000  0.000000e+000  1.000000e+000
    outer loop
      vertex -1.019756e+000  4.300000e+002  1.686151e+001
      vertex -1.019756e+000  1.900000e+002  1.686151e+001
      vertex  1.019756e+000  4.300000e+002  1.686151e+001
    endloop
  endfacet
  facet normal  0.000000e+000  0.000000e+000  1.000000e+000
    outer loop
      vertex  1.019756e+000  4.300000e+002  1.686151e+001
      vertex -1.019756e+000  1.900000e+002  1.686151e+001
      vertex  1.019756e+000  1.900000e+002  1.686151e+001
    endloop
  endfacet
  facet normal -5.877852e-001  0.000000e+000  8.090170e-001
    outer loop
      vertex  1.019756e+000  4.300000e+002  1.686151e+001
      vertex  1.019756e+000  1.900000e+002  1.686151e+001
      vertex  2.669756e+000  4.300000e+002  1.806031e+001
    endloop
  endfacet
  facet normal -5.877852e-001  0.000000e+000  8.090170e-001
    outer loop
      vertex  2.669756e+000  4.300000e+002  1.806031e+001
      vertex  1.019756e+000  1.900000e+002  1.686151e+001
      vertex  2.669756e+000  1.900000e+002  1.806031e+001
    endloop
  endfacet
  facet normal -9.510565e-001  0.000000e+000  3.090169e-001
    outer loop
      vertex  2.669756e+000  4.300000e+002  1.806031e+001
      vertex  2.669756e+000  1.900000e+002  1.806031e+001
      vertex  3.300000e+000  4.300000e+002  2.000000e+001
    endloop
  endfacet
  facet normal -9.510565e-001  0.000000e+000  3.090169e-001
    outer loop
      vertex  3.300000e+000  4.300000e+002  2.000000e+001
      vertex  2.669756e+000  1.900000e+002  1.806031e+001
      vertex  3.300000e+000  1.900000e+002  2.000000e+001
    endloop
  endfacet
  facet normal  2.201738e-001 -7.837904e-002 -9.723066e-001
    outer loop
      vertex  1.500000e+001  4.100000e+002  0.000000e+000
      vertex  1.500000e+001  4.180091e+002 -6.456271e-001
      vertex  1.882683e+001  4.165150e+002  3.413868e-001
    endloop
  endfacet
  facet normal  2.328588e-001 -2.324083e-001 -9.443322e-001
    outer loop
      vertex  1.500000e+001  4.258114e+002 -2.565835e+000
      vertex  1.882683e+001  4.229221e+002 -9.111229e-001
      vertex  1.500000e+001  4.180091e+002 -6.456271e-001
    endloop
  endfacet
  facet normal  2.328591e-001 -3.806736e-001 -8.949102e-001
    outer loop
      vertex  1.500000e+001  4.332053e+002 -5.711034e+000
      vertex  1.882683e+001  4.291156e+002 -2.975606e+000
      vertex  1.500000e+001  4.258114e+002 -2.565835e+000
    endloop
  endfacet
  facet normal  6.556051e-001 -3.971001e-001 -6.422565e-001
    outer loop
      vertex  2.056376e+001  4.400000e+002 -7.905725e+000
      vertex  2.219720e+001  4.400000e+002 -6.238338e+000
      vertex  2.207107e+001  4.360602e+002 -3.931146e+000
    endloop
  endfacet
  facet normal  5.538414e-001 -4.767512e-001 -6.826184e-001
    outer loop
      vertex  2.207107e+001  4.360602e+002 -3.931146e+000
      vertex  1.882683e+001  4.349929e+002 -5.817916e+000
      vertex  2.056376e+001  4.400000e+002 -7.905725e+000
    endloop
  endfacet
  facet normal  4.612594e-001 -4.730095e-001 -7.506675e-001
    outer loop
      vertex  2.056376e+001  4.400000e+002 -7.905725e+000
      vertex  1.882683e+001  4.349929e+002 -5.817916e+000
      vertex  1.827147e+001  4.400000e+002 -9.314262e+000
    endloop
  endfacet
  facet normal  9.807051e-001 -1.278584e-002 -1.950742e-001
    outer loop
      vertex  2.500000e+001  4.100000e+002  1.000000e+001
      vertex  2.423880e+001  4.100000e+002  6.173166e+000
      vertex  2.500000e+001  4.178316e+002  9.486691e+000
    endloop
  endfacet
  facet normal  9.806228e-001 -1.259780e-002 -1.954997e-001
    outer loop
      vertex  2.500000e+001  4.178316e+002  9.486691e+000
      vertex  2.423880e+001  4.100000e+002  6.173166e+000
      vertex  2.423880e+001  4.172096e+002  5.708589e+000
    endloop
  endfacet
  facet normal  9.807854e-001 -3.805998e-002 -1.913404e-001
    outer loop
      vertex  2.500000e+001  4.178316e+002  9.486691e+000
      vertex  2.423880e+001  4.172096e+002  5.708589e+000
      vertex  2.500000e+001  4.255291e+002  7.955550e+000
    endloop
  endfacet
  facet normal  9.805344e-001 -3.766990e-002 -1.926997e-001
    outer loop
      vertex  2.500000e+001  4.255291e+002  7.955550e+000
      vertex  2.423880e+001  4.172096e+002  5.708589e+000
      vertex  2.423880e+001  4.242999e+002  4.322541e+000
    endloop
  endfacet
  facet normal  9.808681e-001 -6.257587e-002 -1.843423e-001
    outer loop
      vertex  2.500000e+001  4.255291e+002  7.955550e+000
      vertex  2.423880e+001  4.242999e+002  4.322541e+000
      vertex  2.500000e+001  4.329610e+002  5.432772e+000
    endloop
  endfacet
  facet normal  9.804425e-001 -6.223547e-002 -1.867061e-001
    outer loop
      vertex  2.500000e+001  4.329610e+002  5.432772e+000
      vertex  2.423880e+001  4.242999e+002  4.322541e+000
      vertex  2.423880e+001  4.311536e+002  2.037950e+000
    endloop
  endfacet
  facet normal  9.809527e-001 -8.591310e-002 -1.742147e-001
    outer loop
      vertex  2.500000e+001  4.329610e+002  5.432772e+000
      vertex  2.423880e+001  4.311536e+002  2.037950e+000
      vertex  2.500000e+001  4.400000e+002  1.961524e+000
    endloop
  endfacet
  facet normal  9.803470e-001 -8.589025e-002 -1.776020e-001
    outer loop
      vertex  2.500000e+001  4.400000e+002  1.961524e+000
      vertex  2.423880e+001  4.311536e+002  2.037950e+000
      vertex  2.423880e+001  4.376575e+002 -1.107395e+000
    endloop
  endfacet
  facet normal  9.811038e-001 -1.206507e-001 -1.512571e-001
    outer loop
      vertex  2.500000e+001  4.400000e+002  1.961524e+000
      vertex  2.423880e+001  4.376575e+002 -1.107395e+000
      vertex  2.437309e+001  4.400000e+002 -2.104854e+000
    endloop
  endfacet
  facet normal  1.745321e-001 -5.255859e-001 -8.326452e-001
    outer loop
      vertex  1.500000e+001  4.400000e+002 -1.000000e+001
      vertex  1.827147e+001  4.400000e+002 -9.314262e+000
      vertex  1.500000e+001  4.332053e+002 -5.711034e+000
    endloop
  endfacet
  facet normal  2.296059e-001 -5.399680e-001 -8.097628e-001
    outer loop
      vertex  1.500000e+001  4.332053e+002 -5.711034e+000
      vertex  1.827147e+001  4.400000e+002 -9.314262e+000
      vertex  1.882683e+001  4.349929e+002 -5.817916e+000
    endloop
  endfacet
  facet normal  1.754564e-001 -4.286177e-001 -8.862854e-001
    outer loop
      vertex  1.500000e+001  4.332053e+002 -5.711034e+000
      vertex  1.882683e+001  4.349929e+002 -5.817916e+000
      vertex  1.882683e+001  4.291156e+002 -2.975606e+000
    endloop
  endfacet
  facet normal  8.310621e-001 -3.006297e-001 -4.679290e-001
    outer loop
      vertex  2.207107e+001  4.360602e+002 -3.931146e+000
      vertex  2.219720e+001  4.400000e+002 -6.238338e+000
      vertex  2.423880e+001  4.376575e+002 -1.107395e+000
    endloop
  endfacet
  facet normal  7.609442e-001 -4.200055e-001 -4.945295e-001
    outer loop
      vertex  2.423880e+001  4.376575e+002 -1.107395e+000
      vertex  2.219720e+001  4.400000e+002 -6.238338e+000
      vertex  2.346954e+001  4.400000e+002 -4.280563e+000
    endloop
  endfacet
  facet normal  9.026623e-001 -2.113684e-001 -3.748654e-001
    outer loop
      vertex  2.423880e+001  4.376575e+002 -1.107395e+000
      vertex  2.346954e+001  4.400000e+002 -4.280563e+000
      vertex  2.437309e+001  4.400000e+002 -2.104854e+000
    endloop
  endfacet
  facet normal  8.309371e-001 -3.577749e-002 -5.552146e-001
    outer loop
      vertex  2.423880e+001  4.172096e+002  5.708589e+000
      vertex  2.423880e+001  4.100000e+002  6.173166e+000
      vertex  2.207107e+001  4.167932e+002  2.491186e+000
    endloop
  endfacet
  facet normal  8.309373e-001 -3.577749e-002 -5.552147e-001
    outer loop
      vertex  2.207107e+001  4.167932e+002  2.491186e+000
      vertex  2.423880e+001  4.100000e+002  6.173166e+000
      vertex  2.207107e+001  4.100000e+002  2.928932e+000
    endloop
  endfacet
  facet normal  5.547745e-001 -5.350235e-002 -8.302786e-001
    outer loop
      vertex  2.207107e+001  4.167932e+002  2.491186e+000
      vertex  2.207107e+001  4.100000e+002  2.928932e+000
      vertex  1.882683e+001  4.165150e+002  3.413868e-001
    endloop
  endfacet
  facet normal  5.547745e-001 -5.350244e-002 -8.302788e-001
    outer loop
      vertex  1.882683e+001  4.165150e+002  3.413868e-001
      vertex  2.207107e+001  4.100000e+002  2.928932e+000
      vertex  1.882683e+001  4.100000e+002  7.612047e-001
    endloop
  endfacet
  facet normal  1.947019e-001 -6.307510e-002 -9.788324e-001
    outer loop
      vertex  1.882683e+001  4.165150e+002  3.413868e-001
      vertex  1.882683e+001  4.100000e+002  7.612047e-001
      vertex  1.500000e+001  4.100000e+002  0.000000e+000
    endloop
  endfacet
  facet normal  8.309370e-001 -1.067409e-001 -5.460311e-001
    outer loop
      vertex  2.423880e+001  4.242999e+002  4.322541e+000
      vertex  2.423880e+001  4.172096e+002  5.708589e+000
      vertex  2.207107e+001  4.234740e+002  1.185189e+000
    endloop
  endfacet
  facet normal  8.309373e-001 -1.067407e-001 -5.460310e-001
    outer loop
      vertex  2.207107e+001  4.234740e+002  1.185189e+000
      vertex  2.423880e+001  4.172096e+002  5.708589e+000
      vertex  2.207107e+001  4.167932e+002  2.491186e+000
    endloop
  endfacet
  facet normal  5.547750e-001 -1.596220e-001 -8.165449e-001
    outer loop
      vertex  2.207107e+001  4.234740e+002  1.185189e+000
      vertex  2.207107e+001  4.167932e+002  2.491186e+000
      vertex  1.882683e+001  4.229221e+002 -9.111229e-001
    endloop
  endfacet
  facet normal  5.547748e-001 -1.596221e-001 -8.165450e-001
    outer loop
      vertex  1.882683e+001  4.229221e+002 -9.111229e-001
      vertex  2.207107e+001  4.167932e+002  2.491186e+000
      vertex  1.882683e+001  4.165150e+002  3.413868e-001
    endloop
  endfacet
  facet normal  1.754550e-001 -1.888773e-001 -9.661992e-001
    outer loop
      vertex  1.882683e+001  4.229221e+002 -9.111229e-001
      vertex  1.882683e+001  4.165150e+002  3.413868e-001
      vertex  1.500000e+001  4.180091e+002 -6.456271e-001
    endloop
  endfacet
  facet normal  8.309371e-001 -1.759387e-001 -5.278152e-001
    outer loop
      vertex  2.423880e+001  4.311536e+002  2.037950e+000
      vertex  2.423880e+001  4.242999e+002  4.322541e+000
      vertex  2.207107e+001  4.299319e+002 -9.674573e-001
    endloop
  endfacet
  facet normal  8.309370e-001 -1.759391e-001 -5.278156e-001
    outer loop
      vertex  2.207107e+001  4.299319e+002 -9.674573e-001
      vertex  2.423880e+001  4.242999e+002  4.322541e+000
      vertex  2.207107e+001  4.234740e+002  1.185189e+000
    endloop
  endfacet
  facet normal  5.547741e-001 -2.631026e-001 -7.893052e-001
    outer loop
      vertex  2.207107e+001  4.299319e+002 -9.674573e-001
      vertex  2.207107e+001  4.234740e+002  1.185189e+000
      vertex  1.882683e+001  4.291156e+002 -2.975606e+000
    endloop
  endfacet
  facet normal  5.547754e-001 -2.631016e-001 -7.893047e-001
    outer loop
      vertex  1.882683e+001  4.291156e+002 -2.975606e+000
      vertex  2.207107e+001  4.234740e+002  1.185189e+000
      vertex  1.882683e+001  4.229221e+002 -9.111229e-001
    endloop
  endfacet
  facet normal  1.689907e-001 -3.116797e-001 -9.350390e-001
    outer loop
      vertex  1.882683e+001  4.291156e+002 -2.975606e+000
      vertex  1.882683e+001  4.229221e+002 -9.111229e-001
      vertex  1.500000e+001  4.258114e+002 -2.565835e+000
    endloop
  endfacet
  facet normal  8.309367e-001 -2.422262e-001 -5.008700e-001
    outer loop
      vertex  2.423880e+001  4.376575e+002 -1.107395e+000
      vertex  2.423880e+001  4.311536e+002  2.037950e+000
      vertex  2.207107e+001  4.360602e+002 -3.931146e+000
    endloop
  endfacet
  facet normal  8.309372e-001 -2.422253e-001 -5.008695e-001
    outer loop
      vertex  2.207107e+001  4.360602e+002 -3.931146e+000
      vertex  2.423880e+001  4.311536e+002  2.037950e+000
      vertex  2.207107e+001  4.299319e+002 -9.674573e-001
    endloop
  endfacet
  facet normal  5.547757e-001 -3.622281e-001 -7.490091e-001
    outer loop
      vertex  2.207107e+001  4.360602e+002 -3.931146e+000
      vertex  2.207107e+001  4.299319e+002 -9.674573e-001
      vertex  1.882683e+001  4.349929e+002 -5.817916e+000
    endloop
  endfacet
  facet normal  5.547740e-001 -3.622297e-001 -7.490097e-001
    outer loop
      vertex  1.882683e+001  4.349929e+002 -5.817916e+000
      vertex  2.207107e+001  4.299319e+002 -9.674573e-001
      vertex  1.882683e+001  4.291156e+002 -2.975606e+000
    endloop
  endfacet
  facet normal -3.188235e-002 -3.912350e-001 -9.197384e-001
    outer loop
      vertex  1.500000e+001  4.332053e+002 -5.711034e+000
      vertex  1.500000e+001  4.258114e+002 -2.565835e+000
      vertex  1.000000e+001  4.300000e+002 -4.174243e+000
    endloop
  endfacet
  facet normal  -0.000000e+000 -3.584759e-001 -9.335390e-001
    outer loop
      vertex -1.000000e+001  4.300000e+002 -4.174243e+000
      vertex  1.000000e+001  4.300000e+002 -4.174243e+000
      vertex  1.500000e+001  4.258114e+002 -2.565835e+000
    endloop
  endfacet
  facet normal  -0.000000e+000 -3.584759e-001 -9.335390e-001
    outer loop
      vertex -1.000000e+001  4.300000e+002 -4.174243e+000
      vertex  1.500000e+001  4.258114e+002 -2.565835e+000
      vertex -1.500000e+001  4.258114e+002 -2.565835e+000
    endloop
  endfacet
  facet normal  3.188235e-002 -3.912350e-001 -9.197384e-001
    outer loop
      vertex -1.000000e+001  4.300000e+002 -4.174243e+000
      vertex -1.500000e+001  4.258114e+002 -2.565835e+000
      vertex -1.500000e+001  4.332053e+002 -5.711034e+000
    endloop
  endfacet
  facet normal -1.595004e-002 -4.523942e-001 -8.916755e-001
    outer loop
      vertex -1.000000e+001  4.300000e+002 -4.174243e+000
      vertex -1.500000e+001  4.332053e+002 -5.711034e+000
      vertex -1.000000e+001  4.351691e+002 -6.796816e+000
    endloop
  endfacet
  facet normal  0.000000e+000 -8.035081e-002 -9.967667e-001
    outer loop
      vertex  1.500000e+001  4.100000e+002  0.000000e+000
      vertex -1.500000e+001  4.100000e+002  0.000000e+000
      vertex  1.500000e+001  4.180091e+002 -6.456271e-001
    endloop
  endfacet
  facet normal  -0.000000e+000 -8.035081e-002 -9.967667e-001
    outer loop
      vertex  1.500000e+001  4.180091e+002 -6.456271e-001
      vertex -1.500000e+001  4.100000e+002  0.000000e+000
      vertex -1.500000e+001  4.180091e+002 -6.456271e-001
    endloop
  endfacet
  facet normal  0.000000e+000 -2.389777e-001 -9.710250e-001
    outer loop
      vertex  1.500000e+001  4.180091e+002 -6.456271e-001
      vertex -1.500000e+001  4.180091e+002 -6.456271e-001
      vertex  1.500000e+001  4.258114e+002 -2.565835e+000
    endloop
  endfacet
  facet normal  -0.000000e+000 -2.389777e-001 -9.710250e-001
    outer loop
      vertex  1.500000e+001  4.258114e+002 -2.565835e+000
      vertex -1.500000e+001  4.180091e+002 -6.456271e-001
      vertex -1.500000e+001  4.258114e+002 -2.565835e+000
    endloop
  endfacet
  facet normal  -0.000000e+000 -5.526206e-001 -8.334330e-001
    outer loop
      vertex  1.000000e+001  4.400000e+002 -1.000000e+001
      vertex  1.500000e+001  4.400000e+002 -1.000000e+001
      vertex  1.000000e+001  4.351691e+002 -6.796816e+000
    endloop
  endfacet
  facet normal -2.600609e-002 -5.335981e-001 -8.453383e-001
    outer loop
      vertex  1.000000e+001  4.351691e+002 -6.796816e+000
      vertex  1.500000e+001  4.400000e+002 -1.000000e+001
      vertex  1.500000e+001  4.332053e+002 -5.711034e+000
    endloop
  endfacet
  facet normal  1.595004e-002 -4.523942e-001 -8.916755e-001
    outer loop
      vertex  1.000000e+001  4.351691e+002 -6.796816e+000
      vertex  1.500000e+001  4.332053e+002 -5.711034e+000
      vertex  1.000000e+001  4.300000e+002 -4.174243e+000
    endloop
  endfacet
  facet normal  0.000000e+000 -5.526206e-001 -8.334330e-001
    outer loop
      vertex -1.000000e+001  4.400000e+002 -1.000000e+001
      vertex -1.000000e+001  4.351691e+002 -6.796816e+000
      vertex -1.500000e+001  4.400000e+002 -1.000000e+001
    endloop
  endfacet
  facet normal  2.600609e-002 -5.335981e-001 -8.453383e-001
    outer loop
      vertex -1.500000e+001  4.400000e+002 -1.000000e+001
      vertex -1.000000e+001  4.351691e+002 -6.796816e+000
      vertex -1.500000e+001  4.332053e+002 -5.711034e+000
    endloop
  endfacet
  facet normal -2.201738e-001 -7.837905e-002 -9.723066e-001
    outer loop
      vertex -1.500000e+001  4.100000e+002  0.000000e+000
      vertex -1.882683e+001  4.165150e+002  3.413868e-001
      vertex -1.500000e+001  4.180091e+002 -6.456271e-001
    endloop
  endfacet
  facet normal -9.811038e-001 -1.206506e-001 -1.512571e-001
    outer loop
      vertex -2.500000e+001  4.400000e+002  1.961524e+000
      vertex -2.437309e+001  4.400000e+002 -2.104854e+000
      vertex -2.423880e+001  4.376575e+002 -1.107395e+000
    endloop
  endfacet
  facet normal -9.804057e-001 -8.712566e-002 -1.766735e-001
    outer loop
      vertex -2.500000e+001  4.400000e+002  1.961524e+000
      vertex -2.423880e+001  4.376575e+002 -1.107395e+000
      vertex -2.500000e+001  4.329610e+002  5.432772e+000
    endloop
  endfacet
  facet normal -2.201744e-001 -5.206800e-001 -8.248731e-001
    outer loop
      vertex -1.500000e+001  4.400000e+002 -1.000000e+001
      vertex -1.500000e+001  4.332053e+002 -5.711034e+000
      vertex -1.882683e+001  4.349929e+002 -5.817916e+000
    endloop
  endfacet
  facet normal -1.711704e-001 -5.512287e-001 -8.166073e-001
    outer loop
      vertex -1.500000e+001  4.400000e+002 -1.000000e+001
      vertex -1.882683e+001  4.349929e+002 -5.817916e+000
      vertex -1.827147e+001  4.400000e+002 -9.314262e+000
    endloop
  endfacet
  facet normal -2.328591e-001 -3.806736e-001 -8.949102e-001
    outer loop
      vertex -1.500000e+001  4.258114e+002 -2.565835e+000
      vertex -1.882683e+001  4.291156e+002 -2.975606e+000
      vertex -1.500000e+001  4.332053e+002 -5.711034e+000
    endloop
  endfacet
  facet normal -9.804772e-001 -6.320556e-002 -1.861974e-001
    outer loop
      vertex -2.423880e+001  4.311536e+002  2.037950e+000
      vertex -2.500000e+001  4.255291e+002  7.955550e+000
      vertex -2.500000e+001  4.329610e+002  5.432772e+000
    endloop
  endfacet
  facet normal -9.809427e-001 -8.459135e-002 -1.749161e-001
    outer loop
      vertex -2.423880e+001  4.311536e+002  2.037950e+000
      vertex -2.500000e+001  4.329610e+002  5.432772e+000
      vertex -2.423880e+001  4.376575e+002 -1.107395e+000
    endloop
  endfacet
  facet normal -2.328588e-001 -2.324083e-001 -9.443322e-001
    outer loop
      vertex -1.500000e+001  4.180091e+002 -6.456271e-001
      vertex -1.882683e+001  4.229221e+002 -9.111229e-001
      vertex -1.500000e+001  4.258114e+002 -2.565835e+000
    endloop
  endfacet
  facet normal -9.805510e-001 -3.828935e-002 -1.924936e-001
    outer loop
      vertex -2.423880e+001  4.242999e+002  4.322541e+000
      vertex -2.500000e+001  4.178316e+002  9.486691e+000
      vertex -2.500000e+001  4.255291e+002  7.955550e+000
    endloop
  endfacet
  facet normal -9.808677e-001 -6.156191e-002 -1.846854e-001
    outer loop
      vertex -2.423880e+001  4.242999e+002  4.322541e+000
      vertex -2.500000e+001  4.255291e+002  7.955550e+000
      vertex -2.423880e+001  4.311536e+002  2.037950e+000
    endloop
  endfacet
  facet normal -9.807894e-001 -3.742478e-002 -1.914458e-001
    outer loop
      vertex -2.423880e+001  4.172096e+002  5.708589e+000
      vertex -2.500000e+001  4.178316e+002  9.486691e+000
      vertex -2.423880e+001  4.242999e+002  4.322541e+000
    endloop
  endfacet
  facet normal -6.556051e-001 -3.971001e-001 -6.422565e-001
    outer loop
      vertex -2.207107e+001  4.360602e+002 -3.931146e+000
      vertex -2.219720e+001  4.400000e+002 -6.238338e+000
      vertex -2.056376e+001  4.400000e+002 -7.905725e+000
    endloop
  endfacet
  facet normal -5.538414e-001 -4.767512e-001 -6.826184e-001
    outer loop
      vertex -2.207107e+001  4.360602e+002 -3.931146e+000
      vertex -2.056376e+001  4.400000e+002 -7.905725e+000
      vertex -1.882683e+001  4.349929e+002 -5.817916e+000
    endloop
  endfacet
  facet normal -4.612594e-001 -4.730095e-001 -7.506675e-001
    outer loop
      vertex -2.056376e+001  4.400000e+002 -7.905725e+000
      vertex -1.827147e+001  4.400000e+002 -9.314262e+000
      vertex -1.882683e+001  4.349929e+002 -5.817916e+000
    endloop
  endfacet
  facet normal -9.807051e-001 -1.278584e-002 -1.950742e-001
    outer loop
      vertex -2.500000e+001  4.100000e+002  1.000000e+001
      vertex -2.500000e+001  4.178316e+002  9.486691e+000
      vertex -2.423880e+001  4.100000e+002  6.173166e+000
    endloop
  endfacet
  facet normal -9.806228e-001 -1.259780e-002 -1.954997e-001
    outer loop
      vertex -2.423880e+001  4.100000e+002  6.173166e+000
      vertex -2.500000e+001  4.178316e+002  9.486691e+000
      vertex -2.423880e+001  4.172096e+002  5.708589e+000
    endloop
  endfacet
  facet normal -8.309371e-001 -3.577749e-002 -5.552146e-001
    outer loop
      vertex -2.423880e+001  4.100000e+002  6.173166e+000
      vertex -2.423880e+001  4.172096e+002  5.708589e+000
      vertex -2.207107e+001  4.100000e+002  2.928932e+000
    endloop
  endfacet
  facet normal -8.309373e-001 -3.577749e-002 -5.552147e-001
    outer loop
      vertex -2.207107e+001  4.100000e+002  2.928932e+000
      vertex -2.423880e+001  4.172096e+002  5.708589e+000
      vertex -2.207107e+001  4.167932e+002  2.491186e+000
    endloop
  endfacet
  facet normal -5.547745e-001 -5.350235e-002 -8.302788e-001
    outer loop
      vertex -2.207107e+001  4.100000e+002  2.928932e+000
      vertex -2.207107e+001  4.167932e+002  2.491186e+000
      vertex -1.882683e+001  4.100000e+002  7.612047e-001
    endloop
  endfacet
  facet normal -5.547745e-001 -5.350243e-002 -8.302786e-001
    outer loop
      vertex -1.882683e+001  4.100000e+002  7.612047e-001
      vertex -2.207107e+001  4.167932e+002  2.491186e+000
      vertex -1.882683e+001  4.165150e+002  3.413868e-001
    endloop
  endfacet
  facet normal -1.947019e-001 -6.307510e-002 -9.788324e-001
    outer loop
      vertex -1.882683e+001  4.100000e+002  7.612047e-001
      vertex -1.882683e+001  4.165150e+002  3.413868e-001
      vertex -1.500000e+001  4.100000e+002  0.000000e+000
    endloop
  endfacet
  facet normal -7.924062e-001 -3.269434e-001 -5.149763e-001
    outer loop
      vertex -2.219720e+001  4.400000e+002 -6.238338e+000
      vertex -2.207107e+001  4.360602e+002 -3.931146e+000
      vertex -2.346954e+001  4.400000e+002 -4.280563e+000
    endloop
  endfacet
  facet normal -8.294076e-001 -3.341123e-001 -4.477187e-001
    outer loop
      vertex -2.346954e+001  4.400000e+002 -4.280563e+000
      vertex -2.207107e+001  4.360602e+002 -3.931146e+000
      vertex -2.423880e+001  4.376575e+002 -1.107395e+000
    endloop
  endfacet
  facet normal -9.026625e-001 -2.113684e-001 -3.748654e-001
    outer loop
      vertex -2.346954e+001  4.400000e+002 -4.280563e+000
      vertex -2.423880e+001  4.376575e+002 -1.107395e+000
      vertex -2.437309e+001  4.400000e+002 -2.104854e+000
    endloop
  endfacet
  facet normal -8.309372e-001 -2.422259e-001 -5.008693e-001
    outer loop
      vertex -2.423880e+001  4.311536e+002  2.037950e+000
      vertex -2.423880e+001  4.376575e+002 -1.107395e+000
      vertex -2.207107e+001  4.299319e+002 -9.674573e-001
    endloop
  endfacet
  facet normal -8.309367e-001 -2.422257e-001 -5.008703e-001
    outer loop
      vertex -2.207107e+001  4.299319e+002 -9.674573e-001
      vertex -2.423880e+001  4.376575e+002 -1.107395e+000
      vertex -2.207107e+001  4.360602e+002 -3.931146e+000
    endloop
  endfacet
  facet normal -5.547740e-001 -3.622286e-001 -7.490101e-001
    outer loop
      vertex -2.207107e+001  4.299319e+002 -9.674573e-001
      vertex -2.207107e+001  4.360602e+002 -3.931146e+000
      vertex -1.882683e+001  4.291156e+002 -2.975606e+000
    endloop
  endfacet
  facet normal -5.547757e-001 -3.622292e-001 -7.490087e-001
    outer loop
      vertex -1.882683e+001  4.291156e+002 -2.975606e+000
      vertex -2.207107e+001  4.360602e+002 -3.931146e+000
      vertex -1.882683e+001  4.349929e+002 -5.817916e+000
    endloop
  endfacet
  facet normal -1.754564e-001 -4.286177e-001 -8.862854e-001
    outer loop
      vertex -1.882683e+001  4.291156e+002 -2.975606e+000
      vertex -1.882683e+001  4.349929e+002 -5.817916e+000
      vertex -1.500000e+001  4.332053e+002 -5.711034e+000
    endloop
  endfacet
  facet normal -8.309369e-001 -1.759389e-001 -5.278156e-001
    outer loop
      vertex -2.423880e+001  4.242999e+002  4.322541e+000
      vertex -2.423880e+001  4.311536e+002  2.037950e+000
      vertex -2.207107e+001  4.234740e+002  1.185189e+000
    endloop
  endfacet
  facet normal -8.309371e-001 -1.759390e-001 -5.278152e-001
    outer loop
      vertex -2.207107e+001  4.234740e+002  1.185189e+000
      vertex -2.423880e+001  4.311536e+002  2.037950e+000
      vertex -2.207107e+001  4.299319e+002 -9.674573e-001
    endloop
  endfacet
  facet normal -5.547753e-001 -2.631024e-001 -7.893045e-001
    outer loop
      vertex -2.207107e+001  4.234740e+002  1.185189e+000
      vertex -2.207107e+001  4.299319e+002 -9.674573e-001
      vertex -1.882683e+001  4.229221e+002 -9.111229e-001
    endloop
  endfacet
  facet normal -5.547741e-001 -2.631018e-001 -7.893054e-001
    outer loop
      vertex -1.882683e+001  4.229221e+002 -9.111229e-001
      vertex -2.207107e+001  4.299319e+002 -9.674573e-001
      vertex -1.882683e+001  4.291156e+002 -2.975606e+000
    endloop
  endfacet
  facet normal -1.689907e-001 -3.116797e-001 -9.350390e-001
    outer loop
      vertex -1.882683e+001  4.229221e+002 -9.111229e-001
      vertex -1.882683e+001  4.291156e+002 -2.975606e+000
      vertex -1.500000e+001  4.258114e+002 -2.565835e+000
    endloop
  endfacet
  facet normal -8.309372e-001 -1.067408e-001 -5.460309e-001
    outer loop
      vertex -2.423880e+001  4.172096e+002  5.708589e+000
      vertex -2.423880e+001  4.242999e+002  4.322541e+000
      vertex -2.207107e+001  4.167932e+002  2.491186e+000
    endloop
  endfacet
  facet normal -8.309371e-001 -1.067407e-001 -5.460312e-001
    outer loop
      vertex -2.207107e+001  4.167932e+002  2.491186e+000
      vertex -2.423880e+001  4.242999e+002  4.322541e+000
      vertex -2.207107e+001  4.234740e+002  1.185189e+000
    endloop
  endfacet
  facet normal -5.547748e-001 -1.596220e-001 -8.165450e-001
    outer loop
      vertex -2.207107e+001  4.167932e+002  2.491186e+000
      vertex -2.207107e+001  4.234740e+002  1.185189e+000
      vertex -1.882683e+001  4.165150e+002  3.413868e-001
    endloop
  endfacet
  facet normal -5.547750e-001 -1.596221e-001 -8.165449e-001
    outer loop
      vertex -1.882683e+001  4.165150e+002  3.413868e-001
      vertex -2.207107e+001  4.234740e+002  1.185189e+000
      vertex -1.882683e+001  4.229221e+002 -9.111229e-001
    endloop
  endfacet
  facet normal -1.754550e-001 -1.888773e-001 -9.661992e-001
    outer loop
      vertex -1.882683e+001  4.165150e+002  3.413868e-001
      vertex -1.882683e+001  4.229221e+002 -9.111229e-001
      vertex -1.500000e+001  4.180091e+002 -6.456271e-001
    endloop
  endfacet
  facet normal  8.397472e-002  3.405411e-001 -9.364722e-001
    outer loop
      vertex  1.500000e+001  1.783333e+002 -2.975811e+000
      vertex  1.882683e+001  1.836683e+002 -6.926295e-001
      vertex  1.633188e+001  1.778894e+002 -3.017820e+000
    endloop
  endfacet
  facet normal  9.413508e-001  9.621470e-002 -3.234217e-001
    outer loop
      vertex  2.487688e+001  1.891429e+002  8.435659e+000
      vertex  2.423880e+001  1.823198e+002  4.548626e+000
      vertex  2.366252e+001  1.894884e+002  5.003922e+000
    endloop
  endfacet
  facet normal  8.308693e-001  1.015411e-001 -5.471249e-001
    outer loop
      vertex  2.366252e+001  1.894884e+002  5.003922e+000
      vertex  2.423880e+001  1.823198e+002  4.548626e+000
      vertex  2.207107e+001  1.831282e+002  1.406723e+000
    endloop
  endfacet
  facet normal  7.583386e-001  1.666705e-001 -6.301932e-001
    outer loop
      vertex  2.366252e+001  1.894884e+002  5.003922e+000
      vertex  2.207107e+001  1.831282e+002  1.406723e+000
      vertex  2.129585e+001  1.897708e+002  2.230684e+000
    endloop
  endfacet
  facet normal  5.550692e-001  1.658838e-001 -8.150955e-001
    outer loop
      vertex  2.129585e+001  1.897708e+002  2.230684e+000
      vertex  2.207107e+001  1.831282e+002  1.406723e+000
      vertex  1.882683e+001  1.836683e+002 -6.926295e-001
    endloop
  endfacet
  facet normal  9.570855e-001  7.912981e-002 -2.787935e-001
    outer loop
      vertex  2.480886e+001  1.750637e+002  4.446156e+000
      vertex  2.423021e+001  1.752566e+002  2.514405e+000
      vertex  2.423880e+001  1.823198e+002  4.548626e+000
    endloop
  endfacet
  facet normal  5.671893e-001  2.244424e-001 -7.924153e-001
    outer loop
      vertex  2.207107e+001  1.831282e+002  1.406723e+000
      vertex  2.212973e+001  1.759568e+002 -5.825069e-001
      vertex  1.905731e+001  1.769809e+002 -2.491586e+000
    endloop
  endfacet
  facet normal  5.553585e-001  2.338236e-001 -7.980623e-001
    outer loop
      vertex  2.207107e+001  1.831282e+002  1.406723e+000
      vertex  1.905731e+001  1.769809e+002 -2.491586e+000
      vertex  1.882683e+001  1.836683e+002 -6.926295e-001
    endloop
  endfacet
  facet normal  2.656276e-001  2.589656e-001 -9.286435e-001
    outer loop
      vertex  1.633188e+001  1.778894e+002 -3.017820e+000
      vertex  1.882683e+001  1.836683e+002 -6.926295e-001
      vertex  1.905731e+001  1.769809e+002 -2.491586e+000
    endloop
  endfacet
  facet normal  9.955002e-001 -4.585662e-002 -8.292468e-002
    outer loop
      vertex  2.487688e+001  1.891429e+002  8.435659e+000
      vertex  2.500000e+001  1.889867e+002  1.000000e+001
      vertex  2.423880e+001  1.823198e+002  4.548626e+000
    endloop
  endfacet
  facet normal  9.789412e-001  5.005417e-002 -1.979104e-001
    outer loop
      vertex  2.423880e+001  1.823198e+002  4.548626e+000
      vertex  2.500000e+001  1.889867e+002  1.000000e+001
      vertex  2.500000e+001  1.750000e+002  6.462568e+000
    endloop
  endfacet
  facet normal  9.926361e-001  7.927908e-002 -9.158804e-002
    outer loop
      vertex  2.423880e+001  1.823198e+002  4.548626e+000
      vertex  2.500000e+001  1.750000e+002  6.462568e+000
      vertex  2.480886e+001  1.750637e+002  4.446156e+000
    endloop
  endfacet
  facet normal  2.274342e-001  2.406789e-001 -9.435822e-001
    outer loop
      vertex  1.500000e+001  1.783333e+002 -2.975811e+000
      vertex  1.500000e+001  1.900000e+002  0.000000e+000
      vertex  1.882683e+001  1.836683e+002 -6.926295e-001
    endloop
  endfacet
  facet normal  1.562623e-001  2.002471e-001 -9.672038e-001
    outer loop
      vertex  1.882683e+001  1.836683e+002 -6.926295e-001
      vertex  1.500000e+001  1.900000e+002  0.000000e+000
      vertex  1.808647e+001  1.899497e+002  4.882346e-001
    endloop
  endfacet
  facet normal  4.751233e-001  2.163432e-001 -8.529088e-001
    outer loop
      vertex  1.882683e+001  1.836683e+002 -6.926295e-001
      vertex  1.808647e+001  1.899497e+002  4.882346e-001
      vertex  2.129585e+001  1.897708e+002  2.230684e+000
    endloop
  endfacet
  facet normal  8.313771e-001  1.528612e-001 -5.342710e-001
    outer loop
      vertex  2.423880e+001  1.823198e+002  4.548626e+000
      vertex  2.423021e+001  1.752566e+002  2.514405e+000
      vertex  2.207107e+001  1.831282e+002  1.406723e+000
    endloop
  endfacet
  facet normal  8.795080e-001  1.792092e-001 -4.408513e-001
    outer loop
      vertex  2.207107e+001  1.831282e+002  1.406723e+000
      vertex  2.423021e+001  1.752566e+002  2.514405e+000
      vertex  2.333480e+001  1.755551e+002  8.493895e-001
    endloop
  endfacet
  facet normal  7.769369e-001  1.741738e-001 -6.050062e-001
    outer loop
      vertex  2.207107e+001  1.831282e+002  1.406723e+000
      vertex  2.333480e+001  1.755551e+002  8.493895e-001
      vertex  2.212973e+001  1.759568e+002 -5.825069e-001
    endloop
  endfacet
  facet normal  0.000000e+000  2.471560e-001 -9.689757e-001
    outer loop
      vertex -1.500000e+001  1.900000e+002  0.000000e+000
      vertex -1.000000e+001  1.900000e+002  0.000000e+000
      vertex -1.500000e+001  1.783333e+002 -2.975811e+000
    endloop
  endfacet
  facet normal  1.533447e-002  2.409515e-001 -9.704159e-001
    outer loop
      vertex -1.500000e+001  1.783333e+002 -2.975811e+000
      vertex -1.000000e+001  1.900000e+002  0.000000e+000
      vertex -1.000000e+001  1.800000e+002 -2.482971e+000
    endloop
  endfacet
  facet normal  0.000000e+000  2.409798e-001 -9.705300e-001
    outer loop
      vertex  1.000000e+001  1.900000e+002  0.000000e+000
      vertex  1.500000e+001  1.900000e+002  0.000000e+000
      vertex  1.000000e+001  1.800000e+002 -2.482971e+000
    endloop
  endfacet
  facet normal -1.312319e-002  2.471347e-001 -9.688922e-001
    outer loop
      vertex  1.000000e+001  1.800000e+002 -2.482971e+000
      vertex  1.500000e+001  1.900000e+002  0.000000e+000
      vertex  1.500000e+001  1.783333e+002 -2.975811e+000
    endloop
  endfacet
  facet normal -1.562623e-001  2.002471e-001 -9.672038e-001
    outer loop
      vertex -1.500000e+001  1.900000e+002  0.000000e+000
      vertex -1.882683e+001  1.836683e+002 -6.926295e-001
      vertex -1.808647e+001  1.899497e+002  4.882346e-001
    endloop
  endfacet
  facet normal -9.413508e-001  9.621470e-002 -3.234217e-001
    outer loop
      vertex -2.487688e+001  1.891429e+002  8.435659e+000
      vertex -2.366252e+001  1.894884e+002  5.003922e+000
      vertex -2.423880e+001  1.823198e+002  4.548626e+000
    endloop
  endfacet
  facet normal -4.751233e-001  2.163432e-001 -8.529088e-001
    outer loop
      vertex -2.129585e+001  1.897708e+002  2.230684e+000
      vertex -1.808647e+001  1.899497e+002  4.882346e-001
      vertex -1.882683e+001  1.836683e+002 -6.926295e-001
    endloop
  endfacet
  facet normal -7.769369e-001  1.741738e-001 -6.050062e-001
    outer loop
      vertex -2.207107e+001  1.831282e+002  1.406723e+000
      vertex -2.212973e+001  1.759568e+002 -5.825070e-001
      vertex -2.333480e+001  1.755551e+002  8.493893e-001
    endloop
  endfacet
  facet normal -8.795080e-001  1.792093e-001 -4.408513e-001
    outer loop
      vertex -2.207107e+001  1.831282e+002  1.406723e+000
      vertex -2.333480e+001  1.755551e+002  8.493893e-001
      vertex -2.423021e+001  1.752566e+002  2.514405e+000
    endloop
  endfacet
  facet normal -8.313771e-001  1.528612e-001 -5.342710e-001
    outer loop
      vertex -2.207107e+001  1.831282e+002  1.406723e+000
      vertex -2.423021e+001  1.752566e+002  2.514405e+000
      vertex -2.423880e+001  1.823198e+002  4.548626e+000
    endloop
  endfacet
  facet normal -8.308693e-001  1.015411e-001 -5.471249e-001
    outer loop
      vertex -2.207107e+001  1.831282e+002  1.406723e+000
      vertex -2.423880e+001  1.823198e+002  4.548626e+000
      vertex -2.366252e+001  1.894884e+002  5.003922e+000
    endloop
  endfacet
  facet normal -7.583386e-001  1.666705e-001 -6.301932e-001
    outer loop
      vertex -2.207107e+001  1.831282e+002  1.406723e+000
      vertex -2.366252e+001  1.894884e+002  5.003922e+000
      vertex -2.129585e+001  1.897708e+002  2.230684e+000
    endloop
  endfacet
  facet normal -5.550692e-001  1.658838e-001 -8.150955e-001
    outer loop
      vertex -2.207107e+001  1.831282e+002  1.406723e+000
      vertex -2.129585e+001  1.897708e+002  2.230684e+000
      vertex -1.882683e+001  1.836683e+002 -6.926295e-001
    endloop
  endfacet
  facet normal -5.553585e-001  2.338236e-001 -7.980623e-001
    outer loop
      vertex -2.207107e+001  1.831282e+002  1.406723e+000
      vertex -1.882683e+001  1.836683e+002 -6.926295e-001
      vertex -1.905731e+001  1.769809e+002 -2.491586e+000
    endloop
  endfacet
  facet normal -5.671892e-001  2.244424e-001 -7.924153e-001
    outer loop
      vertex -2.207107e+001  1.831282e+002  1.406723e+000
      vertex -1.905731e+001  1.769809e+002 -2.491586e+000
      vertex -2.212973e+001  1.759568e+002 -5.825070e-001
    endloop
  endfacet
  facet normal -2.274342e-001  2.406789e-001 -9.435822e-001
    outer loop
      vertex -1.500000e+001  1.900000e+002  0.000000e+000
      vertex -1.500000e+001  1.783333e+002 -2.975811e+000
      vertex -1.882683e+001  1.836683e+002 -6.926295e-001
    endloop
  endfacet
  facet normal -8.397472e-002  3.405411e-001 -9.364722e-001
    outer loop
      vertex -1.882683e+001  1.836683e+002 -6.926295e-001
      vertex -1.500000e+001  1.783333e+002 -2.975811e+000
      vertex -1.633188e+001  1.778894e+002 -3.017820e+000
    endloop
  endfacet
  facet normal -2.656276e-001  2.589656e-001 -9.286435e-001
    outer loop
      vertex -1.882683e+001  1.836683e+002 -6.926295e-001
      vertex -1.633188e+001  1.778894e+002 -3.017820e+000
      vertex -1.905731e+001  1.769809e+002 -2.491586e+000
    endloop
  endfacet
  facet normal -9.570855e-001  7.912981e-002 -2.787935e-001
    outer loop
      vertex -2.423021e+001  1.752566e+002  2.514405e+000
      vertex -2.480886e+001  1.750637e+002  4.446156e+000
      vertex -2.423880e+001  1.823198e+002  4.548626e+000
    endloop
  endfacet
  facet normal -9.926361e-001  7.927908e-002 -9.158804e-002
    outer loop
      vertex -2.423880e+001  1.823198e+002  4.548626e+000
      vertex -2.480886e+001  1.750637e+002  4.446156e+000
      vertex -2.500000e+001  1.750000e+002  6.462568e+000
    endloop
  endfacet
  facet normal -9.721017e-001  4.068982e-002 -2.310036e-001
    outer loop
      vertex -2.423880e+001  1.823198e+002  4.548626e+000
      vertex -2.500000e+001  1.750000e+002  6.462568e+000
      vertex -2.487688e+001  1.891429e+002  8.435659e+000
    endloop
  endfacet
  facet normal -9.968799e-001  1.935386e-002 -7.652371e-002
    outer loop
      vertex -2.487688e+001  1.891429e+002  8.435659e+000
      vertex -2.500000e+001  1.750000e+002  6.462568e+000
      vertex -2.500000e+001  1.889867e+002  1.000000e+001
    endloop
  endfacet
  facet normal  2.987966e-001  -0.000000e+000  9.543168e-001
    outer loop
      vertex  1.000000e+001  1.900000e+002  2.614208e+001
      vertex  1.000000e+001  1.800000e+002  2.614208e+001
      vertex  1.239718e+001  1.792009e+002  2.539152e+001
    endloop
  endfacet
  facet normal  4.209552e-001 -6.746767e-004  9.070811e-001
    outer loop
      vertex  1.903746e+001  1.769875e+002  2.230828e+001
      vertex  1.540043e+001  4.400000e+002  2.419176e+001
      vertex  1.239718e+001  1.792009e+002  2.539152e+001
    endloop
  endfacet
  facet normal -3.396693e-001  0.000000e+000  9.405449e-001
    outer loop
      vertex -1.000000e+001  4.300000e+002  2.614208e+001
      vertex -1.000000e+001  4.400000e+002  2.614208e+001
      vertex -1.540043e+001  4.400000e+002  2.419176e+001
    endloop
  endfacet
  facet normal -3.396693e-001  0.000000e+000  9.405449e-001
    outer loop
      vertex -1.000000e+001  4.300000e+002  2.614208e+001
      vertex -1.540043e+001  4.400000e+002  2.419176e+001
      vertex -1.000000e+001  1.900000e+002  2.614208e+001
    endloop
  endfacet
  facet normal -1.789856e-001  0.000000e+000  9.838517e-001
    outer loop
      vertex -1.000000e+001  4.300000e+002  2.614208e+001
      vertex -1.000000e+001  1.900000e+002  2.614208e+001
      vertex -3.369609e+000  1.900000e+002  2.734830e+001
    endloop
  endfacet
  facet normal -1.789856e-001  0.000000e+000  9.838517e-001
    outer loop
      vertex -1.000000e+001  4.300000e+002  2.614208e+001
      vertex -3.369609e+000  1.900000e+002  2.734830e+001
      vertex -3.369609e+000  4.300000e+002  2.734830e+001
    endloop
  endfacet
  facet normal  3.396693e-001  4.153227e-004  9.405448e-001
    outer loop
      vertex  1.540043e+001  4.400000e+002  2.419176e+001
      vertex  1.000000e+001  4.400000e+002  2.614208e+001
      vertex  1.239718e+001  1.792009e+002  2.539152e+001
    endloop
  endfacet
  facet normal  2.987966e-001  0.000000e+000  9.543168e-001
    outer loop
      vertex  1.239718e+001  1.792009e+002  2.539152e+001
      vertex  1.000000e+001  4.400000e+002  2.614208e+001
      vertex  1.000000e+001  4.300000e+002  2.614208e+001
    endloop
  endfacet
  facet normal  2.987966e-001  0.000000e+000  9.543167e-001
    outer loop
      vertex  1.239718e+001  1.792009e+002  2.539152e+001
      vertex  1.000000e+001  4.300000e+002  2.614208e+001
      vertex  1.000000e+001  1.900000e+002  2.614208e+001
    endloop
  endfacet
  facet normal  5.900331e-001  0.000000e+000  8.073791e-001
    outer loop
      vertex  2.500000e+001  1.750000e+002  1.795085e+001
      vertex  2.500000e+001  4.400000e+002  1.795085e+001
      vertex  1.903746e+001  1.769875e+002  2.230828e+001
    endloop
  endfacet
  facet normal  6.076475e-001 -6.175562e-004  7.942066e-001
    outer loop
      vertex  1.903746e+001  1.769875e+002  2.230828e+001
      vertex  2.500000e+001  4.400000e+002  1.795085e+001
      vertex  2.043981e+001  4.400000e+002  2.143985e+001
    endloop
  endfacet
  facet normal  4.792764e-001  3.424702e-004  8.776640e-001
    outer loop
      vertex  1.903746e+001  1.769875e+002  2.230828e+001
      vertex  2.043981e+001  4.400000e+002  2.143985e+001
      vertex  1.540043e+001  4.400000e+002  2.419176e+001
    endloop
  endfacet
  facet normal  1.789856e-001  0.000000e+000  9.838517e-001
    outer loop
      vertex  1.000000e+001  1.900000e+002  2.614208e+001
      vertex  1.000000e+001  4.300000e+002  2.614208e+001
      vertex  3.369609e+000  1.900000e+002  2.734830e+001
    endloop
  endfacet
  facet normal  1.789856e-001  -0.000000e+000  9.838517e-001
    outer loop
      vertex  3.369609e+000  1.900000e+002  2.734830e+001
      vertex  1.000000e+001  4.300000e+002  2.614208e+001
      vertex  3.369609e+000  4.300000e+002  2.734830e+001
    endloop
  endfacet
  facet normal  0.000000e+000  0.000000e+000  1.000000e+000
    outer loop
      vertex  3.369609e+000  1.900000e+002  2.734830e+001
      vertex  3.369609e+000  4.300000e+002  2.734830e+001
      vertex -3.369609e+000  1.900000e+002  2.734830e+001
    endloop
  endfacet
  facet normal  0.000000e+000  0.000000e+000  1.000000e+000
    outer loop
      vertex -3.369609e+000  1.900000e+002  2.734830e+001
      vertex  3.369609e+000  4.300000e+002  2.734830e+001
      vertex -3.369609e+000  4.300000e+002  2.734830e+001
    endloop
  endfacet
  facet normal -2.987966e-001  0.000000e+000  9.543168e-001
    outer loop
      vertex -1.000000e+001  1.800000e+002  2.614208e+001
      vertex -1.000000e+001  1.900000e+002  2.614208e+001
      vertex -1.239718e+001  1.792009e+002  2.539152e+001
    endloop
  endfacet
  facet normal -3.024925e-001  9.014283e-004  9.531513e-001
    outer loop
      vertex -1.239718e+001  1.792009e+002  2.539152e+001
      vertex -1.000000e+001  1.900000e+002  2.614208e+001
      vertex -1.540043e+001  4.400000e+002  2.419176e+001
    endloop
  endfacet
  facet normal -4.209552e-001 -6.746767e-004  9.070811e-001
    outer loop
      vertex -1.239718e+001  1.792009e+002  2.539152e+001
      vertex -1.540043e+001  4.400000e+002  2.419176e+001
      vertex -1.903746e+001  1.769875e+002  2.230828e+001
    endloop
  endfacet
  facet normal -6.076476e-001  0.000000e+000  7.942067e-001
    outer loop
      vertex -2.500000e+001  4.400000e+002  1.795085e+001
      vertex -2.500000e+001  1.750000e+002  1.795085e+001
      vertex -2.043981e+001  4.400000e+002  2.143985e+001
    endloop
  endfacet
  facet normal -5.899288e-001 -4.793373e-004  8.074551e-001
    outer loop
      vertex -2.043981e+001  4.400000e+002  2.143985e+001
      vertex -2.500000e+001  1.750000e+002  1.795085e+001
      vertex -1.903746e+001  1.769875e+002  2.230828e+001
    endloop
  endfacet
  facet normal -4.792764e-001  3.424702e-004  8.776640e-001
    outer loop
      vertex -2.043981e+001  4.400000e+002  2.143985e+001
      vertex -1.903746e+001  1.769875e+002  2.230828e+001
      vertex -1.540043e+001  4.400000e+002  2.419176e+001
    endloop
  endfacet
  facet normal  9.999999e-001  0.000000e+000  0.000000e+000
    outer loop
      vertex  2.500000e+001  1.750000e+002  6.462568e+000
      vertex  2.500000e+001  1.889867e+002  1.000000e+001
      vertex  2.500000e+001  1.750000e+002  1.795085e+001
    endloop
  endfacet
  facet normal  1.000000e+000  -0.000000e+000  0.000000e+000
    outer loop
      vertex  2.500000e+001  4.400000e+002  1.795085e+001
      vertex  2.500000e+001  1.750000e+002  1.795085e+001
      vertex  2.500000e+001  1.889867e+002  1.000000e+001
    endloop
  endfacet
  facet normal  1.000000e+000  0.000000e+000  0.000000e+000
    outer loop
      vertex  2.500000e+001  4.400000e+002  1.795085e+001
      vertex  2.500000e+001  1.889867e+002  1.000000e+001
      vertex  2.500000e+001  4.100000e+002  1.000000e+001
    endloop
  endfacet
  facet normal  1.000000e+000  -0.000000e+000  0.000000e+000
    outer loop
      vertex  2.500000e+001  4.400000e+002  1.795085e+001
      vertex  2.500000e+001  4.100000e+002  1.000000e+001
      vertex  2.500000e+001  4.178316e+002  9.486691e+000
    endloop
  endfacet
  facet normal  1.000000e+000  -0.000000e+000  0.000000e+000
    outer loop
      vertex  2.500000e+001  4.400000e+002  1.795085e+001
      vertex  2.500000e+001  4.178316e+002  9.486691e+000
      vertex  2.500000e+001  4.255291e+002  7.955550e+000
    endloop
  endfacet
  facet normal  1.000000e+000  -0.000000e+000  0.000000e+000
    outer loop
      vertex  2.500000e+001  4.400000e+002  1.795085e+001
      vertex  2.500000e+001  4.255291e+002  7.955550e+000
      vertex  2.500000e+001  4.329610e+002  5.432772e+000
    endloop
  endfacet
  facet normal  1.000000e+000  -0.000000e+000  0.000000e+000
    outer loop
      vertex  2.500000e+001  4.400000e+002  1.795085e+001
      vertex  2.500000e+001  4.329610e+002  5.432772e+000
      vertex  2.500000e+001  4.400000e+002  1.961524e+000
    endloop
  endfacet
  facet normal -9.999999e-001  0.000000e+000  0.000000e+000
    outer loop
      vertex -2.500000e+001  1.750000e+002  6.462568e+000
      vertex -2.500000e+001  1.750000e+002  1.795085e+001
      vertex -2.500000e+001  1.889867e+002  1.000000e+001
    endloop
  endfacet
  facet normal -1.000000e+000  0.000000e+000  0.000000e+000
    outer loop
      vertex -2.500000e+001  4.400000e+002  1.795085e+001
      vertex -2.500000e+001  4.400000e+002  1.961524e+000
      vertex -2.500000e+001  4.329610e+002  5.432772e+000
    endloop
  endfacet
  facet normal -1.000000e+000  0.000000e+000  0.000000e+000
    outer loop
      vertex -2.500000e+001  4.400000e+002  1.795085e+001
      vertex -2.500000e+001  4.329610e+002  5.432772e+000
      vertex -2.500000e+001  4.255291e+002  7.955550e+000
    endloop
  endfacet
  facet normal -1.000000e+000  0.000000e+000  0.000000e+000
    outer loop
      vertex -2.500000e+001  4.400000e+002  1.795085e+001
      vertex -2.500000e+001  4.255291e+002  7.955550e+000
      vertex -2.500000e+001  4.178316e+002  9.486691e+000
    endloop
  endfacet
  facet normal -1.000000e+000  0.000000e+000  0.000000e+000
    outer loop
      vertex -2.500000e+001  4.400000e+002  1.795085e+001
      vertex -2.500000e+001  4.178316e+002  9.486691e+000
      vertex -2.500000e+001  4.100000e+002  1.000000e+001
    endloop
  endfacet
  facet normal -1.000000e+000  0.000000e+000  0.000000e+000
    outer loop
      vertex -2.500000e+001  4.400000e+002  1.795085e+001
      vertex -2.500000e+001  4.100000e+002  1.000000e+001
      vertex -2.500000e+001  1.889867e+002  1.000000e+001
    endloop
  endfacet
  facet normal -1.000000e+000  0.000000e+000  0.000000e+000
    outer loop
      vertex -2.500000e+001  4.400000e+002  1.795085e+001
      vertex -2.500000e+001  1.889867e+002  1.000000e+001
      vertex -2.500000e+001  1.750000e+002  1.795085e+001
    endloop
  endfacet
  facet normal  3.162450e-001 -9.486776e-001  5.102653e-006
    outer loop
      vertex -2.500000e+001  1.750000e+002  6.462568e+000
      vertex -2.480886e+001  1.750637e+002  4.446156e+000
      vertex -2.423021e+001  1.752566e+002  2.514405e+000
    endloop
  endfacet
  facet normal  3.162456e-001 -9.486773e-001  5.247491e-006
    outer loop
      vertex -2.500000e+001  1.750000e+002  6.462568e+000
      vertex -2.423021e+001  1.752566e+002  2.514405e+000
      vertex -2.333480e+001  1.755551e+002  8.493893e-001
    endloop
  endfacet
  facet normal  3.162211e-001 -9.486855e-001 -2.830209e-006
    outer loop
      vertex -2.500000e+001  1.750000e+002  6.462568e+000
      vertex -2.333480e+001  1.755551e+002  8.493893e-001
      vertex -2.212973e+001  1.759568e+002 -5.825070e-001
    endloop
  endfacet
  facet normal  3.162276e-001 -9.486833e-001  1.221758e-007
    outer loop
      vertex -2.500000e+001  1.750000e+002  6.462568e+000
      vertex -2.212973e+001  1.759568e+002 -5.825070e-001
      vertex -1.905731e+001  1.769809e+002 -2.491586e+000
    endloop
  endfacet
  facet normal  3.162279e-001 -9.486832e-001  3.344605e-007
    outer loop
      vertex -2.500000e+001  1.750000e+002  6.462568e+000
      vertex -1.905731e+001  1.769809e+002 -2.491586e+000
      vertex -1.000000e+001  1.800000e+002 -2.482971e+000
    endloop
  endfacet
  facet normal  3.162278e-001 -9.486832e-001  0.000000e+000
    outer loop
      vertex -2.500000e+001  1.750000e+002  6.462568e+000
      vertex -1.000000e+001  1.800000e+002 -2.482971e+000
      vertex -1.000000e+001  1.800000e+002  2.614208e+001
    endloop
  endfacet
  facet normal  3.162278e-001 -9.486833e-001  0.000000e+000
    outer loop
      vertex -2.500000e+001  1.750000e+002  6.462568e+000
      vertex -1.000000e+001  1.800000e+002  2.614208e+001
      vertex -2.500000e+001  1.750000e+002  1.795085e+001
    endloop
  endfacet
  facet normal  3.162225e-001 -9.486850e-001  6.844982e-005
    outer loop
      vertex -1.500000e+001  1.783333e+002 -2.975811e+000
      vertex -1.000000e+001  1.800000e+002 -2.482971e+000
      vertex -1.633188e+001  1.778894e+002 -3.017820e+000
    endloop
  endfacet
  facet normal  3.162279e-001 -9.486832e-001 -2.392057e-006
    outer loop
      vertex -1.633188e+001  1.778894e+002 -3.017820e+000
      vertex -1.000000e+001  1.800000e+002 -2.482971e+000
      vertex -1.905731e+001  1.769809e+002 -2.491586e+000
    endloop
  endfacet
  facet normal  3.162254e-001 -9.486841e-001  4.859818e-006
    outer loop
      vertex -1.000000e+001  1.800000e+002  2.614208e+001
      vertex -1.239718e+001  1.792009e+002  2.539152e+001
      vertex -2.500000e+001  1.750000e+002  1.795085e+001
    endloop
  endfacet
  facet normal  3.162265e-001 -9.486837e-001  2.788979e-006
    outer loop
      vertex -2.500000e+001  1.750000e+002  1.795085e+001
      vertex -1.239718e+001  1.792009e+002  2.539152e+001
      vertex -1.903746e+001  1.769875e+002  2.230828e+001
    endloop
  endfacet
  facet normal -3.162278e-001 -9.486833e-001  -0.000000e+000
    outer loop
      vertex  2.500000e+001  1.750000e+002  6.462568e+000
      vertex  2.500000e+001  1.750000e+002  1.795085e+001
      vertex  1.000000e+001  1.800000e+002  2.614208e+001
    endloop
  endfacet
  facet normal -3.162278e-001 -9.486832e-001  -0.000000e+000
    outer loop
      vertex  2.500000e+001  1.750000e+002  6.462568e+000
      vertex  1.000000e+001  1.800000e+002  2.614208e+001
      vertex  1.000000e+001  1.800000e+002 -2.482971e+000
    endloop
  endfacet
  facet normal -3.162279e-001 -9.486832e-001  3.344605e-007
    outer loop
      vertex  2.500000e+001  1.750000e+002  6.462568e+000
      vertex  1.000000e+001  1.800000e+002 -2.482971e+000
      vertex  1.905731e+001  1.769809e+002 -2.491586e+000
    endloop
  endfacet
  facet normal -3.162277e-001 -9.486834e-001  1.221758e-007
    outer loop
      vertex  2.500000e+001  1.750000e+002  6.462568e+000
      vertex  1.905731e+001  1.769809e+002 -2.491586e+000
      vertex  2.212973e+001  1.759568e+002 -5.825069e-001
    endloop
  endfacet
  facet normal -3.162211e-001 -9.486856e-001 -2.830209e-006
    outer loop
      vertex  2.500000e+001  1.750000e+002  6.462568e+000
      vertex  2.212973e+001  1.759568e+002 -5.825069e-001
      vertex  2.333480e+001  1.755551e+002  8.493895e-001
    endloop
  endfacet
  facet normal -3.162457e-001 -9.486774e-001  5.247492e-006
    outer loop
      vertex  2.500000e+001  1.750000e+002  6.462568e+000
      vertex  2.333480e+001  1.755551e+002  8.493895e-001
      vertex  2.423021e+001  1.752566e+002  2.514405e+000
    endloop
  endfacet
  facet normal -3.162450e-001 -9.486775e-001  5.102652e-006
    outer loop
      vertex  2.500000e+001  1.750000e+002  6.462568e+000
      vertex  2.423021e+001  1.752566e+002  2.514405e+000
      vertex  2.480886e+001  1.750637e+002  4.446156e+000
    endloop
  endfacet
  facet normal -3.162279e-001 -9.486833e-001  7.839536e-006
    outer loop
      vertex  1.000000e+001  1.800000e+002 -2.482971e+000
      vertex  1.500000e+001  1.783333e+002 -2.975811e+000
      vertex  1.905731e+001  1.769809e+002 -2.491586e+000
    endloop
  endfacet
  facet normal -3.162251e-001 -9.486842e-001 -1.908436e-005
    outer loop
      vertex  1.905731e+001  1.769809e+002 -2.491586e+000
      vertex  1.500000e+001  1.783333e+002 -2.975811e+000
      vertex  1.633188e+001  1.778894e+002 -3.017820e+000
    endloop
  endfacet
  facet normal -3.162249e-001 -9.486842e-001  6.586232e-006
    outer loop
      vertex  1.239718e+001  1.792009e+002  2.539152e+001
      vertex  1.000000e+001  1.800000e+002  2.614208e+001
      vertex  1.903746e+001  1.769875e+002  2.230828e+001
    endloop
  endfacet
  facet normal -3.162262e-001 -9.486838e-001  3.285790e-006
    outer loop
      vertex  1.903746e+001  1.769875e+002  2.230828e+001
      vertex  1.000000e+001  1.800000e+002  2.614208e+001
      vertex  2.500000e+001  1.750000e+002  1.795085e+001
    endloop
  endfacet
  facet normal  0.000000e+000  9.999999e-001  0.000000e+000
    outer loop
      vertex -1.019756e+000  4.300000e+002  1.686151e+001
      vertex  1.019756e+000  4.300000e+002  1.686151e+001
      vertex  0.000000e+000  4.300000e+002  9.350000e+000
    endloop
  endfacet
  facet normal  0.000000e+000  1.000000e+000  0.000000e+000
    outer loop
      vertex -2.669756e+000  4.300000e+002  1.806031e+001
      vertex -1.019756e+000  4.300000e+002  1.686151e+001
      vertex  0.000000e+000  4.300000e+002  9.350000e+000
    endloop
  endfacet
  facet normal  0.000000e+000  1.000000e+000  0.000000e+000
    outer loop
      vertex  2.669756e+000  4.300000e+002  1.806031e+001
      vertex  0.000000e+000  4.300000e+002  9.350000e+000
      vertex  1.019756e+000  4.300000e+002  1.686151e+001
    endloop
  endfacet
  facet normal  0.000000e+000  1.000000e+000  0.000000e+000
    outer loop
      vertex -1.000000e+001  4.300000e+002 -4.174243e+000
      vertex -1.000000e+001  4.300000e+002  2.614208e+001
      vertex -4.350000e+000  4.300000e+002  5.000000e+000
    endloop
  endfacet
  facet normal  0.000000e+000  1.000000e+000  0.000000e+000
    outer loop
      vertex -1.000000e+001  4.300000e+002 -4.174243e+000
      vertex -4.350000e+000  4.300000e+002  5.000000e+000
      vertex -3.767210e+000  4.300000e+002  2.825000e+000
    endloop
  endfacet
  facet normal  0.000000e+000  1.000000e+000  0.000000e+000
    outer loop
      vertex -1.000000e+001  4.300000e+002 -4.174243e+000
      vertex -3.767210e+000  4.300000e+002  2.825000e+000
      vertex -2.175000e+000  4.300000e+002  1.232790e+000
    endloop
  endfacet
  facet normal  0.000000e+000  1.000000e+000  0.000000e+000
    outer loop
      vertex -1.000000e+001  4.300000e+002 -4.174243e+000
      vertex -2.175000e+000  4.300000e+002  1.232790e+000
      vertex  1.776357e-015  4.300000e+002  6.500000e-001
    endloop
  endfacet
  facet normal  0.000000e+000  1.000000e+000  0.000000e+000
    outer loop
      vertex -1.000000e+001  4.300000e+002 -4.174243e+000
      vertex  1.776357e-015  4.300000e+002  6.500000e-001
      vertex  1.000000e+001  4.300000e+002 -4.174243e+000
    endloop
  endfacet
  facet normal  0.000000e+000  9.999999e-001  0.000000e+000
    outer loop
      vertex -1.000000e+001  4.300000e+002  2.614208e+001
      vertex -1.019756e+000  4.300000e+002  2.313849e+001
      vertex -2.669756e+000  4.300000e+002  2.193969e+001
    endloop
  endfacet
  facet normal  0.000000e+000  1.000000e+000  0.000000e+000
    outer loop
      vertex -1.000000e+001  4.300000e+002  2.614208e+001
      vertex -2.669756e+000  4.300000e+002  2.193969e+001
      vertex -3.300000e+000  4.300000e+002  2.000000e+001
    endloop
  endfacet
  facet normal  0.000000e+000  1.000000e+000  0.000000e+000
    outer loop
      vertex -1.000000e+001  4.300000e+002  2.614208e+001
      vertex -3.300000e+000  4.300000e+002  2.000000e+001
      vertex -2.669756e+000  4.300000e+002  1.806031e+001
    endloop
  endfacet
  facet normal  0.000000e+000  9.999999e-001  0.000000e+000
    outer loop
      vertex -1.000000e+001  4.300000e+002  2.614208e+001
      vertex -2.669756e+000  4.300000e+002  1.806031e+001
      vertex  0.000000e+000  4.300000e+002  9.350000e+000
    endloop
  endfacet
  facet normal  0.000000e+000  1.000000e+000  0.000000e+000
    outer loop
      vertex -1.000000e+001  4.300000e+002  2.614208e+001
      vertex  0.000000e+000  4.300000e+002  9.350000e+000
      vertex -2.175000e+000  4.300000e+002  8.767211e+000
    endloop
  endfacet
  facet normal  0.000000e+000  1.000000e+000  0.000000e+000
    outer loop
      vertex -1.000000e+001  4.300000e+002  2.614208e+001
      vertex -2.175000e+000  4.300000e+002  8.767211e+000
      vertex -3.767210e+000  4.300000e+002  7.175000e+000
    endloop
  endfacet
  facet normal  0.000000e+000  1.000000e+000  0.000000e+000
    outer loop
      vertex -1.000000e+001  4.300000e+002  2.614208e+001
      vertex -3.767210e+000  4.300000e+002  7.175000e+000
      vertex -4.350000e+000  4.300000e+002  5.000000e+000
    endloop
  endfacet
  facet normal  0.000000e+000  1.000000e+000  -0.000000e+000
    outer loop
      vertex  1.000000e+001  4.300000e+002  2.614208e+001
      vertex  4.350000e+000  4.300000e+002  5.000000e+000
      vertex  3.767210e+000  4.300000e+002  7.175000e+000
    endloop
  endfacet
  facet normal  0.000000e+000  1.000000e+000  -0.000000e+000
    outer loop
      vertex  1.000000e+001  4.300000e+002  2.614208e+001
      vertex  3.767210e+000  4.300000e+002  7.175000e+000
      vertex  2.175000e+000  4.300000e+002  8.767211e+000
    endloop
  endfacet
  facet normal  0.000000e+000  1.000000e+000  -0.000000e+000
    outer loop
      vertex  1.000000e+001  4.300000e+002  2.614208e+001
      vertex  2.175000e+000  4.300000e+002  8.767211e+000
      vertex  0.000000e+000  4.300000e+002  9.350000e+000
    endloop
  endfacet
  facet normal  0.000000e+000  1.000000e+000  0.000000e+000
    outer loop
      vertex  1.000000e+001  4.300000e+002  2.614208e+001
      vertex  0.000000e+000  4.300000e+002  9.350000e+000
      vertex  2.669756e+000  4.300000e+002  1.806031e+001
    endloop
  endfacet
  facet normal  0.000000e+000  1.000000e+000  0.000000e+000
    outer loop
      vertex  1.000000e+001  4.300000e+002  2.614208e+001
      vertex  2.669756e+000  4.300000e+002  1.806031e+001
      vertex  3.300000e+000  4.300000e+002  2.000000e+001
    endloop
  endfacet
  facet normal  0.000000e+000  1.000000e+000  -0.000000e+000
    outer loop
      vertex  1.000000e+001  4.300000e+002  2.614208e+001
      vertex  3.300000e+000  4.300000e+002  2.000000e+001
      vertex  2.669756e+000  4.300000e+002  2.193969e+001
    endloop
  endfacet
  facet normal  0.000000e+000  1.000000e+000  -0.000000e+000
    outer loop
      vertex  1.000000e+001  4.300000e+002  2.614208e+001
      vertex  2.669756e+000  4.300000e+002  2.193969e+001
      vertex  1.019756e+000  4.300000e+002  2.313849e+001
    endloop
  endfacet
  facet normal  -0.000000e+000  1.000000e+000  0.000000e+000
    outer loop
      vertex  1.000000e+001  4.300000e+002 -4.174243e+000
      vertex  1.776357e-015  4.300000e+002  6.500000e-001
      vertex  2.175000e+000  4.300000e+002  1.232790e+000
    endloop
  endfacet
  facet normal  -0.000000e+000  1.000000e+000  0.000000e+000
    outer loop
      vertex  1.000000e+001  4.300000e+002 -4.174243e+000
      vertex  2.175000e+000  4.300000e+002  1.232790e+000
      vertex  3.767210e+000  4.300000e+002  2.825000e+000
    endloop
  endfacet
  facet normal  -0.000000e+000  1.000000e+000  0.000000e+000
    outer loop
      vertex  1.000000e+001  4.300000e+002 -4.174243e+000
      vertex  3.767210e+000  4.300000e+002  2.825000e+000
      vertex  4.350000e+000  4.300000e+002  5.000000e+000
    endloop
  endfacet
  facet normal  -0.000000e+000  1.000000e+000  0.000000e+000
    outer loop
      vertex  1.000000e+001  4.300000e+002 -4.174243e+000
      vertex  4.350000e+000  4.300000e+002  5.000000e+000
      vertex  1.000000e+001  4.300000e+002  2.614208e+001
    endloop
  endfacet
  facet normal  0.000000e+000  1.000000e+000  0.000000e+000
    outer loop
      vertex  3.369609e+000  4.300000e+002  2.734830e+001
      vertex  1.000000e+001  4.300000e+002  2.614208e+001
      vertex -3.369609e+000  4.300000e+002  2.734830e+001
    endloop
  endfacet
  facet normal  0.000000e+000  1.000000e+000  0.000000e+000
    outer loop
      vertex -3.369609e+000  4.300000e+002  2.734830e+001
      vertex  1.000000e+001  4.300000e+002  2.614208e+001
      vertex  1.019756e+000  4.300000e+002  2.313849e+001
    endloop
  endfacet
  facet normal  0.000000e+000  1.000000e+000  0.000000e+000
    outer loop
      vertex -3.369609e+000  4.300000e+002  2.734830e+001
      vertex  1.019756e+000  4.300000e+002  2.313849e+001
      vertex -1.000000e+001  4.300000e+002  2.614208e+001
    endloop
  endfacet
  facet normal  0.000000e+000  1.000000e+000  0.000000e+000
    outer loop
      vertex -1.000000e+001  4.300000e+002  2.614208e+001
      vertex  1.019756e+000  4.300000e+002  2.313849e+001
      vertex -1.019756e+000  4.300000e+002  2.313849e+001
    endloop
  endfacet
  facet normal -1.000000e+000  0.000000e+000  0.000000e+000
    outer loop
      vertex  1.000000e+001  4.400000e+002  2.614208e+001
      vertex  1.000000e+001  4.400000e+002 -1.000000e+001
      vertex  1.000000e+001  4.300000e+002  2.614208e+001
    endloop
  endfacet
  facet normal -1.000000e+000  0.000000e+000  0.000000e+000
    outer loop
      vertex  1.000000e+001  4.300000e+002  2.614208e+001
      vertex  1.000000e+001  4.400000e+002 -1.000000e+001
      vertex  1.000000e+001  4.351691e+002 -6.796816e+000
    endloop
  endfacet
  facet normal -1.000000e+000  0.000000e+000  0.000000e+000
    outer loop
      vertex  1.000000e+001  4.300000e+002  2.614208e+001
      vertex  1.000000e+001  4.351691e+002 -6.796816e+000
      vertex  1.000000e+001  4.300000e+002 -4.174243e+000
    endloop
  endfacet
  facet normal  0.000000e+000  1.000000e+000  -0.000000e+000
    outer loop
      vertex  2.500000e+001  4.400000e+002  1.961524e+000
      vertex  2.437309e+001  4.400000e+002 -2.104854e+000
      vertex  2.346954e+001  4.400000e+002 -4.280563e+000
    endloop
  endfacet
  facet normal  0.000000e+000  1.000000e+000  -0.000000e+000
    outer loop
      vertex  2.500000e+001  4.400000e+002  1.961524e+000
      vertex  2.346954e+001  4.400000e+002 -4.280563e+000
      vertex  2.219720e+001  4.400000e+002 -6.238338e+000
    endloop
  endfacet
  facet normal  0.000000e+000  1.000000e+000  -0.000000e+000
    outer loop
      vertex  2.500000e+001  4.400000e+002  1.961524e+000
      vertex  2.219720e+001  4.400000e+002 -6.238338e+000
      vertex  2.056376e+001  4.400000e+002 -7.905725e+000
    endloop
  endfacet
  facet normal  0.000000e+000  1.000000e+000  -0.000000e+000
    outer loop
      vertex  2.500000e+001  4.400000e+002  1.961524e+000
      vertex  2.056376e+001  4.400000e+002 -7.905725e+000
      vertex  1.827147e+001  4.400000e+002 -9.314262e+000
    endloop
  endfacet
  facet normal  0.000000e+000  1.000000e+000  -0.000000e+000
    outer loop
      vertex  2.500000e+001  4.400000e+002  1.961524e+000
      vertex  1.827147e+001  4.400000e+002 -9.314262e+000
      vertex  1.500000e+001  4.400000e+002 -1.000000e+001
    endloop
  endfacet
  facet normal  0.000000e+000  9.999999e-001  -0.000000e+000
    outer loop
      vertex  2.500000e+001  4.400000e+002  1.961524e+000
      vertex  1.500000e+001  4.400000e+002 -1.000000e+001
      vertex  1.000000e+001  4.400000e+002 -1.000000e+001
    endloop
  endfacet
  facet normal  0.000000e+000  1.000000e+000  0.000000e+000
    outer loop
      vertex  2.500000e+001  4.400000e+002  1.961524e+000
      vertex  1.000000e+001  4.400000e+002 -1.000000e+001
      vertex  1.000000e+001  4.400000e+002  2.614208e+001
    endloop
  endfacet
  facet normal  0.000000e+000  9.999999e-001  0.000000e+000
    outer loop
      vertex  2.500000e+001  4.400000e+002  1.961524e+000
      vertex  1.000000e+001  4.400000e+002  2.614208e+001
      vertex  2.500000e+001  4.400000e+002  1.795085e+001
    endloop
  endfacet
  facet normal  0.000000e+000  1.000000e+000  0.000000e+000
    outer loop
      vertex  1.000000e+001  4.400000e+002  2.614208e+001
      vertex  1.540043e+001  4.400000e+002  2.419176e+001
      vertex  2.500000e+001  4.400000e+002  1.795085e+001
    endloop
  endfacet
  facet normal  0.000000e+000  1.000000e+000  0.000000e+000
    outer loop
      vertex  2.500000e+001  4.400000e+002  1.795085e+001
      vertex  1.540043e+001  4.400000e+002  2.419176e+001
      vertex  2.043981e+001  4.400000e+002  2.143985e+001
    endloop
  endfacet
  facet normal  -0.000000e+000  1.000000e+000  0.000000e+000
    outer loop
      vertex -2.500000e+001  4.400000e+002  1.961524e+000
      vertex -2.500000e+001  4.400000e+002  1.795085e+001
      vertex -1.000000e+001  4.400000e+002  2.614208e+001
    endloop
  endfacet
  facet normal  0.000000e+000  1.000000e+000  0.000000e+000
    outer loop
      vertex -2.500000e+001  4.400000e+002  1.961524e+000
      vertex -1.000000e+001  4.400000e+002  2.614208e+001
      vertex -1.000000e+001  4.400000e+002 -1.000000e+001
    endloop
  endfacet
  facet normal  0.000000e+000  9.999999e-001  0.000000e+000
    outer loop
      vertex -2.500000e+001  4.400000e+002  1.961524e+000
      vertex -1.000000e+001  4.400000e+002 -1.000000e+001
      vertex -1.500000e+001  4.400000e+002 -1.000000e+001
    endloop
  endfacet
  facet normal  0.000000e+000  1.000000e+000  0.000000e+000
    outer loop
      vertex -2.500000e+001  4.400000e+002  1.961524e+000
      vertex -1.500000e+001  4.400000e+002 -1.000000e+001
      vertex -1.827147e+001  4.400000e+002 -9.314262e+000
    endloop
  endfacet
  facet normal  0.000000e+000  1.000000e+000  0.000000e+000
    outer loop
      vertex -2.500000e+001  4.400000e+002  1.961524e+000
      vertex -1.827147e+001  4.400000e+002 -9.314262e+000
      vertex -2.056376e+001  4.400000e+002 -7.905725e+000
    endloop
  endfacet
  facet normal  0.000000e+000  1.000000e+000  0.000000e+000
    outer loop
      vertex -2.500000e+001  4.400000e+002  1.961524e+000
      vertex -2.056376e+001  4.400000e+002 -7.905725e+000
      vertex -2.219720e+001  4.400000e+002 -6.238338e+000
    endloop
  endfacet
  facet normal  0.000000e+000  1.000000e+000  0.000000e+000
    outer loop
      vertex -2.500000e+001  4.400000e+002  1.961524e+000
      vertex -2.219720e+001  4.400000e+002 -6.238338e+000
      vertex -2.346954e+001  4.400000e+002 -4.280563e+000
    endloop
  endfacet
  facet normal  0.000000e+000  1.000000e+000  0.000000e+000
    outer loop
      vertex -2.500000e+001  4.400000e+002  1.961524e+000
      vertex -2.346954e+001  4.400000e+002 -4.280563e+000
      vertex -2.437309e+001  4.400000e+002 -2.104854e+000
    endloop
  endfacet
  facet normal  0.000000e+000  1.000000e+000  0.000000e+000
    outer loop
      vertex -2.043981e+001  4.400000e+002  2.143985e+001
      vertex -1.540043e+001  4.400000e+002  2.419176e+001
      vertex -2.500000e+001  4.400000e+002  1.795085e+001
    endloop
  endfacet
  facet normal  0.000000e+000  1.000000e+000  0.000000e+000
    outer loop
      vertex -2.500000e+001  4.400000e+002  1.795085e+001
      vertex -1.540043e+001  4.400000e+002  2.419176e+001
      vertex -1.000000e+001  4.400000e+002  2.614208e+001
    endloop
  endfacet
  facet normal  1.000000e+000  0.000000e+000  0.000000e+000
    outer loop
      vertex -1.000000e+001  4.300000e+002  2.614208e+001
      vertex -1.000000e+001  4.300000e+002 -4.174243e+000
      vertex -1.000000e+001  4.400000e+002  2.614208e+001
    endloop
  endfacet
  facet normal  1.000000e+000  0.000000e+000  0.000000e+000
    outer loop
      vertex -1.000000e+001  4.400000e+002  2.614208e+001
      vertex -1.000000e+001  4.300000e+002 -4.174243e+000
      vertex -1.000000e+001  4.351691e+002 -6.796816e+000
    endloop
  endfacet
  facet normal  1.000000e+000  -0.000000e+000  0.000000e+000
    outer loop
      vertex -1.000000e+001  4.400000e+002  2.614208e+001
      vertex -1.000000e+001  4.351691e+002 -6.796816e+000
      vertex -1.000000e+001  4.400000e+002 -1.000000e+001
    endloop
  endfacet
  facet normal  0.000000e+000  0.000000e+000 -1.000000e+000
    outer loop
      vertex  1.500000e+001  4.100000e+002  0.000000e+000
      vertex  1.500000e+001  1.900000e+002  0.000000e+000
      vertex  1.000000e+001  1.900000e+002  0.000000e+000
    endloop
  endfacet
  facet normal  0.000000e+000  0.000000e+000 -1.000000e+000
    outer loop
      vertex  1.500000e+001  4.100000e+002  0.000000e+000
      vertex  1.000000e+001  1.900000e+002  0.000000e+000
      vertex -1.000000e+001  1.900000e+002  0.000000e+000
    endloop
  endfacet
  facet normal  0.000000e+000  0.000000e+000 -1.000000e+000
    outer loop
      vertex  1.500000e+001  4.100000e+002  0.000000e+000
      vertex -1.000000e+001  1.900000e+002  0.000000e+000
      vertex -1.500000e+001  1.900000e+002  0.000000e+000
    endloop
  endfacet
  facet normal  0.000000e+000  0.000000e+000 -1.000000e+000
    outer loop
      vertex  1.500000e+001  4.100000e+002  0.000000e+000
      vertex -1.500000e+001  1.900000e+002  0.000000e+000
      vertex -1.500000e+001  4.100000e+002  0.000000e+000
    endloop
  endfacet
  facet normal -8.314692e-001  7.729255e-004 -5.555702e-001
    outer loop
      vertex -2.366252e+001  1.894884e+002  5.003922e+000
      vertex -2.423880e+001  4.100000e+002  6.173166e+000
      vertex -2.207107e+001  4.100000e+002  2.928932e+000
    endloop
  endfacet
  facet normal -7.606323e-001 -6.191937e-004 -6.491827e-001
    outer loop
      vertex -2.366252e+001  1.894884e+002  5.003922e+000
      vertex -2.207107e+001  4.100000e+002  2.928932e+000
      vertex -2.129585e+001  1.897708e+002  2.230684e+000
    endloop
  endfacet
  facet normal -5.555700e-001  6.805848e-004 -8.314695e-001
    outer loop
      vertex -2.129585e+001  1.897708e+002  2.230684e+000
      vertex -2.207107e+001  4.100000e+002  2.928932e+000
      vertex -1.882683e+001  4.100000e+002  7.612047e-001
    endloop
  endfacet
  facet normal -9.969174e-001  -0.000000e+000 -7.845863e-002
    outer loop
      vertex -2.500000e+001  1.889867e+002  1.000000e+001
      vertex -2.500000e+001  4.100000e+002  1.000000e+001
      vertex -2.487688e+001  1.891429e+002  8.435659e+000
    endloop
  endfacet
  facet normal -9.807849e-001  8.350982e-004 -1.950900e-001
    outer loop
      vertex -2.487688e+001  1.891429e+002  8.435659e+000
      vertex -2.500000e+001  4.100000e+002  1.000000e+001
      vertex -2.423880e+001  4.100000e+002  6.173166e+000
    endloop
  endfacet
  facet normal -9.426949e-001 -6.944332e-004 -3.336553e-001
    outer loop
      vertex -2.487688e+001  1.891429e+002  8.435659e+000
      vertex -2.423880e+001  4.100000e+002  6.173166e+000
      vertex -2.366252e+001  1.894884e+002  5.003922e+000
    endloop
  endfacet
  facet normal -1.950904e-001  0.000000e+000 -9.807853e-001
    outer loop
      vertex -1.500000e+001  4.100000e+002  0.000000e+000
      vertex -1.500000e+001  1.900000e+002  0.000000e+000
      vertex -1.882683e+001  4.100000e+002  7.612047e-001
    endloop
  endfacet
  facet normal -1.562536e-001  6.995357e-004 -9.877167e-001
    outer loop
      vertex -1.882683e+001  4.100000e+002  7.612047e-001
      vertex -1.500000e+001  1.900000e+002  0.000000e+000
      vertex -1.808647e+001  1.899497e+002  4.882346e-001
    endloop
  endfacet
  facet normal -4.771153e-001 -5.150645e-004 -8.788405e-001
    outer loop
      vertex -1.882683e+001  4.100000e+002  7.612047e-001
      vertex -1.808647e+001  1.899497e+002  4.882346e-001
      vertex -2.129585e+001  1.897708e+002  2.230684e+000
    endloop
  endfacet
  facet normal  5.555700e-001  6.805848e-004 -8.314695e-001
    outer loop
      vertex  1.882683e+001  4.100000e+002  7.612047e-001
      vertex  2.207107e+001  4.100000e+002  2.928932e+000
      vertex  2.129585e+001  1.897708e+002  2.230684e+000
    endloop
  endfacet
  facet normal  7.606323e-001 -6.191937e-004 -6.491827e-001
    outer loop
      vertex  2.366252e+001  1.894884e+002  5.003922e+000
      vertex  2.129585e+001  1.897708e+002  2.230684e+000
      vertex  2.207107e+001  4.100000e+002  2.928932e+000
    endloop
  endfacet
  facet normal  8.314692e-001  7.729255e-004 -5.555702e-001
    outer loop
      vertex  2.207107e+001  4.100000e+002  2.928932e+000
      vertex  2.423880e+001  4.100000e+002  6.173166e+000
      vertex  2.366252e+001  1.894884e+002  5.003922e+000
    endloop
  endfacet
  facet normal  1.562425e-001  0.000000e+000 -9.877187e-001
    outer loop
      vertex  1.500000e+001  1.900000e+002  0.000000e+000
      vertex  1.500000e+001  4.100000e+002  0.000000e+000
      vertex  1.808647e+001  1.899497e+002  4.882346e-001
    endloop
  endfacet
  facet normal  1.950903e-001  5.602710e-004 -9.807851e-001
    outer loop
      vertex  1.808647e+001  1.899497e+002  4.882346e-001
      vertex  1.500000e+001  4.100000e+002  0.000000e+000
      vertex  1.882683e+001  4.100000e+002  7.612047e-001
    endloop
  endfacet
  facet normal  4.771153e-001 -5.150644e-004 -8.788405e-001
    outer loop
      vertex  1.808647e+001  1.899497e+002  4.882346e-001
      vertex  1.882683e+001  4.100000e+002  7.612047e-001
      vertex  2.129585e+001  1.897708e+002  2.230684e+000
    endloop
  endfacet
  facet normal  9.807853e-001  0.000000e+000 -1.950901e-001
    outer loop
      vertex  2.500000e+001  4.100000e+002  1.000000e+001
      vertex  2.500000e+001  1.889867e+002  1.000000e+001
      vertex  2.423880e+001  4.100000e+002  6.173166e+000
    endloop
  endfacet
  facet normal  9.969314e-001  2.078652e-003 -7.825224e-002
    outer loop
      vertex  2.423880e+001  4.100000e+002  6.173166e+000
      vertex  2.500000e+001  1.889867e+002  1.000000e+001
      vertex  2.487688e+001  1.891429e+002  8.435659e+000
    endloop
  endfacet
  facet normal  9.426949e-001 -6.944332e-004 -3.336553e-001
    outer loop
      vertex  2.423880e+001  4.100000e+002  6.173166e+000
      vertex  2.487688e+001  1.891429e+002  8.435659e+000
      vertex  2.366252e+001  1.894884e+002  5.003922e+000
    endloop
  endfacet
endsolid CATIA STL
