solid CATIA STL
  facet normal  -0.000000e+000  0.000000e+000 -9.999999e-001
    outer loop
      vertex -1.236068e+000  3.804226e+000  0.000000e+000
      vertex  1.236068e+000  3.804226e+000  0.000000e+000
      vertex -3.236068e+000  2.351141e+000  0.000000e+000
    endloop
  endfacet
  facet normal  0.000000e+000  0.000000e+000 -1.000000e+000
    outer loop
      vertex -3.236068e+000  2.351141e+000  0.000000e+000
      vertex  1.236068e+000  3.804226e+000  0.000000e+000
      vertex  3.236068e+000  2.351141e+000  0.000000e+000
    endloop
  endfacet
  facet normal  -0.000000e+000  0.000000e+000 -1.000000e+000
    outer loop
      vertex -3.236068e+000  2.351141e+000  0.000000e+000
      vertex  3.236068e+000  2.351141e+000  0.000000e+000
      vertex -4.000000e+000  4.898425e-016  0.000000e+000
    endloop
  endfacet
  facet normal  0.000000e+000  0.000000e+000 -1.000000e+000
    outer loop
      vertex -4.000000e+000  4.898425e-016  0.000000e+000
      vertex  3.236068e+000  2.351141e+000  0.000000e+000
      vertex  4.000000e+000  0.000000e+000  0.000000e+000
    endloop
  endfacet
  facet normal  -0.000000e+000  0.000000e+000 -1.000000e+000
    outer loop
      vertex -4.000000e+000  4.898425e-016  0.000000e+000
      vertex  4.000000e+000  0.000000e+000  0.000000e+000
      vertex -3.236068e+000 -2.351141e+000  0.000000e+000
    endloop
  endfacet
  facet normal  0.000000e+000  0.000000e+000 -1.000000e+000
    outer loop
      vertex -3.236068e+000 -2.351141e+000  0.000000e+000
      vertex  4.000000e+000  0.000000e+000  0.000000e+000
      vertex  3.236068e+000 -2.351141e+000  0.000000e+000
    endloop
  endfacet
  facet normal  -0.000000e+000  0.000000e+000 -1.000000e+000
    outer loop
      vertex -3.236068e+000 -2.351141e+000  0.000000e+000
      vertex  3.236068e+000 -2.351141e+000  0.000000e+000
      vertex -1.236068e+000 -3.804226e+000  0.000000e+000
    endloop
  endfacet
  facet normal  0.000000e+000  0.000000e+000 -9.999999e-001
    outer loop
      vertex -1.236068e+000 -3.804226e+000  0.000000e+000
      vertex  3.236068e+000 -2.351141e+000  0.000000e+000
      vertex  1.236068e+000 -3.804226e+000  0.000000e+000
    endloop
  endfacet
  facet normal  -0.000000e+000  0.000000e+000  1.000000e+000
    outer loop
      vertex -2.224797e+000 -1.616409e+000  2.500000e+000
      vertex -3.236068e+000 -2.351141e+000  2.500000e+000
      vertex -8.497967e-001 -2.615405e+000  2.500000e+000
    endloop
  endfacet
  facet normal  0.000000e+000  0.000000e+000  1.000000e+000
    outer loop
      vertex -8.497967e-001 -2.615405e+000  2.500000e+000
      vertex -3.236068e+000 -2.351141e+000  2.500000e+000
      vertex -1.236068e+000 -3.804226e+000  2.500000e+000
    endloop
  endfacet
  facet normal  0.000000e+000  0.000000e+000  1.000000e+000
    outer loop
      vertex -8.497967e-001 -2.615405e+000  2.500000e+000
      vertex -1.236068e+000 -3.804226e+000  2.500000e+000
      vertex  8.497967e-001 -2.615405e+000  2.500000e+000
    endloop
  endfacet
  facet normal  0.000000e+000  0.000000e+000  1.000000e+000
    outer loop
      vertex  8.497967e-001 -2.615405e+000  2.500000e+000
      vertex -1.236068e+000 -3.804226e+000  2.500000e+000
      vertex  1.236068e+000 -3.804226e+000  2.500000e+000
    endloop
  endfacet
  facet normal  0.000000e+000  -0.000000e+000  1.000000e+000
    outer loop
      vertex  8.497967e-001 -2.615405e+000  2.500000e+000
      vertex  1.236068e+000 -3.804226e+000  2.500000e+000
      vertex  3.236068e+000 -2.351141e+000  2.500000e+000
    endloop
  endfacet
  facet normal  0.000000e+000  0.000000e+000  1.000000e+000
    outer loop
      vertex  2.224797e+000  1.616409e+000  2.500000e+000
      vertex  3.236068e+000  2.351141e+000  2.500000e+000
      vertex  8.497967e-001  2.615405e+000  2.500000e+000
    endloop
  endfacet
  facet normal  -0.000000e+000  0.000000e+000  1.000000e+000
    outer loop
      vertex  8.497967e-001  2.615405e+000  2.500000e+000
      vertex  3.236068e+000  2.351141e+000  2.500000e+000
      vertex  1.236068e+000  3.804226e+000  2.500000e+000
    endloop
  endfacet
  facet normal  0.000000e+000  0.000000e+000  1.000000e+000
    outer loop
      vertex  8.497967e-001  2.615405e+000  2.500000e+000
      vertex  1.236068e+000  3.804226e+000  2.500000e+000
      vertex -8.497967e-001  2.615405e+000  2.500000e+000
    endloop
  endfacet
  facet normal  0.000000e+000  -0.000000e+000  1.000000e+000
    outer loop
      vertex -8.497967e-001  2.615405e+000  2.500000e+000
      vertex  1.236068e+000  3.804226e+000  2.500000e+000
      vertex -1.236068e+000  3.804226e+000  2.500000e+000
    endloop
  endfacet
  facet normal  0.000000e+000  0.000000e+000  1.000000e+000
    outer loop
      vertex -8.497967e-001  2.615405e+000  2.500000e+000
      vertex -1.236068e+000  3.804226e+000  2.500000e+000
      vertex -3.236068e+000  2.351141e+000  2.500000e+000
    endloop
  endfacet
  facet normal  0.000000e+000  0.000000e+000  1.000000e+000
    outer loop
      vertex -3.236068e+000 -2.351141e+000  2.500000e+000
      vertex -2.224797e+000 -1.616409e+000  2.500000e+000
      vertex -4.000000e+000  4.898425e-016  2.500000e+000
    endloop
  endfacet
  facet normal  -0.000000e+000  0.000000e+000  1.000000e+000
    outer loop
      vertex -4.000000e+000  4.898425e-016  2.500000e+000
      vertex -2.224797e+000 -1.616409e+000  2.500000e+000
      vertex -2.750000e+000  1.558012e-015  2.500000e+000
    endloop
  endfacet
  facet normal  0.000000e+000  0.000000e+000  1.000000e+000
    outer loop
      vertex -4.000000e+000  4.898425e-016  2.500000e+000
      vertex -2.750000e+000  1.558012e-015  2.500000e+000
      vertex -3.236068e+000  2.351141e+000  2.500000e+000
    endloop
  endfacet
  facet normal  0.000000e+000  0.000000e+000  1.000000e+000
    outer loop
      vertex -3.236068e+000  2.351141e+000  2.500000e+000
      vertex -2.750000e+000  1.558012e-015  2.500000e+000
      vertex -2.224797e+000  1.616409e+000  2.500000e+000
    endloop
  endfacet
  facet normal  0.000000e+000  -0.000000e+000  1.000000e+000
    outer loop
      vertex -3.236068e+000  2.351141e+000  2.500000e+000
      vertex -2.224797e+000  1.616409e+000  2.500000e+000
      vertex -8.497967e-001  2.615405e+000  2.500000e+000
    endloop
  endfacet
  facet normal  -0.000000e+000  0.000000e+000  1.000000e+000
    outer loop
      vertex  3.236068e+000  2.351141e+000  2.500000e+000
      vertex  2.224797e+000  1.616409e+000  2.500000e+000
      vertex  4.000000e+000  0.000000e+000  2.500000e+000
    endloop
  endfacet
  facet normal  0.000000e+000  0.000000e+000  1.000000e+000
    outer loop
      vertex  4.000000e+000  0.000000e+000  2.500000e+000
      vertex  2.224797e+000  1.616409e+000  2.500000e+000
      vertex  2.750000e+000  0.000000e+000  2.500000e+000
    endloop
  endfacet
  facet normal  -0.000000e+000  0.000000e+000  1.000000e+000
    outer loop
      vertex  4.000000e+000  0.000000e+000  2.500000e+000
      vertex  2.750000e+000  0.000000e+000  2.500000e+000
      vertex  3.236068e+000 -2.351141e+000  2.500000e+000
    endloop
  endfacet
  facet normal  0.000000e+000  0.000000e+000  1.000000e+000
    outer loop
      vertex  3.236068e+000 -2.351141e+000  2.500000e+000
      vertex  2.750000e+000  0.000000e+000  2.500000e+000
      vertex  2.224797e+000 -1.616409e+000  2.500000e+000
    endloop
  endfacet
  facet normal  0.000000e+000  0.000000e+000  1.000000e+000
    outer loop
      vertex  3.236068e+000 -2.351141e+000  2.500000e+000
      vertex  2.224797e+000 -1.616409e+000  2.500000e+000
      vertex  8.497967e-001 -2.615405e+000  2.500000e+000
    endloop
  endfacet
  facet normal -9.510565e-001  3.090170e-001  0.000000e+000
    outer loop
      vertex -2.750000e+000  1.558012e-015  2.500000e+000
      vertex -2.750000e+000  1.558012e-015  2.000000e+001
      vertex -2.224797e+000  1.616409e+000  2.500000e+000
    endloop
  endfacet
  facet normal -9.510565e-001  3.090170e-001  0.000000e+000
    outer loop
      vertex -2.224797e+000  1.616409e+000  2.500000e+000
      vertex -2.750000e+000  1.558012e-015  2.000000e+001
      vertex -2.224797e+000  1.616409e+000  2.000000e+001
    endloop
  endfacet
  facet normal -5.877852e-001  8.090170e-001  0.000000e+000
    outer loop
      vertex -2.224797e+000  1.616409e+000  2.500000e+000
      vertex -2.224797e+000  1.616409e+000  2.000000e+001
      vertex -8.497967e-001  2.615405e+000  2.500000e+000
    endloop
  endfacet
  facet normal -5.877852e-001  8.090170e-001  0.000000e+000
    outer loop
      vertex -8.497967e-001  2.615405e+000  2.500000e+000
      vertex -2.224797e+000  1.616409e+000  2.000000e+001
      vertex -8.497967e-001  2.615405e+000  2.000000e+001
    endloop
  endfacet
  facet normal  0.000000e+000  1.000000e+000  0.000000e+000
    outer loop
      vertex -8.497967e-001  2.615405e+000  2.500000e+000
      vertex -8.497967e-001  2.615405e+000  2.000000e+001
      vertex  8.497967e-001  2.615405e+000  2.500000e+000
    endloop
  endfacet
  facet normal  0.000000e+000  1.000000e+000  -0.000000e+000
    outer loop
      vertex  8.497967e-001  2.615405e+000  2.500000e+000
      vertex -8.497967e-001  2.615405e+000  2.000000e+001
      vertex  8.497967e-001  2.615405e+000  2.000000e+001
    endloop
  endfacet
  facet normal  5.877852e-001  8.090170e-001  0.000000e+000
    outer loop
      vertex  8.497967e-001  2.615405e+000  2.500000e+000
      vertex  8.497967e-001  2.615405e+000  2.000000e+001
      vertex  2.224797e+000  1.616409e+000  2.500000e+000
    endloop
  endfacet
  facet normal  5.877852e-001  8.090170e-001  -0.000000e+000
    outer loop
      vertex  2.224797e+000  1.616409e+000  2.500000e+000
      vertex  8.497967e-001  2.615405e+000  2.000000e+001
      vertex  2.224797e+000  1.616409e+000  2.000000e+001
    endloop
  endfacet
  facet normal  9.510565e-001  3.090170e-001  0.000000e+000
    outer loop
      vertex  2.224797e+000  1.616409e+000  2.500000e+000
      vertex  2.224797e+000  1.616409e+000  2.000000e+001
      vertex  2.750000e+000  0.000000e+000  2.500000e+000
    endloop
  endfacet
  facet normal  9.510565e-001  3.090170e-001  -0.000000e+000
    outer loop
      vertex  2.750000e+000  0.000000e+000  2.500000e+000
      vertex  2.224797e+000  1.616409e+000  2.000000e+001
      vertex  2.750000e+000  0.000000e+000  2.000000e+001
    endloop
  endfacet
  facet normal  9.510565e-001 -3.090170e-001  0.000000e+000
    outer loop
      vertex  2.750000e+000  0.000000e+000  2.500000e+000
      vertex  2.750000e+000  0.000000e+000  2.000000e+001
      vertex  2.224797e+000 -1.616409e+000  2.500000e+000
    endloop
  endfacet
  facet normal  9.510565e-001 -3.090170e-001  0.000000e+000
    outer loop
      vertex  2.224797e+000 -1.616409e+000  2.500000e+000
      vertex  2.750000e+000  0.000000e+000  2.000000e+001
      vertex  2.224797e+000 -1.616409e+000  2.000000e+001
    endloop
  endfacet
  facet normal  5.877852e-001 -8.090170e-001  0.000000e+000
    outer loop
      vertex  2.224797e+000 -1.616409e+000  2.500000e+000
      vertex  2.224797e+000 -1.616409e+000  2.000000e+001
      vertex  8.497967e-001 -2.615405e+000  2.500000e+000
    endloop
  endfacet
  facet normal  5.877852e-001 -8.090170e-001  0.000000e+000
    outer loop
      vertex  8.497967e-001 -2.615405e+000  2.500000e+000
      vertex  2.224797e+000 -1.616409e+000  2.000000e+001
      vertex  8.497967e-001 -2.615405e+000  2.000000e+001
    endloop
  endfacet
  facet normal  0.000000e+000 -1.000000e+000  -0.000000e+000
    outer loop
      vertex  8.497967e-001 -2.615405e+000  2.500000e+000
      vertex  8.497967e-001 -2.615405e+000  2.000000e+001
      vertex -8.497967e-001 -2.615405e+000  2.500000e+000
    endloop
  endfacet
  facet normal  0.000000e+000 -1.000000e+000  0.000000e+000
    outer loop
      vertex -8.497967e-001 -2.615405e+000  2.500000e+000
      vertex  8.497967e-001 -2.615405e+000  2.000000e+001
      vertex -8.497967e-001 -2.615405e+000  2.000000e+001
    endloop
  endfacet
  facet normal -5.877852e-001 -8.090170e-001  -0.000000e+000
    outer loop
      vertex -8.497967e-001 -2.615405e+000  2.500000e+000
      vertex -8.497967e-001 -2.615405e+000  2.000000e+001
      vertex -2.224797e+000 -1.616409e+000  2.500000e+000
    endloop
  endfacet
  facet normal -5.877852e-001 -8.090170e-001  0.000000e+000
    outer loop
      vertex -2.224797e+000 -1.616409e+000  2.500000e+000
      vertex -8.497967e-001 -2.615405e+000  2.000000e+001
      vertex -2.224797e+000 -1.616409e+000  2.000000e+001
    endloop
  endfacet
  facet normal -9.510565e-001 -3.090170e-001  -0.000000e+000
    outer loop
      vertex -2.224797e+000 -1.616409e+000  2.500000e+000
      vertex -2.224797e+000 -1.616409e+000  2.000000e+001
      vertex -2.750000e+000  1.558012e-015  2.500000e+000
    endloop
  endfacet
  facet normal -9.510565e-001 -3.090170e-001  0.000000e+000
    outer loop
      vertex -2.750000e+000  1.558012e-015  2.500000e+000
      vertex -2.224797e+000 -1.616409e+000  2.000000e+001
      vertex -2.750000e+000  1.558012e-015  2.000000e+001
    endloop
  endfacet
  facet normal  -0.000000e+000  0.000000e+000  9.999999e-001
    outer loop
      vertex  8.497967e-001  2.615405e+000  2.000000e+001
      vertex -8.497967e-001  2.615405e+000  2.000000e+001
      vertex  2.224797e+000  1.616409e+000  2.000000e+001
    endloop
  endfacet
  facet normal  0.000000e+000  0.000000e+000  1.000000e+000
    outer loop
      vertex  2.224797e+000  1.616409e+000  2.000000e+001
      vertex -8.497967e-001  2.615405e+000  2.000000e+001
      vertex -2.224797e+000  1.616409e+000  2.000000e+001
    endloop
  endfacet
  facet normal  -0.000000e+000  0.000000e+000  1.000000e+000
    outer loop
      vertex  2.224797e+000  1.616409e+000  2.000000e+001
      vertex -2.224797e+000  1.616409e+000  2.000000e+001
      vertex  2.750000e+000  0.000000e+000  2.000000e+001
    endloop
  endfacet
  facet normal  0.000000e+000  0.000000e+000  1.000000e+000
    outer loop
      vertex  2.750000e+000  0.000000e+000  2.000000e+001
      vertex -2.224797e+000  1.616409e+000  2.000000e+001
      vertex -2.750000e+000  1.558012e-015  2.000000e+001
    endloop
  endfacet
  facet normal  0.000000e+000  0.000000e+000  1.000000e+000
    outer loop
      vertex  2.750000e+000  0.000000e+000  2.000000e+001
      vertex -2.750000e+000  1.558012e-015  2.000000e+001
      vertex  2.224797e+000 -1.616409e+000  2.000000e+001
    endloop
  endfacet
  facet normal  0.000000e+000  0.000000e+000  1.000000e+000
    outer loop
      vertex  2.224797e+000 -1.616409e+000  2.000000e+001
      vertex -2.750000e+000  1.558012e-015  2.000000e+001
      vertex -2.224797e+000 -1.616409e+000  2.000000e+001
    endloop
  endfacet
  facet normal  -0.000000e+000  0.000000e+000  1.000000e+000
    outer loop
      vertex  2.224797e+000 -1.616409e+000  2.000000e+001
      vertex -2.224797e+000 -1.616409e+000  2.000000e+001
      vertex  8.497967e-001 -2.615405e+000  2.000000e+001
    endloop
  endfacet
  facet normal  0.000000e+000  0.000000e+000  9.999999e-001
    outer loop
      vertex  8.497967e-001 -2.615405e+000  2.000000e+001
      vertex -2.224797e+000 -1.616409e+000  2.000000e+001
      vertex -8.497967e-001 -2.615405e+000  2.000000e+001
    endloop
  endfacet
  facet normal  9.510565e-001 -3.090170e-001  0.000000e+000
    outer loop
      vertex  4.000000e+000  0.000000e+000  0.000000e+000
      vertex  4.000000e+000  0.000000e+000  2.500000e+000
      vertex  3.236068e+000 -2.351141e+000  0.000000e+000
    endloop
  endfacet
  facet normal  9.510565e-001 -3.090170e-001  0.000000e+000
    outer loop
      vertex  3.236068e+000 -2.351141e+000  0.000000e+000
      vertex  4.000000e+000  0.000000e+000  2.500000e+000
      vertex  3.236068e+000 -2.351141e+000  2.500000e+000
    endloop
  endfacet
  facet normal  5.877852e-001 -8.090169e-001  0.000000e+000
    outer loop
      vertex  3.236068e+000 -2.351141e+000  0.000000e+000
      vertex  3.236068e+000 -2.351141e+000  2.500000e+000
      vertex  1.236068e+000 -3.804226e+000  0.000000e+000
    endloop
  endfacet
  facet normal  5.877852e-001 -8.090169e-001  0.000000e+000
    outer loop
      vertex  1.236068e+000 -3.804226e+000  0.000000e+000
      vertex  3.236068e+000 -2.351141e+000  2.500000e+000
      vertex  1.236068e+000 -3.804226e+000  2.500000e+000
    endloop
  endfacet
  facet normal  0.000000e+000 -9.999999e-001  -0.000000e+000
    outer loop
      vertex  1.236068e+000 -3.804226e+000  0.000000e+000
      vertex  1.236068e+000 -3.804226e+000  2.500000e+000
      vertex -1.236068e+000 -3.804226e+000  0.000000e+000
    endloop
  endfacet
  facet normal  0.000000e+000 -9.999999e-001  0.000000e+000
    outer loop
      vertex -1.236068e+000 -3.804226e+000  0.000000e+000
      vertex  1.236068e+000 -3.804226e+000  2.500000e+000
      vertex -1.236068e+000 -3.804226e+000  2.500000e+000
    endloop
  endfacet
  facet normal -5.877852e-001 -8.090169e-001  -0.000000e+000
    outer loop
      vertex -1.236068e+000 -3.804226e+000  0.000000e+000
      vertex -1.236068e+000 -3.804226e+000  2.500000e+000
      vertex -3.236068e+000 -2.351141e+000  0.000000e+000
    endloop
  endfacet
  facet normal -5.877852e-001 -8.090169e-001  0.000000e+000
    outer loop
      vertex -3.236068e+000 -2.351141e+000  0.000000e+000
      vertex -1.236068e+000 -3.804226e+000  2.500000e+000
      vertex -3.236068e+000 -2.351141e+000  2.500000e+000
    endloop
  endfacet
  facet normal -9.510565e-001 -3.090170e-001  -0.000000e+000
    outer loop
      vertex -3.236068e+000 -2.351141e+000  0.000000e+000
      vertex -3.236068e+000 -2.351141e+000  2.500000e+000
      vertex -4.000000e+000  4.898425e-016  0.000000e+000
    endloop
  endfacet
  facet normal -9.510565e-001 -3.090170e-001  0.000000e+000
    outer loop
      vertex -4.000000e+000  4.898425e-016  0.000000e+000
      vertex -3.236068e+000 -2.351141e+000  2.500000e+000
      vertex -4.000000e+000  4.898425e-016  2.500000e+000
    endloop
  endfacet
  facet normal -9.510565e-001  3.090170e-001  0.000000e+000
    outer loop
      vertex -4.000000e+000  4.898425e-016  0.000000e+000
      vertex -4.000000e+000  4.898425e-016  2.500000e+000
      vertex -3.236068e+000  2.351141e+000  0.000000e+000
    endloop
  endfacet
  facet normal -9.510565e-001  3.090170e-001  0.000000e+000
    outer loop
      vertex -3.236068e+000  2.351141e+000  0.000000e+000
      vertex -4.000000e+000  4.898425e-016  2.500000e+000
      vertex -3.236068e+000  2.351141e+000  2.500000e+000
    endloop
  endfacet
  facet normal -5.877852e-001  8.090169e-001  0.000000e+000
    outer loop
      vertex -3.236068e+000  2.351141e+000  0.000000e+000
      vertex -3.236068e+000  2.351141e+000  2.500000e+000
      vertex -1.236068e+000  3.804226e+000  0.000000e+000
    endloop
  endfacet
  facet normal -5.877852e-001  8.090169e-001  0.000000e+000
    outer loop
      vertex -1.236068e+000  3.804226e+000  0.000000e+000
      vertex -3.236068e+000  2.351141e+000  2.500000e+000
      vertex -1.236068e+000  3.804226e+000  2.500000e+000
    endloop
  endfacet
  facet normal  0.000000e+000  9.999999e-001  0.000000e+000
    outer loop
      vertex -1.236068e+000  3.804226e+000  0.000000e+000
      vertex -1.236068e+000  3.804226e+000  2.500000e+000
      vertex  1.236068e+000  3.804226e+000  0.000000e+000
    endloop
  endfacet
  facet normal  0.000000e+000  9.999999e-001  -0.000000e+000
    outer loop
      vertex  1.236068e+000  3.804226e+000  0.000000e+000
      vertex -1.236068e+000  3.804226e+000  2.500000e+000
      vertex  1.236068e+000  3.804226e+000  2.500000e+000
    endloop
  endfacet
  facet normal  5.877852e-001  8.090169e-001  0.000000e+000
    outer loop
      vertex  1.236068e+000  3.804226e+000  0.000000e+000
      vertex  1.236068e+000  3.804226e+000  2.500000e+000
      vertex  3.236068e+000  2.351141e+000  0.000000e+000
    endloop
  endfacet
  facet normal  5.877852e-001  8.090169e-001  -0.000000e+000
    outer loop
      vertex  3.236068e+000  2.351141e+000  0.000000e+000
      vertex  1.236068e+000  3.804226e+000  2.500000e+000
      vertex  3.236068e+000  2.351141e+000  2.500000e+000
    endloop
  endfacet
  facet normal  9.510565e-001  3.090170e-001  0.000000e+000
    outer loop
      vertex  3.236068e+000  2.351141e+000  0.000000e+000
      vertex  3.236068e+000  2.351141e+000  2.500000e+000
      vertex  4.000000e+000  0.000000e+000  0.000000e+000
    endloop
  endfacet
  facet normal  9.510565e-001  3.090170e-001  -0.000000e+000
    outer loop
      vertex  4.000000e+000  0.000000e+000  0.000000e+000
      vertex  3.236068e+000  2.351141e+000  2.500000e+000
      vertex  4.000000e+000  0.000000e+000  2.500000e+000
    endloop
  endfacet
endsolid CATIA STL
