solid CATIA STL
  facet normal  1.000000e+000  -0.000000e+000  0.000000e+000
    outer loop
      vertex  2.500000e+001  5.000000e+000  2.058186e+001
      vertex  2.500000e+001  0.000000e+000  2.058186e+001
      vertex  2.500000e+001  5.000000e+000  1.000000e+001
    endloop
  endfacet
  facet normal  1.000000e+000  0.000000e+000  0.000000e+000
    outer loop
      vertex  2.500000e+001  5.000000e+000  1.000000e+001
      vertex  2.500000e+001  0.000000e+000  2.058186e+001
      vertex  2.500000e+001  0.000000e+000  1.000000e+001
    endloop
  endfacet
  facet normal -1.000000e+000  0.000000e+000  0.000000e+000
    outer loop
      vertex -2.500000e+001  5.000000e+000  1.000000e+001
      vertex -2.500000e+001  0.000000e+000  1.000000e+001
      vertex -2.500000e+001  5.000000e+000  2.058186e+001
    endloop
  endfacet
  facet normal -1.000000e+000  -0.000000e+000  0.000000e+000
    outer loop
      vertex -2.500000e+001  5.000000e+000  2.058186e+001
      vertex -2.500000e+001  0.000000e+000  1.000000e+001
      vertex -2.500000e+001  0.000000e+000  2.058186e+001
    endloop
  endfacet
  facet normal  -0.000000e+000 -1.000000e+000  0.000000e+000
    outer loop
      vertex -2.073617e+001  0.000000e+000  2.361936e+001
      vertex -1.542592e+001  0.000000e+000  2.532461e+001
      vertex -1.610810e+001  0.000000e+000  2.606631e+001
    endloop
  endfacet
  facet normal  0.000000e+000 -1.000000e+000  -0.000000e+000
    outer loop
      vertex -1.442835e+001  0.000000e+000  2.518196e+001
      vertex -1.542592e+001  0.000000e+000  2.532461e+001
      vertex -2.073617e+001  0.000000e+000  2.361936e+001
    endloop
  endfacet
  facet normal  0.000000e+000 -1.000000e+000  0.000000e+000
    outer loop
      vertex -7.500000e+000  0.000000e+000  2.878144e+001
      vertex -1.050542e+000  0.000000e+000  2.842932e+001
      vertex -1.499730e+000  0.000000e+000  2.947152e+001
    endloop
  endfacet
  facet normal  0.000000e+000 -1.000000e+000  0.000000e+000
    outer loop
      vertex  1.542592e+001  0.000000e+000  2.532461e+001
      vertex  2.073617e+001  0.000000e+000  2.361936e+001
      vertex  1.610810e+001  0.000000e+000  2.606631e+001
    endloop
  endfacet
  facet normal  0.000000e+000 -1.000000e+000  0.000000e+000
    outer loop
      vertex  1.542592e+001  0.000000e+000  2.532461e+001
      vertex  1.442835e+001  0.000000e+000  2.518196e+001
      vertex  2.073617e+001  0.000000e+000  2.361936e+001
    endloop
  endfacet
  facet normal  0.000000e+000 -1.000000e+000  0.000000e+000
    outer loop
      vertex -1.050542e+000  0.000000e+000  2.842932e+001
      vertex -7.500000e+000  0.000000e+000  2.878144e+001
      vertex  1.607804e-015  0.000000e+000  2.800000e+001
    endloop
  endfacet
  facet normal  -0.000000e+000 -1.000000e+000  0.000000e+000
    outer loop
      vertex  1.607804e-015  0.000000e+000  2.800000e+001
      vertex -7.500000e+000  0.000000e+000  2.878144e+001
      vertex -1.332492e+001  0.000000e+000  2.718463e+001
    endloop
  endfacet
  facet normal  0.000000e+000 -1.000000e+000  0.000000e+000
    outer loop
      vertex  1.607804e-015  0.000000e+000  2.800000e+001
      vertex -1.332492e+001  0.000000e+000  2.718463e+001
      vertex  1.332492e+001  0.000000e+000  2.718463e+001
    endloop
  endfacet
  facet normal  0.000000e+000 -1.000000e+000  0.000000e+000
    outer loop
      vertex  1.607804e-015  0.000000e+000  2.800000e+001
      vertex  1.332492e+001  0.000000e+000  2.718463e+001
      vertex  1.050542e+000  0.000000e+000  2.842932e+001
    endloop
  endfacet
  facet normal  0.000000e+000 -1.000000e+000  0.000000e+000
    outer loop
      vertex  1.050542e+000  0.000000e+000  2.842932e+001
      vertex  1.332492e+001  0.000000e+000  2.718463e+001
      vertex  7.500000e+000  0.000000e+000  2.878144e+001
    endloop
  endfacet
  facet normal  -0.000000e+000 -1.000000e+000  0.000000e+000
    outer loop
      vertex  1.050542e+000  0.000000e+000  2.842932e+001
      vertex  7.500000e+000  0.000000e+000  2.878144e+001
      vertex  1.499730e+000  0.000000e+000  2.947152e+001
    endloop
  endfacet
  facet normal  0.000000e+000 -1.000000e+000  0.000000e+000
    outer loop
      vertex  1.332492e+001  0.000000e+000  2.718463e+001
      vertex -1.332492e+001  0.000000e+000  2.718463e+001
      vertex  1.322713e+001  0.000000e+000  2.665190e+001
    endloop
  endfacet
  facet normal  0.000000e+000 -1.000000e+000  0.000000e+000
    outer loop
      vertex  1.322713e+001  0.000000e+000  2.665190e+001
      vertex -1.332492e+001  0.000000e+000  2.718463e+001
      vertex -1.322713e+001  0.000000e+000  2.665190e+001
    endloop
  endfacet
  facet normal  0.000000e+000 -9.999999e-001  0.000000e+000
    outer loop
      vertex  1.322713e+001  0.000000e+000  2.665190e+001
      vertex -1.322713e+001  0.000000e+000  2.665190e+001
      vertex  1.356563e+001  0.000000e+000  2.570273e+001
    endloop
  endfacet
  facet normal  0.000000e+000 -1.000000e+000  0.000000e+000
    outer loop
      vertex  1.356563e+001  0.000000e+000  2.570273e+001
      vertex -1.322713e+001  0.000000e+000  2.665190e+001
      vertex -1.356563e+001  0.000000e+000  2.570273e+001
    endloop
  endfacet
  facet normal  0.000000e+000 -1.000000e+000  0.000000e+000
    outer loop
      vertex  1.356563e+001  0.000000e+000  2.570273e+001
      vertex -1.356563e+001  0.000000e+000  2.570273e+001
      vertex  1.442835e+001  0.000000e+000  2.518196e+001
    endloop
  endfacet
  facet normal  0.000000e+000 -1.000000e+000  0.000000e+000
    outer loop
      vertex  1.442835e+001  0.000000e+000  2.518196e+001
      vertex -1.356563e+001  0.000000e+000  2.570273e+001
      vertex -1.442835e+001  0.000000e+000  2.518196e+001
    endloop
  endfacet
  facet normal  0.000000e+000 -1.000000e+000  0.000000e+000
    outer loop
      vertex  1.442835e+001  0.000000e+000  2.518196e+001
      vertex -1.442835e+001  0.000000e+000  2.518196e+001
      vertex  2.073617e+001  0.000000e+000  2.361936e+001
    endloop
  endfacet
  facet normal  0.000000e+000 -1.000000e+000  0.000000e+000
    outer loop
      vertex  2.073617e+001  0.000000e+000  2.361936e+001
      vertex -1.442835e+001  0.000000e+000  2.518196e+001
      vertex -2.073617e+001  0.000000e+000  2.361936e+001
    endloop
  endfacet
  facet normal  0.000000e+000 -9.999999e-001  0.000000e+000
    outer loop
      vertex  2.073617e+001  0.000000e+000  2.361936e+001
      vertex -2.073617e+001  0.000000e+000  2.361936e+001
      vertex  2.500000e+001  0.000000e+000  2.058186e+001
    endloop
  endfacet
  facet normal  0.000000e+000 -1.000000e+000  0.000000e+000
    outer loop
      vertex  2.500000e+001  0.000000e+000  2.058186e+001
      vertex -2.073617e+001  0.000000e+000  2.361936e+001
      vertex -2.500000e+001  0.000000e+000  2.058186e+001
    endloop
  endfacet
  facet normal  0.000000e+000 -1.000000e+000  0.000000e+000
    outer loop
      vertex  2.500000e+001  0.000000e+000  2.058186e+001
      vertex -2.500000e+001  0.000000e+000  2.058186e+001
      vertex  2.500000e+001  0.000000e+000  1.000000e+001
    endloop
  endfacet
  facet normal  0.000000e+000 -1.000000e+000  0.000000e+000
    outer loop
      vertex  2.500000e+001  0.000000e+000  1.000000e+001
      vertex -2.500000e+001  0.000000e+000  2.058186e+001
      vertex -2.500000e+001  0.000000e+000  1.000000e+001
    endloop
  endfacet
  facet normal  0.000000e+000  1.000000e+000  0.000000e+000
    outer loop
      vertex -1.610810e+001  5.000000e+000  2.606631e+001
      vertex -1.542592e+001  5.000000e+000  2.532461e+001
      vertex -2.073617e+001  5.000000e+000  2.361936e+001
    endloop
  endfacet
  facet normal  0.000000e+000  1.000000e+000  0.000000e+000
    outer loop
      vertex -2.073617e+001  5.000000e+000  2.361936e+001
      vertex -1.542592e+001  5.000000e+000  2.532461e+001
      vertex -1.442835e+001  5.000000e+000  2.518196e+001
    endloop
  endfacet
  facet normal  0.000000e+000  1.000000e+000  0.000000e+000
    outer loop
      vertex -1.499730e+000  5.000000e+000  2.947152e+001
      vertex -1.050542e+000  5.000000e+000  2.842932e+001
      vertex -7.500000e+000  5.000000e+000  2.878144e+001
    endloop
  endfacet
  facet normal  0.000000e+000  1.000000e+000  0.000000e+000
    outer loop
      vertex  1.610810e+001  5.000000e+000  2.606631e+001
      vertex  2.073617e+001  5.000000e+000  2.361936e+001
      vertex  1.542592e+001  5.000000e+000  2.532461e+001
    endloop
  endfacet
  facet normal  -0.000000e+000  1.000000e+000  0.000000e+000
    outer loop
      vertex  2.073617e+001  5.000000e+000  2.361936e+001
      vertex  1.442835e+001  5.000000e+000  2.518196e+001
      vertex  1.542592e+001  5.000000e+000  2.532461e+001
    endloop
  endfacet
  facet normal  0.000000e+000  1.000000e+000  0.000000e+000
    outer loop
      vertex -7.500000e+000  5.000000e+000  2.878144e+001
      vertex -1.050542e+000  5.000000e+000  2.842932e+001
      vertex -1.332492e+001  5.000000e+000  2.718463e+001
    endloop
  endfacet
  facet normal  0.000000e+000  1.000000e+000  0.000000e+000
    outer loop
      vertex -1.332492e+001  5.000000e+000  2.718463e+001
      vertex -1.050542e+000  5.000000e+000  2.842932e+001
      vertex  2.755364e-016  5.000000e+000  2.800000e+001
    endloop
  endfacet
  facet normal  0.000000e+000  1.000000e+000  0.000000e+000
    outer loop
      vertex -1.332492e+001  5.000000e+000  2.718463e+001
      vertex  2.755364e-016  5.000000e+000  2.800000e+001
      vertex  1.332492e+001  5.000000e+000  2.718463e+001
    endloop
  endfacet
  facet normal  -0.000000e+000  1.000000e+000  0.000000e+000
    outer loop
      vertex  1.332492e+001  5.000000e+000  2.718463e+001
      vertex  2.755364e-016  5.000000e+000  2.800000e+001
      vertex  7.500000e+000  5.000000e+000  2.878144e+001
    endloop
  endfacet
  facet normal  0.000000e+000  1.000000e+000  0.000000e+000
    outer loop
      vertex  7.500000e+000  5.000000e+000  2.878144e+001
      vertex  2.755364e-016  5.000000e+000  2.800000e+001
      vertex  1.050542e+000  5.000000e+000  2.842932e+001
    endloop
  endfacet
  facet normal  0.000000e+000  1.000000e+000  0.000000e+000
    outer loop
      vertex  7.500000e+000  5.000000e+000  2.878144e+001
      vertex  1.050542e+000  5.000000e+000  2.842932e+001
      vertex  1.499730e+000  5.000000e+000  2.947152e+001
    endloop
  endfacet
  facet normal  0.000000e+000  1.000000e+000  0.000000e+000
    outer loop
      vertex -1.332492e+001  5.000000e+000  2.718463e+001
      vertex  1.332492e+001  5.000000e+000  2.718463e+001
      vertex -1.322713e+001  5.000000e+000  2.665190e+001
    endloop
  endfacet
  facet normal  0.000000e+000  1.000000e+000  0.000000e+000
    outer loop
      vertex -1.322713e+001  5.000000e+000  2.665190e+001
      vertex  1.332492e+001  5.000000e+000  2.718463e+001
      vertex  1.322713e+001  5.000000e+000  2.665190e+001
    endloop
  endfacet
  facet normal  0.000000e+000  9.999999e-001  0.000000e+000
    outer loop
      vertex -1.322713e+001  5.000000e+000  2.665190e+001
      vertex  1.322713e+001  5.000000e+000  2.665190e+001
      vertex -1.356563e+001  5.000000e+000  2.570273e+001
    endloop
  endfacet
  facet normal  0.000000e+000  1.000000e+000  0.000000e+000
    outer loop
      vertex -1.356563e+001  5.000000e+000  2.570273e+001
      vertex  1.322713e+001  5.000000e+000  2.665190e+001
      vertex  1.356563e+001  5.000000e+000  2.570273e+001
    endloop
  endfacet
  facet normal  0.000000e+000  1.000000e+000  0.000000e+000
    outer loop
      vertex -1.356563e+001  5.000000e+000  2.570273e+001
      vertex  1.356563e+001  5.000000e+000  2.570273e+001
      vertex -1.442835e+001  5.000000e+000  2.518196e+001
    endloop
  endfacet
  facet normal  0.000000e+000  1.000000e+000  0.000000e+000
    outer loop
      vertex -1.442835e+001  5.000000e+000  2.518196e+001
      vertex  1.356563e+001  5.000000e+000  2.570273e+001
      vertex  1.442835e+001  5.000000e+000  2.518196e+001
    endloop
  endfacet
  facet normal  0.000000e+000  1.000000e+000  0.000000e+000
    outer loop
      vertex -1.442835e+001  5.000000e+000  2.518196e+001
      vertex  1.442835e+001  5.000000e+000  2.518196e+001
      vertex -2.073617e+001  5.000000e+000  2.361936e+001
    endloop
  endfacet
  facet normal  0.000000e+000  1.000000e+000  0.000000e+000
    outer loop
      vertex -2.073617e+001  5.000000e+000  2.361936e+001
      vertex  1.442835e+001  5.000000e+000  2.518196e+001
      vertex  2.073617e+001  5.000000e+000  2.361936e+001
    endloop
  endfacet
  facet normal  0.000000e+000  9.999999e-001  0.000000e+000
    outer loop
      vertex -2.073617e+001  5.000000e+000  2.361936e+001
      vertex  2.073617e+001  5.000000e+000  2.361936e+001
      vertex -2.500000e+001  5.000000e+000  2.058186e+001
    endloop
  endfacet
  facet normal  0.000000e+000  1.000000e+000  0.000000e+000
    outer loop
      vertex -2.500000e+001  5.000000e+000  2.058186e+001
      vertex  2.073617e+001  5.000000e+000  2.361936e+001
      vertex  2.500000e+001  5.000000e+000  2.058186e+001
    endloop
  endfacet
  facet normal  0.000000e+000  1.000000e+000  0.000000e+000
    outer loop
      vertex -2.500000e+001  5.000000e+000  2.058186e+001
      vertex  2.500000e+001  5.000000e+000  2.058186e+001
      vertex -2.500000e+001  5.000000e+000  1.000000e+001
    endloop
  endfacet
  facet normal  0.000000e+000  1.000000e+000  0.000000e+000
    outer loop
      vertex -2.500000e+001  5.000000e+000  1.000000e+001
      vertex  2.500000e+001  5.000000e+000  2.058186e+001
      vertex  2.500000e+001  5.000000e+000  1.000000e+001
    endloop
  endfacet
  facet normal  0.000000e+000  0.000000e+000 -1.000000e+000
    outer loop
      vertex  2.500000e+001  5.000000e+000  1.000000e+001
      vertex  2.500000e+001  0.000000e+000  1.000000e+001
      vertex -2.500000e+001  5.000000e+000  1.000000e+001
    endloop
  endfacet
  facet normal  0.000000e+000  0.000000e+000 -1.000000e+000
    outer loop
      vertex -2.500000e+001  5.000000e+000  1.000000e+001
      vertex  2.500000e+001  0.000000e+000  1.000000e+001
      vertex -2.500000e+001  0.000000e+000  1.000000e+001
    endloop
  endfacet
  facet normal -4.674109e-001  0.000000e+000  8.840402e-001
    outer loop
      vertex -1.610810e+001  0.000000e+000  2.606631e+001
      vertex -1.610810e+001  5.000000e+000  2.606631e+001
      vertex -2.073617e+001  0.000000e+000  2.361936e+001
    endloop
  endfacet
  facet normal -4.674109e-001  0.000000e+000  8.840402e-001
    outer loop
      vertex -2.073617e+001  0.000000e+000  2.361936e+001
      vertex -1.610810e+001  5.000000e+000  2.606631e+001
      vertex -2.073617e+001  5.000000e+000  2.361936e+001
    endloop
  endfacet
  facet normal -5.802141e-001  0.000000e+000  8.144640e-001
    outer loop
      vertex -2.073617e+001  0.000000e+000  2.361936e+001
      vertex -2.073617e+001  5.000000e+000  2.361936e+001
      vertex -2.500000e+001  0.000000e+000  2.058186e+001
    endloop
  endfacet
  facet normal -5.802141e-001  0.000000e+000  8.144640e-001
    outer loop
      vertex -2.500000e+001  0.000000e+000  2.058186e+001
      vertex -2.073617e+001  5.000000e+000  2.361936e+001
      vertex -2.500000e+001  5.000000e+000  2.058186e+001
    endloop
  endfacet
  facet normal -1.142551e-001  0.000000e+000  9.934514e-001
    outer loop
      vertex -1.499730e+000  0.000000e+000  2.947152e+001
      vertex -1.499730e+000  5.000000e+000  2.947152e+001
      vertex -7.500000e+000  0.000000e+000  2.878144e+001
    endloop
  endfacet
  facet normal -1.142551e-001  0.000000e+000  9.934514e-001
    outer loop
      vertex -7.500000e+000  0.000000e+000  2.878144e+001
      vertex -1.499730e+000  5.000000e+000  2.947152e+001
      vertex -7.500000e+000  5.000000e+000  2.878144e+001
    endloop
  endfacet
  facet normal -2.643802e-001  0.000000e+000  9.644186e-001
    outer loop
      vertex -7.500000e+000  0.000000e+000  2.878144e+001
      vertex -7.500000e+000  5.000000e+000  2.878144e+001
      vertex -1.332492e+001  0.000000e+000  2.718463e+001
    endloop
  endfacet
  facet normal -2.643802e-001  0.000000e+000  9.644186e-001
    outer loop
      vertex -1.332492e+001  0.000000e+000  2.718463e+001
      vertex -7.500000e+000  5.000000e+000  2.878144e+001
      vertex -1.332492e+001  5.000000e+000  2.718463e+001
    endloop
  endfacet
  facet normal  5.802141e-001  0.000000e+000  8.144640e-001
    outer loop
      vertex  2.500000e+001  0.000000e+000  2.058186e+001
      vertex  2.500000e+001  5.000000e+000  2.058186e+001
      vertex  2.073617e+001  0.000000e+000  2.361936e+001
    endloop
  endfacet
  facet normal  5.802141e-001  -0.000000e+000  8.144640e-001
    outer loop
      vertex  2.073617e+001  0.000000e+000  2.361936e+001
      vertex  2.500000e+001  5.000000e+000  2.058186e+001
      vertex  2.073617e+001  5.000000e+000  2.361936e+001
    endloop
  endfacet
  facet normal  4.674109e-001  0.000000e+000  8.840402e-001
    outer loop
      vertex  2.073617e+001  0.000000e+000  2.361936e+001
      vertex  2.073617e+001  5.000000e+000  2.361936e+001
      vertex  1.610810e+001  0.000000e+000  2.606631e+001
    endloop
  endfacet
  facet normal  4.674109e-001  -0.000000e+000  8.840402e-001
    outer loop
      vertex  1.610810e+001  0.000000e+000  2.606631e+001
      vertex  2.073617e+001  5.000000e+000  2.361936e+001
      vertex  1.610810e+001  5.000000e+000  2.606631e+001
    endloop
  endfacet
  facet normal  2.643802e-001  0.000000e+000  9.644186e-001
    outer loop
      vertex  1.332492e+001  0.000000e+000  2.718463e+001
      vertex  1.332492e+001  5.000000e+000  2.718463e+001
      vertex  7.500000e+000  0.000000e+000  2.878144e+001
    endloop
  endfacet
  facet normal  2.643802e-001  -0.000000e+000  9.644186e-001
    outer loop
      vertex  7.500000e+000  0.000000e+000  2.878144e+001
      vertex  1.332492e+001  5.000000e+000  2.718463e+001
      vertex  7.500000e+000  5.000000e+000  2.878144e+001
    endloop
  endfacet
  facet normal  1.142551e-001  0.000000e+000  9.934514e-001
    outer loop
      vertex  7.500000e+000  0.000000e+000  2.878144e+001
      vertex  7.500000e+000  5.000000e+000  2.878144e+001
      vertex  1.499730e+000  0.000000e+000  2.947152e+001
    endloop
  endfacet
  facet normal  1.142551e-001  -0.000000e+000  9.934514e-001
    outer loop
      vertex  1.499730e+000  0.000000e+000  2.947152e+001
      vertex  7.500000e+000  5.000000e+000  2.878144e+001
      vertex  1.499730e+000  5.000000e+000  2.947152e+001
    endloop
  endfacet
  facet normal  9.418954e-001  -0.000000e+000  3.359064e-001
    outer loop
      vertex  1.322713e+001  5.000000e+000  2.665190e+001
      vertex  1.322713e+001  0.000000e+000  2.665190e+001
      vertex  1.356563e+001  5.000000e+000  2.570273e+001
    endloop
  endfacet
  facet normal  9.418954e-001  0.000000e+000  3.359064e-001
    outer loop
      vertex  1.356563e+001  5.000000e+000  2.570273e+001
      vertex  1.322713e+001  0.000000e+000  2.665190e+001
      vertex  1.356563e+001  0.000000e+000  2.570273e+001
    endloop
  endfacet
  facet normal  5.167893e-001  -0.000000e+000  8.561126e-001
    outer loop
      vertex  1.356563e+001  5.000000e+000  2.570273e+001
      vertex  1.356563e+001  0.000000e+000  2.570273e+001
      vertex  1.442835e+001  5.000000e+000  2.518196e+001
    endloop
  endfacet
  facet normal  5.167893e-001  0.000000e+000  8.561126e-001
    outer loop
      vertex  1.442835e+001  5.000000e+000  2.518196e+001
      vertex  1.356563e+001  0.000000e+000  2.570273e+001
      vertex  1.442835e+001  0.000000e+000  2.518196e+001
    endloop
  endfacet
  facet normal -1.415636e-001  0.000000e+000  9.899291e-001
    outer loop
      vertex  1.442835e+001  5.000000e+000  2.518196e+001
      vertex  1.442835e+001  0.000000e+000  2.518196e+001
      vertex  1.542592e+001  5.000000e+000  2.532461e+001
    endloop
  endfacet
  facet normal -1.415636e-001  0.000000e+000  9.899291e-001
    outer loop
      vertex  1.542592e+001  5.000000e+000  2.532461e+001
      vertex  1.442835e+001  0.000000e+000  2.518196e+001
      vertex  1.542592e+001  0.000000e+000  2.532461e+001
    endloop
  endfacet
  facet normal -7.360218e-001  0.000000e+000  6.769580e-001
    outer loop
      vertex  1.542592e+001  5.000000e+000  2.532461e+001
      vertex  1.542592e+001  0.000000e+000  2.532461e+001
      vertex  1.610810e+001  5.000000e+000  2.606631e+001
    endloop
  endfacet
  facet normal -7.360218e-001  0.000000e+000  6.769580e-001
    outer loop
      vertex  1.610810e+001  5.000000e+000  2.606631e+001
      vertex  1.542592e+001  0.000000e+000  2.532461e+001
      vertex  1.610810e+001  0.000000e+000  2.606631e+001
    endloop
  endfacet
  facet normal  9.835671e-001  0.000000e+000 -1.805434e-001
    outer loop
      vertex  1.322713e+001  0.000000e+000  2.665190e+001
      vertex  1.322713e+001  5.000000e+000  2.665190e+001
      vertex  1.332492e+001  0.000000e+000  2.718463e+001
    endloop
  endfacet
  facet normal  9.835671e-001  0.000000e+000 -1.805434e-001
    outer loop
      vertex  1.332492e+001  0.000000e+000  2.718463e+001
      vertex  1.322713e+001  5.000000e+000  2.665190e+001
      vertex  1.332492e+001  5.000000e+000  2.718463e+001
    endloop
  endfacet
  facet normal -9.835671e-001  -0.000000e+000 -1.805434e-001
    outer loop
      vertex -1.332492e+001  0.000000e+000  2.718463e+001
      vertex -1.332492e+001  5.000000e+000  2.718463e+001
      vertex -1.322713e+001  0.000000e+000  2.665190e+001
    endloop
  endfacet
  facet normal -9.835671e-001  0.000000e+000 -1.805434e-001
    outer loop
      vertex -1.322713e+001  0.000000e+000  2.665190e+001
      vertex -1.332492e+001  5.000000e+000  2.718463e+001
      vertex -1.322713e+001  5.000000e+000  2.665190e+001
    endloop
  endfacet
  facet normal  7.360218e-001  -0.000000e+000  6.769580e-001
    outer loop
      vertex -1.610810e+001  5.000000e+000  2.606631e+001
      vertex -1.610810e+001  0.000000e+000  2.606631e+001
      vertex -1.542592e+001  5.000000e+000  2.532461e+001
    endloop
  endfacet
  facet normal  7.360218e-001  0.000000e+000  6.769580e-001
    outer loop
      vertex -1.542592e+001  5.000000e+000  2.532461e+001
      vertex -1.610810e+001  0.000000e+000  2.606631e+001
      vertex -1.542592e+001  0.000000e+000  2.532461e+001
    endloop
  endfacet
  facet normal  1.415636e-001  -0.000000e+000  9.899291e-001
    outer loop
      vertex -1.542592e+001  5.000000e+000  2.532461e+001
      vertex -1.542592e+001  0.000000e+000  2.532461e+001
      vertex -1.442835e+001  5.000000e+000  2.518196e+001
    endloop
  endfacet
  facet normal  1.415636e-001  0.000000e+000  9.899291e-001
    outer loop
      vertex -1.442835e+001  5.000000e+000  2.518196e+001
      vertex -1.542592e+001  0.000000e+000  2.532461e+001
      vertex -1.442835e+001  0.000000e+000  2.518196e+001
    endloop
  endfacet
  facet normal -5.167893e-001  0.000000e+000  8.561126e-001
    outer loop
      vertex -1.442835e+001  5.000000e+000  2.518196e+001
      vertex -1.442835e+001  0.000000e+000  2.518196e+001
      vertex -1.356563e+001  5.000000e+000  2.570273e+001
    endloop
  endfacet
  facet normal -5.167893e-001  0.000000e+000  8.561126e-001
    outer loop
      vertex -1.356563e+001  5.000000e+000  2.570273e+001
      vertex -1.442835e+001  0.000000e+000  2.518196e+001
      vertex -1.356563e+001  0.000000e+000  2.570273e+001
    endloop
  endfacet
  facet normal -9.418954e-001  0.000000e+000  3.359064e-001
    outer loop
      vertex -1.356563e+001  5.000000e+000  2.570273e+001
      vertex -1.356563e+001  0.000000e+000  2.570273e+001
      vertex -1.322713e+001  5.000000e+000  2.665190e+001
    endloop
  endfacet
  facet normal -9.418954e-001  0.000000e+000  3.359064e-001
    outer loop
      vertex -1.322713e+001  5.000000e+000  2.665190e+001
      vertex -1.356563e+001  0.000000e+000  2.570273e+001
      vertex -1.322713e+001  0.000000e+000  2.665190e+001
    endloop
  endfacet
  facet normal  9.183362e-001  -0.000000e+000  3.958013e-001
    outer loop
      vertex -1.499730e+000  5.000000e+000  2.947152e+001
      vertex -1.499730e+000  0.000000e+000  2.947152e+001
      vertex -1.050542e+000  5.000000e+000  2.842932e+001
    endloop
  endfacet
  facet normal  9.183362e-001  0.000000e+000  3.958013e-001
    outer loop
      vertex -1.050542e+000  5.000000e+000  2.842932e+001
      vertex -1.499730e+000  0.000000e+000  2.947152e+001
      vertex -1.050542e+000  0.000000e+000  2.842932e+001
    endloop
  endfacet
  facet normal  3.782932e-001  -0.000000e+000  9.256858e-001
    outer loop
      vertex -1.050542e+000  5.000000e+000  2.842932e+001
      vertex -1.050542e+000  0.000000e+000  2.842932e+001
      vertex  2.755364e-016  5.000000e+000  2.800000e+001
    endloop
  endfacet
  facet normal  3.782932e-001  1.007976e-016  9.256858e-001
    outer loop
      vertex  2.755364e-016  5.000000e+000  2.800000e+001
      vertex -1.050542e+000  0.000000e+000  2.842932e+001
      vertex  1.607804e-015  0.000000e+000  2.800000e+001
    endloop
  endfacet
  facet normal -3.782932e-001 -1.007976e-016  9.256858e-001
    outer loop
      vertex  2.755364e-016  5.000000e+000  2.800000e+001
      vertex  1.607804e-015  0.000000e+000  2.800000e+001
      vertex  1.050542e+000  5.000000e+000  2.842932e+001
    endloop
  endfacet
  facet normal -3.782932e-001  0.000000e+000  9.256858e-001
    outer loop
      vertex  1.050542e+000  5.000000e+000  2.842932e+001
      vertex  1.607804e-015  0.000000e+000  2.800000e+001
      vertex  1.050542e+000  0.000000e+000  2.842932e+001
    endloop
  endfacet
  facet normal -9.183362e-001  0.000000e+000  3.958013e-001
    outer loop
      vertex  1.050542e+000  5.000000e+000  2.842932e+001
      vertex  1.050542e+000  0.000000e+000  2.842932e+001
      vertex  1.499730e+000  5.000000e+000  2.947152e+001
    endloop
  endfacet
  facet normal -9.183362e-001  0.000000e+000  3.958013e-001
    outer loop
      vertex  1.499730e+000  5.000000e+000  2.947152e+001
      vertex  1.050542e+000  0.000000e+000  2.842932e+001
      vertex  1.499730e+000  0.000000e+000  2.947152e+001
    endloop
  endfacet
endsolid CATIA STL
