solid CATIA STL
  facet normal  -0.000000e+000  0.000000e+000  1.000000e+000
    outer loop
      vertex  2.767767e+001 -1.767767e+001  1.000000e+001
      vertex  1.777818e+001 -1.909188e+001  1.000000e+001
      vertex  8.444366e+000 -2.446589e+001  1.000000e+001
    endloop
  endfacet
  facet normal  -0.000000e+000  0.000000e+000  1.000000e+000
    outer loop
      vertex  2.767767e+001 -1.767767e+001  1.000000e+001
      vertex  8.444366e+000 -2.446589e+001  1.000000e+001
      vertex  9.224264e+000 -2.578305e+001  1.000000e+001
    endloop
  endfacet
  facet normal  -0.000000e+000  0.000000e+000  1.000000e+000
    outer loop
      vertex  2.767767e+001 -1.767767e+001  1.000000e+001
      vertex  9.224264e+000 -2.578305e+001  1.000000e+001
      vertex  1.070711e+001 -2.616295e+001  1.000000e+001
    endloop
  endfacet
  facet normal  0.000000e+000  0.000000e+000  1.000000e+000
    outer loop
      vertex  2.767767e+001 -1.767767e+001  1.000000e+001
      vertex  1.070711e+001 -2.616295e+001  1.000000e+001
      vertex  1.862670e+001 -2.503158e+001  1.000000e+001
    endloop
  endfacet
  facet normal  -0.000000e+000  0.000000e+000  1.000000e+000
    outer loop
      vertex  2.767767e+001 -1.767767e+001  1.000000e+001
      vertex  1.862670e+001 -2.503158e+001  1.000000e+001
      vertex  1.919239e+001 -2.899138e+001  1.000000e+001
    endloop
  endfacet
  facet normal  0.000000e+000  0.000000e+000  1.000000e+000
    outer loop
      vertex  2.767767e+001 -1.767767e+001  1.000000e+001
      vertex  1.919239e+001 -2.899138e+001  1.000000e+001
      vertex  2.909188e+001 -2.757716e+001  1.000000e+001
    endloop
  endfacet
  facet normal  0.000000e+000  -0.000000e+000  9.999999e-001
    outer loop
      vertex  4.949237e+000  6.661338e-016  1.000000e+001
      vertex  8.444366e+000 -2.446589e+001  1.000000e+001
      vertex  1.000000e+001  0.000000e+000  1.000000e+001
    endloop
  endfacet
  facet normal  0.000000e+000  0.000000e+000  1.000000e+000
    outer loop
      vertex  1.000000e+001  0.000000e+000  1.000000e+001
      vertex  8.444366e+000 -2.446589e+001  1.000000e+001
      vertex  1.777818e+001 -1.909188e+001  1.000000e+001
    endloop
  endfacet
  facet normal  0.000000e+000  0.000000e+000  1.000000e+000
    outer loop
      vertex  1.000000e+001  0.000000e+000  1.000000e+001
      vertex  1.777818e+001 -1.909188e+001  1.000000e+001
      vertex  1.494975e+001  7.071068e-001  1.000000e+001
    endloop
  endfacet
  facet normal  -0.000000e+000  0.000000e+000 -1.000000e+000
    outer loop
      vertex  2.767767e+001 -1.767767e+001 -1.000000e+001
      vertex  2.909188e+001 -2.757716e+001 -1.000000e+001
      vertex  1.919239e+001 -2.899138e+001 -1.000000e+001
    endloop
  endfacet
  facet normal  0.000000e+000  0.000000e+000 -1.000000e+000
    outer loop
      vertex  2.767767e+001 -1.767767e+001 -1.000000e+001
      vertex  1.919239e+001 -2.899138e+001 -1.000000e+001
      vertex  1.862670e+001 -2.503158e+001 -1.000000e+001
    endloop
  endfacet
  facet normal  -0.000000e+000  0.000000e+000 -1.000000e+000
    outer loop
      vertex  2.767767e+001 -1.767767e+001 -1.000000e+001
      vertex  1.862670e+001 -2.503158e+001 -1.000000e+001
      vertex  1.070711e+001 -2.616295e+001 -1.000000e+001
    endloop
  endfacet
  facet normal  0.000000e+000  0.000000e+000 -1.000000e+000
    outer loop
      vertex  2.767767e+001 -1.767767e+001 -1.000000e+001
      vertex  1.070711e+001 -2.616295e+001 -1.000000e+001
      vertex  9.224264e+000 -2.578305e+001 -1.000000e+001
    endloop
  endfacet
  facet normal  0.000000e+000  0.000000e+000 -1.000000e+000
    outer loop
      vertex  2.767767e+001 -1.767767e+001 -1.000000e+001
      vertex  9.224264e+000 -2.578305e+001 -1.000000e+001
      vertex  8.444366e+000 -2.446589e+001 -1.000000e+001
    endloop
  endfacet
  facet normal  0.000000e+000  0.000000e+000 -1.000000e+000
    outer loop
      vertex  2.767767e+001 -1.767767e+001 -1.000000e+001
      vertex  8.444366e+000 -2.446589e+001 -1.000000e+001
      vertex  1.777818e+001 -1.909188e+001 -1.000000e+001
    endloop
  endfacet
  facet normal  0.000000e+000  0.000000e+000 -9.999999e-001
    outer loop
      vertex  8.444366e+000 -2.446589e+001 -1.000000e+001
      vertex  4.949237e+000  6.661338e-016 -1.000000e+001
      vertex  1.777818e+001 -1.909188e+001 -1.000000e+001
    endloop
  endfacet
  facet normal  0.000000e+000  0.000000e+000 -1.000000e+000
    outer loop
      vertex  1.777818e+001 -1.909188e+001 -1.000000e+001
      vertex  4.949237e+000  6.661338e-016 -1.000000e+001
      vertex  1.000000e+001  0.000000e+000 -1.000000e+001
    endloop
  endfacet
  facet normal  0.000000e+000  0.000000e+000 -1.000000e+000
    outer loop
      vertex  1.777818e+001 -1.909188e+001 -1.000000e+001
      vertex  1.000000e+001  0.000000e+000 -1.000000e+001
      vertex  1.494975e+001  7.071068e-001 -1.000000e+001
    endloop
  endfacet
  facet normal -9.899495e-001 -1.414214e-001  6.675597e-009
    outer loop
      vertex  8.444366e+000 -2.446589e+001  1.000000e+001
      vertex  4.949237e+000  6.661338e-016  1.000000e+001
      vertex  6.775593e+000 -1.278449e+001  3.810512e+000
    endloop
  endfacet
  facet normal -9.899495e-001 -1.414214e-001 -1.621958e-008
    outer loop
      vertex  8.444366e+000 -2.446589e+001  1.000000e+001
      vertex  6.775593e+000 -1.278449e+001  3.810512e+000
      vertex  7.003354e+000 -1.437882e+001  2.200000e+000
    endloop
  endfacet
  facet normal -9.899495e-001 -1.414213e-001  1.301187e-007
    outer loop
      vertex  8.444366e+000 -2.446589e+001  1.000000e+001
      vertex  7.003354e+000 -1.437882e+001  2.200000e+000
      vertex  7.086720e+000 -1.496238e+001 -3.369158e-015
    endloop
  endfacet
  facet normal -9.899495e-001 -1.414214e-001  0.000000e+000
    outer loop
      vertex  8.444366e+000 -2.446589e+001  1.000000e+001
      vertex  7.086720e+000 -1.496238e+001 -3.369158e-015
      vertex  8.444366e+000 -2.446589e+001 -1.000000e+001
    endloop
  endfacet
  facet normal -9.899496e-001 -1.414214e-001  0.000000e+000
    outer loop
      vertex  4.949237e+000  6.661338e-016  1.000000e+001
      vertex  4.949237e+000  6.661338e-016 -1.000000e+001
      vertex  5.842212e+000 -6.250824e+000  3.219647e-015
    endloop
  endfacet
  facet normal -9.899495e-001 -1.414212e-001 -8.608045e-008
    outer loop
      vertex  4.949237e+000  6.661338e-016  1.000000e+001
      vertex  5.842212e+000 -6.250824e+000  3.219647e-015
      vertex  5.925578e+000 -6.834387e+000  2.200000e+000
    endloop
  endfacet
  facet normal -9.899495e-001 -1.414213e-001  1.834494e-008
    outer loop
      vertex  4.949237e+000  6.661338e-016  1.000000e+001
      vertex  5.925578e+000 -6.834387e+000  2.200000e+000
      vertex  6.153339e+000 -8.428713e+000  3.810512e+000
    endloop
  endfacet
  facet normal -9.899494e-001 -1.414214e-001  1.242711e-007
    outer loop
      vertex  4.949237e+000  6.661338e-016  1.000000e+001
      vertex  6.153339e+000 -8.428713e+000  3.810512e+000
      vertex  6.464466e+000 -1.060660e+001  4.400000e+000
    endloop
  endfacet
  facet normal -9.899495e-001 -1.414215e-001  3.857242e-007
    outer loop
      vertex  4.949237e+000  6.661338e-016  1.000000e+001
      vertex  6.464466e+000 -1.060660e+001  4.400000e+000
      vertex  6.775593e+000 -1.278449e+001  3.810512e+000
    endloop
  endfacet
  facet normal -9.899495e-001 -1.414216e-001 -3.857242e-007
    outer loop
      vertex  4.949237e+000  6.661338e-016 -1.000000e+001
      vertex  6.775593e+000 -1.278449e+001 -3.810512e+000
      vertex  6.464466e+000 -1.060660e+001 -4.400000e+000
    endloop
  endfacet
  facet normal -9.899494e-001 -1.414214e-001 -1.242711e-007
    outer loop
      vertex  4.949237e+000  6.661338e-016 -1.000000e+001
      vertex  6.464466e+000 -1.060660e+001 -4.400000e+000
      vertex  6.153339e+000 -8.428713e+000 -3.810512e+000
    endloop
  endfacet
  facet normal -9.899495e-001 -1.414213e-001 -1.834494e-008
    outer loop
      vertex  4.949237e+000  6.661338e-016 -1.000000e+001
      vertex  6.153339e+000 -8.428713e+000 -3.810512e+000
      vertex  5.925578e+000 -6.834387e+000 -2.200000e+000
    endloop
  endfacet
  facet normal -9.899495e-001 -1.414212e-001  8.608045e-008
    outer loop
      vertex  4.949237e+000  6.661338e-016 -1.000000e+001
      vertex  5.925578e+000 -6.834387e+000 -2.200000e+000
      vertex  5.842212e+000 -6.250824e+000  3.219647e-015
    endloop
  endfacet
  facet normal -9.899495e-001 -1.414213e-001 -1.301187e-007
    outer loop
      vertex  8.444366e+000 -2.446589e+001 -1.000000e+001
      vertex  7.086720e+000 -1.496238e+001 -3.369158e-015
      vertex  7.003354e+000 -1.437882e+001 -2.200000e+000
    endloop
  endfacet
  facet normal -9.899495e-001 -1.414214e-001  1.621958e-008
    outer loop
      vertex  8.444366e+000 -2.446589e+001 -1.000000e+001
      vertex  7.003354e+000 -1.437882e+001 -2.200000e+000
      vertex  6.775593e+000 -1.278449e+001 -3.810512e+000
    endloop
  endfacet
  facet normal -9.899495e-001 -1.414214e-001 -6.675597e-009
    outer loop
      vertex  8.444366e+000 -2.446589e+001 -1.000000e+001
      vertex  6.775593e+000 -1.278449e+001 -3.810512e+000
      vertex  4.949237e+000  6.661338e-016 -1.000000e+001
    endloop
  endfacet
  facet normal  1.414213e-001 -9.899495e-001  0.000000e+000
    outer loop
      vertex  1.070711e+001 -2.616295e+001 -1.000000e+001
      vertex  1.862670e+001 -2.503158e+001 -1.000000e+001
      vertex  1.070711e+001 -2.616295e+001  1.000000e+001
    endloop
  endfacet
  facet normal  1.414213e-001 -9.899495e-001  0.000000e+000
    outer loop
      vertex  1.070711e+001 -2.616295e+001  1.000000e+001
      vertex  1.862670e+001 -2.503158e+001 -1.000000e+001
      vertex  1.862670e+001 -2.503158e+001  1.000000e+001
    endloop
  endfacet
  facet normal -2.481805e-001 -9.687139e-001  -0.000000e+000
    outer loop
      vertex  1.070711e+001 -2.616295e+001 -1.000000e+001
      vertex  1.070711e+001 -2.616295e+001  1.000000e+001
      vertex  9.224264e+000 -2.578305e+001 -1.000000e+001
    endloop
  endfacet
  facet normal -2.481805e-001 -9.687139e-001  0.000000e+000
    outer loop
      vertex  9.224264e+000 -2.578305e+001 -1.000000e+001
      vertex  1.070711e+001 -2.616295e+001  1.000000e+001
      vertex  9.224264e+000 -2.578305e+001  1.000000e+001
    endloop
  endfacet
  facet normal -8.604746e-001 -5.094932e-001  -0.000000e+000
    outer loop
      vertex  9.224264e+000 -2.578305e+001 -1.000000e+001
      vertex  9.224264e+000 -2.578305e+001  1.000000e+001
      vertex  8.444366e+000 -2.446589e+001 -1.000000e+001
    endloop
  endfacet
  facet normal -8.604746e-001 -5.094932e-001  0.000000e+000
    outer loop
      vertex  8.444366e+000 -2.446589e+001 -1.000000e+001
      vertex  9.224264e+000 -2.578305e+001  1.000000e+001
      vertex  8.444366e+000 -2.446589e+001  1.000000e+001
    endloop
  endfacet
  facet normal  0.000000e+000  0.000000e+000 -1.000000e+000
    outer loop
      vertex -1.941421e+001  3.585786e+000 -2.250000e+001
      vertex  4.656134e-015  3.000000e+000 -2.250000e+001
      vertex -1.800000e+001  3.000000e+000 -2.250000e+001
    endloop
  endfacet
  facet normal  0.000000e+000  0.000000e+000 -1.000000e+000
    outer loop
      vertex  4.248888e+001  4.641269e+000 -2.250000e+001
      vertex  4.656134e-015  3.000000e+000 -2.250000e+001
      vertex -1.941421e+001  3.585786e+000 -2.250000e+001
    endloop
  endfacet
  facet normal  0.000000e+000  0.000000e+000 -1.000000e+000
    outer loop
      vertex  4.248888e+001  4.641269e+000 -2.250000e+001
      vertex -1.941421e+001  3.585786e+000 -2.250000e+001
      vertex -2.000000e+001  5.000000e+000 -2.250000e+001
    endloop
  endfacet
  facet normal  0.000000e+000  0.000000e+000 -1.000000e+000
    outer loop
      vertex  4.248888e+001  4.641269e+000 -2.250000e+001
      vertex -2.000000e+001  5.000000e+000 -2.250000e+001
      vertex  1.035534e+001  5.000000e+000 -2.250000e+001
    endloop
  endfacet
  facet normal  0.000000e+000  0.000000e+000 -1.000000e+000
    outer loop
      vertex  4.248888e+001  4.641269e+000 -2.250000e+001
      vertex  1.035534e+001  5.000000e+000 -2.250000e+001
      vertex  4.179599e+001  9.491522e+000 -2.250000e+001
    endloop
  endfacet
  facet normal  0.000000e+000  0.000000e+000 -1.000000e+000
    outer loop
      vertex  4.248888e+001  4.641269e+000 -2.250000e+001
      vertex  1.000000e+001  0.000000e+000 -2.250000e+001
      vertex  4.656134e-015  3.000000e+000 -2.250000e+001
    endloop
  endfacet
  facet normal  0.000000e+000  -0.000000e+000 -1.000000e+000
    outer loop
      vertex  4.656134e-015  3.000000e+000 -2.250000e+001
      vertex  1.000000e+001  0.000000e+000 -2.250000e+001
      vertex  0.000000e+000  0.000000e+000 -2.250000e+001
    endloop
  endfacet
  facet normal  0.000000e+000  0.000000e+000  1.000000e+000
    outer loop
      vertex -1.800000e+001  3.000000e+000  2.250000e+001
      vertex  4.656134e-015  3.000000e+000  2.250000e+001
      vertex -1.941421e+001  3.585786e+000  2.250000e+001
    endloop
  endfacet
  facet normal  0.000000e+000  0.000000e+000  1.000000e+000
    outer loop
      vertex  4.248888e+001  4.641269e+000  2.250000e+001
      vertex  4.179599e+001  9.491522e+000  2.250000e+001
      vertex  1.035534e+001  5.000000e+000  2.250000e+001
    endloop
  endfacet
  facet normal  0.000000e+000  0.000000e+000  1.000000e+000
    outer loop
      vertex  4.248888e+001  4.641269e+000  2.250000e+001
      vertex  1.035534e+001  5.000000e+000  2.250000e+001
      vertex -2.000000e+001  5.000000e+000  2.250000e+001
    endloop
  endfacet
  facet normal  0.000000e+000  0.000000e+000  1.000000e+000
    outer loop
      vertex  4.248888e+001  4.641269e+000  2.250000e+001
      vertex -2.000000e+001  5.000000e+000  2.250000e+001
      vertex -1.941421e+001  3.585786e+000  2.250000e+001
    endloop
  endfacet
  facet normal  -0.000000e+000  0.000000e+000  1.000000e+000
    outer loop
      vertex  4.248888e+001  4.641269e+000  2.250000e+001
      vertex -1.941421e+001  3.585786e+000  2.250000e+001
      vertex  4.656134e-015  3.000000e+000  2.250000e+001
    endloop
  endfacet
  facet normal  0.000000e+000  0.000000e+000  9.999999e-001
    outer loop
      vertex  1.000000e+001  0.000000e+000  2.250000e+001
      vertex  4.248888e+001  4.641269e+000  2.250000e+001
      vertex  0.000000e+000  0.000000e+000  2.250000e+001
    endloop
  endfacet
  facet normal  0.000000e+000  0.000000e+000  1.000000e+000
    outer loop
      vertex  0.000000e+000  0.000000e+000  2.250000e+001
      vertex  4.248888e+001  4.641269e+000  2.250000e+001
      vertex  4.656134e-015  3.000000e+000  2.250000e+001
    endloop
  endfacet
  facet normal  -0.000000e+000 -1.000000e+000  -0.000000e+000
    outer loop
      vertex -1.000000e+001  3.000000e+000 -1.350000e+001
      vertex -1.106066e+001  3.000000e+000 -1.060660e+000
      vertex -1.150000e+001  3.000000e+000  0.000000e+000
    endloop
  endfacet
  facet normal  -0.000000e+000 -1.000000e+000  -0.000000e+000
    outer loop
      vertex -1.000000e+001  3.000000e+000 -1.350000e+001
      vertex -1.000000e+001  3.000000e+000 -1.500000e+000
      vertex -1.106066e+001  3.000000e+000 -1.060660e+000
    endloop
  endfacet
  facet normal  -0.000000e+000 -1.000000e+000  -0.000000e+000
    outer loop
      vertex -1.000000e+001  3.000000e+000  1.500000e+000
      vertex -1.000000e+001  3.000000e+000  1.350000e+001
      vertex -1.106066e+001  3.000000e+000  1.393934e+001
    endloop
  endfacet
  facet normal  0.000000e+000 -1.000000e+000  0.000000e+000
    outer loop
      vertex -8.939340e+000  3.000000e+000 -1.060660e+000
      vertex -1.000000e+001  3.000000e+000 -1.350000e+001
      vertex -8.500000e+000  3.000000e+000  1.836910e-016
    endloop
  endfacet
  facet normal  0.000000e+000 -1.000000e+000  0.000000e+000
    outer loop
      vertex -1.000000e+001  3.000000e+000 -1.500000e+000
      vertex -1.000000e+001  3.000000e+000 -1.350000e+001
      vertex -8.939340e+000  3.000000e+000 -1.060660e+000
    endloop
  endfacet
  facet normal  0.000000e+000 -1.000000e+000  0.000000e+000
    outer loop
      vertex -1.000000e+001  3.000000e+000  1.350000e+001
      vertex -1.000000e+001  3.000000e+000  1.500000e+000
      vertex -8.939340e+000  3.000000e+000  1.393934e+001
    endloop
  endfacet
  facet normal  0.000000e+000 -1.000000e+000  0.000000e+000
    outer loop
      vertex -1.800000e+001  3.000000e+000 -2.250000e+001
      vertex  4.656134e-015  3.000000e+000 -2.250000e+001
      vertex -1.000000e+001  3.000000e+000 -1.650000e+001
    endloop
  endfacet
  facet normal  -0.000000e+000 -1.000000e+000  0.000000e+000
    outer loop
      vertex -1.800000e+001  3.000000e+000 -2.250000e+001
      vertex -1.000000e+001  3.000000e+000 -1.650000e+001
      vertex -1.106066e+001  3.000000e+000 -1.606066e+001
    endloop
  endfacet
  facet normal  -0.000000e+000 -1.000000e+000  0.000000e+000
    outer loop
      vertex -1.800000e+001  3.000000e+000 -2.250000e+001
      vertex -1.106066e+001  3.000000e+000 -1.606066e+001
      vertex -1.150000e+001  3.000000e+000 -1.500000e+001
    endloop
  endfacet
  facet normal  -0.000000e+000 -1.000000e+000  0.000000e+000
    outer loop
      vertex -1.800000e+001  3.000000e+000 -2.250000e+001
      vertex -1.150000e+001  3.000000e+000 -1.500000e+001
      vertex -1.800000e+001  3.000000e+000  2.250000e+001
    endloop
  endfacet
  facet normal  0.000000e+000 -1.000000e+000  0.000000e+000
    outer loop
      vertex -1.800000e+001  3.000000e+000  2.250000e+001
      vertex -1.150000e+001  3.000000e+000 -1.500000e+001
      vertex -1.106066e+001  3.000000e+000 -1.393934e+001
    endloop
  endfacet
  facet normal  0.000000e+000 -1.000000e+000  0.000000e+000
    outer loop
      vertex -1.800000e+001  3.000000e+000  2.250000e+001
      vertex -1.106066e+001  3.000000e+000 -1.393934e+001
      vertex -1.000000e+001  3.000000e+000 -1.350000e+001
    endloop
  endfacet
  facet normal  0.000000e+000 -1.000000e+000  0.000000e+000
    outer loop
      vertex -1.800000e+001  3.000000e+000  2.250000e+001
      vertex -1.000000e+001  3.000000e+000 -1.350000e+001
      vertex -1.150000e+001  3.000000e+000  0.000000e+000
    endloop
  endfacet
  facet normal  0.000000e+000 -1.000000e+000  0.000000e+000
    outer loop
      vertex -1.800000e+001  3.000000e+000  2.250000e+001
      vertex -1.150000e+001  3.000000e+000  0.000000e+000
      vertex -1.106066e+001  3.000000e+000  1.060660e+000
    endloop
  endfacet
  facet normal  0.000000e+000 -9.999999e-001  0.000000e+000
    outer loop
      vertex -1.800000e+001  3.000000e+000  2.250000e+001
      vertex -1.106066e+001  3.000000e+000  1.060660e+000
      vertex -1.000000e+001  3.000000e+000  1.500000e+000
    endloop
  endfacet
  facet normal  0.000000e+000 -1.000000e+000  0.000000e+000
    outer loop
      vertex -1.800000e+001  3.000000e+000  2.250000e+001
      vertex -1.000000e+001  3.000000e+000  1.500000e+000
      vertex -1.106066e+001  3.000000e+000  1.393934e+001
    endloop
  endfacet
  facet normal  0.000000e+000 -1.000000e+000  0.000000e+000
    outer loop
      vertex -1.800000e+001  3.000000e+000  2.250000e+001
      vertex -1.106066e+001  3.000000e+000  1.393934e+001
      vertex -1.150000e+001  3.000000e+000  1.500000e+001
    endloop
  endfacet
  facet normal  0.000000e+000 -1.000000e+000  0.000000e+000
    outer loop
      vertex -1.800000e+001  3.000000e+000  2.250000e+001
      vertex -1.150000e+001  3.000000e+000  1.500000e+001
      vertex -1.106066e+001  3.000000e+000  1.606066e+001
    endloop
  endfacet
  facet normal  0.000000e+000 -1.000000e+000  0.000000e+000
    outer loop
      vertex -1.800000e+001  3.000000e+000  2.250000e+001
      vertex -1.106066e+001  3.000000e+000  1.606066e+001
      vertex -1.000000e+001  3.000000e+000  1.650000e+001
    endloop
  endfacet
  facet normal  0.000000e+000 -1.000000e+000  0.000000e+000
    outer loop
      vertex -1.800000e+001  3.000000e+000  2.250000e+001
      vertex -1.000000e+001  3.000000e+000  1.650000e+001
      vertex  4.656134e-015  3.000000e+000  2.250000e+001
    endloop
  endfacet
  facet normal  0.000000e+000 -9.999999e-001  0.000000e+000
    outer loop
      vertex  4.656134e-015  3.000000e+000  2.250000e+001
      vertex -1.000000e+001  3.000000e+000  1.650000e+001
      vertex -8.939340e+000  3.000000e+000  1.606066e+001
    endloop
  endfacet
  facet normal  0.000000e+000 -1.000000e+000  0.000000e+000
    outer loop
      vertex  4.656134e-015  3.000000e+000  2.250000e+001
      vertex -8.939340e+000  3.000000e+000  1.606066e+001
      vertex -8.500000e+000  3.000000e+000  1.500000e+001
    endloop
  endfacet
  facet normal  0.000000e+000 -9.999999e-001  -0.000000e+000
    outer loop
      vertex  4.656134e-015  3.000000e+000  2.250000e+001
      vertex -8.500000e+000  3.000000e+000  1.500000e+001
      vertex -8.939340e+000  3.000000e+000  1.393934e+001
    endloop
  endfacet
  facet normal  0.000000e+000 -1.000000e+000  -0.000000e+000
    outer loop
      vertex  4.656134e-015  3.000000e+000  2.250000e+001
      vertex -8.939340e+000  3.000000e+000  1.393934e+001
      vertex -1.000000e+001  3.000000e+000  1.500000e+000
    endloop
  endfacet
  facet normal  0.000000e+000 -1.000000e+000  0.000000e+000
    outer loop
      vertex  4.656134e-015  3.000000e+000  2.250000e+001
      vertex -1.000000e+001  3.000000e+000  1.500000e+000
      vertex -8.939340e+000  3.000000e+000  1.060660e+000
    endloop
  endfacet
  facet normal  0.000000e+000 -1.000000e+000  0.000000e+000
    outer loop
      vertex  4.656134e-015  3.000000e+000  2.250000e+001
      vertex -8.939340e+000  3.000000e+000  1.060660e+000
      vertex -8.500000e+000  3.000000e+000  1.836910e-016
    endloop
  endfacet
  facet normal  0.000000e+000 -1.000000e+000  -0.000000e+000
    outer loop
      vertex  4.656134e-015  3.000000e+000  2.250000e+001
      vertex -8.500000e+000  3.000000e+000  1.836910e-016
      vertex -1.000000e+001  3.000000e+000 -1.350000e+001
    endloop
  endfacet
  facet normal  0.000000e+000 -1.000000e+000  0.000000e+000
    outer loop
      vertex  4.656134e-015  3.000000e+000  2.250000e+001
      vertex -1.000000e+001  3.000000e+000 -1.350000e+001
      vertex -8.939340e+000  3.000000e+000 -1.393934e+001
    endloop
  endfacet
  facet normal  0.000000e+000 -1.000000e+000  0.000000e+000
    outer loop
      vertex  4.656134e-015  3.000000e+000  2.250000e+001
      vertex -8.939340e+000  3.000000e+000 -1.393934e+001
      vertex -8.500000e+000  3.000000e+000 -1.500000e+001
    endloop
  endfacet
  facet normal  0.000000e+000 -1.000000e+000  -0.000000e+000
    outer loop
      vertex  4.656134e-015  3.000000e+000 -2.250000e+001
      vertex  4.656134e-015  3.000000e+000  2.250000e+001
      vertex -8.500000e+000  3.000000e+000 -1.500000e+001
    endloop
  endfacet
  facet normal  0.000000e+000 -1.000000e+000  -0.000000e+000
    outer loop
      vertex  4.656134e-015  3.000000e+000 -2.250000e+001
      vertex -8.500000e+000  3.000000e+000 -1.500000e+001
      vertex -8.939340e+000  3.000000e+000 -1.606066e+001
    endloop
  endfacet
  facet normal  0.000000e+000 -9.999999e-001  -0.000000e+000
    outer loop
      vertex  4.656134e-015  3.000000e+000 -2.250000e+001
      vertex -8.939340e+000  3.000000e+000 -1.606066e+001
      vertex -1.000000e+001  3.000000e+000 -1.650000e+001
    endloop
  endfacet
  facet normal  0.000000e+000  1.878972e-001  9.821887e-001
    outer loop
      vertex -2.000000e+001  5.000000e+000  2.250000e+001
      vertex  1.035534e+001  5.000000e+000  2.250000e+001
      vertex -1.964694e+001  6.845507e+000  2.214695e+001
    endloop
  endfacet
  facet normal -6.935410e-003  7.796916e-002  9.969317e-001
    outer loop
      vertex -1.964694e+001  6.845507e+000  2.214695e+001
      vertex  1.035534e+001  5.000000e+000  2.250000e+001
      vertex  1.029975e+001  5.782196e+000  2.243844e+001
    endloop
  endfacet
  facet normal  8.166065e-003  4.716983e-001  8.817222e-001
    outer loop
      vertex -1.964694e+001  6.845507e+000  2.214695e+001
      vertex  1.029975e+001  5.782196e+000  2.243844e+001
      vertex -1.909197e+001  7.873288e+000  2.159197e+001
    endloop
  endfacet
  facet normal  6.097791e-004  3.825731e-001  9.239250e-001
    outer loop
      vertex -1.909197e+001  7.873288e+000  2.159197e+001
      vertex  1.029975e+001  5.782196e+000  2.243844e+001
      vertex  1.014657e+001  7.937618e+000  2.154604e+001
    endloop
  endfacet
  facet normal -5.446872e-004  7.331548e-001  6.800616e-001
    outer loop
      vertex -1.909197e+001  7.873288e+000  2.159197e+001
      vertex  1.014657e+001  7.937618e+000  2.154604e+001
      vertex -1.756159e+001  9.293981e+000  2.006159e+001
    endloop
  endfacet
  facet normal  2.404810e-003  7.601835e-001  6.497040e-001
    outer loop
      vertex -1.756159e+001  9.293981e+000  2.006159e+001
      vertex  1.014657e+001  7.937618e+000  2.154604e+001
      vertex  1.003882e+001  9.453720e+000  1.977253e+001
    endloop
  endfacet
  facet normal -1.894378e-003  9.407817e-001  3.390076e-001
    outer loop
      vertex -1.756159e+001  9.293981e+000  2.006159e+001
      vertex  1.003882e+001  9.453720e+000  1.977253e+001
      vertex -1.578378e+001  9.938187e+000  1.828378e+001
    endloop
  endfacet
  facet normal  4.771470e-003  9.723099e-001  2.336467e-001
    outer loop
      vertex -1.578378e+001  9.938187e+000  1.828378e+001
      vertex  1.003882e+001  9.453720e+000  1.977253e+001
      vertex  1.000000e+001  1.000000e+001  1.750000e+001
    endloop
  endfacet
  facet normal  0.000000e+000  9.969046e-001  7.862128e-002
    outer loop
      vertex -1.578378e+001  9.938187e+000  1.828378e+001
      vertex  1.000000e+001  1.000000e+001  1.750000e+001
      vertex -1.500000e+001  1.000000e+001  1.750000e+001
    endloop
  endfacet
  facet normal -9.821888e-001  1.878973e-001  0.000000e+000
    outer loop
      vertex -2.000000e+001  5.000000e+000 -2.250000e+001
      vertex -2.000000e+001  5.000000e+000  2.250000e+001
      vertex -1.964695e+001  6.845507e+000 -2.214694e+001
    endloop
  endfacet
  facet normal -9.821883e-001  1.878992e-001  8.458844e-008
    outer loop
      vertex -1.964695e+001  6.845507e+000 -2.214694e+001
      vertex -2.000000e+001  5.000000e+000  2.250000e+001
      vertex -1.964694e+001  6.845507e+000  2.214695e+001
    endloop
  endfacet
  facet normal -8.799147e-001  4.751317e-001  7.578039e-008
    outer loop
      vertex -1.964695e+001  6.845507e+000 -2.214694e+001
      vertex -1.964694e+001  6.845507e+000  2.214695e+001
      vertex -1.909197e+001  7.873288e+000 -2.159197e+001
    endloop
  endfacet
  facet normal -8.799161e-001  4.751292e-001  0.000000e+000
    outer loop
      vertex -1.909197e+001  7.873288e+000 -2.159197e+001
      vertex -1.964694e+001  6.845507e+000  2.214695e+001
      vertex -1.909197e+001  7.873288e+000  2.159197e+001
    endloop
  endfacet
  facet normal -6.803544e-001  7.328833e-001  0.000000e+000
    outer loop
      vertex -1.909197e+001  7.873288e+000 -2.159197e+001
      vertex -1.909197e+001  7.873288e+000  2.159197e+001
      vertex -1.756159e+001  9.293981e+000 -2.006159e+001
    endloop
  endfacet
  facet normal -6.803538e-001  7.328838e-001  3.234220e-008
    outer loop
      vertex -1.756159e+001  9.293981e+000 -2.006159e+001
      vertex -1.909197e+001  7.873288e+000  2.159197e+001
      vertex -1.756159e+001  9.293981e+000  2.006159e+001
    endloop
  endfacet
  facet normal -3.406833e-001  9.401782e-001  1.619517e-008
    outer loop
      vertex -1.756159e+001  9.293981e+000 -2.006159e+001
      vertex -1.756159e+001  9.293981e+000  2.006159e+001
      vertex -1.578378e+001  9.938187e+000 -1.828378e+001
    endloop
  endfacet
  facet normal -3.406835e-001  9.401780e-001  0.000000e+000
    outer loop
      vertex -1.578378e+001  9.938187e+000 -1.828378e+001
      vertex -1.756159e+001  9.293981e+000  2.006159e+001
      vertex -1.578378e+001  9.938187e+000  1.828378e+001
    endloop
  endfacet
  facet normal -7.862127e-002  9.969046e-001  0.000000e+000
    outer loop
      vertex -1.578378e+001  9.938187e+000 -1.828378e+001
      vertex -1.578378e+001  9.938187e+000  1.828378e+001
      vertex -1.500000e+001  1.000000e+001 -1.750000e+001
    endloop
  endfacet
  facet normal -7.862128e-002  9.969046e-001  0.000000e+000
    outer loop
      vertex -1.500000e+001  1.000000e+001 -1.750000e+001
      vertex -1.578378e+001  9.938187e+000  1.828378e+001
      vertex -1.500000e+001  1.000000e+001  1.750000e+001
    endloop
  endfacet
  facet normal  0.000000e+000  9.969046e-001 -7.862128e-002
    outer loop
      vertex -1.500000e+001  1.000000e+001 -1.750000e+001
      vertex  1.000000e+001  1.000000e+001 -1.750000e+001
      vertex -1.578378e+001  9.938187e+000 -1.828378e+001
    endloop
  endfacet
  facet normal  4.771470e-003  9.723099e-001 -2.336467e-001
    outer loop
      vertex -1.578378e+001  9.938187e+000 -1.828378e+001
      vertex  1.000000e+001  1.000000e+001 -1.750000e+001
      vertex  1.003882e+001  9.453720e+000 -1.977253e+001
    endloop
  endfacet
  facet normal -1.894398e-003  9.407816e-001 -3.390079e-001
    outer loop
      vertex -1.578378e+001  9.938187e+000 -1.828378e+001
      vertex  1.003882e+001  9.453720e+000 -1.977253e+001
      vertex -1.756159e+001  9.293981e+000 -2.006159e+001
    endloop
  endfacet
  facet normal  2.908498e-003  7.314287e-001 -6.819116e-001
    outer loop
      vertex -1.756159e+001  9.293981e+000 -2.006159e+001
      vertex  1.003882e+001  9.453720e+000 -1.977253e+001
      vertex -1.909197e+001  7.873288e+000 -2.159197e+001
    endloop
  endfacet
  facet normal -6.514800e-004  7.600938e-001 -6.498129e-001
    outer loop
      vertex -1.909197e+001  7.873288e+000 -2.159197e+001
      vertex  1.003882e+001  9.453720e+000 -1.977253e+001
      vertex  1.014657e+001  7.937618e+000 -2.154604e+001
    endloop
  endfacet
  facet normal  3.374279e-004  4.749880e-001 -8.799922e-001
    outer loop
      vertex -1.909197e+001  7.873288e+000 -2.159197e+001
      vertex  1.014657e+001  7.937618e+000 -2.154604e+001
      vertex -1.964695e+001  6.845507e+000 -2.214694e+001
    endloop
  endfacet
  facet normal  4.600130e-003  3.828112e-001 -9.238152e-001
    outer loop
      vertex -1.964695e+001  6.845507e+000 -2.214694e+001
      vertex  1.014657e+001  7.937618e+000 -2.154604e+001
      vertex  1.029975e+001  5.782196e+000 -2.243844e+001
    endloop
  endfacet
  facet normal -2.868966e-003  1.884279e-001 -9.820828e-001
    outer loop
      vertex -1.964695e+001  6.845507e+000 -2.214694e+001
      vertex  1.029975e+001  5.782196e+000 -2.243844e+001
      vertex -2.000000e+001  5.000000e+000 -2.250000e+001
    endloop
  endfacet
  facet normal  0.000000e+000  7.846089e-002 -9.969171e-001
    outer loop
      vertex -2.000000e+001  5.000000e+000 -2.250000e+001
      vertex  1.029975e+001  5.782196e+000 -2.243844e+001
      vertex  1.035534e+001  5.000000e+000 -2.250000e+001
    endloop
  endfacet
  facet normal -9.238794e-001 -3.826836e-001  0.000000e+000
    outer loop
      vertex -2.000000e+001  5.000000e+000  2.250000e+001
      vertex -2.000000e+001  5.000000e+000 -2.250000e+001
      vertex -1.941421e+001  3.585786e+000  2.250000e+001
    endloop
  endfacet
  facet normal -9.238794e-001 -3.826836e-001  -0.000000e+000
    outer loop
      vertex -1.941421e+001  3.585786e+000  2.250000e+001
      vertex -2.000000e+001  5.000000e+000 -2.250000e+001
      vertex -1.941421e+001  3.585786e+000 -2.250000e+001
    endloop
  endfacet
  facet normal -3.826835e-001 -9.238795e-001  0.000000e+000
    outer loop
      vertex -1.941421e+001  3.585786e+000  2.250000e+001
      vertex -1.941421e+001  3.585786e+000 -2.250000e+001
      vertex -1.800000e+001  3.000000e+000  2.250000e+001
    endloop
  endfacet
  facet normal -3.826835e-001 -9.238795e-001  -0.000000e+000
    outer loop
      vertex -1.800000e+001  3.000000e+000  2.250000e+001
      vertex -1.941421e+001  3.585786e+000 -2.250000e+001
      vertex -1.800000e+001  3.000000e+000 -2.250000e+001
    endloop
  endfacet
  facet normal  0.000000e+000  1.000000e+000  -0.000000e+000
    outer loop
      vertex -1.106066e+001  1.000000e+001  1.606066e+001
      vertex -1.150000e+001  1.000000e+001  1.500000e+001
      vertex -1.500000e+001  1.000000e+001  1.750000e+001
    endloop
  endfacet
  facet normal  0.000000e+000  1.000000e+000  -0.000000e+000
    outer loop
      vertex -1.000000e+001  1.000000e+001  1.650000e+001
      vertex -1.106066e+001  1.000000e+001  1.606066e+001
      vertex -1.500000e+001  1.000000e+001  1.750000e+001
    endloop
  endfacet
  facet normal  0.000000e+000  9.999999e-001  0.000000e+000
    outer loop
      vertex -1.500000e+001  1.000000e+001 -1.750000e+001
      vertex -1.500000e+001  1.000000e+001  1.750000e+001
      vertex -1.150000e+001  1.000000e+001  1.500000e+001
    endloop
  endfacet
  facet normal  0.000000e+000  1.000000e+000  0.000000e+000
    outer loop
      vertex -1.500000e+001  1.000000e+001 -1.750000e+001
      vertex -1.150000e+001  1.000000e+001  1.500000e+001
      vertex -1.150000e+001  1.000000e+001  0.000000e+000
    endloop
  endfacet
  facet normal  0.000000e+000  1.000000e+000  0.000000e+000
    outer loop
      vertex -1.500000e+001  1.000000e+001 -1.750000e+001
      vertex -1.150000e+001  1.000000e+001  0.000000e+000
      vertex -1.150000e+001  1.000000e+001 -1.500000e+001
    endloop
  endfacet
  facet normal  0.000000e+000  1.000000e+000  0.000000e+000
    outer loop
      vertex -1.500000e+001  1.000000e+001 -1.750000e+001
      vertex -1.150000e+001  1.000000e+001 -1.500000e+001
      vertex -1.106066e+001  1.000000e+001 -1.606066e+001
    endloop
  endfacet
  facet normal  0.000000e+000  1.000000e+000  0.000000e+000
    outer loop
      vertex -1.500000e+001  1.000000e+001 -1.750000e+001
      vertex -1.106066e+001  1.000000e+001 -1.606066e+001
      vertex -1.000000e+001  1.000000e+001 -1.650000e+001
    endloop
  endfacet
  facet normal  0.000000e+000  1.000000e+000  -0.000000e+000
    outer loop
      vertex  1.000000e+001  1.000000e+001  1.750000e+001
      vertex  1.000000e+001  1.000000e+001 -1.750000e+001
      vertex -8.939340e+000  1.000000e+001  1.606066e+001
    endloop
  endfacet
  facet normal  0.000000e+000  1.000000e+000  -0.000000e+000
    outer loop
      vertex  1.000000e+001  1.000000e+001  1.750000e+001
      vertex -8.939340e+000  1.000000e+001  1.606066e+001
      vertex -1.000000e+001  1.000000e+001  1.650000e+001
    endloop
  endfacet
  facet normal  0.000000e+000  1.000000e+000  -0.000000e+000
    outer loop
      vertex  1.000000e+001  1.000000e+001  1.750000e+001
      vertex -1.000000e+001  1.000000e+001  1.650000e+001
      vertex -1.500000e+001  1.000000e+001  1.750000e+001
    endloop
  endfacet
  facet normal  0.000000e+000  1.000000e+000  0.000000e+000
    outer loop
      vertex  1.000000e+001  1.000000e+001 -1.750000e+001
      vertex -1.500000e+001  1.000000e+001 -1.750000e+001
      vertex -1.000000e+001  1.000000e+001 -1.650000e+001
    endloop
  endfacet
  facet normal  -0.000000e+000  1.000000e+000  0.000000e+000
    outer loop
      vertex  1.000000e+001  1.000000e+001 -1.750000e+001
      vertex -1.000000e+001  1.000000e+001 -1.650000e+001
      vertex -8.939340e+000  1.000000e+001 -1.606066e+001
    endloop
  endfacet
  facet normal  -0.000000e+000  1.000000e+000  0.000000e+000
    outer loop
      vertex  1.000000e+001  1.000000e+001 -1.750000e+001
      vertex -8.939340e+000  1.000000e+001 -1.606066e+001
      vertex -8.500000e+000  1.000000e+001 -1.500000e+001
    endloop
  endfacet
  facet normal  -0.000000e+000  1.000000e+000  0.000000e+000
    outer loop
      vertex  1.000000e+001  1.000000e+001 -1.750000e+001
      vertex -8.500000e+000  1.000000e+001 -1.500000e+001
      vertex -8.500000e+000  1.000000e+001  1.836910e-016
    endloop
  endfacet
  facet normal  -0.000000e+000  1.000000e+000  0.000000e+000
    outer loop
      vertex  1.000000e+001  1.000000e+001 -1.750000e+001
      vertex -8.500000e+000  1.000000e+001  1.836910e-016
      vertex -8.500000e+000  1.000000e+001  1.500000e+001
    endloop
  endfacet
  facet normal  -0.000000e+000  9.999999e-001  -0.000000e+000
    outer loop
      vertex  1.000000e+001  1.000000e+001 -1.750000e+001
      vertex -8.500000e+000  1.000000e+001  1.500000e+001
      vertex -8.939340e+000  1.000000e+001  1.606066e+001
    endloop
  endfacet
  facet normal  0.000000e+000  1.000000e+000  -0.000000e+000
    outer loop
      vertex -8.500000e+000  1.000000e+001  1.836910e-016
      vertex -8.500000e+000  1.000000e+001 -1.500000e+001
      vertex -8.939340e+000  1.000000e+001 -1.060660e+000
    endloop
  endfacet
  facet normal  0.000000e+000  1.000000e+000  0.000000e+000
    outer loop
      vertex -8.939340e+000  1.000000e+001 -1.060660e+000
      vertex -8.500000e+000  1.000000e+001 -1.500000e+001
      vertex -8.939340e+000  1.000000e+001 -1.393934e+001
    endloop
  endfacet
  facet normal  0.000000e+000  1.000000e+000  -0.000000e+000
    outer loop
      vertex -8.939340e+000  1.000000e+001 -1.060660e+000
      vertex -8.939340e+000  1.000000e+001 -1.393934e+001
      vertex -1.000000e+001  1.000000e+001 -1.500000e+000
    endloop
  endfacet
  facet normal  0.000000e+000  1.000000e+000  0.000000e+000
    outer loop
      vertex -1.000000e+001  1.000000e+001 -1.500000e+000
      vertex -8.939340e+000  1.000000e+001 -1.393934e+001
      vertex -1.000000e+001  1.000000e+001 -1.350000e+001
    endloop
  endfacet
  facet normal  0.000000e+000  1.000000e+000  -0.000000e+000
    outer loop
      vertex -1.000000e+001  1.000000e+001 -1.500000e+000
      vertex -1.000000e+001  1.000000e+001 -1.350000e+001
      vertex -1.106066e+001  1.000000e+001 -1.060660e+000
    endloop
  endfacet
  facet normal  0.000000e+000  1.000000e+000  0.000000e+000
    outer loop
      vertex -1.106066e+001  1.000000e+001 -1.060660e+000
      vertex -1.000000e+001  1.000000e+001 -1.350000e+001
      vertex -1.106066e+001  1.000000e+001 -1.393934e+001
    endloop
  endfacet
  facet normal  0.000000e+000  1.000000e+000  -0.000000e+000
    outer loop
      vertex -1.106066e+001  1.000000e+001 -1.060660e+000
      vertex -1.106066e+001  1.000000e+001 -1.393934e+001
      vertex -1.150000e+001  1.000000e+001  0.000000e+000
    endloop
  endfacet
  facet normal  0.000000e+000  1.000000e+000  0.000000e+000
    outer loop
      vertex -1.150000e+001  1.000000e+001  0.000000e+000
      vertex -1.106066e+001  1.000000e+001 -1.393934e+001
      vertex -1.150000e+001  1.000000e+001 -1.500000e+001
    endloop
  endfacet
  facet normal  0.000000e+000  1.000000e+000  -0.000000e+000
    outer loop
      vertex -8.500000e+000  1.000000e+001  1.500000e+001
      vertex -8.500000e+000  1.000000e+001  1.836910e-016
      vertex -8.939340e+000  1.000000e+001  1.393934e+001
    endloop
  endfacet
  facet normal  0.000000e+000  1.000000e+000  0.000000e+000
    outer loop
      vertex -8.939340e+000  1.000000e+001  1.393934e+001
      vertex -8.500000e+000  1.000000e+001  1.836910e-016
      vertex -8.939340e+000  1.000000e+001  1.060660e+000
    endloop
  endfacet
  facet normal  0.000000e+000  1.000000e+000  -0.000000e+000
    outer loop
      vertex -8.939340e+000  1.000000e+001  1.393934e+001
      vertex -8.939340e+000  1.000000e+001  1.060660e+000
      vertex -1.000000e+001  1.000000e+001  1.350000e+001
    endloop
  endfacet
  facet normal  0.000000e+000  1.000000e+000  0.000000e+000
    outer loop
      vertex -1.000000e+001  1.000000e+001  1.350000e+001
      vertex -8.939340e+000  1.000000e+001  1.060660e+000
      vertex -1.000000e+001  1.000000e+001  1.500000e+000
    endloop
  endfacet
  facet normal  0.000000e+000  1.000000e+000  -0.000000e+000
    outer loop
      vertex -1.000000e+001  1.000000e+001  1.350000e+001
      vertex -1.000000e+001  1.000000e+001  1.500000e+000
      vertex -1.106066e+001  1.000000e+001  1.393934e+001
    endloop
  endfacet
  facet normal  0.000000e+000  1.000000e+000  0.000000e+000
    outer loop
      vertex -1.106066e+001  1.000000e+001  1.393934e+001
      vertex -1.000000e+001  1.000000e+001  1.500000e+000
      vertex -1.106066e+001  1.000000e+001  1.060660e+000
    endloop
  endfacet
  facet normal  0.000000e+000  1.000000e+000  -0.000000e+000
    outer loop
      vertex -1.106066e+001  1.000000e+001  1.393934e+001
      vertex -1.106066e+001  1.000000e+001  1.060660e+000
      vertex -1.150000e+001  1.000000e+001  1.500000e+001
    endloop
  endfacet
  facet normal  0.000000e+000  1.000000e+000  0.000000e+000
    outer loop
      vertex -1.150000e+001  1.000000e+001  1.500000e+001
      vertex -1.106066e+001  1.000000e+001  1.060660e+000
      vertex -1.150000e+001  1.000000e+001  0.000000e+000
    endloop
  endfacet
  facet normal -1.414213e-001  9.899495e-001  0.000000e+000
    outer loop
      vertex  1.000000e+001  1.000000e+001 -1.750000e+001
      vertex  1.000000e+001  1.000000e+001  1.750000e+001
      vertex  3.613914e+001  1.373416e+001 -1.750000e+001
    endloop
  endfacet
  facet normal -1.414213e-001  9.899495e-001  0.000000e+000
    outer loop
      vertex  3.613914e+001  1.373416e+001 -1.750000e+001
      vertex  1.000000e+001  1.000000e+001  1.750000e+001
      vertex  3.613914e+001  1.373416e+001  1.750000e+001
    endloop
  endfacet
  facet normal  9.899494e-001  1.414215e-001  0.000000e+000
    outer loop
      vertex  4.179599e+001  9.491522e+000 -2.250000e+001
      vertex  4.179599e+001  9.491522e+000  2.250000e+001
      vertex  4.248888e+001  4.641269e+000 -2.250000e+001
    endloop
  endfacet
  facet normal  9.899494e-001  1.414215e-001  -0.000000e+000
    outer loop
      vertex  4.248888e+001  4.641269e+000 -2.250000e+001
      vertex  4.179599e+001  9.491522e+000  2.250000e+001
      vertex  4.248888e+001  4.641269e+000  2.250000e+001
    endloop
  endfacet
  facet normal -6.315187e-002  9.980040e-001  0.000000e+000
    outer loop
      vertex  3.613914e+001  1.373416e+001 -1.750000e+001
      vertex  3.613914e+001  1.373416e+001  1.750000e+001
      vertex  3.692379e+001  1.378381e+001 -1.828378e+001
    endloop
  endfacet
  facet normal -6.315186e-002  9.980039e-001  0.000000e+000
    outer loop
      vertex  3.692379e+001  1.378381e+001 -1.828378e+001
      vertex  3.613914e+001  1.373416e+001  1.750000e+001
      vertex  3.692379e+001  1.378381e+001  1.828378e+001
    endloop
  endfacet
  facet normal  2.042980e-001  9.789088e-001  0.000000e+000
    outer loop
      vertex  3.692379e+001  1.378381e+001 -1.828378e+001
      vertex  3.692379e+001  1.378381e+001  1.828378e+001
      vertex  3.877483e+001  1.339750e+001 -2.006159e+001
    endloop
  endfacet
  facet normal  2.042980e-001  9.789088e-001  -0.000000e+000
    outer loop
      vertex  3.877483e+001  1.339750e+001 -2.006159e+001
      vertex  3.692379e+001  1.378381e+001  1.828378e+001
      vertex  3.877483e+001  1.339750e+001  2.006159e+001
    endloop
  endfacet
  facet normal  5.698714e-001  8.217340e-001  0.000000e+000
    outer loop
      vertex  3.877483e+001  1.339750e+001 -2.006159e+001
      vertex  3.877483e+001  1.339750e+001  2.006159e+001
      vertex  4.049074e+001  1.220752e+001 -2.159197e+001
    endloop
  endfacet
  facet normal  5.698714e-001  8.217340e-001  -0.000000e+000
    outer loop
      vertex  4.049074e+001  1.220752e+001 -2.159197e+001
      vertex  3.877483e+001  1.339750e+001  2.006159e+001
      vertex  4.049074e+001  1.220752e+001  2.159197e+001
    endloop
  endfacet
  facet normal  8.038774e-001  5.947950e-001  0.000000e+000
    outer loop
      vertex  4.049074e+001  1.220752e+001 -2.159197e+001
      vertex  4.049074e+001  1.220752e+001  2.159197e+001
      vertex  4.118549e+001  1.126855e+001 -2.214694e+001
    endloop
  endfacet
  facet normal  8.038774e-001  5.947950e-001  -0.000000e+000
    outer loop
      vertex  4.118549e+001  1.126855e+001 -2.214694e+001
      vertex  4.049074e+001  1.220752e+001  2.159197e+001
      vertex  4.118549e+001  1.126855e+001  2.214694e+001
    endloop
  endfacet
  facet normal  9.457444e-001  3.249116e-001  0.000000e+000
    outer loop
      vertex  4.118549e+001  1.126855e+001 -2.214694e+001
      vertex  4.118549e+001  1.126855e+001  2.214694e+001
      vertex  4.179599e+001  9.491522e+000 -2.250000e+001
    endloop
  endfacet
  facet normal  9.457445e-001  3.249116e-001  -0.000000e+000
    outer loop
      vertex  4.179599e+001  9.491522e+000 -2.250000e+001
      vertex  4.118549e+001  1.126855e+001  2.214694e+001
      vertex  4.179599e+001  9.491522e+000  2.250000e+001
    endloop
  endfacet
  facet normal -1.109605e-002  7.767234e-002  9.969172e-001
    outer loop
      vertex  1.035534e+001  5.000000e+000  2.250000e+001
      vertex  4.179599e+001  9.491522e+000  2.250000e+001
      vertex  1.029975e+001  5.782196e+000  2.243844e+001
    endloop
  endfacet
  facet normal -2.393068e-002  1.868985e-001  9.820878e-001
    outer loop
      vertex  1.029975e+001  5.782196e+000  2.243844e+001
      vertex  4.179599e+001  9.491522e+000  2.250000e+001
      vertex  4.118549e+001  1.126855e+001  2.214694e+001
    endloop
  endfacet
  facet normal -5.848537e-002  3.783303e-001  9.238213e-001
    outer loop
      vertex  1.029975e+001  5.782196e+000  2.243844e+001
      vertex  4.118549e+001  1.126855e+001  2.214694e+001
      vertex  1.014657e+001  7.937618e+000  2.154604e+001
    endloop
  endfacet
  facet normal -6.749306e-002  4.701749e-001  8.799887e-001
    outer loop
      vertex  1.014657e+001  7.937618e+000  2.154604e+001
      vertex  4.118549e+001  1.126855e+001  2.214694e+001
      vertex  4.049074e+001  1.220752e+001  2.159197e+001
    endloop
  endfacet
  facet normal -1.068783e-001  7.525434e-001  6.498119e-001
    outer loop
      vertex  1.014657e+001  7.937618e+000  2.154604e+001
      vertex  4.049074e+001  1.220752e+001  2.159197e+001
      vertex  1.003882e+001  9.453720e+000  1.977253e+001
    endloop
  endfacet
  facet normal -1.061884e-001  7.237569e-001  6.818357e-001
    outer loop
      vertex  1.003882e+001  9.453720e+000  1.977253e+001
      vertex  4.049074e+001  1.220752e+001  2.159197e+001
      vertex  3.877483e+001  1.339750e+001  2.006159e+001
    endloop
  endfacet
  facet normal -1.345075e-001  9.629420e-001  2.337742e-001
    outer loop
      vertex  1.003882e+001  9.453720e+000  1.977253e+001
      vertex  3.877483e+001  1.339750e+001  2.006159e+001
      vertex  1.000000e+001  1.000000e+001  1.750000e+001
    endloop
  endfacet
  facet normal -1.404068e-001  9.270567e-001  3.476375e-001
    outer loop
      vertex  1.000000e+001  1.000000e+001  1.750000e+001
      vertex  3.877483e+001  1.339750e+001  2.006159e+001
      vertex  3.692379e+001  1.378381e+001  1.828378e+001
    endloop
  endfacet
  facet normal -1.409836e-001  9.868851e-001  7.862207e-002
    outer loop
      vertex  1.000000e+001  1.000000e+001  1.750000e+001
      vertex  3.692379e+001  1.378381e+001  1.828378e+001
      vertex  3.613914e+001  1.373416e+001  1.750000e+001
    endloop
  endfacet
  facet normal -1.375043e-001  9.625303e-001 -2.337264e-001
    outer loop
      vertex  1.000000e+001  1.000000e+001 -1.750000e+001
      vertex  3.613914e+001  1.373416e+001 -1.750000e+001
      vertex  1.003882e+001  9.453720e+000 -1.977253e+001
    endloop
  endfacet
  facet normal -1.534197e-001  9.839382e-001 -9.125862e-002
    outer loop
      vertex  1.003882e+001  9.453720e+000 -1.977253e+001
      vertex  3.613914e+001  1.373416e+001 -1.750000e+001
      vertex  3.692379e+001  1.378381e+001 -1.828378e+001
    endloop
  endfacet
  facet normal -1.312589e-001  9.315521e-001 -3.390897e-001
    outer loop
      vertex  1.003882e+001  9.453720e+000 -1.977253e+001
      vertex  3.692379e+001  1.378381e+001 -1.828378e+001
      vertex  3.877483e+001  1.339750e+001 -2.006159e+001
    endloop
  endfacet
  facet normal -1.097711e-001  7.522163e-001 -6.497084e-001
    outer loop
      vertex  1.003882e+001  9.453720e+000 -1.977253e+001
      vertex  3.877483e+001  1.339750e+001 -2.006159e+001
      vertex  1.014657e+001  7.937618e+000 -2.154604e+001
    endloop
  endfacet
  facet normal -1.031676e-001  7.258479e-001 -6.800746e-001
    outer loop
      vertex  1.014657e+001  7.937618e+000 -2.154604e+001
      vertex  3.877483e+001  1.339750e+001 -2.006159e+001
      vertex  4.049074e+001  1.220752e+001 -2.159197e+001
    endloop
  endfacet
  facet normal -5.467977e-002  3.786442e-001 -9.239258e-001
    outer loop
      vertex  1.014657e+001  7.937618e+000 -2.154604e+001
      vertex  4.049074e+001  1.220752e+001 -2.159197e+001
      vertex  1.029975e+001  5.782196e+000 -2.243844e+001
    endloop
  endfacet
  facet normal -7.445681e-002  4.660016e-001 -8.816454e-001
    outer loop
      vertex  1.029975e+001  5.782196e+000 -2.243844e+001
      vertex  4.049074e+001  1.220752e+001 -2.159197e+001
      vertex  4.118549e+001  1.126855e+001 -2.214694e+001
    endloop
  endfacet
  facet normal -4.472131e-003  7.814424e-002 -9.969320e-001
    outer loop
      vertex  1.029975e+001  5.782196e+000 -2.243844e+001
      vertex  4.118549e+001  1.126855e+001 -2.214694e+001
      vertex  1.035534e+001  5.000000e+000 -2.250000e+001
    endloop
  endfacet
  facet normal -2.657297e-002  1.860107e-001 -9.821883e-001
    outer loop
      vertex  1.035534e+001  5.000000e+000 -2.250000e+001
      vertex  4.118549e+001  1.126855e+001 -2.214694e+001
      vertex  4.179599e+001  9.491522e+000 -2.250000e+001
    endloop
  endfacet
  facet normal -1.318878e-016 -1.000000e+000  -0.000000e+000
    outer loop
      vertex  1.000000e+001  0.000000e+000  1.000000e+001
      vertex  1.000000e+001  0.000000e+000  2.250000e+001
      vertex  4.949237e+000  6.661338e-016  1.000000e+001
    endloop
  endfacet
  facet normal  0.000000e+000 -1.000000e+000 -5.329071e-017
    outer loop
      vertex  4.949237e+000  6.661338e-016  1.000000e+001
      vertex  1.000000e+001  0.000000e+000  2.250000e+001
      vertex  0.000000e+000  0.000000e+000  2.250000e+001
    endloop
  endfacet
  facet normal  1.345932e-016 -1.000000e+000  0.000000e+000
    outer loop
      vertex  4.949237e+000  6.661338e-016  1.000000e+001
      vertex  0.000000e+000  0.000000e+000  2.250000e+001
      vertex  4.949237e+000  6.661338e-016 -1.000000e+001
    endloop
  endfacet
  facet normal  1.345932e-016 -1.000000e+000  0.000000e+000
    outer loop
      vertex  4.949237e+000  6.661338e-016 -1.000000e+001
      vertex  0.000000e+000  0.000000e+000  2.250000e+001
      vertex  0.000000e+000  0.000000e+000 -2.250000e+001
    endloop
  endfacet
  facet normal -1.318878e-016 -1.000000e+000  1.055102e-016
    outer loop
      vertex  4.949237e+000  6.661338e-016 -1.000000e+001
      vertex  0.000000e+000  0.000000e+000 -2.250000e+001
      vertex  1.000000e+001  0.000000e+000 -1.000000e+001
    endloop
  endfacet
  facet normal  0.000000e+000 -1.000000e+000  -0.000000e+000
    outer loop
      vertex  1.000000e+001  0.000000e+000 -1.000000e+001
      vertex  0.000000e+000  0.000000e+000 -2.250000e+001
      vertex  1.000000e+001  0.000000e+000 -2.250000e+001
    endloop
  endfacet
  facet normal  9.238795e-001  -0.000000e+000  3.826835e-001
    outer loop
      vertex -1.150000e+001  1.000000e+001 -1.500000e+001
      vertex -1.150000e+001  3.000000e+000 -1.500000e+001
      vertex -1.106066e+001  1.000000e+001 -1.606066e+001
    endloop
  endfacet
  facet normal  9.238795e-001  0.000000e+000  3.826835e-001
    outer loop
      vertex -1.106066e+001  1.000000e+001 -1.606066e+001
      vertex -1.150000e+001  3.000000e+000 -1.500000e+001
      vertex -1.106066e+001  3.000000e+000 -1.606066e+001
    endloop
  endfacet
  facet normal  3.826840e-001  -0.000000e+000  9.238794e-001
    outer loop
      vertex -1.106066e+001  1.000000e+001 -1.606066e+001
      vertex -1.106066e+001  3.000000e+000 -1.606066e+001
      vertex -1.000000e+001  1.000000e+001 -1.650000e+001
    endloop
  endfacet
  facet normal  3.826840e-001  0.000000e+000  9.238794e-001
    outer loop
      vertex -1.000000e+001  1.000000e+001 -1.650000e+001
      vertex -1.106066e+001  3.000000e+000 -1.606066e+001
      vertex -1.000000e+001  3.000000e+000 -1.650000e+001
    endloop
  endfacet
  facet normal -3.826840e-001  0.000000e+000  9.238794e-001
    outer loop
      vertex -1.000000e+001  1.000000e+001 -1.650000e+001
      vertex -1.000000e+001  3.000000e+000 -1.650000e+001
      vertex -8.939340e+000  1.000000e+001 -1.606066e+001
    endloop
  endfacet
  facet normal -3.826840e-001  0.000000e+000  9.238794e-001
    outer loop
      vertex -8.939340e+000  1.000000e+001 -1.606066e+001
      vertex -1.000000e+001  3.000000e+000 -1.650000e+001
      vertex -8.939340e+000  3.000000e+000 -1.606066e+001
    endloop
  endfacet
  facet normal -9.238795e-001  0.000000e+000  3.826835e-001
    outer loop
      vertex -8.939340e+000  1.000000e+001 -1.606066e+001
      vertex -8.939340e+000  3.000000e+000 -1.606066e+001
      vertex -8.500000e+000  1.000000e+001 -1.500000e+001
    endloop
  endfacet
  facet normal -9.238795e-001  0.000000e+000  3.826835e-001
    outer loop
      vertex -8.500000e+000  1.000000e+001 -1.500000e+001
      vertex -8.939340e+000  3.000000e+000 -1.606066e+001
      vertex -8.500000e+000  3.000000e+000 -1.500000e+001
    endloop
  endfacet
  facet normal -9.238796e-001  0.000000e+000 -3.826832e-001
    outer loop
      vertex -8.500000e+000  1.000000e+001 -1.500000e+001
      vertex -8.500000e+000  3.000000e+000 -1.500000e+001
      vertex -8.939340e+000  1.000000e+001 -1.393934e+001
    endloop
  endfacet
  facet normal -9.238796e-001  -0.000000e+000 -3.826832e-001
    outer loop
      vertex -8.939340e+000  1.000000e+001 -1.393934e+001
      vertex -8.500000e+000  3.000000e+000 -1.500000e+001
      vertex -8.939340e+000  3.000000e+000 -1.393934e+001
    endloop
  endfacet
  facet normal -3.826832e-001  0.000000e+000 -9.238796e-001
    outer loop
      vertex -8.939340e+000  1.000000e+001 -1.393934e+001
      vertex -8.939340e+000  3.000000e+000 -1.393934e+001
      vertex -1.000000e+001  1.000000e+001 -1.350000e+001
    endloop
  endfacet
  facet normal -3.826832e-001  -0.000000e+000 -9.238796e-001
    outer loop
      vertex -1.000000e+001  1.000000e+001 -1.350000e+001
      vertex -8.939340e+000  3.000000e+000 -1.393934e+001
      vertex -1.000000e+001  3.000000e+000 -1.350000e+001
    endloop
  endfacet
  facet normal  3.826832e-001  0.000000e+000 -9.238796e-001
    outer loop
      vertex -1.000000e+001  1.000000e+001 -1.350000e+001
      vertex -1.000000e+001  3.000000e+000 -1.350000e+001
      vertex -1.106066e+001  1.000000e+001 -1.393934e+001
    endloop
  endfacet
  facet normal  3.826832e-001  0.000000e+000 -9.238796e-001
    outer loop
      vertex -1.106066e+001  1.000000e+001 -1.393934e+001
      vertex -1.000000e+001  3.000000e+000 -1.350000e+001
      vertex -1.106066e+001  3.000000e+000 -1.393934e+001
    endloop
  endfacet
  facet normal  9.238796e-001  0.000000e+000 -3.826832e-001
    outer loop
      vertex -1.106066e+001  1.000000e+001 -1.393934e+001
      vertex -1.106066e+001  3.000000e+000 -1.393934e+001
      vertex -1.150000e+001  1.000000e+001 -1.500000e+001
    endloop
  endfacet
  facet normal  9.238796e-001  0.000000e+000 -3.826832e-001
    outer loop
      vertex -1.150000e+001  1.000000e+001 -1.500000e+001
      vertex -1.106066e+001  3.000000e+000 -1.393934e+001
      vertex -1.150000e+001  3.000000e+000 -1.500000e+001
    endloop
  endfacet
  facet normal  9.238796e-001  -0.000000e+000  3.826832e-001
    outer loop
      vertex -1.150000e+001  1.000000e+001  1.500000e+001
      vertex -1.150000e+001  3.000000e+000  1.500000e+001
      vertex -1.106066e+001  1.000000e+001  1.393934e+001
    endloop
  endfacet
  facet normal  9.238796e-001  0.000000e+000  3.826832e-001
    outer loop
      vertex -1.106066e+001  1.000000e+001  1.393934e+001
      vertex -1.150000e+001  3.000000e+000  1.500000e+001
      vertex -1.106066e+001  3.000000e+000  1.393934e+001
    endloop
  endfacet
  facet normal  3.826832e-001  -0.000000e+000  9.238796e-001
    outer loop
      vertex -1.106066e+001  1.000000e+001  1.393934e+001
      vertex -1.106066e+001  3.000000e+000  1.393934e+001
      vertex -1.000000e+001  1.000000e+001  1.350000e+001
    endloop
  endfacet
  facet normal  3.826832e-001  0.000000e+000  9.238796e-001
    outer loop
      vertex -1.000000e+001  1.000000e+001  1.350000e+001
      vertex -1.106066e+001  3.000000e+000  1.393934e+001
      vertex -1.000000e+001  3.000000e+000  1.350000e+001
    endloop
  endfacet
  facet normal -3.826832e-001  0.000000e+000  9.238796e-001
    outer loop
      vertex -1.000000e+001  1.000000e+001  1.350000e+001
      vertex -1.000000e+001  3.000000e+000  1.350000e+001
      vertex -8.939340e+000  1.000000e+001  1.393934e+001
    endloop
  endfacet
  facet normal -3.826832e-001  0.000000e+000  9.238796e-001
    outer loop
      vertex -8.939340e+000  1.000000e+001  1.393934e+001
      vertex -1.000000e+001  3.000000e+000  1.350000e+001
      vertex -8.939340e+000  3.000000e+000  1.393934e+001
    endloop
  endfacet
  facet normal -9.238796e-001  0.000000e+000  3.826832e-001
    outer loop
      vertex -8.939340e+000  1.000000e+001  1.393934e+001
      vertex -8.939340e+000  3.000000e+000  1.393934e+001
      vertex -8.500000e+000  1.000000e+001  1.500000e+001
    endloop
  endfacet
  facet normal -9.238796e-001  0.000000e+000  3.826832e-001
    outer loop
      vertex -8.500000e+000  1.000000e+001  1.500000e+001
      vertex -8.939340e+000  3.000000e+000  1.393934e+001
      vertex -8.500000e+000  3.000000e+000  1.500000e+001
    endloop
  endfacet
  facet normal -9.238795e-001  0.000000e+000 -3.826835e-001
    outer loop
      vertex -8.500000e+000  1.000000e+001  1.500000e+001
      vertex -8.500000e+000  3.000000e+000  1.500000e+001
      vertex -8.939340e+000  1.000000e+001  1.606066e+001
    endloop
  endfacet
  facet normal -9.238795e-001  -0.000000e+000 -3.826835e-001
    outer loop
      vertex -8.939340e+000  1.000000e+001  1.606066e+001
      vertex -8.500000e+000  3.000000e+000  1.500000e+001
      vertex -8.939340e+000  3.000000e+000  1.606066e+001
    endloop
  endfacet
  facet normal -3.826840e-001  0.000000e+000 -9.238794e-001
    outer loop
      vertex -8.939340e+000  1.000000e+001  1.606066e+001
      vertex -8.939340e+000  3.000000e+000  1.606066e+001
      vertex -1.000000e+001  1.000000e+001  1.650000e+001
    endloop
  endfacet
  facet normal -3.826840e-001  -0.000000e+000 -9.238794e-001
    outer loop
      vertex -1.000000e+001  1.000000e+001  1.650000e+001
      vertex -8.939340e+000  3.000000e+000  1.606066e+001
      vertex -1.000000e+001  3.000000e+000  1.650000e+001
    endloop
  endfacet
  facet normal  3.826840e-001  0.000000e+000 -9.238794e-001
    outer loop
      vertex -1.000000e+001  1.000000e+001  1.650000e+001
      vertex -1.000000e+001  3.000000e+000  1.650000e+001
      vertex -1.106066e+001  1.000000e+001  1.606066e+001
    endloop
  endfacet
  facet normal  3.826840e-001  0.000000e+000 -9.238794e-001
    outer loop
      vertex -1.106066e+001  1.000000e+001  1.606066e+001
      vertex -1.000000e+001  3.000000e+000  1.650000e+001
      vertex -1.106066e+001  3.000000e+000  1.606066e+001
    endloop
  endfacet
  facet normal  9.238795e-001  0.000000e+000 -3.826835e-001
    outer loop
      vertex -1.106066e+001  1.000000e+001  1.606066e+001
      vertex -1.106066e+001  3.000000e+000  1.606066e+001
      vertex -1.150000e+001  1.000000e+001  1.500000e+001
    endloop
  endfacet
  facet normal  9.238795e-001  0.000000e+000 -3.826835e-001
    outer loop
      vertex -1.150000e+001  1.000000e+001  1.500000e+001
      vertex -1.106066e+001  3.000000e+000  1.606066e+001
      vertex -1.150000e+001  3.000000e+000  1.500000e+001
    endloop
  endfacet
  facet normal  9.238796e-001  -0.000000e+000  3.826833e-001
    outer loop
      vertex -1.150000e+001  1.000000e+001  0.000000e+000
      vertex -1.150000e+001  3.000000e+000  0.000000e+000
      vertex -1.106066e+001  1.000000e+001 -1.060660e+000
    endloop
  endfacet
  facet normal  9.238796e-001  0.000000e+000  3.826833e-001
    outer loop
      vertex -1.106066e+001  1.000000e+001 -1.060660e+000
      vertex -1.150000e+001  3.000000e+000  0.000000e+000
      vertex -1.106066e+001  3.000000e+000 -1.060660e+000
    endloop
  endfacet
  facet normal  3.826834e-001  -0.000000e+000  9.238796e-001
    outer loop
      vertex -1.106066e+001  1.000000e+001 -1.060660e+000
      vertex -1.106066e+001  3.000000e+000 -1.060660e+000
      vertex -1.000000e+001  1.000000e+001 -1.500000e+000
    endloop
  endfacet
  facet normal  3.826834e-001  0.000000e+000  9.238796e-001
    outer loop
      vertex -1.000000e+001  1.000000e+001 -1.500000e+000
      vertex -1.106066e+001  3.000000e+000 -1.060660e+000
      vertex -1.000000e+001  3.000000e+000 -1.500000e+000
    endloop
  endfacet
  facet normal -3.826834e-001  0.000000e+000  9.238796e-001
    outer loop
      vertex -1.000000e+001  1.000000e+001 -1.500000e+000
      vertex -1.000000e+001  3.000000e+000 -1.500000e+000
      vertex -8.939340e+000  1.000000e+001 -1.060660e+000
    endloop
  endfacet
  facet normal -3.826834e-001  0.000000e+000  9.238796e-001
    outer loop
      vertex -8.939340e+000  1.000000e+001 -1.060660e+000
      vertex -1.000000e+001  3.000000e+000 -1.500000e+000
      vertex -8.939340e+000  3.000000e+000 -1.060660e+000
    endloop
  endfacet
  facet normal -9.238796e-001  0.000000e+000  3.826833e-001
    outer loop
      vertex -8.939340e+000  1.000000e+001 -1.060660e+000
      vertex -8.939340e+000  3.000000e+000 -1.060660e+000
      vertex -8.500000e+000  1.000000e+001  1.836910e-016
    endloop
  endfacet
  facet normal -9.238796e-001  0.000000e+000  3.826833e-001
    outer loop
      vertex -8.500000e+000  1.000000e+001  1.836910e-016
      vertex -8.939340e+000  3.000000e+000 -1.060660e+000
      vertex -8.500000e+000  3.000000e+000  1.836910e-016
    endloop
  endfacet
  facet normal -9.238796e-001  0.000000e+000 -3.826833e-001
    outer loop
      vertex -8.500000e+000  1.000000e+001  1.836910e-016
      vertex -8.500000e+000  3.000000e+000  1.836910e-016
      vertex -8.939340e+000  1.000000e+001  1.060660e+000
    endloop
  endfacet
  facet normal -9.238796e-001  -0.000000e+000 -3.826833e-001
    outer loop
      vertex -8.939340e+000  1.000000e+001  1.060660e+000
      vertex -8.500000e+000  3.000000e+000  1.836910e-016
      vertex -8.939340e+000  3.000000e+000  1.060660e+000
    endloop
  endfacet
  facet normal -3.826834e-001  0.000000e+000 -9.238796e-001
    outer loop
      vertex -8.939340e+000  1.000000e+001  1.060660e+000
      vertex -8.939340e+000  3.000000e+000  1.060660e+000
      vertex -1.000000e+001  1.000000e+001  1.500000e+000
    endloop
  endfacet
  facet normal -3.826834e-001  -0.000000e+000 -9.238796e-001
    outer loop
      vertex -1.000000e+001  1.000000e+001  1.500000e+000
      vertex -8.939340e+000  3.000000e+000  1.060660e+000
      vertex -1.000000e+001  3.000000e+000  1.500000e+000
    endloop
  endfacet
  facet normal  3.826834e-001  0.000000e+000 -9.238796e-001
    outer loop
      vertex -1.000000e+001  1.000000e+001  1.500000e+000
      vertex -1.000000e+001  3.000000e+000  1.500000e+000
      vertex -1.106066e+001  1.000000e+001  1.060660e+000
    endloop
  endfacet
  facet normal  3.826834e-001  0.000000e+000 -9.238796e-001
    outer loop
      vertex -1.106066e+001  1.000000e+001  1.060660e+000
      vertex -1.000000e+001  3.000000e+000  1.500000e+000
      vertex -1.106066e+001  3.000000e+000  1.060660e+000
    endloop
  endfacet
  facet normal  9.238796e-001  0.000000e+000 -3.826833e-001
    outer loop
      vertex -1.106066e+001  1.000000e+001  1.060660e+000
      vertex -1.106066e+001  3.000000e+000  1.060660e+000
      vertex -1.150000e+001  1.000000e+001  0.000000e+000
    endloop
  endfacet
  facet normal  9.238796e-001  0.000000e+000 -3.826833e-001
    outer loop
      vertex -1.150000e+001  1.000000e+001  0.000000e+000
      vertex -1.106066e+001  3.000000e+000  1.060660e+000
      vertex -1.150000e+001  3.000000e+000  0.000000e+000
    endloop
  endfacet
  facet normal -1.000000e+000  1.552045e-015  0.000000e+000
    outer loop
      vertex  0.000000e+000  0.000000e+000  2.250000e+001
      vertex  4.656134e-015  3.000000e+000  2.250000e+001
      vertex  0.000000e+000  0.000000e+000 -2.250000e+001
    endloop
  endfacet
  facet normal -1.000000e+000  1.552045e-015  0.000000e+000
    outer loop
      vertex  0.000000e+000  0.000000e+000 -2.250000e+001
      vertex  4.656134e-015  3.000000e+000  2.250000e+001
      vertex  4.656134e-015  3.000000e+000 -2.250000e+001
    endloop
  endfacet
  facet normal -1.414213e-001  9.899495e-001  0.000000e+000
    outer loop
      vertex  1.777818e+001 -1.909188e+001  1.000000e+001
      vertex  2.767767e+001 -1.767767e+001  1.000000e+001
      vertex  1.777818e+001 -1.909188e+001 -1.000000e+001
    endloop
  endfacet
  facet normal -1.414213e-001  9.899495e-001  0.000000e+000
    outer loop
      vertex  1.777818e+001 -1.909188e+001 -1.000000e+001
      vertex  2.767767e+001 -1.767767e+001  1.000000e+001
      vertex  2.767767e+001 -1.767767e+001 -1.000000e+001
    endloop
  endfacet
  facet normal -9.899495e-001 -1.414213e-001  0.000000e+000
    outer loop
      vertex  1.862670e+001 -2.503158e+001  1.000000e+001
      vertex  1.862670e+001 -2.503158e+001 -1.000000e+001
      vertex  1.919239e+001 -2.899138e+001  1.000000e+001
    endloop
  endfacet
  facet normal -9.899495e-001 -1.414213e-001  -0.000000e+000
    outer loop
      vertex  1.919239e+001 -2.899138e+001  1.000000e+001
      vertex  1.862670e+001 -2.503158e+001 -1.000000e+001
      vertex  1.919239e+001 -2.899138e+001 -1.000000e+001
    endloop
  endfacet
  facet normal  9.899495e-001  1.414214e-001 -8.977544e-008
    outer loop
      vertex  1.777818e+001 -1.909188e+001 -1.000000e+001
      vertex  1.494975e+001  7.071068e-001 -1.000000e+001
      vertex  1.667509e+001 -1.137028e+001 -3.810512e+000
    endloop
  endfacet
  facet normal  9.899495e-001  1.414212e-001  1.400765e-007
    outer loop
      vertex  1.777818e+001 -1.909188e+001 -1.000000e+001
      vertex  1.667509e+001 -1.137028e+001 -3.810512e+000
      vertex  1.690285e+001 -1.296460e+001 -2.200000e+000
    endloop
  endfacet
  facet normal  9.899495e-001  1.414215e-001 -3.273493e-008
    outer loop
      vertex  1.777818e+001 -1.909188e+001 -1.000000e+001
      vertex  1.690285e+001 -1.296460e+001 -2.200000e+000
      vertex  1.698622e+001 -1.354817e+001 -3.369158e-015
    endloop
  endfacet
  facet normal  9.899495e-001  1.414214e-001  0.000000e+000
    outer loop
      vertex  1.777818e+001 -1.909188e+001 -1.000000e+001
      vertex  1.698622e+001 -1.354817e+001 -3.369158e-015
      vertex  1.777818e+001 -1.909188e+001  1.000000e+001
    endloop
  endfacet
  facet normal  9.899495e-001  1.414214e-001  0.000000e+000
    outer loop
      vertex  1.494975e+001  7.071068e-001 -1.000000e+001
      vertex  1.494975e+001  7.071068e-001  1.000000e+001
      vertex  1.574171e+001 -4.836610e+000  3.219647e-015
    endloop
  endfacet
  facet normal  9.899495e-001  1.414215e-001  3.491733e-008
    outer loop
      vertex  1.494975e+001  7.071068e-001 -1.000000e+001
      vertex  1.574171e+001 -4.836610e+000  3.219647e-015
      vertex  1.582507e+001 -5.420174e+000 -2.200000e+000
    endloop
  endfacet
  facet normal  9.899495e-001  1.414212e-001 -1.352561e-007
    outer loop
      vertex  1.494975e+001  7.071068e-001 -1.000000e+001
      vertex  1.582507e+001 -5.420174e+000 -2.200000e+000
      vertex  1.605283e+001 -7.014499e+000 -3.810512e+000
    endloop
  endfacet
  facet normal  9.899495e-001  1.414212e-001 -1.362406e-007
    outer loop
      vertex  1.494975e+001  7.071068e-001 -1.000000e+001
      vertex  1.605283e+001 -7.014499e+000 -3.810512e+000
      vertex  1.636396e+001 -9.192389e+000 -4.400000e+000
    endloop
  endfacet
  facet normal  9.899493e-001  1.414228e-001  2.657466e-006
    outer loop
      vertex  1.494975e+001  7.071068e-001 -1.000000e+001
      vertex  1.636396e+001 -9.192389e+000 -4.400000e+000
      vertex  1.667509e+001 -1.137028e+001 -3.810512e+000
    endloop
  endfacet
  facet normal  9.899493e-001  1.414228e-001 -2.657466e-006
    outer loop
      vertex  1.494975e+001  7.071068e-001  1.000000e+001
      vertex  1.667509e+001 -1.137028e+001  3.810512e+000
      vertex  1.636396e+001 -9.192389e+000  4.400000e+000
    endloop
  endfacet
  facet normal  9.899495e-001  1.414212e-001  1.362406e-007
    outer loop
      vertex  1.494975e+001  7.071068e-001  1.000000e+001
      vertex  1.636396e+001 -9.192389e+000  4.400000e+000
      vertex  1.605283e+001 -7.014499e+000  3.810512e+000
    endloop
  endfacet
  facet normal  9.899495e-001  1.414212e-001  1.352561e-007
    outer loop
      vertex  1.494975e+001  7.071068e-001  1.000000e+001
      vertex  1.605283e+001 -7.014499e+000  3.810512e+000
      vertex  1.582507e+001 -5.420174e+000  2.200000e+000
    endloop
  endfacet
  facet normal  9.899495e-001  1.414214e-001 -3.491732e-008
    outer loop
      vertex  1.494975e+001  7.071068e-001  1.000000e+001
      vertex  1.582507e+001 -5.420174e+000  2.200000e+000
      vertex  1.574171e+001 -4.836610e+000  3.219647e-015
    endloop
  endfacet
  facet normal  9.899495e-001  1.414215e-001  3.273493e-008
    outer loop
      vertex  1.777818e+001 -1.909188e+001  1.000000e+001
      vertex  1.698622e+001 -1.354817e+001 -3.369158e-015
      vertex  1.690285e+001 -1.296460e+001  2.200000e+000
    endloop
  endfacet
  facet normal  9.899495e-001  1.414212e-001 -1.400765e-007
    outer loop
      vertex  1.777818e+001 -1.909188e+001  1.000000e+001
      vertex  1.690285e+001 -1.296460e+001  2.200000e+000
      vertex  1.667509e+001 -1.137028e+001  3.810512e+000
    endloop
  endfacet
  facet normal  9.899495e-001  1.414214e-001  7.648344e-008
    outer loop
      vertex  1.777818e+001 -1.909188e+001  1.000000e+001
      vertex  1.667509e+001 -1.137028e+001  3.810512e+000
      vertex  1.494975e+001  7.071068e-001  1.000000e+001
    endloop
  endfacet
  facet normal  9.899495e-001  1.414213e-001  0.000000e+000
    outer loop
      vertex  2.767767e+001 -1.767767e+001  1.000000e+001
      vertex  2.909188e+001 -2.757716e+001  1.000000e+001
      vertex  2.767767e+001 -1.767767e+001 -1.000000e+001
    endloop
  endfacet
  facet normal  9.899495e-001  1.414213e-001  0.000000e+000
    outer loop
      vertex  2.767767e+001 -1.767767e+001 -1.000000e+001
      vertex  2.909188e+001 -2.757716e+001  1.000000e+001
      vertex  2.909188e+001 -2.757716e+001 -1.000000e+001
    endloop
  endfacet
  facet normal  1.414215e-001 -9.899495e-001  0.000000e+000
    outer loop
      vertex  2.909188e+001 -2.757716e+001  1.000000e+001
      vertex  1.919239e+001 -2.899138e+001  1.000000e+001
      vertex  2.909188e+001 -2.757716e+001 -1.000000e+001
    endloop
  endfacet
  facet normal  1.414215e-001 -9.899495e-001  0.000000e+000
    outer loop
      vertex  2.909188e+001 -2.757716e+001 -1.000000e+001
      vertex  1.919239e+001 -2.899138e+001  1.000000e+001
      vertex  1.919239e+001 -2.899138e+001 -1.000000e+001
    endloop
  endfacet
  facet normal -1.366025e-001  9.562178e-001 -2.588192e-001
    outer loop
      vertex  1.698622e+001 -1.354817e+001 -3.369158e-015
      vertex  7.086720e+000 -1.496238e+001 -3.369158e-015
      vertex  1.690285e+001 -1.296460e+001  2.200000e+000
    endloop
  endfacet
  facet normal -1.366025e-001  9.562178e-001 -2.588191e-001
    outer loop
      vertex  1.690285e+001 -1.296460e+001  2.200000e+000
      vertex  7.086720e+000 -1.496238e+001 -3.369158e-015
      vertex  7.003354e+000 -1.437882e+001  2.200000e+000
    endloop
  endfacet
  facet normal -9.999998e-002  7.000001e-001 -7.071067e-001
    outer loop
      vertex  1.690285e+001 -1.296460e+001  2.200000e+000
      vertex  7.003354e+000 -1.437882e+001  2.200000e+000
      vertex  1.667509e+001 -1.137028e+001  3.810512e+000
    endloop
  endfacet
  facet normal -9.999996e-002  7.000000e-001 -7.071067e-001
    outer loop
      vertex  1.667509e+001 -1.137028e+001  3.810512e+000
      vertex  7.003354e+000 -1.437882e+001  2.200000e+000
      vertex  6.775593e+000 -1.278449e+001  3.810512e+000
    endloop
  endfacet
  facet normal -3.660253e-002  2.562178e-001 -9.659259e-001
    outer loop
      vertex  1.667509e+001 -1.137028e+001  3.810512e+000
      vertex  6.775593e+000 -1.278449e+001  3.810512e+000
      vertex  1.636396e+001 -9.192389e+000  4.400000e+000
    endloop
  endfacet
  facet normal -3.660253e-002  2.562178e-001 -9.659258e-001
    outer loop
      vertex  1.636396e+001 -9.192389e+000  4.400000e+000
      vertex  6.775593e+000 -1.278449e+001  3.810512e+000
      vertex  6.464466e+000 -1.060660e+001  4.400000e+000
    endloop
  endfacet
  facet normal  3.660253e-002 -2.562178e-001 -9.659259e-001
    outer loop
      vertex  1.636396e+001 -9.192389e+000  4.400000e+000
      vertex  6.464466e+000 -1.060660e+001  4.400000e+000
      vertex  1.605283e+001 -7.014499e+000  3.810512e+000
    endloop
  endfacet
  facet normal  3.660255e-002 -2.562178e-001 -9.659258e-001
    outer loop
      vertex  1.605283e+001 -7.014499e+000  3.810512e+000
      vertex  6.464466e+000 -1.060660e+001  4.400000e+000
      vertex  6.153339e+000 -8.428713e+000  3.810512e+000
    endloop
  endfacet
  facet normal  1.000000e-001 -7.000000e-001 -7.071068e-001
    outer loop
      vertex  1.605283e+001 -7.014499e+000  3.810512e+000
      vertex  6.153339e+000 -8.428713e+000  3.810512e+000
      vertex  1.582507e+001 -5.420174e+000  2.200000e+000
    endloop
  endfacet
  facet normal  9.999996e-002 -6.999999e-001 -7.071068e-001
    outer loop
      vertex  1.582507e+001 -5.420174e+000  2.200000e+000
      vertex  6.153339e+000 -8.428713e+000  3.810512e+000
      vertex  5.925578e+000 -6.834387e+000  2.200000e+000
    endloop
  endfacet
  facet normal  1.366025e-001 -9.562177e-001 -2.588191e-001
    outer loop
      vertex  1.582507e+001 -5.420174e+000  2.200000e+000
      vertex  5.925578e+000 -6.834387e+000  2.200000e+000
      vertex  1.574171e+001 -4.836610e+000  3.219647e-015
    endloop
  endfacet
  facet normal  1.366026e-001 -9.562178e-001 -2.588189e-001
    outer loop
      vertex  1.574171e+001 -4.836610e+000  3.219647e-015
      vertex  5.925578e+000 -6.834387e+000  2.200000e+000
      vertex  5.842212e+000 -6.250824e+000  3.219647e-015
    endloop
  endfacet
  facet normal  1.366026e-001 -9.562177e-001  2.588192e-001
    outer loop
      vertex  1.574171e+001 -4.836610e+000  3.219647e-015
      vertex  5.842212e+000 -6.250824e+000  3.219647e-015
      vertex  1.582507e+001 -5.420174e+000 -2.200000e+000
    endloop
  endfacet
  facet normal  1.366025e-001 -9.562178e-001  2.588189e-001
    outer loop
      vertex  1.582507e+001 -5.420174e+000 -2.200000e+000
      vertex  5.842212e+000 -6.250824e+000  3.219647e-015
      vertex  5.925578e+000 -6.834387e+000 -2.200000e+000
    endloop
  endfacet
  facet normal  9.999998e-002 -7.000001e-001  7.071067e-001
    outer loop
      vertex  1.582507e+001 -5.420174e+000 -2.200000e+000
      vertex  5.925578e+000 -6.834387e+000 -2.200000e+000
      vertex  1.605283e+001 -7.014499e+000 -3.810512e+000
    endloop
  endfacet
  facet normal  1.000000e-001 -6.999999e-001  7.071069e-001
    outer loop
      vertex  1.605283e+001 -7.014499e+000 -3.810512e+000
      vertex  5.925578e+000 -6.834387e+000 -2.200000e+000
      vertex  6.153339e+000 -8.428713e+000 -3.810512e+000
    endloop
  endfacet
  facet normal  3.660254e-002 -2.562178e-001  9.659259e-001
    outer loop
      vertex  1.605283e+001 -7.014499e+000 -3.810512e+000
      vertex  6.153339e+000 -8.428713e+000 -3.810512e+000
      vertex  1.636396e+001 -9.192389e+000 -4.400000e+000
    endloop
  endfacet
  facet normal  3.660253e-002 -2.562178e-001  9.659258e-001
    outer loop
      vertex  1.636396e+001 -9.192389e+000 -4.400000e+000
      vertex  6.153339e+000 -8.428713e+000 -3.810512e+000
      vertex  6.464466e+000 -1.060660e+001 -4.400000e+000
    endloop
  endfacet
  facet normal -3.660253e-002  2.562178e-001  9.659258e-001
    outer loop
      vertex  1.636396e+001 -9.192389e+000 -4.400000e+000
      vertex  6.464466e+000 -1.060660e+001 -4.400000e+000
      vertex  1.667509e+001 -1.137028e+001 -3.810512e+000
    endloop
  endfacet
  facet normal -3.660253e-002  2.562178e-001  9.659258e-001
    outer loop
      vertex  1.667509e+001 -1.137028e+001 -3.810512e+000
      vertex  6.464466e+000 -1.060660e+001 -4.400000e+000
      vertex  6.775593e+000 -1.278449e+001 -3.810512e+000
    endloop
  endfacet
  facet normal -9.999997e-002  7.000001e-001  7.071067e-001
    outer loop
      vertex  1.667509e+001 -1.137028e+001 -3.810512e+000
      vertex  6.775593e+000 -1.278449e+001 -3.810512e+000
      vertex  1.690285e+001 -1.296460e+001 -2.200000e+000
    endloop
  endfacet
  facet normal -9.999997e-002  7.000000e-001  7.071067e-001
    outer loop
      vertex  1.690285e+001 -1.296460e+001 -2.200000e+000
      vertex  6.775593e+000 -1.278449e+001 -3.810512e+000
      vertex  7.003354e+000 -1.437882e+001 -2.200000e+000
    endloop
  endfacet
  facet normal -1.366025e-001  9.562177e-001  2.588191e-001
    outer loop
      vertex  1.690285e+001 -1.296460e+001 -2.200000e+000
      vertex  7.003354e+000 -1.437882e+001 -2.200000e+000
      vertex  1.698622e+001 -1.354817e+001 -3.369158e-015
    endloop
  endfacet
  facet normal -1.366025e-001  9.562178e-001  2.588191e-001
    outer loop
      vertex  1.698622e+001 -1.354817e+001 -3.369158e-015
      vertex  7.003354e+000 -1.437882e+001 -2.200000e+000
      vertex  7.086720e+000 -1.496238e+001 -3.369158e-015
    endloop
  endfacet
  facet normal  1.414214e-001 -9.899496e-001  0.000000e+000
    outer loop
      vertex  1.000000e+001  0.000000e+000 -1.000000e+001
      vertex  1.000000e+001  0.000000e+000 -2.250000e+001
      vertex  1.494975e+001  7.071068e-001 -1.000000e+001
    endloop
  endfacet
  facet normal  1.414213e-001 -9.899494e-001  3.269009e-009
    outer loop
      vertex  1.494975e+001  7.071068e-001 -1.000000e+001
      vertex  1.000000e+001  0.000000e+000 -2.250000e+001
      vertex  4.248888e+001  4.641269e+000 -2.250000e+001
    endloop
  endfacet
  facet normal  1.414214e-001 -9.899495e-001  0.000000e+000
    outer loop
      vertex  1.494975e+001  7.071068e-001 -1.000000e+001
      vertex  4.248888e+001  4.641269e+000 -2.250000e+001
      vertex  1.494975e+001  7.071068e-001  1.000000e+001
    endloop
  endfacet
  facet normal  1.414214e-001 -9.899495e-001  0.000000e+000
    outer loop
      vertex  1.494975e+001  7.071068e-001  1.000000e+001
      vertex  4.248888e+001  4.641269e+000 -2.250000e+001
      vertex  4.248888e+001  4.641269e+000  2.250000e+001
    endloop
  endfacet
  facet normal  1.414214e-001 -9.899496e-001 -4.772032e-008
    outer loop
      vertex  1.494975e+001  7.071068e-001  1.000000e+001
      vertex  4.248888e+001  4.641269e+000  2.250000e+001
      vertex  1.000000e+001  0.000000e+000  1.000000e+001
    endloop
  endfacet
  facet normal  1.414213e-001 -9.899494e-001  0.000000e+000
    outer loop
      vertex  1.000000e+001  0.000000e+000  1.000000e+001
      vertex  4.248888e+001  4.641269e+000  2.250000e+001
      vertex  1.000000e+001  0.000000e+000  2.250000e+001
    endloop
  endfacet
endsolid CATIA STL
