solid CATIA STL
  facet normal  9.659258e-001  0.000000e+000 -2.588193e-001
    outer loop
      vertex  1.500000e+001  2.300000e+002  1.000000e+000
      vertex  1.500000e+001  1.100000e+001  1.000000e+000
      vertex  1.459808e+001  2.300000e+002 -5.000000e-001
    endloop
  endfacet
  facet normal  9.708537e-001  1.401829e-004 -2.396730e-001
    outer loop
      vertex  1.459808e+001  2.300000e+002 -5.000000e-001
      vertex  1.500000e+001  1.100000e+001  1.000000e+000
      vertex  1.465572e+001  9.604597e+000 -3.954031e-001
    endloop
  endfacet
  facet normal  7.071069e-001 -1.506388e-004 -7.071067e-001
    outer loop
      vertex  1.459808e+001  2.300000e+002 -5.000000e-001
      vertex  1.465572e+001  9.604597e+000 -3.954031e-001
      vertex  1.350000e+001  2.300000e+002 -1.598076e+000
    endloop
  endfacet
  facet normal  7.548199e-001  3.788156e-004 -6.559320e-001
    outer loop
      vertex  1.350000e+001  2.300000e+002 -1.598076e+000
      vertex  1.465572e+001  9.604597e+000 -3.954031e-001
      vertex  1.375364e+001  8.565921e+000 -1.434080e+000
    endloop
  endfacet
  facet normal  2.588190e-001 -4.189124e-004 -9.659258e-001
    outer loop
      vertex  1.350000e+001  2.300000e+002 -1.598076e+000
      vertex  1.375364e+001  8.565921e+000 -1.434080e+000
      vertex  1.200000e+001  2.300000e+002 -2.000000e+000
    endloop
  endfacet
  facet normal  4.517858e-001  1.297894e-003 -8.921254e-001
    outer loop
      vertex  1.200000e+001  2.300000e+002 -2.000000e+000
      vertex  1.375364e+001  8.565921e+000 -1.434080e+000
      vertex  1.292770e+001  8.147040e+000 -1.852959e+000
    endloop
  endfacet
  facet normal  1.565464e-001  0.000000e+000 -9.876706e-001
    outer loop
      vertex  1.200000e+001  2.300000e+002 -2.000000e+000
      vertex  1.292770e+001  8.147040e+000 -1.852959e+000
      vertex  1.200000e+001  8.000000e+000 -2.000000e+000
    endloop
  endfacet
  facet normal -2.588191e-001  0.000000e+000 -9.659259e-001
    outer loop
      vertex -1.200000e+001  2.300000e+002 -2.000000e+000
      vertex -1.200000e+001  8.000000e+000 -2.000000e+000
      vertex -1.350000e+001  2.300000e+002 -1.598076e+000
    endloop
  endfacet
  facet normal -1.564333e-001  7.311954e-004 -9.876883e-001
    outer loop
      vertex -1.350000e+001  2.300000e+002 -1.598076e+000
      vertex -1.200000e+001  8.000000e+000 -2.000000e+000
      vertex -1.292770e+001  8.147040e+000 -1.852959e+000
    endloop
  endfacet
  facet normal -4.523672e-001 -1.423382e-004 -8.918318e-001
    outer loop
      vertex -1.350000e+001  2.300000e+002 -1.598076e+000
      vertex -1.292770e+001  8.147040e+000 -1.852959e+000
      vertex -1.375364e+001  8.565921e+000 -1.434080e+000
    endloop
  endfacet
  facet normal -7.071069e-001  2.862623e-004 -7.071066e-001
    outer loop
      vertex -1.350000e+001  2.300000e+002 -1.598076e+000
      vertex -1.375364e+001  8.565921e+000 -1.434080e+000
      vertex -1.459808e+001  2.300000e+002 -5.000000e-001
    endloop
  endfacet
  facet normal -7.550638e-001 -1.136755e-004 -6.556513e-001
    outer loop
      vertex -1.459808e+001  2.300000e+002 -5.000000e-001
      vertex -1.375364e+001  8.565921e+000 -1.434080e+000
      vertex -1.465572e+001  9.604597e+000 -3.954031e-001
    endloop
  endfacet
  facet normal -9.659258e-001  1.298074e-004 -2.588193e-001
    outer loop
      vertex -1.459808e+001  2.300000e+002 -5.000000e-001
      vertex -1.465572e+001  9.604597e+000 -3.954031e-001
      vertex -1.500000e+001  2.300000e+002  1.000000e+000
    endloop
  endfacet
  facet normal -9.708862e-001  -0.000000e+000 -2.395408e-001
    outer loop
      vertex -1.500000e+001  2.300000e+002  1.000000e+000
      vertex -1.465572e+001  9.604597e+000 -3.954031e-001
      vertex -1.500000e+001  1.100000e+001  1.000000e+000
    endloop
  endfacet
  facet normal  -0.000000e+000  0.000000e+000 -1.000000e+000
    outer loop
      vertex -1.200000e+001  2.300000e+002 -2.000000e+000
      vertex  1.200000e+001  2.300000e+002 -2.000000e+000
      vertex -1.200000e+001  8.000000e+000 -2.000000e+000
    endloop
  endfacet
  facet normal  0.000000e+000  0.000000e+000 -1.000000e+000
    outer loop
      vertex -1.200000e+001  8.000000e+000 -2.000000e+000
      vertex  1.200000e+001  2.300000e+002 -2.000000e+000
      vertex  1.200000e+001  8.000000e+000 -2.000000e+000
    endloop
  endfacet
  facet normal -9.949667e-001  0.000000e+000  1.002058e-001
    outer loop
      vertex  3.350000e+000  1.500000e+001  5.000000e+000
      vertex  3.350000e+000  2.300000e+002  5.000000e+000
      vertex  3.282724e+000  1.433200e+001  4.331999e+000
    endloop
  endfacet
  facet normal -9.510563e-001 -6.604602e-004  3.090169e-001
    outer loop
      vertex  3.282724e+000  1.433200e+001  4.331999e+000
      vertex  3.350000e+000  2.300000e+002  5.000000e+000
      vertex  2.710207e+000  2.300000e+002  3.030919e+000
    endloop
  endfacet
  facet normal -9.078281e-001  1.198657e-004  4.193425e-001
    outer loop
      vertex  3.282724e+000  1.433200e+001  4.331999e+000
      vertex  2.710207e+000  2.300000e+002  3.030919e+000
      vertex  2.636356e+000  1.293309e+001  2.933088e+000
    endloop
  endfacet
  facet normal -6.431139e-001 -1.263293e-004  7.657705e-001
    outer loop
      vertex  2.636356e+000  1.293309e+001  2.933088e+000
      vertex  2.710207e+000  2.300000e+002  3.030919e+000
      vertex  1.580710e+000  1.204638e+001  2.046382e+000
    endloop
  endfacet
  facet normal -5.877851e-001 -6.084106e-004  8.090169e-001
    outer loop
      vertex  1.580710e+000  1.204638e+001  2.046382e+000
      vertex  2.710207e+000  2.300000e+002  3.030919e+000
      vertex  1.035207e+000  2.300000e+002  1.813961e+000
    endloop
  endfacet
  facet normal -3.810384e-001  3.225545e-005  9.245593e-001
    outer loop
      vertex  1.580710e+000  1.204638e+001  2.046382e+000
      vertex  1.035207e+000  2.300000e+002  1.813961e+000
      vertex  9.592938e-001  1.179029e+001  1.790287e+000
    endloop
  endfacet
  facet normal -1.184074e-001 -6.653269e-005  9.929651e-001
    outer loop
      vertex  9.592938e-001  1.179029e+001  1.790287e+000
      vertex  1.035207e+000  2.300000e+002  1.813961e+000
      vertex -1.775819e-001  1.165471e+001  1.654710e+000
    endloop
  endfacet
  facet normal  0.000000e+000 -7.293520e-004  9.999998e-001
    outer loop
      vertex -1.775819e-001  1.165471e+001  1.654710e+000
      vertex  1.035207e+000  2.300000e+002  1.813961e+000
      vertex -1.035207e+000  2.300000e+002  1.813961e+000
    endloop
  endfacet
  facet normal  1.997727e-001  7.002495e-005  9.798422e-001
    outer loop
      vertex -1.775819e-001  1.165471e+001  1.654710e+000
      vertex -1.035207e+000  2.300000e+002  1.813961e+000
      vertex -1.146157e+000  1.185217e+001  1.852172e+000
    endloop
  endfacet
  facet normal  4.900956e-001 -9.658135e-005  8.716686e-001
    outer loop
      vertex -1.146157e+000  1.185217e+001  1.852172e+000
      vertex -1.035207e+000  2.300000e+002  1.813961e+000
      vertex -2.094201e+000  1.238527e+001  2.385268e+000
    endloop
  endfacet
  facet normal  5.877851e-001 -7.364551e-004  8.090168e-001
    outer loop
      vertex -2.094201e+000  1.238527e+001  2.385268e+000
      vertex -1.035207e+000  2.300000e+002  1.813961e+000
      vertex -2.710207e+000  2.300000e+002  3.030919e+000
    endloop
  endfacet
  facet normal  8.093133e-001  5.482214e-004  5.873771e-001
    outer loop
      vertex -2.094201e+000  1.238527e+001  2.385268e+000
      vertex -2.710207e+000  2.300000e+002  3.030919e+000
      vertex -3.134045e+000  1.381667e+001  3.816674e+000
    endloop
  endfacet
  facet normal  9.510565e-001  -0.000000e+000  3.090169e-001
    outer loop
      vertex -3.350000e+000  2.300000e+002  5.000000e+000
      vertex -3.350000e+000  1.500000e+001  5.000000e+000
      vertex -2.710207e+000  2.300000e+002  3.030919e+000
    endloop
  endfacet
  facet normal  9.835259e-001 -1.271239e-003  1.807628e-001
    outer loop
      vertex -2.710207e+000  2.300000e+002  3.030919e+000
      vertex -3.350000e+000  1.500000e+001  5.000000e+000
      vertex -3.134045e+000  1.381667e+001  3.816674e+000
    endloop
  endfacet
  facet normal  9.656906e-001  2.206897e-002  2.587561e-001
    outer loop
      vertex  1.500000e+001  4.000000e+001  5.000000e+000
      vertex  1.433013e+001  4.000000e+001  7.500000e+000
      vertex  1.433013e+001  3.449627e+001  7.969406e+000
    endloop
  endfacet
  facet normal  9.627203e-001  2.798304e-002  2.690476e-001
    outer loop
      vertex  1.500000e+001  4.000000e+001  5.000000e+000
      vertex  1.433013e+001  3.449627e+001  7.969406e+000
      vertex  1.500000e+001  3.279737e+001  5.749129e+000
    endloop
  endfacet
  facet normal  2.967804e-001  1.013704e-001  9.495500e-001
    outer loop
      vertex  1.000000e+001  4.000000e+001  1.000000e+001
      vertex  1.000000e+001  3.366680e+001  1.067611e+001
      vertex  1.250000e+001  3.480619e+001  9.773100e+000
    endloop
  endfacet
  facet normal  2.579453e-001  8.210445e-002  9.626646e-001
    outer loop
      vertex  1.000000e+001  4.000000e+001  1.000000e+001
      vertex  1.250000e+001  3.480619e+001  9.773100e+000
      vertex  1.250000e+001  4.000000e+001  9.330127e+000
    endloop
  endfacet
  facet normal  1.026300e-001  7.439231e-001  6.603375e-001
    outer loop
      vertex  1.000000e+001  1.744521e+001  2.021917e+001
      vertex  1.101585e+001  1.750015e+001  1.999938e+001
      vertex  1.250000e+001  2.069921e+001  1.616472e+001
    endloop
  endfacet
  facet normal  2.967804e-001  6.470569e-001  7.023095e-001
    outer loop
      vertex  1.000000e+001  1.744521e+001  2.021917e+001
      vertex  1.250000e+001  2.069921e+001  1.616472e+001
      vertex  1.000000e+001  2.212939e+001  1.590350e+001
    endloop
  endfacet
  facet normal  9.687321e-001  1.023940e-001  2.259945e-001
    outer loop
      vertex  1.500000e+001  2.590307e+001  7.964449e+000
      vertex  1.433013e+001  2.915153e+001  9.364063e+000
      vertex  1.433013e+001  2.412016e+001  1.164369e+001
    endloop
  endfacet
  facet normal  3.159229e-001  4.810884e-001  8.177693e-001
    outer loop
      vertex  1.250000e+001  2.501438e+001  1.324048e+001
      vertex  1.000000e+001  2.761907e+001  1.267396e+001
      vertex  1.000000e+001  2.212939e+001  1.590350e+001
    endloop
  endfacet
  facet normal  2.282408e-001  5.461810e-001  8.059729e-001
    outer loop
      vertex  1.250000e+001  2.501438e+001  1.324048e+001
      vertex  1.000000e+001  2.212939e+001  1.590350e+001
      vertex  1.250000e+001  2.069921e+001  1.616472e+001
    endloop
  endfacet
  facet normal  9.678428e-001  6.351423e-002  2.434055e-001
    outer loop
      vertex  1.500000e+001  3.279737e+001  5.749129e+000
      vertex  1.433013e+001  3.449627e+001  7.969406e+000
      vertex  1.433013e+001  2.915153e+001  9.364063e+000
    endloop
  endfacet
  facet normal  9.609523e-001  8.465271e-002  2.634479e-001
    outer loop
      vertex  1.500000e+001  3.279737e+001  5.749129e+000
      vertex  1.433013e+001  2.915153e+001  9.364063e+000
      vertex  1.500000e+001  2.590307e+001  7.964449e+000
    endloop
  endfacet
  facet normal  3.159229e-001  2.976097e-001  9.009002e-001
    outer loop
      vertex  1.250000e+001  2.976242e+001  1.108922e+001
      vertex  1.000000e+001  3.366680e+001  1.067611e+001
      vertex  1.000000e+001  2.761907e+001  1.267396e+001
    endloop
  endfacet
  facet normal  2.181852e-001  4.027549e-001  8.889228e-001
    outer loop
      vertex  1.250000e+001  2.976242e+001  1.108922e+001
      vertex  1.000000e+001  2.761907e+001  1.267396e+001
      vertex  1.250000e+001  2.501438e+001  1.324048e+001
    endloop
  endfacet
  facet normal  2.282407e-001  2.458212e-001  9.420605e-001
    outer loop
      vertex  1.250000e+001  3.480619e+001  9.773100e+000
      vertex  1.000000e+001  3.366680e+001  1.067611e+001
      vertex  1.250000e+001  2.976242e+001  1.108922e+001
    endloop
  endfacet
  facet normal  3.593822e-001  6.434453e-001  6.758865e-001
    outer loop
      vertex  1.250000e+001  2.069921e+001  1.616472e+001
      vertex  1.101585e+001  1.750015e+001  1.999938e+001
      vertex  1.218701e+001  1.770446e+001  1.918215e+001
    endloop
  endfacet
  facet normal  6.023431e-001  5.344507e-001  5.929126e-001
    outer loop
      vertex  1.250000e+001  2.069921e+001  1.616472e+001
      vertex  1.218701e+001  1.770446e+001  1.918215e+001
      vertex  1.338860e+001  1.809842e+001  1.760633e+001
    endloop
  endfacet
  facet normal  9.605342e-001  1.377725e-001  2.416459e-001
    outer loop
      vertex  1.500000e+001  1.961222e+001  1.155113e+001
      vertex  1.500000e+001  2.590307e+001  7.964449e+000
      vertex  1.433013e+001  2.412016e+001  1.164369e+001
    endloop
  endfacet
  facet normal  9.685035e-001  1.396860e-001  2.061279e-001
    outer loop
      vertex  1.500000e+001  1.961222e+001  1.155113e+001
      vertex  1.433013e+001  2.412016e+001  1.164369e+001
      vertex  1.433013e+001  1.954750e+001  1.474242e+001
    endloop
  endfacet
  facet normal  9.615685e-001  1.820515e-001  2.055314e-001
    outer loop
      vertex  1.500000e+001  1.961222e+001  1.155113e+001
      vertex  1.433013e+001  1.954750e+001  1.474242e+001
      vertex  1.434760e+001  1.863213e+001  1.547149e+001
    endloop
  endfacet
  facet normal  7.341563e-001  5.033963e-001  4.556390e-001
    outer loop
      vertex  1.338860e+001  1.809842e+001  1.760633e+001
      vertex  1.434760e+001  1.863213e+001  1.547149e+001
      vertex  1.250000e+001  2.069921e+001  1.616472e+001
    endloop
  endfacet
  facet normal  7.070985e-001  4.487476e-001  5.464771e-001
    outer loop
      vertex  1.250000e+001  2.069921e+001  1.616472e+001
      vertex  1.434760e+001  1.863213e+001  1.547149e+001
      vertex  1.433013e+001  1.954750e+001  1.474242e+001
    endloop
  endfacet
  facet normal  7.058245e-001  3.973967e-001  5.864193e-001
    outer loop
      vertex  1.250000e+001  2.069921e+001  1.616472e+001
      vertex  1.433013e+001  1.954750e+001  1.474242e+001
      vertex  1.250000e+001  2.501438e+001  1.324048e+001
    endloop
  endfacet
  facet normal  7.058246e-001  3.973968e-001  5.864193e-001
    outer loop
      vertex  1.250000e+001  2.501438e+001  1.324048e+001
      vertex  1.433013e+001  1.954750e+001  1.474242e+001
      vertex  1.433013e+001  2.412016e+001  1.164369e+001
    endloop
  endfacet
  facet normal  7.058245e-001  2.923497e-001  6.452467e-001
    outer loop
      vertex  1.250000e+001  2.501438e+001  1.324048e+001
      vertex  1.433013e+001  2.412016e+001  1.164369e+001
      vertex  1.250000e+001  2.976242e+001  1.108922e+001
    endloop
  endfacet
  facet normal  7.058243e-001  2.923496e-001  6.452470e-001
    outer loop
      vertex  1.250000e+001  2.976242e+001  1.108922e+001
      vertex  1.433013e+001  2.412016e+001  1.164369e+001
      vertex  1.433013e+001  2.915153e+001  9.364063e+000
    endloop
  endfacet
  facet normal  7.058244e-001  1.788575e-001  6.854357e-001
    outer loop
      vertex  1.250000e+001  2.976242e+001  1.108922e+001
      vertex  1.433013e+001  2.915153e+001  9.364063e+000
      vertex  1.250000e+001  3.480619e+001  9.773100e+000
    endloop
  endfacet
  facet normal  7.058244e-001  1.788575e-001  6.854357e-001
    outer loop
      vertex  1.250000e+001  3.480619e+001  9.773100e+000
      vertex  1.433013e+001  2.915153e+001  9.364063e+000
      vertex  1.433013e+001  3.449627e+001  7.969406e+000
    endloop
  endfacet
  facet normal  7.058244e-001  6.019887e-002  7.058243e-001
    outer loop
      vertex  1.250000e+001  3.480619e+001  9.773100e+000
      vertex  1.433013e+001  3.449627e+001  7.969406e+000
      vertex  1.250000e+001  4.000000e+001  9.330127e+000
    endloop
  endfacet
  facet normal  7.058244e-001  6.019883e-002  7.058244e-001
    outer loop
      vertex  1.250000e+001  4.000000e+001  9.330127e+000
      vertex  1.433013e+001  3.449627e+001  7.969406e+000
      vertex  1.433013e+001  4.000000e+001  7.500000e+000
    endloop
  endfacet
  facet normal  9.659258e-001  0.000000e+000  2.588191e-001
    outer loop
      vertex  1.500000e+001  4.000000e+001  5.000000e+000
      vertex  1.500000e+001  2.300000e+002  5.000000e+000
      vertex  1.433013e+001  4.000000e+001  7.500000e+000
    endloop
  endfacet
  facet normal  9.925218e-001 -1.893325e-003  1.220528e-001
    outer loop
      vertex  1.433013e+001  4.000000e+001  7.500000e+000
      vertex  1.500000e+001  2.300000e+002  5.000000e+000
      vertex  1.486000e+001  2.323498e+002  6.174889e+000
    endloop
  endfacet
  facet normal  9.247777e-001  7.380887e-005  3.805080e-001
    outer loop
      vertex  1.433013e+001  4.000000e+001  7.500000e+000
      vertex  1.486000e+001  2.323498e+002  6.174889e+000
      vertex  1.427883e+001  2.351736e+002  7.586822e+000
    endloop
  endfacet
  facet normal  7.071068e-001 -1.286914e-004  7.071068e-001
    outer loop
      vertex  1.433013e+001  4.000000e+001  7.500000e+000
      vertex  1.427883e+001  2.351736e+002  7.586822e+000
      vertex  1.250000e+001  4.000000e+001  9.330127e+000
    endloop
  endfacet
  facet normal  7.672268e-001 -1.263753e-003  6.413746e-001
    outer loop
      vertex  1.250000e+001  4.000000e+001  9.330127e+000
      vertex  1.427883e+001  2.351736e+002  7.586822e+000
      vertex  1.331893e+001  2.374792e+002  8.739611e+000
    endloop
  endfacet
  facet normal  5.573283e-001  1.715957e-004  8.302922e-001
    outer loop
      vertex  1.250000e+001  4.000000e+001  9.330127e+000
      vertex  1.331893e+001  2.374792e+002  8.739611e+000
      vertex  1.220215e+001  2.389779e+002  9.488936e+000
    endloop
  endfacet
  facet normal  2.588191e-001 -3.835008e-004  9.659258e-001
    outer loop
      vertex  1.250000e+001  4.000000e+001  9.330127e+000
      vertex  1.220215e+001  2.389779e+002  9.488936e+000
      vertex  1.000000e+001  4.000000e+001  1.000000e+001
    endloop
  endfacet
  facet normal  3.259828e-001 -1.179604e-003  9.453750e-001
    outer loop
      vertex  1.000000e+001  4.000000e+001  1.000000e+001
      vertex  1.220215e+001  2.389779e+002  9.488936e+000
      vertex  1.104018e+001  2.397812e+002  9.890605e+000
    endloop
  endfacet
  facet normal  1.045921e-001  0.000000e+000  9.945151e-001
    outer loop
      vertex  1.000000e+001  4.000000e+001  1.000000e+001
      vertex  1.104018e+001  2.397812e+002  9.890605e+000
      vertex  1.000000e+001  2.400000e+002  1.000000e+001
    endloop
  endfacet
  facet normal -5.573283e-001  1.715957e-004  8.302922e-001
    outer loop
      vertex -1.250000e+001  4.000000e+001  9.330127e+000
      vertex -1.220215e+001  2.389779e+002  9.488936e+000
      vertex -1.331893e+001  2.374792e+002  8.739611e+000
    endloop
  endfacet
  facet normal -2.588191e-001  0.000000e+000  9.659258e-001
    outer loop
      vertex -1.000000e+001  4.000000e+001  1.000000e+001
      vertex -1.000000e+001  2.400000e+002  1.000000e+001
      vertex -1.250000e+001  4.000000e+001  9.330127e+000
    endloop
  endfacet
  facet normal -1.041697e-001 -2.029015e-003  9.945575e-001
    outer loop
      vertex -1.250000e+001  4.000000e+001  9.330127e+000
      vertex -1.000000e+001  2.400000e+002  1.000000e+001
      vertex -1.104018e+001  2.397812e+002  9.890605e+000
    endloop
  endfacet
  facet normal -3.265476e-001 -2.655597e-004  9.451808e-001
    outer loop
      vertex -1.250000e+001  4.000000e+001  9.330127e+000
      vertex -1.104018e+001  2.397812e+002  9.890605e+000
      vertex -1.220215e+001  2.389779e+002  9.488936e+000
    endloop
  endfacet
  facet normal -7.071065e-001 -8.178824e-004  7.071065e-001
    outer loop
      vertex -1.250000e+001  4.000000e+001  9.330127e+000
      vertex -1.331893e+001  2.374792e+002  8.739611e+000
      vertex -1.433013e+001  4.000000e+001  7.500000e+000
    endloop
  endfacet
  facet normal -7.683903e-001 -8.272274e-005  6.399814e-001
    outer loop
      vertex -1.433013e+001  4.000000e+001  7.500000e+000
      vertex -1.331893e+001  2.374792e+002  8.739611e+000
      vertex -1.427883e+001  2.351736e+002  7.586822e+000
    endloop
  endfacet
  facet normal -9.659258e-001  1.387573e-004  2.588192e-001
    outer loop
      vertex -1.433013e+001  4.000000e+001  7.500000e+000
      vertex -1.427883e+001  2.351736e+002  7.586822e+000
      vertex -1.500000e+001  4.000000e+001  5.000000e+000
    endloop
  endfacet
  facet normal -9.235442e-001 -1.670203e-003  3.834883e-001
    outer loop
      vertex -1.500000e+001  4.000000e+001  5.000000e+000
      vertex -1.427883e+001  2.351736e+002  7.586822e+000
      vertex -1.486000e+001  2.323498e+002  6.174889e+000
    endloop
  endfacet
  facet normal -9.929755e-001  0.000000e+000  1.183202e-001
    outer loop
      vertex -1.500000e+001  4.000000e+001  5.000000e+000
      vertex -1.486000e+001  2.323498e+002  6.174889e+000
      vertex -1.500000e+001  2.300000e+002  5.000000e+000
    endloop
  endfacet
  facet normal -2.579453e-001  8.210445e-002  9.626646e-001
    outer loop
      vertex -1.000000e+001  4.000000e+001  1.000000e+001
      vertex -1.250000e+001  4.000000e+001  9.330127e+000
      vertex -1.250000e+001  3.480619e+001  9.773100e+000
    endloop
  endfacet
  facet normal -2.967804e-001  1.013704e-001  9.495500e-001
    outer loop
      vertex -1.000000e+001  4.000000e+001  1.000000e+001
      vertex -1.250000e+001  3.480619e+001  9.773100e+000
      vertex -1.000000e+001  3.366680e+001  1.067611e+001
    endloop
  endfacet
  facet normal -9.627203e-001  2.798304e-002  2.690476e-001
    outer loop
      vertex -1.500000e+001  4.000000e+001  5.000000e+000
      vertex -1.500000e+001  3.279737e+001  5.749129e+000
      vertex -1.433013e+001  3.449627e+001  7.969406e+000
    endloop
  endfacet
  facet normal -9.656906e-001  2.206897e-002  2.587561e-001
    outer loop
      vertex -1.500000e+001  4.000000e+001  5.000000e+000
      vertex -1.433013e+001  3.449627e+001  7.969406e+000
      vertex -1.433013e+001  4.000000e+001  7.500000e+000
    endloop
  endfacet
  facet normal -2.282408e-001  5.461810e-001  8.059729e-001
    outer loop
      vertex -1.000000e+001  2.212939e+001  1.590350e+001
      vertex -1.250000e+001  2.501438e+001  1.324048e+001
      vertex -1.250000e+001  2.069921e+001  1.616472e+001
    endloop
  endfacet
  facet normal  8.375391e-007  9.701429e-001  2.425340e-001
    outer loop
      vertex -1.000000e+001  1.744521e+001  2.021917e+001
      vertex -1.218701e+001  1.770446e+001  1.918215e+001
      vertex -1.101585e+001  1.750015e+001  1.999938e+001
    endloop
  endfacet
  facet normal -2.181852e-001  4.027549e-001  8.889228e-001
    outer loop
      vertex -1.000000e+001  2.761907e+001  1.267396e+001
      vertex -1.250000e+001  2.976242e+001  1.108922e+001
      vertex -1.250000e+001  2.501438e+001  1.324048e+001
    endloop
  endfacet
  facet normal -3.159229e-001  4.810884e-001  8.177693e-001
    outer loop
      vertex -1.000000e+001  2.761907e+001  1.267396e+001
      vertex -1.250000e+001  2.501438e+001  1.324048e+001
      vertex -1.000000e+001  2.212939e+001  1.590350e+001
    endloop
  endfacet
  facet normal -2.282407e-001  2.458212e-001  9.420605e-001
    outer loop
      vertex -1.000000e+001  3.366680e+001  1.067611e+001
      vertex -1.250000e+001  3.480619e+001  9.773100e+000
      vertex -1.250000e+001  2.976242e+001  1.108922e+001
    endloop
  endfacet
  facet normal -3.159229e-001  2.976097e-001  9.009002e-001
    outer loop
      vertex -1.000000e+001  3.366680e+001  1.067611e+001
      vertex -1.250000e+001  2.976242e+001  1.108922e+001
      vertex -1.000000e+001  2.761907e+001  1.267396e+001
    endloop
  endfacet
  facet normal -9.609523e-001  8.465271e-002  2.634479e-001
    outer loop
      vertex -1.433013e+001  2.915153e+001  9.364063e+000
      vertex -1.500000e+001  3.279737e+001  5.749129e+000
      vertex -1.500000e+001  2.590307e+001  7.964449e+000
    endloop
  endfacet
  facet normal -9.687321e-001  1.023940e-001  2.259945e-001
    outer loop
      vertex -1.433013e+001  2.915153e+001  9.364063e+000
      vertex -1.500000e+001  2.590307e+001  7.964449e+000
      vertex -1.433013e+001  2.412016e+001  1.164369e+001
    endloop
  endfacet
  facet normal -9.678428e-001  6.351423e-002  2.434055e-001
    outer loop
      vertex -1.433013e+001  3.449627e+001  7.969406e+000
      vertex -1.500000e+001  3.279737e+001  5.749129e+000
      vertex -1.433013e+001  2.915153e+001  9.364063e+000
    endloop
  endfacet
  facet normal -9.615685e-001  1.820515e-001  2.055314e-001
    outer loop
      vertex -1.500000e+001  1.961222e+001  1.155113e+001
      vertex -1.434760e+001  1.863213e+001  1.547149e+001
      vertex -1.433013e+001  1.954750e+001  1.474242e+001
    endloop
  endfacet
  facet normal -9.685035e-001  1.396860e-001  2.061279e-001
    outer loop
      vertex -1.500000e+001  1.961222e+001  1.155113e+001
      vertex -1.433013e+001  1.954750e+001  1.474242e+001
      vertex -1.433013e+001  2.412016e+001  1.164369e+001
    endloop
  endfacet
  facet normal -9.605342e-001  1.377725e-001  2.416459e-001
    outer loop
      vertex -1.500000e+001  1.961222e+001  1.155113e+001
      vertex -1.433013e+001  2.412016e+001  1.164369e+001
      vertex -1.500000e+001  2.590307e+001  7.964449e+000
    endloop
  endfacet
  facet normal -2.592286e-001  6.544225e-001  7.103039e-001
    outer loop
      vertex -1.000000e+001  1.744521e+001  2.021917e+001
      vertex -1.000000e+001  2.212939e+001  1.590350e+001
      vertex -1.218701e+001  1.770446e+001  1.918215e+001
    endloop
  endfacet
  facet normal -3.056937e-001  6.597499e-001  6.864995e-001
    outer loop
      vertex -1.218701e+001  1.770446e+001  1.918215e+001
      vertex -1.000000e+001  2.212939e+001  1.590350e+001
      vertex -1.250000e+001  2.069921e+001  1.616472e+001
    endloop
  endfacet
  facet normal -6.023431e-001  5.344507e-001  5.929126e-001
    outer loop
      vertex -1.218701e+001  1.770446e+001  1.918215e+001
      vertex -1.250000e+001  2.069921e+001  1.616472e+001
      vertex -1.338860e+001  1.809842e+001  1.760633e+001
    endloop
  endfacet
  facet normal -8.051042e-001  3.788536e-001  4.563738e-001
    outer loop
      vertex -1.434760e+001  1.863213e+001  1.547149e+001
      vertex -1.338860e+001  1.809842e+001  1.760633e+001
      vertex -1.433013e+001  1.954750e+001  1.474242e+001
    endloop
  endfacet
  facet normal -7.042674e-001  5.127770e-001  4.909859e-001
    outer loop
      vertex -1.433013e+001  1.954750e+001  1.474242e+001
      vertex -1.338860e+001  1.809842e+001  1.760633e+001
      vertex -1.250000e+001  2.069921e+001  1.616472e+001
    endloop
  endfacet
  facet normal -7.058246e-001  3.973968e-001  5.864193e-001
    outer loop
      vertex -1.433013e+001  1.954750e+001  1.474242e+001
      vertex -1.250000e+001  2.069921e+001  1.616472e+001
      vertex -1.433013e+001  2.412016e+001  1.164369e+001
    endloop
  endfacet
  facet normal -7.058245e-001  3.973967e-001  5.864193e-001
    outer loop
      vertex -1.433013e+001  2.412016e+001  1.164369e+001
      vertex -1.250000e+001  2.069921e+001  1.616472e+001
      vertex -1.250000e+001  2.501438e+001  1.324048e+001
    endloop
  endfacet
  facet normal -7.058245e-001  2.923496e-001  6.452469e-001
    outer loop
      vertex -1.433013e+001  2.412016e+001  1.164369e+001
      vertex -1.250000e+001  2.501438e+001  1.324048e+001
      vertex -1.433013e+001  2.915153e+001  9.364063e+000
    endloop
  endfacet
  facet normal -7.058243e-001  2.923498e-001  6.452469e-001
    outer loop
      vertex -1.433013e+001  2.915153e+001  9.364063e+000
      vertex -1.250000e+001  2.501438e+001  1.324048e+001
      vertex -1.250000e+001  2.976242e+001  1.108922e+001
    endloop
  endfacet
  facet normal -7.058244e-001  1.788575e-001  6.854357e-001
    outer loop
      vertex -1.433013e+001  2.915153e+001  9.364063e+000
      vertex -1.250000e+001  2.976242e+001  1.108922e+001
      vertex -1.433013e+001  3.449627e+001  7.969406e+000
    endloop
  endfacet
  facet normal -7.058244e-001  1.788575e-001  6.854357e-001
    outer loop
      vertex -1.433013e+001  3.449627e+001  7.969406e+000
      vertex -1.250000e+001  2.976242e+001  1.108922e+001
      vertex -1.250000e+001  3.480619e+001  9.773100e+000
    endloop
  endfacet
  facet normal -7.058244e-001  6.019883e-002  7.058244e-001
    outer loop
      vertex -1.433013e+001  3.449627e+001  7.969406e+000
      vertex -1.250000e+001  3.480619e+001  9.773100e+000
      vertex -1.433013e+001  4.000000e+001  7.500000e+000
    endloop
  endfacet
  facet normal -7.058244e-001  6.019887e-002  7.058244e-001
    outer loop
      vertex -1.433013e+001  4.000000e+001  7.500000e+000
      vertex -1.250000e+001  3.480619e+001  9.773100e+000
      vertex -1.250000e+001  4.000000e+001  9.330127e+000
    endloop
  endfacet
  facet normal  9.949667e-001  0.000000e+000 -1.002058e-001
    outer loop
      vertex -3.350000e+000  1.500000e+001  5.000000e+000
      vertex -3.350000e+000  2.300000e+002  5.000000e+000
      vertex -3.282724e+000  1.566800e+001  5.668001e+000
    endloop
  endfacet
  facet normal  9.825374e-001 -2.714949e-004 -1.860647e-001
    outer loop
      vertex -3.282724e+000  1.566800e+001  5.668001e+000
      vertex -3.350000e+000  2.300000e+002  5.000000e+000
      vertex -3.116736e+000  2.324564e+002  6.228192e+000
    endloop
  endfacet
  facet normal  9.076340e-001  3.897408e-004 -4.197623e-001
    outer loop
      vertex -3.282724e+000  1.566800e+001  5.668001e+000
      vertex -3.116736e+000  2.324564e+002  6.228192e+000
      vertex -2.636356e+000  1.706691e+001  7.066912e+000
    endloop
  endfacet
  facet normal  8.406005e-001 -2.344118e-004 -5.416556e-001
    outer loop
      vertex -2.636356e+000  1.706691e+001  7.066912e+000
      vertex -3.116736e+000  2.324564e+002  6.228192e+000
      vertex -2.404486e+000  2.346652e+002  7.332584e+000
    endloop
  endfacet
  facet normal  6.430530e-001  2.497831e-004 -7.658217e-001
    outer loop
      vertex -2.636356e+000  1.706691e+001  7.066912e+000
      vertex -2.404486e+000  2.346652e+002  7.332584e+000
      vertex -1.580710e+000  1.795362e+001  7.953618e+000
    endloop
  endfacet
  facet normal  5.947882e-001 -4.275494e-005 -8.038824e-001
    outer loop
      vertex -1.580710e+000  1.795362e+001  7.953618e+000
      vertex -2.404486e+000  2.346652e+002  7.332584e+000
      vertex -1.527099e+000  2.359634e+002  7.981688e+000
    endloop
  endfacet
  facet normal  3.810185e-001  2.535199e-005 -9.245673e-001
    outer loop
      vertex -1.580710e+000  1.795362e+001  7.953618e+000
      vertex -1.527099e+000  2.359634e+002  7.981688e+000
      vertex -9.592938e-001  1.820971e+001  8.209713e+000
    endloop
  endfacet
  facet normal  3.187267e-001 -1.614549e-004 -9.478467e-001
    outer loop
      vertex -9.592938e-001  1.820971e+001  8.209713e+000
      vertex -1.527099e+000  2.359634e+002  7.981688e+000
      vertex -5.840457e-001  2.365974e+002  8.298696e+000
    endloop
  endfacet
  facet normal  1.183915e-001  2.011587e-004 -9.929670e-001
    outer loop
      vertex -9.592938e-001  1.820971e+001  8.209713e+000
      vertex -5.840457e-001  2.365974e+002  8.298696e+000
      vertex  1.775819e-001  1.834529e+001  8.345290e+000
    endloop
  endfacet
  facet normal  3.928090e-002 -7.624780e-005 -9.992282e-001
    outer loop
      vertex  1.775819e-001  1.834529e+001  8.345290e+000
      vertex -5.840457e-001  2.365974e+002  8.298696e+000
      vertex  3.233285e-001  2.366687e+002  8.334360e+000
    endloop
  endfacet
  facet normal -1.997431e-001  8.428816e-005 -9.798483e-001
    outer loop
      vertex  1.775819e-001  1.834529e+001  8.345290e+000
      vertex  3.233285e-001  2.366687e+002  8.334360e+000
      vertex  1.146157e+000  1.814783e+001  8.147828e+000
    endloop
  endfacet
  facet normal -2.264005e-001 -2.105186e-005 -9.740343e-001
    outer loop
      vertex  1.146157e+000  1.814783e+001  8.147828e+000
      vertex  3.233285e-001  2.366687e+002  8.334360e+000
      vertex  1.180358e+000  2.362703e+002  8.135164e+000
    endloop
  endfacet
  facet normal -4.901257e-001  2.624370e-005 -8.716518e-001
    outer loop
      vertex  1.146157e+000  1.814783e+001  8.147828e+000
      vertex  1.180358e+000  2.362703e+002  8.135164e+000
      vertex  2.094201e+000  1.761473e+001  7.614731e+000
    endloop
  endfacet
  facet normal -4.941489e-001  4.015191e-006 -8.693773e-001
    outer loop
      vertex  2.094201e+000  1.761473e+001  7.614731e+000
      vertex  1.180358e+000  2.362703e+002  8.135164e+000
      vertex  2.089855e+000  2.352364e+002  7.618207e+000
    endloop
  endfacet
  facet normal -8.090559e-001 -6.772720e-006 -5.877317e-001
    outer loop
      vertex  2.094201e+000  1.761473e+001  7.614731e+000
      vertex  2.089855e+000  2.352364e+002  7.618207e+000
      vertex  3.134045e+000  1.618333e+001  6.183326e+000
    endloop
  endfacet
  facet normal -7.502024e-001  7.550680e-004 -6.612077e-001
    outer loop
      vertex  3.134045e+000  1.618333e+001  6.183326e+000
      vertex  2.089855e+000  2.352364e+002  7.618207e+000
      vertex  2.863922e+000  2.334759e+002  6.737944e+000
    endloop
  endfacet
  facet normal -9.838868e-001 -7.667540e-004 -1.787907e-001
    outer loop
      vertex  3.134045e+000  1.618333e+001  6.183326e+000
      vertex  2.863922e+000  2.334759e+002  6.737944e+000
      vertex  3.350000e+000  1.500000e+001  5.000000e+000
    endloop
  endfacet
  facet normal -9.630426e-001  0.000000e+000 -2.693490e-001
    outer loop
      vertex  3.350000e+000  1.500000e+001  5.000000e+000
      vertex  2.863922e+000  2.334759e+002  6.737944e+000
      vertex  3.350000e+000  2.300000e+002  5.000000e+000
    endloop
  endfacet
  facet normal  -0.000000e+000  1.061530e-001  9.943498e-001
    outer loop
      vertex  1.000000e+001  4.000000e+001  1.000000e+001
      vertex -1.000000e+001  4.000000e+001  1.000000e+001
      vertex  1.000000e+001  3.366680e+001  1.067611e+001
    endloop
  endfacet
  facet normal  0.000000e+000  1.061530e-001  9.943498e-001
    outer loop
      vertex  1.000000e+001  3.366680e+001  1.067611e+001
      vertex -1.000000e+001  4.000000e+001  1.000000e+001
      vertex -1.000000e+001  3.366680e+001  1.067611e+001
    endloop
  endfacet
  facet normal  -0.000000e+000  3.136746e-001  9.495306e-001
    outer loop
      vertex  1.000000e+001  3.366680e+001  1.067611e+001
      vertex -1.000000e+001  3.366680e+001  1.067611e+001
      vertex  1.000000e+001  2.761907e+001  1.267396e+001
    endloop
  endfacet
  facet normal  0.000000e+000  3.136746e-001  9.495306e-001
    outer loop
      vertex  1.000000e+001  2.761907e+001  1.267396e+001
      vertex -1.000000e+001  3.366680e+001  1.067611e+001
      vertex -1.000000e+001  2.761907e+001  1.267396e+001
    endloop
  endfacet
  facet normal  -0.000000e+000  5.070574e-001  8.619123e-001
    outer loop
      vertex  1.000000e+001  2.761907e+001  1.267396e+001
      vertex -1.000000e+001  2.761907e+001  1.267396e+001
      vertex  1.000000e+001  2.212939e+001  1.590350e+001
    endloop
  endfacet
  facet normal  0.000000e+000  5.070574e-001  8.619123e-001
    outer loop
      vertex  1.000000e+001  2.212939e+001  1.590350e+001
      vertex -1.000000e+001  2.761907e+001  1.267396e+001
      vertex -1.000000e+001  2.212939e+001  1.590350e+001
    endloop
  endfacet
  facet normal  -0.000000e+000  6.775851e-001  7.354444e-001
    outer loop
      vertex  1.000000e+001  2.212939e+001  1.590350e+001
      vertex -1.000000e+001  2.212939e+001  1.590350e+001
      vertex  1.000000e+001  1.744521e+001  2.021917e+001
    endloop
  endfacet
  facet normal  0.000000e+000  6.775851e-001  7.354444e-001
    outer loop
      vertex  1.000000e+001  1.744521e+001  2.021917e+001
      vertex -1.000000e+001  2.212939e+001  1.590350e+001
      vertex -1.000000e+001  1.744521e+001  2.021917e+001
    endloop
  endfacet
  facet normal  0.000000e+000  0.000000e+000  1.000000e+000
    outer loop
      vertex -1.000000e+001  4.000000e+001  1.000000e+001
      vertex  1.000000e+001  4.000000e+001  1.000000e+001
      vertex -1.000000e+001  2.400000e+002  1.000000e+001
    endloop
  endfacet
  facet normal  -0.000000e+000  0.000000e+000  1.000000e+000
    outer loop
      vertex -1.000000e+001  2.400000e+002  1.000000e+001
      vertex  1.000000e+001  4.000000e+001  1.000000e+001
      vertex  1.000000e+001  2.400000e+002  1.000000e+001
    endloop
  endfacet
  facet normal -1.000000e+000  0.000000e+000  0.000000e+000
    outer loop
      vertex -1.500000e+001  1.961222e+001  1.155113e+001
      vertex -1.500000e+001  2.590307e+001  7.964449e+000
      vertex -1.500000e+001  2.000000e+001  1.000000e+001
    endloop
  endfacet
  facet normal -1.000000e+000  0.000000e+000  -0.000000e+000
    outer loop
      vertex -1.500000e+001  1.100000e+001  1.000000e+000
      vertex -1.500000e+001  2.000000e+001  1.000000e+001
      vertex -1.500000e+001  2.590307e+001  7.964449e+000
    endloop
  endfacet
  facet normal -1.000000e+000  0.000000e+000  -0.000000e+000
    outer loop
      vertex -1.500000e+001  1.100000e+001  1.000000e+000
      vertex -1.500000e+001  2.590307e+001  7.964449e+000
      vertex -1.500000e+001  3.279737e+001  5.749129e+000
    endloop
  endfacet
  facet normal -1.000000e+000  0.000000e+000  -0.000000e+000
    outer loop
      vertex -1.500000e+001  1.100000e+001  1.000000e+000
      vertex -1.500000e+001  3.279737e+001  5.749129e+000
      vertex -1.500000e+001  4.000000e+001  5.000000e+000
    endloop
  endfacet
  facet normal -1.000000e+000  0.000000e+000  -0.000000e+000
    outer loop
      vertex -1.500000e+001  1.100000e+001  1.000000e+000
      vertex -1.500000e+001  4.000000e+001  5.000000e+000
      vertex -1.500000e+001  2.300000e+002  5.000000e+000
    endloop
  endfacet
  facet normal -9.999999e-001  0.000000e+000  -0.000000e+000
    outer loop
      vertex -1.500000e+001  1.100000e+001  1.000000e+000
      vertex -1.500000e+001  2.300000e+002  5.000000e+000
      vertex -1.500000e+001  2.300000e+002  1.000000e+000
    endloop
  endfacet
  facet normal  1.000000e+000  0.000000e+000  0.000000e+000
    outer loop
      vertex  1.500000e+001  2.000000e+001  1.000000e+001
      vertex  1.500000e+001  2.590307e+001  7.964449e+000
      vertex  1.500000e+001  1.961222e+001  1.155113e+001
    endloop
  endfacet
  facet normal  9.999999e-001  0.000000e+000  -0.000000e+000
    outer loop
      vertex  1.500000e+001  1.100000e+001  1.000000e+000
      vertex  1.500000e+001  2.300000e+002  1.000000e+000
      vertex  1.500000e+001  2.300000e+002  5.000000e+000
    endloop
  endfacet
  facet normal  1.000000e+000  0.000000e+000  0.000000e+000
    outer loop
      vertex  1.500000e+001  1.100000e+001  1.000000e+000
      vertex  1.500000e+001  2.300000e+002  5.000000e+000
      vertex  1.500000e+001  4.000000e+001  5.000000e+000
    endloop
  endfacet
  facet normal  1.000000e+000  0.000000e+000  0.000000e+000
    outer loop
      vertex  1.500000e+001  1.100000e+001  1.000000e+000
      vertex  1.500000e+001  4.000000e+001  5.000000e+000
      vertex  1.500000e+001  3.279737e+001  5.749129e+000
    endloop
  endfacet
  facet normal  1.000000e+000  0.000000e+000  0.000000e+000
    outer loop
      vertex  1.500000e+001  1.100000e+001  1.000000e+000
      vertex  1.500000e+001  3.279737e+001  5.749129e+000
      vertex  1.500000e+001  2.590307e+001  7.964449e+000
    endloop
  endfacet
  facet normal  1.000000e+000  0.000000e+000  0.000000e+000
    outer loop
      vertex  1.500000e+001  1.100000e+001  1.000000e+000
      vertex  1.500000e+001  2.590307e+001  7.964449e+000
      vertex  1.500000e+001  2.000000e+001  1.000000e+001
    endloop
  endfacet
  facet normal -8.375391e-007 -9.701429e-001 -2.425340e-001
    outer loop
      vertex -1.000000e+001  1.744521e+001  2.021917e+001
      vertex -1.101585e+001  1.750015e+001  1.999938e+001
      vertex -1.218701e+001  1.770446e+001  1.918215e+001
    endloop
  endfacet
  facet normal  0.000000e+000 -9.701424e-001 -2.425356e-001
    outer loop
      vertex -1.000000e+001  1.744521e+001  2.021917e+001
      vertex -1.218701e+001  1.770446e+001  1.918215e+001
      vertex -1.338860e+001  1.809842e+001  1.760633e+001
    endloop
  endfacet
  facet normal  3.834318e-007 -9.701424e-001 -2.425361e-001
    outer loop
      vertex -1.000000e+001  1.744521e+001  2.021917e+001
      vertex -1.338860e+001  1.809842e+001  1.760633e+001
      vertex -1.434760e+001  1.863213e+001  1.547149e+001
    endloop
  endfacet
  facet normal  1.198999e-007 -9.701424e-001 -2.425359e-001
    outer loop
      vertex -1.000000e+001  1.744521e+001  2.021917e+001
      vertex -1.434760e+001  1.863213e+001  1.547149e+001
      vertex -1.500000e+001  1.961222e+001  1.155113e+001
    endloop
  endfacet
  facet normal -1.099353e-006 -9.701426e-001 -2.425352e-001
    outer loop
      vertex -1.000000e+001  1.744521e+001  2.021917e+001
      vertex -1.500000e+001  1.961222e+001  1.155113e+001
      vertex -1.500000e+001  2.000000e+001  1.000000e+001
    endloop
  endfacet
  facet normal  0.000000e+000 -9.701425e-001 -2.425357e-001
    outer loop
      vertex -1.000000e+001  1.744521e+001  2.021917e+001
      vertex -1.500000e+001  2.000000e+001  1.000000e+001
      vertex  1.500000e+001  2.000000e+001  1.000000e+001
    endloop
  endfacet
  facet normal  0.000000e+000 -9.701424e-001 -2.425357e-001
    outer loop
      vertex -1.000000e+001  1.744521e+001  2.021917e+001
      vertex  1.500000e+001  2.000000e+001  1.000000e+001
      vertex  1.000000e+001  1.744521e+001  2.021917e+001
    endloop
  endfacet
  facet normal  4.106330e-006 -9.701426e-001 -2.425352e-001
    outer loop
      vertex  1.500000e+001  2.000000e+001  1.000000e+001
      vertex  1.500000e+001  1.961222e+001  1.155113e+001
      vertex  1.434760e+001  1.863213e+001  1.547149e+001
    endloop
  endfacet
  facet normal  8.569241e-007 -9.701425e-001 -2.425356e-001
    outer loop
      vertex  1.500000e+001  2.000000e+001  1.000000e+001
      vertex  1.434760e+001  1.863213e+001  1.547149e+001
      vertex  1.338860e+001  1.809842e+001  1.760633e+001
    endloop
  endfacet
  facet normal -2.208851e-007 -9.701424e-001 -2.425358e-001
    outer loop
      vertex  1.500000e+001  2.000000e+001  1.000000e+001
      vertex  1.338860e+001  1.809842e+001  1.760633e+001
      vertex  1.218701e+001  1.770446e+001  1.918215e+001
    endloop
  endfacet
  facet normal -5.918160e-007 -9.701425e-001 -2.425359e-001
    outer loop
      vertex  1.500000e+001  2.000000e+001  1.000000e+001
      vertex  1.218701e+001  1.770446e+001  1.918215e+001
      vertex  1.101585e+001  1.750015e+001  1.999938e+001
    endloop
  endfacet
  facet normal  4.873892e-007 -9.701425e-001 -2.425355e-001
    outer loop
      vertex  1.500000e+001  2.000000e+001  1.000000e+001
      vertex  1.101585e+001  1.750015e+001  1.999938e+001
      vertex  1.000000e+001  1.744521e+001  2.021917e+001
    endloop
  endfacet
  facet normal  0.000000e+000 -7.071068e-001  7.071068e-001
    outer loop
      vertex -1.500000e+001  2.000000e+001  1.000000e+001
      vertex -1.500000e+001  1.100000e+001  1.000000e+000
      vertex -3.350000e+000  1.500000e+001  5.000000e+000
    endloop
  endfacet
  facet normal  0.000000e+000 -7.071068e-001  7.071068e-001
    outer loop
      vertex -1.500000e+001  2.000000e+001  1.000000e+001
      vertex -3.350000e+000  1.500000e+001  5.000000e+000
      vertex -3.282724e+000  1.566800e+001  5.668001e+000
    endloop
  endfacet
  facet normal -7.610879e-008 -7.071069e-001  7.071067e-001
    outer loop
      vertex -1.500000e+001  2.000000e+001  1.000000e+001
      vertex -3.282724e+000  1.566800e+001  5.668001e+000
      vertex -2.636356e+000  1.706691e+001  7.066912e+000
    endloop
  endfacet
  facet normal -2.126539e-008 -7.071068e-001  7.071068e-001
    outer loop
      vertex -1.500000e+001  2.000000e+001  1.000000e+001
      vertex -2.636356e+000  1.706691e+001  7.066912e+000
      vertex -1.580710e+000  1.795362e+001  7.953618e+000
    endloop
  endfacet
  facet normal  1.282082e-007 -7.071063e-001  7.071073e-001
    outer loop
      vertex -1.500000e+001  2.000000e+001  1.000000e+001
      vertex -1.580710e+000  1.795362e+001  7.953618e+000
      vertex -9.592938e-001  1.820971e+001  8.209713e+000
    endloop
  endfacet
  facet normal -3.064995e-007 -7.071080e-001  7.071056e-001
    outer loop
      vertex -1.500000e+001  2.000000e+001  1.000000e+001
      vertex -9.592938e-001  1.820971e+001  8.209713e+000
      vertex  1.775819e-001  1.834529e+001  8.345290e+000
    endloop
  endfacet
  facet normal  0.000000e+000 -7.071066e-001  7.071069e-001
    outer loop
      vertex -1.500000e+001  2.000000e+001  1.000000e+001
      vertex  1.775819e-001  1.834529e+001  8.345290e+000
      vertex  1.500000e+001  2.000000e+001  1.000000e+001
    endloop
  endfacet
  facet normal -1.519631e-007 -7.071068e-001  7.071066e-001
    outer loop
      vertex  3.350000e+000  1.500000e+001  5.000000e+000
      vertex  1.200000e+001  8.000000e+000 -2.000000e+000
      vertex  1.292770e+001  8.147040e+000 -1.852959e+000
    endloop
  endfacet
  facet normal  2.986234e-007 -7.071065e-001  7.071069e-001
    outer loop
      vertex  3.350000e+000  1.500000e+001  5.000000e+000
      vertex  1.292770e+001  8.147040e+000 -1.852959e+000
      vertex  1.375364e+001  8.565921e+000 -1.434080e+000
    endloop
  endfacet
  facet normal -1.156750e-008 -7.071068e-001  7.071067e-001
    outer loop
      vertex  3.350000e+000  1.500000e+001  5.000000e+000
      vertex  1.375364e+001  8.565921e+000 -1.434080e+000
      vertex  1.465572e+001  9.604597e+000 -3.954031e-001
    endloop
  endfacet
  facet normal -5.158328e-008 -7.071068e-001  7.071068e-001
    outer loop
      vertex  3.350000e+000  1.500000e+001  5.000000e+000
      vertex  1.465572e+001  9.604597e+000 -3.954031e-001
      vertex  1.500000e+001  1.100000e+001  1.000000e+000
    endloop
  endfacet
  facet normal  0.000000e+000 -7.071068e-001  7.071068e-001
    outer loop
      vertex  3.350000e+000  1.500000e+001  5.000000e+000
      vertex  1.500000e+001  1.100000e+001  1.000000e+000
      vertex  1.500000e+001  2.000000e+001  1.000000e+001
    endloop
  endfacet
  facet normal  5.220954e-007 -7.071089e-001  7.071046e-001
    outer loop
      vertex  1.500000e+001  2.000000e+001  1.000000e+001
      vertex  1.775819e-001  1.834529e+001  8.345290e+000
      vertex  1.146157e+000  1.814783e+001  8.147828e+000
    endloop
  endfacet
  facet normal -2.442747e-007 -7.071061e-001  7.071074e-001
    outer loop
      vertex  1.500000e+001  2.000000e+001  1.000000e+001
      vertex  1.146157e+000  1.814783e+001  8.147828e+000
      vertex  2.094201e+000  1.761473e+001  7.614731e+000
    endloop
  endfacet
  facet normal  9.979794e-008 -7.071071e-001  7.071066e-001
    outer loop
      vertex  1.500000e+001  2.000000e+001  1.000000e+001
      vertex  2.094201e+000  1.761473e+001  7.614731e+000
      vertex  3.134045e+000  1.618333e+001  6.183326e+000
    endloop
  endfacet
  facet normal -1.134083e-007 -7.071066e-001  7.071069e-001
    outer loop
      vertex  1.500000e+001  2.000000e+001  1.000000e+001
      vertex  3.134045e+000  1.618333e+001  6.183326e+000
      vertex  3.350000e+000  1.500000e+001  5.000000e+000
    endloop
  endfacet
  facet normal  0.000000e+000 -7.071068e-001  7.071068e-001
    outer loop
      vertex  1.200000e+001  8.000000e+000 -2.000000e+000
      vertex  3.350000e+000  1.500000e+001  5.000000e+000
      vertex  3.282724e+000  1.433200e+001  4.331999e+000
    endloop
  endfacet
  facet normal -6.554082e-008 -7.071069e-001  7.071068e-001
    outer loop
      vertex  1.200000e+001  8.000000e+000 -2.000000e+000
      vertex  3.282724e+000  1.433200e+001  4.331999e+000
      vertex  2.636356e+000  1.293309e+001  2.933088e+000
    endloop
  endfacet
  facet normal -6.155680e-008 -7.071069e-001  7.071067e-001
    outer loop
      vertex  1.200000e+001  8.000000e+000 -2.000000e+000
      vertex  2.636356e+000  1.293309e+001  2.933088e+000
      vertex  1.580710e+000  1.204638e+001  2.046382e+000
    endloop
  endfacet
  facet normal  4.440137e-007 -7.071062e-001  7.071074e-001
    outer loop
      vertex  1.200000e+001  8.000000e+000 -2.000000e+000
      vertex  1.580710e+000  1.204638e+001  2.046382e+000
      vertex  9.592938e-001  1.179029e+001  1.790287e+000
    endloop
  endfacet
  facet normal -4.715574e-008 -7.071068e-001  7.071066e-001
    outer loop
      vertex  1.200000e+001  8.000000e+000 -2.000000e+000
      vertex  9.592938e-001  1.179029e+001  1.790287e+000
      vertex -1.775819e-001  1.165471e+001  1.654710e+000
    endloop
  endfacet
  facet normal -1.386151e-006 -7.071091e-001  7.071044e-001
    outer loop
      vertex  1.200000e+001  8.000000e+000 -2.000000e+000
      vertex -1.775819e-001  1.165471e+001  1.654710e+000
      vertex -1.146157e+000  1.185217e+001  1.852172e+000
    endloop
  endfacet
  facet normal  0.000000e+000 -7.071068e-001  7.071068e-001
    outer loop
      vertex -1.200000e+001  8.000000e+000 -2.000000e+000
      vertex  1.200000e+001  8.000000e+000 -2.000000e+000
      vertex -1.146157e+000  1.185217e+001  1.852172e+000
    endloop
  endfacet
  facet normal  1.910661e-007 -7.071070e-001  7.071065e-001
    outer loop
      vertex -1.200000e+001  8.000000e+000 -2.000000e+000
      vertex -1.146157e+000  1.185217e+001  1.852172e+000
      vertex -2.094201e+000  1.238527e+001  2.385268e+000
    endloop
  endfacet
  facet normal -1.183563e-007 -7.071066e-001  7.071069e-001
    outer loop
      vertex -1.200000e+001  8.000000e+000 -2.000000e+000
      vertex -2.094201e+000  1.238527e+001  2.385268e+000
      vertex -3.134045e+000  1.381667e+001  3.816674e+000
    endloop
  endfacet
  facet normal  2.009136e-007 -7.071069e-001  7.071066e-001
    outer loop
      vertex -1.200000e+001  8.000000e+000 -2.000000e+000
      vertex -3.134045e+000  1.381667e+001  3.816674e+000
      vertex -3.350000e+000  1.500000e+001  5.000000e+000
    endloop
  endfacet
  facet normal  3.824239e-008 -7.071068e-001  7.071067e-001
    outer loop
      vertex -3.350000e+000  1.500000e+001  5.000000e+000
      vertex -1.500000e+001  1.100000e+001  1.000000e+000
      vertex -1.465572e+001  9.604597e+000 -3.954031e-001
    endloop
  endfacet
  facet normal  2.738089e-008 -7.071068e-001  7.071067e-001
    outer loop
      vertex -3.350000e+000  1.500000e+001  5.000000e+000
      vertex -1.465572e+001  9.604597e+000 -3.954031e-001
      vertex -1.375364e+001  8.565921e+000 -1.434080e+000
    endloop
  endfacet
  facet normal -2.949729e-007 -7.071066e-001  7.071071e-001
    outer loop
      vertex -3.350000e+000  1.500000e+001  5.000000e+000
      vertex -1.375364e+001  8.565921e+000 -1.434080e+000
      vertex -1.292770e+001  8.147040e+000 -1.852959e+000
    endloop
  endfacet
  facet normal  1.487710e-007 -7.071069e-001  7.071066e-001
    outer loop
      vertex -3.350000e+000  1.500000e+001  5.000000e+000
      vertex -1.292770e+001  8.147040e+000 -1.852959e+000
      vertex -1.200000e+001  8.000000e+000 -2.000000e+000
    endloop
  endfacet
  facet normal  0.000000e+000  4.472136e-001 -8.944272e-001
    outer loop
      vertex  1.000000e+001  2.400000e+002  1.000000e+001
      vertex  1.500000e+001  2.300000e+002  5.000000e+000
      vertex  3.350000e+000  2.300000e+002  5.000000e+000
    endloop
  endfacet
  facet normal  4.573611e-007  4.472134e-001 -8.944273e-001
    outer loop
      vertex  1.000000e+001  2.400000e+002  1.000000e+001
      vertex  3.350000e+000  2.300000e+002  5.000000e+000
      vertex  2.863922e+000  2.334759e+002  6.737944e+000
    endloop
  endfacet
  facet normal  6.018212e-007  4.472132e-001 -8.944274e-001
    outer loop
      vertex  1.000000e+001  2.400000e+002  1.000000e+001
      vertex  2.863922e+000  2.334759e+002  6.737944e+000
      vertex  2.089855e+000  2.352364e+002  7.618207e+000
    endloop
  endfacet
  facet normal -1.412438e-006  4.472159e-001 -8.944260e-001
    outer loop
      vertex  1.000000e+001  2.400000e+002  1.000000e+001
      vertex  2.089855e+000  2.352364e+002  7.618207e+000
      vertex  1.180358e+000  2.362703e+002  8.135164e+000
    endloop
  endfacet
  facet normal -1.012874e-007  4.472134e-001 -8.944273e-001
    outer loop
      vertex  1.000000e+001  2.400000e+002  1.000000e+001
      vertex  1.180358e+000  2.362703e+002  8.135164e+000
      vertex  3.233285e-001  2.366687e+002  8.334360e+000
    endloop
  endfacet
  facet normal  6.143222e-006  4.471989e-001 -8.944345e-001
    outer loop
      vertex  1.000000e+001  2.400000e+002  1.000000e+001
      vertex  3.233285e-001  2.366687e+002  8.334360e+000
      vertex -5.840457e-001  2.365974e+002  8.298696e+000
    endloop
  endfacet
  facet normal  0.000000e+000  4.472142e-001 -8.944269e-001
    outer loop
      vertex -1.000000e+001  2.400000e+002  1.000000e+001
      vertex  1.000000e+001  2.400000e+002  1.000000e+001
      vertex -5.840457e-001  2.365974e+002  8.298696e+000
    endloop
  endfacet
  facet normal -8.091791e-007  4.472124e-001 -8.944278e-001
    outer loop
      vertex -1.000000e+001  2.400000e+002  1.000000e+001
      vertex -5.840457e-001  2.365974e+002  8.298696e+000
      vertex -1.527099e+000  2.359634e+002  7.981688e+000
    endloop
  endfacet
  facet normal -1.141697e-006  4.472119e-001 -8.944281e-001
    outer loop
      vertex -1.000000e+001  2.400000e+002  1.000000e+001
      vertex -1.527099e+000  2.359634e+002  7.981688e+000
      vertex -2.404486e+000  2.346652e+002  7.332584e+000
    endloop
  endfacet
  facet normal  1.868551e-006  4.472153e-001 -8.944263e-001
    outer loop
      vertex -1.000000e+001  2.400000e+002  1.000000e+001
      vertex -2.404486e+000  2.346652e+002  7.332584e+000
      vertex -3.116736e+000  2.324564e+002  6.228192e+000
    endloop
  endfacet
  facet normal -1.599279e-006  4.472128e-001 -8.944277e-001
    outer loop
      vertex -1.000000e+001  2.400000e+002  1.000000e+001
      vertex -3.116736e+000  2.324564e+002  6.228192e+000
      vertex -3.350000e+000  2.300000e+002  5.000000e+000
    endloop
  endfacet
  facet normal  0.000000e+000  4.472137e-001 -8.944271e-001
    outer loop
      vertex -3.350000e+000  2.300000e+002  5.000000e+000
      vertex -1.500000e+001  2.300000e+002  5.000000e+000
      vertex -1.486000e+001  2.323498e+002  6.174889e+000
    endloop
  endfacet
  facet normal -9.474063e-008  4.472134e-001 -8.944272e-001
    outer loop
      vertex -3.350000e+000  2.300000e+002  5.000000e+000
      vertex -1.486000e+001  2.323498e+002  6.174889e+000
      vertex -1.427883e+001  2.351736e+002  7.586822e+000
    endloop
  endfacet
  facet normal  3.983647e-007  4.472142e-001 -8.944269e-001
    outer loop
      vertex -3.350000e+000  2.300000e+002  5.000000e+000
      vertex -1.427883e+001  2.351736e+002  7.586822e+000
      vertex -1.331893e+001  2.374792e+002  8.739611e+000
    endloop
  endfacet
  facet normal -9.314437e-007  4.472128e-001 -8.944275e-001
    outer loop
      vertex -3.350000e+000  2.300000e+002  5.000000e+000
      vertex -1.331893e+001  2.374792e+002  8.739611e+000
      vertex -1.220215e+001  2.389779e+002  9.488936e+000
    endloop
  endfacet
  facet normal  1.785167e-006  4.472149e-001 -8.944265e-001
    outer loop
      vertex -3.350000e+000  2.300000e+002  5.000000e+000
      vertex -1.220215e+001  2.389779e+002  9.488936e+000
      vertex -1.104018e+001  2.397812e+002  9.890605e+000
    endloop
  endfacet
  facet normal -2.158231e-006  4.472124e-001 -8.944277e-001
    outer loop
      vertex -3.350000e+000  2.300000e+002  5.000000e+000
      vertex -1.104018e+001  2.397812e+002  9.890605e+000
      vertex -1.000000e+001  2.400000e+002  1.000000e+001
    endloop
  endfacet
  facet normal  2.749262e-006  4.472147e-001 -8.944267e-001
    outer loop
      vertex  1.500000e+001  2.300000e+002  5.000000e+000
      vertex  1.000000e+001  2.400000e+002  1.000000e+001
      vertex  1.104018e+001  2.397812e+002  9.890605e+000
    endloop
  endfacet
  facet normal -3.826506e-006  4.472126e-001 -8.944278e-001
    outer loop
      vertex  1.500000e+001  2.300000e+002  5.000000e+000
      vertex  1.104018e+001  2.397812e+002  9.890605e+000
      vertex  1.220215e+001  2.389779e+002  9.488936e+000
    endloop
  endfacet
  facet normal  3.719278e-006  4.472145e-001 -8.944268e-001
    outer loop
      vertex  1.500000e+001  2.300000e+002  5.000000e+000
      vertex  1.220215e+001  2.389779e+002  9.488936e+000
      vertex  1.331893e+001  2.374792e+002  8.739611e+000
    endloop
  endfacet
  facet normal -3.637440e-006  4.472131e-001 -8.944274e-001
    outer loop
      vertex  1.500000e+001  2.300000e+002  5.000000e+000
      vertex  1.331893e+001  2.374792e+002  8.739611e+000
      vertex  1.427883e+001  2.351736e+002  7.586822e+000
    endloop
  endfacet
  facet normal  3.306904e-006  4.472139e-001 -8.944271e-001
    outer loop
      vertex  1.500000e+001  2.300000e+002  5.000000e+000
      vertex  1.427883e+001  2.351736e+002  7.586822e+000
      vertex  1.486000e+001  2.323498e+002  6.174889e+000
    endloop
  endfacet
  facet normal  0.000000e+000  1.000000e+000  0.000000e+000
    outer loop
      vertex  1.035207e+000  2.300000e+002  1.813961e+000
      vertex  2.710207e+000  2.300000e+002  3.030919e+000
      vertex  1.200000e+001  2.300000e+002 -2.000000e+000
    endloop
  endfacet
  facet normal  0.000000e+000  9.999999e-001  0.000000e+000
    outer loop
      vertex  1.500000e+001  2.300000e+002  1.000000e+000
      vertex  1.459808e+001  2.300000e+002 -5.000000e-001
      vertex  1.500000e+001  2.300000e+002  5.000000e+000
    endloop
  endfacet
  facet normal  0.000000e+000  1.000000e+000  0.000000e+000
    outer loop
      vertex -1.200000e+001  2.300000e+002 -2.000000e+000
      vertex -3.350000e+000  2.300000e+002  5.000000e+000
      vertex -2.710207e+000  2.300000e+002  3.030919e+000
    endloop
  endfacet
  facet normal  0.000000e+000  1.000000e+000  0.000000e+000
    outer loop
      vertex -1.200000e+001  2.300000e+002 -2.000000e+000
      vertex -2.710207e+000  2.300000e+002  3.030919e+000
      vertex -1.035207e+000  2.300000e+002  1.813961e+000
    endloop
  endfacet
  facet normal  -0.000000e+000  1.000000e+000  0.000000e+000
    outer loop
      vertex -1.200000e+001  2.300000e+002 -2.000000e+000
      vertex -1.035207e+000  2.300000e+002  1.813961e+000
      vertex  1.035207e+000  2.300000e+002  1.813961e+000
    endloop
  endfacet
  facet normal  0.000000e+000  1.000000e+000  0.000000e+000
    outer loop
      vertex -1.200000e+001  2.300000e+002 -2.000000e+000
      vertex  1.035207e+000  2.300000e+002  1.813961e+000
      vertex  1.200000e+001  2.300000e+002 -2.000000e+000
    endloop
  endfacet
  facet normal  0.000000e+000  9.999999e-001  0.000000e+000
    outer loop
      vertex -1.500000e+001  2.300000e+002  1.000000e+000
      vertex -1.500000e+001  2.300000e+002  5.000000e+000
      vertex -1.459808e+001  2.300000e+002 -5.000000e-001
    endloop
  endfacet
  facet normal  0.000000e+000  1.000000e+000  -0.000000e+000
    outer loop
      vertex -1.459808e+001  2.300000e+002 -5.000000e-001
      vertex -1.500000e+001  2.300000e+002  5.000000e+000
      vertex -3.350000e+000  2.300000e+002  5.000000e+000
    endloop
  endfacet
  facet normal  0.000000e+000  1.000000e+000  0.000000e+000
    outer loop
      vertex -1.459808e+001  2.300000e+002 -5.000000e-001
      vertex -3.350000e+000  2.300000e+002  5.000000e+000
      vertex -1.350000e+001  2.300000e+002 -1.598076e+000
    endloop
  endfacet
  facet normal  -0.000000e+000  9.999999e-001  0.000000e+000
    outer loop
      vertex -1.350000e+001  2.300000e+002 -1.598076e+000
      vertex -3.350000e+000  2.300000e+002  5.000000e+000
      vertex -1.200000e+001  2.300000e+002 -2.000000e+000
    endloop
  endfacet
  facet normal  0.000000e+000  1.000000e+000  0.000000e+000
    outer loop
      vertex  2.710207e+000  2.300000e+002  3.030919e+000
      vertex  3.350000e+000  2.300000e+002  5.000000e+000
      vertex  1.200000e+001  2.300000e+002 -2.000000e+000
    endloop
  endfacet
  facet normal  0.000000e+000  1.000000e+000  -0.000000e+000
    outer loop
      vertex  1.200000e+001  2.300000e+002 -2.000000e+000
      vertex  3.350000e+000  2.300000e+002  5.000000e+000
      vertex  1.500000e+001  2.300000e+002  5.000000e+000
    endloop
  endfacet
  facet normal  0.000000e+000  1.000000e+000  0.000000e+000
    outer loop
      vertex  1.200000e+001  2.300000e+002 -2.000000e+000
      vertex  1.500000e+001  2.300000e+002  5.000000e+000
      vertex  1.350000e+001  2.300000e+002 -1.598076e+000
    endloop
  endfacet
  facet normal  0.000000e+000  1.000000e+000  0.000000e+000
    outer loop
      vertex  1.350000e+001  2.300000e+002 -1.598076e+000
      vertex  1.500000e+001  2.300000e+002  5.000000e+000
      vertex  1.459808e+001  2.300000e+002 -5.000000e-001
    endloop
  endfacet
endsolid CATIA STL
