solid CATIA STL
  facet normal  0.000000e+000  9.510565e-001 -3.090169e-001
    outer loop
      vertex  2.000000e+000 -3.000000e+000  3.000000e+000
      vertex -2.000000e+000 -3.000000e+000  3.000000e+000
      vertex  2.000000e+000 -2.427051e+000  4.763356e+000
    endloop
  endfacet
  facet normal  0.000000e+000  9.510565e-001 -3.090169e-001
    outer loop
      vertex  2.000000e+000 -2.427051e+000  4.763356e+000
      vertex -2.000000e+000 -3.000000e+000  3.000000e+000
      vertex -2.000000e+000 -2.427051e+000  4.763356e+000
    endloop
  endfacet
  facet normal  0.000000e+000  5.877852e-001 -8.090170e-001
    outer loop
      vertex  2.000000e+000 -2.427051e+000  4.763356e+000
      vertex -2.000000e+000 -2.427051e+000  4.763356e+000
      vertex  2.000000e+000 -9.270510e-001  5.853169e+000
    endloop
  endfacet
  facet normal  0.000000e+000  5.877852e-001 -8.090170e-001
    outer loop
      vertex  2.000000e+000 -9.270510e-001  5.853169e+000
      vertex -2.000000e+000 -2.427051e+000  4.763356e+000
      vertex -2.000000e+000 -9.270510e-001  5.853169e+000
    endloop
  endfacet
  facet normal  0.000000e+000  0.000000e+000 -1.000000e+000
    outer loop
      vertex  2.000000e+000 -9.270510e-001  5.853169e+000
      vertex -2.000000e+000 -9.270510e-001  5.853169e+000
      vertex  2.000000e+000  9.270510e-001  5.853169e+000
    endloop
  endfacet
  facet normal  -0.000000e+000  0.000000e+000 -1.000000e+000
    outer loop
      vertex  2.000000e+000  9.270510e-001  5.853169e+000
      vertex -2.000000e+000 -9.270510e-001  5.853169e+000
      vertex -2.000000e+000  9.270510e-001  5.853169e+000
    endloop
  endfacet
  facet normal  0.000000e+000 -5.877852e-001 -8.090170e-001
    outer loop
      vertex  2.000000e+000  9.270510e-001  5.853169e+000
      vertex -2.000000e+000  9.270510e-001  5.853169e+000
      vertex  2.000000e+000  2.427051e+000  4.763356e+000
    endloop
  endfacet
  facet normal  -0.000000e+000 -5.877852e-001 -8.090170e-001
    outer loop
      vertex  2.000000e+000  2.427051e+000  4.763356e+000
      vertex -2.000000e+000  9.270510e-001  5.853169e+000
      vertex -2.000000e+000  2.427051e+000  4.763356e+000
    endloop
  endfacet
  facet normal  0.000000e+000 -9.510565e-001 -3.090169e-001
    outer loop
      vertex  2.000000e+000  2.427051e+000  4.763356e+000
      vertex -2.000000e+000  2.427051e+000  4.763356e+000
      vertex  2.000000e+000  3.000000e+000  3.000000e+000
    endloop
  endfacet
  facet normal  -0.000000e+000 -9.510565e-001 -3.090169e-001
    outer loop
      vertex  2.000000e+000  3.000000e+000  3.000000e+000
      vertex -2.000000e+000  2.427051e+000  4.763356e+000
      vertex -2.000000e+000  3.000000e+000  3.000000e+000
    endloop
  endfacet
  facet normal  9.999999e-001  0.000000e+000  0.000000e+000
    outer loop
      vertex  2.000000e+000 -3.000000e+000  3.000000e+000
      vertex  2.000000e+000 -2.427051e+000  4.763356e+000
      vertex  2.000000e+000 -1.500000e+001  3.000000e+000
    endloop
  endfacet
  facet normal  1.000000e+000  0.000000e+000  0.000000e+000
    outer loop
      vertex  2.000000e+000  1.500000e+001  3.000000e+000
      vertex  2.000000e+000  1.500000e+001  1.000000e+001
      vertex  2.000000e+000  1.100000e+001  1.000000e+001
    endloop
  endfacet
  facet normal  1.000000e+000  0.000000e+000  0.000000e+000
    outer loop
      vertex  2.000000e+000  1.500000e+001  3.000000e+000
      vertex  2.000000e+000  1.100000e+001  1.000000e+001
      vertex  2.000000e+000  1.070711e+001  9.292893e+000
    endloop
  endfacet
  facet normal  9.999999e-001  0.000000e+000  0.000000e+000
    outer loop
      vertex  2.000000e+000  1.500000e+001  3.000000e+000
      vertex  2.000000e+000  1.070711e+001  9.292893e+000
      vertex  2.000000e+000  1.000000e+001  9.000000e+000
    endloop
  endfacet
  facet normal  1.000000e+000  0.000000e+000  0.000000e+000
    outer loop
      vertex  2.000000e+000  1.500000e+001  3.000000e+000
      vertex  2.000000e+000  1.000000e+001  9.000000e+000
      vertex  2.000000e+000  9.270510e-001  5.853169e+000
    endloop
  endfacet
  facet normal  1.000000e+000  0.000000e+000  0.000000e+000
    outer loop
      vertex  2.000000e+000  1.500000e+001  3.000000e+000
      vertex  2.000000e+000  9.270510e-001  5.853169e+000
      vertex  2.000000e+000  2.427051e+000  4.763356e+000
    endloop
  endfacet
  facet normal  9.999999e-001  0.000000e+000  0.000000e+000
    outer loop
      vertex  2.000000e+000  1.500000e+001  3.000000e+000
      vertex  2.000000e+000  2.427051e+000  4.763356e+000
      vertex  2.000000e+000  3.000000e+000  3.000000e+000
    endloop
  endfacet
  facet normal  1.000000e+000  0.000000e+000  0.000000e+000
    outer loop
      vertex  2.000000e+000 -1.500000e+001  1.000000e+001
      vertex  2.000000e+000 -1.500000e+001  3.000000e+000
      vertex  2.000000e+000 -2.427051e+000  4.763356e+000
    endloop
  endfacet
  facet normal  1.000000e+000  0.000000e+000  -0.000000e+000
    outer loop
      vertex  2.000000e+000 -1.500000e+001  1.000000e+001
      vertex  2.000000e+000 -2.427051e+000  4.763356e+000
      vertex  2.000000e+000 -9.270510e-001  5.853169e+000
    endloop
  endfacet
  facet normal  1.000000e+000  0.000000e+000  0.000000e+000
    outer loop
      vertex  2.000000e+000 -1.500000e+001  1.000000e+001
      vertex  2.000000e+000 -9.270510e-001  5.853169e+000
      vertex  2.000000e+000 -1.000000e+001  9.000000e+000
    endloop
  endfacet
  facet normal  9.999999e-001  0.000000e+000  0.000000e+000
    outer loop
      vertex  2.000000e+000 -1.500000e+001  1.000000e+001
      vertex  2.000000e+000 -1.000000e+001  9.000000e+000
      vertex  2.000000e+000 -1.070711e+001  9.292893e+000
    endloop
  endfacet
  facet normal  9.999999e-001  0.000000e+000  0.000000e+000
    outer loop
      vertex  2.000000e+000 -1.500000e+001  1.000000e+001
      vertex  2.000000e+000 -1.070711e+001  9.292893e+000
      vertex  2.000000e+000 -1.100000e+001  1.000000e+001
    endloop
  endfacet
  facet normal  9.999999e-001  -0.000000e+000  0.000000e+000
    outer loop
      vertex  2.000000e+000  9.000000e+000  1.000000e+001
      vertex  2.000000e+000  1.000000e+000  1.000000e+001
      vertex  2.000000e+000  9.292893e+000  9.292893e+000
    endloop
  endfacet
  facet normal  1.000000e+000  0.000000e+000  0.000000e+000
    outer loop
      vertex  2.000000e+000  9.292893e+000  9.292893e+000
      vertex  2.000000e+000  1.000000e+000  1.000000e+001
      vertex  2.000000e+000  7.071068e-001  9.292893e+000
    endloop
  endfacet
  facet normal  1.000000e+000  -0.000000e+000  0.000000e+000
    outer loop
      vertex  2.000000e+000  9.292893e+000  9.292893e+000
      vertex  2.000000e+000  7.071068e-001  9.292893e+000
      vertex  2.000000e+000  1.000000e+001  9.000000e+000
    endloop
  endfacet
  facet normal  1.000000e+000  0.000000e+000  0.000000e+000
    outer loop
      vertex  2.000000e+000  1.000000e+001  9.000000e+000
      vertex  2.000000e+000  7.071068e-001  9.292893e+000
      vertex  2.000000e+000 -1.836910e-016  9.000000e+000
    endloop
  endfacet
  facet normal  9.999999e-001  -0.000000e+000  0.000000e+000
    outer loop
      vertex  2.000000e+000  1.000000e+001  9.000000e+000
      vertex  2.000000e+000 -1.836910e-016  9.000000e+000
      vertex  2.000000e+000  9.270510e-001  5.853169e+000
    endloop
  endfacet
  facet normal  1.000000e+000  0.000000e+000  0.000000e+000
    outer loop
      vertex  2.000000e+000  9.270510e-001  5.853169e+000
      vertex  2.000000e+000 -1.836910e-016  9.000000e+000
      vertex  2.000000e+000 -9.270510e-001  5.853169e+000
    endloop
  endfacet
  facet normal  9.999999e-001  -0.000000e+000  0.000000e+000
    outer loop
      vertex  2.000000e+000 -1.000000e+000  1.000000e+001
      vertex  2.000000e+000 -9.000000e+000  1.000000e+001
      vertex  2.000000e+000 -7.071068e-001  9.292893e+000
    endloop
  endfacet
  facet normal  1.000000e+000  0.000000e+000  0.000000e+000
    outer loop
      vertex  2.000000e+000 -7.071068e-001  9.292893e+000
      vertex  2.000000e+000 -9.000000e+000  1.000000e+001
      vertex  2.000000e+000 -9.292893e+000  9.292893e+000
    endloop
  endfacet
  facet normal  1.000000e+000  -0.000000e+000  0.000000e+000
    outer loop
      vertex  2.000000e+000 -7.071068e-001  9.292893e+000
      vertex  2.000000e+000 -9.292893e+000  9.292893e+000
      vertex  2.000000e+000 -1.836910e-016  9.000000e+000
    endloop
  endfacet
  facet normal  1.000000e+000  0.000000e+000  0.000000e+000
    outer loop
      vertex  2.000000e+000 -1.836910e-016  9.000000e+000
      vertex  2.000000e+000 -9.292893e+000  9.292893e+000
      vertex  2.000000e+000 -1.000000e+001  9.000000e+000
    endloop
  endfacet
  facet normal  9.999999e-001  -0.000000e+000  0.000000e+000
    outer loop
      vertex  2.000000e+000 -1.836910e-016  9.000000e+000
      vertex  2.000000e+000 -1.000000e+001  9.000000e+000
      vertex  2.000000e+000 -9.270510e-001  5.853169e+000
    endloop
  endfacet
  facet normal -9.999999e-001  0.000000e+000  0.000000e+000
    outer loop
      vertex -2.000000e+000 -1.500000e+001  3.000000e+000
      vertex -2.000000e+000 -2.427051e+000  4.763356e+000
      vertex -2.000000e+000 -3.000000e+000  3.000000e+000
    endloop
  endfacet
  facet normal -9.999999e-001  0.000000e+000  0.000000e+000
    outer loop
      vertex -2.000000e+000  1.500000e+001  3.000000e+000
      vertex -2.000000e+000  3.000000e+000  3.000000e+000
      vertex -2.000000e+000  2.427051e+000  4.763356e+000
    endloop
  endfacet
  facet normal -1.000000e+000  0.000000e+000  0.000000e+000
    outer loop
      vertex -2.000000e+000  1.500000e+001  3.000000e+000
      vertex -2.000000e+000  2.427051e+000  4.763356e+000
      vertex -2.000000e+000  9.270510e-001  5.853169e+000
    endloop
  endfacet
  facet normal -1.000000e+000  0.000000e+000  0.000000e+000
    outer loop
      vertex -2.000000e+000  1.500000e+001  3.000000e+000
      vertex -2.000000e+000  9.270510e-001  5.853169e+000
      vertex -2.000000e+000  1.000000e+001  9.000000e+000
    endloop
  endfacet
  facet normal -9.999999e-001  0.000000e+000  0.000000e+000
    outer loop
      vertex -2.000000e+000  1.500000e+001  3.000000e+000
      vertex -2.000000e+000  1.000000e+001  9.000000e+000
      vertex -2.000000e+000  1.070711e+001  9.292893e+000
    endloop
  endfacet
  facet normal -1.000000e+000  0.000000e+000  0.000000e+000
    outer loop
      vertex -2.000000e+000  1.500000e+001  3.000000e+000
      vertex -2.000000e+000  1.070711e+001  9.292893e+000
      vertex -2.000000e+000  1.100000e+001  1.000000e+001
    endloop
  endfacet
  facet normal -1.000000e+000  0.000000e+000  0.000000e+000
    outer loop
      vertex -2.000000e+000  1.500000e+001  3.000000e+000
      vertex -2.000000e+000  1.100000e+001  1.000000e+001
      vertex -2.000000e+000  1.500000e+001  1.000000e+001
    endloop
  endfacet
  facet normal -9.999999e-001  -0.000000e+000  -0.000000e+000
    outer loop
      vertex -2.000000e+000 -1.500000e+001  1.000000e+001
      vertex -2.000000e+000 -1.100000e+001  1.000000e+001
      vertex -2.000000e+000 -1.070711e+001  9.292893e+000
    endloop
  endfacet
  facet normal -9.999999e-001  -0.000000e+000  -0.000000e+000
    outer loop
      vertex -2.000000e+000 -1.500000e+001  1.000000e+001
      vertex -2.000000e+000 -1.070711e+001  9.292893e+000
      vertex -2.000000e+000 -1.000000e+001  9.000000e+000
    endloop
  endfacet
  facet normal -1.000000e+000  -0.000000e+000  -0.000000e+000
    outer loop
      vertex -2.000000e+000 -1.500000e+001  1.000000e+001
      vertex -2.000000e+000 -1.000000e+001  9.000000e+000
      vertex -2.000000e+000 -9.270510e-001  5.853169e+000
    endloop
  endfacet
  facet normal -1.000000e+000  -0.000000e+000  0.000000e+000
    outer loop
      vertex -2.000000e+000 -1.500000e+001  1.000000e+001
      vertex -2.000000e+000 -9.270510e-001  5.853169e+000
      vertex -2.000000e+000 -2.427051e+000  4.763356e+000
    endloop
  endfacet
  facet normal -1.000000e+000  -0.000000e+000  0.000000e+000
    outer loop
      vertex -2.000000e+000 -1.500000e+001  1.000000e+001
      vertex -2.000000e+000 -2.427051e+000  4.763356e+000
      vertex -2.000000e+000 -1.500000e+001  3.000000e+000
    endloop
  endfacet
  facet normal -9.999999e-001  -0.000000e+000  0.000000e+000
    outer loop
      vertex -2.000000e+000  1.000000e+000  1.000000e+001
      vertex -2.000000e+000  9.000000e+000  1.000000e+001
      vertex -2.000000e+000  7.071068e-001  9.292893e+000
    endloop
  endfacet
  facet normal -1.000000e+000  0.000000e+000  0.000000e+000
    outer loop
      vertex -2.000000e+000  7.071068e-001  9.292893e+000
      vertex -2.000000e+000  9.000000e+000  1.000000e+001
      vertex -2.000000e+000  9.292893e+000  9.292893e+000
    endloop
  endfacet
  facet normal -1.000000e+000  -0.000000e+000  0.000000e+000
    outer loop
      vertex -2.000000e+000  7.071068e-001  9.292893e+000
      vertex -2.000000e+000  9.292893e+000  9.292893e+000
      vertex -2.000000e+000 -1.836910e-016  9.000000e+000
    endloop
  endfacet
  facet normal -1.000000e+000  0.000000e+000  0.000000e+000
    outer loop
      vertex -2.000000e+000 -1.836910e-016  9.000000e+000
      vertex -2.000000e+000  9.292893e+000  9.292893e+000
      vertex -2.000000e+000  1.000000e+001  9.000000e+000
    endloop
  endfacet
  facet normal -9.999999e-001  -0.000000e+000  0.000000e+000
    outer loop
      vertex -2.000000e+000 -1.836910e-016  9.000000e+000
      vertex -2.000000e+000  1.000000e+001  9.000000e+000
      vertex -2.000000e+000 -9.270510e-001  5.853169e+000
    endloop
  endfacet
  facet normal -1.000000e+000  0.000000e+000  0.000000e+000
    outer loop
      vertex -2.000000e+000 -9.270510e-001  5.853169e+000
      vertex -2.000000e+000  1.000000e+001  9.000000e+000
      vertex -2.000000e+000  9.270510e-001  5.853169e+000
    endloop
  endfacet
  facet normal -9.999999e-001  -0.000000e+000  0.000000e+000
    outer loop
      vertex -2.000000e+000 -9.000000e+000  1.000000e+001
      vertex -2.000000e+000 -1.000000e+000  1.000000e+001
      vertex -2.000000e+000 -9.292893e+000  9.292893e+000
    endloop
  endfacet
  facet normal -1.000000e+000  0.000000e+000  0.000000e+000
    outer loop
      vertex -2.000000e+000 -9.292893e+000  9.292893e+000
      vertex -2.000000e+000 -1.000000e+000  1.000000e+001
      vertex -2.000000e+000 -7.071068e-001  9.292893e+000
    endloop
  endfacet
  facet normal -1.000000e+000  -0.000000e+000  0.000000e+000
    outer loop
      vertex -2.000000e+000 -9.292893e+000  9.292893e+000
      vertex -2.000000e+000 -7.071068e-001  9.292893e+000
      vertex -2.000000e+000 -1.000000e+001  9.000000e+000
    endloop
  endfacet
  facet normal -1.000000e+000  0.000000e+000  0.000000e+000
    outer loop
      vertex -2.000000e+000 -1.000000e+001  9.000000e+000
      vertex -2.000000e+000 -7.071068e-001  9.292893e+000
      vertex -2.000000e+000 -1.836910e-016  9.000000e+000
    endloop
  endfacet
  facet normal -9.999999e-001  -0.000000e+000  0.000000e+000
    outer loop
      vertex -2.000000e+000 -1.000000e+001  9.000000e+000
      vertex -2.000000e+000 -1.836910e-016  9.000000e+000
      vertex -2.000000e+000 -9.270510e-001  5.853169e+000
    endloop
  endfacet
  facet normal  0.000000e+000  0.000000e+000 -1.000000e+000
    outer loop
      vertex  2.000000e+000  1.500000e+001  3.000000e+000
      vertex  2.000000e+000  3.000000e+000  3.000000e+000
      vertex -2.000000e+000  1.500000e+001  3.000000e+000
    endloop
  endfacet
  facet normal  0.000000e+000  0.000000e+000 -1.000000e+000
    outer loop
      vertex -2.000000e+000  1.500000e+001  3.000000e+000
      vertex  2.000000e+000  3.000000e+000  3.000000e+000
      vertex -2.000000e+000  3.000000e+000  3.000000e+000
    endloop
  endfacet
  facet normal  0.000000e+000  0.000000e+000 -1.000000e+000
    outer loop
      vertex  2.000000e+000 -3.000000e+000  3.000000e+000
      vertex  2.000000e+000 -1.500000e+001  3.000000e+000
      vertex -2.000000e+000 -3.000000e+000  3.000000e+000
    endloop
  endfacet
  facet normal  0.000000e+000  0.000000e+000 -1.000000e+000
    outer loop
      vertex -2.000000e+000 -3.000000e+000  3.000000e+000
      vertex  2.000000e+000 -1.500000e+001  3.000000e+000
      vertex -2.000000e+000 -1.500000e+001  3.000000e+000
    endloop
  endfacet
  facet normal  0.000000e+000  1.000000e+000  -0.000000e+000
    outer loop
      vertex  2.000000e+000  1.500000e+001  1.000000e+001
      vertex  2.000000e+000  1.500000e+001  3.000000e+000
      vertex -2.000000e+000  1.500000e+001  1.000000e+001
    endloop
  endfacet
  facet normal  0.000000e+000  1.000000e+000  0.000000e+000
    outer loop
      vertex -2.000000e+000  1.500000e+001  1.000000e+001
      vertex  2.000000e+000  1.500000e+001  3.000000e+000
      vertex -2.000000e+000  1.500000e+001  3.000000e+000
    endloop
  endfacet
  facet normal  0.000000e+000 -1.000000e+000  -0.000000e+000
    outer loop
      vertex  2.000000e+000 -1.500000e+001  3.000000e+000
      vertex  2.000000e+000 -1.500000e+001  1.000000e+001
      vertex -2.000000e+000 -1.500000e+001  3.000000e+000
    endloop
  endfacet
  facet normal  0.000000e+000 -1.000000e+000  0.000000e+000
    outer loop
      vertex -2.000000e+000 -1.500000e+001  3.000000e+000
      vertex  2.000000e+000 -1.500000e+001  1.000000e+001
      vertex -2.000000e+000 -1.500000e+001  1.000000e+001
    endloop
  endfacet
  facet normal  -0.000000e+000  0.000000e+000  1.000000e+000
    outer loop
      vertex  2.000000e+000 -1.100000e+001  1.000000e+001
      vertex -2.000000e+000 -1.100000e+001  1.000000e+001
      vertex  2.000000e+000 -1.500000e+001  1.000000e+001
    endloop
  endfacet
  facet normal  0.000000e+000  0.000000e+000  1.000000e+000
    outer loop
      vertex  2.000000e+000 -1.500000e+001  1.000000e+001
      vertex -2.000000e+000 -1.100000e+001  1.000000e+001
      vertex -2.000000e+000 -1.500000e+001  1.000000e+001
    endloop
  endfacet
  facet normal  -0.000000e+000  0.000000e+000  1.000000e+000
    outer loop
      vertex  2.000000e+000  1.500000e+001  1.000000e+001
      vertex -2.000000e+000  1.500000e+001  1.000000e+001
      vertex  2.000000e+000  1.100000e+001  1.000000e+001
    endloop
  endfacet
  facet normal  0.000000e+000  0.000000e+000  1.000000e+000
    outer loop
      vertex  2.000000e+000  1.100000e+001  1.000000e+001
      vertex -2.000000e+000  1.500000e+001  1.000000e+001
      vertex -2.000000e+000  1.100000e+001  1.000000e+001
    endloop
  endfacet
  facet normal  0.000000e+000 -9.238794e-001  3.826837e-001
    outer loop
      vertex  2.000000e+000 -9.000000e+000  1.000000e+001
      vertex -2.000000e+000 -9.000000e+000  1.000000e+001
      vertex  2.000000e+000 -9.292893e+000  9.292893e+000
    endloop
  endfacet
  facet normal  0.000000e+000 -9.238794e-001  3.826837e-001
    outer loop
      vertex  2.000000e+000 -9.292893e+000  9.292893e+000
      vertex -2.000000e+000 -9.000000e+000  1.000000e+001
      vertex -2.000000e+000 -9.292893e+000  9.292893e+000
    endloop
  endfacet
  facet normal  0.000000e+000 -3.826837e-001  9.238794e-001
    outer loop
      vertex  2.000000e+000 -9.292893e+000  9.292893e+000
      vertex -2.000000e+000 -9.292893e+000  9.292893e+000
      vertex  2.000000e+000 -1.000000e+001  9.000000e+000
    endloop
  endfacet
  facet normal  0.000000e+000 -3.826837e-001  9.238794e-001
    outer loop
      vertex  2.000000e+000 -1.000000e+001  9.000000e+000
      vertex -2.000000e+000 -9.292893e+000  9.292893e+000
      vertex -2.000000e+000 -1.000000e+001  9.000000e+000
    endloop
  endfacet
  facet normal  -0.000000e+000  3.826837e-001  9.238794e-001
    outer loop
      vertex  2.000000e+000 -1.000000e+001  9.000000e+000
      vertex -2.000000e+000 -1.000000e+001  9.000000e+000
      vertex  2.000000e+000 -1.070711e+001  9.292893e+000
    endloop
  endfacet
  facet normal  0.000000e+000  3.826837e-001  9.238794e-001
    outer loop
      vertex  2.000000e+000 -1.070711e+001  9.292893e+000
      vertex -2.000000e+000 -1.000000e+001  9.000000e+000
      vertex -2.000000e+000 -1.070711e+001  9.292893e+000
    endloop
  endfacet
  facet normal  -0.000000e+000  9.238794e-001  3.826837e-001
    outer loop
      vertex  2.000000e+000 -1.070711e+001  9.292893e+000
      vertex -2.000000e+000 -1.070711e+001  9.292893e+000
      vertex  2.000000e+000 -1.100000e+001  1.000000e+001
    endloop
  endfacet
  facet normal  0.000000e+000  9.238794e-001  3.826837e-001
    outer loop
      vertex  2.000000e+000 -1.100000e+001  1.000000e+001
      vertex -2.000000e+000 -1.070711e+001  9.292893e+000
      vertex -2.000000e+000 -1.100000e+001  1.000000e+001
    endloop
  endfacet
  facet normal  0.000000e+000 -9.238794e-001  3.826837e-001
    outer loop
      vertex  2.000000e+000  1.100000e+001  1.000000e+001
      vertex -2.000000e+000  1.100000e+001  1.000000e+001
      vertex  2.000000e+000  1.070711e+001  9.292893e+000
    endloop
  endfacet
  facet normal  0.000000e+000 -9.238794e-001  3.826837e-001
    outer loop
      vertex  2.000000e+000  1.070711e+001  9.292893e+000
      vertex -2.000000e+000  1.100000e+001  1.000000e+001
      vertex -2.000000e+000  1.070711e+001  9.292893e+000
    endloop
  endfacet
  facet normal  0.000000e+000 -3.826837e-001  9.238794e-001
    outer loop
      vertex  2.000000e+000  1.070711e+001  9.292893e+000
      vertex -2.000000e+000  1.070711e+001  9.292893e+000
      vertex  2.000000e+000  1.000000e+001  9.000000e+000
    endloop
  endfacet
  facet normal  0.000000e+000 -3.826837e-001  9.238794e-001
    outer loop
      vertex  2.000000e+000  1.000000e+001  9.000000e+000
      vertex -2.000000e+000  1.070711e+001  9.292893e+000
      vertex -2.000000e+000  1.000000e+001  9.000000e+000
    endloop
  endfacet
  facet normal  -0.000000e+000  3.826837e-001  9.238794e-001
    outer loop
      vertex  2.000000e+000  1.000000e+001  9.000000e+000
      vertex -2.000000e+000  1.000000e+001  9.000000e+000
      vertex  2.000000e+000  9.292893e+000  9.292893e+000
    endloop
  endfacet
  facet normal  0.000000e+000  3.826837e-001  9.238794e-001
    outer loop
      vertex  2.000000e+000  9.292893e+000  9.292893e+000
      vertex -2.000000e+000  1.000000e+001  9.000000e+000
      vertex -2.000000e+000  9.292893e+000  9.292893e+000
    endloop
  endfacet
  facet normal  -0.000000e+000  9.238794e-001  3.826837e-001
    outer loop
      vertex  2.000000e+000  9.292893e+000  9.292893e+000
      vertex -2.000000e+000  9.292893e+000  9.292893e+000
      vertex  2.000000e+000  9.000000e+000  1.000000e+001
    endloop
  endfacet
  facet normal  0.000000e+000  9.238794e-001  3.826837e-001
    outer loop
      vertex  2.000000e+000  9.000000e+000  1.000000e+001
      vertex -2.000000e+000  9.292893e+000  9.292893e+000
      vertex -2.000000e+000  9.000000e+000  1.000000e+001
    endloop
  endfacet
  facet normal  0.000000e+000 -9.238795e-001  3.826835e-001
    outer loop
      vertex  2.000000e+000  1.000000e+000  1.000000e+001
      vertex -2.000000e+000  1.000000e+000  1.000000e+001
      vertex  2.000000e+000  7.071068e-001  9.292893e+000
    endloop
  endfacet
  facet normal  0.000000e+000 -9.238795e-001  3.826835e-001
    outer loop
      vertex  2.000000e+000  7.071068e-001  9.292893e+000
      vertex -2.000000e+000  1.000000e+000  1.000000e+001
      vertex -2.000000e+000  7.071068e-001  9.292893e+000
    endloop
  endfacet
  facet normal  0.000000e+000 -3.826837e-001  9.238794e-001
    outer loop
      vertex  2.000000e+000  7.071068e-001  9.292893e+000
      vertex -2.000000e+000  7.071068e-001  9.292893e+000
      vertex  2.000000e+000 -1.836910e-016  9.000000e+000
    endloop
  endfacet
  facet normal  0.000000e+000 -3.826837e-001  9.238794e-001
    outer loop
      vertex  2.000000e+000 -1.836910e-016  9.000000e+000
      vertex -2.000000e+000  7.071068e-001  9.292893e+000
      vertex -2.000000e+000 -1.836910e-016  9.000000e+000
    endloop
  endfacet
  facet normal  -0.000000e+000  3.826837e-001  9.238794e-001
    outer loop
      vertex  2.000000e+000 -1.836910e-016  9.000000e+000
      vertex -2.000000e+000 -1.836910e-016  9.000000e+000
      vertex  2.000000e+000 -7.071068e-001  9.292893e+000
    endloop
  endfacet
  facet normal  0.000000e+000  3.826837e-001  9.238794e-001
    outer loop
      vertex  2.000000e+000 -7.071068e-001  9.292893e+000
      vertex -2.000000e+000 -1.836910e-016  9.000000e+000
      vertex -2.000000e+000 -7.071068e-001  9.292893e+000
    endloop
  endfacet
  facet normal  -0.000000e+000  9.238795e-001  3.826835e-001
    outer loop
      vertex  2.000000e+000 -7.071068e-001  9.292893e+000
      vertex -2.000000e+000 -7.071068e-001  9.292893e+000
      vertex  2.000000e+000 -1.000000e+000  1.000000e+001
    endloop
  endfacet
  facet normal  0.000000e+000  9.238795e-001  3.826835e-001
    outer loop
      vertex  2.000000e+000 -1.000000e+000  1.000000e+001
      vertex -2.000000e+000 -7.071068e-001  9.292893e+000
      vertex -2.000000e+000 -1.000000e+000  1.000000e+001
    endloop
  endfacet
  facet normal  -0.000000e+000  0.000000e+000  1.000000e+000
    outer loop
      vertex  2.000000e+000 -1.000000e+000  1.000000e+001
      vertex -2.000000e+000 -1.000000e+000  1.000000e+001
      vertex  2.000000e+000 -9.000000e+000  1.000000e+001
    endloop
  endfacet
  facet normal  0.000000e+000  0.000000e+000  1.000000e+000
    outer loop
      vertex  2.000000e+000 -9.000000e+000  1.000000e+001
      vertex -2.000000e+000 -1.000000e+000  1.000000e+001
      vertex -2.000000e+000 -9.000000e+000  1.000000e+001
    endloop
  endfacet
  facet normal  -0.000000e+000  0.000000e+000  1.000000e+000
    outer loop
      vertex  2.000000e+000  9.000000e+000  1.000000e+001
      vertex -2.000000e+000  9.000000e+000  1.000000e+001
      vertex  2.000000e+000  1.000000e+000  1.000000e+001
    endloop
  endfacet
  facet normal  0.000000e+000  0.000000e+000  1.000000e+000
    outer loop
      vertex  2.000000e+000  1.000000e+000  1.000000e+001
      vertex -2.000000e+000  9.000000e+000  1.000000e+001
      vertex -2.000000e+000  1.000000e+000  1.000000e+001
    endloop
  endfacet
endsolid CATIA STL
