solid CATIA STL
  facet normal  2.359544e-001  9.717641e-001  -0.000000e+000
    outer loop
      vertex  2.397128e+000  4.387913e+000  2.000000e+001
      vertex -1.179829e-001  4.998608e+000  0.000000e+000
      vertex -1.179829e-001  4.998608e+000  2.000000e+001
    endloop
  endfacet
  facet normal -9.938626e-001  1.106041e-001  1.995031e-003
    outer loop
      vertex -4.998608e+000 -1.179829e-001  2.000000e+001
      vertex -4.934999e+000  8.036103e-001  5.951558e-001
      vertex -4.991750e+000  2.871139e-001  9.578965e-001
    endloop
  endfacet
  facet normal -9.999838e-001 -5.671544e-003 -4.807918e-004
    outer loop
      vertex -4.991750e+000  2.871139e-001  9.578965e-001
      vertex -4.988162e+000 -3.438588e-001  9.390213e-001
      vertex -4.998608e+000 -1.179829e-001  2.000000e+001
    endloop
  endfacet
  facet normal -9.929009e-001 -1.189413e-001  8.653561e-004
    outer loop
      vertex -4.998608e+000 -1.179829e-001  2.000000e+001
      vertex -4.988162e+000 -3.438588e-001  9.390213e-001
      vertex -4.929392e+000 -8.373120e-001  5.467254e-001
    endloop
  endfacet
  facet normal -9.927569e-001  1.201175e-001 -2.366370e-003
    outer loop
      vertex -4.988162e+000  3.438588e-001 -9.390213e-001
      vertex -4.929392e+000  8.373120e-001 -5.467254e-001
      vertex -4.998608e+000 -1.179829e-001 -2.000000e+001
    endloop
  endfacet
  facet normal -9.999838e-001  5.673646e-003  4.105298e-004
    outer loop
      vertex -4.988162e+000  3.438588e-001 -9.390213e-001
      vertex -4.998608e+000 -1.179829e-001 -2.000000e+001
      vertex -4.991750e+000 -2.871139e-001 -9.578965e-001
    endloop
  endfacet
  facet normal -9.939704e-001 -1.096474e-001 -6.159112e-004
    outer loop
      vertex -4.934999e+000 -8.036103e-001 -5.951558e-001
      vertex -4.991750e+000 -2.871139e-001 -9.578965e-001
      vertex -4.998608e+000 -1.179829e-001 -2.000000e+001
    endloop
  endfacet
  facet normal -6.902245e-001 -7.235952e-001  -0.000000e+000
    outer loop
      vertex -2.397128e+000 -4.387913e+000 -2.000000e+001
      vertex -4.269930e+000 -2.601480e+000  0.000000e+000
      vertex -4.269930e+000 -2.601480e+000 -2.000000e+001
    endloop
  endfacet
  facet normal  2.359544e-001  9.717641e-001  -0.000000e+000
    outer loop
      vertex  2.397128e+000  4.387913e+000  2.000000e+001
      vertex  2.397128e+000  4.387913e+000 -2.000000e+001
      vertex -1.179829e-001  4.998608e+000  0.000000e+000
    endloop
  endfacet
  facet normal  2.359544e-001  9.717641e-001  0.000000e+000
    outer loop
      vertex -1.179829e-001  4.998608e+000  0.000000e+000
      vertex  2.397128e+000  4.387913e+000 -2.000000e+001
      vertex -1.179829e-001  4.998608e+000 -2.000000e+001
    endloop
  endfacet
  facet normal -2.815395e-001  9.595497e-001  0.000000e+000
    outer loop
      vertex -1.179829e-001  4.998608e+000  0.000000e+000
      vertex -1.179829e-001  4.998608e+000 -2.000000e+001
      vertex -2.601480e+000  4.269930e+000  0.000000e+000
    endloop
  endfacet
  facet normal -2.815395e-001  9.595497e-001  0.000000e+000
    outer loop
      vertex -2.601480e+000  4.269930e+000  0.000000e+000
      vertex -1.179829e-001  4.998608e+000 -2.000000e+001
      vertex -2.601480e+000  4.269930e+000 -2.000000e+001
    endloop
  endfacet
  facet normal -7.235952e-001  6.902245e-001  0.000000e+000
    outer loop
      vertex -2.601480e+000  4.269930e+000  0.000000e+000
      vertex -2.601480e+000  4.269930e+000 -2.000000e+001
      vertex -4.387913e+000  2.397128e+000  0.000000e+000
    endloop
  endfacet
  facet normal -7.235952e-001  6.902245e-001  0.000000e+000
    outer loop
      vertex -4.387913e+000  2.397128e+000  0.000000e+000
      vertex -2.601480e+000  4.269930e+000 -2.000000e+001
      vertex -4.387913e+000  2.397128e+000 -2.000000e+001
    endloop
  endfacet
  facet normal -9.391397e-001  3.435357e-001  0.000000e+000
    outer loop
      vertex -4.387913e+000  2.397128e+000  0.000000e+000
      vertex -4.387913e+000  2.397128e+000 -2.000000e+001
      vertex -4.898980e+000  1.000000e+000  0.000000e+000
    endloop
  endfacet
  facet normal -9.717302e-001  2.359462e-001 -8.348613e-003
    outer loop
      vertex -4.898980e+000  1.000000e+000  0.000000e+000
      vertex -4.387913e+000  2.397128e+000 -2.000000e+001
      vertex -4.998608e+000 -1.179829e-001 -2.000000e+001
    endloop
  endfacet
  facet normal -9.787176e-001  2.051060e-001 -6.589865e-003
    outer loop
      vertex -4.898980e+000  1.000000e+000  0.000000e+000
      vertex -4.998608e+000 -1.179829e-001 -2.000000e+001
      vertex -4.929392e+000  8.373120e-001 -5.467254e-001
    endloop
  endfacet
  facet normal -6.902245e-001 -7.235952e-001  -0.000000e+000
    outer loop
      vertex -2.397128e+000 -4.387913e+000 -2.000000e+001
      vertex -2.397128e+000 -4.387913e+000  2.000000e+001
      vertex -4.269930e+000 -2.601480e+000  0.000000e+000
    endloop
  endfacet
  facet normal -6.902245e-001 -7.235952e-001  0.000000e+000
    outer loop
      vertex -4.269930e+000 -2.601480e+000  0.000000e+000
      vertex -2.397128e+000 -4.387913e+000  2.000000e+001
      vertex -4.269930e+000 -2.601480e+000  2.000000e+001
    endloop
  endfacet
  facet normal -9.307718e-001 -3.656004e-001  -0.000000e+000
    outer loop
      vertex -4.269930e+000 -2.601480e+000  0.000000e+000
      vertex -4.269930e+000 -2.601480e+000  2.000000e+001
      vertex -4.898980e+000 -1.000000e+000  1.224606e-016
    endloop
  endfacet
  facet normal -9.595217e-001 -2.815313e-001  7.636010e-003
    outer loop
      vertex -4.898980e+000 -1.000000e+000  1.224606e-016
      vertex -4.269930e+000 -2.601480e+000  2.000000e+001
      vertex -4.998608e+000 -1.179829e-001  2.000000e+001
    endloop
  endfacet
  facet normal -9.806094e-001 -1.959367e-001  3.756169e-003
    outer loop
      vertex -4.898980e+000 -1.000000e+000  1.224606e-016
      vertex -4.998608e+000 -1.179829e-001  2.000000e+001
      vertex -4.929392e+000 -8.373120e-001  5.467254e-001
    endloop
  endfacet
  facet normal -2.815395e-001  9.595497e-001  0.000000e+000
    outer loop
      vertex -1.179829e-001  4.998608e+000  2.000000e+001
      vertex -1.179829e-001  4.998608e+000  0.000000e+000
      vertex -2.601480e+000  4.269930e+000  2.000000e+001
    endloop
  endfacet
  facet normal -2.815395e-001  9.595497e-001  0.000000e+000
    outer loop
      vertex -2.601480e+000  4.269930e+000  2.000000e+001
      vertex -1.179829e-001  4.998608e+000  0.000000e+000
      vertex -2.601480e+000  4.269930e+000  0.000000e+000
    endloop
  endfacet
  facet normal -7.235952e-001  6.902245e-001  0.000000e+000
    outer loop
      vertex -2.601480e+000  4.269930e+000  2.000000e+001
      vertex -2.601480e+000  4.269930e+000  0.000000e+000
      vertex -4.387913e+000  2.397128e+000  2.000000e+001
    endloop
  endfacet
  facet normal -7.235952e-001  6.902245e-001  0.000000e+000
    outer loop
      vertex -4.387913e+000  2.397128e+000  2.000000e+001
      vertex -2.601480e+000  4.269930e+000  0.000000e+000
      vertex -4.387913e+000  2.397128e+000  0.000000e+000
    endloop
  endfacet
  facet normal -9.717641e-001  2.359544e-001  0.000000e+000
    outer loop
      vertex -4.387913e+000  2.397128e+000  2.000000e+001
      vertex -4.387913e+000  2.397128e+000  0.000000e+000
      vertex -4.998608e+000 -1.179829e-001  2.000000e+001
    endloop
  endfacet
  facet normal -9.390405e-001  3.434995e-001  1.452359e-002
    outer loop
      vertex -4.998608e+000 -1.179829e-001  2.000000e+001
      vertex -4.387913e+000  2.397128e+000  0.000000e+000
      vertex -4.898980e+000  1.000000e+000  0.000000e+000
    endloop
  endfacet
  facet normal -9.800618e-001  1.985956e-001  6.219243e-003
    outer loop
      vertex -4.998608e+000 -1.179829e-001  2.000000e+001
      vertex -4.898980e+000  1.000000e+000  0.000000e+000
      vertex -4.934999e+000  8.036103e-001  5.951558e-001
    endloop
  endfacet
  facet normal -9.595497e-001 -2.815395e-001  -0.000000e+000
    outer loop
      vertex -4.269930e+000 -2.601480e+000 -2.000000e+001
      vertex -4.269930e+000 -2.601480e+000  0.000000e+000
      vertex -4.998608e+000 -1.179829e-001 -2.000000e+001
    endloop
  endfacet
  facet normal -9.307104e-001 -3.655763e-001 -1.148599e-002
    outer loop
      vertex -4.998608e+000 -1.179829e-001 -2.000000e+001
      vertex -4.269930e+000 -2.601480e+000  0.000000e+000
      vertex -4.898980e+000 -1.000000e+000  1.224606e-016
    endloop
  endfacet
  facet normal -9.816408e-001 -1.907062e-001 -3.520364e-003
    outer loop
      vertex -4.998608e+000 -1.179829e-001 -2.000000e+001
      vertex -4.898980e+000 -1.000000e+000  1.224606e-016
      vertex -4.934999e+000 -8.036103e-001 -5.951558e-001
    endloop
  endfacet
  facet normal -2.359544e-001 -9.717641e-001  0.000000e+000
    outer loop
      vertex -2.397128e+000 -4.387913e+000  2.000000e+001
      vertex  1.179829e-001 -4.998608e+000  0.000000e+000
      vertex  1.179829e-001 -4.998608e+000  2.000000e+001
    endloop
  endfacet
  facet normal  9.927569e-001 -1.201175e-001  2.366370e-003
    outer loop
      vertex  4.998608e+000  1.179829e-001  2.000000e+001
      vertex  4.929392e+000 -8.373120e-001  5.467254e-001
      vertex  4.988162e+000 -3.438588e-001  9.390213e-001
    endloop
  endfacet
  facet normal  9.999838e-001 -5.673646e-003 -4.105298e-004
    outer loop
      vertex  4.988162e+000 -3.438588e-001  9.390213e-001
      vertex  4.991750e+000  2.871139e-001  9.578965e-001
      vertex  4.998608e+000  1.179829e-001  2.000000e+001
    endloop
  endfacet
  facet normal  9.939704e-001  1.096474e-001  6.159112e-004
    outer loop
      vertex  4.998608e+000  1.179829e-001  2.000000e+001
      vertex  4.991750e+000  2.871139e-001  9.578965e-001
      vertex  4.934999e+000  8.036103e-001  5.951558e-001
    endloop
  endfacet
  facet normal  9.938626e-001 -1.106041e-001 -1.995031e-003
    outer loop
      vertex  4.991750e+000 -2.871139e-001 -9.578965e-001
      vertex  4.934999e+000 -8.036103e-001 -5.951558e-001
      vertex  4.998608e+000  1.179829e-001 -2.000000e+001
    endloop
  endfacet
  facet normal  9.999838e-001  5.671544e-003  4.807918e-004
    outer loop
      vertex  4.991750e+000 -2.871139e-001 -9.578965e-001
      vertex  4.998608e+000  1.179829e-001 -2.000000e+001
      vertex  4.988162e+000  3.438588e-001 -9.390213e-001
    endloop
  endfacet
  facet normal  9.929009e-001  1.189413e-001 -8.653561e-004
    outer loop
      vertex  4.929392e+000  8.373120e-001 -5.467254e-001
      vertex  4.988162e+000  3.438588e-001 -9.390213e-001
      vertex  4.998608e+000  1.179829e-001 -2.000000e+001
    endloop
  endfacet
  facet normal  6.902245e-001  7.235952e-001  0.000000e+000
    outer loop
      vertex  2.397128e+000  4.387913e+000 -2.000000e+001
      vertex  4.269930e+000  2.601480e+000  0.000000e+000
      vertex  4.269930e+000  2.601480e+000 -2.000000e+001
    endloop
  endfacet
  facet normal -2.359544e-001 -9.717641e-001  0.000000e+000
    outer loop
      vertex -2.397128e+000 -4.387913e+000  2.000000e+001
      vertex -2.397128e+000 -4.387913e+000 -2.000000e+001
      vertex  1.179829e-001 -4.998608e+000  0.000000e+000
    endloop
  endfacet
  facet normal -2.359544e-001 -9.717641e-001  -0.000000e+000
    outer loop
      vertex  1.179829e-001 -4.998608e+000  0.000000e+000
      vertex -2.397128e+000 -4.387913e+000 -2.000000e+001
      vertex  1.179829e-001 -4.998608e+000 -2.000000e+001
    endloop
  endfacet
  facet normal  2.815395e-001 -9.595497e-001  0.000000e+000
    outer loop
      vertex  1.179829e-001 -4.998608e+000  0.000000e+000
      vertex  1.179829e-001 -4.998608e+000 -2.000000e+001
      vertex  2.601480e+000 -4.269930e+000  0.000000e+000
    endloop
  endfacet
  facet normal  2.815395e-001 -9.595497e-001  0.000000e+000
    outer loop
      vertex  2.601480e+000 -4.269930e+000  0.000000e+000
      vertex  1.179829e-001 -4.998608e+000 -2.000000e+001
      vertex  2.601480e+000 -4.269930e+000 -2.000000e+001
    endloop
  endfacet
  facet normal  7.235952e-001 -6.902245e-001  0.000000e+000
    outer loop
      vertex  2.601480e+000 -4.269930e+000  0.000000e+000
      vertex  2.601480e+000 -4.269930e+000 -2.000000e+001
      vertex  4.387913e+000 -2.397128e+000  0.000000e+000
    endloop
  endfacet
  facet normal  7.235952e-001 -6.902245e-001  0.000000e+000
    outer loop
      vertex  4.387913e+000 -2.397128e+000  0.000000e+000
      vertex  2.601480e+000 -4.269930e+000 -2.000000e+001
      vertex  4.387913e+000 -2.397128e+000 -2.000000e+001
    endloop
  endfacet
  facet normal  9.391397e-001 -3.435357e-001  0.000000e+000
    outer loop
      vertex  4.387913e+000 -2.397128e+000  0.000000e+000
      vertex  4.387913e+000 -2.397128e+000 -2.000000e+001
      vertex  4.898980e+000 -1.000000e+000  1.224606e-016
    endloop
  endfacet
  facet normal  9.717302e-001 -2.359462e-001 -8.348613e-003
    outer loop
      vertex  4.898980e+000 -1.000000e+000  1.224606e-016
      vertex  4.387913e+000 -2.397128e+000 -2.000000e+001
      vertex  4.998608e+000  1.179829e-001 -2.000000e+001
    endloop
  endfacet
  facet normal  9.800618e-001 -1.985956e-001 -6.219246e-003
    outer loop
      vertex  4.898980e+000 -1.000000e+000  1.224606e-016
      vertex  4.998608e+000  1.179829e-001 -2.000000e+001
      vertex  4.934999e+000 -8.036103e-001 -5.951558e-001
    endloop
  endfacet
  facet normal  6.902245e-001  7.235952e-001  0.000000e+000
    outer loop
      vertex  2.397128e+000  4.387913e+000 -2.000000e+001
      vertex  2.397128e+000  4.387913e+000  2.000000e+001
      vertex  4.269930e+000  2.601480e+000  0.000000e+000
    endloop
  endfacet
  facet normal  6.902245e-001  7.235952e-001  -0.000000e+000
    outer loop
      vertex  4.269930e+000  2.601480e+000  0.000000e+000
      vertex  2.397128e+000  4.387913e+000  2.000000e+001
      vertex  4.269930e+000  2.601480e+000  2.000000e+001
    endloop
  endfacet
  facet normal  9.307718e-001  3.656004e-001  0.000000e+000
    outer loop
      vertex  4.269930e+000  2.601480e+000  0.000000e+000
      vertex  4.269930e+000  2.601480e+000  2.000000e+001
      vertex  4.898980e+000  1.000000e+000  0.000000e+000
    endloop
  endfacet
  facet normal  9.595217e-001  2.815313e-001  7.636010e-003
    outer loop
      vertex  4.898980e+000  1.000000e+000  0.000000e+000
      vertex  4.269930e+000  2.601480e+000  2.000000e+001
      vertex  4.998608e+000  1.179829e-001  2.000000e+001
    endloop
  endfacet
  facet normal  9.816409e-001  1.907062e-001  3.520364e-003
    outer loop
      vertex  4.898980e+000  1.000000e+000  0.000000e+000
      vertex  4.998608e+000  1.179829e-001  2.000000e+001
      vertex  4.934999e+000  8.036103e-001  5.951558e-001
    endloop
  endfacet
  facet normal  2.815395e-001 -9.595497e-001  0.000000e+000
    outer loop
      vertex  1.179829e-001 -4.998608e+000  2.000000e+001
      vertex  1.179829e-001 -4.998608e+000  0.000000e+000
      vertex  2.601480e+000 -4.269930e+000  2.000000e+001
    endloop
  endfacet
  facet normal  2.815395e-001 -9.595497e-001  0.000000e+000
    outer loop
      vertex  2.601480e+000 -4.269930e+000  2.000000e+001
      vertex  1.179829e-001 -4.998608e+000  0.000000e+000
      vertex  2.601480e+000 -4.269930e+000  0.000000e+000
    endloop
  endfacet
  facet normal  7.235952e-001 -6.902245e-001  0.000000e+000
    outer loop
      vertex  2.601480e+000 -4.269930e+000  2.000000e+001
      vertex  2.601480e+000 -4.269930e+000  0.000000e+000
      vertex  4.387913e+000 -2.397128e+000  2.000000e+001
    endloop
  endfacet
  facet normal  7.235952e-001 -6.902245e-001  0.000000e+000
    outer loop
      vertex  4.387913e+000 -2.397128e+000  2.000000e+001
      vertex  2.601480e+000 -4.269930e+000  0.000000e+000
      vertex  4.387913e+000 -2.397128e+000  0.000000e+000
    endloop
  endfacet
  facet normal  9.717641e-001 -2.359544e-001  0.000000e+000
    outer loop
      vertex  4.387913e+000 -2.397128e+000  2.000000e+001
      vertex  4.387913e+000 -2.397128e+000  0.000000e+000
      vertex  4.998608e+000  1.179829e-001  2.000000e+001
    endloop
  endfacet
  facet normal  9.390405e-001 -3.434995e-001  1.452359e-002
    outer loop
      vertex  4.998608e+000  1.179829e-001  2.000000e+001
      vertex  4.387913e+000 -2.397128e+000  0.000000e+000
      vertex  4.898980e+000 -1.000000e+000  1.224606e-016
    endloop
  endfacet
  facet normal  9.787176e-001 -2.051058e-001  6.589858e-003
    outer loop
      vertex  4.998608e+000  1.179829e-001  2.000000e+001
      vertex  4.898980e+000 -1.000000e+000  1.224606e-016
      vertex  4.929392e+000 -8.373120e-001  5.467254e-001
    endloop
  endfacet
  facet normal  9.595497e-001  2.815395e-001  0.000000e+000
    outer loop
      vertex  4.269930e+000  2.601480e+000 -2.000000e+001
      vertex  4.269930e+000  2.601480e+000  0.000000e+000
      vertex  4.998608e+000  1.179829e-001 -2.000000e+001
    endloop
  endfacet
  facet normal  9.307104e-001  3.655763e-001 -1.148599e-002
    outer loop
      vertex  4.998608e+000  1.179829e-001 -2.000000e+001
      vertex  4.269930e+000  2.601480e+000  0.000000e+000
      vertex  4.898980e+000  1.000000e+000  0.000000e+000
    endloop
  endfacet
  facet normal  9.806094e-001  1.959367e-001 -3.756168e-003
    outer loop
      vertex  4.998608e+000  1.179829e-001 -2.000000e+001
      vertex  4.898980e+000  1.000000e+000  0.000000e+000
      vertex  4.929392e+000  8.373120e-001 -5.467254e-001
    endloop
  endfacet
  facet normal  0.000000e+000  9.584654e-001 -2.852087e-001
    outer loop
      vertex  4.898980e+000 -1.000000e+000  1.224606e-016
      vertex -4.898980e+000 -1.000000e+000  1.224606e-016
      vertex  4.929392e+000 -8.373120e-001  5.467254e-001
    endloop
  endfacet
  facet normal  0.000000e+000  9.584654e-001 -2.852087e-001
    outer loop
      vertex  4.929392e+000 -8.373120e-001  5.467254e-001
      vertex -4.898980e+000 -1.000000e+000  1.224606e-016
      vertex -4.929392e+000 -8.373120e-001  5.467254e-001
    endloop
  endfacet
  facet normal  0.000000e+000  6.223063e-001 -7.827739e-001
    outer loop
      vertex  4.929392e+000 -8.373120e-001  5.467254e-001
      vertex -4.929392e+000 -8.373120e-001  5.467254e-001
      vertex  4.988162e+000 -3.438588e-001  9.390213e-001
    endloop
  endfacet
  facet normal  0.000000e+000  6.223063e-001 -7.827739e-001
    outer loop
      vertex  4.988162e+000 -3.438588e-001  9.390213e-001
      vertex -4.929392e+000 -8.373120e-001  5.467254e-001
      vertex -4.988162e+000 -3.438588e-001  9.390213e-001
    endloop
  endfacet
  facet normal  0.000000e+000  2.990095e-002 -9.995529e-001
    outer loop
      vertex  4.988162e+000 -3.438588e-001  9.390213e-001
      vertex -4.988162e+000 -3.438588e-001  9.390213e-001
      vertex  4.991750e+000  2.871139e-001  9.578965e-001
    endloop
  endfacet
  facet normal  0.000000e+000  2.990095e-002 -9.995528e-001
    outer loop
      vertex  4.991750e+000  2.871139e-001  9.578965e-001
      vertex -4.988162e+000 -3.438588e-001  9.390213e-001
      vertex -4.991750e+000  2.871139e-001  9.578965e-001
    endloop
  endfacet
  facet normal  0.000000e+000 -5.747304e-001 -8.183429e-001
    outer loop
      vertex  4.991750e+000  2.871139e-001  9.578965e-001
      vertex -4.991750e+000  2.871139e-001  9.578965e-001
      vertex  4.934999e+000  8.036103e-001  5.951558e-001
    endloop
  endfacet
  facet normal  -0.000000e+000 -5.747304e-001 -8.183427e-001
    outer loop
      vertex  4.934999e+000  8.036103e-001  5.951558e-001
      vertex -4.991750e+000  2.871139e-001  9.578965e-001
      vertex -4.934999e+000  8.036103e-001  5.951558e-001
    endloop
  endfacet
  facet normal  0.000000e+000 -9.496342e-001 -3.133605e-001
    outer loop
      vertex  4.934999e+000  8.036103e-001  5.951558e-001
      vertex -4.934999e+000  8.036103e-001  5.951558e-001
      vertex  4.898980e+000  1.000000e+000  0.000000e+000
    endloop
  endfacet
  facet normal  -0.000000e+000 -9.496343e-001 -3.133606e-001
    outer loop
      vertex  4.898980e+000  1.000000e+000  0.000000e+000
      vertex -4.934999e+000  8.036103e-001  5.951558e-001
      vertex -4.898980e+000  1.000000e+000  0.000000e+000
    endloop
  endfacet
  facet normal  0.000000e+000 -9.584654e-001  2.852087e-001
    outer loop
      vertex  4.898980e+000  1.000000e+000  0.000000e+000
      vertex -4.898980e+000  1.000000e+000  0.000000e+000
      vertex  4.929392e+000  8.373120e-001 -5.467254e-001
    endloop
  endfacet
  facet normal  0.000000e+000 -9.584654e-001  2.852087e-001
    outer loop
      vertex  4.929392e+000  8.373120e-001 -5.467254e-001
      vertex -4.898980e+000  1.000000e+000  0.000000e+000
      vertex -4.929392e+000  8.373120e-001 -5.467254e-001
    endloop
  endfacet
  facet normal  0.000000e+000 -6.223063e-001  7.827739e-001
    outer loop
      vertex  4.929392e+000  8.373120e-001 -5.467254e-001
      vertex -4.929392e+000  8.373120e-001 -5.467254e-001
      vertex  4.988162e+000  3.438588e-001 -9.390213e-001
    endloop
  endfacet
  facet normal  0.000000e+000 -6.223063e-001  7.827739e-001
    outer loop
      vertex  4.988162e+000  3.438588e-001 -9.390213e-001
      vertex -4.929392e+000  8.373120e-001 -5.467254e-001
      vertex -4.988162e+000  3.438588e-001 -9.390213e-001
    endloop
  endfacet
  facet normal  0.000000e+000 -2.990095e-002  9.995529e-001
    outer loop
      vertex  4.988162e+000  3.438588e-001 -9.390213e-001
      vertex -4.988162e+000  3.438588e-001 -9.390213e-001
      vertex  4.991750e+000 -2.871139e-001 -9.578965e-001
    endloop
  endfacet
  facet normal  0.000000e+000 -2.990095e-002  9.995528e-001
    outer loop
      vertex  4.991750e+000 -2.871139e-001 -9.578965e-001
      vertex -4.988162e+000  3.438588e-001 -9.390213e-001
      vertex -4.991750e+000 -2.871139e-001 -9.578965e-001
    endloop
  endfacet
  facet normal  -0.000000e+000  5.747304e-001  8.183429e-001
    outer loop
      vertex  4.991750e+000 -2.871139e-001 -9.578965e-001
      vertex -4.991750e+000 -2.871139e-001 -9.578965e-001
      vertex  4.934999e+000 -8.036103e-001 -5.951558e-001
    endloop
  endfacet
  facet normal  0.000000e+000  5.747304e-001  8.183427e-001
    outer loop
      vertex  4.934999e+000 -8.036103e-001 -5.951558e-001
      vertex -4.991750e+000 -2.871139e-001 -9.578965e-001
      vertex -4.934999e+000 -8.036103e-001 -5.951558e-001
    endloop
  endfacet
  facet normal  -0.000000e+000  9.496342e-001  3.133605e-001
    outer loop
      vertex  4.934999e+000 -8.036103e-001 -5.951558e-001
      vertex -4.934999e+000 -8.036103e-001 -5.951558e-001
      vertex  4.898980e+000 -1.000000e+000  1.224606e-016
    endloop
  endfacet
  facet normal  0.000000e+000  9.496343e-001  3.133606e-001
    outer loop
      vertex  4.898980e+000 -1.000000e+000  1.224606e-016
      vertex -4.934999e+000 -8.036103e-001 -5.951558e-001
      vertex -4.898980e+000 -1.000000e+000  1.224606e-016
    endloop
  endfacet
  facet normal  0.000000e+000  0.000000e+000 -1.000000e+000
    outer loop
      vertex  3.101247e-001 -1.500000e+001 -5.000000e+001
      vertex  5.329071e-015 -1.500000e+001 -5.000000e+001
      vertex  1.724338e+000 -1.441421e+001 -5.000000e+001
    endloop
  endfacet
  facet normal  -0.000000e+000  0.000000e+000 -1.000000e+000
    outer loop
      vertex  1.724338e+000 -1.441421e+001 -5.000000e+001
      vertex  5.329071e-015 -1.500000e+001 -5.000000e+001
      vertex -1.414214e+000 -1.441421e+001 -5.000000e+001
    endloop
  endfacet
  facet normal  0.000000e+000  0.000000e+000 -1.000000e+000
    outer loop
      vertex  1.724338e+000 -1.441421e+001 -5.000000e+001
      vertex -1.414214e+000 -1.441421e+001 -5.000000e+001
      vertex  2.310125e+000 -1.300000e+001 -5.000000e+001
    endloop
  endfacet
  facet normal  -0.000000e+000  0.000000e+000 -1.000000e+000
    outer loop
      vertex  2.310125e+000 -1.300000e+001 -5.000000e+001
      vertex -1.414214e+000 -1.441421e+001 -5.000000e+001
      vertex -2.000000e+000 -1.300000e+001 -5.000000e+001
    endloop
  endfacet
  facet normal  0.000000e+000  0.000000e+000 -1.000000e+000
    outer loop
      vertex  2.310125e+000 -1.300000e+001 -5.000000e+001
      vertex -2.000000e+000 -1.300000e+001 -5.000000e+001
      vertex  2.310125e+000 -9.729507e+000 -5.000000e+001
    endloop
  endfacet
  facet normal  0.000000e+000  0.000000e+000 -9.999999e-001
    outer loop
      vertex  2.310125e+000 -9.729507e+000 -5.000000e+001
      vertex -2.000000e+000 -1.300000e+001 -5.000000e+001
      vertex -2.000000e+000 -9.797959e+000 -5.000000e+001
    endloop
  endfacet
  facet normal  0.000000e+000  0.000000e+000 -1.000000e+000
    outer loop
      vertex  2.310125e+000 -9.729507e+000 -5.000000e+001
      vertex -2.000000e+000 -9.797959e+000 -5.000000e+001
      vertex  5.456679e+000 -8.380015e+000 -5.000000e+001
    endloop
  endfacet
  facet normal  0.000000e+000  0.000000e+000 -1.000000e+000
    outer loop
      vertex  5.456679e+000 -8.380015e+000 -5.000000e+001
      vertex -2.000000e+000 -9.797959e+000 -5.000000e+001
      vertex -4.794255e+000 -8.775826e+000 -5.000000e+001
    endloop
  endfacet
  facet normal  0.000000e+000  0.000000e+000 -1.000000e+000
    outer loop
      vertex  5.456679e+000 -8.380015e+000 -5.000000e+001
      vertex -4.794255e+000 -8.775826e+000 -5.000000e+001
      vertex  7.963605e+000 -6.048222e+000 -5.000000e+001
    endloop
  endfacet
  facet normal  0.000000e+000  0.000000e+000 -1.000000e+000
    outer loop
      vertex  7.963605e+000 -6.048222e+000 -5.000000e+001
      vertex -4.794255e+000 -8.775826e+000 -5.000000e+001
      vertex -7.787677e+000 -6.273124e+000 -5.000000e+001
    endloop
  endfacet
  facet normal  0.000000e+000  0.000000e+000 -1.000000e+000
    outer loop
      vertex  7.963605e+000 -6.048222e+000 -5.000000e+001
      vertex -7.787677e+000 -6.273124e+000 -5.000000e+001
      vertex  9.537043e+000 -3.007460e+000 -5.000000e+001
    endloop
  endfacet
  facet normal  -0.000000e+000  0.000000e+000 -1.000000e+000
    outer loop
      vertex  9.537043e+000 -3.007460e+000 -5.000000e+001
      vertex -7.787677e+000 -6.273124e+000 -5.000000e+001
      vertex -9.595496e+000 -2.815395e+000 -5.000000e+001
    endloop
  endfacet
  facet normal  0.000000e+000  0.000000e+000 -1.000000e+000
    outer loop
      vertex  9.537043e+000 -3.007460e+000 -5.000000e+001
      vertex -9.595496e+000 -2.815395e+000 -5.000000e+001
      vertex  9.992554e+000  3.858340e-001 -5.000000e+001
    endloop
  endfacet
  facet normal  -0.000000e+000  0.000000e+000 -1.000000e+000
    outer loop
      vertex  9.992554e+000  3.858340e-001 -5.000000e+001
      vertex -9.595496e+000 -2.815395e+000 -5.000000e+001
      vertex -9.942488e+000  1.070951e+000 -5.000000e+001
    endloop
  endfacet
  facet normal  0.000000e+000  0.000000e+000 -1.000000e+000
    outer loop
      vertex  9.992554e+000  3.858340e-001 -5.000000e+001
      vertex -9.942488e+000  1.070951e+000 -5.000000e+001
      vertex  9.276744e+000  3.733901e+000 -5.000000e+001
    endloop
  endfacet
  facet normal  -0.000000e+000  0.000000e+000 -1.000000e+000
    outer loop
      vertex  9.276744e+000  3.733901e+000 -5.000000e+001
      vertex -9.942488e+000  1.070951e+000 -5.000000e+001
      vertex -8.775826e+000  4.794255e+000 -5.000000e+001
    endloop
  endfacet
  facet normal  0.000000e+000  0.000000e+000 -1.000000e+000
    outer loop
      vertex  9.276744e+000  3.733901e+000 -5.000000e+001
      vertex -8.775826e+000  4.794255e+000 -5.000000e+001
      vertex  7.473520e+000  6.644283e+000 -5.000000e+001
    endloop
  endfacet
  facet normal  -0.000000e+000  0.000000e+000 -1.000000e+000
    outer loop
      vertex  7.473520e+000  6.644283e+000 -5.000000e+001
      vertex -8.775826e+000  4.794255e+000 -5.000000e+001
      vertex -6.273124e+000  7.787677e+000 -5.000000e+001
    endloop
  endfacet
  facet normal  0.000000e+000  0.000000e+000 -1.000000e+000
    outer loop
      vertex  7.473520e+000  6.644283e+000 -5.000000e+001
      vertex -6.273124e+000  7.787677e+000 -5.000000e+001
      vertex  4.794255e+000  8.775826e+000 -5.000000e+001
    endloop
  endfacet
  facet normal  0.000000e+000  0.000000e+000 -1.000000e+000
    outer loop
      vertex -2.815395e+000  9.595496e+000 -5.000000e+001
      vertex  1.070951e+000  9.942488e+000 -5.000000e+001
      vertex -6.273124e+000  7.787677e+000 -5.000000e+001
    endloop
  endfacet
  facet normal  0.000000e+000  0.000000e+000 -1.000000e+000
    outer loop
      vertex -6.273124e+000  7.787677e+000 -5.000000e+001
      vertex  1.070951e+000  9.942488e+000 -5.000000e+001
      vertex  4.794255e+000  8.775826e+000 -5.000000e+001
    endloop
  endfacet
  facet normal -1.000000e+000  0.000000e+000  0.000000e+000
    outer loop
      vertex -2.000000e+000 -1.300000e+001 -5.000000e+001
      vertex -2.000000e+000 -1.300000e+001 -4.700000e+001
      vertex -2.000000e+000 -9.797959e+000 -5.000000e+001
    endloop
  endfacet
  facet normal -9.999999e-001  0.000000e+000  0.000000e+000
    outer loop
      vertex -2.000000e+000 -9.797959e+000 -5.000000e+001
      vertex -2.000000e+000 -1.300000e+001 -4.700000e+001
      vertex -2.000000e+000 -9.287087e+000 -4.700000e+001
    endloop
  endfacet
  facet normal  1.000000e+000  0.000000e+000  0.000000e+000
    outer loop
      vertex  2.310125e+000 -9.729507e+000 -5.000000e+001
      vertex  2.310125e+000 -9.214843e+000 -4.700000e+001
      vertex  2.310125e+000 -1.300000e+001 -5.000000e+001
    endloop
  endfacet
  facet normal  9.999999e-001  0.000000e+000  0.000000e+000
    outer loop
      vertex  2.310125e+000 -1.300000e+001 -5.000000e+001
      vertex  2.310125e+000 -9.214843e+000 -4.700000e+001
      vertex  2.310125e+000 -1.300000e+001 -4.700000e+001
    endloop
  endfacet
  facet normal  6.803245e-001  7.132164e-001  1.687625e-001
    outer loop
      vertex  2.397128e+000  4.387913e+000 -2.000000e+001
      vertex  4.269930e+000  2.601480e+000 -2.000000e+001
      vertex  7.473520e+000  6.644283e+000 -5.000000e+001
    endloop
  endfacet
  facet normal  6.143513e-001  7.722154e-001  1.620364e-001
    outer loop
      vertex  2.397128e+000  4.387913e+000 -2.000000e+001
      vertex  7.473520e+000  6.644283e+000 -5.000000e+001
      vertex  4.794255e+000  8.775826e+000 -5.000000e+001
    endloop
  endfacet
  facet normal  9.577662e-001 -2.325556e-001  1.691200e-001
    outer loop
      vertex  4.998608e+000  1.179829e-001 -2.000000e+001
      vertex  4.387913e+000 -2.397128e+000 -2.000000e+001
      vertex  9.537043e+000 -3.007460e+000 -5.000000e+001
    endloop
  endfacet
  facet normal  9.780762e-001 -1.312956e-001  1.616431e-001
    outer loop
      vertex  9.537043e+000 -3.007460e+000 -5.000000e+001
      vertex  9.992554e+000  3.858340e-001 -5.000000e+001
      vertex  4.998608e+000  1.179829e-001 -2.000000e+001
    endloop
  endfacet
  facet normal  3.893487e-001 -9.078282e-001  1.557424e-001
    outer loop
      vertex  2.310125e+000 -9.214843e+000 -4.700000e+001
      vertex  2.310125e+000 -9.729507e+000 -5.000000e+001
      vertex  5.456679e+000 -8.380015e+000 -5.000000e+001
    endloop
  endfacet
  facet normal  3.940018e-001 -9.048165e-001  1.614609e-001
    outer loop
      vertex  2.310125e+000 -9.214843e+000 -4.700000e+001
      vertex  5.456679e+000 -8.380015e+000 -5.000000e+001
      vertex  2.601480e+000 -4.269930e+000 -2.000000e+001
    endloop
  endfacet
  facet normal  2.774327e-001 -9.455528e-001  1.701794e-001
    outer loop
      vertex  2.310125e+000 -9.214843e+000 -4.700000e+001
      vertex  2.601480e+000 -4.269930e+000 -2.000000e+001
      vertex  1.179829e-001 -4.998608e+000 -2.000000e+001
    endloop
  endfacet
  facet normal  1.290665e-001 -9.781114e-001  1.632178e-001
    outer loop
      vertex  2.310125e+000 -9.214843e+000 -4.700000e+001
      vertex  1.179829e-001 -4.998608e+000 -2.000000e+001
      vertex  1.592142e-001 -9.498666e+000 -4.700000e+001
    endloop
  endfacet
  facet normal -9.620928e-002 -9.818417e-001  1.634955e-001
    outer loop
      vertex -2.000000e+000 -9.287087e+000 -4.700000e+001
      vertex  1.592142e-001 -9.498666e+000 -4.700000e+001
      vertex  1.179829e-001 -4.998608e+000 -2.000000e+001
    endloop
  endfacet
  facet normal -2.325064e-001 -9.575636e-001  1.703310e-001
    outer loop
      vertex -2.000000e+000 -9.287087e+000 -4.700000e+001
      vertex  1.179829e-001 -4.998608e+000 -2.000000e+001
      vertex -2.397128e+000 -4.387913e+000 -2.000000e+001
    endloop
  endfacet
  facet normal -3.439337e-001 -9.247832e-001  1.627440e-001
    outer loop
      vertex -2.000000e+000 -9.287087e+000 -4.700000e+001
      vertex -2.397128e+000 -4.387913e+000 -2.000000e+001
      vertex -4.794255e+000 -8.775826e+000 -5.000000e+001
    endloop
  endfacet
  facet normal -3.392250e-001 -9.273552e-001  1.579199e-001
    outer loop
      vertex -2.000000e+000 -9.287087e+000 -4.700000e+001
      vertex -4.794255e+000 -8.775826e+000 -5.000000e+001
      vertex -2.000000e+000 -9.797959e+000 -5.000000e+001
    endloop
  endfacet
  facet normal  9.471642e-001  2.779055e-001  1.601508e-001
    outer loop
      vertex  4.998608e+000  1.179829e-001 -2.000000e+001
      vertex  9.992554e+000  3.858340e-001 -5.000000e+001
      vertex  4.269930e+000  2.601480e+000 -2.000000e+001
    endloop
  endfacet
  facet normal  9.638931e-001  2.060784e-001  1.686467e-001
    outer loop
      vertex  4.269930e+000  2.601480e+000 -2.000000e+001
      vertex  9.992554e+000  3.858340e-001 -5.000000e+001
      vertex  9.276744e+000  3.733901e+000 -5.000000e+001
    endloop
  endfacet
  facet normal  8.391547e-001  5.199261e-001  1.596756e-001
    outer loop
      vertex  4.269930e+000  2.601480e+000 -2.000000e+001
      vertex  9.276744e+000  3.733901e+000 -5.000000e+001
      vertex  7.473520e+000  6.644283e+000 -5.000000e+001
    endloop
  endfacet
  facet normal  7.141212e-001 -6.811876e-001  1.612899e-001
    outer loop
      vertex  2.601480e+000 -4.269930e+000 -2.000000e+001
      vertex  5.456679e+000 -8.380015e+000 -5.000000e+001
      vertex  4.387913e+000 -2.397128e+000 -2.000000e+001
    endloop
  endfacet
  facet normal  6.714025e-001 -7.218291e-001  1.678732e-001
    outer loop
      vertex  4.387913e+000 -2.397128e+000 -2.000000e+001
      vertex  5.456679e+000 -8.380015e+000 -5.000000e+001
      vertex  7.963605e+000 -6.048222e+000 -5.000000e+001
    endloop
  endfacet
  facet normal  8.767422e-001 -4.536688e-001  1.597116e-001
    outer loop
      vertex  4.387913e+000 -2.397128e+000 -2.000000e+001
      vertex  7.963605e+000 -6.048222e+000 -5.000000e+001
      vertex  9.537043e+000 -3.007460e+000 -5.000000e+001
    endloop
  endfacet
  facet normal  0.000000e+000  -0.000000e+000  1.000000e+000
    outer loop
      vertex  1.592142e-001 -9.498666e+000 -4.700000e+001
      vertex  2.310125e+000 -1.300000e+001 -4.700000e+001
      vertex  2.310125e+000 -9.214843e+000 -4.700000e+001
    endloop
  endfacet
  facet normal  0.000000e+000  0.000000e+000  1.000000e+000
    outer loop
      vertex  5.329071e-015 -1.500000e+001 -4.700000e+001
      vertex  3.101247e-001 -1.500000e+001 -4.700000e+001
      vertex -1.414214e+000 -1.441421e+001 -4.700000e+001
    endloop
  endfacet
  facet normal  -0.000000e+000  0.000000e+000  1.000000e+000
    outer loop
      vertex -1.414214e+000 -1.441421e+001 -4.700000e+001
      vertex  3.101247e-001 -1.500000e+001 -4.700000e+001
      vertex  1.724338e+000 -1.441421e+001 -4.700000e+001
    endloop
  endfacet
  facet normal  0.000000e+000  0.000000e+000  1.000000e+000
    outer loop
      vertex -1.414214e+000 -1.441421e+001 -4.700000e+001
      vertex  1.724338e+000 -1.441421e+001 -4.700000e+001
      vertex -2.000000e+000 -1.300000e+001 -4.700000e+001
    endloop
  endfacet
  facet normal  -0.000000e+000  0.000000e+000  1.000000e+000
    outer loop
      vertex -2.000000e+000 -1.300000e+001 -4.700000e+001
      vertex  1.724338e+000 -1.441421e+001 -4.700000e+001
      vertex  2.310125e+000 -1.300000e+001 -4.700000e+001
    endloop
  endfacet
  facet normal  0.000000e+000  0.000000e+000  1.000000e+000
    outer loop
      vertex -2.000000e+000 -1.300000e+001 -4.700000e+001
      vertex  2.310125e+000 -1.300000e+001 -4.700000e+001
      vertex -2.000000e+000 -9.287087e+000 -4.700000e+001
    endloop
  endfacet
  facet normal  0.000000e+000  0.000000e+000  9.999999e-001
    outer loop
      vertex -2.000000e+000 -9.287087e+000 -4.700000e+001
      vertex  2.310125e+000 -1.300000e+001 -4.700000e+001
      vertex  1.592142e-001 -9.498666e+000 -4.700000e+001
    endloop
  endfacet
  facet normal -9.238794e-001 -3.826835e-001  0.000000e+000
    outer loop
      vertex -2.000000e+000 -1.300000e+001 -4.700000e+001
      vertex -2.000000e+000 -1.300000e+001 -5.000000e+001
      vertex -1.414214e+000 -1.441421e+001 -4.700000e+001
    endloop
  endfacet
  facet normal -9.238794e-001 -3.826835e-001  -0.000000e+000
    outer loop
      vertex -1.414214e+000 -1.441421e+001 -4.700000e+001
      vertex -2.000000e+000 -1.300000e+001 -5.000000e+001
      vertex -1.414214e+000 -1.441421e+001 -5.000000e+001
    endloop
  endfacet
  facet normal -3.826837e-001 -9.238794e-001  0.000000e+000
    outer loop
      vertex -1.414214e+000 -1.441421e+001 -4.700000e+001
      vertex -1.414214e+000 -1.441421e+001 -5.000000e+001
      vertex  5.329071e-015 -1.500000e+001 -4.700000e+001
    endloop
  endfacet
  facet normal -3.826837e-001 -9.238794e-001  -0.000000e+000
    outer loop
      vertex  5.329071e-015 -1.500000e+001 -4.700000e+001
      vertex -1.414214e+000 -1.441421e+001 -5.000000e+001
      vertex  5.329071e-015 -1.500000e+001 -5.000000e+001
    endloop
  endfacet
  facet normal  0.000000e+000 -9.999999e-001  0.000000e+000
    outer loop
      vertex  5.329071e-015 -1.500000e+001 -5.000000e+001
      vertex  3.101247e-001 -1.500000e+001 -5.000000e+001
      vertex  5.329071e-015 -1.500000e+001 -4.700000e+001
    endloop
  endfacet
  facet normal  0.000000e+000 -9.999999e-001  0.000000e+000
    outer loop
      vertex  5.329071e-015 -1.500000e+001 -4.700000e+001
      vertex  3.101247e-001 -1.500000e+001 -5.000000e+001
      vertex  3.101247e-001 -1.500000e+001 -4.700000e+001
    endloop
  endfacet
  facet normal  3.826837e-001 -9.238794e-001  0.000000e+000
    outer loop
      vertex  3.101247e-001 -1.500000e+001 -4.700000e+001
      vertex  3.101247e-001 -1.500000e+001 -5.000000e+001
      vertex  1.724338e+000 -1.441421e+001 -4.700000e+001
    endloop
  endfacet
  facet normal  3.826837e-001 -9.238794e-001  0.000000e+000
    outer loop
      vertex  1.724338e+000 -1.441421e+001 -4.700000e+001
      vertex  3.101247e-001 -1.500000e+001 -5.000000e+001
      vertex  1.724338e+000 -1.441421e+001 -5.000000e+001
    endloop
  endfacet
  facet normal  9.238794e-001 -3.826835e-001  0.000000e+000
    outer loop
      vertex  1.724338e+000 -1.441421e+001 -4.700000e+001
      vertex  1.724338e+000 -1.441421e+001 -5.000000e+001
      vertex  2.310125e+000 -1.300000e+001 -4.700000e+001
    endloop
  endfacet
  facet normal  9.238794e-001 -3.826835e-001  0.000000e+000
    outer loop
      vertex  2.310125e+000 -1.300000e+001 -4.700000e+001
      vertex  1.724338e+000 -1.441421e+001 -5.000000e+001
      vertex  2.310125e+000 -1.300000e+001 -5.000000e+001
    endloop
  endfacet
  facet normal  0.000000e+000  0.000000e+000  1.000000e+000
    outer loop
      vertex  1.179829e-001 -4.998608e+000  2.000000e+001
      vertex  2.601480e+000 -4.269930e+000  2.000000e+001
      vertex -2.397128e+000 -4.387913e+000  2.000000e+001
    endloop
  endfacet
  facet normal  0.000000e+000  0.000000e+000  1.000000e+000
    outer loop
      vertex -2.397128e+000 -4.387913e+000  2.000000e+001
      vertex  2.601480e+000 -4.269930e+000  2.000000e+001
      vertex -4.269930e+000 -2.601480e+000  2.000000e+001
    endloop
  endfacet
  facet normal  -0.000000e+000  0.000000e+000  1.000000e+000
    outer loop
      vertex -4.269930e+000 -2.601480e+000  2.000000e+001
      vertex  2.601480e+000 -4.269930e+000  2.000000e+001
      vertex  4.387913e+000 -2.397128e+000  2.000000e+001
    endloop
  endfacet
  facet normal  0.000000e+000  0.000000e+000  1.000000e+000
    outer loop
      vertex -4.269930e+000 -2.601480e+000  2.000000e+001
      vertex  4.387913e+000 -2.397128e+000  2.000000e+001
      vertex -4.998608e+000 -1.179829e-001  2.000000e+001
    endloop
  endfacet
  facet normal  -0.000000e+000  0.000000e+000  1.000000e+000
    outer loop
      vertex -4.998608e+000 -1.179829e-001  2.000000e+001
      vertex  4.387913e+000 -2.397128e+000  2.000000e+001
      vertex  4.998608e+000  1.179829e-001  2.000000e+001
    endloop
  endfacet
  facet normal  0.000000e+000  0.000000e+000  1.000000e+000
    outer loop
      vertex -4.998608e+000 -1.179829e-001  2.000000e+001
      vertex  4.998608e+000  1.179829e-001  2.000000e+001
      vertex -4.387913e+000  2.397128e+000  2.000000e+001
    endloop
  endfacet
  facet normal  -0.000000e+000  0.000000e+000  1.000000e+000
    outer loop
      vertex -4.387913e+000  2.397128e+000  2.000000e+001
      vertex  4.998608e+000  1.179829e-001  2.000000e+001
      vertex  4.269930e+000  2.601480e+000  2.000000e+001
    endloop
  endfacet
  facet normal  0.000000e+000  0.000000e+000  1.000000e+000
    outer loop
      vertex -4.387913e+000  2.397128e+000  2.000000e+001
      vertex  4.269930e+000  2.601480e+000  2.000000e+001
      vertex -2.601480e+000  4.269930e+000  2.000000e+001
    endloop
  endfacet
  facet normal  -0.000000e+000  0.000000e+000  1.000000e+000
    outer loop
      vertex -2.601480e+000  4.269930e+000  2.000000e+001
      vertex  4.269930e+000  2.601480e+000  2.000000e+001
      vertex  2.397128e+000  4.387913e+000  2.000000e+001
    endloop
  endfacet
  facet normal  0.000000e+000  0.000000e+000  1.000000e+000
    outer loop
      vertex -2.601480e+000  4.269930e+000  2.000000e+001
      vertex  2.397128e+000  4.387913e+000  2.000000e+001
      vertex -1.179829e-001  4.998608e+000  2.000000e+001
    endloop
  endfacet
  facet normal -6.805187e-001 -7.134201e-001  1.671106e-001
    outer loop
      vertex -2.397128e+000 -4.387913e+000 -2.000000e+001
      vertex -4.269930e+000 -2.601480e+000 -2.000000e+001
      vertex -7.787677e+000 -6.273124e+000 -5.000000e+001
    endloop
  endfacet
  facet normal -6.330198e-001 -7.571399e-001  1.613231e-001
    outer loop
      vertex -2.397128e+000 -4.387913e+000 -2.000000e+001
      vertex -7.787677e+000 -6.273124e+000 -5.000000e+001
      vertex -4.794255e+000 -8.775826e+000 -5.000000e+001
    endloop
  endfacet
  facet normal  2.950892e-001  9.417523e-001  1.613231e-001
    outer loop
      vertex  2.397128e+000  4.387913e+000 -2.000000e+001
      vertex  4.794255e+000  8.775826e+000 -5.000000e+001
      vertex  1.070951e+000  9.942488e+000 -5.000000e+001
    endloop
  endfacet
  facet normal  2.326364e-001  9.580992e-001  1.671106e-001
    outer loop
      vertex  2.397128e+000  4.387913e+000 -2.000000e+001
      vertex  1.070951e+000  9.942488e+000 -5.000000e+001
      vertex -1.179829e-001  4.998608e+000 -2.000000e+001
    endloop
  endfacet
  facet normal -8.749719e-001 -4.574653e-001  1.585860e-001
    outer loop
      vertex -4.269930e+000 -2.601480e+000 -2.000000e+001
      vertex -9.595496e+000 -2.815395e+000 -5.000000e+001
      vertex -7.787677e+000 -6.273124e+000 -5.000000e+001
    endloop
  endfacet
  facet normal -9.834331e-001 -8.780558e-002  1.585860e-001
    outer loop
      vertex -4.998608e+000 -1.179829e-001 -2.000000e+001
      vertex -9.942488e+000  1.070951e+000 -5.000000e+001
      vertex -9.595496e+000 -2.815395e+000 -5.000000e+001
    endloop
  endfacet
  facet normal -9.456087e-001 -2.774491e-001  1.698418e-001
    outer loop
      vertex -4.998608e+000 -1.179829e-001 -2.000000e+001
      vertex -9.595496e+000 -2.815395e+000 -5.000000e+001
      vertex -4.269930e+000 -2.601480e+000 -2.000000e+001
    endloop
  endfacet
  facet normal -9.417523e-001  2.950892e-001  1.613231e-001
    outer loop
      vertex -4.387913e+000  2.397128e+000 -2.000000e+001
      vertex -8.775826e+000  4.794255e+000 -5.000000e+001
      vertex -9.942488e+000  1.070951e+000 -5.000000e+001
    endloop
  endfacet
  facet normal -9.580992e-001  2.326364e-001  1.671106e-001
    outer loop
      vertex -4.387913e+000  2.397128e+000 -2.000000e+001
      vertex -9.942488e+000  1.070951e+000 -5.000000e+001
      vertex -4.998608e+000 -1.179829e-001 -2.000000e+001
    endloop
  endfacet
  facet normal -4.574653e-001  8.749719e-001  1.585860e-001
    outer loop
      vertex -2.601480e+000  4.269930e+000 -2.000000e+001
      vertex -2.815395e+000  9.595496e+000 -5.000000e+001
      vertex -6.273124e+000  7.787677e+000 -5.000000e+001
    endloop
  endfacet
  facet normal -7.134201e-001  6.805187e-001  1.671106e-001
    outer loop
      vertex -2.601480e+000  4.269930e+000 -2.000000e+001
      vertex -6.273124e+000  7.787677e+000 -5.000000e+001
      vertex -4.387913e+000  2.397128e+000 -2.000000e+001
    endloop
  endfacet
  facet normal -8.780558e-002  9.834331e-001  1.585860e-001
    outer loop
      vertex -1.179829e-001  4.998608e+000 -2.000000e+001
      vertex  1.070951e+000  9.942488e+000 -5.000000e+001
      vertex -2.815395e+000  9.595496e+000 -5.000000e+001
    endloop
  endfacet
  facet normal -2.774491e-001  9.456087e-001  1.698418e-001
    outer loop
      vertex -1.179829e-001  4.998608e+000 -2.000000e+001
      vertex -2.815395e+000  9.595496e+000 -5.000000e+001
      vertex -2.601480e+000  4.269930e+000 -2.000000e+001
    endloop
  endfacet
  facet normal -7.571399e-001  6.330198e-001  1.613231e-001
    outer loop
      vertex -4.387913e+000  2.397128e+000 -2.000000e+001
      vertex -6.273124e+000  7.787677e+000 -5.000000e+001
      vertex -8.775826e+000  4.794255e+000 -5.000000e+001
    endloop
  endfacet
endsolid CATIA STL
