solid CATIA STL
  facet normal  2.657103e-001  -0.000000e+000  9.640529e-001
    outer loop
      vertex -5.000000e-001  2.550000e+001  1.000000e+001
      vertex -5.000000e-001  1.487500e+001  1.000000e+001
      vertex  1.036952e+000  2.703695e+001  9.576388e+000
    endloop
  endfacet
  facet normal  7.675064e-002  2.501795e-002  9.967364e-001
    outer loop
      vertex  1.036952e+000  2.703695e+001  9.576388e+000
      vertex -5.000000e-001  1.487500e+001  1.000000e+001
      vertex -2.925093e-002  1.491150e+001  9.962835e+000
    endloop
  endfacet
  facet normal  3.896665e-001 -4.912636e-003  9.209430e-001
    outer loop
      vertex  1.036952e+000  2.703695e+001  9.576388e+000
      vertex -2.925093e-002  1.491150e+001  9.962835e+000
      vertex  1.291462e+000  1.535393e+001  9.406380e+000
    endloop
  endfacet
  facet normal  6.781545e-001  4.079091e-003  7.349080e-001
    outer loop
      vertex  1.036952e+000  2.703695e+001  9.576388e+000
      vertex  1.291462e+000  1.535393e+001  9.406380e+000
      vertex  1.955182e+000  2.795518e+001  8.723972e+000
    endloop
  endfacet
  facet normal  7.884243e-001 -8.218257e-003  6.150769e-001
    outer loop
      vertex  1.955182e+000  2.795518e+001  8.723972e+000
      vertex  1.291462e+000  1.535393e+001  9.406380e+000
      vertex  2.261687e+000  1.603287e+001  8.171786e+000
    endloop
  endfacet
  facet normal  9.315397e-001  7.109654e-003  3.635702e-001
    outer loop
      vertex  1.955182e+000  2.795518e+001  8.723972e+000
      vertex  2.261687e+000  1.603287e+001  8.171786e+000
      vertex  2.475880e+000  2.847588e+001  7.379658e+000
    endloop
  endfacet
  facet normal  9.802782e-001 -4.296618e-003  1.975757e-001
    outer loop
      vertex  2.475880e+000  2.847588e+001  7.379658e+000
      vertex  2.261687e+000  1.603287e+001  8.171786e+000
      vertex  2.500000e+000  1.652075e+001  7.000000e+000
    endloop
  endfacet
  facet normal  9.979880e-001  -0.000000e+000  6.340387e-002
    outer loop
      vertex  2.475880e+000  2.847588e+001  7.379658e+000
      vertex  2.500000e+000  1.652075e+001  7.000000e+000
      vertex  2.500000e+000  2.850000e+001  7.000000e+000
    endloop
  endfacet
  facet normal  0.000000e+000  2.588193e-001  9.659258e-001
    outer loop
      vertex -2.500000e+000  2.550000e+001  1.000000e+001
      vertex -5.000000e-001  2.550000e+001  1.000000e+001
      vertex -2.500000e+000  2.700000e+001  9.598076e+000
    endloop
  endfacet
  facet normal  3.170961e-003  2.627605e-001  9.648558e-001
    outer loop
      vertex -2.500000e+000  2.700000e+001  9.598076e+000
      vertex -5.000000e-001  2.550000e+001  1.000000e+001
      vertex  1.036952e+000  2.703695e+001  9.576388e+000
    endloop
  endfacet
  facet normal -3.051855e-003  7.071036e-001  7.071036e-001
    outer loop
      vertex -2.500000e+000  2.700000e+001  9.598076e+000
      vertex  1.036952e+000  2.703695e+001  9.576388e+000
      vertex -2.500000e+000  2.809808e+001  8.500000e+000
    endloop
  endfacet
  facet normal -1.441026e-002  6.879864e-001  7.255806e-001
    outer loop
      vertex -2.500000e+000  2.809808e+001  8.500000e+000
      vertex  1.036952e+000  2.703695e+001  9.576388e+000
      vertex  1.955182e+000  2.795518e+001  8.723972e+000
    endloop
  endfacet
  facet normal  1.796659e-002  9.657699e-001  2.587775e-001
    outer loop
      vertex -2.500000e+000  2.809808e+001  8.500000e+000
      vertex  1.955182e+000  2.795518e+001  8.723972e+000
      vertex -2.500000e+000  2.850000e+001  7.000000e+000
    endloop
  endfacet
  facet normal -2.244078e-002  9.351557e-001  3.535255e-001
    outer loop
      vertex -2.500000e+000  2.850000e+001  7.000000e+000
      vertex  1.955182e+000  2.795518e+001  8.723972e+000
      vertex  2.475880e+000  2.847588e+001  7.379658e+000
    endloop
  endfacet
  facet normal  0.000000e+000  9.979879e-001  6.340387e-002
    outer loop
      vertex -2.500000e+000  2.850000e+001  7.000000e+000
      vertex  2.475880e+000  2.847588e+001  7.379658e+000
      vertex  2.500000e+000  2.850000e+001  7.000000e+000
    endloop
  endfacet
  facet normal  6.775361e-001 -5.220166e-003  7.354710e-001
    outer loop
      vertex  1.036952e+000 -2.703695e+001  9.576388e+000
      vertex  1.955182e+000 -2.795518e+001  8.723972e+000
      vertex  1.640831e+000 -1.554735e+001  9.101628e+000
    endloop
  endfacet
  facet normal  5.972220e-001  1.753138e-003  8.020741e-001
    outer loop
      vertex  1.036952e+000 -2.703695e+001  9.576388e+000
      vertex  1.640831e+000 -1.554735e+001  9.101628e+000
      vertex  8.960271e-001 -1.517470e+001  9.655393e+000
    endloop
  endfacet
  facet normal  3.146570e-001 -2.583659e-003  9.492020e-001
    outer loop
      vertex  1.036952e+000 -2.703695e+001  9.576388e+000
      vertex  8.960271e-001 -1.517470e+001  9.655393e+000
      vertex -2.925093e-002 -1.491150e+001  9.962835e+000
    endloop
  endfacet
  facet normal  7.675064e-002 -2.501795e-002  9.967364e-001
    outer loop
      vertex  1.036952e+000 -2.703695e+001  9.576388e+000
      vertex -2.925093e-002 -1.491150e+001  9.962835e+000
      vertex -5.000000e-001 -1.487500e+001  1.000000e+001
    endloop
  endfacet
  facet normal  2.657103e-001  0.000000e+000  9.640529e-001
    outer loop
      vertex  1.036952e+000 -2.703695e+001  9.576388e+000
      vertex -5.000000e-001 -1.487500e+001  1.000000e+001
      vertex -5.000000e-001 -2.550000e+001  1.000000e+001
    endloop
  endfacet
  facet normal  8.326669e-001  4.240834e-003  5.537579e-001
    outer loop
      vertex  1.640831e+000 -1.554735e+001  9.101628e+000
      vertex  1.955182e+000 -2.795518e+001  8.723972e+000
      vertex  2.261687e+000 -1.603287e+001  8.171786e+000
    endloop
  endfacet
  facet normal  9.315397e-001 -7.109654e-003  3.635702e-001
    outer loop
      vertex  2.261687e+000 -1.603287e+001  8.171786e+000
      vertex  1.955182e+000 -2.795518e+001  8.723972e+000
      vertex  2.475880e+000 -2.847588e+001  7.379658e+000
    endloop
  endfacet
  facet normal  9.802782e-001  4.296618e-003  1.975757e-001
    outer loop
      vertex  2.261687e+000 -1.603287e+001  8.171786e+000
      vertex  2.475880e+000 -2.847588e+001  7.379658e+000
      vertex  2.500000e+000 -1.652075e+001  7.000000e+000
    endloop
  endfacet
  facet normal  9.979880e-001  0.000000e+000  6.340387e-002
    outer loop
      vertex  2.500000e+000 -1.652075e+001  7.000000e+000
      vertex  2.475880e+000 -2.847588e+001  7.379658e+000
      vertex  2.500000e+000 -2.850000e+001  7.000000e+000
    endloop
  endfacet
  facet normal  0.000000e+000 -9.659258e-001  2.588193e-001
    outer loop
      vertex -2.500000e+000 -2.850000e+001  7.000000e+000
      vertex  2.500000e+000 -2.850000e+001  7.000000e+000
      vertex -2.500000e+000 -2.809808e+001  8.500000e+000
    endloop
  endfacet
  facet normal -6.228510e-002 -9.962928e-001  5.933909e-002
    outer loop
      vertex -2.500000e+000 -2.809808e+001  8.500000e+000
      vertex  2.500000e+000 -2.850000e+001  7.000000e+000
      vertex  2.475880e+000 -2.847588e+001  7.379658e+000
    endloop
  endfacet
  facet normal  1.150710e-002 -9.309226e-001  3.650351e-001
    outer loop
      vertex -2.500000e+000 -2.809808e+001  8.500000e+000
      vertex  2.475880e+000 -2.847588e+001  7.379658e+000
      vertex  1.955182e+000 -2.795518e+001  8.723972e+000
    endloop
  endfacet
  facet normal -1.286721e-002 -7.070482e-001  7.070482e-001
    outer loop
      vertex -2.500000e+000 -2.809808e+001  8.500000e+000
      vertex  1.955182e+000 -2.795518e+001  8.723972e+000
      vertex -2.500000e+000 -2.700000e+001  9.598076e+000
    endloop
  endfacet
  facet normal -2.637171e-003 -6.817677e-001  7.315639e-001
    outer loop
      vertex -2.500000e+000 -2.700000e+001  9.598076e+000
      vertex  1.955182e+000 -2.795518e+001  8.723972e+000
      vertex  1.036952e+000 -2.703695e+001  9.576388e+000
    endloop
  endfacet
  facet normal  3.218682e-003 -2.588179e-001  9.659208e-001
    outer loop
      vertex -2.500000e+000 -2.700000e+001  9.598076e+000
      vertex  1.036952e+000 -2.703695e+001  9.576388e+000
      vertex -2.500000e+000 -2.550000e+001  1.000000e+001
    endloop
  endfacet
  facet normal  0.000000e+000 -2.657102e-001  9.640530e-001
    outer loop
      vertex -2.500000e+000 -2.550000e+001  1.000000e+001
      vertex  1.036952e+000 -2.703695e+001  9.576388e+000
      vertex -5.000000e-001 -2.550000e+001  1.000000e+001
    endloop
  endfacet
  facet normal  -0.000000e+000  0.000000e+000 -1.000000e+000
    outer loop
      vertex -2.500000e+000  2.850000e+001 -5.000000e+000
      vertex  2.500000e+000  2.850000e+001 -5.000000e+000
      vertex -2.500000e+000 -2.850000e+001 -5.000000e+000
    endloop
  endfacet
  facet normal  0.000000e+000  0.000000e+000 -1.000000e+000
    outer loop
      vertex -2.500000e+000 -2.850000e+001 -5.000000e+000
      vertex  2.500000e+000  2.850000e+001 -5.000000e+000
      vertex  2.500000e+000 -2.850000e+001 -5.000000e+000
    endloop
  endfacet
  facet normal  0.000000e+000 -1.000000e+000  0.000000e+000
    outer loop
      vertex  2.500000e+000 -2.850000e+001  7.000000e+000
      vertex -2.500000e+000 -2.850000e+001  7.000000e+000
      vertex  2.500000e+000 -2.850000e+001 -5.000000e+000
    endloop
  endfacet
  facet normal  0.000000e+000 -1.000000e+000  0.000000e+000
    outer loop
      vertex  2.500000e+000 -2.850000e+001 -5.000000e+000
      vertex -2.500000e+000 -2.850000e+001  7.000000e+000
      vertex -2.500000e+000 -2.850000e+001 -5.000000e+000
    endloop
  endfacet
  facet normal -1.000000e+000  0.000000e+000  0.000000e+000
    outer loop
      vertex -2.500000e+000  0.000000e+000  1.000000e+001
      vertex -2.500000e+000 -3.917893e+000  9.292893e+000
      vertex -2.500000e+000 -3.625000e+000  1.000000e+001
    endloop
  endfacet
  facet normal -1.000000e+000  0.000000e+000  0.000000e+000
    outer loop
      vertex -2.500000e+000  2.809808e+001  8.500000e+000
      vertex -2.500000e+000  2.850000e+001  7.000000e+000
      vertex -2.500000e+000 -2.850000e+001  7.000000e+000
    endloop
  endfacet
  facet normal -1.000000e+000  0.000000e+000  0.000000e+000
    outer loop
      vertex -2.500000e+000  2.809808e+001  8.500000e+000
      vertex -2.500000e+000 -2.850000e+001  7.000000e+000
      vertex -2.500000e+000 -2.809808e+001  8.500000e+000
    endloop
  endfacet
  facet normal -9.999999e-001  0.000000e+000  0.000000e+000
    outer loop
      vertex -2.500000e+000  2.809808e+001  8.500000e+000
      vertex -2.500000e+000 -2.809808e+001  8.500000e+000
      vertex -2.500000e+000 -1.387500e+001  9.000000e+000
    endloop
  endfacet
  facet normal -1.000000e+000  0.000000e+000  0.000000e+000
    outer loop
      vertex -2.500000e+000  2.809808e+001  8.500000e+000
      vertex -2.500000e+000 -1.387500e+001  9.000000e+000
      vertex -2.500000e+000 -4.625000e+000  9.000000e+000
    endloop
  endfacet
  facet normal -1.000000e+000  0.000000e+000  0.000000e+000
    outer loop
      vertex -2.500000e+000  2.809808e+001  8.500000e+000
      vertex -2.500000e+000 -4.625000e+000  9.000000e+000
      vertex -2.500000e+000  4.625000e+000  9.000000e+000
    endloop
  endfacet
  facet normal -1.000000e+000  0.000000e+000  0.000000e+000
    outer loop
      vertex -2.500000e+000  2.809808e+001  8.500000e+000
      vertex -2.500000e+000  4.625000e+000  9.000000e+000
      vertex -2.500000e+000  1.387500e+001  9.000000e+000
    endloop
  endfacet
  facet normal -1.000000e+000  0.000000e+000  0.000000e+000
    outer loop
      vertex -2.500000e+000  2.809808e+001  8.500000e+000
      vertex -2.500000e+000  1.387500e+001  9.000000e+000
      vertex -2.500000e+000  1.458211e+001  9.292893e+000
    endloop
  endfacet
  facet normal -1.000000e+000  0.000000e+000  0.000000e+000
    outer loop
      vertex -2.500000e+000  2.809808e+001  8.500000e+000
      vertex -2.500000e+000  1.458211e+001  9.292893e+000
      vertex -2.500000e+000  2.700000e+001  9.598076e+000
    endloop
  endfacet
  facet normal -1.000000e+000  -0.000000e+000  0.000000e+000
    outer loop
      vertex -2.500000e+000 -1.287500e+001  1.000000e+001
      vertex -2.500000e+000 -5.625000e+000  1.000000e+001
      vertex -2.500000e+000 -1.316789e+001  9.292893e+000
    endloop
  endfacet
  facet normal -1.000000e+000  0.000000e+000  0.000000e+000
    outer loop
      vertex -2.500000e+000 -1.316789e+001  9.292893e+000
      vertex -2.500000e+000 -5.625000e+000  1.000000e+001
      vertex -2.500000e+000 -5.332107e+000  9.292893e+000
    endloop
  endfacet
  facet normal -1.000000e+000  -0.000000e+000  0.000000e+000
    outer loop
      vertex -2.500000e+000 -1.316789e+001  9.292893e+000
      vertex -2.500000e+000 -5.332107e+000  9.292893e+000
      vertex -2.500000e+000 -1.387500e+001  9.000000e+000
    endloop
  endfacet
  facet normal -1.000000e+000  0.000000e+000  0.000000e+000
    outer loop
      vertex -2.500000e+000 -1.387500e+001  9.000000e+000
      vertex -2.500000e+000 -5.332107e+000  9.292893e+000
      vertex -2.500000e+000 -4.625000e+000  9.000000e+000
    endloop
  endfacet
  facet normal -1.000000e+000  0.000000e+000  0.000000e+000
    outer loop
      vertex -2.500000e+000  2.700000e+001  9.598076e+000
      vertex -2.500000e+000  1.458211e+001  9.292893e+000
      vertex -2.500000e+000  2.550000e+001  1.000000e+001
    endloop
  endfacet
  facet normal -1.000000e+000  -0.000000e+000  0.000000e+000
    outer loop
      vertex -2.500000e+000  2.550000e+001  1.000000e+001
      vertex -2.500000e+000  1.458211e+001  9.292893e+000
      vertex -2.500000e+000  1.487500e+001  1.000000e+001
    endloop
  endfacet
  facet normal -1.000000e+000  0.000000e+000  0.000000e+000
    outer loop
      vertex -2.500000e+000  2.850000e+001 -5.000000e+000
      vertex -2.500000e+000 -2.850000e+001 -5.000000e+000
      vertex -2.500000e+000  2.850000e+001  7.000000e+000
    endloop
  endfacet
  facet normal -1.000000e+000  -0.000000e+000  0.000000e+000
    outer loop
      vertex -2.500000e+000  2.850000e+001  7.000000e+000
      vertex -2.500000e+000 -2.850000e+001 -5.000000e+000
      vertex -2.500000e+000 -2.850000e+001  7.000000e+000
    endloop
  endfacet
  facet normal -1.000000e+000  -0.000000e+000  0.000000e+000
    outer loop
      vertex -2.500000e+000 -2.550000e+001  1.000000e+001
      vertex -2.500000e+000 -1.487500e+001  1.000000e+001
      vertex -2.500000e+000 -2.700000e+001  9.598076e+000
    endloop
  endfacet
  facet normal -1.000000e+000  0.000000e+000  0.000000e+000
    outer loop
      vertex -2.500000e+000 -2.700000e+001  9.598076e+000
      vertex -2.500000e+000 -1.487500e+001  1.000000e+001
      vertex -2.500000e+000 -1.458211e+001  9.292893e+000
    endloop
  endfacet
  facet normal -1.000000e+000  -0.000000e+000  0.000000e+000
    outer loop
      vertex -2.500000e+000 -2.700000e+001  9.598076e+000
      vertex -2.500000e+000 -1.458211e+001  9.292893e+000
      vertex -2.500000e+000 -2.809808e+001  8.500000e+000
    endloop
  endfacet
  facet normal -1.000000e+000  0.000000e+000  0.000000e+000
    outer loop
      vertex -2.500000e+000 -2.809808e+001  8.500000e+000
      vertex -2.500000e+000 -1.458211e+001  9.292893e+000
      vertex -2.500000e+000 -1.387500e+001  9.000000e+000
    endloop
  endfacet
  facet normal -1.000000e+000  -0.000000e+000  0.000000e+000
    outer loop
      vertex -2.500000e+000  0.000000e+000  1.000000e+001
      vertex -2.500000e+000  3.625000e+000  1.000000e+001
      vertex -2.500000e+000 -3.917893e+000  9.292893e+000
    endloop
  endfacet
  facet normal -1.000000e+000  0.000000e+000  0.000000e+000
    outer loop
      vertex -2.500000e+000 -3.917893e+000  9.292893e+000
      vertex -2.500000e+000  3.625000e+000  1.000000e+001
      vertex -2.500000e+000  3.917893e+000  9.292893e+000
    endloop
  endfacet
  facet normal -1.000000e+000  -0.000000e+000  0.000000e+000
    outer loop
      vertex -2.500000e+000 -3.917893e+000  9.292893e+000
      vertex -2.500000e+000  3.917893e+000  9.292893e+000
      vertex -2.500000e+000 -4.625000e+000  9.000000e+000
    endloop
  endfacet
  facet normal -1.000000e+000  0.000000e+000  0.000000e+000
    outer loop
      vertex -2.500000e+000 -4.625000e+000  9.000000e+000
      vertex -2.500000e+000  3.917893e+000  9.292893e+000
      vertex -2.500000e+000  4.625000e+000  9.000000e+000
    endloop
  endfacet
  facet normal -1.000000e+000  -0.000000e+000  0.000000e+000
    outer loop
      vertex -2.500000e+000  5.625000e+000  1.000000e+001
      vertex -2.500000e+000  1.287500e+001  1.000000e+001
      vertex -2.500000e+000  5.332107e+000  9.292893e+000
    endloop
  endfacet
  facet normal -1.000000e+000  0.000000e+000  0.000000e+000
    outer loop
      vertex -2.500000e+000  5.332107e+000  9.292893e+000
      vertex -2.500000e+000  1.287500e+001  1.000000e+001
      vertex -2.500000e+000  1.316789e+001  9.292893e+000
    endloop
  endfacet
  facet normal -1.000000e+000  -0.000000e+000  0.000000e+000
    outer loop
      vertex -2.500000e+000  5.332107e+000  9.292893e+000
      vertex -2.500000e+000  1.316789e+001  9.292893e+000
      vertex -2.500000e+000  4.625000e+000  9.000000e+000
    endloop
  endfacet
  facet normal -1.000000e+000  0.000000e+000  0.000000e+000
    outer loop
      vertex -2.500000e+000  4.625000e+000  9.000000e+000
      vertex -2.500000e+000  1.316789e+001  9.292893e+000
      vertex -2.500000e+000  1.387500e+001  9.000000e+000
    endloop
  endfacet
  facet normal  0.000000e+000  1.000000e+000  0.000000e+000
    outer loop
      vertex -2.500000e+000  2.850000e+001  7.000000e+000
      vertex  2.500000e+000  2.850000e+001  7.000000e+000
      vertex -2.500000e+000  2.850000e+001 -5.000000e+000
    endloop
  endfacet
  facet normal  0.000000e+000  1.000000e+000  0.000000e+000
    outer loop
      vertex -2.500000e+000  2.850000e+001 -5.000000e+000
      vertex  2.500000e+000  2.850000e+001  7.000000e+000
      vertex  2.500000e+000  2.850000e+001 -5.000000e+000
    endloop
  endfacet
  facet normal  1.000000e+000  0.000000e+000  0.000000e+000
    outer loop
      vertex  2.500000e+000  2.850000e+001 -5.000000e+000
      vertex  2.500000e+000  2.850000e+001  7.000000e+000
      vertex  2.500000e+000  1.652075e+001  7.000000e+000
    endloop
  endfacet
  facet normal  1.000000e+000  0.000000e+000  0.000000e+000
    outer loop
      vertex  2.500000e+000  2.850000e+001 -5.000000e+000
      vertex  2.500000e+000  1.652075e+001  7.000000e+000
      vertex  2.500000e+000  1.482935e+001  6.115516e+000
    endloop
  endfacet
  facet normal  1.000000e+000  0.000000e+000  0.000000e+000
    outer loop
      vertex  2.500000e+000  2.850000e+001 -5.000000e+000
      vertex  2.500000e+000  1.482935e+001  6.115516e+000
      vertex  2.500000e+000  1.292065e+001  6.115516e+000
    endloop
  endfacet
  facet normal  1.000000e+000  0.000000e+000  0.000000e+000
    outer loop
      vertex  2.500000e+000  2.850000e+001 -5.000000e+000
      vertex  2.500000e+000  1.292065e+001  6.115516e+000
      vertex  2.500000e+000  5.579351e+000  6.115516e+000
    endloop
  endfacet
  facet normal  9.999999e-001  0.000000e+000  0.000000e+000
    outer loop
      vertex  2.500000e+000  2.850000e+001 -5.000000e+000
      vertex  2.500000e+000  5.579351e+000  6.115516e+000
      vertex  2.500000e+000  3.670649e+000  6.115516e+000
    endloop
  endfacet
  facet normal  1.000000e+000  0.000000e+000  0.000000e+000
    outer loop
      vertex  2.500000e+000  2.850000e+001 -5.000000e+000
      vertex  2.500000e+000  3.670649e+000  6.115516e+000
      vertex  2.500000e+000 -3.670649e+000  6.115516e+000
    endloop
  endfacet
  facet normal  9.999999e-001  0.000000e+000  0.000000e+000
    outer loop
      vertex  2.500000e+000  2.850000e+001 -5.000000e+000
      vertex  2.500000e+000 -3.670649e+000  6.115516e+000
      vertex  2.500000e+000 -5.579351e+000  6.115516e+000
    endloop
  endfacet
  facet normal  1.000000e+000  0.000000e+000  0.000000e+000
    outer loop
      vertex  2.500000e+000  2.850000e+001 -5.000000e+000
      vertex  2.500000e+000 -5.579351e+000  6.115516e+000
      vertex  2.500000e+000 -1.292065e+001  6.115516e+000
    endloop
  endfacet
  facet normal  1.000000e+000  0.000000e+000  0.000000e+000
    outer loop
      vertex  2.500000e+000  2.850000e+001 -5.000000e+000
      vertex  2.500000e+000 -1.292065e+001  6.115516e+000
      vertex  2.500000e+000 -1.482935e+001  6.115516e+000
    endloop
  endfacet
  facet normal  1.000000e+000  0.000000e+000  0.000000e+000
    outer loop
      vertex  2.500000e+000  2.850000e+001 -5.000000e+000
      vertex  2.500000e+000 -1.482935e+001  6.115516e+000
      vertex  2.500000e+000 -2.850000e+001 -5.000000e+000
    endloop
  endfacet
  facet normal  1.000000e+000  0.000000e+000  0.000000e+000
    outer loop
      vertex  2.500000e+000 -2.850000e+001 -5.000000e+000
      vertex  2.500000e+000 -1.482935e+001  6.115516e+000
      vertex  2.500000e+000 -2.850000e+001  7.000000e+000
    endloop
  endfacet
  facet normal  1.000000e+000  -0.000000e+000  0.000000e+000
    outer loop
      vertex  2.500000e+000 -2.850000e+001  7.000000e+000
      vertex  2.500000e+000 -1.482935e+001  6.115516e+000
      vertex  2.500000e+000 -1.652075e+001  7.000000e+000
    endloop
  endfacet
  facet normal  1.000000e+000  0.000000e+000  0.000000e+000
    outer loop
      vertex  2.500000e+000 -1.292065e+001  6.115516e+000
      vertex  2.500000e+000 -5.579351e+000  6.115516e+000
      vertex  2.500000e+000 -1.122925e+001  7.000000e+000
    endloop
  endfacet
  facet normal  1.000000e+000  -0.000000e+000  0.000000e+000
    outer loop
      vertex  2.500000e+000 -1.122925e+001  7.000000e+000
      vertex  2.500000e+000 -5.579351e+000  6.115516e+000
      vertex  2.500000e+000 -7.270751e+000  7.000000e+000
    endloop
  endfacet
  facet normal  1.000000e+000  0.000000e+000  0.000000e+000
    outer loop
      vertex  2.500000e+000  3.670649e+000  6.115516e+000
      vertex  2.500000e+000  1.979249e+000  7.000000e+000
      vertex  2.500000e+000 -3.670649e+000  6.115516e+000
    endloop
  endfacet
  facet normal  1.000000e+000  0.000000e+000  0.000000e+000
    outer loop
      vertex  2.500000e+000 -3.670649e+000  6.115516e+000
      vertex  2.500000e+000  1.979249e+000  7.000000e+000
      vertex  2.500000e+000  0.000000e+000  7.000000e+000
    endloop
  endfacet
  facet normal  1.000000e+000  0.000000e+000  0.000000e+000
    outer loop
      vertex  2.500000e+000 -3.670649e+000  6.115516e+000
      vertex  2.500000e+000  0.000000e+000  7.000000e+000
      vertex  2.500000e+000 -1.979249e+000  7.000000e+000
    endloop
  endfacet
  facet normal  1.000000e+000  0.000000e+000  0.000000e+000
    outer loop
      vertex  2.500000e+000  5.579351e+000  6.115516e+000
      vertex  2.500000e+000  1.292065e+001  6.115516e+000
      vertex  2.500000e+000  7.270751e+000  7.000000e+000
    endloop
  endfacet
  facet normal  1.000000e+000  -0.000000e+000  0.000000e+000
    outer loop
      vertex  2.500000e+000  7.270751e+000  7.000000e+000
      vertex  2.500000e+000  1.292065e+001  6.115516e+000
      vertex  2.500000e+000  1.122925e+001  7.000000e+000
    endloop
  endfacet
  facet normal  -0.000000e+000  0.000000e+000  1.000000e+000
    outer loop
      vertex -5.000000e-001 -1.487500e+001  1.000000e+001
      vertex -2.500000e+000 -1.487500e+001  1.000000e+001
      vertex -5.000000e-001 -2.550000e+001  1.000000e+001
    endloop
  endfacet
  facet normal  0.000000e+000  0.000000e+000  1.000000e+000
    outer loop
      vertex -5.000000e-001 -2.550000e+001  1.000000e+001
      vertex -2.500000e+000 -1.487500e+001  1.000000e+001
      vertex -2.500000e+000 -2.550000e+001  1.000000e+001
    endloop
  endfacet
  facet normal  9.573154e-001 -2.780620e-001  7.892237e-002
    outer loop
      vertex  2.500000e+000 -1.122925e+001  7.000000e+000
      vertex  2.261687e+000 -1.171713e+001  8.171786e+000
      vertex  2.098076e+000 -1.231628e+001  8.045422e+000
    endloop
  endfacet
  facet normal  9.627033e-001 -1.253759e-001  2.397565e-001
    outer loop
      vertex  2.500000e+000 -1.122925e+001  7.000000e+000
      vertex  2.098076e+000 -1.231628e+001  8.045422e+000
      vertex  2.500000e+000 -1.292065e+001  6.115516e+000
    endloop
  endfacet
  facet normal  5.153779e-002  9.566408e-001 -2.866747e-001
    outer loop
      vertex -5.000000e-001 -1.487500e+001  1.000000e+001
      vertex -2.925093e-002 -1.491150e+001  9.962835e+000
      vertex  1.000000e+000 -1.513809e+001  9.391728e+000
    endloop
  endfacet
  facet normal  3.023763e-001  8.806313e-001  3.647698e-001
    outer loop
      vertex -5.000000e-001 -1.487500e+001  1.000000e+001
      vertex  1.000000e+000 -1.513809e+001  9.391728e+000
      vertex -5.000000e-001 -1.458211e+001  9.292893e+000
    endloop
  endfacet
  facet normal  9.627033e-001  1.253758e-001  2.397564e-001
    outer loop
      vertex  2.500000e+000 -1.652075e+001  7.000000e+000
      vertex  2.500000e+000 -1.482935e+001  6.115516e+000
      vertex  2.098076e+000 -1.543372e+001  8.045422e+000
    endloop
  endfacet
  facet normal  9.573154e-001  2.780620e-001  7.892216e-002
    outer loop
      vertex  2.500000e+000 -1.652075e+001  7.000000e+000
      vertex  2.098076e+000 -1.543372e+001  8.045422e+000
      vertex  2.261687e+000 -1.603287e+001  8.171786e+000
    endloop
  endfacet
  facet normal  9.648920e-001  1.139583e-001  2.366367e-001
    outer loop
      vertex  2.500000e+000 -1.482935e+001  6.115516e+000
      vertex  2.098076e+000 -1.443130e+001  7.562680e+000
      vertex  2.098076e+000 -1.543372e+001  8.045422e+000
    endloop
  endfacet
  facet normal  2.921621e-001  3.659868e-001  8.835695e-001
    outer loop
      vertex  1.000000e+000 -1.418696e+001  8.633225e+000
      vertex -5.000000e-001 -1.387500e+001  9.000000e+000
      vertex -5.000000e-001 -1.458211e+001  9.292893e+000
    endloop
  endfacet
  facet normal  2.713502e-001  4.176042e-001  8.671654e-001
    outer loop
      vertex  1.000000e+000 -1.474909e+001  8.903932e+000
      vertex  1.000000e+000 -1.418696e+001  8.633225e+000
      vertex -5.000000e-001 -1.458211e+001  9.292893e+000
    endloop
  endfacet
  facet normal  2.413560e-001  7.587181e-001  6.050571e-001
    outer loop
      vertex  1.000000e+000 -1.474909e+001  8.903932e+000
      vertex -5.000000e-001 -1.458211e+001  9.292893e+000
      vertex  1.000000e+000 -1.513809e+001  9.391728e+000
    endloop
  endfacet
  facet normal  2.715653e-001 -3.683025e-001  8.891600e-001
    outer loop
      vertex  1.000000e+000 -1.300091e+001  8.903932e+000
      vertex -5.000000e-001 -1.316789e+001  9.292893e+000
      vertex -5.000000e-001 -1.387500e+001  9.000000e+000
    endloop
  endfacet
  facet normal  2.965667e-001 -4.143637e-001  8.604365e-001
    outer loop
      vertex  1.000000e+000 -1.356304e+001  8.633225e+000
      vertex  1.000000e+000 -1.300091e+001  8.903932e+000
      vertex -5.000000e-001 -1.387500e+001  9.000000e+000
    endloop
  endfacet
  facet normal  2.375190e-001  0.000000e+000  9.713829e-001
    outer loop
      vertex  1.000000e+000 -1.356304e+001  8.633225e+000
      vertex -5.000000e-001 -1.387500e+001  9.000000e+000
      vertex  1.000000e+000 -1.418696e+001  8.633225e+000
    endloop
  endfacet
  facet normal  5.941415e-001 -8.039786e-001  2.478349e-002
    outer loop
      vertex  2.261687e+000 -1.171713e+001  8.171786e+000
      vertex  1.291462e+000 -1.239607e+001  9.406380e+000
      vertex  1.000000e+000 -1.261191e+001  9.391728e+000
    endloop
  endfacet
  facet normal  7.663916e-001 -3.260167e-001  5.534953e-001
    outer loop
      vertex  1.000000e+000 -1.261191e+001  9.391728e+000
      vertex  2.098076e+000 -1.231628e+001  8.045422e+000
      vertex  2.261687e+000 -1.171713e+001  8.171786e+000
    endloop
  endfacet
  facet normal  2.413560e-001 -7.587181e-001  6.050571e-001
    outer loop
      vertex  1.000000e+000 -1.261191e+001  9.391728e+000
      vertex -5.000000e-001 -1.316789e+001  9.292893e+000
      vertex  1.000000e+000 -1.300091e+001  8.903932e+000
    endloop
  endfacet
  facet normal  8.566257e-001  3.193809e-001  4.052014e-001
    outer loop
      vertex  1.640831e+000 -1.554735e+001  9.101628e+000
      vertex  2.261687e+000 -1.603287e+001  8.171786e+000
      vertex  2.098076e+000 -1.543372e+001  8.045422e+000
    endloop
  endfacet
  facet normal  3.432821e-001  9.023402e-001  2.606522e-001
    outer loop
      vertex -2.925093e-002 -1.491150e+001  9.962835e+000
      vertex  8.960271e-001 -1.517470e+001  9.655393e+000
      vertex  1.000000e+000 -1.513809e+001  9.391728e+000
    endloop
  endfacet
  facet normal  6.106690e-001  7.151328e-001  3.401008e-001
    outer loop
      vertex  1.000000e+000 -1.513809e+001  9.391728e+000
      vertex  8.960271e-001 -1.517470e+001  9.655393e+000
      vertex  1.640831e+000 -1.554735e+001  9.101628e+000
    endloop
  endfacet
  facet normal  6.157924e-001  6.160117e-001  4.912526e-001
    outer loop
      vertex  1.000000e+000 -1.513809e+001  9.391728e+000
      vertex  1.640831e+000 -1.554735e+001  9.101628e+000
      vertex  1.000000e+000 -1.474909e+001  8.903932e+000
    endloop
  endfacet
  facet normal  6.806254e-001  6.363213e-001  3.631036e-001
    outer loop
      vertex  1.000000e+000 -1.474909e+001  8.903932e+000
      vertex  1.640831e+000 -1.554735e+001  9.101628e+000
      vertex  2.098076e+000 -1.543372e+001  8.045422e+000
    endloop
  endfacet
  facet normal  6.980735e-001  3.106717e-001  6.451175e-001
    outer loop
      vertex  1.000000e+000 -1.474909e+001  8.903932e+000
      vertex  2.098076e+000 -1.543372e+001  8.045422e+000
      vertex  1.000000e+000 -1.418696e+001  8.633225e+000
    endloop
  endfacet
  facet normal  6.980737e-001  3.106721e-001  6.451171e-001
    outer loop
      vertex  1.000000e+000 -1.418696e+001  8.633225e+000
      vertex  2.098076e+000 -1.543372e+001  8.045422e+000
      vertex  2.098076e+000 -1.443130e+001  7.562680e+000
    endloop
  endfacet
  facet normal  6.980737e-001  0.000000e+000  7.160259e-001
    outer loop
      vertex  1.000000e+000 -1.418696e+001  8.633225e+000
      vertex  2.098076e+000 -1.443130e+001  7.562680e+000
      vertex  1.000000e+000 -1.356304e+001  8.633225e+000
    endloop
  endfacet
  facet normal  6.980737e-001  0.000000e+000  7.160259e-001
    outer loop
      vertex  1.000000e+000 -1.356304e+001  8.633225e+000
      vertex  2.098076e+000 -1.443130e+001  7.562680e+000
      vertex  2.098076e+000 -1.331870e+001  7.562680e+000
    endloop
  endfacet
  facet normal  6.980738e-001 -3.106716e-001  6.451173e-001
    outer loop
      vertex  1.000000e+000 -1.356304e+001  8.633225e+000
      vertex  2.098076e+000 -1.331870e+001  7.562680e+000
      vertex  1.000000e+000 -1.300091e+001  8.903932e+000
    endloop
  endfacet
  facet normal  6.980736e-001 -3.106722e-001  6.451172e-001
    outer loop
      vertex  1.000000e+000 -1.300091e+001  8.903932e+000
      vertex  2.098076e+000 -1.331870e+001  7.562680e+000
      vertex  2.098076e+000 -1.231628e+001  8.045422e+000
    endloop
  endfacet
  facet normal  6.980735e-001 -5.598119e-001  4.464348e-001
    outer loop
      vertex  1.000000e+000 -1.300091e+001  8.903932e+000
      vertex  2.098076e+000 -1.231628e+001  8.045422e+000
      vertex  1.000000e+000 -1.261191e+001  9.391728e+000
    endloop
  endfacet
  facet normal  9.635293e-001  0.000000e+000  2.676030e-001
    outer loop
      vertex  2.098076e+000 -1.443130e+001  7.562680e+000
      vertex  2.500000e+000 -1.482935e+001  6.115516e+000
      vertex  2.098076e+000 -1.331870e+001  7.562680e+000
    endloop
  endfacet
  facet normal  9.635293e-001  0.000000e+000  2.676030e-001
    outer loop
      vertex  2.098076e+000 -1.331870e+001  7.562680e+000
      vertex  2.500000e+000 -1.482935e+001  6.115516e+000
      vertex  2.500000e+000 -1.292065e+001  6.115516e+000
    endloop
  endfacet
  facet normal  9.648920e-001 -1.139583e-001  2.366367e-001
    outer loop
      vertex  2.098076e+000 -1.331870e+001  7.562680e+000
      vertex  2.500000e+000 -1.292065e+001  6.115516e+000
      vertex  2.098076e+000 -1.231628e+001  8.045422e+000
    endloop
  endfacet
  facet normal  4.674035e-001 -6.702831e-001  5.764152e-001
    outer loop
      vertex  1.291462e+000 -1.239607e+001  9.406380e+000
      vertex -2.925093e-002 -1.283850e+001  9.962835e+000
      vertex  1.000000e+000 -1.261191e+001  9.391728e+000
    endloop
  endfacet
  facet normal  5.153780e-002 -9.566408e-001 -2.866746e-001
    outer loop
      vertex  1.000000e+000 -1.261191e+001  9.391728e+000
      vertex -2.925093e-002 -1.283850e+001  9.962835e+000
      vertex -5.000000e-001 -1.287500e+001  1.000000e+001
    endloop
  endfacet
  facet normal  3.023763e-001 -8.806313e-001  3.647698e-001
    outer loop
      vertex  1.000000e+000 -1.261191e+001  9.391728e+000
      vertex -5.000000e-001 -1.287500e+001  1.000000e+001
      vertex -5.000000e-001 -1.316789e+001  9.292893e+000
    endloop
  endfacet
  facet normal  0.000000e+000 -9.238794e-001  3.826837e-001
    outer loop
      vertex -5.000000e-001 -1.287500e+001  1.000000e+001
      vertex -2.500000e+000 -1.287500e+001  1.000000e+001
      vertex -5.000000e-001 -1.316789e+001  9.292893e+000
    endloop
  endfacet
  facet normal  0.000000e+000 -9.238794e-001  3.826837e-001
    outer loop
      vertex -5.000000e-001 -1.316789e+001  9.292893e+000
      vertex -2.500000e+000 -1.287500e+001  1.000000e+001
      vertex -2.500000e+000 -1.316789e+001  9.292893e+000
    endloop
  endfacet
  facet normal  0.000000e+000 -3.826837e-001  9.238794e-001
    outer loop
      vertex -5.000000e-001 -1.316789e+001  9.292893e+000
      vertex -2.500000e+000 -1.316789e+001  9.292893e+000
      vertex -5.000000e-001 -1.387500e+001  9.000000e+000
    endloop
  endfacet
  facet normal  0.000000e+000 -3.826837e-001  9.238794e-001
    outer loop
      vertex -5.000000e-001 -1.387500e+001  9.000000e+000
      vertex -2.500000e+000 -1.316789e+001  9.292893e+000
      vertex -2.500000e+000 -1.387500e+001  9.000000e+000
    endloop
  endfacet
  facet normal  -0.000000e+000  3.826837e-001  9.238794e-001
    outer loop
      vertex -5.000000e-001 -1.387500e+001  9.000000e+000
      vertex -2.500000e+000 -1.387500e+001  9.000000e+000
      vertex -5.000000e-001 -1.458211e+001  9.292893e+000
    endloop
  endfacet
  facet normal  0.000000e+000  3.826837e-001  9.238794e-001
    outer loop
      vertex -5.000000e-001 -1.458211e+001  9.292893e+000
      vertex -2.500000e+000 -1.387500e+001  9.000000e+000
      vertex -2.500000e+000 -1.458211e+001  9.292893e+000
    endloop
  endfacet
  facet normal  -0.000000e+000  9.238794e-001  3.826837e-001
    outer loop
      vertex -5.000000e-001 -1.458211e+001  9.292893e+000
      vertex -2.500000e+000 -1.458211e+001  9.292893e+000
      vertex -5.000000e-001 -1.487500e+001  1.000000e+001
    endloop
  endfacet
  facet normal  0.000000e+000  9.238794e-001  3.826837e-001
    outer loop
      vertex -5.000000e-001 -1.487500e+001  1.000000e+001
      vertex -2.500000e+000 -1.458211e+001  9.292893e+000
      vertex -2.500000e+000 -1.487500e+001  1.000000e+001
    endloop
  endfacet
  facet normal  9.573154e-001 -2.780619e-001  7.892238e-002
    outer loop
      vertex  2.500000e+000 -1.979249e+000  7.000000e+000
      vertex  2.261687e+000 -2.467127e+000  8.171786e+000
      vertex  2.098076e+000 -3.066276e+000  8.045422e+000
    endloop
  endfacet
  facet normal  9.627033e-001 -1.253758e-001  2.397565e-001
    outer loop
      vertex  2.500000e+000 -1.979249e+000  7.000000e+000
      vertex  2.098076e+000 -3.066276e+000  8.045422e+000
      vertex  2.500000e+000 -3.670649e+000  6.115516e+000
    endloop
  endfacet
  facet normal  5.153788e-002  9.566410e-001 -2.866738e-001
    outer loop
      vertex -5.000000e-001 -5.625000e+000  1.000000e+001
      vertex -2.925093e-002 -5.661498e+000  9.962835e+000
      vertex  1.000000e+000 -5.888090e+000  9.391728e+000
    endloop
  endfacet
  facet normal  3.023761e-001  8.806313e-001  3.647698e-001
    outer loop
      vertex -5.000000e-001 -5.625000e+000  1.000000e+001
      vertex  1.000000e+000 -5.888090e+000  9.391728e+000
      vertex -5.000000e-001 -5.332107e+000  9.292893e+000
    endloop
  endfacet
  facet normal  9.627033e-001  1.253758e-001  2.397564e-001
    outer loop
      vertex  2.500000e+000 -7.270751e+000  7.000000e+000
      vertex  2.500000e+000 -5.579351e+000  6.115516e+000
      vertex  2.098076e+000 -6.183724e+000  8.045422e+000
    endloop
  endfacet
  facet normal  9.573155e-001  2.780618e-001  7.892246e-002
    outer loop
      vertex  2.500000e+000 -7.270751e+000  7.000000e+000
      vertex  2.098076e+000 -6.183724e+000  8.045422e+000
      vertex  2.261687e+000 -6.782874e+000  8.171786e+000
    endloop
  endfacet
  facet normal  9.648920e-001  1.139583e-001  2.366367e-001
    outer loop
      vertex  2.500000e+000 -5.579351e+000  6.115516e+000
      vertex  2.098076e+000 -5.181303e+000  7.562680e+000
      vertex  2.098076e+000 -6.183724e+000  8.045422e+000
    endloop
  endfacet
  facet normal  2.921621e-001  3.659868e-001  8.835695e-001
    outer loop
      vertex  1.000000e+000 -4.936957e+000  8.633225e+000
      vertex -5.000000e-001 -4.625000e+000  9.000000e+000
      vertex -5.000000e-001 -5.332107e+000  9.292893e+000
    endloop
  endfacet
  facet normal  2.713501e-001  4.176045e-001  8.671653e-001
    outer loop
      vertex  1.000000e+000 -5.499085e+000  8.903932e+000
      vertex  1.000000e+000 -4.936957e+000  8.633225e+000
      vertex -5.000000e-001 -5.332107e+000  9.292893e+000
    endloop
  endfacet
  facet normal  2.413557e-001  7.587181e-001  6.050571e-001
    outer loop
      vertex  1.000000e+000 -5.499085e+000  8.903932e+000
      vertex -5.000000e-001 -5.332107e+000  9.292893e+000
      vertex  1.000000e+000 -5.888090e+000  9.391728e+000
    endloop
  endfacet
  facet normal  2.715652e-001 -3.683024e-001  8.891601e-001
    outer loop
      vertex  1.000000e+000 -3.750915e+000  8.903932e+000
      vertex -5.000000e-001 -3.917893e+000  9.292893e+000
      vertex -5.000000e-001 -4.625000e+000  9.000000e+000
    endloop
  endfacet
  facet normal  2.965667e-001 -4.143639e-001  8.604364e-001
    outer loop
      vertex  1.000000e+000 -4.313043e+000  8.633225e+000
      vertex  1.000000e+000 -3.750915e+000  8.903932e+000
      vertex -5.000000e-001 -4.625000e+000  9.000000e+000
    endloop
  endfacet
  facet normal  2.375190e-001  0.000000e+000  9.713829e-001
    outer loop
      vertex  1.000000e+000 -4.313043e+000  8.633225e+000
      vertex -5.000000e-001 -4.625000e+000  9.000000e+000
      vertex  1.000000e+000 -4.936957e+000  8.633225e+000
    endloop
  endfacet
  facet normal  5.941416e-001 -8.039786e-001  2.478305e-002
    outer loop
      vertex  2.261687e+000 -2.467127e+000  8.171786e+000
      vertex  1.291462e+000 -3.146068e+000  9.406380e+000
      vertex  1.000000e+000 -3.361910e+000  9.391728e+000
    endloop
  endfacet
  facet normal  7.663917e-001 -3.260166e-001  5.534953e-001
    outer loop
      vertex  1.000000e+000 -3.361910e+000  9.391728e+000
      vertex  2.098076e+000 -3.066276e+000  8.045422e+000
      vertex  2.261687e+000 -2.467127e+000  8.171786e+000
    endloop
  endfacet
  facet normal  2.413557e-001 -7.587183e-001  6.050569e-001
    outer loop
      vertex  1.000000e+000 -3.361910e+000  9.391728e+000
      vertex -5.000000e-001 -3.917893e+000  9.292893e+000
      vertex  1.000000e+000 -3.750915e+000  8.903932e+000
    endloop
  endfacet
  facet normal  8.566257e-001  3.193807e-001  4.052016e-001
    outer loop
      vertex  1.640831e+000 -6.297347e+000  9.101628e+000
      vertex  2.261687e+000 -6.782874e+000  8.171786e+000
      vertex  2.098076e+000 -6.183724e+000  8.045422e+000
    endloop
  endfacet
  facet normal  3.432833e-001  9.023387e-001  2.606558e-001
    outer loop
      vertex -2.925093e-002 -5.661498e+000  9.962835e+000
      vertex  8.960271e-001 -5.924698e+000  9.655393e+000
      vertex  1.000000e+000 -5.888090e+000  9.391728e+000
    endloop
  endfacet
  facet normal  6.106699e-001  7.151307e-001  3.401035e-001
    outer loop
      vertex  1.000000e+000 -5.888090e+000  9.391728e+000
      vertex  8.960271e-001 -5.924698e+000  9.655393e+000
      vertex  1.640831e+000 -6.297347e+000  9.101628e+000
    endloop
  endfacet
  facet normal  6.157930e-001  6.160114e-001  4.912524e-001
    outer loop
      vertex  1.000000e+000 -5.888090e+000  9.391728e+000
      vertex  1.640831e+000 -6.297347e+000  9.101628e+000
      vertex  1.000000e+000 -5.499085e+000  8.903932e+000
    endloop
  endfacet
  facet normal  6.806256e-001  6.363209e-001  3.631040e-001
    outer loop
      vertex  1.000000e+000 -5.499085e+000  8.903932e+000
      vertex  1.640831e+000 -6.297347e+000  9.101628e+000
      vertex  2.098076e+000 -6.183724e+000  8.045422e+000
    endloop
  endfacet
  facet normal  6.980736e-001  3.106719e-001  6.451173e-001
    outer loop
      vertex  1.000000e+000 -5.499085e+000  8.903932e+000
      vertex  2.098076e+000 -6.183724e+000  8.045422e+000
      vertex  1.000000e+000 -4.936957e+000  8.633225e+000
    endloop
  endfacet
  facet normal  6.980737e-001  3.106722e-001  6.451169e-001
    outer loop
      vertex  1.000000e+000 -4.936957e+000  8.633225e+000
      vertex  2.098076e+000 -6.183724e+000  8.045422e+000
      vertex  2.098076e+000 -5.181303e+000  7.562680e+000
    endloop
  endfacet
  facet normal  6.980737e-001  0.000000e+000  7.160259e-001
    outer loop
      vertex  1.000000e+000 -4.936957e+000  8.633225e+000
      vertex  2.098076e+000 -5.181303e+000  7.562680e+000
      vertex  1.000000e+000 -4.313043e+000  8.633225e+000
    endloop
  endfacet
  facet normal  6.980737e-001  0.000000e+000  7.160259e-001
    outer loop
      vertex  1.000000e+000 -4.313043e+000  8.633225e+000
      vertex  2.098076e+000 -5.181303e+000  7.562680e+000
      vertex  2.098076e+000 -4.068697e+000  7.562680e+000
    endloop
  endfacet
  facet normal  6.980738e-001 -3.106717e-001  6.451172e-001
    outer loop
      vertex  1.000000e+000 -4.313043e+000  8.633225e+000
      vertex  2.098076e+000 -4.068697e+000  7.562680e+000
      vertex  1.000000e+000 -3.750915e+000  8.903932e+000
    endloop
  endfacet
  facet normal  6.980735e-001 -3.106723e-001  6.451170e-001
    outer loop
      vertex  1.000000e+000 -3.750915e+000  8.903932e+000
      vertex  2.098076e+000 -4.068697e+000  7.562680e+000
      vertex  2.098076e+000 -3.066276e+000  8.045422e+000
    endloop
  endfacet
  facet normal  6.980735e-001 -5.598119e-001  4.464346e-001
    outer loop
      vertex  1.000000e+000 -3.750915e+000  8.903932e+000
      vertex  2.098076e+000 -3.066276e+000  8.045422e+000
      vertex  1.000000e+000 -3.361910e+000  9.391728e+000
    endloop
  endfacet
  facet normal  9.635293e-001  0.000000e+000  2.676030e-001
    outer loop
      vertex  2.098076e+000 -5.181303e+000  7.562680e+000
      vertex  2.500000e+000 -5.579351e+000  6.115516e+000
      vertex  2.098076e+000 -4.068697e+000  7.562680e+000
    endloop
  endfacet
  facet normal  9.635292e-001  0.000000e+000  2.676030e-001
    outer loop
      vertex  2.098076e+000 -4.068697e+000  7.562680e+000
      vertex  2.500000e+000 -5.579351e+000  6.115516e+000
      vertex  2.500000e+000 -3.670649e+000  6.115516e+000
    endloop
  endfacet
  facet normal  9.648920e-001 -1.139584e-001  2.366367e-001
    outer loop
      vertex  2.098076e+000 -4.068697e+000  7.562680e+000
      vertex  2.500000e+000 -3.670649e+000  6.115516e+000
      vertex  2.098076e+000 -3.066276e+000  8.045422e+000
    endloop
  endfacet
  facet normal  4.674033e-001 -6.702828e-001  5.764157e-001
    outer loop
      vertex  1.291462e+000 -3.146068e+000  9.406380e+000
      vertex -2.925093e-002 -3.588502e+000  9.962835e+000
      vertex  1.000000e+000 -3.361910e+000  9.391728e+000
    endloop
  endfacet
  facet normal  5.153851e-002 -9.566414e-001 -2.866724e-001
    outer loop
      vertex  1.000000e+000 -3.361910e+000  9.391728e+000
      vertex -2.925093e-002 -3.588502e+000  9.962835e+000
      vertex -5.000000e-001 -3.625000e+000  1.000000e+001
    endloop
  endfacet
  facet normal  3.023760e-001 -8.806316e-001  3.647696e-001
    outer loop
      vertex  1.000000e+000 -3.361910e+000  9.391728e+000
      vertex -5.000000e-001 -3.625000e+000  1.000000e+001
      vertex -5.000000e-001 -3.917893e+000  9.292893e+000
    endloop
  endfacet
  facet normal  -0.000000e+000  0.000000e+000  1.000000e+000
    outer loop
      vertex -5.000000e-001 -5.625000e+000  1.000000e+001
      vertex -2.500000e+000 -5.625000e+000  1.000000e+001
      vertex -5.000000e-001 -1.287500e+001  1.000000e+001
    endloop
  endfacet
  facet normal  0.000000e+000  0.000000e+000  1.000000e+000
    outer loop
      vertex -5.000000e-001 -1.287500e+001  1.000000e+001
      vertex -2.500000e+000 -5.625000e+000  1.000000e+001
      vertex -2.500000e+000 -1.287500e+001  1.000000e+001
    endloop
  endfacet
  facet normal  0.000000e+000 -9.238795e-001  3.826835e-001
    outer loop
      vertex -5.000000e-001 -3.625000e+000  1.000000e+001
      vertex -2.500000e+000 -3.625000e+000  1.000000e+001
      vertex -5.000000e-001 -3.917893e+000  9.292893e+000
    endloop
  endfacet
  facet normal  0.000000e+000 -9.238795e-001  3.826835e-001
    outer loop
      vertex -5.000000e-001 -3.917893e+000  9.292893e+000
      vertex -2.500000e+000 -3.625000e+000  1.000000e+001
      vertex -2.500000e+000 -3.917893e+000  9.292893e+000
    endloop
  endfacet
  facet normal  0.000000e+000 -3.826836e-001  9.238794e-001
    outer loop
      vertex -5.000000e-001 -3.917893e+000  9.292893e+000
      vertex -2.500000e+000 -3.917893e+000  9.292893e+000
      vertex -5.000000e-001 -4.625000e+000  9.000000e+000
    endloop
  endfacet
  facet normal  0.000000e+000 -3.826836e-001  9.238794e-001
    outer loop
      vertex -5.000000e-001 -4.625000e+000  9.000000e+000
      vertex -2.500000e+000 -3.917893e+000  9.292893e+000
      vertex -2.500000e+000 -4.625000e+000  9.000000e+000
    endloop
  endfacet
  facet normal  -0.000000e+000  3.826837e-001  9.238794e-001
    outer loop
      vertex -5.000000e-001 -4.625000e+000  9.000000e+000
      vertex -2.500000e+000 -4.625000e+000  9.000000e+000
      vertex -5.000000e-001 -5.332107e+000  9.292893e+000
    endloop
  endfacet
  facet normal  0.000000e+000  3.826837e-001  9.238794e-001
    outer loop
      vertex -5.000000e-001 -5.332107e+000  9.292893e+000
      vertex -2.500000e+000 -4.625000e+000  9.000000e+000
      vertex -2.500000e+000 -5.332107e+000  9.292893e+000
    endloop
  endfacet
  facet normal  -0.000000e+000  9.238794e-001  3.826837e-001
    outer loop
      vertex -5.000000e-001 -5.332107e+000  9.292893e+000
      vertex -2.500000e+000 -5.332107e+000  9.292893e+000
      vertex -5.000000e-001 -5.625000e+000  1.000000e+001
    endloop
  endfacet
  facet normal  0.000000e+000  9.238794e-001  3.826837e-001
    outer loop
      vertex -5.000000e-001 -5.625000e+000  1.000000e+001
      vertex -2.500000e+000 -5.332107e+000  9.292893e+000
      vertex -2.500000e+000 -5.625000e+000  1.000000e+001
    endloop
  endfacet
  facet normal  7.870309e-002  -0.000000e+000  9.968981e-001
    outer loop
      vertex -5.000000e-001 -5.625000e+000  1.000000e+001
      vertex -5.000000e-001 -1.287500e+001  1.000000e+001
      vertex -2.925093e-002 -5.661498e+000  9.962835e+000
    endloop
  endfacet
  facet normal  7.870309e-002  0.000000e+000  9.968981e-001
    outer loop
      vertex -2.925093e-002 -5.661498e+000  9.962835e+000
      vertex -5.000000e-001 -1.287500e+001  1.000000e+001
      vertex -2.925093e-002 -1.283850e+001  9.962835e+000
    endloop
  endfacet
  facet normal  3.153200e-001  -0.000000e+000  9.489855e-001
    outer loop
      vertex -2.925093e-002 -5.661498e+000  9.962835e+000
      vertex -2.925093e-002 -1.283850e+001  9.962835e+000
      vertex  8.960271e-001 -5.924698e+000  9.655393e+000
    endloop
  endfacet
  facet normal  3.915123e-001 -1.148129e-002  9.201013e-001
    outer loop
      vertex  8.960271e-001 -5.924698e+000  9.655393e+000
      vertex -2.925093e-002 -1.283850e+001  9.962835e+000
      vertex  1.291462e+000 -1.239607e+001  9.406380e+000
    endloop
  endfacet
  facet normal  5.984980e-001  5.745549e-003  8.011037e-001
    outer loop
      vertex  8.960271e-001 -5.924698e+000  9.655393e+000
      vertex  1.291462e+000 -1.239607e+001  9.406380e+000
      vertex  1.640831e+000 -6.297347e+000  9.101628e+000
    endloop
  endfacet
  facet normal  8.268214e-001 -1.927536e-002  5.621341e-001
    outer loop
      vertex  1.640831e+000 -6.297347e+000  9.101628e+000
      vertex  1.291462e+000 -1.239607e+001  9.406380e+000
      vertex  2.261687e+000 -6.782874e+000  8.171786e+000
    endloop
  endfacet
  facet normal  7.862602e-001  0.000000e+000  6.178956e-001
    outer loop
      vertex  2.261687e+000 -6.782874e+000  8.171786e+000
      vertex  1.291462e+000 -1.239607e+001  9.406380e+000
      vertex  2.261687e+000 -1.171713e+001  8.171786e+000
    endloop
  endfacet
  facet normal  9.799394e-001  -0.000000e+000  1.992957e-001
    outer loop
      vertex  2.261687e+000 -6.782874e+000  8.171786e+000
      vertex  2.261687e+000 -1.171713e+001  8.171786e+000
      vertex  2.500000e+000 -7.270751e+000  7.000000e+000
    endloop
  endfacet
  facet normal  9.799393e-001  0.000000e+000  1.992957e-001
    outer loop
      vertex  2.500000e+000 -7.270751e+000  7.000000e+000
      vertex  2.261687e+000 -1.171713e+001  8.171786e+000
      vertex  2.500000e+000 -1.122925e+001  7.000000e+000
    endloop
  endfacet
  facet normal  9.573155e-001 -2.780618e-001  7.892246e-002
    outer loop
      vertex  2.500000e+000  7.270751e+000  7.000000e+000
      vertex  2.261687e+000  6.782874e+000  8.171786e+000
      vertex  2.098076e+000  6.183724e+000  8.045422e+000
    endloop
  endfacet
  facet normal  9.627033e-001 -1.253758e-001  2.397564e-001
    outer loop
      vertex  2.500000e+000  7.270751e+000  7.000000e+000
      vertex  2.098076e+000  6.183724e+000  8.045422e+000
      vertex  2.500000e+000  5.579351e+000  6.115516e+000
    endloop
  endfacet
  facet normal  5.153850e-002  9.566414e-001 -2.866725e-001
    outer loop
      vertex -5.000000e-001  3.625000e+000  1.000000e+001
      vertex -2.925093e-002  3.588502e+000  9.962835e+000
      vertex  1.000000e+000  3.361910e+000  9.391728e+000
    endloop
  endfacet
  facet normal  3.023760e-001  8.806316e-001  3.647696e-001
    outer loop
      vertex -5.000000e-001  3.625000e+000  1.000000e+001
      vertex  1.000000e+000  3.361910e+000  9.391728e+000
      vertex -5.000000e-001  3.917893e+000  9.292893e+000
    endloop
  endfacet
  facet normal  9.627033e-001  1.253758e-001  2.397565e-001
    outer loop
      vertex  2.500000e+000  1.979249e+000  7.000000e+000
      vertex  2.500000e+000  3.670649e+000  6.115516e+000
      vertex  2.098076e+000  3.066276e+000  8.045422e+000
    endloop
  endfacet
  facet normal  9.573154e-001  2.780619e-001  7.892238e-002
    outer loop
      vertex  2.500000e+000  1.979249e+000  7.000000e+000
      vertex  2.098076e+000  3.066276e+000  8.045422e+000
      vertex  2.261687e+000  2.467127e+000  8.171786e+000
    endloop
  endfacet
  facet normal  9.648920e-001  1.139584e-001  2.366367e-001
    outer loop
      vertex  2.500000e+000  3.670649e+000  6.115516e+000
      vertex  2.098076e+000  4.068697e+000  7.562680e+000
      vertex  2.098076e+000  3.066276e+000  8.045422e+000
    endloop
  endfacet
  facet normal  2.921621e-001  3.659867e-001  8.835695e-001
    outer loop
      vertex  1.000000e+000  4.313043e+000  8.633225e+000
      vertex -5.000000e-001  4.625000e+000  9.000000e+000
      vertex -5.000000e-001  3.917893e+000  9.292893e+000
    endloop
  endfacet
  facet normal  2.713501e-001  4.176044e-001  8.671654e-001
    outer loop
      vertex  1.000000e+000  3.750915e+000  8.903932e+000
      vertex  1.000000e+000  4.313043e+000  8.633225e+000
      vertex -5.000000e-001  3.917893e+000  9.292893e+000
    endloop
  endfacet
  facet normal  2.413557e-001  7.587183e-001  6.050569e-001
    outer loop
      vertex  1.000000e+000  3.750915e+000  8.903932e+000
      vertex -5.000000e-001  3.917893e+000  9.292893e+000
      vertex  1.000000e+000  3.361910e+000  9.391728e+000
    endloop
  endfacet
  facet normal  2.715652e-001 -3.683025e-001  8.891600e-001
    outer loop
      vertex  1.000000e+000  5.499085e+000  8.903932e+000
      vertex -5.000000e-001  5.332107e+000  9.292893e+000
      vertex -5.000000e-001  4.625000e+000  9.000000e+000
    endloop
  endfacet
  facet normal  2.965667e-001 -4.143640e-001  8.604364e-001
    outer loop
      vertex  1.000000e+000  4.936957e+000  8.633225e+000
      vertex  1.000000e+000  5.499085e+000  8.903932e+000
      vertex -5.000000e-001  4.625000e+000  9.000000e+000
    endloop
  endfacet
  facet normal  2.375190e-001  0.000000e+000  9.713829e-001
    outer loop
      vertex  1.000000e+000  4.936957e+000  8.633225e+000
      vertex -5.000000e-001  4.625000e+000  9.000000e+000
      vertex  1.000000e+000  4.313043e+000  8.633225e+000
    endloop
  endfacet
  facet normal  5.941416e-001 -8.039786e-001  2.478290e-002
    outer loop
      vertex  2.261687e+000  6.782874e+000  8.171786e+000
      vertex  1.291462e+000  6.103932e+000  9.406380e+000
      vertex  1.000000e+000  5.888090e+000  9.391728e+000
    endloop
  endfacet
  facet normal  7.663917e-001 -3.260165e-001  5.534954e-001
    outer loop
      vertex  1.000000e+000  5.888090e+000  9.391728e+000
      vertex  2.098076e+000  6.183724e+000  8.045422e+000
      vertex  2.261687e+000  6.782874e+000  8.171786e+000
    endloop
  endfacet
  facet normal  2.413557e-001 -7.587181e-001  6.050571e-001
    outer loop
      vertex  1.000000e+000  5.888090e+000  9.391728e+000
      vertex -5.000000e-001  5.332107e+000  9.292893e+000
      vertex  1.000000e+000  5.499085e+000  8.903932e+000
    endloop
  endfacet
  facet normal  8.566257e-001  3.193808e-001  4.052015e-001
    outer loop
      vertex  1.640831e+000  2.952653e+000  9.101628e+000
      vertex  2.261687e+000  2.467127e+000  8.171786e+000
      vertex  2.098076e+000  3.066276e+000  8.045422e+000
    endloop
  endfacet
  facet normal  3.432827e-001  9.023393e-001  2.606548e-001
    outer loop
      vertex -2.925093e-002  3.588502e+000  9.962835e+000
      vertex  8.960271e-001  3.325302e+000  9.655393e+000
      vertex  1.000000e+000  3.361910e+000  9.391728e+000
    endloop
  endfacet
  facet normal  6.106698e-001  7.151310e-001  3.401029e-001
    outer loop
      vertex  1.000000e+000  3.361910e+000  9.391728e+000
      vertex  8.960271e-001  3.325302e+000  9.655393e+000
      vertex  1.640831e+000  2.952653e+000  9.101628e+000
    endloop
  endfacet
  facet normal  6.157930e-001  6.160116e-001  4.912522e-001
    outer loop
      vertex  1.000000e+000  3.361910e+000  9.391728e+000
      vertex  1.640831e+000  2.952653e+000  9.101628e+000
      vertex  1.000000e+000  3.750915e+000  8.903932e+000
    endloop
  endfacet
  facet normal  6.806255e-001  6.363209e-001  3.631039e-001
    outer loop
      vertex  1.000000e+000  3.750915e+000  8.903932e+000
      vertex  1.640831e+000  2.952653e+000  9.101628e+000
      vertex  2.098076e+000  3.066276e+000  8.045422e+000
    endloop
  endfacet
  facet normal  6.980735e-001  3.106718e-001  6.451174e-001
    outer loop
      vertex  1.000000e+000  3.750915e+000  8.903932e+000
      vertex  2.098076e+000  3.066276e+000  8.045422e+000
      vertex  1.000000e+000  4.313043e+000  8.633225e+000
    endloop
  endfacet
  facet normal  6.980737e-001  3.106722e-001  6.451169e-001
    outer loop
      vertex  1.000000e+000  4.313043e+000  8.633225e+000
      vertex  2.098076e+000  3.066276e+000  8.045422e+000
      vertex  2.098076e+000  4.068697e+000  7.562680e+000
    endloop
  endfacet
  facet normal  6.980737e-001  0.000000e+000  7.160259e-001
    outer loop
      vertex  1.000000e+000  4.313043e+000  8.633225e+000
      vertex  2.098076e+000  4.068697e+000  7.562680e+000
      vertex  1.000000e+000  4.936957e+000  8.633225e+000
    endloop
  endfacet
  facet normal  6.980737e-001  0.000000e+000  7.160259e-001
    outer loop
      vertex  1.000000e+000  4.936957e+000  8.633225e+000
      vertex  2.098076e+000  4.068697e+000  7.562680e+000
      vertex  2.098076e+000  5.181303e+000  7.562680e+000
    endloop
  endfacet
  facet normal  6.980737e-001 -3.106718e-001  6.451170e-001
    outer loop
      vertex  1.000000e+000  4.936957e+000  8.633225e+000
      vertex  2.098076e+000  5.181303e+000  7.562680e+000
      vertex  1.000000e+000  5.499085e+000  8.903932e+000
    endloop
  endfacet
  facet normal  6.980736e-001 -3.106723e-001  6.451170e-001
    outer loop
      vertex  1.000000e+000  5.499085e+000  8.903932e+000
      vertex  2.098076e+000  5.181303e+000  7.562680e+000
      vertex  2.098076e+000  6.183724e+000  8.045422e+000
    endloop
  endfacet
  facet normal  6.980736e-001 -5.598118e-001  4.464348e-001
    outer loop
      vertex  1.000000e+000  5.499085e+000  8.903932e+000
      vertex  2.098076e+000  6.183724e+000  8.045422e+000
      vertex  1.000000e+000  5.888090e+000  9.391728e+000
    endloop
  endfacet
  facet normal  9.635293e-001  0.000000e+000  2.676030e-001
    outer loop
      vertex  2.098076e+000  4.068697e+000  7.562680e+000
      vertex  2.500000e+000  3.670649e+000  6.115516e+000
      vertex  2.098076e+000  5.181303e+000  7.562680e+000
    endloop
  endfacet
  facet normal  9.635292e-001  0.000000e+000  2.676030e-001
    outer loop
      vertex  2.098076e+000  5.181303e+000  7.562680e+000
      vertex  2.500000e+000  3.670649e+000  6.115516e+000
      vertex  2.500000e+000  5.579351e+000  6.115516e+000
    endloop
  endfacet
  facet normal  9.648920e-001 -1.139583e-001  2.366367e-001
    outer loop
      vertex  2.098076e+000  5.181303e+000  7.562680e+000
      vertex  2.500000e+000  5.579351e+000  6.115516e+000
      vertex  2.098076e+000  6.183724e+000  8.045422e+000
    endloop
  endfacet
  facet normal  4.674034e-001 -6.702828e-001  5.764155e-001
    outer loop
      vertex  1.291462e+000  6.103932e+000  9.406380e+000
      vertex -2.925093e-002  5.661498e+000  9.962835e+000
      vertex  1.000000e+000  5.888090e+000  9.391728e+000
    endloop
  endfacet
  facet normal  5.153788e-002 -9.566410e-001 -2.866738e-001
    outer loop
      vertex  1.000000e+000  5.888090e+000  9.391728e+000
      vertex -2.925093e-002  5.661498e+000  9.962835e+000
      vertex -5.000000e-001  5.625000e+000  1.000000e+001
    endloop
  endfacet
  facet normal  3.023761e-001 -8.806313e-001  3.647698e-001
    outer loop
      vertex  1.000000e+000  5.888090e+000  9.391728e+000
      vertex -5.000000e-001  5.625000e+000  1.000000e+001
      vertex -5.000000e-001  5.332107e+000  9.292893e+000
    endloop
  endfacet
  facet normal  -0.000000e+000  0.000000e+000  1.000000e+000
    outer loop
      vertex -5.000000e-001  3.625000e+000  1.000000e+001
      vertex -2.500000e+000  3.625000e+000  1.000000e+001
      vertex -5.000000e-001  0.000000e+000  1.000000e+001
    endloop
  endfacet
  facet normal  0.000000e+000  0.000000e+000  1.000000e+000
    outer loop
      vertex -5.000000e-001  0.000000e+000  1.000000e+001
      vertex -2.500000e+000  3.625000e+000  1.000000e+001
      vertex -2.500000e+000  0.000000e+000  1.000000e+001
    endloop
  endfacet
  facet normal  -0.000000e+000  0.000000e+000  1.000000e+000
    outer loop
      vertex -5.000000e-001  0.000000e+000  1.000000e+001
      vertex -2.500000e+000  0.000000e+000  1.000000e+001
      vertex -5.000000e-001 -3.625000e+000  1.000000e+001
    endloop
  endfacet
  facet normal  0.000000e+000  0.000000e+000  1.000000e+000
    outer loop
      vertex -5.000000e-001 -3.625000e+000  1.000000e+001
      vertex -2.500000e+000  0.000000e+000  1.000000e+001
      vertex -2.500000e+000 -3.625000e+000  1.000000e+001
    endloop
  endfacet
  facet normal  0.000000e+000 -9.238794e-001  3.826837e-001
    outer loop
      vertex -5.000000e-001  5.625000e+000  1.000000e+001
      vertex -2.500000e+000  5.625000e+000  1.000000e+001
      vertex -5.000000e-001  5.332107e+000  9.292893e+000
    endloop
  endfacet
  facet normal  0.000000e+000 -9.238794e-001  3.826837e-001
    outer loop
      vertex -5.000000e-001  5.332107e+000  9.292893e+000
      vertex -2.500000e+000  5.625000e+000  1.000000e+001
      vertex -2.500000e+000  5.332107e+000  9.292893e+000
    endloop
  endfacet
  facet normal  0.000000e+000 -3.826837e-001  9.238794e-001
    outer loop
      vertex -5.000000e-001  5.332107e+000  9.292893e+000
      vertex -2.500000e+000  5.332107e+000  9.292893e+000
      vertex -5.000000e-001  4.625000e+000  9.000000e+000
    endloop
  endfacet
  facet normal  0.000000e+000 -3.826837e-001  9.238794e-001
    outer loop
      vertex -5.000000e-001  4.625000e+000  9.000000e+000
      vertex -2.500000e+000  5.332107e+000  9.292893e+000
      vertex -2.500000e+000  4.625000e+000  9.000000e+000
    endloop
  endfacet
  facet normal  -0.000000e+000  3.826836e-001  9.238794e-001
    outer loop
      vertex -5.000000e-001  4.625000e+000  9.000000e+000
      vertex -2.500000e+000  4.625000e+000  9.000000e+000
      vertex -5.000000e-001  3.917893e+000  9.292893e+000
    endloop
  endfacet
  facet normal  0.000000e+000  3.826836e-001  9.238794e-001
    outer loop
      vertex -5.000000e-001  3.917893e+000  9.292893e+000
      vertex -2.500000e+000  4.625000e+000  9.000000e+000
      vertex -2.500000e+000  3.917893e+000  9.292893e+000
    endloop
  endfacet
  facet normal  -0.000000e+000  9.238795e-001  3.826835e-001
    outer loop
      vertex -5.000000e-001  3.917893e+000  9.292893e+000
      vertex -2.500000e+000  3.917893e+000  9.292893e+000
      vertex -5.000000e-001  3.625000e+000  1.000000e+001
    endloop
  endfacet
  facet normal  0.000000e+000  9.238795e-001  3.826835e-001
    outer loop
      vertex -5.000000e-001  3.625000e+000  1.000000e+001
      vertex -2.500000e+000  3.917893e+000  9.292893e+000
      vertex -2.500000e+000  3.625000e+000  1.000000e+001
    endloop
  endfacet
  facet normal  7.066844e-001 -3.455655e-002  7.066845e-001
    outer loop
      vertex  1.000000e+000  0.000000e+000  9.598076e+000
      vertex  2.098076e+000  0.000000e+000  8.500000e+000
      vertex  1.640831e+000  2.952653e+000  9.101628e+000
    endloop
  endfacet
  facet normal  5.982265e-001  4.893003e-003  8.013122e-001
    outer loop
      vertex  1.000000e+000  0.000000e+000  9.598076e+000
      vertex  1.640831e+000  2.952653e+000  9.101628e+000
      vertex  8.960271e-001  3.325302e+000  9.655393e+000
    endloop
  endfacet
  facet normal  3.136321e-001 -6.560093e-003  9.495219e-001
    outer loop
      vertex  1.000000e+000  0.000000e+000  9.598076e+000
      vertex  8.960271e-001  3.325302e+000  9.655393e+000
      vertex -2.925093e-002  3.588502e+000  9.962835e+000
    endloop
  endfacet
  facet normal  7.225790e-002 -8.032675e-002  9.941461e-001
    outer loop
      vertex  1.000000e+000  0.000000e+000  9.598076e+000
      vertex -2.925093e-002  3.588502e+000  9.962835e+000
      vertex -5.000000e-001  3.625000e+000  1.000000e+001
    endloop
  endfacet
  facet normal  2.588193e-001  0.000000e+000  9.659258e-001
    outer loop
      vertex  1.000000e+000  0.000000e+000  9.598076e+000
      vertex -5.000000e-001  3.625000e+000  1.000000e+001
      vertex -5.000000e-001  0.000000e+000  1.000000e+001
    endloop
  endfacet
  facet normal  9.659258e-001  0.000000e+000  2.588191e-001
    outer loop
      vertex  2.500000e+000  0.000000e+000  7.000000e+000
      vertex  2.500000e+000  1.979249e+000  7.000000e+000
      vertex  2.098076e+000  0.000000e+000  8.500000e+000
    endloop
  endfacet
  facet normal  9.762324e-001 -3.631582e-002  2.136621e-001
    outer loop
      vertex  2.098076e+000  0.000000e+000  8.500000e+000
      vertex  2.500000e+000  1.979249e+000  7.000000e+000
      vertex  2.261687e+000  2.467127e+000  8.171786e+000
    endloop
  endfacet
  facet normal  8.357422e-001  1.759135e-002  5.488402e-001
    outer loop
      vertex  2.098076e+000  0.000000e+000  8.500000e+000
      vertex  2.261687e+000  2.467127e+000  8.171786e+000
      vertex  1.640831e+000  2.952653e+000  9.101628e+000
    endloop
  endfacet
  facet normal  9.799393e-001  0.000000e+000  1.992957e-001
    outer loop
      vertex  2.500000e+000 -1.979249e+000  7.000000e+000
      vertex  2.500000e+000  0.000000e+000  7.000000e+000
      vertex  2.261687e+000 -2.467127e+000  8.171786e+000
    endloop
  endfacet
  facet normal  9.655022e-001  2.961187e-002  2.587056e-001
    outer loop
      vertex  2.261687e+000 -2.467127e+000  8.171786e+000
      vertex  2.500000e+000  0.000000e+000  7.000000e+000
      vertex  2.098076e+000  0.000000e+000  8.500000e+000
    endloop
  endfacet
  facet normal  7.934391e-001 -2.826611e-002  6.079928e-001
    outer loop
      vertex  2.261687e+000 -2.467127e+000  8.171786e+000
      vertex  2.098076e+000  0.000000e+000  8.500000e+000
      vertex  1.291462e+000 -3.146068e+000  9.406380e+000
    endloop
  endfacet
  facet normal  7.069290e-001  2.241752e-002  7.069291e-001
    outer loop
      vertex  1.291462e+000 -3.146068e+000  9.406380e+000
      vertex  2.098076e+000  0.000000e+000  8.500000e+000
      vertex  1.000000e+000  0.000000e+000  9.598076e+000
    endloop
  endfacet
  facet normal  3.937461e-001 -1.951936e-002  9.190120e-001
    outer loop
      vertex  1.291462e+000 -3.146068e+000  9.406380e+000
      vertex  1.000000e+000  0.000000e+000  9.598076e+000
      vertex -2.925093e-002 -3.588502e+000  9.962835e+000
    endloop
  endfacet
  facet normal  2.587450e-001  2.394201e-002  9.656489e-001
    outer loop
      vertex -2.925093e-002 -3.588502e+000  9.962835e+000
      vertex  1.000000e+000  0.000000e+000  9.598076e+000
      vertex -5.000000e-001  0.000000e+000  1.000000e+001
    endloop
  endfacet
  facet normal  7.870309e-002  0.000000e+000  9.968981e-001
    outer loop
      vertex -2.925093e-002 -3.588502e+000  9.962835e+000
      vertex -5.000000e-001  0.000000e+000  1.000000e+001
      vertex -5.000000e-001 -3.625000e+000  1.000000e+001
    endloop
  endfacet
  facet normal  9.573154e-001 -2.780620e-001  7.892216e-002
    outer loop
      vertex  2.500000e+000  1.652075e+001  7.000000e+000
      vertex  2.261687e+000  1.603287e+001  8.171786e+000
      vertex  2.098076e+000  1.543372e+001  8.045422e+000
    endloop
  endfacet
  facet normal  9.627033e-001 -1.253758e-001  2.397564e-001
    outer loop
      vertex  2.500000e+000  1.652075e+001  7.000000e+000
      vertex  2.098076e+000  1.543372e+001  8.045422e+000
      vertex  2.500000e+000  1.482935e+001  6.115516e+000
    endloop
  endfacet
  facet normal  5.153779e-002  9.566408e-001 -2.866747e-001
    outer loop
      vertex -5.000000e-001  1.287500e+001  1.000000e+001
      vertex -2.925093e-002  1.283850e+001  9.962835e+000
      vertex  1.000000e+000  1.261191e+001  9.391728e+000
    endloop
  endfacet
  facet normal  3.023763e-001  8.806313e-001  3.647698e-001
    outer loop
      vertex -5.000000e-001  1.287500e+001  1.000000e+001
      vertex  1.000000e+000  1.261191e+001  9.391728e+000
      vertex -5.000000e-001  1.316789e+001  9.292893e+000
    endloop
  endfacet
  facet normal  9.627033e-001  1.253759e-001  2.397565e-001
    outer loop
      vertex  2.500000e+000  1.122925e+001  7.000000e+000
      vertex  2.500000e+000  1.292065e+001  6.115516e+000
      vertex  2.098076e+000  1.231628e+001  8.045422e+000
    endloop
  endfacet
  facet normal  9.573154e-001  2.780620e-001  7.892237e-002
    outer loop
      vertex  2.500000e+000  1.122925e+001  7.000000e+000
      vertex  2.098076e+000  1.231628e+001  8.045422e+000
      vertex  2.261687e+000  1.171713e+001  8.171786e+000
    endloop
  endfacet
  facet normal  9.648920e-001  1.139583e-001  2.366367e-001
    outer loop
      vertex  2.500000e+000  1.292065e+001  6.115516e+000
      vertex  2.098076e+000  1.331870e+001  7.562680e+000
      vertex  2.098076e+000  1.231628e+001  8.045422e+000
    endloop
  endfacet
  facet normal  2.921621e-001  3.659868e-001  8.835695e-001
    outer loop
      vertex  1.000000e+000  1.356304e+001  8.633225e+000
      vertex -5.000000e-001  1.387500e+001  9.000000e+000
      vertex -5.000000e-001  1.316789e+001  9.292893e+000
    endloop
  endfacet
  facet normal  2.713502e-001  4.176042e-001  8.671654e-001
    outer loop
      vertex  1.000000e+000  1.300091e+001  8.903932e+000
      vertex  1.000000e+000  1.356304e+001  8.633225e+000
      vertex -5.000000e-001  1.316789e+001  9.292893e+000
    endloop
  endfacet
  facet normal  2.413560e-001  7.587181e-001  6.050571e-001
    outer loop
      vertex  1.000000e+000  1.300091e+001  8.903932e+000
      vertex -5.000000e-001  1.316789e+001  9.292893e+000
      vertex  1.000000e+000  1.261191e+001  9.391728e+000
    endloop
  endfacet
  facet normal  2.715653e-001 -3.683025e-001  8.891600e-001
    outer loop
      vertex  1.000000e+000  1.474909e+001  8.903932e+000
      vertex -5.000000e-001  1.458211e+001  9.292893e+000
      vertex -5.000000e-001  1.387500e+001  9.000000e+000
    endloop
  endfacet
  facet normal  2.965667e-001 -4.143637e-001  8.604365e-001
    outer loop
      vertex  1.000000e+000  1.418696e+001  8.633225e+000
      vertex  1.000000e+000  1.474909e+001  8.903932e+000
      vertex -5.000000e-001  1.387500e+001  9.000000e+000
    endloop
  endfacet
  facet normal  2.375190e-001  0.000000e+000  9.713829e-001
    outer loop
      vertex  1.000000e+000  1.418696e+001  8.633225e+000
      vertex -5.000000e-001  1.387500e+001  9.000000e+000
      vertex  1.000000e+000  1.356304e+001  8.633225e+000
    endloop
  endfacet
  facet normal  5.941415e-001 -8.039786e-001  2.478349e-002
    outer loop
      vertex  2.261687e+000  1.603287e+001  8.171786e+000
      vertex  1.291462e+000  1.535393e+001  9.406380e+000
      vertex  1.000000e+000  1.513809e+001  9.391728e+000
    endloop
  endfacet
  facet normal  7.663916e-001 -3.260167e-001  5.534953e-001
    outer loop
      vertex  1.000000e+000  1.513809e+001  9.391728e+000
      vertex  2.098076e+000  1.543372e+001  8.045422e+000
      vertex  2.261687e+000  1.603287e+001  8.171786e+000
    endloop
  endfacet
  facet normal  2.413560e-001 -7.587181e-001  6.050571e-001
    outer loop
      vertex  1.000000e+000  1.513809e+001  9.391728e+000
      vertex -5.000000e-001  1.458211e+001  9.292893e+000
      vertex  1.000000e+000  1.474909e+001  8.903932e+000
    endloop
  endfacet
  facet normal  8.566257e-001  3.193809e-001  4.052014e-001
    outer loop
      vertex  1.640831e+000  1.220265e+001  9.101628e+000
      vertex  2.261687e+000  1.171713e+001  8.171786e+000
      vertex  2.098076e+000  1.231628e+001  8.045422e+000
    endloop
  endfacet
  facet normal  3.432821e-001  9.023402e-001  2.606522e-001
    outer loop
      vertex -2.925093e-002  1.283850e+001  9.962835e+000
      vertex  8.960271e-001  1.257530e+001  9.655393e+000
      vertex  1.000000e+000  1.261191e+001  9.391728e+000
    endloop
  endfacet
  facet normal  6.106690e-001  7.151328e-001  3.401008e-001
    outer loop
      vertex  1.000000e+000  1.261191e+001  9.391728e+000
      vertex  8.960271e-001  1.257530e+001  9.655393e+000
      vertex  1.640831e+000  1.220265e+001  9.101628e+000
    endloop
  endfacet
  facet normal  6.157924e-001  6.160117e-001  4.912526e-001
    outer loop
      vertex  1.000000e+000  1.261191e+001  9.391728e+000
      vertex  1.640831e+000  1.220265e+001  9.101628e+000
      vertex  1.000000e+000  1.300091e+001  8.903932e+000
    endloop
  endfacet
  facet normal  6.806254e-001  6.363213e-001  3.631036e-001
    outer loop
      vertex  1.000000e+000  1.300091e+001  8.903932e+000
      vertex  1.640831e+000  1.220265e+001  9.101628e+000
      vertex  2.098076e+000  1.231628e+001  8.045422e+000
    endloop
  endfacet
  facet normal  6.980735e-001  3.106717e-001  6.451175e-001
    outer loop
      vertex  1.000000e+000  1.300091e+001  8.903932e+000
      vertex  2.098076e+000  1.231628e+001  8.045422e+000
      vertex  1.000000e+000  1.356304e+001  8.633225e+000
    endloop
  endfacet
  facet normal  6.980737e-001  3.106721e-001  6.451171e-001
    outer loop
      vertex  1.000000e+000  1.356304e+001  8.633225e+000
      vertex  2.098076e+000  1.231628e+001  8.045422e+000
      vertex  2.098076e+000  1.331870e+001  7.562680e+000
    endloop
  endfacet
  facet normal  6.980737e-001  0.000000e+000  7.160259e-001
    outer loop
      vertex  1.000000e+000  1.356304e+001  8.633225e+000
      vertex  2.098076e+000  1.331870e+001  7.562680e+000
      vertex  1.000000e+000  1.418696e+001  8.633225e+000
    endloop
  endfacet
  facet normal  6.980737e-001  0.000000e+000  7.160259e-001
    outer loop
      vertex  1.000000e+000  1.418696e+001  8.633225e+000
      vertex  2.098076e+000  1.331870e+001  7.562680e+000
      vertex  2.098076e+000  1.443130e+001  7.562680e+000
    endloop
  endfacet
  facet normal  6.980738e-001 -3.106716e-001  6.451173e-001
    outer loop
      vertex  1.000000e+000  1.418696e+001  8.633225e+000
      vertex  2.098076e+000  1.443130e+001  7.562680e+000
      vertex  1.000000e+000  1.474909e+001  8.903932e+000
    endloop
  endfacet
  facet normal  6.980736e-001 -3.106722e-001  6.451172e-001
    outer loop
      vertex  1.000000e+000  1.474909e+001  8.903932e+000
      vertex  2.098076e+000  1.443130e+001  7.562680e+000
      vertex  2.098076e+000  1.543372e+001  8.045422e+000
    endloop
  endfacet
  facet normal  6.980735e-001 -5.598119e-001  4.464348e-001
    outer loop
      vertex  1.000000e+000  1.474909e+001  8.903932e+000
      vertex  2.098076e+000  1.543372e+001  8.045422e+000
      vertex  1.000000e+000  1.513809e+001  9.391728e+000
    endloop
  endfacet
  facet normal  9.635293e-001  0.000000e+000  2.676030e-001
    outer loop
      vertex  2.098076e+000  1.331870e+001  7.562680e+000
      vertex  2.500000e+000  1.292065e+001  6.115516e+000
      vertex  2.098076e+000  1.443130e+001  7.562680e+000
    endloop
  endfacet
  facet normal  9.635293e-001  0.000000e+000  2.676030e-001
    outer loop
      vertex  2.098076e+000  1.443130e+001  7.562680e+000
      vertex  2.500000e+000  1.292065e+001  6.115516e+000
      vertex  2.500000e+000  1.482935e+001  6.115516e+000
    endloop
  endfacet
  facet normal  9.648920e-001 -1.139583e-001  2.366367e-001
    outer loop
      vertex  2.098076e+000  1.443130e+001  7.562680e+000
      vertex  2.500000e+000  1.482935e+001  6.115516e+000
      vertex  2.098076e+000  1.543372e+001  8.045422e+000
    endloop
  endfacet
  facet normal  4.674035e-001 -6.702831e-001  5.764152e-001
    outer loop
      vertex  1.291462e+000  1.535393e+001  9.406380e+000
      vertex -2.925093e-002  1.491150e+001  9.962835e+000
      vertex  1.000000e+000  1.513809e+001  9.391728e+000
    endloop
  endfacet
  facet normal  5.153780e-002 -9.566408e-001 -2.866746e-001
    outer loop
      vertex  1.000000e+000  1.513809e+001  9.391728e+000
      vertex -2.925093e-002  1.491150e+001  9.962835e+000
      vertex -5.000000e-001  1.487500e+001  1.000000e+001
    endloop
  endfacet
  facet normal  3.023763e-001 -8.806313e-001  3.647698e-001
    outer loop
      vertex  1.000000e+000  1.513809e+001  9.391728e+000
      vertex -5.000000e-001  1.487500e+001  1.000000e+001
      vertex -5.000000e-001  1.458211e+001  9.292893e+000
    endloop
  endfacet
  facet normal  -0.000000e+000  0.000000e+000  1.000000e+000
    outer loop
      vertex -5.000000e-001  1.287500e+001  1.000000e+001
      vertex -2.500000e+000  1.287500e+001  1.000000e+001
      vertex -5.000000e-001  5.625000e+000  1.000000e+001
    endloop
  endfacet
  facet normal  0.000000e+000  0.000000e+000  1.000000e+000
    outer loop
      vertex -5.000000e-001  5.625000e+000  1.000000e+001
      vertex -2.500000e+000  1.287500e+001  1.000000e+001
      vertex -2.500000e+000  5.625000e+000  1.000000e+001
    endloop
  endfacet
  facet normal  0.000000e+000 -9.238794e-001  3.826837e-001
    outer loop
      vertex -5.000000e-001  1.487500e+001  1.000000e+001
      vertex -2.500000e+000  1.487500e+001  1.000000e+001
      vertex -5.000000e-001  1.458211e+001  9.292893e+000
    endloop
  endfacet
  facet normal  0.000000e+000 -9.238794e-001  3.826837e-001
    outer loop
      vertex -5.000000e-001  1.458211e+001  9.292893e+000
      vertex -2.500000e+000  1.487500e+001  1.000000e+001
      vertex -2.500000e+000  1.458211e+001  9.292893e+000
    endloop
  endfacet
  facet normal  0.000000e+000 -3.826837e-001  9.238794e-001
    outer loop
      vertex -5.000000e-001  1.458211e+001  9.292893e+000
      vertex -2.500000e+000  1.458211e+001  9.292893e+000
      vertex -5.000000e-001  1.387500e+001  9.000000e+000
    endloop
  endfacet
  facet normal  0.000000e+000 -3.826837e-001  9.238794e-001
    outer loop
      vertex -5.000000e-001  1.387500e+001  9.000000e+000
      vertex -2.500000e+000  1.458211e+001  9.292893e+000
      vertex -2.500000e+000  1.387500e+001  9.000000e+000
    endloop
  endfacet
  facet normal  -0.000000e+000  3.826837e-001  9.238794e-001
    outer loop
      vertex -5.000000e-001  1.387500e+001  9.000000e+000
      vertex -2.500000e+000  1.387500e+001  9.000000e+000
      vertex -5.000000e-001  1.316789e+001  9.292893e+000
    endloop
  endfacet
  facet normal  0.000000e+000  3.826837e-001  9.238794e-001
    outer loop
      vertex -5.000000e-001  1.316789e+001  9.292893e+000
      vertex -2.500000e+000  1.387500e+001  9.000000e+000
      vertex -2.500000e+000  1.316789e+001  9.292893e+000
    endloop
  endfacet
  facet normal  -0.000000e+000  9.238794e-001  3.826837e-001
    outer loop
      vertex -5.000000e-001  1.316789e+001  9.292893e+000
      vertex -2.500000e+000  1.316789e+001  9.292893e+000
      vertex -5.000000e-001  1.287500e+001  1.000000e+001
    endloop
  endfacet
  facet normal  0.000000e+000  9.238794e-001  3.826837e-001
    outer loop
      vertex -5.000000e-001  1.287500e+001  1.000000e+001
      vertex -2.500000e+000  1.316789e+001  9.292893e+000
      vertex -2.500000e+000  1.287500e+001  1.000000e+001
    endloop
  endfacet
  facet normal  7.870309e-002  -0.000000e+000  9.968981e-001
    outer loop
      vertex -5.000000e-001  1.287500e+001  1.000000e+001
      vertex -5.000000e-001  5.625000e+000  1.000000e+001
      vertex -2.925093e-002  1.283850e+001  9.962835e+000
    endloop
  endfacet
  facet normal  7.870309e-002  0.000000e+000  9.968981e-001
    outer loop
      vertex -2.925093e-002  1.283850e+001  9.962835e+000
      vertex -5.000000e-001  5.625000e+000  1.000000e+001
      vertex -2.925093e-002  5.661498e+000  9.962835e+000
    endloop
  endfacet
  facet normal  3.153200e-001  -0.000000e+000  9.489855e-001
    outer loop
      vertex -2.925093e-002  1.283850e+001  9.962835e+000
      vertex -2.925093e-002  5.661498e+000  9.962835e+000
      vertex  8.960271e-001  1.257530e+001  9.655393e+000
    endloop
  endfacet
  facet normal  3.915123e-001 -1.148129e-002  9.201012e-001
    outer loop
      vertex  8.960271e-001  1.257530e+001  9.655393e+000
      vertex -2.925093e-002  5.661498e+000  9.962835e+000
      vertex  1.291462e+000  6.103932e+000  9.406380e+000
    endloop
  endfacet
  facet normal  5.984980e-001  5.745548e-003  8.011037e-001
    outer loop
      vertex  8.960271e-001  1.257530e+001  9.655393e+000
      vertex  1.291462e+000  6.103932e+000  9.406380e+000
      vertex  1.640831e+000  1.220265e+001  9.101628e+000
    endloop
  endfacet
  facet normal  8.268215e-001 -1.927536e-002  5.621341e-001
    outer loop
      vertex  1.640831e+000  1.220265e+001  9.101628e+000
      vertex  1.291462e+000  6.103932e+000  9.406380e+000
      vertex  2.261687e+000  1.171713e+001  8.171786e+000
    endloop
  endfacet
  facet normal  7.862602e-001  0.000000e+000  6.178956e-001
    outer loop
      vertex  2.261687e+000  1.171713e+001  8.171786e+000
      vertex  1.291462e+000  6.103932e+000  9.406380e+000
      vertex  2.261687e+000  6.782874e+000  8.171786e+000
    endloop
  endfacet
  facet normal  9.799394e-001  -0.000000e+000  1.992957e-001
    outer loop
      vertex  2.261687e+000  1.171713e+001  8.171786e+000
      vertex  2.261687e+000  6.782874e+000  8.171786e+000
      vertex  2.500000e+000  1.122925e+001  7.000000e+000
    endloop
  endfacet
  facet normal  9.799393e-001  0.000000e+000  1.992957e-001
    outer loop
      vertex  2.500000e+000  1.122925e+001  7.000000e+000
      vertex  2.261687e+000  6.782874e+000  8.171786e+000
      vertex  2.500000e+000  7.270751e+000  7.000000e+000
    endloop
  endfacet
  facet normal  -0.000000e+000  0.000000e+000  1.000000e+000
    outer loop
      vertex -5.000000e-001  2.550000e+001  1.000000e+001
      vertex -2.500000e+000  2.550000e+001  1.000000e+001
      vertex -5.000000e-001  1.487500e+001  1.000000e+001
    endloop
  endfacet
  facet normal  0.000000e+000  0.000000e+000  1.000000e+000
    outer loop
      vertex -5.000000e-001  1.487500e+001  1.000000e+001
      vertex -2.500000e+000  2.550000e+001  1.000000e+001
      vertex -2.500000e+000  1.487500e+001  1.000000e+001
    endloop
  endfacet
endsolid CATIA STL
