solid CATIA STL
  facet normal  0.000000e+000  0.000000e+000  1.000000e+000
    outer loop
      vertex  5.791844e+001 -1.667130e+001  2.000000e+000
      vertex  5.791844e+001 -3.328698e+000  2.000000e+000
      vertex  5.616844e+001 -1.794275e+001  2.000000e+000
    endloop
  endfacet
  facet normal  0.000000e+000  0.000000e+000  1.000000e+000
    outer loop
      vertex  5.100000e+001  9.000000e+000  2.000000e+000
      vertex  5.100000e+001 -2.900000e+001  2.000000e+000
      vertex  5.550000e+001  6.483219e-008  2.000000e+000
    endloop
  endfacet
  facet normal  0.000000e+000  -0.000000e+000  1.000000e+000
    outer loop
      vertex  5.100000e+001  9.000000e+000  2.000000e+000
      vertex  5.550000e+001  6.483219e-008  2.000000e+000
      vertex  5.616844e+001  2.057248e+000  2.000000e+000
    endloop
  endfacet
  facet normal  0.000000e+000  -0.000000e+000  1.000000e+000
    outer loop
      vertex  5.100000e+001  9.000000e+000  2.000000e+000
      vertex  5.616844e+001  2.057248e+000  2.000000e+000
      vertex  5.791844e+001  3.328698e+000  2.000000e+000
    endloop
  endfacet
  facet normal  -0.000000e+000  -0.000000e+000  9.999999e-001
    outer loop
      vertex  5.100000e+001  9.000000e+000  2.000000e+000
      vertex  5.791844e+001  3.328698e+000  2.000000e+000
      vertex  6.008156e+001  3.328698e+000  2.000000e+000
    endloop
  endfacet
  facet normal  0.000000e+000  -0.000000e+000  9.999999e-001
    outer loop
      vertex  5.100000e+001  9.000000e+000  2.000000e+000
      vertex  6.008156e+001  3.328698e+000  2.000000e+000
      vertex  7.691844e+001  3.328698e+000  2.000000e+000
    endloop
  endfacet
  facet normal  -0.000000e+000  -0.000000e+000  1.000000e+000
    outer loop
      vertex  5.100000e+001  9.000000e+000  2.000000e+000
      vertex  7.691844e+001  3.328698e+000  2.000000e+000
      vertex  7.908156e+001  3.328698e+000  2.000000e+000
    endloop
  endfacet
  facet normal  0.000000e+000  -0.000000e+000  1.000000e+000
    outer loop
      vertex  5.100000e+001  9.000000e+000  2.000000e+000
      vertex  7.908156e+001  3.328698e+000  2.000000e+000
      vertex  8.600000e+001  9.000000e+000  2.000000e+000
    endloop
  endfacet
  facet normal  0.000000e+000  0.000000e+000  1.000000e+000
    outer loop
      vertex  5.100000e+001 -2.900000e+001  2.000000e+000
      vertex  8.600000e+001 -2.900000e+001  2.000000e+000
      vertex  7.908156e+001 -2.332870e+001  2.000000e+000
    endloop
  endfacet
  facet normal  0.000000e+000  0.000000e+000  1.000000e+000
    outer loop
      vertex  5.100000e+001 -2.900000e+001  2.000000e+000
      vertex  7.908156e+001 -2.332870e+001  2.000000e+000
      vertex  7.691844e+001 -2.332870e+001  2.000000e+000
    endloop
  endfacet
  facet normal  0.000000e+000  0.000000e+000  1.000000e+000
    outer loop
      vertex  5.100000e+001 -2.900000e+001  2.000000e+000
      vertex  7.691844e+001 -2.332870e+001  2.000000e+000
      vertex  6.008156e+001 -2.332870e+001  2.000000e+000
    endloop
  endfacet
  facet normal  0.000000e+000  0.000000e+000  1.000000e+000
    outer loop
      vertex  5.100000e+001 -2.900000e+001  2.000000e+000
      vertex  6.008156e+001 -2.332870e+001  2.000000e+000
      vertex  5.791844e+001 -2.332870e+001  2.000000e+000
    endloop
  endfacet
  facet normal  0.000000e+000  0.000000e+000  1.000000e+000
    outer loop
      vertex  5.100000e+001 -2.900000e+001  2.000000e+000
      vertex  5.791844e+001 -2.332870e+001  2.000000e+000
      vertex  5.616844e+001 -2.205725e+001  2.000000e+000
    endloop
  endfacet
  facet normal  0.000000e+000  0.000000e+000  1.000000e+000
    outer loop
      vertex  5.100000e+001 -2.900000e+001  2.000000e+000
      vertex  5.616844e+001 -2.205725e+001  2.000000e+000
      vertex  5.550000e+001 -2.000000e+001  2.000000e+000
    endloop
  endfacet
  facet normal  0.000000e+000  -0.000000e+000  1.000000e+000
    outer loop
      vertex  5.100000e+001 -2.900000e+001  2.000000e+000
      vertex  5.550000e+001 -2.000000e+001  2.000000e+000
      vertex  5.616844e+001 -1.794275e+001  2.000000e+000
    endloop
  endfacet
  facet normal  0.000000e+000  -0.000000e+000  1.000000e+000
    outer loop
      vertex  5.100000e+001 -2.900000e+001  2.000000e+000
      vertex  5.616844e+001 -1.794275e+001  2.000000e+000
      vertex  5.791844e+001 -3.328698e+000  2.000000e+000
    endloop
  endfacet
  facet normal  0.000000e+000  0.000000e+000  1.000000e+000
    outer loop
      vertex  5.100000e+001 -2.900000e+001  2.000000e+000
      vertex  5.791844e+001 -3.328698e+000  2.000000e+000
      vertex  5.616844e+001 -2.057248e+000  2.000000e+000
    endloop
  endfacet
  facet normal  0.000000e+000  0.000000e+000  9.999999e-001
    outer loop
      vertex  5.100000e+001 -2.900000e+001  2.000000e+000
      vertex  5.616844e+001 -2.057248e+000  2.000000e+000
      vertex  5.550000e+001  6.483219e-008  2.000000e+000
    endloop
  endfacet
  facet normal  0.000000e+000  0.000000e+000  9.999999e-001
    outer loop
      vertex  8.600000e+001 -2.900000e+001  2.000000e+000
      vertex  8.150000e+001  1.416621e-014  2.000000e+000
      vertex  8.083156e+001 -2.057248e+000  2.000000e+000
    endloop
  endfacet
  facet normal  0.000000e+000  0.000000e+000  1.000000e+000
    outer loop
      vertex  8.600000e+001 -2.900000e+001  2.000000e+000
      vertex  8.083156e+001 -2.057248e+000  2.000000e+000
      vertex  7.908156e+001 -3.328698e+000  2.000000e+000
    endloop
  endfacet
  facet normal  0.000000e+000  0.000000e+000  1.000000e+000
    outer loop
      vertex  8.600000e+001 -2.900000e+001  2.000000e+000
      vertex  7.908156e+001 -3.328698e+000  2.000000e+000
      vertex  8.083156e+001 -1.794275e+001  2.000000e+000
    endloop
  endfacet
  facet normal  0.000000e+000  0.000000e+000  1.000000e+000
    outer loop
      vertex  8.600000e+001 -2.900000e+001  2.000000e+000
      vertex  8.083156e+001 -1.794275e+001  2.000000e+000
      vertex  8.150000e+001 -2.000000e+001  2.000000e+000
    endloop
  endfacet
  facet normal  0.000000e+000  0.000000e+000  1.000000e+000
    outer loop
      vertex  8.600000e+001 -2.900000e+001  2.000000e+000
      vertex  8.150000e+001 -2.000000e+001  2.000000e+000
      vertex  8.083156e+001 -2.205725e+001  2.000000e+000
    endloop
  endfacet
  facet normal  0.000000e+000  0.000000e+000  1.000000e+000
    outer loop
      vertex  8.600000e+001 -2.900000e+001  2.000000e+000
      vertex  8.083156e+001 -2.205725e+001  2.000000e+000
      vertex  7.908156e+001 -2.332870e+001  2.000000e+000
    endloop
  endfacet
  facet normal  -0.000000e+000  0.000000e+000  1.000000e+000
    outer loop
      vertex  8.600000e+001  9.000000e+000  2.000000e+000
      vertex  7.908156e+001  3.328698e+000  2.000000e+000
      vertex  8.083156e+001  2.057248e+000  2.000000e+000
    endloop
  endfacet
  facet normal  -0.000000e+000  0.000000e+000  1.000000e+000
    outer loop
      vertex  8.600000e+001  9.000000e+000  2.000000e+000
      vertex  8.083156e+001  2.057248e+000  2.000000e+000
      vertex  8.150000e+001  1.416621e-014  2.000000e+000
    endloop
  endfacet
  facet normal  -0.000000e+000  0.000000e+000  1.000000e+000
    outer loop
      vertex  8.600000e+001  9.000000e+000  2.000000e+000
      vertex  8.150000e+001  1.416621e-014  2.000000e+000
      vertex  8.600000e+001 -2.900000e+001  2.000000e+000
    endloop
  endfacet
  facet normal  0.000000e+000  0.000000e+000  9.999999e-001
    outer loop
      vertex  5.791844e+001 -3.328698e+000  2.000000e+000
      vertex  5.791844e+001 -1.667130e+001  2.000000e+000
      vertex  6.008156e+001 -3.328698e+000  2.000000e+000
    endloop
  endfacet
  facet normal  0.000000e+000  0.000000e+000  9.999999e-001
    outer loop
      vertex  6.008156e+001 -3.328698e+000  2.000000e+000
      vertex  5.791844e+001 -1.667130e+001  2.000000e+000
      vertex  6.008156e+001 -1.667130e+001  2.000000e+000
    endloop
  endfacet
  facet normal  0.000000e+000  0.000000e+000  1.000000e+000
    outer loop
      vertex  6.008156e+001 -3.328698e+000  2.000000e+000
      vertex  6.008156e+001 -1.667130e+001  2.000000e+000
      vertex  7.691844e+001 -3.328698e+000  2.000000e+000
    endloop
  endfacet
  facet normal  0.000000e+000  0.000000e+000  9.999999e-001
    outer loop
      vertex  7.691844e+001 -3.328698e+000  2.000000e+000
      vertex  7.691844e+001 -1.667130e+001  2.000000e+000
      vertex  7.908156e+001 -3.328698e+000  2.000000e+000
    endloop
  endfacet
  facet normal  0.000000e+000  0.000000e+000  9.999999e-001
    outer loop
      vertex  7.908156e+001 -3.328698e+000  2.000000e+000
      vertex  7.691844e+001 -1.667130e+001  2.000000e+000
      vertex  7.908156e+001 -1.667130e+001  2.000000e+000
    endloop
  endfacet
  facet normal  -0.000000e+000  0.000000e+000  1.000000e+000
    outer loop
      vertex  7.908156e+001 -3.328698e+000  2.000000e+000
      vertex  7.908156e+001 -1.667130e+001  2.000000e+000
      vertex  8.083156e+001 -1.794275e+001  2.000000e+000
    endloop
  endfacet
  facet normal  -0.000000e+000  0.000000e+000  1.000000e+000
    outer loop
      vertex  7.691844e+001  3.328698e+000  2.000000e+000
      vertex  6.008156e+001  3.328698e+000  2.000000e+000
      vertex  7.516844e+001  2.057248e+000  2.000000e+000
    endloop
  endfacet
  facet normal  0.000000e+000  0.000000e+000  1.000000e+000
    outer loop
      vertex  7.516844e+001  2.057248e+000  2.000000e+000
      vertex  6.008156e+001  3.328698e+000  2.000000e+000
      vertex  6.183156e+001  2.057248e+000  2.000000e+000
    endloop
  endfacet
  facet normal  -0.000000e+000  0.000000e+000  1.000000e+000
    outer loop
      vertex  7.516844e+001  2.057248e+000  2.000000e+000
      vertex  6.183156e+001  2.057248e+000  2.000000e+000
      vertex  7.450000e+001  6.483224e-008  2.000000e+000
    endloop
  endfacet
  facet normal  0.000000e+000  0.000000e+000  9.999999e-001
    outer loop
      vertex  7.450000e+001  6.483224e-008  2.000000e+000
      vertex  6.183156e+001  2.057248e+000  2.000000e+000
      vertex  6.250000e+001  7.481198e-016  2.000000e+000
    endloop
  endfacet
  facet normal  -0.000000e+000  0.000000e+000  9.999999e-001
    outer loop
      vertex  7.450000e+001  6.483224e-008  2.000000e+000
      vertex  6.250000e+001  7.481198e-016  2.000000e+000
      vertex  7.516844e+001 -2.057248e+000  2.000000e+000
    endloop
  endfacet
  facet normal  0.000000e+000  0.000000e+000  1.000000e+000
    outer loop
      vertex  7.516844e+001 -2.057248e+000  2.000000e+000
      vertex  6.250000e+001  7.481198e-016  2.000000e+000
      vertex  6.183156e+001 -2.057248e+000  2.000000e+000
    endloop
  endfacet
  facet normal  -0.000000e+000  0.000000e+000  1.000000e+000
    outer loop
      vertex  7.516844e+001 -2.057248e+000  2.000000e+000
      vertex  6.183156e+001 -2.057248e+000  2.000000e+000
      vertex  7.691844e+001 -3.328698e+000  2.000000e+000
    endloop
  endfacet
  facet normal  0.000000e+000  0.000000e+000  1.000000e+000
    outer loop
      vertex  7.691844e+001 -3.328698e+000  2.000000e+000
      vertex  6.183156e+001 -2.057248e+000  2.000000e+000
      vertex  6.008156e+001 -3.328698e+000  2.000000e+000
    endloop
  endfacet
  facet normal  0.000000e+000  0.000000e+000  1.000000e+000
    outer loop
      vertex  6.008156e+001 -2.332870e+001  2.000000e+000
      vertex  7.691844e+001 -2.332870e+001  2.000000e+000
      vertex  6.183156e+001 -2.205725e+001  2.000000e+000
    endloop
  endfacet
  facet normal  -0.000000e+000  0.000000e+000  1.000000e+000
    outer loop
      vertex  6.183156e+001 -2.205725e+001  2.000000e+000
      vertex  7.691844e+001 -2.332870e+001  2.000000e+000
      vertex  7.516844e+001 -2.205725e+001  2.000000e+000
    endloop
  endfacet
  facet normal  0.000000e+000  0.000000e+000  1.000000e+000
    outer loop
      vertex  6.183156e+001 -2.205725e+001  2.000000e+000
      vertex  7.516844e+001 -2.205725e+001  2.000000e+000
      vertex  6.250000e+001 -2.000000e+001  2.000000e+000
    endloop
  endfacet
  facet normal  -0.000000e+000  0.000000e+000  1.000000e+000
    outer loop
      vertex  6.250000e+001 -2.000000e+001  2.000000e+000
      vertex  7.516844e+001 -2.205725e+001  2.000000e+000
      vertex  7.450000e+001 -2.000000e+001  2.000000e+000
    endloop
  endfacet
  facet normal  0.000000e+000  0.000000e+000  1.000000e+000
    outer loop
      vertex  6.250000e+001 -2.000000e+001  2.000000e+000
      vertex  7.450000e+001 -2.000000e+001  2.000000e+000
      vertex  6.183156e+001 -1.794275e+001  2.000000e+000
    endloop
  endfacet
  facet normal  -0.000000e+000  0.000000e+000  1.000000e+000
    outer loop
      vertex  6.183156e+001 -1.794275e+001  2.000000e+000
      vertex  7.450000e+001 -2.000000e+001  2.000000e+000
      vertex  7.516844e+001 -1.794275e+001  2.000000e+000
    endloop
  endfacet
  facet normal  0.000000e+000  0.000000e+000  1.000000e+000
    outer loop
      vertex  6.183156e+001 -1.794275e+001  2.000000e+000
      vertex  7.516844e+001 -1.794275e+001  2.000000e+000
      vertex  6.008156e+001 -1.667130e+001  2.000000e+000
    endloop
  endfacet
  facet normal  -0.000000e+000  0.000000e+000  1.000000e+000
    outer loop
      vertex  6.008156e+001 -1.667130e+001  2.000000e+000
      vertex  7.516844e+001 -1.794275e+001  2.000000e+000
      vertex  7.691844e+001 -1.667130e+001  2.000000e+000
    endloop
  endfacet
  facet normal  0.000000e+000  -0.000000e+000  1.000000e+000
    outer loop
      vertex  6.008156e+001 -1.667130e+001  2.000000e+000
      vertex  7.691844e+001 -1.667130e+001  2.000000e+000
      vertex  7.691844e+001 -3.328698e+000  2.000000e+000
    endloop
  endfacet
  facet normal  9.238799e-001 -3.826826e-001  0.000000e+000
    outer loop
      vertex  7.550000e+001 -2.000000e+001  1.000000e+000
      vertex  7.550000e+001 -2.000000e+001  0.000000e+000
      vertex  7.623223e+001 -1.823223e+001  1.000000e+000
    endloop
  endfacet
  facet normal  9.238799e-001 -3.826826e-001  0.000000e+000
    outer loop
      vertex  7.623223e+001 -1.823223e+001  1.000000e+000
      vertex  7.550000e+001 -2.000000e+001  0.000000e+000
      vertex  7.623223e+001 -1.823223e+001  0.000000e+000
    endloop
  endfacet
  facet normal  3.826831e-001 -9.238797e-001  0.000000e+000
    outer loop
      vertex  7.623223e+001 -1.823223e+001  1.000000e+000
      vertex  7.623223e+001 -1.823223e+001  0.000000e+000
      vertex  7.800000e+001 -1.750000e+001  1.000000e+000
    endloop
  endfacet
  facet normal  3.826831e-001 -9.238797e-001  0.000000e+000
    outer loop
      vertex  7.800000e+001 -1.750000e+001  1.000000e+000
      vertex  7.623223e+001 -1.823223e+001  0.000000e+000
      vertex  7.800000e+001 -1.750000e+001  0.000000e+000
    endloop
  endfacet
  facet normal -3.826831e-001 -9.238797e-001  0.000000e+000
    outer loop
      vertex  7.800000e+001 -1.750000e+001  1.000000e+000
      vertex  7.800000e+001 -1.750000e+001  0.000000e+000
      vertex  7.976777e+001 -1.823223e+001  1.000000e+000
    endloop
  endfacet
  facet normal -3.826831e-001 -9.238797e-001  -0.000000e+000
    outer loop
      vertex  7.976777e+001 -1.823223e+001  1.000000e+000
      vertex  7.800000e+001 -1.750000e+001  0.000000e+000
      vertex  7.976777e+001 -1.823223e+001  0.000000e+000
    endloop
  endfacet
  facet normal -9.238799e-001 -3.826826e-001  0.000000e+000
    outer loop
      vertex  7.976777e+001 -1.823223e+001  1.000000e+000
      vertex  7.976777e+001 -1.823223e+001  0.000000e+000
      vertex  8.050000e+001 -2.000000e+001  1.000000e+000
    endloop
  endfacet
  facet normal -9.238799e-001 -3.826826e-001  -0.000000e+000
    outer loop
      vertex  8.050000e+001 -2.000000e+001  1.000000e+000
      vertex  7.976777e+001 -1.823223e+001  0.000000e+000
      vertex  8.050000e+001 -2.000000e+001  0.000000e+000
    endloop
  endfacet
  facet normal -9.238799e-001  3.826826e-001  0.000000e+000
    outer loop
      vertex  8.050000e+001 -2.000000e+001  1.000000e+000
      vertex  8.050000e+001 -2.000000e+001  0.000000e+000
      vertex  7.976777e+001 -2.176777e+001  1.000000e+000
    endloop
  endfacet
  facet normal -9.238799e-001  3.826826e-001  0.000000e+000
    outer loop
      vertex  7.976777e+001 -2.176777e+001  1.000000e+000
      vertex  8.050000e+001 -2.000000e+001  0.000000e+000
      vertex  7.976777e+001 -2.176777e+001  0.000000e+000
    endloop
  endfacet
  facet normal -3.826831e-001  9.238797e-001  0.000000e+000
    outer loop
      vertex  7.976777e+001 -2.176777e+001  1.000000e+000
      vertex  7.976777e+001 -2.176777e+001  0.000000e+000
      vertex  7.800000e+001 -2.250000e+001  1.000000e+000
    endloop
  endfacet
  facet normal -3.826831e-001  9.238797e-001  0.000000e+000
    outer loop
      vertex  7.800000e+001 -2.250000e+001  1.000000e+000
      vertex  7.976777e+001 -2.176777e+001  0.000000e+000
      vertex  7.800000e+001 -2.250000e+001  0.000000e+000
    endloop
  endfacet
  facet normal  3.826831e-001  9.238797e-001  -0.000000e+000
    outer loop
      vertex  7.800000e+001 -2.250000e+001  1.000000e+000
      vertex  7.800000e+001 -2.250000e+001  0.000000e+000
      vertex  7.623223e+001 -2.176777e+001  1.000000e+000
    endloop
  endfacet
  facet normal  3.826831e-001  9.238797e-001  0.000000e+000
    outer loop
      vertex  7.623223e+001 -2.176777e+001  1.000000e+000
      vertex  7.800000e+001 -2.250000e+001  0.000000e+000
      vertex  7.623223e+001 -2.176777e+001  0.000000e+000
    endloop
  endfacet
  facet normal  9.238799e-001  3.826826e-001  -0.000000e+000
    outer loop
      vertex  7.623223e+001 -2.176777e+001  1.000000e+000
      vertex  7.623223e+001 -2.176777e+001  0.000000e+000
      vertex  7.550000e+001 -2.000000e+001  1.000000e+000
    endloop
  endfacet
  facet normal  9.238799e-001  3.826826e-001  0.000000e+000
    outer loop
      vertex  7.550000e+001 -2.000000e+001  1.000000e+000
      vertex  7.623223e+001 -2.176777e+001  0.000000e+000
      vertex  7.550000e+001 -2.000000e+001  0.000000e+000
    endloop
  endfacet
  facet normal  4.189912e-001  1.361387e-001  8.977264e-001
    outer loop
      vertex  7.450000e+001 -2.000000e+001  2.000000e+000
      vertex  7.516844e+001 -2.205725e+001  2.000000e+000
      vertex  7.558128e+001 -2.139645e+001  1.707107e+000
    endloop
  endfacet
  facet normal  3.806869e-001  1.020046e-001  9.190607e-001
    outer loop
      vertex  7.450000e+001 -2.000000e+001  2.000000e+000
      vertex  7.558128e+001 -2.139645e+001  1.707107e+000
      vertex  7.520711e+001 -2.000000e+001  1.707107e+000
    endloop
  endfacet
  facet normal -3.806869e-001  1.020046e-001  9.190607e-001
    outer loop
      vertex  8.150000e+001 -2.000000e+001  2.000000e+000
      vertex  8.079289e+001 -2.000000e+001  1.707107e+000
      vertex  8.041872e+001 -2.139645e+001  1.707107e+000
    endloop
  endfacet
  facet normal -4.189912e-001  1.361387e-001  8.977264e-001
    outer loop
      vertex  8.150000e+001 -2.000000e+001  2.000000e+000
      vertex  8.041872e+001 -2.139645e+001  1.707107e+000
      vertex  8.083156e+001 -2.205725e+001  2.000000e+000
    endloop
  endfacet
  facet normal -7.747814e-001  3.209241e-001  5.447215e-001
    outer loop
      vertex  8.050000e+001 -2.000000e+001  1.000000e+000
      vertex  7.976777e+001 -2.176777e+001  1.000000e+000
      vertex  8.041872e+001 -2.139645e+001  1.707107e+000
    endloop
  endfacet
  facet normal -8.968092e-001  2.402989e-001  3.714696e-001
    outer loop
      vertex  8.050000e+001 -2.000000e+001  1.000000e+000
      vertex  8.041872e+001 -2.139645e+001  1.707107e+000
      vertex  8.079289e+001 -2.000000e+001  1.707107e+000
    endloop
  endfacet
  facet normal  8.968092e-001  2.402989e-001  3.714696e-001
    outer loop
      vertex  7.550000e+001 -2.000000e+001  1.000000e+000
      vertex  7.520711e+001 -2.000000e+001  1.707107e+000
      vertex  7.558128e+001 -2.139645e+001  1.707107e+000
    endloop
  endfacet
  facet normal  7.747814e-001  3.209241e-001  5.447215e-001
    outer loop
      vertex  7.550000e+001 -2.000000e+001  1.000000e+000
      vertex  7.558128e+001 -2.139645e+001  1.707107e+000
      vertex  7.623223e+001 -2.176777e+001  1.000000e+000
    endloop
  endfacet
  facet normal  2.545179e-001  2.545179e-001  9.329744e-001
    outer loop
      vertex  7.516844e+001 -2.205725e+001  2.000000e+000
      vertex  7.660355e+001 -2.241872e+001  1.707107e+000
      vertex  7.558128e+001 -2.139645e+001  1.707107e+000
    endloop
  endfacet
  facet normal  8.922991e-002  3.330111e-001  9.386914e-001
    outer loop
      vertex  7.691844e+001 -2.332870e+001  2.000000e+000
      vertex  7.800000e+001 -2.279289e+001  1.707107e+000
      vertex  7.660355e+001 -2.241872e+001  1.707107e+000
    endloop
  endfacet
  facet normal  2.758499e-001  3.796753e-001  8.830365e-001
    outer loop
      vertex  7.691844e+001 -2.332870e+001  2.000000e+000
      vertex  7.660355e+001 -2.241872e+001  1.707107e+000
      vertex  7.516844e+001 -2.205725e+001  2.000000e+000
    endloop
  endfacet
  facet normal  3.209244e-001  7.747809e-001  5.447221e-001
    outer loop
      vertex  7.660355e+001 -2.241872e+001  1.707107e+000
      vertex  7.800000e+001 -2.250000e+001  1.000000e+000
      vertex  7.623223e+001 -2.176777e+001  1.000000e+000
    endloop
  endfacet
  facet normal  6.809843e-001  6.809843e-001  2.692966e-001
    outer loop
      vertex  7.660355e+001 -2.241872e+001  1.707107e+000
      vertex  7.623223e+001 -2.176777e+001  1.000000e+000
      vertex  7.558128e+001 -2.139645e+001  1.707107e+000
    endloop
  endfacet
  facet normal -8.922991e-002  3.330111e-001  9.386914e-001
    outer loop
      vertex  7.908156e+001 -2.332870e+001  2.000000e+000
      vertex  7.939645e+001 -2.241872e+001  1.707107e+000
      vertex  7.800000e+001 -2.279289e+001  1.707107e+000
    endloop
  endfacet
  facet normal  0.000000e+000  4.796547e-001  8.774573e-001
    outer loop
      vertex  7.908156e+001 -2.332870e+001  2.000000e+000
      vertex  7.800000e+001 -2.279289e+001  1.707107e+000
      vertex  7.691844e+001 -2.332870e+001  2.000000e+000
    endloop
  endfacet
  facet normal -2.545179e-001  2.545179e-001  9.329744e-001
    outer loop
      vertex  8.083156e+001 -2.205725e+001  2.000000e+000
      vertex  8.041872e+001 -2.139645e+001  1.707107e+000
      vertex  7.939645e+001 -2.241872e+001  1.707107e+000
    endloop
  endfacet
  facet normal -2.758499e-001  3.796753e-001  8.830365e-001
    outer loop
      vertex  8.083156e+001 -2.205725e+001  2.000000e+000
      vertex  7.939645e+001 -2.241872e+001  1.707107e+000
      vertex  7.908156e+001 -2.332870e+001  2.000000e+000
    endloop
  endfacet
  facet normal -3.209244e-001  7.747809e-001  5.447221e-001
    outer loop
      vertex  7.939645e+001 -2.241872e+001  1.707107e+000
      vertex  7.976777e+001 -2.176777e+001  1.000000e+000
      vertex  7.800000e+001 -2.250000e+001  1.000000e+000
    endloop
  endfacet
  facet normal -2.402989e-001  8.968092e-001  3.714696e-001
    outer loop
      vertex  7.939645e+001 -2.241872e+001  1.707107e+000
      vertex  7.800000e+001 -2.250000e+001  1.000000e+000
      vertex  7.800000e+001 -2.279289e+001  1.707107e+000
    endloop
  endfacet
  facet normal -6.809843e-001  6.809843e-001  2.692966e-001
    outer loop
      vertex  8.041872e+001 -2.139645e+001  1.707107e+000
      vertex  7.976777e+001 -2.176777e+001  1.000000e+000
      vertex  7.939645e+001 -2.241872e+001  1.707107e+000
    endloop
  endfacet
  facet normal  2.402989e-001  8.968092e-001  3.714696e-001
    outer loop
      vertex  7.800000e+001 -2.250000e+001  1.000000e+000
      vertex  7.660355e+001 -2.241872e+001  1.707107e+000
      vertex  7.800000e+001 -2.279289e+001  1.707107e+000
    endloop
  endfacet
  facet normal -4.189912e-001 -1.361387e-001  8.977264e-001
    outer loop
      vertex  8.150000e+001 -2.000000e+001  2.000000e+000
      vertex  8.083156e+001 -1.794275e+001  2.000000e+000
      vertex  8.041872e+001 -1.860355e+001  1.707107e+000
    endloop
  endfacet
  facet normal -3.806869e-001 -1.020046e-001  9.190607e-001
    outer loop
      vertex  8.150000e+001 -2.000000e+001  2.000000e+000
      vertex  8.041872e+001 -1.860355e+001  1.707107e+000
      vertex  8.079289e+001 -2.000000e+001  1.707107e+000
    endloop
  endfacet
  facet normal  3.806869e-001 -1.020046e-001  9.190607e-001
    outer loop
      vertex  7.450000e+001 -2.000000e+001  2.000000e+000
      vertex  7.520711e+001 -2.000000e+001  1.707107e+000
      vertex  7.558128e+001 -1.860355e+001  1.707107e+000
    endloop
  endfacet
  facet normal  4.189912e-001 -1.361387e-001  8.977264e-001
    outer loop
      vertex  7.450000e+001 -2.000000e+001  2.000000e+000
      vertex  7.558128e+001 -1.860355e+001  1.707107e+000
      vertex  7.516844e+001 -1.794275e+001  2.000000e+000
    endloop
  endfacet
  facet normal  7.747814e-001 -3.209241e-001  5.447215e-001
    outer loop
      vertex  7.550000e+001 -2.000000e+001  1.000000e+000
      vertex  7.623223e+001 -1.823223e+001  1.000000e+000
      vertex  7.558128e+001 -1.860355e+001  1.707107e+000
    endloop
  endfacet
  facet normal  8.968092e-001 -2.402989e-001  3.714696e-001
    outer loop
      vertex  7.550000e+001 -2.000000e+001  1.000000e+000
      vertex  7.558128e+001 -1.860355e+001  1.707107e+000
      vertex  7.520711e+001 -2.000000e+001  1.707107e+000
    endloop
  endfacet
  facet normal -8.968092e-001 -2.402989e-001  3.714696e-001
    outer loop
      vertex  8.050000e+001 -2.000000e+001  1.000000e+000
      vertex  8.079289e+001 -2.000000e+001  1.707107e+000
      vertex  8.041872e+001 -1.860355e+001  1.707107e+000
    endloop
  endfacet
  facet normal -7.747814e-001 -3.209241e-001  5.447215e-001
    outer loop
      vertex  8.050000e+001 -2.000000e+001  1.000000e+000
      vertex  8.041872e+001 -1.860355e+001  1.707107e+000
      vertex  7.976777e+001 -1.823223e+001  1.000000e+000
    endloop
  endfacet
  facet normal -2.545179e-001 -2.545179e-001  9.329744e-001
    outer loop
      vertex  8.083156e+001 -1.794275e+001  2.000000e+000
      vertex  7.939645e+001 -1.758128e+001  1.707107e+000
      vertex  8.041872e+001 -1.860355e+001  1.707107e+000
    endloop
  endfacet
  facet normal -8.922991e-002 -3.330111e-001  9.386914e-001
    outer loop
      vertex  7.908156e+001 -1.667130e+001  2.000000e+000
      vertex  7.800000e+001 -1.720711e+001  1.707107e+000
      vertex  7.939645e+001 -1.758128e+001  1.707107e+000
    endloop
  endfacet
  facet normal -2.758499e-001 -3.796753e-001  8.830365e-001
    outer loop
      vertex  7.908156e+001 -1.667130e+001  2.000000e+000
      vertex  7.939645e+001 -1.758128e+001  1.707107e+000
      vertex  8.083156e+001 -1.794275e+001  2.000000e+000
    endloop
  endfacet
  facet normal -3.209244e-001 -7.747809e-001  5.447221e-001
    outer loop
      vertex  7.939645e+001 -1.758128e+001  1.707107e+000
      vertex  7.800000e+001 -1.750000e+001  1.000000e+000
      vertex  7.976777e+001 -1.823223e+001  1.000000e+000
    endloop
  endfacet
  facet normal -6.809843e-001 -6.809843e-001  2.692966e-001
    outer loop
      vertex  7.939645e+001 -1.758128e+001  1.707107e+000
      vertex  7.976777e+001 -1.823223e+001  1.000000e+000
      vertex  8.041872e+001 -1.860355e+001  1.707107e+000
    endloop
  endfacet
  facet normal  8.922991e-002 -3.330111e-001  9.386914e-001
    outer loop
      vertex  7.691844e+001 -1.667130e+001  2.000000e+000
      vertex  7.660355e+001 -1.758128e+001  1.707107e+000
      vertex  7.800000e+001 -1.720711e+001  1.707107e+000
    endloop
  endfacet
  facet normal  0.000000e+000 -4.796547e-001  8.774573e-001
    outer loop
      vertex  7.691844e+001 -1.667130e+001  2.000000e+000
      vertex  7.800000e+001 -1.720711e+001  1.707107e+000
      vertex  7.908156e+001 -1.667130e+001  2.000000e+000
    endloop
  endfacet
  facet normal  2.545179e-001 -2.545179e-001  9.329744e-001
    outer loop
      vertex  7.516844e+001 -1.794275e+001  2.000000e+000
      vertex  7.558128e+001 -1.860355e+001  1.707107e+000
      vertex  7.660355e+001 -1.758128e+001  1.707107e+000
    endloop
  endfacet
  facet normal  2.758499e-001 -3.796753e-001  8.830365e-001
    outer loop
      vertex  7.516844e+001 -1.794275e+001  2.000000e+000
      vertex  7.660355e+001 -1.758128e+001  1.707107e+000
      vertex  7.691844e+001 -1.667130e+001  2.000000e+000
    endloop
  endfacet
  facet normal  3.209244e-001 -7.747809e-001  5.447221e-001
    outer loop
      vertex  7.660355e+001 -1.758128e+001  1.707107e+000
      vertex  7.623223e+001 -1.823223e+001  1.000000e+000
      vertex  7.800000e+001 -1.750000e+001  1.000000e+000
    endloop
  endfacet
  facet normal  2.402989e-001 -8.968092e-001  3.714696e-001
    outer loop
      vertex  7.660355e+001 -1.758128e+001  1.707107e+000
      vertex  7.800000e+001 -1.750000e+001  1.000000e+000
      vertex  7.800000e+001 -1.720711e+001  1.707107e+000
    endloop
  endfacet
  facet normal  6.809843e-001 -6.809843e-001  2.692966e-001
    outer loop
      vertex  7.558128e+001 -1.860355e+001  1.707107e+000
      vertex  7.623223e+001 -1.823223e+001  1.000000e+000
      vertex  7.660355e+001 -1.758128e+001  1.707107e+000
    endloop
  endfacet
  facet normal -2.402989e-001 -8.968092e-001  3.714696e-001
    outer loop
      vertex  7.800000e+001 -1.750000e+001  1.000000e+000
      vertex  7.939645e+001 -1.758128e+001  1.707107e+000
      vertex  7.800000e+001 -1.720711e+001  1.707107e+000
    endloop
  endfacet
  facet normal  9.238799e-001 -3.826826e-001  0.000000e+000
    outer loop
      vertex  5.650000e+001  3.061516e-016  1.000000e+000
      vertex  5.650000e+001  3.061516e-016  0.000000e+000
      vertex  5.723223e+001  1.767767e+000  1.000000e+000
    endloop
  endfacet
  facet normal  9.238799e-001 -3.826826e-001  0.000000e+000
    outer loop
      vertex  5.723223e+001  1.767767e+000  1.000000e+000
      vertex  5.650000e+001  3.061516e-016  0.000000e+000
      vertex  5.723223e+001  1.767767e+000  0.000000e+000
    endloop
  endfacet
  facet normal  3.826831e-001 -9.238797e-001  0.000000e+000
    outer loop
      vertex  5.723223e+001  1.767767e+000  1.000000e+000
      vertex  5.723223e+001  1.767767e+000  0.000000e+000
      vertex  5.900000e+001  2.500000e+000  1.000000e+000
    endloop
  endfacet
  facet normal  3.826831e-001 -9.238797e-001  0.000000e+000
    outer loop
      vertex  5.900000e+001  2.500000e+000  1.000000e+000
      vertex  5.723223e+001  1.767767e+000  0.000000e+000
      vertex  5.900000e+001  2.500000e+000  0.000000e+000
    endloop
  endfacet
  facet normal -3.826831e-001 -9.238797e-001  0.000000e+000
    outer loop
      vertex  5.900000e+001  2.500000e+000  1.000000e+000
      vertex  5.900000e+001  2.500000e+000  0.000000e+000
      vertex  6.076777e+001  1.767767e+000  1.000000e+000
    endloop
  endfacet
  facet normal -3.826831e-001 -9.238797e-001  -0.000000e+000
    outer loop
      vertex  6.076777e+001  1.767767e+000  1.000000e+000
      vertex  5.900000e+001  2.500000e+000  0.000000e+000
      vertex  6.076777e+001  1.767767e+000  0.000000e+000
    endloop
  endfacet
  facet normal -9.238799e-001 -3.826826e-001  0.000000e+000
    outer loop
      vertex  6.076777e+001  1.767767e+000  1.000000e+000
      vertex  6.076777e+001  1.767767e+000  0.000000e+000
      vertex  6.150000e+001 -6.123032e-016  1.000000e+000
    endloop
  endfacet
  facet normal -9.238799e-001 -3.826826e-001 -2.343178e-016
    outer loop
      vertex  6.150000e+001 -6.123032e-016  1.000000e+000
      vertex  6.076777e+001  1.767767e+000  0.000000e+000
      vertex  6.150000e+001  0.000000e+000  0.000000e+000
    endloop
  endfacet
  facet normal -9.238799e-001  3.826826e-001  2.343178e-016
    outer loop
      vertex  6.150000e+001 -6.123032e-016  1.000000e+000
      vertex  6.150000e+001  0.000000e+000  0.000000e+000
      vertex  6.076777e+001 -1.767767e+000  1.000000e+000
    endloop
  endfacet
  facet normal -9.238799e-001  3.826826e-001  0.000000e+000
    outer loop
      vertex  6.076777e+001 -1.767767e+000  1.000000e+000
      vertex  6.150000e+001  0.000000e+000  0.000000e+000
      vertex  6.076777e+001 -1.767767e+000  0.000000e+000
    endloop
  endfacet
  facet normal -3.826831e-001  9.238797e-001  0.000000e+000
    outer loop
      vertex  6.076777e+001 -1.767767e+000  1.000000e+000
      vertex  6.076777e+001 -1.767767e+000  0.000000e+000
      vertex  5.900000e+001 -2.500000e+000  1.000000e+000
    endloop
  endfacet
  facet normal -3.826831e-001  9.238797e-001  0.000000e+000
    outer loop
      vertex  5.900000e+001 -2.500000e+000  1.000000e+000
      vertex  6.076777e+001 -1.767767e+000  0.000000e+000
      vertex  5.900000e+001 -2.500000e+000  0.000000e+000
    endloop
  endfacet
  facet normal  3.826831e-001  9.238797e-001  -0.000000e+000
    outer loop
      vertex  5.900000e+001 -2.500000e+000  1.000000e+000
      vertex  5.900000e+001 -2.500000e+000  0.000000e+000
      vertex  5.723223e+001 -1.767767e+000  1.000000e+000
    endloop
  endfacet
  facet normal  3.826831e-001  9.238797e-001  0.000000e+000
    outer loop
      vertex  5.723223e+001 -1.767767e+000  1.000000e+000
      vertex  5.900000e+001 -2.500000e+000  0.000000e+000
      vertex  5.723223e+001 -1.767767e+000  0.000000e+000
    endloop
  endfacet
  facet normal  9.238799e-001  3.826826e-001  -0.000000e+000
    outer loop
      vertex  5.723223e+001 -1.767767e+000  1.000000e+000
      vertex  5.723223e+001 -1.767767e+000  0.000000e+000
      vertex  5.650000e+001  3.061516e-016  1.000000e+000
    endloop
  endfacet
  facet normal  9.238799e-001  3.826826e-001  0.000000e+000
    outer loop
      vertex  5.650000e+001  3.061516e-016  1.000000e+000
      vertex  5.723223e+001 -1.767767e+000  0.000000e+000
      vertex  5.650000e+001  3.061516e-016  0.000000e+000
    endloop
  endfacet
  facet normal  4.189914e-001  1.361388e-001  8.977263e-001
    outer loop
      vertex  5.550000e+001  6.483219e-008  2.000000e+000
      vertex  5.616844e+001 -2.057248e+000  2.000000e+000
      vertex  5.658128e+001 -1.396447e+000  1.707107e+000
    endloop
  endfacet
  facet normal  3.806869e-001  1.020046e-001  9.190606e-001
    outer loop
      vertex  5.550000e+001  6.483219e-008  2.000000e+000
      vertex  5.658128e+001 -1.396447e+000  1.707107e+000
      vertex  5.620711e+001  5.173411e-008  1.707107e+000
    endloop
  endfacet
  facet normal -3.806869e-001  1.020046e-001  9.190607e-001
    outer loop
      vertex  6.250000e+001  7.481198e-016  2.000000e+000
      vertex  6.179289e+001  7.327472e-015  1.707107e+000
      vertex  6.141872e+001 -1.396447e+000  1.707107e+000
    endloop
  endfacet
  facet normal -4.189914e-001  1.361388e-001  8.977263e-001
    outer loop
      vertex  6.250000e+001  7.481198e-016  2.000000e+000
      vertex  6.141872e+001 -1.396447e+000  1.707107e+000
      vertex  6.183156e+001 -2.057248e+000  2.000000e+000
    endloop
  endfacet
  facet normal -7.747813e-001  3.209241e-001  5.447216e-001
    outer loop
      vertex  6.150000e+001 -6.123032e-016  1.000000e+000
      vertex  6.076777e+001 -1.767767e+000  1.000000e+000
      vertex  6.141872e+001 -1.396447e+000  1.707107e+000
    endloop
  endfacet
  facet normal -8.968093e-001  2.402989e-001  3.714696e-001
    outer loop
      vertex  6.150000e+001 -6.123032e-016  1.000000e+000
      vertex  6.141872e+001 -1.396447e+000  1.707107e+000
      vertex  6.179289e+001  7.327472e-015  1.707107e+000
    endloop
  endfacet
  facet normal  8.968093e-001  2.402989e-001  3.714696e-001
    outer loop
      vertex  5.650000e+001  3.061516e-016  1.000000e+000
      vertex  5.620711e+001  5.173411e-008  1.707107e+000
      vertex  5.658128e+001 -1.396447e+000  1.707107e+000
    endloop
  endfacet
  facet normal  7.747813e-001  3.209241e-001  5.447216e-001
    outer loop
      vertex  5.650000e+001  3.061516e-016  1.000000e+000
      vertex  5.658128e+001 -1.396447e+000  1.707107e+000
      vertex  5.723223e+001 -1.767767e+000  1.000000e+000
    endloop
  endfacet
  facet normal  2.545181e-001  2.545182e-001  9.329742e-001
    outer loop
      vertex  5.616844e+001 -2.057248e+000  2.000000e+000
      vertex  5.760355e+001 -2.418716e+000  1.707107e+000
      vertex  5.658128e+001 -1.396447e+000  1.707107e+000
    endloop
  endfacet
  facet normal  8.923004e-002  3.330110e-001  9.386915e-001
    outer loop
      vertex  5.791844e+001 -3.328698e+000  2.000000e+000
      vertex  5.900000e+001 -2.792893e+000  1.707107e+000
      vertex  5.760355e+001 -2.418716e+000  1.707107e+000
    endloop
  endfacet
  facet normal  2.758501e-001  3.796750e-001  8.830366e-001
    outer loop
      vertex  5.791844e+001 -3.328698e+000  2.000000e+000
      vertex  5.760355e+001 -2.418716e+000  1.707107e+000
      vertex  5.616844e+001 -2.057248e+000  2.000000e+000
    endloop
  endfacet
  facet normal  3.209244e-001  7.747809e-001  5.447221e-001
    outer loop
      vertex  5.760355e+001 -2.418716e+000  1.707107e+000
      vertex  5.900000e+001 -2.500000e+000  1.000000e+000
      vertex  5.723223e+001 -1.767767e+000  1.000000e+000
    endloop
  endfacet
  facet normal  6.809841e-001  6.809844e-001  2.692968e-001
    outer loop
      vertex  5.760355e+001 -2.418716e+000  1.707107e+000
      vertex  5.723223e+001 -1.767767e+000  1.000000e+000
      vertex  5.658128e+001 -1.396447e+000  1.707107e+000
    endloop
  endfacet
  facet normal -8.923004e-002  3.330110e-001  9.386915e-001
    outer loop
      vertex  6.008156e+001 -3.328698e+000  2.000000e+000
      vertex  6.039645e+001 -2.418716e+000  1.707107e+000
      vertex  5.900000e+001 -2.792893e+000  1.707107e+000
    endloop
  endfacet
  facet normal  0.000000e+000  4.796547e-001  8.774573e-001
    outer loop
      vertex  6.008156e+001 -3.328698e+000  2.000000e+000
      vertex  5.900000e+001 -2.792893e+000  1.707107e+000
      vertex  5.791844e+001 -3.328698e+000  2.000000e+000
    endloop
  endfacet
  facet normal -2.545181e-001  2.545182e-001  9.329742e-001
    outer loop
      vertex  6.183156e+001 -2.057248e+000  2.000000e+000
      vertex  6.141872e+001 -1.396447e+000  1.707107e+000
      vertex  6.039645e+001 -2.418716e+000  1.707107e+000
    endloop
  endfacet
  facet normal -2.758501e-001  3.796750e-001  8.830366e-001
    outer loop
      vertex  6.183156e+001 -2.057248e+000  2.000000e+000
      vertex  6.039645e+001 -2.418716e+000  1.707107e+000
      vertex  6.008156e+001 -3.328698e+000  2.000000e+000
    endloop
  endfacet
  facet normal -3.209244e-001  7.747809e-001  5.447221e-001
    outer loop
      vertex  6.039645e+001 -2.418716e+000  1.707107e+000
      vertex  6.076777e+001 -1.767767e+000  1.000000e+000
      vertex  5.900000e+001 -2.500000e+000  1.000000e+000
    endloop
  endfacet
  facet normal -2.402993e-001  8.968087e-001  3.714703e-001
    outer loop
      vertex  6.039645e+001 -2.418716e+000  1.707107e+000
      vertex  5.900000e+001 -2.500000e+000  1.000000e+000
      vertex  5.900000e+001 -2.792893e+000  1.707107e+000
    endloop
  endfacet
  facet normal -6.809841e-001  6.809844e-001  2.692968e-001
    outer loop
      vertex  6.141872e+001 -1.396447e+000  1.707107e+000
      vertex  6.076777e+001 -1.767767e+000  1.000000e+000
      vertex  6.039645e+001 -2.418716e+000  1.707107e+000
    endloop
  endfacet
  facet normal  2.402993e-001  8.968087e-001  3.714703e-001
    outer loop
      vertex  5.900000e+001 -2.500000e+000  1.000000e+000
      vertex  5.760355e+001 -2.418716e+000  1.707107e+000
      vertex  5.900000e+001 -2.792893e+000  1.707107e+000
    endloop
  endfacet
  facet normal -4.189914e-001 -1.361388e-001  8.977263e-001
    outer loop
      vertex  6.250000e+001  7.481198e-016  2.000000e+000
      vertex  6.183156e+001  2.057248e+000  2.000000e+000
      vertex  6.141872e+001  1.396447e+000  1.707107e+000
    endloop
  endfacet
  facet normal -3.806869e-001 -1.020046e-001  9.190607e-001
    outer loop
      vertex  6.250000e+001  7.481198e-016  2.000000e+000
      vertex  6.141872e+001  1.396447e+000  1.707107e+000
      vertex  6.179289e+001  7.327472e-015  1.707107e+000
    endloop
  endfacet
  facet normal  3.806869e-001 -1.020045e-001  9.190606e-001
    outer loop
      vertex  5.550000e+001  6.483219e-008  2.000000e+000
      vertex  5.620711e+001  5.173411e-008  1.707107e+000
      vertex  5.658128e+001  1.396447e+000  1.707107e+000
    endloop
  endfacet
  facet normal  4.189914e-001 -1.361388e-001  8.977263e-001
    outer loop
      vertex  5.550000e+001  6.483219e-008  2.000000e+000
      vertex  5.658128e+001  1.396447e+000  1.707107e+000
      vertex  5.616844e+001  2.057248e+000  2.000000e+000
    endloop
  endfacet
  facet normal  7.747813e-001 -3.209241e-001  5.447216e-001
    outer loop
      vertex  5.650000e+001  3.061516e-016  1.000000e+000
      vertex  5.723223e+001  1.767767e+000  1.000000e+000
      vertex  5.658128e+001  1.396447e+000  1.707107e+000
    endloop
  endfacet
  facet normal  8.968093e-001 -2.402988e-001  3.714696e-001
    outer loop
      vertex  5.650000e+001  3.061516e-016  1.000000e+000
      vertex  5.658128e+001  1.396447e+000  1.707107e+000
      vertex  5.620711e+001  5.173411e-008  1.707107e+000
    endloop
  endfacet
  facet normal -8.968093e-001 -2.402989e-001  3.714696e-001
    outer loop
      vertex  6.150000e+001 -6.123032e-016  1.000000e+000
      vertex  6.179289e+001  7.327472e-015  1.707107e+000
      vertex  6.141872e+001  1.396447e+000  1.707107e+000
    endloop
  endfacet
  facet normal -7.747813e-001 -3.209241e-001  5.447216e-001
    outer loop
      vertex  6.150000e+001 -6.123032e-016  1.000000e+000
      vertex  6.141872e+001  1.396447e+000  1.707107e+000
      vertex  6.076777e+001  1.767767e+000  1.000000e+000
    endloop
  endfacet
  facet normal -2.545181e-001 -2.545182e-001  9.329742e-001
    outer loop
      vertex  6.183156e+001  2.057248e+000  2.000000e+000
      vertex  6.039645e+001  2.418716e+000  1.707107e+000
      vertex  6.141872e+001  1.396447e+000  1.707107e+000
    endloop
  endfacet
  facet normal -8.923005e-002 -3.330110e-001  9.386914e-001
    outer loop
      vertex  6.008156e+001  3.328698e+000  2.000000e+000
      vertex  5.900000e+001  2.792893e+000  1.707107e+000
      vertex  6.039645e+001  2.418716e+000  1.707107e+000
    endloop
  endfacet
  facet normal -2.758501e-001 -3.796751e-001  8.830366e-001
    outer loop
      vertex  6.008156e+001  3.328698e+000  2.000000e+000
      vertex  6.039645e+001  2.418716e+000  1.707107e+000
      vertex  6.183156e+001  2.057248e+000  2.000000e+000
    endloop
  endfacet
  facet normal -3.209244e-001 -7.747809e-001  5.447221e-001
    outer loop
      vertex  6.039645e+001  2.418716e+000  1.707107e+000
      vertex  5.900000e+001  2.500000e+000  1.000000e+000
      vertex  6.076777e+001  1.767767e+000  1.000000e+000
    endloop
  endfacet
  facet normal -6.809841e-001 -6.809844e-001  2.692968e-001
    outer loop
      vertex  6.039645e+001  2.418716e+000  1.707107e+000
      vertex  6.076777e+001  1.767767e+000  1.000000e+000
      vertex  6.141872e+001  1.396447e+000  1.707107e+000
    endloop
  endfacet
  facet normal  8.923004e-002 -3.330110e-001  9.386915e-001
    outer loop
      vertex  5.791844e+001  3.328698e+000  2.000000e+000
      vertex  5.760355e+001  2.418716e+000  1.707107e+000
      vertex  5.900000e+001  2.792893e+000  1.707107e+000
    endloop
  endfacet
  facet normal -5.286752e-008 -4.796548e-001  8.774573e-001
    outer loop
      vertex  5.791844e+001  3.328698e+000  2.000000e+000
      vertex  5.900000e+001  2.792893e+000  1.707107e+000
      vertex  6.008156e+001  3.328698e+000  2.000000e+000
    endloop
  endfacet
  facet normal  2.545182e-001 -2.545183e-001  9.329743e-001
    outer loop
      vertex  5.616844e+001  2.057248e+000  2.000000e+000
      vertex  5.658128e+001  1.396447e+000  1.707107e+000
      vertex  5.760355e+001  2.418716e+000  1.707107e+000
    endloop
  endfacet
  facet normal  2.758501e-001 -3.796750e-001  8.830366e-001
    outer loop
      vertex  5.616844e+001  2.057248e+000  2.000000e+000
      vertex  5.760355e+001  2.418716e+000  1.707107e+000
      vertex  5.791844e+001  3.328698e+000  2.000000e+000
    endloop
  endfacet
  facet normal  3.209244e-001 -7.747809e-001  5.447221e-001
    outer loop
      vertex  5.760355e+001  2.418716e+000  1.707107e+000
      vertex  5.723223e+001  1.767767e+000  1.000000e+000
      vertex  5.900000e+001  2.500000e+000  1.000000e+000
    endloop
  endfacet
  facet normal  2.402993e-001 -8.968087e-001  3.714703e-001
    outer loop
      vertex  5.760355e+001  2.418716e+000  1.707107e+000
      vertex  5.900000e+001  2.500000e+000  1.000000e+000
      vertex  5.900000e+001  2.792893e+000  1.707107e+000
    endloop
  endfacet
  facet normal  6.809841e-001 -6.809844e-001  2.692969e-001
    outer loop
      vertex  5.658128e+001  1.396447e+000  1.707107e+000
      vertex  5.723223e+001  1.767767e+000  1.000000e+000
      vertex  5.760355e+001  2.418716e+000  1.707107e+000
    endloop
  endfacet
  facet normal -2.402993e-001 -8.968087e-001  3.714703e-001
    outer loop
      vertex  5.900000e+001  2.500000e+000  1.000000e+000
      vertex  6.039645e+001  2.418716e+000  1.707107e+000
      vertex  5.900000e+001  2.792893e+000  1.707107e+000
    endloop
  endfacet
  facet normal  9.238799e-001 -3.826826e-001  0.000000e+000
    outer loop
      vertex  7.550000e+001  1.584927e-014  1.000000e+000
      vertex  7.550000e+001  1.584927e-014  0.000000e+000
      vertex  7.623223e+001  1.767767e+000  1.000000e+000
    endloop
  endfacet
  facet normal  9.238799e-001 -3.826826e-001  0.000000e+000
    outer loop
      vertex  7.623223e+001  1.767767e+000  1.000000e+000
      vertex  7.550000e+001  1.584927e-014  0.000000e+000
      vertex  7.623223e+001  1.767767e+000  0.000000e+000
    endloop
  endfacet
  facet normal  3.826831e-001 -9.238797e-001  0.000000e+000
    outer loop
      vertex  7.623223e+001  1.767767e+000  1.000000e+000
      vertex  7.623223e+001  1.767767e+000  0.000000e+000
      vertex  7.800000e+001  2.500000e+000  1.000000e+000
    endloop
  endfacet
  facet normal  3.826831e-001 -9.238797e-001  0.000000e+000
    outer loop
      vertex  7.800000e+001  2.500000e+000  1.000000e+000
      vertex  7.623223e+001  1.767767e+000  0.000000e+000
      vertex  7.800000e+001  2.500000e+000  0.000000e+000
    endloop
  endfacet
  facet normal -3.826831e-001 -9.238797e-001  0.000000e+000
    outer loop
      vertex  7.800000e+001  2.500000e+000  1.000000e+000
      vertex  7.800000e+001  2.500000e+000  0.000000e+000
      vertex  7.976777e+001  1.767767e+000  1.000000e+000
    endloop
  endfacet
  facet normal -3.826831e-001 -9.238797e-001  -0.000000e+000
    outer loop
      vertex  7.976777e+001  1.767767e+000  1.000000e+000
      vertex  7.800000e+001  2.500000e+000  0.000000e+000
      vertex  7.976777e+001  1.767767e+000  0.000000e+000
    endloop
  endfacet
  facet normal -9.238799e-001 -3.826826e-001  0.000000e+000
    outer loop
      vertex  7.976777e+001  1.767767e+000  1.000000e+000
      vertex  7.976777e+001  1.767767e+000  0.000000e+000
      vertex  8.050000e+001  1.493082e-014  1.000000e+000
    endloop
  endfacet
  facet normal -9.238799e-001 -3.826826e-001 -2.343178e-016
    outer loop
      vertex  8.050000e+001  1.493082e-014  1.000000e+000
      vertex  7.976777e+001  1.767767e+000  0.000000e+000
      vertex  8.050000e+001  1.554312e-014  0.000000e+000
    endloop
  endfacet
  facet normal -9.238799e-001  3.826826e-001  2.343178e-016
    outer loop
      vertex  8.050000e+001  1.493082e-014  1.000000e+000
      vertex  8.050000e+001  1.554312e-014  0.000000e+000
      vertex  7.976777e+001 -1.767767e+000  1.000000e+000
    endloop
  endfacet
  facet normal -9.238799e-001  3.826826e-001  0.000000e+000
    outer loop
      vertex  7.976777e+001 -1.767767e+000  1.000000e+000
      vertex  8.050000e+001  1.554312e-014  0.000000e+000
      vertex  7.976777e+001 -1.767767e+000  0.000000e+000
    endloop
  endfacet
  facet normal -3.826831e-001  9.238797e-001  0.000000e+000
    outer loop
      vertex  7.976777e+001 -1.767767e+000  1.000000e+000
      vertex  7.976777e+001 -1.767767e+000  0.000000e+000
      vertex  7.800000e+001 -2.500000e+000  1.000000e+000
    endloop
  endfacet
  facet normal -3.826831e-001  9.238797e-001  0.000000e+000
    outer loop
      vertex  7.800000e+001 -2.500000e+000  1.000000e+000
      vertex  7.976777e+001 -1.767767e+000  0.000000e+000
      vertex  7.800000e+001 -2.500000e+000  0.000000e+000
    endloop
  endfacet
  facet normal  3.826831e-001  9.238797e-001  -0.000000e+000
    outer loop
      vertex  7.800000e+001 -2.500000e+000  1.000000e+000
      vertex  7.800000e+001 -2.500000e+000  0.000000e+000
      vertex  7.623223e+001 -1.767767e+000  1.000000e+000
    endloop
  endfacet
  facet normal  3.826831e-001  9.238797e-001  0.000000e+000
    outer loop
      vertex  7.623223e+001 -1.767767e+000  1.000000e+000
      vertex  7.800000e+001 -2.500000e+000  0.000000e+000
      vertex  7.623223e+001 -1.767767e+000  0.000000e+000
    endloop
  endfacet
  facet normal  9.238799e-001  3.826826e-001  -0.000000e+000
    outer loop
      vertex  7.623223e+001 -1.767767e+000  1.000000e+000
      vertex  7.623223e+001 -1.767767e+000  0.000000e+000
      vertex  7.550000e+001  1.584927e-014  1.000000e+000
    endloop
  endfacet
  facet normal  9.238799e-001  3.826826e-001  0.000000e+000
    outer loop
      vertex  7.550000e+001  1.584927e-014  1.000000e+000
      vertex  7.623223e+001 -1.767767e+000  0.000000e+000
      vertex  7.550000e+001  1.584927e-014  0.000000e+000
    endloop
  endfacet
  facet normal  4.189914e-001  1.361388e-001  8.977263e-001
    outer loop
      vertex  7.450000e+001  6.483224e-008  2.000000e+000
      vertex  7.516844e+001 -2.057248e+000  2.000000e+000
      vertex  7.558128e+001 -1.396447e+000  1.707107e+000
    endloop
  endfacet
  facet normal  3.806869e-001  1.020046e-001  9.190606e-001
    outer loop
      vertex  7.450000e+001  6.483224e-008  2.000000e+000
      vertex  7.558128e+001 -1.396447e+000  1.707107e+000
      vertex  7.520711e+001  5.173417e-008  1.707107e+000
    endloop
  endfacet
  facet normal -3.806869e-001  1.020046e-001  9.190607e-001
    outer loop
      vertex  8.150000e+001  1.416621e-014  2.000000e+000
      vertex  8.079289e+001  2.264855e-014  1.707107e+000
      vertex  8.041872e+001 -1.396447e+000  1.707107e+000
    endloop
  endfacet
  facet normal -4.189914e-001  1.361388e-001  8.977263e-001
    outer loop
      vertex  8.150000e+001  1.416621e-014  2.000000e+000
      vertex  8.041872e+001 -1.396447e+000  1.707107e+000
      vertex  8.083156e+001 -2.057248e+000  2.000000e+000
    endloop
  endfacet
  facet normal -7.747813e-001  3.209241e-001  5.447216e-001
    outer loop
      vertex  8.050000e+001  1.493082e-014  1.000000e+000
      vertex  7.976777e+001 -1.767767e+000  1.000000e+000
      vertex  8.041872e+001 -1.396447e+000  1.707107e+000
    endloop
  endfacet
  facet normal -8.968093e-001  2.402989e-001  3.714696e-001
    outer loop
      vertex  8.050000e+001  1.493082e-014  1.000000e+000
      vertex  8.041872e+001 -1.396447e+000  1.707107e+000
      vertex  8.079289e+001  2.264855e-014  1.707107e+000
    endloop
  endfacet
  facet normal  8.968093e-001  2.402989e-001  3.714696e-001
    outer loop
      vertex  7.550000e+001  1.584927e-014  1.000000e+000
      vertex  7.520711e+001  5.173417e-008  1.707107e+000
      vertex  7.558128e+001 -1.396447e+000  1.707107e+000
    endloop
  endfacet
  facet normal  7.747813e-001  3.209241e-001  5.447216e-001
    outer loop
      vertex  7.550000e+001  1.584927e-014  1.000000e+000
      vertex  7.558128e+001 -1.396447e+000  1.707107e+000
      vertex  7.623223e+001 -1.767767e+000  1.000000e+000
    endloop
  endfacet
  facet normal  2.545181e-001  2.545182e-001  9.329742e-001
    outer loop
      vertex  7.516844e+001 -2.057248e+000  2.000000e+000
      vertex  7.660355e+001 -2.418716e+000  1.707107e+000
      vertex  7.558128e+001 -1.396447e+000  1.707107e+000
    endloop
  endfacet
  facet normal  8.923004e-002  3.330110e-001  9.386915e-001
    outer loop
      vertex  7.691844e+001 -3.328698e+000  2.000000e+000
      vertex  7.800000e+001 -2.792893e+000  1.707107e+000
      vertex  7.660355e+001 -2.418716e+000  1.707107e+000
    endloop
  endfacet
  facet normal  2.758501e-001  3.796750e-001  8.830366e-001
    outer loop
      vertex  7.691844e+001 -3.328698e+000  2.000000e+000
      vertex  7.660355e+001 -2.418716e+000  1.707107e+000
      vertex  7.516844e+001 -2.057248e+000  2.000000e+000
    endloop
  endfacet
  facet normal  3.209244e-001  7.747809e-001  5.447221e-001
    outer loop
      vertex  7.660355e+001 -2.418716e+000  1.707107e+000
      vertex  7.800000e+001 -2.500000e+000  1.000000e+000
      vertex  7.623223e+001 -1.767767e+000  1.000000e+000
    endloop
  endfacet
  facet normal  6.809841e-001  6.809844e-001  2.692968e-001
    outer loop
      vertex  7.660355e+001 -2.418716e+000  1.707107e+000
      vertex  7.623223e+001 -1.767767e+000  1.000000e+000
      vertex  7.558128e+001 -1.396447e+000  1.707107e+000
    endloop
  endfacet
  facet normal -8.923004e-002  3.330110e-001  9.386915e-001
    outer loop
      vertex  7.908156e+001 -3.328698e+000  2.000000e+000
      vertex  7.939645e+001 -2.418716e+000  1.707107e+000
      vertex  7.800000e+001 -2.792893e+000  1.707107e+000
    endloop
  endfacet
  facet normal  0.000000e+000  4.796547e-001  8.774573e-001
    outer loop
      vertex  7.908156e+001 -3.328698e+000  2.000000e+000
      vertex  7.800000e+001 -2.792893e+000  1.707107e+000
      vertex  7.691844e+001 -3.328698e+000  2.000000e+000
    endloop
  endfacet
  facet normal -2.545181e-001  2.545182e-001  9.329742e-001
    outer loop
      vertex  8.083156e+001 -2.057248e+000  2.000000e+000
      vertex  8.041872e+001 -1.396447e+000  1.707107e+000
      vertex  7.939645e+001 -2.418716e+000  1.707107e+000
    endloop
  endfacet
  facet normal -2.758501e-001  3.796750e-001  8.830366e-001
    outer loop
      vertex  8.083156e+001 -2.057248e+000  2.000000e+000
      vertex  7.939645e+001 -2.418716e+000  1.707107e+000
      vertex  7.908156e+001 -3.328698e+000  2.000000e+000
    endloop
  endfacet
  facet normal -3.209244e-001  7.747809e-001  5.447221e-001
    outer loop
      vertex  7.939645e+001 -2.418716e+000  1.707107e+000
      vertex  7.976777e+001 -1.767767e+000  1.000000e+000
      vertex  7.800000e+001 -2.500000e+000  1.000000e+000
    endloop
  endfacet
  facet normal -2.402993e-001  8.968087e-001  3.714703e-001
    outer loop
      vertex  7.939645e+001 -2.418716e+000  1.707107e+000
      vertex  7.800000e+001 -2.500000e+000  1.000000e+000
      vertex  7.800000e+001 -2.792893e+000  1.707107e+000
    endloop
  endfacet
  facet normal -6.809841e-001  6.809844e-001  2.692968e-001
    outer loop
      vertex  8.041872e+001 -1.396447e+000  1.707107e+000
      vertex  7.976777e+001 -1.767767e+000  1.000000e+000
      vertex  7.939645e+001 -2.418716e+000  1.707107e+000
    endloop
  endfacet
  facet normal  2.402993e-001  8.968087e-001  3.714703e-001
    outer loop
      vertex  7.800000e+001 -2.500000e+000  1.000000e+000
      vertex  7.660355e+001 -2.418716e+000  1.707107e+000
      vertex  7.800000e+001 -2.792893e+000  1.707107e+000
    endloop
  endfacet
  facet normal -4.189914e-001 -1.361388e-001  8.977263e-001
    outer loop
      vertex  8.150000e+001  1.416621e-014  2.000000e+000
      vertex  8.083156e+001  2.057248e+000  2.000000e+000
      vertex  8.041872e+001  1.396447e+000  1.707107e+000
    endloop
  endfacet
  facet normal -3.806869e-001 -1.020046e-001  9.190607e-001
    outer loop
      vertex  8.150000e+001  1.416621e-014  2.000000e+000
      vertex  8.041872e+001  1.396447e+000  1.707107e+000
      vertex  8.079289e+001  2.264855e-014  1.707107e+000
    endloop
  endfacet
  facet normal  3.806869e-001 -1.020045e-001  9.190606e-001
    outer loop
      vertex  7.450000e+001  6.483224e-008  2.000000e+000
      vertex  7.520711e+001  5.173417e-008  1.707107e+000
      vertex  7.558128e+001  1.396447e+000  1.707107e+000
    endloop
  endfacet
  facet normal  4.189914e-001 -1.361388e-001  8.977263e-001
    outer loop
      vertex  7.450000e+001  6.483224e-008  2.000000e+000
      vertex  7.558128e+001  1.396447e+000  1.707107e+000
      vertex  7.516844e+001  2.057248e+000  2.000000e+000
    endloop
  endfacet
  facet normal  7.747813e-001 -3.209241e-001  5.447216e-001
    outer loop
      vertex  7.550000e+001  1.584927e-014  1.000000e+000
      vertex  7.623223e+001  1.767767e+000  1.000000e+000
      vertex  7.558128e+001  1.396447e+000  1.707107e+000
    endloop
  endfacet
  facet normal  8.968093e-001 -2.402988e-001  3.714696e-001
    outer loop
      vertex  7.550000e+001  1.584927e-014  1.000000e+000
      vertex  7.558128e+001  1.396447e+000  1.707107e+000
      vertex  7.520711e+001  5.173417e-008  1.707107e+000
    endloop
  endfacet
  facet normal -8.968093e-001 -2.402989e-001  3.714696e-001
    outer loop
      vertex  8.050000e+001  1.493082e-014  1.000000e+000
      vertex  8.079289e+001  2.264855e-014  1.707107e+000
      vertex  8.041872e+001  1.396447e+000  1.707107e+000
    endloop
  endfacet
  facet normal -7.747813e-001 -3.209241e-001  5.447216e-001
    outer loop
      vertex  8.050000e+001  1.493082e-014  1.000000e+000
      vertex  8.041872e+001  1.396447e+000  1.707107e+000
      vertex  7.976777e+001  1.767767e+000  1.000000e+000
    endloop
  endfacet
  facet normal -2.545181e-001 -2.545182e-001  9.329742e-001
    outer loop
      vertex  8.083156e+001  2.057248e+000  2.000000e+000
      vertex  7.939645e+001  2.418716e+000  1.707107e+000
      vertex  8.041872e+001  1.396447e+000  1.707107e+000
    endloop
  endfacet
  facet normal -8.923005e-002 -3.330110e-001  9.386914e-001
    outer loop
      vertex  7.908156e+001  3.328698e+000  2.000000e+000
      vertex  7.800000e+001  2.792893e+000  1.707107e+000
      vertex  7.939645e+001  2.418716e+000  1.707107e+000
    endloop
  endfacet
  facet normal -2.758501e-001 -3.796751e-001  8.830366e-001
    outer loop
      vertex  7.908156e+001  3.328698e+000  2.000000e+000
      vertex  7.939645e+001  2.418716e+000  1.707107e+000
      vertex  8.083156e+001  2.057248e+000  2.000000e+000
    endloop
  endfacet
  facet normal -3.209244e-001 -7.747809e-001  5.447221e-001
    outer loop
      vertex  7.939645e+001  2.418716e+000  1.707107e+000
      vertex  7.800000e+001  2.500000e+000  1.000000e+000
      vertex  7.976777e+001  1.767767e+000  1.000000e+000
    endloop
  endfacet
  facet normal -6.809841e-001 -6.809844e-001  2.692968e-001
    outer loop
      vertex  7.939645e+001  2.418716e+000  1.707107e+000
      vertex  7.976777e+001  1.767767e+000  1.000000e+000
      vertex  8.041872e+001  1.396447e+000  1.707107e+000
    endloop
  endfacet
  facet normal  8.923004e-002 -3.330110e-001  9.386915e-001
    outer loop
      vertex  7.691844e+001  3.328698e+000  2.000000e+000
      vertex  7.660355e+001  2.418716e+000  1.707107e+000
      vertex  7.800000e+001  2.792893e+000  1.707107e+000
    endloop
  endfacet
  facet normal -5.286752e-008 -4.796548e-001  8.774573e-001
    outer loop
      vertex  7.691844e+001  3.328698e+000  2.000000e+000
      vertex  7.800000e+001  2.792893e+000  1.707107e+000
      vertex  7.908156e+001  3.328698e+000  2.000000e+000
    endloop
  endfacet
  facet normal  2.545182e-001 -2.545183e-001  9.329743e-001
    outer loop
      vertex  7.516844e+001  2.057248e+000  2.000000e+000
      vertex  7.558128e+001  1.396447e+000  1.707107e+000
      vertex  7.660355e+001  2.418716e+000  1.707107e+000
    endloop
  endfacet
  facet normal  2.758501e-001 -3.796750e-001  8.830366e-001
    outer loop
      vertex  7.516844e+001  2.057248e+000  2.000000e+000
      vertex  7.660355e+001  2.418716e+000  1.707107e+000
      vertex  7.691844e+001  3.328698e+000  2.000000e+000
    endloop
  endfacet
  facet normal  3.209244e-001 -7.747809e-001  5.447221e-001
    outer loop
      vertex  7.660355e+001  2.418716e+000  1.707107e+000
      vertex  7.623223e+001  1.767767e+000  1.000000e+000
      vertex  7.800000e+001  2.500000e+000  1.000000e+000
    endloop
  endfacet
  facet normal  2.402993e-001 -8.968087e-001  3.714703e-001
    outer loop
      vertex  7.660355e+001  2.418716e+000  1.707107e+000
      vertex  7.800000e+001  2.500000e+000  1.000000e+000
      vertex  7.800000e+001  2.792893e+000  1.707107e+000
    endloop
  endfacet
  facet normal  6.809841e-001 -6.809844e-001  2.692969e-001
    outer loop
      vertex  7.558128e+001  1.396447e+000  1.707107e+000
      vertex  7.623223e+001  1.767767e+000  1.000000e+000
      vertex  7.660355e+001  2.418716e+000  1.707107e+000
    endloop
  endfacet
  facet normal -2.402993e-001 -8.968087e-001  3.714703e-001
    outer loop
      vertex  7.800000e+001  2.500000e+000  1.000000e+000
      vertex  7.939645e+001  2.418716e+000  1.707107e+000
      vertex  7.800000e+001  2.792893e+000  1.707107e+000
    endloop
  endfacet
  facet normal  9.238799e-001 -3.826826e-001  0.000000e+000
    outer loop
      vertex  5.650000e+001 -2.000000e+001  1.000000e+000
      vertex  5.650000e+001 -2.000000e+001  0.000000e+000
      vertex  5.723223e+001 -1.823223e+001  1.000000e+000
    endloop
  endfacet
  facet normal  9.238799e-001 -3.826826e-001  0.000000e+000
    outer loop
      vertex  5.723223e+001 -1.823223e+001  1.000000e+000
      vertex  5.650000e+001 -2.000000e+001  0.000000e+000
      vertex  5.723223e+001 -1.823223e+001  0.000000e+000
    endloop
  endfacet
  facet normal  3.826831e-001 -9.238797e-001  0.000000e+000
    outer loop
      vertex  5.723223e+001 -1.823223e+001  1.000000e+000
      vertex  5.723223e+001 -1.823223e+001  0.000000e+000
      vertex  5.900000e+001 -1.750000e+001  1.000000e+000
    endloop
  endfacet
  facet normal  3.826831e-001 -9.238797e-001  0.000000e+000
    outer loop
      vertex  5.900000e+001 -1.750000e+001  1.000000e+000
      vertex  5.723223e+001 -1.823223e+001  0.000000e+000
      vertex  5.900000e+001 -1.750000e+001  0.000000e+000
    endloop
  endfacet
  facet normal -3.826831e-001 -9.238797e-001  0.000000e+000
    outer loop
      vertex  5.900000e+001 -1.750000e+001  1.000000e+000
      vertex  5.900000e+001 -1.750000e+001  0.000000e+000
      vertex  6.076777e+001 -1.823223e+001  1.000000e+000
    endloop
  endfacet
  facet normal -3.826831e-001 -9.238797e-001  -0.000000e+000
    outer loop
      vertex  6.076777e+001 -1.823223e+001  1.000000e+000
      vertex  5.900000e+001 -1.750000e+001  0.000000e+000
      vertex  6.076777e+001 -1.823223e+001  0.000000e+000
    endloop
  endfacet
  facet normal -9.238799e-001 -3.826826e-001  0.000000e+000
    outer loop
      vertex  6.076777e+001 -1.823223e+001  1.000000e+000
      vertex  6.076777e+001 -1.823223e+001  0.000000e+000
      vertex  6.150000e+001 -2.000000e+001  1.000000e+000
    endloop
  endfacet
  facet normal -9.238799e-001 -3.826826e-001  -0.000000e+000
    outer loop
      vertex  6.150000e+001 -2.000000e+001  1.000000e+000
      vertex  6.076777e+001 -1.823223e+001  0.000000e+000
      vertex  6.150000e+001 -2.000000e+001  0.000000e+000
    endloop
  endfacet
  facet normal -9.238799e-001  3.826826e-001  0.000000e+000
    outer loop
      vertex  6.150000e+001 -2.000000e+001  1.000000e+000
      vertex  6.150000e+001 -2.000000e+001  0.000000e+000
      vertex  6.076777e+001 -2.176777e+001  1.000000e+000
    endloop
  endfacet
  facet normal -9.238799e-001  3.826826e-001  0.000000e+000
    outer loop
      vertex  6.076777e+001 -2.176777e+001  1.000000e+000
      vertex  6.150000e+001 -2.000000e+001  0.000000e+000
      vertex  6.076777e+001 -2.176777e+001  0.000000e+000
    endloop
  endfacet
  facet normal -3.826831e-001  9.238797e-001  0.000000e+000
    outer loop
      vertex  6.076777e+001 -2.176777e+001  1.000000e+000
      vertex  6.076777e+001 -2.176777e+001  0.000000e+000
      vertex  5.900000e+001 -2.250000e+001  1.000000e+000
    endloop
  endfacet
  facet normal -3.826831e-001  9.238797e-001  0.000000e+000
    outer loop
      vertex  5.900000e+001 -2.250000e+001  1.000000e+000
      vertex  6.076777e+001 -2.176777e+001  0.000000e+000
      vertex  5.900000e+001 -2.250000e+001  0.000000e+000
    endloop
  endfacet
  facet normal  3.826831e-001  9.238797e-001  -0.000000e+000
    outer loop
      vertex  5.900000e+001 -2.250000e+001  1.000000e+000
      vertex  5.900000e+001 -2.250000e+001  0.000000e+000
      vertex  5.723223e+001 -2.176777e+001  1.000000e+000
    endloop
  endfacet
  facet normal  3.826831e-001  9.238797e-001  0.000000e+000
    outer loop
      vertex  5.723223e+001 -2.176777e+001  1.000000e+000
      vertex  5.900000e+001 -2.250000e+001  0.000000e+000
      vertex  5.723223e+001 -2.176777e+001  0.000000e+000
    endloop
  endfacet
  facet normal  9.238799e-001  3.826826e-001  -0.000000e+000
    outer loop
      vertex  5.723223e+001 -2.176777e+001  1.000000e+000
      vertex  5.723223e+001 -2.176777e+001  0.000000e+000
      vertex  5.650000e+001 -2.000000e+001  1.000000e+000
    endloop
  endfacet
  facet normal  9.238799e-001  3.826826e-001  0.000000e+000
    outer loop
      vertex  5.650000e+001 -2.000000e+001  1.000000e+000
      vertex  5.723223e+001 -2.176777e+001  0.000000e+000
      vertex  5.650000e+001 -2.000000e+001  0.000000e+000
    endloop
  endfacet
  facet normal  4.189912e-001  1.361387e-001  8.977264e-001
    outer loop
      vertex  5.550000e+001 -2.000000e+001  2.000000e+000
      vertex  5.616844e+001 -2.205725e+001  2.000000e+000
      vertex  5.658128e+001 -2.139645e+001  1.707107e+000
    endloop
  endfacet
  facet normal  3.806869e-001  1.020046e-001  9.190607e-001
    outer loop
      vertex  5.550000e+001 -2.000000e+001  2.000000e+000
      vertex  5.658128e+001 -2.139645e+001  1.707107e+000
      vertex  5.620711e+001 -2.000000e+001  1.707107e+000
    endloop
  endfacet
  facet normal -3.806869e-001  1.020046e-001  9.190607e-001
    outer loop
      vertex  6.250000e+001 -2.000000e+001  2.000000e+000
      vertex  6.179289e+001 -2.000000e+001  1.707107e+000
      vertex  6.141872e+001 -2.139645e+001  1.707107e+000
    endloop
  endfacet
  facet normal -4.189912e-001  1.361387e-001  8.977264e-001
    outer loop
      vertex  6.250000e+001 -2.000000e+001  2.000000e+000
      vertex  6.141872e+001 -2.139645e+001  1.707107e+000
      vertex  6.183156e+001 -2.205725e+001  2.000000e+000
    endloop
  endfacet
  facet normal -7.747814e-001  3.209241e-001  5.447215e-001
    outer loop
      vertex  6.150000e+001 -2.000000e+001  1.000000e+000
      vertex  6.076777e+001 -2.176777e+001  1.000000e+000
      vertex  6.141872e+001 -2.139645e+001  1.707107e+000
    endloop
  endfacet
  facet normal -8.968092e-001  2.402989e-001  3.714696e-001
    outer loop
      vertex  6.150000e+001 -2.000000e+001  1.000000e+000
      vertex  6.141872e+001 -2.139645e+001  1.707107e+000
      vertex  6.179289e+001 -2.000000e+001  1.707107e+000
    endloop
  endfacet
  facet normal  8.968092e-001  2.402989e-001  3.714696e-001
    outer loop
      vertex  5.650000e+001 -2.000000e+001  1.000000e+000
      vertex  5.620711e+001 -2.000000e+001  1.707107e+000
      vertex  5.658128e+001 -2.139645e+001  1.707107e+000
    endloop
  endfacet
  facet normal  7.747814e-001  3.209241e-001  5.447215e-001
    outer loop
      vertex  5.650000e+001 -2.000000e+001  1.000000e+000
      vertex  5.658128e+001 -2.139645e+001  1.707107e+000
      vertex  5.723223e+001 -2.176777e+001  1.000000e+000
    endloop
  endfacet
  facet normal  2.545179e-001  2.545179e-001  9.329744e-001
    outer loop
      vertex  5.616844e+001 -2.205725e+001  2.000000e+000
      vertex  5.760355e+001 -2.241872e+001  1.707107e+000
      vertex  5.658128e+001 -2.139645e+001  1.707107e+000
    endloop
  endfacet
  facet normal  8.922991e-002  3.330111e-001  9.386914e-001
    outer loop
      vertex  5.791844e+001 -2.332870e+001  2.000000e+000
      vertex  5.900000e+001 -2.279289e+001  1.707107e+000
      vertex  5.760355e+001 -2.241872e+001  1.707107e+000
    endloop
  endfacet
  facet normal  2.758499e-001  3.796753e-001  8.830365e-001
    outer loop
      vertex  5.791844e+001 -2.332870e+001  2.000000e+000
      vertex  5.760355e+001 -2.241872e+001  1.707107e+000
      vertex  5.616844e+001 -2.205725e+001  2.000000e+000
    endloop
  endfacet
  facet normal  3.209244e-001  7.747809e-001  5.447221e-001
    outer loop
      vertex  5.760355e+001 -2.241872e+001  1.707107e+000
      vertex  5.900000e+001 -2.250000e+001  1.000000e+000
      vertex  5.723223e+001 -2.176777e+001  1.000000e+000
    endloop
  endfacet
  facet normal  6.809843e-001  6.809843e-001  2.692966e-001
    outer loop
      vertex  5.760355e+001 -2.241872e+001  1.707107e+000
      vertex  5.723223e+001 -2.176777e+001  1.000000e+000
      vertex  5.658128e+001 -2.139645e+001  1.707107e+000
    endloop
  endfacet
  facet normal -8.922991e-002  3.330111e-001  9.386914e-001
    outer loop
      vertex  6.008156e+001 -2.332870e+001  2.000000e+000
      vertex  6.039645e+001 -2.241872e+001  1.707107e+000
      vertex  5.900000e+001 -2.279289e+001  1.707107e+000
    endloop
  endfacet
  facet normal  0.000000e+000  4.796547e-001  8.774573e-001
    outer loop
      vertex  6.008156e+001 -2.332870e+001  2.000000e+000
      vertex  5.900000e+001 -2.279289e+001  1.707107e+000
      vertex  5.791844e+001 -2.332870e+001  2.000000e+000
    endloop
  endfacet
  facet normal -2.545179e-001  2.545179e-001  9.329744e-001
    outer loop
      vertex  6.183156e+001 -2.205725e+001  2.000000e+000
      vertex  6.141872e+001 -2.139645e+001  1.707107e+000
      vertex  6.039645e+001 -2.241872e+001  1.707107e+000
    endloop
  endfacet
  facet normal -2.758499e-001  3.796753e-001  8.830365e-001
    outer loop
      vertex  6.183156e+001 -2.205725e+001  2.000000e+000
      vertex  6.039645e+001 -2.241872e+001  1.707107e+000
      vertex  6.008156e+001 -2.332870e+001  2.000000e+000
    endloop
  endfacet
  facet normal -3.209244e-001  7.747809e-001  5.447221e-001
    outer loop
      vertex  6.039645e+001 -2.241872e+001  1.707107e+000
      vertex  6.076777e+001 -2.176777e+001  1.000000e+000
      vertex  5.900000e+001 -2.250000e+001  1.000000e+000
    endloop
  endfacet
  facet normal -2.402989e-001  8.968092e-001  3.714696e-001
    outer loop
      vertex  6.039645e+001 -2.241872e+001  1.707107e+000
      vertex  5.900000e+001 -2.250000e+001  1.000000e+000
      vertex  5.900000e+001 -2.279289e+001  1.707107e+000
    endloop
  endfacet
  facet normal -6.809843e-001  6.809843e-001  2.692966e-001
    outer loop
      vertex  6.141872e+001 -2.139645e+001  1.707107e+000
      vertex  6.076777e+001 -2.176777e+001  1.000000e+000
      vertex  6.039645e+001 -2.241872e+001  1.707107e+000
    endloop
  endfacet
  facet normal  2.402989e-001  8.968092e-001  3.714696e-001
    outer loop
      vertex  5.900000e+001 -2.250000e+001  1.000000e+000
      vertex  5.760355e+001 -2.241872e+001  1.707107e+000
      vertex  5.900000e+001 -2.279289e+001  1.707107e+000
    endloop
  endfacet
  facet normal -4.189912e-001 -1.361387e-001  8.977264e-001
    outer loop
      vertex  6.250000e+001 -2.000000e+001  2.000000e+000
      vertex  6.183156e+001 -1.794275e+001  2.000000e+000
      vertex  6.141872e+001 -1.860355e+001  1.707107e+000
    endloop
  endfacet
  facet normal -3.806869e-001 -1.020046e-001  9.190607e-001
    outer loop
      vertex  6.250000e+001 -2.000000e+001  2.000000e+000
      vertex  6.141872e+001 -1.860355e+001  1.707107e+000
      vertex  6.179289e+001 -2.000000e+001  1.707107e+000
    endloop
  endfacet
  facet normal  3.806869e-001 -1.020046e-001  9.190607e-001
    outer loop
      vertex  5.550000e+001 -2.000000e+001  2.000000e+000
      vertex  5.620711e+001 -2.000000e+001  1.707107e+000
      vertex  5.658128e+001 -1.860355e+001  1.707107e+000
    endloop
  endfacet
  facet normal  4.189912e-001 -1.361387e-001  8.977264e-001
    outer loop
      vertex  5.550000e+001 -2.000000e+001  2.000000e+000
      vertex  5.658128e+001 -1.860355e+001  1.707107e+000
      vertex  5.616844e+001 -1.794275e+001  2.000000e+000
    endloop
  endfacet
  facet normal  7.747814e-001 -3.209241e-001  5.447215e-001
    outer loop
      vertex  5.650000e+001 -2.000000e+001  1.000000e+000
      vertex  5.723223e+001 -1.823223e+001  1.000000e+000
      vertex  5.658128e+001 -1.860355e+001  1.707107e+000
    endloop
  endfacet
  facet normal  8.968092e-001 -2.402989e-001  3.714696e-001
    outer loop
      vertex  5.650000e+001 -2.000000e+001  1.000000e+000
      vertex  5.658128e+001 -1.860355e+001  1.707107e+000
      vertex  5.620711e+001 -2.000000e+001  1.707107e+000
    endloop
  endfacet
  facet normal -8.968092e-001 -2.402989e-001  3.714696e-001
    outer loop
      vertex  6.150000e+001 -2.000000e+001  1.000000e+000
      vertex  6.179289e+001 -2.000000e+001  1.707107e+000
      vertex  6.141872e+001 -1.860355e+001  1.707107e+000
    endloop
  endfacet
  facet normal -7.747814e-001 -3.209241e-001  5.447215e-001
    outer loop
      vertex  6.150000e+001 -2.000000e+001  1.000000e+000
      vertex  6.141872e+001 -1.860355e+001  1.707107e+000
      vertex  6.076777e+001 -1.823223e+001  1.000000e+000
    endloop
  endfacet
  facet normal -2.545179e-001 -2.545179e-001  9.329744e-001
    outer loop
      vertex  6.183156e+001 -1.794275e+001  2.000000e+000
      vertex  6.039645e+001 -1.758128e+001  1.707107e+000
      vertex  6.141872e+001 -1.860355e+001  1.707107e+000
    endloop
  endfacet
  facet normal -8.922991e-002 -3.330111e-001  9.386914e-001
    outer loop
      vertex  6.008156e+001 -1.667130e+001  2.000000e+000
      vertex  5.900000e+001 -1.720711e+001  1.707107e+000
      vertex  6.039645e+001 -1.758128e+001  1.707107e+000
    endloop
  endfacet
  facet normal -2.758499e-001 -3.796753e-001  8.830365e-001
    outer loop
      vertex  6.008156e+001 -1.667130e+001  2.000000e+000
      vertex  6.039645e+001 -1.758128e+001  1.707107e+000
      vertex  6.183156e+001 -1.794275e+001  2.000000e+000
    endloop
  endfacet
  facet normal -3.209244e-001 -7.747809e-001  5.447221e-001
    outer loop
      vertex  6.039645e+001 -1.758128e+001  1.707107e+000
      vertex  5.900000e+001 -1.750000e+001  1.000000e+000
      vertex  6.076777e+001 -1.823223e+001  1.000000e+000
    endloop
  endfacet
  facet normal -6.809843e-001 -6.809843e-001  2.692966e-001
    outer loop
      vertex  6.039645e+001 -1.758128e+001  1.707107e+000
      vertex  6.076777e+001 -1.823223e+001  1.000000e+000
      vertex  6.141872e+001 -1.860355e+001  1.707107e+000
    endloop
  endfacet
  facet normal  8.922991e-002 -3.330111e-001  9.386914e-001
    outer loop
      vertex  5.791844e+001 -1.667130e+001  2.000000e+000
      vertex  5.760355e+001 -1.758128e+001  1.707107e+000
      vertex  5.900000e+001 -1.720711e+001  1.707107e+000
    endloop
  endfacet
  facet normal  0.000000e+000 -4.796547e-001  8.774573e-001
    outer loop
      vertex  5.791844e+001 -1.667130e+001  2.000000e+000
      vertex  5.900000e+001 -1.720711e+001  1.707107e+000
      vertex  6.008156e+001 -1.667130e+001  2.000000e+000
    endloop
  endfacet
  facet normal  2.545179e-001 -2.545179e-001  9.329744e-001
    outer loop
      vertex  5.616844e+001 -1.794275e+001  2.000000e+000
      vertex  5.658128e+001 -1.860355e+001  1.707107e+000
      vertex  5.760355e+001 -1.758128e+001  1.707107e+000
    endloop
  endfacet
  facet normal  2.758499e-001 -3.796753e-001  8.830365e-001
    outer loop
      vertex  5.616844e+001 -1.794275e+001  2.000000e+000
      vertex  5.760355e+001 -1.758128e+001  1.707107e+000
      vertex  5.791844e+001 -1.667130e+001  2.000000e+000
    endloop
  endfacet
  facet normal  3.209244e-001 -7.747809e-001  5.447221e-001
    outer loop
      vertex  5.760355e+001 -1.758128e+001  1.707107e+000
      vertex  5.723223e+001 -1.823223e+001  1.000000e+000
      vertex  5.900000e+001 -1.750000e+001  1.000000e+000
    endloop
  endfacet
  facet normal  2.402989e-001 -8.968092e-001  3.714696e-001
    outer loop
      vertex  5.760355e+001 -1.758128e+001  1.707107e+000
      vertex  5.900000e+001 -1.750000e+001  1.000000e+000
      vertex  5.900000e+001 -1.720711e+001  1.707107e+000
    endloop
  endfacet
  facet normal  6.809843e-001 -6.809843e-001  2.692966e-001
    outer loop
      vertex  5.658128e+001 -1.860355e+001  1.707107e+000
      vertex  5.723223e+001 -1.823223e+001  1.000000e+000
      vertex  5.760355e+001 -1.758128e+001  1.707107e+000
    endloop
  endfacet
  facet normal -2.402989e-001 -8.968092e-001  3.714696e-001
    outer loop
      vertex  5.900000e+001 -1.750000e+001  1.000000e+000
      vertex  6.039645e+001 -1.758128e+001  1.707107e+000
      vertex  5.900000e+001 -1.720711e+001  1.707107e+000
    endloop
  endfacet
  facet normal  0.000000e+000  1.000000e+000  0.000000e+000
    outer loop
      vertex  5.000000e+001  1.000000e+001  0.000000e+000
      vertex  5.000000e+001  1.000000e+001  1.000000e+000
      vertex  8.700000e+001  1.000000e+001  0.000000e+000
    endloop
  endfacet
  facet normal  0.000000e+000  1.000000e+000  -0.000000e+000
    outer loop
      vertex  8.700000e+001  1.000000e+001  0.000000e+000
      vertex  5.000000e+001  1.000000e+001  1.000000e+000
      vertex  8.700000e+001  1.000000e+001  1.000000e+000
    endloop
  endfacet
  facet normal  1.000000e+000  0.000000e+000  0.000000e+000
    outer loop
      vertex  8.700000e+001 -3.000000e+001  1.000000e+000
      vertex  8.700000e+001 -3.000000e+001  0.000000e+000
      vertex  8.700000e+001  1.000000e+001  1.000000e+000
    endloop
  endfacet
  facet normal  1.000000e+000  0.000000e+000  0.000000e+000
    outer loop
      vertex  8.700000e+001  1.000000e+001  1.000000e+000
      vertex  8.700000e+001 -3.000000e+001  0.000000e+000
      vertex  8.700000e+001  1.000000e+001  0.000000e+000
    endloop
  endfacet
  facet normal  0.000000e+000 -1.000000e+000  -0.000000e+000
    outer loop
      vertex  8.700000e+001 -3.000000e+001  0.000000e+000
      vertex  8.700000e+001 -3.000000e+001  1.000000e+000
      vertex  5.000000e+001 -3.000000e+001  0.000000e+000
    endloop
  endfacet
  facet normal  0.000000e+000 -1.000000e+000  0.000000e+000
    outer loop
      vertex  5.000000e+001 -3.000000e+001  0.000000e+000
      vertex  8.700000e+001 -3.000000e+001  1.000000e+000
      vertex  5.000000e+001 -3.000000e+001  1.000000e+000
    endloop
  endfacet
  facet normal -1.000000e+000  0.000000e+000  0.000000e+000
    outer loop
      vertex  5.000000e+001  1.000000e+001  1.000000e+000
      vertex  5.000000e+001  1.000000e+001  0.000000e+000
      vertex  5.000000e+001 -3.000000e+001  1.000000e+000
    endloop
  endfacet
  facet normal -1.000000e+000  0.000000e+000  0.000000e+000
    outer loop
      vertex  5.000000e+001 -3.000000e+001  1.000000e+000
      vertex  5.000000e+001  1.000000e+001  0.000000e+000
      vertex  5.000000e+001 -3.000000e+001  0.000000e+000
    endloop
  endfacet
  facet normal  9.747980e-001  0.000000e+000  2.230892e-001
    outer loop
      vertex  8.700000e+001 -3.000000e+001  1.000000e+000
      vertex  8.700000e+001  1.000000e+001  1.000000e+000
      vertex  8.690046e+001 -2.990046e+001  1.434947e+000
    endloop
  endfacet
  facet normal  9.747980e-001  -0.000000e+000  2.230892e-001
    outer loop
      vertex  8.690046e+001 -2.990046e+001  1.434947e+000
      vertex  8.700000e+001  1.000000e+001  1.000000e+000
      vertex  8.690046e+001  9.900455e+000  1.434947e+000
    endloop
  endfacet
  facet normal  8.106191e-001  0.000000e+000  5.855739e-001
    outer loop
      vertex  8.690046e+001 -2.990046e+001  1.434947e+000
      vertex  8.690046e+001  9.900455e+000  1.434947e+000
      vertex  8.669585e+001 -2.969585e+001  1.718185e+000
    endloop
  endfacet
  facet normal  8.106191e-001  -0.000000e+000  5.855738e-001
    outer loop
      vertex  8.669585e+001 -2.969585e+001  1.718185e+000
      vertex  8.690046e+001  9.900455e+000  1.434947e+000
      vertex  8.669585e+001  9.695847e+000  1.718185e+000
    endloop
  endfacet
  facet normal  4.470828e-001  0.000000e+000  8.944924e-001
    outer loop
      vertex  8.669585e+001 -2.969585e+001  1.718185e+000
      vertex  8.669585e+001  9.695847e+000  1.718185e+000
      vertex  8.615675e+001 -2.915676e+001  1.987637e+000
    endloop
  endfacet
  facet normal  4.470829e-001  -0.000000e+000  8.944925e-001
    outer loop
      vertex  8.615675e+001 -2.915676e+001  1.987637e+000
      vertex  8.669585e+001  9.695847e+000  1.718185e+000
      vertex  8.615675e+001  9.156756e+000  1.987637e+000
    endloop
  endfacet
  facet normal  7.862309e-002  0.000000e+000  9.969044e-001
    outer loop
      vertex  8.615675e+001 -2.915676e+001  1.987637e+000
      vertex  8.615675e+001  9.156756e+000  1.987637e+000
      vertex  8.600000e+001 -2.900000e+001  2.000000e+000
    endloop
  endfacet
  facet normal  7.862310e-002  -0.000000e+000  9.969044e-001
    outer loop
      vertex  8.600000e+001 -2.900000e+001  2.000000e+000
      vertex  8.615675e+001  9.156756e+000  1.987637e+000
      vertex  8.600000e+001  9.000000e+000  2.000000e+000
    endloop
  endfacet
  facet normal  0.000000e+000 -9.747962e-001  2.230974e-001
    outer loop
      vertex  5.000000e+001 -3.000000e+001  1.000000e+000
      vertex  8.700000e+001 -3.000000e+001  1.000000e+000
      vertex  5.009954e+001 -2.990046e+001  1.434947e+000
    endloop
  endfacet
  facet normal  0.000000e+000 -9.747962e-001  2.230974e-001
    outer loop
      vertex  5.009954e+001 -2.990046e+001  1.434947e+000
      vertex  8.700000e+001 -3.000000e+001  1.000000e+000
      vertex  8.690046e+001 -2.990046e+001  1.434947e+000
    endloop
  endfacet
  facet normal  0.000000e+000 -8.106216e-001  5.855703e-001
    outer loop
      vertex  5.009954e+001 -2.990046e+001  1.434947e+000
      vertex  8.690046e+001 -2.990046e+001  1.434947e+000
      vertex  5.030415e+001 -2.969585e+001  1.718185e+000
    endloop
  endfacet
  facet normal  1.274568e-007 -8.106138e-001  5.855811e-001
    outer loop
      vertex  5.030415e+001 -2.969585e+001  1.718185e+000
      vertex  8.690046e+001 -2.990046e+001  1.434947e+000
      vertex  8.669585e+001 -2.969585e+001  1.718185e+000
    endloop
  endfacet
  facet normal  7.029765e-008 -4.470867e-001  8.944906e-001
    outer loop
      vertex  5.030415e+001 -2.969585e+001  1.718185e+000
      vertex  8.669585e+001 -2.969585e+001  1.718185e+000
      vertex  5.084324e+001 -2.915676e+001  1.987637e+000
    endloop
  endfacet
  facet normal  0.000000e+000 -4.470904e-001  8.944887e-001
    outer loop
      vertex  5.084324e+001 -2.915676e+001  1.987637e+000
      vertex  8.669585e+001 -2.969585e+001  1.718185e+000
      vertex  8.615675e+001 -2.915676e+001  1.987637e+000
    endloop
  endfacet
  facet normal  0.000000e+000 -7.862119e-002  9.969045e-001
    outer loop
      vertex  5.084324e+001 -2.915676e+001  1.987637e+000
      vertex  8.615675e+001 -2.915676e+001  1.987637e+000
      vertex  5.100000e+001 -2.900000e+001  2.000000e+000
    endloop
  endfacet
  facet normal  0.000000e+000 -7.862119e-002  9.969046e-001
    outer loop
      vertex  5.100000e+001 -2.900000e+001  2.000000e+000
      vertex  8.615675e+001 -2.915676e+001  1.987637e+000
      vertex  8.600000e+001 -2.900000e+001  2.000000e+000
    endloop
  endfacet
  facet normal -7.862119e-002  0.000000e+000  9.969046e-001
    outer loop
      vertex  5.100000e+001 -2.900000e+001  2.000000e+000
      vertex  5.100000e+001  9.000000e+000  2.000000e+000
      vertex  5.084324e+001 -2.915676e+001  1.987637e+000
    endloop
  endfacet
  facet normal -7.862119e-002  0.000000e+000  9.969046e-001
    outer loop
      vertex  5.084324e+001 -2.915676e+001  1.987637e+000
      vertex  5.100000e+001  9.000000e+000  2.000000e+000
      vertex  5.084324e+001  9.156756e+000  1.987637e+000
    endloop
  endfacet
  facet normal -4.470904e-001  0.000000e+000  8.944887e-001
    outer loop
      vertex  5.084324e+001 -2.915676e+001  1.987637e+000
      vertex  5.084324e+001  9.156756e+000  1.987637e+000
      vertex  5.030415e+001 -2.969585e+001  1.718185e+000
    endloop
  endfacet
  facet normal -4.470880e-001 -4.329606e-008  8.944900e-001
    outer loop
      vertex  5.030415e+001 -2.969585e+001  1.718185e+000
      vertex  5.084324e+001  9.156756e+000  1.987637e+000
      vertex  5.030415e+001  9.695847e+000  1.718185e+000
    endloop
  endfacet
  facet normal -8.106139e-001 -7.849995e-008  5.855811e-001
    outer loop
      vertex  5.030415e+001 -2.969585e+001  1.718185e+000
      vertex  5.030415e+001  9.695847e+000  1.718185e+000
      vertex  5.009954e+001 -2.990046e+001  1.434947e+000
    endloop
  endfacet
  facet normal -8.106191e-001  0.000000e+000  5.855739e-001
    outer loop
      vertex  5.009954e+001 -2.990046e+001  1.434947e+000
      vertex  5.030415e+001  9.695847e+000  1.718185e+000
      vertex  5.009954e+001  9.900455e+000  1.434947e+000
    endloop
  endfacet
  facet normal -9.747962e-001  0.000000e+000  2.230974e-001
    outer loop
      vertex  5.009954e+001 -2.990046e+001  1.434947e+000
      vertex  5.009954e+001  9.900455e+000  1.434947e+000
      vertex  5.000000e+001 -3.000000e+001  1.000000e+000
    endloop
  endfacet
  facet normal -9.747962e-001  0.000000e+000  2.230974e-001
    outer loop
      vertex  5.000000e+001 -3.000000e+001  1.000000e+000
      vertex  5.009954e+001  9.900455e+000  1.434947e+000
      vertex  5.000000e+001  1.000000e+001  1.000000e+000
    endloop
  endfacet
  facet normal  0.000000e+000  7.862167e-002  9.969046e-001
    outer loop
      vertex  5.100000e+001  9.000000e+000  2.000000e+000
      vertex  8.600000e+001  9.000000e+000  2.000000e+000
      vertex  5.084324e+001  9.156756e+000  1.987637e+000
    endloop
  endfacet
  facet normal  -0.000000e+000  7.862167e-002  9.969046e-001
    outer loop
      vertex  5.084324e+001  9.156756e+000  1.987637e+000
      vertex  8.600000e+001  9.000000e+000  2.000000e+000
      vertex  8.615675e+001  9.156756e+000  1.987637e+000
    endloop
  endfacet
  facet normal  0.000000e+000  4.470899e-001  8.944891e-001
    outer loop
      vertex  5.084324e+001  9.156756e+000  1.987637e+000
      vertex  8.615675e+001  9.156756e+000  1.987637e+000
      vertex  5.030415e+001  9.695847e+000  1.718185e+000
    endloop
  endfacet
  facet normal  -0.000000e+000  4.470898e-001  8.944891e-001
    outer loop
      vertex  5.030415e+001  9.695847e+000  1.718185e+000
      vertex  8.615675e+001  9.156756e+000  1.987637e+000
      vertex  8.669585e+001  9.695847e+000  1.718185e+000
    endloop
  endfacet
  facet normal  0.000000e+000  8.106139e-001  5.855810e-001
    outer loop
      vertex  5.030415e+001  9.695847e+000  1.718185e+000
      vertex  8.669585e+001  9.695847e+000  1.718185e+000
      vertex  5.009954e+001  9.900455e+000  1.434947e+000
    endloop
  endfacet
  facet normal  -0.000000e+000  8.106139e-001  5.855810e-001
    outer loop
      vertex  5.009954e+001  9.900455e+000  1.434947e+000
      vertex  8.669585e+001  9.695847e+000  1.718185e+000
      vertex  8.690046e+001  9.900455e+000  1.434947e+000
    endloop
  endfacet
  facet normal  0.000000e+000  9.747962e-001  2.230974e-001
    outer loop
      vertex  5.009954e+001  9.900455e+000  1.434947e+000
      vertex  8.690046e+001  9.900455e+000  1.434947e+000
      vertex  5.000000e+001  1.000000e+001  1.000000e+000
    endloop
  endfacet
  facet normal  -0.000000e+000  9.747962e-001  2.230974e-001
    outer loop
      vertex  5.000000e+001  1.000000e+001  1.000000e+000
      vertex  8.690046e+001  9.900455e+000  1.434947e+000
      vertex  8.700000e+001  1.000000e+001  1.000000e+000
    endloop
  endfacet
  facet normal  -0.000000e+000  0.000000e+000 -1.000000e+000
    outer loop
      vertex  5.900000e+001 -2.500000e+000  0.000000e+000
      vertex  5.900000e+001 -1.750000e+001  0.000000e+000
      vertex  5.723223e+001 -1.823223e+001  0.000000e+000
    endloop
  endfacet
  facet normal  0.000000e+000  0.000000e+000 -1.000000e+000
    outer loop
      vertex  7.800000e+001 -1.750000e+001  0.000000e+000
      vertex  7.800000e+001 -2.500000e+000  0.000000e+000
      vertex  7.976777e+001 -1.823223e+001  0.000000e+000
    endloop
  endfacet
  facet normal  -0.000000e+000  0.000000e+000 -1.000000e+000
    outer loop
      vertex  5.000000e+001  1.000000e+001  0.000000e+000
      vertex  8.700000e+001  1.000000e+001  0.000000e+000
      vertex  7.800000e+001  2.500000e+000  0.000000e+000
    endloop
  endfacet
  facet normal  0.000000e+000  0.000000e+000 -1.000000e+000
    outer loop
      vertex  5.000000e+001  1.000000e+001  0.000000e+000
      vertex  7.800000e+001  2.500000e+000  0.000000e+000
      vertex  5.900000e+001  2.500000e+000  0.000000e+000
    endloop
  endfacet
  facet normal  -0.000000e+000  0.000000e+000 -1.000000e+000
    outer loop
      vertex  5.000000e+001  1.000000e+001  0.000000e+000
      vertex  5.900000e+001  2.500000e+000  0.000000e+000
      vertex  5.723223e+001  1.767767e+000  0.000000e+000
    endloop
  endfacet
  facet normal  -0.000000e+000  0.000000e+000 -1.000000e+000
    outer loop
      vertex  5.000000e+001  1.000000e+001  0.000000e+000
      vertex  5.723223e+001  1.767767e+000  0.000000e+000
      vertex  5.650000e+001  3.061516e-016  0.000000e+000
    endloop
  endfacet
  facet normal  -0.000000e+000  0.000000e+000 -1.000000e+000
    outer loop
      vertex  5.000000e+001  1.000000e+001  0.000000e+000
      vertex  5.650000e+001  3.061516e-016  0.000000e+000
      vertex  5.000000e+001 -3.000000e+001  0.000000e+000
    endloop
  endfacet
  facet normal  0.000000e+000  -0.000000e+000 -1.000000e+000
    outer loop
      vertex  5.000000e+001 -3.000000e+001  0.000000e+000
      vertex  5.650000e+001  3.061516e-016  0.000000e+000
      vertex  5.723223e+001 -1.767767e+000  0.000000e+000
    endloop
  endfacet
  facet normal  0.000000e+000  -0.000000e+000 -1.000000e+000
    outer loop
      vertex  5.000000e+001 -3.000000e+001  0.000000e+000
      vertex  5.723223e+001 -1.767767e+000  0.000000e+000
      vertex  5.900000e+001 -2.500000e+000  0.000000e+000
    endloop
  endfacet
  facet normal  0.000000e+000  0.000000e+000 -1.000000e+000
    outer loop
      vertex  5.000000e+001 -3.000000e+001  0.000000e+000
      vertex  5.900000e+001 -2.500000e+000  0.000000e+000
      vertex  5.723223e+001 -1.823223e+001  0.000000e+000
    endloop
  endfacet
  facet normal  0.000000e+000  0.000000e+000 -1.000000e+000
    outer loop
      vertex  5.000000e+001 -3.000000e+001  0.000000e+000
      vertex  5.723223e+001 -1.823223e+001  0.000000e+000
      vertex  5.650000e+001 -2.000000e+001  0.000000e+000
    endloop
  endfacet
  facet normal  0.000000e+000  -0.000000e+000 -1.000000e+000
    outer loop
      vertex  5.000000e+001 -3.000000e+001  0.000000e+000
      vertex  5.650000e+001 -2.000000e+001  0.000000e+000
      vertex  5.723223e+001 -2.176777e+001  0.000000e+000
    endloop
  endfacet
  facet normal  0.000000e+000  -0.000000e+000 -1.000000e+000
    outer loop
      vertex  5.000000e+001 -3.000000e+001  0.000000e+000
      vertex  5.723223e+001 -2.176777e+001  0.000000e+000
      vertex  5.900000e+001 -2.250000e+001  0.000000e+000
    endloop
  endfacet
  facet normal  0.000000e+000  -0.000000e+000 -1.000000e+000
    outer loop
      vertex  5.000000e+001 -3.000000e+001  0.000000e+000
      vertex  5.900000e+001 -2.250000e+001  0.000000e+000
      vertex  7.800000e+001 -2.250000e+001  0.000000e+000
    endloop
  endfacet
  facet normal  0.000000e+000  -0.000000e+000 -1.000000e+000
    outer loop
      vertex  5.000000e+001 -3.000000e+001  0.000000e+000
      vertex  7.800000e+001 -2.250000e+001  0.000000e+000
      vertex  8.700000e+001 -3.000000e+001  0.000000e+000
    endloop
  endfacet
  facet normal  0.000000e+000  0.000000e+000 -1.000000e+000
    outer loop
      vertex  8.700000e+001 -3.000000e+001  0.000000e+000
      vertex  7.800000e+001 -2.250000e+001  0.000000e+000
      vertex  7.976777e+001 -2.176777e+001  0.000000e+000
    endloop
  endfacet
  facet normal  0.000000e+000  0.000000e+000 -1.000000e+000
    outer loop
      vertex  8.700000e+001 -3.000000e+001  0.000000e+000
      vertex  7.976777e+001 -2.176777e+001  0.000000e+000
      vertex  8.050000e+001 -2.000000e+001  0.000000e+000
    endloop
  endfacet
  facet normal  0.000000e+000  0.000000e+000 -1.000000e+000
    outer loop
      vertex  8.700000e+001 -3.000000e+001  0.000000e+000
      vertex  8.050000e+001 -2.000000e+001  0.000000e+000
      vertex  7.976777e+001 -1.823223e+001  0.000000e+000
    endloop
  endfacet
  facet normal  0.000000e+000  0.000000e+000 -1.000000e+000
    outer loop
      vertex  8.700000e+001 -3.000000e+001  0.000000e+000
      vertex  7.976777e+001 -1.823223e+001  0.000000e+000
      vertex  7.800000e+001 -2.500000e+000  0.000000e+000
    endloop
  endfacet
  facet normal  0.000000e+000  0.000000e+000 -1.000000e+000
    outer loop
      vertex  8.700000e+001 -3.000000e+001  0.000000e+000
      vertex  7.800000e+001 -2.500000e+000  0.000000e+000
      vertex  7.976777e+001 -1.767767e+000  0.000000e+000
    endloop
  endfacet
  facet normal  0.000000e+000  0.000000e+000 -1.000000e+000
    outer loop
      vertex  8.700000e+001 -3.000000e+001  0.000000e+000
      vertex  7.976777e+001 -1.767767e+000  0.000000e+000
      vertex  8.050000e+001  1.554312e-014  0.000000e+000
    endloop
  endfacet
  facet normal  0.000000e+000  0.000000e+000 -1.000000e+000
    outer loop
      vertex  8.700000e+001  1.000000e+001  0.000000e+000
      vertex  8.700000e+001 -3.000000e+001  0.000000e+000
      vertex  8.050000e+001  1.554312e-014  0.000000e+000
    endloop
  endfacet
  facet normal  0.000000e+000  0.000000e+000 -1.000000e+000
    outer loop
      vertex  8.700000e+001  1.000000e+001  0.000000e+000
      vertex  8.050000e+001  1.554312e-014  0.000000e+000
      vertex  7.976777e+001  1.767767e+000  0.000000e+000
    endloop
  endfacet
  facet normal  0.000000e+000  0.000000e+000 -1.000000e+000
    outer loop
      vertex  8.700000e+001  1.000000e+001  0.000000e+000
      vertex  7.976777e+001  1.767767e+000  0.000000e+000
      vertex  7.800000e+001  2.500000e+000  0.000000e+000
    endloop
  endfacet
  facet normal  -0.000000e+000  0.000000e+000 -1.000000e+000
    outer loop
      vertex  5.900000e+001  2.500000e+000  0.000000e+000
      vertex  7.800000e+001  2.500000e+000  0.000000e+000
      vertex  6.076777e+001  1.767767e+000  0.000000e+000
    endloop
  endfacet
  facet normal  0.000000e+000  0.000000e+000 -9.999999e-001
    outer loop
      vertex  6.076777e+001  1.767767e+000  0.000000e+000
      vertex  7.800000e+001  2.500000e+000  0.000000e+000
      vertex  7.623223e+001  1.767767e+000  0.000000e+000
    endloop
  endfacet
  facet normal  -0.000000e+000  0.000000e+000 -9.999999e-001
    outer loop
      vertex  6.076777e+001  1.767767e+000  0.000000e+000
      vertex  7.623223e+001  1.767767e+000  0.000000e+000
      vertex  6.150000e+001  0.000000e+000  0.000000e+000
    endloop
  endfacet
  facet normal  0.000000e+000  0.000000e+000 -9.999999e-001
    outer loop
      vertex  6.150000e+001  0.000000e+000  0.000000e+000
      vertex  7.623223e+001  1.767767e+000  0.000000e+000
      vertex  7.550000e+001  1.584927e-014  0.000000e+000
    endloop
  endfacet
  facet normal  0.000000e+000  0.000000e+000 -9.999999e-001
    outer loop
      vertex  6.150000e+001  0.000000e+000  0.000000e+000
      vertex  7.550000e+001  1.584927e-014  0.000000e+000
      vertex  6.076777e+001 -1.767767e+000  0.000000e+000
    endloop
  endfacet
  facet normal  0.000000e+000  0.000000e+000 -9.999999e-001
    outer loop
      vertex  6.076777e+001 -1.767767e+000  0.000000e+000
      vertex  7.550000e+001  1.584927e-014  0.000000e+000
      vertex  7.623223e+001 -1.767767e+000  0.000000e+000
    endloop
  endfacet
  facet normal  -0.000000e+000  0.000000e+000 -9.999999e-001
    outer loop
      vertex  6.076777e+001 -1.767767e+000  0.000000e+000
      vertex  7.623223e+001 -1.767767e+000  0.000000e+000
      vertex  5.900000e+001 -2.500000e+000  0.000000e+000
    endloop
  endfacet
  facet normal  0.000000e+000  0.000000e+000 -1.000000e+000
    outer loop
      vertex  5.900000e+001 -2.500000e+000  0.000000e+000
      vertex  7.623223e+001 -1.767767e+000  0.000000e+000
      vertex  7.800000e+001 -2.500000e+000  0.000000e+000
    endloop
  endfacet
  facet normal  -0.000000e+000  0.000000e+000 -1.000000e+000
    outer loop
      vertex  5.900000e+001 -2.500000e+000  0.000000e+000
      vertex  7.800000e+001 -2.500000e+000  0.000000e+000
      vertex  5.900000e+001 -1.750000e+001  0.000000e+000
    endloop
  endfacet
  facet normal  0.000000e+000  0.000000e+000 -1.000000e+000
    outer loop
      vertex  5.900000e+001 -1.750000e+001  0.000000e+000
      vertex  7.800000e+001 -2.500000e+000  0.000000e+000
      vertex  7.800000e+001 -1.750000e+001  0.000000e+000
    endloop
  endfacet
  facet normal  -0.000000e+000  0.000000e+000 -1.000000e+000
    outer loop
      vertex  5.900000e+001 -1.750000e+001  0.000000e+000
      vertex  7.800000e+001 -1.750000e+001  0.000000e+000
      vertex  6.076777e+001 -1.823223e+001  0.000000e+000
    endloop
  endfacet
  facet normal  0.000000e+000  0.000000e+000 -9.999999e-001
    outer loop
      vertex  6.076777e+001 -1.823223e+001  0.000000e+000
      vertex  7.800000e+001 -1.750000e+001  0.000000e+000
      vertex  7.623223e+001 -1.823223e+001  0.000000e+000
    endloop
  endfacet
  facet normal  -0.000000e+000  0.000000e+000 -9.999999e-001
    outer loop
      vertex  6.076777e+001 -1.823223e+001  0.000000e+000
      vertex  7.623223e+001 -1.823223e+001  0.000000e+000
      vertex  6.150000e+001 -2.000000e+001  0.000000e+000
    endloop
  endfacet
  facet normal  0.000000e+000  0.000000e+000 -9.999999e-001
    outer loop
      vertex  6.150000e+001 -2.000000e+001  0.000000e+000
      vertex  7.623223e+001 -1.823223e+001  0.000000e+000
      vertex  7.550000e+001 -2.000000e+001  0.000000e+000
    endloop
  endfacet
  facet normal  -0.000000e+000  0.000000e+000 -9.999999e-001
    outer loop
      vertex  6.150000e+001 -2.000000e+001  0.000000e+000
      vertex  7.550000e+001 -2.000000e+001  0.000000e+000
      vertex  6.076777e+001 -2.176777e+001  0.000000e+000
    endloop
  endfacet
  facet normal  0.000000e+000  0.000000e+000 -9.999999e-001
    outer loop
      vertex  6.076777e+001 -2.176777e+001  0.000000e+000
      vertex  7.550000e+001 -2.000000e+001  0.000000e+000
      vertex  7.623223e+001 -2.176777e+001  0.000000e+000
    endloop
  endfacet
  facet normal  -0.000000e+000  0.000000e+000 -9.999999e-001
    outer loop
      vertex  6.076777e+001 -2.176777e+001  0.000000e+000
      vertex  7.623223e+001 -2.176777e+001  0.000000e+000
      vertex  5.900000e+001 -2.250000e+001  0.000000e+000
    endloop
  endfacet
  facet normal  0.000000e+000  0.000000e+000 -1.000000e+000
    outer loop
      vertex  5.900000e+001 -2.250000e+001  0.000000e+000
      vertex  7.623223e+001 -2.176777e+001  0.000000e+000
      vertex  7.800000e+001 -2.250000e+001  0.000000e+000
    endloop
  endfacet
endsolid CATIA STL
