solid CATIA STL
  facet normal  1.000000e+000  0.000000e+000  0.000000e+000
    outer loop
      vertex -1.000000e+000  1.650000e+001  1.000000e+000
      vertex -1.000000e+000  1.650000e+001  6.000000e+000
      vertex -1.000000e+000  1.387500e+001  6.000000e+000
    endloop
  endfacet
  facet normal  1.000000e+000  0.000000e+000  0.000000e+000
    outer loop
      vertex -1.000000e+000  1.650000e+001  1.000000e+000
      vertex -1.000000e+000  1.387500e+001  6.000000e+000
      vertex -1.000000e+000  4.625000e+000  6.000000e+000
    endloop
  endfacet
  facet normal  1.000000e+000  0.000000e+000  0.000000e+000
    outer loop
      vertex -1.000000e+000  1.650000e+001  1.000000e+000
      vertex -1.000000e+000  4.625000e+000  6.000000e+000
      vertex -1.000000e+000  3.552714e-015  6.000000e+000
    endloop
  endfacet
  facet normal  1.000000e+000  0.000000e+000  0.000000e+000
    outer loop
      vertex -1.000000e+000  1.650000e+001  1.000000e+000
      vertex -1.000000e+000  3.552714e-015  6.000000e+000
      vertex -1.000000e+000 -4.573007e+000  6.000000e+000
    endloop
  endfacet
  facet normal  1.000000e+000  0.000000e+000  0.000000e+000
    outer loop
      vertex -1.000000e+000  1.650000e+001  1.000000e+000
      vertex -1.000000e+000 -4.573007e+000  6.000000e+000
      vertex -1.000000e+000 -1.387500e+001  6.000000e+000
    endloop
  endfacet
  facet normal  1.000000e+000  0.000000e+000  0.000000e+000
    outer loop
      vertex -1.000000e+000  1.650000e+001  1.000000e+000
      vertex -1.000000e+000 -1.387500e+001  6.000000e+000
      vertex -1.000000e+000 -1.650000e+001  6.000000e+000
    endloop
  endfacet
  facet normal  9.999999e-001  0.000000e+000  0.000000e+000
    outer loop
      vertex -1.000000e+000  1.650000e+001  1.000000e+000
      vertex -1.000000e+000 -1.650000e+001  6.000000e+000
      vertex -1.000000e+000 -1.650000e+001  1.000000e+000
    endloop
  endfacet
  facet normal -3.295617e-003 -5.485222e-001  8.361296e-001
    outer loop
      vertex -1.001614e+000  1.420719e+001  6.056789e+000
      vertex -1.052295e+000  1.460742e+001  6.319149e+000
      vertex -3.500000e+000  1.458211e+001  6.292893e+000
    endloop
  endfacet
  facet normal  0.000000e+000  9.984853e-001  5.501927e-002
    outer loop
      vertex -3.500000e+000  1.287500e+001  7.000000e+000
      vertex -2.000000e+000  1.287500e+001  7.000000e+000
      vertex -1.544301e+000  1.288105e+001  6.890134e+000
    endloop
  endfacet
  facet normal  1.267422e-002  9.603444e-001  2.785282e-001
    outer loop
      vertex -3.500000e+000  1.287500e+001  7.000000e+000
      vertex -1.544301e+000  1.288105e+001  6.890134e+000
      vertex -1.190278e+000  1.296435e+001  6.586813e+000
    endloop
  endfacet
  facet normal  7.200245e-002  8.126821e-001  5.782417e-001
    outer loop
      vertex -3.500000e+000  1.287500e+001  7.000000e+000
      vertex -1.190278e+000  1.296435e+001  6.586813e+000
      vertex -1.052295e+000  1.314258e+001  6.319149e+000
    endloop
  endfacet
  facet normal  5.450273e-003  9.238657e-001  3.826780e-001
    outer loop
      vertex -3.500000e+000  1.287500e+001  7.000000e+000
      vertex -1.052295e+000  1.314258e+001  6.319149e+000
      vertex -3.500000e+000  1.316789e+001  6.292893e+000
    endloop
  endfacet
  facet normal  0.000000e+000 -9.984853e-001  5.501927e-002
    outer loop
      vertex -2.000000e+000  1.487500e+001  7.000000e+000
      vertex -3.500000e+000  1.487500e+001  7.000000e+000
      vertex -1.544301e+000  1.486895e+001  6.890134e+000
    endloop
  endfacet
  facet normal  1.863505e-002 -9.237190e-001  3.826173e-001
    outer loop
      vertex -1.544301e+000  1.486895e+001  6.890134e+000
      vertex -3.500000e+000  1.487500e+001  7.000000e+000
      vertex -3.500000e+000  1.458211e+001  6.292893e+000
    endloop
  endfacet
  facet normal  4.394220e-002 -9.490879e-001  3.119316e-001
    outer loop
      vertex -1.544301e+000  1.486895e+001  6.890134e+000
      vertex -3.500000e+000  1.458211e+001  6.292893e+000
      vertex -1.190278e+000  1.478565e+001  6.586813e+000
    endloop
  endfacet
  facet normal  2.647127e-003 -8.317311e-001  5.551724e-001
    outer loop
      vertex -1.190278e+000  1.478565e+001  6.586813e+000
      vertex -3.500000e+000  1.458211e+001  6.292893e+000
      vertex -1.052295e+000  1.460742e+001  6.319149e+000
    endloop
  endfacet
  facet normal  6.776228e-002 -1.677992e-001  9.834896e-001
    outer loop
      vertex -1.001614e+000  1.420719e+001  6.056789e+000
      vertex -3.500000e+000  1.458211e+001  6.292893e+000
      vertex -1.000000e+000  1.387500e+001  6.000000e+000
    endloop
  endfacet
  facet normal  0.000000e+000 -3.826838e-001  9.238794e-001
    outer loop
      vertex -1.000000e+000  1.387500e+001  6.000000e+000
      vertex -3.500000e+000  1.458211e+001  6.292893e+000
      vertex -3.500000e+000  1.387500e+001  6.000000e+000
    endloop
  endfacet
  facet normal  -0.000000e+000  1.685064e-001  9.857005e-001
    outer loop
      vertex -1.000000e+000  1.387500e+001  6.000000e+000
      vertex -3.500000e+000  1.387500e+001  6.000000e+000
      vertex -1.001614e+000  1.354281e+001  6.056789e+000
    endloop
  endfacet
  facet normal  2.986966e-002  3.825130e-001  9.234672e-001
    outer loop
      vertex -1.001614e+000  1.354281e+001  6.056789e+000
      vertex -3.500000e+000  1.387500e+001  6.000000e+000
      vertex -3.500000e+000  1.316789e+001  6.292893e+000
    endloop
  endfacet
  facet normal -3.295617e-003  5.485222e-001  8.361296e-001
    outer loop
      vertex -1.001614e+000  1.354281e+001  6.056789e+000
      vertex -3.500000e+000  1.316789e+001  6.292893e+000
      vertex -1.052295e+000  1.314258e+001  6.319149e+000
    endloop
  endfacet
  facet normal  -0.000000e+000  0.000000e+000  1.000000e+000
    outer loop
      vertex -2.000000e+000  1.650000e+001  7.000000e+000
      vertex -3.500000e+000  1.650000e+001  7.000000e+000
      vertex -2.000000e+000  1.487500e+001  7.000000e+000
    endloop
  endfacet
  facet normal  0.000000e+000  0.000000e+000  1.000000e+000
    outer loop
      vertex -2.000000e+000  1.487500e+001  7.000000e+000
      vertex -3.500000e+000  1.650000e+001  7.000000e+000
      vertex -3.500000e+000  1.487500e+001  7.000000e+000
    endloop
  endfacet
  facet normal  0.000000e+000  1.000000e+000  0.000000e+000
    outer loop
      vertex -2.000000e+000  1.650000e+001  7.000000e+000
      vertex -1.292893e+000  1.650000e+001  6.707107e+000
      vertex -3.500000e+000  1.650000e+001  7.000000e+000
    endloop
  endfacet
  facet normal  0.000000e+000  1.000000e+000  0.000000e+000
    outer loop
      vertex -3.500000e+000  1.650000e+001  7.000000e+000
      vertex -1.292893e+000  1.650000e+001  6.707107e+000
      vertex -1.000000e+000  1.650000e+001  6.000000e+000
    endloop
  endfacet
  facet normal  0.000000e+000  1.000000e+000  0.000000e+000
    outer loop
      vertex -3.500000e+000  1.650000e+001  7.000000e+000
      vertex -1.000000e+000  1.650000e+001  6.000000e+000
      vertex -3.500000e+000  1.650000e+001 -5.000000e+000
    endloop
  endfacet
  facet normal  0.000000e+000  1.000000e+000  0.000000e+000
    outer loop
      vertex -3.500000e+000  1.650000e+001 -5.000000e+000
      vertex -1.000000e+000  1.650000e+001  6.000000e+000
      vertex -1.000000e+000  1.650000e+001  1.000000e+000
    endloop
  endfacet
  facet normal  0.000000e+000  1.000000e+000  0.000000e+000
    outer loop
      vertex -3.500000e+000  1.650000e+001 -5.000000e+000
      vertex -1.000000e+000  1.650000e+001  1.000000e+000
      vertex  3.500000e+000  1.650000e+001 -5.000000e+000
    endloop
  endfacet
  facet normal  0.000000e+000  1.000000e+000  -0.000000e+000
    outer loop
      vertex  3.500000e+000  1.650000e+001 -5.000000e+000
      vertex -1.000000e+000  1.650000e+001  1.000000e+000
      vertex  3.500000e+000  1.650000e+001  1.000000e+000
    endloop
  endfacet
  facet normal  9.235058e-001  2.843649e-002  3.825287e-001
    outer loop
      vertex -1.000000e+000  1.650000e+001  6.000000e+000
      vertex -1.292893e+000  1.650000e+001  6.707107e+000
      vertex -1.190278e+000  1.478565e+001  6.586813e+000
    endloop
  endfacet
  facet normal  9.004810e-001  4.800706e-002  4.322374e-001
    outer loop
      vertex -1.000000e+000  1.650000e+001  6.000000e+000
      vertex -1.190278e+000  1.478565e+001  6.586813e+000
      vertex -1.052295e+000  1.460742e+001  6.319149e+000
    endloop
  endfacet
  facet normal  9.829223e-001  3.865018e-003  1.839801e-001
    outer loop
      vertex -1.000000e+000  1.650000e+001  6.000000e+000
      vertex -1.052295e+000  1.460742e+001  6.319149e+000
      vertex -1.001614e+000  1.420719e+001  6.056789e+000
    endloop
  endfacet
  facet normal  9.995964e-001  0.000000e+000  2.840702e-002
    outer loop
      vertex -1.000000e+000  1.650000e+001  6.000000e+000
      vertex -1.001614e+000  1.420719e+001  6.056789e+000
      vertex -1.000000e+000  1.387500e+001  6.000000e+000
    endloop
  endfacet
  facet normal  3.826836e-001  -0.000000e+000  9.238794e-001
    outer loop
      vertex -2.000000e+000  1.650000e+001  7.000000e+000
      vertex -2.000000e+000  1.487500e+001  7.000000e+000
      vertex -1.292893e+000  1.650000e+001  6.707107e+000
    endloop
  endfacet
  facet normal  2.346708e-001  7.260416e-002  9.693597e-001
    outer loop
      vertex -1.292893e+000  1.650000e+001  6.707107e+000
      vertex -2.000000e+000  1.487500e+001  7.000000e+000
      vertex -1.544301e+000  1.486895e+001  6.890134e+000
    endloop
  endfacet
  facet normal  6.485845e-001 -1.457623e-002  7.610031e-001
    outer loop
      vertex -1.292893e+000  1.650000e+001  6.707107e+000
      vertex -1.544301e+000  1.486895e+001  6.890134e+000
      vertex -1.190278e+000  1.478565e+001  6.586813e+000
    endloop
  endfacet
  facet normal -3.295715e-003 -5.485226e-001  8.361292e-001
    outer loop
      vertex -1.001614e+000  4.957194e+000  6.056789e+000
      vertex -1.052295e+000  5.357421e+000  6.319149e+000
      vertex -3.500000e+000  5.332107e+000  6.292893e+000
    endloop
  endfacet
  facet normal  0.000000e+000  9.984854e-001  5.501711e-002
    outer loop
      vertex -3.500000e+000  3.625000e+000  7.000000e+000
      vertex -2.000000e+000  3.625000e+000  7.000000e+000
      vertex -1.544301e+000  3.631054e+000  6.890134e+000
    endloop
  endfacet
  facet normal  1.267439e-002  9.603441e-001  2.785291e-001
    outer loop
      vertex -3.500000e+000  3.625000e+000  7.000000e+000
      vertex -1.544301e+000  3.631054e+000  6.890134e+000
      vertex -1.190278e+000  3.714354e+000  6.586813e+000
    endloop
  endfacet
  facet normal  7.200267e-002  8.126814e-001  5.782428e-001
    outer loop
      vertex -3.500000e+000  3.625000e+000  7.000000e+000
      vertex -1.190278e+000  3.714354e+000  6.586813e+000
      vertex -1.052295e+000  3.892579e+000  6.319149e+000
    endloop
  endfacet
  facet normal  5.450008e-003  9.238658e-001  3.826778e-001
    outer loop
      vertex -3.500000e+000  3.625000e+000  7.000000e+000
      vertex -1.052295e+000  3.892579e+000  6.319149e+000
      vertex -3.500000e+000  3.917893e+000  6.292893e+000
    endloop
  endfacet
  facet normal  0.000000e+000 -9.984855e-001  5.501495e-002
    outer loop
      vertex -2.000000e+000  5.625000e+000  7.000000e+000
      vertex -3.500000e+000  5.625000e+000  7.000000e+000
      vertex -1.544301e+000  5.618947e+000  6.890134e+000
    endloop
  endfacet
  facet normal  1.863527e-002 -9.237189e-001  3.826173e-001
    outer loop
      vertex -1.544301e+000  5.618947e+000  6.890134e+000
      vertex -3.500000e+000  5.625000e+000  7.000000e+000
      vertex -3.500000e+000  5.332107e+000  6.292893e+000
    endloop
  endfacet
  facet normal  4.394202e-002 -9.490875e-001  3.119327e-001
    outer loop
      vertex -1.544301e+000  5.618947e+000  6.890134e+000
      vertex -3.500000e+000  5.332107e+000  6.292893e+000
      vertex -1.190278e+000  5.535646e+000  6.586813e+000
    endloop
  endfacet
  facet normal  2.646948e-003 -8.317305e-001  5.551733e-001
    outer loop
      vertex -1.190278e+000  5.535646e+000  6.586813e+000
      vertex -3.500000e+000  5.332107e+000  6.292893e+000
      vertex -1.052295e+000  5.357421e+000  6.319149e+000
    endloop
  endfacet
  facet normal  6.776228e-002 -1.677992e-001  9.834896e-001
    outer loop
      vertex -1.001614e+000  4.957194e+000  6.056789e+000
      vertex -3.500000e+000  5.332107e+000  6.292893e+000
      vertex -1.000000e+000  4.625000e+000  6.000000e+000
    endloop
  endfacet
  facet normal  0.000000e+000 -3.826838e-001  9.238794e-001
    outer loop
      vertex -1.000000e+000  4.625000e+000  6.000000e+000
      vertex -3.500000e+000  5.332107e+000  6.292893e+000
      vertex -3.500000e+000  4.625000e+000  6.000000e+000
    endloop
  endfacet
  facet normal  -0.000000e+000  1.685064e-001  9.857005e-001
    outer loop
      vertex -1.000000e+000  4.625000e+000  6.000000e+000
      vertex -3.500000e+000  4.625000e+000  6.000000e+000
      vertex -1.001614e+000  4.292806e+000  6.056789e+000
    endloop
  endfacet
  facet normal  2.986964e-002  3.825129e-001  9.234672e-001
    outer loop
      vertex -1.001614e+000  4.292806e+000  6.056789e+000
      vertex -3.500000e+000  4.625000e+000  6.000000e+000
      vertex -3.500000e+000  3.917893e+000  6.292893e+000
    endloop
  endfacet
  facet normal -3.295769e-003  5.485226e-001  8.361292e-001
    outer loop
      vertex -1.001614e+000  4.292806e+000  6.056789e+000
      vertex -3.500000e+000  3.917893e+000  6.292893e+000
      vertex -1.052295e+000  3.892579e+000  6.319149e+000
    endloop
  endfacet
  facet normal  -0.000000e+000  0.000000e+000  1.000000e+000
    outer loop
      vertex -2.000000e+000  1.287500e+001  7.000000e+000
      vertex -3.500000e+000  1.287500e+001  7.000000e+000
      vertex -2.000000e+000  5.625000e+000  7.000000e+000
    endloop
  endfacet
  facet normal  0.000000e+000  0.000000e+000  1.000000e+000
    outer loop
      vertex -2.000000e+000  5.625000e+000  7.000000e+000
      vertex -3.500000e+000  1.287500e+001  7.000000e+000
      vertex -3.500000e+000  5.625000e+000  7.000000e+000
    endloop
  endfacet
  facet normal  2.343779e-001  -0.000000e+000  9.721456e-001
    outer loop
      vertex -2.000000e+000  1.287500e+001  7.000000e+000
      vertex -2.000000e+000  5.625000e+000  7.000000e+000
      vertex -1.544301e+000  1.288105e+001  6.890134e+000
    endloop
  endfacet
  facet normal  2.343779e-001  0.000000e+000  9.721455e-001
    outer loop
      vertex -1.544301e+000  1.288105e+001  6.890134e+000
      vertex -2.000000e+000  5.625000e+000  7.000000e+000
      vertex -1.544301e+000  5.618947e+000  6.890134e+000
    endloop
  endfacet
  facet normal  6.506336e-001  -0.000000e+000  7.593917e-001
    outer loop
      vertex -1.544301e+000  1.288105e+001  6.890134e+000
      vertex -1.544301e+000  5.618947e+000  6.890134e+000
      vertex -1.190278e+000  1.296435e+001  6.586813e+000
    endloop
  endfacet
  facet normal  6.506336e-001  0.000000e+000  7.593917e-001
    outer loop
      vertex -1.190278e+000  1.296435e+001  6.586813e+000
      vertex -1.544301e+000  5.618947e+000  6.890134e+000
      vertex -1.190278e+000  5.535646e+000  6.586813e+000
    endloop
  endfacet
  facet normal  8.888465e-001  -0.000000e+000  4.582052e-001
    outer loop
      vertex -1.190278e+000  1.296435e+001  6.586813e+000
      vertex -1.190278e+000  5.535646e+000  6.586813e+000
      vertex -1.052295e+000  1.314258e+001  6.319149e+000
    endloop
  endfacet
  facet normal  8.888464e-001  0.000000e+000  4.582052e-001
    outer loop
      vertex -1.052295e+000  1.314258e+001  6.319149e+000
      vertex -1.190278e+000  5.535646e+000  6.586813e+000
      vertex -1.052295e+000  5.357421e+000  6.319149e+000
    endloop
  endfacet
  facet normal  9.818482e-001  -0.000000e+000  1.896686e-001
    outer loop
      vertex -1.052295e+000  1.314258e+001  6.319149e+000
      vertex -1.052295e+000  5.357421e+000  6.319149e+000
      vertex -1.001614e+000  1.354281e+001  6.056789e+000
    endloop
  endfacet
  facet normal  9.818481e-001  0.000000e+000  1.896686e-001
    outer loop
      vertex -1.001614e+000  1.354281e+001  6.056789e+000
      vertex -1.052295e+000  5.357421e+000  6.319149e+000
      vertex -1.001614e+000  4.957194e+000  6.056789e+000
    endloop
  endfacet
  facet normal  9.995965e-001  -0.000000e+000  2.840702e-002
    outer loop
      vertex -1.001614e+000  1.354281e+001  6.056789e+000
      vertex -1.001614e+000  4.957194e+000  6.056789e+000
      vertex -1.000000e+000  1.387500e+001  6.000000e+000
    endloop
  endfacet
  facet normal  9.995965e-001  0.000000e+000  2.840702e-002
    outer loop
      vertex -1.000000e+000  1.387500e+001  6.000000e+000
      vertex -1.001614e+000  4.957194e+000  6.056789e+000
      vertex -1.000000e+000  4.625000e+000  6.000000e+000
    endloop
  endfacet
  facet normal -3.295765e-003 -5.485228e-001  8.361291e-001
    outer loop
      vertex -1.001614e+000 -4.240812e+000  6.056789e+000
      vertex -1.052295e+000 -3.840585e+000  6.319149e+000
      vertex -3.500000e+000 -3.865900e+000  6.292893e+000
    endloop
  endfacet
  facet normal  0.000000e+000  9.984855e-001  5.501495e-002
    outer loop
      vertex -3.500000e+000 -5.573007e+000  7.000000e+000
      vertex -2.000000e+000 -5.573007e+000  7.000000e+000
      vertex -1.544301e+000 -5.566953e+000  6.890134e+000
    endloop
  endfacet
  facet normal  1.267447e-002  9.603443e-001  2.785285e-001
    outer loop
      vertex -3.500000e+000 -5.573007e+000  7.000000e+000
      vertex -1.544301e+000 -5.566953e+000  6.890134e+000
      vertex -1.190278e+000 -5.483654e+000  6.586813e+000
    endloop
  endfacet
  facet normal  7.200306e-002  8.126805e-001  5.782438e-001
    outer loop
      vertex -3.500000e+000 -5.573007e+000  7.000000e+000
      vertex -1.190278e+000 -5.483654e+000  6.586813e+000
      vertex -1.052295e+000 -5.305428e+000  6.319149e+000
    endloop
  endfacet
  facet normal  5.449921e-003  9.238659e-001  3.826775e-001
    outer loop
      vertex -3.500000e+000 -5.573007e+000  7.000000e+000
      vertex -1.052295e+000 -5.305428e+000  6.319149e+000
      vertex -3.500000e+000 -5.280114e+000  6.292893e+000
    endloop
  endfacet
  facet normal  0.000000e+000 -9.984854e-001  5.501711e-002
    outer loop
      vertex -2.000000e+000 -3.573007e+000  7.000000e+000
      vertex -3.500000e+000 -3.573007e+000  7.000000e+000
      vertex -1.544301e+000 -3.579061e+000  6.890134e+000
    endloop
  endfacet
  facet normal  1.863515e-002 -9.237191e-001  3.826170e-001
    outer loop
      vertex -1.544301e+000 -3.579061e+000  6.890134e+000
      vertex -3.500000e+000 -3.573007e+000  7.000000e+000
      vertex -3.500000e+000 -3.865900e+000  6.292893e+000
    endloop
  endfacet
  facet normal  4.394203e-002 -9.490878e-001  3.119321e-001
    outer loop
      vertex -1.544301e+000 -3.579061e+000  6.890134e+000
      vertex -3.500000e+000 -3.865900e+000  6.292893e+000
      vertex -1.190278e+000 -3.662360e+000  6.586813e+000
    endloop
  endfacet
  facet normal  2.646868e-003 -8.317305e-001  5.551733e-001
    outer loop
      vertex -1.190278e+000 -3.662360e+000  6.586813e+000
      vertex -3.500000e+000 -3.865900e+000  6.292893e+000
      vertex -1.052295e+000 -3.840585e+000  6.319149e+000
    endloop
  endfacet
  facet normal  6.776228e-002 -1.677992e-001  9.834896e-001
    outer loop
      vertex -1.001614e+000 -4.240812e+000  6.056789e+000
      vertex -3.500000e+000 -3.865900e+000  6.292893e+000
      vertex -1.000000e+000 -4.573007e+000  6.000000e+000
    endloop
  endfacet
  facet normal  0.000000e+000 -3.826838e-001  9.238794e-001
    outer loop
      vertex -1.000000e+000 -4.573007e+000  6.000000e+000
      vertex -3.500000e+000 -3.865900e+000  6.292893e+000
      vertex -3.500000e+000 -4.573007e+000  6.000000e+000
    endloop
  endfacet
  facet normal  -0.000000e+000  1.685062e-001  9.857006e-001
    outer loop
      vertex -1.000000e+000 -4.573007e+000  6.000000e+000
      vertex -3.500000e+000 -4.573007e+000  6.000000e+000
      vertex -1.001614e+000 -4.905201e+000  6.056789e+000
    endloop
  endfacet
  facet normal  2.986970e-002  3.825128e-001  9.234673e-001
    outer loop
      vertex -1.001614e+000 -4.905201e+000  6.056789e+000
      vertex -3.500000e+000 -4.573007e+000  6.000000e+000
      vertex -3.500000e+000 -5.280114e+000  6.292893e+000
    endloop
  endfacet
  facet normal -3.295814e-003  5.485230e-001  8.361290e-001
    outer loop
      vertex -1.001614e+000 -4.905201e+000  6.056789e+000
      vertex -3.500000e+000 -5.280114e+000  6.292893e+000
      vertex -1.052295e+000 -5.305428e+000  6.319149e+000
    endloop
  endfacet
  facet normal  -0.000000e+000  0.000000e+000  1.000000e+000
    outer loop
      vertex -2.000000e+000  2.664535e-015  7.000000e+000
      vertex -3.500000e+000  2.664535e-015  7.000000e+000
      vertex -2.000000e+000 -3.573007e+000  7.000000e+000
    endloop
  endfacet
  facet normal  0.000000e+000  0.000000e+000  1.000000e+000
    outer loop
      vertex -2.000000e+000 -3.573007e+000  7.000000e+000
      vertex -3.500000e+000  2.664535e-015  7.000000e+000
      vertex -3.500000e+000 -3.573007e+000  7.000000e+000
    endloop
  endfacet
  facet normal  -0.000000e+000  0.000000e+000  1.000000e+000
    outer loop
      vertex -2.000000e+000  3.625000e+000  7.000000e+000
      vertex -3.500000e+000  3.625000e+000  7.000000e+000
      vertex -2.000000e+000  2.664535e-015  7.000000e+000
    endloop
  endfacet
  facet normal  0.000000e+000  0.000000e+000  1.000000e+000
    outer loop
      vertex -2.000000e+000  2.664535e-015  7.000000e+000
      vertex -3.500000e+000  3.625000e+000  7.000000e+000
      vertex -3.500000e+000  2.664535e-015  7.000000e+000
    endloop
  endfacet
  facet normal  8.914879e-001 -9.960083e-003  4.529350e-001
    outer loop
      vertex -1.292893e+000  2.664535e-015  6.707107e+000
      vertex -1.052295e+000  3.892579e+000  6.319149e+000
      vertex -1.190278e+000  3.714354e+000  6.586813e+000
    endloop
  endfacet
  facet normal  9.920371e-001 -4.978714e-002  1.156871e-001
    outer loop
      vertex -1.052295e+000  3.892579e+000  6.319149e+000
      vertex -1.292893e+000  2.664535e-015  6.707107e+000
      vertex -1.001614e+000  4.292806e+000  6.056789e+000
    endloop
  endfacet
  facet normal  9.238693e-001 -4.715086e-003  3.826792e-001
    outer loop
      vertex -1.001614e+000  4.292806e+000  6.056789e+000
      vertex -1.292893e+000  2.664535e-015  6.707107e+000
      vertex -1.000000e+000  3.552714e-015  6.000000e+000
    endloop
  endfacet
  facet normal  9.995965e-001  -0.000000e+000  2.840702e-002
    outer loop
      vertex -1.001614e+000  4.292806e+000  6.056789e+000
      vertex -1.000000e+000  3.552714e-015  6.000000e+000
      vertex -1.000000e+000  4.625000e+000  6.000000e+000
    endloop
  endfacet
  facet normal  2.343779e-001  -0.000000e+000  9.721456e-001
    outer loop
      vertex -2.000000e+000  3.625000e+000  7.000000e+000
      vertex -2.000000e+000  2.664535e-015  7.000000e+000
      vertex -1.544301e+000  3.631054e+000  6.890134e+000
    endloop
  endfacet
  facet normal  3.826066e-001 -2.006882e-002  9.236934e-001
    outer loop
      vertex -1.544301e+000  3.631054e+000  6.890134e+000
      vertex -2.000000e+000  2.664535e-015  7.000000e+000
      vertex -1.292893e+000  2.664535e-015  6.707107e+000
    endloop
  endfacet
  facet normal  6.497138e-001  6.668791e-003  7.601496e-001
    outer loop
      vertex -1.544301e+000  3.631054e+000  6.890134e+000
      vertex -1.292893e+000  2.664535e-015  6.707107e+000
      vertex -1.190278e+000  3.714354e+000  6.586813e+000
    endloop
  endfacet
  facet normal  9.237975e-001  1.331535e-002  3.826495e-001
    outer loop
      vertex -1.000000e+000  3.552714e-015  6.000000e+000
      vertex -1.292893e+000  2.664535e-015  6.707107e+000
      vertex -1.190278e+000 -3.662360e+000  6.586813e+000
    endloop
  endfacet
  facet normal  8.951996e-001  2.478753e-002  4.449755e-001
    outer loop
      vertex -1.000000e+000  3.552714e-015  6.000000e+000
      vertex -1.190278e+000 -3.662360e+000  6.586813e+000
      vertex -1.052295e+000 -3.840585e+000  6.319149e+000
    endloop
  endfacet
  facet normal  9.824444e-001  2.124140e-003  1.865435e-001
    outer loop
      vertex -1.000000e+000  3.552714e-015  6.000000e+000
      vertex -1.052295e+000 -3.840585e+000  6.319149e+000
      vertex -1.001614e+000 -4.240812e+000  6.056789e+000
    endloop
  endfacet
  facet normal  9.995965e-001  0.000000e+000  2.840702e-002
    outer loop
      vertex -1.000000e+000  3.552714e-015  6.000000e+000
      vertex -1.001614e+000 -4.240812e+000  6.056789e+000
      vertex -1.000000e+000 -4.573007e+000  6.000000e+000
    endloop
  endfacet
  facet normal  3.826836e-001  -0.000000e+000  9.238794e-001
    outer loop
      vertex -2.000000e+000  2.664535e-015  7.000000e+000
      vertex -2.000000e+000 -3.573007e+000  7.000000e+000
      vertex -1.292893e+000  2.664535e-015  6.707107e+000
    endloop
  endfacet
  facet normal  2.346655e-001  3.319755e-002  9.715092e-001
    outer loop
      vertex -1.292893e+000  2.664535e-015  6.707107e+000
      vertex -2.000000e+000 -3.573007e+000  7.000000e+000
      vertex -1.544301e+000 -3.579061e+000  6.890134e+000
    endloop
  endfacet
  facet normal  6.497004e-001 -6.764188e-003  7.601602e-001
    outer loop
      vertex -1.292893e+000  2.664535e-015  6.707107e+000
      vertex -1.544301e+000 -3.579061e+000  6.890134e+000
      vertex -1.190278e+000 -3.662360e+000  6.586813e+000
    endloop
  endfacet
  facet normal -3.295617e-003 -5.485222e-001  8.361296e-001
    outer loop
      vertex -1.001614e+000 -1.354281e+001  6.056789e+000
      vertex -1.052295e+000 -1.314258e+001  6.319149e+000
      vertex -3.500000e+000 -1.316789e+001  6.292893e+000
    endloop
  endfacet
  facet normal  0.000000e+000  9.984853e-001  5.501927e-002
    outer loop
      vertex -3.500000e+000 -1.487500e+001  7.000000e+000
      vertex -2.000000e+000 -1.487500e+001  7.000000e+000
      vertex -1.544301e+000 -1.486895e+001  6.890134e+000
    endloop
  endfacet
  facet normal  1.267422e-002  9.603444e-001  2.785282e-001
    outer loop
      vertex -3.500000e+000 -1.487500e+001  7.000000e+000
      vertex -1.544301e+000 -1.486895e+001  6.890134e+000
      vertex -1.190278e+000 -1.478565e+001  6.586813e+000
    endloop
  endfacet
  facet normal  7.200245e-002  8.126821e-001  5.782417e-001
    outer loop
      vertex -3.500000e+000 -1.487500e+001  7.000000e+000
      vertex -1.190278e+000 -1.478565e+001  6.586813e+000
      vertex -1.052295e+000 -1.460742e+001  6.319149e+000
    endloop
  endfacet
  facet normal  5.450273e-003  9.238657e-001  3.826780e-001
    outer loop
      vertex -3.500000e+000 -1.487500e+001  7.000000e+000
      vertex -1.052295e+000 -1.460742e+001  6.319149e+000
      vertex -3.500000e+000 -1.458211e+001  6.292893e+000
    endloop
  endfacet
  facet normal  0.000000e+000 -9.984853e-001  5.501927e-002
    outer loop
      vertex -2.000000e+000 -1.287500e+001  7.000000e+000
      vertex -3.500000e+000 -1.287500e+001  7.000000e+000
      vertex -1.544301e+000 -1.288105e+001  6.890134e+000
    endloop
  endfacet
  facet normal  1.863505e-002 -9.237190e-001  3.826173e-001
    outer loop
      vertex -1.544301e+000 -1.288105e+001  6.890134e+000
      vertex -3.500000e+000 -1.287500e+001  7.000000e+000
      vertex -3.500000e+000 -1.316789e+001  6.292893e+000
    endloop
  endfacet
  facet normal  4.394220e-002 -9.490879e-001  3.119316e-001
    outer loop
      vertex -1.544301e+000 -1.288105e+001  6.890134e+000
      vertex -3.500000e+000 -1.316789e+001  6.292893e+000
      vertex -1.190278e+000 -1.296435e+001  6.586813e+000
    endloop
  endfacet
  facet normal  2.647127e-003 -8.317311e-001  5.551724e-001
    outer loop
      vertex -1.190278e+000 -1.296435e+001  6.586813e+000
      vertex -3.500000e+000 -1.316789e+001  6.292893e+000
      vertex -1.052295e+000 -1.314258e+001  6.319149e+000
    endloop
  endfacet
  facet normal  6.776228e-002 -1.677992e-001  9.834896e-001
    outer loop
      vertex -1.001614e+000 -1.354281e+001  6.056789e+000
      vertex -3.500000e+000 -1.316789e+001  6.292893e+000
      vertex -1.000000e+000 -1.387500e+001  6.000000e+000
    endloop
  endfacet
  facet normal  0.000000e+000 -3.826838e-001  9.238794e-001
    outer loop
      vertex -1.000000e+000 -1.387500e+001  6.000000e+000
      vertex -3.500000e+000 -1.316789e+001  6.292893e+000
      vertex -3.500000e+000 -1.387500e+001  6.000000e+000
    endloop
  endfacet
  facet normal  -0.000000e+000  1.685064e-001  9.857005e-001
    outer loop
      vertex -1.000000e+000 -1.387500e+001  6.000000e+000
      vertex -3.500000e+000 -1.387500e+001  6.000000e+000
      vertex -1.001614e+000 -1.420719e+001  6.056789e+000
    endloop
  endfacet
  facet normal  2.986966e-002  3.825130e-001  9.234672e-001
    outer loop
      vertex -1.001614e+000 -1.420719e+001  6.056789e+000
      vertex -3.500000e+000 -1.387500e+001  6.000000e+000
      vertex -3.500000e+000 -1.458211e+001  6.292893e+000
    endloop
  endfacet
  facet normal -3.295617e-003  5.485222e-001  8.361296e-001
    outer loop
      vertex -1.001614e+000 -1.420719e+001  6.056789e+000
      vertex -3.500000e+000 -1.458211e+001  6.292893e+000
      vertex -1.052295e+000 -1.460742e+001  6.319149e+000
    endloop
  endfacet
  facet normal  -0.000000e+000  0.000000e+000  1.000000e+000
    outer loop
      vertex -2.000000e+000 -1.487500e+001  7.000000e+000
      vertex -3.500000e+000 -1.487500e+001  7.000000e+000
      vertex -2.000000e+000 -1.650000e+001  7.000000e+000
    endloop
  endfacet
  facet normal  0.000000e+000  0.000000e+000  1.000000e+000
    outer loop
      vertex -2.000000e+000 -1.650000e+001  7.000000e+000
      vertex -3.500000e+000 -1.487500e+001  7.000000e+000
      vertex -3.500000e+000 -1.650000e+001  7.000000e+000
    endloop
  endfacet
  facet normal  0.000000e+000 -1.000000e+000  -0.000000e+000
    outer loop
      vertex  3.500000e+000 -1.650000e+001 -5.000000e+000
      vertex  3.500000e+000 -1.650000e+001  1.000000e+000
      vertex -3.500000e+000 -1.650000e+001 -5.000000e+000
    endloop
  endfacet
  facet normal  0.000000e+000 -1.000000e+000  0.000000e+000
    outer loop
      vertex -3.500000e+000 -1.650000e+001 -5.000000e+000
      vertex  3.500000e+000 -1.650000e+001  1.000000e+000
      vertex -1.000000e+000 -1.650000e+001  1.000000e+000
    endloop
  endfacet
  facet normal  -0.000000e+000 -1.000000e+000  0.000000e+000
    outer loop
      vertex -3.500000e+000 -1.650000e+001 -5.000000e+000
      vertex -1.000000e+000 -1.650000e+001  1.000000e+000
      vertex -3.500000e+000 -1.650000e+001  7.000000e+000
    endloop
  endfacet
  facet normal  0.000000e+000 -1.000000e+000  0.000000e+000
    outer loop
      vertex -3.500000e+000 -1.650000e+001  7.000000e+000
      vertex -1.000000e+000 -1.650000e+001  1.000000e+000
      vertex -1.000000e+000 -1.650000e+001  6.000000e+000
    endloop
  endfacet
  facet normal  0.000000e+000 -1.000000e+000  0.000000e+000
    outer loop
      vertex -3.500000e+000 -1.650000e+001  7.000000e+000
      vertex -1.000000e+000 -1.650000e+001  6.000000e+000
      vertex -2.000000e+000 -1.650000e+001  7.000000e+000
    endloop
  endfacet
  facet normal  0.000000e+000 -1.000000e+000  0.000000e+000
    outer loop
      vertex -2.000000e+000 -1.650000e+001  7.000000e+000
      vertex -1.000000e+000 -1.650000e+001  6.000000e+000
      vertex -1.292893e+000 -1.650000e+001  6.707107e+000
    endloop
  endfacet
  facet normal  9.995964e-001  0.000000e+000  2.840702e-002
    outer loop
      vertex -1.000000e+000 -1.650000e+001  6.000000e+000
      vertex -1.000000e+000 -1.387500e+001  6.000000e+000
      vertex -1.001614e+000 -1.420719e+001  6.056789e+000
    endloop
  endfacet
  facet normal  9.829223e-001 -3.865018e-003  1.839801e-001
    outer loop
      vertex -1.000000e+000 -1.650000e+001  6.000000e+000
      vertex -1.001614e+000 -1.420719e+001  6.056789e+000
      vertex -1.052295e+000 -1.460742e+001  6.319149e+000
    endloop
  endfacet
  facet normal  9.004810e-001 -4.800706e-002  4.322374e-001
    outer loop
      vertex -1.000000e+000 -1.650000e+001  6.000000e+000
      vertex -1.052295e+000 -1.460742e+001  6.319149e+000
      vertex -1.190278e+000 -1.478565e+001  6.586813e+000
    endloop
  endfacet
  facet normal  9.235058e-001 -2.843649e-002  3.825287e-001
    outer loop
      vertex -1.000000e+000 -1.650000e+001  6.000000e+000
      vertex -1.190278e+000 -1.478565e+001  6.586813e+000
      vertex -1.292893e+000 -1.650000e+001  6.707107e+000
    endloop
  endfacet
  facet normal  2.343779e-001  -0.000000e+000  9.721456e-001
    outer loop
      vertex -2.000000e+000 -1.487500e+001  7.000000e+000
      vertex -2.000000e+000 -1.650000e+001  7.000000e+000
      vertex -1.544301e+000 -1.486895e+001  6.890134e+000
    endloop
  endfacet
  facet normal  3.823021e-001 -4.464167e-002  9.229584e-001
    outer loop
      vertex -1.544301e+000 -1.486895e+001  6.890134e+000
      vertex -2.000000e+000 -1.650000e+001  7.000000e+000
      vertex -1.292893e+000 -1.650000e+001  6.707107e+000
    endloop
  endfacet
  facet normal  6.485845e-001  1.457623e-002  7.610031e-001
    outer loop
      vertex -1.544301e+000 -1.486895e+001  6.890134e+000
      vertex -1.292893e+000 -1.650000e+001  6.707107e+000
      vertex -1.190278e+000 -1.478565e+001  6.586813e+000
    endloop
  endfacet
  facet normal  -0.000000e+000  0.000000e+000  1.000000e+000
    outer loop
      vertex -2.000000e+000 -5.573007e+000  7.000000e+000
      vertex -3.500000e+000 -5.573007e+000  7.000000e+000
      vertex -2.000000e+000 -1.287500e+001  7.000000e+000
    endloop
  endfacet
  facet normal  0.000000e+000  0.000000e+000  1.000000e+000
    outer loop
      vertex -2.000000e+000 -1.287500e+001  7.000000e+000
      vertex -3.500000e+000 -5.573007e+000  7.000000e+000
      vertex -3.500000e+000 -1.287500e+001  7.000000e+000
    endloop
  endfacet
  facet normal  2.343779e-001  -0.000000e+000  9.721456e-001
    outer loop
      vertex -2.000000e+000 -5.573007e+000  7.000000e+000
      vertex -2.000000e+000 -1.287500e+001  7.000000e+000
      vertex -1.544301e+000 -5.566953e+000  6.890134e+000
    endloop
  endfacet
  facet normal  2.343779e-001  0.000000e+000  9.721455e-001
    outer loop
      vertex -1.544301e+000 -5.566953e+000  6.890134e+000
      vertex -2.000000e+000 -1.287500e+001  7.000000e+000
      vertex -1.544301e+000 -1.288105e+001  6.890134e+000
    endloop
  endfacet
  facet normal  6.506336e-001  -0.000000e+000  7.593918e-001
    outer loop
      vertex -1.544301e+000 -5.566953e+000  6.890134e+000
      vertex -1.544301e+000 -1.288105e+001  6.890134e+000
      vertex -1.190278e+000 -5.483654e+000  6.586813e+000
    endloop
  endfacet
  facet normal  6.506336e-001  0.000000e+000  7.593918e-001
    outer loop
      vertex -1.190278e+000 -5.483654e+000  6.586813e+000
      vertex -1.544301e+000 -1.288105e+001  6.890134e+000
      vertex -1.190278e+000 -1.296435e+001  6.586813e+000
    endloop
  endfacet
  facet normal  8.888465e-001  -0.000000e+000  4.582052e-001
    outer loop
      vertex -1.190278e+000 -5.483654e+000  6.586813e+000
      vertex -1.190278e+000 -1.296435e+001  6.586813e+000
      vertex -1.052295e+000 -5.305428e+000  6.319149e+000
    endloop
  endfacet
  facet normal  8.888465e-001  0.000000e+000  4.582052e-001
    outer loop
      vertex -1.052295e+000 -5.305428e+000  6.319149e+000
      vertex -1.190278e+000 -1.296435e+001  6.586813e+000
      vertex -1.052295e+000 -1.314258e+001  6.319149e+000
    endloop
  endfacet
  facet normal  9.818481e-001  -0.000000e+000  1.896686e-001
    outer loop
      vertex -1.052295e+000 -5.305428e+000  6.319149e+000
      vertex -1.052295e+000 -1.314258e+001  6.319149e+000
      vertex -1.001614e+000 -4.905201e+000  6.056789e+000
    endloop
  endfacet
  facet normal  9.818482e-001  0.000000e+000  1.896687e-001
    outer loop
      vertex -1.001614e+000 -4.905201e+000  6.056789e+000
      vertex -1.052295e+000 -1.314258e+001  6.319149e+000
      vertex -1.001614e+000 -1.354281e+001  6.056789e+000
    endloop
  endfacet
  facet normal  9.995964e-001  -0.000000e+000  2.840702e-002
    outer loop
      vertex -1.001614e+000 -4.905201e+000  6.056789e+000
      vertex -1.001614e+000 -1.354281e+001  6.056789e+000
      vertex -1.000000e+000 -4.573007e+000  6.000000e+000
    endloop
  endfacet
  facet normal  9.995964e-001  0.000000e+000  2.840702e-002
    outer loop
      vertex -1.000000e+000 -4.573007e+000  6.000000e+000
      vertex -1.001614e+000 -1.354281e+001  6.056789e+000
      vertex -1.000000e+000 -1.387500e+001  6.000000e+000
    endloop
  endfacet
  facet normal  1.000000e+000  0.000000e+000  0.000000e+000
    outer loop
      vertex  3.500000e+000 -1.650000e+001 -5.000000e+000
      vertex  3.500000e+000  1.650000e+001 -5.000000e+000
      vertex  3.500000e+000 -1.650000e+001  1.000000e+000
    endloop
  endfacet
  facet normal  1.000000e+000  -0.000000e+000  0.000000e+000
    outer loop
      vertex  3.500000e+000 -1.650000e+001  1.000000e+000
      vertex  3.500000e+000  1.650000e+001 -5.000000e+000
      vertex  3.500000e+000  1.650000e+001  1.000000e+000
    endloop
  endfacet
  facet normal  -0.000000e+000  0.000000e+000  1.000000e+000
    outer loop
      vertex  3.500000e+000  1.650000e+001  1.000000e+000
      vertex -1.000000e+000  1.650000e+001  1.000000e+000
      vertex  3.500000e+000 -1.650000e+001  1.000000e+000
    endloop
  endfacet
  facet normal  0.000000e+000  0.000000e+000  1.000000e+000
    outer loop
      vertex  3.500000e+000 -1.650000e+001  1.000000e+000
      vertex -1.000000e+000  1.650000e+001  1.000000e+000
      vertex -1.000000e+000 -1.650000e+001  1.000000e+000
    endloop
  endfacet
  facet normal -1.000000e+000  0.000000e+000  0.000000e+000
    outer loop
      vertex -3.500000e+000  2.664535e-015  7.000000e+000
      vertex -3.500000e+000 -3.865900e+000  6.292893e+000
      vertex -3.500000e+000 -3.573007e+000  7.000000e+000
    endloop
  endfacet
  facet normal -1.000000e+000  0.000000e+000  0.000000e+000
    outer loop
      vertex -3.500000e+000  1.650000e+001 -5.000000e+000
      vertex -3.500000e+000 -1.650000e+001 -5.000000e+000
      vertex -3.500000e+000  1.387500e+001  6.000000e+000
    endloop
  endfacet
  facet normal -1.000000e+000  0.000000e+000  0.000000e+000
    outer loop
      vertex -3.500000e+000  1.650000e+001 -5.000000e+000
      vertex -3.500000e+000  1.387500e+001  6.000000e+000
      vertex -3.500000e+000  1.458211e+001  6.292893e+000
    endloop
  endfacet
  facet normal -1.000000e+000  0.000000e+000  0.000000e+000
    outer loop
      vertex -3.500000e+000  1.650000e+001 -5.000000e+000
      vertex -3.500000e+000  1.458211e+001  6.292893e+000
      vertex -3.500000e+000  1.487500e+001  7.000000e+000
    endloop
  endfacet
  facet normal -1.000000e+000  0.000000e+000  0.000000e+000
    outer loop
      vertex -3.500000e+000  1.650000e+001 -5.000000e+000
      vertex -3.500000e+000  1.487500e+001  7.000000e+000
      vertex -3.500000e+000  1.650000e+001  7.000000e+000
    endloop
  endfacet
  facet normal -1.000000e+000  0.000000e+000  0.000000e+000
    outer loop
      vertex -3.500000e+000 -1.650000e+001 -5.000000e+000
      vertex -3.500000e+000 -1.650000e+001  7.000000e+000
      vertex -3.500000e+000 -1.487500e+001  7.000000e+000
    endloop
  endfacet
  facet normal -1.000000e+000  0.000000e+000  -0.000000e+000
    outer loop
      vertex -3.500000e+000 -1.650000e+001 -5.000000e+000
      vertex -3.500000e+000 -1.487500e+001  7.000000e+000
      vertex -3.500000e+000 -1.458211e+001  6.292893e+000
    endloop
  endfacet
  facet normal -1.000000e+000  0.000000e+000  -0.000000e+000
    outer loop
      vertex -3.500000e+000 -1.650000e+001 -5.000000e+000
      vertex -3.500000e+000 -1.458211e+001  6.292893e+000
      vertex -3.500000e+000 -1.387500e+001  6.000000e+000
    endloop
  endfacet
  facet normal -9.999999e-001  0.000000e+000  -0.000000e+000
    outer loop
      vertex -3.500000e+000 -1.650000e+001 -5.000000e+000
      vertex -3.500000e+000 -1.387500e+001  6.000000e+000
      vertex -3.500000e+000 -4.573007e+000  6.000000e+000
    endloop
  endfacet
  facet normal -1.000000e+000  0.000000e+000  -0.000000e+000
    outer loop
      vertex -3.500000e+000 -1.650000e+001 -5.000000e+000
      vertex -3.500000e+000 -4.573007e+000  6.000000e+000
      vertex -3.500000e+000  4.625000e+000  6.000000e+000
    endloop
  endfacet
  facet normal -1.000000e+000  0.000000e+000  -0.000000e+000
    outer loop
      vertex -3.500000e+000 -1.650000e+001 -5.000000e+000
      vertex -3.500000e+000  4.625000e+000  6.000000e+000
      vertex -3.500000e+000  1.387500e+001  6.000000e+000
    endloop
  endfacet
  facet normal -1.000000e+000  -0.000000e+000  0.000000e+000
    outer loop
      vertex -3.500000e+000 -1.287500e+001  7.000000e+000
      vertex -3.500000e+000 -5.573007e+000  7.000000e+000
      vertex -3.500000e+000 -1.316789e+001  6.292893e+000
    endloop
  endfacet
  facet normal -1.000000e+000  0.000000e+000  0.000000e+000
    outer loop
      vertex -3.500000e+000 -1.316789e+001  6.292893e+000
      vertex -3.500000e+000 -5.573007e+000  7.000000e+000
      vertex -3.500000e+000 -5.280114e+000  6.292893e+000
    endloop
  endfacet
  facet normal -1.000000e+000  -0.000000e+000  0.000000e+000
    outer loop
      vertex -3.500000e+000 -1.316789e+001  6.292893e+000
      vertex -3.500000e+000 -5.280114e+000  6.292893e+000
      vertex -3.500000e+000 -1.387500e+001  6.000000e+000
    endloop
  endfacet
  facet normal -9.999999e-001  0.000000e+000  0.000000e+000
    outer loop
      vertex -3.500000e+000 -1.387500e+001  6.000000e+000
      vertex -3.500000e+000 -5.280114e+000  6.292893e+000
      vertex -3.500000e+000 -4.573007e+000  6.000000e+000
    endloop
  endfacet
  facet normal -1.000000e+000  -0.000000e+000  0.000000e+000
    outer loop
      vertex -3.500000e+000  2.664535e-015  7.000000e+000
      vertex -3.500000e+000  3.625000e+000  7.000000e+000
      vertex -3.500000e+000 -3.865900e+000  6.292893e+000
    endloop
  endfacet
  facet normal -1.000000e+000  0.000000e+000  0.000000e+000
    outer loop
      vertex -3.500000e+000 -3.865900e+000  6.292893e+000
      vertex -3.500000e+000  3.625000e+000  7.000000e+000
      vertex -3.500000e+000  3.917893e+000  6.292893e+000
    endloop
  endfacet
  facet normal -1.000000e+000  -0.000000e+000  0.000000e+000
    outer loop
      vertex -3.500000e+000 -3.865900e+000  6.292893e+000
      vertex -3.500000e+000  3.917893e+000  6.292893e+000
      vertex -3.500000e+000 -4.573007e+000  6.000000e+000
    endloop
  endfacet
  facet normal -9.999999e-001  0.000000e+000  0.000000e+000
    outer loop
      vertex -3.500000e+000 -4.573007e+000  6.000000e+000
      vertex -3.500000e+000  3.917893e+000  6.292893e+000
      vertex -3.500000e+000  4.625000e+000  6.000000e+000
    endloop
  endfacet
  facet normal -1.000000e+000  -0.000000e+000  0.000000e+000
    outer loop
      vertex -3.500000e+000  5.625000e+000  7.000000e+000
      vertex -3.500000e+000  1.287500e+001  7.000000e+000
      vertex -3.500000e+000  5.332107e+000  6.292893e+000
    endloop
  endfacet
  facet normal -1.000000e+000  0.000000e+000  0.000000e+000
    outer loop
      vertex -3.500000e+000  5.332107e+000  6.292893e+000
      vertex -3.500000e+000  1.287500e+001  7.000000e+000
      vertex -3.500000e+000  1.316789e+001  6.292893e+000
    endloop
  endfacet
  facet normal -1.000000e+000  -0.000000e+000  0.000000e+000
    outer loop
      vertex -3.500000e+000  5.332107e+000  6.292893e+000
      vertex -3.500000e+000  1.316789e+001  6.292893e+000
      vertex -3.500000e+000  4.625000e+000  6.000000e+000
    endloop
  endfacet
  facet normal -1.000000e+000  0.000000e+000  0.000000e+000
    outer loop
      vertex -3.500000e+000  4.625000e+000  6.000000e+000
      vertex -3.500000e+000  1.316789e+001  6.292893e+000
      vertex -3.500000e+000  1.387500e+001  6.000000e+000
    endloop
  endfacet
  facet normal  -0.000000e+000  0.000000e+000 -1.000000e+000
    outer loop
      vertex -3.500000e+000  1.650000e+001 -5.000000e+000
      vertex  3.500000e+000  1.650000e+001 -5.000000e+000
      vertex -3.500000e+000 -1.650000e+001 -5.000000e+000
    endloop
  endfacet
  facet normal  0.000000e+000  0.000000e+000 -1.000000e+000
    outer loop
      vertex -3.500000e+000 -1.650000e+001 -5.000000e+000
      vertex  3.500000e+000  1.650000e+001 -5.000000e+000
      vertex  3.500000e+000 -1.650000e+001 -5.000000e+000
    endloop
  endfacet
endsolid CATIA STL
