solid CATIA STL
  facet normal  0.000000e+000  0.000000e+000  1.000000e+000
    outer loop
      vertex  1.620000e+002 -1.110047e+002  2.500000e+000
      vertex  1.613635e+002 -1.069860e+002  2.500000e+000
      vertex  1.595163e+002 -1.033607e+002  2.500000e+000
    endloop
  endfacet
  facet normal  0.000000e+000  0.000000e+000  1.000000e+000
    outer loop
      vertex  1.620000e+002 -1.110047e+002  2.500000e+000
      vertex  1.595163e+002 -1.033607e+002  2.500000e+000
      vertex  1.566393e+002 -1.004837e+002  2.500000e+000
    endloop
  endfacet
  facet normal  0.000000e+000  0.000000e+000  9.999999e-001
    outer loop
      vertex  1.620000e+002 -1.110047e+002  2.500000e+000
      vertex  1.566393e+002 -1.004837e+002  2.500000e+000
      vertex  1.530140e+002 -9.863650e+001  2.500000e+000
    endloop
  endfacet
  facet normal  0.000000e+000  0.000000e+000  1.000000e+000
    outer loop
      vertex  1.620000e+002 -1.110047e+002  2.500000e+000
      vertex  1.530140e+002 -9.863650e+001  2.500000e+000
      vertex  1.489953e+002 -9.800000e+001  2.500000e+000
    endloop
  endfacet
  facet normal  0.000000e+000  0.000000e+000  1.000000e+000
    outer loop
      vertex  1.620000e+002 -1.110047e+002  2.500000e+000
      vertex  1.489953e+002 -9.800000e+001  2.500000e+000
      vertex  1.280000e+002 -9.800000e+001  2.500000e+000
    endloop
  endfacet
  facet normal  0.000000e+000  0.000000e+000  1.000000e+000
    outer loop
      vertex  1.620000e+002 -1.110047e+002  2.500000e+000
      vertex  1.280000e+002 -9.800000e+001  2.500000e+000
      vertex  1.280000e+002 -1.299376e+002  2.500000e+000
    endloop
  endfacet
  facet normal  -0.000000e+000  0.000000e+000  1.000000e+000
    outer loop
      vertex  1.620000e+002 -1.110047e+002  2.500000e+000
      vertex  1.280000e+002 -1.299376e+002  2.500000e+000
      vertex  1.620000e+002 -1.323484e+002  2.500000e+000
    endloop
  endfacet
  facet normal  0.000000e+000  0.000000e+000  9.999999e-001
    outer loop
      vertex  1.620000e+002 -1.323484e+002  2.500000e+000
      vertex  1.280000e+002 -1.299376e+002  2.500000e+000
      vertex  1.614297e+002 -1.359490e+002  2.500000e+000
    endloop
  endfacet
  facet normal  0.000000e+000  0.000000e+000  1.000000e+000
    outer loop
      vertex  1.614297e+002 -1.359490e+002  2.500000e+000
      vertex  1.280000e+002 -1.299376e+002  2.500000e+000
      vertex  1.286883e+002 -1.342831e+002  2.500000e+000
    endloop
  endfacet
  facet normal  0.000000e+000  0.000000e+000  9.999999e-001
    outer loop
      vertex  1.614297e+002 -1.359490e+002  2.500000e+000
      vertex  1.286883e+002 -1.342831e+002  2.500000e+000
      vertex  1.597747e+002 -1.391971e+002  2.500000e+000
    endloop
  endfacet
  facet normal  0.000000e+000  0.000000e+000  1.000000e+000
    outer loop
      vertex  1.597747e+002 -1.391971e+002  2.500000e+000
      vertex  1.286883e+002 -1.342831e+002  2.500000e+000
      vertex  1.306857e+002 -1.382033e+002  2.500000e+000
    endloop
  endfacet
  facet normal  0.000000e+000  0.000000e+000  1.000000e+000
    outer loop
      vertex  1.597747e+002 -1.391971e+002  2.500000e+000
      vertex  1.306857e+002 -1.382033e+002  2.500000e+000
      vertex  1.571971e+002 -1.417747e+002  2.500000e+000
    endloop
  endfacet
  facet normal  0.000000e+000  0.000000e+000  1.000000e+000
    outer loop
      vertex  1.571971e+002 -1.417747e+002  2.500000e+000
      vertex  1.306857e+002 -1.382033e+002  2.500000e+000
      vertex  1.337967e+002 -1.413143e+002  2.500000e+000
    endloop
  endfacet
  facet normal  0.000000e+000  0.000000e+000  1.000000e+000
    outer loop
      vertex  1.571971e+002 -1.417747e+002  2.500000e+000
      vertex  1.337967e+002 -1.413143e+002  2.500000e+000
      vertex  1.539490e+002 -1.434297e+002  2.500000e+000
    endloop
  endfacet
  facet normal  0.000000e+000  0.000000e+000  9.999999e-001
    outer loop
      vertex  1.539490e+002 -1.434297e+002  2.500000e+000
      vertex  1.337967e+002 -1.413143e+002  2.500000e+000
      vertex  1.377169e+002 -1.433117e+002  2.500000e+000
    endloop
  endfacet
  facet normal  0.000000e+000  0.000000e+000  1.000000e+000
    outer loop
      vertex  1.539490e+002 -1.434297e+002  2.500000e+000
      vertex  1.377169e+002 -1.433117e+002  2.500000e+000
      vertex  1.503484e+002 -1.440000e+002  2.500000e+000
    endloop
  endfacet
  facet normal  0.000000e+000  0.000000e+000  1.000000e+000
    outer loop
      vertex  1.503484e+002 -1.440000e+002  2.500000e+000
      vertex  1.377169e+002 -1.433117e+002  2.500000e+000
      vertex  1.420624e+002 -1.440000e+002  2.500000e+000
    endloop
  endfacet
  facet normal  0.000000e+000  0.000000e+000 -1.000000e+000
    outer loop
      vertex  1.620000e+002 -1.110047e+002  0.000000e+000
      vertex  1.620000e+002 -1.323484e+002  0.000000e+000
      vertex  1.280000e+002 -1.299376e+002  0.000000e+000
    endloop
  endfacet
  facet normal  0.000000e+000  0.000000e+000 -1.000000e+000
    outer loop
      vertex  1.620000e+002 -1.110047e+002  0.000000e+000
      vertex  1.280000e+002 -1.299376e+002  0.000000e+000
      vertex  1.280000e+002 -9.800000e+001  0.000000e+000
    endloop
  endfacet
  facet normal  0.000000e+000  0.000000e+000 -1.000000e+000
    outer loop
      vertex  1.620000e+002 -1.110047e+002  0.000000e+000
      vertex  1.280000e+002 -9.800000e+001  0.000000e+000
      vertex  1.489953e+002 -9.800000e+001  0.000000e+000
    endloop
  endfacet
  facet normal  0.000000e+000  0.000000e+000 -1.000000e+000
    outer loop
      vertex  1.620000e+002 -1.110047e+002  0.000000e+000
      vertex  1.489953e+002 -9.800000e+001  0.000000e+000
      vertex  1.530140e+002 -9.863650e+001  0.000000e+000
    endloop
  endfacet
  facet normal  0.000000e+000  0.000000e+000 -9.999999e-001
    outer loop
      vertex  1.620000e+002 -1.110047e+002  0.000000e+000
      vertex  1.530140e+002 -9.863650e+001  0.000000e+000
      vertex  1.566393e+002 -1.004837e+002  0.000000e+000
    endloop
  endfacet
  facet normal  0.000000e+000  0.000000e+000 -1.000000e+000
    outer loop
      vertex  1.620000e+002 -1.110047e+002  0.000000e+000
      vertex  1.566393e+002 -1.004837e+002  0.000000e+000
      vertex  1.595163e+002 -1.033607e+002  0.000000e+000
    endloop
  endfacet
  facet normal  0.000000e+000  0.000000e+000 -1.000000e+000
    outer loop
      vertex  1.620000e+002 -1.110047e+002  0.000000e+000
      vertex  1.595163e+002 -1.033607e+002  0.000000e+000
      vertex  1.613635e+002 -1.069860e+002  0.000000e+000
    endloop
  endfacet
  facet normal  -0.000000e+000  0.000000e+000 -1.000000e+000
    outer loop
      vertex  1.280000e+002 -1.299376e+002  0.000000e+000
      vertex  1.620000e+002 -1.323484e+002  0.000000e+000
      vertex  1.286883e+002 -1.342831e+002  0.000000e+000
    endloop
  endfacet
  facet normal  0.000000e+000  0.000000e+000 -1.000000e+000
    outer loop
      vertex  1.286883e+002 -1.342831e+002  0.000000e+000
      vertex  1.620000e+002 -1.323484e+002  0.000000e+000
      vertex  1.614297e+002 -1.359490e+002  0.000000e+000
    endloop
  endfacet
  facet normal  -0.000000e+000  0.000000e+000 -1.000000e+000
    outer loop
      vertex  1.286883e+002 -1.342831e+002  0.000000e+000
      vertex  1.614297e+002 -1.359490e+002  0.000000e+000
      vertex  1.306857e+002 -1.382033e+002  0.000000e+000
    endloop
  endfacet
  facet normal  0.000000e+000  0.000000e+000 -1.000000e+000
    outer loop
      vertex  1.306857e+002 -1.382033e+002  0.000000e+000
      vertex  1.614297e+002 -1.359490e+002  0.000000e+000
      vertex  1.597747e+002 -1.391971e+002  0.000000e+000
    endloop
  endfacet
  facet normal  -0.000000e+000  0.000000e+000 -1.000000e+000
    outer loop
      vertex  1.306857e+002 -1.382033e+002  0.000000e+000
      vertex  1.597747e+002 -1.391971e+002  0.000000e+000
      vertex  1.337967e+002 -1.413143e+002  0.000000e+000
    endloop
  endfacet
  facet normal  0.000000e+000  0.000000e+000 -1.000000e+000
    outer loop
      vertex  1.337967e+002 -1.413143e+002  0.000000e+000
      vertex  1.597747e+002 -1.391971e+002  0.000000e+000
      vertex  1.571971e+002 -1.417747e+002  0.000000e+000
    endloop
  endfacet
  facet normal  -0.000000e+000  0.000000e+000 -1.000000e+000
    outer loop
      vertex  1.337967e+002 -1.413143e+002  0.000000e+000
      vertex  1.571971e+002 -1.417747e+002  0.000000e+000
      vertex  1.377169e+002 -1.433117e+002  0.000000e+000
    endloop
  endfacet
  facet normal  0.000000e+000  0.000000e+000 -1.000000e+000
    outer loop
      vertex  1.377169e+002 -1.433117e+002  0.000000e+000
      vertex  1.571971e+002 -1.417747e+002  0.000000e+000
      vertex  1.539490e+002 -1.434297e+002  0.000000e+000
    endloop
  endfacet
  facet normal  -0.000000e+000  0.000000e+000 -1.000000e+000
    outer loop
      vertex  1.377169e+002 -1.433117e+002  0.000000e+000
      vertex  1.539490e+002 -1.434297e+002  0.000000e+000
      vertex  1.420624e+002 -1.440000e+002  0.000000e+000
    endloop
  endfacet
  facet normal  0.000000e+000  0.000000e+000 -1.000000e+000
    outer loop
      vertex  1.420624e+002 -1.440000e+002  0.000000e+000
      vertex  1.539490e+002 -1.434297e+002  0.000000e+000
      vertex  1.503484e+002 -1.440000e+002  0.000000e+000
    endloop
  endfacet
  facet normal  0.000000e+000  1.000000e+000  0.000000e+000
    outer loop
      vertex  1.280000e+002 -9.800000e+001  0.000000e+000
      vertex  1.280000e+002 -9.800000e+001  2.500000e+000
      vertex  1.489953e+002 -9.800000e+001  0.000000e+000
    endloop
  endfacet
  facet normal  0.000000e+000  1.000000e+000  -0.000000e+000
    outer loop
      vertex  1.489953e+002 -9.800000e+001  0.000000e+000
      vertex  1.280000e+002 -9.800000e+001  2.500000e+000
      vertex  1.489953e+002 -9.800000e+001  2.500000e+000
    endloop
  endfacet
  facet normal  1.564348e-001  9.876882e-001  0.000000e+000
    outer loop
      vertex  1.489953e+002 -9.800000e+001  0.000000e+000
      vertex  1.489953e+002 -9.800000e+001  2.500000e+000
      vertex  1.530140e+002 -9.863650e+001  0.000000e+000
    endloop
  endfacet
  facet normal  1.564348e-001  9.876882e-001  -0.000000e+000
    outer loop
      vertex  1.530140e+002 -9.863650e+001  0.000000e+000
      vertex  1.489953e+002 -9.800000e+001  2.500000e+000
      vertex  1.530140e+002 -9.863650e+001  2.500000e+000
    endloop
  endfacet
  facet normal  4.539901e-001  8.910067e-001  0.000000e+000
    outer loop
      vertex  1.530140e+002 -9.863650e+001  0.000000e+000
      vertex  1.530140e+002 -9.863650e+001  2.500000e+000
      vertex  1.566393e+002 -1.004837e+002  0.000000e+000
    endloop
  endfacet
  facet normal  4.539901e-001  8.910067e-001  -0.000000e+000
    outer loop
      vertex  1.566393e+002 -1.004837e+002  0.000000e+000
      vertex  1.530140e+002 -9.863650e+001  2.500000e+000
      vertex  1.566393e+002 -1.004837e+002  2.500000e+000
    endloop
  endfacet
  facet normal  7.071067e-001  7.071067e-001  0.000000e+000
    outer loop
      vertex  1.566393e+002 -1.004837e+002  0.000000e+000
      vertex  1.566393e+002 -1.004837e+002  2.500000e+000
      vertex  1.595163e+002 -1.033607e+002  0.000000e+000
    endloop
  endfacet
  facet normal  7.071067e-001  7.071067e-001  -0.000000e+000
    outer loop
      vertex  1.595163e+002 -1.033607e+002  0.000000e+000
      vertex  1.566393e+002 -1.004837e+002  2.500000e+000
      vertex  1.595163e+002 -1.033607e+002  2.500000e+000
    endloop
  endfacet
  facet normal  8.910063e-001  4.539908e-001  0.000000e+000
    outer loop
      vertex  1.595163e+002 -1.033607e+002  0.000000e+000
      vertex  1.595163e+002 -1.033607e+002  2.500000e+000
      vertex  1.613635e+002 -1.069860e+002  0.000000e+000
    endloop
  endfacet
  facet normal  8.910063e-001  4.539908e-001  -0.000000e+000
    outer loop
      vertex  1.613635e+002 -1.069860e+002  0.000000e+000
      vertex  1.595163e+002 -1.033607e+002  2.500000e+000
      vertex  1.613635e+002 -1.069860e+002  2.500000e+000
    endloop
  endfacet
  facet normal  9.876884e-001  1.564336e-001  0.000000e+000
    outer loop
      vertex  1.613635e+002 -1.069860e+002  0.000000e+000
      vertex  1.613635e+002 -1.069860e+002  2.500000e+000
      vertex  1.620000e+002 -1.110047e+002  0.000000e+000
    endloop
  endfacet
  facet normal  9.876884e-001  1.564336e-001  -0.000000e+000
    outer loop
      vertex  1.620000e+002 -1.110047e+002  0.000000e+000
      vertex  1.613635e+002 -1.069860e+002  2.500000e+000
      vertex  1.620000e+002 -1.110047e+002  2.500000e+000
    endloop
  endfacet
  facet normal  9.999999e-001  0.000000e+000  0.000000e+000
    outer loop
      vertex  1.620000e+002 -1.323484e+002  2.500000e+000
      vertex  1.620000e+002 -1.323484e+002  0.000000e+000
      vertex  1.620000e+002 -1.110047e+002  2.500000e+000
    endloop
  endfacet
  facet normal  9.999999e-001  0.000000e+000  0.000000e+000
    outer loop
      vertex  1.620000e+002 -1.110047e+002  2.500000e+000
      vertex  1.620000e+002 -1.323484e+002  0.000000e+000
      vertex  1.620000e+002 -1.110047e+002  0.000000e+000
    endloop
  endfacet
  facet normal  9.876884e-001 -1.564337e-001  0.000000e+000
    outer loop
      vertex  1.620000e+002 -1.323484e+002  0.000000e+000
      vertex  1.620000e+002 -1.323484e+002  2.500000e+000
      vertex  1.614297e+002 -1.359490e+002  0.000000e+000
    endloop
  endfacet
  facet normal  9.876884e-001 -1.564337e-001  0.000000e+000
    outer loop
      vertex  1.614297e+002 -1.359490e+002  0.000000e+000
      vertex  1.620000e+002 -1.323484e+002  2.500000e+000
      vertex  1.614297e+002 -1.359490e+002  2.500000e+000
    endloop
  endfacet
  facet normal  8.910068e-001 -4.539900e-001  0.000000e+000
    outer loop
      vertex  1.614297e+002 -1.359490e+002  0.000000e+000
      vertex  1.614297e+002 -1.359490e+002  2.500000e+000
      vertex  1.597747e+002 -1.391971e+002  0.000000e+000
    endloop
  endfacet
  facet normal  8.910068e-001 -4.539900e-001  0.000000e+000
    outer loop
      vertex  1.597747e+002 -1.391971e+002  0.000000e+000
      vertex  1.614297e+002 -1.359490e+002  2.500000e+000
      vertex  1.597747e+002 -1.391971e+002  2.500000e+000
    endloop
  endfacet
  facet normal  7.071068e-001 -7.071068e-001  0.000000e+000
    outer loop
      vertex  1.597747e+002 -1.391971e+002  0.000000e+000
      vertex  1.597747e+002 -1.391971e+002  2.500000e+000
      vertex  1.571971e+002 -1.417747e+002  0.000000e+000
    endloop
  endfacet
  facet normal  7.071068e-001 -7.071068e-001  0.000000e+000
    outer loop
      vertex  1.571971e+002 -1.417747e+002  0.000000e+000
      vertex  1.597747e+002 -1.391971e+002  2.500000e+000
      vertex  1.571971e+002 -1.417747e+002  2.500000e+000
    endloop
  endfacet
  facet normal  4.539900e-001 -8.910068e-001  0.000000e+000
    outer loop
      vertex  1.571971e+002 -1.417747e+002  0.000000e+000
      vertex  1.571971e+002 -1.417747e+002  2.500000e+000
      vertex  1.539490e+002 -1.434297e+002  0.000000e+000
    endloop
  endfacet
  facet normal  4.539900e-001 -8.910068e-001  0.000000e+000
    outer loop
      vertex  1.539490e+002 -1.434297e+002  0.000000e+000
      vertex  1.571971e+002 -1.417747e+002  2.500000e+000
      vertex  1.539490e+002 -1.434297e+002  2.500000e+000
    endloop
  endfacet
  facet normal  1.564337e-001 -9.876884e-001  0.000000e+000
    outer loop
      vertex  1.539490e+002 -1.434297e+002  0.000000e+000
      vertex  1.539490e+002 -1.434297e+002  2.500000e+000
      vertex  1.503484e+002 -1.440000e+002  0.000000e+000
    endloop
  endfacet
  facet normal  1.564337e-001 -9.876884e-001  0.000000e+000
    outer loop
      vertex  1.503484e+002 -1.440000e+002  0.000000e+000
      vertex  1.539490e+002 -1.434297e+002  2.500000e+000
      vertex  1.503484e+002 -1.440000e+002  2.500000e+000
    endloop
  endfacet
  facet normal  0.000000e+000 -1.000000e+000  -0.000000e+000
    outer loop
      vertex  1.503484e+002 -1.440000e+002  0.000000e+000
      vertex  1.503484e+002 -1.440000e+002  2.500000e+000
      vertex  1.420624e+002 -1.440000e+002  0.000000e+000
    endloop
  endfacet
  facet normal  0.000000e+000 -1.000000e+000  0.000000e+000
    outer loop
      vertex  1.420624e+002 -1.440000e+002  0.000000e+000
      vertex  1.503484e+002 -1.440000e+002  2.500000e+000
      vertex  1.420624e+002 -1.440000e+002  2.500000e+000
    endloop
  endfacet
  facet normal -1.564345e-001 -9.876883e-001  -0.000000e+000
    outer loop
      vertex  1.420624e+002 -1.440000e+002  0.000000e+000
      vertex  1.420624e+002 -1.440000e+002  2.500000e+000
      vertex  1.377169e+002 -1.433117e+002  0.000000e+000
    endloop
  endfacet
  facet normal -1.564345e-001 -9.876883e-001  0.000000e+000
    outer loop
      vertex  1.377169e+002 -1.433117e+002  0.000000e+000
      vertex  1.420624e+002 -1.440000e+002  2.500000e+000
      vertex  1.377169e+002 -1.433117e+002  2.500000e+000
    endloop
  endfacet
  facet normal -4.539914e-001 -8.910061e-001  -0.000000e+000
    outer loop
      vertex  1.377169e+002 -1.433117e+002  0.000000e+000
      vertex  1.377169e+002 -1.433117e+002  2.500000e+000
      vertex  1.337967e+002 -1.413143e+002  0.000000e+000
    endloop
  endfacet
  facet normal -4.539914e-001 -8.910061e-001  0.000000e+000
    outer loop
      vertex  1.337967e+002 -1.413143e+002  0.000000e+000
      vertex  1.377169e+002 -1.433117e+002  2.500000e+000
      vertex  1.337967e+002 -1.413143e+002  2.500000e+000
    endloop
  endfacet
  facet normal -7.071068e-001 -7.071068e-001  -0.000000e+000
    outer loop
      vertex  1.337967e+002 -1.413143e+002  0.000000e+000
      vertex  1.337967e+002 -1.413143e+002  2.500000e+000
      vertex  1.306857e+002 -1.382033e+002  0.000000e+000
    endloop
  endfacet
  facet normal -7.071068e-001 -7.071068e-001  0.000000e+000
    outer loop
      vertex  1.306857e+002 -1.382033e+002  0.000000e+000
      vertex  1.337967e+002 -1.413143e+002  2.500000e+000
      vertex  1.306857e+002 -1.382033e+002  2.500000e+000
    endloop
  endfacet
  facet normal -8.910061e-001 -4.539914e-001  -0.000000e+000
    outer loop
      vertex  1.306857e+002 -1.382033e+002  0.000000e+000
      vertex  1.306857e+002 -1.382033e+002  2.500000e+000
      vertex  1.286883e+002 -1.342831e+002  0.000000e+000
    endloop
  endfacet
  facet normal -8.910061e-001 -4.539914e-001  0.000000e+000
    outer loop
      vertex  1.286883e+002 -1.342831e+002  0.000000e+000
      vertex  1.306857e+002 -1.382033e+002  2.500000e+000
      vertex  1.286883e+002 -1.342831e+002  2.500000e+000
    endloop
  endfacet
  facet normal -9.876883e-001 -1.564345e-001  -0.000000e+000
    outer loop
      vertex  1.286883e+002 -1.342831e+002  0.000000e+000
      vertex  1.286883e+002 -1.342831e+002  2.500000e+000
      vertex  1.280000e+002 -1.299376e+002  0.000000e+000
    endloop
  endfacet
  facet normal -9.876883e-001 -1.564345e-001  0.000000e+000
    outer loop
      vertex  1.280000e+002 -1.299376e+002  0.000000e+000
      vertex  1.286883e+002 -1.342831e+002  2.500000e+000
      vertex  1.280000e+002 -1.299376e+002  2.500000e+000
    endloop
  endfacet
  facet normal -1.000000e+000  0.000000e+000  0.000000e+000
    outer loop
      vertex  1.280000e+002 -9.800000e+001  2.500000e+000
      vertex  1.280000e+002 -9.800000e+001  0.000000e+000
      vertex  1.280000e+002 -1.299376e+002  2.500000e+000
    endloop
  endfacet
  facet normal -1.000000e+000  0.000000e+000  0.000000e+000
    outer loop
      vertex  1.280000e+002 -1.299376e+002  2.500000e+000
      vertex  1.280000e+002 -9.800000e+001  0.000000e+000
      vertex  1.280000e+002 -1.299376e+002  0.000000e+000
    endloop
  endfacet
endsolid CATIA STL
