solid CATIA STL
  facet normal  0.000000e+000  0.000000e+000  9.999999e-001
    outer loop
      vertex -1.414214e+000  1.414214e+000  9.000000e+000
      vertex  1.414214e+000  1.414214e+000  9.000000e+000
      vertex  1.224606e-016  2.000000e+000  9.000000e+000
    endloop
  endfacet
  facet normal  -0.000000e+000  0.000000e+000  1.000000e+000
    outer loop
      vertex  1.414214e+000  1.414214e+000  9.000000e+000
      vertex -1.414214e+000  1.414214e+000  9.000000e+000
      vertex  2.000000e+000  0.000000e+000  9.000000e+000
    endloop
  endfacet
  facet normal  0.000000e+000  0.000000e+000  9.999999e-001
    outer loop
      vertex  2.000000e+000  0.000000e+000  9.000000e+000
      vertex -1.414214e+000  1.414214e+000  9.000000e+000
      vertex -2.000000e+000  2.449213e-016  9.000000e+000
    endloop
  endfacet
  facet normal  0.000000e+000  0.000000e+000  9.999999e-001
    outer loop
      vertex  2.000000e+000  0.000000e+000  9.000000e+000
      vertex -2.000000e+000  2.449213e-016  9.000000e+000
      vertex  1.414214e+000 -1.414214e+000  9.000000e+000
    endloop
  endfacet
  facet normal  0.000000e+000  0.000000e+000  1.000000e+000
    outer loop
      vertex  1.414214e+000 -1.414214e+000  9.000000e+000
      vertex -2.000000e+000  2.449213e-016  9.000000e+000
      vertex -1.414214e+000 -1.414214e+000  9.000000e+000
    endloop
  endfacet
  facet normal  -0.000000e+000  0.000000e+000  9.999999e-001
    outer loop
      vertex  1.414214e+000 -1.414214e+000  9.000000e+000
      vertex -1.414214e+000 -1.414214e+000  9.000000e+000
      vertex -3.673819e-016 -2.000000e+000  9.000000e+000
    endloop
  endfacet
  facet normal  0.000000e+000  0.000000e+000 -9.999999e-001
    outer loop
      vertex  1.224606e-016  2.000000e+000  0.000000e+000
      vertex  1.414214e+000  1.414214e+000  0.000000e+000
      vertex -1.414214e+000  1.414214e+000  0.000000e+000
    endloop
  endfacet
  facet normal  -0.000000e+000  0.000000e+000 -1.000000e+000
    outer loop
      vertex -1.414214e+000  1.414214e+000  0.000000e+000
      vertex  1.414214e+000  1.414214e+000  0.000000e+000
      vertex -2.000000e+000  2.449213e-016  0.000000e+000
    endloop
  endfacet
  facet normal  0.000000e+000  0.000000e+000 -9.999999e-001
    outer loop
      vertex -2.000000e+000  2.449213e-016  0.000000e+000
      vertex  1.414214e+000  1.414214e+000  0.000000e+000
      vertex  2.000000e+000  0.000000e+000  0.000000e+000
    endloop
  endfacet
  facet normal  -0.000000e+000  0.000000e+000 -9.999999e-001
    outer loop
      vertex -2.000000e+000  2.449213e-016  0.000000e+000
      vertex  2.000000e+000  0.000000e+000  0.000000e+000
      vertex -1.414214e+000 -1.414214e+000  0.000000e+000
    endloop
  endfacet
  facet normal  0.000000e+000  0.000000e+000 -1.000000e+000
    outer loop
      vertex -1.414214e+000 -1.414214e+000  0.000000e+000
      vertex  2.000000e+000  0.000000e+000  0.000000e+000
      vertex  1.414214e+000 -1.414214e+000  0.000000e+000
    endloop
  endfacet
  facet normal  -0.000000e+000  0.000000e+000 -9.999999e-001
    outer loop
      vertex -1.414214e+000 -1.414214e+000  0.000000e+000
      vertex  1.414214e+000 -1.414214e+000  0.000000e+000
      vertex -3.673819e-016 -2.000000e+000  0.000000e+000
    endloop
  endfacet
  facet normal  9.238794e-001 -3.826834e-001  0.000000e+000
    outer loop
      vertex  2.000000e+000  0.000000e+000  0.000000e+000
      vertex  2.000000e+000  0.000000e+000  9.000000e+000
      vertex  1.414214e+000 -1.414214e+000  0.000000e+000
    endloop
  endfacet
  facet normal  9.238794e-001 -3.826834e-001  0.000000e+000
    outer loop
      vertex  1.414214e+000 -1.414214e+000  0.000000e+000
      vertex  2.000000e+000  0.000000e+000  9.000000e+000
      vertex  1.414214e+000 -1.414214e+000  9.000000e+000
    endloop
  endfacet
  facet normal  3.826834e-001 -9.238794e-001  0.000000e+000
    outer loop
      vertex  1.414214e+000 -1.414214e+000  0.000000e+000
      vertex  1.414214e+000 -1.414214e+000  9.000000e+000
      vertex -3.673819e-016 -2.000000e+000  0.000000e+000
    endloop
  endfacet
  facet normal  3.826834e-001 -9.238794e-001  0.000000e+000
    outer loop
      vertex -3.673819e-016 -2.000000e+000  0.000000e+000
      vertex  1.414214e+000 -1.414214e+000  9.000000e+000
      vertex -3.673819e-016 -2.000000e+000  9.000000e+000
    endloop
  endfacet
  facet normal -3.826834e-001 -9.238794e-001  -0.000000e+000
    outer loop
      vertex -3.673819e-016 -2.000000e+000  0.000000e+000
      vertex -3.673819e-016 -2.000000e+000  9.000000e+000
      vertex -1.414214e+000 -1.414214e+000  0.000000e+000
    endloop
  endfacet
  facet normal -3.826834e-001 -9.238794e-001  0.000000e+000
    outer loop
      vertex -1.414214e+000 -1.414214e+000  0.000000e+000
      vertex -3.673819e-016 -2.000000e+000  9.000000e+000
      vertex -1.414214e+000 -1.414214e+000  9.000000e+000
    endloop
  endfacet
  facet normal -9.238794e-001 -3.826834e-001  -0.000000e+000
    outer loop
      vertex -1.414214e+000 -1.414214e+000  0.000000e+000
      vertex -1.414214e+000 -1.414214e+000  9.000000e+000
      vertex -2.000000e+000  2.449213e-016  0.000000e+000
    endloop
  endfacet
  facet normal -9.238794e-001 -3.826834e-001  0.000000e+000
    outer loop
      vertex -2.000000e+000  2.449213e-016  0.000000e+000
      vertex -1.414214e+000 -1.414214e+000  9.000000e+000
      vertex -2.000000e+000  2.449213e-016  9.000000e+000
    endloop
  endfacet
  facet normal -9.238794e-001  3.826834e-001  0.000000e+000
    outer loop
      vertex -2.000000e+000  2.449213e-016  0.000000e+000
      vertex -2.000000e+000  2.449213e-016  9.000000e+000
      vertex -1.414214e+000  1.414214e+000  0.000000e+000
    endloop
  endfacet
  facet normal -9.238794e-001  3.826834e-001  0.000000e+000
    outer loop
      vertex -1.414214e+000  1.414214e+000  0.000000e+000
      vertex -2.000000e+000  2.449213e-016  9.000000e+000
      vertex -1.414214e+000  1.414214e+000  9.000000e+000
    endloop
  endfacet
  facet normal -3.826834e-001  9.238794e-001  0.000000e+000
    outer loop
      vertex -1.414214e+000  1.414214e+000  0.000000e+000
      vertex -1.414214e+000  1.414214e+000  9.000000e+000
      vertex  1.224606e-016  2.000000e+000  0.000000e+000
    endloop
  endfacet
  facet normal -3.826834e-001  9.238794e-001  0.000000e+000
    outer loop
      vertex  1.224606e-016  2.000000e+000  0.000000e+000
      vertex -1.414214e+000  1.414214e+000  9.000000e+000
      vertex  1.224606e-016  2.000000e+000  9.000000e+000
    endloop
  endfacet
  facet normal  3.826834e-001  9.238794e-001  0.000000e+000
    outer loop
      vertex  1.224606e-016  2.000000e+000  0.000000e+000
      vertex  1.224606e-016  2.000000e+000  9.000000e+000
      vertex  1.414214e+000  1.414214e+000  0.000000e+000
    endloop
  endfacet
  facet normal  3.826834e-001  9.238794e-001  -0.000000e+000
    outer loop
      vertex  1.414214e+000  1.414214e+000  0.000000e+000
      vertex  1.224606e-016  2.000000e+000  9.000000e+000
      vertex  1.414214e+000  1.414214e+000  9.000000e+000
    endloop
  endfacet
  facet normal  9.238794e-001  3.826834e-001  0.000000e+000
    outer loop
      vertex  1.414214e+000  1.414214e+000  0.000000e+000
      vertex  1.414214e+000  1.414214e+000  9.000000e+000
      vertex  2.000000e+000  0.000000e+000  0.000000e+000
    endloop
  endfacet
  facet normal  9.238794e-001  3.826834e-001  -0.000000e+000
    outer loop
      vertex  2.000000e+000  0.000000e+000  0.000000e+000
      vertex  1.414214e+000  1.414214e+000  9.000000e+000
      vertex  2.000000e+000  0.000000e+000  9.000000e+000
    endloop
  endfacet
endsolid CATIA STL
