solid CATIA STL
  facet normal  1.000000e+000  0.000000e+000  0.000000e+000
    outer loop
      vertex  9.000000e+000 -2.250000e+000  3.897114e+000
      vertex  9.000000e+000  2.250000e+000  3.897114e+000
      vertex  9.000000e+000  2.755364e-016  4.500000e+000
    endloop
  endfacet
  facet normal  1.000000e+000  -0.000000e+000  0.000000e+000
    outer loop
      vertex  9.000000e+000  2.250000e+000  3.897114e+000
      vertex  9.000000e+000 -2.250000e+000  3.897114e+000
      vertex  9.000000e+000  3.897114e+000  2.250000e+000
    endloop
  endfacet
  facet normal  1.000000e+000  0.000000e+000  0.000000e+000
    outer loop
      vertex  9.000000e+000  3.897114e+000  2.250000e+000
      vertex  9.000000e+000 -2.250000e+000  3.897114e+000
      vertex  9.000000e+000 -3.897114e+000  2.250000e+000
    endloop
  endfacet
  facet normal  1.000000e+000  -0.000000e+000  0.000000e+000
    outer loop
      vertex  9.000000e+000  3.897114e+000  2.250000e+000
      vertex  9.000000e+000 -3.897114e+000  2.250000e+000
      vertex  9.000000e+000  4.500000e+000  0.000000e+000
    endloop
  endfacet
  facet normal  1.000000e+000  0.000000e+000  0.000000e+000
    outer loop
      vertex  9.000000e+000  4.500000e+000  0.000000e+000
      vertex  9.000000e+000 -3.897114e+000  2.250000e+000
      vertex  9.000000e+000 -4.500000e+000  5.510729e-016
    endloop
  endfacet
  facet normal  1.000000e+000  0.000000e+000  0.000000e+000
    outer loop
      vertex  9.000000e+000  4.500000e+000  0.000000e+000
      vertex  9.000000e+000 -4.500000e+000  5.510729e-016
      vertex  9.000000e+000  3.897114e+000 -2.250000e+000
    endloop
  endfacet
  facet normal  1.000000e+000  0.000000e+000  0.000000e+000
    outer loop
      vertex  9.000000e+000  3.897114e+000 -2.250000e+000
      vertex  9.000000e+000 -4.500000e+000  5.510729e-016
      vertex  9.000000e+000 -3.897114e+000 -2.250000e+000
    endloop
  endfacet
  facet normal  1.000000e+000  -0.000000e+000  0.000000e+000
    outer loop
      vertex  9.000000e+000  3.897114e+000 -2.250000e+000
      vertex  9.000000e+000 -3.897114e+000 -2.250000e+000
      vertex  9.000000e+000  2.250000e+000 -3.897114e+000
    endloop
  endfacet
  facet normal  1.000000e+000  0.000000e+000  0.000000e+000
    outer loop
      vertex  9.000000e+000  2.250000e+000 -3.897114e+000
      vertex  9.000000e+000 -3.897114e+000 -2.250000e+000
      vertex  9.000000e+000 -2.250000e+000 -3.897114e+000
    endloop
  endfacet
  facet normal  1.000000e+000  -0.000000e+000  0.000000e+000
    outer loop
      vertex  9.000000e+000  2.250000e+000 -3.897114e+000
      vertex  9.000000e+000 -2.250000e+000 -3.897114e+000
      vertex  9.000000e+000 -8.266093e-016 -4.500000e+000
    endloop
  endfacet
  facet normal -1.000000e+000  0.000000e+000  0.000000e+000
    outer loop
      vertex  0.000000e+000  2.755364e-016  4.500000e+000
      vertex  0.000000e+000  2.250000e+000  3.897114e+000
      vertex  0.000000e+000 -2.250000e+000  3.897114e+000
    endloop
  endfacet
  facet normal -1.000000e+000  -0.000000e+000  0.000000e+000
    outer loop
      vertex  0.000000e+000 -2.250000e+000  3.897114e+000
      vertex  0.000000e+000  2.250000e+000  3.897114e+000
      vertex  0.000000e+000 -3.897114e+000  2.250000e+000
    endloop
  endfacet
  facet normal -1.000000e+000  0.000000e+000  0.000000e+000
    outer loop
      vertex  0.000000e+000 -3.897114e+000  2.250000e+000
      vertex  0.000000e+000  2.250000e+000  3.897114e+000
      vertex  0.000000e+000  3.897114e+000  2.250000e+000
    endloop
  endfacet
  facet normal -1.000000e+000  -0.000000e+000  0.000000e+000
    outer loop
      vertex  0.000000e+000 -3.897114e+000  2.250000e+000
      vertex  0.000000e+000  3.897114e+000  2.250000e+000
      vertex  0.000000e+000 -4.500000e+000  5.510729e-016
    endloop
  endfacet
  facet normal -1.000000e+000  0.000000e+000  0.000000e+000
    outer loop
      vertex  0.000000e+000 -4.500000e+000  5.510729e-016
      vertex  0.000000e+000  3.897114e+000  2.250000e+000
      vertex  0.000000e+000  4.500000e+000  0.000000e+000
    endloop
  endfacet
  facet normal -1.000000e+000  -0.000000e+000  0.000000e+000
    outer loop
      vertex  0.000000e+000 -4.500000e+000  5.510729e-016
      vertex  0.000000e+000  4.500000e+000  0.000000e+000
      vertex  0.000000e+000 -3.897114e+000 -2.250000e+000
    endloop
  endfacet
  facet normal -1.000000e+000  0.000000e+000  0.000000e+000
    outer loop
      vertex  0.000000e+000 -3.897114e+000 -2.250000e+000
      vertex  0.000000e+000  4.500000e+000  0.000000e+000
      vertex  0.000000e+000  3.897114e+000 -2.250000e+000
    endloop
  endfacet
  facet normal -1.000000e+000  -0.000000e+000  0.000000e+000
    outer loop
      vertex  0.000000e+000 -3.897114e+000 -2.250000e+000
      vertex  0.000000e+000  3.897114e+000 -2.250000e+000
      vertex  0.000000e+000 -2.250000e+000 -3.897114e+000
    endloop
  endfacet
  facet normal -1.000000e+000  0.000000e+000  0.000000e+000
    outer loop
      vertex  0.000000e+000 -2.250000e+000 -3.897114e+000
      vertex  0.000000e+000  3.897114e+000 -2.250000e+000
      vertex  0.000000e+000  2.250000e+000 -3.897114e+000
    endloop
  endfacet
  facet normal -1.000000e+000  -0.000000e+000  0.000000e+000
    outer loop
      vertex  0.000000e+000 -2.250000e+000 -3.897114e+000
      vertex  0.000000e+000  2.250000e+000 -3.897114e+000
      vertex  0.000000e+000 -8.266093e-016 -4.500000e+000
    endloop
  endfacet
  facet normal  0.000000e+000  9.659259e-001 -2.588191e-001
    outer loop
      vertex  0.000000e+000  4.500000e+000  0.000000e+000
      vertex  9.000000e+000  4.500000e+000  0.000000e+000
      vertex  0.000000e+000  3.897114e+000 -2.250000e+000
    endloop
  endfacet
  facet normal  0.000000e+000  9.659259e-001 -2.588191e-001
    outer loop
      vertex  0.000000e+000  3.897114e+000 -2.250000e+000
      vertex  9.000000e+000  4.500000e+000  0.000000e+000
      vertex  9.000000e+000  3.897114e+000 -2.250000e+000
    endloop
  endfacet
  facet normal  0.000000e+000  7.071068e-001 -7.071068e-001
    outer loop
      vertex  0.000000e+000  3.897114e+000 -2.250000e+000
      vertex  9.000000e+000  3.897114e+000 -2.250000e+000
      vertex  0.000000e+000  2.250000e+000 -3.897114e+000
    endloop
  endfacet
  facet normal  0.000000e+000  7.071068e-001 -7.071068e-001
    outer loop
      vertex  0.000000e+000  2.250000e+000 -3.897114e+000
      vertex  9.000000e+000  3.897114e+000 -2.250000e+000
      vertex  9.000000e+000  2.250000e+000 -3.897114e+000
    endloop
  endfacet
  facet normal  0.000000e+000  2.588191e-001 -9.659259e-001
    outer loop
      vertex  0.000000e+000  2.250000e+000 -3.897114e+000
      vertex  9.000000e+000  2.250000e+000 -3.897114e+000
      vertex  0.000000e+000 -8.266093e-016 -4.500000e+000
    endloop
  endfacet
  facet normal  0.000000e+000  2.588191e-001 -9.659259e-001
    outer loop
      vertex  0.000000e+000 -8.266093e-016 -4.500000e+000
      vertex  9.000000e+000  2.250000e+000 -3.897114e+000
      vertex  9.000000e+000 -8.266093e-016 -4.500000e+000
    endloop
  endfacet
  facet normal  -0.000000e+000 -2.588191e-001 -9.659259e-001
    outer loop
      vertex  0.000000e+000 -8.266093e-016 -4.500000e+000
      vertex  9.000000e+000 -8.266093e-016 -4.500000e+000
      vertex  0.000000e+000 -2.250000e+000 -3.897114e+000
    endloop
  endfacet
  facet normal  0.000000e+000 -2.588191e-001 -9.659259e-001
    outer loop
      vertex  0.000000e+000 -2.250000e+000 -3.897114e+000
      vertex  9.000000e+000 -8.266093e-016 -4.500000e+000
      vertex  9.000000e+000 -2.250000e+000 -3.897114e+000
    endloop
  endfacet
  facet normal  -0.000000e+000 -7.071068e-001 -7.071068e-001
    outer loop
      vertex  0.000000e+000 -2.250000e+000 -3.897114e+000
      vertex  9.000000e+000 -2.250000e+000 -3.897114e+000
      vertex  0.000000e+000 -3.897114e+000 -2.250000e+000
    endloop
  endfacet
  facet normal  0.000000e+000 -7.071068e-001 -7.071068e-001
    outer loop
      vertex  0.000000e+000 -3.897114e+000 -2.250000e+000
      vertex  9.000000e+000 -2.250000e+000 -3.897114e+000
      vertex  9.000000e+000 -3.897114e+000 -2.250000e+000
    endloop
  endfacet
  facet normal  -0.000000e+000 -9.659259e-001 -2.588191e-001
    outer loop
      vertex  0.000000e+000 -3.897114e+000 -2.250000e+000
      vertex  9.000000e+000 -3.897114e+000 -2.250000e+000
      vertex  0.000000e+000 -4.500000e+000  5.510729e-016
    endloop
  endfacet
  facet normal  0.000000e+000 -9.659259e-001 -2.588191e-001
    outer loop
      vertex  0.000000e+000 -4.500000e+000  5.510729e-016
      vertex  9.000000e+000 -3.897114e+000 -2.250000e+000
      vertex  9.000000e+000 -4.500000e+000  5.510729e-016
    endloop
  endfacet
  facet normal  0.000000e+000 -9.659259e-001  2.588191e-001
    outer loop
      vertex  0.000000e+000 -4.500000e+000  5.510729e-016
      vertex  9.000000e+000 -4.500000e+000  5.510729e-016
      vertex  0.000000e+000 -3.897114e+000  2.250000e+000
    endloop
  endfacet
  facet normal  0.000000e+000 -9.659259e-001  2.588191e-001
    outer loop
      vertex  0.000000e+000 -3.897114e+000  2.250000e+000
      vertex  9.000000e+000 -4.500000e+000  5.510729e-016
      vertex  9.000000e+000 -3.897114e+000  2.250000e+000
    endloop
  endfacet
  facet normal  0.000000e+000 -7.071068e-001  7.071068e-001
    outer loop
      vertex  0.000000e+000 -3.897114e+000  2.250000e+000
      vertex  9.000000e+000 -3.897114e+000  2.250000e+000
      vertex  0.000000e+000 -2.250000e+000  3.897114e+000
    endloop
  endfacet
  facet normal  0.000000e+000 -7.071068e-001  7.071068e-001
    outer loop
      vertex  0.000000e+000 -2.250000e+000  3.897114e+000
      vertex  9.000000e+000 -3.897114e+000  2.250000e+000
      vertex  9.000000e+000 -2.250000e+000  3.897114e+000
    endloop
  endfacet
  facet normal  0.000000e+000 -2.588191e-001  9.659259e-001
    outer loop
      vertex  0.000000e+000 -2.250000e+000  3.897114e+000
      vertex  9.000000e+000 -2.250000e+000  3.897114e+000
      vertex  0.000000e+000  2.755364e-016  4.500000e+000
    endloop
  endfacet
  facet normal  0.000000e+000 -2.588191e-001  9.659259e-001
    outer loop
      vertex  0.000000e+000  2.755364e-016  4.500000e+000
      vertex  9.000000e+000 -2.250000e+000  3.897114e+000
      vertex  9.000000e+000  2.755364e-016  4.500000e+000
    endloop
  endfacet
  facet normal  0.000000e+000  2.588191e-001  9.659259e-001
    outer loop
      vertex  0.000000e+000  2.755364e-016  4.500000e+000
      vertex  9.000000e+000  2.755364e-016  4.500000e+000
      vertex  0.000000e+000  2.250000e+000  3.897114e+000
    endloop
  endfacet
  facet normal  -0.000000e+000  2.588191e-001  9.659259e-001
    outer loop
      vertex  0.000000e+000  2.250000e+000  3.897114e+000
      vertex  9.000000e+000  2.755364e-016  4.500000e+000
      vertex  9.000000e+000  2.250000e+000  3.897114e+000
    endloop
  endfacet
  facet normal  0.000000e+000  7.071068e-001  7.071068e-001
    outer loop
      vertex  0.000000e+000  2.250000e+000  3.897114e+000
      vertex  9.000000e+000  2.250000e+000  3.897114e+000
      vertex  0.000000e+000  3.897114e+000  2.250000e+000
    endloop
  endfacet
  facet normal  -0.000000e+000  7.071068e-001  7.071068e-001
    outer loop
      vertex  0.000000e+000  3.897114e+000  2.250000e+000
      vertex  9.000000e+000  2.250000e+000  3.897114e+000
      vertex  9.000000e+000  3.897114e+000  2.250000e+000
    endloop
  endfacet
  facet normal  0.000000e+000  9.659259e-001  2.588191e-001
    outer loop
      vertex  0.000000e+000  3.897114e+000  2.250000e+000
      vertex  9.000000e+000  3.897114e+000  2.250000e+000
      vertex  0.000000e+000  4.500000e+000  0.000000e+000
    endloop
  endfacet
  facet normal  -0.000000e+000  9.659259e-001  2.588191e-001
    outer loop
      vertex  0.000000e+000  4.500000e+000  0.000000e+000
      vertex  9.000000e+000  3.897114e+000  2.250000e+000
      vertex  9.000000e+000  4.500000e+000  0.000000e+000
    endloop
  endfacet
endsolid CATIA STL
