solid CATIA STL
  facet normal -9.659258e-001  2.588190e-001  0.000000e+000
    outer loop
      vertex -5.750000e+000  7.041487e-016 -3.490000e+002
      vertex -5.750000e+000  7.041487e-016 -2.700000e+002
      vertex -4.979646e+000  2.875000e+000 -3.490000e+002
    endloop
  endfacet
  facet normal -9.659258e-001  2.588190e-001  0.000000e+000
    outer loop
      vertex -4.979646e+000  2.875000e+000 -3.490000e+002
      vertex -5.750000e+000  7.041487e-016 -2.700000e+002
      vertex -4.979646e+000  2.875000e+000 -2.700000e+002
    endloop
  endfacet
  facet normal -7.071068e-001  7.071068e-001  0.000000e+000
    outer loop
      vertex -4.979646e+000  2.875000e+000 -3.490000e+002
      vertex -4.979646e+000  2.875000e+000 -2.700000e+002
      vertex -2.875000e+000  4.979646e+000 -3.490000e+002
    endloop
  endfacet
  facet normal -7.071068e-001  7.071068e-001  0.000000e+000
    outer loop
      vertex -2.875000e+000  4.979646e+000 -3.490000e+002
      vertex -4.979646e+000  2.875000e+000 -2.700000e+002
      vertex -2.875000e+000  4.979646e+000 -2.700000e+002
    endloop
  endfacet
  facet normal -2.588190e-001  9.659258e-001  0.000000e+000
    outer loop
      vertex -2.875000e+000  4.979646e+000 -3.490000e+002
      vertex -2.875000e+000  4.979646e+000 -2.700000e+002
      vertex  3.520743e-016  5.750000e+000 -3.490000e+002
    endloop
  endfacet
  facet normal -2.588190e-001  9.659258e-001 -1.153462e-018
    outer loop
      vertex  3.520743e-016  5.750000e+000 -3.490000e+002
      vertex -2.875000e+000  4.979646e+000 -2.700000e+002
      vertex  0.000000e+000  5.750000e+000 -2.700000e+002
    endloop
  endfacet
  facet normal  2.588190e-001  9.659258e-001  1.153462e-018
    outer loop
      vertex  3.520743e-016  5.750000e+000 -3.490000e+002
      vertex  0.000000e+000  5.750000e+000 -2.700000e+002
      vertex  2.875000e+000  4.979646e+000 -3.490000e+002
    endloop
  endfacet
  facet normal  2.588190e-001  9.659258e-001  -0.000000e+000
    outer loop
      vertex  2.875000e+000  4.979646e+000 -3.490000e+002
      vertex  0.000000e+000  5.750000e+000 -2.700000e+002
      vertex  2.875000e+000  4.979646e+000 -2.700000e+002
    endloop
  endfacet
  facet normal  7.071068e-001  7.071068e-001  0.000000e+000
    outer loop
      vertex  2.875000e+000  4.979646e+000 -3.490000e+002
      vertex  2.875000e+000  4.979646e+000 -2.700000e+002
      vertex  4.979646e+000  2.875000e+000 -3.490000e+002
    endloop
  endfacet
  facet normal  7.071068e-001  7.071068e-001  -0.000000e+000
    outer loop
      vertex  4.979646e+000  2.875000e+000 -3.490000e+002
      vertex  2.875000e+000  4.979646e+000 -2.700000e+002
      vertex  4.979646e+000  2.875000e+000 -2.700000e+002
    endloop
  endfacet
  facet normal  9.659258e-001  2.588190e-001  0.000000e+000
    outer loop
      vertex  4.979646e+000  2.875000e+000 -3.490000e+002
      vertex  4.979646e+000  2.875000e+000 -2.700000e+002
      vertex  5.750000e+000 -1.408297e-015 -3.490000e+002
    endloop
  endfacet
  facet normal  9.659258e-001  2.588190e-001 -4.613850e-018
    outer loop
      vertex  5.750000e+000 -1.408297e-015 -3.490000e+002
      vertex  4.979646e+000  2.875000e+000 -2.700000e+002
      vertex  5.750000e+000  0.000000e+000 -2.700000e+002
    endloop
  endfacet
  facet normal  9.659258e-001 -2.588190e-001  4.613850e-018
    outer loop
      vertex  5.750000e+000 -1.408297e-015 -3.490000e+002
      vertex  5.750000e+000  0.000000e+000 -2.700000e+002
      vertex  4.979646e+000 -2.875000e+000 -3.490000e+002
    endloop
  endfacet
  facet normal  9.659258e-001 -2.588190e-001  0.000000e+000
    outer loop
      vertex  4.979646e+000 -2.875000e+000 -3.490000e+002
      vertex  5.750000e+000  0.000000e+000 -2.700000e+002
      vertex  4.979646e+000 -2.875000e+000 -2.700000e+002
    endloop
  endfacet
  facet normal  7.071068e-001 -7.071068e-001  0.000000e+000
    outer loop
      vertex  4.979646e+000 -2.875000e+000 -3.490000e+002
      vertex  4.979646e+000 -2.875000e+000 -2.700000e+002
      vertex  2.875000e+000 -4.979646e+000 -3.490000e+002
    endloop
  endfacet
  facet normal  7.071068e-001 -7.071068e-001  0.000000e+000
    outer loop
      vertex  2.875000e+000 -4.979646e+000 -3.490000e+002
      vertex  4.979646e+000 -2.875000e+000 -2.700000e+002
      vertex  2.875000e+000 -4.979646e+000 -2.700000e+002
    endloop
  endfacet
  facet normal  2.588190e-001 -9.659258e-001  0.000000e+000
    outer loop
      vertex  2.875000e+000 -4.979646e+000 -3.490000e+002
      vertex  2.875000e+000 -4.979646e+000 -2.700000e+002
      vertex -1.056223e-015 -5.750000e+000 -3.490000e+002
    endloop
  endfacet
  facet normal  2.588190e-001 -9.659258e-001 -3.460387e-018
    outer loop
      vertex -1.056223e-015 -5.750000e+000 -3.490000e+002
      vertex  2.875000e+000 -4.979646e+000 -2.700000e+002
      vertex  0.000000e+000 -5.750000e+000 -2.700000e+002
    endloop
  endfacet
  facet normal -2.588190e-001 -9.659258e-001  3.460387e-018
    outer loop
      vertex -1.056223e-015 -5.750000e+000 -3.490000e+002
      vertex  0.000000e+000 -5.750000e+000 -2.700000e+002
      vertex -2.875000e+000 -4.979646e+000 -3.490000e+002
    endloop
  endfacet
  facet normal -2.588190e-001 -9.659258e-001  0.000000e+000
    outer loop
      vertex -2.875000e+000 -4.979646e+000 -3.490000e+002
      vertex  0.000000e+000 -5.750000e+000 -2.700000e+002
      vertex -2.875000e+000 -4.979646e+000 -2.700000e+002
    endloop
  endfacet
  facet normal -7.071068e-001 -7.071068e-001  -0.000000e+000
    outer loop
      vertex -2.875000e+000 -4.979646e+000 -3.490000e+002
      vertex -2.875000e+000 -4.979646e+000 -2.700000e+002
      vertex -4.979646e+000 -2.875000e+000 -3.490000e+002
    endloop
  endfacet
  facet normal -7.071068e-001 -7.071068e-001  0.000000e+000
    outer loop
      vertex -4.979646e+000 -2.875000e+000 -3.490000e+002
      vertex -2.875000e+000 -4.979646e+000 -2.700000e+002
      vertex -4.979646e+000 -2.875000e+000 -2.700000e+002
    endloop
  endfacet
  facet normal -9.659258e-001 -2.588190e-001  -0.000000e+000
    outer loop
      vertex -4.979646e+000 -2.875000e+000 -3.490000e+002
      vertex -4.979646e+000 -2.875000e+000 -2.700000e+002
      vertex -5.750000e+000  7.041487e-016 -3.490000e+002
    endloop
  endfacet
  facet normal -9.659258e-001 -2.588190e-001  0.000000e+000
    outer loop
      vertex -5.750000e+000  7.041487e-016 -3.490000e+002
      vertex -4.979646e+000 -2.875000e+000 -2.700000e+002
      vertex -5.750000e+000  7.041487e-016 -2.700000e+002
    endloop
  endfacet
  facet normal  9.659258e-001 -2.588190e-001 -9.753627e-018
    outer loop
      vertex -4.750000e+000  2.691112e-015 -2.800000e+002
      vertex -4.750000e+000  5.329071e-015 -3.500000e+002
      vertex -4.113621e+000  2.375000e+000 -2.800000e+002
    endloop
  endfacet
  facet normal  9.659258e-001 -2.588190e-001  0.000000e+000
    outer loop
      vertex -4.113621e+000  2.375000e+000 -2.800000e+002
      vertex -4.750000e+000  5.329071e-015 -3.500000e+002
      vertex -4.113621e+000  2.375000e+000 -3.500000e+002
    endloop
  endfacet
  facet normal  7.071068e-001 -7.071068e-001  0.000000e+000
    outer loop
      vertex -4.113621e+000  2.375000e+000 -2.800000e+002
      vertex -4.113621e+000  2.375000e+000 -3.500000e+002
      vertex -2.375000e+000  4.113621e+000 -2.800000e+002
    endloop
  endfacet
  facet normal  7.071068e-001 -7.071068e-001  0.000000e+000
    outer loop
      vertex -2.375000e+000  4.113621e+000 -2.800000e+002
      vertex -4.113621e+000  2.375000e+000 -3.500000e+002
      vertex -2.375000e+000  4.113621e+000 -3.500000e+002
    endloop
  endfacet
  facet normal  2.588190e-001 -9.659258e-001  0.000000e+000
    outer loop
      vertex -2.375000e+000  4.113621e+000 -2.800000e+002
      vertex -2.375000e+000  4.113621e+000 -3.500000e+002
      vertex  2.786488e-015  4.750000e+000 -2.800000e+002
    endloop
  endfacet
  facet normal  2.588190e-001 -9.659258e-001 -9.227429e-018
    outer loop
      vertex  2.786488e-015  4.750000e+000 -2.800000e+002
      vertex -2.375000e+000  4.113621e+000 -3.500000e+002
      vertex  2.908440e-016  4.750000e+000 -3.500000e+002
    endloop
  endfacet
  facet normal -2.588190e-001 -9.659258e-001  9.227429e-018
    outer loop
      vertex  2.786488e-015  4.750000e+000 -2.800000e+002
      vertex  2.908440e-016  4.750000e+000 -3.500000e+002
      vertex  2.375000e+000  4.113621e+000 -2.800000e+002
    endloop
  endfacet
  facet normal -2.588190e-001 -9.659258e-001  -0.000000e+000
    outer loop
      vertex  2.375000e+000  4.113621e+000 -2.800000e+002
      vertex  2.908440e-016  4.750000e+000 -3.500000e+002
      vertex  2.375000e+000  4.113621e+000 -3.500000e+002
    endloop
  endfacet
  facet normal -7.071068e-001 -7.071068e-001  0.000000e+000
    outer loop
      vertex  2.375000e+000  4.113621e+000 -2.800000e+002
      vertex  2.375000e+000  4.113621e+000 -3.500000e+002
      vertex  4.113621e+000  2.375000e+000 -2.800000e+002
    endloop
  endfacet
  facet normal -7.071068e-001 -7.071068e-001  -0.000000e+000
    outer loop
      vertex  4.113621e+000  2.375000e+000 -2.800000e+002
      vertex  2.375000e+000  4.113621e+000 -3.500000e+002
      vertex  4.113621e+000  2.375000e+000 -3.500000e+002
    endloop
  endfacet
  facet normal -9.659258e-001 -2.588190e-001  0.000000e+000
    outer loop
      vertex  4.113621e+000  2.375000e+000 -2.800000e+002
      vertex  4.113621e+000  2.375000e+000 -3.500000e+002
      vertex  4.750000e+000  0.000000e+000 -2.800000e+002
    endloop
  endfacet
  facet normal -9.659258e-001 -2.588190e-001  1.641982e-018
    outer loop
      vertex  4.750000e+000  0.000000e+000 -2.800000e+002
      vertex  4.113621e+000  2.375000e+000 -3.500000e+002
      vertex  4.750000e+000 -4.440892e-016 -3.500000e+002
    endloop
  endfacet
  facet normal -9.659258e-001  2.588190e-001 -1.641982e-018
    outer loop
      vertex  4.750000e+000  0.000000e+000 -2.800000e+002
      vertex  4.750000e+000 -4.440892e-016 -3.500000e+002
      vertex  4.113621e+000 -2.375000e+000 -2.800000e+002
    endloop
  endfacet
  facet normal -9.659258e-001  2.588190e-001  0.000000e+000
    outer loop
      vertex  4.113621e+000 -2.375000e+000 -2.800000e+002
      vertex  4.750000e+000 -4.440892e-016 -3.500000e+002
      vertex  4.113621e+000 -2.375000e+000 -3.500000e+002
    endloop
  endfacet
  facet normal -7.071068e-001  7.071068e-001  0.000000e+000
    outer loop
      vertex  4.113621e+000 -2.375000e+000 -2.800000e+002
      vertex  4.113621e+000 -2.375000e+000 -3.500000e+002
      vertex  2.375000e+000 -4.113621e+000 -2.800000e+002
    endloop
  endfacet
  facet normal -7.071068e-001  7.071068e-001  0.000000e+000
    outer loop
      vertex  2.375000e+000 -4.113621e+000 -2.800000e+002
      vertex  4.113621e+000 -2.375000e+000 -3.500000e+002
      vertex  2.375000e+000 -4.113621e+000 -3.500000e+002
    endloop
  endfacet
  facet normal -2.588190e-001  9.659258e-001  0.000000e+000
    outer loop
      vertex  2.375000e+000 -4.113621e+000 -2.800000e+002
      vertex  2.375000e+000 -4.113621e+000 -3.500000e+002
      vertex -1.316621e-015 -4.750000e+000 -2.800000e+002
    endloop
  endfacet
  facet normal -2.588190e-001  9.659258e-001  1.395684e-017
    outer loop
      vertex -1.316621e-015 -4.750000e+000 -2.800000e+002
      vertex  2.375000e+000 -4.113621e+000 -3.500000e+002
      vertex -5.091380e-015 -4.750000e+000 -3.500000e+002
    endloop
  endfacet
  facet normal  2.588190e-001  9.659258e-001 -1.395684e-017
    outer loop
      vertex -1.316621e-015 -4.750000e+000 -2.800000e+002
      vertex -5.091380e-015 -4.750000e+000 -3.500000e+002
      vertex -2.375000e+000 -4.113621e+000 -2.800000e+002
    endloop
  endfacet
  facet normal  2.588190e-001  9.659258e-001  0.000000e+000
    outer loop
      vertex -2.375000e+000 -4.113621e+000 -2.800000e+002
      vertex -5.091380e-015 -4.750000e+000 -3.500000e+002
      vertex -2.375000e+000 -4.113621e+000 -3.500000e+002
    endloop
  endfacet
  facet normal  7.071068e-001  7.071068e-001  -0.000000e+000
    outer loop
      vertex -2.375000e+000 -4.113621e+000 -2.800000e+002
      vertex -2.375000e+000 -4.113621e+000 -3.500000e+002
      vertex -4.113621e+000 -2.375000e+000 -2.800000e+002
    endloop
  endfacet
  facet normal  7.071068e-001  7.071068e-001  0.000000e+000
    outer loop
      vertex -4.113621e+000 -2.375000e+000 -2.800000e+002
      vertex -2.375000e+000 -4.113621e+000 -3.500000e+002
      vertex -4.113621e+000 -2.375000e+000 -3.500000e+002
    endloop
  endfacet
  facet normal  9.659258e-001  2.588190e-001  -0.000000e+000
    outer loop
      vertex -4.113621e+000 -2.375000e+000 -2.800000e+002
      vertex -4.113621e+000 -2.375000e+000 -3.500000e+002
      vertex -4.750000e+000  2.691112e-015 -2.800000e+002
    endloop
  endfacet
  facet normal  9.659258e-001  2.588190e-001  9.753627e-018
    outer loop
      vertex -4.750000e+000  2.691112e-015 -2.800000e+002
      vertex -4.113621e+000 -2.375000e+000 -3.500000e+002
      vertex -4.750000e+000  5.329071e-015 -3.500000e+002
    endloop
  endfacet
  facet normal  8.968062e-001 -2.402984e-001 -3.714772e-001
    outer loop
      vertex  5.750000e+000 -1.408297e-015 -3.490000e+002
      vertex  4.979646e+000 -2.875000e+000 -3.490000e+002
      vertex  5.457107e+000 -1.332268e-015 -3.497071e+002
    endloop
  endfacet
  facet normal  8.968062e-001 -2.402984e-001 -3.714770e-001
    outer loop
      vertex  5.457107e+000 -1.332268e-015 -3.497071e+002
      vertex  4.979646e+000 -2.875000e+000 -3.490000e+002
      vertex  4.725993e+000 -2.728553e+000 -3.497071e+002
    endloop
  endfacet
  facet normal  3.807033e-001 -1.020091e-001 -9.190534e-001
    outer loop
      vertex  5.457107e+000 -1.332268e-015 -3.497071e+002
      vertex  4.725993e+000 -2.728553e+000 -3.497071e+002
      vertex  4.750000e+000 -4.440892e-016 -3.500000e+002
    endloop
  endfacet
  facet normal  3.807033e-001 -1.020091e-001 -9.190534e-001
    outer loop
      vertex  4.750000e+000 -4.440892e-016 -3.500000e+002
      vertex  4.725993e+000 -2.728553e+000 -3.497071e+002
      vertex  4.113621e+000 -2.375000e+000 -3.500000e+002
    endloop
  endfacet
  facet normal -8.968062e-001 -2.402984e-001 -3.714770e-001
    outer loop
      vertex -4.979646e+000 -2.875000e+000 -3.490000e+002
      vertex -5.750000e+000  7.041487e-016 -3.490000e+002
      vertex -4.725993e+000 -2.728553e+000 -3.497071e+002
    endloop
  endfacet
  facet normal -8.968062e-001 -2.402984e-001 -3.714772e-001
    outer loop
      vertex -4.725993e+000 -2.728553e+000 -3.497071e+002
      vertex -5.750000e+000  7.041487e-016 -3.490000e+002
      vertex -5.457107e+000  5.329071e-015 -3.497071e+002
    endloop
  endfacet
  facet normal -3.807033e-001 -1.020091e-001 -9.190534e-001
    outer loop
      vertex -4.725993e+000 -2.728553e+000 -3.497071e+002
      vertex -5.457107e+000  5.329071e-015 -3.497071e+002
      vertex -4.113621e+000 -2.375000e+000 -3.500000e+002
    endloop
  endfacet
  facet normal -3.807034e-001 -1.020091e-001 -9.190534e-001
    outer loop
      vertex -4.113621e+000 -2.375000e+000 -3.500000e+002
      vertex -5.457107e+000  5.329071e-015 -3.497071e+002
      vertex -4.750000e+000  5.329071e-015 -3.500000e+002
    endloop
  endfacet
  facet normal -6.565077e-001 -6.565077e-001 -3.714771e-001
    outer loop
      vertex -2.875000e+000 -4.979646e+000 -3.490000e+002
      vertex -4.979646e+000 -2.875000e+000 -3.490000e+002
      vertex -2.728553e+000 -4.725993e+000 -3.497071e+002
    endloop
  endfacet
  facet normal -6.565077e-001 -6.565077e-001 -3.714771e-001
    outer loop
      vertex -2.728553e+000 -4.725993e+000 -3.497071e+002
      vertex -4.979646e+000 -2.875000e+000 -3.490000e+002
      vertex -4.725993e+000 -2.728553e+000 -3.497071e+002
    endloop
  endfacet
  facet normal -2.786941e-001 -2.786941e-001 -9.190534e-001
    outer loop
      vertex -2.728553e+000 -4.725993e+000 -3.497071e+002
      vertex -4.725993e+000 -2.728553e+000 -3.497071e+002
      vertex -2.375000e+000 -4.113621e+000 -3.500000e+002
    endloop
  endfacet
  facet normal -2.786941e-001 -2.786941e-001 -9.190534e-001
    outer loop
      vertex -2.375000e+000 -4.113621e+000 -3.500000e+002
      vertex -4.725993e+000 -2.728553e+000 -3.497071e+002
      vertex -4.113621e+000 -2.375000e+000 -3.500000e+002
    endloop
  endfacet
  facet normal -2.402984e-001 -8.968062e-001 -3.714772e-001
    outer loop
      vertex -1.056223e-015 -5.750000e+000 -3.490000e+002
      vertex -2.875000e+000 -4.979646e+000 -3.490000e+002
      vertex -3.108624e-015 -5.457107e+000 -3.497071e+002
    endloop
  endfacet
  facet normal -2.402984e-001 -8.968062e-001 -3.714770e-001
    outer loop
      vertex -3.108624e-015 -5.457107e+000 -3.497071e+002
      vertex -2.875000e+000 -4.979646e+000 -3.490000e+002
      vertex -2.728553e+000 -4.725993e+000 -3.497071e+002
    endloop
  endfacet
  facet normal -1.020091e-001 -3.807033e-001 -9.190534e-001
    outer loop
      vertex -3.108624e-015 -5.457107e+000 -3.497071e+002
      vertex -2.728553e+000 -4.725993e+000 -3.497071e+002
      vertex -5.091380e-015 -4.750000e+000 -3.500000e+002
    endloop
  endfacet
  facet normal -1.020091e-001 -3.807033e-001 -9.190534e-001
    outer loop
      vertex -5.091380e-015 -4.750000e+000 -3.500000e+002
      vertex -2.728553e+000 -4.725993e+000 -3.497071e+002
      vertex -2.375000e+000 -4.113621e+000 -3.500000e+002
    endloop
  endfacet
  facet normal  2.402984e-001 -8.968062e-001 -3.714770e-001
    outer loop
      vertex  2.875000e+000 -4.979646e+000 -3.490000e+002
      vertex -1.056223e-015 -5.750000e+000 -3.490000e+002
      vertex  2.728553e+000 -4.725993e+000 -3.497071e+002
    endloop
  endfacet
  facet normal  2.402984e-001 -8.968062e-001 -3.714772e-001
    outer loop
      vertex  2.728553e+000 -4.725993e+000 -3.497071e+002
      vertex -1.056223e-015 -5.750000e+000 -3.490000e+002
      vertex -3.108624e-015 -5.457107e+000 -3.497071e+002
    endloop
  endfacet
  facet normal  1.020091e-001 -3.807033e-001 -9.190534e-001
    outer loop
      vertex  2.728553e+000 -4.725993e+000 -3.497071e+002
      vertex -3.108624e-015 -5.457107e+000 -3.497071e+002
      vertex  2.375000e+000 -4.113621e+000 -3.500000e+002
    endloop
  endfacet
  facet normal  1.020091e-001 -3.807034e-001 -9.190534e-001
    outer loop
      vertex  2.375000e+000 -4.113621e+000 -3.500000e+002
      vertex -3.108624e-015 -5.457107e+000 -3.497071e+002
      vertex -5.091380e-015 -4.750000e+000 -3.500000e+002
    endloop
  endfacet
  facet normal  6.565077e-001 -6.565077e-001 -3.714771e-001
    outer loop
      vertex  4.979646e+000 -2.875000e+000 -3.490000e+002
      vertex  2.875000e+000 -4.979646e+000 -3.490000e+002
      vertex  4.725993e+000 -2.728553e+000 -3.497071e+002
    endloop
  endfacet
  facet normal  6.565077e-001 -6.565077e-001 -3.714771e-001
    outer loop
      vertex  4.725993e+000 -2.728553e+000 -3.497071e+002
      vertex  2.875000e+000 -4.979646e+000 -3.490000e+002
      vertex  2.728553e+000 -4.725993e+000 -3.497071e+002
    endloop
  endfacet
  facet normal  2.786941e-001 -2.786941e-001 -9.190534e-001
    outer loop
      vertex  4.725993e+000 -2.728553e+000 -3.497071e+002
      vertex  2.728553e+000 -4.725993e+000 -3.497071e+002
      vertex  4.113621e+000 -2.375000e+000 -3.500000e+002
    endloop
  endfacet
  facet normal  2.786941e-001 -2.786941e-001 -9.190534e-001
    outer loop
      vertex  4.113621e+000 -2.375000e+000 -3.500000e+002
      vertex  2.728553e+000 -4.725993e+000 -3.497071e+002
      vertex  2.375000e+000 -4.113621e+000 -3.500000e+002
    endloop
  endfacet
  facet normal -8.968062e-001  2.402984e-001 -3.714772e-001
    outer loop
      vertex -5.750000e+000  7.041487e-016 -3.490000e+002
      vertex -4.979646e+000  2.875000e+000 -3.490000e+002
      vertex -5.457107e+000  5.329071e-015 -3.497071e+002
    endloop
  endfacet
  facet normal -8.968062e-001  2.402984e-001 -3.714770e-001
    outer loop
      vertex -5.457107e+000  5.329071e-015 -3.497071e+002
      vertex -4.979646e+000  2.875000e+000 -3.490000e+002
      vertex -4.725993e+000  2.728553e+000 -3.497071e+002
    endloop
  endfacet
  facet normal -3.807033e-001  1.020091e-001 -9.190534e-001
    outer loop
      vertex -5.457107e+000  5.329071e-015 -3.497071e+002
      vertex -4.725993e+000  2.728553e+000 -3.497071e+002
      vertex -4.750000e+000  5.329071e-015 -3.500000e+002
    endloop
  endfacet
  facet normal -3.807033e-001  1.020091e-001 -9.190534e-001
    outer loop
      vertex -4.750000e+000  5.329071e-015 -3.500000e+002
      vertex -4.725993e+000  2.728553e+000 -3.497071e+002
      vertex -4.113621e+000  2.375000e+000 -3.500000e+002
    endloop
  endfacet
  facet normal  8.968062e-001  2.402984e-001 -3.714770e-001
    outer loop
      vertex  4.979646e+000  2.875000e+000 -3.490000e+002
      vertex  5.750000e+000 -1.408297e-015 -3.490000e+002
      vertex  4.725993e+000  2.728553e+000 -3.497071e+002
    endloop
  endfacet
  facet normal  8.968062e-001  2.402984e-001 -3.714772e-001
    outer loop
      vertex  4.725993e+000  2.728553e+000 -3.497071e+002
      vertex  5.750000e+000 -1.408297e-015 -3.490000e+002
      vertex  5.457107e+000 -1.332268e-015 -3.497071e+002
    endloop
  endfacet
  facet normal  3.807033e-001  1.020091e-001 -9.190534e-001
    outer loop
      vertex  4.725993e+000  2.728553e+000 -3.497071e+002
      vertex  5.457107e+000 -1.332268e-015 -3.497071e+002
      vertex  4.113621e+000  2.375000e+000 -3.500000e+002
    endloop
  endfacet
  facet normal  3.807034e-001  1.020091e-001 -9.190534e-001
    outer loop
      vertex  4.113621e+000  2.375000e+000 -3.500000e+002
      vertex  5.457107e+000 -1.332268e-015 -3.497071e+002
      vertex  4.750000e+000 -4.440892e-016 -3.500000e+002
    endloop
  endfacet
  facet normal  6.565077e-001  6.565077e-001 -3.714771e-001
    outer loop
      vertex  2.875000e+000  4.979646e+000 -3.490000e+002
      vertex  4.979646e+000  2.875000e+000 -3.490000e+002
      vertex  2.728553e+000  4.725993e+000 -3.497071e+002
    endloop
  endfacet
  facet normal  6.565077e-001  6.565077e-001 -3.714771e-001
    outer loop
      vertex  2.728553e+000  4.725993e+000 -3.497071e+002
      vertex  4.979646e+000  2.875000e+000 -3.490000e+002
      vertex  4.725993e+000  2.728553e+000 -3.497071e+002
    endloop
  endfacet
  facet normal  2.786941e-001  2.786941e-001 -9.190534e-001
    outer loop
      vertex  2.728553e+000  4.725993e+000 -3.497071e+002
      vertex  4.725993e+000  2.728553e+000 -3.497071e+002
      vertex  2.375000e+000  4.113621e+000 -3.500000e+002
    endloop
  endfacet
  facet normal  2.786941e-001  2.786941e-001 -9.190534e-001
    outer loop
      vertex  2.375000e+000  4.113621e+000 -3.500000e+002
      vertex  4.725993e+000  2.728553e+000 -3.497071e+002
      vertex  4.113621e+000  2.375000e+000 -3.500000e+002
    endloop
  endfacet
  facet normal  2.402984e-001  8.968062e-001 -3.714772e-001
    outer loop
      vertex  3.520743e-016  5.750000e+000 -3.490000e+002
      vertex  2.875000e+000  4.979646e+000 -3.490000e+002
      vertex  1.776357e-015  5.457107e+000 -3.497071e+002
    endloop
  endfacet
  facet normal  2.402984e-001  8.968062e-001 -3.714770e-001
    outer loop
      vertex  1.776357e-015  5.457107e+000 -3.497071e+002
      vertex  2.875000e+000  4.979646e+000 -3.490000e+002
      vertex  2.728553e+000  4.725993e+000 -3.497071e+002
    endloop
  endfacet
  facet normal  1.020091e-001  3.807033e-001 -9.190534e-001
    outer loop
      vertex  1.776357e-015  5.457107e+000 -3.497071e+002
      vertex  2.728553e+000  4.725993e+000 -3.497071e+002
      vertex  2.908440e-016  4.750000e+000 -3.500000e+002
    endloop
  endfacet
  facet normal  1.020091e-001  3.807033e-001 -9.190534e-001
    outer loop
      vertex  2.908440e-016  4.750000e+000 -3.500000e+002
      vertex  2.728553e+000  4.725993e+000 -3.497071e+002
      vertex  2.375000e+000  4.113621e+000 -3.500000e+002
    endloop
  endfacet
  facet normal -2.402984e-001  8.968062e-001 -3.714770e-001
    outer loop
      vertex -2.875000e+000  4.979646e+000 -3.490000e+002
      vertex  3.520743e-016  5.750000e+000 -3.490000e+002
      vertex -2.728553e+000  4.725993e+000 -3.497071e+002
    endloop
  endfacet
  facet normal -2.402984e-001  8.968062e-001 -3.714772e-001
    outer loop
      vertex -2.728553e+000  4.725993e+000 -3.497071e+002
      vertex  3.520743e-016  5.750000e+000 -3.490000e+002
      vertex  1.776357e-015  5.457107e+000 -3.497071e+002
    endloop
  endfacet
  facet normal -1.020091e-001  3.807033e-001 -9.190534e-001
    outer loop
      vertex -2.728553e+000  4.725993e+000 -3.497071e+002
      vertex  1.776357e-015  5.457107e+000 -3.497071e+002
      vertex -2.375000e+000  4.113621e+000 -3.500000e+002
    endloop
  endfacet
  facet normal -1.020091e-001  3.807034e-001 -9.190534e-001
    outer loop
      vertex -2.375000e+000  4.113621e+000 -3.500000e+002
      vertex  1.776357e-015  5.457107e+000 -3.497071e+002
      vertex  2.908440e-016  4.750000e+000 -3.500000e+002
    endloop
  endfacet
  facet normal -6.565077e-001  6.565077e-001 -3.714771e-001
    outer loop
      vertex -4.979646e+000  2.875000e+000 -3.490000e+002
      vertex -2.875000e+000  4.979646e+000 -3.490000e+002
      vertex -4.725993e+000  2.728553e+000 -3.497071e+002
    endloop
  endfacet
  facet normal -6.565077e-001  6.565077e-001 -3.714771e-001
    outer loop
      vertex -4.725993e+000  2.728553e+000 -3.497071e+002
      vertex -2.875000e+000  4.979646e+000 -3.490000e+002
      vertex -2.728553e+000  4.725993e+000 -3.497071e+002
    endloop
  endfacet
  facet normal -2.786941e-001  2.786941e-001 -9.190534e-001
    outer loop
      vertex -4.725993e+000  2.728553e+000 -3.497071e+002
      vertex -2.728553e+000  4.725993e+000 -3.497071e+002
      vertex -4.113621e+000  2.375000e+000 -3.500000e+002
    endloop
  endfacet
  facet normal -2.786941e-001  2.786941e-001 -9.190534e-001
    outer loop
      vertex -4.113621e+000  2.375000e+000 -3.500000e+002
      vertex -2.728553e+000  4.725993e+000 -3.497071e+002
      vertex -2.375000e+000  4.113621e+000 -3.500000e+002
    endloop
  endfacet
  facet normal  0.000000e+000  0.000000e+000  1.000000e+000
    outer loop
      vertex  5.750000e+000  0.000000e+000 -2.700000e+002
      vertex  4.979646e+000  2.875000e+000 -2.700000e+002
      vertex  5.300000e+000  0.000000e+000 -2.700000e+002
    endloop
  endfacet
  facet normal  0.000000e+000  0.000000e+000  1.000000e+000
    outer loop
      vertex -5.750000e+000  7.041487e-016 -2.700000e+002
      vertex -4.979646e+000 -2.875000e+000 -2.700000e+002
      vertex -5.300000e+000  3.002714e-015 -2.700000e+002
    endloop
  endfacet
  facet normal  -0.000000e+000  0.000000e+000  1.000000e+000
    outer loop
      vertex  5.750000e+000  0.000000e+000 -2.700000e+002
      vertex  5.300000e+000  0.000000e+000 -2.700000e+002
      vertex  4.979646e+000 -2.875000e+000 -2.700000e+002
    endloop
  endfacet
  facet normal  0.000000e+000  -0.000000e+000  1.000000e+000
    outer loop
      vertex  4.979646e+000 -2.875000e+000 -2.700000e+002
      vertex  5.300000e+000  0.000000e+000 -2.700000e+002
      vertex  4.589935e+000 -2.650000e+000 -2.700000e+002
    endloop
  endfacet
  facet normal  0.000000e+000  0.000000e+000  1.000000e+000
    outer loop
      vertex  4.979646e+000 -2.875000e+000 -2.700000e+002
      vertex  4.589935e+000 -2.650000e+000 -2.700000e+002
      vertex  2.875000e+000 -4.979646e+000 -2.700000e+002
    endloop
  endfacet
  facet normal  0.000000e+000  -0.000000e+000  1.000000e+000
    outer loop
      vertex  2.875000e+000 -4.979646e+000 -2.700000e+002
      vertex  4.589935e+000 -2.650000e+000 -2.700000e+002
      vertex  2.650000e+000 -4.589935e+000 -2.700000e+002
    endloop
  endfacet
  facet normal  0.000000e+000  0.000000e+000  1.000000e+000
    outer loop
      vertex  2.875000e+000 -4.979646e+000 -2.700000e+002
      vertex  2.650000e+000 -4.589935e+000 -2.700000e+002
      vertex  0.000000e+000 -5.750000e+000 -2.700000e+002
    endloop
  endfacet
  facet normal  0.000000e+000  0.000000e+000  1.000000e+000
    outer loop
      vertex  0.000000e+000 -5.750000e+000 -2.700000e+002
      vertex  2.650000e+000 -4.589935e+000 -2.700000e+002
      vertex  0.000000e+000 -5.300000e+000 -2.700000e+002
    endloop
  endfacet
  facet normal  0.000000e+000  0.000000e+000  1.000000e+000
    outer loop
      vertex  0.000000e+000 -5.750000e+000 -2.700000e+002
      vertex  0.000000e+000 -5.300000e+000 -2.700000e+002
      vertex -2.875000e+000 -4.979646e+000 -2.700000e+002
    endloop
  endfacet
  facet normal  -0.000000e+000  0.000000e+000  1.000000e+000
    outer loop
      vertex -2.875000e+000 -4.979646e+000 -2.700000e+002
      vertex  0.000000e+000 -5.300000e+000 -2.700000e+002
      vertex -2.650000e+000 -4.589935e+000 -2.700000e+002
    endloop
  endfacet
  facet normal  0.000000e+000  0.000000e+000  1.000000e+000
    outer loop
      vertex -2.875000e+000 -4.979646e+000 -2.700000e+002
      vertex -2.650000e+000 -4.589935e+000 -2.700000e+002
      vertex -4.979646e+000 -2.875000e+000 -2.700000e+002
    endloop
  endfacet
  facet normal  -0.000000e+000  0.000000e+000  1.000000e+000
    outer loop
      vertex -4.979646e+000 -2.875000e+000 -2.700000e+002
      vertex -2.650000e+000 -4.589935e+000 -2.700000e+002
      vertex -4.589935e+000 -2.650000e+000 -2.700000e+002
    endloop
  endfacet
  facet normal  0.000000e+000  0.000000e+000  1.000000e+000
    outer loop
      vertex -4.979646e+000 -2.875000e+000 -2.700000e+002
      vertex -4.589935e+000 -2.650000e+000 -2.700000e+002
      vertex -5.300000e+000  3.002714e-015 -2.700000e+002
    endloop
  endfacet
  facet normal  0.000000e+000  -0.000000e+000  1.000000e+000
    outer loop
      vertex -5.750000e+000  7.041487e-016 -2.700000e+002
      vertex -5.300000e+000  3.002714e-015 -2.700000e+002
      vertex -4.979646e+000  2.875000e+000 -2.700000e+002
    endloop
  endfacet
  facet normal  0.000000e+000  0.000000e+000  1.000000e+000
    outer loop
      vertex -4.979646e+000  2.875000e+000 -2.700000e+002
      vertex -5.300000e+000  3.002714e-015 -2.700000e+002
      vertex -4.589935e+000  2.650000e+000 -2.700000e+002
    endloop
  endfacet
  facet normal  0.000000e+000  -0.000000e+000  1.000000e+000
    outer loop
      vertex -4.979646e+000  2.875000e+000 -2.700000e+002
      vertex -4.589935e+000  2.650000e+000 -2.700000e+002
      vertex -2.875000e+000  4.979646e+000 -2.700000e+002
    endloop
  endfacet
  facet normal  0.000000e+000  0.000000e+000  1.000000e+000
    outer loop
      vertex -2.875000e+000  4.979646e+000 -2.700000e+002
      vertex -4.589935e+000  2.650000e+000 -2.700000e+002
      vertex -2.650000e+000  4.589935e+000 -2.700000e+002
    endloop
  endfacet
  facet normal  0.000000e+000  -0.000000e+000  1.000000e+000
    outer loop
      vertex -2.875000e+000  4.979646e+000 -2.700000e+002
      vertex -2.650000e+000  4.589935e+000 -2.700000e+002
      vertex  0.000000e+000  5.750000e+000 -2.700000e+002
    endloop
  endfacet
  facet normal  0.000000e+000  0.000000e+000  1.000000e+000
    outer loop
      vertex  0.000000e+000  5.750000e+000 -2.700000e+002
      vertex -2.650000e+000  4.589935e+000 -2.700000e+002
      vertex  0.000000e+000  5.300000e+000 -2.700000e+002
    endloop
  endfacet
  facet normal  -0.000000e+000  0.000000e+000  1.000000e+000
    outer loop
      vertex  0.000000e+000  5.750000e+000 -2.700000e+002
      vertex  0.000000e+000  5.300000e+000 -2.700000e+002
      vertex  2.875000e+000  4.979646e+000 -2.700000e+002
    endloop
  endfacet
  facet normal  0.000000e+000  0.000000e+000  1.000000e+000
    outer loop
      vertex  2.875000e+000  4.979646e+000 -2.700000e+002
      vertex  0.000000e+000  5.300000e+000 -2.700000e+002
      vertex  2.650000e+000  4.589935e+000 -2.700000e+002
    endloop
  endfacet
  facet normal  -0.000000e+000  0.000000e+000  1.000000e+000
    outer loop
      vertex  2.875000e+000  4.979646e+000 -2.700000e+002
      vertex  2.650000e+000  4.589935e+000 -2.700000e+002
      vertex  4.979646e+000  2.875000e+000 -2.700000e+002
    endloop
  endfacet
  facet normal  0.000000e+000  0.000000e+000  1.000000e+000
    outer loop
      vertex  4.979646e+000  2.875000e+000 -2.700000e+002
      vertex  2.650000e+000  4.589935e+000 -2.700000e+002
      vertex  4.589935e+000  2.650000e+000 -2.700000e+002
    endloop
  endfacet
  facet normal  -0.000000e+000  0.000000e+000  1.000000e+000
    outer loop
      vertex  4.979646e+000  2.875000e+000 -2.700000e+002
      vertex  4.589935e+000  2.650000e+000 -2.700000e+002
      vertex  5.300000e+000  0.000000e+000 -2.700000e+002
    endloop
  endfacet
  facet normal  9.659258e-001 -2.588190e-001  0.000000e+000
    outer loop
      vertex -5.300000e+000  3.002714e-015 -2.700000e+002
      vertex -5.300000e+000  3.002714e-015 -2.800000e+002
      vertex -4.589935e+000  2.650000e+000 -2.700000e+002
    endloop
  endfacet
  facet normal  9.659258e-001 -2.588190e-001  0.000000e+000
    outer loop
      vertex -4.589935e+000  2.650000e+000 -2.700000e+002
      vertex -5.300000e+000  3.002714e-015 -2.800000e+002
      vertex -4.589935e+000  2.650000e+000 -2.800000e+002
    endloop
  endfacet
  facet normal  7.071068e-001 -7.071068e-001  0.000000e+000
    outer loop
      vertex -4.589935e+000  2.650000e+000 -2.700000e+002
      vertex -4.589935e+000  2.650000e+000 -2.800000e+002
      vertex -2.650000e+000  4.589935e+000 -2.700000e+002
    endloop
  endfacet
  facet normal  7.071068e-001 -7.071068e-001  0.000000e+000
    outer loop
      vertex -2.650000e+000  4.589935e+000 -2.700000e+002
      vertex -4.589935e+000  2.650000e+000 -2.800000e+002
      vertex -2.650000e+000  4.589935e+000 -2.800000e+002
    endloop
  endfacet
  facet normal  2.588190e-001 -9.659258e-001  0.000000e+000
    outer loop
      vertex -2.650000e+000  4.589935e+000 -2.700000e+002
      vertex -2.650000e+000  4.589935e+000 -2.800000e+002
      vertex  0.000000e+000  5.300000e+000 -2.700000e+002
    endloop
  endfacet
  facet normal  2.588190e-001 -9.659258e-001  3.885798e-017
    outer loop
      vertex  0.000000e+000  5.300000e+000 -2.700000e+002
      vertex -2.650000e+000  4.589935e+000 -2.800000e+002
      vertex  1.501357e-015  5.300000e+000 -2.800000e+002
    endloop
  endfacet
  facet normal -2.588190e-001 -9.659258e-001 -3.885798e-017
    outer loop
      vertex  0.000000e+000  5.300000e+000 -2.700000e+002
      vertex  1.501357e-015  5.300000e+000 -2.800000e+002
      vertex  2.650000e+000  4.589935e+000 -2.700000e+002
    endloop
  endfacet
  facet normal -2.588190e-001 -9.659258e-001  -0.000000e+000
    outer loop
      vertex  2.650000e+000  4.589935e+000 -2.700000e+002
      vertex  1.501357e-015  5.300000e+000 -2.800000e+002
      vertex  2.650000e+000  4.589935e+000 -2.800000e+002
    endloop
  endfacet
  facet normal -7.071068e-001 -7.071068e-001  0.000000e+000
    outer loop
      vertex  2.650000e+000  4.589935e+000 -2.700000e+002
      vertex  2.650000e+000  4.589935e+000 -2.800000e+002
      vertex  4.589935e+000  2.650000e+000 -2.700000e+002
    endloop
  endfacet
  facet normal -7.071068e-001 -7.071068e-001  -0.000000e+000
    outer loop
      vertex  4.589935e+000  2.650000e+000 -2.700000e+002
      vertex  2.650000e+000  4.589935e+000 -2.800000e+002
      vertex  4.589935e+000  2.650000e+000 -2.800000e+002
    endloop
  endfacet
  facet normal -9.659258e-001 -2.588190e-001  0.000000e+000
    outer loop
      vertex  4.589935e+000  2.650000e+000 -2.700000e+002
      vertex  4.589935e+000  2.650000e+000 -2.800000e+002
      vertex  5.300000e+000  0.000000e+000 -2.700000e+002
    endloop
  endfacet
  facet normal -9.659258e-001 -2.588190e-001  -0.000000e+000
    outer loop
      vertex  5.300000e+000  0.000000e+000 -2.700000e+002
      vertex  4.589935e+000  2.650000e+000 -2.800000e+002
      vertex  5.300000e+000  0.000000e+000 -2.800000e+002
    endloop
  endfacet
  facet normal -9.659258e-001  2.588190e-001  0.000000e+000
    outer loop
      vertex  5.300000e+000  0.000000e+000 -2.700000e+002
      vertex  5.300000e+000  0.000000e+000 -2.800000e+002
      vertex  4.589935e+000 -2.650000e+000 -2.700000e+002
    endloop
  endfacet
  facet normal -9.659258e-001  2.588190e-001  0.000000e+000
    outer loop
      vertex  4.589935e+000 -2.650000e+000 -2.700000e+002
      vertex  5.300000e+000  0.000000e+000 -2.800000e+002
      vertex  4.589935e+000 -2.650000e+000 -2.800000e+002
    endloop
  endfacet
  facet normal -7.071068e-001  7.071068e-001  0.000000e+000
    outer loop
      vertex  4.589935e+000 -2.650000e+000 -2.700000e+002
      vertex  4.589935e+000 -2.650000e+000 -2.800000e+002
      vertex  2.650000e+000 -4.589935e+000 -2.700000e+002
    endloop
  endfacet
  facet normal -7.071068e-001  7.071068e-001  0.000000e+000
    outer loop
      vertex  2.650000e+000 -4.589935e+000 -2.700000e+002
      vertex  4.589935e+000 -2.650000e+000 -2.800000e+002
      vertex  2.650000e+000 -4.589935e+000 -2.800000e+002
    endloop
  endfacet
  facet normal -2.588190e-001  9.659258e-001  0.000000e+000
    outer loop
      vertex  2.650000e+000 -4.589935e+000 -2.700000e+002
      vertex  2.650000e+000 -4.589935e+000 -2.800000e+002
      vertex  0.000000e+000 -5.300000e+000 -2.700000e+002
    endloop
  endfacet
  facet normal -2.588190e-001  9.659258e-001  2.519764e-017
    outer loop
      vertex  0.000000e+000 -5.300000e+000 -2.700000e+002
      vertex  2.650000e+000 -4.589935e+000 -2.800000e+002
      vertex -9.735621e-016 -5.300000e+000 -2.800000e+002
    endloop
  endfacet
  facet normal  2.588190e-001  9.659258e-001 -2.519764e-017
    outer loop
      vertex  0.000000e+000 -5.300000e+000 -2.700000e+002
      vertex -9.735621e-016 -5.300000e+000 -2.800000e+002
      vertex -2.650000e+000 -4.589935e+000 -2.700000e+002
    endloop
  endfacet
  facet normal  2.588190e-001  9.659258e-001  0.000000e+000
    outer loop
      vertex -2.650000e+000 -4.589935e+000 -2.700000e+002
      vertex -9.735621e-016 -5.300000e+000 -2.800000e+002
      vertex -2.650000e+000 -4.589935e+000 -2.800000e+002
    endloop
  endfacet
  facet normal  7.071068e-001  7.071068e-001  -0.000000e+000
    outer loop
      vertex -2.650000e+000 -4.589935e+000 -2.700000e+002
      vertex -2.650000e+000 -4.589935e+000 -2.800000e+002
      vertex -4.589935e+000 -2.650000e+000 -2.700000e+002
    endloop
  endfacet
  facet normal  7.071068e-001  7.071068e-001  0.000000e+000
    outer loop
      vertex -4.589935e+000 -2.650000e+000 -2.700000e+002
      vertex -2.650000e+000 -4.589935e+000 -2.800000e+002
      vertex -4.589935e+000 -2.650000e+000 -2.800000e+002
    endloop
  endfacet
  facet normal  9.659258e-001  2.588190e-001  -0.000000e+000
    outer loop
      vertex -4.589935e+000 -2.650000e+000 -2.700000e+002
      vertex -4.589935e+000 -2.650000e+000 -2.800000e+002
      vertex -5.300000e+000  3.002714e-015 -2.700000e+002
    endloop
  endfacet
  facet normal  9.659258e-001  2.588190e-001  0.000000e+000
    outer loop
      vertex -5.300000e+000  3.002714e-015 -2.700000e+002
      vertex -4.589935e+000 -2.650000e+000 -2.800000e+002
      vertex -5.300000e+000  3.002714e-015 -2.800000e+002
    endloop
  endfacet
  facet normal  0.000000e+000  0.000000e+000  1.000000e+000
    outer loop
      vertex -2.650000e+000  4.589935e+000 -2.800000e+002
      vertex  2.786488e-015  4.750000e+000 -2.800000e+002
      vertex  1.501357e-015  5.300000e+000 -2.800000e+002
    endloop
  endfacet
  facet normal  -0.000000e+000  0.000000e+000  1.000000e+000
    outer loop
      vertex  2.650000e+000 -4.589935e+000 -2.800000e+002
      vertex -1.316621e-015 -4.750000e+000 -2.800000e+002
      vertex -9.735621e-016 -5.300000e+000 -2.800000e+002
    endloop
  endfacet
  facet normal  0.000000e+000  0.000000e+000  1.000000e+000
    outer loop
      vertex -9.735621e-016 -5.300000e+000 -2.800000e+002
      vertex -1.316621e-015 -4.750000e+000 -2.800000e+002
      vertex -2.650000e+000 -4.589935e+000 -2.800000e+002
    endloop
  endfacet
  facet normal  -0.000000e+000  0.000000e+000  1.000000e+000
    outer loop
      vertex -2.650000e+000 -4.589935e+000 -2.800000e+002
      vertex -1.316621e-015 -4.750000e+000 -2.800000e+002
      vertex -2.375000e+000 -4.113621e+000 -2.800000e+002
    endloop
  endfacet
  facet normal  0.000000e+000  0.000000e+000  1.000000e+000
    outer loop
      vertex -2.650000e+000 -4.589935e+000 -2.800000e+002
      vertex -2.375000e+000 -4.113621e+000 -2.800000e+002
      vertex -4.589935e+000 -2.650000e+000 -2.800000e+002
    endloop
  endfacet
  facet normal  -0.000000e+000  0.000000e+000  1.000000e+000
    outer loop
      vertex -4.589935e+000 -2.650000e+000 -2.800000e+002
      vertex -2.375000e+000 -4.113621e+000 -2.800000e+002
      vertex -4.113621e+000 -2.375000e+000 -2.800000e+002
    endloop
  endfacet
  facet normal  0.000000e+000  0.000000e+000  1.000000e+000
    outer loop
      vertex -4.589935e+000 -2.650000e+000 -2.800000e+002
      vertex -4.113621e+000 -2.375000e+000 -2.800000e+002
      vertex -5.300000e+000  3.002714e-015 -2.800000e+002
    endloop
  endfacet
  facet normal  0.000000e+000  0.000000e+000  1.000000e+000
    outer loop
      vertex -5.300000e+000  3.002714e-015 -2.800000e+002
      vertex -4.113621e+000 -2.375000e+000 -2.800000e+002
      vertex -4.750000e+000  2.691112e-015 -2.800000e+002
    endloop
  endfacet
  facet normal  0.000000e+000  -0.000000e+000  1.000000e+000
    outer loop
      vertex -5.300000e+000  3.002714e-015 -2.800000e+002
      vertex -4.750000e+000  2.691112e-015 -2.800000e+002
      vertex -4.589935e+000  2.650000e+000 -2.800000e+002
    endloop
  endfacet
  facet normal  0.000000e+000  0.000000e+000  1.000000e+000
    outer loop
      vertex -4.589935e+000  2.650000e+000 -2.800000e+002
      vertex -4.750000e+000  2.691112e-015 -2.800000e+002
      vertex -4.113621e+000  2.375000e+000 -2.800000e+002
    endloop
  endfacet
  facet normal  0.000000e+000  -0.000000e+000  1.000000e+000
    outer loop
      vertex -4.589935e+000  2.650000e+000 -2.800000e+002
      vertex -4.113621e+000  2.375000e+000 -2.800000e+002
      vertex -2.650000e+000  4.589935e+000 -2.800000e+002
    endloop
  endfacet
  facet normal  0.000000e+000  0.000000e+000  1.000000e+000
    outer loop
      vertex -2.650000e+000  4.589935e+000 -2.800000e+002
      vertex -4.113621e+000  2.375000e+000 -2.800000e+002
      vertex -2.375000e+000  4.113621e+000 -2.800000e+002
    endloop
  endfacet
  facet normal  0.000000e+000  -0.000000e+000  1.000000e+000
    outer loop
      vertex -2.650000e+000  4.589935e+000 -2.800000e+002
      vertex -2.375000e+000  4.113621e+000 -2.800000e+002
      vertex  2.786488e-015  4.750000e+000 -2.800000e+002
    endloop
  endfacet
  facet normal  -0.000000e+000  -0.000000e+000  1.000000e+000
    outer loop
      vertex  1.501357e-015  5.300000e+000 -2.800000e+002
      vertex  2.786488e-015  4.750000e+000 -2.800000e+002
      vertex  2.650000e+000  4.589935e+000 -2.800000e+002
    endloop
  endfacet
  facet normal  0.000000e+000  0.000000e+000  1.000000e+000
    outer loop
      vertex  2.650000e+000  4.589935e+000 -2.800000e+002
      vertex  2.786488e-015  4.750000e+000 -2.800000e+002
      vertex  2.375000e+000  4.113621e+000 -2.800000e+002
    endloop
  endfacet
  facet normal  -0.000000e+000  0.000000e+000  1.000000e+000
    outer loop
      vertex  2.650000e+000  4.589935e+000 -2.800000e+002
      vertex  2.375000e+000  4.113621e+000 -2.800000e+002
      vertex  4.589935e+000  2.650000e+000 -2.800000e+002
    endloop
  endfacet
  facet normal  0.000000e+000  0.000000e+000  1.000000e+000
    outer loop
      vertex  4.589935e+000  2.650000e+000 -2.800000e+002
      vertex  2.375000e+000  4.113621e+000 -2.800000e+002
      vertex  4.113621e+000  2.375000e+000 -2.800000e+002
    endloop
  endfacet
  facet normal  -0.000000e+000  0.000000e+000  1.000000e+000
    outer loop
      vertex  4.589935e+000  2.650000e+000 -2.800000e+002
      vertex  4.113621e+000  2.375000e+000 -2.800000e+002
      vertex  5.300000e+000  0.000000e+000 -2.800000e+002
    endloop
  endfacet
  facet normal  0.000000e+000  0.000000e+000  1.000000e+000
    outer loop
      vertex  5.300000e+000  0.000000e+000 -2.800000e+002
      vertex  4.113621e+000  2.375000e+000 -2.800000e+002
      vertex  4.750000e+000  0.000000e+000 -2.800000e+002
    endloop
  endfacet
  facet normal  -0.000000e+000  0.000000e+000  1.000000e+000
    outer loop
      vertex  5.300000e+000  0.000000e+000 -2.800000e+002
      vertex  4.750000e+000  0.000000e+000 -2.800000e+002
      vertex  4.589935e+000 -2.650000e+000 -2.800000e+002
    endloop
  endfacet
  facet normal  0.000000e+000  -0.000000e+000  1.000000e+000
    outer loop
      vertex  4.589935e+000 -2.650000e+000 -2.800000e+002
      vertex  4.750000e+000  0.000000e+000 -2.800000e+002
      vertex  4.113621e+000 -2.375000e+000 -2.800000e+002
    endloop
  endfacet
  facet normal  0.000000e+000  0.000000e+000  1.000000e+000
    outer loop
      vertex  4.589935e+000 -2.650000e+000 -2.800000e+002
      vertex  4.113621e+000 -2.375000e+000 -2.800000e+002
      vertex  2.650000e+000 -4.589935e+000 -2.800000e+002
    endloop
  endfacet
  facet normal  0.000000e+000  -0.000000e+000  1.000000e+000
    outer loop
      vertex  2.650000e+000 -4.589935e+000 -2.800000e+002
      vertex  4.113621e+000 -2.375000e+000 -2.800000e+002
      vertex  2.375000e+000 -4.113621e+000 -2.800000e+002
    endloop
  endfacet
  facet normal  0.000000e+000  0.000000e+000  1.000000e+000
    outer loop
      vertex  2.650000e+000 -4.589935e+000 -2.800000e+002
      vertex  2.375000e+000 -4.113621e+000 -2.800000e+002
      vertex -1.316621e-015 -4.750000e+000 -2.800000e+002
    endloop
  endfacet
endsolid CATIA STL
