solid CATIA STL
  facet normal  0.000000e+000  1.000000e+000  0.000000e+000
    outer loop
      vertex  0.000000e+000  3.000000e+001 -2.500000e+000
      vertex  0.000000e+000  3.000000e+001  0.000000e+000
      vertex  6.500000e+000  3.000000e+001 -2.500000e+000
    endloop
  endfacet
  facet normal  0.000000e+000  1.000000e+000  -0.000000e+000
    outer loop
      vertex  6.500000e+000  3.000000e+001 -2.500000e+000
      vertex  0.000000e+000  3.000000e+001  0.000000e+000
      vertex  6.500000e+000  3.000000e+001  0.000000e+000
    endloop
  endfacet
  facet normal  0.000000e+000 -1.000000e+000  0.000000e+000
    outer loop
      vertex  0.000000e+000 -3.000000e+001  3.552714e-015
      vertex  0.000000e+000 -3.000000e+001 -2.500000e+000
      vertex  6.500000e+000 -3.000000e+001  3.552714e-015
    endloop
  endfacet
  facet normal  0.000000e+000 -1.000000e+000  -0.000000e+000
    outer loop
      vertex  6.500000e+000 -3.000000e+001  3.552714e-015
      vertex  0.000000e+000 -3.000000e+001 -2.500000e+000
      vertex  6.500000e+000 -3.000000e+001 -2.500000e+000
    endloop
  endfacet
  facet normal  0.000000e+000  0.000000e+000  1.000000e+000
    outer loop
      vertex  8.500000e+000  2.600000e+001  0.000000e+000
      vertex  8.500000e+000  2.800000e+001  0.000000e+000
      vertex  7.914214e+000  2.941421e+001  0.000000e+000
    endloop
  endfacet
  facet normal  3.982064e-016  6.832141e-017  1.000000e+000
    outer loop
      vertex  8.500000e+000  2.600000e+001  0.000000e+000
      vertex  7.914214e+000  2.941421e+001  0.000000e+000
      vertex  8.500000e+000 -2.600000e+001  3.552714e-015
    endloop
  endfacet
  facet normal  -0.000000e+000  6.832142e-017  1.000000e+000
    outer loop
      vertex  8.500000e+000  2.600000e+001  0.000000e+000
      vertex  8.500000e+000 -2.600000e+001  3.552714e-015
      vertex  1.050000e+001 -2.600000e+001  3.552714e-015
    endloop
  endfacet
  facet normal  0.000000e+000  6.832142e-017  1.000000e+000
    outer loop
      vertex  8.500000e+000  2.600000e+001  0.000000e+000
      vertex  1.050000e+001 -2.600000e+001  3.552714e-015
      vertex  1.050000e+001  2.600000e+001 -7.350339e-031
    endloop
  endfacet
  facet normal  0.000000e+000  0.000000e+000  1.000000e+000
    outer loop
      vertex  0.000000e+000  3.000000e+001  0.000000e+000
      vertex  7.914214e+000  2.941421e+001  0.000000e+000
      vertex  6.500000e+000  3.000000e+001  0.000000e+000
    endloop
  endfacet
  facet normal  4.749095e-018  6.416216e-017  1.000000e+000
    outer loop
      vertex  7.914214e+000  2.941421e+001  0.000000e+000
      vertex  0.000000e+000  3.000000e+001  0.000000e+000
      vertex  8.500000e+000 -2.600000e+001  3.552714e-015
    endloop
  endfacet
  facet normal -2.786442e-017  5.921190e-017  1.000000e+000
    outer loop
      vertex  8.500000e+000 -2.600000e+001  3.552714e-015
      vertex  0.000000e+000  3.000000e+001  0.000000e+000
      vertex  0.000000e+000 -3.000000e+001  3.552714e-015
    endloop
  endfacet
  facet normal  8.359326e-016 -1.776357e-015  1.000000e+000
    outer loop
      vertex  8.500000e+000 -2.600000e+001  3.552714e-015
      vertex  0.000000e+000 -3.000000e+001  3.552714e-015
      vertex  8.500000e+000 -2.800000e+001  0.000000e+000
    endloop
  endfacet
  facet normal  0.000000e+000  1.776357e-015  1.000000e+000
    outer loop
      vertex  8.500000e+000 -2.800000e+001  0.000000e+000
      vertex  0.000000e+000 -3.000000e+001  3.552714e-015
      vertex  6.500000e+000 -3.000000e+001  3.552714e-015
    endloop
  endfacet
  facet normal  3.032431e-015 -1.256074e-015  1.000000e+000
    outer loop
      vertex  8.500000e+000 -2.800000e+001  0.000000e+000
      vertex  6.500000e+000 -3.000000e+001  3.552714e-015
      vertex  7.914214e+000 -2.941421e+001  0.000000e+000
    endloop
  endfacet
  facet normal  0.000000e+000  9.807853e-001 -1.950904e-001
    outer loop
      vertex  0.000000e+000  3.000000e+001 -2.500000e+000
      vertex  6.500000e+000  3.000000e+001 -2.500000e+000
      vertex  0.000000e+000  2.942910e+001 -5.370126e+000
    endloop
  endfacet
  facet normal  0.000000e+000  9.807853e-001 -1.950904e-001
    outer loop
      vertex  0.000000e+000  2.942910e+001 -5.370126e+000
      vertex  6.500000e+000  3.000000e+001 -2.500000e+000
      vertex  6.500000e+000  2.942910e+001 -5.370126e+000
    endloop
  endfacet
  facet normal  0.000000e+000  8.314696e-001 -5.555702e-001
    outer loop
      vertex  0.000000e+000  2.942910e+001 -5.370126e+000
      vertex  6.500000e+000  2.942910e+001 -5.370126e+000
      vertex  0.000000e+000  2.780330e+001 -7.803301e+000
    endloop
  endfacet
  facet normal  0.000000e+000  8.314696e-001 -5.555702e-001
    outer loop
      vertex  0.000000e+000  2.780330e+001 -7.803301e+000
      vertex  6.500000e+000  2.942910e+001 -5.370126e+000
      vertex  6.500000e+000  2.780330e+001 -7.803301e+000
    endloop
  endfacet
  facet normal  0.000000e+000  5.555700e-001 -8.314697e-001
    outer loop
      vertex  0.000000e+000  2.780330e+001 -7.803301e+000
      vertex  6.500000e+000  2.780330e+001 -7.803301e+000
      vertex  0.000000e+000  2.537012e+001 -9.429096e+000
    endloop
  endfacet
  facet normal  0.000000e+000  5.555700e-001 -8.314697e-001
    outer loop
      vertex  0.000000e+000  2.537012e+001 -9.429096e+000
      vertex  6.500000e+000  2.780330e+001 -7.803301e+000
      vertex  6.500000e+000  2.537012e+001 -9.429096e+000
    endloop
  endfacet
  facet normal  0.000000e+000  1.950905e-001 -9.807852e-001
    outer loop
      vertex  0.000000e+000  2.537012e+001 -9.429096e+000
      vertex  6.500000e+000  2.537012e+001 -9.429096e+000
      vertex  0.000000e+000  2.250000e+001 -1.000000e+001
    endloop
  endfacet
  facet normal  0.000000e+000  1.950905e-001 -9.807852e-001
    outer loop
      vertex  0.000000e+000  2.250000e+001 -1.000000e+001
      vertex  6.500000e+000  2.537012e+001 -9.429096e+000
      vertex  6.500000e+000  2.250000e+001 -1.000000e+001
    endloop
  endfacet
  facet normal  0.000000e+000  0.000000e+000 -1.000000e+000
    outer loop
      vertex  6.500000e+000  2.250000e+001 -1.000000e+001
      vertex  6.500000e+000 -2.250000e+001 -1.000000e+001
      vertex  0.000000e+000  2.250000e+001 -1.000000e+001
    endloop
  endfacet
  facet normal  0.000000e+000  0.000000e+000 -1.000000e+000
    outer loop
      vertex  0.000000e+000  2.250000e+001 -1.000000e+001
      vertex  6.500000e+000 -2.250000e+001 -1.000000e+001
      vertex  0.000000e+000 -2.250000e+001 -1.000000e+001
    endloop
  endfacet
  facet normal  1.000000e+000  -0.000000e+000  0.000000e+000
    outer loop
      vertex  8.500000e+000  2.800000e+001  0.000000e+000
      vertex  8.500000e+000  2.600000e+001  0.000000e+000
      vertex  8.500000e+000  2.800000e+001 -2.500000e+000
    endloop
  endfacet
  facet normal  1.000000e+000  0.000000e+000  0.000000e+000
    outer loop
      vertex  8.500000e+000  2.800000e+001 -2.500000e+000
      vertex  8.500000e+000  2.600000e+001  0.000000e+000
      vertex  8.500000e+000  2.600000e+001 -4.000000e+000
    endloop
  endfacet
  facet normal  1.000000e+000  -0.000000e+000  0.000000e+000
    outer loop
      vertex  8.500000e+000  2.800000e+001 -2.500000e+000
      vertex  8.500000e+000  2.600000e+001 -4.000000e+000
      vertex  8.500000e+000  2.726314e+001 -5.250000e+000
    endloop
  endfacet
  facet normal  1.000000e+000  -0.000000e+000  0.000000e+000
    outer loop
      vertex  8.500000e+000  2.600000e+001 -4.000000e+000
      vertex  8.500000e+000 -2.600000e+001 -4.000000e+000
      vertex  8.500000e+000  2.726314e+001 -5.250000e+000
    endloop
  endfacet
  facet normal  1.000000e+000  0.000000e+000  0.000000e+000
    outer loop
      vertex  8.500000e+000  2.726314e+001 -5.250000e+000
      vertex  8.500000e+000 -2.600000e+001 -4.000000e+000
      vertex  8.500000e+000 -2.726314e+001 -5.250000e+000
    endloop
  endfacet
  facet normal  9.999999e-001  -0.000000e+000  0.000000e+000
    outer loop
      vertex  8.500000e+000  2.726314e+001 -5.250000e+000
      vertex  8.500000e+000 -2.726314e+001 -5.250000e+000
      vertex  8.500000e+000  2.525000e+001 -7.263140e+000
    endloop
  endfacet
  facet normal  1.000000e+000  0.000000e+000  0.000000e+000
    outer loop
      vertex  8.500000e+000  2.525000e+001 -7.263140e+000
      vertex  8.500000e+000 -2.726314e+001 -5.250000e+000
      vertex  8.500000e+000 -2.525000e+001 -7.263140e+000
    endloop
  endfacet
  facet normal  1.000000e+000  -0.000000e+000  0.000000e+000
    outer loop
      vertex  8.500000e+000  2.525000e+001 -7.263140e+000
      vertex  8.500000e+000 -2.525000e+001 -7.263140e+000
      vertex  8.500000e+000  2.250000e+001 -8.000000e+000
    endloop
  endfacet
  facet normal  1.000000e+000  0.000000e+000  0.000000e+000
    outer loop
      vertex  8.500000e+000  2.250000e+001 -8.000000e+000
      vertex  8.500000e+000 -2.525000e+001 -7.263140e+000
      vertex  8.500000e+000 -2.250000e+001 -8.000000e+000
    endloop
  endfacet
  facet normal  1.000000e+000  -0.000000e+000  0.000000e+000
    outer loop
      vertex  8.500000e+000 -2.600000e+001  3.552714e-015
      vertex  8.500000e+000 -2.800000e+001  0.000000e+000
      vertex  8.500000e+000 -2.600000e+001 -4.000000e+000
    endloop
  endfacet
  facet normal  1.000000e+000  0.000000e+000  0.000000e+000
    outer loop
      vertex  8.500000e+000 -2.600000e+001 -4.000000e+000
      vertex  8.500000e+000 -2.800000e+001  0.000000e+000
      vertex  8.500000e+000 -2.800000e+001 -2.500000e+000
    endloop
  endfacet
  facet normal  1.000000e+000  0.000000e+000  0.000000e+000
    outer loop
      vertex  8.500000e+000 -2.600000e+001 -4.000000e+000
      vertex  8.500000e+000 -2.800000e+001 -2.500000e+000
      vertex  8.500000e+000 -2.726314e+001 -5.250000e+000
    endloop
  endfacet
  facet normal  -0.000000e+000 -1.950905e-001 -9.807852e-001
    outer loop
      vertex  0.000000e+000 -2.250000e+001 -1.000000e+001
      vertex  6.500000e+000 -2.250000e+001 -1.000000e+001
      vertex  0.000000e+000 -2.537012e+001 -9.429096e+000
    endloop
  endfacet
  facet normal  0.000000e+000 -1.950905e-001 -9.807852e-001
    outer loop
      vertex  0.000000e+000 -2.537012e+001 -9.429096e+000
      vertex  6.500000e+000 -2.250000e+001 -1.000000e+001
      vertex  6.500000e+000 -2.537012e+001 -9.429096e+000
    endloop
  endfacet
  facet normal  -0.000000e+000 -5.555700e-001 -8.314697e-001
    outer loop
      vertex  0.000000e+000 -2.537012e+001 -9.429096e+000
      vertex  6.500000e+000 -2.537012e+001 -9.429096e+000
      vertex  0.000000e+000 -2.780330e+001 -7.803301e+000
    endloop
  endfacet
  facet normal  0.000000e+000 -5.555700e-001 -8.314697e-001
    outer loop
      vertex  0.000000e+000 -2.780330e+001 -7.803301e+000
      vertex  6.500000e+000 -2.537012e+001 -9.429096e+000
      vertex  6.500000e+000 -2.780330e+001 -7.803301e+000
    endloop
  endfacet
  facet normal  -0.000000e+000 -8.314696e-001 -5.555702e-001
    outer loop
      vertex  0.000000e+000 -2.780330e+001 -7.803301e+000
      vertex  6.500000e+000 -2.780330e+001 -7.803301e+000
      vertex  0.000000e+000 -2.942910e+001 -5.370126e+000
    endloop
  endfacet
  facet normal  0.000000e+000 -8.314696e-001 -5.555702e-001
    outer loop
      vertex  0.000000e+000 -2.942910e+001 -5.370126e+000
      vertex  6.500000e+000 -2.780330e+001 -7.803301e+000
      vertex  6.500000e+000 -2.942910e+001 -5.370126e+000
    endloop
  endfacet
  facet normal  -0.000000e+000 -9.807853e-001 -1.950904e-001
    outer loop
      vertex  0.000000e+000 -2.942910e+001 -5.370126e+000
      vertex  6.500000e+000 -2.942910e+001 -5.370126e+000
      vertex  0.000000e+000 -3.000000e+001 -2.500000e+000
    endloop
  endfacet
  facet normal  0.000000e+000 -9.807853e-001 -1.950904e-001
    outer loop
      vertex  0.000000e+000 -3.000000e+001 -2.500000e+000
      vertex  6.500000e+000 -2.942910e+001 -5.370126e+000
      vertex  6.500000e+000 -3.000000e+001 -2.500000e+000
    endloop
  endfacet
  facet normal  3.826836e-001 -9.238794e-001  0.000000e+000
    outer loop
      vertex  6.500000e+000 -3.000000e+001  3.552714e-015
      vertex  6.500000e+000 -3.000000e+001 -2.500000e+000
      vertex  7.914214e+000 -2.941421e+001  0.000000e+000
    endloop
  endfacet
  facet normal  3.826836e-001 -9.238794e-001  0.000000e+000
    outer loop
      vertex  7.914214e+000 -2.941421e+001  0.000000e+000
      vertex  6.500000e+000 -3.000000e+001 -2.500000e+000
      vertex  7.914214e+000 -2.941421e+001 -2.500000e+000
    endloop
  endfacet
  facet normal  9.238795e-001 -3.826835e-001  0.000000e+000
    outer loop
      vertex  7.914214e+000 -2.941421e+001  0.000000e+000
      vertex  7.914214e+000 -2.941421e+001 -2.500000e+000
      vertex  8.500000e+000 -2.800000e+001  0.000000e+000
    endloop
  endfacet
  facet normal  9.238795e-001 -3.826835e-001  0.000000e+000
    outer loop
      vertex  8.500000e+000 -2.800000e+001  0.000000e+000
      vertex  7.914214e+000 -2.941421e+001 -2.500000e+000
      vertex  8.500000e+000 -2.800000e+001 -2.500000e+000
    endloop
  endfacet
  facet normal  9.238796e-001  3.826835e-001  -0.000000e+000
    outer loop
      vertex  8.500000e+000  2.800000e+001  0.000000e+000
      vertex  8.500000e+000  2.800000e+001 -2.500000e+000
      vertex  7.914214e+000  2.941421e+001  0.000000e+000
    endloop
  endfacet
  facet normal  9.238795e-001  3.826835e-001  0.000000e+000
    outer loop
      vertex  7.914214e+000  2.941421e+001  0.000000e+000
      vertex  8.500000e+000  2.800000e+001 -2.500000e+000
      vertex  7.914214e+000  2.941421e+001 -2.500000e+000
    endloop
  endfacet
  facet normal  3.826836e-001  9.238794e-001  -0.000000e+000
    outer loop
      vertex  7.914214e+000  2.941421e+001  0.000000e+000
      vertex  7.914214e+000  2.941421e+001 -2.500000e+000
      vertex  6.500000e+000  3.000000e+001  0.000000e+000
    endloop
  endfacet
  facet normal  3.826836e-001  9.238794e-001  0.000000e+000
    outer loop
      vertex  6.500000e+000  3.000000e+001  0.000000e+000
      vertex  7.914214e+000  2.941421e+001 -2.500000e+000
      vertex  6.500000e+000  3.000000e+001 -2.500000e+000
    endloop
  endfacet
  facet normal  9.212145e-001  3.815795e-001 -7.590070e-002
    outer loop
      vertex  8.500000e+000  2.800000e+001 -2.500000e+000
      vertex  7.914214e+000  2.888790e+001 -5.145955e+000
      vertex  7.914214e+000  2.941421e+001 -2.500000e+000
    endloop
  endfacet
  facet normal  9.348545e-001  3.429337e-001 -9.188882e-002
    outer loop
      vertex  8.500000e+000  2.800000e+001 -2.500000e+000
      vertex  8.500000e+000  2.726314e+001 -5.250000e+000
      vertex  7.914214e+000  2.888790e+001 -5.145955e+000
    endloop
  endfacet
  facet normal  9.348543e-001  9.188887e-002 -3.429339e-001
    outer loop
      vertex  8.500000e+000  2.250000e+001 -8.000000e+000
      vertex  7.914214e+000  2.514595e+001 -8.887900e+000
      vertex  8.500000e+000  2.525000e+001 -7.263140e+000
    endloop
  endfacet
  facet normal  9.212145e-001  7.590088e-002 -3.815796e-001
    outer loop
      vertex  8.500000e+000  2.250000e+001 -8.000000e+000
      vertex  7.914214e+000  2.250000e+001 -9.414213e+000
      vertex  7.914214e+000  2.514595e+001 -8.887900e+000
    endloop
  endfacet
  facet normal  9.391555e-001  2.428856e-001 -2.428856e-001
    outer loop
      vertex  7.914214e+000  2.738909e+001 -7.389087e+000
      vertex  8.500000e+000  2.726314e+001 -5.250000e+000
      vertex  8.500000e+000  2.525000e+001 -7.263140e+000
    endloop
  endfacet
  facet normal  9.108970e-001  2.292470e-001 -3.430925e-001
    outer loop
      vertex  7.914214e+000  2.738909e+001 -7.389087e+000
      vertex  8.500000e+000  2.525000e+001 -7.263140e+000
      vertex  7.914214e+000  2.514595e+001 -8.887900e+000
    endloop
  endfacet
  facet normal  9.108971e-001  3.430921e-001 -2.292469e-001
    outer loop
      vertex  7.914214e+000  2.888790e+001 -5.145955e+000
      vertex  8.500000e+000  2.726314e+001 -5.250000e+000
      vertex  7.914214e+000  2.738909e+001 -7.389087e+000
    endloop
  endfacet
  facet normal  3.763808e-001  1.807443e-001 -9.086632e-001
    outer loop
      vertex  7.914214e+000  2.250000e+001 -9.414213e+000
      vertex  6.500000e+000  2.250000e+001 -1.000000e+001
      vertex  7.914214e+000  2.514595e+001 -8.887900e+000
    endloop
  endfacet
  facet normal  3.763806e-001  1.807445e-001 -9.086634e-001
    outer loop
      vertex  7.914214e+000  2.514595e+001 -8.887900e+000
      vertex  6.500000e+000  2.250000e+001 -1.000000e+001
      vertex  6.500000e+000  2.537012e+001 -9.429096e+000
    endloop
  endfacet
  facet normal  3.763805e-001  5.147163e-001 -7.703277e-001
    outer loop
      vertex  7.914214e+000  2.514595e+001 -8.887900e+000
      vertex  6.500000e+000  2.537012e+001 -9.429096e+000
      vertex  7.914214e+000  2.738909e+001 -7.389087e+000
    endloop
  endfacet
  facet normal  3.763805e-001  5.147162e-001 -7.703277e-001
    outer loop
      vertex  7.914214e+000  2.738909e+001 -7.389087e+000
      vertex  6.500000e+000  2.537012e+001 -9.429096e+000
      vertex  6.500000e+000  2.780330e+001 -7.803301e+000
    endloop
  endfacet
  facet normal  3.763805e-001  7.703275e-001 -5.147166e-001
    outer loop
      vertex  7.914214e+000  2.738909e+001 -7.389087e+000
      vertex  6.500000e+000  2.780330e+001 -7.803301e+000
      vertex  7.914214e+000  2.888790e+001 -5.145955e+000
    endloop
  endfacet
  facet normal  3.763801e-001  7.703278e-001 -5.147165e-001
    outer loop
      vertex  7.914214e+000  2.888790e+001 -5.145955e+000
      vertex  6.500000e+000  2.780330e+001 -7.803301e+000
      vertex  6.500000e+000  2.942910e+001 -5.370126e+000
    endloop
  endfacet
  facet normal  3.763800e-001  9.086637e-001 -1.807440e-001
    outer loop
      vertex  7.914214e+000  2.888790e+001 -5.145955e+000
      vertex  6.500000e+000  2.942910e+001 -5.370126e+000
      vertex  7.914214e+000  2.941421e+001 -2.500000e+000
    endloop
  endfacet
  facet normal  3.763809e-001  9.086632e-001 -1.807444e-001
    outer loop
      vertex  7.914214e+000  2.941421e+001 -2.500000e+000
      vertex  6.500000e+000  2.942910e+001 -5.370126e+000
      vertex  6.500000e+000  3.000000e+001 -2.500000e+000
    endloop
  endfacet
  facet normal  3.826836e-001  0.000000e+000 -9.238794e-001
    outer loop
      vertex  6.500000e+000 -2.250000e+001 -1.000000e+001
      vertex  6.500000e+000  2.250000e+001 -1.000000e+001
      vertex  7.914214e+000 -2.250000e+001 -9.414213e+000
    endloop
  endfacet
  facet normal  3.826836e-001  0.000000e+000 -9.238794e-001
    outer loop
      vertex  7.914214e+000 -2.250000e+001 -9.414213e+000
      vertex  6.500000e+000  2.250000e+001 -1.000000e+001
      vertex  7.914214e+000  2.250000e+001 -9.414213e+000
    endloop
  endfacet
  facet normal  9.238795e-001  0.000000e+000 -3.826835e-001
    outer loop
      vertex  7.914214e+000 -2.250000e+001 -9.414213e+000
      vertex  7.914214e+000  2.250000e+001 -9.414213e+000
      vertex  8.500000e+000 -2.250000e+001 -8.000000e+000
    endloop
  endfacet
  facet normal  9.238795e-001  0.000000e+000 -3.826835e-001
    outer loop
      vertex  8.500000e+000 -2.250000e+001 -8.000000e+000
      vertex  7.914214e+000  2.250000e+001 -9.414213e+000
      vertex  8.500000e+000  2.250000e+001 -8.000000e+000
    endloop
  endfacet
  facet normal  9.212145e-001 -7.590088e-002 -3.815796e-001
    outer loop
      vertex  8.500000e+000 -2.250000e+001 -8.000000e+000
      vertex  7.914214e+000 -2.514595e+001 -8.887900e+000
      vertex  7.914214e+000 -2.250000e+001 -9.414213e+000
    endloop
  endfacet
  facet normal  9.348543e-001 -9.188887e-002 -3.429339e-001
    outer loop
      vertex  8.500000e+000 -2.250000e+001 -8.000000e+000
      vertex  8.500000e+000 -2.525000e+001 -7.263140e+000
      vertex  7.914214e+000 -2.514595e+001 -8.887900e+000
    endloop
  endfacet
  facet normal  9.348545e-001 -3.429337e-001 -9.188882e-002
    outer loop
      vertex  8.500000e+000 -2.800000e+001 -2.500000e+000
      vertex  7.914214e+000 -2.888790e+001 -5.145955e+000
      vertex  8.500000e+000 -2.726314e+001 -5.250000e+000
    endloop
  endfacet
  facet normal  9.212145e-001 -3.815796e-001 -7.590070e-002
    outer loop
      vertex  8.500000e+000 -2.800000e+001 -2.500000e+000
      vertex  7.914214e+000 -2.941421e+001 -2.500000e+000
      vertex  7.914214e+000 -2.888790e+001 -5.145955e+000
    endloop
  endfacet
  facet normal  9.391555e-001 -2.428856e-001 -2.428856e-001
    outer loop
      vertex  7.914214e+000 -2.738909e+001 -7.389087e+000
      vertex  8.500000e+000 -2.525000e+001 -7.263140e+000
      vertex  8.500000e+000 -2.726314e+001 -5.250000e+000
    endloop
  endfacet
  facet normal  9.108971e-001 -3.430922e-001 -2.292470e-001
    outer loop
      vertex  7.914214e+000 -2.738909e+001 -7.389087e+000
      vertex  8.500000e+000 -2.726314e+001 -5.250000e+000
      vertex  7.914214e+000 -2.888790e+001 -5.145955e+000
    endloop
  endfacet
  facet normal  9.108970e-001 -2.292470e-001 -3.430925e-001
    outer loop
      vertex  7.914214e+000 -2.514595e+001 -8.887900e+000
      vertex  8.500000e+000 -2.525000e+001 -7.263140e+000
      vertex  7.914214e+000 -2.738909e+001 -7.389087e+000
    endloop
  endfacet
  facet normal  3.763809e-001 -9.086633e-001 -1.807439e-001
    outer loop
      vertex  7.914214e+000 -2.941421e+001 -2.500000e+000
      vertex  6.500000e+000 -3.000000e+001 -2.500000e+000
      vertex  7.914214e+000 -2.888790e+001 -5.145955e+000
    endloop
  endfacet
  facet normal  3.763800e-001 -9.086636e-001 -1.807445e-001
    outer loop
      vertex  7.914214e+000 -2.888790e+001 -5.145955e+000
      vertex  6.500000e+000 -3.000000e+001 -2.500000e+000
      vertex  6.500000e+000 -2.942910e+001 -5.370126e+000
    endloop
  endfacet
  facet normal  3.763801e-001 -7.703277e-001 -5.147167e-001
    outer loop
      vertex  7.914214e+000 -2.888790e+001 -5.145955e+000
      vertex  6.500000e+000 -2.942910e+001 -5.370126e+000
      vertex  7.914214e+000 -2.738909e+001 -7.389087e+000
    endloop
  endfacet
  facet normal  3.763805e-001 -7.703277e-001 -5.147164e-001
    outer loop
      vertex  7.914214e+000 -2.738909e+001 -7.389087e+000
      vertex  6.500000e+000 -2.942910e+001 -5.370126e+000
      vertex  6.500000e+000 -2.780330e+001 -7.803301e+000
    endloop
  endfacet
  facet normal  3.763805e-001 -5.147163e-001 -7.703277e-001
    outer loop
      vertex  7.914214e+000 -2.738909e+001 -7.389087e+000
      vertex  6.500000e+000 -2.780330e+001 -7.803301e+000
      vertex  7.914214e+000 -2.514595e+001 -8.887900e+000
    endloop
  endfacet
  facet normal  3.763805e-001 -5.147162e-001 -7.703277e-001
    outer loop
      vertex  7.914214e+000 -2.514595e+001 -8.887900e+000
      vertex  6.500000e+000 -2.780330e+001 -7.803301e+000
      vertex  6.500000e+000 -2.537012e+001 -9.429096e+000
    endloop
  endfacet
  facet normal  3.763805e-001 -1.807443e-001 -9.086635e-001
    outer loop
      vertex  7.914214e+000 -2.514595e+001 -8.887900e+000
      vertex  6.500000e+000 -2.537012e+001 -9.429096e+000
      vertex  7.914214e+000 -2.250000e+001 -9.414213e+000
    endloop
  endfacet
  facet normal  3.763809e-001 -1.807445e-001 -9.086632e-001
    outer loop
      vertex  7.914214e+000 -2.250000e+001 -9.414213e+000
      vertex  6.500000e+000 -2.537012e+001 -9.429096e+000
      vertex  6.500000e+000 -2.250000e+001 -1.000000e+001
    endloop
  endfacet
  facet normal -1.000000e+000  0.000000e+000  0.000000e+000
    outer loop
      vertex  0.000000e+000  2.942910e+001 -5.370126e+000
      vertex  0.000000e+000 -3.000000e+001 -2.500000e+000
      vertex  0.000000e+000  3.000000e+001 -2.500000e+000
    endloop
  endfacet
  facet normal -1.000000e+000  0.000000e+000  0.000000e+000
    outer loop
      vertex  0.000000e+000  3.000000e+001 -2.500000e+000
      vertex  0.000000e+000 -3.000000e+001 -2.500000e+000
      vertex  0.000000e+000 -3.000000e+001  3.552714e-015
    endloop
  endfacet
  facet normal -1.000000e+000  0.000000e+000  0.000000e+000
    outer loop
      vertex  0.000000e+000  3.000000e+001 -2.500000e+000
      vertex  0.000000e+000 -3.000000e+001  3.552714e-015
      vertex  0.000000e+000  3.000000e+001  0.000000e+000
    endloop
  endfacet
  facet normal -1.000000e+000  0.000000e+000  0.000000e+000
    outer loop
      vertex  0.000000e+000 -3.000000e+001 -2.500000e+000
      vertex  0.000000e+000  2.942910e+001 -5.370126e+000
      vertex  0.000000e+000 -2.942910e+001 -5.370126e+000
    endloop
  endfacet
  facet normal -1.000000e+000  0.000000e+000  0.000000e+000
    outer loop
      vertex  0.000000e+000 -2.942910e+001 -5.370126e+000
      vertex  0.000000e+000  2.942910e+001 -5.370126e+000
      vertex  0.000000e+000  2.780330e+001 -7.803301e+000
    endloop
  endfacet
  facet normal -1.000000e+000  0.000000e+000  0.000000e+000
    outer loop
      vertex  0.000000e+000 -2.942910e+001 -5.370126e+000
      vertex  0.000000e+000  2.780330e+001 -7.803301e+000
      vertex  0.000000e+000 -2.780330e+001 -7.803301e+000
    endloop
  endfacet
  facet normal -1.000000e+000  0.000000e+000  0.000000e+000
    outer loop
      vertex  0.000000e+000 -2.780330e+001 -7.803301e+000
      vertex  0.000000e+000  2.780330e+001 -7.803301e+000
      vertex  0.000000e+000  2.537012e+001 -9.429096e+000
    endloop
  endfacet
  facet normal -1.000000e+000  0.000000e+000  0.000000e+000
    outer loop
      vertex  0.000000e+000 -2.780330e+001 -7.803301e+000
      vertex  0.000000e+000  2.537012e+001 -9.429096e+000
      vertex  0.000000e+000 -2.537012e+001 -9.429096e+000
    endloop
  endfacet
  facet normal -1.000000e+000  0.000000e+000  0.000000e+000
    outer loop
      vertex  0.000000e+000 -2.537012e+001 -9.429096e+000
      vertex  0.000000e+000  2.537012e+001 -9.429096e+000
      vertex  0.000000e+000  2.250000e+001 -1.000000e+001
    endloop
  endfacet
  facet normal -1.000000e+000  0.000000e+000  0.000000e+000
    outer loop
      vertex  0.000000e+000 -2.537012e+001 -9.429096e+000
      vertex  0.000000e+000  2.250000e+001 -1.000000e+001
      vertex  0.000000e+000 -2.250000e+001 -1.000000e+001
    endloop
  endfacet
  facet normal  0.000000e+000  1.000000e+000  0.000000e+000
    outer loop
      vertex  8.500000e+000  2.600000e+001 -4.000000e+000
      vertex  8.500000e+000  2.600000e+001  0.000000e+000
      vertex  1.050000e+001  2.600000e+001 -4.000000e+000
    endloop
  endfacet
  facet normal  0.000000e+000  1.000000e+000  -0.000000e+000
    outer loop
      vertex  1.050000e+001  2.600000e+001 -4.000000e+000
      vertex  8.500000e+000  2.600000e+001  0.000000e+000
      vertex  1.050000e+001  2.600000e+001 -7.350339e-031
    endloop
  endfacet
  facet normal  0.000000e+000 -1.000000e+000  0.000000e+000
    outer loop
      vertex  8.500000e+000 -2.600000e+001  3.552714e-015
      vertex  8.500000e+000 -2.600000e+001 -4.000000e+000
      vertex  1.050000e+001 -2.600000e+001  3.552714e-015
    endloop
  endfacet
  facet normal  0.000000e+000 -1.000000e+000  -0.000000e+000
    outer loop
      vertex  1.050000e+001 -2.600000e+001  3.552714e-015
      vertex  8.500000e+000 -2.600000e+001 -4.000000e+000
      vertex  1.050000e+001 -2.600000e+001 -4.000000e+000
    endloop
  endfacet
  facet normal  0.000000e+000  0.000000e+000 -1.000000e+000
    outer loop
      vertex  1.050000e+001  2.600000e+001 -4.000000e+000
      vertex  1.050000e+001 -2.600000e+001 -4.000000e+000
      vertex  8.500000e+000  2.600000e+001 -4.000000e+000
    endloop
  endfacet
  facet normal  0.000000e+000  0.000000e+000 -1.000000e+000
    outer loop
      vertex  8.500000e+000  2.600000e+001 -4.000000e+000
      vertex  1.050000e+001 -2.600000e+001 -4.000000e+000
      vertex  8.500000e+000 -2.600000e+001 -4.000000e+000
    endloop
  endfacet
  facet normal  1.000000e+000  0.000000e+000  0.000000e+000
    outer loop
      vertex  1.050000e+001 -2.600000e+001 -4.000000e+000
      vertex  1.050000e+001  2.600000e+001 -4.000000e+000
      vertex  1.050000e+001 -2.600000e+001  3.552714e-015
    endloop
  endfacet
  facet normal  1.000000e+000  0.000000e+000  0.000000e+000
    outer loop
      vertex  1.050000e+001 -2.600000e+001  3.552714e-015
      vertex  1.050000e+001  2.600000e+001 -4.000000e+000
      vertex  1.050000e+001  2.600000e+001 -7.350339e-031
    endloop
  endfacet
endsolid CATIA STL
