solid CATIA STL
  facet normal -1.000000e+000  0.000000e+000  0.000000e+000
    outer loop
      vertex  0.000000e+000  1.300000e+001  3.000000e+000
      vertex  0.000000e+000  1.500000e+001  1.000000e+000
      vertex  0.000000e+000  1.000000e+001  3.000000e+000
    endloop
  endfacet
  facet normal -1.000000e+000  0.000000e+000  0.000000e+000
    outer loop
      vertex  0.000000e+000  1.000000e+001  3.000000e+000
      vertex  0.000000e+000  1.500000e+001  1.000000e+000
      vertex  0.000000e+000  1.500000e+001 -1.776357e-015
    endloop
  endfacet
  facet normal -1.000000e+000 -1.224606e-016 -2.041011e-016
    outer loop
      vertex  0.000000e+000  1.000000e+001  3.000000e+000
      vertex  0.000000e+000  1.500000e+001 -1.776357e-015
      vertex  6.123032e-016  1.000000e+001  2.486900e-014
    endloop
  endfacet
  facet normal  -0.000000e+000  0.000000e+000  9.999999e-001
    outer loop
      vertex  2.000000e+000  1.300000e+001  3.000000e+000
      vertex  0.000000e+000  1.300000e+001  3.000000e+000
      vertex  2.000000e+000  9.797959e+000  3.000000e+000
    endloop
  endfacet
  facet normal  0.000000e+000  0.000000e+000  1.000000e+000
    outer loop
      vertex  2.000000e+000  9.797959e+000  3.000000e+000
      vertex  0.000000e+000  1.300000e+001  3.000000e+000
      vertex  0.000000e+000  1.000000e+001  3.000000e+000
    endloop
  endfacet
  facet normal  9.999999e-001  0.000000e+000  0.000000e+000
    outer loop
      vertex  2.000000e+000  9.797959e+000  2.458034e-014
      vertex  2.000000e+000  1.500000e+001 -1.776357e-015
      vertex  2.000000e+000  9.797959e+000  3.000000e+000
    endloop
  endfacet
  facet normal  1.000000e+000  0.000000e+000  0.000000e+000
    outer loop
      vertex  2.000000e+000  9.797959e+000  3.000000e+000
      vertex  2.000000e+000  1.500000e+001 -1.776357e-015
      vertex  2.000000e+000  1.500000e+001  1.000000e+000
    endloop
  endfacet
  facet normal  9.999999e-001  0.000000e+000  0.000000e+000
    outer loop
      vertex  2.000000e+000  9.797959e+000  3.000000e+000
      vertex  2.000000e+000  1.500000e+001  1.000000e+000
      vertex  2.000000e+000  1.300000e+001  3.000000e+000
    endloop
  endfacet
  facet normal  0.000000e+000  1.000000e+000  -0.000000e+000
    outer loop
      vertex  2.000000e+000  1.500000e+001  1.000000e+000
      vertex  2.000000e+000  1.500000e+001 -1.776357e-015
      vertex  0.000000e+000  1.500000e+001  1.000000e+000
    endloop
  endfacet
  facet normal  0.000000e+000  1.000000e+000  0.000000e+000
    outer loop
      vertex  0.000000e+000  1.500000e+001  1.000000e+000
      vertex  2.000000e+000  1.500000e+001 -1.776357e-015
      vertex  0.000000e+000  1.500000e+001 -1.776357e-015
    endloop
  endfacet
  facet normal  0.000000e+000  7.071068e-001  7.071068e-001
    outer loop
      vertex  0.000000e+000  1.300000e+001  3.000000e+000
      vertex  2.000000e+000  1.300000e+001  3.000000e+000
      vertex  0.000000e+000  1.500000e+001  1.000000e+000
    endloop
  endfacet
  facet normal  -0.000000e+000  7.071068e-001  7.071068e-001
    outer loop
      vertex  0.000000e+000  1.500000e+001  1.000000e+000
      vertex  2.000000e+000  1.300000e+001  3.000000e+000
      vertex  2.000000e+000  1.500000e+001  1.000000e+000
    endloop
  endfacet
  facet normal  -0.000000e+000 -5.329071e-015 -1.000000e+000
    outer loop
      vertex  0.000000e+000  1.500000e+001 -1.776357e-015
      vertex  2.000000e+000  1.500000e+001 -1.776357e-015
      vertex  6.123032e-016  1.000000e+001  2.486900e-014
    endloop
  endfacet
  facet normal -1.443291e-016 -3.314377e-023 -1.000000e+000
    outer loop
      vertex -1.836910e-015 -1.000000e+001  2.486900e-014
      vertex -3.494014e+000 -9.369732e+000  2.537328e-014
      vertex -3.383216e+000  9.410306e+000  2.535729e-014
    endloop
  endfacet
  facet normal -1.443289e-016  0.000000e+000 -1.000000e+000
    outer loop
      vertex -1.836910e-015 -1.000000e+001  2.486900e-014
      vertex -3.383216e+000  9.410306e+000  2.535729e-014
      vertex  6.123032e-016  1.000000e+001  2.486900e-014
    endloop
  endfacet
  facet normal -1.332268e-014  1.631503e-030 -1.000000e+000
    outer loop
      vertex -1.836910e-015 -1.000000e+001  2.486900e-014
      vertex  6.123032e-016  1.000000e+001  2.486900e-014
      vertex  2.000000e+000  1.500000e+001 -1.776357e-015
    endloop
  endfacet
  facet normal  5.000991e-014 -5.066607e-015 -1.000000e+000
    outer loop
      vertex -1.836910e-015 -1.000000e+001  2.486900e-014
      vertex  2.000000e+000  1.500000e+001 -1.776357e-015
      vertex  2.000000e+000  9.797959e+000  2.458034e-014
    endloop
  endfacet
  facet normal -1.443293e-016  -0.000000e+000 -1.000000e+000
    outer loop
      vertex -1.836910e-015 -1.000000e+001  2.486900e-014
      vertex  2.000000e+000  9.797959e+000  2.458034e-014
      vertex  2.000000e+000 -9.797959e+000  2.458034e-014
    endloop
  endfacet
  facet normal -1.243450e-014  1.216603e-013 -1.000000e+000
    outer loop
      vertex -1.836910e-015 -1.000000e+001  2.486900e-014
      vertex  2.000000e+000 -9.797959e+000  2.458034e-014
      vertex  2.000000e+000 -1.000000e+001  0.000000e+000
    endloop
  endfacet
  facet normal -1.443290e-016 -4.502753e-023 -1.000000e+000
    outer loop
      vertex  4.716585e+000  8.817813e+000  2.418826e-014
      vertex  7.039783e+000  7.102215e+000  2.385295e-014
      vertex  5.440409e+000 -8.390587e+000  2.408379e-014
    endloop
  endfacet
  facet normal -1.443288e-016 -6.469318e-023 -1.000000e+000
    outer loop
      vertex  5.440409e+000 -8.390587e+000  2.408379e-014
      vertex  7.039783e+000  7.102215e+000  2.385295e-014
      vertex  8.775826e+000  4.794255e+000  2.360239e-014
    endloop
  endfacet
  facet normal -1.443292e-016  1.975459e-023 -1.000000e+000
    outer loop
      vertex  5.440409e+000 -8.390587e+000  2.408379e-014
      vertex  8.775826e+000  4.794255e+000  2.360239e-014
      vertex  8.129110e+000 -5.823879e+000  2.369573e-014
    endloop
  endfacet
  facet normal -1.443293e-016  2.830544e-023 -1.000000e+000
    outer loop
      vertex  8.129110e+000 -5.823879e+000  2.369573e-014
      vertex  8.775826e+000  4.794255e+000  2.360239e-014
      vertex  9.920584e+000  1.257783e+000  2.343717e-014
    endloop
  endfacet
  facet normal -1.443287e-016 -1.314144e-022 -1.000000e+000
    outer loop
      vertex  8.129110e+000 -5.823879e+000  2.369573e-014
      vertex  9.920584e+000  1.257783e+000  2.343717e-014
      vertex  9.694604e+000 -2.452479e+000  2.346978e-014
    endloop
  endfacet
  facet normal -1.443288e-016  0.000000e+000 -1.000000e+000
    outer loop
      vertex  2.000000e+000  9.797959e+000  2.458034e-014
      vertex  4.716585e+000  8.817813e+000  2.418826e-014
      vertex  2.000000e+000 -9.797959e+000  2.458034e-014
    endloop
  endfacet
  facet normal -1.443286e-016 -2.700703e-023 -1.000000e+000
    outer loop
      vertex  2.000000e+000 -9.797959e+000  2.458034e-014
      vertex  4.716585e+000  8.817813e+000  2.418826e-014
      vertex  5.440409e+000 -8.390587e+000  2.408379e-014
    endloop
  endfacet
  facet normal -1.443289e-016 -3.451947e-023 -9.999999e-001
    outer loop
      vertex -6.547594e+000 -7.558374e+000  2.581400e-014
      vertex -3.383216e+000  9.410306e+000  2.535729e-014
      vertex -3.494014e+000 -9.369732e+000  2.537328e-014
    endloop
  endfacet
  facet normal -1.443293e-016  3.860676e-023 -1.000000e+000
    outer loop
      vertex -3.383216e+000  9.410306e+000  2.535729e-014
      vertex -6.547594e+000 -7.558374e+000  2.581400e-014
      vertex -6.367419e+000  7.710770e+000  2.578800e-014
    endloop
  endfacet
  facet normal -1.443288e-016  3.283715e-023 -1.000000e+000
    outer loop
      vertex -6.367419e+000  7.710770e+000  2.578800e-014
      vertex -6.547594e+000 -7.558374e+000  2.581400e-014
      vertex -8.775826e+000 -4.794255e+000  2.613560e-014
    endloop
  endfacet
  facet normal -1.443285e-016 -2.281467e-023 -1.000000e+000
    outer loop
      vertex -6.367419e+000  7.710770e+000  2.578800e-014
      vertex -8.775826e+000 -4.794255e+000  2.613560e-014
      vertex -8.600656e+000  5.101835e+000  2.611032e-014
    endloop
  endfacet
  facet normal -1.443298e-016  1.134022e-024 -1.000000e+000
    outer loop
      vertex -8.600656e+000  5.101835e+000  2.611032e-014
      vertex -8.775826e+000 -4.794255e+000  2.613560e-014
      vertex -9.880321e+000 -1.542490e+000  2.629501e-014
    endloop
  endfacet
  facet normal -1.443277e-016 -4.046070e-022 -1.000000e+000
    outer loop
      vertex -8.600656e+000  5.101835e+000  2.611032e-014
      vertex -9.880321e+000 -1.542490e+000  2.629501e-014
      vertex -9.819541e+000  1.891196e+000  2.628624e-014
    endloop
  endfacet
  facet normal  0.000000e+000  -0.000000e+000  1.000000e+000
    outer loop
      vertex  0.000000e+000 -1.000000e+001  3.000000e+000
      vertex  2.000000e+000 -1.000000e+001  3.000000e+000
      vertex  2.000000e+000 -9.797959e+000  3.000000e+000
    endloop
  endfacet
  facet normal  1.000000e+000  0.000000e+000  0.000000e+000
    outer loop
      vertex  2.000000e+000 -1.000000e+001  0.000000e+000
      vertex  2.000000e+000 -9.797959e+000  2.458034e-014
      vertex  2.000000e+000 -1.000000e+001  3.000000e+000
    endloop
  endfacet
  facet normal  1.000000e+000  -0.000000e+000  0.000000e+000
    outer loop
      vertex  2.000000e+000 -1.000000e+001  3.000000e+000
      vertex  2.000000e+000 -9.797959e+000  2.458034e-014
      vertex  2.000000e+000 -9.797959e+000  3.000000e+000
    endloop
  endfacet
  facet normal  0.000000e+000 -1.000000e+000  -0.000000e+000
    outer loop
      vertex  2.000000e+000 -1.000000e+001  0.000000e+000
      vertex  2.000000e+000 -1.000000e+001  3.000000e+000
      vertex -1.836910e-015 -1.000000e+001  2.486900e-014
    endloop
  endfacet
  facet normal  0.000000e+000 -1.000000e+000  0.000000e+000
    outer loop
      vertex -1.836910e-015 -1.000000e+001  2.486900e-014
      vertex  2.000000e+000 -1.000000e+001  3.000000e+000
      vertex  0.000000e+000 -1.000000e+001  3.000000e+000
    endloop
  endfacet
  facet normal -9.956422e-001  8.889567e-002  2.818222e-002
    outer loop
      vertex -9.942488e+000 -1.070951e+000  5.000000e+000
      vertex -9.595496e+000  2.815395e+000  5.000000e+000
      vertex -9.819541e+000  1.891196e+000  2.628624e-014
    endloop
  endfacet
  facet normal -9.346327e-001  3.548234e-001 -2.370563e-002
    outer loop
      vertex -8.600656e+000  5.101835e+000  2.611032e-014
      vertex -9.819541e+000  1.891196e+000  2.628624e-014
      vertex -9.595496e+000  2.815395e+000  5.000000e+000
    endloop
  endfacet
  facet normal -8.856270e-001  4.630361e-001  3.552932e-002
    outer loop
      vertex -9.595496e+000  2.815395e+000  5.000000e+000
      vertex -7.787677e+000  6.273124e+000  5.000000e+000
      vertex -8.600656e+000  5.101835e+000  2.611032e-014
    endloop
  endfacet
  facet normal -7.593720e-001  6.500190e-001 -2.880139e-002
    outer loop
      vertex -6.367419e+000  7.710770e+000  2.578800e-014
      vertex -8.600656e+000  5.101835e+000  2.611032e-014
      vertex -7.787677e+000  6.273124e+000  5.000000e+000
    endloop
  endfacet
  facet normal -6.409491e-001  7.666240e-001  3.836415e-002
    outer loop
      vertex -7.787677e+000  6.273124e+000  5.000000e+000
      vertex -4.794255e+000  8.775826e+000  5.000000e+000
      vertex -6.367419e+000  7.710770e+000  2.578800e-014
    endloop
  endfacet
  facet normal -4.946685e-001  8.685851e-001 -2.937933e-002
    outer loop
      vertex -6.367419e+000  7.710770e+000  2.578800e-014
      vertex -4.794255e+000  8.775826e+000  5.000000e+000
      vertex -3.383216e+000  9.410306e+000  2.535729e-014
    endloop
  endfacet
  facet normal -2.988044e-001  9.536090e-001  3.668429e-002
    outer loop
      vertex -3.383216e+000  9.410306e+000  2.535729e-014
      vertex -4.794255e+000  8.775826e+000  5.000000e+000
      vertex -1.070951e+000  9.942488e+000  5.000000e+000
    endloop
  endfacet
  facet normal  4.629885e-001  8.855358e-001  3.831251e-002
    outer loop
      vertex  2.815395e+000  9.595496e+000  5.000000e+000
      vertex  6.273124e+000  7.787677e+000  5.000000e+000
      vertex  4.716585e+000  8.817813e+000  2.418826e-014
    endloop
  endfacet
  facet normal -1.717111e-001  9.851474e-001  0.000000e+000
    outer loop
      vertex  6.123032e-016  1.000000e+001  2.486900e-014
      vertex -3.383216e+000  9.410306e+000  2.535729e-014
      vertex  0.000000e+000  1.000000e+001  3.000000e+000
    endloop
  endfacet
  facet normal -1.341206e-001  9.900164e-001 -4.334927e-002
    outer loop
      vertex  0.000000e+000  1.000000e+001  3.000000e+000
      vertex -3.383216e+000  9.410306e+000  2.535729e-014
      vertex -1.070951e+000  9.942488e+000  5.000000e+000
    endloop
  endfacet
  facet normal  1.001690e-001  9.915731e-001  8.215190e-002
    outer loop
      vertex  0.000000e+000  1.000000e+001  3.000000e+000
      vertex -1.070951e+000  9.942488e+000  5.000000e+000
      vertex  2.000000e+000  9.797959e+000  3.000000e+000
    endloop
  endfacet
  facet normal  8.874617e-002  9.939677e-001  6.443931e-002
    outer loop
      vertex  2.000000e+000  9.797959e+000  3.000000e+000
      vertex -1.070951e+000  9.942488e+000  5.000000e+000
      vertex  2.815395e+000  9.595496e+000  5.000000e+000
    endloop
  endfacet
  facet normal  2.409830e-001  9.705294e-001  0.000000e+000
    outer loop
      vertex  2.000000e+000  9.797959e+000  3.000000e+000
      vertex  2.815395e+000  9.595496e+000  5.000000e+000
      vertex  2.000000e+000  9.797959e+000  2.458034e-014
    endloop
  endfacet
  facet normal  3.393358e-001  9.405071e-001 -1.725496e-002
    outer loop
      vertex  2.000000e+000  9.797959e+000  2.458034e-014
      vertex  2.815395e+000  9.595496e+000  5.000000e+000
      vertex  4.716585e+000  8.817813e+000  2.418826e-014
    endloop
  endfacet
  facet normal -9.468707e-001 -3.216142e-001  -0.000000e+000
    outer loop
      vertex -8.775826e+000 -4.794255e+000  2.613560e-014
      vertex -8.775826e+000 -4.794255e+000  5.000000e+000
      vertex -9.880321e+000 -1.542490e+000  2.629501e-014
    endloop
  endfacet
  facet normal -9.541240e-001 -2.989658e-001  1.633172e-002
    outer loop
      vertex -9.880321e+000 -1.542490e+000  2.629501e-014
      vertex -8.775826e+000 -4.794255e+000  5.000000e+000
      vertex -9.942488e+000 -1.070951e+000  5.000000e+000
    endloop
  endfacet
  facet normal -9.997440e-001  1.769644e-002 -1.409916e-002
    outer loop
      vertex -9.880321e+000 -1.542490e+000  2.629501e-014
      vertex -9.942488e+000 -1.070951e+000  5.000000e+000
      vertex -9.819541e+000  1.891196e+000  2.628624e-014
    endloop
  endfacet
  facet normal  7.671888e-001  6.414214e-001  -0.000000e+000
    outer loop
      vertex  8.775826e+000  4.794255e+000  5.000000e+000
      vertex  8.775826e+000  4.794255e+000  2.360239e-014
      vertex  6.273124e+000  7.787677e+000  5.000000e+000
    endloop
  endfacet
  facet normal  7.985135e-001  6.006402e-001  4.009429e-002
    outer loop
      vertex  6.273124e+000  7.787677e+000  5.000000e+000
      vertex  8.775826e+000  4.794255e+000  2.360239e-014
      vertex  7.039783e+000  7.102215e+000  2.385295e-014
    endloop
  endfacet
  facet normal  5.939349e-001  8.042842e-001 -1.919218e-002
    outer loop
      vertex  6.273124e+000  7.787677e+000  5.000000e+000
      vertex  7.039783e+000  7.102215e+000  2.385295e-014
      vertex  4.716585e+000  8.817813e+000  2.418826e-014
    endloop
  endfacet
  facet normal  9.959499e-001 -8.892314e-002  1.328693e-002
    outer loop
      vertex  9.942488e+000  1.070951e+000  5.000000e+000
      vertex  9.595496e+000 -2.815395e+000  5.000000e+000
      vertex  9.694604e+000 -2.452479e+000  2.346978e-014
    endloop
  endfacet
  facet normal  9.069165e-001 -4.211224e-001 -1.258998e-002
    outer loop
      vertex  8.129110e+000 -5.823879e+000  2.369573e-014
      vertex  9.694604e+000 -2.452479e+000  2.346978e-014
      vertex  9.595496e+000 -2.815395e+000  5.000000e+000
    endloop
  endfacet
  facet normal  8.860286e-001 -4.632461e-001  1.888169e-002
    outer loop
      vertex  9.595496e+000 -2.815395e+000  5.000000e+000
      vertex  7.787677e+000 -6.273124e+000  5.000000e+000
      vertex  8.129110e+000 -5.823879e+000  2.369573e-014
    endloop
  endfacet
  facet normal  6.903969e-001 -7.232109e-001 -1.783491e-002
    outer loop
      vertex  5.440409e+000 -8.390587e+000  2.408379e-014
      vertex  8.129110e+000 -5.823879e+000  2.369573e-014
      vertex  7.787677e+000 -6.273124e+000  5.000000e+000
    endloop
  endfacet
  facet normal -4.632075e-001 -8.859549e-001  2.286482e-002
    outer loop
      vertex -3.494014e+000 -9.369732e+000  2.537328e-014
      vertex -2.815395e+000 -9.595496e+000  5.000000e+000
      vertex -6.273124e+000 -7.787677e+000  5.000000e+000
    endloop
  endfacet
  facet normal  1.004769e-001 -9.946202e-001 -2.520148e-002
    outer loop
      vertex  0.000000e+000 -1.000000e+001  3.000000e+000
      vertex  2.000000e+000 -9.797959e+000  3.000000e+000
      vertex  1.070951e+000 -9.942488e+000  5.000000e+000
    endloop
  endfacet
  facet normal -8.867351e-002 -9.931539e-001  7.604178e-002
    outer loop
      vertex  0.000000e+000 -1.000000e+001  3.000000e+000
      vertex  1.070951e+000 -9.942488e+000  5.000000e+000
      vertex -2.815395e+000 -9.595496e+000  5.000000e+000
    endloop
  endfacet
  facet normal -1.582336e-001 -9.871316e-001 -2.309577e-002
    outer loop
      vertex  0.000000e+000 -1.000000e+001  3.000000e+000
      vertex -2.815395e+000 -9.595496e+000  5.000000e+000
      vertex -3.494014e+000 -9.369732e+000  2.537328e-014
    endloop
  endfacet
  facet normal -1.775201e-001 -9.841172e-001  0.000000e+000
    outer loop
      vertex  0.000000e+000 -1.000000e+001  3.000000e+000
      vertex -3.494014e+000 -9.369732e+000  2.537328e-014
      vertex -1.836910e-015 -1.000000e+001  2.486900e-014
    endloop
  endfacet
  facet normal  2.982771e-001 -9.519261e-001  6.976679e-002
    outer loop
      vertex  4.794255e+000 -8.775826e+000  5.000000e+000
      vertex  1.070951e+000 -9.942488e+000  5.000000e+000
      vertex  2.000000e+000 -9.797959e+000  3.000000e+000
    endloop
  endfacet
  facet normal  3.435357e-001 -9.391397e-001  0.000000e+000
    outer loop
      vertex  4.794255e+000 -8.775826e+000  5.000000e+000
      vertex  2.000000e+000 -9.797959e+000  3.000000e+000
      vertex  2.000000e+000 -9.797959e+000  2.458034e-014
    endloop
  endfacet
  facet normal  3.785225e-001 -9.253216e-001 -2.237720e-002
    outer loop
      vertex  4.794255e+000 -8.775826e+000  5.000000e+000
      vertex  2.000000e+000 -9.797959e+000  2.458034e-014
      vertex  5.440409e+000 -8.390587e+000  2.408379e-014
    endloop
  endfacet
  facet normal  6.412400e-001 -7.669719e-001  2.377445e-002
    outer loop
      vertex  4.794255e+000 -8.775826e+000  5.000000e+000
      vertex  5.440409e+000 -8.390587e+000  2.408379e-014
      vertex  7.787677e+000 -6.273124e+000  5.000000e+000
    endloop
  endfacet
  facet normal  9.513968e-001  3.079677e-001  0.000000e+000
    outer loop
      vertex  8.775826e+000  4.794255e+000  2.360239e-014
      vertex  8.775826e+000  4.794255e+000  5.000000e+000
      vertex  9.920584e+000  1.257783e+000  2.343717e-014
    endloop
  endfacet
  facet normal  9.542280e-001  2.989984e-001  6.992188e-003
    outer loop
      vertex  9.920584e+000  1.257783e+000  2.343717e-014
      vertex  8.775826e+000  4.794255e+000  5.000000e+000
      vertex  9.942488e+000  1.070951e+000  5.000000e+000
    endloop
  endfacet
  facet normal  9.981282e-001 -6.079270e-002 -6.644198e-003
    outer loop
      vertex  9.920584e+000  1.257783e+000  2.343717e-014
      vertex  9.942488e+000  1.070951e+000  5.000000e+000
      vertex  9.694604e+000 -2.452479e+000  2.346978e-014
    endloop
  endfacet
  facet normal -7.671888e-001 -6.414214e-001  0.000000e+000
    outer loop
      vertex -8.775826e+000 -4.794255e+000  5.000000e+000
      vertex -8.775826e+000 -4.794255e+000  2.613560e-014
      vertex -6.273124e+000 -7.787677e+000  5.000000e+000
    endloop
  endfacet
  facet normal -7.784606e-001 -6.275384e-001  1.395346e-002
    outer loop
      vertex -6.273124e+000 -7.787677e+000  5.000000e+000
      vertex -8.775826e+000 -4.794255e+000  2.613560e-014
      vertex -6.547594e+000 -7.558374e+000  2.581400e-014
    endloop
  endfacet
  facet normal -5.101502e-001 -8.600093e-001 -1.143643e-002
    outer loop
      vertex -6.273124e+000 -7.787677e+000  5.000000e+000
      vertex -6.547594e+000 -7.558374e+000  2.581400e-014
      vertex -3.494014e+000 -9.369732e+000  2.537328e-014
    endloop
  endfacet
  facet normal  6.853197e-001  7.259197e-001  5.811784e-002
    outer loop
      vertex  2.632748e+000  1.438277e+000  4.000000e+001
      vertex  2.601480e+000  4.269930e+000  5.000000e+000
      vertex  1.284540e+000  2.711081e+000  4.000000e+001
    endloop
  endfacet
  facet normal  7.224955e-001  6.891756e-001  5.511187e-002
    outer loop
      vertex  2.632748e+000  1.438277e+000  4.000000e+001
      vertex  4.387913e+000  2.397128e+000  5.000000e+000
      vertex  2.601480e+000  4.269930e+000  5.000000e+000
    endloop
  endfacet
  facet normal -9.582039e-001  2.811446e-001  5.294477e-002
    outer loop
      vertex -3.494867e+000  3.358459e-001  3.105808e+001
      vertex -4.269930e+000  2.601480e+000  5.000000e+000
      vertex -4.998608e+000  1.179829e-001  5.000000e+000
    endloop
  endfacet
  facet normal -9.983243e-001  5.938070e-003  5.756092e-002
    outer loop
      vertex -3.494867e+000  3.358459e-001  3.105808e+001
      vertex -4.998608e+000  1.179829e-001  5.000000e+000
      vertex -3.499412e+000 -2.942007e-001  3.104426e+001
    endloop
  endfacet
  facet normal -6.892792e-001  7.226041e-001  5.232083e-002
    outer loop
      vertex -2.181446e+000  2.059440e+000  4.000000e+001
      vertex -2.397128e+000  4.387913e+000  5.000000e+000
      vertex -4.269930e+000  2.601480e+000  5.000000e+000
    endloop
  endfacet
  facet normal -9.855319e-001  1.599936e-001  5.593686e-002
    outer loop
      vertex -3.327498e+000  8.034391e-001  3.259539e+001
      vertex -3.389850e+000  2.932738e-001  3.295603e+001
      vertex -2.975335e+000  3.839000e-001  4.000000e+001
    endloop
  endfacet
  facet normal -2.356312e-001  9.704331e-001  5.232082e-002
    outer loop
      vertex -5.543185e-001  2.948344e+000  4.000000e+001
      vertex  1.179829e-001  4.998608e+000  5.000000e+000
      vertex -2.397128e+000  4.387913e+000  5.000000e+000
    endloop
  endfacet
  facet normal -4.785262e-001  8.759363e-001  6.122295e-002
    outer loop
      vertex -5.543185e-001  2.948344e+000  4.000000e+001
      vertex -2.397128e+000  4.387913e+000  5.000000e+000
      vertex -2.181446e+000  2.059440e+000  4.000000e+001
    endloop
  endfacet
  facet normal  2.811400e-001  9.581881e-001  5.325472e-002
    outer loop
      vertex  1.284540e+000  2.711081e+000  4.000000e+001
      vertex  2.601480e+000  4.269930e+000  5.000000e+000
      vertex  1.179829e-001  4.998608e+000  5.000000e+000
    endloop
  endfacet
  facet normal  1.277327e-001  9.899650e-001  6.044470e-002
    outer loop
      vertex  1.284540e+000  2.711081e+000  4.000000e+001
      vertex  1.179829e-001  4.998608e+000  5.000000e+000
      vertex -5.543185e-001  2.948344e+000  4.000000e+001
    endloop
  endfacet
  facet normal -9.576732e-001 -2.837997e-001  4.816547e-002
    outer loop
      vertex -3.309356e+000 -1.000000e+000  3.200000e+001
      vertex -3.396852e+000 -8.053548e-001  3.140721e+001
      vertex -4.998608e+000  1.179829e-001  5.000000e+000
    endloop
  endfacet
  facet normal -9.857430e-001 -1.592821e-001  5.422188e-002
    outer loop
      vertex -3.396852e+000 -8.053548e-001  3.140721e+001
      vertex -3.499412e+000 -2.942007e-001  3.104426e+001
      vertex -4.998608e+000  1.179829e-001  5.000000e+000
    endloop
  endfacet
  facet normal -9.831970e-001  1.770069e-001  4.463385e-002
    outer loop
      vertex -4.269930e+000  2.601480e+000  5.000000e+000
      vertex -3.494867e+000  3.358459e-001  3.105808e+001
      vertex -3.387338e+000  8.345372e-001  3.144905e+001
    endloop
  endfacet
  facet normal -9.598227e-001  2.738596e-001  6.116569e-002
    outer loop
      vertex -3.309356e+000  1.000000e+000  3.200000e+001
      vertex -3.327498e+000  8.034391e-001  3.259539e+001
      vertex -2.975335e+000  3.839000e-001  4.000000e+001
    endloop
  endfacet
  facet normal -9.014429e-001  4.271136e-001  7.053065e-002
    outer loop
      vertex -3.309356e+000  1.000000e+000  3.200000e+001
      vertex -2.975335e+000  3.839000e-001  4.000000e+001
      vertex -2.181446e+000  2.059440e+000  4.000000e+001
    endloop
  endfacet
  facet normal -8.747471e-001  4.808951e-001  5.964456e-002
    outer loop
      vertex -3.309356e+000  1.000000e+000  3.200000e+001
      vertex -2.181446e+000  2.059440e+000  4.000000e+001
      vertex -4.269930e+000  2.601480e+000  5.000000e+000
    endloop
  endfacet
  facet normal -9.579896e-001  2.822637e-001  5.082443e-002
    outer loop
      vertex -3.309356e+000  1.000000e+000  3.200000e+001
      vertex -4.269930e+000  2.601480e+000  5.000000e+000
      vertex -3.387338e+000  8.345372e-001  3.144905e+001
    endloop
  endfacet
  facet normal -9.810047e-001 -1.844388e-001  6.010184e-002
    outer loop
      vertex -2.632748e+000 -1.438277e+000  4.000000e+001
      vertex -2.975335e+000  3.839000e-001  4.000000e+001
      vertex -3.389850e+000  2.932738e-001  3.295603e+001
    endloop
  endfacet
  facet normal -9.944359e-001 -7.298124e-003  1.050902e-001
    outer loop
      vertex -2.632748e+000 -1.438277e+000  4.000000e+001
      vertex -3.389850e+000  2.932738e-001  3.295603e+001
      vertex -3.386719e+000 -3.356944e-001  3.294197e+001
    endloop
  endfacet
  facet normal -9.796609e-001 -1.858676e-001  7.561634e-002
    outer loop
      vertex -2.632748e+000 -1.438277e+000  4.000000e+001
      vertex -3.386719e+000 -3.356944e-001  3.294197e+001
      vertex -3.322099e+000 -8.367220e-001  3.254763e+001
    endloop
  endfacet
  facet normal -9.543430e-001 -2.916131e-001  6.473865e-002
    outer loop
      vertex -2.632748e+000 -1.438277e+000  4.000000e+001
      vertex -3.322099e+000 -8.367220e-001  3.254763e+001
      vertex -3.309356e+000 -1.000000e+000  3.200000e+001
    endloop
  endfacet
  facet normal -5.193698e-001 -8.545447e-001 -2.889627e-003
    outer loop
      vertex -2.632748e+000 -1.438277e+000  4.000000e+001
      vertex -3.309356e+000 -1.000000e+000  3.200000e+001
      vertex -4.998608e+000  1.179829e-001  5.000000e+000
    endloop
  endfacet
  facet normal -9.702872e-001 -2.355958e-001  5.511187e-002
    outer loop
      vertex -2.632748e+000 -1.438277e+000  4.000000e+001
      vertex -4.998608e+000  1.179829e-001  5.000000e+000
      vertex -4.387913e+000 -2.397128e+000  5.000000e+000
    endloop
  endfacet
  facet normal -6.853197e-001 -7.259197e-001  5.811784e-002
    outer loop
      vertex -2.632748e+000 -1.438277e+000  4.000000e+001
      vertex -2.601480e+000 -4.269930e+000  5.000000e+000
      vertex -1.284540e+000 -2.711081e+000  4.000000e+001
    endloop
  endfacet
  facet normal -7.224955e-001 -6.891756e-001  5.511187e-002
    outer loop
      vertex -2.632748e+000 -1.438277e+000  4.000000e+001
      vertex -4.387913e+000 -2.397128e+000  5.000000e+000
      vertex -2.601480e+000 -4.269930e+000  5.000000e+000
    endloop
  endfacet
  facet normal  6.892792e-001 -7.226041e-001  5.232083e-002
    outer loop
      vertex  2.181446e+000 -2.059440e+000  4.000000e+001
      vertex  2.397128e+000 -4.387913e+000  5.000000e+000
      vertex  4.269930e+000 -2.601480e+000  5.000000e+000
    endloop
  endfacet
  facet normal  9.836562e-001 -1.710733e-001  5.616495e-002
    outer loop
      vertex  3.322099e+000 -8.367220e-001  3.254763e+001
      vertex  3.386719e+000 -3.356944e-001  3.294197e+001
      vertex  2.975335e+000 -3.839000e-001  4.000000e+001
    endloop
  endfacet
  facet normal  2.356312e-001 -9.704331e-001  5.232082e-002
    outer loop
      vertex  5.543185e-001 -2.948344e+000  4.000000e+001
      vertex -1.179829e-001 -4.998608e+000  5.000000e+000
      vertex  2.397128e+000 -4.387913e+000  5.000000e+000
    endloop
  endfacet
  facet normal  4.785262e-001 -8.759363e-001  6.122295e-002
    outer loop
      vertex  5.543185e-001 -2.948344e+000  4.000000e+001
      vertex  2.397128e+000 -4.387913e+000  5.000000e+000
      vertex  2.181446e+000 -2.059440e+000  4.000000e+001
    endloop
  endfacet
  facet normal -2.811400e-001 -9.581881e-001  5.325472e-002
    outer loop
      vertex -1.284540e+000 -2.711081e+000  4.000000e+001
      vertex -2.601480e+000 -4.269930e+000  5.000000e+000
      vertex -1.179829e-001 -4.998608e+000  5.000000e+000
    endloop
  endfacet
  facet normal -1.277327e-001 -9.899650e-001  6.044470e-002
    outer loop
      vertex -1.284540e+000 -2.711081e+000  4.000000e+001
      vertex -1.179829e-001 -4.998608e+000  5.000000e+000
      vertex  5.543185e-001 -2.948344e+000  4.000000e+001
    endloop
  endfacet
  facet normal  9.554041e-001  2.914224e-001  4.770788e-002
    outer loop
      vertex  3.309356e+000  1.000000e+000  3.200000e+001
      vertex  3.387338e+000  8.345372e-001  3.144905e+001
      vertex  4.998608e+000 -1.179829e-001  5.000000e+000
    endloop
  endfacet
  facet normal  9.839781e-001  1.699716e-001  5.382245e-002
    outer loop
      vertex  3.387338e+000  8.345372e-001  3.144905e+001
      vertex  3.494867e+000  3.358459e-001  3.105808e+001
      vertex  4.998608e+000 -1.179829e-001  5.000000e+000
    endloop
  endfacet
  facet normal  9.575628e-001 -2.815511e-001  6.166367e-002
    outer loop
      vertex  3.309356e+000 -1.000000e+000  3.200000e+001
      vertex  3.322099e+000 -8.367220e-001  3.254763e+001
      vertex  2.975335e+000 -3.839000e-001  4.000000e+001
    endloop
  endfacet
  facet normal  9.014429e-001 -4.271136e-001  7.053065e-002
    outer loop
      vertex  3.309356e+000 -1.000000e+000  3.200000e+001
      vertex  2.975335e+000 -3.839000e-001  4.000000e+001
      vertex  2.181446e+000 -2.059440e+000  4.000000e+001
    endloop
  endfacet
  facet normal  8.747471e-001 -4.808951e-001  5.964456e-002
    outer loop
      vertex  3.309356e+000 -1.000000e+000  3.200000e+001
      vertex  2.181446e+000 -2.059440e+000  4.000000e+001
      vertex  4.269930e+000 -2.601480e+000  5.000000e+000
    endloop
  endfacet
  facet normal  9.594647e-001 -2.772526e-001  5.057968e-002
    outer loop
      vertex  3.309356e+000 -1.000000e+000  3.200000e+001
      vertex  4.269930e+000 -2.601480e+000  5.000000e+000
      vertex  3.396852e+000 -8.053548e-001  3.140721e+001
    endloop
  endfacet
  facet normal  9.811013e-001  1.844570e-001  5.844427e-002
    outer loop
      vertex  2.632748e+000  1.438277e+000  4.000000e+001
      vertex  2.975335e+000 -3.839000e-001  4.000000e+001
      vertex  3.386719e+000 -3.356944e-001  3.294197e+001
    endloop
  endfacet
  facet normal  9.941186e-001 -7.362625e-003  1.080469e-001
    outer loop
      vertex  2.632748e+000  1.438277e+000  4.000000e+001
      vertex  3.386719e+000 -3.356944e-001  3.294197e+001
      vertex  3.389850e+000  2.932738e-001  3.295603e+001
    endloop
  endfacet
  facet normal  9.816295e-001  1.745066e-001  7.714161e-002
    outer loop
      vertex  2.632748e+000  1.438277e+000  4.000000e+001
      vertex  3.389850e+000  2.932738e-001  3.295603e+001
      vertex  3.327498e+000  8.034391e-001  3.259539e+001
    endloop
  endfacet
  facet normal  9.560819e-001  2.857546e-001  6.520668e-002
    outer loop
      vertex  2.632748e+000  1.438277e+000  4.000000e+001
      vertex  3.327498e+000  8.034391e-001  3.259539e+001
      vertex  3.309356e+000  1.000000e+000  3.200000e+001
    endloop
  endfacet
  facet normal  5.193698e-001  8.545447e-001 -2.889627e-003
    outer loop
      vertex  2.632748e+000  1.438277e+000  4.000000e+001
      vertex  3.309356e+000  1.000000e+000  3.200000e+001
      vertex  4.998608e+000 -1.179829e-001  5.000000e+000
    endloop
  endfacet
  facet normal  9.702872e-001  2.355958e-001  5.511187e-002
    outer loop
      vertex  2.632748e+000  1.438277e+000  4.000000e+001
      vertex  4.998608e+000 -1.179829e-001  5.000000e+000
      vertex  4.387913e+000  2.397128e+000  5.000000e+000
    endloop
  endfacet
  facet normal  9.850672e-001 -1.664814e-001  4.389188e-002
    outer loop
      vertex  3.396852e+000 -8.053548e-001  3.140721e+001
      vertex  4.269930e+000 -2.601480e+000  5.000000e+000
      vertex  3.499412e+000 -2.942007e-001  3.104426e+001
    endloop
  endfacet
  facet normal  9.581881e-001 -2.811400e-001  5.325435e-002
    outer loop
      vertex  3.499412e+000 -2.942007e-001  3.104426e+001
      vertex  4.269930e+000 -2.601480e+000  5.000000e+000
      vertex  4.998608e+000 -1.179829e-001  5.000000e+000
    endloop
  endfacet
  facet normal  9.983274e-001  5.939269e-003  5.750731e-002
    outer loop
      vertex  3.499412e+000 -2.942007e-001  3.104426e+001
      vertex  4.998608e+000 -1.179829e-001  5.000000e+000
      vertex  3.494867e+000  3.358459e-001  3.105808e+001
    endloop
  endfacet
  facet normal  0.000000e+000  6.184806e-001 -7.858001e-001
    outer loop
      vertex -3.386719e+000 -3.356944e-001  3.294197e+001
      vertex  3.322099e+000 -8.367220e-001  3.254763e+001
      vertex -3.322099e+000 -8.367220e-001  3.254763e+001
    endloop
  endfacet
  facet normal  0.000000e+000  9.583113e-001 -2.857261e-001
    outer loop
      vertex -3.322099e+000 -8.367220e-001  3.254763e+001
      vertex  3.322099e+000 -8.367220e-001  3.254763e+001
      vertex  3.309356e+000 -1.000000e+000  3.200000e+001
    endloop
  endfacet
  facet normal  0.000000e+000  9.583113e-001 -2.857261e-001
    outer loop
      vertex -3.322099e+000 -8.367220e-001  3.254763e+001
      vertex  3.309356e+000 -1.000000e+000  3.200000e+001
      vertex -3.309356e+000 -1.000000e+000  3.200000e+001
    endloop
  endfacet
  facet normal  0.000000e+000  6.184806e-001 -7.858001e-001
    outer loop
      vertex  3.322099e+000 -8.367220e-001  3.254763e+001
      vertex -3.386719e+000 -3.356944e-001  3.294197e+001
      vertex  3.386719e+000 -3.356944e-001  3.294197e+001
    endloop
  endfacet
  facet normal  0.000000e+000  2.234398e-002 -9.997504e-001
    outer loop
      vertex  3.386719e+000 -3.356944e-001  3.294197e+001
      vertex -3.386719e+000 -3.356944e-001  3.294197e+001
      vertex -3.389850e+000  2.932738e-001  3.295603e+001
    endloop
  endfacet
  facet normal  0.000000e+000  2.234397e-002 -9.997504e-001
    outer loop
      vertex  3.386719e+000 -3.356944e-001  3.294197e+001
      vertex -3.389850e+000  2.932738e-001  3.295603e+001
      vertex  3.389850e+000  2.932738e-001  3.295603e+001
    endloop
  endfacet
  facet normal  -0.000000e+000 -5.772436e-001 -8.165719e-001
    outer loop
      vertex  3.389850e+000  2.932738e-001  3.295603e+001
      vertex -3.389850e+000  2.932738e-001  3.295603e+001
      vertex -3.327498e+000  8.034391e-001  3.259539e+001
    endloop
  endfacet
  facet normal  0.000000e+000 -5.772436e-001 -8.165719e-001
    outer loop
      vertex  3.389850e+000  2.932738e-001  3.295603e+001
      vertex -3.327498e+000  8.034391e-001  3.259539e+001
      vertex  3.327498e+000  8.034391e-001  3.259539e+001
    endloop
  endfacet
  facet normal  -0.000000e+000 -9.495891e-001 -3.134973e-001
    outer loop
      vertex  3.327498e+000  8.034391e-001  3.259539e+001
      vertex -3.327498e+000  8.034391e-001  3.259539e+001
      vertex -3.309356e+000  1.000000e+000  3.200000e+001
    endloop
  endfacet
  facet normal  0.000000e+000 -9.495891e-001 -3.134973e-001
    outer loop
      vertex  3.327498e+000  8.034391e-001  3.259539e+001
      vertex -3.309356e+000  1.000000e+000  3.200000e+001
      vertex  3.309356e+000  1.000000e+000  3.200000e+001
    endloop
  endfacet
  facet normal  0.000000e+000 -6.169797e-001  7.869792e-001
    outer loop
      vertex -3.494867e+000  3.358459e-001  3.105808e+001
      vertex  3.387338e+000  8.345372e-001  3.144905e+001
      vertex -3.387338e+000  8.345372e-001  3.144905e+001
    endloop
  endfacet
  facet normal  0.000000e+000 -9.577414e-001  2.876309e-001
    outer loop
      vertex -3.387338e+000  8.345372e-001  3.144905e+001
      vertex  3.387338e+000  8.345372e-001  3.144905e+001
      vertex  3.309356e+000  1.000000e+000  3.200000e+001
    endloop
  endfacet
  facet normal  0.000000e+000 -9.577414e-001  2.876310e-001
    outer loop
      vertex -3.387338e+000  8.345372e-001  3.144905e+001
      vertex  3.309356e+000  1.000000e+000  3.200000e+001
      vertex -3.309356e+000  1.000000e+000  3.200000e+001
    endloop
  endfacet
  facet normal  0.000000e+000 -6.169797e-001  7.869791e-001
    outer loop
      vertex  3.387338e+000  8.345372e-001  3.144905e+001
      vertex -3.494867e+000  3.358459e-001  3.105808e+001
      vertex  3.494867e+000  3.358459e-001  3.105808e+001
    endloop
  endfacet
  facet normal  0.000000e+000 -2.193971e-002  9.997593e-001
    outer loop
      vertex  3.494867e+000  3.358459e-001  3.105808e+001
      vertex -3.494867e+000  3.358459e-001  3.105808e+001
      vertex -3.499412e+000 -2.942007e-001  3.104426e+001
    endloop
  endfacet
  facet normal  0.000000e+000 -2.193971e-002  9.997593e-001
    outer loop
      vertex  3.494867e+000  3.358459e-001  3.105808e+001
      vertex -3.499412e+000 -2.942007e-001  3.104426e+001
      vertex  3.499412e+000 -2.942007e-001  3.104426e+001
    endloop
  endfacet
  facet normal  0.000000e+000  5.789558e-001  8.153590e-001
    outer loop
      vertex  3.499412e+000 -2.942007e-001  3.104426e+001
      vertex -3.499412e+000 -2.942007e-001  3.104426e+001
      vertex -3.396852e+000 -8.053548e-001  3.140721e+001
    endloop
  endfacet
  facet normal  -0.000000e+000  5.789557e-001  8.153589e-001
    outer loop
      vertex  3.499412e+000 -2.942007e-001  3.104426e+001
      vertex -3.396852e+000 -8.053548e-001  3.140721e+001
      vertex  3.396852e+000 -8.053548e-001  3.140721e+001
    endloop
  endfacet
  facet normal  0.000000e+000  9.500933e-001  3.119660e-001
    outer loop
      vertex  3.396852e+000 -8.053548e-001  3.140721e+001
      vertex -3.396852e+000 -8.053548e-001  3.140721e+001
      vertex -3.309356e+000 -1.000000e+000  3.200000e+001
    endloop
  endfacet
  facet normal  -0.000000e+000  9.500933e-001  3.119660e-001
    outer loop
      vertex  3.396852e+000 -8.053548e-001  3.140721e+001
      vertex -3.309356e+000 -1.000000e+000  3.200000e+001
      vertex  3.309356e+000 -1.000000e+000  3.200000e+001
    endloop
  endfacet
  facet normal  0.000000e+000  -0.000000e+000  1.000000e+000
    outer loop
      vertex -8.775826e+000 -4.794255e+000  5.000000e+000
      vertex -6.273124e+000 -7.787677e+000  5.000000e+000
      vertex -1.179829e-001 -4.998608e+000  5.000000e+000
    endloop
  endfacet
  facet normal  0.000000e+000  0.000000e+000  1.000000e+000
    outer loop
      vertex -8.775826e+000 -4.794255e+000  5.000000e+000
      vertex -1.179829e-001 -4.998608e+000  5.000000e+000
      vertex -2.601480e+000 -4.269930e+000  5.000000e+000
    endloop
  endfacet
  facet normal  0.000000e+000  0.000000e+000  1.000000e+000
    outer loop
      vertex -8.775826e+000 -4.794255e+000  5.000000e+000
      vertex -2.601480e+000 -4.269930e+000  5.000000e+000
      vertex -4.387913e+000 -2.397128e+000  5.000000e+000
    endloop
  endfacet
  facet normal  0.000000e+000  0.000000e+000  1.000000e+000
    outer loop
      vertex -8.775826e+000 -4.794255e+000  5.000000e+000
      vertex -4.387913e+000 -2.397128e+000  5.000000e+000
      vertex -4.998608e+000  1.179829e-001  5.000000e+000
    endloop
  endfacet
  facet normal  0.000000e+000  0.000000e+000  9.999999e-001
    outer loop
      vertex -8.775826e+000 -4.794255e+000  5.000000e+000
      vertex -4.998608e+000  1.179829e-001  5.000000e+000
      vertex -9.942488e+000 -1.070951e+000  5.000000e+000
    endloop
  endfacet
  facet normal  0.000000e+000  0.000000e+000  1.000000e+000
    outer loop
      vertex  4.794255e+000 -8.775826e+000  5.000000e+000
      vertex  7.787677e+000 -6.273124e+000  5.000000e+000
      vertex  1.070951e+000 -9.942488e+000  5.000000e+000
    endloop
  endfacet
  facet normal  0.000000e+000  0.000000e+000  1.000000e+000
    outer loop
      vertex  1.070951e+000 -9.942488e+000  5.000000e+000
      vertex  7.787677e+000 -6.273124e+000  5.000000e+000
      vertex  2.397128e+000 -4.387913e+000  5.000000e+000
    endloop
  endfacet
  facet normal  0.000000e+000  0.000000e+000  1.000000e+000
    outer loop
      vertex  1.070951e+000 -9.942488e+000  5.000000e+000
      vertex  2.397128e+000 -4.387913e+000  5.000000e+000
      vertex -2.815395e+000 -9.595496e+000  5.000000e+000
    endloop
  endfacet
  facet normal  0.000000e+000  0.000000e+000  1.000000e+000
    outer loop
      vertex -2.815395e+000 -9.595496e+000  5.000000e+000
      vertex  2.397128e+000 -4.387913e+000  5.000000e+000
      vertex -1.179829e-001 -4.998608e+000  5.000000e+000
    endloop
  endfacet
  facet normal  0.000000e+000  0.000000e+000  1.000000e+000
    outer loop
      vertex -2.815395e+000 -9.595496e+000  5.000000e+000
      vertex -1.179829e-001 -4.998608e+000  5.000000e+000
      vertex -6.273124e+000 -7.787677e+000  5.000000e+000
    endloop
  endfacet
  facet normal  0.000000e+000  0.000000e+000  1.000000e+000
    outer loop
      vertex -7.787677e+000  6.273124e+000  5.000000e+000
      vertex -9.595496e+000  2.815395e+000  5.000000e+000
      vertex -4.794255e+000  8.775826e+000  5.000000e+000
    endloop
  endfacet
  facet normal  0.000000e+000  0.000000e+000  1.000000e+000
    outer loop
      vertex -4.794255e+000  8.775826e+000  5.000000e+000
      vertex -9.595496e+000  2.815395e+000  5.000000e+000
      vertex -2.397128e+000  4.387913e+000  5.000000e+000
    endloop
  endfacet
  facet normal  0.000000e+000  -0.000000e+000  1.000000e+000
    outer loop
      vertex -4.794255e+000  8.775826e+000  5.000000e+000
      vertex -2.397128e+000  4.387913e+000  5.000000e+000
      vertex -1.070951e+000  9.942488e+000  5.000000e+000
    endloop
  endfacet
  facet normal  0.000000e+000  0.000000e+000  9.999999e-001
    outer loop
      vertex -1.070951e+000  9.942488e+000  5.000000e+000
      vertex -2.397128e+000  4.387913e+000  5.000000e+000
      vertex  1.179829e-001  4.998608e+000  5.000000e+000
    endloop
  endfacet
  facet normal  0.000000e+000  -0.000000e+000  1.000000e+000
    outer loop
      vertex -1.070951e+000  9.942488e+000  5.000000e+000
      vertex  1.179829e-001  4.998608e+000  5.000000e+000
      vertex  2.815395e+000  9.595496e+000  5.000000e+000
    endloop
  endfacet
  facet normal  0.000000e+000  0.000000e+000  1.000000e+000
    outer loop
      vertex -9.942488e+000 -1.070951e+000  5.000000e+000
      vertex -4.998608e+000  1.179829e-001  5.000000e+000
      vertex -9.595496e+000  2.815395e+000  5.000000e+000
    endloop
  endfacet
  facet normal  0.000000e+000  0.000000e+000  9.999999e-001
    outer loop
      vertex -9.595496e+000  2.815395e+000  5.000000e+000
      vertex -4.998608e+000  1.179829e-001  5.000000e+000
      vertex -4.269930e+000  2.601480e+000  5.000000e+000
    endloop
  endfacet
  facet normal  0.000000e+000  -0.000000e+000  1.000000e+000
    outer loop
      vertex -9.595496e+000  2.815395e+000  5.000000e+000
      vertex -4.269930e+000  2.601480e+000  5.000000e+000
      vertex -2.397128e+000  4.387913e+000  5.000000e+000
    endloop
  endfacet
  facet normal  0.000000e+000  0.000000e+000  1.000000e+000
    outer loop
      vertex  6.273124e+000  7.787677e+000  5.000000e+000
      vertex  2.815395e+000  9.595496e+000  5.000000e+000
      vertex  8.775826e+000  4.794255e+000  5.000000e+000
    endloop
  endfacet
  facet normal  0.000000e+000  0.000000e+000  1.000000e+000
    outer loop
      vertex  8.775826e+000  4.794255e+000  5.000000e+000
      vertex  2.815395e+000  9.595496e+000  5.000000e+000
      vertex  1.179829e-001  4.998608e+000  5.000000e+000
    endloop
  endfacet
  facet normal  0.000000e+000  0.000000e+000  1.000000e+000
    outer loop
      vertex  8.775826e+000  4.794255e+000  5.000000e+000
      vertex  1.179829e-001  4.998608e+000  5.000000e+000
      vertex  2.601480e+000  4.269930e+000  5.000000e+000
    endloop
  endfacet
  facet normal  -0.000000e+000  0.000000e+000  1.000000e+000
    outer loop
      vertex  8.775826e+000  4.794255e+000  5.000000e+000
      vertex  2.601480e+000  4.269930e+000  5.000000e+000
      vertex  9.942488e+000  1.070951e+000  5.000000e+000
    endloop
  endfacet
  facet normal  0.000000e+000  0.000000e+000  1.000000e+000
    outer loop
      vertex  9.942488e+000  1.070951e+000  5.000000e+000
      vertex  2.601480e+000  4.269930e+000  5.000000e+000
      vertex  4.387913e+000  2.397128e+000  5.000000e+000
    endloop
  endfacet
  facet normal  0.000000e+000  0.000000e+000  1.000000e+000
    outer loop
      vertex  9.942488e+000  1.070951e+000  5.000000e+000
      vertex  4.387913e+000  2.397128e+000  5.000000e+000
      vertex  4.998608e+000 -1.179829e-001  5.000000e+000
    endloop
  endfacet
  facet normal  -0.000000e+000  0.000000e+000  1.000000e+000
    outer loop
      vertex  9.942488e+000  1.070951e+000  5.000000e+000
      vertex  4.998608e+000 -1.179829e-001  5.000000e+000
      vertex  9.595496e+000 -2.815395e+000  5.000000e+000
    endloop
  endfacet
  facet normal  0.000000e+000  0.000000e+000  9.999999e-001
    outer loop
      vertex  9.595496e+000 -2.815395e+000  5.000000e+000
      vertex  4.998608e+000 -1.179829e-001  5.000000e+000
      vertex  4.269930e+000 -2.601480e+000  5.000000e+000
    endloop
  endfacet
  facet normal  0.000000e+000  0.000000e+000  1.000000e+000
    outer loop
      vertex  9.595496e+000 -2.815395e+000  5.000000e+000
      vertex  4.269930e+000 -2.601480e+000  5.000000e+000
      vertex  7.787677e+000 -6.273124e+000  5.000000e+000
    endloop
  endfacet
  facet normal  0.000000e+000  0.000000e+000  9.999999e-001
    outer loop
      vertex  7.787677e+000 -6.273124e+000  5.000000e+000
      vertex  4.269930e+000 -2.601480e+000  5.000000e+000
      vertex  2.397128e+000 -4.387913e+000  5.000000e+000
    endloop
  endfacet
  facet normal  0.000000e+000  0.000000e+000  1.000000e+000
    outer loop
      vertex  1.284540e+000  2.711081e+000  4.000000e+001
      vertex -5.543185e-001  2.948344e+000  4.000000e+001
      vertex  2.632748e+000  1.438277e+000  4.000000e+001
    endloop
  endfacet
  facet normal  0.000000e+000  0.000000e+000  9.999999e-001
    outer loop
      vertex  2.632748e+000  1.438277e+000  4.000000e+001
      vertex -5.543185e-001  2.948344e+000  4.000000e+001
      vertex -2.181446e+000  2.059440e+000  4.000000e+001
    endloop
  endfacet
  facet normal  0.000000e+000  0.000000e+000  1.000000e+000
    outer loop
      vertex  2.632748e+000  1.438277e+000  4.000000e+001
      vertex -2.181446e+000  2.059440e+000  4.000000e+001
      vertex  2.975335e+000 -3.839000e-001  4.000000e+001
    endloop
  endfacet
  facet normal  0.000000e+000  0.000000e+000  1.000000e+000
    outer loop
      vertex  2.975335e+000 -3.839000e-001  4.000000e+001
      vertex -2.181446e+000  2.059440e+000  4.000000e+001
      vertex -2.975335e+000  3.839000e-001  4.000000e+001
    endloop
  endfacet
  facet normal  0.000000e+000  0.000000e+000  1.000000e+000
    outer loop
      vertex  2.975335e+000 -3.839000e-001  4.000000e+001
      vertex -2.975335e+000  3.839000e-001  4.000000e+001
      vertex  2.181446e+000 -2.059440e+000  4.000000e+001
    endloop
  endfacet
  facet normal  0.000000e+000  0.000000e+000  1.000000e+000
    outer loop
      vertex  2.181446e+000 -2.059440e+000  4.000000e+001
      vertex -2.975335e+000  3.839000e-001  4.000000e+001
      vertex -2.632748e+000 -1.438277e+000  4.000000e+001
    endloop
  endfacet
  facet normal  0.000000e+000  0.000000e+000  9.999999e-001
    outer loop
      vertex  2.181446e+000 -2.059440e+000  4.000000e+001
      vertex -2.632748e+000 -1.438277e+000  4.000000e+001
      vertex  5.543185e-001 -2.948344e+000  4.000000e+001
    endloop
  endfacet
  facet normal  0.000000e+000  0.000000e+000  1.000000e+000
    outer loop
      vertex  5.543185e-001 -2.948344e+000  4.000000e+001
      vertex -2.632748e+000 -1.438277e+000  4.000000e+001
      vertex -1.284540e+000 -2.711081e+000  4.000000e+001
    endloop
  endfacet
endsolid CATIA STL
