solid CATIA STL
  facet normal -1.000000e+000 -7.427314e-015  3.313484e-014
    outer loop
      vertex  0.000000e+000  1.384076e-014 -3.000000e+000
      vertex -2.099465e-014 -1.036220e+001 -5.956342e+000
      vertex -2.099465e-014 -1.535084e+001 -7.074567e+000
    endloop
  endfacet
  facet normal -1.000000e+000 -1.791924e-015  1.190364e-014
    outer loop
      vertex  0.000000e+000  1.384076e-014 -3.000000e+000
      vertex -2.099465e-014 -1.535084e+001 -7.074567e+000
      vertex -2.099465e-014 -2.005689e+001 -7.782996e+000
    endloop
  endfacet
  facet normal -1.000000e+000 -7.285872e-015  3.494182e-014
    outer loop
      vertex  0.000000e+000  1.384076e-014 -3.000000e+000
      vertex -2.099465e-014 -2.005689e+001 -7.782996e+000
      vertex  0.000000e+000 -2.397916e+001 -8.000000e+000
    endloop
  endfacet
  facet normal -1.000000e+000  2.668440e-016 -1.279739e-015
    outer loop
      vertex  0.000000e+000  1.384076e-014 -3.000000e+000
      vertex  0.000000e+000 -2.397916e+001 -8.000000e+000
      vertex -2.099465e-014 -6.404205e+001  5.172480e-002
    endloop
  endfacet
  facet normal -1.000000e+000  2.368773e-016 -1.908604e-015
    outer loop
      vertex  0.000000e+000  1.384076e-014 -3.000000e+000
      vertex -2.099465e-014 -6.404205e+001  5.172480e-002
      vertex -2.099465e-014  0.000000e+000  8.000000e+000
    endloop
  endfacet
  facet normal -1.000000e+000  0.000000e+000  0.000000e+000
    outer loop
      vertex -2.099465e-014  0.000000e+000  8.000000e+000
      vertex -2.099465e-014 -6.404205e+001  5.172480e-002
      vertex -2.099465e-014 -6.249205e+001  1.177866e+000
    endloop
  endfacet
  facet normal -9.999999e-001 -4.213782e-016  3.859905e-015
    outer loop
      vertex -2.099465e-014  0.000000e+000  8.000000e+000
      vertex -2.099465e-014 -6.249205e+001  1.177866e+000
      vertex -1.421085e-014 -6.190000e+001  3.000000e+000
    endloop
  endfacet
  facet normal -1.000000e+000  1.862454e-016 -3.662476e-015
    outer loop
      vertex -2.099465e-014  0.000000e+000  8.000000e+000
      vertex -1.421085e-014 -6.190000e+001  3.000000e+000
      vertex -2.099465e-014 -6.249205e+001  4.822134e+000
    endloop
  endfacet
  facet normal -1.000000e+000  0.000000e+000  0.000000e+000
    outer loop
      vertex -2.099465e-014  0.000000e+000  8.000000e+000
      vertex -2.099465e-014 -6.249205e+001  4.822134e+000
      vertex -2.099465e-014 -6.404205e+001  5.948275e+000
    endloop
  endfacet
  facet normal -9.999999e-001 -2.745201e-017  8.568804e-016
    outer loop
      vertex -2.099465e-014  0.000000e+000  8.000000e+000
      vertex -2.099465e-014 -6.404205e+001  5.948275e+000
      vertex -1.421085e-014 -2.861818e+001  1.500000e+001
    endloop
  endfacet
  facet normal -1.000000e+000 -1.859685e-015 -6.633856e-015
    outer loop
      vertex -2.099465e-014  0.000000e+000  8.000000e+000
      vertex -1.421085e-014 -2.861818e+001  1.500000e+001
      vertex -2.099465e-014 -2.389222e+001  1.469776e+001
    endloop
  endfacet
  facet normal -1.000000e+000  0.000000e+000  0.000000e+000
    outer loop
      vertex -2.099465e-014  0.000000e+000  8.000000e+000
      vertex -2.099465e-014 -2.389222e+001  1.469776e+001
      vertex -2.099465e-014 -1.824120e+001  1.370660e+001
    endloop
  endfacet
  facet normal -1.000000e+000  0.000000e+000  0.000000e+000
    outer loop
      vertex -2.099465e-014  0.000000e+000  8.000000e+000
      vertex -2.099465e-014 -1.824120e+001  1.370660e+001
      vertex -2.099465e-014 -1.228717e+001  1.214039e+001
    endloop
  endfacet
  facet normal -1.000000e+000  0.000000e+000  0.000000e+000
    outer loop
      vertex -2.099465e-014  0.000000e+000  8.000000e+000
      vertex -2.099465e-014 -1.228717e+001  1.214039e+001
      vertex -2.099465e-014 -3.084222e+000  9.096474e+000
    endloop
  endfacet
  facet normal -1.000000e+000  9.076422e-016  2.592009e-015
    outer loop
      vertex -2.099465e-014 -6.595795e+001  5.948275e+000
      vertex -2.842171e-014 -8.000000e+001  8.000000e+000
      vertex -2.099465e-014 -7.946716e+001  1.067878e+001
    endloop
  endfacet
  facet normal -1.000000e+000  0.000000e+000  0.000000e+000
    outer loop
      vertex -2.099465e-014 -6.595795e+001  5.948275e+000
      vertex -2.099465e-014 -7.946716e+001  1.067878e+001
      vertex -2.099465e-014 -7.794975e+001  1.294975e+001
    endloop
  endfacet
  facet normal -1.000000e+000  0.000000e+000  0.000000e+000
    outer loop
      vertex -2.099465e-014 -6.595795e+001  5.948275e+000
      vertex -2.099465e-014 -7.794975e+001  1.294975e+001
      vertex -2.099465e-014 -7.567879e+001  1.446716e+001
    endloop
  endfacet
  facet normal -1.000000e+000 -2.259657e-015 -2.578478e-015
    outer loop
      vertex -2.099465e-014 -6.595795e+001  5.948275e+000
      vertex -2.099465e-014 -7.567879e+001  1.446716e+001
      vertex -2.842171e-014 -7.300000e+001  1.500000e+001
    endloop
  endfacet
  facet normal -9.999999e-001  3.201954e-016 -5.714086e-016
    outer loop
      vertex -2.099465e-014 -6.595795e+001  5.948275e+000
      vertex -2.842171e-014 -7.300000e+001  1.500000e+001
      vertex -1.421085e-014 -2.861818e+001  1.500000e+001
    endloop
  endfacet
  facet normal -1.000000e+000  0.000000e+000  7.494471e-016
    outer loop
      vertex -2.099465e-014 -6.595795e+001  5.948275e+000
      vertex -1.421085e-014 -2.861818e+001  1.500000e+001
      vertex -2.099465e-014 -6.404205e+001  5.948275e+000
    endloop
  endfacet
  facet normal -1.000000e+000  4.403573e-016 -6.060982e-016
    outer loop
      vertex -2.842171e-014 -8.000000e+001  8.000000e+000
      vertex -2.099465e-014 -6.595795e+001  5.948275e+000
      vertex -2.099465e-014 -6.750795e+001  4.822134e+000
    endloop
  endfacet
  facet normal -1.000000e+000 -3.256362e-016 -3.617185e-015
    outer loop
      vertex -2.842171e-014 -8.000000e+001  8.000000e+000
      vertex -2.099465e-014 -6.750795e+001  4.822134e+000
      vertex -1.421085e-014 -6.810000e+001  3.000000e+000
    endloop
  endfacet
  facet normal -1.000000e+000  3.194602e-015  4.760982e-015
    outer loop
      vertex -2.842171e-014 -8.000000e+001  8.000000e+000
      vertex -1.421085e-014 -6.810000e+001  3.000000e+000
      vertex -2.099465e-014 -6.750795e+001  1.177866e+000
    endloop
  endfacet
  facet normal -9.999999e-001  2.394116e-015  3.295208e-015
    outer loop
      vertex -2.842171e-014 -8.000000e+001  8.000000e+000
      vertex -2.099465e-014 -6.750795e+001  1.177866e+000
      vertex -2.099465e-014 -6.595795e+001  5.172480e-002
    endloop
  endfacet
  facet normal -1.000000e+000 -9.335979e-016 -2.583792e-015
    outer loop
      vertex -2.842171e-014 -8.000000e+001  8.000000e+000
      vertex -2.099465e-014 -6.595795e+001  5.172480e-002
      vertex  0.000000e+000 -8.000000e+001 -3.000000e+000
    endloop
  endfacet
  facet normal -1.000000e+000  5.918332e-015 -9.253728e-015
    outer loop
      vertex -2.099465e-014 -7.750000e+001 -7.330127e+000
      vertex -2.099465e-014 -6.595795e+001  5.172480e-002
      vertex  0.000000e+000 -7.500000e+001 -8.000000e+000
    endloop
  endfacet
  facet normal -1.000000e+000  0.000000e+000 -2.607472e-015
    outer loop
      vertex  0.000000e+000 -7.500000e+001 -8.000000e+000
      vertex -2.099465e-014 -6.595795e+001  5.172480e-002
      vertex -2.099465e-014 -6.404205e+001  5.172480e-002
    endloop
  endfacet
  facet normal -9.999999e-001  0.000000e+000 -2.607472e-015
    outer loop
      vertex  0.000000e+000 -7.500000e+001 -8.000000e+000
      vertex -2.099465e-014 -6.404205e+001  5.172480e-002
      vertex  0.000000e+000 -2.397916e+001 -8.000000e+000
    endloop
  endfacet
  facet normal -1.000000e+000  1.147174e-014  1.147171e-014
    outer loop
      vertex -2.099465e-014 -7.933012e+001 -5.500000e+000
      vertex  0.000000e+000 -8.000000e+001 -3.000000e+000
      vertex -2.099465e-014 -7.750000e+001 -7.330127e+000
    endloop
  endfacet
  facet normal -1.000000e+000 -2.264682e-015  3.540990e-015
    outer loop
      vertex -2.099465e-014 -7.750000e+001 -7.330127e+000
      vertex  0.000000e+000 -8.000000e+001 -3.000000e+000
      vertex -2.099465e-014 -6.595795e+001  5.172480e-002
    endloop
  endfacet
  facet normal  0.000000e+000  5.877863e-001 -8.090162e-001
    outer loop
      vertex -2.099465e-014 -6.595795e+001  5.948275e+000
      vertex  1.500000e+002 -6.750795e+001  4.822134e+000
      vertex -2.099465e-014 -6.750795e+001  4.822134e+000
    endloop
  endfacet
  facet normal  0.000000e+000  9.510562e-001 -3.090176e-001
    outer loop
      vertex -2.099465e-014 -6.750795e+001  4.822134e+000
      vertex  1.500000e+002 -6.750795e+001  4.822134e+000
      vertex  1.500000e+002 -6.810000e+001  3.000000e+000
    endloop
  endfacet
  facet normal  0.000000e+000  9.510562e-001 -3.090176e-001
    outer loop
      vertex -2.099465e-014 -6.750795e+001  4.822134e+000
      vertex  1.500000e+002 -6.810000e+001  3.000000e+000
      vertex -1.421085e-014 -6.810000e+001  3.000000e+000
    endloop
  endfacet
  facet normal  0.000000e+000  5.877863e-001 -8.090162e-001
    outer loop
      vertex  1.500000e+002 -6.750795e+001  4.822134e+000
      vertex -2.099465e-014 -6.595795e+001  5.948275e+000
      vertex  1.500000e+002 -6.595795e+001  5.948275e+000
    endloop
  endfacet
  facet normal  0.000000e+000  0.000000e+000 -1.000000e+000
    outer loop
      vertex  1.500000e+002 -6.595795e+001  5.948275e+000
      vertex -2.099465e-014 -6.595795e+001  5.948275e+000
      vertex -2.099465e-014 -6.404205e+001  5.948275e+000
    endloop
  endfacet
  facet normal  0.000000e+000  0.000000e+000 -1.000000e+000
    outer loop
      vertex  1.500000e+002 -6.595795e+001  5.948275e+000
      vertex -2.099465e-014 -6.404205e+001  5.948275e+000
      vertex  1.500000e+002 -6.404205e+001  5.948275e+000
    endloop
  endfacet
  facet normal  -0.000000e+000 -5.877853e-001 -8.090169e-001
    outer loop
      vertex  1.500000e+002 -6.404205e+001  5.948275e+000
      vertex -2.099465e-014 -6.404205e+001  5.948275e+000
      vertex -2.099465e-014 -6.249205e+001  4.822134e+000
    endloop
  endfacet
  facet normal  0.000000e+000 -5.877853e-001 -8.090169e-001
    outer loop
      vertex  1.500000e+002 -6.404205e+001  5.948275e+000
      vertex -2.099465e-014 -6.249205e+001  4.822134e+000
      vertex  1.500000e+002 -6.249205e+001  4.822134e+000
    endloop
  endfacet
  facet normal  -0.000000e+000 -9.510569e-001 -3.090158e-001
    outer loop
      vertex  1.500000e+002 -6.249205e+001  4.822134e+000
      vertex -2.099465e-014 -6.249205e+001  4.822134e+000
      vertex -1.421085e-014 -6.190000e+001  3.000000e+000
    endloop
  endfacet
  facet normal  0.000000e+000 -9.510569e-001 -3.090158e-001
    outer loop
      vertex  1.500000e+002 -6.249205e+001  4.822134e+000
      vertex -1.421085e-014 -6.190000e+001  3.000000e+000
      vertex  1.500000e+002 -6.190000e+001  3.000000e+000
    endloop
  endfacet
  facet normal  0.000000e+000 -5.877855e-001  8.090168e-001
    outer loop
      vertex -2.099465e-014 -6.404205e+001  5.172480e-002
      vertex  1.500000e+002 -6.249205e+001  1.177866e+000
      vertex -2.099465e-014 -6.249205e+001  1.177866e+000
    endloop
  endfacet
  facet normal  0.000000e+000 -9.510568e-001  3.090158e-001
    outer loop
      vertex -2.099465e-014 -6.249205e+001  1.177866e+000
      vertex  1.500000e+002 -6.249205e+001  1.177866e+000
      vertex  1.500000e+002 -6.190000e+001  3.000000e+000
    endloop
  endfacet
  facet normal  0.000000e+000 -9.510568e-001  3.090158e-001
    outer loop
      vertex -2.099465e-014 -6.249205e+001  1.177866e+000
      vertex  1.500000e+002 -6.190000e+001  3.000000e+000
      vertex -1.421085e-014 -6.190000e+001  3.000000e+000
    endloop
  endfacet
  facet normal  0.000000e+000 -5.877855e-001  8.090168e-001
    outer loop
      vertex  1.500000e+002 -6.249205e+001  1.177866e+000
      vertex -2.099465e-014 -6.404205e+001  5.172480e-002
      vertex  1.500000e+002 -6.404205e+001  5.172480e-002
    endloop
  endfacet
  facet normal  0.000000e+000  0.000000e+000  1.000000e+000
    outer loop
      vertex  1.500000e+002 -6.404205e+001  5.172480e-002
      vertex -2.099465e-014 -6.404205e+001  5.172480e-002
      vertex -2.099465e-014 -6.595795e+001  5.172480e-002
    endloop
  endfacet
  facet normal  0.000000e+000  0.000000e+000  1.000000e+000
    outer loop
      vertex  1.500000e+002 -6.404205e+001  5.172480e-002
      vertex -2.099465e-014 -6.595795e+001  5.172480e-002
      vertex  1.500000e+002 -6.595795e+001  5.172480e-002
    endloop
  endfacet
  facet normal  0.000000e+000  5.877864e-001  8.090161e-001
    outer loop
      vertex  1.500000e+002 -6.595795e+001  5.172480e-002
      vertex -2.099465e-014 -6.595795e+001  5.172480e-002
      vertex -2.099465e-014 -6.750795e+001  1.177866e+000
    endloop
  endfacet
  facet normal  -0.000000e+000  5.877864e-001  8.090161e-001
    outer loop
      vertex  1.500000e+002 -6.595795e+001  5.172480e-002
      vertex -2.099465e-014 -6.750795e+001  1.177866e+000
      vertex  1.500000e+002 -6.750795e+001  1.177866e+000
    endloop
  endfacet
  facet normal  0.000000e+000  9.510563e-001  3.090176e-001
    outer loop
      vertex  1.500000e+002 -6.750795e+001  1.177866e+000
      vertex -2.099465e-014 -6.750795e+001  1.177866e+000
      vertex -1.421085e-014 -6.810000e+001  3.000000e+000
    endloop
  endfacet
  facet normal  -0.000000e+000  9.510563e-001  3.090176e-001
    outer loop
      vertex  1.500000e+002 -6.750795e+001  1.177866e+000
      vertex -1.421085e-014 -6.810000e+001  3.000000e+000
      vertex  1.500000e+002 -6.810000e+001  3.000000e+000
    endloop
  endfacet
  facet normal  7.535846e-002  9.575176e-001 -2.783546e-001
    outer loop
      vertex  5.500000e+001 -5.500000e+001 -3.000000e+000
      vertex  4.707735e+001 -5.510323e+001 -5.500000e+000
      vertex  4.639610e+001 -5.432286e+001 -3.000000e+000
    endloop
  endfacet
  facet normal  2.352680e-001  1.235666e-001 -9.640437e-001
    outer loop
      vertex  0.000000e+000 -2.397916e+001 -8.000000e+000
      vertex  2.696160e+000 -2.388636e+001 -7.330127e+000
      vertex  4.040630e+000 -3.167243e+001 -8.000000e+000
    endloop
  endfacet
  facet normal  2.390372e-001  5.364026e-002 -9.695277e-001
    outer loop
      vertex  0.000000e+000 -2.397916e+001 -8.000000e+000
      vertex -2.099465e-014 -2.005689e+001 -7.782996e+000
      vertex  2.696160e+000 -2.388636e+001 -7.330127e+000
    endloop
  endfacet
  facet normal  9.612319e-001  7.565060e-002 -2.651609e-001
    outer loop
      vertex  0.000000e+000  1.384076e-014 -3.000000e+000
      vertex  6.771412e-001 -8.603895e+000 -3.000000e+000
      vertex -2.099465e-014 -1.036220e+001 -5.956342e+000
    endloop
  endfacet
  facet normal  9.055619e-001  2.397178e-001 -3.499899e-001
    outer loop
      vertex -2.099465e-014 -1.036220e+001 -5.956342e+000
      vertex  6.771412e-001 -8.603895e+000 -3.000000e+000
      vertex  1.585148e+000 -1.568402e+001 -5.500000e+000
    endloop
  endfacet
  facet normal  9.128298e-001  3.404679e-001 -2.254408e-001
    outer loop
      vertex  2.691892e+000 -1.699594e+001 -3.000000e+000
      vertex  4.360902e+000 -2.312610e+001 -5.500000e+000
      vertex  1.585148e+000 -1.568402e+001 -5.500000e+000
    endloop
  endfacet
  facet normal  9.293005e-001  2.231053e-001 -2.943205e-001
    outer loop
      vertex  2.691892e+000 -1.699594e+001 -3.000000e+000
      vertex  1.585148e+000 -1.568402e+001 -5.500000e+000
      vertex  6.771412e-001 -8.603895e+000 -3.000000e+000
    endloop
  endfacet
  facet normal  8.571472e-001  4.680376e-001 -2.150341e-001
    outer loop
      vertex  5.994641e+000 -2.496948e+001 -3.000000e+000
      vertex  8.167522e+000 -3.009741e+001 -5.500000e+000
      vertex  4.360902e+000 -2.312610e+001 -5.500000e+000
    endloop
  endfacet
  facet normal  8.795211e-001  3.643096e-001 -3.061393e-001
    outer loop
      vertex  5.994641e+000 -2.496948e+001 -3.000000e+000
      vertex  4.360902e+000 -2.312610e+001 -5.500000e+000
      vertex  2.691892e+000 -1.699594e+001 -3.000000e+000
    endloop
  endfacet
  facet normal  7.829039e-001  5.860747e-001 -2.087532e-001
    outer loop
      vertex  1.050407e+001 -3.232819e+001 -3.000000e+000
      vertex  1.292752e+001 -3.645601e+001 -5.500000e+000
      vertex  8.167522e+000 -3.009741e+001 -5.500000e+000
    endloop
  endfacet
  facet normal  8.095324e-001  4.960820e-001 -3.139424e-001
    outer loop
      vertex  1.050407e+001 -3.232819e+001 -3.000000e+000
      vertex  8.167522e+000 -3.009741e+001 -5.500000e+000
      vertex  5.994641e+000 -2.496948e+001 -3.000000e+000
    endloop
  endfacet
  facet normal  2.143790e-001  1.558391e-001 -9.642385e-001
    outer loop
      vertex  6.627922e+000 -3.108685e+001 -7.330127e+000
      vertex  9.150176e+000 -3.870134e+001 -8.000000e+000
      vertex  4.040630e+000 -3.167243e+001 -8.000000e+000
    endloop
  endfacet
  facet normal  2.228775e-001  1.217003e-001 -9.672201e-001
    outer loop
      vertex  6.627922e+000 -3.108685e+001 -7.330127e+000
      vertex  4.040630e+000 -3.167243e+001 -8.000000e+000
      vertex  2.696160e+000 -2.388636e+001 -7.330127e+000
    endloop
  endfacet
  facet normal  6.918434e-001  6.918432e-001 -2.066538e-001
    outer loop
      vertex  1.610913e+001 -3.889087e+001 -3.000000e+000
      vertex  1.854399e+001 -4.207248e+001 -5.500000e+000
      vertex  1.292752e+001 -3.645601e+001 -5.500000e+000
    endloop
  endfacet
  facet normal  7.209797e-001  6.157749e-001 -3.178202e-001
    outer loop
      vertex  1.610913e+001 -3.889087e+001 -3.000000e+000
      vertex  1.292752e+001 -3.645601e+001 -5.500000e+000
      vertex  1.050407e+001 -3.232819e+001 -3.000000e+000
    endloop
  endfacet
  facet normal  1.890966e-001  1.846610e-001 -9.644391e-001
    outer loop
      vertex  1.154440e+001 -3.765449e+001 -7.330127e+000
      vertex  1.522146e+001 -4.491846e+001 -8.000000e+000
      vertex  9.150176e+000 -3.870134e+001 -8.000000e+000
    endloop
  endfacet
  facet normal  2.038439e-001  1.525957e-001 -9.670379e-001
    outer loop
      vertex  1.154440e+001 -3.765449e+001 -7.330127e+000
      vertex  9.150176e+000 -3.870134e+001 -8.000000e+000
      vertex  6.627922e+000 -3.108685e+001 -7.330127e+000
    endloop
  endfacet
  facet normal  5.860745e-001  7.829038e-001 -2.087541e-001
    outer loop
      vertex  2.267181e+001 -4.449593e+001 -3.000000e+000
      vertex  2.490259e+001 -4.683248e+001 -5.500000e+000
      vertex  1.854399e+001 -4.207248e+001 -5.500000e+000
    endloop
  endfacet
  facet normal  6.157745e-001  7.209796e-001 -3.178209e-001
    outer loop
      vertex  2.267181e+001 -4.449593e+001 -3.000000e+000
      vertex  1.854399e+001 -4.207248e+001 -5.500000e+000
      vertex  1.610913e+001 -3.889087e+001 -3.000000e+000
    endloop
  endfacet
  facet normal  1.599815e-001  2.094403e-001 -9.646454e-001
    outer loop
      vertex  1.734551e+001 -4.345560e+001 -7.330127e+000
      vertex  2.212713e+001 -5.019337e+001 -8.000000e+000
      vertex  1.522146e+001 -4.491846e+001 -8.000000e+000
    endloop
  endfacet
  facet normal  1.805637e-001  1.805637e-001 -9.668472e-001
    outer loop
      vertex  1.734551e+001 -4.345560e+001 -7.330127e+000
      vertex  1.522146e+001 -4.491846e+001 -8.000000e+000
      vertex  1.154440e+001 -3.765449e+001 -7.330127e+000
    endloop
  endfacet
  facet normal  4.680378e-001  8.571471e-001 -2.150341e-001
    outer loop
      vertex  3.003052e+001 -4.900536e+001 -3.000000e+000
      vertex  3.187390e+001 -5.063910e+001 -5.500000e+000
      vertex  2.490259e+001 -4.683248e+001 -5.500000e+000
    endloop
  endfacet
  facet normal  4.960822e-001  8.095322e-001 -3.139427e-001
    outer loop
      vertex  3.003052e+001 -4.900536e+001 -3.000000e+000
      vertex  2.490259e+001 -4.683248e+001 -5.500000e+000
      vertex  2.267181e+001 -4.449593e+001 -3.000000e+000
    endloop
  endfacet
  facet normal  1.276727e-001  2.296747e-001 -9.648572e-001
    outer loop
      vertex  2.391315e+001 -4.837208e+001 -7.330127e+000
      vertex  2.972235e+001 -5.441544e+001 -8.000000e+000
      vertex  2.212713e+001 -5.019337e+001 -8.000000e+000
    endloop
  endfacet
  facet normal  1.534803e-001  2.050257e-001 -9.666480e-001
    outer loop
      vertex  2.391315e+001 -4.837208e+001 -7.330127e+000
      vertex  2.212713e+001 -5.019337e+001 -8.000000e+000
      vertex  1.734551e+001 -4.345560e+001 -7.330127e+000
    endloop
  endfacet
  facet normal  3.404678e-001  9.128297e-001 -2.254410e-001
    outer loop
      vertex  3.800407e+001 -5.230811e+001 -3.000000e+000
      vertex  3.931598e+001 -5.341485e+001 -5.500000e+000
      vertex  3.187390e+001 -5.063910e+001 -5.500000e+000
    endloop
  endfacet
  facet normal  3.643095e-001  8.795210e-001 -3.061395e-001
    outer loop
      vertex  3.800407e+001 -5.230811e+001 -3.000000e+000
      vertex  3.187390e+001 -5.063910e+001 -5.500000e+000
      vertex  3.003052e+001 -4.900536e+001 -3.000000e+000
    endloop
  endfacet
  facet normal  9.287439e-002  2.449620e-001 -9.650741e-001
    outer loop
      vertex  3.111364e+001 -5.230384e+001 -7.330127e+000
      vertex  3.784777e+001 -5.749610e+001 -8.000000e+000
      vertex  2.972235e+001 -5.441544e+001 -8.000000e+000
    endloop
  endfacet
  facet normal  1.231159e-001  2.254698e-001 -9.664398e-001
    outer loop
      vertex  3.111364e+001 -5.230384e+001 -7.330127e+000
      vertex  2.972235e+001 -5.441544e+001 -8.000000e+000
      vertex  2.391315e+001 -4.837208e+001 -7.330127e+000
    endloop
  endfacet
  facet normal  2.063589e-001  9.486170e-001 -2.398787e-001
    outer loop
      vertex  4.639610e+001 -5.432286e+001 -3.000000e+000
      vertex  4.707735e+001 -5.510323e+001 -5.500000e+000
      vertex  3.931598e+001 -5.341485e+001 -5.500000e+000
    endloop
  endfacet
  facet normal  2.231051e-001  9.293005e-001 -2.943206e-001
    outer loop
      vertex  4.639610e+001 -5.432286e+001 -3.000000e+000
      vertex  3.931598e+001 -5.341485e+001 -5.500000e+000
      vertex  3.800407e+001 -5.230811e+001 -3.000000e+000
    endloop
  endfacet
  facet normal  5.633850e-002  2.550078e-001 -9.652963e-001
    outer loop
      vertex  3.880038e+001 -5.517085e+001 -7.330127e+000
      vertex  4.633299e+001 -5.937072e+001 -8.000000e+000
      vertex  3.784777e+001 -5.749610e+001 -8.000000e+000
    endloop
  endfacet
  facet normal  9.005982e-002  2.414599e-001 -9.662228e-001
    outer loop
      vertex  3.880038e+001 -5.517085e+001 -7.330127e+000
      vertex  3.784777e+001 -5.749610e+001 -8.000000e+000
      vertex  3.111364e+001 -5.230384e+001 -7.330127e+000
    endloop
  endfacet
  facet normal  5.496007e-002  2.526472e-001 -9.659963e-001
    outer loop
      vertex  4.681690e+001 -5.691473e+001 -7.330127e+000
      vertex  4.633299e+001 -5.937072e+001 -8.000000e+000
      vertex  3.880038e+001 -5.517085e+001 -7.330127e+000
    endloop
  endfacet
  facet normal  7.124358e-001  1.534885e-001 -6.847454e-001
    outer loop
      vertex  1.585148e+000 -1.568402e+001 -5.500000e+000
      vertex -2.099465e-014 -1.535084e+001 -7.074567e+000
      vertex -2.099465e-014 -1.036220e+001 -5.956342e+000
    endloop
  endfacet
  facet normal  1.878847e-002  2.587733e-001 -9.657553e-001
    outer loop
      vertex  5.500000e+001 -6.000000e+001 -8.000000e+000
      vertex  4.633299e+001 -5.937072e+001 -8.000000e+000
      vertex  5.500000e+001 -5.750000e+001 -7.330127e+000
    endloop
  endfacet
  facet normal  1.857303e-002  2.596852e-001 -9.655146e-001
    outer loop
      vertex  5.500000e+001 -5.750000e+001 -7.330127e+000
      vertex  4.633299e+001 -5.937072e+001 -8.000000e+000
      vertex  4.681690e+001 -5.691473e+001 -7.330127e+000
    endloop
  endfacet
  facet normal  5.050864e-002  7.062041e-001 -7.062043e-001
    outer loop
      vertex  5.500000e+001 -5.750000e+001 -7.330127e+000
      vertex  4.681690e+001 -5.691473e+001 -7.330127e+000
      vertex  5.500000e+001 -5.566987e+001 -5.500000e+000
    endloop
  endfacet
  facet normal  5.050870e-002  7.062040e-001 -7.062045e-001
    outer loop
      vertex  5.500000e+001 -5.566987e+001 -5.500000e+000
      vertex  4.681690e+001 -5.691473e+001 -7.330127e+000
      vertex  4.707735e+001 -5.510323e+001 -5.500000e+000
    endloop
  endfacet
  facet normal  6.892010e-002  9.636291e-001 -2.582034e-001
    outer loop
      vertex  5.500000e+001 -5.566987e+001 -5.500000e+000
      vertex  4.707735e+001 -5.510323e+001 -5.500000e+000
      vertex  5.500000e+001 -5.500000e+001 -3.000000e+000
    endloop
  endfacet
  facet normal  1.504978e-001  6.918278e-001 -7.062044e-001
    outer loop
      vertex  4.707735e+001 -5.510323e+001 -5.500000e+000
      vertex  4.681690e+001 -5.691473e+001 -7.330127e+000
      vertex  3.931598e+001 -5.341485e+001 -5.500000e+000
    endloop
  endfacet
  facet normal  1.504981e-001  6.918282e-001 -7.062040e-001
    outer loop
      vertex  3.931598e+001 -5.341485e+001 -5.500000e+000
      vertex  4.681690e+001 -5.691473e+001 -7.330127e+000
      vertex  3.880038e+001 -5.517085e+001 -7.330127e+000
    endloop
  endfacet
  facet normal  2.474236e-001  6.633683e-001 -7.062040e-001
    outer loop
      vertex  3.931598e+001 -5.341485e+001 -5.500000e+000
      vertex  3.880038e+001 -5.517085e+001 -7.330127e+000
      vertex  3.187390e+001 -5.063910e+001 -5.500000e+000
    endloop
  endfacet
  facet normal  2.474234e-001  6.633682e-001 -7.062042e-001
    outer loop
      vertex  3.187390e+001 -5.063910e+001 -5.500000e+000
      vertex  3.880038e+001 -5.517085e+001 -7.330127e+000
      vertex  3.111364e+001 -5.230384e+001 -7.330127e+000
    endloop
  endfacet
  facet normal  3.393123e-001  6.214039e-001 -7.062042e-001
    outer loop
      vertex  3.187390e+001 -5.063910e+001 -5.500000e+000
      vertex  3.111364e+001 -5.230384e+001 -7.330127e+000
      vertex  2.490259e+001 -4.683248e+001 -5.500000e+000
    endloop
  endfacet
  facet normal  3.393124e-001  6.214041e-001 -7.062041e-001
    outer loop
      vertex  2.490259e+001 -4.683248e+001 -5.500000e+000
      vertex  3.111364e+001 -5.230384e+001 -7.330127e+000
      vertex  2.391315e+001 -4.837208e+001 -7.330127e+000
    endloop
  endfacet
  facet normal  4.242936e-001  5.667899e-001 -7.062041e-001
    outer loop
      vertex  2.490259e+001 -4.683248e+001 -5.500000e+000
      vertex  2.391315e+001 -4.837208e+001 -7.330127e+000
      vertex  1.854399e+001 -4.207248e+001 -5.500000e+000
    endloop
  endfacet
  facet normal  4.242936e-001  5.667899e-001 -7.062040e-001
    outer loop
      vertex  1.854399e+001 -4.207248e+001 -5.500000e+000
      vertex  2.391315e+001 -4.837208e+001 -7.330127e+000
      vertex  1.734551e+001 -4.345560e+001 -7.330127e+000
    endloop
  endfacet
  facet normal  5.006377e-001  5.006375e-001 -7.062040e-001
    outer loop
      vertex  1.854399e+001 -4.207248e+001 -5.500000e+000
      vertex  1.734551e+001 -4.345560e+001 -7.330127e+000
      vertex  1.292752e+001 -3.645601e+001 -5.500000e+000
    endloop
  endfacet
  facet normal  5.006374e-001  5.006374e-001 -7.062043e-001
    outer loop
      vertex  1.292752e+001 -3.645601e+001 -5.500000e+000
      vertex  1.734551e+001 -4.345560e+001 -7.330127e+000
      vertex  1.154440e+001 -3.765449e+001 -7.330127e+000
    endloop
  endfacet
  facet normal  5.667897e-001  4.242936e-001 -7.062043e-001
    outer loop
      vertex  1.292752e+001 -3.645601e+001 -5.500000e+000
      vertex  1.154440e+001 -3.765449e+001 -7.330127e+000
      vertex  8.167522e+000 -3.009741e+001 -5.500000e+000
    endloop
  endfacet
  facet normal  5.667899e-001  4.242936e-001 -7.062041e-001
    outer loop
      vertex  8.167522e+000 -3.009741e+001 -5.500000e+000
      vertex  1.154440e+001 -3.765449e+001 -7.330127e+000
      vertex  6.627922e+000 -3.108685e+001 -7.330127e+000
    endloop
  endfacet
  facet normal  6.214041e-001  3.393122e-001 -7.062041e-001
    outer loop
      vertex  8.167522e+000 -3.009741e+001 -5.500000e+000
      vertex  6.627922e+000 -3.108685e+001 -7.330127e+000
      vertex  4.360902e+000 -2.312610e+001 -5.500000e+000
    endloop
  endfacet
  facet normal  6.214038e-001  3.393122e-001 -7.062043e-001
    outer loop
      vertex  4.360902e+000 -2.312610e+001 -5.500000e+000
      vertex  6.627922e+000 -3.108685e+001 -7.330127e+000
      vertex  2.696160e+000 -2.388636e+001 -7.330127e+000
    endloop
  endfacet
  facet normal  6.633680e-001  2.474235e-001 -7.062043e-001
    outer loop
      vertex  4.360902e+000 -2.312610e+001 -5.500000e+000
      vertex  2.696160e+000 -2.388636e+001 -7.330127e+000
      vertex  1.585148e+000 -1.568402e+001 -5.500000e+000
    endloop
  endfacet
  facet normal  4.980518e-001  2.525536e-001 -8.295548e-001
    outer loop
      vertex  1.585148e+000 -1.568402e+001 -5.500000e+000
      vertex  2.696160e+000 -2.388636e+001 -7.330127e+000
      vertex -2.099465e-014 -2.005689e+001 -7.782996e+000
    endloop
  endfacet
  facet normal  7.118477e-001  1.045484e-001 -6.945089e-001
    outer loop
      vertex  1.585148e+000 -1.568402e+001 -5.500000e+000
      vertex -2.099465e-014 -2.005689e+001 -7.782996e+000
      vertex -2.099465e-014 -1.535084e+001 -7.074567e+000
    endloop
  endfacet
  facet normal  0.000000e+000  0.000000e+000 -1.000000e+000
    outer loop
      vertex  0.000000e+000 -7.500000e+001 -8.000000e+000
      vertex  0.000000e+000 -2.397916e+001 -8.000000e+000
      vertex  4.040630e+000 -3.167243e+001 -8.000000e+000
    endloop
  endfacet
  facet normal  0.000000e+000  -0.000000e+000 -9.999999e-001
    outer loop
      vertex  0.000000e+000 -7.500000e+001 -8.000000e+000
      vertex  4.040630e+000 -3.167243e+001 -8.000000e+000
      vertex  9.150176e+000 -3.870134e+001 -8.000000e+000
    endloop
  endfacet
  facet normal  0.000000e+000  -0.000000e+000 -1.000000e+000
    outer loop
      vertex  0.000000e+000 -7.500000e+001 -8.000000e+000
      vertex  9.150176e+000 -3.870134e+001 -8.000000e+000
      vertex  1.522146e+001 -4.491846e+001 -8.000000e+000
    endloop
  endfacet
  facet normal  0.000000e+000  -0.000000e+000 -1.000000e+000
    outer loop
      vertex  0.000000e+000 -7.500000e+001 -8.000000e+000
      vertex  1.522146e+001 -4.491846e+001 -8.000000e+000
      vertex  2.212713e+001 -5.019337e+001 -8.000000e+000
    endloop
  endfacet
  facet normal  0.000000e+000  -0.000000e+000 -1.000000e+000
    outer loop
      vertex  0.000000e+000 -7.500000e+001 -8.000000e+000
      vertex  2.212713e+001 -5.019337e+001 -8.000000e+000
      vertex  2.972235e+001 -5.441544e+001 -8.000000e+000
    endloop
  endfacet
  facet normal  0.000000e+000  -0.000000e+000 -1.000000e+000
    outer loop
      vertex  0.000000e+000 -7.500000e+001 -8.000000e+000
      vertex  2.972235e+001 -5.441544e+001 -8.000000e+000
      vertex  3.784777e+001 -5.749610e+001 -8.000000e+000
    endloop
  endfacet
  facet normal  0.000000e+000  -0.000000e+000 -1.000000e+000
    outer loop
      vertex  0.000000e+000 -7.500000e+001 -8.000000e+000
      vertex  3.784777e+001 -5.749610e+001 -8.000000e+000
      vertex  4.633299e+001 -5.937072e+001 -8.000000e+000
    endloop
  endfacet
  facet normal  0.000000e+000  -0.000000e+000 -1.000000e+000
    outer loop
      vertex  0.000000e+000 -7.500000e+001 -8.000000e+000
      vertex  4.633299e+001 -5.937072e+001 -8.000000e+000
      vertex  5.500000e+001 -6.000000e+001 -8.000000e+000
    endloop
  endfacet
  facet normal  0.000000e+000  -0.000000e+000 -1.000000e+000
    outer loop
      vertex  0.000000e+000 -7.500000e+001 -8.000000e+000
      vertex  5.500000e+001 -6.000000e+001 -8.000000e+000
      vertex  1.500000e+002 -6.000000e+001 -8.000000e+000
    endloop
  endfacet
  facet normal  0.000000e+000  -0.000000e+000 -1.000000e+000
    outer loop
      vertex  0.000000e+000 -7.500000e+001 -8.000000e+000
      vertex  1.500000e+002 -6.000000e+001 -8.000000e+000
      vertex  1.500000e+002 -7.500000e+001 -8.000000e+000
    endloop
  endfacet
  facet normal  0.000000e+000  2.588190e-001 -9.659258e-001
    outer loop
      vertex  1.500000e+002 -6.000000e+001 -8.000000e+000
      vertex  5.500000e+001 -6.000000e+001 -8.000000e+000
      vertex  1.500000e+002 -5.750000e+001 -7.330127e+000
    endloop
  endfacet
  facet normal  0.000000e+000  2.588190e-001 -9.659258e-001
    outer loop
      vertex  1.500000e+002 -5.750000e+001 -7.330127e+000
      vertex  5.500000e+001 -6.000000e+001 -8.000000e+000
      vertex  5.500000e+001 -5.750000e+001 -7.330127e+000
    endloop
  endfacet
  facet normal  0.000000e+000  7.071066e-001 -7.071069e-001
    outer loop
      vertex  1.500000e+002 -5.750000e+001 -7.330127e+000
      vertex  5.500000e+001 -5.750000e+001 -7.330127e+000
      vertex  1.500000e+002 -5.566987e+001 -5.500000e+000
    endloop
  endfacet
  facet normal  0.000000e+000  7.071066e-001 -7.071069e-001
    outer loop
      vertex  1.500000e+002 -5.566987e+001 -5.500000e+000
      vertex  5.500000e+001 -5.750000e+001 -7.330127e+000
      vertex  5.500000e+001 -5.566987e+001 -5.500000e+000
    endloop
  endfacet
  facet normal  0.000000e+000  9.659259e-001 -2.588188e-001
    outer loop
      vertex  1.500000e+002 -5.566987e+001 -5.500000e+000
      vertex  5.500000e+001 -5.566987e+001 -5.500000e+000
      vertex  1.500000e+002 -5.500000e+001 -3.000000e+000
    endloop
  endfacet
  facet normal  0.000000e+000  9.659259e-001 -2.588188e-001
    outer loop
      vertex  1.500000e+002 -5.500000e+001 -3.000000e+000
      vertex  5.500000e+001 -5.566987e+001 -5.500000e+000
      vertex  5.500000e+001 -5.500000e+001 -3.000000e+000
    endloop
  endfacet
  facet normal  -0.000000e+000 -2.588190e-001 -9.659259e-001
    outer loop
      vertex  0.000000e+000 -7.500000e+001 -8.000000e+000
      vertex  1.500000e+002 -7.500000e+001 -8.000000e+000
      vertex -2.099465e-014 -7.750000e+001 -7.330127e+000
    endloop
  endfacet
  facet normal  0.000000e+000 -2.588190e-001 -9.659259e-001
    outer loop
      vertex -2.099465e-014 -7.750000e+001 -7.330127e+000
      vertex  1.500000e+002 -7.500000e+001 -8.000000e+000
      vertex  1.500000e+002 -7.750000e+001 -7.330127e+000
    endloop
  endfacet
  facet normal  -0.000000e+000 -7.071075e-001 -7.071062e-001
    outer loop
      vertex -2.099465e-014 -7.750000e+001 -7.330127e+000
      vertex  1.500000e+002 -7.750000e+001 -7.330127e+000
      vertex -2.099465e-014 -7.933012e+001 -5.500000e+000
    endloop
  endfacet
  facet normal  0.000000e+000 -7.071075e-001 -7.071062e-001
    outer loop
      vertex -2.099465e-014 -7.933012e+001 -5.500000e+000
      vertex  1.500000e+002 -7.750000e+001 -7.330127e+000
      vertex  1.500000e+002 -7.933012e+001 -5.500000e+000
    endloop
  endfacet
  facet normal  -0.000000e+000 -9.659255e-001 -2.588201e-001
    outer loop
      vertex -2.099465e-014 -7.933012e+001 -5.500000e+000
      vertex  1.500000e+002 -7.933012e+001 -5.500000e+000
      vertex  0.000000e+000 -8.000000e+001 -3.000000e+000
    endloop
  endfacet
  facet normal  0.000000e+000 -9.659255e-001 -2.588201e-001
    outer loop
      vertex  0.000000e+000 -8.000000e+001 -3.000000e+000
      vertex  1.500000e+002 -7.933012e+001 -5.500000e+000
      vertex  1.500000e+002 -8.000000e+001 -3.000000e+000
    endloop
  endfacet
  facet normal  1.554158e-002  1.990272e-001  9.798707e-001
    outer loop
      vertex  5.500000e+001 -6.200000e+001  1.500000e+001
      vertex  4.655771e+001 -5.871741e+001  1.446716e+001
      vertex  4.537578e+001 -6.124847e+001  1.500000e+001
    endloop
  endfacet
  facet normal  6.997547e-002  9.783810e-001  1.946125e-001
    outer loop
      vertex  5.500000e+001 -5.500000e+001  8.000000e+000
      vertex  4.709685e+001 -5.496760e+001  1.067878e+001
      vertex  5.500000e+001 -5.553284e+001  1.067878e+001
    endloop
  endfacet
  facet normal  7.663618e-002  9.737526e-001  2.143194e-001
    outer loop
      vertex  5.500000e+001 -5.500000e+001  8.000000e+000
      vertex  4.639610e+001 -5.432286e+001  8.000000e+000
      vertex  4.709685e+001 -5.496760e+001  1.067878e+001
    endloop
  endfacet
  facet normal  5.689429e-001  2.092090e-001  7.953210e-001
    outer loop
      vertex -2.099465e-014 -1.824120e+001  1.370660e+001
      vertex  2.606836e-001 -1.607291e+001  1.294975e+001
      vertex -2.099465e-014 -1.228717e+001  1.214039e+001
    endloop
  endfacet
  facet normal  9.463052e-001  2.271878e-001  2.299830e-001
    outer loop
      vertex  1.716627e+000 -1.564541e+001  1.067878e+001
      vertex  2.691892e+000 -1.699594e+001  8.000000e+000
      vertex  6.771412e-001 -8.603895e+000  8.000000e+000
    endloop
  endfacet
  facet normal  8.965061e-001  3.713451e-001  2.416185e-001
    outer loop
      vertex  4.485549e+000 -2.306918e+001  1.067878e+001
      vertex  5.994641e+000 -2.496948e+001  8.000000e+000
      vertex  2.691892e+000 -1.699594e+001  8.000000e+000
    endloop
  endfacet
  facet normal  9.244604e-001  3.448059e-001  1.627321e-001
    outer loop
      vertex  4.485549e+000 -2.306918e+001  1.067878e+001
      vertex  2.691892e+000 -1.699594e+001  8.000000e+000
      vertex  1.716627e+000 -1.564541e+001  1.067878e+001
    endloop
  endfacet
  facet normal  8.257150e-001  5.059987e-001  2.493190e-001
    outer loop
      vertex  8.282800e+000 -3.002332e+001  1.067878e+001
      vertex  1.050407e+001 -3.232819e+001  8.000000e+000
      vertex  5.994641e+000 -2.496948e+001  8.000000e+000
    endloop
  endfacet
  facet normal  1.581661e-001  1.369328e-001  9.778717e-001
    outer loop
      vertex  1.142764e+001 -4.410725e+001  1.500000e+001
      vertex  1.016802e+001 -3.884713e+001  1.446716e+001
      vertex  5.109064e+000 -3.680889e+001  1.500000e+001
    endloop
  endfacet
  facet normal  7.356367e-001  6.282932e-001  2.531527e-001
    outer loop
      vertex  1.303108e+001 -3.636628e+001  1.067878e+001
      vertex  1.610913e+001 -3.889087e+001  8.000000e+000
      vertex  1.050407e+001 -3.232819e+001  8.000000e+000
    endloop
  endfacet
  facet normal  7.918939e-001  5.928041e-001  1.465856e-001
    outer loop
      vertex  1.303108e+001 -3.636628e+001  1.067878e+001
      vertex  1.050407e+001 -3.232819e+001  8.000000e+000
      vertex  8.282800e+000 -3.002332e+001  1.067878e+001
    endloop
  endfacet
  facet normal  1.347485e-001  1.595356e-001  9.779525e-001
    outer loop
      vertex  1.880254e+001 -5.033631e+001  1.500000e+001
      vertex  1.615286e+001 -4.483199e+001  1.446716e+001
      vertex  1.142764e+001 -4.410725e+001  1.500000e+001
    endloop
  endfacet
  facet normal  6.282931e-001  7.356369e-001  2.531523e-001
    outer loop
      vertex  1.863372e+001 -4.196892e+001  1.067878e+001
      vertex  2.267181e+001 -4.449593e+001  8.000000e+000
      vertex  1.610913e+001 -3.889087e+001  8.000000e+000
    endloop
  endfacet
  facet normal  6.996794e-001  6.996797e-001  1.445585e-001
    outer loop
      vertex  1.863372e+001 -4.196892e+001  1.067878e+001
      vertex  1.610913e+001 -3.889087e+001  8.000000e+000
      vertex  1.303108e+001 -3.636628e+001  1.067878e+001
    endloop
  endfacet
  facet normal  1.077375e-001  1.775087e-001  9.782041e-001
    outer loop
      vertex  2.705498e+001 -5.534506e+001  1.500000e+001
      vertex  2.292853e+001 -4.990418e+001  1.446716e+001
      vertex  1.880254e+001 -5.033631e+001  1.500000e+001
    endloop
  endfacet
  facet normal  5.059989e-001  8.257148e-001  2.493196e-001
    outer loop
      vertex  2.497668e+001 -4.671720e+001  1.067878e+001
      vertex  3.003052e+001 -4.900536e+001  8.000000e+000
      vertex  2.267181e+001 -4.449593e+001  8.000000e+000
    endloop
  endfacet
  facet normal  5.928044e-001  7.918937e-001  1.465861e-001
    outer loop
      vertex  2.497668e+001 -4.671720e+001  1.067878e+001
      vertex  2.267181e+001 -4.449593e+001  8.000000e+000
      vertex  1.863372e+001 -4.196892e+001  1.067878e+001
    endloop
  endfacet
  facet normal  7.813355e-002  1.902705e-001  9.786176e-001
    outer loop
      vertex  3.598489e+001 -5.901208e+001  1.500000e+001
      vertex  3.035708e+001 -5.396048e+001  1.446716e+001
      vertex  2.705498e+001 -5.534506e+001  1.500000e+001
    endloop
  endfacet
  facet normal  3.713451e-001  8.965064e-001  2.416180e-001
    outer loop
      vertex  3.193082e+001 -5.051445e+001  1.067878e+001
      vertex  3.800407e+001 -5.230811e+001  8.000000e+000
      vertex  3.003052e+001 -4.900536e+001  8.000000e+000
    endloop
  endfacet
  facet normal  4.736319e-001  8.673922e-001  1.526555e-001
    outer loop
      vertex  3.193082e+001 -5.051445e+001  1.067878e+001
      vertex  3.003052e+001 -4.900536e+001  8.000000e+000
      vertex  2.497668e+001 -4.671720e+001  1.067878e+001
    endloop
  endfacet
  facet normal  4.702778e-002  1.974759e-001  9.791790e-001
    outer loop
      vertex  4.537578e+001 -6.124847e+001  1.500000e+001
      vertex  3.828728e+001 -5.691829e+001  1.446716e+001
      vertex  3.598489e+001 -5.901208e+001  1.500000e+001
    endloop
  endfacet
  facet normal  2.271875e-001  9.463051e-001  2.299835e-001
    outer loop
      vertex  3.935459e+001 -5.328337e+001  1.067878e+001
      vertex  4.639610e+001 -5.432286e+001  8.000000e+000
      vertex  3.800407e+001 -5.230811e+001  8.000000e+000
    endloop
  endfacet
  facet normal  3.448061e-001  9.244604e-001  1.627324e-001
    outer loop
      vertex  3.935459e+001 -5.328337e+001  1.067878e+001
      vertex  3.800407e+001 -5.230811e+001  8.000000e+000
      vertex  3.193082e+001 -5.051445e+001  1.067878e+001
    endloop
  endfacet
  facet normal  2.092183e-001  9.617623e-001  1.767512e-001
    outer loop
      vertex  4.709685e+001 -5.496760e+001  1.067878e+001
      vertex  4.639610e+001 -5.432286e+001  8.000000e+000
      vertex  3.935459e+001 -5.328337e+001  1.067878e+001
    endloop
  endfacet
  facet normal  1.771383e-001  1.104923e-001  9.779639e-001
    outer loop
      vertex -1.421085e-014 -2.861818e+001  1.500000e+001
      vertex  5.109064e+000 -3.680889e+001  1.500000e+001
      vertex  5.095818e+000 -3.207147e+001  1.446716e+001
    endloop
  endfacet
  facet normal  1.630948e-001  8.905648e-002  9.825828e-001
    outer loop
      vertex -1.421085e-014 -2.861818e+001  1.500000e+001
      vertex  5.095818e+000 -3.207147e+001  1.446716e+001
      vertex  1.039524e+000 -2.464292e+001  1.446716e+001
    endloop
  endfacet
  facet normal  2.583930e-001  6.165471e-002  9.640704e-001
    outer loop
      vertex -1.421085e-014 -2.861818e+001  1.500000e+001
      vertex  1.039524e+000 -2.464292e+001  1.446716e+001
      vertex -2.099465e-014 -2.389222e+001  1.469776e+001
    endloop
  endfacet
  facet normal  7.796577e-001  2.907973e-001  5.545905e-001
    outer loop
      vertex  3.105265e+000 -2.369953e+001  1.294975e+001
      vertex  4.485549e+000 -2.306918e+001  1.067878e+001
      vertex  2.606836e-001 -1.607291e+001  1.294975e+001
    endloop
  endfacet
  facet normal  7.796577e-001  2.907973e-001  5.545907e-001
    outer loop
      vertex  2.606836e-001 -1.607291e+001  1.294975e+001
      vertex  4.485549e+000 -2.306918e+001  1.067878e+001
      vertex  1.716627e+000 -1.564541e+001  1.067878e+001
    endloop
  endfacet
  facet normal  8.136587e-001  1.745770e-001  5.545109e-001
    outer loop
      vertex  2.606836e-001 -1.607291e+001  1.294975e+001
      vertex  1.716627e+000 -1.564541e+001  1.067878e+001
      vertex -2.099465e-014 -1.228717e+001  1.214039e+001
    endloop
  endfacet
  facet normal  8.158205e-001  1.774709e-001  5.504009e-001
    outer loop
      vertex -2.099465e-014 -1.228717e+001  1.214039e+001
      vertex  1.716627e+000 -1.564541e+001  1.067878e+001
      vertex  3.240100e-002 -7.903148e+000  1.067878e+001
    endloop
  endfacet
  facet normal  3.211100e-001  2.973934e-001  8.991360e-001
    outer loop
      vertex -2.099465e-014 -1.228717e+001  1.214039e+001
      vertex  3.240100e-002 -7.903148e+000  1.067878e+001
      vertex -2.099465e-014 -3.084222e+000  9.096474e+000
    endloop
  endfacet
  facet normal  9.734918e-001  7.661547e-002  2.155082e-001
    outer loop
      vertex -2.099465e-014  0.000000e+000  8.000000e+000
      vertex -2.099465e-014 -3.084222e+000  9.096474e+000
      vertex  6.771412e-001 -8.603895e+000  8.000000e+000
    endloop
  endfacet
  facet normal  9.737473e-001  7.689681e-002  2.142497e-001
    outer loop
      vertex  6.771412e-001 -8.603895e+000  8.000000e+000
      vertex -2.099465e-014 -3.084222e+000  9.096474e+000
      vertex  3.240100e-002 -7.903148e+000  1.067878e+001
    endloop
  endfacet
  facet normal  9.617624e-001  2.092186e-001  1.767509e-001
    outer loop
      vertex  6.771412e-001 -8.603895e+000  8.000000e+000
      vertex  3.240100e-002 -7.903148e+000  1.067878e+001
      vertex  1.716627e+000 -1.564541e+001  1.067878e+001
    endloop
  endfacet
  facet normal  5.214596e-001  1.944944e-001  8.308140e-001
    outer loop
      vertex  3.105265e+000 -2.369953e+001  1.294975e+001
      vertex  2.606836e-001 -1.607291e+001  1.294975e+001
      vertex  1.039524e+000 -2.464292e+001  1.446716e+001
    endloop
  endfacet
  facet normal  6.199955e-001  1.910847e-001  7.609811e-001
    outer loop
      vertex  1.039524e+000 -2.464292e+001  1.446716e+001
      vertex  2.606836e-001 -1.607291e+001  1.294975e+001
      vertex -2.099465e-014 -1.824120e+001  1.370660e+001
    endloop
  endfacet
  facet normal  3.246676e-001  1.634000e-001  9.316069e-001
    outer loop
      vertex  1.039524e+000 -2.464292e+001  1.446716e+001
      vertex -2.099465e-014 -1.824120e+001  1.370660e+001
      vertex -2.099465e-014 -2.389222e+001  1.469776e+001
    endloop
  endfacet
  facet normal  5.936327e-002  8.300037e-001  5.545899e-001
    outer loop
      vertex  5.500000e+001 -5.553284e+001  1.067878e+001
      vertex  4.709685e+001 -5.496760e+001  1.067878e+001
      vertex  5.500000e+001 -5.705025e+001  1.294975e+001
    endloop
  endfacet
  facet normal  5.936291e-002  8.300032e-001  5.545907e-001
    outer loop
      vertex  5.500000e+001 -5.705025e+001  1.294975e+001
      vertex  4.709685e+001 -5.496760e+001  1.067878e+001
      vertex  4.688090e+001 -5.646956e+001  1.294975e+001
    endloop
  endfacet
  facet normal  3.970375e-002  5.551318e-001  8.308142e-001
    outer loop
      vertex  5.500000e+001 -5.705025e+001  1.294975e+001
      vertex  4.688090e+001 -5.646956e+001  1.294975e+001
      vertex  5.500000e+001 -5.932122e+001  1.446716e+001
    endloop
  endfacet
  facet normal  3.970392e-002  5.551322e-001  8.308140e-001
    outer loop
      vertex  5.500000e+001 -5.932122e+001  1.446716e+001
      vertex  4.688090e+001 -5.646956e+001  1.294975e+001
      vertex  4.655771e+001 -5.871741e+001  1.446716e+001
    endloop
  endfacet
  facet normal  1.395182e-002  1.950715e-001  9.806898e-001
    outer loop
      vertex  5.500000e+001 -5.932122e+001  1.446716e+001
      vertex  4.655771e+001 -5.871741e+001  1.446716e+001
      vertex  5.500000e+001 -6.200000e+001  1.500000e+001
    endloop
  endfacet
  facet normal  4.884725e-001  2.667261e-001  8.308139e-001
    outer loop
      vertex  1.039524e+000 -2.464292e+001  1.446716e+001
      vertex  5.095818e+000 -3.207147e+001  1.446716e+001
      vertex  3.105265e+000 -2.369953e+001  1.294975e+001
    endloop
  endfacet
  facet normal  4.884723e-001  2.667261e-001  8.308142e-001
    outer loop
      vertex  3.105265e+000 -2.369953e+001  1.294975e+001
      vertex  5.095818e+000 -3.207147e+001  1.446716e+001
      vertex  7.006274e+000 -3.084369e+001  1.294975e+001
    endloop
  endfacet
  facet normal  7.303372e-001  3.987944e-001  5.545905e-001
    outer loop
      vertex  3.105265e+000 -2.369953e+001  1.294975e+001
      vertex  7.006274e+000 -3.084369e+001  1.294975e+001
      vertex  4.485549e+000 -2.306918e+001  1.067878e+001
    endloop
  endfacet
  facet normal  7.303371e-001  3.987943e-001  5.545906e-001
    outer loop
      vertex  4.485549e+000 -2.306918e+001  1.067878e+001
      vertex  7.006274e+000 -3.084369e+001  1.294975e+001
      vertex  8.282800e+000 -3.002332e+001  1.067878e+001
    endloop
  endfacet
  facet normal  8.673921e-001  4.736320e-001  1.526559e-001
    outer loop
      vertex  4.485549e+000 -2.306918e+001  1.067878e+001
      vertex  8.282800e+000 -3.002332e+001  1.067878e+001
      vertex  5.994641e+000 -2.496948e+001  8.000000e+000
    endloop
  endfacet
  facet normal  6.661493e-001  4.986729e-001  5.545903e-001
    outer loop
      vertex  1.303108e+001 -3.636628e+001  1.067878e+001
      vertex  8.282800e+000 -3.002332e+001  1.067878e+001
      vertex  1.188430e+001 -3.735997e+001  1.294975e+001
    endloop
  endfacet
  facet normal  6.661490e-001  4.986729e-001  5.545906e-001
    outer loop
      vertex  1.188430e+001 -3.735997e+001  1.294975e+001
      vertex  8.282800e+000 -3.002332e+001  1.067878e+001
      vertex  7.006274e+000 -3.084369e+001  1.294975e+001
    endloop
  endfacet
  facet normal  4.455414e-001  3.335281e-001  8.308139e-001
    outer loop
      vertex  1.188430e+001 -3.735997e+001  1.294975e+001
      vertex  7.006274e+000 -3.084369e+001  1.294975e+001
      vertex  1.016802e+001 -3.884713e+001  1.446716e+001
    endloop
  endfacet
  facet normal  4.455411e-001  3.335281e-001  8.308141e-001
    outer loop
      vertex  1.016802e+001 -3.884713e+001  1.446716e+001
      vertex  7.006274e+000 -3.084369e+001  1.294975e+001
      vertex  5.095818e+000 -3.207147e+001  1.446716e+001
    endloop
  endfacet
  facet normal  1.482059e-001  1.109456e-001  9.827136e-001
    outer loop
      vertex  1.016802e+001 -3.884713e+001  1.446716e+001
      vertex  5.095818e+000 -3.207147e+001  1.446716e+001
      vertex  5.109064e+000 -3.680889e+001  1.500000e+001
    endloop
  endfacet
  facet normal  5.883998e-001  5.884001e-001  5.545908e-001
    outer loop
      vertex  1.863372e+001 -4.196892e+001  1.067878e+001
      vertex  1.303108e+001 -3.636628e+001  1.067878e+001
      vertex  1.764003e+001 -4.311570e+001  1.294975e+001
    endloop
  endfacet
  facet normal  5.884002e-001  5.884002e-001  5.545903e-001
    outer loop
      vertex  1.764003e+001 -4.311570e+001  1.294975e+001
      vertex  1.303108e+001 -3.636628e+001  1.067878e+001
      vertex  1.188430e+001 -3.735997e+001  1.294975e+001
    endloop
  endfacet
  facet normal  3.935402e-001  3.935402e-001  8.308142e-001
    outer loop
      vertex  1.764003e+001 -4.311570e+001  1.294975e+001
      vertex  1.188430e+001 -3.735997e+001  1.294975e+001
      vertex  1.615286e+001 -4.483199e+001  1.446716e+001
    endloop
  endfacet
  facet normal  3.935406e-001  3.935404e-001  8.308139e-001
    outer loop
      vertex  1.615286e+001 -4.483199e+001  1.446716e+001
      vertex  1.188430e+001 -3.735997e+001  1.294975e+001
      vertex  1.016802e+001 -3.884713e+001  1.446716e+001
    endloop
  endfacet
  facet normal  1.308927e-001  1.308926e-001  9.827177e-001
    outer loop
      vertex  1.615286e+001 -4.483199e+001  1.446716e+001
      vertex  1.016802e+001 -3.884713e+001  1.446716e+001
      vertex  1.142764e+001 -4.410725e+001  1.500000e+001
    endloop
  endfacet
  facet normal  4.986732e-001  6.661492e-001  5.545901e-001
    outer loop
      vertex  2.497668e+001 -4.671720e+001  1.067878e+001
      vertex  1.863372e+001 -4.196892e+001  1.067878e+001
      vertex  2.415631e+001 -4.799372e+001  1.294975e+001
    endloop
  endfacet
  facet normal  4.986728e-001  6.661490e-001  5.545908e-001
    outer loop
      vertex  2.415631e+001 -4.799372e+001  1.294975e+001
      vertex  1.863372e+001 -4.196892e+001  1.067878e+001
      vertex  1.764003e+001 -4.311570e+001  1.294975e+001
    endloop
  endfacet
  facet normal  3.335280e-001  4.455413e-001  8.308142e-001
    outer loop
      vertex  2.415631e+001 -4.799372e+001  1.294975e+001
      vertex  1.764003e+001 -4.311570e+001  1.294975e+001
      vertex  2.292853e+001 -4.990418e+001  1.446716e+001
    endloop
  endfacet
  facet normal  3.335278e-001  4.455412e-001  8.308142e-001
    outer loop
      vertex  2.292853e+001 -4.990418e+001  1.446716e+001
      vertex  1.764003e+001 -4.311570e+001  1.294975e+001
      vertex  1.615286e+001 -4.483199e+001  1.446716e+001
    endloop
  endfacet
  facet normal  1.113210e-001  1.487075e-001  9.825954e-001
    outer loop
      vertex  2.292853e+001 -4.990418e+001  1.446716e+001
      vertex  1.615286e+001 -4.483199e+001  1.446716e+001
      vertex  1.880254e+001 -5.033631e+001  1.500000e+001
    endloop
  endfacet
  facet normal  3.987943e-001  7.303374e-001  5.545903e-001
    outer loop
      vertex  3.193082e+001 -5.051445e+001  1.067878e+001
      vertex  2.497668e+001 -4.671720e+001  1.067878e+001
      vertex  3.130047e+001 -5.189473e+001  1.294975e+001
    endloop
  endfacet
  facet normal  3.987945e-001  7.303375e-001  5.545901e-001
    outer loop
      vertex  3.130047e+001 -5.189473e+001  1.294975e+001
      vertex  2.497668e+001 -4.671720e+001  1.067878e+001
      vertex  2.415631e+001 -4.799372e+001  1.294975e+001
    endloop
  endfacet
  facet normal  2.667261e-001  4.884723e-001  8.308142e-001
    outer loop
      vertex  3.130047e+001 -5.189473e+001  1.294975e+001
      vertex  2.415631e+001 -4.799372e+001  1.294975e+001
      vertex  3.035708e+001 -5.396048e+001  1.446716e+001
    endloop
  endfacet
  facet normal  2.667260e-001  4.884722e-001  8.308142e-001
    outer loop
      vertex  3.035708e+001 -5.396048e+001  1.446716e+001
      vertex  2.415631e+001 -4.799372e+001  1.294975e+001
      vertex  2.292853e+001 -4.990418e+001  1.446716e+001
    endloop
  endfacet
  facet normal  8.966343e-002  1.642063e-001  9.823425e-001
    outer loop
      vertex  3.035708e+001 -5.396048e+001  1.446716e+001
      vertex  2.292853e+001 -4.990418e+001  1.446716e+001
      vertex  2.705498e+001 -5.534506e+001  1.500000e+001
    endloop
  endfacet
  facet normal  2.907976e-001  7.796581e-001  5.545900e-001
    outer loop
      vertex  3.935459e+001 -5.328337e+001  1.067878e+001
      vertex  3.193082e+001 -5.051445e+001  1.067878e+001
      vertex  3.892709e+001 -5.473932e+001  1.294975e+001
    endloop
  endfacet
  facet normal  2.907974e-001  7.796578e-001  5.545904e-001
    outer loop
      vertex  3.892709e+001 -5.473932e+001  1.294975e+001
      vertex  3.193082e+001 -5.051445e+001  1.067878e+001
      vertex  3.130047e+001 -5.189473e+001  1.294975e+001
    endloop
  endfacet
  facet normal  1.944943e-001  5.214595e-001  8.308141e-001
    outer loop
      vertex  3.892709e+001 -5.473932e+001  1.294975e+001
      vertex  3.130047e+001 -5.189473e+001  1.294975e+001
      vertex  3.828728e+001 -5.691829e+001  1.446716e+001
    endloop
  endfacet
  facet normal  1.944943e-001  5.214594e-001  8.308141e-001
    outer loop
      vertex  3.828728e+001 -5.691829e+001  1.446716e+001
      vertex  3.130047e+001 -5.189473e+001  1.294975e+001
      vertex  3.035708e+001 -5.396048e+001  1.446716e+001
    endloop
  endfacet
  facet normal  6.609679e-002  1.772124e-001  9.819505e-001
    outer loop
      vertex  3.828728e+001 -5.691829e+001  1.446716e+001
      vertex  3.035708e+001 -5.396048e+001  1.446716e+001
      vertex  3.598489e+001 -5.901208e+001  1.500000e+001
    endloop
  endfacet
  facet normal  1.768803e-001  8.131067e-001  5.545906e-001
    outer loop
      vertex  4.709685e+001 -5.496760e+001  1.067878e+001
      vertex  3.935459e+001 -5.328337e+001  1.067878e+001
      vertex  4.688090e+001 -5.646956e+001  1.294975e+001
    endloop
  endfacet
  facet normal  1.768807e-001  8.131072e-001  5.545899e-001
    outer loop
      vertex  4.688090e+001 -5.646956e+001  1.294975e+001
      vertex  3.935459e+001 -5.328337e+001  1.067878e+001
      vertex  3.892709e+001 -5.473932e+001  1.294975e+001
    endloop
  endfacet
  facet normal  1.183033e-001  5.438313e-001  8.308140e-001
    outer loop
      vertex  4.688090e+001 -5.646956e+001  1.294975e+001
      vertex  3.892709e+001 -5.473932e+001  1.294975e+001
      vertex  4.655771e+001 -5.871741e+001  1.446716e+001
    endloop
  endfacet
  facet normal  1.183032e-001  5.438312e-001  8.308141e-001
    outer loop
      vertex  4.655771e+001 -5.871741e+001  1.446716e+001
      vertex  3.892709e+001 -5.473932e+001  1.294975e+001
      vertex  3.828728e+001 -5.691829e+001  1.446716e+001
    endloop
  endfacet
  facet normal  4.080017e-002  1.875554e-001  9.814063e-001
    outer loop
      vertex  4.655771e+001 -5.871741e+001  1.446716e+001
      vertex  3.828728e+001 -5.691829e+001  1.446716e+001
      vertex  4.537578e+001 -6.124847e+001  1.500000e+001
    endloop
  endfacet
  facet normal  0.000000e+000  -0.000000e+000  1.000000e+000
    outer loop
      vertex -2.842171e-014 -7.300000e+001  1.500000e+001
      vertex  1.500000e+002 -7.300000e+001  1.500000e+001
      vertex  1.500000e+002 -6.200000e+001  1.500000e+001
    endloop
  endfacet
  facet normal  0.000000e+000  0.000000e+000  1.000000e+000
    outer loop
      vertex -2.842171e-014 -7.300000e+001  1.500000e+001
      vertex  1.500000e+002 -6.200000e+001  1.500000e+001
      vertex  5.500000e+001 -6.200000e+001  1.500000e+001
    endloop
  endfacet
  facet normal  0.000000e+000  0.000000e+000  1.000000e+000
    outer loop
      vertex -2.842171e-014 -7.300000e+001  1.500000e+001
      vertex  5.500000e+001 -6.200000e+001  1.500000e+001
      vertex  4.537578e+001 -6.124847e+001  1.500000e+001
    endloop
  endfacet
  facet normal  0.000000e+000  0.000000e+000  1.000000e+000
    outer loop
      vertex -2.842171e-014 -7.300000e+001  1.500000e+001
      vertex  4.537578e+001 -6.124847e+001  1.500000e+001
      vertex  3.598489e+001 -5.901208e+001  1.500000e+001
    endloop
  endfacet
  facet normal  0.000000e+000  0.000000e+000  1.000000e+000
    outer loop
      vertex -2.842171e-014 -7.300000e+001  1.500000e+001
      vertex  3.598489e+001 -5.901208e+001  1.500000e+001
      vertex  2.705498e+001 -5.534506e+001  1.500000e+001
    endloop
  endfacet
  facet normal  0.000000e+000  0.000000e+000  1.000000e+000
    outer loop
      vertex -2.842171e-014 -7.300000e+001  1.500000e+001
      vertex  2.705498e+001 -5.534506e+001  1.500000e+001
      vertex  1.880254e+001 -5.033631e+001  1.500000e+001
    endloop
  endfacet
  facet normal  0.000000e+000  0.000000e+000  1.000000e+000
    outer loop
      vertex -2.842171e-014 -7.300000e+001  1.500000e+001
      vertex  1.880254e+001 -5.033631e+001  1.500000e+001
      vertex  1.142764e+001 -4.410725e+001  1.500000e+001
    endloop
  endfacet
  facet normal  0.000000e+000  0.000000e+000  9.999999e-001
    outer loop
      vertex -2.842171e-014 -7.300000e+001  1.500000e+001
      vertex  1.142764e+001 -4.410725e+001  1.500000e+001
      vertex  5.109064e+000 -3.680889e+001  1.500000e+001
    endloop
  endfacet
  facet normal  0.000000e+000  0.000000e+000  1.000000e+000
    outer loop
      vertex -2.842171e-014 -7.300000e+001  1.500000e+001
      vertex  5.109064e+000 -3.680889e+001  1.500000e+001
      vertex -1.421085e-014 -2.861818e+001  1.500000e+001
    endloop
  endfacet
  facet normal  0.000000e+000  1.000000e+000  0.000000e+000
    outer loop
      vertex  5.500000e+001 -5.500000e+001  8.000000e+000
      vertex  1.500000e+002 -5.500000e+001  8.000000e+000
      vertex  5.500000e+001 -5.500000e+001 -3.000000e+000
    endloop
  endfacet
  facet normal  0.000000e+000  1.000000e+000  0.000000e+000
    outer loop
      vertex  5.500000e+001 -5.500000e+001 -3.000000e+000
      vertex  1.500000e+002 -5.500000e+001  8.000000e+000
      vertex  1.500000e+002 -5.500000e+001 -3.000000e+000
    endloop
  endfacet
  facet normal  0.000000e+000 -1.000000e+000  0.000000e+000
    outer loop
      vertex  1.500000e+002 -8.000000e+001  8.000000e+000
      vertex -2.842171e-014 -8.000000e+001  8.000000e+000
      vertex  1.500000e+002 -8.000000e+001 -3.000000e+000
    endloop
  endfacet
  facet normal  0.000000e+000 -1.000000e+000  0.000000e+000
    outer loop
      vertex  1.500000e+002 -8.000000e+001 -3.000000e+000
      vertex -2.842171e-014 -8.000000e+001  8.000000e+000
      vertex  0.000000e+000 -8.000000e+001 -3.000000e+000
    endloop
  endfacet
  facet normal  0.000000e+000  1.950905e-001  9.807853e-001
    outer loop
      vertex  5.500000e+001 -6.200000e+001  1.500000e+001
      vertex  1.500000e+002 -6.200000e+001  1.500000e+001
      vertex  5.500000e+001 -5.932122e+001  1.446716e+001
    endloop
  endfacet
  facet normal  -0.000000e+000  1.950905e-001  9.807853e-001
    outer loop
      vertex  5.500000e+001 -5.932122e+001  1.446716e+001
      vertex  1.500000e+002 -6.200000e+001  1.500000e+001
      vertex  1.500000e+002 -5.932122e+001  1.446716e+001
    endloop
  endfacet
  facet normal  0.000000e+000  5.555699e-001  8.314698e-001
    outer loop
      vertex  5.500000e+001 -5.932122e+001  1.446716e+001
      vertex  1.500000e+002 -5.932122e+001  1.446716e+001
      vertex  5.500000e+001 -5.705025e+001  1.294975e+001
    endloop
  endfacet
  facet normal  -0.000000e+000  5.555699e-001  8.314698e-001
    outer loop
      vertex  5.500000e+001 -5.705025e+001  1.294975e+001
      vertex  1.500000e+002 -5.932122e+001  1.446716e+001
      vertex  1.500000e+002 -5.705025e+001  1.294975e+001
    endloop
  endfacet
  facet normal  0.000000e+000  8.314700e-001  5.555696e-001
    outer loop
      vertex  5.500000e+001 -5.705025e+001  1.294975e+001
      vertex  1.500000e+002 -5.705025e+001  1.294975e+001
      vertex  5.500000e+001 -5.553284e+001  1.067878e+001
    endloop
  endfacet
  facet normal  -0.000000e+000  8.314700e-001  5.555696e-001
    outer loop
      vertex  5.500000e+001 -5.553284e+001  1.067878e+001
      vertex  1.500000e+002 -5.705025e+001  1.294975e+001
      vertex  1.500000e+002 -5.553284e+001  1.067878e+001
    endloop
  endfacet
  facet normal  0.000000e+000  9.807852e-001  1.950908e-001
    outer loop
      vertex  5.500000e+001 -5.553284e+001  1.067878e+001
      vertex  1.500000e+002 -5.553284e+001  1.067878e+001
      vertex  5.500000e+001 -5.500000e+001  8.000000e+000
    endloop
  endfacet
  facet normal  -0.000000e+000  9.807852e-001  1.950908e-001
    outer loop
      vertex  5.500000e+001 -5.500000e+001  8.000000e+000
      vertex  1.500000e+002 -5.553284e+001  1.067878e+001
      vertex  1.500000e+002 -5.500000e+001  8.000000e+000
    endloop
  endfacet
  facet normal  0.000000e+000 -1.950902e-001  9.807854e-001
    outer loop
      vertex  1.500000e+002 -7.300000e+001  1.500000e+001
      vertex -2.842171e-014 -7.300000e+001  1.500000e+001
      vertex  1.500000e+002 -7.567879e+001  1.446716e+001
    endloop
  endfacet
  facet normal  0.000000e+000 -1.950902e-001  9.807854e-001
    outer loop
      vertex  1.500000e+002 -7.567879e+001  1.446716e+001
      vertex -2.842171e-014 -7.300000e+001  1.500000e+001
      vertex -2.099465e-014 -7.567879e+001  1.446716e+001
    endloop
  endfacet
  facet normal  0.000000e+000 -5.555712e-001  8.314689e-001
    outer loop
      vertex  1.500000e+002 -7.567879e+001  1.446716e+001
      vertex -2.099465e-014 -7.567879e+001  1.446716e+001
      vertex  1.500000e+002 -7.794975e+001  1.294975e+001
    endloop
  endfacet
  facet normal  0.000000e+000 -5.555712e-001  8.314689e-001
    outer loop
      vertex  1.500000e+002 -7.794975e+001  1.294975e+001
      vertex -2.099465e-014 -7.567879e+001  1.446716e+001
      vertex -2.099465e-014 -7.794975e+001  1.294975e+001
    endloop
  endfacet
  facet normal  0.000000e+000 -8.314694e-001  5.555706e-001
    outer loop
      vertex  1.500000e+002 -7.794975e+001  1.294975e+001
      vertex -2.099465e-014 -7.794975e+001  1.294975e+001
      vertex  1.500000e+002 -7.946716e+001  1.067878e+001
    endloop
  endfacet
  facet normal  0.000000e+000 -8.314694e-001  5.555706e-001
    outer loop
      vertex  1.500000e+002 -7.946716e+001  1.067878e+001
      vertex -2.099465e-014 -7.794975e+001  1.294975e+001
      vertex -2.099465e-014 -7.946716e+001  1.067878e+001
    endloop
  endfacet
  facet normal  0.000000e+000 -9.807853e-001  1.950908e-001
    outer loop
      vertex  1.500000e+002 -7.946716e+001  1.067878e+001
      vertex -2.099465e-014 -7.946716e+001  1.067878e+001
      vertex  1.500000e+002 -8.000000e+001  8.000000e+000
    endloop
  endfacet
  facet normal  0.000000e+000 -9.807853e-001  1.950908e-001
    outer loop
      vertex  1.500000e+002 -8.000000e+001  8.000000e+000
      vertex -2.099465e-014 -7.946716e+001  1.067878e+001
      vertex -2.842171e-014 -8.000000e+001  8.000000e+000
    endloop
  endfacet
  facet normal  1.000000e+000  -0.000000e+000  -0.000000e+000
    outer loop
      vertex  1.500000e+002 -8.000000e+001 -3.000000e+000
      vertex  1.500000e+002 -7.933012e+001 -5.500000e+000
      vertex  1.500000e+002 -7.750000e+001 -7.330127e+000
    endloop
  endfacet
  facet normal  1.000000e+000  -0.000000e+000  -0.000000e+000
    outer loop
      vertex  1.500000e+002 -8.000000e+001 -3.000000e+000
      vertex  1.500000e+002 -7.750000e+001 -7.330127e+000
      vertex  1.500000e+002 -7.500000e+001 -8.000000e+000
    endloop
  endfacet
  facet normal  1.000000e+000  0.000000e+000  -0.000000e+000
    outer loop
      vertex  1.500000e+002 -8.000000e+001 -3.000000e+000
      vertex  1.500000e+002 -7.500000e+001 -8.000000e+000
      vertex  1.500000e+002 -6.595795e+001  5.172480e-002
    endloop
  endfacet
  facet normal  1.000000e+000  0.000000e+000  0.000000e+000
    outer loop
      vertex  1.500000e+002 -8.000000e+001 -3.000000e+000
      vertex  1.500000e+002 -6.595795e+001  5.172480e-002
      vertex  1.500000e+002 -8.000000e+001  8.000000e+000
    endloop
  endfacet
  facet normal  1.000000e+000  0.000000e+000  0.000000e+000
    outer loop
      vertex  1.500000e+002 -5.500000e+001 -3.000000e+000
      vertex  1.500000e+002 -5.500000e+001  8.000000e+000
      vertex  1.500000e+002 -6.249205e+001  1.177866e+000
    endloop
  endfacet
  facet normal  1.000000e+000  0.000000e+000  0.000000e+000
    outer loop
      vertex  1.500000e+002 -5.500000e+001 -3.000000e+000
      vertex  1.500000e+002 -6.249205e+001  1.177866e+000
      vertex  1.500000e+002 -6.404205e+001  5.172480e-002
    endloop
  endfacet
  facet normal  1.000000e+000  0.000000e+000  0.000000e+000
    outer loop
      vertex  1.500000e+002 -5.500000e+001 -3.000000e+000
      vertex  1.500000e+002 -6.404205e+001  5.172480e-002
      vertex  1.500000e+002 -5.750000e+001 -7.330127e+000
    endloop
  endfacet
  facet normal  1.000000e+000  0.000000e+000  0.000000e+000
    outer loop
      vertex  1.500000e+002 -5.500000e+001 -3.000000e+000
      vertex  1.500000e+002 -5.750000e+001 -7.330127e+000
      vertex  1.500000e+002 -5.566987e+001 -5.500000e+000
    endloop
  endfacet
  facet normal  9.999999e-001  0.000000e+000  0.000000e+000
    outer loop
      vertex  1.500000e+002 -8.000000e+001  8.000000e+000
      vertex  1.500000e+002 -6.595795e+001  5.172480e-002
      vertex  1.500000e+002 -6.750795e+001  1.177866e+000
    endloop
  endfacet
  facet normal  1.000000e+000  0.000000e+000  0.000000e+000
    outer loop
      vertex  1.500000e+002 -8.000000e+001  8.000000e+000
      vertex  1.500000e+002 -6.750795e+001  1.177866e+000
      vertex  1.500000e+002 -6.810000e+001  3.000000e+000
    endloop
  endfacet
  facet normal  1.000000e+000  0.000000e+000  -0.000000e+000
    outer loop
      vertex  1.500000e+002 -8.000000e+001  8.000000e+000
      vertex  1.500000e+002 -6.810000e+001  3.000000e+000
      vertex  1.500000e+002 -6.750795e+001  4.822134e+000
    endloop
  endfacet
  facet normal  1.000000e+000  0.000000e+000  -0.000000e+000
    outer loop
      vertex  1.500000e+002 -8.000000e+001  8.000000e+000
      vertex  1.500000e+002 -6.750795e+001  4.822134e+000
      vertex  1.500000e+002 -6.595795e+001  5.948275e+000
    endloop
  endfacet
  facet normal  1.000000e+000  0.000000e+000  0.000000e+000
    outer loop
      vertex  1.500000e+002 -8.000000e+001  8.000000e+000
      vertex  1.500000e+002 -6.595795e+001  5.948275e+000
      vertex  1.500000e+002 -7.300000e+001  1.500000e+001
    endloop
  endfacet
  facet normal  1.000000e+000  0.000000e+000  0.000000e+000
    outer loop
      vertex  1.500000e+002 -8.000000e+001  8.000000e+000
      vertex  1.500000e+002 -7.300000e+001  1.500000e+001
      vertex  1.500000e+002 -7.567879e+001  1.446716e+001
    endloop
  endfacet
  facet normal  1.000000e+000  0.000000e+000  0.000000e+000
    outer loop
      vertex  1.500000e+002 -8.000000e+001  8.000000e+000
      vertex  1.500000e+002 -7.567879e+001  1.446716e+001
      vertex  1.500000e+002 -7.794975e+001  1.294975e+001
    endloop
  endfacet
  facet normal  1.000000e+000  0.000000e+000  0.000000e+000
    outer loop
      vertex  1.500000e+002 -8.000000e+001  8.000000e+000
      vertex  1.500000e+002 -7.794975e+001  1.294975e+001
      vertex  1.500000e+002 -7.946716e+001  1.067878e+001
    endloop
  endfacet
  facet normal  1.000000e+000  0.000000e+000  0.000000e+000
    outer loop
      vertex  1.500000e+002 -6.404205e+001  5.948275e+000
      vertex  1.500000e+002 -5.500000e+001  8.000000e+000
      vertex  1.500000e+002 -5.553284e+001  1.067878e+001
    endloop
  endfacet
  facet normal  1.000000e+000  0.000000e+000  0.000000e+000
    outer loop
      vertex  1.500000e+002 -6.404205e+001  5.948275e+000
      vertex  1.500000e+002 -5.553284e+001  1.067878e+001
      vertex  1.500000e+002 -5.705025e+001  1.294975e+001
    endloop
  endfacet
  facet normal  1.000000e+000  0.000000e+000  0.000000e+000
    outer loop
      vertex  1.500000e+002 -6.404205e+001  5.948275e+000
      vertex  1.500000e+002 -5.705025e+001  1.294975e+001
      vertex  1.500000e+002 -5.932122e+001  1.446716e+001
    endloop
  endfacet
  facet normal  1.000000e+000  0.000000e+000  0.000000e+000
    outer loop
      vertex  1.500000e+002 -6.404205e+001  5.948275e+000
      vertex  1.500000e+002 -5.932122e+001  1.446716e+001
      vertex  1.500000e+002 -6.200000e+001  1.500000e+001
    endloop
  endfacet
  facet normal  1.000000e+000  0.000000e+000  0.000000e+000
    outer loop
      vertex  1.500000e+002 -6.404205e+001  5.948275e+000
      vertex  1.500000e+002 -6.200000e+001  1.500000e+001
      vertex  1.500000e+002 -7.300000e+001  1.500000e+001
    endloop
  endfacet
  facet normal  1.000000e+000  0.000000e+000  0.000000e+000
    outer loop
      vertex  1.500000e+002 -6.404205e+001  5.948275e+000
      vertex  1.500000e+002 -7.300000e+001  1.500000e+001
      vertex  1.500000e+002 -6.595795e+001  5.948275e+000
    endloop
  endfacet
  facet normal  9.999999e-001  -0.000000e+000  0.000000e+000
    outer loop
      vertex  1.500000e+002 -5.500000e+001  8.000000e+000
      vertex  1.500000e+002 -6.404205e+001  5.948275e+000
      vertex  1.500000e+002 -6.249205e+001  4.822134e+000
    endloop
  endfacet
  facet normal  1.000000e+000  -0.000000e+000  0.000000e+000
    outer loop
      vertex  1.500000e+002 -5.500000e+001  8.000000e+000
      vertex  1.500000e+002 -6.249205e+001  4.822134e+000
      vertex  1.500000e+002 -6.190000e+001  3.000000e+000
    endloop
  endfacet
  facet normal  1.000000e+000  -0.000000e+000  0.000000e+000
    outer loop
      vertex  1.500000e+002 -5.500000e+001  8.000000e+000
      vertex  1.500000e+002 -6.190000e+001  3.000000e+000
      vertex  1.500000e+002 -6.249205e+001  1.177866e+000
    endloop
  endfacet
  facet normal  9.999999e-001  0.000000e+000  0.000000e+000
    outer loop
      vertex  1.500000e+002 -5.750000e+001 -7.330127e+000
      vertex  1.500000e+002 -6.404205e+001  5.172480e-002
      vertex  1.500000e+002 -6.000000e+001 -8.000000e+000
    endloop
  endfacet
  facet normal  1.000000e+000  0.000000e+000  0.000000e+000
    outer loop
      vertex  1.500000e+002 -6.000000e+001 -8.000000e+000
      vertex  1.500000e+002 -6.404205e+001  5.172480e-002
      vertex  1.500000e+002 -6.595795e+001  5.172480e-002
    endloop
  endfacet
  facet normal  1.000000e+000  0.000000e+000  0.000000e+000
    outer loop
      vertex  1.500000e+002 -6.000000e+001 -8.000000e+000
      vertex  1.500000e+002 -6.595795e+001  5.172480e-002
      vertex  1.500000e+002 -7.500000e+001 -8.000000e+000
    endloop
  endfacet
  facet normal  6.494479e-001  7.604061e-001  0.000000e+000
    outer loop
      vertex  1.610913e+001 -3.889087e+001 -3.000000e+000
      vertex  2.267181e+001 -4.449593e+001  8.000000e+000
      vertex  2.267181e+001 -4.449593e+001 -3.000000e+000
    endloop
  endfacet
  facet normal  5.224987e-001  8.526401e-001  -0.000000e+000
    outer loop
      vertex  2.267181e+001 -4.449593e+001 -3.000000e+000
      vertex  2.267181e+001 -4.449593e+001  8.000000e+000
      vertex  3.003052e+001 -4.900536e+001  8.000000e+000
    endloop
  endfacet
  facet normal  5.224987e-001  8.526401e-001  0.000000e+000
    outer loop
      vertex  2.267181e+001 -4.449593e+001 -3.000000e+000
      vertex  3.003052e+001 -4.900536e+001  8.000000e+000
      vertex  3.003052e+001 -4.900536e+001 -3.000000e+000
    endloop
  endfacet
  facet normal  3.826835e-001  9.238796e-001  -0.000000e+000
    outer loop
      vertex  3.003052e+001 -4.900536e+001 -3.000000e+000
      vertex  3.003052e+001 -4.900536e+001  8.000000e+000
      vertex  3.800407e+001 -5.230811e+001  8.000000e+000
    endloop
  endfacet
  facet normal  3.826835e-001  9.238796e-001  0.000000e+000
    outer loop
      vertex  3.003052e+001 -4.900536e+001 -3.000000e+000
      vertex  3.800407e+001 -5.230811e+001  8.000000e+000
      vertex  3.800407e+001 -5.230811e+001 -3.000000e+000
    endloop
  endfacet
  facet normal  2.334451e-001  9.723700e-001  -0.000000e+000
    outer loop
      vertex  3.800407e+001 -5.230811e+001 -3.000000e+000
      vertex  3.800407e+001 -5.230811e+001  8.000000e+000
      vertex  4.639610e+001 -5.432286e+001  8.000000e+000
    endloop
  endfacet
  facet normal  2.334451e-001  9.723700e-001  0.000000e+000
    outer loop
      vertex  3.800407e+001 -5.230811e+001 -3.000000e+000
      vertex  4.639610e+001 -5.432286e+001  8.000000e+000
      vertex  4.639610e+001 -5.432286e+001 -3.000000e+000
    endloop
  endfacet
  facet normal  7.845929e-002  9.969174e-001  -0.000000e+000
    outer loop
      vertex  4.639610e+001 -5.432286e+001 -3.000000e+000
      vertex  4.639610e+001 -5.432286e+001  8.000000e+000
      vertex  5.500000e+001 -5.500000e+001  8.000000e+000
    endloop
  endfacet
  facet normal  7.845929e-002  9.969174e-001  0.000000e+000
    outer loop
      vertex  4.639610e+001 -5.432286e+001 -3.000000e+000
      vertex  5.500000e+001 -5.500000e+001  8.000000e+000
      vertex  5.500000e+001 -5.500000e+001 -3.000000e+000
    endloop
  endfacet
  facet normal  6.494479e-001  7.604061e-001  -0.000000e+000
    outer loop
      vertex  2.267181e+001 -4.449593e+001  8.000000e+000
      vertex  1.610913e+001 -3.889087e+001 -3.000000e+000
      vertex  1.610913e+001 -3.889087e+001  8.000000e+000
    endloop
  endfacet
  facet normal  7.604058e-001  6.494480e-001  0.000000e+000
    outer loop
      vertex  1.610913e+001 -3.889087e+001  8.000000e+000
      vertex  1.610913e+001 -3.889087e+001 -3.000000e+000
      vertex  1.050407e+001 -3.232819e+001 -3.000000e+000
    endloop
  endfacet
  facet normal  7.604058e-001  6.494480e-001  -0.000000e+000
    outer loop
      vertex  1.610913e+001 -3.889087e+001  8.000000e+000
      vertex  1.050407e+001 -3.232819e+001 -3.000000e+000
      vertex  1.050407e+001 -3.232819e+001  8.000000e+000
    endloop
  endfacet
  facet normal  8.526403e-001  5.224985e-001  0.000000e+000
    outer loop
      vertex  1.050407e+001 -3.232819e+001  8.000000e+000
      vertex  1.050407e+001 -3.232819e+001 -3.000000e+000
      vertex  5.994641e+000 -2.496948e+001 -3.000000e+000
    endloop
  endfacet
  facet normal  8.526403e-001  5.224985e-001  -0.000000e+000
    outer loop
      vertex  1.050407e+001 -3.232819e+001  8.000000e+000
      vertex  5.994641e+000 -2.496948e+001 -3.000000e+000
      vertex  5.994641e+000 -2.496948e+001  8.000000e+000
    endloop
  endfacet
  facet normal  9.238795e-001  3.826835e-001  0.000000e+000
    outer loop
      vertex  5.994641e+000 -2.496948e+001  8.000000e+000
      vertex  5.994641e+000 -2.496948e+001 -3.000000e+000
      vertex  2.691892e+000 -1.699594e+001 -3.000000e+000
    endloop
  endfacet
  facet normal  9.238795e-001  3.826835e-001  -0.000000e+000
    outer loop
      vertex  5.994641e+000 -2.496948e+001  8.000000e+000
      vertex  2.691892e+000 -1.699594e+001 -3.000000e+000
      vertex  2.691892e+000 -1.699594e+001  8.000000e+000
    endloop
  endfacet
  facet normal  9.723699e-001  2.334453e-001  0.000000e+000
    outer loop
      vertex  2.691892e+000 -1.699594e+001  8.000000e+000
      vertex  2.691892e+000 -1.699594e+001 -3.000000e+000
      vertex  6.771412e-001 -8.603895e+000 -3.000000e+000
    endloop
  endfacet
  facet normal  9.723699e-001  2.334453e-001  -0.000000e+000
    outer loop
      vertex  2.691892e+000 -1.699594e+001  8.000000e+000
      vertex  6.771412e-001 -8.603895e+000 -3.000000e+000
      vertex  6.771412e-001 -8.603895e+000  8.000000e+000
    endloop
  endfacet
  facet normal  9.969173e-001  7.845909e-002  0.000000e+000
    outer loop
      vertex  6.771412e-001 -8.603895e+000  8.000000e+000
      vertex  6.771412e-001 -8.603895e+000 -3.000000e+000
      vertex  0.000000e+000  1.384076e-014 -3.000000e+000
    endloop
  endfacet
  facet normal  9.969173e-001  7.845909e-002  2.001442e-015
    outer loop
      vertex  6.771412e-001 -8.603895e+000  8.000000e+000
      vertex  0.000000e+000  1.384076e-014 -3.000000e+000
      vertex -2.099465e-014  0.000000e+000  8.000000e+000
    endloop
  endfacet
endsolid CATIA STL
