solid CATIA STL
  facet normal  1.950904e-001  0.000000e+000 -9.807853e-001
    outer loop
      vertex  1.500000e+001  3.400000e+002  0.000000e+000
      vertex  1.500000e+001  4.100000e+002  0.000000e+000
      vertex  1.882683e+001  3.400000e+002  7.612047e-001
    endloop
  endfacet
  facet normal  1.950904e-001  0.000000e+000 -9.807853e-001
    outer loop
      vertex  1.882683e+001  3.400000e+002  7.612047e-001
      vertex  1.500000e+001  4.100000e+002  0.000000e+000
      vertex  1.882683e+001  4.100000e+002  7.612047e-001
    endloop
  endfacet
  facet normal  5.555701e-001  0.000000e+000 -8.314697e-001
    outer loop
      vertex  1.882683e+001  3.400000e+002  7.612047e-001
      vertex  1.882683e+001  4.100000e+002  7.612047e-001
      vertex  2.207107e+001  3.400000e+002  2.928932e+000
    endloop
  endfacet
  facet normal  5.555701e-001  0.000000e+000 -8.314697e-001
    outer loop
      vertex  2.207107e+001  3.400000e+002  2.928932e+000
      vertex  1.882683e+001  4.100000e+002  7.612047e-001
      vertex  2.207107e+001  4.100000e+002  2.928932e+000
    endloop
  endfacet
  facet normal  8.314695e-001  0.000000e+000 -5.555704e-001
    outer loop
      vertex  2.207107e+001  3.400000e+002  2.928932e+000
      vertex  2.207107e+001  4.100000e+002  2.928932e+000
      vertex  2.423880e+001  3.400000e+002  6.173166e+000
    endloop
  endfacet
  facet normal  8.314695e-001  0.000000e+000 -5.555704e-001
    outer loop
      vertex  2.423880e+001  3.400000e+002  6.173166e+000
      vertex  2.207107e+001  4.100000e+002  2.928932e+000
      vertex  2.423880e+001  4.100000e+002  6.173166e+000
    endloop
  endfacet
  facet normal  9.807853e-001  0.000000e+000 -1.950901e-001
    outer loop
      vertex  2.423880e+001  3.400000e+002  6.173166e+000
      vertex  2.423880e+001  4.100000e+002  6.173166e+000
      vertex  2.500000e+001  3.400000e+002  1.000000e+001
    endloop
  endfacet
  facet normal  9.807853e-001  0.000000e+000 -1.950901e-001
    outer loop
      vertex  2.500000e+001  3.400000e+002  1.000000e+001
      vertex  2.423880e+001  4.100000e+002  6.173166e+000
      vertex  2.500000e+001  4.100000e+002  1.000000e+001
    endloop
  endfacet
  facet normal  0.000000e+000  0.000000e+000 -1.000000e+000
    outer loop
      vertex -1.500000e+001  3.450000e+002  0.000000e+000
      vertex -1.500000e+001  4.100000e+002  0.000000e+000
      vertex -1.000000e+001  3.500000e+002  0.000000e+000
    endloop
  endfacet
  facet normal  0.000000e+000  0.000000e+000 -1.000000e+000
    outer loop
      vertex  0.000000e+000  3.500000e+002  0.000000e+000
      vertex -1.000000e+001  3.500000e+002  0.000000e+000
      vertex -1.500000e+001  4.100000e+002  0.000000e+000
    endloop
  endfacet
  facet normal  0.000000e+000  0.000000e+000 -1.000000e+000
    outer loop
      vertex  0.000000e+000  3.500000e+002  0.000000e+000
      vertex -1.500000e+001  4.100000e+002  0.000000e+000
      vertex  1.500000e+001  4.100000e+002  0.000000e+000
    endloop
  endfacet
  facet normal  0.000000e+000  -0.000000e+000 -1.000000e+000
    outer loop
      vertex  0.000000e+000  3.500000e+002  0.000000e+000
      vertex  1.500000e+001  4.100000e+002  0.000000e+000
      vertex  1.500000e+001  3.400000e+002  0.000000e+000
    endloop
  endfacet
  facet normal  0.000000e+000  0.000000e+000 -1.000000e+000
    outer loop
      vertex  0.000000e+000  3.500000e+002  0.000000e+000
      vertex  1.500000e+001  3.400000e+002  0.000000e+000
      vertex  1.000000e+001  3.400000e+002  0.000000e+000
    endloop
  endfacet
  facet normal  1.000000e+000  -0.000000e+000  0.000000e+000
    outer loop
      vertex  2.500000e+001  4.400000e+002  1.795085e+001
      vertex  2.500000e+001  3.400000e+002  1.795085e+001
      vertex  2.500000e+001  3.400000e+002  1.000000e+001
    endloop
  endfacet
  facet normal  1.000000e+000  0.000000e+000  0.000000e+000
    outer loop
      vertex  2.500000e+001  4.400000e+002  1.795085e+001
      vertex  2.500000e+001  3.400000e+002  1.000000e+001
      vertex  2.500000e+001  4.100000e+002  1.000000e+001
    endloop
  endfacet
  facet normal  1.000000e+000  -0.000000e+000  0.000000e+000
    outer loop
      vertex  2.500000e+001  4.400000e+002  1.795085e+001
      vertex  2.500000e+001  4.100000e+002  1.000000e+001
      vertex  2.500000e+001  4.178316e+002  9.486691e+000
    endloop
  endfacet
  facet normal  1.000000e+000  -0.000000e+000  0.000000e+000
    outer loop
      vertex  2.500000e+001  4.400000e+002  1.795085e+001
      vertex  2.500000e+001  4.178316e+002  9.486691e+000
      vertex  2.500000e+001  4.255291e+002  7.955550e+000
    endloop
  endfacet
  facet normal  1.000000e+000  -0.000000e+000  0.000000e+000
    outer loop
      vertex  2.500000e+001  4.400000e+002  1.795085e+001
      vertex  2.500000e+001  4.255291e+002  7.955550e+000
      vertex  2.500000e+001  4.329610e+002  5.432772e+000
    endloop
  endfacet
  facet normal  1.000000e+000  -0.000000e+000  0.000000e+000
    outer loop
      vertex  2.500000e+001  4.400000e+002  1.795085e+001
      vertex  2.500000e+001  4.329610e+002  5.432772e+000
      vertex  2.500000e+001  4.400000e+002  1.961524e+000
    endloop
  endfacet
  facet normal -8.314680e-001  1.895857e-003 -5.555694e-001
    outer loop
      vertex -2.423880e+001  4.100000e+002  6.173166e+000
      vertex -2.207107e+001  4.100000e+002  2.928932e+000
      vertex -2.266044e+001  3.400000e+002  3.572124e+000
    endloop
  endfacet
  facet normal -6.427868e-001 -1.626706e-003 -7.660434e-001
    outer loop
      vertex -2.000000e+001  3.400000e+002  1.339746e+000
      vertex -2.266044e+001  3.400000e+002  3.572124e+000
      vertex -2.207107e+001  4.100000e+002  2.928932e+000
    endloop
  endfacet
  facet normal -5.555685e-001  2.439088e-003 -8.314672e-001
    outer loop
      vertex -2.000000e+001  3.400000e+002  1.339746e+000
      vertex -2.207107e+001  4.100000e+002  2.928932e+000
      vertex -1.882683e+001  4.100000e+002  7.612047e-001
    endloop
  endfacet
  facet normal -4.023848e-001 -8.224726e-004 -9.154702e-001
    outer loop
      vertex -2.000000e+001  3.400000e+002  1.339746e+000
      vertex -1.882683e+001  4.100000e+002  7.612047e-001
      vertex -1.801388e+001  3.419861e+002  4.649861e-001
    endloop
  endfacet
  facet normal -9.848078e-001  -0.000000e+000 -1.736480e-001
    outer loop
      vertex -2.500000e+001  3.400000e+002  1.000000e+001
      vertex -2.500000e+001  4.100000e+002  1.000000e+001
      vertex -2.439693e+001  3.400000e+002  6.579799e+000
    endloop
  endfacet
  facet normal -9.807847e-001  1.082316e-003 -1.950900e-001
    outer loop
      vertex -2.439693e+001  3.400000e+002  6.579799e+000
      vertex -2.500000e+001  4.100000e+002  1.000000e+001
      vertex -2.423880e+001  4.100000e+002  6.173166e+000
    endloop
  endfacet
  facet normal -8.660249e-001 -9.481622e-004 -5.000000e-001
    outer loop
      vertex -2.439693e+001  3.400000e+002  6.579799e+000
      vertex -2.423880e+001  4.100000e+002  6.173166e+000
      vertex -2.266044e+001  3.400000e+002  3.572124e+000
    endloop
  endfacet
  facet normal -1.950903e-001  0.000000e+000 -9.807853e-001
    outer loop
      vertex -1.500000e+001  4.100000e+002  0.000000e+000
      vertex -1.500000e+001  3.450000e+002  0.000000e+000
      vertex -1.882683e+001  4.100000e+002  7.612047e-001
    endloop
  endfacet
  facet normal -1.548711e-001  2.451576e-003 -9.879317e-001
    outer loop
      vertex -1.882683e+001  4.100000e+002  7.612047e-001
      vertex -1.500000e+001  3.450000e+002  0.000000e+000
      vertex -1.801388e+001  3.419861e+002  4.649861e-001
    endloop
  endfacet
  facet normal  6.623375e-002 -8.977230e-004  9.978037e-001
    outer loop
      vertex  0.000000e+000  3.500000e+002  2.750000e+001
      vertex  5.023205e+000  3.449768e+002  2.716204e+001
      vertex  3.369609e+000  4.300000e+002  2.734830e+001
    endloop
  endfacet
  facet normal  0.000000e+000  1.896211e-003  9.999982e-001
    outer loop
      vertex  0.000000e+000  3.500000e+002  2.750000e+001
      vertex  3.369609e+000  4.300000e+002  2.734830e+001
      vertex -3.369609e+000  4.300000e+002  2.734830e+001
    endloop
  endfacet
  facet normal -6.743189e-002 -9.483409e-004  9.977234e-001
    outer loop
      vertex  0.000000e+000  3.500000e+002  2.750000e+001
      vertex -3.369609e+000  4.300000e+002  2.734830e+001
      vertex -5.045888e+000  3.500000e+002  2.715897e+001
    endloop
  endfacet
  facet normal  6.076476e-001  0.000000e+000  7.942069e-001
    outer loop
      vertex  2.500000e+001  3.400000e+002  1.795085e+001
      vertex  2.500000e+001  4.400000e+002  1.795085e+001
      vertex  2.043981e+001  3.400000e+002  2.143985e+001
    endloop
  endfacet
  facet normal  6.076476e-001  -0.000000e+000  7.942069e-001
    outer loop
      vertex  2.043981e+001  3.400000e+002  2.143985e+001
      vertex  2.500000e+001  4.400000e+002  1.795085e+001
      vertex  2.043981e+001  4.400000e+002  2.143985e+001
    endloop
  endfacet
  facet normal  4.792764e-001  0.000000e+000  8.776640e-001
    outer loop
      vertex  2.043981e+001  3.400000e+002  2.143985e+001
      vertex  2.043981e+001  4.400000e+002  2.143985e+001
      vertex  1.540043e+001  3.400000e+002  2.419176e+001
    endloop
  endfacet
  facet normal  4.792764e-001  -0.000000e+000  8.776640e-001
    outer loop
      vertex  1.540043e+001  3.400000e+002  2.419176e+001
      vertex  2.043981e+001  4.400000e+002  2.143985e+001
      vertex  1.540043e+001  4.400000e+002  2.419176e+001
    endloop
  endfacet
  facet normal  3.396693e-001  0.000000e+000  9.405449e-001
    outer loop
      vertex  1.540043e+001  3.400000e+002  2.419176e+001
      vertex  1.540043e+001  4.400000e+002  2.419176e+001
      vertex  1.000000e+001  4.300000e+002  2.614208e+001
    endloop
  endfacet
  facet normal  3.396693e-001  -0.000000e+000  9.405449e-001
    outer loop
      vertex  1.000000e+001  4.300000e+002  2.614208e+001
      vertex  1.540043e+001  4.400000e+002  2.419176e+001
      vertex  1.000000e+001  4.400000e+002  2.614208e+001
    endloop
  endfacet
  facet normal  1.789854e-001  1.325723e-003  9.838509e-001
    outer loop
      vertex  3.369609e+000  4.300000e+002  2.734830e+001
      vertex  5.023205e+000  3.449768e+002  2.716204e+001
      vertex  1.000000e+001  4.300000e+002  2.614208e+001
    endloop
  endfacet
  facet normal  2.007706e-001  0.000000e+000  9.796383e-001
    outer loop
      vertex  1.000000e+001  4.300000e+002  2.614208e+001
      vertex  5.023205e+000  3.449768e+002  2.716204e+001
      vertex  1.000000e+001  3.400000e+002  2.614208e+001
    endloop
  endfacet
  facet normal  3.396693e-001  -0.000000e+000  9.405450e-001
    outer loop
      vertex  1.000000e+001  4.300000e+002  2.614208e+001
      vertex  1.000000e+001  3.400000e+002  2.614208e+001
      vertex  1.540043e+001  3.400000e+002  2.419176e+001
    endloop
  endfacet
  facet normal -3.353828e-001  0.000000e+000  9.420819e-001
    outer loop
      vertex -1.000000e+001  4.300000e+002  2.614208e+001
      vertex -1.000000e+001  4.400000e+002  2.614208e+001
      vertex -1.508841e+001  3.449116e+002  2.433060e+001
    endloop
  endfacet
  facet normal -3.396693e-001  2.586619e-004  9.405450e-001
    outer loop
      vertex -1.508841e+001  3.449116e+002  2.433060e+001
      vertex -1.000000e+001  4.400000e+002  2.614208e+001
      vertex -1.540043e+001  4.400000e+002  2.419176e+001
    endloop
  endfacet
  facet normal -4.689428e-001 -2.492264e-004  8.832285e-001
    outer loop
      vertex -1.508841e+001  3.449116e+002  2.433060e+001
      vertex -1.540043e+001  4.400000e+002  2.419176e+001
      vertex -2.000000e+001  3.400000e+002  2.172144e+001
    endloop
  endfacet
  facet normal -4.792764e-001  3.635368e-004  8.776639e-001
    outer loop
      vertex -2.000000e+001  3.400000e+002  2.172144e+001
      vertex -1.540043e+001  4.400000e+002  2.419176e+001
      vertex -2.043981e+001  4.400000e+002  2.143985e+001
    endloop
  endfacet
  facet normal -6.021025e-001 -3.998197e-004  7.984186e-001
    outer loop
      vertex -2.000000e+001  3.400000e+002  2.172144e+001
      vertex -2.043981e+001  4.400000e+002  2.143985e+001
      vertex -2.500000e+001  3.400000e+002  1.795085e+001
    endloop
  endfacet
  facet normal -6.076476e-001  0.000000e+000  7.942069e-001
    outer loop
      vertex -2.500000e+001  3.400000e+002  1.795085e+001
      vertex -2.043981e+001  4.400000e+002  2.143985e+001
      vertex -2.500000e+001  4.400000e+002  1.795085e+001
    endloop
  endfacet
  facet normal -2.010693e-001  1.894780e-003  9.795752e-001
    outer loop
      vertex -5.045888e+000  3.500000e+002  2.715897e+001
      vertex -3.369609e+000  4.300000e+002  2.734830e+001
      vertex -1.000000e+001  3.500000e+002  2.614208e+001
    endloop
  endfacet
  facet normal -1.789856e-001  0.000000e+000  9.838518e-001
    outer loop
      vertex -1.000000e+001  3.500000e+002  2.614208e+001
      vertex -3.369609e+000  4.300000e+002  2.734830e+001
      vertex -1.000000e+001  4.300000e+002  2.614208e+001
    endloop
  endfacet
  facet normal -3.353828e-001  0.000000e+000  9.420819e-001
    outer loop
      vertex -1.000000e+001  3.500000e+002  2.614208e+001
      vertex -1.000000e+001  4.300000e+002  2.614208e+001
      vertex -1.508841e+001  3.449116e+002  2.433060e+001
    endloop
  endfacet
  facet normal -1.000000e+000  0.000000e+000  0.000000e+000
    outer loop
      vertex -2.500000e+001  4.400000e+002  1.795085e+001
      vertex -2.500000e+001  4.400000e+002  1.961524e+000
      vertex -2.500000e+001  4.329610e+002  5.432772e+000
    endloop
  endfacet
  facet normal -1.000000e+000  0.000000e+000  0.000000e+000
    outer loop
      vertex -2.500000e+001  4.400000e+002  1.795085e+001
      vertex -2.500000e+001  4.329610e+002  5.432772e+000
      vertex -2.500000e+001  4.255291e+002  7.955550e+000
    endloop
  endfacet
  facet normal -1.000000e+000  0.000000e+000  0.000000e+000
    outer loop
      vertex -2.500000e+001  4.400000e+002  1.795085e+001
      vertex -2.500000e+001  4.255291e+002  7.955550e+000
      vertex -2.500000e+001  4.178316e+002  9.486691e+000
    endloop
  endfacet
  facet normal -1.000000e+000  0.000000e+000  0.000000e+000
    outer loop
      vertex -2.500000e+001  4.400000e+002  1.795085e+001
      vertex -2.500000e+001  4.178316e+002  9.486691e+000
      vertex -2.500000e+001  4.100000e+002  1.000000e+001
    endloop
  endfacet
  facet normal -1.000000e+000  0.000000e+000  0.000000e+000
    outer loop
      vertex -2.500000e+001  4.400000e+002  1.795085e+001
      vertex -2.500000e+001  4.100000e+002  1.000000e+001
      vertex -2.500000e+001  3.400000e+002  1.000000e+001
    endloop
  endfacet
  facet normal -1.000000e+000  0.000000e+000  0.000000e+000
    outer loop
      vertex -2.500000e+001  4.400000e+002  1.795085e+001
      vertex -2.500000e+001  3.400000e+002  1.000000e+001
      vertex -2.500000e+001  3.400000e+002  1.795085e+001
    endloop
  endfacet
  facet normal  9.659258e-001  -0.000000e+000  2.588190e-001
    outer loop
      vertex -4.350000e+000  4.300000e+002  5.000000e+000
      vertex -4.350000e+000  3.500000e+002  5.000000e+000
      vertex -3.767210e+000  4.300000e+002  2.825000e+000
    endloop
  endfacet
  facet normal  9.659258e-001  0.000000e+000  2.588190e-001
    outer loop
      vertex -3.767210e+000  4.300000e+002  2.825000e+000
      vertex -4.350000e+000  3.500000e+002  5.000000e+000
      vertex -3.767210e+000  3.500000e+002  2.825000e+000
    endloop
  endfacet
  facet normal  7.071068e-001  -0.000000e+000  7.071068e-001
    outer loop
      vertex -3.767210e+000  4.300000e+002  2.825000e+000
      vertex -3.767210e+000  3.500000e+002  2.825000e+000
      vertex -2.175000e+000  4.300000e+002  1.232790e+000
    endloop
  endfacet
  facet normal  7.071068e-001  0.000000e+000  7.071068e-001
    outer loop
      vertex -2.175000e+000  4.300000e+002  1.232790e+000
      vertex -3.767210e+000  3.500000e+002  2.825000e+000
      vertex -2.175000e+000  3.500000e+002  1.232790e+000
    endloop
  endfacet
  facet normal  2.588190e-001  -0.000000e+000  9.659258e-001
    outer loop
      vertex -2.175000e+000  4.300000e+002  1.232790e+000
      vertex -2.175000e+000  3.500000e+002  1.232790e+000
      vertex  1.776357e-015  4.300000e+002  6.500000e-001
    endloop
  endfacet
  facet normal  2.588190e-001 -5.746937e-018  9.659258e-001
    outer loop
      vertex  1.776357e-015  4.300000e+002  6.500000e-001
      vertex -2.175000e+000  3.500000e+002  1.232790e+000
      vertex  0.000000e+000  3.500000e+002  6.500000e-001
    endloop
  endfacet
  facet normal -2.588190e-001  5.746937e-018  9.659258e-001
    outer loop
      vertex  1.776357e-015  4.300000e+002  6.500000e-001
      vertex  0.000000e+000  3.500000e+002  6.500000e-001
      vertex  2.175000e+000  4.300000e+002  1.232790e+000
    endloop
  endfacet
  facet normal -2.657920e-001  2.033852e-004  9.640303e-001
    outer loop
      vertex  2.175000e+000  4.300000e+002  1.232790e+000
      vertex  0.000000e+000  3.500000e+002  6.500000e-001
      vertex  2.230679e+000  3.477693e+002  1.265489e+000
    endloop
  endfacet
  facet normal -7.071068e-001 -1.976021e-004  7.071068e-001
    outer loop
      vertex  2.175000e+000  4.300000e+002  1.232790e+000
      vertex  2.230679e+000  3.477693e+002  1.265489e+000
      vertex  3.767210e+000  4.300000e+002  2.825000e+000
    endloop
  endfacet
  facet normal -6.664332e-001 -1.686934e-003  7.455628e-001
    outer loop
      vertex  3.767210e+000  4.300000e+002  2.825000e+000
      vertex  2.230679e+000  3.477693e+002  1.265489e+000
      vertex  3.455247e+000  3.465447e+002  2.357318e+000
    endloop
  endfacet
  facet normal -8.890333e-001  7.575488e-004  4.578420e-001
    outer loop
      vertex  3.767210e+000  4.300000e+002  2.825000e+000
      vertex  3.455247e+000  3.465447e+002  2.357318e+000
      vertex  4.158896e+000  3.458411e+002  3.724822e+000
    endloop
  endfacet
  facet normal -9.890178e-001 -3.023114e-003  1.477653e-001
    outer loop
      vertex  4.158896e+000  3.458411e+002  3.724822e+000
      vertex  4.350000e+000  3.456500e+002  5.000000e+000
      vertex  3.767210e+000  4.300000e+002  2.825000e+000
    endloop
  endfacet
  facet normal -9.659258e-001  0.000000e+000  2.588190e-001
    outer loop
      vertex  3.767210e+000  4.300000e+002  2.825000e+000
      vertex  4.350000e+000  3.456500e+002  5.000000e+000
      vertex  4.350000e+000  4.300000e+002  5.000000e+000
    endloop
  endfacet
  facet normal -9.659258e-001  0.000000e+000 -2.588190e-001
    outer loop
      vertex  4.350000e+000  4.300000e+002  5.000000e+000
      vertex  4.350000e+000  3.456500e+002  5.000000e+000
      vertex  3.767210e+000  4.300000e+002  7.175000e+000
    endloop
  endfacet
  facet normal -9.890178e-001 -3.023114e-003 -1.477653e-001
    outer loop
      vertex  3.767210e+000  4.300000e+002  7.175000e+000
      vertex  4.350000e+000  3.456500e+002  5.000000e+000
      vertex  4.158896e+000  3.458411e+002  6.275178e+000
    endloop
  endfacet
  facet normal -8.890333e-001  7.575502e-004 -4.578420e-001
    outer loop
      vertex  3.767210e+000  4.300000e+002  7.175000e+000
      vertex  4.158896e+000  3.458411e+002  6.275178e+000
      vertex  3.455247e+000  3.465447e+002  7.642682e+000
    endloop
  endfacet
  facet normal -7.071062e-001 -1.319382e-003 -7.071060e-001
    outer loop
      vertex  3.767210e+000  4.300000e+002  7.175000e+000
      vertex  3.455247e+000  3.465447e+002  7.642682e+000
      vertex  2.175000e+000  4.300000e+002  8.767211e+000
    endloop
  endfacet
  facet normal -6.655805e-001 -1.538818e-004 -7.463260e-001
    outer loop
      vertex  2.175000e+000  4.300000e+002  8.767211e+000
      vertex  3.455247e+000  3.465447e+002  7.642682e+000
      vertex  2.230679e+000  3.477693e+002  8.734510e+000
    endloop
  endfacet
  facet normal -2.588190e-001  2.088688e-004 -9.659258e-001
    outer loop
      vertex  2.175000e+000  4.300000e+002  8.767211e+000
      vertex  2.230679e+000  3.477693e+002  8.734510e+000
      vertex  0.000000e+000  4.300000e+002  9.350000e+000
    endloop
  endfacet
  facet normal -2.659813e-001  -0.000000e+000 -9.639782e-001
    outer loop
      vertex  0.000000e+000  4.300000e+002  9.350000e+000
      vertex  2.230679e+000  3.477693e+002  8.734510e+000
      vertex  0.000000e+000  3.500000e+002  9.350000e+000
    endloop
  endfacet
  facet normal  2.588190e-001  0.000000e+000 -9.659258e-001
    outer loop
      vertex  0.000000e+000  4.300000e+002  9.350000e+000
      vertex  0.000000e+000  3.500000e+002  9.350000e+000
      vertex -2.175000e+000  4.300000e+002  8.767211e+000
    endloop
  endfacet
  facet normal  2.588190e-001  0.000000e+000 -9.659258e-001
    outer loop
      vertex -2.175000e+000  4.300000e+002  8.767211e+000
      vertex  0.000000e+000  3.500000e+002  9.350000e+000
      vertex -2.175000e+000  3.500000e+002  8.767211e+000
    endloop
  endfacet
  facet normal  7.071068e-001  0.000000e+000 -7.071067e-001
    outer loop
      vertex -2.175000e+000  4.300000e+002  8.767211e+000
      vertex -2.175000e+000  3.500000e+002  8.767211e+000
      vertex -3.767210e+000  4.300000e+002  7.175000e+000
    endloop
  endfacet
  facet normal  7.071068e-001  0.000000e+000 -7.071067e-001
    outer loop
      vertex -3.767210e+000  4.300000e+002  7.175000e+000
      vertex -2.175000e+000  3.500000e+002  8.767211e+000
      vertex -3.767210e+000  3.500000e+002  7.175000e+000
    endloop
  endfacet
  facet normal  9.659258e-001  0.000000e+000 -2.588190e-001
    outer loop
      vertex -3.767210e+000  4.300000e+002  7.175000e+000
      vertex -3.767210e+000  3.500000e+002  7.175000e+000
      vertex -4.350000e+000  4.300000e+002  5.000000e+000
    endloop
  endfacet
  facet normal  9.659258e-001  0.000000e+000 -2.588190e-001
    outer loop
      vertex -4.350000e+000  4.300000e+002  5.000000e+000
      vertex -3.767210e+000  3.500000e+002  7.175000e+000
      vertex -4.350000e+000  3.500000e+002  5.000000e+000
    endloop
  endfacet
  facet normal  5.877843e-001 -1.792937e-003  8.090157e-001
    outer loop
      vertex -1.650000e+000  3.500000e+002  1.714212e+001
      vertex -1.019756e+000  4.300000e+002  1.686151e+001
      vertex -2.669756e+000  4.300000e+002  1.806031e+001
    endloop
  endfacet
  facet normal -1.859195e-001  3.862022e-004  9.825649e-001
    outer loop
      vertex  0.000000e+000  3.500000e+002  1.670000e+001
      vertex  1.208014e+000  3.487920e+002  1.692905e+001
      vertex  1.019756e+000  4.300000e+002  1.686151e+001
    endloop
  endfacet
  facet normal  0.000000e+000 -2.018900e-003  9.999980e-001
    outer loop
      vertex  0.000000e+000  3.500000e+002  1.670000e+001
      vertex  1.019756e+000  4.300000e+002  1.686151e+001
      vertex -1.019756e+000  4.300000e+002  1.686151e+001
    endloop
  endfacet
  facet normal  2.588186e-001  1.349038e-003  9.659250e-001
    outer loop
      vertex  0.000000e+000  3.500000e+002  1.670000e+001
      vertex -1.019756e+000  4.300000e+002  1.686151e+001
      vertex -1.650000e+000  3.500000e+002  1.714212e+001
    endloop
  endfacet
  facet normal  9.510566e-001  -0.000000e+000  3.090169e-001
    outer loop
      vertex -3.300000e+000  4.300000e+002  2.000000e+001
      vertex -3.300000e+000  3.500000e+002  2.000000e+001
      vertex -2.669756e+000  4.300000e+002  1.806031e+001
    endloop
  endfacet
  facet normal  9.659250e-001 -1.334245e-003  2.588188e-001
    outer loop
      vertex -2.669756e+000  4.300000e+002  1.806031e+001
      vertex -3.300000e+000  3.500000e+002  2.000000e+001
      vertex -2.857884e+000  3.500000e+002  1.835000e+001
    endloop
  endfacet
  facet normal  7.071064e-001  8.977087e-004  7.071065e-001
    outer loop
      vertex -2.669756e+000  4.300000e+002  1.806031e+001
      vertex -2.857884e+000  3.500000e+002  1.835000e+001
      vertex -1.650000e+000  3.500000e+002  1.714212e+001
    endloop
  endfacet
  facet normal -5.877851e-001 -6.897511e-004  8.090168e-001
    outer loop
      vertex  1.019756e+000  4.300000e+002  1.686151e+001
      vertex  1.208014e+000  3.487920e+002  1.692905e+001
      vertex  2.669756e+000  4.300000e+002  1.806031e+001
    endloop
  endfacet
  facet normal -5.636702e-001 -1.360386e-003  8.259988e-001
    outer loop
      vertex  2.669756e+000  4.300000e+002  1.806031e+001
      vertex  1.208014e+000  3.487920e+002  1.692905e+001
      vertex  2.414174e+000  3.475858e+002  1.775016e+001
    endloop
  endfacet
  facet normal -8.544722e-001  6.948875e-004  5.194967e-001
    outer loop
      vertex  2.669756e+000  4.300000e+002  1.806031e+001
      vertex  2.414174e+000  3.475858e+002  1.775016e+001
      vertex  3.109298e+000  3.468907e+002  1.889444e+001
    endloop
  endfacet
  facet normal -9.855422e-001 -3.512124e-003  1.693939e-001
    outer loop
      vertex  3.109298e+000  3.468907e+002  1.889444e+001
      vertex  3.300000e+000  3.467000e+002  2.000000e+001
      vertex  2.669756e+000  4.300000e+002  1.806031e+001
    endloop
  endfacet
  facet normal -9.510566e-001  0.000000e+000  3.090169e-001
    outer loop
      vertex  2.669756e+000  4.300000e+002  1.806031e+001
      vertex  3.300000e+000  3.467000e+002  2.000000e+001
      vertex  3.300000e+000  4.300000e+002  2.000000e+001
    endloop
  endfacet
  facet normal  5.877843e-001 -1.792937e-003 -8.090157e-001
    outer loop
      vertex -2.669756e+000  4.300000e+002  2.193969e+001
      vertex -1.019756e+000  4.300000e+002  2.313849e+001
      vertex -1.650000e+000  3.500000e+002  2.285788e+001
    endloop
  endfacet
  facet normal -9.510566e-001  0.000000e+000 -3.090169e-001
    outer loop
      vertex  3.300000e+000  4.300000e+002  2.000000e+001
      vertex  3.300000e+000  3.467000e+002  2.000000e+001
      vertex  2.669756e+000  4.300000e+002  2.193969e+001
    endloop
  endfacet
  facet normal -9.855422e-001 -3.512124e-003 -1.693939e-001
    outer loop
      vertex  2.669756e+000  4.300000e+002  2.193969e+001
      vertex  3.300000e+000  3.467000e+002  2.000000e+001
      vertex  3.109298e+000  3.468907e+002  2.110556e+001
    endloop
  endfacet
  facet normal -8.544722e-001  6.948875e-004 -5.194967e-001
    outer loop
      vertex  2.669756e+000  4.300000e+002  2.193969e+001
      vertex  3.109298e+000  3.468907e+002  2.110556e+001
      vertex  2.414174e+000  3.475858e+002  2.224984e+001
    endloop
  endfacet
  facet normal -5.877848e-001 -1.221692e-003 -8.090164e-001
    outer loop
      vertex  2.669756e+000  4.300000e+002  2.193969e+001
      vertex  2.414174e+000  3.475858e+002  2.224984e+001
      vertex  1.019756e+000  4.300000e+002  2.313849e+001
    endloop
  endfacet
  facet normal -5.631638e-001 -6.182613e-004 -8.263451e-001
    outer loop
      vertex  1.019756e+000  4.300000e+002  2.313849e+001
      vertex  2.414174e+000  3.475858e+002  2.224984e+001
      vertex  1.208014e+000  3.487920e+002  2.307095e+001
    endloop
  endfacet
  facet normal  0.000000e+000  8.317049e-004 -9.999996e-001
    outer loop
      vertex  1.019756e+000  4.300000e+002  2.313849e+001
      vertex  1.208014e+000  3.487920e+002  2.307095e+001
      vertex -1.019756e+000  4.300000e+002  2.313849e+001
    endloop
  endfacet
  facet normal -1.905465e-001 -4.410781e-003 -9.816683e-001
    outer loop
      vertex -1.019756e+000  4.300000e+002  2.313849e+001
      vertex  1.208014e+000  3.487920e+002  2.307095e+001
      vertex  0.000000e+000  3.500000e+002  2.330000e+001
    endloop
  endfacet
  facet normal  2.588186e-001  1.349038e-003 -9.659250e-001
    outer loop
      vertex -1.019756e+000  4.300000e+002  2.313849e+001
      vertex  0.000000e+000  3.500000e+002  2.330000e+001
      vertex -1.650000e+000  3.500000e+002  2.285788e+001
    endloop
  endfacet
  facet normal  9.659259e-001  0.000000e+000 -2.588190e-001
    outer loop
      vertex -3.300000e+000  3.500000e+002  2.000000e+001
      vertex -3.300000e+000  4.300000e+002  2.000000e+001
      vertex -2.857884e+000  3.500000e+002  2.165000e+001
    endloop
  endfacet
  facet normal  9.510559e-001 -1.117505e-003 -3.090167e-001
    outer loop
      vertex -2.857884e+000  3.500000e+002  2.165000e+001
      vertex -3.300000e+000  4.300000e+002  2.000000e+001
      vertex -2.669756e+000  4.300000e+002  2.193969e+001
    endloop
  endfacet
  facet normal  7.071064e-001  8.977087e-004 -7.071065e-001
    outer loop
      vertex -2.857884e+000  3.500000e+002  2.165000e+001
      vertex -2.669756e+000  4.300000e+002  2.193969e+001
      vertex -1.650000e+000  3.500000e+002  2.285788e+001
    endloop
  endfacet
  facet normal  -0.000000e+000 -1.000000e+000  -0.000000e+000
    outer loop
      vertex  0.000000e+000  3.500000e+002  9.350000e+000
      vertex  0.000000e+000  3.500000e+002  1.670000e+001
      vertex -1.650000e+000  3.500000e+002  1.714212e+001
    endloop
  endfacet
  facet normal  -0.000000e+000 -9.999999e-001  -0.000000e+000
    outer loop
      vertex  0.000000e+000  3.500000e+002  9.350000e+000
      vertex -1.650000e+000  3.500000e+002  1.714212e+001
      vertex -2.857884e+000  3.500000e+002  1.835000e+001
    endloop
  endfacet
  facet normal  0.000000e+000 -1.000000e+000  0.000000e+000
    outer loop
      vertex -1.000000e+001  3.500000e+002  2.614208e+001
      vertex -4.350000e+000  3.500000e+002  5.000000e+000
      vertex -3.767210e+000  3.500000e+002  7.175000e+000
    endloop
  endfacet
  facet normal  0.000000e+000 -1.000000e+000  0.000000e+000
    outer loop
      vertex -1.000000e+001  3.500000e+002  2.614208e+001
      vertex -3.767210e+000  3.500000e+002  7.175000e+000
      vertex -2.175000e+000  3.500000e+002  8.767211e+000
    endloop
  endfacet
  facet normal  0.000000e+000 -1.000000e+000  0.000000e+000
    outer loop
      vertex -1.000000e+001  3.500000e+002  2.614208e+001
      vertex -2.175000e+000  3.500000e+002  8.767211e+000
      vertex  0.000000e+000  3.500000e+002  9.350000e+000
    endloop
  endfacet
  facet normal  0.000000e+000 -1.000000e+000  0.000000e+000
    outer loop
      vertex -1.000000e+001  3.500000e+002  2.614208e+001
      vertex  0.000000e+000  3.500000e+002  9.350000e+000
      vertex -2.857884e+000  3.500000e+002  1.835000e+001
    endloop
  endfacet
  facet normal  0.000000e+000 -1.000000e+000  0.000000e+000
    outer loop
      vertex -1.000000e+001  3.500000e+002  2.614208e+001
      vertex -2.857884e+000  3.500000e+002  1.835000e+001
      vertex -3.300000e+000  3.500000e+002  2.000000e+001
    endloop
  endfacet
  facet normal  0.000000e+000 -1.000000e+000  0.000000e+000
    outer loop
      vertex -1.000000e+001  3.500000e+002  2.614208e+001
      vertex -3.300000e+000  3.500000e+002  2.000000e+001
      vertex -2.857884e+000  3.500000e+002  2.165000e+001
    endloop
  endfacet
  facet normal  0.000000e+000 -1.000000e+000  0.000000e+000
    outer loop
      vertex -1.000000e+001  3.500000e+002  2.614208e+001
      vertex -2.857884e+000  3.500000e+002  2.165000e+001
      vertex -1.650000e+000  3.500000e+002  2.285788e+001
    endloop
  endfacet
  facet normal  0.000000e+000 -1.000000e+000  0.000000e+000
    outer loop
      vertex -1.000000e+001  3.500000e+002  2.614208e+001
      vertex -1.650000e+000  3.500000e+002  2.285788e+001
      vertex  0.000000e+000  3.500000e+002  2.330000e+001
    endloop
  endfacet
  facet normal  0.000000e+000 -9.999999e-001  0.000000e+000
    outer loop
      vertex -1.000000e+001  3.500000e+002  2.614208e+001
      vertex  0.000000e+000  3.500000e+002  2.330000e+001
      vertex  0.000000e+000  3.500000e+002  2.750000e+001
    endloop
  endfacet
  facet normal  0.000000e+000 -1.000000e+000  0.000000e+000
    outer loop
      vertex -1.000000e+001  3.500000e+002  2.614208e+001
      vertex  0.000000e+000  3.500000e+002  2.750000e+001
      vertex -5.045888e+000  3.500000e+002  2.715897e+001
    endloop
  endfacet
  facet normal  0.000000e+000 -1.000000e+000  0.000000e+000
    outer loop
      vertex -1.000000e+001  3.500000e+002  0.000000e+000
      vertex  0.000000e+000  3.500000e+002  0.000000e+000
      vertex  0.000000e+000  3.500000e+002  6.500000e-001
    endloop
  endfacet
  facet normal  -0.000000e+000 -1.000000e+000  0.000000e+000
    outer loop
      vertex -1.000000e+001  3.500000e+002  0.000000e+000
      vertex  0.000000e+000  3.500000e+002  6.500000e-001
      vertex -2.175000e+000  3.500000e+002  1.232790e+000
    endloop
  endfacet
  facet normal  -0.000000e+000 -1.000000e+000  0.000000e+000
    outer loop
      vertex -1.000000e+001  3.500000e+002  0.000000e+000
      vertex -2.175000e+000  3.500000e+002  1.232790e+000
      vertex -3.767210e+000  3.500000e+002  2.825000e+000
    endloop
  endfacet
  facet normal  -0.000000e+000 -9.999999e-001  0.000000e+000
    outer loop
      vertex -1.000000e+001  3.500000e+002  0.000000e+000
      vertex -3.767210e+000  3.500000e+002  2.825000e+000
      vertex -4.350000e+000  3.500000e+002  5.000000e+000
    endloop
  endfacet
  facet normal  -0.000000e+000 -1.000000e+000  0.000000e+000
    outer loop
      vertex -1.000000e+001  3.500000e+002  0.000000e+000
      vertex -4.350000e+000  3.500000e+002  5.000000e+000
      vertex -1.000000e+001  3.500000e+002  2.614208e+001
    endloop
  endfacet
  facet normal  7.071072e-001 -7.071062e-001  3.936867e-006
    outer loop
      vertex -1.801388e+001  3.419861e+002  4.649861e-001
      vertex -1.500000e+001  3.450000e+002  0.000000e+000
      vertex -2.000000e+001  3.400000e+002  1.339746e+000
    endloop
  endfacet
  facet normal  7.071068e-001 -7.071068e-001  0.000000e+000
    outer loop
      vertex -2.000000e+001  3.400000e+002  1.339746e+000
      vertex -1.500000e+001  3.450000e+002  0.000000e+000
      vertex -1.000000e+001  3.500000e+002  0.000000e+000
    endloop
  endfacet
  facet normal  7.071068e-001 -7.071068e-001  0.000000e+000
    outer loop
      vertex -2.000000e+001  3.400000e+002  1.339746e+000
      vertex -1.000000e+001  3.500000e+002  0.000000e+000
      vertex -2.000000e+001  3.400000e+002  2.172144e+001
    endloop
  endfacet
  facet normal  7.071068e-001 -7.071068e-001  0.000000e+000
    outer loop
      vertex -2.000000e+001  3.400000e+002  2.172144e+001
      vertex -1.000000e+001  3.500000e+002  0.000000e+000
      vertex -1.000000e+001  3.500000e+002  2.614208e+001
    endloop
  endfacet
  facet normal  7.071078e-001 -7.071058e-001 -4.619687e-006
    outer loop
      vertex -2.000000e+001  3.400000e+002  2.172144e+001
      vertex -1.000000e+001  3.500000e+002  2.614208e+001
      vertex -1.508841e+001  3.449116e+002  2.433060e+001
    endloop
  endfacet
  facet normal  0.000000e+000 -1.000000e+000  0.000000e+000
    outer loop
      vertex -2.000000e+001  3.400000e+002  2.172144e+001
      vertex -2.500000e+001  3.400000e+002  1.795085e+001
      vertex -2.000000e+001  3.400000e+002  1.339746e+000
    endloop
  endfacet
  facet normal  0.000000e+000 -1.000000e+000  0.000000e+000
    outer loop
      vertex -2.000000e+001  3.400000e+002  1.339746e+000
      vertex -2.500000e+001  3.400000e+002  1.795085e+001
      vertex -2.500000e+001  3.400000e+002  1.000000e+001
    endloop
  endfacet
  facet normal  0.000000e+000 -9.999999e-001  0.000000e+000
    outer loop
      vertex -2.000000e+001  3.400000e+002  1.339746e+000
      vertex -2.500000e+001  3.400000e+002  1.000000e+001
      vertex -2.266044e+001  3.400000e+002  3.572124e+000
    endloop
  endfacet
  facet normal  0.000000e+000 -1.000000e+000  0.000000e+000
    outer loop
      vertex -2.266044e+001  3.400000e+002  3.572124e+000
      vertex -2.500000e+001  3.400000e+002  1.000000e+001
      vertex -2.439693e+001  3.400000e+002  6.579799e+000
    endloop
  endfacet
  facet normal  0.000000e+000 -1.000000e+000  0.000000e+000
    outer loop
      vertex  1.000000e+001  3.400000e+002  0.000000e+000
      vertex  1.500000e+001  3.400000e+002  0.000000e+000
      vertex  2.500000e+001  3.400000e+002  1.000000e+001
    endloop
  endfacet
  facet normal  0.000000e+000 -1.000000e+000  0.000000e+000
    outer loop
      vertex  2.500000e+001  3.400000e+002  1.000000e+001
      vertex  1.500000e+001  3.400000e+002  0.000000e+000
      vertex  1.882683e+001  3.400000e+002  7.612047e-001
    endloop
  endfacet
  facet normal  0.000000e+000 -1.000000e+000  0.000000e+000
    outer loop
      vertex  2.500000e+001  3.400000e+002  1.000000e+001
      vertex  1.882683e+001  3.400000e+002  7.612047e-001
      vertex  2.423880e+001  3.400000e+002  6.173166e+000
    endloop
  endfacet
  facet normal  0.000000e+000 -1.000000e+000  0.000000e+000
    outer loop
      vertex  2.423880e+001  3.400000e+002  6.173166e+000
      vertex  1.882683e+001  3.400000e+002  7.612047e-001
      vertex  2.207107e+001  3.400000e+002  2.928932e+000
    endloop
  endfacet
  facet normal  -0.000000e+000 -9.999999e-001  0.000000e+000
    outer loop
      vertex  1.000000e+001  3.400000e+002  0.000000e+000
      vertex  2.500000e+001  3.400000e+002  1.000000e+001
      vertex  1.000000e+001  3.400000e+002  2.614208e+001
    endloop
  endfacet
  facet normal  0.000000e+000 -9.999999e-001  0.000000e+000
    outer loop
      vertex  1.000000e+001  3.400000e+002  2.614208e+001
      vertex  2.500000e+001  3.400000e+002  1.000000e+001
      vertex  2.500000e+001  3.400000e+002  1.795085e+001
    endloop
  endfacet
  facet normal  0.000000e+000 -1.000000e+000  0.000000e+000
    outer loop
      vertex  1.000000e+001  3.400000e+002  2.614208e+001
      vertex  2.500000e+001  3.400000e+002  1.795085e+001
      vertex  1.540043e+001  3.400000e+002  2.419176e+001
    endloop
  endfacet
  facet normal  0.000000e+000 -1.000000e+000  0.000000e+000
    outer loop
      vertex  1.540043e+001  3.400000e+002  2.419176e+001
      vertex  2.500000e+001  3.400000e+002  1.795085e+001
      vertex  2.043981e+001  3.400000e+002  2.143985e+001
    endloop
  endfacet
  facet normal -7.071050e-001 -7.071086e-001  -0.000000e+000
    outer loop
      vertex  1.208014e+000  3.487920e+002  1.692905e+001
      vertex  0.000000e+000  3.500000e+002  1.670000e+001
      vertex  0.000000e+000  3.500000e+002  9.350000e+000
    endloop
  endfacet
  facet normal -7.071124e-001 -7.071011e-001  2.372992e-006
    outer loop
      vertex  2.414174e+000  3.475858e+002  1.775016e+001
      vertex  1.208014e+000  3.487920e+002  1.692905e+001
      vertex  0.000000e+000  3.500000e+002  9.350000e+000
    endloop
  endfacet
  facet normal -7.071052e-001 -7.071084e-001  2.351338e-005
    outer loop
      vertex  1.000000e+001  3.400000e+002  2.614208e+001
      vertex  5.023205e+000  3.449768e+002  2.716204e+001
      vertex  0.000000e+000  3.500000e+002  2.750000e+001
    endloop
  endfacet
  facet normal -7.071068e-001 -7.071068e-001  -0.000000e+000
    outer loop
      vertex  1.000000e+001  3.400000e+002  2.614208e+001
      vertex  0.000000e+000  3.500000e+002  2.750000e+001
      vertex  0.000000e+000  3.500000e+002  2.330000e+001
    endloop
  endfacet
  facet normal -7.071056e-001 -7.071078e-001 -7.657975e-006
    outer loop
      vertex  1.000000e+001  3.400000e+002  2.614208e+001
      vertex  0.000000e+000  3.500000e+002  2.330000e+001
      vertex  1.208014e+000  3.487920e+002  2.307095e+001
    endloop
  endfacet
  facet normal -7.071085e-001 -7.071049e-001  8.915901e-006
    outer loop
      vertex  1.000000e+001  3.400000e+002  2.614208e+001
      vertex  1.208014e+000  3.487920e+002  2.307095e+001
      vertex  2.414174e+000  3.475858e+002  2.224984e+001
    endloop
  endfacet
  facet normal -7.071034e-001 -7.071101e-001 -1.100396e-005
    outer loop
      vertex  1.000000e+001  3.400000e+002  2.614208e+001
      vertex  2.414174e+000  3.475858e+002  2.224984e+001
      vertex  3.109298e+000  3.468907e+002  2.110556e+001
    endloop
  endfacet
  facet normal -7.071078e-001 -7.071058e-001  8.584725e-007
    outer loop
      vertex  1.000000e+001  3.400000e+002  2.614208e+001
      vertex  3.109298e+000  3.468907e+002  2.110556e+001
      vertex  3.300000e+000  3.467000e+002  2.000000e+001
    endloop
  endfacet
  facet normal -7.071069e-001 -7.071066e-001 -1.180971e-006
    outer loop
      vertex  1.000000e+001  3.400000e+002  2.614208e+001
      vertex  3.300000e+000  3.467000e+002  2.000000e+001
      vertex  3.109298e+000  3.468907e+002  1.889444e+001
    endloop
  endfacet
  facet normal -7.071307e-001 -7.070829e-001  4.409056e-005
    outer loop
      vertex  1.000000e+001  3.400000e+002  2.614208e+001
      vertex  3.109298e+000  3.468907e+002  1.889444e+001
      vertex  2.414174e+000  3.475858e+002  1.775016e+001
    endloop
  endfacet
  facet normal -7.071053e-001 -7.071082e-001 -1.677297e-006
    outer loop
      vertex  1.000000e+001  3.400000e+002  2.614208e+001
      vertex  2.414174e+000  3.475858e+002  1.775016e+001
      vertex  0.000000e+000  3.500000e+002  9.350000e+000
    endloop
  endfacet
  facet normal -7.071072e-001 -7.071064e-001  5.025228e-007
    outer loop
      vertex  1.000000e+001  3.400000e+002  2.614208e+001
      vertex  0.000000e+000  3.500000e+002  9.350000e+000
      vertex  2.230679e+000  3.477693e+002  8.734510e+000
    endloop
  endfacet
  facet normal -7.071091e-001 -7.071045e-001  2.148968e-006
    outer loop
      vertex  1.000000e+001  3.400000e+002  2.614208e+001
      vertex  2.230679e+000  3.477693e+002  8.734510e+000
      vertex  3.455247e+000  3.465447e+002  7.642682e+000
    endloop
  endfacet
  facet normal -7.071047e-001 -7.071088e-001 -8.814638e-007
    outer loop
      vertex  1.000000e+001  3.400000e+002  2.614208e+001
      vertex  3.455247e+000  3.465447e+002  7.642682e+000
      vertex  4.158896e+000  3.458411e+002  6.275178e+000
    endloop
  endfacet
  facet normal -7.071049e-001 -7.071086e-001 -7.725646e-007
    outer loop
      vertex  1.000000e+001  3.400000e+002  2.614208e+001
      vertex  4.158896e+000  3.458411e+002  6.275178e+000
      vertex  4.350000e+000  3.456500e+002  5.000000e+000
    endloop
  endfacet
  facet normal -7.071115e-001 -7.071021e-001  2.745350e-006
    outer loop
      vertex  1.000000e+001  3.400000e+002  2.614208e+001
      vertex  4.350000e+000  3.456500e+002  5.000000e+000
      vertex  4.158896e+000  3.458411e+002  3.724822e+000
    endloop
  endfacet
  facet normal -7.071062e-001 -7.071072e-001  -0.000000e+000
    outer loop
      vertex  1.000000e+001  3.400000e+002  0.000000e+000
      vertex  1.000000e+001  3.400000e+002  2.614208e+001
      vertex  4.158896e+000  3.458411e+002  3.724822e+000
    endloop
  endfacet
  facet normal -7.071056e-001 -7.071078e-001  1.825214e-006
    outer loop
      vertex  1.000000e+001  3.400000e+002  0.000000e+000
      vertex  4.158896e+000  3.458411e+002  3.724822e+000
      vertex  3.455247e+000  3.465447e+002  2.357318e+000
    endloop
  endfacet
  facet normal -7.071072e-001 -7.071064e-001 -6.403706e-006
    outer loop
      vertex  1.000000e+001  3.400000e+002  0.000000e+000
      vertex  3.455247e+000  3.465447e+002  2.357318e+000
      vertex  2.230679e+000  3.477693e+002  1.265489e+000
    endloop
  endfacet
  facet normal -7.071069e-001 -7.071067e-001 -2.832447e-006
    outer loop
      vertex  1.000000e+001  3.400000e+002  0.000000e+000
      vertex  2.230679e+000  3.477693e+002  1.265489e+000
      vertex  0.000000e+000  3.500000e+002  6.500000e-001
    endloop
  endfacet
  facet normal -7.071067e-001 -7.071067e-001  -0.000000e+000
    outer loop
      vertex  1.000000e+001  3.400000e+002  0.000000e+000
      vertex  0.000000e+000  3.500000e+002  6.500000e-001
      vertex  0.000000e+000  3.500000e+002  0.000000e+000
    endloop
  endfacet
  facet normal  2.201738e-001 -7.837904e-002 -9.723066e-001
    outer loop
      vertex  1.500000e+001  4.100000e+002  0.000000e+000
      vertex  1.500000e+001  4.180091e+002 -6.456271e-001
      vertex  1.882683e+001  4.165150e+002  3.413868e-001
    endloop
  endfacet
  facet normal  2.328588e-001 -2.324083e-001 -9.443322e-001
    outer loop
      vertex  1.500000e+001  4.258114e+002 -2.565835e+000
      vertex  1.882683e+001  4.229221e+002 -9.111229e-001
      vertex  1.500000e+001  4.180091e+002 -6.456271e-001
    endloop
  endfacet
  facet normal  2.328591e-001 -3.806736e-001 -8.949102e-001
    outer loop
      vertex  1.500000e+001  4.332053e+002 -5.711034e+000
      vertex  1.882683e+001  4.291156e+002 -2.975606e+000
      vertex  1.500000e+001  4.258114e+002 -2.565835e+000
    endloop
  endfacet
  facet normal  6.556051e-001 -3.971001e-001 -6.422565e-001
    outer loop
      vertex  2.056376e+001  4.400000e+002 -7.905725e+000
      vertex  2.219720e+001  4.400000e+002 -6.238338e+000
      vertex  2.207107e+001  4.360602e+002 -3.931146e+000
    endloop
  endfacet
  facet normal  5.538414e-001 -4.767512e-001 -6.826184e-001
    outer loop
      vertex  2.207107e+001  4.360602e+002 -3.931146e+000
      vertex  1.882683e+001  4.349929e+002 -5.817916e+000
      vertex  2.056376e+001  4.400000e+002 -7.905725e+000
    endloop
  endfacet
  facet normal  4.612594e-001 -4.730095e-001 -7.506675e-001
    outer loop
      vertex  2.056376e+001  4.400000e+002 -7.905725e+000
      vertex  1.882683e+001  4.349929e+002 -5.817916e+000
      vertex  1.827147e+001  4.400000e+002 -9.314262e+000
    endloop
  endfacet
  facet normal  9.807051e-001 -1.278584e-002 -1.950742e-001
    outer loop
      vertex  2.500000e+001  4.100000e+002  1.000000e+001
      vertex  2.423880e+001  4.100000e+002  6.173166e+000
      vertex  2.500000e+001  4.178316e+002  9.486691e+000
    endloop
  endfacet
  facet normal  9.806228e-001 -1.259780e-002 -1.954997e-001
    outer loop
      vertex  2.500000e+001  4.178316e+002  9.486691e+000
      vertex  2.423880e+001  4.100000e+002  6.173166e+000
      vertex  2.423880e+001  4.172096e+002  5.708589e+000
    endloop
  endfacet
  facet normal  9.807854e-001 -3.805998e-002 -1.913404e-001
    outer loop
      vertex  2.500000e+001  4.178316e+002  9.486691e+000
      vertex  2.423880e+001  4.172096e+002  5.708589e+000
      vertex  2.500000e+001  4.255291e+002  7.955550e+000
    endloop
  endfacet
  facet normal  9.805344e-001 -3.766990e-002 -1.926997e-001
    outer loop
      vertex  2.500000e+001  4.255291e+002  7.955550e+000
      vertex  2.423880e+001  4.172096e+002  5.708589e+000
      vertex  2.423880e+001  4.242999e+002  4.322541e+000
    endloop
  endfacet
  facet normal  9.808681e-001 -6.257587e-002 -1.843423e-001
    outer loop
      vertex  2.500000e+001  4.255291e+002  7.955550e+000
      vertex  2.423880e+001  4.242999e+002  4.322541e+000
      vertex  2.500000e+001  4.329610e+002  5.432772e+000
    endloop
  endfacet
  facet normal  9.804425e-001 -6.223547e-002 -1.867061e-001
    outer loop
      vertex  2.500000e+001  4.329610e+002  5.432772e+000
      vertex  2.423880e+001  4.242999e+002  4.322541e+000
      vertex  2.423880e+001  4.311536e+002  2.037950e+000
    endloop
  endfacet
  facet normal  9.809527e-001 -8.591310e-002 -1.742147e-001
    outer loop
      vertex  2.500000e+001  4.329610e+002  5.432772e+000
      vertex  2.423880e+001  4.311536e+002  2.037950e+000
      vertex  2.500000e+001  4.400000e+002  1.961524e+000
    endloop
  endfacet
  facet normal  9.803470e-001 -8.589025e-002 -1.776020e-001
    outer loop
      vertex  2.500000e+001  4.400000e+002  1.961524e+000
      vertex  2.423880e+001  4.311536e+002  2.037950e+000
      vertex  2.423880e+001  4.376575e+002 -1.107395e+000
    endloop
  endfacet
  facet normal  9.811038e-001 -1.206507e-001 -1.512571e-001
    outer loop
      vertex  2.500000e+001  4.400000e+002  1.961524e+000
      vertex  2.423880e+001  4.376575e+002 -1.107395e+000
      vertex  2.437309e+001  4.400000e+002 -2.104854e+000
    endloop
  endfacet
  facet normal  1.745321e-001 -5.255859e-001 -8.326452e-001
    outer loop
      vertex  1.500000e+001  4.400000e+002 -1.000000e+001
      vertex  1.827147e+001  4.400000e+002 -9.314262e+000
      vertex  1.500000e+001  4.332053e+002 -5.711034e+000
    endloop
  endfacet
  facet normal  2.296059e-001 -5.399680e-001 -8.097628e-001
    outer loop
      vertex  1.500000e+001  4.332053e+002 -5.711034e+000
      vertex  1.827147e+001  4.400000e+002 -9.314262e+000
      vertex  1.882683e+001  4.349929e+002 -5.817916e+000
    endloop
  endfacet
  facet normal  1.754564e-001 -4.286177e-001 -8.862854e-001
    outer loop
      vertex  1.500000e+001  4.332053e+002 -5.711034e+000
      vertex  1.882683e+001  4.349929e+002 -5.817916e+000
      vertex  1.882683e+001  4.291156e+002 -2.975606e+000
    endloop
  endfacet
  facet normal  8.310621e-001 -3.006297e-001 -4.679290e-001
    outer loop
      vertex  2.207107e+001  4.360602e+002 -3.931146e+000
      vertex  2.219720e+001  4.400000e+002 -6.238338e+000
      vertex  2.423880e+001  4.376575e+002 -1.107395e+000
    endloop
  endfacet
  facet normal  7.609442e-001 -4.200055e-001 -4.945295e-001
    outer loop
      vertex  2.423880e+001  4.376575e+002 -1.107395e+000
      vertex  2.219720e+001  4.400000e+002 -6.238338e+000
      vertex  2.346954e+001  4.400000e+002 -4.280563e+000
    endloop
  endfacet
  facet normal  9.026623e-001 -2.113684e-001 -3.748654e-001
    outer loop
      vertex  2.423880e+001  4.376575e+002 -1.107395e+000
      vertex  2.346954e+001  4.400000e+002 -4.280563e+000
      vertex  2.437309e+001  4.400000e+002 -2.104854e+000
    endloop
  endfacet
  facet normal  8.309371e-001 -3.577749e-002 -5.552146e-001
    outer loop
      vertex  2.423880e+001  4.172096e+002  5.708589e+000
      vertex  2.423880e+001  4.100000e+002  6.173166e+000
      vertex  2.207107e+001  4.167932e+002  2.491186e+000
    endloop
  endfacet
  facet normal  8.309373e-001 -3.577749e-002 -5.552147e-001
    outer loop
      vertex  2.207107e+001  4.167932e+002  2.491186e+000
      vertex  2.423880e+001  4.100000e+002  6.173166e+000
      vertex  2.207107e+001  4.100000e+002  2.928932e+000
    endloop
  endfacet
  facet normal  5.547745e-001 -5.350235e-002 -8.302786e-001
    outer loop
      vertex  2.207107e+001  4.167932e+002  2.491186e+000
      vertex  2.207107e+001  4.100000e+002  2.928932e+000
      vertex  1.882683e+001  4.165150e+002  3.413868e-001
    endloop
  endfacet
  facet normal  5.547745e-001 -5.350244e-002 -8.302788e-001
    outer loop
      vertex  1.882683e+001  4.165150e+002  3.413868e-001
      vertex  2.207107e+001  4.100000e+002  2.928932e+000
      vertex  1.882683e+001  4.100000e+002  7.612047e-001
    endloop
  endfacet
  facet normal  1.947019e-001 -6.307510e-002 -9.788324e-001
    outer loop
      vertex  1.882683e+001  4.165150e+002  3.413868e-001
      vertex  1.882683e+001  4.100000e+002  7.612047e-001
      vertex  1.500000e+001  4.100000e+002  0.000000e+000
    endloop
  endfacet
  facet normal  8.309370e-001 -1.067409e-001 -5.460311e-001
    outer loop
      vertex  2.423880e+001  4.242999e+002  4.322541e+000
      vertex  2.423880e+001  4.172096e+002  5.708589e+000
      vertex  2.207107e+001  4.234740e+002  1.185189e+000
    endloop
  endfacet
  facet normal  8.309373e-001 -1.067407e-001 -5.460310e-001
    outer loop
      vertex  2.207107e+001  4.234740e+002  1.185189e+000
      vertex  2.423880e+001  4.172096e+002  5.708589e+000
      vertex  2.207107e+001  4.167932e+002  2.491186e+000
    endloop
  endfacet
  facet normal  5.547750e-001 -1.596220e-001 -8.165449e-001
    outer loop
      vertex  2.207107e+001  4.234740e+002  1.185189e+000
      vertex  2.207107e+001  4.167932e+002  2.491186e+000
      vertex  1.882683e+001  4.229221e+002 -9.111229e-001
    endloop
  endfacet
  facet normal  5.547748e-001 -1.596221e-001 -8.165450e-001
    outer loop
      vertex  1.882683e+001  4.229221e+002 -9.111229e-001
      vertex  2.207107e+001  4.167932e+002  2.491186e+000
      vertex  1.882683e+001  4.165150e+002  3.413868e-001
    endloop
  endfacet
  facet normal  1.754550e-001 -1.888773e-001 -9.661992e-001
    outer loop
      vertex  1.882683e+001  4.229221e+002 -9.111229e-001
      vertex  1.882683e+001  4.165150e+002  3.413868e-001
      vertex  1.500000e+001  4.180091e+002 -6.456271e-001
    endloop
  endfacet
  facet normal  8.309371e-001 -1.759387e-001 -5.278152e-001
    outer loop
      vertex  2.423880e+001  4.311536e+002  2.037950e+000
      vertex  2.423880e+001  4.242999e+002  4.322541e+000
      vertex  2.207107e+001  4.299319e+002 -9.674573e-001
    endloop
  endfacet
  facet normal  8.309370e-001 -1.759391e-001 -5.278156e-001
    outer loop
      vertex  2.207107e+001  4.299319e+002 -9.674573e-001
      vertex  2.423880e+001  4.242999e+002  4.322541e+000
      vertex  2.207107e+001  4.234740e+002  1.185189e+000
    endloop
  endfacet
  facet normal  5.547741e-001 -2.631026e-001 -7.893052e-001
    outer loop
      vertex  2.207107e+001  4.299319e+002 -9.674573e-001
      vertex  2.207107e+001  4.234740e+002  1.185189e+000
      vertex  1.882683e+001  4.291156e+002 -2.975606e+000
    endloop
  endfacet
  facet normal  5.547754e-001 -2.631016e-001 -7.893047e-001
    outer loop
      vertex  1.882683e+001  4.291156e+002 -2.975606e+000
      vertex  2.207107e+001  4.234740e+002  1.185189e+000
      vertex  1.882683e+001  4.229221e+002 -9.111229e-001
    endloop
  endfacet
  facet normal  1.689907e-001 -3.116797e-001 -9.350390e-001
    outer loop
      vertex  1.882683e+001  4.291156e+002 -2.975606e+000
      vertex  1.882683e+001  4.229221e+002 -9.111229e-001
      vertex  1.500000e+001  4.258114e+002 -2.565835e+000
    endloop
  endfacet
  facet normal  8.309367e-001 -2.422262e-001 -5.008700e-001
    outer loop
      vertex  2.423880e+001  4.376575e+002 -1.107395e+000
      vertex  2.423880e+001  4.311536e+002  2.037950e+000
      vertex  2.207107e+001  4.360602e+002 -3.931146e+000
    endloop
  endfacet
  facet normal  8.309372e-001 -2.422253e-001 -5.008695e-001
    outer loop
      vertex  2.207107e+001  4.360602e+002 -3.931146e+000
      vertex  2.423880e+001  4.311536e+002  2.037950e+000
      vertex  2.207107e+001  4.299319e+002 -9.674573e-001
    endloop
  endfacet
  facet normal  5.547757e-001 -3.622281e-001 -7.490091e-001
    outer loop
      vertex  2.207107e+001  4.360602e+002 -3.931146e+000
      vertex  2.207107e+001  4.299319e+002 -9.674573e-001
      vertex  1.882683e+001  4.349929e+002 -5.817916e+000
    endloop
  endfacet
  facet normal  5.547740e-001 -3.622297e-001 -7.490097e-001
    outer loop
      vertex  1.882683e+001  4.349929e+002 -5.817916e+000
      vertex  2.207107e+001  4.299319e+002 -9.674573e-001
      vertex  1.882683e+001  4.291156e+002 -2.975606e+000
    endloop
  endfacet
  facet normal -3.188235e-002 -3.912350e-001 -9.197384e-001
    outer loop
      vertex  1.500000e+001  4.332053e+002 -5.711034e+000
      vertex  1.500000e+001  4.258114e+002 -2.565835e+000
      vertex  1.000000e+001  4.300000e+002 -4.174243e+000
    endloop
  endfacet
  facet normal  -0.000000e+000 -3.584759e-001 -9.335390e-001
    outer loop
      vertex -1.000000e+001  4.300000e+002 -4.174243e+000
      vertex  1.000000e+001  4.300000e+002 -4.174243e+000
      vertex  1.500000e+001  4.258114e+002 -2.565835e+000
    endloop
  endfacet
  facet normal  -0.000000e+000 -3.584759e-001 -9.335390e-001
    outer loop
      vertex -1.000000e+001  4.300000e+002 -4.174243e+000
      vertex  1.500000e+001  4.258114e+002 -2.565835e+000
      vertex -1.500000e+001  4.258114e+002 -2.565835e+000
    endloop
  endfacet
  facet normal  3.188235e-002 -3.912350e-001 -9.197384e-001
    outer loop
      vertex -1.000000e+001  4.300000e+002 -4.174243e+000
      vertex -1.500000e+001  4.258114e+002 -2.565835e+000
      vertex -1.500000e+001  4.332053e+002 -5.711034e+000
    endloop
  endfacet
  facet normal -1.595004e-002 -4.523942e-001 -8.916755e-001
    outer loop
      vertex -1.000000e+001  4.300000e+002 -4.174243e+000
      vertex -1.500000e+001  4.332053e+002 -5.711034e+000
      vertex -1.000000e+001  4.351691e+002 -6.796816e+000
    endloop
  endfacet
  facet normal  0.000000e+000 -8.035081e-002 -9.967667e-001
    outer loop
      vertex  1.500000e+001  4.100000e+002  0.000000e+000
      vertex -1.500000e+001  4.100000e+002  0.000000e+000
      vertex  1.500000e+001  4.180091e+002 -6.456271e-001
    endloop
  endfacet
  facet normal  -0.000000e+000 -8.035081e-002 -9.967667e-001
    outer loop
      vertex  1.500000e+001  4.180091e+002 -6.456271e-001
      vertex -1.500000e+001  4.100000e+002  0.000000e+000
      vertex -1.500000e+001  4.180091e+002 -6.456271e-001
    endloop
  endfacet
  facet normal  0.000000e+000 -2.389777e-001 -9.710250e-001
    outer loop
      vertex  1.500000e+001  4.180091e+002 -6.456271e-001
      vertex -1.500000e+001  4.180091e+002 -6.456271e-001
      vertex  1.500000e+001  4.258114e+002 -2.565835e+000
    endloop
  endfacet
  facet normal  -0.000000e+000 -2.389777e-001 -9.710250e-001
    outer loop
      vertex  1.500000e+001  4.258114e+002 -2.565835e+000
      vertex -1.500000e+001  4.180091e+002 -6.456271e-001
      vertex -1.500000e+001  4.258114e+002 -2.565835e+000
    endloop
  endfacet
  facet normal  -0.000000e+000 -5.526206e-001 -8.334330e-001
    outer loop
      vertex  1.000000e+001  4.400000e+002 -1.000000e+001
      vertex  1.500000e+001  4.400000e+002 -1.000000e+001
      vertex  1.000000e+001  4.351691e+002 -6.796816e+000
    endloop
  endfacet
  facet normal -2.600609e-002 -5.335981e-001 -8.453383e-001
    outer loop
      vertex  1.000000e+001  4.351691e+002 -6.796816e+000
      vertex  1.500000e+001  4.400000e+002 -1.000000e+001
      vertex  1.500000e+001  4.332053e+002 -5.711034e+000
    endloop
  endfacet
  facet normal  1.595004e-002 -4.523942e-001 -8.916755e-001
    outer loop
      vertex  1.000000e+001  4.351691e+002 -6.796816e+000
      vertex  1.500000e+001  4.332053e+002 -5.711034e+000
      vertex  1.000000e+001  4.300000e+002 -4.174243e+000
    endloop
  endfacet
  facet normal  0.000000e+000 -5.526206e-001 -8.334330e-001
    outer loop
      vertex -1.000000e+001  4.400000e+002 -1.000000e+001
      vertex -1.000000e+001  4.351691e+002 -6.796816e+000
      vertex -1.500000e+001  4.400000e+002 -1.000000e+001
    endloop
  endfacet
  facet normal  2.600609e-002 -5.335981e-001 -8.453383e-001
    outer loop
      vertex -1.500000e+001  4.400000e+002 -1.000000e+001
      vertex -1.000000e+001  4.351691e+002 -6.796816e+000
      vertex -1.500000e+001  4.332053e+002 -5.711034e+000
    endloop
  endfacet
  facet normal -2.201738e-001 -7.837905e-002 -9.723066e-001
    outer loop
      vertex -1.500000e+001  4.100000e+002  0.000000e+000
      vertex -1.882683e+001  4.165150e+002  3.413868e-001
      vertex -1.500000e+001  4.180091e+002 -6.456271e-001
    endloop
  endfacet
  facet normal -9.811038e-001 -1.206506e-001 -1.512571e-001
    outer loop
      vertex -2.500000e+001  4.400000e+002  1.961524e+000
      vertex -2.437309e+001  4.400000e+002 -2.104854e+000
      vertex -2.423880e+001  4.376575e+002 -1.107395e+000
    endloop
  endfacet
  facet normal -9.804057e-001 -8.712566e-002 -1.766735e-001
    outer loop
      vertex -2.500000e+001  4.400000e+002  1.961524e+000
      vertex -2.423880e+001  4.376575e+002 -1.107395e+000
      vertex -2.500000e+001  4.329610e+002  5.432772e+000
    endloop
  endfacet
  facet normal -2.201744e-001 -5.206800e-001 -8.248731e-001
    outer loop
      vertex -1.500000e+001  4.400000e+002 -1.000000e+001
      vertex -1.500000e+001  4.332053e+002 -5.711034e+000
      vertex -1.882683e+001  4.349929e+002 -5.817916e+000
    endloop
  endfacet
  facet normal -1.711704e-001 -5.512287e-001 -8.166073e-001
    outer loop
      vertex -1.500000e+001  4.400000e+002 -1.000000e+001
      vertex -1.882683e+001  4.349929e+002 -5.817916e+000
      vertex -1.827147e+001  4.400000e+002 -9.314262e+000
    endloop
  endfacet
  facet normal -2.328591e-001 -3.806736e-001 -8.949102e-001
    outer loop
      vertex -1.500000e+001  4.258114e+002 -2.565835e+000
      vertex -1.882683e+001  4.291156e+002 -2.975606e+000
      vertex -1.500000e+001  4.332053e+002 -5.711034e+000
    endloop
  endfacet
  facet normal -9.804772e-001 -6.320556e-002 -1.861974e-001
    outer loop
      vertex -2.423880e+001  4.311536e+002  2.037950e+000
      vertex -2.500000e+001  4.255291e+002  7.955550e+000
      vertex -2.500000e+001  4.329610e+002  5.432772e+000
    endloop
  endfacet
  facet normal -9.809427e-001 -8.459135e-002 -1.749161e-001
    outer loop
      vertex -2.423880e+001  4.311536e+002  2.037950e+000
      vertex -2.500000e+001  4.329610e+002  5.432772e+000
      vertex -2.423880e+001  4.376575e+002 -1.107395e+000
    endloop
  endfacet
  facet normal -2.328588e-001 -2.324083e-001 -9.443322e-001
    outer loop
      vertex -1.500000e+001  4.180091e+002 -6.456271e-001
      vertex -1.882683e+001  4.229221e+002 -9.111229e-001
      vertex -1.500000e+001  4.258114e+002 -2.565835e+000
    endloop
  endfacet
  facet normal -9.805510e-001 -3.828935e-002 -1.924936e-001
    outer loop
      vertex -2.423880e+001  4.242999e+002  4.322541e+000
      vertex -2.500000e+001  4.178316e+002  9.486691e+000
      vertex -2.500000e+001  4.255291e+002  7.955550e+000
    endloop
  endfacet
  facet normal -9.808677e-001 -6.156191e-002 -1.846854e-001
    outer loop
      vertex -2.423880e+001  4.242999e+002  4.322541e+000
      vertex -2.500000e+001  4.255291e+002  7.955550e+000
      vertex -2.423880e+001  4.311536e+002  2.037950e+000
    endloop
  endfacet
  facet normal -9.807894e-001 -3.742478e-002 -1.914458e-001
    outer loop
      vertex -2.423880e+001  4.172096e+002  5.708589e+000
      vertex -2.500000e+001  4.178316e+002  9.486691e+000
      vertex -2.423880e+001  4.242999e+002  4.322541e+000
    endloop
  endfacet
  facet normal -6.556051e-001 -3.971001e-001 -6.422565e-001
    outer loop
      vertex -2.207107e+001  4.360602e+002 -3.931146e+000
      vertex -2.219720e+001  4.400000e+002 -6.238338e+000
      vertex -2.056376e+001  4.400000e+002 -7.905725e+000
    endloop
  endfacet
  facet normal -5.538414e-001 -4.767512e-001 -6.826184e-001
    outer loop
      vertex -2.207107e+001  4.360602e+002 -3.931146e+000
      vertex -2.056376e+001  4.400000e+002 -7.905725e+000
      vertex -1.882683e+001  4.349929e+002 -5.817916e+000
    endloop
  endfacet
  facet normal -4.612594e-001 -4.730095e-001 -7.506675e-001
    outer loop
      vertex -2.056376e+001  4.400000e+002 -7.905725e+000
      vertex -1.827147e+001  4.400000e+002 -9.314262e+000
      vertex -1.882683e+001  4.349929e+002 -5.817916e+000
    endloop
  endfacet
  facet normal -9.807051e-001 -1.278584e-002 -1.950742e-001
    outer loop
      vertex -2.500000e+001  4.100000e+002  1.000000e+001
      vertex -2.500000e+001  4.178316e+002  9.486691e+000
      vertex -2.423880e+001  4.100000e+002  6.173166e+000
    endloop
  endfacet
  facet normal -9.806228e-001 -1.259780e-002 -1.954997e-001
    outer loop
      vertex -2.423880e+001  4.100000e+002  6.173166e+000
      vertex -2.500000e+001  4.178316e+002  9.486691e+000
      vertex -2.423880e+001  4.172096e+002  5.708589e+000
    endloop
  endfacet
  facet normal -8.309371e-001 -3.577749e-002 -5.552146e-001
    outer loop
      vertex -2.423880e+001  4.100000e+002  6.173166e+000
      vertex -2.423880e+001  4.172096e+002  5.708589e+000
      vertex -2.207107e+001  4.100000e+002  2.928932e+000
    endloop
  endfacet
  facet normal -8.309373e-001 -3.577749e-002 -5.552147e-001
    outer loop
      vertex -2.207107e+001  4.100000e+002  2.928932e+000
      vertex -2.423880e+001  4.172096e+002  5.708589e+000
      vertex -2.207107e+001  4.167932e+002  2.491186e+000
    endloop
  endfacet
  facet normal -5.547745e-001 -5.350235e-002 -8.302788e-001
    outer loop
      vertex -2.207107e+001  4.100000e+002  2.928932e+000
      vertex -2.207107e+001  4.167932e+002  2.491186e+000
      vertex -1.882683e+001  4.100000e+002  7.612047e-001
    endloop
  endfacet
  facet normal -5.547745e-001 -5.350243e-002 -8.302786e-001
    outer loop
      vertex -1.882683e+001  4.100000e+002  7.612047e-001
      vertex -2.207107e+001  4.167932e+002  2.491186e+000
      vertex -1.882683e+001  4.165150e+002  3.413868e-001
    endloop
  endfacet
  facet normal -1.947019e-001 -6.307510e-002 -9.788324e-001
    outer loop
      vertex -1.882683e+001  4.100000e+002  7.612047e-001
      vertex -1.882683e+001  4.165150e+002  3.413868e-001
      vertex -1.500000e+001  4.100000e+002  0.000000e+000
    endloop
  endfacet
  facet normal -7.924062e-001 -3.269434e-001 -5.149763e-001
    outer loop
      vertex -2.219720e+001  4.400000e+002 -6.238338e+000
      vertex -2.207107e+001  4.360602e+002 -3.931146e+000
      vertex -2.346954e+001  4.400000e+002 -4.280563e+000
    endloop
  endfacet
  facet normal -8.294076e-001 -3.341123e-001 -4.477187e-001
    outer loop
      vertex -2.346954e+001  4.400000e+002 -4.280563e+000
      vertex -2.207107e+001  4.360602e+002 -3.931146e+000
      vertex -2.423880e+001  4.376575e+002 -1.107395e+000
    endloop
  endfacet
  facet normal -9.026625e-001 -2.113684e-001 -3.748654e-001
    outer loop
      vertex -2.346954e+001  4.400000e+002 -4.280563e+000
      vertex -2.423880e+001  4.376575e+002 -1.107395e+000
      vertex -2.437309e+001  4.400000e+002 -2.104854e+000
    endloop
  endfacet
  facet normal -8.309372e-001 -2.422259e-001 -5.008693e-001
    outer loop
      vertex -2.423880e+001  4.311536e+002  2.037950e+000
      vertex -2.423880e+001  4.376575e+002 -1.107395e+000
      vertex -2.207107e+001  4.299319e+002 -9.674573e-001
    endloop
  endfacet
  facet normal -8.309367e-001 -2.422257e-001 -5.008703e-001
    outer loop
      vertex -2.207107e+001  4.299319e+002 -9.674573e-001
      vertex -2.423880e+001  4.376575e+002 -1.107395e+000
      vertex -2.207107e+001  4.360602e+002 -3.931146e+000
    endloop
  endfacet
  facet normal -5.547740e-001 -3.622286e-001 -7.490101e-001
    outer loop
      vertex -2.207107e+001  4.299319e+002 -9.674573e-001
      vertex -2.207107e+001  4.360602e+002 -3.931146e+000
      vertex -1.882683e+001  4.291156e+002 -2.975606e+000
    endloop
  endfacet
  facet normal -5.547757e-001 -3.622292e-001 -7.490087e-001
    outer loop
      vertex -1.882683e+001  4.291156e+002 -2.975606e+000
      vertex -2.207107e+001  4.360602e+002 -3.931146e+000
      vertex -1.882683e+001  4.349929e+002 -5.817916e+000
    endloop
  endfacet
  facet normal -1.754564e-001 -4.286177e-001 -8.862854e-001
    outer loop
      vertex -1.882683e+001  4.291156e+002 -2.975606e+000
      vertex -1.882683e+001  4.349929e+002 -5.817916e+000
      vertex -1.500000e+001  4.332053e+002 -5.711034e+000
    endloop
  endfacet
  facet normal -8.309369e-001 -1.759389e-001 -5.278156e-001
    outer loop
      vertex -2.423880e+001  4.242999e+002  4.322541e+000
      vertex -2.423880e+001  4.311536e+002  2.037950e+000
      vertex -2.207107e+001  4.234740e+002  1.185189e+000
    endloop
  endfacet
  facet normal -8.309371e-001 -1.759390e-001 -5.278152e-001
    outer loop
      vertex -2.207107e+001  4.234740e+002  1.185189e+000
      vertex -2.423880e+001  4.311536e+002  2.037950e+000
      vertex -2.207107e+001  4.299319e+002 -9.674573e-001
    endloop
  endfacet
  facet normal -5.547753e-001 -2.631024e-001 -7.893045e-001
    outer loop
      vertex -2.207107e+001  4.234740e+002  1.185189e+000
      vertex -2.207107e+001  4.299319e+002 -9.674573e-001
      vertex -1.882683e+001  4.229221e+002 -9.111229e-001
    endloop
  endfacet
  facet normal -5.547741e-001 -2.631018e-001 -7.893054e-001
    outer loop
      vertex -1.882683e+001  4.229221e+002 -9.111229e-001
      vertex -2.207107e+001  4.299319e+002 -9.674573e-001
      vertex -1.882683e+001  4.291156e+002 -2.975606e+000
    endloop
  endfacet
  facet normal -1.689907e-001 -3.116797e-001 -9.350390e-001
    outer loop
      vertex -1.882683e+001  4.229221e+002 -9.111229e-001
      vertex -1.882683e+001  4.291156e+002 -2.975606e+000
      vertex -1.500000e+001  4.258114e+002 -2.565835e+000
    endloop
  endfacet
  facet normal -8.309372e-001 -1.067408e-001 -5.460309e-001
    outer loop
      vertex -2.423880e+001  4.172096e+002  5.708589e+000
      vertex -2.423880e+001  4.242999e+002  4.322541e+000
      vertex -2.207107e+001  4.167932e+002  2.491186e+000
    endloop
  endfacet
  facet normal -8.309371e-001 -1.067407e-001 -5.460312e-001
    outer loop
      vertex -2.207107e+001  4.167932e+002  2.491186e+000
      vertex -2.423880e+001  4.242999e+002  4.322541e+000
      vertex -2.207107e+001  4.234740e+002  1.185189e+000
    endloop
  endfacet
  facet normal -5.547748e-001 -1.596220e-001 -8.165450e-001
    outer loop
      vertex -2.207107e+001  4.167932e+002  2.491186e+000
      vertex -2.207107e+001  4.234740e+002  1.185189e+000
      vertex -1.882683e+001  4.165150e+002  3.413868e-001
    endloop
  endfacet
  facet normal -5.547750e-001 -1.596221e-001 -8.165449e-001
    outer loop
      vertex -1.882683e+001  4.165150e+002  3.413868e-001
      vertex -2.207107e+001  4.234740e+002  1.185189e+000
      vertex -1.882683e+001  4.229221e+002 -9.111229e-001
    endloop
  endfacet
  facet normal -1.754550e-001 -1.888773e-001 -9.661992e-001
    outer loop
      vertex -1.882683e+001  4.165150e+002  3.413868e-001
      vertex -1.882683e+001  4.229221e+002 -9.111229e-001
      vertex -1.500000e+001  4.180091e+002 -6.456271e-001
    endloop
  endfacet
  facet normal  0.000000e+000  9.999999e-001  0.000000e+000
    outer loop
      vertex -1.019756e+000  4.300000e+002  1.686151e+001
      vertex  1.019756e+000  4.300000e+002  1.686151e+001
      vertex  0.000000e+000  4.300000e+002  9.350000e+000
    endloop
  endfacet
  facet normal  0.000000e+000  1.000000e+000  0.000000e+000
    outer loop
      vertex -2.669756e+000  4.300000e+002  1.806031e+001
      vertex -1.019756e+000  4.300000e+002  1.686151e+001
      vertex  0.000000e+000  4.300000e+002  9.350000e+000
    endloop
  endfacet
  facet normal  0.000000e+000  1.000000e+000  0.000000e+000
    outer loop
      vertex  2.669756e+000  4.300000e+002  1.806031e+001
      vertex  0.000000e+000  4.300000e+002  9.350000e+000
      vertex  1.019756e+000  4.300000e+002  1.686151e+001
    endloop
  endfacet
  facet normal  0.000000e+000  1.000000e+000  0.000000e+000
    outer loop
      vertex -1.000000e+001  4.300000e+002 -4.174243e+000
      vertex -1.000000e+001  4.300000e+002  2.614208e+001
      vertex -4.350000e+000  4.300000e+002  5.000000e+000
    endloop
  endfacet
  facet normal  0.000000e+000  1.000000e+000  0.000000e+000
    outer loop
      vertex -1.000000e+001  4.300000e+002 -4.174243e+000
      vertex -4.350000e+000  4.300000e+002  5.000000e+000
      vertex -3.767210e+000  4.300000e+002  2.825000e+000
    endloop
  endfacet
  facet normal  0.000000e+000  1.000000e+000  0.000000e+000
    outer loop
      vertex -1.000000e+001  4.300000e+002 -4.174243e+000
      vertex -3.767210e+000  4.300000e+002  2.825000e+000
      vertex -2.175000e+000  4.300000e+002  1.232790e+000
    endloop
  endfacet
  facet normal  0.000000e+000  1.000000e+000  0.000000e+000
    outer loop
      vertex -1.000000e+001  4.300000e+002 -4.174243e+000
      vertex -2.175000e+000  4.300000e+002  1.232790e+000
      vertex  1.776357e-015  4.300000e+002  6.500000e-001
    endloop
  endfacet
  facet normal  0.000000e+000  1.000000e+000  0.000000e+000
    outer loop
      vertex -1.000000e+001  4.300000e+002 -4.174243e+000
      vertex  1.776357e-015  4.300000e+002  6.500000e-001
      vertex  1.000000e+001  4.300000e+002 -4.174243e+000
    endloop
  endfacet
  facet normal  0.000000e+000  9.999999e-001  0.000000e+000
    outer loop
      vertex -1.000000e+001  4.300000e+002  2.614208e+001
      vertex -1.019756e+000  4.300000e+002  2.313849e+001
      vertex -2.669756e+000  4.300000e+002  2.193969e+001
    endloop
  endfacet
  facet normal  0.000000e+000  1.000000e+000  0.000000e+000
    outer loop
      vertex -1.000000e+001  4.300000e+002  2.614208e+001
      vertex -2.669756e+000  4.300000e+002  2.193969e+001
      vertex -3.300000e+000  4.300000e+002  2.000000e+001
    endloop
  endfacet
  facet normal  0.000000e+000  1.000000e+000  0.000000e+000
    outer loop
      vertex -1.000000e+001  4.300000e+002  2.614208e+001
      vertex -3.300000e+000  4.300000e+002  2.000000e+001
      vertex -2.669756e+000  4.300000e+002  1.806031e+001
    endloop
  endfacet
  facet normal  0.000000e+000  9.999999e-001  0.000000e+000
    outer loop
      vertex -1.000000e+001  4.300000e+002  2.614208e+001
      vertex -2.669756e+000  4.300000e+002  1.806031e+001
      vertex  0.000000e+000  4.300000e+002  9.350000e+000
    endloop
  endfacet
  facet normal  0.000000e+000  1.000000e+000  0.000000e+000
    outer loop
      vertex -1.000000e+001  4.300000e+002  2.614208e+001
      vertex  0.000000e+000  4.300000e+002  9.350000e+000
      vertex -2.175000e+000  4.300000e+002  8.767211e+000
    endloop
  endfacet
  facet normal  0.000000e+000  1.000000e+000  0.000000e+000
    outer loop
      vertex -1.000000e+001  4.300000e+002  2.614208e+001
      vertex -2.175000e+000  4.300000e+002  8.767211e+000
      vertex -3.767210e+000  4.300000e+002  7.175000e+000
    endloop
  endfacet
  facet normal  0.000000e+000  1.000000e+000  0.000000e+000
    outer loop
      vertex -1.000000e+001  4.300000e+002  2.614208e+001
      vertex -3.767210e+000  4.300000e+002  7.175000e+000
      vertex -4.350000e+000  4.300000e+002  5.000000e+000
    endloop
  endfacet
  facet normal  0.000000e+000  1.000000e+000  -0.000000e+000
    outer loop
      vertex  1.000000e+001  4.300000e+002  2.614208e+001
      vertex  4.350000e+000  4.300000e+002  5.000000e+000
      vertex  3.767210e+000  4.300000e+002  7.175000e+000
    endloop
  endfacet
  facet normal  0.000000e+000  1.000000e+000  -0.000000e+000
    outer loop
      vertex  1.000000e+001  4.300000e+002  2.614208e+001
      vertex  3.767210e+000  4.300000e+002  7.175000e+000
      vertex  2.175000e+000  4.300000e+002  8.767211e+000
    endloop
  endfacet
  facet normal  0.000000e+000  1.000000e+000  -0.000000e+000
    outer loop
      vertex  1.000000e+001  4.300000e+002  2.614208e+001
      vertex  2.175000e+000  4.300000e+002  8.767211e+000
      vertex  0.000000e+000  4.300000e+002  9.350000e+000
    endloop
  endfacet
  facet normal  0.000000e+000  1.000000e+000  0.000000e+000
    outer loop
      vertex  1.000000e+001  4.300000e+002  2.614208e+001
      vertex  0.000000e+000  4.300000e+002  9.350000e+000
      vertex  2.669756e+000  4.300000e+002  1.806031e+001
    endloop
  endfacet
  facet normal  0.000000e+000  1.000000e+000  0.000000e+000
    outer loop
      vertex  1.000000e+001  4.300000e+002  2.614208e+001
      vertex  2.669756e+000  4.300000e+002  1.806031e+001
      vertex  3.300000e+000  4.300000e+002  2.000000e+001
    endloop
  endfacet
  facet normal  0.000000e+000  1.000000e+000  -0.000000e+000
    outer loop
      vertex  1.000000e+001  4.300000e+002  2.614208e+001
      vertex  3.300000e+000  4.300000e+002  2.000000e+001
      vertex  2.669756e+000  4.300000e+002  2.193969e+001
    endloop
  endfacet
  facet normal  0.000000e+000  1.000000e+000  -0.000000e+000
    outer loop
      vertex  1.000000e+001  4.300000e+002  2.614208e+001
      vertex  2.669756e+000  4.300000e+002  2.193969e+001
      vertex  1.019756e+000  4.300000e+002  2.313849e+001
    endloop
  endfacet
  facet normal  -0.000000e+000  1.000000e+000  0.000000e+000
    outer loop
      vertex  1.000000e+001  4.300000e+002 -4.174243e+000
      vertex  1.776357e-015  4.300000e+002  6.500000e-001
      vertex  2.175000e+000  4.300000e+002  1.232790e+000
    endloop
  endfacet
  facet normal  -0.000000e+000  1.000000e+000  0.000000e+000
    outer loop
      vertex  1.000000e+001  4.300000e+002 -4.174243e+000
      vertex  2.175000e+000  4.300000e+002  1.232790e+000
      vertex  3.767210e+000  4.300000e+002  2.825000e+000
    endloop
  endfacet
  facet normal  -0.000000e+000  1.000000e+000  0.000000e+000
    outer loop
      vertex  1.000000e+001  4.300000e+002 -4.174243e+000
      vertex  3.767210e+000  4.300000e+002  2.825000e+000
      vertex  4.350000e+000  4.300000e+002  5.000000e+000
    endloop
  endfacet
  facet normal  -0.000000e+000  1.000000e+000  0.000000e+000
    outer loop
      vertex  1.000000e+001  4.300000e+002 -4.174243e+000
      vertex  4.350000e+000  4.300000e+002  5.000000e+000
      vertex  1.000000e+001  4.300000e+002  2.614208e+001
    endloop
  endfacet
  facet normal  0.000000e+000  1.000000e+000  0.000000e+000
    outer loop
      vertex  3.369609e+000  4.300000e+002  2.734830e+001
      vertex  1.000000e+001  4.300000e+002  2.614208e+001
      vertex -3.369609e+000  4.300000e+002  2.734830e+001
    endloop
  endfacet
  facet normal  0.000000e+000  1.000000e+000  0.000000e+000
    outer loop
      vertex -3.369609e+000  4.300000e+002  2.734830e+001
      vertex  1.000000e+001  4.300000e+002  2.614208e+001
      vertex  1.019756e+000  4.300000e+002  2.313849e+001
    endloop
  endfacet
  facet normal  0.000000e+000  1.000000e+000  0.000000e+000
    outer loop
      vertex -3.369609e+000  4.300000e+002  2.734830e+001
      vertex  1.019756e+000  4.300000e+002  2.313849e+001
      vertex -1.000000e+001  4.300000e+002  2.614208e+001
    endloop
  endfacet
  facet normal  0.000000e+000  1.000000e+000  0.000000e+000
    outer loop
      vertex -1.000000e+001  4.300000e+002  2.614208e+001
      vertex  1.019756e+000  4.300000e+002  2.313849e+001
      vertex -1.019756e+000  4.300000e+002  2.313849e+001
    endloop
  endfacet
  facet normal -1.000000e+000  0.000000e+000  0.000000e+000
    outer loop
      vertex  1.000000e+001  4.400000e+002  2.614208e+001
      vertex  1.000000e+001  4.400000e+002 -1.000000e+001
      vertex  1.000000e+001  4.300000e+002  2.614208e+001
    endloop
  endfacet
  facet normal -1.000000e+000  0.000000e+000  0.000000e+000
    outer loop
      vertex  1.000000e+001  4.300000e+002  2.614208e+001
      vertex  1.000000e+001  4.400000e+002 -1.000000e+001
      vertex  1.000000e+001  4.351691e+002 -6.796816e+000
    endloop
  endfacet
  facet normal -1.000000e+000  0.000000e+000  0.000000e+000
    outer loop
      vertex  1.000000e+001  4.300000e+002  2.614208e+001
      vertex  1.000000e+001  4.351691e+002 -6.796816e+000
      vertex  1.000000e+001  4.300000e+002 -4.174243e+000
    endloop
  endfacet
  facet normal  0.000000e+000  1.000000e+000  -0.000000e+000
    outer loop
      vertex  2.500000e+001  4.400000e+002  1.961524e+000
      vertex  2.437309e+001  4.400000e+002 -2.104854e+000
      vertex  2.346954e+001  4.400000e+002 -4.280563e+000
    endloop
  endfacet
  facet normal  0.000000e+000  1.000000e+000  -0.000000e+000
    outer loop
      vertex  2.500000e+001  4.400000e+002  1.961524e+000
      vertex  2.346954e+001  4.400000e+002 -4.280563e+000
      vertex  2.219720e+001  4.400000e+002 -6.238338e+000
    endloop
  endfacet
  facet normal  0.000000e+000  1.000000e+000  -0.000000e+000
    outer loop
      vertex  2.500000e+001  4.400000e+002  1.961524e+000
      vertex  2.219720e+001  4.400000e+002 -6.238338e+000
      vertex  2.056376e+001  4.400000e+002 -7.905725e+000
    endloop
  endfacet
  facet normal  0.000000e+000  1.000000e+000  -0.000000e+000
    outer loop
      vertex  2.500000e+001  4.400000e+002  1.961524e+000
      vertex  2.056376e+001  4.400000e+002 -7.905725e+000
      vertex  1.827147e+001  4.400000e+002 -9.314262e+000
    endloop
  endfacet
  facet normal  0.000000e+000  1.000000e+000  -0.000000e+000
    outer loop
      vertex  2.500000e+001  4.400000e+002  1.961524e+000
      vertex  1.827147e+001  4.400000e+002 -9.314262e+000
      vertex  1.500000e+001  4.400000e+002 -1.000000e+001
    endloop
  endfacet
  facet normal  0.000000e+000  9.999999e-001  -0.000000e+000
    outer loop
      vertex  2.500000e+001  4.400000e+002  1.961524e+000
      vertex  1.500000e+001  4.400000e+002 -1.000000e+001
      vertex  1.000000e+001  4.400000e+002 -1.000000e+001
    endloop
  endfacet
  facet normal  0.000000e+000  1.000000e+000  0.000000e+000
    outer loop
      vertex  2.500000e+001  4.400000e+002  1.961524e+000
      vertex  1.000000e+001  4.400000e+002 -1.000000e+001
      vertex  1.000000e+001  4.400000e+002  2.614208e+001
    endloop
  endfacet
  facet normal  0.000000e+000  9.999999e-001  0.000000e+000
    outer loop
      vertex  2.500000e+001  4.400000e+002  1.961524e+000
      vertex  1.000000e+001  4.400000e+002  2.614208e+001
      vertex  2.500000e+001  4.400000e+002  1.795085e+001
    endloop
  endfacet
  facet normal  0.000000e+000  1.000000e+000  0.000000e+000
    outer loop
      vertex  1.000000e+001  4.400000e+002  2.614208e+001
      vertex  1.540043e+001  4.400000e+002  2.419176e+001
      vertex  2.500000e+001  4.400000e+002  1.795085e+001
    endloop
  endfacet
  facet normal  0.000000e+000  1.000000e+000  0.000000e+000
    outer loop
      vertex  2.500000e+001  4.400000e+002  1.795085e+001
      vertex  1.540043e+001  4.400000e+002  2.419176e+001
      vertex  2.043981e+001  4.400000e+002  2.143985e+001
    endloop
  endfacet
  facet normal  -0.000000e+000  1.000000e+000  0.000000e+000
    outer loop
      vertex -2.500000e+001  4.400000e+002  1.961524e+000
      vertex -2.500000e+001  4.400000e+002  1.795085e+001
      vertex -1.000000e+001  4.400000e+002  2.614208e+001
    endloop
  endfacet
  facet normal  0.000000e+000  1.000000e+000  0.000000e+000
    outer loop
      vertex -2.500000e+001  4.400000e+002  1.961524e+000
      vertex -1.000000e+001  4.400000e+002  2.614208e+001
      vertex -1.000000e+001  4.400000e+002 -1.000000e+001
    endloop
  endfacet
  facet normal  0.000000e+000  9.999999e-001  0.000000e+000
    outer loop
      vertex -2.500000e+001  4.400000e+002  1.961524e+000
      vertex -1.000000e+001  4.400000e+002 -1.000000e+001
      vertex -1.500000e+001  4.400000e+002 -1.000000e+001
    endloop
  endfacet
  facet normal  0.000000e+000  1.000000e+000  0.000000e+000
    outer loop
      vertex -2.500000e+001  4.400000e+002  1.961524e+000
      vertex -1.500000e+001  4.400000e+002 -1.000000e+001
      vertex -1.827147e+001  4.400000e+002 -9.314262e+000
    endloop
  endfacet
  facet normal  0.000000e+000  1.000000e+000  0.000000e+000
    outer loop
      vertex -2.500000e+001  4.400000e+002  1.961524e+000
      vertex -1.827147e+001  4.400000e+002 -9.314262e+000
      vertex -2.056376e+001  4.400000e+002 -7.905725e+000
    endloop
  endfacet
  facet normal  0.000000e+000  1.000000e+000  0.000000e+000
    outer loop
      vertex -2.500000e+001  4.400000e+002  1.961524e+000
      vertex -2.056376e+001  4.400000e+002 -7.905725e+000
      vertex -2.219720e+001  4.400000e+002 -6.238338e+000
    endloop
  endfacet
  facet normal  0.000000e+000  1.000000e+000  0.000000e+000
    outer loop
      vertex -2.500000e+001  4.400000e+002  1.961524e+000
      vertex -2.219720e+001  4.400000e+002 -6.238338e+000
      vertex -2.346954e+001  4.400000e+002 -4.280563e+000
    endloop
  endfacet
  facet normal  0.000000e+000  1.000000e+000  0.000000e+000
    outer loop
      vertex -2.500000e+001  4.400000e+002  1.961524e+000
      vertex -2.346954e+001  4.400000e+002 -4.280563e+000
      vertex -2.437309e+001  4.400000e+002 -2.104854e+000
    endloop
  endfacet
  facet normal  0.000000e+000  1.000000e+000  0.000000e+000
    outer loop
      vertex -2.043981e+001  4.400000e+002  2.143985e+001
      vertex -1.540043e+001  4.400000e+002  2.419176e+001
      vertex -2.500000e+001  4.400000e+002  1.795085e+001
    endloop
  endfacet
  facet normal  0.000000e+000  1.000000e+000  0.000000e+000
    outer loop
      vertex -2.500000e+001  4.400000e+002  1.795085e+001
      vertex -1.540043e+001  4.400000e+002  2.419176e+001
      vertex -1.000000e+001  4.400000e+002  2.614208e+001
    endloop
  endfacet
  facet normal  1.000000e+000  0.000000e+000  0.000000e+000
    outer loop
      vertex -1.000000e+001  4.300000e+002  2.614208e+001
      vertex -1.000000e+001  4.300000e+002 -4.174243e+000
      vertex -1.000000e+001  4.400000e+002  2.614208e+001
    endloop
  endfacet
  facet normal  1.000000e+000  0.000000e+000  0.000000e+000
    outer loop
      vertex -1.000000e+001  4.400000e+002  2.614208e+001
      vertex -1.000000e+001  4.300000e+002 -4.174243e+000
      vertex -1.000000e+001  4.351691e+002 -6.796816e+000
    endloop
  endfacet
  facet normal  1.000000e+000  -0.000000e+000  0.000000e+000
    outer loop
      vertex -1.000000e+001  4.400000e+002  2.614208e+001
      vertex -1.000000e+001  4.351691e+002 -6.796816e+000
      vertex -1.000000e+001  4.400000e+002 -1.000000e+001
    endloop
  endfacet
endsolid CATIA STL
