solid CATIA STL
  facet normal  0.000000e+000  0.000000e+000  1.000000e+000
    outer loop
      vertex -1.060660e+000  1.060661e+000  4.000000e+001
      vertex  1.060660e+000  1.060660e+000  4.000000e+001
      vertex  5.730307e-007  1.500000e+000  4.000000e+001
    endloop
  endfacet
  facet normal  0.000000e+000  0.000000e+000  1.000000e+000
    outer loop
      vertex  1.060660e+000  1.060660e+000  4.000000e+001
      vertex -1.060660e+000  1.060661e+000  4.000000e+001
      vertex  1.500000e+000 -4.784042e-016  4.000000e+001
    endloop
  endfacet
  facet normal  0.000000e+000  0.000000e+000  9.999999e-001
    outer loop
      vertex  1.500000e+000 -4.784042e-016  4.000000e+001
      vertex -1.060660e+000  1.060661e+000  4.000000e+001
      vertex -1.500000e+000  1.146061e-006  4.000000e+001
    endloop
  endfacet
  facet normal  0.000000e+000  0.000000e+000  1.000000e+000
    outer loop
      vertex  1.500000e+000 -4.784042e-016  4.000000e+001
      vertex -1.500000e+000  1.146061e-006  4.000000e+001
      vertex  1.060660e+000 -1.060660e+000  4.000000e+001
    endloop
  endfacet
  facet normal  0.000000e+000  0.000000e+000  1.000000e+000
    outer loop
      vertex  1.060660e+000 -1.060660e+000  4.000000e+001
      vertex -1.500000e+000  1.146061e-006  4.000000e+001
      vertex -1.060660e+000 -1.060660e+000  4.000000e+001
    endloop
  endfacet
  facet normal  -0.000000e+000  0.000000e+000  1.000000e+000
    outer loop
      vertex  1.060660e+000 -1.060660e+000  4.000000e+001
      vertex -1.060660e+000 -1.060660e+000  4.000000e+001
      vertex -1.645141e-016 -1.500000e+000  4.000000e+001
    endloop
  endfacet
  facet normal  9.749280e-001 -2.225209e-001 -5.561877e-017
    outer loop
      vertex  7.500000e+000  0.000000e+000  0.000000e+000
      vertex  7.500000e+000 -8.498248e-015  3.400000e+001
      vertex  6.757267e+000 -3.254128e+000  0.000000e+000
    endloop
  endfacet
  facet normal  9.749280e-001 -2.225209e-001  0.000000e+000
    outer loop
      vertex  6.757267e+000 -3.254128e+000  0.000000e+000
      vertex  7.500000e+000 -8.498248e-015  3.400000e+001
      vertex  6.757267e+000 -3.254128e+000  3.400000e+001
    endloop
  endfacet
  facet normal  7.818316e-001 -6.234898e-001  0.000000e+000
    outer loop
      vertex  6.757267e+000 -3.254128e+000  0.000000e+000
      vertex  6.757267e+000 -3.254128e+000  3.400000e+001
      vertex  4.676174e+000 -5.863736e+000  0.000000e+000
    endloop
  endfacet
  facet normal  7.818316e-001 -6.234898e-001  0.000000e+000
    outer loop
      vertex  4.676174e+000 -5.863736e+000  0.000000e+000
      vertex  6.757267e+000 -3.254128e+000  3.400000e+001
      vertex  4.676174e+000 -5.863736e+000  3.400000e+001
    endloop
  endfacet
  facet normal  4.338837e-001 -9.009688e-001  0.000000e+000
    outer loop
      vertex  4.676174e+000 -5.863736e+000  0.000000e+000
      vertex  4.676174e+000 -5.863736e+000  3.400000e+001
      vertex  1.668907e+000 -7.311959e+000  0.000000e+000
    endloop
  endfacet
  facet normal  4.338837e-001 -9.009688e-001  0.000000e+000
    outer loop
      vertex  1.668907e+000 -7.311959e+000  0.000000e+000
      vertex  4.676174e+000 -5.863736e+000  3.400000e+001
      vertex  1.668907e+000 -7.311959e+000  3.400000e+001
    endloop
  endfacet
  facet normal  0.000000e+000 -1.000000e+000  -0.000000e+000
    outer loop
      vertex  1.668907e+000 -7.311959e+000  0.000000e+000
      vertex  1.668907e+000 -7.311959e+000  3.400000e+001
      vertex -1.668907e+000 -7.311959e+000  0.000000e+000
    endloop
  endfacet
  facet normal  0.000000e+000 -1.000000e+000  0.000000e+000
    outer loop
      vertex -1.668907e+000 -7.311959e+000  0.000000e+000
      vertex  1.668907e+000 -7.311959e+000  3.400000e+001
      vertex -1.668907e+000 -7.311959e+000  3.400000e+001
    endloop
  endfacet
  facet normal -4.338837e-001 -9.009688e-001  -0.000000e+000
    outer loop
      vertex -1.668907e+000 -7.311959e+000  0.000000e+000
      vertex -1.668907e+000 -7.311959e+000  3.400000e+001
      vertex -4.676174e+000 -5.863736e+000  0.000000e+000
    endloop
  endfacet
  facet normal -4.338837e-001 -9.009688e-001  0.000000e+000
    outer loop
      vertex -4.676174e+000 -5.863736e+000  0.000000e+000
      vertex -1.668907e+000 -7.311959e+000  3.400000e+001
      vertex -4.676174e+000 -5.863736e+000  3.400000e+001
    endloop
  endfacet
  facet normal -7.818316e-001 -6.234898e-001  -0.000000e+000
    outer loop
      vertex -4.676174e+000 -5.863736e+000  0.000000e+000
      vertex -4.676174e+000 -5.863736e+000  3.400000e+001
      vertex -6.757267e+000 -3.254128e+000  0.000000e+000
    endloop
  endfacet
  facet normal -7.818316e-001 -6.234898e-001  0.000000e+000
    outer loop
      vertex -6.757267e+000 -3.254128e+000  0.000000e+000
      vertex -4.676174e+000 -5.863736e+000  3.400000e+001
      vertex -6.757267e+000 -3.254128e+000  3.400000e+001
    endloop
  endfacet
  facet normal -9.749280e-001 -2.225209e-001  -0.000000e+000
    outer loop
      vertex -6.757267e+000 -3.254128e+000  0.000000e+000
      vertex -6.757267e+000 -3.254128e+000  3.400000e+001
      vertex -7.500000e+000  4.249124e-015  0.000000e+000
    endloop
  endfacet
  facet normal -9.749280e-001 -2.225209e-001  0.000000e+000
    outer loop
      vertex -7.500000e+000  4.249124e-015  0.000000e+000
      vertex -6.757267e+000 -3.254128e+000  3.400000e+001
      vertex -7.500000e+000  4.249124e-015  3.400000e+001
    endloop
  endfacet
  facet normal -9.749280e-001  2.225209e-001  0.000000e+000
    outer loop
      vertex -7.500000e+000  4.249124e-015  0.000000e+000
      vertex -7.500000e+000  4.249124e-015  3.400000e+001
      vertex -6.757267e+000  3.254128e+000  0.000000e+000
    endloop
  endfacet
  facet normal -9.749280e-001  2.225209e-001  0.000000e+000
    outer loop
      vertex -6.757267e+000  3.254128e+000  0.000000e+000
      vertex -7.500000e+000  4.249124e-015  3.400000e+001
      vertex -6.757267e+000  3.254128e+000  3.400000e+001
    endloop
  endfacet
  facet normal -7.818316e-001  6.234898e-001  0.000000e+000
    outer loop
      vertex -6.757267e+000  3.254128e+000  0.000000e+000
      vertex -6.757267e+000  3.254128e+000  3.400000e+001
      vertex -4.676174e+000  5.863736e+000  0.000000e+000
    endloop
  endfacet
  facet normal -7.818316e-001  6.234898e-001  0.000000e+000
    outer loop
      vertex -4.676174e+000  5.863736e+000  0.000000e+000
      vertex -6.757267e+000  3.254128e+000  3.400000e+001
      vertex -4.676174e+000  5.863736e+000  3.400000e+001
    endloop
  endfacet
  facet normal -4.338837e-001  9.009688e-001  0.000000e+000
    outer loop
      vertex -4.676174e+000  5.863736e+000  0.000000e+000
      vertex -4.676174e+000  5.863736e+000  3.400000e+001
      vertex -1.668907e+000  7.311959e+000  0.000000e+000
    endloop
  endfacet
  facet normal -4.338837e-001  9.009688e-001  0.000000e+000
    outer loop
      vertex -1.668907e+000  7.311959e+000  0.000000e+000
      vertex -4.676174e+000  5.863736e+000  3.400000e+001
      vertex -1.668907e+000  7.311959e+000  3.400000e+001
    endloop
  endfacet
  facet normal  0.000000e+000  1.000000e+000  0.000000e+000
    outer loop
      vertex -1.668907e+000  7.311959e+000  0.000000e+000
      vertex -1.668907e+000  7.311959e+000  3.400000e+001
      vertex  1.668907e+000  7.311959e+000  0.000000e+000
    endloop
  endfacet
  facet normal  0.000000e+000  1.000000e+000  -0.000000e+000
    outer loop
      vertex  1.668907e+000  7.311959e+000  0.000000e+000
      vertex -1.668907e+000  7.311959e+000  3.400000e+001
      vertex  1.668907e+000  7.311959e+000  3.400000e+001
    endloop
  endfacet
  facet normal  4.338837e-001  9.009688e-001  0.000000e+000
    outer loop
      vertex  1.668907e+000  7.311959e+000  0.000000e+000
      vertex  1.668907e+000  7.311959e+000  3.400000e+001
      vertex  4.676174e+000  5.863736e+000  0.000000e+000
    endloop
  endfacet
  facet normal  4.338837e-001  9.009688e-001  -0.000000e+000
    outer loop
      vertex  4.676174e+000  5.863736e+000  0.000000e+000
      vertex  1.668907e+000  7.311959e+000  3.400000e+001
      vertex  4.676174e+000  5.863736e+000  3.400000e+001
    endloop
  endfacet
  facet normal  7.818316e-001  6.234898e-001  0.000000e+000
    outer loop
      vertex  4.676174e+000  5.863736e+000  0.000000e+000
      vertex  4.676174e+000  5.863736e+000  3.400000e+001
      vertex  6.757267e+000  3.254128e+000  0.000000e+000
    endloop
  endfacet
  facet normal  7.818316e-001  6.234898e-001  -0.000000e+000
    outer loop
      vertex  6.757267e+000  3.254128e+000  0.000000e+000
      vertex  4.676174e+000  5.863736e+000  3.400000e+001
      vertex  6.757267e+000  3.254128e+000  3.400000e+001
    endloop
  endfacet
  facet normal  9.749280e-001  2.225209e-001  0.000000e+000
    outer loop
      vertex  6.757267e+000  3.254128e+000  0.000000e+000
      vertex  6.757267e+000  3.254128e+000  3.400000e+001
      vertex  7.500000e+000  0.000000e+000  0.000000e+000
    endloop
  endfacet
  facet normal  9.749280e-001  2.225209e-001  5.561877e-017
    outer loop
      vertex  7.500000e+000  0.000000e+000  0.000000e+000
      vertex  6.757267e+000  3.254128e+000  3.400000e+001
      vertex  7.500000e+000 -8.498248e-015  3.400000e+001
    endloop
  endfacet
  facet normal  1.724168e-001 -7.141738e-002  9.824317e-001
    outer loop
      vertex  1.500000e+000 -4.784042e-016  4.000000e+001
      vertex  1.060660e+000 -1.060660e+000  4.000000e+001
      vertex  3.420168e+000 -1.647066e+000  3.954328e+001
    endloop
  endfacet
  facet normal -1.724168e-001 -7.141730e-002  9.824317e-001
    outer loop
      vertex -1.500000e+000  1.146061e-006  4.000000e+001
      vertex -3.420168e+000 -1.647066e+000  3.954328e+001
      vertex -1.060660e+000 -1.060660e+000  4.000000e+001
    endloop
  endfacet
  facet normal -7.281001e-002 -1.757789e-001  9.817334e-001
    outer loop
      vertex -8.447118e-001 -3.700924e+000  3.954328e+001
      vertex -1.645141e-016 -1.500000e+000  4.000000e+001
      vertex -1.060660e+000 -1.060660e+000  4.000000e+001
    endloop
  endfacet
  facet normal  7.574207e-002 -1.828575e-001  9.802175e-001
    outer loop
      vertex  2.366830e+000 -2.967911e+000  3.954328e+001
      vertex  1.060660e+000 -1.060660e+000  4.000000e+001
      vertex -1.645141e-016 -1.500000e+000  4.000000e+001
    endloop
  endfacet
  facet normal  9.570972e-001 -2.184512e-001  1.903784e-001
    outer loop
      vertex  6.757267e+000 -3.254128e+000  3.400000e+001
      vertex  7.500000e+000 -8.498248e-015  3.400000e+001
      vertex  6.345774e+000 -3.055964e+000  3.629610e+001
    endloop
  endfacet
  facet normal  9.570972e-001 -2.184512e-001  1.903784e-001
    outer loop
      vertex  6.345774e+000 -3.055964e+000  3.629610e+001
      vertex  7.500000e+000 -8.498248e-015  3.400000e+001
      vertex  7.043277e+000  8.881784e-016  3.629610e+001
    endloop
  endfacet
  facet normal  8.168895e-001 -1.864496e-001  5.458279e-001
    outer loop
      vertex  6.345774e+000 -3.055964e+000  3.629610e+001
      vertex  7.043277e+000  8.881784e-016  3.629610e+001
      vertex  5.173941e+000 -2.491638e+000  3.824264e+001
    endloop
  endfacet
  facet normal  8.168895e-001 -1.864496e-001  5.458280e-001
    outer loop
      vertex  5.173941e+000 -2.491638e+000  3.824264e+001
      vertex  7.043277e+000  8.881784e-016  3.629610e+001
      vertex  5.742640e+000  0.000000e+000  3.824264e+001
    endloop
  endfacet
  facet normal  5.511566e-001 -1.257978e-001  8.248644e-001
    outer loop
      vertex  5.173941e+000 -2.491638e+000  3.824264e+001
      vertex  5.742640e+000  0.000000e+000  3.824264e+001
      vertex  3.420168e+000 -1.647066e+000  3.954328e+001
    endloop
  endfacet
  facet normal  5.511567e-001 -1.257979e-001  8.248644e-001
    outer loop
      vertex  3.420168e+000 -1.647066e+000  3.954328e+001
      vertex  5.742640e+000  0.000000e+000  3.824264e+001
      vertex  3.796101e+000  2.220446e-016  3.954328e+001
    endloop
  endfacet
  facet normal  1.948970e-001 -4.448397e-002  9.798144e-001
    outer loop
      vertex  3.420168e+000 -1.647066e+000  3.954328e+001
      vertex  3.796101e+000  2.220446e-016  3.954328e+001
      vertex  1.500000e+000 -4.784042e-016  4.000000e+001
    endloop
  endfacet
  facet normal -9.570972e-001 -2.184512e-001  1.903784e-001
    outer loop
      vertex -7.500000e+000  4.249124e-015  3.400000e+001
      vertex -6.757267e+000 -3.254128e+000  3.400000e+001
      vertex -7.043277e+000  5.329071e-015  3.629610e+001
    endloop
  endfacet
  facet normal -9.570972e-001 -2.184512e-001  1.903784e-001
    outer loop
      vertex -7.043277e+000  5.329071e-015  3.629610e+001
      vertex -6.757267e+000 -3.254128e+000  3.400000e+001
      vertex -6.345774e+000 -3.055964e+000  3.629610e+001
    endloop
  endfacet
  facet normal -8.168895e-001 -1.864496e-001  5.458280e-001
    outer loop
      vertex -7.043277e+000  5.329071e-015  3.629610e+001
      vertex -6.345774e+000 -3.055964e+000  3.629610e+001
      vertex -5.742640e+000  4.884981e-015  3.824264e+001
    endloop
  endfacet
  facet normal -8.168895e-001 -1.864496e-001  5.458279e-001
    outer loop
      vertex -5.742640e+000  4.884981e-015  3.824264e+001
      vertex -6.345774e+000 -3.055964e+000  3.629610e+001
      vertex -5.173941e+000 -2.491638e+000  3.824264e+001
    endloop
  endfacet
  facet normal -5.511567e-001 -1.257978e-001  8.248643e-001
    outer loop
      vertex -5.742640e+000  4.884981e-015  3.824264e+001
      vertex -5.173941e+000 -2.491638e+000  3.824264e+001
      vertex -3.796101e+000  3.108624e-015  3.954328e+001
    endloop
  endfacet
  facet normal -5.511566e-001 -1.257979e-001  8.248643e-001
    outer loop
      vertex -3.796101e+000  3.108624e-015  3.954328e+001
      vertex -5.173941e+000 -2.491638e+000  3.824264e+001
      vertex -3.420168e+000 -1.647066e+000  3.954328e+001
    endloop
  endfacet
  facet normal -1.948970e-001 -4.448397e-002  9.798144e-001
    outer loop
      vertex -3.796101e+000  3.108624e-015  3.954328e+001
      vertex -3.420168e+000 -1.647066e+000  3.954328e+001
      vertex -1.500000e+000  1.146061e-006  4.000000e+001
    endloop
  endfacet
  facet normal -7.675324e-001 -6.120866e-001  1.903784e-001
    outer loop
      vertex -6.757267e+000 -3.254128e+000  3.400000e+001
      vertex -4.676174e+000 -5.863736e+000  3.400000e+001
      vertex -6.345774e+000 -3.055964e+000  3.629610e+001
    endloop
  endfacet
  facet normal -7.675323e-001 -6.120868e-001  1.903787e-001
    outer loop
      vertex -6.345774e+000 -3.055964e+000  3.629610e+001
      vertex -4.676174e+000 -5.863736e+000  3.400000e+001
      vertex -4.391411e+000 -5.506656e+000  3.629610e+001
    endloop
  endfacet
  facet normal -6.550944e-001 -5.224205e-001  5.458279e-001
    outer loop
      vertex -6.345774e+000 -3.055964e+000  3.629610e+001
      vertex -4.391411e+000 -5.506656e+000  3.629610e+001
      vertex -5.173941e+000 -2.491638e+000  3.824264e+001
    endloop
  endfacet
  facet normal -6.550944e-001 -5.224205e-001  5.458279e-001
    outer loop
      vertex -5.173941e+000 -2.491638e+000  3.824264e+001
      vertex -4.391411e+000 -5.506656e+000  3.629610e+001
      vertex -3.580478e+000 -4.489777e+000  3.824264e+001
    endloop
  endfacet
  facet normal -4.419933e-001 -3.524779e-001  8.248644e-001
    outer loop
      vertex -5.173941e+000 -2.491638e+000  3.824264e+001
      vertex -3.580478e+000 -4.489777e+000  3.824264e+001
      vertex -3.420168e+000 -1.647066e+000  3.954328e+001
    endloop
  endfacet
  facet normal -4.419934e-001 -3.524779e-001  8.248643e-001
    outer loop
      vertex -3.420168e+000 -1.647066e+000  3.954328e+001
      vertex -3.580478e+000 -4.489777e+000  3.824264e+001
      vertex -2.366830e+000 -2.967911e+000  3.954328e+001
    endloop
  endfacet
  facet normal -1.582065e-001 -1.261655e-001  9.793125e-001
    outer loop
      vertex -3.420168e+000 -1.647066e+000  3.954328e+001
      vertex -2.366830e+000 -2.967911e+000  3.954328e+001
      vertex -1.060660e+000 -1.060660e+000  4.000000e+001
    endloop
  endfacet
  facet normal -4.259483e-001 -8.844908e-001  1.903786e-001
    outer loop
      vertex -4.676174e+000 -5.863736e+000  3.400000e+001
      vertex -1.668907e+000 -7.311959e+000  3.400000e+001
      vertex -4.391411e+000 -5.506656e+000  3.629610e+001
    endloop
  endfacet
  facet normal -4.259484e-001 -8.844908e-001  1.903786e-001
    outer loop
      vertex -4.391411e+000 -5.506656e+000  3.629610e+001
      vertex -1.668907e+000 -7.311959e+000  3.400000e+001
      vertex -1.567277e+000 -6.866687e+000  3.629610e+001
    endloop
  endfacet
  facet normal -3.635500e-001 -7.549194e-001  5.458279e-001
    outer loop
      vertex -4.391411e+000 -5.506656e+000  3.629610e+001
      vertex -1.567277e+000 -6.866687e+000  3.629610e+001
      vertex -3.580478e+000 -4.489777e+000  3.824264e+001
    endloop
  endfacet
  facet normal -3.635500e-001 -7.549194e-001  5.458279e-001
    outer loop
      vertex -3.580478e+000 -4.489777e+000  3.824264e+001
      vertex -1.567277e+000 -6.866687e+000  3.629610e+001
      vertex -1.277858e+000 -5.598660e+000  3.824264e+001
    endloop
  endfacet
  facet normal -2.452878e-001 -5.093454e-001  8.248643e-001
    outer loop
      vertex -3.580478e+000 -4.489777e+000  3.824264e+001
      vertex -1.277858e+000 -5.598660e+000  3.824264e+001
      vertex -2.366830e+000 -2.967911e+000  3.954328e+001
    endloop
  endfacet
  facet normal -2.452877e-001 -5.093454e-001  8.248643e-001
    outer loop
      vertex -2.366830e+000 -2.967911e+000  3.954328e+001
      vertex -1.277858e+000 -5.598660e+000  3.824264e+001
      vertex -8.447118e-001 -3.700924e+000  3.954328e+001
    endloop
  endfacet
  facet normal -8.503829e-002 -1.765839e-001  9.806052e-001
    outer loop
      vertex -2.366830e+000 -2.967911e+000  3.954328e+001
      vertex -8.447118e-001 -3.700924e+000  3.954328e+001
      vertex -1.060660e+000 -1.060660e+000  4.000000e+001
    endloop
  endfacet
  facet normal  0.000000e+000 -9.817107e-001  1.903785e-001
    outer loop
      vertex -1.668907e+000 -7.311959e+000  3.400000e+001
      vertex  1.668907e+000 -7.311959e+000  3.400000e+001
      vertex -1.567277e+000 -6.866687e+000  3.629610e+001
    endloop
  endfacet
  facet normal  0.000000e+000 -9.817107e-001  1.903785e-001
    outer loop
      vertex -1.567277e+000 -6.866687e+000  3.629610e+001
      vertex  1.668907e+000 -7.311959e+000  3.400000e+001
      vertex  1.567277e+000 -6.866687e+000  3.629610e+001
    endloop
  endfacet
  facet normal  0.000000e+000 -8.378974e-001  5.458279e-001
    outer loop
      vertex -1.567277e+000 -6.866687e+000  3.629610e+001
      vertex  1.567277e+000 -6.866687e+000  3.629610e+001
      vertex -1.277858e+000 -5.598660e+000  3.824264e+001
    endloop
  endfacet
  facet normal  0.000000e+000 -8.378974e-001  5.458279e-001
    outer loop
      vertex -1.277858e+000 -5.598660e+000  3.824264e+001
      vertex  1.567277e+000 -6.866687e+000  3.629610e+001
      vertex  1.277858e+000 -5.598660e+000  3.824264e+001
    endloop
  endfacet
  facet normal  0.000000e+000 -5.653307e-001  8.248644e-001
    outer loop
      vertex -1.277858e+000 -5.598660e+000  3.824264e+001
      vertex  1.277858e+000 -5.598660e+000  3.824264e+001
      vertex -8.447118e-001 -3.700924e+000  3.954328e+001
    endloop
  endfacet
  facet normal  0.000000e+000 -5.653307e-001  8.248643e-001
    outer loop
      vertex -8.447118e-001 -3.700924e+000  3.954328e+001
      vertex  1.277858e+000 -5.598660e+000  3.824264e+001
      vertex  8.447118e-001 -3.700924e+000  3.954328e+001
    endloop
  endfacet
  facet normal  0.000000e+000 -2.031852e-001  9.791404e-001
    outer loop
      vertex -8.447118e-001 -3.700924e+000  3.954328e+001
      vertex  8.447118e-001 -3.700924e+000  3.954328e+001
      vertex -1.645141e-016 -1.500000e+000  4.000000e+001
    endloop
  endfacet
  facet normal  4.259483e-001 -8.844908e-001  1.903786e-001
    outer loop
      vertex  1.668907e+000 -7.311959e+000  3.400000e+001
      vertex  4.676174e+000 -5.863736e+000  3.400000e+001
      vertex  1.567277e+000 -6.866687e+000  3.629610e+001
    endloop
  endfacet
  facet normal  4.259484e-001 -8.844908e-001  1.903786e-001
    outer loop
      vertex  1.567277e+000 -6.866687e+000  3.629610e+001
      vertex  4.676174e+000 -5.863736e+000  3.400000e+001
      vertex  4.391411e+000 -5.506656e+000  3.629610e+001
    endloop
  endfacet
  facet normal  3.635500e-001 -7.549194e-001  5.458279e-001
    outer loop
      vertex  1.567277e+000 -6.866687e+000  3.629610e+001
      vertex  4.391411e+000 -5.506656e+000  3.629610e+001
      vertex  1.277858e+000 -5.598660e+000  3.824264e+001
    endloop
  endfacet
  facet normal  3.635500e-001 -7.549194e-001  5.458279e-001
    outer loop
      vertex  1.277858e+000 -5.598660e+000  3.824264e+001
      vertex  4.391411e+000 -5.506656e+000  3.629610e+001
      vertex  3.580478e+000 -4.489777e+000  3.824264e+001
    endloop
  endfacet
  facet normal  2.452878e-001 -5.093454e-001  8.248644e-001
    outer loop
      vertex  1.277858e+000 -5.598660e+000  3.824264e+001
      vertex  3.580478e+000 -4.489777e+000  3.824264e+001
      vertex  8.447118e-001 -3.700924e+000  3.954328e+001
    endloop
  endfacet
  facet normal  2.452878e-001 -5.093454e-001  8.248644e-001
    outer loop
      vertex  8.447118e-001 -3.700924e+000  3.954328e+001
      vertex  3.580478e+000 -4.489777e+000  3.824264e+001
      vertex  2.366830e+000 -2.967911e+000  3.954328e+001
    endloop
  endfacet
  facet normal  8.279438e-002 -1.719243e-001  9.816247e-001
    outer loop
      vertex  8.447118e-001 -3.700924e+000  3.954328e+001
      vertex  2.366830e+000 -2.967911e+000  3.954328e+001
      vertex -1.645141e-016 -1.500000e+000  4.000000e+001
    endloop
  endfacet
  facet normal  7.675324e-001 -6.120866e-001  1.903787e-001
    outer loop
      vertex  4.676174e+000 -5.863736e+000  3.400000e+001
      vertex  6.757267e+000 -3.254128e+000  3.400000e+001
      vertex  4.391411e+000 -5.506656e+000  3.629610e+001
    endloop
  endfacet
  facet normal  7.675323e-001 -6.120868e-001  1.903784e-001
    outer loop
      vertex  4.391411e+000 -5.506656e+000  3.629610e+001
      vertex  6.757267e+000 -3.254128e+000  3.400000e+001
      vertex  6.345774e+000 -3.055964e+000  3.629610e+001
    endloop
  endfacet
  facet normal  6.550944e-001 -5.224206e-001  5.458279e-001
    outer loop
      vertex  4.391411e+000 -5.506656e+000  3.629610e+001
      vertex  6.345774e+000 -3.055964e+000  3.629610e+001
      vertex  3.580478e+000 -4.489777e+000  3.824264e+001
    endloop
  endfacet
  facet normal  6.550944e-001 -5.224205e-001  5.458279e-001
    outer loop
      vertex  3.580478e+000 -4.489777e+000  3.824264e+001
      vertex  6.345774e+000 -3.055964e+000  3.629610e+001
      vertex  5.173941e+000 -2.491638e+000  3.824264e+001
    endloop
  endfacet
  facet normal  4.419933e-001 -3.524780e-001  8.248643e-001
    outer loop
      vertex  3.580478e+000 -4.489777e+000  3.824264e+001
      vertex  5.173941e+000 -2.491638e+000  3.824264e+001
      vertex  2.366830e+000 -2.967911e+000  3.954328e+001
    endloop
  endfacet
  facet normal  4.419933e-001 -3.524778e-001  8.248644e-001
    outer loop
      vertex  2.366830e+000 -2.967911e+000  3.954328e+001
      vertex  5.173941e+000 -2.491638e+000  3.824264e+001
      vertex  3.420168e+000 -1.647066e+000  3.954328e+001
    endloop
  endfacet
  facet normal  1.582065e-001 -1.261655e-001  9.793125e-001
    outer loop
      vertex  2.366830e+000 -2.967911e+000  3.954328e+001
      vertex  3.420168e+000 -1.647066e+000  3.954328e+001
      vertex  1.060660e+000 -1.060660e+000  4.000000e+001
    endloop
  endfacet
  facet normal -1.724167e-001  7.141748e-002  9.824317e-001
    outer loop
      vertex -1.500000e+000  1.146061e-006  4.000000e+001
      vertex -1.060660e+000  1.060661e+000  4.000000e+001
      vertex -3.420168e+000  1.647066e+000  3.954328e+001
    endloop
  endfacet
  facet normal  1.724168e-001  7.141735e-002  9.824317e-001
    outer loop
      vertex  1.500000e+000 -4.784042e-016  4.000000e+001
      vertex  3.420168e+000  1.647066e+000  3.954328e+001
      vertex  1.060660e+000  1.060660e+000  4.000000e+001
    endloop
  endfacet
  facet normal  7.281005e-002  1.757789e-001  9.817334e-001
    outer loop
      vertex  8.447118e-001  3.700924e+000  3.954328e+001
      vertex  5.730307e-007  1.500000e+000  4.000000e+001
      vertex  1.060660e+000  1.060660e+000  4.000000e+001
    endloop
  endfacet
  facet normal -7.574198e-002  1.828576e-001  9.802175e-001
    outer loop
      vertex -2.366830e+000  2.967911e+000  3.954328e+001
      vertex -1.060660e+000  1.060661e+000  4.000000e+001
      vertex  5.730307e-007  1.500000e+000  4.000000e+001
    endloop
  endfacet
  facet normal -9.570972e-001  2.184512e-001  1.903784e-001
    outer loop
      vertex -6.757267e+000  3.254128e+000  3.400000e+001
      vertex -7.500000e+000  4.249124e-015  3.400000e+001
      vertex -6.345774e+000  3.055964e+000  3.629610e+001
    endloop
  endfacet
  facet normal -9.570972e-001  2.184512e-001  1.903784e-001
    outer loop
      vertex -6.345774e+000  3.055964e+000  3.629610e+001
      vertex -7.500000e+000  4.249124e-015  3.400000e+001
      vertex -7.043277e+000  5.329071e-015  3.629610e+001
    endloop
  endfacet
  facet normal -8.168895e-001  1.864496e-001  5.458279e-001
    outer loop
      vertex -6.345774e+000  3.055964e+000  3.629610e+001
      vertex -7.043277e+000  5.329071e-015  3.629610e+001
      vertex -5.173941e+000  2.491638e+000  3.824264e+001
    endloop
  endfacet
  facet normal -8.168895e-001  1.864496e-001  5.458280e-001
    outer loop
      vertex -5.173941e+000  2.491638e+000  3.824264e+001
      vertex -7.043277e+000  5.329071e-015  3.629610e+001
      vertex -5.742640e+000  4.884981e-015  3.824264e+001
    endloop
  endfacet
  facet normal -5.511566e-001  1.257978e-001  8.248644e-001
    outer loop
      vertex -5.173941e+000  2.491638e+000  3.824264e+001
      vertex -5.742640e+000  4.884981e-015  3.824264e+001
      vertex -3.420168e+000  1.647066e+000  3.954328e+001
    endloop
  endfacet
  facet normal -5.511567e-001  1.257979e-001  8.248644e-001
    outer loop
      vertex -3.420168e+000  1.647066e+000  3.954328e+001
      vertex -5.742640e+000  4.884981e-015  3.824264e+001
      vertex -3.796101e+000  3.108624e-015  3.954328e+001
    endloop
  endfacet
  facet normal -1.948970e-001  4.448398e-002  9.798144e-001
    outer loop
      vertex -3.420168e+000  1.647066e+000  3.954328e+001
      vertex -3.796101e+000  3.108624e-015  3.954328e+001
      vertex -1.500000e+000  1.146061e-006  4.000000e+001
    endloop
  endfacet
  facet normal  9.570972e-001  2.184512e-001  1.903784e-001
    outer loop
      vertex  7.500000e+000 -8.498248e-015  3.400000e+001
      vertex  6.757267e+000  3.254128e+000  3.400000e+001
      vertex  7.043277e+000  8.881784e-016  3.629610e+001
    endloop
  endfacet
  facet normal  9.570972e-001  2.184512e-001  1.903784e-001
    outer loop
      vertex  7.043277e+000  8.881784e-016  3.629610e+001
      vertex  6.757267e+000  3.254128e+000  3.400000e+001
      vertex  6.345774e+000  3.055964e+000  3.629610e+001
    endloop
  endfacet
  facet normal  8.168895e-001  1.864496e-001  5.458280e-001
    outer loop
      vertex  7.043277e+000  8.881784e-016  3.629610e+001
      vertex  6.345774e+000  3.055964e+000  3.629610e+001
      vertex  5.742640e+000  0.000000e+000  3.824264e+001
    endloop
  endfacet
  facet normal  8.168895e-001  1.864496e-001  5.458279e-001
    outer loop
      vertex  5.742640e+000  0.000000e+000  3.824264e+001
      vertex  6.345774e+000  3.055964e+000  3.629610e+001
      vertex  5.173941e+000  2.491638e+000  3.824264e+001
    endloop
  endfacet
  facet normal  5.511567e-001  1.257978e-001  8.248643e-001
    outer loop
      vertex  5.742640e+000  0.000000e+000  3.824264e+001
      vertex  5.173941e+000  2.491638e+000  3.824264e+001
      vertex  3.796101e+000  2.220446e-016  3.954328e+001
    endloop
  endfacet
  facet normal  5.511566e-001  1.257979e-001  8.248643e-001
    outer loop
      vertex  3.796101e+000  2.220446e-016  3.954328e+001
      vertex  5.173941e+000  2.491638e+000  3.824264e+001
      vertex  3.420168e+000  1.647066e+000  3.954328e+001
    endloop
  endfacet
  facet normal  1.948970e-001  4.448397e-002  9.798144e-001
    outer loop
      vertex  3.796101e+000  2.220446e-016  3.954328e+001
      vertex  3.420168e+000  1.647066e+000  3.954328e+001
      vertex  1.500000e+000 -4.784042e-016  4.000000e+001
    endloop
  endfacet
  facet normal  7.675324e-001  6.120866e-001  1.903784e-001
    outer loop
      vertex  6.757267e+000  3.254128e+000  3.400000e+001
      vertex  4.676174e+000  5.863736e+000  3.400000e+001
      vertex  6.345774e+000  3.055964e+000  3.629610e+001
    endloop
  endfacet
  facet normal  7.675323e-001  6.120868e-001  1.903787e-001
    outer loop
      vertex  6.345774e+000  3.055964e+000  3.629610e+001
      vertex  4.676174e+000  5.863736e+000  3.400000e+001
      vertex  4.391411e+000  5.506656e+000  3.629610e+001
    endloop
  endfacet
  facet normal  6.550944e-001  5.224205e-001  5.458279e-001
    outer loop
      vertex  6.345774e+000  3.055964e+000  3.629610e+001
      vertex  4.391411e+000  5.506656e+000  3.629610e+001
      vertex  5.173941e+000  2.491638e+000  3.824264e+001
    endloop
  endfacet
  facet normal  6.550944e-001  5.224205e-001  5.458279e-001
    outer loop
      vertex  5.173941e+000  2.491638e+000  3.824264e+001
      vertex  4.391411e+000  5.506656e+000  3.629610e+001
      vertex  3.580478e+000  4.489777e+000  3.824264e+001
    endloop
  endfacet
  facet normal  4.419933e-001  3.524779e-001  8.248644e-001
    outer loop
      vertex  5.173941e+000  2.491638e+000  3.824264e+001
      vertex  3.580478e+000  4.489777e+000  3.824264e+001
      vertex  3.420168e+000  1.647066e+000  3.954328e+001
    endloop
  endfacet
  facet normal  4.419934e-001  3.524779e-001  8.248643e-001
    outer loop
      vertex  3.420168e+000  1.647066e+000  3.954328e+001
      vertex  3.580478e+000  4.489777e+000  3.824264e+001
      vertex  2.366830e+000  2.967911e+000  3.954328e+001
    endloop
  endfacet
  facet normal  1.582065e-001  1.261655e-001  9.793124e-001
    outer loop
      vertex  3.420168e+000  1.647066e+000  3.954328e+001
      vertex  2.366830e+000  2.967911e+000  3.954328e+001
      vertex  1.060660e+000  1.060660e+000  4.000000e+001
    endloop
  endfacet
  facet normal  4.259483e-001  8.844908e-001  1.903786e-001
    outer loop
      vertex  4.676174e+000  5.863736e+000  3.400000e+001
      vertex  1.668907e+000  7.311959e+000  3.400000e+001
      vertex  4.391411e+000  5.506656e+000  3.629610e+001
    endloop
  endfacet
  facet normal  4.259484e-001  8.844908e-001  1.903786e-001
    outer loop
      vertex  4.391411e+000  5.506656e+000  3.629610e+001
      vertex  1.668907e+000  7.311959e+000  3.400000e+001
      vertex  1.567277e+000  6.866687e+000  3.629610e+001
    endloop
  endfacet
  facet normal  3.635500e-001  7.549194e-001  5.458279e-001
    outer loop
      vertex  4.391411e+000  5.506656e+000  3.629610e+001
      vertex  1.567277e+000  6.866687e+000  3.629610e+001
      vertex  3.580478e+000  4.489777e+000  3.824264e+001
    endloop
  endfacet
  facet normal  3.635500e-001  7.549194e-001  5.458279e-001
    outer loop
      vertex  3.580478e+000  4.489777e+000  3.824264e+001
      vertex  1.567277e+000  6.866687e+000  3.629610e+001
      vertex  1.277858e+000  5.598660e+000  3.824264e+001
    endloop
  endfacet
  facet normal  2.452878e-001  5.093454e-001  8.248643e-001
    outer loop
      vertex  3.580478e+000  4.489777e+000  3.824264e+001
      vertex  1.277858e+000  5.598660e+000  3.824264e+001
      vertex  2.366830e+000  2.967911e+000  3.954328e+001
    endloop
  endfacet
  facet normal  2.452877e-001  5.093454e-001  8.248643e-001
    outer loop
      vertex  2.366830e+000  2.967911e+000  3.954328e+001
      vertex  1.277858e+000  5.598660e+000  3.824264e+001
      vertex  8.447118e-001  3.700924e+000  3.954328e+001
    endloop
  endfacet
  facet normal  8.503829e-002  1.765839e-001  9.806052e-001
    outer loop
      vertex  2.366830e+000  2.967911e+000  3.954328e+001
      vertex  8.447118e-001  3.700924e+000  3.954328e+001
      vertex  1.060660e+000  1.060660e+000  4.000000e+001
    endloop
  endfacet
  facet normal  -0.000000e+000  9.817107e-001  1.903785e-001
    outer loop
      vertex  1.668907e+000  7.311959e+000  3.400000e+001
      vertex -1.668907e+000  7.311959e+000  3.400000e+001
      vertex  1.567277e+000  6.866687e+000  3.629610e+001
    endloop
  endfacet
  facet normal  0.000000e+000  9.817107e-001  1.903785e-001
    outer loop
      vertex  1.567277e+000  6.866687e+000  3.629610e+001
      vertex -1.668907e+000  7.311959e+000  3.400000e+001
      vertex -1.567277e+000  6.866687e+000  3.629610e+001
    endloop
  endfacet
  facet normal  -0.000000e+000  8.378974e-001  5.458279e-001
    outer loop
      vertex  1.567277e+000  6.866687e+000  3.629610e+001
      vertex -1.567277e+000  6.866687e+000  3.629610e+001
      vertex  1.277858e+000  5.598660e+000  3.824264e+001
    endloop
  endfacet
  facet normal  0.000000e+000  8.378974e-001  5.458279e-001
    outer loop
      vertex  1.277858e+000  5.598660e+000  3.824264e+001
      vertex -1.567277e+000  6.866687e+000  3.629610e+001
      vertex -1.277858e+000  5.598660e+000  3.824264e+001
    endloop
  endfacet
  facet normal  -0.000000e+000  5.653307e-001  8.248644e-001
    outer loop
      vertex  1.277858e+000  5.598660e+000  3.824264e+001
      vertex -1.277858e+000  5.598660e+000  3.824264e+001
      vertex  8.447118e-001  3.700924e+000  3.954328e+001
    endloop
  endfacet
  facet normal  0.000000e+000  5.653307e-001  8.248643e-001
    outer loop
      vertex  8.447118e-001  3.700924e+000  3.954328e+001
      vertex -1.277858e+000  5.598660e+000  3.824264e+001
      vertex -8.447118e-001  3.700924e+000  3.954328e+001
    endloop
  endfacet
  facet normal  -0.000000e+000  2.031852e-001  9.791404e-001
    outer loop
      vertex  8.447118e-001  3.700924e+000  3.954328e+001
      vertex -8.447118e-001  3.700924e+000  3.954328e+001
      vertex  5.730307e-007  1.500000e+000  4.000000e+001
    endloop
  endfacet
  facet normal -4.259483e-001  8.844908e-001  1.903786e-001
    outer loop
      vertex -1.668907e+000  7.311959e+000  3.400000e+001
      vertex -4.676174e+000  5.863736e+000  3.400000e+001
      vertex -1.567277e+000  6.866687e+000  3.629610e+001
    endloop
  endfacet
  facet normal -4.259484e-001  8.844908e-001  1.903786e-001
    outer loop
      vertex -1.567277e+000  6.866687e+000  3.629610e+001
      vertex -4.676174e+000  5.863736e+000  3.400000e+001
      vertex -4.391411e+000  5.506656e+000  3.629610e+001
    endloop
  endfacet
  facet normal -3.635500e-001  7.549194e-001  5.458279e-001
    outer loop
      vertex -1.567277e+000  6.866687e+000  3.629610e+001
      vertex -4.391411e+000  5.506656e+000  3.629610e+001
      vertex -1.277858e+000  5.598660e+000  3.824264e+001
    endloop
  endfacet
  facet normal -3.635500e-001  7.549194e-001  5.458279e-001
    outer loop
      vertex -1.277858e+000  5.598660e+000  3.824264e+001
      vertex -4.391411e+000  5.506656e+000  3.629610e+001
      vertex -3.580478e+000  4.489777e+000  3.824264e+001
    endloop
  endfacet
  facet normal -2.452878e-001  5.093454e-001  8.248644e-001
    outer loop
      vertex -1.277858e+000  5.598660e+000  3.824264e+001
      vertex -3.580478e+000  4.489777e+000  3.824264e+001
      vertex -8.447118e-001  3.700924e+000  3.954328e+001
    endloop
  endfacet
  facet normal -2.452878e-001  5.093454e-001  8.248644e-001
    outer loop
      vertex -8.447118e-001  3.700924e+000  3.954328e+001
      vertex -3.580478e+000  4.489777e+000  3.824264e+001
      vertex -2.366830e+000  2.967911e+000  3.954328e+001
    endloop
  endfacet
  facet normal -8.279437e-002  1.719243e-001  9.816247e-001
    outer loop
      vertex -8.447118e-001  3.700924e+000  3.954328e+001
      vertex -2.366830e+000  2.967911e+000  3.954328e+001
      vertex  5.730307e-007  1.500000e+000  4.000000e+001
    endloop
  endfacet
  facet normal -7.675324e-001  6.120866e-001  1.903787e-001
    outer loop
      vertex -4.676174e+000  5.863736e+000  3.400000e+001
      vertex -6.757267e+000  3.254128e+000  3.400000e+001
      vertex -4.391411e+000  5.506656e+000  3.629610e+001
    endloop
  endfacet
  facet normal -7.675323e-001  6.120868e-001  1.903784e-001
    outer loop
      vertex -4.391411e+000  5.506656e+000  3.629610e+001
      vertex -6.757267e+000  3.254128e+000  3.400000e+001
      vertex -6.345774e+000  3.055964e+000  3.629610e+001
    endloop
  endfacet
  facet normal -6.550944e-001  5.224206e-001  5.458279e-001
    outer loop
      vertex -4.391411e+000  5.506656e+000  3.629610e+001
      vertex -6.345774e+000  3.055964e+000  3.629610e+001
      vertex -3.580478e+000  4.489777e+000  3.824264e+001
    endloop
  endfacet
  facet normal -6.550944e-001  5.224205e-001  5.458279e-001
    outer loop
      vertex -3.580478e+000  4.489777e+000  3.824264e+001
      vertex -6.345774e+000  3.055964e+000  3.629610e+001
      vertex -5.173941e+000  2.491638e+000  3.824264e+001
    endloop
  endfacet
  facet normal -4.419933e-001  3.524780e-001  8.248643e-001
    outer loop
      vertex -3.580478e+000  4.489777e+000  3.824264e+001
      vertex -5.173941e+000  2.491638e+000  3.824264e+001
      vertex -2.366830e+000  2.967911e+000  3.954328e+001
    endloop
  endfacet
  facet normal -4.419933e-001  3.524778e-001  8.248644e-001
    outer loop
      vertex -2.366830e+000  2.967911e+000  3.954328e+001
      vertex -5.173941e+000  2.491638e+000  3.824264e+001
      vertex -3.420168e+000  1.647066e+000  3.954328e+001
    endloop
  endfacet
  facet normal -1.582065e-001  1.261655e-001  9.793125e-001
    outer loop
      vertex -2.366830e+000  2.967911e+000  3.954328e+001
      vertex -3.420168e+000  1.647066e+000  3.954328e+001
      vertex -1.060660e+000  1.060661e+000  4.000000e+001
    endloop
  endfacet
  facet normal -9.510565e-001  3.090170e-001  0.000000e+000
    outer loop
      vertex  3.000000e+000  0.000000e+000  1.500000e+001
      vertex  3.000000e+000  0.000000e+000  0.000000e+000
      vertex  2.427051e+000 -1.763356e+000  1.500000e+001
    endloop
  endfacet
  facet normal -9.510565e-001  3.090170e-001  0.000000e+000
    outer loop
      vertex  2.427051e+000 -1.763356e+000  1.500000e+001
      vertex  3.000000e+000  0.000000e+000  0.000000e+000
      vertex  2.427051e+000 -1.763356e+000  0.000000e+000
    endloop
  endfacet
  facet normal -5.877852e-001  8.090170e-001  0.000000e+000
    outer loop
      vertex  2.427051e+000 -1.763356e+000  1.500000e+001
      vertex  2.427051e+000 -1.763356e+000  0.000000e+000
      vertex  9.270510e-001 -2.853169e+000  1.500000e+001
    endloop
  endfacet
  facet normal -5.877852e-001  8.090170e-001  0.000000e+000
    outer loop
      vertex  9.270510e-001 -2.853169e+000  1.500000e+001
      vertex  2.427051e+000 -1.763356e+000  0.000000e+000
      vertex  9.270510e-001 -2.853169e+000  0.000000e+000
    endloop
  endfacet
  facet normal  0.000000e+000  1.000000e+000  -0.000000e+000
    outer loop
      vertex  9.270510e-001 -2.853169e+000  1.500000e+001
      vertex  9.270510e-001 -2.853169e+000  0.000000e+000
      vertex -9.270510e-001 -2.853169e+000  1.500000e+001
    endloop
  endfacet
  facet normal  0.000000e+000  1.000000e+000  0.000000e+000
    outer loop
      vertex -9.270510e-001 -2.853169e+000  1.500000e+001
      vertex  9.270510e-001 -2.853169e+000  0.000000e+000
      vertex -9.270510e-001 -2.853169e+000  0.000000e+000
    endloop
  endfacet
  facet normal  5.877852e-001  8.090170e-001  -0.000000e+000
    outer loop
      vertex -9.270510e-001 -2.853169e+000  1.500000e+001
      vertex -9.270510e-001 -2.853169e+000  0.000000e+000
      vertex -2.427051e+000 -1.763356e+000  1.500000e+001
    endloop
  endfacet
  facet normal  5.877852e-001  8.090170e-001  0.000000e+000
    outer loop
      vertex -2.427051e+000 -1.763356e+000  1.500000e+001
      vertex -9.270510e-001 -2.853169e+000  0.000000e+000
      vertex -2.427051e+000 -1.763356e+000  0.000000e+000
    endloop
  endfacet
  facet normal  9.510565e-001  3.090170e-001  -0.000000e+000
    outer loop
      vertex -2.427051e+000 -1.763356e+000  1.500000e+001
      vertex -2.427051e+000 -1.763356e+000  0.000000e+000
      vertex -3.000000e+000  3.673819e-016  1.500000e+001
    endloop
  endfacet
  facet normal  9.510565e-001  3.090170e-001  0.000000e+000
    outer loop
      vertex -3.000000e+000  3.673819e-016  1.500000e+001
      vertex -2.427051e+000 -1.763356e+000  0.000000e+000
      vertex -3.000000e+000  3.673819e-016  0.000000e+000
    endloop
  endfacet
  facet normal  9.510565e-001 -3.090170e-001  0.000000e+000
    outer loop
      vertex -3.000000e+000  3.673819e-016  1.500000e+001
      vertex -3.000000e+000  3.673819e-016  0.000000e+000
      vertex -2.427051e+000  1.763356e+000  1.500000e+001
    endloop
  endfacet
  facet normal  9.510565e-001 -3.090170e-001  0.000000e+000
    outer loop
      vertex -2.427051e+000  1.763356e+000  1.500000e+001
      vertex -3.000000e+000  3.673819e-016  0.000000e+000
      vertex -2.427051e+000  1.763356e+000  0.000000e+000
    endloop
  endfacet
  facet normal  5.877852e-001 -8.090170e-001  0.000000e+000
    outer loop
      vertex -2.427051e+000  1.763356e+000  1.500000e+001
      vertex -2.427051e+000  1.763356e+000  0.000000e+000
      vertex -9.270510e-001  2.853169e+000  1.500000e+001
    endloop
  endfacet
  facet normal  5.877852e-001 -8.090170e-001  0.000000e+000
    outer loop
      vertex -9.270510e-001  2.853169e+000  1.500000e+001
      vertex -2.427051e+000  1.763356e+000  0.000000e+000
      vertex -9.270510e-001  2.853169e+000  0.000000e+000
    endloop
  endfacet
  facet normal  0.000000e+000 -1.000000e+000  0.000000e+000
    outer loop
      vertex -9.270510e-001  2.853169e+000  1.500000e+001
      vertex -9.270510e-001  2.853169e+000  0.000000e+000
      vertex  9.270510e-001  2.853169e+000  1.500000e+001
    endloop
  endfacet
  facet normal  0.000000e+000 -1.000000e+000  -0.000000e+000
    outer loop
      vertex  9.270510e-001  2.853169e+000  1.500000e+001
      vertex -9.270510e-001  2.853169e+000  0.000000e+000
      vertex  9.270510e-001  2.853169e+000  0.000000e+000
    endloop
  endfacet
  facet normal -5.877852e-001 -8.090170e-001  0.000000e+000
    outer loop
      vertex  9.270510e-001  2.853169e+000  1.500000e+001
      vertex  9.270510e-001  2.853169e+000  0.000000e+000
      vertex  2.427051e+000  1.763356e+000  1.500000e+001
    endloop
  endfacet
  facet normal -5.877852e-001 -8.090170e-001  -0.000000e+000
    outer loop
      vertex  2.427051e+000  1.763356e+000  1.500000e+001
      vertex  9.270510e-001  2.853169e+000  0.000000e+000
      vertex  2.427051e+000  1.763356e+000  0.000000e+000
    endloop
  endfacet
  facet normal -9.510565e-001 -3.090170e-001  0.000000e+000
    outer loop
      vertex  2.427051e+000  1.763356e+000  1.500000e+001
      vertex  2.427051e+000  1.763356e+000  0.000000e+000
      vertex  3.000000e+000  0.000000e+000  1.500000e+001
    endloop
  endfacet
  facet normal -9.510565e-001 -3.090170e-001  -0.000000e+000
    outer loop
      vertex  3.000000e+000  0.000000e+000  1.500000e+001
      vertex  2.427051e+000  1.763356e+000  0.000000e+000
      vertex  3.000000e+000  0.000000e+000  0.000000e+000
    endloop
  endfacet
  facet normal  -0.000000e+000  0.000000e+000 -1.000000e+000
    outer loop
      vertex -9.270510e-001  2.853169e+000  1.500000e+001
      vertex  9.270510e-001  2.853169e+000  1.500000e+001
      vertex -2.427051e+000  1.763356e+000  1.500000e+001
    endloop
  endfacet
  facet normal  0.000000e+000  0.000000e+000 -9.999999e-001
    outer loop
      vertex -2.427051e+000  1.763356e+000  1.500000e+001
      vertex  9.270510e-001  2.853169e+000  1.500000e+001
      vertex  2.427051e+000  1.763356e+000  1.500000e+001
    endloop
  endfacet
  facet normal  -0.000000e+000  0.000000e+000 -1.000000e+000
    outer loop
      vertex -2.427051e+000  1.763356e+000  1.500000e+001
      vertex  2.427051e+000  1.763356e+000  1.500000e+001
      vertex -3.000000e+000  3.673819e-016  1.500000e+001
    endloop
  endfacet
  facet normal  0.000000e+000  0.000000e+000 -9.999999e-001
    outer loop
      vertex -3.000000e+000  3.673819e-016  1.500000e+001
      vertex  2.427051e+000  1.763356e+000  1.500000e+001
      vertex  3.000000e+000  0.000000e+000  1.500000e+001
    endloop
  endfacet
  facet normal  -0.000000e+000  0.000000e+000 -9.999999e-001
    outer loop
      vertex -3.000000e+000  3.673819e-016  1.500000e+001
      vertex  3.000000e+000  0.000000e+000  1.500000e+001
      vertex -2.427051e+000 -1.763356e+000  1.500000e+001
    endloop
  endfacet
  facet normal  0.000000e+000  0.000000e+000 -1.000000e+000
    outer loop
      vertex -2.427051e+000 -1.763356e+000  1.500000e+001
      vertex  3.000000e+000  0.000000e+000  1.500000e+001
      vertex  2.427051e+000 -1.763356e+000  1.500000e+001
    endloop
  endfacet
  facet normal  -0.000000e+000  0.000000e+000 -9.999999e-001
    outer loop
      vertex -2.427051e+000 -1.763356e+000  1.500000e+001
      vertex  2.427051e+000 -1.763356e+000  1.500000e+001
      vertex -9.270510e-001 -2.853169e+000  1.500000e+001
    endloop
  endfacet
  facet normal  0.000000e+000  0.000000e+000 -1.000000e+000
    outer loop
      vertex -9.270510e-001 -2.853169e+000  1.500000e+001
      vertex  2.427051e+000 -1.763356e+000  1.500000e+001
      vertex  9.270510e-001 -2.853169e+000  1.500000e+001
    endloop
  endfacet
  facet normal  0.000000e+000  0.000000e+000 -1.000000e+000
    outer loop
      vertex -6.757267e+000 -3.254128e+000  0.000000e+000
      vertex -7.500000e+000  4.249124e-015  0.000000e+000
      vertex -3.000000e+000  3.673819e-016  0.000000e+000
    endloop
  endfacet
  facet normal  0.000000e+000  -0.000000e+000 -1.000000e+000
    outer loop
      vertex -6.757267e+000 -3.254128e+000  0.000000e+000
      vertex -3.000000e+000  3.673819e-016  0.000000e+000
      vertex -2.427051e+000 -1.763356e+000  0.000000e+000
    endloop
  endfacet
  facet normal  0.000000e+000  -0.000000e+000 -9.999999e-001
    outer loop
      vertex -6.757267e+000 -3.254128e+000  0.000000e+000
      vertex -2.427051e+000 -1.763356e+000  0.000000e+000
      vertex -9.270510e-001 -2.853169e+000  0.000000e+000
    endloop
  endfacet
  facet normal  0.000000e+000  0.000000e+000 -1.000000e+000
    outer loop
      vertex  6.757267e+000 -3.254128e+000  0.000000e+000
      vertex  4.676174e+000 -5.863736e+000  0.000000e+000
      vertex  9.270510e-001 -2.853169e+000  0.000000e+000
    endloop
  endfacet
  facet normal  0.000000e+000  0.000000e+000 -1.000000e+000
    outer loop
      vertex  9.270510e-001 -2.853169e+000  0.000000e+000
      vertex  4.676174e+000 -5.863736e+000  0.000000e+000
      vertex  1.668907e+000 -7.311959e+000  0.000000e+000
    endloop
  endfacet
  facet normal  0.000000e+000  0.000000e+000 -1.000000e+000
    outer loop
      vertex  9.270510e-001 -2.853169e+000  0.000000e+000
      vertex  1.668907e+000 -7.311959e+000  0.000000e+000
      vertex -9.270510e-001 -2.853169e+000  0.000000e+000
    endloop
  endfacet
  facet normal  0.000000e+000  -0.000000e+000 -1.000000e+000
    outer loop
      vertex -9.270510e-001 -2.853169e+000  0.000000e+000
      vertex  1.668907e+000 -7.311959e+000  0.000000e+000
      vertex -1.668907e+000 -7.311959e+000  0.000000e+000
    endloop
  endfacet
  facet normal  0.000000e+000  0.000000e+000 -1.000000e+000
    outer loop
      vertex -9.270510e-001 -2.853169e+000  0.000000e+000
      vertex -1.668907e+000 -7.311959e+000  0.000000e+000
      vertex -6.757267e+000 -3.254128e+000  0.000000e+000
    endloop
  endfacet
  facet normal  0.000000e+000  0.000000e+000 -1.000000e+000
    outer loop
      vertex -6.757267e+000 -3.254128e+000  0.000000e+000
      vertex -1.668907e+000 -7.311959e+000  0.000000e+000
      vertex -4.676174e+000 -5.863736e+000  0.000000e+000
    endloop
  endfacet
  facet normal  0.000000e+000  0.000000e+000 -1.000000e+000
    outer loop
      vertex  4.676174e+000  5.863736e+000  0.000000e+000
      vertex  6.757267e+000  3.254128e+000  0.000000e+000
      vertex  1.668907e+000  7.311959e+000  0.000000e+000
    endloop
  endfacet
  facet normal  0.000000e+000  -0.000000e+000 -1.000000e+000
    outer loop
      vertex  1.668907e+000  7.311959e+000  0.000000e+000
      vertex  6.757267e+000  3.254128e+000  0.000000e+000
      vertex  9.270510e-001  2.853169e+000  0.000000e+000
    endloop
  endfacet
  facet normal  0.000000e+000  0.000000e+000 -1.000000e+000
    outer loop
      vertex  1.668907e+000  7.311959e+000  0.000000e+000
      vertex  9.270510e-001  2.853169e+000  0.000000e+000
      vertex -1.668907e+000  7.311959e+000  0.000000e+000
    endloop
  endfacet
  facet normal  0.000000e+000  0.000000e+000 -1.000000e+000
    outer loop
      vertex -1.668907e+000  7.311959e+000  0.000000e+000
      vertex  9.270510e-001  2.853169e+000  0.000000e+000
      vertex -9.270510e-001  2.853169e+000  0.000000e+000
    endloop
  endfacet
  facet normal  0.000000e+000  0.000000e+000 -1.000000e+000
    outer loop
      vertex -1.668907e+000  7.311959e+000  0.000000e+000
      vertex -9.270510e-001  2.853169e+000  0.000000e+000
      vertex -4.676174e+000  5.863736e+000  0.000000e+000
    endloop
  endfacet
  facet normal  0.000000e+000  -0.000000e+000 -1.000000e+000
    outer loop
      vertex -4.676174e+000  5.863736e+000  0.000000e+000
      vertex -9.270510e-001  2.853169e+000  0.000000e+000
      vertex -6.757267e+000  3.254128e+000  0.000000e+000
    endloop
  endfacet
  facet normal  -0.000000e+000  0.000000e+000 -1.000000e+000
    outer loop
      vertex -6.757267e+000  3.254128e+000  0.000000e+000
      vertex -9.270510e-001  2.853169e+000  0.000000e+000
      vertex -7.500000e+000  4.249124e-015  0.000000e+000
    endloop
  endfacet
  facet normal  0.000000e+000  0.000000e+000 -1.000000e+000
    outer loop
      vertex -7.500000e+000  4.249124e-015  0.000000e+000
      vertex -9.270510e-001  2.853169e+000  0.000000e+000
      vertex -2.427051e+000  1.763356e+000  0.000000e+000
    endloop
  endfacet
  facet normal  0.000000e+000  0.000000e+000 -1.000000e+000
    outer loop
      vertex -7.500000e+000  4.249124e-015  0.000000e+000
      vertex -2.427051e+000  1.763356e+000  0.000000e+000
      vertex -3.000000e+000  3.673819e-016  0.000000e+000
    endloop
  endfacet
  facet normal  0.000000e+000  0.000000e+000 -9.999999e-001
    outer loop
      vertex  9.270510e-001  2.853169e+000  0.000000e+000
      vertex  6.757267e+000  3.254128e+000  0.000000e+000
      vertex  2.427051e+000  1.763356e+000  0.000000e+000
    endloop
  endfacet
  facet normal  0.000000e+000  0.000000e+000 -1.000000e+000
    outer loop
      vertex  2.427051e+000  1.763356e+000  0.000000e+000
      vertex  6.757267e+000  3.254128e+000  0.000000e+000
      vertex  7.500000e+000  0.000000e+000  0.000000e+000
    endloop
  endfacet
  facet normal  0.000000e+000  0.000000e+000 -1.000000e+000
    outer loop
      vertex  2.427051e+000  1.763356e+000  0.000000e+000
      vertex  7.500000e+000  0.000000e+000  0.000000e+000
      vertex  3.000000e+000  0.000000e+000  0.000000e+000
    endloop
  endfacet
  facet normal  -0.000000e+000  0.000000e+000 -1.000000e+000
    outer loop
      vertex  3.000000e+000  0.000000e+000  0.000000e+000
      vertex  7.500000e+000  0.000000e+000  0.000000e+000
      vertex  2.427051e+000 -1.763356e+000  0.000000e+000
    endloop
  endfacet
  facet normal  0.000000e+000  0.000000e+000 -1.000000e+000
    outer loop
      vertex  2.427051e+000 -1.763356e+000  0.000000e+000
      vertex  7.500000e+000  0.000000e+000  0.000000e+000
      vertex  6.757267e+000 -3.254128e+000  0.000000e+000
    endloop
  endfacet
  facet normal  0.000000e+000  0.000000e+000 -9.999999e-001
    outer loop
      vertex  2.427051e+000 -1.763356e+000  0.000000e+000
      vertex  6.757267e+000 -3.254128e+000  0.000000e+000
      vertex  9.270510e-001 -2.853169e+000  0.000000e+000
    endloop
  endfacet
endsolid CATIA STL
