solid CATIA STL
  facet normal -9.749279e-001  -0.000000e+000 -2.225209e-001
    outer loop
      vertex -6.000000e+000  3.000000e+000  0.000000e+000
      vertex -5.405813e+000  1.000000e+001 -2.603302e+000
      vertex -5.405813e+000  3.000000e+000 -2.603302e+000
    endloop
  endfacet
  facet normal  0.000000e+000 -4.598457e-003 -9.999894e-001
    outer loop
      vertex  1.335126e+000  3.000000e+000 -5.849567e+000
      vertex -1.335126e+000  3.000000e+000 -5.849567e+000
      vertex -1.205489e+000  9.107366e+000 -5.877652e+000
    endloop
  endfacet
  facet normal -1.948373e-001 -8.554392e-002 -9.770981e-001
    outer loop
      vertex  1.335126e+000  3.000000e+000 -5.849567e+000
      vertex -1.205489e+000  9.107366e+000 -5.877652e+000
      vertex -4.305277e-001  8.563112e+000 -5.984534e+000
    endloop
  endfacet
  facet normal  7.820373e-003 -2.177238e-002 -9.997324e-001
    outer loop
      vertex  1.335126e+000  3.000000e+000 -5.849567e+000
      vertex -4.305277e-001  8.563112e+000 -5.984534e+000
      vertex  5.162566e-001  8.591640e+000 -5.977749e+000
    endloop
  endfacet
  facet normal  1.486731e-001 -8.965312e-004 -9.888859e-001
    outer loop
      vertex  1.335126e+000  3.000000e+000 -5.849567e+000
      vertex  5.162566e-001  8.591640e+000 -5.977749e+000
      vertex  1.255999e+000  9.179959e+000 -5.867066e+000
    endloop
  endfacet
  facet normal  2.291517e-001  1.777688e-004 -9.733908e-001
    outer loop
      vertex  1.335126e+000  3.000000e+000 -5.849567e+000
      vertex  1.255999e+000  9.179959e+000 -5.867066e+000
      vertex  1.500000e+000  1.000000e+001 -5.809475e+000
    endloop
  endfacet
  facet normal  4.465734e-001 -5.393796e-003 -8.947307e-001
    outer loop
      vertex  1.335126e+000  3.000000e+000 -5.849567e+000
      vertex  1.500000e+000  1.000000e+001 -5.809475e+000
      vertex  3.740939e+000  1.000000e+001 -4.690989e+000
    endloop
  endfacet
  facet normal  4.338837e-001  0.000000e+000 -9.009689e-001
    outer loop
      vertex  1.335126e+000  3.000000e+000 -5.849567e+000
      vertex  3.740939e+000  1.000000e+001 -4.690989e+000
      vertex  3.740939e+000  3.000000e+000 -4.690989e+000
    endloop
  endfacet
  facet normal  4.338837e-001  0.000000e+000 -9.009688e-001
    outer loop
      vertex  1.335126e+000  1.300000e+001 -5.849567e+000
      vertex  3.740939e+000  1.300000e+001 -4.690989e+000
      vertex  3.740939e+000  1.000000e+001 -4.690989e+000
    endloop
  endfacet
  facet normal  4.465445e-001  1.258469e-002 -8.946729e-001
    outer loop
      vertex  1.335126e+000  1.300000e+001 -5.849567e+000
      vertex  3.740939e+000  1.000000e+001 -4.690989e+000
      vertex  1.500000e+000  1.000000e+001 -5.809475e+000
    endloop
  endfacet
  facet normal  2.233694e-001 -7.505234e-004 -9.747335e-001
    outer loop
      vertex  1.335126e+000  1.300000e+001 -5.849567e+000
      vertex  1.500000e+000  1.000000e+001 -5.809475e+000
      vertex  1.205489e+000  1.089263e+001 -5.877652e+000
    endloop
  endfacet
  facet normal  1.397911e-001  4.596590e-003 -9.901704e-001
    outer loop
      vertex  1.335126e+000  1.300000e+001 -5.849567e+000
      vertex  1.205489e+000  1.089263e+001 -5.877652e+000
      vertex  4.305277e-001  1.143689e+001 -5.984534e+000
    endloop
  endfacet
  facet normal -9.898865e-003  9.170519e-002 -9.957370e-001
    outer loop
      vertex  1.335126e+000  1.300000e+001 -5.849567e+000
      vertex  4.305277e-001  1.143689e+001 -5.984534e+000
      vertex -5.162566e-001  1.140836e+001 -5.977749e+000
    endloop
  endfacet
  facet normal -6.271592e-001  7.472137e-001 -2.198705e-001
    outer loop
      vertex  1.335126e+000  1.300000e+001 -5.849567e+000
      vertex -5.162566e-001  1.140836e+001 -5.977749e+000
      vertex -1.255999e+000  1.082004e+001 -5.867066e+000
    endloop
  endfacet
  facet normal  0.000000e+000  8.026942e-003 -9.999678e-001
    outer loop
      vertex  1.335126e+000  1.300000e+001 -5.849567e+000
      vertex -1.255999e+000  1.082004e+001 -5.867066e+000
      vertex -1.335126e+000  1.300000e+001 -5.849567e+000
    endloop
  endfacet
  facet normal -9.749280e-001  -0.000000e+000 -2.225209e-001
    outer loop
      vertex -6.000000e+000  3.000000e+000  0.000000e+000
      vertex -6.000000e+000  1.300000e+001  0.000000e+000
      vertex -5.405813e+000  1.000000e+001 -2.603302e+000
    endloop
  endfacet
  facet normal -9.749279e-001  0.000000e+000 -2.225209e-001
    outer loop
      vertex -5.405813e+000  1.000000e+001 -2.603302e+000
      vertex -6.000000e+000  1.300000e+001  0.000000e+000
      vertex -5.405813e+000  1.300000e+001 -2.603302e+000
    endloop
  endfacet
  facet normal -7.818315e-001  -0.000000e+000 -6.234898e-001
    outer loop
      vertex -5.405813e+000  1.000000e+001 -2.603302e+000
      vertex -5.405813e+000  1.300000e+001 -2.603302e+000
      vertex -3.740939e+000  1.000000e+001 -4.690989e+000
    endloop
  endfacet
  facet normal -7.818315e-001  0.000000e+000 -6.234898e-001
    outer loop
      vertex -3.740939e+000  1.000000e+001 -4.690989e+000
      vertex -5.405813e+000  1.300000e+001 -2.603302e+000
      vertex -3.740939e+000  1.300000e+001 -4.690989e+000
    endloop
  endfacet
  facet normal -4.465799e-001  -0.000000e+000 -8.947438e-001
    outer loop
      vertex -3.740939e+000  1.000000e+001 -4.690989e+000
      vertex -3.740939e+000  1.300000e+001 -4.690989e+000
      vertex -1.500000e+000  1.000000e+001 -5.809475e+000
    endloop
  endfacet
  facet normal -4.338534e-001  1.180393e-002 -9.009060e-001
    outer loop
      vertex -1.500000e+000  1.000000e+001 -5.809475e+000
      vertex -3.740939e+000  1.300000e+001 -4.690989e+000
      vertex -1.335126e+000  1.300000e+001 -5.849567e+000
    endloop
  endfacet
  facet normal -2.282256e-001 -4.685960e-004 -9.736082e-001
    outer loop
      vertex -1.500000e+000  1.000000e+001 -5.809475e+000
      vertex -1.335126e+000  1.300000e+001 -5.849567e+000
      vertex -1.255999e+000  1.082004e+001 -5.867066e+000
    endloop
  endfacet
  facet normal  9.749280e-001  0.000000e+000 -2.225209e-001
    outer loop
      vertex  6.000000e+000  1.300000e+001  7.347638e-016
      vertex  6.000000e+000  3.000000e+000  7.347638e-016
      vertex  5.405813e+000  1.000000e+001 -2.603302e+000
    endloop
  endfacet
  facet normal  9.749279e-001  0.000000e+000 -2.225209e-001
    outer loop
      vertex  5.405813e+000  1.000000e+001 -2.603302e+000
      vertex  6.000000e+000  3.000000e+000  7.347638e-016
      vertex  5.405813e+000  3.000000e+000 -2.603302e+000
    endloop
  endfacet
  facet normal  7.818315e-001  0.000000e+000 -6.234897e-001
    outer loop
      vertex  5.405813e+000  1.000000e+001 -2.603302e+000
      vertex  5.405813e+000  3.000000e+000 -2.603302e+000
      vertex  3.740939e+000  1.000000e+001 -4.690989e+000
    endloop
  endfacet
  facet normal  7.818315e-001  0.000000e+000 -6.234897e-001
    outer loop
      vertex  3.740939e+000  1.000000e+001 -4.690989e+000
      vertex  5.405813e+000  3.000000e+000 -2.603302e+000
      vertex  3.740939e+000  3.000000e+000 -4.690989e+000
    endloop
  endfacet
  facet normal -7.818315e-001  -0.000000e+000 -6.234897e-001
    outer loop
      vertex -5.405813e+000  3.000000e+000 -2.603302e+000
      vertex -5.405813e+000  1.000000e+001 -2.603302e+000
      vertex -3.740939e+000  3.000000e+000 -4.690989e+000
    endloop
  endfacet
  facet normal -7.818315e-001  0.000000e+000 -6.234897e-001
    outer loop
      vertex -3.740939e+000  3.000000e+000 -4.690989e+000
      vertex -5.405813e+000  1.000000e+001 -2.603302e+000
      vertex -3.740939e+000  1.000000e+001 -4.690989e+000
    endloop
  endfacet
  facet normal -4.338837e-001  -0.000000e+000 -9.009689e-001
    outer loop
      vertex -3.740939e+000  3.000000e+000 -4.690989e+000
      vertex -3.740939e+000  1.000000e+001 -4.690989e+000
      vertex -1.335126e+000  3.000000e+000 -5.849567e+000
    endloop
  endfacet
  facet normal -4.465734e-001 -5.393797e-003 -8.947307e-001
    outer loop
      vertex -1.335126e+000  3.000000e+000 -5.849567e+000
      vertex -3.740939e+000  1.000000e+001 -4.690989e+000
      vertex -1.500000e+000  1.000000e+001 -5.809475e+000
    endloop
  endfacet
  facet normal -2.246988e-001  2.885924e-004 -9.744282e-001
    outer loop
      vertex -1.335126e+000  3.000000e+000 -5.849567e+000
      vertex -1.500000e+000  1.000000e+001 -5.809475e+000
      vertex -1.205489e+000  9.107366e+000 -5.877652e+000
    endloop
  endfacet
  facet normal  7.818315e-001  0.000000e+000 -6.234898e-001
    outer loop
      vertex  3.740939e+000  1.000000e+001 -4.690989e+000
      vertex  3.740939e+000  1.300000e+001 -4.690989e+000
      vertex  5.405813e+000  1.000000e+001 -2.603302e+000
    endloop
  endfacet
  facet normal  7.818315e-001  0.000000e+000 -6.234898e-001
    outer loop
      vertex  5.405813e+000  1.000000e+001 -2.603302e+000
      vertex  3.740939e+000  1.300000e+001 -4.690989e+000
      vertex  5.405813e+000  1.300000e+001 -2.603302e+000
    endloop
  endfacet
  facet normal  9.749279e-001  0.000000e+000 -2.225209e-001
    outer loop
      vertex  5.405813e+000  1.000000e+001 -2.603302e+000
      vertex  5.405813e+000  1.300000e+001 -2.603302e+000
      vertex  6.000000e+000  1.300000e+001  7.347638e-016
    endloop
  endfacet
  facet normal  3.383415e-001 -5.037607e-005  9.410234e-001
    outer loop
      vertex -1.236068e+000 -1.300000e+001 -3.804226e+000
      vertex -1.205743e+000  9.107708e+000 -3.813946e+000
      vertex -1.500000e+000  1.000000e+001 -3.708099e+000
    endloop
  endfacet
  facet normal  2.736119e-001  3.834784e-004  9.618401e-001
    outer loop
      vertex -1.236068e+000  1.300000e+001 -3.804226e+000
      vertex -1.256109e+000  1.081987e+001 -3.797656e+000
      vertex -9.339832e-001  1.117374e+001 -3.889431e+000
    endloop
  endfacet
  facet normal -5.877853e-001  0.000000e+000  8.090170e-001
    outer loop
      vertex  1.236068e+000 -1.300000e+001 -3.804226e+000
      vertex  3.236068e+000 -1.300000e+001 -2.351141e+000
      vertex  3.236068e+000  1.000000e+001 -2.351141e+000
    endloop
  endfacet
  facet normal -6.158242e-001  3.773899e-003  7.878745e-001
    outer loop
      vertex  1.236068e+000 -1.300000e+001 -3.804226e+000
      vertex  3.236068e+000  1.000000e+001 -2.351141e+000
      vertex  1.500000e+000  1.000000e+001 -3.708099e+000
    endloop
  endfacet
  facet normal -3.447952e-001  3.348515e-005  9.386779e-001
    outer loop
      vertex  1.236068e+000 -1.300000e+001 -3.804226e+000
      vertex  1.500000e+000  1.000000e+001 -3.708099e+000
      vertex  1.256109e+000  9.180127e+000 -3.797656e+000
    endloop
  endfacet
  facet normal -2.739636e-001 -3.734538e-005  9.617400e-001
    outer loop
      vertex  1.236068e+000 -1.300000e+001 -3.804226e+000
      vertex  1.256109e+000  9.180127e+000 -3.797656e+000
      vertex  9.339832e-001  8.826256e+000 -3.889431e+000
    endloop
  endfacet
  facet normal -1.242505e-001  2.153847e-003  9.922485e-001
    outer loop
      vertex  1.236068e+000 -1.300000e+001 -3.804226e+000
      vertex  9.339832e-001  8.826256e+000 -3.889431e+000
      vertex  4.761695e-002  8.500756e+000 -3.999717e+000
    endloop
  endfacet
  facet normal  4.940453e-002  1.181134e-002  9.987090e-001
    outer loop
      vertex  1.236068e+000 -1.300000e+001 -3.804226e+000
      vertex  4.761695e-002  8.500756e+000 -3.999717e+000
      vertex -4.299208e-001  8.562931e+000 -3.976829e+000
    endloop
  endfacet
  facet normal  2.221663e-001  2.496695e-002  9.746891e-001
    outer loop
      vertex  1.236068e+000 -1.300000e+001 -3.804226e+000
      vertex -4.299208e-001  8.562931e+000 -3.976829e+000
      vertex -1.205743e+000  9.107708e+000 -3.813946e+000
    endloop
  endfacet
  facet normal  0.000000e+000  4.396588e-004  9.999999e-001
    outer loop
      vertex  1.236068e+000 -1.300000e+001 -3.804226e+000
      vertex -1.205743e+000  9.107708e+000 -3.813946e+000
      vertex -1.236068e+000 -1.300000e+001 -3.804226e+000
    endloop
  endfacet
  facet normal  0.000000e+000 -4.660491e-002  9.989134e-001
    outer loop
      vertex  1.236068e+000  1.300000e+001 -3.804226e+000
      vertex -1.236068e+000  1.300000e+001 -3.804226e+000
      vertex -9.339832e-001  1.117374e+001 -3.889431e+000
    endloop
  endfacet
  facet normal  2.309901e-001 -3.173850e-001  9.197339e-001
    outer loop
      vertex  1.236068e+000  1.300000e+001 -3.804226e+000
      vertex -9.339832e-001  1.117374e+001 -3.889431e+000
      vertex -4.761695e-002  1.149924e+001 -3.999717e+000
    endloop
  endfacet
  facet normal -5.810042e-002 -7.992704e-002  9.951060e-001
    outer loop
      vertex  1.236068e+000  1.300000e+001 -3.804226e+000
      vertex -4.761695e-002  1.149924e+001 -3.999717e+000
      vertex  4.299208e-001  1.143707e+001 -3.976829e+000
    endloop
  endfacet
  facet normal -2.065052e-001 -1.541010e-003  9.784443e-001
    outer loop
      vertex  1.236068e+000  1.300000e+001 -3.804226e+000
      vertex  4.299208e-001  1.143707e+001 -3.976829e+000
      vertex  1.205743e+000  1.089229e+001 -3.813946e+000
    endloop
  endfacet
  facet normal -3.371106e-001  5.086486e-004  9.414649e-001
    outer loop
      vertex  1.236068e+000  1.300000e+001 -3.804226e+000
      vertex  1.205743e+000  1.089229e+001 -3.813946e+000
      vertex  1.500000e+000  1.000000e+001 -3.708099e+000
    endloop
  endfacet
  facet normal -6.155710e-001 -2.892133e-002  7.875506e-001
    outer loop
      vertex  1.236068e+000  1.300000e+001 -3.804226e+000
      vertex  1.500000e+000  1.000000e+001 -3.708099e+000
      vertex  3.236068e+000  1.000000e+001 -2.351141e+000
    endloop
  endfacet
  facet normal -5.877853e-001  0.000000e+000  8.090169e-001
    outer loop
      vertex  1.236068e+000  1.300000e+001 -3.804226e+000
      vertex  3.236068e+000  1.000000e+001 -2.351141e+000
      vertex  3.236068e+000  1.300000e+001 -2.351141e+000
    endloop
  endfacet
  facet normal  9.510565e-001  -0.000000e+000  3.090170e-001
    outer loop
      vertex -4.000000e+000  1.300000e+001  0.000000e+000
      vertex -4.000000e+000 -1.300000e+001  0.000000e+000
      vertex -3.236068e+000  1.300000e+001 -2.351141e+000
    endloop
  endfacet
  facet normal  9.510565e-001  0.000000e+000  3.090170e-001
    outer loop
      vertex -3.236068e+000  1.300000e+001 -2.351141e+000
      vertex -4.000000e+000 -1.300000e+001  0.000000e+000
      vertex -3.236068e+000  1.000000e+001 -2.351141e+000
    endloop
  endfacet
  facet normal  5.877853e-001  -0.000000e+000  8.090169e-001
    outer loop
      vertex -3.236068e+000  1.300000e+001 -2.351141e+000
      vertex -3.236068e+000  1.000000e+001 -2.351141e+000
      vertex -1.236068e+000  1.300000e+001 -3.804226e+000
    endloop
  endfacet
  facet normal  6.155710e-001 -2.892133e-002  7.875506e-001
    outer loop
      vertex -1.236068e+000  1.300000e+001 -3.804226e+000
      vertex -3.236068e+000  1.000000e+001 -2.351141e+000
      vertex -1.500000e+000  1.000000e+001 -3.708099e+000
    endloop
  endfacet
  facet normal  3.457336e-001 -3.503367e-004  9.383327e-001
    outer loop
      vertex -1.236068e+000  1.300000e+001 -3.804226e+000
      vertex -1.500000e+000  1.000000e+001 -3.708099e+000
      vertex -1.256109e+000  1.081987e+001 -3.797656e+000
    endloop
  endfacet
  facet normal -9.510565e-001  0.000000e+000  3.090170e-001
    outer loop
      vertex  3.236068e+000 -1.300000e+001 -2.351141e+000
      vertex  4.000000e+000 -1.300000e+001  4.898425e-016
      vertex  3.236068e+000  1.000000e+001 -2.351141e+000
    endloop
  endfacet
  facet normal -9.510565e-001  0.000000e+000  3.090170e-001
    outer loop
      vertex  3.236068e+000  1.000000e+001 -2.351141e+000
      vertex  4.000000e+000 -1.300000e+001  4.898425e-016
      vertex  4.000000e+000  1.300000e+001  4.898425e-016
    endloop
  endfacet
  facet normal -9.510565e-001  0.000000e+000  3.090170e-001
    outer loop
      vertex  3.236068e+000  1.000000e+001 -2.351141e+000
      vertex  4.000000e+000  1.300000e+001  4.898425e-016
      vertex  3.236068e+000  1.300000e+001 -2.351141e+000
    endloop
  endfacet
  facet normal  5.877820e-001  3.363761e-003  8.090124e-001
    outer loop
      vertex -1.236068e+000 -1.300000e+001 -3.804226e+000
      vertex -1.500000e+000  1.000000e+001 -3.708099e+000
      vertex -3.236068e+000 -1.300000e+001 -2.351141e+000
    endloop
  endfacet
  facet normal  6.158286e-001  -0.000000e+000  7.878802e-001
    outer loop
      vertex -3.236068e+000 -1.300000e+001 -2.351141e+000
      vertex -1.500000e+000  1.000000e+001 -3.708099e+000
      vertex -3.236068e+000  1.000000e+001 -2.351141e+000
    endloop
  endfacet
  facet normal  9.510565e-001  0.000000e+000  3.090170e-001
    outer loop
      vertex -3.236068e+000 -1.300000e+001 -2.351141e+000
      vertex -3.236068e+000  1.000000e+001 -2.351141e+000
      vertex -4.000000e+000 -1.300000e+001  0.000000e+000
    endloop
  endfacet
  facet normal  9.584899e-001 -2.851264e-001  0.000000e+000
    outer loop
      vertex -1.500000e+000  1.000000e+001 -3.708099e+000
      vertex -1.500000e+000  1.000000e+001 -5.809475e+000
      vertex -1.256109e+000  1.081987e+001 -3.797656e+000
    endloop
  endfacet
  facet normal  9.584714e-001 -2.851885e-001  2.755449e-005
    outer loop
      vertex -1.256109e+000  1.081987e+001 -3.797656e+000
      vertex -1.500000e+000  1.000000e+001 -5.809475e+000
      vertex -1.255999e+000  1.082004e+001 -5.867066e+000
    endloop
  endfacet
  facet normal  7.394966e-001 -6.731602e-001 -1.549308e-005
    outer loop
      vertex -1.256109e+000  1.081987e+001 -3.797656e+000
      vertex -1.255999e+000  1.082004e+001 -5.867066e+000
      vertex -9.339832e-001  1.117374e+001 -3.889431e+000
    endloop
  endfacet
  facet normal  6.254476e-001 -7.793622e-001  3.754938e-002
    outer loop
      vertex -9.339832e-001  1.117374e+001 -3.889431e+000
      vertex -1.255999e+000  1.082004e+001 -5.867066e+000
      vertex -5.162566e-001  1.140836e+001 -5.977749e+000
    endloop
  endfacet
  facet normal  3.403663e-001 -9.395460e-001 -3.747166e-002
    outer loop
      vertex -9.339832e-001  1.117374e+001 -3.889431e+000
      vertex -5.162566e-001  1.140836e+001 -5.977749e+000
      vertex -4.761695e-002  1.149924e+001 -3.999717e+000
    endloop
  endfacet
  facet normal -1.323449e-001 -9.882270e-001  7.676081e-002
    outer loop
      vertex -4.761695e-002  1.149924e+001 -3.999717e+000
      vertex -5.162566e-001  1.140836e+001 -5.977749e+000
      vertex  4.299208e-001  1.143707e+001 -3.976829e+000
    endloop
  endfacet
  facet normal  3.011773e-002 -9.995464e-001  9.931495e-005
    outer loop
      vertex  4.299208e-001  1.143707e+001 -3.976829e+000
      vertex -5.162566e-001  1.140836e+001 -5.977749e+000
      vertex  4.305277e-001  1.143689e+001 -5.984534e+000
    endloop
  endfacet
  facet normal -5.746523e-001 -8.183976e-001 -9.985447e-005
    outer loop
      vertex  4.299208e-001  1.143707e+001 -3.976829e+000
      vertex  4.305277e-001  1.143689e+001 -5.984534e+000
      vertex  1.205743e+000  1.089229e+001 -3.813946e+000
    endloop
  endfacet
  facet normal -5.747173e-001 -8.183520e-001 -6.518498e-005
    outer loop
      vertex  1.205743e+000  1.089229e+001 -3.813946e+000
      vertex  4.305277e-001  1.143689e+001 -5.984534e+000
      vertex  1.205489e+000  1.089263e+001 -5.877652e+000
    endloop
  endfacet
  facet normal -9.496940e-001 -3.131795e-001  6.467320e-005
    outer loop
      vertex  1.205743e+000  1.089229e+001 -3.813946e+000
      vertex  1.205489e+000  1.089263e+001 -5.877652e+000
      vertex  1.500000e+000  1.000000e+001 -3.708099e+000
    endloop
  endfacet
  facet normal -9.496472e-001 -3.133212e-001  -0.000000e+000
    outer loop
      vertex  1.500000e+000  1.000000e+001 -3.708099e+000
      vertex  1.205489e+000  1.089263e+001 -5.877652e+000
      vertex  1.500000e+000  1.000000e+001 -5.809475e+000
    endloop
  endfacet
  facet normal -9.584899e-001  2.851264e-001  0.000000e+000
    outer loop
      vertex  1.500000e+000  1.000000e+001 -3.708099e+000
      vertex  1.500000e+000  1.000000e+001 -5.809475e+000
      vertex  1.256109e+000  9.180127e+000 -3.797656e+000
    endloop
  endfacet
  facet normal -9.584714e-001  2.851885e-001  2.755449e-005
    outer loop
      vertex  1.256109e+000  9.180127e+000 -3.797656e+000
      vertex  1.500000e+000  1.000000e+001 -5.809475e+000
      vertex  1.255999e+000  9.179959e+000 -5.867066e+000
    endloop
  endfacet
  facet normal -7.394966e-001  6.731602e-001 -1.549308e-005
    outer loop
      vertex  1.256109e+000  9.180127e+000 -3.797656e+000
      vertex  1.255999e+000  9.179959e+000 -5.867066e+000
      vertex  9.339832e-001  8.826256e+000 -3.889431e+000
    endloop
  endfacet
  facet normal -6.254476e-001  7.793622e-001  3.754938e-002
    outer loop
      vertex  9.339832e-001  8.826256e+000 -3.889431e+000
      vertex  1.255999e+000  9.179959e+000 -5.867066e+000
      vertex  5.162566e-001  8.591640e+000 -5.977749e+000
    endloop
  endfacet
  facet normal -3.403663e-001  9.395460e-001 -3.747166e-002
    outer loop
      vertex  9.339832e-001  8.826256e+000 -3.889431e+000
      vertex  5.162566e-001  8.591640e+000 -5.977749e+000
      vertex  4.761695e-002  8.500756e+000 -3.999717e+000
    endloop
  endfacet
  facet normal  1.323449e-001  9.882270e-001  7.676081e-002
    outer loop
      vertex  4.761695e-002  8.500756e+000 -3.999717e+000
      vertex  5.162566e-001  8.591640e+000 -5.977749e+000
      vertex -4.299208e-001  8.562931e+000 -3.976829e+000
    endloop
  endfacet
  facet normal -3.011773e-002  9.995464e-001  9.931495e-005
    outer loop
      vertex -4.299208e-001  8.562931e+000 -3.976829e+000
      vertex  5.162566e-001  8.591640e+000 -5.977749e+000
      vertex -4.305277e-001  8.563112e+000 -5.984534e+000
    endloop
  endfacet
  facet normal  5.746523e-001  8.183976e-001 -9.985447e-005
    outer loop
      vertex -4.299208e-001  8.562931e+000 -3.976829e+000
      vertex -4.305277e-001  8.563112e+000 -5.984534e+000
      vertex -1.205743e+000  9.107708e+000 -3.813946e+000
    endloop
  endfacet
  facet normal  5.747173e-001  8.183520e-001 -6.518498e-005
    outer loop
      vertex -1.205743e+000  9.107708e+000 -3.813946e+000
      vertex -4.305277e-001  8.563112e+000 -5.984534e+000
      vertex -1.205489e+000  9.107366e+000 -5.877652e+000
    endloop
  endfacet
  facet normal  9.496940e-001  3.131795e-001  6.467320e-005
    outer loop
      vertex -1.205743e+000  9.107708e+000 -3.813946e+000
      vertex -1.205489e+000  9.107366e+000 -5.877652e+000
      vertex -1.500000e+000  1.000000e+001 -3.708099e+000
    endloop
  endfacet
  facet normal  9.496472e-001  3.133212e-001  0.000000e+000
    outer loop
      vertex -1.500000e+000  1.000000e+001 -3.708099e+000
      vertex -1.205489e+000  9.107366e+000 -5.877652e+000
      vertex -1.500000e+000  1.000000e+001 -5.809475e+000
    endloop
  endfacet
  facet normal -9.510565e-001  0.000000e+000 -3.090170e-001
    outer loop
      vertex  4.000000e+000  1.300000e+001  4.898425e-016
      vertex  4.000000e+000 -1.300000e+001  4.898425e-016
      vertex  3.236068e+000  1.300000e+001  2.351141e+000
    endloop
  endfacet
  facet normal -9.510565e-001  -0.000000e+000 -3.090170e-001
    outer loop
      vertex  3.236068e+000  1.300000e+001  2.351141e+000
      vertex  4.000000e+000 -1.300000e+001  4.898425e-016
      vertex  3.236068e+000 -1.300000e+001  2.351141e+000
    endloop
  endfacet
  facet normal -5.877853e-001  0.000000e+000 -8.090170e-001
    outer loop
      vertex  3.236068e+000  1.300000e+001  2.351141e+000
      vertex  3.236068e+000 -1.300000e+001  2.351141e+000
      vertex  1.236068e+000  1.300000e+001  3.804226e+000
    endloop
  endfacet
  facet normal -5.877853e-001  -0.000000e+000 -8.090170e-001
    outer loop
      vertex  1.236068e+000  1.300000e+001  3.804226e+000
      vertex  3.236068e+000 -1.300000e+001  2.351141e+000
      vertex  1.236068e+000 -1.300000e+001  3.804226e+000
    endloop
  endfacet
  facet normal  0.000000e+000  0.000000e+000 -1.000000e+000
    outer loop
      vertex  1.236068e+000  1.300000e+001  3.804226e+000
      vertex  1.236068e+000 -1.300000e+001  3.804226e+000
      vertex -1.236068e+000  1.300000e+001  3.804226e+000
    endloop
  endfacet
  facet normal  0.000000e+000  0.000000e+000 -1.000000e+000
    outer loop
      vertex -1.236068e+000  1.300000e+001  3.804226e+000
      vertex  1.236068e+000 -1.300000e+001  3.804226e+000
      vertex -1.236068e+000 -1.300000e+001  3.804226e+000
    endloop
  endfacet
  facet normal  5.877853e-001  0.000000e+000 -8.090170e-001
    outer loop
      vertex -1.236068e+000  1.300000e+001  3.804226e+000
      vertex -1.236068e+000 -1.300000e+001  3.804226e+000
      vertex -3.236068e+000  1.300000e+001  2.351141e+000
    endloop
  endfacet
  facet normal  5.877853e-001  0.000000e+000 -8.090170e-001
    outer loop
      vertex -3.236068e+000  1.300000e+001  2.351141e+000
      vertex -1.236068e+000 -1.300000e+001  3.804226e+000
      vertex -3.236068e+000 -1.300000e+001  2.351141e+000
    endloop
  endfacet
  facet normal  9.510565e-001  0.000000e+000 -3.090170e-001
    outer loop
      vertex -3.236068e+000  1.300000e+001  2.351141e+000
      vertex -3.236068e+000 -1.300000e+001  2.351141e+000
      vertex -4.000000e+000  1.300000e+001  0.000000e+000
    endloop
  endfacet
  facet normal  9.510565e-001  0.000000e+000 -3.090170e-001
    outer loop
      vertex -4.000000e+000  1.300000e+001  0.000000e+000
      vertex -3.236068e+000 -1.300000e+001  2.351141e+000
      vertex -4.000000e+000 -1.300000e+001  0.000000e+000
    endloop
  endfacet
  facet normal  0.000000e+000 -1.000000e+000  -0.000000e+000
    outer loop
      vertex -3.740939e+000 -3.000000e+000 -4.690989e+000
      vertex -5.405813e+000 -3.000000e+000 -2.603302e+000
      vertex -3.677945e+001 -3.000000e+000 -7.315887e+000
    endloop
  endfacet
  facet normal  0.000000e+000 -1.000000e+000  -0.000000e+000
    outer loop
      vertex -1.335126e+000 -3.000000e+000 -5.849567e+000
      vertex -3.740939e+000 -3.000000e+000 -4.690989e+000
      vertex -3.677945e+001 -3.000000e+000 -7.315887e+000
    endloop
  endfacet
  facet normal  0.000000e+000 -1.000000e+000  -0.000000e+000
    outer loop
      vertex  3.750000e+001 -3.000000e+000  4.592274e-015
      vertex  3.677945e+001 -3.000000e+000  7.315887e+000
      vertex  1.335126e+000 -3.000000e+000  5.849567e+000
    endloop
  endfacet
  facet normal  0.000000e+000 -1.000000e+000  0.000000e+000
    outer loop
      vertex  3.750000e+001 -3.000000e+000  4.592274e-015
      vertex  1.335126e+000 -3.000000e+000  5.849567e+000
      vertex  3.740939e+000 -3.000000e+000  4.690989e+000
    endloop
  endfacet
  facet normal  0.000000e+000 -9.999999e-001  0.000000e+000
    outer loop
      vertex  3.750000e+001 -3.000000e+000  4.592274e-015
      vertex  3.740939e+000 -3.000000e+000  4.690989e+000
      vertex  5.405813e+000 -3.000000e+000  2.603302e+000
    endloop
  endfacet
  facet normal  0.000000e+000 -9.999999e-001  0.000000e+000
    outer loop
      vertex  3.750000e+001 -3.000000e+000  4.592274e-015
      vertex  5.405813e+000 -3.000000e+000  2.603302e+000
      vertex  6.000000e+000 -3.000000e+000  7.347638e-016
    endloop
  endfacet
  facet normal  -0.000000e+000 -1.000000e+000  -0.000000e+000
    outer loop
      vertex  3.677945e+001 -3.000000e+000  7.315887e+000
      vertex  3.464548e+001 -3.000000e+000  1.435063e+001
      vertex  3.118011e+001 -3.000000e+000  2.083388e+001
    endloop
  endfacet
  facet normal  -0.000000e+000 -1.000000e+000  -0.000000e+000
    outer loop
      vertex  3.677945e+001 -3.000000e+000  7.315887e+000
      vertex  3.118011e+001 -3.000000e+000  2.083388e+001
      vertex  2.651650e+001 -3.000000e+000  2.651650e+001
    endloop
  endfacet
  facet normal  -0.000000e+000 -1.000000e+000  -0.000000e+000
    outer loop
      vertex  3.677945e+001 -3.000000e+000  7.315887e+000
      vertex  2.651650e+001 -3.000000e+000  2.651650e+001
      vertex  2.083388e+001 -3.000000e+000  3.118011e+001
    endloop
  endfacet
  facet normal  -0.000000e+000 -9.999999e-001  -0.000000e+000
    outer loop
      vertex  3.677945e+001 -3.000000e+000  7.315887e+000
      vertex  2.083388e+001 -3.000000e+000  3.118011e+001
      vertex  1.435063e+001 -3.000000e+000  3.464548e+001
    endloop
  endfacet
  facet normal  -0.000000e+000 -1.000000e+000  -0.000000e+000
    outer loop
      vertex  3.677945e+001 -3.000000e+000  7.315887e+000
      vertex  1.435063e+001 -3.000000e+000  3.464548e+001
      vertex  7.315887e+000 -3.000000e+000  3.677945e+001
    endloop
  endfacet
  facet normal  0.000000e+000 -1.000000e+000  -0.000000e+000
    outer loop
      vertex -1.335126e+000 -3.000000e+000  5.849567e+000
      vertex -7.315887e+000 -3.000000e+000  3.677945e+001
      vertex -1.435063e+001 -3.000000e+000  3.464548e+001
    endloop
  endfacet
  facet normal  0.000000e+000 -1.000000e+000  -0.000000e+000
    outer loop
      vertex -1.335126e+000 -3.000000e+000  5.849567e+000
      vertex -1.435063e+001 -3.000000e+000  3.464548e+001
      vertex -2.083388e+001 -3.000000e+000  3.118011e+001
    endloop
  endfacet
  facet normal  0.000000e+000 -1.000000e+000  -0.000000e+000
    outer loop
      vertex -1.335126e+000 -3.000000e+000  5.849567e+000
      vertex -2.083388e+001 -3.000000e+000  3.118011e+001
      vertex -2.651650e+001 -3.000000e+000  2.651650e+001
    endloop
  endfacet
  facet normal  0.000000e+000 -9.999999e-001  -0.000000e+000
    outer loop
      vertex -1.335126e+000 -3.000000e+000  5.849567e+000
      vertex -2.651650e+001 -3.000000e+000  2.651650e+001
      vertex -3.118011e+001 -3.000000e+000  2.083388e+001
    endloop
  endfacet
  facet normal  0.000000e+000 -9.999999e-001  -0.000000e+000
    outer loop
      vertex -1.335126e+000 -3.000000e+000  5.849567e+000
      vertex -3.118011e+001 -3.000000e+000  2.083388e+001
      vertex -3.464548e+001 -3.000000e+000  1.435063e+001
    endloop
  endfacet
  facet normal  0.000000e+000 -1.000000e+000  -0.000000e+000
    outer loop
      vertex -1.335126e+000 -3.000000e+000  5.849567e+000
      vertex -3.464548e+001 -3.000000e+000  1.435063e+001
      vertex -3.677945e+001 -3.000000e+000  7.315887e+000
    endloop
  endfacet
  facet normal  0.000000e+000 -1.000000e+000  -0.000000e+000
    outer loop
      vertex -1.335126e+000 -3.000000e+000  5.849567e+000
      vertex -3.677945e+001 -3.000000e+000  7.315887e+000
      vertex -3.750000e+001 -3.000000e+000  0.000000e+000
    endloop
  endfacet
  facet normal  -0.000000e+000 -1.000000e+000  0.000000e+000
    outer loop
      vertex  6.888411e-015 -3.000000e+000 -3.750000e+001
      vertex  7.315887e+000 -3.000000e+000 -3.677945e+001
      vertex  1.435063e+001 -3.000000e+000 -3.464548e+001
    endloop
  endfacet
  facet normal  -0.000000e+000 -9.999999e-001  0.000000e+000
    outer loop
      vertex  6.888411e-015 -3.000000e+000 -3.750000e+001
      vertex  1.435063e+001 -3.000000e+000 -3.464548e+001
      vertex  2.083388e+001 -3.000000e+000 -3.118011e+001
    endloop
  endfacet
  facet normal  -0.000000e+000 -1.000000e+000  0.000000e+000
    outer loop
      vertex  6.888411e-015 -3.000000e+000 -3.750000e+001
      vertex  2.083388e+001 -3.000000e+000 -3.118011e+001
      vertex  2.651650e+001 -3.000000e+000 -2.651650e+001
    endloop
  endfacet
  facet normal  -0.000000e+000 -9.999999e-001  0.000000e+000
    outer loop
      vertex  6.888411e-015 -3.000000e+000 -3.750000e+001
      vertex  2.651650e+001 -3.000000e+000 -2.651650e+001
      vertex  3.118011e+001 -3.000000e+000 -2.083388e+001
    endloop
  endfacet
  facet normal  -0.000000e+000 -1.000000e+000  0.000000e+000
    outer loop
      vertex  6.888411e-015 -3.000000e+000 -3.750000e+001
      vertex  3.118011e+001 -3.000000e+000 -2.083388e+001
      vertex  3.464548e+001 -3.000000e+000 -1.435063e+001
    endloop
  endfacet
  facet normal  -0.000000e+000 -1.000000e+000  0.000000e+000
    outer loop
      vertex  6.888411e-015 -3.000000e+000 -3.750000e+001
      vertex  3.464548e+001 -3.000000e+000 -1.435063e+001
      vertex  3.677945e+001 -3.000000e+000 -7.315887e+000
    endloop
  endfacet
  facet normal  -0.000000e+000 -1.000000e+000  0.000000e+000
    outer loop
      vertex  6.888411e-015 -3.000000e+000 -3.750000e+001
      vertex  3.677945e+001 -3.000000e+000 -7.315887e+000
      vertex  1.335126e+000 -3.000000e+000 -5.849567e+000
    endloop
  endfacet
  facet normal  -0.000000e+000 -1.000000e+000  0.000000e+000
    outer loop
      vertex  6.888411e-015 -3.000000e+000 -3.750000e+001
      vertex  1.335126e+000 -3.000000e+000 -5.849567e+000
      vertex -1.335126e+000 -3.000000e+000 -5.849567e+000
    endloop
  endfacet
  facet normal  0.000000e+000 -1.000000e+000  -0.000000e+000
    outer loop
      vertex  6.888411e-015 -3.000000e+000 -3.750000e+001
      vertex -1.335126e+000 -3.000000e+000 -5.849567e+000
      vertex -3.677945e+001 -3.000000e+000 -7.315887e+000
    endloop
  endfacet
  facet normal  0.000000e+000 -1.000000e+000  0.000000e+000
    outer loop
      vertex  6.888411e-015 -3.000000e+000 -3.750000e+001
      vertex -3.677945e+001 -3.000000e+000 -7.315887e+000
      vertex -3.464548e+001 -3.000000e+000 -1.435063e+001
    endloop
  endfacet
  facet normal  0.000000e+000 -1.000000e+000  0.000000e+000
    outer loop
      vertex  6.888411e-015 -3.000000e+000 -3.750000e+001
      vertex -3.464548e+001 -3.000000e+000 -1.435063e+001
      vertex -3.118011e+001 -3.000000e+000 -2.083388e+001
    endloop
  endfacet
  facet normal  0.000000e+000 -9.999999e-001  0.000000e+000
    outer loop
      vertex  6.888411e-015 -3.000000e+000 -3.750000e+001
      vertex -3.118011e+001 -3.000000e+000 -2.083388e+001
      vertex -2.651650e+001 -3.000000e+000 -2.651650e+001
    endloop
  endfacet
  facet normal  0.000000e+000 -1.000000e+000  0.000000e+000
    outer loop
      vertex  6.888411e-015 -3.000000e+000 -3.750000e+001
      vertex -2.651650e+001 -3.000000e+000 -2.651650e+001
      vertex -2.083388e+001 -3.000000e+000 -3.118011e+001
    endloop
  endfacet
  facet normal  0.000000e+000 -9.999999e-001  0.000000e+000
    outer loop
      vertex  6.888411e-015 -3.000000e+000 -3.750000e+001
      vertex -2.083388e+001 -3.000000e+000 -3.118011e+001
      vertex -1.435063e+001 -3.000000e+000 -3.464548e+001
    endloop
  endfacet
  facet normal  0.000000e+000 -1.000000e+000  0.000000e+000
    outer loop
      vertex  6.888411e-015 -3.000000e+000 -3.750000e+001
      vertex -1.435063e+001 -3.000000e+000 -3.464548e+001
      vertex -7.315887e+000 -3.000000e+000 -3.677945e+001
    endloop
  endfacet
  facet normal  0.000000e+000 -1.000000e+000  0.000000e+000
    outer loop
      vertex  3.677945e+001 -3.000000e+000 -7.315887e+000
      vertex  3.750000e+001 -3.000000e+000  4.592274e-015
      vertex  6.000000e+000 -3.000000e+000  7.347638e-016
    endloop
  endfacet
  facet normal  0.000000e+000 -1.000000e+000  -0.000000e+000
    outer loop
      vertex  3.677945e+001 -3.000000e+000 -7.315887e+000
      vertex  6.000000e+000 -3.000000e+000  7.347638e-016
      vertex  5.405813e+000 -3.000000e+000 -2.603302e+000
    endloop
  endfacet
  facet normal  0.000000e+000 -1.000000e+000  -0.000000e+000
    outer loop
      vertex  3.677945e+001 -3.000000e+000 -7.315887e+000
      vertex  5.405813e+000 -3.000000e+000 -2.603302e+000
      vertex  3.740939e+000 -3.000000e+000 -4.690989e+000
    endloop
  endfacet
  facet normal  0.000000e+000 -1.000000e+000  -0.000000e+000
    outer loop
      vertex  3.677945e+001 -3.000000e+000 -7.315887e+000
      vertex  3.740939e+000 -3.000000e+000 -4.690989e+000
      vertex  1.335126e+000 -3.000000e+000 -5.849567e+000
    endloop
  endfacet
  facet normal  0.000000e+000 -1.000000e+000  0.000000e+000
    outer loop
      vertex -3.750000e+001 -3.000000e+000  0.000000e+000
      vertex -3.677945e+001 -3.000000e+000 -7.315887e+000
      vertex -5.405813e+000 -3.000000e+000 -2.603302e+000
    endloop
  endfacet
  facet normal  0.000000e+000 -9.999999e-001  0.000000e+000
    outer loop
      vertex -3.750000e+001 -3.000000e+000  0.000000e+000
      vertex -5.405813e+000 -3.000000e+000 -2.603302e+000
      vertex -6.000000e+000 -3.000000e+000  0.000000e+000
    endloop
  endfacet
  facet normal  0.000000e+000 -1.000000e+000  0.000000e+000
    outer loop
      vertex -3.750000e+001 -3.000000e+000  0.000000e+000
      vertex -6.000000e+000 -3.000000e+000  0.000000e+000
      vertex -5.405813e+000 -3.000000e+000  2.603302e+000
    endloop
  endfacet
  facet normal  -0.000000e+000 -9.999999e-001  0.000000e+000
    outer loop
      vertex -3.750000e+001 -3.000000e+000  0.000000e+000
      vertex -5.405813e+000 -3.000000e+000  2.603302e+000
      vertex -3.740939e+000 -3.000000e+000  4.690989e+000
    endloop
  endfacet
  facet normal  -0.000000e+000 -9.999999e-001  0.000000e+000
    outer loop
      vertex -3.750000e+001 -3.000000e+000  0.000000e+000
      vertex -3.740939e+000 -3.000000e+000  4.690989e+000
      vertex -1.335126e+000 -3.000000e+000  5.849567e+000
    endloop
  endfacet
  facet normal  0.000000e+000 -1.000000e+000  0.000000e+000
    outer loop
      vertex -7.315887e+000 -3.000000e+000  3.677945e+001
      vertex -1.335126e+000 -3.000000e+000  5.849567e+000
      vertex -2.296137e-015 -3.000000e+000  3.750000e+001
    endloop
  endfacet
  facet normal  0.000000e+000 -1.000000e+000  -0.000000e+000
    outer loop
      vertex -2.296137e-015 -3.000000e+000  3.750000e+001
      vertex -1.335126e+000 -3.000000e+000  5.849567e+000
      vertex  1.335126e+000 -3.000000e+000  5.849567e+000
    endloop
  endfacet
  facet normal  0.000000e+000 -1.000000e+000  0.000000e+000
    outer loop
      vertex -2.296137e-015 -3.000000e+000  3.750000e+001
      vertex  1.335126e+000 -3.000000e+000  5.849567e+000
      vertex  7.315887e+000 -3.000000e+000  3.677945e+001
    endloop
  endfacet
  facet normal  0.000000e+000 -1.000000e+000  -0.000000e+000
    outer loop
      vertex  7.315887e+000 -3.000000e+000  3.677945e+001
      vertex  1.335126e+000 -3.000000e+000  5.849567e+000
      vertex  3.677945e+001 -3.000000e+000  7.315887e+000
    endloop
  endfacet
  facet normal  0.000000e+000  1.000000e+000  0.000000e+000
    outer loop
      vertex -3.677945e+001  3.000000e+000 -7.315887e+000
      vertex -5.405813e+000  3.000000e+000 -2.603302e+000
      vertex -3.740939e+000  3.000000e+000 -4.690989e+000
    endloop
  endfacet
  facet normal  0.000000e+000  1.000000e+000  0.000000e+000
    outer loop
      vertex -3.677945e+001  3.000000e+000 -7.315887e+000
      vertex -3.740939e+000  3.000000e+000 -4.690989e+000
      vertex -1.335126e+000  3.000000e+000 -5.849567e+000
    endloop
  endfacet
  facet normal  0.000000e+000  1.000000e+000  -0.000000e+000
    outer loop
      vertex  3.750000e+001  3.000000e+000  4.592274e-015
      vertex  6.000000e+000  3.000000e+000  7.347638e-016
      vertex  5.405813e+000  3.000000e+000  2.603302e+000
    endloop
  endfacet
  facet normal  -0.000000e+000  9.999999e-001  -0.000000e+000
    outer loop
      vertex  3.750000e+001  3.000000e+000  4.592274e-015
      vertex  5.405813e+000  3.000000e+000  2.603302e+000
      vertex  3.740939e+000  3.000000e+000  4.690989e+000
    endloop
  endfacet
  facet normal  -0.000000e+000  9.999999e-001  -0.000000e+000
    outer loop
      vertex  3.750000e+001  3.000000e+000  4.592274e-015
      vertex  3.740939e+000  3.000000e+000  4.690989e+000
      vertex  1.335126e+000  3.000000e+000  5.849567e+000
    endloop
  endfacet
  facet normal  -0.000000e+000  1.000000e+000  0.000000e+000
    outer loop
      vertex  3.750000e+001  3.000000e+000  4.592274e-015
      vertex  1.335126e+000  3.000000e+000  5.849567e+000
      vertex  3.677945e+001  3.000000e+000  7.315887e+000
    endloop
  endfacet
  facet normal  0.000000e+000  1.000000e+000  0.000000e+000
    outer loop
      vertex  3.677945e+001  3.000000e+000  7.315887e+000
      vertex  7.315887e+000  3.000000e+000  3.677945e+001
      vertex  1.435063e+001  3.000000e+000  3.464548e+001
    endloop
  endfacet
  facet normal  0.000000e+000  9.999999e-001  0.000000e+000
    outer loop
      vertex  3.677945e+001  3.000000e+000  7.315887e+000
      vertex  1.435063e+001  3.000000e+000  3.464548e+001
      vertex  2.083388e+001  3.000000e+000  3.118011e+001
    endloop
  endfacet
  facet normal  0.000000e+000  1.000000e+000  0.000000e+000
    outer loop
      vertex  3.677945e+001  3.000000e+000  7.315887e+000
      vertex  2.083388e+001  3.000000e+000  3.118011e+001
      vertex  2.651650e+001  3.000000e+000  2.651650e+001
    endloop
  endfacet
  facet normal  0.000000e+000  1.000000e+000  0.000000e+000
    outer loop
      vertex  3.677945e+001  3.000000e+000  7.315887e+000
      vertex  2.651650e+001  3.000000e+000  2.651650e+001
      vertex  3.118011e+001  3.000000e+000  2.083388e+001
    endloop
  endfacet
  facet normal  0.000000e+000  1.000000e+000  0.000000e+000
    outer loop
      vertex  3.677945e+001  3.000000e+000  7.315887e+000
      vertex  3.118011e+001  3.000000e+000  2.083388e+001
      vertex  3.464548e+001  3.000000e+000  1.435063e+001
    endloop
  endfacet
  facet normal  0.000000e+000  1.000000e+000  0.000000e+000
    outer loop
      vertex -1.335126e+000  3.000000e+000  5.849567e+000
      vertex -3.750000e+001  3.000000e+000  0.000000e+000
      vertex -3.677945e+001  3.000000e+000  7.315887e+000
    endloop
  endfacet
  facet normal  -0.000000e+000  1.000000e+000  0.000000e+000
    outer loop
      vertex -1.335126e+000  3.000000e+000  5.849567e+000
      vertex -3.677945e+001  3.000000e+000  7.315887e+000
      vertex -3.464548e+001  3.000000e+000  1.435063e+001
    endloop
  endfacet
  facet normal  -0.000000e+000  9.999999e-001  0.000000e+000
    outer loop
      vertex -1.335126e+000  3.000000e+000  5.849567e+000
      vertex -3.464548e+001  3.000000e+000  1.435063e+001
      vertex -3.118011e+001  3.000000e+000  2.083388e+001
    endloop
  endfacet
  facet normal  -0.000000e+000  9.999999e-001  0.000000e+000
    outer loop
      vertex -1.335126e+000  3.000000e+000  5.849567e+000
      vertex -3.118011e+001  3.000000e+000  2.083388e+001
      vertex -2.651650e+001  3.000000e+000  2.651650e+001
    endloop
  endfacet
  facet normal  -0.000000e+000  1.000000e+000  0.000000e+000
    outer loop
      vertex -1.335126e+000  3.000000e+000  5.849567e+000
      vertex -2.651650e+001  3.000000e+000  2.651650e+001
      vertex -2.083388e+001  3.000000e+000  3.118011e+001
    endloop
  endfacet
  facet normal  -0.000000e+000  1.000000e+000  0.000000e+000
    outer loop
      vertex -1.335126e+000  3.000000e+000  5.849567e+000
      vertex -2.083388e+001  3.000000e+000  3.118011e+001
      vertex -1.435063e+001  3.000000e+000  3.464548e+001
    endloop
  endfacet
  facet normal  -0.000000e+000  1.000000e+000  0.000000e+000
    outer loop
      vertex -1.335126e+000  3.000000e+000  5.849567e+000
      vertex -1.435063e+001  3.000000e+000  3.464548e+001
      vertex -7.315887e+000  3.000000e+000  3.677945e+001
    endloop
  endfacet
  facet normal  -0.000000e+000  1.000000e+000  -0.000000e+000
    outer loop
      vertex  6.888411e-015  3.000000e+000 -3.750000e+001
      vertex -7.315887e+000  3.000000e+000 -3.677945e+001
      vertex -1.435063e+001  3.000000e+000 -3.464548e+001
    endloop
  endfacet
  facet normal  -0.000000e+000  9.999999e-001  -0.000000e+000
    outer loop
      vertex  6.888411e-015  3.000000e+000 -3.750000e+001
      vertex -1.435063e+001  3.000000e+000 -3.464548e+001
      vertex -2.083388e+001  3.000000e+000 -3.118011e+001
    endloop
  endfacet
  facet normal  -0.000000e+000  1.000000e+000  -0.000000e+000
    outer loop
      vertex  6.888411e-015  3.000000e+000 -3.750000e+001
      vertex -2.083388e+001  3.000000e+000 -3.118011e+001
      vertex -2.651650e+001  3.000000e+000 -2.651650e+001
    endloop
  endfacet
  facet normal  -0.000000e+000  9.999999e-001  -0.000000e+000
    outer loop
      vertex  6.888411e-015  3.000000e+000 -3.750000e+001
      vertex -2.651650e+001  3.000000e+000 -2.651650e+001
      vertex -3.118011e+001  3.000000e+000 -2.083388e+001
    endloop
  endfacet
  facet normal  -0.000000e+000  1.000000e+000  -0.000000e+000
    outer loop
      vertex  6.888411e-015  3.000000e+000 -3.750000e+001
      vertex -3.118011e+001  3.000000e+000 -2.083388e+001
      vertex -3.464548e+001  3.000000e+000 -1.435063e+001
    endloop
  endfacet
  facet normal  -0.000000e+000  1.000000e+000  -0.000000e+000
    outer loop
      vertex  6.888411e-015  3.000000e+000 -3.750000e+001
      vertex -3.464548e+001  3.000000e+000 -1.435063e+001
      vertex -3.677945e+001  3.000000e+000 -7.315887e+000
    endloop
  endfacet
  facet normal  -0.000000e+000  1.000000e+000  0.000000e+000
    outer loop
      vertex  6.888411e-015  3.000000e+000 -3.750000e+001
      vertex -3.677945e+001  3.000000e+000 -7.315887e+000
      vertex -1.335126e+000  3.000000e+000 -5.849567e+000
    endloop
  endfacet
  facet normal  -0.000000e+000  1.000000e+000  0.000000e+000
    outer loop
      vertex  6.888411e-015  3.000000e+000 -3.750000e+001
      vertex -1.335126e+000  3.000000e+000 -5.849567e+000
      vertex  1.335126e+000  3.000000e+000 -5.849567e+000
    endloop
  endfacet
  facet normal  0.000000e+000  1.000000e+000  0.000000e+000
    outer loop
      vertex  6.888411e-015  3.000000e+000 -3.750000e+001
      vertex  1.335126e+000  3.000000e+000 -5.849567e+000
      vertex  3.677945e+001  3.000000e+000 -7.315887e+000
    endloop
  endfacet
  facet normal  0.000000e+000  1.000000e+000  0.000000e+000
    outer loop
      vertex  6.888411e-015  3.000000e+000 -3.750000e+001
      vertex  3.677945e+001  3.000000e+000 -7.315887e+000
      vertex  3.464548e+001  3.000000e+000 -1.435063e+001
    endloop
  endfacet
  facet normal  0.000000e+000  1.000000e+000  0.000000e+000
    outer loop
      vertex  6.888411e-015  3.000000e+000 -3.750000e+001
      vertex  3.464548e+001  3.000000e+000 -1.435063e+001
      vertex  3.118011e+001  3.000000e+000 -2.083388e+001
    endloop
  endfacet
  facet normal  0.000000e+000  9.999999e-001  0.000000e+000
    outer loop
      vertex  6.888411e-015  3.000000e+000 -3.750000e+001
      vertex  3.118011e+001  3.000000e+000 -2.083388e+001
      vertex  2.651650e+001  3.000000e+000 -2.651650e+001
    endloop
  endfacet
  facet normal  0.000000e+000  1.000000e+000  0.000000e+000
    outer loop
      vertex  6.888411e-015  3.000000e+000 -3.750000e+001
      vertex  2.651650e+001  3.000000e+000 -2.651650e+001
      vertex  2.083388e+001  3.000000e+000 -3.118011e+001
    endloop
  endfacet
  facet normal  0.000000e+000  9.999999e-001  0.000000e+000
    outer loop
      vertex  6.888411e-015  3.000000e+000 -3.750000e+001
      vertex  2.083388e+001  3.000000e+000 -3.118011e+001
      vertex  1.435063e+001  3.000000e+000 -3.464548e+001
    endloop
  endfacet
  facet normal  0.000000e+000  1.000000e+000  0.000000e+000
    outer loop
      vertex  6.888411e-015  3.000000e+000 -3.750000e+001
      vertex  1.435063e+001  3.000000e+000 -3.464548e+001
      vertex  7.315887e+000  3.000000e+000 -3.677945e+001
    endloop
  endfacet
  facet normal  -0.000000e+000  1.000000e+000  0.000000e+000
    outer loop
      vertex  3.677945e+001  3.000000e+000 -7.315887e+000
      vertex  1.335126e+000  3.000000e+000 -5.849567e+000
      vertex  3.740939e+000  3.000000e+000 -4.690989e+000
    endloop
  endfacet
  facet normal  -0.000000e+000  1.000000e+000  0.000000e+000
    outer loop
      vertex  3.677945e+001  3.000000e+000 -7.315887e+000
      vertex  3.740939e+000  3.000000e+000 -4.690989e+000
      vertex  5.405813e+000  3.000000e+000 -2.603302e+000
    endloop
  endfacet
  facet normal  -0.000000e+000  1.000000e+000  0.000000e+000
    outer loop
      vertex  3.677945e+001  3.000000e+000 -7.315887e+000
      vertex  5.405813e+000  3.000000e+000 -2.603302e+000
      vertex  6.000000e+000  3.000000e+000  7.347638e-016
    endloop
  endfacet
  facet normal  -0.000000e+000  1.000000e+000  0.000000e+000
    outer loop
      vertex  3.677945e+001  3.000000e+000 -7.315887e+000
      vertex  6.000000e+000  3.000000e+000  7.347638e-016
      vertex  3.750000e+001  3.000000e+000  4.592274e-015
    endloop
  endfacet
  facet normal  0.000000e+000  1.000000e+000  0.000000e+000
    outer loop
      vertex -3.750000e+001  3.000000e+000  0.000000e+000
      vertex -1.335126e+000  3.000000e+000  5.849567e+000
      vertex -3.740939e+000  3.000000e+000  4.690989e+000
    endloop
  endfacet
  facet normal  0.000000e+000  9.999999e-001  0.000000e+000
    outer loop
      vertex -3.750000e+001  3.000000e+000  0.000000e+000
      vertex -3.740939e+000  3.000000e+000  4.690989e+000
      vertex -5.405813e+000  3.000000e+000  2.603302e+000
    endloop
  endfacet
  facet normal  0.000000e+000  9.999999e-001  0.000000e+000
    outer loop
      vertex -3.750000e+001  3.000000e+000  0.000000e+000
      vertex -5.405813e+000  3.000000e+000  2.603302e+000
      vertex -6.000000e+000  3.000000e+000  0.000000e+000
    endloop
  endfacet
  facet normal  0.000000e+000  1.000000e+000  0.000000e+000
    outer loop
      vertex -3.750000e+001  3.000000e+000  0.000000e+000
      vertex -6.000000e+000  3.000000e+000  0.000000e+000
      vertex -5.405813e+000  3.000000e+000 -2.603302e+000
    endloop
  endfacet
  facet normal  0.000000e+000  1.000000e+000  0.000000e+000
    outer loop
      vertex -3.750000e+001  3.000000e+000  0.000000e+000
      vertex -5.405813e+000  3.000000e+000 -2.603302e+000
      vertex -3.677945e+001  3.000000e+000 -7.315887e+000
    endloop
  endfacet
  facet normal  0.000000e+000  1.000000e+000  0.000000e+000
    outer loop
      vertex -1.335126e+000  3.000000e+000  5.849567e+000
      vertex -7.315887e+000  3.000000e+000  3.677945e+001
      vertex  1.335126e+000  3.000000e+000  5.849567e+000
    endloop
  endfacet
  facet normal  0.000000e+000  1.000000e+000  0.000000e+000
    outer loop
      vertex  1.335126e+000  3.000000e+000  5.849567e+000
      vertex -7.315887e+000  3.000000e+000  3.677945e+001
      vertex -2.296137e-015  3.000000e+000  3.750000e+001
    endloop
  endfacet
  facet normal  0.000000e+000  1.000000e+000  0.000000e+000
    outer loop
      vertex  1.335126e+000  3.000000e+000  5.849567e+000
      vertex -2.296137e-015  3.000000e+000  3.750000e+001
      vertex  3.677945e+001  3.000000e+000  7.315887e+000
    endloop
  endfacet
  facet normal  0.000000e+000  1.000000e+000  0.000000e+000
    outer loop
      vertex  3.677945e+001  3.000000e+000  7.315887e+000
      vertex -2.296137e-015  3.000000e+000  3.750000e+001
      vertex  7.315887e+000  3.000000e+000  3.677945e+001
    endloop
  endfacet
  facet normal  9.749280e-001  0.000000e+000  2.225209e-001
    outer loop
      vertex  6.000000e+000  3.000000e+000  7.347638e-016
      vertex  6.000000e+000  1.300000e+001  7.347638e-016
      vertex  5.405813e+000  3.000000e+000  2.603302e+000
    endloop
  endfacet
  facet normal  9.749280e-001  -0.000000e+000  2.225209e-001
    outer loop
      vertex  5.405813e+000  3.000000e+000  2.603302e+000
      vertex  6.000000e+000  1.300000e+001  7.347638e-016
      vertex  5.405813e+000  1.300000e+001  2.603302e+000
    endloop
  endfacet
  facet normal  7.818314e-001  0.000000e+000  6.234897e-001
    outer loop
      vertex  5.405813e+000  3.000000e+000  2.603302e+000
      vertex  5.405813e+000  1.300000e+001  2.603302e+000
      vertex  3.740939e+000  3.000000e+000  4.690989e+000
    endloop
  endfacet
  facet normal  7.818314e-001  -0.000000e+000  6.234897e-001
    outer loop
      vertex  3.740939e+000  3.000000e+000  4.690989e+000
      vertex  5.405813e+000  1.300000e+001  2.603302e+000
      vertex  3.740939e+000  1.300000e+001  4.690989e+000
    endloop
  endfacet
  facet normal  4.338837e-001  0.000000e+000  9.009689e-001
    outer loop
      vertex  3.740939e+000  3.000000e+000  4.690989e+000
      vertex  3.740939e+000  1.300000e+001  4.690989e+000
      vertex  1.335126e+000  3.000000e+000  5.849567e+000
    endloop
  endfacet
  facet normal  4.338837e-001  -0.000000e+000  9.009689e-001
    outer loop
      vertex  1.335126e+000  3.000000e+000  5.849567e+000
      vertex  3.740939e+000  1.300000e+001  4.690989e+000
      vertex  1.335126e+000  1.300000e+001  5.849567e+000
    endloop
  endfacet
  facet normal  0.000000e+000  0.000000e+000  1.000000e+000
    outer loop
      vertex  1.335126e+000  3.000000e+000  5.849567e+000
      vertex  1.335126e+000  1.300000e+001  5.849567e+000
      vertex -1.335126e+000  3.000000e+000  5.849567e+000
    endloop
  endfacet
  facet normal  0.000000e+000  0.000000e+000  1.000000e+000
    outer loop
      vertex -1.335126e+000  3.000000e+000  5.849567e+000
      vertex  1.335126e+000  1.300000e+001  5.849567e+000
      vertex -1.335126e+000  1.300000e+001  5.849567e+000
    endloop
  endfacet
  facet normal -4.338837e-001  0.000000e+000  9.009689e-001
    outer loop
      vertex -1.335126e+000  3.000000e+000  5.849567e+000
      vertex -1.335126e+000  1.300000e+001  5.849567e+000
      vertex -3.740939e+000  3.000000e+000  4.690989e+000
    endloop
  endfacet
  facet normal -4.338837e-001  0.000000e+000  9.009689e-001
    outer loop
      vertex -3.740939e+000  3.000000e+000  4.690989e+000
      vertex -1.335126e+000  1.300000e+001  5.849567e+000
      vertex -3.740939e+000  1.300000e+001  4.690989e+000
    endloop
  endfacet
  facet normal -7.818314e-001  0.000000e+000  6.234897e-001
    outer loop
      vertex -3.740939e+000  3.000000e+000  4.690989e+000
      vertex -3.740939e+000  1.300000e+001  4.690989e+000
      vertex -5.405813e+000  3.000000e+000  2.603302e+000
    endloop
  endfacet
  facet normal -7.818314e-001  0.000000e+000  6.234897e-001
    outer loop
      vertex -5.405813e+000  3.000000e+000  2.603302e+000
      vertex -3.740939e+000  1.300000e+001  4.690989e+000
      vertex -5.405813e+000  1.300000e+001  2.603302e+000
    endloop
  endfacet
  facet normal -9.749280e-001  0.000000e+000  2.225209e-001
    outer loop
      vertex -5.405813e+000  3.000000e+000  2.603302e+000
      vertex -5.405813e+000  1.300000e+001  2.603302e+000
      vertex -6.000000e+000  3.000000e+000  0.000000e+000
    endloop
  endfacet
  facet normal -9.749280e-001  0.000000e+000  2.225209e-001
    outer loop
      vertex -6.000000e+000  3.000000e+000  0.000000e+000
      vertex -5.405813e+000  1.300000e+001  2.603302e+000
      vertex -6.000000e+000  1.300000e+001  0.000000e+000
    endloop
  endfacet
  facet normal  9.749280e-001  0.000000e+000  2.225209e-001
    outer loop
      vertex  6.000000e+000 -1.300000e+001  7.347638e-016
      vertex  6.000000e+000 -3.000000e+000  7.347638e-016
      vertex  5.405813e+000 -1.300000e+001  2.603302e+000
    endloop
  endfacet
  facet normal  9.749280e-001  -0.000000e+000  2.225209e-001
    outer loop
      vertex  5.405813e+000 -1.300000e+001  2.603302e+000
      vertex  6.000000e+000 -3.000000e+000  7.347638e-016
      vertex  5.405813e+000 -3.000000e+000  2.603302e+000
    endloop
  endfacet
  facet normal  7.818314e-001  0.000000e+000  6.234897e-001
    outer loop
      vertex  5.405813e+000 -1.300000e+001  2.603302e+000
      vertex  5.405813e+000 -3.000000e+000  2.603302e+000
      vertex  3.740939e+000 -1.300000e+001  4.690989e+000
    endloop
  endfacet
  facet normal  7.818314e-001  -0.000000e+000  6.234897e-001
    outer loop
      vertex  3.740939e+000 -1.300000e+001  4.690989e+000
      vertex  5.405813e+000 -3.000000e+000  2.603302e+000
      vertex  3.740939e+000 -3.000000e+000  4.690989e+000
    endloop
  endfacet
  facet normal  4.338837e-001  0.000000e+000  9.009689e-001
    outer loop
      vertex  3.740939e+000 -1.300000e+001  4.690989e+000
      vertex  3.740939e+000 -3.000000e+000  4.690989e+000
      vertex  1.335126e+000 -1.300000e+001  5.849567e+000
    endloop
  endfacet
  facet normal  4.338837e-001  -0.000000e+000  9.009689e-001
    outer loop
      vertex  1.335126e+000 -1.300000e+001  5.849567e+000
      vertex  3.740939e+000 -3.000000e+000  4.690989e+000
      vertex  1.335126e+000 -3.000000e+000  5.849567e+000
    endloop
  endfacet
  facet normal  0.000000e+000  0.000000e+000  1.000000e+000
    outer loop
      vertex  1.335126e+000 -1.300000e+001  5.849567e+000
      vertex  1.335126e+000 -3.000000e+000  5.849567e+000
      vertex -1.335126e+000 -1.300000e+001  5.849567e+000
    endloop
  endfacet
  facet normal  0.000000e+000  0.000000e+000  1.000000e+000
    outer loop
      vertex -1.335126e+000 -1.300000e+001  5.849567e+000
      vertex  1.335126e+000 -3.000000e+000  5.849567e+000
      vertex -1.335126e+000 -3.000000e+000  5.849567e+000
    endloop
  endfacet
  facet normal -4.338837e-001  0.000000e+000  9.009689e-001
    outer loop
      vertex -1.335126e+000 -1.300000e+001  5.849567e+000
      vertex -1.335126e+000 -3.000000e+000  5.849567e+000
      vertex -3.740939e+000 -1.300000e+001  4.690989e+000
    endloop
  endfacet
  facet normal -4.338837e-001  0.000000e+000  9.009689e-001
    outer loop
      vertex -3.740939e+000 -1.300000e+001  4.690989e+000
      vertex -1.335126e+000 -3.000000e+000  5.849567e+000
      vertex -3.740939e+000 -3.000000e+000  4.690989e+000
    endloop
  endfacet
  facet normal -7.818314e-001  0.000000e+000  6.234897e-001
    outer loop
      vertex -3.740939e+000 -1.300000e+001  4.690989e+000
      vertex -3.740939e+000 -3.000000e+000  4.690989e+000
      vertex -5.405813e+000 -1.300000e+001  2.603302e+000
    endloop
  endfacet
  facet normal -7.818314e-001  0.000000e+000  6.234897e-001
    outer loop
      vertex -5.405813e+000 -1.300000e+001  2.603302e+000
      vertex -3.740939e+000 -3.000000e+000  4.690989e+000
      vertex -5.405813e+000 -3.000000e+000  2.603302e+000
    endloop
  endfacet
  facet normal -9.749280e-001  0.000000e+000  2.225209e-001
    outer loop
      vertex -5.405813e+000 -1.300000e+001  2.603302e+000
      vertex -5.405813e+000 -3.000000e+000  2.603302e+000
      vertex -6.000000e+000 -1.300000e+001  0.000000e+000
    endloop
  endfacet
  facet normal -9.749280e-001  0.000000e+000  2.225209e-001
    outer loop
      vertex -6.000000e+000 -1.300000e+001  0.000000e+000
      vertex -5.405813e+000 -3.000000e+000  2.603302e+000
      vertex -6.000000e+000 -3.000000e+000  0.000000e+000
    endloop
  endfacet
  facet normal -9.749280e-001  -0.000000e+000 -2.225209e-001
    outer loop
      vertex -6.000000e+000 -1.300000e+001  0.000000e+000
      vertex -6.000000e+000 -3.000000e+000  0.000000e+000
      vertex -5.405813e+000 -1.300000e+001 -2.603302e+000
    endloop
  endfacet
  facet normal -9.749280e-001  0.000000e+000 -2.225209e-001
    outer loop
      vertex -5.405813e+000 -1.300000e+001 -2.603302e+000
      vertex -6.000000e+000 -3.000000e+000  0.000000e+000
      vertex -5.405813e+000 -3.000000e+000 -2.603302e+000
    endloop
  endfacet
  facet normal -7.818314e-001  -0.000000e+000 -6.234897e-001
    outer loop
      vertex -5.405813e+000 -1.300000e+001 -2.603302e+000
      vertex -5.405813e+000 -3.000000e+000 -2.603302e+000
      vertex -3.740939e+000 -1.300000e+001 -4.690989e+000
    endloop
  endfacet
  facet normal -7.818314e-001  0.000000e+000 -6.234897e-001
    outer loop
      vertex -3.740939e+000 -1.300000e+001 -4.690989e+000
      vertex -5.405813e+000 -3.000000e+000 -2.603302e+000
      vertex -3.740939e+000 -3.000000e+000 -4.690989e+000
    endloop
  endfacet
  facet normal -4.338837e-001  -0.000000e+000 -9.009689e-001
    outer loop
      vertex -3.740939e+000 -1.300000e+001 -4.690989e+000
      vertex -3.740939e+000 -3.000000e+000 -4.690989e+000
      vertex -1.335126e+000 -1.300000e+001 -5.849567e+000
    endloop
  endfacet
  facet normal -4.338837e-001  0.000000e+000 -9.009689e-001
    outer loop
      vertex -1.335126e+000 -1.300000e+001 -5.849567e+000
      vertex -3.740939e+000 -3.000000e+000 -4.690989e+000
      vertex -1.335126e+000 -3.000000e+000 -5.849567e+000
    endloop
  endfacet
  facet normal  0.000000e+000  0.000000e+000 -1.000000e+000
    outer loop
      vertex -1.335126e+000 -1.300000e+001 -5.849567e+000
      vertex -1.335126e+000 -3.000000e+000 -5.849567e+000
      vertex  1.335126e+000 -1.300000e+001 -5.849567e+000
    endloop
  endfacet
  facet normal  0.000000e+000  0.000000e+000 -1.000000e+000
    outer loop
      vertex  1.335126e+000 -1.300000e+001 -5.849567e+000
      vertex -1.335126e+000 -3.000000e+000 -5.849567e+000
      vertex  1.335126e+000 -3.000000e+000 -5.849567e+000
    endloop
  endfacet
  facet normal  4.338837e-001  0.000000e+000 -9.009689e-001
    outer loop
      vertex  1.335126e+000 -1.300000e+001 -5.849567e+000
      vertex  1.335126e+000 -3.000000e+000 -5.849567e+000
      vertex  3.740939e+000 -1.300000e+001 -4.690989e+000
    endloop
  endfacet
  facet normal  4.338837e-001  0.000000e+000 -9.009689e-001
    outer loop
      vertex  3.740939e+000 -1.300000e+001 -4.690989e+000
      vertex  1.335126e+000 -3.000000e+000 -5.849567e+000
      vertex  3.740939e+000 -3.000000e+000 -4.690989e+000
    endloop
  endfacet
  facet normal  7.818314e-001  0.000000e+000 -6.234897e-001
    outer loop
      vertex  3.740939e+000 -1.300000e+001 -4.690989e+000
      vertex  3.740939e+000 -3.000000e+000 -4.690989e+000
      vertex  5.405813e+000 -1.300000e+001 -2.603302e+000
    endloop
  endfacet
  facet normal  7.818314e-001  0.000000e+000 -6.234897e-001
    outer loop
      vertex  5.405813e+000 -1.300000e+001 -2.603302e+000
      vertex  3.740939e+000 -3.000000e+000 -4.690989e+000
      vertex  5.405813e+000 -3.000000e+000 -2.603302e+000
    endloop
  endfacet
  facet normal  9.749280e-001  0.000000e+000 -2.225209e-001
    outer loop
      vertex  5.405813e+000 -1.300000e+001 -2.603302e+000
      vertex  5.405813e+000 -3.000000e+000 -2.603302e+000
      vertex  6.000000e+000 -1.300000e+001  7.347638e-016
    endloop
  endfacet
  facet normal  9.749280e-001  0.000000e+000 -2.225209e-001
    outer loop
      vertex  6.000000e+000 -1.300000e+001  7.347638e-016
      vertex  5.405813e+000 -3.000000e+000 -2.603302e+000
      vertex  6.000000e+000 -3.000000e+000  7.347638e-016
    endloop
  endfacet
  facet normal  0.000000e+000  1.000000e+000  0.000000e+000
    outer loop
      vertex -1.335126e+000  1.300000e+001 -5.849567e+000
      vertex -3.740939e+000  1.300000e+001 -4.690989e+000
      vertex  1.335126e+000  1.300000e+001 -5.849567e+000
    endloop
  endfacet
  facet normal  0.000000e+000  1.000000e+000  0.000000e+000
    outer loop
      vertex  1.335126e+000  1.300000e+001 -5.849567e+000
      vertex -3.740939e+000  1.300000e+001 -4.690989e+000
      vertex -1.236068e+000  1.300000e+001 -3.804226e+000
    endloop
  endfacet
  facet normal  0.000000e+000  9.999999e-001  0.000000e+000
    outer loop
      vertex  1.335126e+000  1.300000e+001 -5.849567e+000
      vertex -1.236068e+000  1.300000e+001 -3.804226e+000
      vertex  3.740939e+000  1.300000e+001 -4.690989e+000
    endloop
  endfacet
  facet normal  0.000000e+000  1.000000e+000  0.000000e+000
    outer loop
      vertex  3.740939e+000  1.300000e+001 -4.690989e+000
      vertex -1.236068e+000  1.300000e+001 -3.804226e+000
      vertex  1.236068e+000  1.300000e+001 -3.804226e+000
    endloop
  endfacet
  facet normal  -0.000000e+000  1.000000e+000  0.000000e+000
    outer loop
      vertex  3.740939e+000  1.300000e+001 -4.690989e+000
      vertex  1.236068e+000  1.300000e+001 -3.804226e+000
      vertex  5.405813e+000  1.300000e+001 -2.603302e+000
    endloop
  endfacet
  facet normal  0.000000e+000  1.000000e+000  0.000000e+000
    outer loop
      vertex  5.405813e+000  1.300000e+001 -2.603302e+000
      vertex  1.236068e+000  1.300000e+001 -3.804226e+000
      vertex  3.236068e+000  1.300000e+001 -2.351141e+000
    endloop
  endfacet
  facet normal  -0.000000e+000  1.000000e+000  0.000000e+000
    outer loop
      vertex  5.405813e+000  1.300000e+001 -2.603302e+000
      vertex  3.236068e+000  1.300000e+001 -2.351141e+000
      vertex  6.000000e+000  1.300000e+001  7.347638e-016
    endloop
  endfacet
  facet normal  0.000000e+000  1.000000e+000  0.000000e+000
    outer loop
      vertex  6.000000e+000  1.300000e+001  7.347638e-016
      vertex  3.236068e+000  1.300000e+001 -2.351141e+000
      vertex  4.000000e+000  1.300000e+001  4.898425e-016
    endloop
  endfacet
  facet normal  0.000000e+000  1.000000e+000  0.000000e+000
    outer loop
      vertex  6.000000e+000  1.300000e+001  7.347638e-016
      vertex  4.000000e+000  1.300000e+001  4.898425e-016
      vertex  5.405813e+000  1.300000e+001  2.603302e+000
    endloop
  endfacet
  facet normal  0.000000e+000  1.000000e+000  0.000000e+000
    outer loop
      vertex  5.405813e+000  1.300000e+001  2.603302e+000
      vertex  4.000000e+000  1.300000e+001  4.898425e-016
      vertex  3.236068e+000  1.300000e+001  2.351141e+000
    endloop
  endfacet
  facet normal  0.000000e+000  1.000000e+000  0.000000e+000
    outer loop
      vertex  5.405813e+000  1.300000e+001  2.603302e+000
      vertex  3.236068e+000  1.300000e+001  2.351141e+000
      vertex  3.740939e+000  1.300000e+001  4.690989e+000
    endloop
  endfacet
  facet normal  0.000000e+000  1.000000e+000  0.000000e+000
    outer loop
      vertex  3.740939e+000  1.300000e+001  4.690989e+000
      vertex  3.236068e+000  1.300000e+001  2.351141e+000
      vertex  1.236068e+000  1.300000e+001  3.804226e+000
    endloop
  endfacet
  facet normal  0.000000e+000  1.000000e+000  0.000000e+000
    outer loop
      vertex  3.740939e+000  1.300000e+001  4.690989e+000
      vertex  1.236068e+000  1.300000e+001  3.804226e+000
      vertex  1.335126e+000  1.300000e+001  5.849567e+000
    endloop
  endfacet
  facet normal  0.000000e+000  1.000000e+000  0.000000e+000
    outer loop
      vertex  1.335126e+000  1.300000e+001  5.849567e+000
      vertex  1.236068e+000  1.300000e+001  3.804226e+000
      vertex -1.236068e+000  1.300000e+001  3.804226e+000
    endloop
  endfacet
  facet normal  0.000000e+000  1.000000e+000  -0.000000e+000
    outer loop
      vertex  1.335126e+000  1.300000e+001  5.849567e+000
      vertex -1.236068e+000  1.300000e+001  3.804226e+000
      vertex -1.335126e+000  1.300000e+001  5.849567e+000
    endloop
  endfacet
  facet normal  0.000000e+000  1.000000e+000  0.000000e+000
    outer loop
      vertex -1.335126e+000  1.300000e+001  5.849567e+000
      vertex -1.236068e+000  1.300000e+001  3.804226e+000
      vertex -3.740939e+000  1.300000e+001  4.690989e+000
    endloop
  endfacet
  facet normal  0.000000e+000  1.000000e+000  0.000000e+000
    outer loop
      vertex -3.740939e+000  1.300000e+001  4.690989e+000
      vertex -1.236068e+000  1.300000e+001  3.804226e+000
      vertex -5.405813e+000  1.300000e+001  2.603302e+000
    endloop
  endfacet
  facet normal  -0.000000e+000  1.000000e+000  0.000000e+000
    outer loop
      vertex -5.405813e+000  1.300000e+001  2.603302e+000
      vertex -1.236068e+000  1.300000e+001  3.804226e+000
      vertex -3.236068e+000  1.300000e+001  2.351141e+000
    endloop
  endfacet
  facet normal  0.000000e+000  1.000000e+000  0.000000e+000
    outer loop
      vertex -5.405813e+000  1.300000e+001  2.603302e+000
      vertex -3.236068e+000  1.300000e+001  2.351141e+000
      vertex -6.000000e+000  1.300000e+001  0.000000e+000
    endloop
  endfacet
  facet normal  0.000000e+000  1.000000e+000  0.000000e+000
    outer loop
      vertex -6.000000e+000  1.300000e+001  0.000000e+000
      vertex -3.236068e+000  1.300000e+001  2.351141e+000
      vertex -4.000000e+000  1.300000e+001  0.000000e+000
    endloop
  endfacet
  facet normal  0.000000e+000  1.000000e+000  0.000000e+000
    outer loop
      vertex -6.000000e+000  1.300000e+001  0.000000e+000
      vertex -4.000000e+000  1.300000e+001  0.000000e+000
      vertex -5.405813e+000  1.300000e+001 -2.603302e+000
    endloop
  endfacet
  facet normal  0.000000e+000  1.000000e+000  0.000000e+000
    outer loop
      vertex -5.405813e+000  1.300000e+001 -2.603302e+000
      vertex -4.000000e+000  1.300000e+001  0.000000e+000
      vertex -3.236068e+000  1.300000e+001 -2.351141e+000
    endloop
  endfacet
  facet normal  0.000000e+000  1.000000e+000  0.000000e+000
    outer loop
      vertex -5.405813e+000  1.300000e+001 -2.603302e+000
      vertex -3.236068e+000  1.300000e+001 -2.351141e+000
      vertex -3.740939e+000  1.300000e+001 -4.690989e+000
    endloop
  endfacet
  facet normal  0.000000e+000  1.000000e+000  0.000000e+000
    outer loop
      vertex -3.740939e+000  1.300000e+001 -4.690989e+000
      vertex -3.236068e+000  1.300000e+001 -2.351141e+000
      vertex -1.236068e+000  1.300000e+001 -3.804226e+000
    endloop
  endfacet
  facet normal  0.000000e+000 -1.000000e+000  0.000000e+000
    outer loop
      vertex -3.740939e+000 -1.300000e+001 -4.690989e+000
      vertex -1.335126e+000 -1.300000e+001 -5.849567e+000
      vertex -1.236068e+000 -1.300000e+001 -3.804226e+000
    endloop
  endfacet
  facet normal  0.000000e+000 -1.000000e+000  -0.000000e+000
    outer loop
      vertex -1.236068e+000 -1.300000e+001 -3.804226e+000
      vertex -1.335126e+000 -1.300000e+001 -5.849567e+000
      vertex  1.335126e+000 -1.300000e+001 -5.849567e+000
    endloop
  endfacet
  facet normal  0.000000e+000 -1.000000e+000  0.000000e+000
    outer loop
      vertex -1.236068e+000 -1.300000e+001 -3.804226e+000
      vertex  1.335126e+000 -1.300000e+001 -5.849567e+000
      vertex  1.236068e+000 -1.300000e+001 -3.804226e+000
    endloop
  endfacet
  facet normal  0.000000e+000 -1.000000e+000  0.000000e+000
    outer loop
      vertex  1.236068e+000 -1.300000e+001 -3.804226e+000
      vertex  1.335126e+000 -1.300000e+001 -5.849567e+000
      vertex  3.740939e+000 -1.300000e+001 -4.690989e+000
    endloop
  endfacet
  facet normal  0.000000e+000 -1.000000e+000  0.000000e+000
    outer loop
      vertex  1.236068e+000 -1.300000e+001 -3.804226e+000
      vertex  3.740939e+000 -1.300000e+001 -4.690989e+000
      vertex  3.236068e+000 -1.300000e+001 -2.351141e+000
    endloop
  endfacet
  facet normal  0.000000e+000 -1.000000e+000  0.000000e+000
    outer loop
      vertex  3.236068e+000 -1.300000e+001 -2.351141e+000
      vertex  3.740939e+000 -1.300000e+001 -4.690989e+000
      vertex  5.405813e+000 -1.300000e+001 -2.603302e+000
    endloop
  endfacet
  facet normal  0.000000e+000 -1.000000e+000  0.000000e+000
    outer loop
      vertex  3.236068e+000 -1.300000e+001 -2.351141e+000
      vertex  5.405813e+000 -1.300000e+001 -2.603302e+000
      vertex  4.000000e+000 -1.300000e+001  4.898425e-016
    endloop
  endfacet
  facet normal  0.000000e+000 -1.000000e+000  0.000000e+000
    outer loop
      vertex  4.000000e+000 -1.300000e+001  4.898425e-016
      vertex  5.405813e+000 -1.300000e+001 -2.603302e+000
      vertex  6.000000e+000 -1.300000e+001  7.347638e-016
    endloop
  endfacet
  facet normal  -0.000000e+000 -1.000000e+000  0.000000e+000
    outer loop
      vertex  4.000000e+000 -1.300000e+001  4.898425e-016
      vertex  6.000000e+000 -1.300000e+001  7.347638e-016
      vertex  3.236068e+000 -1.300000e+001  2.351141e+000
    endloop
  endfacet
  facet normal  0.000000e+000 -1.000000e+000  0.000000e+000
    outer loop
      vertex  3.236068e+000 -1.300000e+001  2.351141e+000
      vertex  6.000000e+000 -1.300000e+001  7.347638e-016
      vertex  5.405813e+000 -1.300000e+001  2.603302e+000
    endloop
  endfacet
  facet normal  -0.000000e+000 -1.000000e+000  0.000000e+000
    outer loop
      vertex  3.236068e+000 -1.300000e+001  2.351141e+000
      vertex  5.405813e+000 -1.300000e+001  2.603302e+000
      vertex  1.236068e+000 -1.300000e+001  3.804226e+000
    endloop
  endfacet
  facet normal  0.000000e+000 -1.000000e+000  0.000000e+000
    outer loop
      vertex  1.236068e+000 -1.300000e+001  3.804226e+000
      vertex  5.405813e+000 -1.300000e+001  2.603302e+000
      vertex  3.740939e+000 -1.300000e+001  4.690989e+000
    endloop
  endfacet
  facet normal  0.000000e+000 -1.000000e+000  0.000000e+000
    outer loop
      vertex  1.236068e+000 -1.300000e+001  3.804226e+000
      vertex  3.740939e+000 -1.300000e+001  4.690989e+000
      vertex -1.236068e+000 -1.300000e+001  3.804226e+000
    endloop
  endfacet
  facet normal  0.000000e+000 -9.999999e-001  0.000000e+000
    outer loop
      vertex -1.236068e+000 -1.300000e+001  3.804226e+000
      vertex  3.740939e+000 -1.300000e+001  4.690989e+000
      vertex  1.335126e+000 -1.300000e+001  5.849567e+000
    endloop
  endfacet
  facet normal  0.000000e+000 -1.000000e+000  0.000000e+000
    outer loop
      vertex -1.236068e+000 -1.300000e+001  3.804226e+000
      vertex  1.335126e+000 -1.300000e+001  5.849567e+000
      vertex -3.740939e+000 -1.300000e+001  4.690989e+000
    endloop
  endfacet
  facet normal  0.000000e+000 -1.000000e+000  0.000000e+000
    outer loop
      vertex -3.740939e+000 -1.300000e+001  4.690989e+000
      vertex  1.335126e+000 -1.300000e+001  5.849567e+000
      vertex -1.335126e+000 -1.300000e+001  5.849567e+000
    endloop
  endfacet
  facet normal  0.000000e+000 -1.000000e+000  0.000000e+000
    outer loop
      vertex -1.236068e+000 -1.300000e+001  3.804226e+000
      vertex -3.740939e+000 -1.300000e+001  4.690989e+000
      vertex -3.236068e+000 -1.300000e+001  2.351141e+000
    endloop
  endfacet
  facet normal  0.000000e+000 -1.000000e+000  0.000000e+000
    outer loop
      vertex -3.236068e+000 -1.300000e+001  2.351141e+000
      vertex -3.740939e+000 -1.300000e+001  4.690989e+000
      vertex -5.405813e+000 -1.300000e+001  2.603302e+000
    endloop
  endfacet
  facet normal  0.000000e+000 -1.000000e+000  0.000000e+000
    outer loop
      vertex -3.236068e+000 -1.300000e+001  2.351141e+000
      vertex -5.405813e+000 -1.300000e+001  2.603302e+000
      vertex -4.000000e+000 -1.300000e+001  0.000000e+000
    endloop
  endfacet
  facet normal  0.000000e+000 -1.000000e+000  0.000000e+000
    outer loop
      vertex -4.000000e+000 -1.300000e+001  0.000000e+000
      vertex -5.405813e+000 -1.300000e+001  2.603302e+000
      vertex -6.000000e+000 -1.300000e+001  0.000000e+000
    endloop
  endfacet
  facet normal  0.000000e+000 -1.000000e+000  0.000000e+000
    outer loop
      vertex -4.000000e+000 -1.300000e+001  0.000000e+000
      vertex -6.000000e+000 -1.300000e+001  0.000000e+000
      vertex -3.236068e+000 -1.300000e+001 -2.351141e+000
    endloop
  endfacet
  facet normal  -0.000000e+000 -1.000000e+000  0.000000e+000
    outer loop
      vertex -3.236068e+000 -1.300000e+001 -2.351141e+000
      vertex -6.000000e+000 -1.300000e+001  0.000000e+000
      vertex -5.405813e+000 -1.300000e+001 -2.603302e+000
    endloop
  endfacet
  facet normal  0.000000e+000 -1.000000e+000  0.000000e+000
    outer loop
      vertex -3.236068e+000 -1.300000e+001 -2.351141e+000
      vertex -5.405813e+000 -1.300000e+001 -2.603302e+000
      vertex -1.236068e+000 -1.300000e+001 -3.804226e+000
    endloop
  endfacet
  facet normal  -0.000000e+000 -1.000000e+000  0.000000e+000
    outer loop
      vertex -1.236068e+000 -1.300000e+001 -3.804226e+000
      vertex -5.405813e+000 -1.300000e+001 -2.603302e+000
      vertex -3.740939e+000 -1.300000e+001 -4.690989e+000
    endloop
  endfacet
  facet normal -9.951847e-001  -0.000000e+000 -9.801695e-002
    outer loop
      vertex -3.750000e+001 -3.000000e+000  0.000000e+000
      vertex -3.750000e+001  3.000000e+000  0.000000e+000
      vertex -3.677945e+001 -3.000000e+000 -7.315887e+000
    endloop
  endfacet
  facet normal -9.951847e-001  0.000000e+000 -9.801695e-002
    outer loop
      vertex -3.677945e+001 -3.000000e+000 -7.315887e+000
      vertex -3.750000e+001  3.000000e+000  0.000000e+000
      vertex -3.677945e+001  3.000000e+000 -7.315887e+000
    endloop
  endfacet
  facet normal -9.569402e-001  -0.000000e+000 -2.902850e-001
    outer loop
      vertex -3.677945e+001 -3.000000e+000 -7.315887e+000
      vertex -3.677945e+001  3.000000e+000 -7.315887e+000
      vertex -3.464548e+001 -3.000000e+000 -1.435063e+001
    endloop
  endfacet
  facet normal -9.569402e-001  0.000000e+000 -2.902850e-001
    outer loop
      vertex -3.464548e+001 -3.000000e+000 -1.435063e+001
      vertex -3.677945e+001  3.000000e+000 -7.315887e+000
      vertex -3.464548e+001  3.000000e+000 -1.435063e+001
    endloop
  endfacet
  facet normal -8.819213e-001  -0.000000e+000 -4.713965e-001
    outer loop
      vertex -3.464548e+001 -3.000000e+000 -1.435063e+001
      vertex -3.464548e+001  3.000000e+000 -1.435063e+001
      vertex -3.118011e+001 -3.000000e+000 -2.083388e+001
    endloop
  endfacet
  facet normal -8.819213e-001  0.000000e+000 -4.713965e-001
    outer loop
      vertex -3.118011e+001 -3.000000e+000 -2.083388e+001
      vertex -3.464548e+001  3.000000e+000 -1.435063e+001
      vertex -3.118011e+001  3.000000e+000 -2.083388e+001
    endloop
  endfacet
  facet normal -7.730105e-001  -0.000000e+000 -6.343933e-001
    outer loop
      vertex -3.118011e+001 -3.000000e+000 -2.083388e+001
      vertex -3.118011e+001  3.000000e+000 -2.083388e+001
      vertex -2.651650e+001 -3.000000e+000 -2.651650e+001
    endloop
  endfacet
  facet normal -7.730105e-001  0.000000e+000 -6.343933e-001
    outer loop
      vertex -2.651650e+001 -3.000000e+000 -2.651650e+001
      vertex -3.118011e+001  3.000000e+000 -2.083388e+001
      vertex -2.651650e+001  3.000000e+000 -2.651650e+001
    endloop
  endfacet
  facet normal -6.343933e-001  -0.000000e+000 -7.730105e-001
    outer loop
      vertex -2.651650e+001 -3.000000e+000 -2.651650e+001
      vertex -2.651650e+001  3.000000e+000 -2.651650e+001
      vertex -2.083388e+001 -3.000000e+000 -3.118011e+001
    endloop
  endfacet
  facet normal -6.343933e-001  0.000000e+000 -7.730105e-001
    outer loop
      vertex -2.083388e+001 -3.000000e+000 -3.118011e+001
      vertex -2.651650e+001  3.000000e+000 -2.651650e+001
      vertex -2.083388e+001  3.000000e+000 -3.118011e+001
    endloop
  endfacet
  facet normal -4.713965e-001  -0.000000e+000 -8.819213e-001
    outer loop
      vertex -2.083388e+001 -3.000000e+000 -3.118011e+001
      vertex -2.083388e+001  3.000000e+000 -3.118011e+001
      vertex -1.435063e+001 -3.000000e+000 -3.464548e+001
    endloop
  endfacet
  facet normal -4.713965e-001  0.000000e+000 -8.819213e-001
    outer loop
      vertex -1.435063e+001 -3.000000e+000 -3.464548e+001
      vertex -2.083388e+001  3.000000e+000 -3.118011e+001
      vertex -1.435063e+001  3.000000e+000 -3.464548e+001
    endloop
  endfacet
  facet normal -2.902850e-001  -0.000000e+000 -9.569402e-001
    outer loop
      vertex -1.435063e+001 -3.000000e+000 -3.464548e+001
      vertex -1.435063e+001  3.000000e+000 -3.464548e+001
      vertex -7.315887e+000 -3.000000e+000 -3.677945e+001
    endloop
  endfacet
  facet normal -2.902850e-001  0.000000e+000 -9.569402e-001
    outer loop
      vertex -7.315887e+000 -3.000000e+000 -3.677945e+001
      vertex -1.435063e+001  3.000000e+000 -3.464548e+001
      vertex -7.315887e+000  3.000000e+000 -3.677945e+001
    endloop
  endfacet
  facet normal -9.801695e-002  -0.000000e+000 -9.951847e-001
    outer loop
      vertex -7.315887e+000 -3.000000e+000 -3.677945e+001
      vertex -7.315887e+000  3.000000e+000 -3.677945e+001
      vertex  6.888411e-015 -3.000000e+000 -3.750000e+001
    endloop
  endfacet
  facet normal -9.801695e-002  0.000000e+000 -9.951847e-001
    outer loop
      vertex  6.888411e-015 -3.000000e+000 -3.750000e+001
      vertex -7.315887e+000  3.000000e+000 -3.677945e+001
      vertex  6.888411e-015  3.000000e+000 -3.750000e+001
    endloop
  endfacet
  facet normal  9.801695e-002  0.000000e+000 -9.951847e-001
    outer loop
      vertex  6.888411e-015 -3.000000e+000 -3.750000e+001
      vertex  6.888411e-015  3.000000e+000 -3.750000e+001
      vertex  7.315887e+000 -3.000000e+000 -3.677945e+001
    endloop
  endfacet
  facet normal  9.801695e-002  0.000000e+000 -9.951847e-001
    outer loop
      vertex  7.315887e+000 -3.000000e+000 -3.677945e+001
      vertex  6.888411e-015  3.000000e+000 -3.750000e+001
      vertex  7.315887e+000  3.000000e+000 -3.677945e+001
    endloop
  endfacet
  facet normal  2.902850e-001  0.000000e+000 -9.569402e-001
    outer loop
      vertex  7.315887e+000 -3.000000e+000 -3.677945e+001
      vertex  7.315887e+000  3.000000e+000 -3.677945e+001
      vertex  1.435063e+001 -3.000000e+000 -3.464548e+001
    endloop
  endfacet
  facet normal  2.902850e-001  0.000000e+000 -9.569402e-001
    outer loop
      vertex  1.435063e+001 -3.000000e+000 -3.464548e+001
      vertex  7.315887e+000  3.000000e+000 -3.677945e+001
      vertex  1.435063e+001  3.000000e+000 -3.464548e+001
    endloop
  endfacet
  facet normal  4.713965e-001  0.000000e+000 -8.819213e-001
    outer loop
      vertex  1.435063e+001 -3.000000e+000 -3.464548e+001
      vertex  1.435063e+001  3.000000e+000 -3.464548e+001
      vertex  2.083388e+001 -3.000000e+000 -3.118011e+001
    endloop
  endfacet
  facet normal  4.713965e-001  0.000000e+000 -8.819213e-001
    outer loop
      vertex  2.083388e+001 -3.000000e+000 -3.118011e+001
      vertex  1.435063e+001  3.000000e+000 -3.464548e+001
      vertex  2.083388e+001  3.000000e+000 -3.118011e+001
    endloop
  endfacet
  facet normal  6.343933e-001  0.000000e+000 -7.730105e-001
    outer loop
      vertex  2.083388e+001 -3.000000e+000 -3.118011e+001
      vertex  2.083388e+001  3.000000e+000 -3.118011e+001
      vertex  2.651650e+001 -3.000000e+000 -2.651650e+001
    endloop
  endfacet
  facet normal  6.343933e-001  0.000000e+000 -7.730105e-001
    outer loop
      vertex  2.651650e+001 -3.000000e+000 -2.651650e+001
      vertex  2.083388e+001  3.000000e+000 -3.118011e+001
      vertex  2.651650e+001  3.000000e+000 -2.651650e+001
    endloop
  endfacet
  facet normal  7.730105e-001  0.000000e+000 -6.343933e-001
    outer loop
      vertex  2.651650e+001 -3.000000e+000 -2.651650e+001
      vertex  2.651650e+001  3.000000e+000 -2.651650e+001
      vertex  3.118011e+001 -3.000000e+000 -2.083388e+001
    endloop
  endfacet
  facet normal  7.730105e-001  0.000000e+000 -6.343933e-001
    outer loop
      vertex  3.118011e+001 -3.000000e+000 -2.083388e+001
      vertex  2.651650e+001  3.000000e+000 -2.651650e+001
      vertex  3.118011e+001  3.000000e+000 -2.083388e+001
    endloop
  endfacet
  facet normal  8.819213e-001  0.000000e+000 -4.713965e-001
    outer loop
      vertex  3.118011e+001 -3.000000e+000 -2.083388e+001
      vertex  3.118011e+001  3.000000e+000 -2.083388e+001
      vertex  3.464548e+001 -3.000000e+000 -1.435063e+001
    endloop
  endfacet
  facet normal  8.819213e-001  0.000000e+000 -4.713965e-001
    outer loop
      vertex  3.464548e+001 -3.000000e+000 -1.435063e+001
      vertex  3.118011e+001  3.000000e+000 -2.083388e+001
      vertex  3.464548e+001  3.000000e+000 -1.435063e+001
    endloop
  endfacet
  facet normal  9.569402e-001  0.000000e+000 -2.902850e-001
    outer loop
      vertex  3.464548e+001 -3.000000e+000 -1.435063e+001
      vertex  3.464548e+001  3.000000e+000 -1.435063e+001
      vertex  3.677945e+001 -3.000000e+000 -7.315887e+000
    endloop
  endfacet
  facet normal  9.569402e-001  0.000000e+000 -2.902850e-001
    outer loop
      vertex  3.677945e+001 -3.000000e+000 -7.315887e+000
      vertex  3.464548e+001  3.000000e+000 -1.435063e+001
      vertex  3.677945e+001  3.000000e+000 -7.315887e+000
    endloop
  endfacet
  facet normal  9.951847e-001  0.000000e+000 -9.801695e-002
    outer loop
      vertex  3.677945e+001 -3.000000e+000 -7.315887e+000
      vertex  3.677945e+001  3.000000e+000 -7.315887e+000
      vertex  3.750000e+001 -3.000000e+000  4.592274e-015
    endloop
  endfacet
  facet normal  9.951847e-001  0.000000e+000 -9.801695e-002
    outer loop
      vertex  3.750000e+001 -3.000000e+000  4.592274e-015
      vertex  3.677945e+001  3.000000e+000 -7.315887e+000
      vertex  3.750000e+001  3.000000e+000  4.592274e-015
    endloop
  endfacet
  facet normal  9.951847e-001  0.000000e+000  9.801695e-002
    outer loop
      vertex  3.750000e+001 -3.000000e+000  4.592274e-015
      vertex  3.750000e+001  3.000000e+000  4.592274e-015
      vertex  3.677945e+001 -3.000000e+000  7.315887e+000
    endloop
  endfacet
  facet normal  9.951847e-001  -0.000000e+000  9.801695e-002
    outer loop
      vertex  3.677945e+001 -3.000000e+000  7.315887e+000
      vertex  3.750000e+001  3.000000e+000  4.592274e-015
      vertex  3.677945e+001  3.000000e+000  7.315887e+000
    endloop
  endfacet
  facet normal  9.569402e-001  0.000000e+000  2.902850e-001
    outer loop
      vertex  3.677945e+001 -3.000000e+000  7.315887e+000
      vertex  3.677945e+001  3.000000e+000  7.315887e+000
      vertex  3.464548e+001 -3.000000e+000  1.435063e+001
    endloop
  endfacet
  facet normal  9.569402e-001  -0.000000e+000  2.902850e-001
    outer loop
      vertex  3.464548e+001 -3.000000e+000  1.435063e+001
      vertex  3.677945e+001  3.000000e+000  7.315887e+000
      vertex  3.464548e+001  3.000000e+000  1.435063e+001
    endloop
  endfacet
  facet normal  8.819213e-001  0.000000e+000  4.713965e-001
    outer loop
      vertex  3.464548e+001 -3.000000e+000  1.435063e+001
      vertex  3.464548e+001  3.000000e+000  1.435063e+001
      vertex  3.118011e+001 -3.000000e+000  2.083388e+001
    endloop
  endfacet
  facet normal  8.819213e-001  -0.000000e+000  4.713965e-001
    outer loop
      vertex  3.118011e+001 -3.000000e+000  2.083388e+001
      vertex  3.464548e+001  3.000000e+000  1.435063e+001
      vertex  3.118011e+001  3.000000e+000  2.083388e+001
    endloop
  endfacet
  facet normal  7.730105e-001  0.000000e+000  6.343933e-001
    outer loop
      vertex  3.118011e+001 -3.000000e+000  2.083388e+001
      vertex  3.118011e+001  3.000000e+000  2.083388e+001
      vertex  2.651650e+001 -3.000000e+000  2.651650e+001
    endloop
  endfacet
  facet normal  7.730105e-001  -0.000000e+000  6.343933e-001
    outer loop
      vertex  2.651650e+001 -3.000000e+000  2.651650e+001
      vertex  3.118011e+001  3.000000e+000  2.083388e+001
      vertex  2.651650e+001  3.000000e+000  2.651650e+001
    endloop
  endfacet
  facet normal  6.343933e-001  0.000000e+000  7.730105e-001
    outer loop
      vertex  2.651650e+001 -3.000000e+000  2.651650e+001
      vertex  2.651650e+001  3.000000e+000  2.651650e+001
      vertex  2.083388e+001 -3.000000e+000  3.118011e+001
    endloop
  endfacet
  facet normal  6.343933e-001  -0.000000e+000  7.730105e-001
    outer loop
      vertex  2.083388e+001 -3.000000e+000  3.118011e+001
      vertex  2.651650e+001  3.000000e+000  2.651650e+001
      vertex  2.083388e+001  3.000000e+000  3.118011e+001
    endloop
  endfacet
  facet normal  4.713965e-001  0.000000e+000  8.819213e-001
    outer loop
      vertex  2.083388e+001 -3.000000e+000  3.118011e+001
      vertex  2.083388e+001  3.000000e+000  3.118011e+001
      vertex  1.435063e+001 -3.000000e+000  3.464548e+001
    endloop
  endfacet
  facet normal  4.713965e-001  -0.000000e+000  8.819213e-001
    outer loop
      vertex  1.435063e+001 -3.000000e+000  3.464548e+001
      vertex  2.083388e+001  3.000000e+000  3.118011e+001
      vertex  1.435063e+001  3.000000e+000  3.464548e+001
    endloop
  endfacet
  facet normal  2.902850e-001  0.000000e+000  9.569402e-001
    outer loop
      vertex  1.435063e+001 -3.000000e+000  3.464548e+001
      vertex  1.435063e+001  3.000000e+000  3.464548e+001
      vertex  7.315887e+000 -3.000000e+000  3.677945e+001
    endloop
  endfacet
  facet normal  2.902850e-001  -0.000000e+000  9.569402e-001
    outer loop
      vertex  7.315887e+000 -3.000000e+000  3.677945e+001
      vertex  1.435063e+001  3.000000e+000  3.464548e+001
      vertex  7.315887e+000  3.000000e+000  3.677945e+001
    endloop
  endfacet
  facet normal  9.801695e-002  0.000000e+000  9.951847e-001
    outer loop
      vertex  7.315887e+000 -3.000000e+000  3.677945e+001
      vertex  7.315887e+000  3.000000e+000  3.677945e+001
      vertex -2.296137e-015 -3.000000e+000  3.750000e+001
    endloop
  endfacet
  facet normal  9.801695e-002  -0.000000e+000  9.951847e-001
    outer loop
      vertex -2.296137e-015 -3.000000e+000  3.750000e+001
      vertex  7.315887e+000  3.000000e+000  3.677945e+001
      vertex -2.296137e-015  3.000000e+000  3.750000e+001
    endloop
  endfacet
  facet normal -9.801695e-002  0.000000e+000  9.951847e-001
    outer loop
      vertex -2.296137e-015 -3.000000e+000  3.750000e+001
      vertex -2.296137e-015  3.000000e+000  3.750000e+001
      vertex -7.315887e+000 -3.000000e+000  3.677945e+001
    endloop
  endfacet
  facet normal -9.801695e-002  0.000000e+000  9.951847e-001
    outer loop
      vertex -7.315887e+000 -3.000000e+000  3.677945e+001
      vertex -2.296137e-015  3.000000e+000  3.750000e+001
      vertex -7.315887e+000  3.000000e+000  3.677945e+001
    endloop
  endfacet
  facet normal -2.902850e-001  0.000000e+000  9.569402e-001
    outer loop
      vertex -7.315887e+000 -3.000000e+000  3.677945e+001
      vertex -7.315887e+000  3.000000e+000  3.677945e+001
      vertex -1.435063e+001 -3.000000e+000  3.464548e+001
    endloop
  endfacet
  facet normal -2.902850e-001  0.000000e+000  9.569402e-001
    outer loop
      vertex -1.435063e+001 -3.000000e+000  3.464548e+001
      vertex -7.315887e+000  3.000000e+000  3.677945e+001
      vertex -1.435063e+001  3.000000e+000  3.464548e+001
    endloop
  endfacet
  facet normal -4.713965e-001  0.000000e+000  8.819213e-001
    outer loop
      vertex -1.435063e+001 -3.000000e+000  3.464548e+001
      vertex -1.435063e+001  3.000000e+000  3.464548e+001
      vertex -2.083388e+001 -3.000000e+000  3.118011e+001
    endloop
  endfacet
  facet normal -4.713965e-001  0.000000e+000  8.819213e-001
    outer loop
      vertex -2.083388e+001 -3.000000e+000  3.118011e+001
      vertex -1.435063e+001  3.000000e+000  3.464548e+001
      vertex -2.083388e+001  3.000000e+000  3.118011e+001
    endloop
  endfacet
  facet normal -6.343933e-001  0.000000e+000  7.730105e-001
    outer loop
      vertex -2.083388e+001 -3.000000e+000  3.118011e+001
      vertex -2.083388e+001  3.000000e+000  3.118011e+001
      vertex -2.651650e+001 -3.000000e+000  2.651650e+001
    endloop
  endfacet
  facet normal -6.343933e-001  0.000000e+000  7.730105e-001
    outer loop
      vertex -2.651650e+001 -3.000000e+000  2.651650e+001
      vertex -2.083388e+001  3.000000e+000  3.118011e+001
      vertex -2.651650e+001  3.000000e+000  2.651650e+001
    endloop
  endfacet
  facet normal -7.730105e-001  0.000000e+000  6.343933e-001
    outer loop
      vertex -2.651650e+001 -3.000000e+000  2.651650e+001
      vertex -2.651650e+001  3.000000e+000  2.651650e+001
      vertex -3.118011e+001 -3.000000e+000  2.083388e+001
    endloop
  endfacet
  facet normal -7.730105e-001  0.000000e+000  6.343933e-001
    outer loop
      vertex -3.118011e+001 -3.000000e+000  2.083388e+001
      vertex -2.651650e+001  3.000000e+000  2.651650e+001
      vertex -3.118011e+001  3.000000e+000  2.083388e+001
    endloop
  endfacet
  facet normal -8.819213e-001  0.000000e+000  4.713965e-001
    outer loop
      vertex -3.118011e+001 -3.000000e+000  2.083388e+001
      vertex -3.118011e+001  3.000000e+000  2.083388e+001
      vertex -3.464548e+001 -3.000000e+000  1.435063e+001
    endloop
  endfacet
  facet normal -8.819213e-001  0.000000e+000  4.713965e-001
    outer loop
      vertex -3.464548e+001 -3.000000e+000  1.435063e+001
      vertex -3.118011e+001  3.000000e+000  2.083388e+001
      vertex -3.464548e+001  3.000000e+000  1.435063e+001
    endloop
  endfacet
  facet normal -9.569402e-001  0.000000e+000  2.902850e-001
    outer loop
      vertex -3.464548e+001 -3.000000e+000  1.435063e+001
      vertex -3.464548e+001  3.000000e+000  1.435063e+001
      vertex -3.677945e+001 -3.000000e+000  7.315887e+000
    endloop
  endfacet
  facet normal -9.569402e-001  0.000000e+000  2.902850e-001
    outer loop
      vertex -3.677945e+001 -3.000000e+000  7.315887e+000
      vertex -3.464548e+001  3.000000e+000  1.435063e+001
      vertex -3.677945e+001  3.000000e+000  7.315887e+000
    endloop
  endfacet
  facet normal -9.951847e-001  0.000000e+000  9.801695e-002
    outer loop
      vertex -3.677945e+001 -3.000000e+000  7.315887e+000
      vertex -3.677945e+001  3.000000e+000  7.315887e+000
      vertex -3.750000e+001 -3.000000e+000  0.000000e+000
    endloop
  endfacet
  facet normal -9.951847e-001  0.000000e+000  9.801695e-002
    outer loop
      vertex -3.750000e+001 -3.000000e+000  0.000000e+000
      vertex -3.677945e+001  3.000000e+000  7.315887e+000
      vertex -3.750000e+001  3.000000e+000  0.000000e+000
    endloop
  endfacet
endsolid CATIA STL
