solid CATIA STL
  facet normal  0.000000e+000  0.000000e+000  1.000000e+000
    outer loop
      vertex -1.590990e+000  1.590990e+000  1.500000e+001
      vertex  1.590990e+000  1.590990e+000  1.500000e+001
      vertex  1.377682e-016  2.250000e+000  1.500000e+001
    endloop
  endfacet
  facet normal  -0.000000e+000  0.000000e+000  1.000000e+000
    outer loop
      vertex  1.590990e+000  1.590990e+000  1.500000e+001
      vertex -1.590990e+000  1.590990e+000  1.500000e+001
      vertex  2.250000e+000  0.000000e+000  1.500000e+001
    endloop
  endfacet
  facet normal  0.000000e+000  0.000000e+000  1.000000e+000
    outer loop
      vertex  2.250000e+000  0.000000e+000  1.500000e+001
      vertex -1.590990e+000  1.590990e+000  1.500000e+001
      vertex -2.250000e+000  2.755364e-016  1.500000e+001
    endloop
  endfacet
  facet normal  0.000000e+000  0.000000e+000  1.000000e+000
    outer loop
      vertex  2.250000e+000  0.000000e+000  1.500000e+001
      vertex -2.250000e+000  2.755364e-016  1.500000e+001
      vertex  1.590990e+000 -1.590990e+000  1.500000e+001
    endloop
  endfacet
  facet normal  0.000000e+000  0.000000e+000  1.000000e+000
    outer loop
      vertex  1.590990e+000 -1.590990e+000  1.500000e+001
      vertex -2.250000e+000  2.755364e-016  1.500000e+001
      vertex -1.590990e+000 -1.590990e+000  1.500000e+001
    endloop
  endfacet
  facet normal  -0.000000e+000  0.000000e+000  1.000000e+000
    outer loop
      vertex  1.590990e+000 -1.590990e+000  1.500000e+001
      vertex -1.590990e+000 -1.590990e+000  1.500000e+001
      vertex -4.133046e-016 -2.250000e+000  1.500000e+001
    endloop
  endfacet
  facet normal  0.000000e+000  0.000000e+000 -1.000000e+000
    outer loop
      vertex  1.377682e-016  2.250000e+000 -1.500000e+001
      vertex  1.590990e+000  1.590990e+000 -1.500000e+001
      vertex -1.590990e+000  1.590990e+000 -1.500000e+001
    endloop
  endfacet
  facet normal  -0.000000e+000  0.000000e+000 -1.000000e+000
    outer loop
      vertex -1.590990e+000  1.590990e+000 -1.500000e+001
      vertex  1.590990e+000  1.590990e+000 -1.500000e+001
      vertex -2.250000e+000  2.755364e-016 -1.500000e+001
    endloop
  endfacet
  facet normal  0.000000e+000  0.000000e+000 -1.000000e+000
    outer loop
      vertex -2.250000e+000  2.755364e-016 -1.500000e+001
      vertex  1.590990e+000  1.590990e+000 -1.500000e+001
      vertex  2.250000e+000  0.000000e+000 -1.500000e+001
    endloop
  endfacet
  facet normal  -0.000000e+000  0.000000e+000 -1.000000e+000
    outer loop
      vertex -2.250000e+000  2.755364e-016 -1.500000e+001
      vertex  2.250000e+000  0.000000e+000 -1.500000e+001
      vertex -1.590990e+000 -1.590990e+000 -1.500000e+001
    endloop
  endfacet
  facet normal  0.000000e+000  0.000000e+000 -1.000000e+000
    outer loop
      vertex -1.590990e+000 -1.590990e+000 -1.500000e+001
      vertex  2.250000e+000  0.000000e+000 -1.500000e+001
      vertex  1.590990e+000 -1.590990e+000 -1.500000e+001
    endloop
  endfacet
  facet normal  -0.000000e+000  0.000000e+000 -1.000000e+000
    outer loop
      vertex -1.590990e+000 -1.590990e+000 -1.500000e+001
      vertex  1.590990e+000 -1.590990e+000 -1.500000e+001
      vertex -4.133046e-016 -2.250000e+000 -1.500000e+001
    endloop
  endfacet
  facet normal  9.238796e-001 -3.826834e-001  0.000000e+000
    outer loop
      vertex  2.250000e+000  0.000000e+000 -1.500000e+001
      vertex  2.250000e+000  0.000000e+000  1.500000e+001
      vertex  1.590990e+000 -1.590990e+000 -1.500000e+001
    endloop
  endfacet
  facet normal  9.238796e-001 -3.826834e-001  0.000000e+000
    outer loop
      vertex  1.590990e+000 -1.590990e+000 -1.500000e+001
      vertex  2.250000e+000  0.000000e+000  1.500000e+001
      vertex  1.590990e+000 -1.590990e+000  1.500000e+001
    endloop
  endfacet
  facet normal  3.826834e-001 -9.238796e-001  0.000000e+000
    outer loop
      vertex  1.590990e+000 -1.590990e+000 -1.500000e+001
      vertex  1.590990e+000 -1.590990e+000  1.500000e+001
      vertex -4.133046e-016 -2.250000e+000 -1.500000e+001
    endloop
  endfacet
  facet normal  3.826834e-001 -9.238796e-001  0.000000e+000
    outer loop
      vertex -4.133046e-016 -2.250000e+000 -1.500000e+001
      vertex  1.590990e+000 -1.590990e+000  1.500000e+001
      vertex -4.133046e-016 -2.250000e+000  1.500000e+001
    endloop
  endfacet
  facet normal -3.826834e-001 -9.238796e-001  -0.000000e+000
    outer loop
      vertex -4.133046e-016 -2.250000e+000 -1.500000e+001
      vertex -4.133046e-016 -2.250000e+000  1.500000e+001
      vertex -1.590990e+000 -1.590990e+000 -1.500000e+001
    endloop
  endfacet
  facet normal -3.826834e-001 -9.238796e-001  0.000000e+000
    outer loop
      vertex -1.590990e+000 -1.590990e+000 -1.500000e+001
      vertex -4.133046e-016 -2.250000e+000  1.500000e+001
      vertex -1.590990e+000 -1.590990e+000  1.500000e+001
    endloop
  endfacet
  facet normal -9.238796e-001 -3.826834e-001  -0.000000e+000
    outer loop
      vertex -1.590990e+000 -1.590990e+000 -1.500000e+001
      vertex -1.590990e+000 -1.590990e+000  1.500000e+001
      vertex -2.250000e+000  2.755364e-016 -1.500000e+001
    endloop
  endfacet
  facet normal -9.238796e-001 -3.826834e-001  0.000000e+000
    outer loop
      vertex -2.250000e+000  2.755364e-016 -1.500000e+001
      vertex -1.590990e+000 -1.590990e+000  1.500000e+001
      vertex -2.250000e+000  2.755364e-016  1.500000e+001
    endloop
  endfacet
  facet normal -9.238796e-001  3.826834e-001  0.000000e+000
    outer loop
      vertex -2.250000e+000  2.755364e-016 -1.500000e+001
      vertex -2.250000e+000  2.755364e-016  1.500000e+001
      vertex -1.590990e+000  1.590990e+000 -1.500000e+001
    endloop
  endfacet
  facet normal -9.238796e-001  3.826834e-001  0.000000e+000
    outer loop
      vertex -1.590990e+000  1.590990e+000 -1.500000e+001
      vertex -2.250000e+000  2.755364e-016  1.500000e+001
      vertex -1.590990e+000  1.590990e+000  1.500000e+001
    endloop
  endfacet
  facet normal -3.826834e-001  9.238796e-001  0.000000e+000
    outer loop
      vertex -1.590990e+000  1.590990e+000 -1.500000e+001
      vertex -1.590990e+000  1.590990e+000  1.500000e+001
      vertex  1.377682e-016  2.250000e+000 -1.500000e+001
    endloop
  endfacet
  facet normal -3.826834e-001  9.238796e-001  0.000000e+000
    outer loop
      vertex  1.377682e-016  2.250000e+000 -1.500000e+001
      vertex -1.590990e+000  1.590990e+000  1.500000e+001
      vertex  1.377682e-016  2.250000e+000  1.500000e+001
    endloop
  endfacet
  facet normal  3.826834e-001  9.238796e-001  0.000000e+000
    outer loop
      vertex  1.377682e-016  2.250000e+000 -1.500000e+001
      vertex  1.377682e-016  2.250000e+000  1.500000e+001
      vertex  1.590990e+000  1.590990e+000 -1.500000e+001
    endloop
  endfacet
  facet normal  3.826834e-001  9.238796e-001  -0.000000e+000
    outer loop
      vertex  1.590990e+000  1.590990e+000 -1.500000e+001
      vertex  1.377682e-016  2.250000e+000  1.500000e+001
      vertex  1.590990e+000  1.590990e+000  1.500000e+001
    endloop
  endfacet
  facet normal  9.238796e-001  3.826834e-001  0.000000e+000
    outer loop
      vertex  1.590990e+000  1.590990e+000 -1.500000e+001
      vertex  1.590990e+000  1.590990e+000  1.500000e+001
      vertex  2.250000e+000  0.000000e+000 -1.500000e+001
    endloop
  endfacet
  facet normal  9.238796e-001  3.826834e-001  -0.000000e+000
    outer loop
      vertex  2.250000e+000  0.000000e+000 -1.500000e+001
      vertex  1.590990e+000  1.590990e+000  1.500000e+001
      vertex  2.250000e+000  0.000000e+000  1.500000e+001
    endloop
  endfacet
endsolid CATIA STL
