solid CATIA STL
  facet normal  0.000000e+000  0.000000e+000  1.000000e+000
    outer loop
      vertex -8.427639e-017  2.250000e+000  1.000000e+000
      vertex -7.326597e-008  2.500000e+000  1.000000e+000
      vertex -1.590990e+000  1.590990e+000  1.000000e+000
    endloop
  endfacet
  facet normal  0.000000e+000  -0.000000e+000  1.000000e+000
    outer loop
      vertex -1.590990e+000  1.590990e+000  1.000000e+000
      vertex -7.326597e-008  2.500000e+000  1.000000e+000
      vertex -1.767767e+000  1.767767e+000  1.000000e+000
    endloop
  endfacet
  facet normal  0.000000e+000  0.000000e+000  1.000000e+000
    outer loop
      vertex -1.590990e+000  1.590990e+000  1.000000e+000
      vertex -1.767767e+000  1.767767e+000  1.000000e+000
      vertex -2.250000e+000  2.755364e-016  1.000000e+000
    endloop
  endfacet
  facet normal  0.000000e+000  -0.000000e+000  9.999999e-001
    outer loop
      vertex -2.250000e+000  2.755364e-016  1.000000e+000
      vertex -1.767767e+000  1.767767e+000  1.000000e+000
      vertex -2.500000e+000 -1.465319e-007  1.000000e+000
    endloop
  endfacet
  facet normal  -0.000000e+000  0.000000e+000  1.000000e+000
    outer loop
      vertex -2.250000e+000  2.755364e-016  1.000000e+000
      vertex -2.500000e+000 -1.465319e-007  1.000000e+000
      vertex -1.590990e+000 -1.590990e+000  1.000000e+000
    endloop
  endfacet
  facet normal  0.000000e+000  0.000000e+000  1.000000e+000
    outer loop
      vertex -1.590990e+000 -1.590990e+000  1.000000e+000
      vertex -2.500000e+000 -1.465319e-007  1.000000e+000
      vertex -1.767767e+000 -1.767767e+000  1.000000e+000
    endloop
  endfacet
  facet normal  -0.000000e+000  0.000000e+000  9.999999e-001
    outer loop
      vertex -1.590990e+000 -1.590990e+000  1.000000e+000
      vertex -1.767767e+000 -1.767767e+000  1.000000e+000
      vertex -2.189661e-015 -2.250000e+000  1.000000e+000
    endloop
  endfacet
  facet normal  0.000000e+000  0.000000e+000  1.000000e+000
    outer loop
      vertex -2.189661e-015 -2.250000e+000  1.000000e+000
      vertex -1.767767e+000 -1.767767e+000  1.000000e+000
      vertex -1.037100e-013 -2.500000e+000  1.000000e+000
    endloop
  endfacet
  facet normal  0.000000e+000  0.000000e+000  1.000000e+000
    outer loop
      vertex -2.189661e-015 -2.250000e+000  1.000000e+000
      vertex -1.037100e-013 -2.500000e+000  1.000000e+000
      vertex  1.590990e+000 -1.590990e+000  1.000000e+000
    endloop
  endfacet
  facet normal  0.000000e+000  0.000000e+000  1.000000e+000
    outer loop
      vertex  1.590990e+000 -1.590990e+000  1.000000e+000
      vertex -1.037100e-013 -2.500000e+000  1.000000e+000
      vertex  1.767767e+000 -1.767767e+000  1.000000e+000
    endloop
  endfacet
  facet normal  0.000000e+000  -0.000000e+000  9.999999e-001
    outer loop
      vertex  1.590990e+000 -1.590990e+000  1.000000e+000
      vertex  1.767767e+000 -1.767767e+000  1.000000e+000
      vertex  2.250000e+000  0.000000e+000  1.000000e+000
    endloop
  endfacet
  facet normal  0.000000e+000  0.000000e+000  1.000000e+000
    outer loop
      vertex  2.250000e+000  0.000000e+000  1.000000e+000
      vertex  1.767767e+000 -1.767767e+000  1.000000e+000
      vertex  2.500000e+000 -1.278437e-015  1.000000e+000
    endloop
  endfacet
  facet normal  0.000000e+000  0.000000e+000  1.000000e+000
    outer loop
      vertex  2.250000e+000  0.000000e+000  1.000000e+000
      vertex  2.500000e+000 -1.278437e-015  1.000000e+000
      vertex  1.590990e+000  1.590990e+000  1.000000e+000
    endloop
  endfacet
  facet normal  -0.000000e+000  0.000000e+000  1.000000e+000
    outer loop
      vertex  1.590990e+000  1.590990e+000  1.000000e+000
      vertex  2.500000e+000 -1.278437e-015  1.000000e+000
      vertex  1.767767e+000  1.767767e+000  1.000000e+000
    endloop
  endfacet
  facet normal  0.000000e+000  0.000000e+000  9.999999e-001
    outer loop
      vertex  1.590990e+000  1.590990e+000  1.000000e+000
      vertex  1.767767e+000  1.767767e+000  1.000000e+000
      vertex -8.427639e-017  2.250000e+000  1.000000e+000
    endloop
  endfacet
  facet normal  -0.000000e+000  -0.000000e+000  1.000000e+000
    outer loop
      vertex -8.427639e-017  2.250000e+000  1.000000e+000
      vertex  1.767767e+000  1.767767e+000  1.000000e+000
      vertex -7.326597e-008  2.500000e+000  1.000000e+000
    endloop
  endfacet
  facet normal  -0.000000e+000  0.000000e+000 -1.000000e+000
    outer loop
      vertex -1.081560e+000  3.328698e+000  0.000000e+000
      vertex  1.081560e+000  3.328698e+000  0.000000e+000
      vertex -2.831559e+000  2.057248e+000  0.000000e+000
    endloop
  endfacet
  facet normal  0.000000e+000  0.000000e+000 -1.000000e+000
    outer loop
      vertex -2.831559e+000  2.057248e+000  0.000000e+000
      vertex  1.081560e+000  3.328698e+000  0.000000e+000
      vertex  2.831559e+000  2.057248e+000  0.000000e+000
    endloop
  endfacet
  facet normal  -0.000000e+000  0.000000e+000 -1.000000e+000
    outer loop
      vertex -2.831559e+000  2.057248e+000  0.000000e+000
      vertex  2.831559e+000  2.057248e+000  0.000000e+000
      vertex -3.500000e+000  4.286122e-016  0.000000e+000
    endloop
  endfacet
  facet normal  0.000000e+000  0.000000e+000 -9.999999e-001
    outer loop
      vertex -3.500000e+000  4.286122e-016  0.000000e+000
      vertex  2.831559e+000  2.057248e+000  0.000000e+000
      vertex  3.500000e+000  0.000000e+000  0.000000e+000
    endloop
  endfacet
  facet normal  -0.000000e+000  0.000000e+000 -9.999999e-001
    outer loop
      vertex -3.500000e+000  4.286122e-016  0.000000e+000
      vertex  3.500000e+000  0.000000e+000  0.000000e+000
      vertex -2.831559e+000 -2.057248e+000  0.000000e+000
    endloop
  endfacet
  facet normal  0.000000e+000  0.000000e+000 -1.000000e+000
    outer loop
      vertex -2.831559e+000 -2.057248e+000  0.000000e+000
      vertex  3.500000e+000  0.000000e+000  0.000000e+000
      vertex  2.831559e+000 -2.057248e+000  0.000000e+000
    endloop
  endfacet
  facet normal  -0.000000e+000  0.000000e+000 -1.000000e+000
    outer loop
      vertex -2.831559e+000 -2.057248e+000  0.000000e+000
      vertex  2.831559e+000 -2.057248e+000  0.000000e+000
      vertex -1.081560e+000 -3.328698e+000  0.000000e+000
    endloop
  endfacet
  facet normal  0.000000e+000  0.000000e+000 -1.000000e+000
    outer loop
      vertex -1.081560e+000 -3.328698e+000  0.000000e+000
      vertex  2.831559e+000 -2.057248e+000  0.000000e+000
      vertex  1.081560e+000 -3.328698e+000  0.000000e+000
    endloop
  endfacet
  facet normal  3.145774e-001 -1.303022e-001  9.402459e-001
    outer loop
      vertex  2.500000e+000 -1.278437e-015  1.000000e+000
      vertex  1.767767e+000 -1.767767e+000  1.000000e+000
      vertex  2.594604e+000 -1.885090e+000  7.071068e-001
    endloop
  endfacet
  facet normal  3.797590e-001 -1.233912e-001  9.168193e-001
    outer loop
      vertex  2.500000e+000 -1.278437e-015  1.000000e+000
      vertex  2.594604e+000 -1.885090e+000  7.071068e-001
      vertex  3.207107e+000 -2.220446e-016  7.071068e-001
    endloop
  endfacet
  facet normal -3.797590e-001 -1.233912e-001  9.168193e-001
    outer loop
      vertex -2.500000e+000 -1.465319e-007  1.000000e+000
      vertex -3.207107e+000  0.000000e+000  7.071068e-001
      vertex -2.594604e+000 -1.885090e+000  7.071068e-001
    endloop
  endfacet
  facet normal -3.145774e-001 -1.303023e-001  9.402459e-001
    outer loop
      vertex -2.500000e+000 -1.465319e-007  1.000000e+000
      vertex -2.594604e+000 -1.885090e+000  7.071068e-001
      vertex -1.767767e+000 -1.767767e+000  1.000000e+000
    endloop
  endfacet
  facet normal -1.199285e-001 -2.895329e-001  9.496251e-001
    outer loop
      vertex -9.910505e-001 -3.050140e+000  7.071068e-001
      vertex -1.037100e-013 -2.500000e+000  1.000000e+000
      vertex -1.767767e+000 -1.767767e+000  1.000000e+000
    endloop
  endfacet
  facet normal -2.646232e-001 -3.642226e-001  8.929259e-001
    outer loop
      vertex -9.910505e-001 -3.050140e+000  7.071068e-001
      vertex -1.767767e+000 -1.767767e+000  1.000000e+000
      vertex -2.594604e+000 -1.885090e+000  7.071068e-001
    endloop
  endfacet
  facet normal  1.199285e-001 -2.895329e-001  9.496251e-001
    outer loop
      vertex  9.910505e-001 -3.050140e+000  7.071068e-001
      vertex  1.767767e+000 -1.767767e+000  1.000000e+000
      vertex -1.037100e-013 -2.500000e+000  1.000000e+000
    endloop
  endfacet
  facet normal  0.000000e+000 -4.699451e-001  8.826957e-001
    outer loop
      vertex  9.910505e-001 -3.050140e+000  7.071068e-001
      vertex -1.037100e-013 -2.500000e+000  1.000000e+000
      vertex -9.910505e-001 -3.050140e+000  7.071068e-001
    endloop
  endfacet
  facet normal  2.646232e-001 -3.642226e-001  8.929259e-001
    outer loop
      vertex  2.594604e+000 -1.885090e+000  7.071068e-001
      vertex  1.767767e+000 -1.767767e+000  1.000000e+000
      vertex  9.910505e-001 -3.050140e+000  7.071068e-001
    endloop
  endfacet
  facet normal -8.848706e-001 -2.875119e-001  3.665254e-001
    outer loop
      vertex -3.207107e+000  0.000000e+000  7.071068e-001
      vertex -3.500000e+000  4.286122e-016  0.000000e+000
      vertex -2.594604e+000 -1.885090e+000  7.071068e-001
    endloop
  endfacet
  facet normal -8.848706e-001 -2.875119e-001  3.665254e-001
    outer loop
      vertex -2.594604e+000 -1.885090e+000  7.071068e-001
      vertex -3.500000e+000  4.286122e-016  0.000000e+000
      vertex -2.831559e+000 -2.057248e+000  0.000000e+000
    endloop
  endfacet
  facet normal -5.468802e-001 -7.527159e-001  3.665254e-001
    outer loop
      vertex -2.594604e+000 -1.885090e+000  7.071068e-001
      vertex -2.831559e+000 -2.057248e+000  0.000000e+000
      vertex -9.910505e-001 -3.050140e+000  7.071068e-001
    endloop
  endfacet
  facet normal -5.468802e-001 -7.527159e-001  3.665255e-001
    outer loop
      vertex -9.910505e-001 -3.050140e+000  7.071068e-001
      vertex -2.831559e+000 -2.057248e+000  0.000000e+000
      vertex -1.081560e+000 -3.328698e+000  0.000000e+000
    endloop
  endfacet
  facet normal  0.000000e+000 -9.304080e-001  3.665254e-001
    outer loop
      vertex -9.910505e-001 -3.050140e+000  7.071068e-001
      vertex -1.081560e+000 -3.328698e+000  0.000000e+000
      vertex  9.910505e-001 -3.050140e+000  7.071068e-001
    endloop
  endfacet
  facet normal  0.000000e+000 -9.304080e-001  3.665254e-001
    outer loop
      vertex  9.910505e-001 -3.050140e+000  7.071068e-001
      vertex -1.081560e+000 -3.328698e+000  0.000000e+000
      vertex  1.081560e+000 -3.328698e+000  0.000000e+000
    endloop
  endfacet
  facet normal  5.468801e-001 -7.527158e-001  3.665255e-001
    outer loop
      vertex  9.910505e-001 -3.050140e+000  7.071068e-001
      vertex  1.081560e+000 -3.328698e+000  0.000000e+000
      vertex  2.594604e+000 -1.885090e+000  7.071068e-001
    endloop
  endfacet
  facet normal  5.468802e-001 -7.527159e-001  3.665254e-001
    outer loop
      vertex  2.594604e+000 -1.885090e+000  7.071068e-001
      vertex  1.081560e+000 -3.328698e+000  0.000000e+000
      vertex  2.831559e+000 -2.057248e+000  0.000000e+000
    endloop
  endfacet
  facet normal  8.848706e-001 -2.875119e-001  3.665254e-001
    outer loop
      vertex  2.594604e+000 -1.885090e+000  7.071068e-001
      vertex  2.831559e+000 -2.057248e+000  0.000000e+000
      vertex  3.207107e+000 -2.220446e-016  7.071068e-001
    endloop
  endfacet
  facet normal  8.848706e-001 -2.875119e-001  3.665254e-001
    outer loop
      vertex  3.207107e+000 -2.220446e-016  7.071068e-001
      vertex  2.831559e+000 -2.057248e+000  0.000000e+000
      vertex  3.500000e+000  0.000000e+000  0.000000e+000
    endloop
  endfacet
  facet normal -3.145774e-001  1.303022e-001  9.402459e-001
    outer loop
      vertex -2.500000e+000 -1.465319e-007  1.000000e+000
      vertex -1.767767e+000  1.767767e+000  1.000000e+000
      vertex -2.594604e+000  1.885090e+000  7.071068e-001
    endloop
  endfacet
  facet normal -3.797590e-001  1.233912e-001  9.168193e-001
    outer loop
      vertex -2.500000e+000 -1.465319e-007  1.000000e+000
      vertex -2.594604e+000  1.885090e+000  7.071068e-001
      vertex -3.207107e+000  0.000000e+000  7.071068e-001
    endloop
  endfacet
  facet normal  3.797590e-001  1.233912e-001  9.168193e-001
    outer loop
      vertex  2.500000e+000 -1.278437e-015  1.000000e+000
      vertex  3.207107e+000 -2.220446e-016  7.071068e-001
      vertex  2.594604e+000  1.885090e+000  7.071068e-001
    endloop
  endfacet
  facet normal  3.145774e-001  1.303022e-001  9.402459e-001
    outer loop
      vertex  2.500000e+000 -1.278437e-015  1.000000e+000
      vertex  2.594604e+000  1.885090e+000  7.071068e-001
      vertex  1.767767e+000  1.767767e+000  1.000000e+000
    endloop
  endfacet
  facet normal  1.199285e-001  2.895329e-001  9.496251e-001
    outer loop
      vertex  9.910505e-001  3.050140e+000  7.071068e-001
      vertex -7.326597e-008  2.500000e+000  1.000000e+000
      vertex  1.767767e+000  1.767767e+000  1.000000e+000
    endloop
  endfacet
  facet normal  2.646232e-001  3.642226e-001  8.929259e-001
    outer loop
      vertex  9.910505e-001  3.050140e+000  7.071068e-001
      vertex  1.767767e+000  1.767767e+000  1.000000e+000
      vertex  2.594604e+000  1.885090e+000  7.071068e-001
    endloop
  endfacet
  facet normal -1.199285e-001  2.895329e-001  9.496251e-001
    outer loop
      vertex -9.910505e-001  3.050140e+000  7.071068e-001
      vertex -1.767767e+000  1.767767e+000  1.000000e+000
      vertex -7.326597e-008  2.500000e+000  1.000000e+000
    endloop
  endfacet
  facet normal  0.000000e+000  4.699451e-001  8.826957e-001
    outer loop
      vertex -9.910505e-001  3.050140e+000  7.071068e-001
      vertex -7.326597e-008  2.500000e+000  1.000000e+000
      vertex  9.910505e-001  3.050140e+000  7.071068e-001
    endloop
  endfacet
  facet normal -2.646232e-001  3.642226e-001  8.929259e-001
    outer loop
      vertex -2.594604e+000  1.885090e+000  7.071068e-001
      vertex -1.767767e+000  1.767767e+000  1.000000e+000
      vertex -9.910505e-001  3.050140e+000  7.071068e-001
    endloop
  endfacet
  facet normal  8.848706e-001  2.875119e-001  3.665254e-001
    outer loop
      vertex  3.207107e+000 -2.220446e-016  7.071068e-001
      vertex  3.500000e+000  0.000000e+000  0.000000e+000
      vertex  2.594604e+000  1.885090e+000  7.071068e-001
    endloop
  endfacet
  facet normal  8.848706e-001  2.875119e-001  3.665254e-001
    outer loop
      vertex  2.594604e+000  1.885090e+000  7.071068e-001
      vertex  3.500000e+000  0.000000e+000  0.000000e+000
      vertex  2.831559e+000  2.057248e+000  0.000000e+000
    endloop
  endfacet
  facet normal  5.468802e-001  7.527159e-001  3.665254e-001
    outer loop
      vertex  2.594604e+000  1.885090e+000  7.071068e-001
      vertex  2.831559e+000  2.057248e+000  0.000000e+000
      vertex  9.910505e-001  3.050140e+000  7.071068e-001
    endloop
  endfacet
  facet normal  5.468802e-001  7.527159e-001  3.665255e-001
    outer loop
      vertex  9.910505e-001  3.050140e+000  7.071068e-001
      vertex  2.831559e+000  2.057248e+000  0.000000e+000
      vertex  1.081560e+000  3.328698e+000  0.000000e+000
    endloop
  endfacet
  facet normal  0.000000e+000  9.304080e-001  3.665254e-001
    outer loop
      vertex  9.910505e-001  3.050140e+000  7.071068e-001
      vertex  1.081560e+000  3.328698e+000  0.000000e+000
      vertex -9.910505e-001  3.050140e+000  7.071068e-001
    endloop
  endfacet
  facet normal  0.000000e+000  9.304080e-001  3.665254e-001
    outer loop
      vertex -9.910505e-001  3.050140e+000  7.071068e-001
      vertex  1.081560e+000  3.328698e+000  0.000000e+000
      vertex -1.081560e+000  3.328698e+000  0.000000e+000
    endloop
  endfacet
  facet normal -5.468801e-001  7.527158e-001  3.665255e-001
    outer loop
      vertex -9.910505e-001  3.050140e+000  7.071068e-001
      vertex -1.081560e+000  3.328698e+000  0.000000e+000
      vertex -2.594604e+000  1.885090e+000  7.071068e-001
    endloop
  endfacet
  facet normal -5.468802e-001  7.527159e-001  3.665254e-001
    outer loop
      vertex -2.594604e+000  1.885090e+000  7.071068e-001
      vertex -1.081560e+000  3.328698e+000  0.000000e+000
      vertex -2.831559e+000  2.057248e+000  0.000000e+000
    endloop
  endfacet
  facet normal -8.848706e-001  2.875119e-001  3.665254e-001
    outer loop
      vertex -2.594604e+000  1.885090e+000  7.071068e-001
      vertex -2.831559e+000  2.057248e+000  0.000000e+000
      vertex -3.207107e+000  0.000000e+000  7.071068e-001
    endloop
  endfacet
  facet normal -8.848706e-001  2.875119e-001  3.665254e-001
    outer loop
      vertex -3.207107e+000  0.000000e+000  7.071068e-001
      vertex -2.831559e+000  2.057248e+000  0.000000e+000
      vertex -3.500000e+000  4.286122e-016  0.000000e+000
    endloop
  endfacet
  facet normal -9.238796e-001  3.826834e-001  0.000000e+000
    outer loop
      vertex -2.250000e+000  2.755364e-016  1.000000e+000
      vertex -2.250000e+000  2.755364e-016  2.500000e+001
      vertex -1.590990e+000  1.590990e+000  1.000000e+000
    endloop
  endfacet
  facet normal -9.238796e-001  3.826834e-001  0.000000e+000
    outer loop
      vertex -1.590990e+000  1.590990e+000  1.000000e+000
      vertex -2.250000e+000  2.755364e-016  2.500000e+001
      vertex -1.590990e+000  1.590990e+000  2.500000e+001
    endloop
  endfacet
  facet normal -3.826834e-001  9.238796e-001  0.000000e+000
    outer loop
      vertex -1.590990e+000  1.590990e+000  1.000000e+000
      vertex -1.590990e+000  1.590990e+000  2.500000e+001
      vertex -8.427639e-017  2.250000e+000  1.000000e+000
    endloop
  endfacet
  facet normal -3.826834e-001  9.238796e-001  3.540533e-018
    outer loop
      vertex -8.427639e-017  2.250000e+000  1.000000e+000
      vertex -1.590990e+000  1.590990e+000  2.500000e+001
      vertex  1.377682e-016  2.250000e+000  2.500000e+001
    endloop
  endfacet
  facet normal  3.826834e-001  9.238796e-001 -3.540533e-018
    outer loop
      vertex -8.427639e-017  2.250000e+000  1.000000e+000
      vertex  1.377682e-016  2.250000e+000  2.500000e+001
      vertex  1.590990e+000  1.590990e+000  1.000000e+000
    endloop
  endfacet
  facet normal  3.826834e-001  9.238796e-001  -0.000000e+000
    outer loop
      vertex  1.590990e+000  1.590990e+000  1.000000e+000
      vertex  1.377682e-016  2.250000e+000  2.500000e+001
      vertex  1.590990e+000  1.590990e+000  2.500000e+001
    endloop
  endfacet
  facet normal  9.238796e-001  3.826834e-001  0.000000e+000
    outer loop
      vertex  1.590990e+000  1.590990e+000  1.000000e+000
      vertex  1.590990e+000  1.590990e+000  2.500000e+001
      vertex  2.250000e+000  0.000000e+000  1.000000e+000
    endloop
  endfacet
  facet normal  9.238796e-001  3.826834e-001  -0.000000e+000
    outer loop
      vertex  2.250000e+000  0.000000e+000  1.000000e+000
      vertex  1.590990e+000  1.590990e+000  2.500000e+001
      vertex  2.250000e+000  0.000000e+000  2.500000e+001
    endloop
  endfacet
  facet normal  9.238796e-001 -3.826834e-001  0.000000e+000
    outer loop
      vertex  2.250000e+000  0.000000e+000  1.000000e+000
      vertex  2.250000e+000  0.000000e+000  2.500000e+001
      vertex  1.590990e+000 -1.590990e+000  1.000000e+000
    endloop
  endfacet
  facet normal  9.238796e-001 -3.826834e-001  0.000000e+000
    outer loop
      vertex  1.590990e+000 -1.590990e+000  1.000000e+000
      vertex  2.250000e+000  0.000000e+000  2.500000e+001
      vertex  1.590990e+000 -1.590990e+000  2.500000e+001
    endloop
  endfacet
  facet normal  3.826834e-001 -9.238796e-001  0.000000e+000
    outer loop
      vertex  1.590990e+000 -1.590990e+000  1.000000e+000
      vertex  1.590990e+000 -1.590990e+000  2.500000e+001
      vertex -2.189661e-015 -2.250000e+000  1.000000e+000
    endloop
  endfacet
  facet normal  3.826834e-001 -9.238795e-001 -2.832426e-017
    outer loop
      vertex -2.189661e-015 -2.250000e+000  1.000000e+000
      vertex  1.590990e+000 -1.590990e+000  2.500000e+001
      vertex -4.133046e-016 -2.250000e+000  2.500000e+001
    endloop
  endfacet
  facet normal -3.826834e-001 -9.238795e-001  2.832426e-017
    outer loop
      vertex -2.189661e-015 -2.250000e+000  1.000000e+000
      vertex -4.133046e-016 -2.250000e+000  2.500000e+001
      vertex -1.590990e+000 -1.590990e+000  1.000000e+000
    endloop
  endfacet
  facet normal -3.826834e-001 -9.238796e-001  0.000000e+000
    outer loop
      vertex -1.590990e+000 -1.590990e+000  1.000000e+000
      vertex -4.133046e-016 -2.250000e+000  2.500000e+001
      vertex -1.590990e+000 -1.590990e+000  2.500000e+001
    endloop
  endfacet
  facet normal -9.238796e-001 -3.826834e-001  -0.000000e+000
    outer loop
      vertex -1.590990e+000 -1.590990e+000  1.000000e+000
      vertex -1.590990e+000 -1.590990e+000  2.500000e+001
      vertex -2.250000e+000  2.755364e-016  1.000000e+000
    endloop
  endfacet
  facet normal -9.238796e-001 -3.826834e-001  0.000000e+000
    outer loop
      vertex -2.250000e+000  2.755364e-016  1.000000e+000
      vertex -1.590990e+000 -1.590990e+000  2.500000e+001
      vertex -2.250000e+000  2.755364e-016  2.500000e+001
    endloop
  endfacet
  facet normal  0.000000e+000  0.000000e+000  1.000000e+000
    outer loop
      vertex -1.590990e+000  1.590990e+000  2.500000e+001
      vertex  1.590990e+000  1.590990e+000  2.500000e+001
      vertex  1.377682e-016  2.250000e+000  2.500000e+001
    endloop
  endfacet
  facet normal  -0.000000e+000  0.000000e+000  1.000000e+000
    outer loop
      vertex  1.590990e+000  1.590990e+000  2.500000e+001
      vertex -1.590990e+000  1.590990e+000  2.500000e+001
      vertex  2.250000e+000  0.000000e+000  2.500000e+001
    endloop
  endfacet
  facet normal  0.000000e+000  0.000000e+000  1.000000e+000
    outer loop
      vertex  2.250000e+000  0.000000e+000  2.500000e+001
      vertex -1.590990e+000  1.590990e+000  2.500000e+001
      vertex -2.250000e+000  2.755364e-016  2.500000e+001
    endloop
  endfacet
  facet normal  0.000000e+000  0.000000e+000  1.000000e+000
    outer loop
      vertex  2.250000e+000  0.000000e+000  2.500000e+001
      vertex -2.250000e+000  2.755364e-016  2.500000e+001
      vertex  1.590990e+000 -1.590990e+000  2.500000e+001
    endloop
  endfacet
  facet normal  0.000000e+000  0.000000e+000  1.000000e+000
    outer loop
      vertex  1.590990e+000 -1.590990e+000  2.500000e+001
      vertex -2.250000e+000  2.755364e-016  2.500000e+001
      vertex -1.590990e+000 -1.590990e+000  2.500000e+001
    endloop
  endfacet
  facet normal  -0.000000e+000  0.000000e+000  1.000000e+000
    outer loop
      vertex  1.590990e+000 -1.590990e+000  2.500000e+001
      vertex -1.590990e+000 -1.590990e+000  2.500000e+001
      vertex -4.133046e-016 -2.250000e+000  2.500000e+001
    endloop
  endfacet
endsolid CATIA STL
