solid CATIA STL
  facet normal  0.000000e+000  0.000000e+000  1.000000e+000
    outer loop
      vertex  8.000000e+000 -1.320000e+002  2.500000e+000
      vertex  3.200000e+001 -1.320000e+002  2.500000e+000
      vertex  8.000000e+000 -1.800000e+001  2.500000e+000
    endloop
  endfacet
  facet normal  -0.000000e+000  0.000000e+000  1.000000e+000
    outer loop
      vertex  8.000000e+000 -1.800000e+001  2.500000e+000
      vertex  3.200000e+001 -1.320000e+002  2.500000e+000
      vertex  3.200000e+001 -1.800000e+001  2.500000e+000
    endloop
  endfacet
  facet normal  0.000000e+000  0.000000e+000 -1.000000e+000
    outer loop
      vertex  3.200000e+001 -1.320000e+002  0.000000e+000
      vertex  8.000000e+000 -1.320000e+002  0.000000e+000
      vertex  3.200000e+001 -1.800000e+001  0.000000e+000
    endloop
  endfacet
  facet normal  -0.000000e+000  0.000000e+000 -1.000000e+000
    outer loop
      vertex  3.200000e+001 -1.800000e+001  0.000000e+000
      vertex  8.000000e+000 -1.320000e+002  0.000000e+000
      vertex  8.000000e+000 -1.800000e+001  0.000000e+000
    endloop
  endfacet
  facet normal  0.000000e+000  1.000000e+000  0.000000e+000
    outer loop
      vertex  8.000000e+000 -1.800000e+001  0.000000e+000
      vertex  8.000000e+000 -1.800000e+001  2.500000e+000
      vertex  3.200000e+001 -1.800000e+001  0.000000e+000
    endloop
  endfacet
  facet normal  0.000000e+000  1.000000e+000  -0.000000e+000
    outer loop
      vertex  3.200000e+001 -1.800000e+001  0.000000e+000
      vertex  8.000000e+000 -1.800000e+001  2.500000e+000
      vertex  3.200000e+001 -1.800000e+001  2.500000e+000
    endloop
  endfacet
  facet normal  1.000000e+000  0.000000e+000  0.000000e+000
    outer loop
      vertex  3.200000e+001 -1.320000e+002  2.500000e+000
      vertex  3.200000e+001 -1.320000e+002  0.000000e+000
      vertex  3.200000e+001 -1.800000e+001  2.500000e+000
    endloop
  endfacet
  facet normal  1.000000e+000  0.000000e+000  0.000000e+000
    outer loop
      vertex  3.200000e+001 -1.800000e+001  2.500000e+000
      vertex  3.200000e+001 -1.320000e+002  0.000000e+000
      vertex  3.200000e+001 -1.800000e+001  0.000000e+000
    endloop
  endfacet
  facet normal  0.000000e+000 -1.000000e+000  -0.000000e+000
    outer loop
      vertex  3.200000e+001 -1.320000e+002  0.000000e+000
      vertex  3.200000e+001 -1.320000e+002  2.500000e+000
      vertex  8.000000e+000 -1.320000e+002  0.000000e+000
    endloop
  endfacet
  facet normal  0.000000e+000 -1.000000e+000  0.000000e+000
    outer loop
      vertex  8.000000e+000 -1.320000e+002  0.000000e+000
      vertex  3.200000e+001 -1.320000e+002  2.500000e+000
      vertex  8.000000e+000 -1.320000e+002  2.500000e+000
    endloop
  endfacet
  facet normal -1.000000e+000  0.000000e+000  0.000000e+000
    outer loop
      vertex  8.000000e+000 -1.800000e+001  2.500000e+000
      vertex  8.000000e+000 -1.800000e+001  0.000000e+000
      vertex  8.000000e+000 -1.320000e+002  2.500000e+000
    endloop
  endfacet
  facet normal -1.000000e+000  0.000000e+000  0.000000e+000
    outer loop
      vertex  8.000000e+000 -1.320000e+002  2.500000e+000
      vertex  8.000000e+000 -1.800000e+001  0.000000e+000
      vertex  8.000000e+000 -1.320000e+002  0.000000e+000
    endloop
  endfacet
endsolid CATIA STL
