solid CATIA STL
  facet normal  0.000000e+000 -1.000000e+000  -0.000000e+000
    outer loop
      vertex  2.500000e+000  4.500000e+001 -5.000000e-001
      vertex  2.500000e+000  4.500000e+001  5.000000e-001
      vertex  2.060660e+000  4.500000e+001 -1.560660e+000
    endloop
  endfacet
  facet normal  0.000000e+000 -1.000000e+000  0.000000e+000
    outer loop
      vertex  2.060660e+000  4.500000e+001 -1.560660e+000
      vertex  2.500000e+000  4.500000e+001  5.000000e-001
      vertex  2.060660e+000  4.500000e+001  1.560660e+000
    endloop
  endfacet
  facet normal  0.000000e+000 -1.000000e+000  -0.000000e+000
    outer loop
      vertex  2.060660e+000  4.500000e+001 -1.560660e+000
      vertex  2.060660e+000  4.500000e+001  1.560660e+000
      vertex  1.000000e+000  4.500000e+001 -2.000000e+000
    endloop
  endfacet
  facet normal  0.000000e+000 -1.000000e+000  0.000000e+000
    outer loop
      vertex  1.000000e+000  4.500000e+001 -2.000000e+000
      vertex  2.060660e+000  4.500000e+001  1.560660e+000
      vertex  1.000000e+000  4.500000e+001  2.000000e+000
    endloop
  endfacet
  facet normal  0.000000e+000 -1.000000e+000  -0.000000e+000
    outer loop
      vertex  1.000000e+000  4.500000e+001 -2.000000e+000
      vertex  1.000000e+000  4.500000e+001  2.000000e+000
      vertex -1.000000e+000  4.500000e+001 -2.000000e+000
    endloop
  endfacet
  facet normal  0.000000e+000 -1.000000e+000  0.000000e+000
    outer loop
      vertex -1.000000e+000  4.500000e+001 -2.000000e+000
      vertex  1.000000e+000  4.500000e+001  2.000000e+000
      vertex -1.000000e+000  4.500000e+001  2.000000e+000
    endloop
  endfacet
  facet normal  0.000000e+000 -1.000000e+000  -0.000000e+000
    outer loop
      vertex -1.000000e+000  4.500000e+001 -2.000000e+000
      vertex -1.000000e+000  4.500000e+001  2.000000e+000
      vertex -2.060660e+000  4.500000e+001 -1.560660e+000
    endloop
  endfacet
  facet normal  0.000000e+000 -1.000000e+000  0.000000e+000
    outer loop
      vertex -2.060660e+000  4.500000e+001 -1.560660e+000
      vertex -1.000000e+000  4.500000e+001  2.000000e+000
      vertex -2.060660e+000  4.500000e+001  1.560660e+000
    endloop
  endfacet
  facet normal  0.000000e+000 -1.000000e+000  -0.000000e+000
    outer loop
      vertex -2.060660e+000  4.500000e+001 -1.560660e+000
      vertex -2.060660e+000  4.500000e+001  1.560660e+000
      vertex -2.500000e+000  4.500000e+001 -5.000000e-001
    endloop
  endfacet
  facet normal  0.000000e+000 -1.000000e+000  0.000000e+000
    outer loop
      vertex -2.500000e+000  4.500000e+001 -5.000000e-001
      vertex -2.060660e+000  4.500000e+001  1.560660e+000
      vertex -2.500000e+000  4.500000e+001  5.000000e-001
    endloop
  endfacet
  facet normal  0.000000e+000  0.000000e+000  1.000000e+000
    outer loop
      vertex -1.000000e+000  4.500000e+001  2.000000e+000
      vertex  1.000000e+000  4.500000e+001  2.000000e+000
      vertex -1.000000e+000  6.350000e+001  2.000000e+000
    endloop
  endfacet
  facet normal  -0.000000e+000  0.000000e+000  1.000000e+000
    outer loop
      vertex -1.000000e+000  6.350000e+001  2.000000e+000
      vertex  1.000000e+000  4.500000e+001  2.000000e+000
      vertex  1.000000e+000  6.350000e+001  2.000000e+000
    endloop
  endfacet
  facet normal  6.426192e-002  9.979331e-001  0.000000e+000
    outer loop
      vertex -2.500000e+000  6.700000e+001 -5.000000e-001
      vertex -2.500000e+000  6.700000e+001  5.000000e-001
      vertex -2.307592e+000  6.698761e+001 -1.234986e+000
    endloop
  endfacet
  facet normal  6.425540e-002  9.979335e-001 -7.256225e-007
    outer loop
      vertex -2.307592e+000  6.698761e+001 -1.234986e+000
      vertex -2.500000e+000  6.700000e+001  5.000000e-001
      vertex -2.307682e+000  6.698762e+001  1.234824e+000
    endloop
  endfacet
  facet normal  2.286706e-001  9.735038e-001  5.381021e-006
    outer loop
      vertex -2.307592e+000  6.698761e+001 -1.234986e+000
      vertex -2.307682e+000  6.698762e+001  1.234824e+000
      vertex -2.010000e+000  6.691771e+001 -1.609008e+000
    endloop
  endfacet
  facet normal  2.285865e-001  9.735236e-001 -3.907311e-006
    outer loop
      vertex -2.010000e+000  6.691771e+001 -1.609008e+000
      vertex -2.307682e+000  6.698762e+001  1.234824e+000
      vertex -2.010140e+000  6.691776e+001  1.608881e+000
    endloop
  endfacet
  facet normal  4.617328e-001  8.870192e-001  7.463210e-006
    outer loop
      vertex -2.010000e+000  6.691771e+001 -1.609008e+000
      vertex -2.010140e+000  6.691776e+001  1.608881e+000
      vertex -1.619780e+000  6.671458e+001 -1.865970e+000
    endloop
  endfacet
  facet normal  4.616404e-001  8.870671e-001 -5.717971e-006
    outer loop
      vertex -1.619780e+000  6.671458e+001 -1.865970e+000
      vertex -2.010140e+000  6.691776e+001  1.608881e+000
      vertex -1.619909e+000  6.671468e+001  1.865911e+000
    endloop
  endfacet
  facet normal  7.593948e-001  6.506301e-001  1.043075e-005
    outer loop
      vertex -1.619780e+000  6.671458e+001 -1.865970e+000
      vertex -1.619909e+000  6.671468e+001  1.865911e+000
      vertex -1.164799e+000  6.618355e+001 -1.990920e+000
    endloop
  endfacet
  facet normal  7.593381e-001  6.506963e-001 -5.374883e-006
    outer loop
      vertex -1.164799e+000  6.618355e+001 -1.990920e+000
      vertex -1.619909e+000  6.671468e+001  1.865911e+000
      vertex -1.164837e+000  6.618362e+001  1.990915e+000
    endloop
  endfacet
  facet normal  9.721454e-001  2.343785e-001  4.589750e-006
    outer loop
      vertex -1.164799e+000  6.618355e+001 -1.990920e+000
      vertex -1.164837e+000  6.618362e+001  1.990915e+000
      vertex -1.000000e+000  6.550000e+001 -2.000000e+000
    endloop
  endfacet
  facet normal  9.721394e-001  2.344039e-001  -0.000000e+000
    outer loop
      vertex -1.000000e+000  6.550000e+001 -2.000000e+000
      vertex -1.164837e+000  6.618362e+001  1.990915e+000
      vertex -1.000000e+000  6.550000e+001  2.000000e+000
    endloop
  endfacet
  facet normal -1.000000e+000  0.000000e+000  0.000000e+000
    outer loop
      vertex -2.500000e+000  4.500000e+001 -5.000000e-001
      vertex -2.500000e+000  4.500000e+001  5.000000e-001
      vertex -2.500000e+000  6.700000e+001 -5.000000e-001
    endloop
  endfacet
  facet normal -1.000000e+000  0.000000e+000  0.000000e+000
    outer loop
      vertex -2.500000e+000  6.700000e+001 -5.000000e-001
      vertex -2.500000e+000  4.500000e+001  5.000000e-001
      vertex -2.500000e+000  6.700000e+001  5.000000e-001
    endloop
  endfacet
  facet normal  1.000000e+000  0.000000e+000  0.000000e+000
    outer loop
      vertex -1.000000e+000  6.550000e+001 -2.000000e+000
      vertex -1.000000e+000  6.500000e+001 -5.000000e-001
      vertex -1.000000e+000  6.456066e+001 -1.560660e+000
    endloop
  endfacet
  facet normal  1.000000e+000  0.000000e+000  0.000000e+000
    outer loop
      vertex -1.000000e+000  6.550000e+001 -2.000000e+000
      vertex -1.000000e+000  6.456066e+001 -1.560660e+000
      vertex -1.000000e+000  6.350000e+001 -2.000000e+000
    endloop
  endfacet
  facet normal  1.000000e+000  -0.000000e+000  0.000000e+000
    outer loop
      vertex -1.000000e+000  6.550000e+001  2.000000e+000
      vertex -1.000000e+000  6.350000e+001  2.000000e+000
      vertex -1.000000e+000  6.456066e+001  1.560660e+000
    endloop
  endfacet
  facet normal  1.000000e+000  -0.000000e+000  0.000000e+000
    outer loop
      vertex -1.000000e+000  6.550000e+001  2.000000e+000
      vertex -1.000000e+000  6.456066e+001  1.560660e+000
      vertex -1.000000e+000  6.500000e+001  5.000000e-001
    endloop
  endfacet
  facet normal  1.000000e+000  -0.000000e+000  0.000000e+000
    outer loop
      vertex -1.000000e+000  6.550000e+001  2.000000e+000
      vertex -1.000000e+000  6.500000e+001  5.000000e-001
      vertex -1.000000e+000  6.500000e+001 -5.000000e-001
    endloop
  endfacet
  facet normal  1.000000e+000  -0.000000e+000  0.000000e+000
    outer loop
      vertex -1.000000e+000  6.550000e+001  2.000000e+000
      vertex -1.000000e+000  6.500000e+001 -5.000000e-001
      vertex -1.000000e+000  6.550000e+001 -2.000000e+000
    endloop
  endfacet
  facet normal -5.502913e-002  0.000000e+000  9.984847e-001
    outer loop
      vertex -1.000000e+000  6.550000e+001  2.000000e+000
      vertex -1.164837e+000  6.618362e+001  1.990915e+000
      vertex -1.000000e+000  6.350000e+001  2.000000e+000
    endloop
  endfacet
  facet normal -3.826835e-001  0.000000e+000  9.238795e-001
    outer loop
      vertex -1.000000e+000  4.500000e+001  2.000000e+000
      vertex -1.000000e+000  6.350000e+001  2.000000e+000
      vertex -2.060660e+000  4.500000e+001  1.560660e+000
    endloop
  endfacet
  facet normal -2.227273e-001 -1.038064e-002  9.748256e-001
    outer loop
      vertex -2.060660e+000  4.500000e+001  1.560660e+000
      vertex -1.000000e+000  6.350000e+001  2.000000e+000
      vertex -1.164837e+000  6.618362e+001  1.990915e+000
    endloop
  endfacet
  facet normal -4.126007e-001 -1.053035e-003  9.109114e-001
    outer loop
      vertex -2.060660e+000  4.500000e+001  1.560660e+000
      vertex -1.164837e+000  6.618362e+001  1.990915e+000
      vertex -2.010140e+000  6.691776e+001  1.608881e+000
    endloop
  endfacet
  facet normal -6.396029e-001 -3.925143e-001  6.609392e-001
    outer loop
      vertex -2.010140e+000  6.691776e+001  1.608881e+000
      vertex -1.164837e+000  6.618362e+001  1.990915e+000
      vertex -1.619909e+000  6.671468e+001  1.865911e+000
    endloop
  endfacet
  facet normal -9.674162e-001  0.000000e+000  2.531915e-001
    outer loop
      vertex -2.500000e+000  6.700000e+001  5.000000e-001
      vertex -2.500000e+000  4.500000e+001  5.000000e-001
      vertex -2.307682e+000  6.698762e+001  1.234824e+000
    endloop
  endfacet
  facet normal -9.238693e-001 -4.708358e-003  3.826793e-001
    outer loop
      vertex -2.307682e+000  6.698762e+001  1.234824e+000
      vertex -2.500000e+000  4.500000e+001  5.000000e-001
      vertex -2.060660e+000  4.500000e+001  1.560660e+000
    endloop
  endfacet
  facet normal -7.825643e-001  4.340959e-004  6.225696e-001
    outer loop
      vertex -2.307682e+000  6.698762e+001  1.234824e+000
      vertex -2.060660e+000  4.500000e+001  1.560660e+000
      vertex -2.010140e+000  6.691776e+001  1.608881e+000
    endloop
  endfacet
  facet normal -9.721454e-001  2.343786e-001  0.000000e+000
    outer loop
      vertex  1.000000e+000  6.550000e+001 -2.000000e+000
      vertex  1.000000e+000  6.550000e+001  2.000000e+000
      vertex  1.164799e+000  6.618355e+001 -1.990920e+000
    endloop
  endfacet
  facet normal -9.721393e-001  2.344039e-001  4.589207e-006
    outer loop
      vertex  1.164799e+000  6.618355e+001 -1.990920e+000
      vertex  1.000000e+000  6.550000e+001  2.000000e+000
      vertex  1.164837e+000  6.618362e+001  1.990915e+000
    endloop
  endfacet
  facet normal -7.593929e-001  6.506323e-001 -5.373144e-006
    outer loop
      vertex  1.164799e+000  6.618355e+001 -1.990920e+000
      vertex  1.164837e+000  6.618362e+001  1.990915e+000
      vertex  1.619780e+000  6.671458e+001 -1.865970e+000
    endloop
  endfacet
  facet normal -7.593362e-001  6.506984e-001  1.042704e-005
    outer loop
      vertex  1.619780e+000  6.671458e+001 -1.865970e+000
      vertex  1.164837e+000  6.618362e+001  1.990915e+000
      vertex  1.619909e+000  6.671468e+001  1.865911e+000
    endloop
  endfacet
  facet normal -4.617260e-001  8.870226e-001 -5.713909e-006
    outer loop
      vertex  1.619780e+000  6.671458e+001 -1.865970e+000
      vertex  1.619909e+000  6.671468e+001  1.865911e+000
      vertex  2.010000e+000  6.691771e+001 -1.609008e+000
    endloop
  endfacet
  facet normal -4.616337e-001  8.870707e-001  7.458164e-006
    outer loop
      vertex  2.010000e+000  6.691771e+001 -1.609008e+000
      vertex  1.619909e+000  6.671468e+001  1.865911e+000
      vertex  2.010140e+000  6.691776e+001  1.608881e+000
    endloop
  endfacet
  facet normal -2.286596e-001  9.735065e-001 -3.903891e-006
    outer loop
      vertex  2.010000e+000  6.691771e+001 -1.609008e+000
      vertex  2.010140e+000  6.691776e+001  1.608881e+000
      vertex  2.307592e+000  6.698761e+001 -1.234986e+000
    endloop
  endfacet
  facet normal -2.285755e-001  9.735262e-001  5.377462e-006
    outer loop
      vertex  2.307592e+000  6.698761e+001 -1.234986e+000
      vertex  2.010140e+000  6.691776e+001  1.608881e+000
      vertex  2.307682e+000  6.698762e+001  1.234824e+000
    endloop
  endfacet
  facet normal -6.425916e-002  9.979332e-001 -7.254839e-007
    outer loop
      vertex  2.307592e+000  6.698761e+001 -1.234986e+000
      vertex  2.307682e+000  6.698762e+001  1.234824e+000
      vertex  2.500000e+000  6.700000e+001 -5.000000e-001
    endloop
  endfacet
  facet normal -6.425264e-002  9.979337e-001  0.000000e+000
    outer loop
      vertex  2.500000e+000  6.700000e+001 -5.000000e-001
      vertex  2.307682e+000  6.698762e+001  1.234824e+000
      vertex  2.500000e+000  6.700000e+001  5.000000e-001
    endloop
  endfacet
  facet normal  1.000000e+000  0.000000e+000  0.000000e+000
    outer loop
      vertex  2.500000e+000  4.500000e+001  5.000000e-001
      vertex  2.500000e+000  4.500000e+001 -5.000000e-001
      vertex  2.500000e+000  6.700000e+001  5.000000e-001
    endloop
  endfacet
  facet normal  1.000000e+000  0.000000e+000  0.000000e+000
    outer loop
      vertex  2.500000e+000  6.700000e+001  5.000000e-001
      vertex  2.500000e+000  4.500000e+001 -5.000000e-001
      vertex  2.500000e+000  6.700000e+001 -5.000000e-001
    endloop
  endfacet
  facet normal -1.000000e+000  0.000000e+000  -0.000000e+000
    outer loop
      vertex  1.000000e+000  6.456066e+001 -1.560660e+000
      vertex  1.000000e+000  6.500000e+001 -5.000000e-001
      vertex  1.000000e+000  6.550000e+001 -2.000000e+000
    endloop
  endfacet
  facet normal -1.000000e+000  0.000000e+000  -0.000000e+000
    outer loop
      vertex  1.000000e+000  6.350000e+001 -2.000000e+000
      vertex  1.000000e+000  6.456066e+001 -1.560660e+000
      vertex  1.000000e+000  6.550000e+001 -2.000000e+000
    endloop
  endfacet
  facet normal -1.000000e+000  0.000000e+000  0.000000e+000
    outer loop
      vertex  1.000000e+000  6.550000e+001  2.000000e+000
      vertex  1.000000e+000  6.550000e+001 -2.000000e+000
      vertex  1.000000e+000  6.500000e+001 -5.000000e-001
    endloop
  endfacet
  facet normal -1.000000e+000  0.000000e+000  0.000000e+000
    outer loop
      vertex  1.000000e+000  6.550000e+001  2.000000e+000
      vertex  1.000000e+000  6.500000e+001 -5.000000e-001
      vertex  1.000000e+000  6.500000e+001  5.000000e-001
    endloop
  endfacet
  facet normal -1.000000e+000  0.000000e+000  0.000000e+000
    outer loop
      vertex  1.000000e+000  6.550000e+001  2.000000e+000
      vertex  1.000000e+000  6.500000e+001  5.000000e-001
      vertex  1.000000e+000  6.456066e+001  1.560660e+000
    endloop
  endfacet
  facet normal -1.000000e+000  0.000000e+000  0.000000e+000
    outer loop
      vertex  1.000000e+000  6.550000e+001  2.000000e+000
      vertex  1.000000e+000  6.456066e+001  1.560660e+000
      vertex  1.000000e+000  6.350000e+001  2.000000e+000
    endloop
  endfacet
  facet normal  -0.000000e+000  9.238799e-001  3.826826e-001
    outer loop
      vertex  1.000000e+000  6.500000e+001  5.000000e-001
      vertex -1.000000e+000  6.500000e+001  5.000000e-001
      vertex  1.000000e+000  6.456066e+001  1.560660e+000
    endloop
  endfacet
  facet normal  0.000000e+000  9.238799e-001  3.826826e-001
    outer loop
      vertex  1.000000e+000  6.456066e+001  1.560660e+000
      vertex -1.000000e+000  6.500000e+001  5.000000e-001
      vertex -1.000000e+000  6.456066e+001  1.560660e+000
    endloop
  endfacet
  facet normal  -0.000000e+000  3.826831e-001  9.238797e-001
    outer loop
      vertex  1.000000e+000  6.456066e+001  1.560660e+000
      vertex -1.000000e+000  6.456066e+001  1.560660e+000
      vertex  1.000000e+000  6.350000e+001  2.000000e+000
    endloop
  endfacet
  facet normal  0.000000e+000  3.826831e-001  9.238797e-001
    outer loop
      vertex  1.000000e+000  6.350000e+001  2.000000e+000
      vertex -1.000000e+000  6.456066e+001  1.560660e+000
      vertex -1.000000e+000  6.350000e+001  2.000000e+000
    endloop
  endfacet
  facet normal  5.502913e-002  0.000000e+000  9.984847e-001
    outer loop
      vertex  1.000000e+000  6.350000e+001  2.000000e+000
      vertex  1.164837e+000  6.618362e+001  1.990915e+000
      vertex  1.000000e+000  6.550000e+001  2.000000e+000
    endloop
  endfacet
  facet normal  3.826832e-001 -1.150523e-003  9.238789e-001
    outer loop
      vertex  1.000000e+000  4.500000e+001  2.000000e+000
      vertex  2.060660e+000  4.500000e+001  1.560660e+000
      vertex  2.010140e+000  6.691776e+001  1.608881e+000
    endloop
  endfacet
  facet normal  5.538995e-001 -1.067187e-002  8.325151e-001
    outer loop
      vertex  1.000000e+000  4.500000e+001  2.000000e+000
      vertex  2.010140e+000  6.691776e+001  1.608881e+000
      vertex  1.619909e+000  6.671468e+001  1.865911e+000
    endloop
  endfacet
  facet normal  2.666822e-001 -1.661823e-003  9.637830e-001
    outer loop
      vertex  1.000000e+000  4.500000e+001  2.000000e+000
      vertex  1.619909e+000  6.671468e+001  1.865911e+000
      vertex  1.164837e+000  6.618362e+001  1.990915e+000
    endloop
  endfacet
  facet normal  5.502912e-002  0.000000e+000  9.984847e-001
    outer loop
      vertex  1.000000e+000  4.500000e+001  2.000000e+000
      vertex  1.164837e+000  6.618362e+001  1.990915e+000
      vertex  1.000000e+000  6.350000e+001  2.000000e+000
    endloop
  endfacet
  facet normal  9.238796e-001  0.000000e+000  3.826835e-001
    outer loop
      vertex  2.500000e+000  4.500000e+001  5.000000e-001
      vertex  2.500000e+000  6.700000e+001  5.000000e-001
      vertex  2.060660e+000  4.500000e+001  1.560660e+000
    endloop
  endfacet
  facet normal  9.674211e-001 -7.118289e-003  2.530728e-001
    outer loop
      vertex  2.060660e+000  4.500000e+001  1.560660e+000
      vertex  2.500000e+000  6.700000e+001  5.000000e-001
      vertex  2.307682e+000  6.698762e+001  1.234824e+000
    endloop
  endfacet
  facet normal  7.825643e-001  4.340959e-004  6.225696e-001
    outer loop
      vertex  2.060660e+000  4.500000e+001  1.560660e+000
      vertex  2.307682e+000  6.698762e+001  1.234824e+000
      vertex  2.010140e+000  6.691776e+001  1.608881e+000
    endloop
  endfacet
  facet normal  0.000000e+000  0.000000e+000 -1.000000e+000
    outer loop
      vertex  1.000000e+000  4.500000e+001 -2.000000e+000
      vertex -1.000000e+000  4.500000e+001 -2.000000e+000
      vertex  1.000000e+000  6.350000e+001 -2.000000e+000
    endloop
  endfacet
  facet normal  -0.000000e+000  0.000000e+000 -1.000000e+000
    outer loop
      vertex  1.000000e+000  6.350000e+001 -2.000000e+000
      vertex -1.000000e+000  4.500000e+001 -2.000000e+000
      vertex -1.000000e+000  6.350000e+001 -2.000000e+000
    endloop
  endfacet
  facet normal -5.501631e-002  0.000000e+000 -9.984854e-001
    outer loop
      vertex -1.000000e+000  6.350000e+001 -2.000000e+000
      vertex -1.164799e+000  6.618355e+001 -1.990920e+000
      vertex -1.000000e+000  6.550000e+001 -2.000000e+000
    endloop
  endfacet
  facet normal -3.826832e-001 -1.153459e-003 -9.238789e-001
    outer loop
      vertex -1.000000e+000  4.500000e+001 -2.000000e+000
      vertex -2.060660e+000  4.500000e+001 -1.560660e+000
      vertex -2.010000e+000  6.691771e+001 -1.609008e+000
    endloop
  endfacet
  facet normal -5.538072e-001 -1.066785e-002 -8.325766e-001
    outer loop
      vertex -1.000000e+000  4.500000e+001 -2.000000e+000
      vertex -2.010000e+000  6.691771e+001 -1.609008e+000
      vertex -1.619780e+000  6.671458e+001 -1.865970e+000
    endloop
  endfacet
  facet normal -2.666240e-001 -1.661091e-003 -9.637992e-001
    outer loop
      vertex -1.000000e+000  4.500000e+001 -2.000000e+000
      vertex -1.619780e+000  6.671458e+001 -1.865970e+000
      vertex -1.164799e+000  6.618355e+001 -1.990920e+000
    endloop
  endfacet
  facet normal -5.501630e-002  0.000000e+000 -9.984854e-001
    outer loop
      vertex -1.000000e+000  4.500000e+001 -2.000000e+000
      vertex -1.164799e+000  6.618355e+001 -1.990920e+000
      vertex -1.000000e+000  6.350000e+001 -2.000000e+000
    endloop
  endfacet
  facet normal -9.238796e-001  -0.000000e+000 -3.826835e-001
    outer loop
      vertex -2.500000e+000  4.500000e+001 -5.000000e-001
      vertex -2.500000e+000  6.700000e+001 -5.000000e-001
      vertex -2.060660e+000  4.500000e+001 -1.560660e+000
    endloop
  endfacet
  facet normal -9.674055e-001 -7.115107e-003 -2.531324e-001
    outer loop
      vertex -2.060660e+000  4.500000e+001 -1.560660e+000
      vertex -2.500000e+000  6.700000e+001 -5.000000e-001
      vertex -2.307592e+000  6.698761e+001 -1.234986e+000
    endloop
  endfacet
  facet normal -7.824865e-001  4.350747e-004 -6.226674e-001
    outer loop
      vertex -2.060660e+000  4.500000e+001 -1.560660e+000
      vertex -2.307592e+000  6.698761e+001 -1.234986e+000
      vertex -2.010000e+000  6.691771e+001 -1.609008e+000
    endloop
  endfacet
  facet normal  0.000000e+000  3.826831e-001 -9.238797e-001
    outer loop
      vertex  1.000000e+000  6.350000e+001 -2.000000e+000
      vertex -1.000000e+000  6.350000e+001 -2.000000e+000
      vertex  1.000000e+000  6.456066e+001 -1.560660e+000
    endloop
  endfacet
  facet normal  0.000000e+000  3.826831e-001 -9.238797e-001
    outer loop
      vertex  1.000000e+000  6.456066e+001 -1.560660e+000
      vertex -1.000000e+000  6.350000e+001 -2.000000e+000
      vertex -1.000000e+000  6.456066e+001 -1.560660e+000
    endloop
  endfacet
  facet normal  0.000000e+000  9.238799e-001 -3.826826e-001
    outer loop
      vertex  1.000000e+000  6.456066e+001 -1.560660e+000
      vertex -1.000000e+000  6.456066e+001 -1.560660e+000
      vertex  1.000000e+000  6.500000e+001 -5.000000e-001
    endloop
  endfacet
  facet normal  0.000000e+000  9.238799e-001 -3.826826e-001
    outer loop
      vertex  1.000000e+000  6.500000e+001 -5.000000e-001
      vertex -1.000000e+000  6.456066e+001 -1.560660e+000
      vertex -1.000000e+000  6.500000e+001 -5.000000e-001
    endloop
  endfacet
  facet normal  5.501631e-002  0.000000e+000 -9.984854e-001
    outer loop
      vertex  1.000000e+000  6.550000e+001 -2.000000e+000
      vertex  1.164799e+000  6.618355e+001 -1.990920e+000
      vertex  1.000000e+000  6.350000e+001 -2.000000e+000
    endloop
  endfacet
  facet normal  3.826835e-001  0.000000e+000 -9.238795e-001
    outer loop
      vertex  1.000000e+000  4.500000e+001 -2.000000e+000
      vertex  1.000000e+000  6.350000e+001 -2.000000e+000
      vertex  2.060660e+000  4.500000e+001 -1.560660e+000
    endloop
  endfacet
  facet normal  2.227375e-001 -1.038000e-002 -9.748232e-001
    outer loop
      vertex  2.060660e+000  4.500000e+001 -1.560660e+000
      vertex  1.000000e+000  6.350000e+001 -2.000000e+000
      vertex  1.164799e+000  6.618355e+001 -1.990920e+000
    endloop
  endfacet
  facet normal  4.125340e-001 -1.055924e-003 -9.109415e-001
    outer loop
      vertex  2.060660e+000  4.500000e+001 -1.560660e+000
      vertex  1.164799e+000  6.618355e+001 -1.990920e+000
      vertex  2.010000e+000  6.691771e+001 -1.609008e+000
    endloop
  endfacet
  facet normal  6.395633e-001 -3.924272e-001 -6.610292e-001
    outer loop
      vertex  2.010000e+000  6.691771e+001 -1.609008e+000
      vertex  1.164799e+000  6.618355e+001 -1.990920e+000
      vertex  1.619780e+000  6.671458e+001 -1.865970e+000
    endloop
  endfacet
  facet normal  9.674006e-001  0.000000e+000 -2.532511e-001
    outer loop
      vertex  2.500000e+000  6.700000e+001 -5.000000e-001
      vertex  2.500000e+000  4.500000e+001 -5.000000e-001
      vertex  2.307592e+000  6.698761e+001 -1.234986e+000
    endloop
  endfacet
  facet normal  9.238693e-001 -4.707362e-003 -3.826793e-001
    outer loop
      vertex  2.307592e+000  6.698761e+001 -1.234986e+000
      vertex  2.500000e+000  4.500000e+001 -5.000000e-001
      vertex  2.060660e+000  4.500000e+001 -1.560660e+000
    endloop
  endfacet
  facet normal  7.824865e-001  4.350747e-004 -6.226674e-001
    outer loop
      vertex  2.307592e+000  6.698761e+001 -1.234986e+000
      vertex  2.060660e+000  4.500000e+001 -1.560660e+000
      vertex  2.010000e+000  6.691771e+001 -1.609008e+000
    endloop
  endfacet
  facet normal  0.000000e+000  1.000000e+000  0.000000e+000
    outer loop
      vertex  1.000000e+000  6.500000e+001 -5.000000e-001
      vertex -1.000000e+000  6.500000e+001 -5.000000e-001
      vertex  1.000000e+000  6.500000e+001  5.000000e-001
    endloop
  endfacet
  facet normal  0.000000e+000  1.000000e+000  0.000000e+000
    outer loop
      vertex  1.000000e+000  6.500000e+001  5.000000e-001
      vertex -1.000000e+000  6.500000e+001 -5.000000e-001
      vertex -1.000000e+000  6.500000e+001  5.000000e-001
    endloop
  endfacet
endsolid CATIA STL
