solid CATIA STL
  facet normal  -0.000000e+000  0.000000e+000  1.000000e+000
    outer loop
      vertex  1.351991e-001  9.403304e-001  2.500000e+000
      vertex -1.351991e-001  9.403304e-001  2.500000e+000
      vertex  3.946443e-001  8.641504e-001  2.500000e+000
    endloop
  endfacet
  facet normal  0.000000e+000  0.000000e+000  1.000000e+000
    outer loop
      vertex  3.946443e-001  8.641504e-001  2.500000e+000
      vertex -1.351991e-001  9.403304e-001  2.500000e+000
      vertex -3.946443e-001  8.641504e-001  2.500000e+000
    endloop
  endfacet
  facet normal  -0.000000e+000  0.000000e+000  1.000000e+000
    outer loop
      vertex  3.946443e-001  8.641504e-001  2.500000e+000
      vertex -3.946443e-001  8.641504e-001  2.500000e+000
      vertex  6.221177e-001  7.179621e-001  2.500000e+000
    endloop
  endfacet
  facet normal  0.000000e+000  0.000000e+000  1.000000e+000
    outer loop
      vertex  6.221177e-001  7.179621e-001  2.500000e+000
      vertex -3.946443e-001  8.641504e-001  2.500000e+000
      vertex -6.221177e-001  7.179621e-001  2.500000e+000
    endloop
  endfacet
  facet normal  -0.000000e+000  0.000000e+000  1.000000e+000
    outer loop
      vertex  6.221177e-001  7.179621e-001  2.500000e+000
      vertex -6.221177e-001  7.179621e-001  2.500000e+000
      vertex  7.991909e-001  5.136088e-001  2.500000e+000
    endloop
  endfacet
  facet normal  0.000000e+000  0.000000e+000  1.000000e+000
    outer loop
      vertex  7.991909e-001  5.136088e-001  2.500000e+000
      vertex -6.221177e-001  7.179621e-001  2.500000e+000
      vertex -7.991909e-001  5.136088e-001  2.500000e+000
    endloop
  endfacet
  facet normal  -0.000000e+000  0.000000e+000  1.000000e+000
    outer loop
      vertex  7.991909e-001  5.136088e-001  2.500000e+000
      vertex -7.991909e-001  5.136088e-001  2.500000e+000
      vertex  9.115183e-001  2.676459e-001  2.500000e+000
    endloop
  endfacet
  facet normal  0.000000e+000  0.000000e+000  1.000000e+000
    outer loop
      vertex  9.115183e-001  2.676459e-001  2.500000e+000
      vertex -7.991909e-001  5.136088e-001  2.500000e+000
      vertex -9.115183e-001  2.676459e-001  2.500000e+000
    endloop
  endfacet
  facet normal  -0.000000e+000  0.000000e+000  1.000000e+000
    outer loop
      vertex  9.115183e-001  2.676459e-001  2.500000e+000
      vertex -9.115183e-001  2.676459e-001  2.500000e+000
      vertex  9.500000e-001  0.000000e+000  2.500000e+000
    endloop
  endfacet
  facet normal  0.000000e+000  0.000000e+000  1.000000e+000
    outer loop
      vertex  9.500000e-001  0.000000e+000  2.500000e+000
      vertex -9.115183e-001  2.676459e-001  2.500000e+000
      vertex -9.500000e-001  1.163376e-016  2.500000e+000
    endloop
  endfacet
  facet normal  0.000000e+000  0.000000e+000  1.000000e+000
    outer loop
      vertex  9.500000e-001  0.000000e+000  2.500000e+000
      vertex -9.500000e-001  1.163376e-016  2.500000e+000
      vertex  9.115183e-001 -2.676459e-001  2.500000e+000
    endloop
  endfacet
  facet normal  0.000000e+000  0.000000e+000  1.000000e+000
    outer loop
      vertex  9.115183e-001 -2.676459e-001  2.500000e+000
      vertex -9.500000e-001  1.163376e-016  2.500000e+000
      vertex -9.115183e-001 -2.676459e-001  2.500000e+000
    endloop
  endfacet
  facet normal  -0.000000e+000  0.000000e+000  1.000000e+000
    outer loop
      vertex  9.115183e-001 -2.676459e-001  2.500000e+000
      vertex -9.115183e-001 -2.676459e-001  2.500000e+000
      vertex  7.991909e-001 -5.136088e-001  2.500000e+000
    endloop
  endfacet
  facet normal  0.000000e+000  0.000000e+000  1.000000e+000
    outer loop
      vertex  7.991909e-001 -5.136088e-001  2.500000e+000
      vertex -9.115183e-001 -2.676459e-001  2.500000e+000
      vertex -7.991909e-001 -5.136088e-001  2.500000e+000
    endloop
  endfacet
  facet normal  -0.000000e+000  0.000000e+000  1.000000e+000
    outer loop
      vertex  7.991909e-001 -5.136088e-001  2.500000e+000
      vertex -7.991909e-001 -5.136088e-001  2.500000e+000
      vertex  6.221177e-001 -7.179621e-001  2.500000e+000
    endloop
  endfacet
  facet normal  0.000000e+000  0.000000e+000  1.000000e+000
    outer loop
      vertex  6.221177e-001 -7.179621e-001  2.500000e+000
      vertex -7.991909e-001 -5.136088e-001  2.500000e+000
      vertex -6.221177e-001 -7.179621e-001  2.500000e+000
    endloop
  endfacet
  facet normal  -0.000000e+000  0.000000e+000  1.000000e+000
    outer loop
      vertex  6.221177e-001 -7.179621e-001  2.500000e+000
      vertex -6.221177e-001 -7.179621e-001  2.500000e+000
      vertex  3.946443e-001 -8.641504e-001  2.500000e+000
    endloop
  endfacet
  facet normal  0.000000e+000  0.000000e+000  1.000000e+000
    outer loop
      vertex  3.946443e-001 -8.641504e-001  2.500000e+000
      vertex -6.221177e-001 -7.179621e-001  2.500000e+000
      vertex -3.946443e-001 -8.641504e-001  2.500000e+000
    endloop
  endfacet
  facet normal  -0.000000e+000  0.000000e+000  1.000000e+000
    outer loop
      vertex  3.946443e-001 -8.641504e-001  2.500000e+000
      vertex -3.946443e-001 -8.641504e-001  2.500000e+000
      vertex  1.351991e-001 -9.403304e-001  2.500000e+000
    endloop
  endfacet
  facet normal  0.000000e+000  0.000000e+000  1.000000e+000
    outer loop
      vertex  1.351991e-001 -9.403304e-001  2.500000e+000
      vertex -3.946443e-001 -8.641504e-001  2.500000e+000
      vertex -1.351991e-001 -9.403304e-001  2.500000e+000
    endloop
  endfacet
  facet normal  -0.000000e+000  0.000000e+000 -1.000000e+000
    outer loop
      vertex -1.351991e-001  9.403304e-001  0.000000e+000
      vertex  1.351991e-001  9.403304e-001  0.000000e+000
      vertex -3.946443e-001  8.641504e-001  0.000000e+000
    endloop
  endfacet
  facet normal  0.000000e+000  0.000000e+000 -1.000000e+000
    outer loop
      vertex -3.946443e-001  8.641504e-001  0.000000e+000
      vertex  1.351991e-001  9.403304e-001  0.000000e+000
      vertex  3.946443e-001  8.641504e-001  0.000000e+000
    endloop
  endfacet
  facet normal  -0.000000e+000  0.000000e+000 -1.000000e+000
    outer loop
      vertex -3.946443e-001  8.641504e-001  0.000000e+000
      vertex  3.946443e-001  8.641504e-001  0.000000e+000
      vertex -6.221177e-001  7.179621e-001  0.000000e+000
    endloop
  endfacet
  facet normal  0.000000e+000  0.000000e+000 -1.000000e+000
    outer loop
      vertex -6.221177e-001  7.179621e-001  0.000000e+000
      vertex  3.946443e-001  8.641504e-001  0.000000e+000
      vertex  6.221177e-001  7.179621e-001  0.000000e+000
    endloop
  endfacet
  facet normal  -0.000000e+000  0.000000e+000 -1.000000e+000
    outer loop
      vertex -6.221177e-001  7.179621e-001  0.000000e+000
      vertex  6.221177e-001  7.179621e-001  0.000000e+000
      vertex -7.991909e-001  5.136088e-001  0.000000e+000
    endloop
  endfacet
  facet normal  0.000000e+000  0.000000e+000 -1.000000e+000
    outer loop
      vertex -7.991909e-001  5.136088e-001  0.000000e+000
      vertex  6.221177e-001  7.179621e-001  0.000000e+000
      vertex  7.991909e-001  5.136088e-001  0.000000e+000
    endloop
  endfacet
  facet normal  -0.000000e+000  0.000000e+000 -1.000000e+000
    outer loop
      vertex -7.991909e-001  5.136088e-001  0.000000e+000
      vertex  7.991909e-001  5.136088e-001  0.000000e+000
      vertex -9.115183e-001  2.676459e-001  0.000000e+000
    endloop
  endfacet
  facet normal  0.000000e+000  0.000000e+000 -1.000000e+000
    outer loop
      vertex -9.115183e-001  2.676459e-001  0.000000e+000
      vertex  7.991909e-001  5.136088e-001  0.000000e+000
      vertex  9.115183e-001  2.676459e-001  0.000000e+000
    endloop
  endfacet
  facet normal  -0.000000e+000  0.000000e+000 -1.000000e+000
    outer loop
      vertex -9.115183e-001  2.676459e-001  0.000000e+000
      vertex  9.115183e-001  2.676459e-001  0.000000e+000
      vertex -9.500000e-001  1.163376e-016  0.000000e+000
    endloop
  endfacet
  facet normal  0.000000e+000  0.000000e+000 -1.000000e+000
    outer loop
      vertex -9.500000e-001  1.163376e-016  0.000000e+000
      vertex  9.115183e-001  2.676459e-001  0.000000e+000
      vertex  9.500000e-001  0.000000e+000  0.000000e+000
    endloop
  endfacet
  facet normal  -0.000000e+000  0.000000e+000 -1.000000e+000
    outer loop
      vertex -9.500000e-001  1.163376e-016  0.000000e+000
      vertex  9.500000e-001  0.000000e+000  0.000000e+000
      vertex -9.115183e-001 -2.676459e-001  0.000000e+000
    endloop
  endfacet
  facet normal  0.000000e+000  0.000000e+000 -1.000000e+000
    outer loop
      vertex -9.115183e-001 -2.676459e-001  0.000000e+000
      vertex  9.500000e-001  0.000000e+000  0.000000e+000
      vertex  9.115183e-001 -2.676459e-001  0.000000e+000
    endloop
  endfacet
  facet normal  -0.000000e+000  0.000000e+000 -1.000000e+000
    outer loop
      vertex -9.115183e-001 -2.676459e-001  0.000000e+000
      vertex  9.115183e-001 -2.676459e-001  0.000000e+000
      vertex -7.991909e-001 -5.136088e-001  0.000000e+000
    endloop
  endfacet
  facet normal  0.000000e+000  0.000000e+000 -1.000000e+000
    outer loop
      vertex -7.991909e-001 -5.136088e-001  0.000000e+000
      vertex  9.115183e-001 -2.676459e-001  0.000000e+000
      vertex  7.991909e-001 -5.136088e-001  0.000000e+000
    endloop
  endfacet
  facet normal  -0.000000e+000  0.000000e+000 -1.000000e+000
    outer loop
      vertex -7.991909e-001 -5.136088e-001  0.000000e+000
      vertex  7.991909e-001 -5.136088e-001  0.000000e+000
      vertex -6.221177e-001 -7.179621e-001  0.000000e+000
    endloop
  endfacet
  facet normal  0.000000e+000  0.000000e+000 -1.000000e+000
    outer loop
      vertex -6.221177e-001 -7.179621e-001  0.000000e+000
      vertex  7.991909e-001 -5.136088e-001  0.000000e+000
      vertex  6.221177e-001 -7.179621e-001  0.000000e+000
    endloop
  endfacet
  facet normal  -0.000000e+000  0.000000e+000 -1.000000e+000
    outer loop
      vertex -6.221177e-001 -7.179621e-001  0.000000e+000
      vertex  6.221177e-001 -7.179621e-001  0.000000e+000
      vertex -3.946443e-001 -8.641504e-001  0.000000e+000
    endloop
  endfacet
  facet normal  0.000000e+000  0.000000e+000 -1.000000e+000
    outer loop
      vertex -3.946443e-001 -8.641504e-001  0.000000e+000
      vertex  6.221177e-001 -7.179621e-001  0.000000e+000
      vertex  3.946443e-001 -8.641504e-001  0.000000e+000
    endloop
  endfacet
  facet normal  -0.000000e+000  0.000000e+000 -1.000000e+000
    outer loop
      vertex -3.946443e-001 -8.641504e-001  0.000000e+000
      vertex  3.946443e-001 -8.641504e-001  0.000000e+000
      vertex -1.351991e-001 -9.403304e-001  0.000000e+000
    endloop
  endfacet
  facet normal  0.000000e+000  0.000000e+000 -1.000000e+000
    outer loop
      vertex -1.351991e-001 -9.403304e-001  0.000000e+000
      vertex  3.946443e-001 -8.641504e-001  0.000000e+000
      vertex  1.351991e-001 -9.403304e-001  0.000000e+000
    endloop
  endfacet
  facet normal  9.898215e-001 -1.423148e-001  0.000000e+000
    outer loop
      vertex  9.500000e-001  0.000000e+000  0.000000e+000
      vertex  9.500000e-001  0.000000e+000  2.500000e+000
      vertex  9.115183e-001 -2.676459e-001  0.000000e+000
    endloop
  endfacet
  facet normal  9.898215e-001 -1.423148e-001  0.000000e+000
    outer loop
      vertex  9.115183e-001 -2.676459e-001  0.000000e+000
      vertex  9.500000e-001  0.000000e+000  2.500000e+000
      vertex  9.115183e-001 -2.676459e-001  2.500000e+000
    endloop
  endfacet
  facet normal  9.096321e-001 -4.154150e-001  0.000000e+000
    outer loop
      vertex  9.115183e-001 -2.676459e-001  0.000000e+000
      vertex  9.115183e-001 -2.676459e-001  2.500000e+000
      vertex  7.991909e-001 -5.136088e-001  0.000000e+000
    endloop
  endfacet
  facet normal  9.096321e-001 -4.154150e-001  0.000000e+000
    outer loop
      vertex  7.991909e-001 -5.136088e-001  0.000000e+000
      vertex  9.115183e-001 -2.676459e-001  2.500000e+000
      vertex  7.991909e-001 -5.136088e-001  2.500000e+000
    endloop
  endfacet
  facet normal  7.557496e-001 -6.548608e-001  0.000000e+000
    outer loop
      vertex  7.991909e-001 -5.136088e-001  0.000000e+000
      vertex  7.991909e-001 -5.136088e-001  2.500000e+000
      vertex  6.221177e-001 -7.179621e-001  0.000000e+000
    endloop
  endfacet
  facet normal  7.557496e-001 -6.548608e-001  0.000000e+000
    outer loop
      vertex  6.221177e-001 -7.179621e-001  0.000000e+000
      vertex  7.991909e-001 -5.136088e-001  2.500000e+000
      vertex  6.221177e-001 -7.179621e-001  2.500000e+000
    endloop
  endfacet
  facet normal  5.406409e-001 -8.412536e-001  0.000000e+000
    outer loop
      vertex  6.221177e-001 -7.179621e-001  0.000000e+000
      vertex  6.221177e-001 -7.179621e-001  2.500000e+000
      vertex  3.946443e-001 -8.641504e-001  0.000000e+000
    endloop
  endfacet
  facet normal  5.406409e-001 -8.412536e-001  0.000000e+000
    outer loop
      vertex  3.946443e-001 -8.641504e-001  0.000000e+000
      vertex  6.221177e-001 -7.179621e-001  2.500000e+000
      vertex  3.946443e-001 -8.641504e-001  2.500000e+000
    endloop
  endfacet
  facet normal  2.817326e-001 -9.594930e-001  0.000000e+000
    outer loop
      vertex  3.946443e-001 -8.641504e-001  0.000000e+000
      vertex  3.946443e-001 -8.641504e-001  2.500000e+000
      vertex  1.351991e-001 -9.403304e-001  0.000000e+000
    endloop
  endfacet
  facet normal  2.817326e-001 -9.594930e-001  0.000000e+000
    outer loop
      vertex  1.351991e-001 -9.403304e-001  0.000000e+000
      vertex  3.946443e-001 -8.641504e-001  2.500000e+000
      vertex  1.351991e-001 -9.403304e-001  2.500000e+000
    endloop
  endfacet
  facet normal  0.000000e+000 -1.000000e+000  -0.000000e+000
    outer loop
      vertex  1.351991e-001 -9.403304e-001  0.000000e+000
      vertex  1.351991e-001 -9.403304e-001  2.500000e+000
      vertex -1.351991e-001 -9.403304e-001  0.000000e+000
    endloop
  endfacet
  facet normal  0.000000e+000 -1.000000e+000  0.000000e+000
    outer loop
      vertex -1.351991e-001 -9.403304e-001  0.000000e+000
      vertex  1.351991e-001 -9.403304e-001  2.500000e+000
      vertex -1.351991e-001 -9.403304e-001  2.500000e+000
    endloop
  endfacet
  facet normal -2.817326e-001 -9.594930e-001  -0.000000e+000
    outer loop
      vertex -1.351991e-001 -9.403304e-001  0.000000e+000
      vertex -1.351991e-001 -9.403304e-001  2.500000e+000
      vertex -3.946443e-001 -8.641504e-001  0.000000e+000
    endloop
  endfacet
  facet normal -2.817326e-001 -9.594930e-001  0.000000e+000
    outer loop
      vertex -3.946443e-001 -8.641504e-001  0.000000e+000
      vertex -1.351991e-001 -9.403304e-001  2.500000e+000
      vertex -3.946443e-001 -8.641504e-001  2.500000e+000
    endloop
  endfacet
  facet normal -5.406409e-001 -8.412536e-001  -0.000000e+000
    outer loop
      vertex -3.946443e-001 -8.641504e-001  0.000000e+000
      vertex -3.946443e-001 -8.641504e-001  2.500000e+000
      vertex -6.221177e-001 -7.179621e-001  0.000000e+000
    endloop
  endfacet
  facet normal -5.406409e-001 -8.412536e-001  0.000000e+000
    outer loop
      vertex -6.221177e-001 -7.179621e-001  0.000000e+000
      vertex -3.946443e-001 -8.641504e-001  2.500000e+000
      vertex -6.221177e-001 -7.179621e-001  2.500000e+000
    endloop
  endfacet
  facet normal -7.557496e-001 -6.548608e-001  -0.000000e+000
    outer loop
      vertex -6.221177e-001 -7.179621e-001  0.000000e+000
      vertex -6.221177e-001 -7.179621e-001  2.500000e+000
      vertex -7.991909e-001 -5.136088e-001  0.000000e+000
    endloop
  endfacet
  facet normal -7.557496e-001 -6.548608e-001  0.000000e+000
    outer loop
      vertex -7.991909e-001 -5.136088e-001  0.000000e+000
      vertex -6.221177e-001 -7.179621e-001  2.500000e+000
      vertex -7.991909e-001 -5.136088e-001  2.500000e+000
    endloop
  endfacet
  facet normal -9.096321e-001 -4.154150e-001  -0.000000e+000
    outer loop
      vertex -7.991909e-001 -5.136088e-001  0.000000e+000
      vertex -7.991909e-001 -5.136088e-001  2.500000e+000
      vertex -9.115183e-001 -2.676459e-001  0.000000e+000
    endloop
  endfacet
  facet normal -9.096321e-001 -4.154150e-001  0.000000e+000
    outer loop
      vertex -9.115183e-001 -2.676459e-001  0.000000e+000
      vertex -7.991909e-001 -5.136088e-001  2.500000e+000
      vertex -9.115183e-001 -2.676459e-001  2.500000e+000
    endloop
  endfacet
  facet normal -9.898215e-001 -1.423148e-001  -0.000000e+000
    outer loop
      vertex -9.115183e-001 -2.676459e-001  0.000000e+000
      vertex -9.115183e-001 -2.676459e-001  2.500000e+000
      vertex -9.500000e-001  1.163376e-016  0.000000e+000
    endloop
  endfacet
  facet normal -9.898215e-001 -1.423148e-001  0.000000e+000
    outer loop
      vertex -9.500000e-001  1.163376e-016  0.000000e+000
      vertex -9.115183e-001 -2.676459e-001  2.500000e+000
      vertex -9.500000e-001  1.163376e-016  2.500000e+000
    endloop
  endfacet
  facet normal -9.898215e-001  1.423148e-001  0.000000e+000
    outer loop
      vertex -9.500000e-001  1.163376e-016  0.000000e+000
      vertex -9.500000e-001  1.163376e-016  2.500000e+000
      vertex -9.115183e-001  2.676459e-001  0.000000e+000
    endloop
  endfacet
  facet normal -9.898215e-001  1.423148e-001  0.000000e+000
    outer loop
      vertex -9.115183e-001  2.676459e-001  0.000000e+000
      vertex -9.500000e-001  1.163376e-016  2.500000e+000
      vertex -9.115183e-001  2.676459e-001  2.500000e+000
    endloop
  endfacet
  facet normal -9.096321e-001  4.154150e-001  0.000000e+000
    outer loop
      vertex -9.115183e-001  2.676459e-001  0.000000e+000
      vertex -9.115183e-001  2.676459e-001  2.500000e+000
      vertex -7.991909e-001  5.136088e-001  0.000000e+000
    endloop
  endfacet
  facet normal -9.096321e-001  4.154150e-001  0.000000e+000
    outer loop
      vertex -7.991909e-001  5.136088e-001  0.000000e+000
      vertex -9.115183e-001  2.676459e-001  2.500000e+000
      vertex -7.991909e-001  5.136088e-001  2.500000e+000
    endloop
  endfacet
  facet normal -7.557496e-001  6.548608e-001  0.000000e+000
    outer loop
      vertex -7.991909e-001  5.136088e-001  0.000000e+000
      vertex -7.991909e-001  5.136088e-001  2.500000e+000
      vertex -6.221177e-001  7.179621e-001  0.000000e+000
    endloop
  endfacet
  facet normal -7.557496e-001  6.548608e-001  0.000000e+000
    outer loop
      vertex -6.221177e-001  7.179621e-001  0.000000e+000
      vertex -7.991909e-001  5.136088e-001  2.500000e+000
      vertex -6.221177e-001  7.179621e-001  2.500000e+000
    endloop
  endfacet
  facet normal -5.406409e-001  8.412536e-001  0.000000e+000
    outer loop
      vertex -6.221177e-001  7.179621e-001  0.000000e+000
      vertex -6.221177e-001  7.179621e-001  2.500000e+000
      vertex -3.946443e-001  8.641504e-001  0.000000e+000
    endloop
  endfacet
  facet normal -5.406409e-001  8.412536e-001  0.000000e+000
    outer loop
      vertex -3.946443e-001  8.641504e-001  0.000000e+000
      vertex -6.221177e-001  7.179621e-001  2.500000e+000
      vertex -3.946443e-001  8.641504e-001  2.500000e+000
    endloop
  endfacet
  facet normal -2.817326e-001  9.594930e-001  0.000000e+000
    outer loop
      vertex -3.946443e-001  8.641504e-001  0.000000e+000
      vertex -3.946443e-001  8.641504e-001  2.500000e+000
      vertex -1.351991e-001  9.403304e-001  0.000000e+000
    endloop
  endfacet
  facet normal -2.817326e-001  9.594930e-001  0.000000e+000
    outer loop
      vertex -1.351991e-001  9.403304e-001  0.000000e+000
      vertex -3.946443e-001  8.641504e-001  2.500000e+000
      vertex -1.351991e-001  9.403304e-001  2.500000e+000
    endloop
  endfacet
  facet normal  0.000000e+000  1.000000e+000  0.000000e+000
    outer loop
      vertex -1.351991e-001  9.403304e-001  0.000000e+000
      vertex -1.351991e-001  9.403304e-001  2.500000e+000
      vertex  1.351991e-001  9.403304e-001  0.000000e+000
    endloop
  endfacet
  facet normal  0.000000e+000  1.000000e+000  -0.000000e+000
    outer loop
      vertex  1.351991e-001  9.403304e-001  0.000000e+000
      vertex -1.351991e-001  9.403304e-001  2.500000e+000
      vertex  1.351991e-001  9.403304e-001  2.500000e+000
    endloop
  endfacet
  facet normal  2.817326e-001  9.594930e-001  0.000000e+000
    outer loop
      vertex  1.351991e-001  9.403304e-001  0.000000e+000
      vertex  1.351991e-001  9.403304e-001  2.500000e+000
      vertex  3.946443e-001  8.641504e-001  0.000000e+000
    endloop
  endfacet
  facet normal  2.817326e-001  9.594930e-001  -0.000000e+000
    outer loop
      vertex  3.946443e-001  8.641504e-001  0.000000e+000
      vertex  1.351991e-001  9.403304e-001  2.500000e+000
      vertex  3.946443e-001  8.641504e-001  2.500000e+000
    endloop
  endfacet
  facet normal  5.406409e-001  8.412536e-001  0.000000e+000
    outer loop
      vertex  3.946443e-001  8.641504e-001  0.000000e+000
      vertex  3.946443e-001  8.641504e-001  2.500000e+000
      vertex  6.221177e-001  7.179621e-001  0.000000e+000
    endloop
  endfacet
  facet normal  5.406409e-001  8.412536e-001  -0.000000e+000
    outer loop
      vertex  6.221177e-001  7.179621e-001  0.000000e+000
      vertex  3.946443e-001  8.641504e-001  2.500000e+000
      vertex  6.221177e-001  7.179621e-001  2.500000e+000
    endloop
  endfacet
  facet normal  7.557496e-001  6.548608e-001  0.000000e+000
    outer loop
      vertex  6.221177e-001  7.179621e-001  0.000000e+000
      vertex  6.221177e-001  7.179621e-001  2.500000e+000
      vertex  7.991909e-001  5.136088e-001  0.000000e+000
    endloop
  endfacet
  facet normal  7.557496e-001  6.548608e-001  -0.000000e+000
    outer loop
      vertex  7.991909e-001  5.136088e-001  0.000000e+000
      vertex  6.221177e-001  7.179621e-001  2.500000e+000
      vertex  7.991909e-001  5.136088e-001  2.500000e+000
    endloop
  endfacet
  facet normal  9.096321e-001  4.154150e-001  0.000000e+000
    outer loop
      vertex  7.991909e-001  5.136088e-001  0.000000e+000
      vertex  7.991909e-001  5.136088e-001  2.500000e+000
      vertex  9.115183e-001  2.676459e-001  0.000000e+000
    endloop
  endfacet
  facet normal  9.096321e-001  4.154150e-001  -0.000000e+000
    outer loop
      vertex  9.115183e-001  2.676459e-001  0.000000e+000
      vertex  7.991909e-001  5.136088e-001  2.500000e+000
      vertex  9.115183e-001  2.676459e-001  2.500000e+000
    endloop
  endfacet
  facet normal  9.898215e-001  1.423148e-001  0.000000e+000
    outer loop
      vertex  9.115183e-001  2.676459e-001  0.000000e+000
      vertex  9.115183e-001  2.676459e-001  2.500000e+000
      vertex  9.500000e-001  0.000000e+000  0.000000e+000
    endloop
  endfacet
  facet normal  9.898215e-001  1.423148e-001  -0.000000e+000
    outer loop
      vertex  9.500000e-001  0.000000e+000  0.000000e+000
      vertex  9.115183e-001  2.676459e-001  2.500000e+000
      vertex  9.500000e-001  0.000000e+000  2.500000e+000
    endloop
  endfacet
endsolid CATIA STL
