solid CATIA STL
  facet normal  0.000000e+000  0.000000e+000  1.000000e+000
    outer loop
      vertex  8.136226e-001 -6.700785e+000  9.000000e+000
      vertex  2.393583e+000 -6.311359e+000  9.000000e+000
      vertex -8.136226e-001 -6.700785e+000  9.000000e+000
    endloop
  endfacet
  facet normal  0.000000e+000  0.000000e+000  1.000000e+000
    outer loop
      vertex -8.136226e-001 -6.700785e+000  9.000000e+000
      vertex  2.393583e+000 -6.311359e+000  9.000000e+000
      vertex  7.232201e-001 -5.956253e+000  9.000000e+000
    endloop
  endfacet
  facet normal  0.000000e+000  0.000000e+000  1.000000e+000
    outer loop
      vertex -8.136226e-001 -6.700785e+000  9.000000e+000
      vertex  7.232201e-001 -5.956253e+000  9.000000e+000
      vertex -2.393583e+000 -6.311359e+000  9.000000e+000
    endloop
  endfacet
  facet normal  0.000000e+000  0.000000e+000  1.000000e+000
    outer loop
      vertex -2.393583e+000 -6.311359e+000  9.000000e+000
      vertex  7.232201e-001 -5.956253e+000  9.000000e+000
      vertex -7.232201e-001 -5.956253e+000  9.000000e+000
    endloop
  endfacet
  facet normal  0.000000e+000  0.000000e+000  9.999999e-001
    outer loop
      vertex -2.393583e+000 -6.311359e+000  9.000000e+000
      vertex -7.232201e-001 -5.956253e+000  9.000000e+000
      vertex -3.834437e+000 -5.555141e+000  9.000000e+000
    endloop
  endfacet
  facet normal  0.000000e+000  0.000000e+000  1.000000e+000
    outer loop
      vertex -3.834437e+000 -5.555141e+000  9.000000e+000
      vertex -7.232201e-001 -5.956253e+000  9.000000e+000
      vertex -2.127629e+000 -5.610097e+000  9.000000e+000
    endloop
  endfacet
  facet normal  0.000000e+000  0.000000e+000  1.000000e+000
    outer loop
      vertex -3.834437e+000 -5.555141e+000  9.000000e+000
      vertex -2.127629e+000 -5.610097e+000  9.000000e+000
      vertex -5.052447e+000 -4.476078e+000  9.000000e+000
    endloop
  endfacet
  facet normal  0.000000e+000  0.000000e+000  1.000000e+000
    outer loop
      vertex -5.052447e+000 -4.476078e+000  9.000000e+000
      vertex -2.127629e+000 -5.610097e+000  9.000000e+000
      vertex -3.408388e+000 -4.937903e+000  9.000000e+000
    endloop
  endfacet
  facet normal  0.000000e+000  0.000000e+000  1.000000e+000
    outer loop
      vertex -5.052447e+000 -4.476078e+000  9.000000e+000
      vertex -3.408388e+000 -4.937903e+000  9.000000e+000
      vertex -4.491065e+000 -3.978736e+000  9.000000e+000
    endloop
  endfacet
  facet normal  0.000000e+000  0.000000e+000  1.000000e+000
    outer loop
      vertex  2.393583e+000  6.311359e+000  9.000000e+000
      vertex  8.136226e-001  6.700785e+000  9.000000e+000
      vertex  7.232201e-001  5.956253e+000  9.000000e+000
    endloop
  endfacet
  facet normal  0.000000e+000  -0.000000e+000  1.000000e+000
    outer loop
      vertex  7.232201e-001  5.956253e+000  9.000000e+000
      vertex  8.136226e-001  6.700785e+000  9.000000e+000
      vertex -8.136226e-001  6.700785e+000  9.000000e+000
    endloop
  endfacet
  facet normal  0.000000e+000  0.000000e+000  1.000000e+000
    outer loop
      vertex  7.232201e-001  5.956253e+000  9.000000e+000
      vertex -8.136226e-001  6.700785e+000  9.000000e+000
      vertex -7.232201e-001  5.956253e+000  9.000000e+000
    endloop
  endfacet
  facet normal  0.000000e+000  0.000000e+000  1.000000e+000
    outer loop
      vertex -7.232201e-001  5.956253e+000  9.000000e+000
      vertex -8.136226e-001  6.700785e+000  9.000000e+000
      vertex -2.393583e+000  6.311359e+000  9.000000e+000
    endloop
  endfacet
  facet normal  0.000000e+000  0.000000e+000  1.000000e+000
    outer loop
      vertex -7.232201e-001  5.956253e+000  9.000000e+000
      vertex -2.393583e+000  6.311359e+000  9.000000e+000
      vertex -2.127629e+000  5.610097e+000  9.000000e+000
    endloop
  endfacet
  facet normal  0.000000e+000  0.000000e+000  1.000000e+000
    outer loop
      vertex -2.127629e+000  5.610097e+000  9.000000e+000
      vertex -2.393583e+000  6.311359e+000  9.000000e+000
      vertex -3.834437e+000  5.555141e+000  9.000000e+000
    endloop
  endfacet
  facet normal  -0.000000e+000  0.000000e+000  9.999999e-001
    outer loop
      vertex -2.127629e+000  5.610097e+000  9.000000e+000
      vertex -3.834437e+000  5.555141e+000  9.000000e+000
      vertex -3.408388e+000  4.937903e+000  9.000000e+000
    endloop
  endfacet
  facet normal  0.000000e+000  0.000000e+000  1.000000e+000
    outer loop
      vertex -3.408388e+000  4.937903e+000  9.000000e+000
      vertex -3.834437e+000  5.555141e+000  9.000000e+000
      vertex -5.052447e+000  4.476078e+000  9.000000e+000
    endloop
  endfacet
  facet normal  -0.000000e+000  0.000000e+000  1.000000e+000
    outer loop
      vertex -3.408388e+000  4.937903e+000  9.000000e+000
      vertex -5.052447e+000  4.476078e+000  9.000000e+000
      vertex -4.491065e+000  3.978736e+000  9.000000e+000
    endloop
  endfacet
  facet normal  0.000000e+000  0.000000e+000  1.000000e+000
    outer loop
      vertex -4.491065e+000  3.978736e+000  9.000000e+000
      vertex -5.052447e+000  4.476078e+000  9.000000e+000
      vertex -5.976828e+000  3.136881e+000  9.000000e+000
    endloop
  endfacet
  facet normal  -0.000000e+000  0.000000e+000  1.000000e+000
    outer loop
      vertex -4.491065e+000  3.978736e+000  9.000000e+000
      vertex -5.976828e+000  3.136881e+000  9.000000e+000
      vertex -5.312736e+000  2.788339e+000  9.000000e+000
    endloop
  endfacet
  facet normal  0.000000e+000  0.000000e+000  1.000000e+000
    outer loop
      vertex -5.312736e+000  2.788339e+000  9.000000e+000
      vertex -5.976828e+000  3.136881e+000  9.000000e+000
      vertex -5.825651e+000  1.435894e+000  9.000000e+000
    endloop
  endfacet
  facet normal  0.000000e+000  0.000000e+000  1.000000e+000
    outer loop
      vertex -5.825651e+000  1.435894e+000  9.000000e+000
      vertex -5.976828e+000  3.136881e+000  9.000000e+000
      vertex -6.553857e+000  1.615381e+000  9.000000e+000
    endloop
  endfacet
  facet normal  0.000000e+000  0.000000e+000  1.000000e+000
    outer loop
      vertex -5.825651e+000  1.435894e+000  9.000000e+000
      vertex -6.553857e+000  1.615381e+000  9.000000e+000
      vertex -6.000000e+000  7.347638e-016  9.000000e+000
    endloop
  endfacet
  facet normal  0.000000e+000  0.000000e+000  1.000000e+000
    outer loop
      vertex -6.000000e+000  7.347638e-016  9.000000e+000
      vertex -6.553857e+000  1.615381e+000  9.000000e+000
      vertex -6.750000e+000  8.266093e-016  9.000000e+000
    endloop
  endfacet
  facet normal  0.000000e+000  0.000000e+000  1.000000e+000
    outer loop
      vertex -6.000000e+000  7.347638e-016  9.000000e+000
      vertex -6.750000e+000  8.266093e-016  9.000000e+000
      vertex -5.825651e+000 -1.435894e+000  9.000000e+000
    endloop
  endfacet
  facet normal  0.000000e+000  0.000000e+000  1.000000e+000
    outer loop
      vertex -5.825651e+000 -1.435894e+000  9.000000e+000
      vertex -6.750000e+000  8.266093e-016  9.000000e+000
      vertex -6.553857e+000 -1.615381e+000  9.000000e+000
    endloop
  endfacet
  facet normal  -0.000000e+000  0.000000e+000  1.000000e+000
    outer loop
      vertex -5.825651e+000 -1.435894e+000  9.000000e+000
      vertex -6.553857e+000 -1.615381e+000  9.000000e+000
      vertex -5.312736e+000 -2.788339e+000  9.000000e+000
    endloop
  endfacet
  facet normal  0.000000e+000  0.000000e+000  1.000000e+000
    outer loop
      vertex -5.312736e+000 -2.788339e+000  9.000000e+000
      vertex -6.553857e+000 -1.615381e+000  9.000000e+000
      vertex -5.976828e+000 -3.136881e+000  9.000000e+000
    endloop
  endfacet
  facet normal  -0.000000e+000  0.000000e+000  1.000000e+000
    outer loop
      vertex -5.312736e+000 -2.788339e+000  9.000000e+000
      vertex -5.976828e+000 -3.136881e+000  9.000000e+000
      vertex -4.491065e+000 -3.978736e+000  9.000000e+000
    endloop
  endfacet
  facet normal  0.000000e+000  0.000000e+000  1.000000e+000
    outer loop
      vertex -4.491065e+000 -3.978736e+000  9.000000e+000
      vertex -5.976828e+000 -3.136881e+000  9.000000e+000
      vertex -5.052447e+000 -4.476078e+000  9.000000e+000
    endloop
  endfacet
  facet normal  -0.000000e+000  0.000000e+000  9.999999e-001
    outer loop
      vertex  2.393583e+000  6.311359e+000  9.000000e+000
      vertex  7.232201e-001  5.956253e+000  9.000000e+000
      vertex  3.834437e+000  5.555141e+000  9.000000e+000
    endloop
  endfacet
  facet normal  0.000000e+000  0.000000e+000  1.000000e+000
    outer loop
      vertex  3.834437e+000  5.555141e+000  9.000000e+000
      vertex  7.232201e-001  5.956253e+000  9.000000e+000
      vertex  2.127629e+000  5.610097e+000  9.000000e+000
    endloop
  endfacet
  facet normal  0.000000e+000  0.000000e+000  1.000000e+000
    outer loop
      vertex  3.834437e+000  5.555141e+000  9.000000e+000
      vertex  2.127629e+000  5.610097e+000  9.000000e+000
      vertex  5.052447e+000  4.476078e+000  9.000000e+000
    endloop
  endfacet
  facet normal  0.000000e+000  0.000000e+000  1.000000e+000
    outer loop
      vertex  5.052447e+000  4.476078e+000  9.000000e+000
      vertex  2.127629e+000  5.610097e+000  9.000000e+000
      vertex  3.408388e+000  4.937903e+000  9.000000e+000
    endloop
  endfacet
  facet normal  0.000000e+000  0.000000e+000  1.000000e+000
    outer loop
      vertex  5.052447e+000  4.476078e+000  9.000000e+000
      vertex  3.408388e+000  4.937903e+000  9.000000e+000
      vertex  5.976828e+000  3.136881e+000  9.000000e+000
    endloop
  endfacet
  facet normal  0.000000e+000  0.000000e+000  1.000000e+000
    outer loop
      vertex  5.976828e+000  3.136881e+000  9.000000e+000
      vertex  3.408388e+000  4.937903e+000  9.000000e+000
      vertex  4.491065e+000  3.978736e+000  9.000000e+000
    endloop
  endfacet
  facet normal  0.000000e+000  0.000000e+000  1.000000e+000
    outer loop
      vertex  5.976828e+000  3.136881e+000  9.000000e+000
      vertex  4.491065e+000  3.978736e+000  9.000000e+000
      vertex  5.312736e+000  2.788339e+000  9.000000e+000
    endloop
  endfacet
  facet normal  -0.000000e+000  0.000000e+000  1.000000e+000
    outer loop
      vertex  5.976828e+000  3.136881e+000  9.000000e+000
      vertex  5.312736e+000  2.788339e+000  9.000000e+000
      vertex  6.553857e+000  1.615381e+000  9.000000e+000
    endloop
  endfacet
  facet normal  0.000000e+000  0.000000e+000  1.000000e+000
    outer loop
      vertex  6.553857e+000  1.615381e+000  9.000000e+000
      vertex  5.312736e+000  2.788339e+000  9.000000e+000
      vertex  5.825651e+000  1.435894e+000  9.000000e+000
    endloop
  endfacet
  facet normal  -0.000000e+000  0.000000e+000  1.000000e+000
    outer loop
      vertex  6.553857e+000  1.615381e+000  9.000000e+000
      vertex  5.825651e+000  1.435894e+000  9.000000e+000
      vertex  6.750000e+000  0.000000e+000  9.000000e+000
    endloop
  endfacet
  facet normal  0.000000e+000  0.000000e+000  1.000000e+000
    outer loop
      vertex  6.750000e+000  0.000000e+000  9.000000e+000
      vertex  5.825651e+000  1.435894e+000  9.000000e+000
      vertex  6.000000e+000  0.000000e+000  9.000000e+000
    endloop
  endfacet
  facet normal  -0.000000e+000  0.000000e+000  1.000000e+000
    outer loop
      vertex  6.750000e+000  0.000000e+000  9.000000e+000
      vertex  6.000000e+000  0.000000e+000  9.000000e+000
      vertex  6.553857e+000 -1.615381e+000  9.000000e+000
    endloop
  endfacet
  facet normal  0.000000e+000  0.000000e+000  1.000000e+000
    outer loop
      vertex  6.553857e+000 -1.615381e+000  9.000000e+000
      vertex  6.000000e+000  0.000000e+000  9.000000e+000
      vertex  5.825651e+000 -1.435894e+000  9.000000e+000
    endloop
  endfacet
  facet normal  0.000000e+000  0.000000e+000  1.000000e+000
    outer loop
      vertex  6.553857e+000 -1.615381e+000  9.000000e+000
      vertex  5.825651e+000 -1.435894e+000  9.000000e+000
      vertex  5.976828e+000 -3.136881e+000  9.000000e+000
    endloop
  endfacet
  facet normal  0.000000e+000  0.000000e+000  1.000000e+000
    outer loop
      vertex  5.976828e+000 -3.136881e+000  9.000000e+000
      vertex  5.825651e+000 -1.435894e+000  9.000000e+000
      vertex  5.312736e+000 -2.788339e+000  9.000000e+000
    endloop
  endfacet
  facet normal  0.000000e+000  0.000000e+000  1.000000e+000
    outer loop
      vertex  5.976828e+000 -3.136881e+000  9.000000e+000
      vertex  5.312736e+000 -2.788339e+000  9.000000e+000
      vertex  5.052447e+000 -4.476078e+000  9.000000e+000
    endloop
  endfacet
  facet normal  0.000000e+000  -0.000000e+000  9.999999e-001
    outer loop
      vertex  5.052447e+000 -4.476078e+000  9.000000e+000
      vertex  5.312736e+000 -2.788339e+000  9.000000e+000
      vertex  4.491065e+000 -3.978736e+000  9.000000e+000
    endloop
  endfacet
  facet normal  0.000000e+000  0.000000e+000  1.000000e+000
    outer loop
      vertex  5.052447e+000 -4.476078e+000  9.000000e+000
      vertex  4.491065e+000 -3.978736e+000  9.000000e+000
      vertex  3.408388e+000 -4.937903e+000  9.000000e+000
    endloop
  endfacet
  facet normal  -0.000000e+000  0.000000e+000  1.000000e+000
    outer loop
      vertex  5.052447e+000 -4.476078e+000  9.000000e+000
      vertex  3.408388e+000 -4.937903e+000  9.000000e+000
      vertex  3.834437e+000 -5.555141e+000  9.000000e+000
    endloop
  endfacet
  facet normal  0.000000e+000  0.000000e+000  9.999999e-001
    outer loop
      vertex  3.834437e+000 -5.555141e+000  9.000000e+000
      vertex  3.408388e+000 -4.937903e+000  9.000000e+000
      vertex  2.127629e+000 -5.610097e+000  9.000000e+000
    endloop
  endfacet
  facet normal  -0.000000e+000  0.000000e+000  1.000000e+000
    outer loop
      vertex  3.834437e+000 -5.555141e+000  9.000000e+000
      vertex  2.127629e+000 -5.610097e+000  9.000000e+000
      vertex  2.393583e+000 -6.311359e+000  9.000000e+000
    endloop
  endfacet
  facet normal  0.000000e+000  0.000000e+000  1.000000e+000
    outer loop
      vertex  2.393583e+000 -6.311359e+000  9.000000e+000
      vertex  2.127629e+000 -5.610097e+000  9.000000e+000
      vertex  7.232201e-001 -5.956253e+000  9.000000e+000
    endloop
  endfacet
  facet normal  0.000000e+000  0.000000e+000 -1.000000e+000
    outer loop
      vertex  2.393583e+000 -6.311359e+000 -9.000000e+000
      vertex  8.136226e-001 -6.700785e+000 -9.000000e+000
      vertex  7.232201e-001 -5.956253e+000 -9.000000e+000
    endloop
  endfacet
  facet normal  0.000000e+000  -0.000000e+000 -1.000000e+000
    outer loop
      vertex  7.232201e-001 -5.956253e+000 -9.000000e+000
      vertex  8.136226e-001 -6.700785e+000 -9.000000e+000
      vertex -8.136226e-001 -6.700785e+000 -9.000000e+000
    endloop
  endfacet
  facet normal  0.000000e+000  0.000000e+000 -1.000000e+000
    outer loop
      vertex  7.232201e-001 -5.956253e+000 -9.000000e+000
      vertex -8.136226e-001 -6.700785e+000 -9.000000e+000
      vertex -7.232201e-001 -5.956253e+000 -9.000000e+000
    endloop
  endfacet
  facet normal  0.000000e+000  0.000000e+000 -1.000000e+000
    outer loop
      vertex -7.232201e-001 -5.956253e+000 -9.000000e+000
      vertex -8.136226e-001 -6.700785e+000 -9.000000e+000
      vertex -2.393583e+000 -6.311359e+000 -9.000000e+000
    endloop
  endfacet
  facet normal  0.000000e+000  0.000000e+000 -1.000000e+000
    outer loop
      vertex -7.232201e-001 -5.956253e+000 -9.000000e+000
      vertex -2.393583e+000 -6.311359e+000 -9.000000e+000
      vertex -2.127629e+000 -5.610097e+000 -9.000000e+000
    endloop
  endfacet
  facet normal  -0.000000e+000  0.000000e+000 -1.000000e+000
    outer loop
      vertex -2.127629e+000 -5.610097e+000 -9.000000e+000
      vertex -2.393583e+000 -6.311359e+000 -9.000000e+000
      vertex -3.834437e+000 -5.555141e+000 -9.000000e+000
    endloop
  endfacet
  facet normal  0.000000e+000  0.000000e+000 -9.999999e-001
    outer loop
      vertex -2.127629e+000 -5.610097e+000 -9.000000e+000
      vertex -3.834437e+000 -5.555141e+000 -9.000000e+000
      vertex -3.408388e+000 -4.937903e+000 -9.000000e+000
    endloop
  endfacet
  facet normal  -0.000000e+000  0.000000e+000 -1.000000e+000
    outer loop
      vertex -3.408388e+000 -4.937903e+000 -9.000000e+000
      vertex -3.834437e+000 -5.555141e+000 -9.000000e+000
      vertex -5.052447e+000 -4.476078e+000 -9.000000e+000
    endloop
  endfacet
  facet normal  0.000000e+000  0.000000e+000 -1.000000e+000
    outer loop
      vertex -3.408388e+000 -4.937903e+000 -9.000000e+000
      vertex -5.052447e+000 -4.476078e+000 -9.000000e+000
      vertex -4.491065e+000 -3.978736e+000 -9.000000e+000
    endloop
  endfacet
  facet normal  0.000000e+000  0.000000e+000 -1.000000e+000
    outer loop
      vertex  8.136226e-001  6.700785e+000 -9.000000e+000
      vertex  2.393583e+000  6.311359e+000 -9.000000e+000
      vertex -8.136226e-001  6.700785e+000 -9.000000e+000
    endloop
  endfacet
  facet normal  0.000000e+000  0.000000e+000 -1.000000e+000
    outer loop
      vertex -8.136226e-001  6.700785e+000 -9.000000e+000
      vertex  2.393583e+000  6.311359e+000 -9.000000e+000
      vertex  7.232201e-001  5.956253e+000 -9.000000e+000
    endloop
  endfacet
  facet normal  0.000000e+000  0.000000e+000 -1.000000e+000
    outer loop
      vertex -8.136226e-001  6.700785e+000 -9.000000e+000
      vertex  7.232201e-001  5.956253e+000 -9.000000e+000
      vertex -2.393583e+000  6.311359e+000 -9.000000e+000
    endloop
  endfacet
  facet normal  0.000000e+000  0.000000e+000 -1.000000e+000
    outer loop
      vertex -2.393583e+000  6.311359e+000 -9.000000e+000
      vertex  7.232201e-001  5.956253e+000 -9.000000e+000
      vertex -7.232201e-001  5.956253e+000 -9.000000e+000
    endloop
  endfacet
  facet normal  -0.000000e+000  0.000000e+000 -9.999999e-001
    outer loop
      vertex -2.393583e+000  6.311359e+000 -9.000000e+000
      vertex -7.232201e-001  5.956253e+000 -9.000000e+000
      vertex -3.834437e+000  5.555141e+000 -9.000000e+000
    endloop
  endfacet
  facet normal  0.000000e+000  0.000000e+000 -1.000000e+000
    outer loop
      vertex -3.834437e+000  5.555141e+000 -9.000000e+000
      vertex -7.232201e-001  5.956253e+000 -9.000000e+000
      vertex -2.127629e+000  5.610097e+000 -9.000000e+000
    endloop
  endfacet
  facet normal  0.000000e+000  0.000000e+000 -1.000000e+000
    outer loop
      vertex -3.834437e+000  5.555141e+000 -9.000000e+000
      vertex -2.127629e+000  5.610097e+000 -9.000000e+000
      vertex -5.052447e+000  4.476078e+000 -9.000000e+000
    endloop
  endfacet
  facet normal  0.000000e+000  0.000000e+000 -1.000000e+000
    outer loop
      vertex -5.052447e+000  4.476078e+000 -9.000000e+000
      vertex -2.127629e+000  5.610097e+000 -9.000000e+000
      vertex -3.408388e+000  4.937903e+000 -9.000000e+000
    endloop
  endfacet
  facet normal  0.000000e+000  0.000000e+000 -1.000000e+000
    outer loop
      vertex -5.052447e+000  4.476078e+000 -9.000000e+000
      vertex -3.408388e+000  4.937903e+000 -9.000000e+000
      vertex -5.976828e+000  3.136881e+000 -9.000000e+000
    endloop
  endfacet
  facet normal  0.000000e+000  0.000000e+000 -1.000000e+000
    outer loop
      vertex -5.976828e+000  3.136881e+000 -9.000000e+000
      vertex -3.408388e+000  4.937903e+000 -9.000000e+000
      vertex -4.491065e+000  3.978736e+000 -9.000000e+000
    endloop
  endfacet
  facet normal  0.000000e+000  0.000000e+000 -1.000000e+000
    outer loop
      vertex -5.976828e+000  3.136881e+000 -9.000000e+000
      vertex -4.491065e+000  3.978736e+000 -9.000000e+000
      vertex -5.312736e+000  2.788339e+000 -9.000000e+000
    endloop
  endfacet
  facet normal  -0.000000e+000  0.000000e+000 -1.000000e+000
    outer loop
      vertex -5.976828e+000  3.136881e+000 -9.000000e+000
      vertex -5.312736e+000  2.788339e+000 -9.000000e+000
      vertex -6.553857e+000  1.615381e+000 -9.000000e+000
    endloop
  endfacet
  facet normal  0.000000e+000  0.000000e+000 -1.000000e+000
    outer loop
      vertex -6.553857e+000  1.615381e+000 -9.000000e+000
      vertex -5.312736e+000  2.788339e+000 -9.000000e+000
      vertex -5.825651e+000  1.435894e+000 -9.000000e+000
    endloop
  endfacet
  facet normal  -0.000000e+000  0.000000e+000 -1.000000e+000
    outer loop
      vertex -6.553857e+000  1.615381e+000 -9.000000e+000
      vertex -5.825651e+000  1.435894e+000 -9.000000e+000
      vertex -6.750000e+000  8.266093e-016 -9.000000e+000
    endloop
  endfacet
  facet normal  0.000000e+000  0.000000e+000 -1.000000e+000
    outer loop
      vertex -6.750000e+000  8.266093e-016 -9.000000e+000
      vertex -5.825651e+000  1.435894e+000 -9.000000e+000
      vertex -6.000000e+000  7.347638e-016 -9.000000e+000
    endloop
  endfacet
  facet normal  -0.000000e+000  0.000000e+000 -1.000000e+000
    outer loop
      vertex -6.750000e+000  8.266093e-016 -9.000000e+000
      vertex -6.000000e+000  7.347638e-016 -9.000000e+000
      vertex -6.553857e+000 -1.615381e+000 -9.000000e+000
    endloop
  endfacet
  facet normal  0.000000e+000  0.000000e+000 -1.000000e+000
    outer loop
      vertex -6.553857e+000 -1.615381e+000 -9.000000e+000
      vertex -6.000000e+000  7.347638e-016 -9.000000e+000
      vertex -5.825651e+000 -1.435894e+000 -9.000000e+000
    endloop
  endfacet
  facet normal  0.000000e+000  0.000000e+000 -1.000000e+000
    outer loop
      vertex -6.553857e+000 -1.615381e+000 -9.000000e+000
      vertex -5.825651e+000 -1.435894e+000 -9.000000e+000
      vertex -5.976828e+000 -3.136881e+000 -9.000000e+000
    endloop
  endfacet
  facet normal  0.000000e+000  0.000000e+000 -1.000000e+000
    outer loop
      vertex -5.976828e+000 -3.136881e+000 -9.000000e+000
      vertex -5.825651e+000 -1.435894e+000 -9.000000e+000
      vertex -5.312736e+000 -2.788339e+000 -9.000000e+000
    endloop
  endfacet
  facet normal  0.000000e+000  -0.000000e+000 -1.000000e+000
    outer loop
      vertex -5.976828e+000 -3.136881e+000 -9.000000e+000
      vertex -5.312736e+000 -2.788339e+000 -9.000000e+000
      vertex -5.052447e+000 -4.476078e+000 -9.000000e+000
    endloop
  endfacet
  facet normal  0.000000e+000  0.000000e+000 -9.999999e-001
    outer loop
      vertex -5.052447e+000 -4.476078e+000 -9.000000e+000
      vertex -5.312736e+000 -2.788339e+000 -9.000000e+000
      vertex -4.491065e+000 -3.978736e+000 -9.000000e+000
    endloop
  endfacet
  facet normal  0.000000e+000  0.000000e+000 -1.000000e+000
    outer loop
      vertex  7.232201e-001  5.956253e+000 -9.000000e+000
      vertex  2.393583e+000  6.311359e+000 -9.000000e+000
      vertex  2.127629e+000  5.610097e+000 -9.000000e+000
    endloop
  endfacet
  facet normal  0.000000e+000  0.000000e+000 -1.000000e+000
    outer loop
      vertex  2.127629e+000  5.610097e+000 -9.000000e+000
      vertex  2.393583e+000  6.311359e+000 -9.000000e+000
      vertex  3.834437e+000  5.555141e+000 -9.000000e+000
    endloop
  endfacet
  facet normal  -0.000000e+000  0.000000e+000 -9.999999e-001
    outer loop
      vertex  2.127629e+000  5.610097e+000 -9.000000e+000
      vertex  3.834437e+000  5.555141e+000 -9.000000e+000
      vertex  3.408388e+000  4.937903e+000 -9.000000e+000
    endloop
  endfacet
  facet normal  0.000000e+000  0.000000e+000 -1.000000e+000
    outer loop
      vertex  3.408388e+000  4.937903e+000 -9.000000e+000
      vertex  3.834437e+000  5.555141e+000 -9.000000e+000
      vertex  5.052447e+000  4.476078e+000 -9.000000e+000
    endloop
  endfacet
  facet normal  -0.000000e+000  0.000000e+000 -1.000000e+000
    outer loop
      vertex  3.408388e+000  4.937903e+000 -9.000000e+000
      vertex  5.052447e+000  4.476078e+000 -9.000000e+000
      vertex  4.491065e+000  3.978736e+000 -9.000000e+000
    endloop
  endfacet
  facet normal  0.000000e+000  0.000000e+000 -1.000000e+000
    outer loop
      vertex  4.491065e+000  3.978736e+000 -9.000000e+000
      vertex  5.052447e+000  4.476078e+000 -9.000000e+000
      vertex  5.976828e+000  3.136881e+000 -9.000000e+000
    endloop
  endfacet
  facet normal  -0.000000e+000  0.000000e+000 -1.000000e+000
    outer loop
      vertex  4.491065e+000  3.978736e+000 -9.000000e+000
      vertex  5.976828e+000  3.136881e+000 -9.000000e+000
      vertex  5.312736e+000  2.788339e+000 -9.000000e+000
    endloop
  endfacet
  facet normal  0.000000e+000  0.000000e+000 -1.000000e+000
    outer loop
      vertex  5.312736e+000  2.788339e+000 -9.000000e+000
      vertex  5.976828e+000  3.136881e+000 -9.000000e+000
      vertex  5.825651e+000  1.435894e+000 -9.000000e+000
    endloop
  endfacet
  facet normal  0.000000e+000  0.000000e+000 -1.000000e+000
    outer loop
      vertex  5.825651e+000  1.435894e+000 -9.000000e+000
      vertex  5.976828e+000  3.136881e+000 -9.000000e+000
      vertex  6.553857e+000  1.615381e+000 -9.000000e+000
    endloop
  endfacet
  facet normal  0.000000e+000  0.000000e+000 -1.000000e+000
    outer loop
      vertex  5.825651e+000  1.435894e+000 -9.000000e+000
      vertex  6.553857e+000  1.615381e+000 -9.000000e+000
      vertex  6.000000e+000  0.000000e+000 -9.000000e+000
    endloop
  endfacet
  facet normal  0.000000e+000  0.000000e+000 -1.000000e+000
    outer loop
      vertex  6.000000e+000  0.000000e+000 -9.000000e+000
      vertex  6.553857e+000  1.615381e+000 -9.000000e+000
      vertex  6.750000e+000  0.000000e+000 -9.000000e+000
    endloop
  endfacet
  facet normal  -0.000000e+000  0.000000e+000 -1.000000e+000
    outer loop
      vertex  6.000000e+000  0.000000e+000 -9.000000e+000
      vertex  6.750000e+000  0.000000e+000 -9.000000e+000
      vertex  5.825651e+000 -1.435894e+000 -9.000000e+000
    endloop
  endfacet
  facet normal  0.000000e+000  0.000000e+000 -1.000000e+000
    outer loop
      vertex  5.825651e+000 -1.435894e+000 -9.000000e+000
      vertex  6.750000e+000  0.000000e+000 -9.000000e+000
      vertex  6.553857e+000 -1.615381e+000 -9.000000e+000
    endloop
  endfacet
  facet normal  -0.000000e+000  0.000000e+000 -1.000000e+000
    outer loop
      vertex  5.825651e+000 -1.435894e+000 -9.000000e+000
      vertex  6.553857e+000 -1.615381e+000 -9.000000e+000
      vertex  5.312736e+000 -2.788339e+000 -9.000000e+000
    endloop
  endfacet
  facet normal  0.000000e+000  0.000000e+000 -1.000000e+000
    outer loop
      vertex  5.312736e+000 -2.788339e+000 -9.000000e+000
      vertex  6.553857e+000 -1.615381e+000 -9.000000e+000
      vertex  5.976828e+000 -3.136881e+000 -9.000000e+000
    endloop
  endfacet
  facet normal  -0.000000e+000  0.000000e+000 -1.000000e+000
    outer loop
      vertex  5.312736e+000 -2.788339e+000 -9.000000e+000
      vertex  5.976828e+000 -3.136881e+000 -9.000000e+000
      vertex  4.491065e+000 -3.978736e+000 -9.000000e+000
    endloop
  endfacet
  facet normal  0.000000e+000  0.000000e+000 -1.000000e+000
    outer loop
      vertex  4.491065e+000 -3.978736e+000 -9.000000e+000
      vertex  5.976828e+000 -3.136881e+000 -9.000000e+000
      vertex  5.052447e+000 -4.476078e+000 -9.000000e+000
    endloop
  endfacet
  facet normal  -0.000000e+000  0.000000e+000 -1.000000e+000
    outer loop
      vertex  4.491065e+000 -3.978736e+000 -9.000000e+000
      vertex  5.052447e+000 -4.476078e+000 -9.000000e+000
      vertex  3.408388e+000 -4.937903e+000 -9.000000e+000
    endloop
  endfacet
  facet normal  0.000000e+000  0.000000e+000 -1.000000e+000
    outer loop
      vertex  3.408388e+000 -4.937903e+000 -9.000000e+000
      vertex  5.052447e+000 -4.476078e+000 -9.000000e+000
      vertex  2.127629e+000 -5.610097e+000 -9.000000e+000
    endloop
  endfacet
  facet normal  0.000000e+000  0.000000e+000 -1.000000e+000
    outer loop
      vertex  2.127629e+000 -5.610097e+000 -9.000000e+000
      vertex  5.052447e+000 -4.476078e+000 -9.000000e+000
      vertex  3.834437e+000 -5.555141e+000 -9.000000e+000
    endloop
  endfacet
  facet normal  0.000000e+000  0.000000e+000 -1.000000e+000
    outer loop
      vertex  2.127629e+000 -5.610097e+000 -9.000000e+000
      vertex  3.834437e+000 -5.555141e+000 -9.000000e+000
      vertex  7.232201e-001 -5.956253e+000 -9.000000e+000
    endloop
  endfacet
  facet normal  0.000000e+000  0.000000e+000 -9.999999e-001
    outer loop
      vertex  7.232201e-001 -5.956253e+000 -9.000000e+000
      vertex  3.834437e+000 -5.555141e+000 -9.000000e+000
      vertex  2.393583e+000 -6.311359e+000 -9.000000e+000
    endloop
  endfacet
  facet normal  9.927089e-001 -1.205368e-001  0.000000e+000
    outer loop
      vertex -6.000000e+000  7.347638e-016  9.000000e+000
      vertex -6.000000e+000  7.347638e-016 -9.000000e+000
      vertex -5.825651e+000  1.435894e+000  9.000000e+000
    endloop
  endfacet
  facet normal  9.927089e-001 -1.205368e-001  0.000000e+000
    outer loop
      vertex -5.825651e+000  1.435894e+000  9.000000e+000
      vertex -6.000000e+000  7.347638e-016 -9.000000e+000
      vertex -5.825651e+000  1.435894e+000 -9.000000e+000
    endloop
  endfacet
  facet normal  9.350163e-001 -3.546048e-001  0.000000e+000
    outer loop
      vertex -5.825651e+000  1.435894e+000  9.000000e+000
      vertex -5.825651e+000  1.435894e+000 -9.000000e+000
      vertex -5.312736e+000  2.788339e+000  9.000000e+000
    endloop
  endfacet
  facet normal  9.350163e-001 -3.546048e-001  0.000000e+000
    outer loop
      vertex -5.312736e+000  2.788339e+000  9.000000e+000
      vertex -5.825651e+000  1.435894e+000 -9.000000e+000
      vertex -5.312736e+000  2.788339e+000 -9.000000e+000
    endloop
  endfacet
  facet normal  8.229839e-001 -5.680646e-001  0.000000e+000
    outer loop
      vertex -5.312736e+000  2.788339e+000  9.000000e+000
      vertex -5.312736e+000  2.788339e+000 -9.000000e+000
      vertex -4.491065e+000  3.978736e+000  9.000000e+000
    endloop
  endfacet
  facet normal  8.229839e-001 -5.680646e-001  0.000000e+000
    outer loop
      vertex -4.491065e+000  3.978736e+000  9.000000e+000
      vertex -5.312736e+000  2.788339e+000 -9.000000e+000
      vertex -4.491065e+000  3.978736e+000 -9.000000e+000
    endloop
  endfacet
  facet normal  6.631227e-001 -7.485107e-001  0.000000e+000
    outer loop
      vertex -4.491065e+000  3.978736e+000  9.000000e+000
      vertex -4.491065e+000  3.978736e+000 -9.000000e+000
      vertex -3.408388e+000  4.937903e+000  9.000000e+000
    endloop
  endfacet
  facet normal  6.631227e-001 -7.485107e-001  0.000000e+000
    outer loop
      vertex -3.408388e+000  4.937903e+000  9.000000e+000
      vertex -4.491065e+000  3.978736e+000 -9.000000e+000
      vertex -3.408388e+000  4.937903e+000 -9.000000e+000
    endloop
  endfacet
  facet normal  4.647231e-001 -8.854561e-001  0.000000e+000
    outer loop
      vertex -3.408388e+000  4.937903e+000  9.000000e+000
      vertex -3.408388e+000  4.937903e+000 -9.000000e+000
      vertex -2.127629e+000  5.610097e+000  9.000000e+000
    endloop
  endfacet
  facet normal  4.647231e-001 -8.854561e-001  0.000000e+000
    outer loop
      vertex -2.127629e+000  5.610097e+000  9.000000e+000
      vertex -3.408388e+000  4.937903e+000 -9.000000e+000
      vertex -2.127629e+000  5.610097e+000 -9.000000e+000
    endloop
  endfacet
  facet normal  2.393156e-001 -9.709418e-001  0.000000e+000
    outer loop
      vertex -2.127629e+000  5.610097e+000  9.000000e+000
      vertex -2.127629e+000  5.610097e+000 -9.000000e+000
      vertex -7.232201e-001  5.956253e+000  9.000000e+000
    endloop
  endfacet
  facet normal  2.393156e-001 -9.709418e-001  0.000000e+000
    outer loop
      vertex -7.232201e-001  5.956253e+000  9.000000e+000
      vertex -2.127629e+000  5.610097e+000 -9.000000e+000
      vertex -7.232201e-001  5.956253e+000 -9.000000e+000
    endloop
  endfacet
  facet normal  0.000000e+000 -9.999999e-001  0.000000e+000
    outer loop
      vertex -7.232201e-001  5.956253e+000  9.000000e+000
      vertex -7.232201e-001  5.956253e+000 -9.000000e+000
      vertex  7.232201e-001  5.956253e+000  9.000000e+000
    endloop
  endfacet
  facet normal  0.000000e+000 -9.999999e-001  -0.000000e+000
    outer loop
      vertex  7.232201e-001  5.956253e+000  9.000000e+000
      vertex -7.232201e-001  5.956253e+000 -9.000000e+000
      vertex  7.232201e-001  5.956253e+000 -9.000000e+000
    endloop
  endfacet
  facet normal -2.393156e-001 -9.709418e-001  0.000000e+000
    outer loop
      vertex  7.232201e-001  5.956253e+000  9.000000e+000
      vertex  7.232201e-001  5.956253e+000 -9.000000e+000
      vertex  2.127629e+000  5.610097e+000  9.000000e+000
    endloop
  endfacet
  facet normal -2.393156e-001 -9.709418e-001  -0.000000e+000
    outer loop
      vertex  2.127629e+000  5.610097e+000  9.000000e+000
      vertex  7.232201e-001  5.956253e+000 -9.000000e+000
      vertex  2.127629e+000  5.610097e+000 -9.000000e+000
    endloop
  endfacet
  facet normal -4.647231e-001 -8.854561e-001  0.000000e+000
    outer loop
      vertex  2.127629e+000  5.610097e+000  9.000000e+000
      vertex  2.127629e+000  5.610097e+000 -9.000000e+000
      vertex  3.408388e+000  4.937903e+000  9.000000e+000
    endloop
  endfacet
  facet normal -4.647231e-001 -8.854561e-001  -0.000000e+000
    outer loop
      vertex  3.408388e+000  4.937903e+000  9.000000e+000
      vertex  2.127629e+000  5.610097e+000 -9.000000e+000
      vertex  3.408388e+000  4.937903e+000 -9.000000e+000
    endloop
  endfacet
  facet normal -6.631227e-001 -7.485107e-001  0.000000e+000
    outer loop
      vertex  3.408388e+000  4.937903e+000  9.000000e+000
      vertex  3.408388e+000  4.937903e+000 -9.000000e+000
      vertex  4.491065e+000  3.978736e+000  9.000000e+000
    endloop
  endfacet
  facet normal -6.631227e-001 -7.485107e-001  -0.000000e+000
    outer loop
      vertex  4.491065e+000  3.978736e+000  9.000000e+000
      vertex  3.408388e+000  4.937903e+000 -9.000000e+000
      vertex  4.491065e+000  3.978736e+000 -9.000000e+000
    endloop
  endfacet
  facet normal -8.229839e-001 -5.680646e-001  0.000000e+000
    outer loop
      vertex  4.491065e+000  3.978736e+000  9.000000e+000
      vertex  4.491065e+000  3.978736e+000 -9.000000e+000
      vertex  5.312736e+000  2.788339e+000  9.000000e+000
    endloop
  endfacet
  facet normal -8.229839e-001 -5.680646e-001  -0.000000e+000
    outer loop
      vertex  5.312736e+000  2.788339e+000  9.000000e+000
      vertex  4.491065e+000  3.978736e+000 -9.000000e+000
      vertex  5.312736e+000  2.788339e+000 -9.000000e+000
    endloop
  endfacet
  facet normal -9.350163e-001 -3.546048e-001  0.000000e+000
    outer loop
      vertex  5.312736e+000  2.788339e+000  9.000000e+000
      vertex  5.312736e+000  2.788339e+000 -9.000000e+000
      vertex  5.825651e+000  1.435894e+000  9.000000e+000
    endloop
  endfacet
  facet normal -9.350163e-001 -3.546048e-001  -0.000000e+000
    outer loop
      vertex  5.825651e+000  1.435894e+000  9.000000e+000
      vertex  5.312736e+000  2.788339e+000 -9.000000e+000
      vertex  5.825651e+000  1.435894e+000 -9.000000e+000
    endloop
  endfacet
  facet normal -9.927089e-001 -1.205368e-001  0.000000e+000
    outer loop
      vertex  5.825651e+000  1.435894e+000  9.000000e+000
      vertex  5.825651e+000  1.435894e+000 -9.000000e+000
      vertex  6.000000e+000  0.000000e+000  9.000000e+000
    endloop
  endfacet
  facet normal -9.927089e-001 -1.205368e-001  -0.000000e+000
    outer loop
      vertex  6.000000e+000  0.000000e+000  9.000000e+000
      vertex  5.825651e+000  1.435894e+000 -9.000000e+000
      vertex  6.000000e+000  0.000000e+000 -9.000000e+000
    endloop
  endfacet
  facet normal -9.927089e-001  1.205368e-001  0.000000e+000
    outer loop
      vertex  6.000000e+000  0.000000e+000  9.000000e+000
      vertex  6.000000e+000  0.000000e+000 -9.000000e+000
      vertex  5.825651e+000 -1.435894e+000  9.000000e+000
    endloop
  endfacet
  facet normal -9.927089e-001  1.205368e-001  0.000000e+000
    outer loop
      vertex  5.825651e+000 -1.435894e+000  9.000000e+000
      vertex  6.000000e+000  0.000000e+000 -9.000000e+000
      vertex  5.825651e+000 -1.435894e+000 -9.000000e+000
    endloop
  endfacet
  facet normal -9.350163e-001  3.546048e-001  0.000000e+000
    outer loop
      vertex  5.825651e+000 -1.435894e+000  9.000000e+000
      vertex  5.825651e+000 -1.435894e+000 -9.000000e+000
      vertex  5.312736e+000 -2.788339e+000  9.000000e+000
    endloop
  endfacet
  facet normal -9.350163e-001  3.546048e-001  0.000000e+000
    outer loop
      vertex  5.312736e+000 -2.788339e+000  9.000000e+000
      vertex  5.825651e+000 -1.435894e+000 -9.000000e+000
      vertex  5.312736e+000 -2.788339e+000 -9.000000e+000
    endloop
  endfacet
  facet normal -8.229839e-001  5.680646e-001  0.000000e+000
    outer loop
      vertex  5.312736e+000 -2.788339e+000  9.000000e+000
      vertex  5.312736e+000 -2.788339e+000 -9.000000e+000
      vertex  4.491065e+000 -3.978736e+000  9.000000e+000
    endloop
  endfacet
  facet normal -8.229839e-001  5.680646e-001  0.000000e+000
    outer loop
      vertex  4.491065e+000 -3.978736e+000  9.000000e+000
      vertex  5.312736e+000 -2.788339e+000 -9.000000e+000
      vertex  4.491065e+000 -3.978736e+000 -9.000000e+000
    endloop
  endfacet
  facet normal -6.631227e-001  7.485107e-001  0.000000e+000
    outer loop
      vertex  4.491065e+000 -3.978736e+000  9.000000e+000
      vertex  4.491065e+000 -3.978736e+000 -9.000000e+000
      vertex  3.408388e+000 -4.937903e+000  9.000000e+000
    endloop
  endfacet
  facet normal -6.631227e-001  7.485107e-001  0.000000e+000
    outer loop
      vertex  3.408388e+000 -4.937903e+000  9.000000e+000
      vertex  4.491065e+000 -3.978736e+000 -9.000000e+000
      vertex  3.408388e+000 -4.937903e+000 -9.000000e+000
    endloop
  endfacet
  facet normal -4.647231e-001  8.854561e-001  0.000000e+000
    outer loop
      vertex  3.408388e+000 -4.937903e+000  9.000000e+000
      vertex  3.408388e+000 -4.937903e+000 -9.000000e+000
      vertex  2.127629e+000 -5.610097e+000  9.000000e+000
    endloop
  endfacet
  facet normal -4.647231e-001  8.854561e-001  0.000000e+000
    outer loop
      vertex  2.127629e+000 -5.610097e+000  9.000000e+000
      vertex  3.408388e+000 -4.937903e+000 -9.000000e+000
      vertex  2.127629e+000 -5.610097e+000 -9.000000e+000
    endloop
  endfacet
  facet normal -2.393156e-001  9.709418e-001  0.000000e+000
    outer loop
      vertex  2.127629e+000 -5.610097e+000  9.000000e+000
      vertex  2.127629e+000 -5.610097e+000 -9.000000e+000
      vertex  7.232201e-001 -5.956253e+000  9.000000e+000
    endloop
  endfacet
  facet normal -2.393156e-001  9.709418e-001  0.000000e+000
    outer loop
      vertex  7.232201e-001 -5.956253e+000  9.000000e+000
      vertex  2.127629e+000 -5.610097e+000 -9.000000e+000
      vertex  7.232201e-001 -5.956253e+000 -9.000000e+000
    endloop
  endfacet
  facet normal  0.000000e+000  9.999999e-001  -0.000000e+000
    outer loop
      vertex  7.232201e-001 -5.956253e+000  9.000000e+000
      vertex  7.232201e-001 -5.956253e+000 -9.000000e+000
      vertex -7.232201e-001 -5.956253e+000  9.000000e+000
    endloop
  endfacet
  facet normal  0.000000e+000  9.999999e-001  0.000000e+000
    outer loop
      vertex -7.232201e-001 -5.956253e+000  9.000000e+000
      vertex  7.232201e-001 -5.956253e+000 -9.000000e+000
      vertex -7.232201e-001 -5.956253e+000 -9.000000e+000
    endloop
  endfacet
  facet normal  2.393156e-001  9.709418e-001  -0.000000e+000
    outer loop
      vertex -7.232201e-001 -5.956253e+000  9.000000e+000
      vertex -7.232201e-001 -5.956253e+000 -9.000000e+000
      vertex -2.127629e+000 -5.610097e+000  9.000000e+000
    endloop
  endfacet
  facet normal  2.393156e-001  9.709418e-001  0.000000e+000
    outer loop
      vertex -2.127629e+000 -5.610097e+000  9.000000e+000
      vertex -7.232201e-001 -5.956253e+000 -9.000000e+000
      vertex -2.127629e+000 -5.610097e+000 -9.000000e+000
    endloop
  endfacet
  facet normal  4.647231e-001  8.854561e-001  -0.000000e+000
    outer loop
      vertex -2.127629e+000 -5.610097e+000  9.000000e+000
      vertex -2.127629e+000 -5.610097e+000 -9.000000e+000
      vertex -3.408388e+000 -4.937903e+000  9.000000e+000
    endloop
  endfacet
  facet normal  4.647231e-001  8.854561e-001  0.000000e+000
    outer loop
      vertex -3.408388e+000 -4.937903e+000  9.000000e+000
      vertex -2.127629e+000 -5.610097e+000 -9.000000e+000
      vertex -3.408388e+000 -4.937903e+000 -9.000000e+000
    endloop
  endfacet
  facet normal  6.631227e-001  7.485107e-001  -0.000000e+000
    outer loop
      vertex -3.408388e+000 -4.937903e+000  9.000000e+000
      vertex -3.408388e+000 -4.937903e+000 -9.000000e+000
      vertex -4.491065e+000 -3.978736e+000  9.000000e+000
    endloop
  endfacet
  facet normal  6.631227e-001  7.485107e-001  0.000000e+000
    outer loop
      vertex -4.491065e+000 -3.978736e+000  9.000000e+000
      vertex -3.408388e+000 -4.937903e+000 -9.000000e+000
      vertex -4.491065e+000 -3.978736e+000 -9.000000e+000
    endloop
  endfacet
  facet normal  8.229839e-001  5.680646e-001  -0.000000e+000
    outer loop
      vertex -4.491065e+000 -3.978736e+000  9.000000e+000
      vertex -4.491065e+000 -3.978736e+000 -9.000000e+000
      vertex -5.312736e+000 -2.788339e+000  9.000000e+000
    endloop
  endfacet
  facet normal  8.229839e-001  5.680646e-001  0.000000e+000
    outer loop
      vertex -5.312736e+000 -2.788339e+000  9.000000e+000
      vertex -4.491065e+000 -3.978736e+000 -9.000000e+000
      vertex -5.312736e+000 -2.788339e+000 -9.000000e+000
    endloop
  endfacet
  facet normal  9.350163e-001  3.546048e-001  -0.000000e+000
    outer loop
      vertex -5.312736e+000 -2.788339e+000  9.000000e+000
      vertex -5.312736e+000 -2.788339e+000 -9.000000e+000
      vertex -5.825651e+000 -1.435894e+000  9.000000e+000
    endloop
  endfacet
  facet normal  9.350163e-001  3.546048e-001  0.000000e+000
    outer loop
      vertex -5.825651e+000 -1.435894e+000  9.000000e+000
      vertex -5.312736e+000 -2.788339e+000 -9.000000e+000
      vertex -5.825651e+000 -1.435894e+000 -9.000000e+000
    endloop
  endfacet
  facet normal  9.927089e-001  1.205368e-001  -0.000000e+000
    outer loop
      vertex -5.825651e+000 -1.435894e+000  9.000000e+000
      vertex -5.825651e+000 -1.435894e+000 -9.000000e+000
      vertex -6.000000e+000  7.347638e-016  9.000000e+000
    endloop
  endfacet
  facet normal  9.927089e-001  1.205368e-001  0.000000e+000
    outer loop
      vertex -6.000000e+000  7.347638e-016  9.000000e+000
      vertex -5.825651e+000 -1.435894e+000 -9.000000e+000
      vertex -6.000000e+000  7.347638e-016 -9.000000e+000
    endloop
  endfacet
  facet normal  9.927089e-001 -1.205366e-001  0.000000e+000
    outer loop
      vertex  6.750000e+000  0.000000e+000 -9.000000e+000
      vertex  6.750000e+000  0.000000e+000  9.000000e+000
      vertex  6.553857e+000 -1.615381e+000 -9.000000e+000
    endloop
  endfacet
  facet normal  9.927089e-001 -1.205366e-001  0.000000e+000
    outer loop
      vertex  6.553857e+000 -1.615381e+000 -9.000000e+000
      vertex  6.750000e+000  0.000000e+000  9.000000e+000
      vertex  6.553857e+000 -1.615381e+000  9.000000e+000
    endloop
  endfacet
  facet normal  9.350162e-001 -3.546050e-001  0.000000e+000
    outer loop
      vertex  6.553857e+000 -1.615381e+000 -9.000000e+000
      vertex  6.553857e+000 -1.615381e+000  9.000000e+000
      vertex  5.976828e+000 -3.136881e+000 -9.000000e+000
    endloop
  endfacet
  facet normal  9.350162e-001 -3.546050e-001  0.000000e+000
    outer loop
      vertex  5.976828e+000 -3.136881e+000 -9.000000e+000
      vertex  6.553857e+000 -1.615381e+000  9.000000e+000
      vertex  5.976828e+000 -3.136881e+000  9.000000e+000
    endloop
  endfacet
  facet normal  8.229839e-001 -5.680648e-001  0.000000e+000
    outer loop
      vertex  5.976828e+000 -3.136881e+000 -9.000000e+000
      vertex  5.976828e+000 -3.136881e+000  9.000000e+000
      vertex  5.052447e+000 -4.476078e+000 -9.000000e+000
    endloop
  endfacet
  facet normal  8.229839e-001 -5.680648e-001  0.000000e+000
    outer loop
      vertex  5.052447e+000 -4.476078e+000 -9.000000e+000
      vertex  5.976828e+000 -3.136881e+000  9.000000e+000
      vertex  5.052447e+000 -4.476078e+000  9.000000e+000
    endloop
  endfacet
  facet normal  6.631227e-001 -7.485107e-001  0.000000e+000
    outer loop
      vertex  5.052447e+000 -4.476078e+000 -9.000000e+000
      vertex  5.052447e+000 -4.476078e+000  9.000000e+000
      vertex  3.834437e+000 -5.555141e+000 -9.000000e+000
    endloop
  endfacet
  facet normal  6.631227e-001 -7.485107e-001  0.000000e+000
    outer loop
      vertex  3.834437e+000 -5.555141e+000 -9.000000e+000
      vertex  5.052447e+000 -4.476078e+000  9.000000e+000
      vertex  3.834437e+000 -5.555141e+000  9.000000e+000
    endloop
  endfacet
  facet normal  4.647231e-001 -8.854560e-001  0.000000e+000
    outer loop
      vertex  3.834437e+000 -5.555141e+000 -9.000000e+000
      vertex  3.834437e+000 -5.555141e+000  9.000000e+000
      vertex  2.393583e+000 -6.311359e+000 -9.000000e+000
    endloop
  endfacet
  facet normal  4.647231e-001 -8.854560e-001  0.000000e+000
    outer loop
      vertex  2.393583e+000 -6.311359e+000 -9.000000e+000
      vertex  3.834437e+000 -5.555141e+000  9.000000e+000
      vertex  2.393583e+000 -6.311359e+000  9.000000e+000
    endloop
  endfacet
  facet normal  2.393157e-001 -9.709418e-001  0.000000e+000
    outer loop
      vertex  2.393583e+000 -6.311359e+000 -9.000000e+000
      vertex  2.393583e+000 -6.311359e+000  9.000000e+000
      vertex  8.136226e-001 -6.700785e+000 -9.000000e+000
    endloop
  endfacet
  facet normal  2.393157e-001 -9.709418e-001  0.000000e+000
    outer loop
      vertex  8.136226e-001 -6.700785e+000 -9.000000e+000
      vertex  2.393583e+000 -6.311359e+000  9.000000e+000
      vertex  8.136226e-001 -6.700785e+000  9.000000e+000
    endloop
  endfacet
  facet normal  0.000000e+000 -9.999999e-001  -0.000000e+000
    outer loop
      vertex  8.136226e-001 -6.700785e+000 -9.000000e+000
      vertex  8.136226e-001 -6.700785e+000  9.000000e+000
      vertex -8.136226e-001 -6.700785e+000 -9.000000e+000
    endloop
  endfacet
  facet normal  0.000000e+000 -9.999999e-001  0.000000e+000
    outer loop
      vertex -8.136226e-001 -6.700785e+000 -9.000000e+000
      vertex  8.136226e-001 -6.700785e+000  9.000000e+000
      vertex -8.136226e-001 -6.700785e+000  9.000000e+000
    endloop
  endfacet
  facet normal -2.393157e-001 -9.709418e-001  -0.000000e+000
    outer loop
      vertex -8.136226e-001 -6.700785e+000 -9.000000e+000
      vertex -8.136226e-001 -6.700785e+000  9.000000e+000
      vertex -2.393583e+000 -6.311359e+000 -9.000000e+000
    endloop
  endfacet
  facet normal -2.393157e-001 -9.709418e-001  0.000000e+000
    outer loop
      vertex -2.393583e+000 -6.311359e+000 -9.000000e+000
      vertex -8.136226e-001 -6.700785e+000  9.000000e+000
      vertex -2.393583e+000 -6.311359e+000  9.000000e+000
    endloop
  endfacet
  facet normal -4.647231e-001 -8.854560e-001  -0.000000e+000
    outer loop
      vertex -2.393583e+000 -6.311359e+000 -9.000000e+000
      vertex -2.393583e+000 -6.311359e+000  9.000000e+000
      vertex -3.834437e+000 -5.555141e+000 -9.000000e+000
    endloop
  endfacet
  facet normal -4.647231e-001 -8.854560e-001  0.000000e+000
    outer loop
      vertex -3.834437e+000 -5.555141e+000 -9.000000e+000
      vertex -2.393583e+000 -6.311359e+000  9.000000e+000
      vertex -3.834437e+000 -5.555141e+000  9.000000e+000
    endloop
  endfacet
  facet normal -6.631227e-001 -7.485107e-001  -0.000000e+000
    outer loop
      vertex -3.834437e+000 -5.555141e+000 -9.000000e+000
      vertex -3.834437e+000 -5.555141e+000  9.000000e+000
      vertex -5.052447e+000 -4.476078e+000 -9.000000e+000
    endloop
  endfacet
  facet normal -6.631227e-001 -7.485107e-001  0.000000e+000
    outer loop
      vertex -5.052447e+000 -4.476078e+000 -9.000000e+000
      vertex -3.834437e+000 -5.555141e+000  9.000000e+000
      vertex -5.052447e+000 -4.476078e+000  9.000000e+000
    endloop
  endfacet
  facet normal -8.229839e-001 -5.680648e-001  -0.000000e+000
    outer loop
      vertex -5.052447e+000 -4.476078e+000 -9.000000e+000
      vertex -5.052447e+000 -4.476078e+000  9.000000e+000
      vertex -5.976828e+000 -3.136881e+000 -9.000000e+000
    endloop
  endfacet
  facet normal -8.229839e-001 -5.680648e-001  0.000000e+000
    outer loop
      vertex -5.976828e+000 -3.136881e+000 -9.000000e+000
      vertex -5.052447e+000 -4.476078e+000  9.000000e+000
      vertex -5.976828e+000 -3.136881e+000  9.000000e+000
    endloop
  endfacet
  facet normal -9.350162e-001 -3.546050e-001  -0.000000e+000
    outer loop
      vertex -5.976828e+000 -3.136881e+000 -9.000000e+000
      vertex -5.976828e+000 -3.136881e+000  9.000000e+000
      vertex -6.553857e+000 -1.615381e+000 -9.000000e+000
    endloop
  endfacet
  facet normal -9.350162e-001 -3.546050e-001  0.000000e+000
    outer loop
      vertex -6.553857e+000 -1.615381e+000 -9.000000e+000
      vertex -5.976828e+000 -3.136881e+000  9.000000e+000
      vertex -6.553857e+000 -1.615381e+000  9.000000e+000
    endloop
  endfacet
  facet normal -9.927089e-001 -1.205366e-001  -0.000000e+000
    outer loop
      vertex -6.553857e+000 -1.615381e+000 -9.000000e+000
      vertex -6.553857e+000 -1.615381e+000  9.000000e+000
      vertex -6.750000e+000  8.266093e-016 -9.000000e+000
    endloop
  endfacet
  facet normal -9.927089e-001 -1.205366e-001  0.000000e+000
    outer loop
      vertex -6.750000e+000  8.266093e-016 -9.000000e+000
      vertex -6.553857e+000 -1.615381e+000  9.000000e+000
      vertex -6.750000e+000  8.266093e-016  9.000000e+000
    endloop
  endfacet
  facet normal -9.927089e-001  1.205366e-001  0.000000e+000
    outer loop
      vertex -6.750000e+000  8.266093e-016 -9.000000e+000
      vertex -6.750000e+000  8.266093e-016  9.000000e+000
      vertex -6.553857e+000  1.615381e+000 -9.000000e+000
    endloop
  endfacet
  facet normal -9.927089e-001  1.205366e-001  0.000000e+000
    outer loop
      vertex -6.553857e+000  1.615381e+000 -9.000000e+000
      vertex -6.750000e+000  8.266093e-016  9.000000e+000
      vertex -6.553857e+000  1.615381e+000  9.000000e+000
    endloop
  endfacet
  facet normal -9.350162e-001  3.546050e-001  0.000000e+000
    outer loop
      vertex -6.553857e+000  1.615381e+000 -9.000000e+000
      vertex -6.553857e+000  1.615381e+000  9.000000e+000
      vertex -5.976828e+000  3.136881e+000 -9.000000e+000
    endloop
  endfacet
  facet normal -9.350162e-001  3.546050e-001  0.000000e+000
    outer loop
      vertex -5.976828e+000  3.136881e+000 -9.000000e+000
      vertex -6.553857e+000  1.615381e+000  9.000000e+000
      vertex -5.976828e+000  3.136881e+000  9.000000e+000
    endloop
  endfacet
  facet normal -8.229839e-001  5.680648e-001  0.000000e+000
    outer loop
      vertex -5.976828e+000  3.136881e+000 -9.000000e+000
      vertex -5.976828e+000  3.136881e+000  9.000000e+000
      vertex -5.052447e+000  4.476078e+000 -9.000000e+000
    endloop
  endfacet
  facet normal -8.229839e-001  5.680648e-001  0.000000e+000
    outer loop
      vertex -5.052447e+000  4.476078e+000 -9.000000e+000
      vertex -5.976828e+000  3.136881e+000  9.000000e+000
      vertex -5.052447e+000  4.476078e+000  9.000000e+000
    endloop
  endfacet
  facet normal -6.631227e-001  7.485107e-001  0.000000e+000
    outer loop
      vertex -5.052447e+000  4.476078e+000 -9.000000e+000
      vertex -5.052447e+000  4.476078e+000  9.000000e+000
      vertex -3.834437e+000  5.555141e+000 -9.000000e+000
    endloop
  endfacet
  facet normal -6.631227e-001  7.485107e-001  0.000000e+000
    outer loop
      vertex -3.834437e+000  5.555141e+000 -9.000000e+000
      vertex -5.052447e+000  4.476078e+000  9.000000e+000
      vertex -3.834437e+000  5.555141e+000  9.000000e+000
    endloop
  endfacet
  facet normal -4.647231e-001  8.854560e-001  0.000000e+000
    outer loop
      vertex -3.834437e+000  5.555141e+000 -9.000000e+000
      vertex -3.834437e+000  5.555141e+000  9.000000e+000
      vertex -2.393583e+000  6.311359e+000 -9.000000e+000
    endloop
  endfacet
  facet normal -4.647231e-001  8.854560e-001  0.000000e+000
    outer loop
      vertex -2.393583e+000  6.311359e+000 -9.000000e+000
      vertex -3.834437e+000  5.555141e+000  9.000000e+000
      vertex -2.393583e+000  6.311359e+000  9.000000e+000
    endloop
  endfacet
  facet normal -2.393157e-001  9.709418e-001  0.000000e+000
    outer loop
      vertex -2.393583e+000  6.311359e+000 -9.000000e+000
      vertex -2.393583e+000  6.311359e+000  9.000000e+000
      vertex -8.136226e-001  6.700785e+000 -9.000000e+000
    endloop
  endfacet
  facet normal -2.393157e-001  9.709418e-001  0.000000e+000
    outer loop
      vertex -8.136226e-001  6.700785e+000 -9.000000e+000
      vertex -2.393583e+000  6.311359e+000  9.000000e+000
      vertex -8.136226e-001  6.700785e+000  9.000000e+000
    endloop
  endfacet
  facet normal  0.000000e+000  9.999999e-001  0.000000e+000
    outer loop
      vertex -8.136226e-001  6.700785e+000 -9.000000e+000
      vertex -8.136226e-001  6.700785e+000  9.000000e+000
      vertex  8.136226e-001  6.700785e+000 -9.000000e+000
    endloop
  endfacet
  facet normal  0.000000e+000  9.999999e-001  -0.000000e+000
    outer loop
      vertex  8.136226e-001  6.700785e+000 -9.000000e+000
      vertex -8.136226e-001  6.700785e+000  9.000000e+000
      vertex  8.136226e-001  6.700785e+000  9.000000e+000
    endloop
  endfacet
  facet normal  2.393157e-001  9.709418e-001  0.000000e+000
    outer loop
      vertex  8.136226e-001  6.700785e+000 -9.000000e+000
      vertex  8.136226e-001  6.700785e+000  9.000000e+000
      vertex  2.393583e+000  6.311359e+000 -9.000000e+000
    endloop
  endfacet
  facet normal  2.393157e-001  9.709418e-001  -0.000000e+000
    outer loop
      vertex  2.393583e+000  6.311359e+000 -9.000000e+000
      vertex  8.136226e-001  6.700785e+000  9.000000e+000
      vertex  2.393583e+000  6.311359e+000  9.000000e+000
    endloop
  endfacet
  facet normal  4.647231e-001  8.854560e-001  0.000000e+000
    outer loop
      vertex  2.393583e+000  6.311359e+000 -9.000000e+000
      vertex  2.393583e+000  6.311359e+000  9.000000e+000
      vertex  3.834437e+000  5.555141e+000 -9.000000e+000
    endloop
  endfacet
  facet normal  4.647231e-001  8.854560e-001  -0.000000e+000
    outer loop
      vertex  3.834437e+000  5.555141e+000 -9.000000e+000
      vertex  2.393583e+000  6.311359e+000  9.000000e+000
      vertex  3.834437e+000  5.555141e+000  9.000000e+000
    endloop
  endfacet
  facet normal  6.631227e-001  7.485107e-001  0.000000e+000
    outer loop
      vertex  3.834437e+000  5.555141e+000 -9.000000e+000
      vertex  3.834437e+000  5.555141e+000  9.000000e+000
      vertex  5.052447e+000  4.476078e+000 -9.000000e+000
    endloop
  endfacet
  facet normal  6.631227e-001  7.485107e-001  -0.000000e+000
    outer loop
      vertex  5.052447e+000  4.476078e+000 -9.000000e+000
      vertex  3.834437e+000  5.555141e+000  9.000000e+000
      vertex  5.052447e+000  4.476078e+000  9.000000e+000
    endloop
  endfacet
  facet normal  8.229839e-001  5.680648e-001  0.000000e+000
    outer loop
      vertex  5.052447e+000  4.476078e+000 -9.000000e+000
      vertex  5.052447e+000  4.476078e+000  9.000000e+000
      vertex  5.976828e+000  3.136881e+000 -9.000000e+000
    endloop
  endfacet
  facet normal  8.229839e-001  5.680648e-001  -0.000000e+000
    outer loop
      vertex  5.976828e+000  3.136881e+000 -9.000000e+000
      vertex  5.052447e+000  4.476078e+000  9.000000e+000
      vertex  5.976828e+000  3.136881e+000  9.000000e+000
    endloop
  endfacet
  facet normal  9.350162e-001  3.546050e-001  0.000000e+000
    outer loop
      vertex  5.976828e+000  3.136881e+000 -9.000000e+000
      vertex  5.976828e+000  3.136881e+000  9.000000e+000
      vertex  6.553857e+000  1.615381e+000 -9.000000e+000
    endloop
  endfacet
  facet normal  9.350162e-001  3.546050e-001  -0.000000e+000
    outer loop
      vertex  6.553857e+000  1.615381e+000 -9.000000e+000
      vertex  5.976828e+000  3.136881e+000  9.000000e+000
      vertex  6.553857e+000  1.615381e+000  9.000000e+000
    endloop
  endfacet
  facet normal  9.927089e-001  1.205366e-001  0.000000e+000
    outer loop
      vertex  6.553857e+000  1.615381e+000 -9.000000e+000
      vertex  6.553857e+000  1.615381e+000  9.000000e+000
      vertex  6.750000e+000  0.000000e+000 -9.000000e+000
    endloop
  endfacet
  facet normal  9.927089e-001  1.205366e-001  -0.000000e+000
    outer loop
      vertex  6.750000e+000  0.000000e+000 -9.000000e+000
      vertex  6.553857e+000  1.615381e+000  9.000000e+000
      vertex  6.750000e+000  0.000000e+000  9.000000e+000
    endloop
  endfacet
endsolid CATIA STL
