solid CATIA STL
  facet normal  0.000000e+000  0.000000e+000 -1.000000e+000
    outer loop
      vertex -4.307876e-013 -3.000000e-001 -5.000000e+000
      vertex -2.121320e-001 -2.121320e-001 -5.000000e+000
      vertex  2.121320e-001 -2.121320e-001 -5.000000e+000
    endloop
  endfacet
  facet normal  0.000000e+000  0.000000e+000 -1.000000e+000
    outer loop
      vertex  2.121320e-001 -2.121320e-001 -5.000000e+000
      vertex -2.121320e-001 -2.121320e-001 -5.000000e+000
      vertex -3.000000e-001 -5.704871e-007 -5.000000e+000
    endloop
  endfacet
  facet normal  0.000000e+000  0.000000e+000 -1.000000e+000
    outer loop
      vertex  2.121320e-001 -2.121320e-001 -5.000000e+000
      vertex -3.000000e-001 -5.704871e-007 -5.000000e+000
      vertex  3.000000e-001  5.315952e-016 -5.000000e+000
    endloop
  endfacet
  facet normal  -0.000000e+000  0.000000e+000 -1.000000e+000
    outer loop
      vertex  3.000000e-001  5.315952e-016 -5.000000e+000
      vertex -3.000000e-001 -5.704871e-007 -5.000000e+000
      vertex -2.427054e-001  1.763352e-001 -5.000000e+000
    endloop
  endfacet
  facet normal  0.000000e+000  0.000000e+000 -1.000000e+000
    outer loop
      vertex  3.000000e-001  5.315952e-016 -5.000000e+000
      vertex -2.427054e-001  1.763352e-001 -5.000000e+000
      vertex  2.427050e-001  1.763357e-001 -5.000000e+000
    endloop
  endfacet
  facet normal  -0.000000e+000  0.000000e+000 -9.999999e-001
    outer loop
      vertex  2.427050e-001  1.763357e-001 -5.000000e+000
      vertex -2.427054e-001  1.763352e-001 -5.000000e+000
      vertex -9.270542e-002  2.853169e-001 -5.000000e+000
    endloop
  endfacet
  facet normal  0.000000e+000  0.000000e+000 -1.000000e+000
    outer loop
      vertex  2.427050e-001  1.763357e-001 -5.000000e+000
      vertex -9.270542e-002  2.853169e-001 -5.000000e+000
      vertex  9.270488e-002  2.853170e-001 -5.000000e+000
    endloop
  endfacet
  facet normal -9.807853e-001  1.950903e-001  1.250846e-017
    outer loop
      vertex -9.500000e+000  5.382224e-015  4.200000e+000
      vertex -9.500000e+000  1.163376e-015  7.000000e+001
      vertex -8.776855e+000  3.635493e+000  4.200000e+000
    endloop
  endfacet
  facet normal -9.807853e-001  1.950903e-001  0.000000e+000
    outer loop
      vertex -8.776855e+000  3.635493e+000  4.200000e+000
      vertex -9.500000e+000  1.163376e-015  7.000000e+001
      vertex -8.776855e+000  3.635493e+000  7.000000e+001
    endloop
  endfacet
  facet normal -8.314697e-001  5.555702e-001  0.000000e+000
    outer loop
      vertex -8.776855e+000  3.635493e+000  4.200000e+000
      vertex -8.776855e+000  3.635493e+000  7.000000e+001
      vertex -6.717515e+000  6.717515e+000  4.200000e+000
    endloop
  endfacet
  facet normal -8.314697e-001  5.555702e-001  0.000000e+000
    outer loop
      vertex -6.717515e+000  6.717515e+000  4.200000e+000
      vertex -8.776855e+000  3.635493e+000  7.000000e+001
      vertex -6.717515e+000  6.717515e+000  7.000000e+001
    endloop
  endfacet
  facet normal -5.555702e-001  8.314697e-001  0.000000e+000
    outer loop
      vertex -6.717515e+000  6.717515e+000  4.200000e+000
      vertex -6.717515e+000  6.717515e+000  7.000000e+001
      vertex -3.635493e+000  8.776855e+000  4.200000e+000
    endloop
  endfacet
  facet normal -5.555702e-001  8.314697e-001  0.000000e+000
    outer loop
      vertex -3.635493e+000  8.776855e+000  4.200000e+000
      vertex -6.717515e+000  6.717515e+000  7.000000e+001
      vertex -3.635493e+000  8.776855e+000  7.000000e+001
    endloop
  endfacet
  facet normal -1.950903e-001  9.807853e-001  0.000000e+000
    outer loop
      vertex -3.635493e+000  8.776855e+000  4.200000e+000
      vertex -3.635493e+000  8.776855e+000  7.000000e+001
      vertex  4.800536e-015  9.500000e+000  4.200000e+000
    endloop
  endfacet
  facet normal -1.950903e-001  9.807853e-001 -1.250846e-017
    outer loop
      vertex  4.800536e-015  9.500000e+000  4.200000e+000
      vertex -3.635493e+000  8.776855e+000  7.000000e+001
      vertex  5.816880e-016  9.500000e+000  7.000000e+001
    endloop
  endfacet
  facet normal  1.950903e-001  9.807853e-001  1.250846e-017
    outer loop
      vertex  4.800536e-015  9.500000e+000  4.200000e+000
      vertex  5.816880e-016  9.500000e+000  7.000000e+001
      vertex  3.635493e+000  8.776855e+000  4.200000e+000
    endloop
  endfacet
  facet normal  1.950903e-001  9.807853e-001  -0.000000e+000
    outer loop
      vertex  3.635493e+000  8.776855e+000  4.200000e+000
      vertex  5.816880e-016  9.500000e+000  7.000000e+001
      vertex  3.635493e+000  8.776855e+000  7.000000e+001
    endloop
  endfacet
  facet normal  5.555702e-001  8.314697e-001  0.000000e+000
    outer loop
      vertex  3.635493e+000  8.776855e+000  4.200000e+000
      vertex  3.635493e+000  8.776855e+000  7.000000e+001
      vertex  6.717515e+000  6.717515e+000  4.200000e+000
    endloop
  endfacet
  facet normal  5.555702e-001  8.314697e-001  -0.000000e+000
    outer loop
      vertex  6.717515e+000  6.717515e+000  4.200000e+000
      vertex  3.635493e+000  8.776855e+000  7.000000e+001
      vertex  6.717515e+000  6.717515e+000  7.000000e+001
    endloop
  endfacet
  facet normal  8.314697e-001  5.555702e-001  0.000000e+000
    outer loop
      vertex  6.717515e+000  6.717515e+000  4.200000e+000
      vertex  6.717515e+000  6.717515e+000  7.000000e+001
      vertex  8.776855e+000  3.635493e+000  4.200000e+000
    endloop
  endfacet
  facet normal  8.314697e-001  5.555702e-001  -0.000000e+000
    outer loop
      vertex  8.776855e+000  3.635493e+000  4.200000e+000
      vertex  6.717515e+000  6.717515e+000  7.000000e+001
      vertex  8.776855e+000  3.635493e+000  7.000000e+001
    endloop
  endfacet
  facet normal  9.807853e-001  1.950903e-001  0.000000e+000
    outer loop
      vertex  8.776855e+000  3.635493e+000  4.200000e+000
      vertex  8.776855e+000  3.635493e+000  7.000000e+001
      vertex  9.500000e+000 -2.326752e-015  4.200000e+000
    endloop
  endfacet
  facet normal  9.807853e-001  1.950903e-001 -6.898584e-018
    outer loop
      vertex  9.500000e+000 -2.326752e-015  4.200000e+000
      vertex  8.776855e+000  3.635493e+000  7.000000e+001
      vertex  9.500000e+000  0.000000e+000  7.000000e+001
    endloop
  endfacet
  facet normal  9.807853e-001 -1.950903e-001  6.898584e-018
    outer loop
      vertex  9.500000e+000 -2.326752e-015  4.200000e+000
      vertex  9.500000e+000  0.000000e+000  7.000000e+001
      vertex  8.776855e+000 -3.635493e+000  4.200000e+000
    endloop
  endfacet
  facet normal  9.807853e-001 -1.950903e-001  0.000000e+000
    outer loop
      vertex  8.776855e+000 -3.635493e+000  4.200000e+000
      vertex  9.500000e+000  0.000000e+000  7.000000e+001
      vertex  8.776855e+000 -3.635493e+000  7.000000e+001
    endloop
  endfacet
  facet normal  8.314697e-001 -5.555702e-001  0.000000e+000
    outer loop
      vertex  8.776855e+000 -3.635493e+000  4.200000e+000
      vertex  8.776855e+000 -3.635493e+000  7.000000e+001
      vertex  6.717515e+000 -6.717515e+000  4.200000e+000
    endloop
  endfacet
  facet normal  8.314697e-001 -5.555702e-001  0.000000e+000
    outer loop
      vertex  6.717515e+000 -6.717515e+000  4.200000e+000
      vertex  8.776855e+000 -3.635493e+000  7.000000e+001
      vertex  6.717515e+000 -6.717515e+000  7.000000e+001
    endloop
  endfacet
  facet normal  5.555702e-001 -8.314697e-001  0.000000e+000
    outer loop
      vertex  6.717515e+000 -6.717515e+000  4.200000e+000
      vertex  6.717515e+000 -6.717515e+000  7.000000e+001
      vertex  3.635493e+000 -8.776855e+000  4.200000e+000
    endloop
  endfacet
  facet normal  5.555702e-001 -8.314697e-001  0.000000e+000
    outer loop
      vertex  3.635493e+000 -8.776855e+000  4.200000e+000
      vertex  6.717515e+000 -6.717515e+000  7.000000e+001
      vertex  3.635493e+000 -8.776855e+000  7.000000e+001
    endloop
  endfacet
  facet normal  1.950903e-001 -9.807853e-001  0.000000e+000
    outer loop
      vertex  3.635493e+000 -8.776855e+000  4.200000e+000
      vertex  3.635493e+000 -8.776855e+000  7.000000e+001
      vertex -1.745064e-015 -9.500000e+000  4.200000e+000
    endloop
  endfacet
  facet normal  1.950903e-001 -9.807853e-001  2.501691e-017
    outer loop
      vertex -1.745064e-015 -9.500000e+000  4.200000e+000
      vertex  3.635493e+000 -8.776855e+000  7.000000e+001
      vertex -1.018276e-014 -9.500000e+000  7.000000e+001
    endloop
  endfacet
  facet normal -1.950903e-001 -9.807853e-001 -2.501691e-017
    outer loop
      vertex -1.745064e-015 -9.500000e+000  4.200000e+000
      vertex -1.018276e-014 -9.500000e+000  7.000000e+001
      vertex -3.635493e+000 -8.776855e+000  4.200000e+000
    endloop
  endfacet
  facet normal -1.950903e-001 -9.807853e-001  0.000000e+000
    outer loop
      vertex -3.635493e+000 -8.776855e+000  4.200000e+000
      vertex -1.018276e-014 -9.500000e+000  7.000000e+001
      vertex -3.635493e+000 -8.776855e+000  7.000000e+001
    endloop
  endfacet
  facet normal -5.555702e-001 -8.314697e-001  -0.000000e+000
    outer loop
      vertex -3.635493e+000 -8.776855e+000  4.200000e+000
      vertex -3.635493e+000 -8.776855e+000  7.000000e+001
      vertex -6.717515e+000 -6.717515e+000  4.200000e+000
    endloop
  endfacet
  facet normal -5.555702e-001 -8.314697e-001  0.000000e+000
    outer loop
      vertex -6.717515e+000 -6.717515e+000  4.200000e+000
      vertex -3.635493e+000 -8.776855e+000  7.000000e+001
      vertex -6.717515e+000 -6.717515e+000  7.000000e+001
    endloop
  endfacet
  facet normal -8.314697e-001 -5.555702e-001  -0.000000e+000
    outer loop
      vertex -6.717515e+000 -6.717515e+000  4.200000e+000
      vertex -6.717515e+000 -6.717515e+000  7.000000e+001
      vertex -8.776855e+000 -3.635493e+000  4.200000e+000
    endloop
  endfacet
  facet normal -8.314697e-001 -5.555702e-001  0.000000e+000
    outer loop
      vertex -8.776855e+000 -3.635493e+000  4.200000e+000
      vertex -6.717515e+000 -6.717515e+000  7.000000e+001
      vertex -8.776855e+000 -3.635493e+000  7.000000e+001
    endloop
  endfacet
  facet normal -9.807853e-001 -1.950903e-001  -0.000000e+000
    outer loop
      vertex -8.776855e+000 -3.635493e+000  4.200000e+000
      vertex -8.776855e+000 -3.635493e+000  7.000000e+001
      vertex -9.500000e+000  5.382224e-015  4.200000e+000
    endloop
  endfacet
  facet normal -9.807853e-001 -1.950903e-001 -1.250846e-017
    outer loop
      vertex -9.500000e+000  5.382224e-015  4.200000e+000
      vertex -8.776855e+000 -3.635493e+000  7.000000e+001
      vertex -9.500000e+000  1.163376e-015  7.000000e+001
    endloop
  endfacet
  facet normal -1.791221e-001 -7.419502e-002 -9.810251e-001
    outer loop
      vertex -3.000000e-001 -5.704871e-007 -5.000000e+000
      vertex -2.121320e-001 -2.121320e-001 -5.000000e+000
      vertex -3.529855e+000 -1.462114e+000 -4.299692e+000
    endloop
  endfacet
  facet normal  1.791222e-001 -7.419487e-002 -9.810252e-001
    outer loop
      vertex  3.000000e-001  5.315952e-016 -5.000000e+000
      vertex  3.529855e+000 -1.462114e+000 -4.299692e+000
      vertex  2.121320e-001 -2.121320e-001 -5.000000e+000
    endloop
  endfacet
  facet normal -7.419487e-002 -1.791222e-001 -9.810252e-001
    outer loop
      vertex -4.307876e-013 -3.000000e-001 -5.000000e+000
      vertex -1.462114e+000 -3.529855e+000 -4.299692e+000
      vertex -2.121320e-001 -2.121320e-001 -5.000000e+000
    endloop
  endfacet
  facet normal  7.419487e-002 -1.791222e-001 -9.810252e-001
    outer loop
      vertex  2.121320e-001 -2.121320e-001 -5.000000e+000
      vertex  1.462114e+000 -3.529855e+000 -4.299692e+000
      vertex -4.307876e-013 -3.000000e-001 -5.000000e+000
    endloop
  endfacet
  facet normal  9.626372e-001 -1.914805e-001 -1.914803e-001
    outer loop
      vertex  9.500000e+000 -2.326752e-015  4.200000e+000
      vertex  8.776855e+000 -3.635493e+000  4.200000e+000
      vertex  8.799692e+000 -3.058620e-011  6.793124e-001
    endloop
  endfacet
  facet normal  9.626372e-001 -1.914805e-001 -1.914804e-001
    outer loop
      vertex  8.799692e+000 -3.058620e-011  6.793124e-001
      vertex  8.776855e+000 -3.635493e+000  4.200000e+000
      vertex  8.129855e+000 -3.367496e+000  6.793124e-001
    endloop
  endfacet
  facet normal  8.203257e-001 -1.631730e-001 -5.481243e-001
    outer loop
      vertex  8.799692e+000 -3.058620e-011  6.793124e-001
      vertex  8.129855e+000 -3.367496e+000  6.793124e-001
      vertex  6.805382e+000 -2.340927e-011 -2.305382e+000
    endloop
  endfacet
  facet normal  8.203259e-001 -1.631729e-001 -5.481242e-001
    outer loop
      vertex  6.805382e+000 -2.340927e-011 -2.305382e+000
      vertex  8.129855e+000 -3.367496e+000  6.793124e-001
      vertex  6.287354e+000 -2.604307e+000 -2.305382e+000
    endloop
  endfacet
  facet normal  5.522085e-001 -1.098411e-001 -8.264385e-001
    outer loop
      vertex  6.805382e+000 -2.340927e-011 -2.305382e+000
      vertex  6.287354e+000 -2.604307e+000 -2.305382e+000
      vertex  3.820688e+000 -1.266875e-011 -4.299692e+000
    endloop
  endfacet
  facet normal  5.522085e-001 -1.098411e-001 -8.264385e-001
    outer loop
      vertex  3.820688e+000 -1.266875e-011 -4.299692e+000
      vertex  6.287354e+000 -2.604307e+000 -2.305382e+000
      vertex  3.529855e+000 -1.462114e+000 -4.299692e+000
    endloop
  endfacet
  facet normal  1.949436e-001 -3.877669e-002 -9.800476e-001
    outer loop
      vertex  3.820688e+000 -1.266875e-011 -4.299692e+000
      vertex  3.529855e+000 -1.462114e+000 -4.299692e+000
      vertex  3.000000e-001  5.315952e-016 -5.000000e+000
    endloop
  endfacet
  facet normal -9.626372e-001 -1.914805e-001 -1.914804e-001
    outer loop
      vertex -8.776855e+000 -3.635493e+000  4.200000e+000
      vertex -9.500000e+000  5.382224e-015  4.200000e+000
      vertex -8.129855e+000 -3.367496e+000  6.793124e-001
    endloop
  endfacet
  facet normal -9.626373e-001 -1.914815e-001 -1.914794e-001
    outer loop
      vertex -8.129855e+000 -3.367496e+000  6.793124e-001
      vertex -9.500000e+000  5.382224e-015  4.200000e+000
      vertex -8.799692e+000 -1.673373e-005  6.793124e-001
    endloop
  endfacet
  facet normal -8.203257e-001 -1.631738e-001 -5.481243e-001
    outer loop
      vertex -8.129855e+000 -3.367496e+000  6.793124e-001
      vertex -8.799692e+000 -1.673373e-005  6.793124e-001
      vertex -6.287354e+000 -2.604307e+000 -2.305382e+000
    endloop
  endfacet
  facet normal -8.203256e-001 -1.631736e-001 -5.481244e-001
    outer loop
      vertex -6.287354e+000 -2.604307e+000 -2.305382e+000
      vertex -8.799692e+000 -1.673373e-005  6.793124e-001
      vertex -6.805382e+000 -1.294130e-005 -2.305382e+000
    endloop
  endfacet
  facet normal -5.522084e-001 -1.098416e-001 -8.264385e-001
    outer loop
      vertex -6.287354e+000 -2.604307e+000 -2.305382e+000
      vertex -6.805382e+000 -1.294130e-005 -2.305382e+000
      vertex -3.529855e+000 -1.462114e+000 -4.299692e+000
    endloop
  endfacet
  facet normal -5.522084e-001 -1.098416e-001 -8.264386e-001
    outer loop
      vertex -3.529855e+000 -1.462114e+000 -4.299692e+000
      vertex -6.805382e+000 -1.294130e-005 -2.305382e+000
      vertex -3.820688e+000 -7.265523e-006 -4.299692e+000
    endloop
  endfacet
  facet normal -1.949435e-001 -3.877687e-002 -9.800476e-001
    outer loop
      vertex -3.529855e+000 -1.462114e+000 -4.299692e+000
      vertex -3.820688e+000 -7.265523e-006 -4.299692e+000
      vertex -3.000000e-001 -5.704871e-007 -5.000000e+000
    endloop
  endfacet
  facet normal -8.160844e-001 -5.452901e-001 -1.914805e-001
    outer loop
      vertex -6.717515e+000 -6.717515e+000  4.200000e+000
      vertex -8.776855e+000 -3.635493e+000  4.200000e+000
      vertex -6.222322e+000 -6.222322e+000  6.793124e-001
    endloop
  endfacet
  facet normal -8.160844e-001 -5.452903e-001 -1.914804e-001
    outer loop
      vertex -6.222322e+000 -6.222322e+000  6.793124e-001
      vertex -8.776855e+000 -3.635493e+000  4.200000e+000
      vertex -8.129855e+000 -3.367496e+000  6.793124e-001
    endloop
  endfacet
  facet normal -6.954386e-001 -4.646773e-001 -5.481241e-001
    outer loop
      vertex -6.222322e+000 -6.222322e+000  6.793124e-001
      vertex -8.129855e+000 -3.367496e+000  6.793124e-001
      vertex -4.812132e+000 -4.812132e+000 -2.305382e+000
    endloop
  endfacet
  facet normal -6.954386e-001 -4.646774e-001 -5.481242e-001
    outer loop
      vertex -4.812132e+000 -4.812132e+000 -2.305382e+000
      vertex -8.129855e+000 -3.367496e+000  6.793124e-001
      vertex -6.287354e+000 -2.604307e+000 -2.305382e+000
    endloop
  endfacet
  facet normal -4.681398e-001 -3.128011e-001 -8.264385e-001
    outer loop
      vertex -4.812132e+000 -4.812132e+000 -2.305382e+000
      vertex -6.287354e+000 -2.604307e+000 -2.305382e+000
      vertex -2.701634e+000 -2.701634e+000 -4.299692e+000
    endloop
  endfacet
  facet normal -4.681398e-001 -3.128010e-001 -8.264385e-001
    outer loop
      vertex -2.701634e+000 -2.701634e+000 -4.299692e+000
      vertex -6.287354e+000 -2.604307e+000 -2.305382e+000
      vertex -3.529855e+000 -1.462114e+000 -4.299692e+000
    endloop
  endfacet
  facet normal -1.652652e-001 -1.104267e-001 -9.800476e-001
    outer loop
      vertex -2.701634e+000 -2.701634e+000 -4.299692e+000
      vertex -3.529855e+000 -1.462114e+000 -4.299692e+000
      vertex -2.121320e-001 -2.121320e-001 -5.000000e+000
    endloop
  endfacet
  facet normal -5.452901e-001 -8.160844e-001 -1.914804e-001
    outer loop
      vertex -3.635493e+000 -8.776855e+000  4.200000e+000
      vertex -6.717515e+000 -6.717515e+000  4.200000e+000
      vertex -3.367496e+000 -8.129855e+000  6.793124e-001
    endloop
  endfacet
  facet normal -5.452902e-001 -8.160844e-001 -1.914806e-001
    outer loop
      vertex -3.367496e+000 -8.129855e+000  6.793124e-001
      vertex -6.717515e+000 -6.717515e+000  4.200000e+000
      vertex -6.222322e+000 -6.222322e+000  6.793124e-001
    endloop
  endfacet
  facet normal -4.646773e-001 -6.954386e-001 -5.481241e-001
    outer loop
      vertex -3.367496e+000 -8.129855e+000  6.793124e-001
      vertex -6.222322e+000 -6.222322e+000  6.793124e-001
      vertex -2.604307e+000 -6.287354e+000 -2.305382e+000
    endloop
  endfacet
  facet normal -4.646774e-001 -6.954386e-001 -5.481242e-001
    outer loop
      vertex -2.604307e+000 -6.287354e+000 -2.305382e+000
      vertex -6.222322e+000 -6.222322e+000  6.793124e-001
      vertex -4.812132e+000 -4.812132e+000 -2.305382e+000
    endloop
  endfacet
  facet normal -3.128011e-001 -4.681398e-001 -8.264385e-001
    outer loop
      vertex -2.604307e+000 -6.287354e+000 -2.305382e+000
      vertex -4.812132e+000 -4.812132e+000 -2.305382e+000
      vertex -1.462114e+000 -3.529855e+000 -4.299692e+000
    endloop
  endfacet
  facet normal -3.128010e-001 -4.681399e-001 -8.264385e-001
    outer loop
      vertex -1.462114e+000 -3.529855e+000 -4.299692e+000
      vertex -4.812132e+000 -4.812132e+000 -2.305382e+000
      vertex -2.701634e+000 -2.701634e+000 -4.299692e+000
    endloop
  endfacet
  facet normal -1.104267e-001 -1.652652e-001 -9.800476e-001
    outer loop
      vertex -1.462114e+000 -3.529855e+000 -4.299692e+000
      vertex -2.701634e+000 -2.701634e+000 -4.299692e+000
      vertex -2.121320e-001 -2.121320e-001 -5.000000e+000
    endloop
  endfacet
  facet normal -1.914805e-001 -9.626372e-001 -1.914803e-001
    outer loop
      vertex -1.745064e-015 -9.500000e+000  4.200000e+000
      vertex -3.635493e+000 -8.776855e+000  4.200000e+000
      vertex -2.682299e-013 -8.799692e+000  6.793124e-001
    endloop
  endfacet
  facet normal -1.914805e-001 -9.626372e-001 -1.914804e-001
    outer loop
      vertex -2.682299e-013 -8.799692e+000  6.793124e-001
      vertex -3.635493e+000 -8.776855e+000  4.200000e+000
      vertex -3.367496e+000 -8.129855e+000  6.793124e-001
    endloop
  endfacet
  facet normal -1.631730e-001 -8.203257e-001 -5.481243e-001
    outer loop
      vertex -2.682299e-013 -8.799692e+000  6.793124e-001
      vertex -3.367496e+000 -8.129855e+000  6.793124e-001
      vertex -2.713385e-013 -6.805382e+000 -2.305382e+000
    endloop
  endfacet
  facet normal -1.631729e-001 -8.203259e-001 -5.481242e-001
    outer loop
      vertex -2.713385e-013 -6.805382e+000 -2.305382e+000
      vertex -3.367496e+000 -8.129855e+000  6.793124e-001
      vertex -2.604307e+000 -6.287354e+000 -2.305382e+000
    endloop
  endfacet
  facet normal -1.098411e-001 -5.522085e-001 -8.264385e-001
    outer loop
      vertex -2.713385e-013 -6.805382e+000 -2.305382e+000
      vertex -2.604307e+000 -6.287354e+000 -2.305382e+000
      vertex -2.753353e-013 -3.820688e+000 -4.299692e+000
    endloop
  endfacet
  facet normal -1.098411e-001 -5.522085e-001 -8.264385e-001
    outer loop
      vertex -2.753353e-013 -3.820688e+000 -4.299692e+000
      vertex -2.604307e+000 -6.287354e+000 -2.305382e+000
      vertex -1.462114e+000 -3.529855e+000 -4.299692e+000
    endloop
  endfacet
  facet normal -3.877669e-002 -1.949436e-001 -9.800476e-001
    outer loop
      vertex -2.753353e-013 -3.820688e+000 -4.299692e+000
      vertex -1.462114e+000 -3.529855e+000 -4.299692e+000
      vertex -4.307876e-013 -3.000000e-001 -5.000000e+000
    endloop
  endfacet
  facet normal  1.914805e-001 -9.626372e-001 -1.914804e-001
    outer loop
      vertex  3.635493e+000 -8.776855e+000  4.200000e+000
      vertex -1.745064e-015 -9.500000e+000  4.200000e+000
      vertex  3.367496e+000 -8.129855e+000  6.793124e-001
    endloop
  endfacet
  facet normal  1.914805e-001 -9.626372e-001 -1.914803e-001
    outer loop
      vertex  3.367496e+000 -8.129855e+000  6.793124e-001
      vertex -1.745064e-015 -9.500000e+000  4.200000e+000
      vertex -2.682299e-013 -8.799692e+000  6.793124e-001
    endloop
  endfacet
  facet normal  1.631730e-001 -8.203258e-001 -5.481242e-001
    outer loop
      vertex  3.367496e+000 -8.129855e+000  6.793124e-001
      vertex -2.682299e-013 -8.799692e+000  6.793124e-001
      vertex  2.604307e+000 -6.287354e+000 -2.305382e+000
    endloop
  endfacet
  facet normal  1.631729e-001 -8.203258e-001 -5.481243e-001
    outer loop
      vertex  2.604307e+000 -6.287354e+000 -2.305382e+000
      vertex -2.682299e-013 -8.799692e+000  6.793124e-001
      vertex -2.713385e-013 -6.805382e+000 -2.305382e+000
    endloop
  endfacet
  facet normal  1.098411e-001 -5.522085e-001 -8.264386e-001
    outer loop
      vertex  2.604307e+000 -6.287354e+000 -2.305382e+000
      vertex -2.713385e-013 -6.805382e+000 -2.305382e+000
      vertex  1.462114e+000 -3.529855e+000 -4.299692e+000
    endloop
  endfacet
  facet normal  1.098411e-001 -5.522085e-001 -8.264385e-001
    outer loop
      vertex  1.462114e+000 -3.529855e+000 -4.299692e+000
      vertex -2.713385e-013 -6.805382e+000 -2.305382e+000
      vertex -2.753353e-013 -3.820688e+000 -4.299692e+000
    endloop
  endfacet
  facet normal  3.877669e-002 -1.949436e-001 -9.800476e-001
    outer loop
      vertex  1.462114e+000 -3.529855e+000 -4.299692e+000
      vertex -2.753353e-013 -3.820688e+000 -4.299692e+000
      vertex -4.307876e-013 -3.000000e-001 -5.000000e+000
    endloop
  endfacet
  facet normal  5.452901e-001 -8.160844e-001 -1.914805e-001
    outer loop
      vertex  6.717515e+000 -6.717515e+000  4.200000e+000
      vertex  3.635493e+000 -8.776855e+000  4.200000e+000
      vertex  6.222322e+000 -6.222322e+000  6.793124e-001
    endloop
  endfacet
  facet normal  5.452903e-001 -8.160844e-001 -1.914804e-001
    outer loop
      vertex  6.222322e+000 -6.222322e+000  6.793124e-001
      vertex  3.635493e+000 -8.776855e+000  4.200000e+000
      vertex  3.367496e+000 -8.129855e+000  6.793124e-001
    endloop
  endfacet
  facet normal  4.646773e-001 -6.954386e-001 -5.481241e-001
    outer loop
      vertex  6.222322e+000 -6.222322e+000  6.793124e-001
      vertex  3.367496e+000 -8.129855e+000  6.793124e-001
      vertex  4.812132e+000 -4.812132e+000 -2.305382e+000
    endloop
  endfacet
  facet normal  4.646774e-001 -6.954386e-001 -5.481242e-001
    outer loop
      vertex  4.812132e+000 -4.812132e+000 -2.305382e+000
      vertex  3.367496e+000 -8.129855e+000  6.793124e-001
      vertex  2.604307e+000 -6.287354e+000 -2.305382e+000
    endloop
  endfacet
  facet normal  3.128011e-001 -4.681398e-001 -8.264385e-001
    outer loop
      vertex  4.812132e+000 -4.812132e+000 -2.305382e+000
      vertex  2.604307e+000 -6.287354e+000 -2.305382e+000
      vertex  2.701634e+000 -2.701634e+000 -4.299692e+000
    endloop
  endfacet
  facet normal  3.128010e-001 -4.681398e-001 -8.264385e-001
    outer loop
      vertex  2.701634e+000 -2.701634e+000 -4.299692e+000
      vertex  2.604307e+000 -6.287354e+000 -2.305382e+000
      vertex  1.462114e+000 -3.529855e+000 -4.299692e+000
    endloop
  endfacet
  facet normal  1.104267e-001 -1.652652e-001 -9.800476e-001
    outer loop
      vertex  2.701634e+000 -2.701634e+000 -4.299692e+000
      vertex  1.462114e+000 -3.529855e+000 -4.299692e+000
      vertex  2.121320e-001 -2.121320e-001 -5.000000e+000
    endloop
  endfacet
  facet normal  8.160844e-001 -5.452901e-001 -1.914804e-001
    outer loop
      vertex  8.776855e+000 -3.635493e+000  4.200000e+000
      vertex  6.717515e+000 -6.717515e+000  4.200000e+000
      vertex  8.129855e+000 -3.367496e+000  6.793124e-001
    endloop
  endfacet
  facet normal  8.160844e-001 -5.452902e-001 -1.914806e-001
    outer loop
      vertex  8.129855e+000 -3.367496e+000  6.793124e-001
      vertex  6.717515e+000 -6.717515e+000  4.200000e+000
      vertex  6.222322e+000 -6.222322e+000  6.793124e-001
    endloop
  endfacet
  facet normal  6.954386e-001 -4.646773e-001 -5.481241e-001
    outer loop
      vertex  8.129855e+000 -3.367496e+000  6.793124e-001
      vertex  6.222322e+000 -6.222322e+000  6.793124e-001
      vertex  6.287354e+000 -2.604307e+000 -2.305382e+000
    endloop
  endfacet
  facet normal  6.954386e-001 -4.646774e-001 -5.481242e-001
    outer loop
      vertex  6.287354e+000 -2.604307e+000 -2.305382e+000
      vertex  6.222322e+000 -6.222322e+000  6.793124e-001
      vertex  4.812132e+000 -4.812132e+000 -2.305382e+000
    endloop
  endfacet
  facet normal  4.681398e-001 -3.128011e-001 -8.264385e-001
    outer loop
      vertex  6.287354e+000 -2.604307e+000 -2.305382e+000
      vertex  4.812132e+000 -4.812132e+000 -2.305382e+000
      vertex  3.529855e+000 -1.462114e+000 -4.299692e+000
    endloop
  endfacet
  facet normal  4.681399e-001 -3.128010e-001 -8.264385e-001
    outer loop
      vertex  3.529855e+000 -1.462114e+000 -4.299692e+000
      vertex  4.812132e+000 -4.812132e+000 -2.305382e+000
      vertex  2.701634e+000 -2.701634e+000 -4.299692e+000
    endloop
  endfacet
  facet normal  1.652652e-001 -1.104267e-001 -9.800476e-001
    outer loop
      vertex  3.529855e+000 -1.462114e+000 -4.299692e+000
      vertex  2.701634e+000 -2.701634e+000 -4.299692e+000
      vertex  2.121320e-001 -2.121320e-001 -5.000000e+000
    endloop
  endfacet
  facet normal  1.853947e-001  6.023845e-002 -9.808160e-001
    outer loop
      vertex  3.000000e-001  5.315952e-016 -5.000000e+000
      vertex  2.427050e-001  1.763357e-001 -5.000000e+000
      vertex  3.529855e+000  1.462115e+000 -4.299692e+000
    endloop
  endfacet
  facet normal -1.853949e-001  6.023806e-002 -9.808160e-001
    outer loop
      vertex -3.000000e-001 -5.704871e-007 -5.000000e+000
      vertex -3.529857e+000  1.462108e+000 -4.299692e+000
      vertex -2.427054e-001  1.763352e-001 -5.000000e+000
    endloop
  endfacet
  facet normal  1.175896e-001  1.618484e-001 -9.797846e-001
    outer loop
      vertex  9.270488e-002  2.853170e-001 -5.000000e+000
      vertex  1.462111e+000  3.529856e+000 -4.299692e+000
      vertex  2.427050e-001  1.763357e-001 -5.000000e+000
    endloop
  endfacet
  facet normal  0.000000e+000  1.943107e-001 -9.809400e-001
    outer loop
      vertex -9.270542e-002  2.853169e-001 -5.000000e+000
      vertex -3.632755e-006  3.820688e+000 -4.299692e+000
      vertex  9.270488e-002  2.853170e-001 -5.000000e+000
    endloop
  endfacet
  facet normal -1.156942e-001  1.592386e-001 -9.804376e-001
    outer loop
      vertex -2.427054e-001  1.763352e-001 -5.000000e+000
      vertex -2.701638e+000  2.701630e+000 -4.299692e+000
      vertex -9.270542e-002  2.853169e-001 -5.000000e+000
    endloop
  endfacet
  facet normal -9.626371e-001  1.914805e-001 -1.914812e-001
    outer loop
      vertex -9.500000e+000  5.382224e-015  4.200000e+000
      vertex -8.776855e+000  3.635493e+000  4.200000e+000
      vertex -8.799692e+000 -1.673373e-005  6.793124e-001
    endloop
  endfacet
  facet normal -9.626377e-001  1.914788e-001 -1.914795e-001
    outer loop
      vertex -8.799692e+000 -1.673373e-005  6.793124e-001
      vertex -8.776855e+000  3.635493e+000  4.200000e+000
      vertex -8.129861e+000  3.367483e+000  6.793124e-001
    endloop
  endfacet
  facet normal -8.203261e-001  1.631715e-001 -5.481243e-001
    outer loop
      vertex -8.799692e+000 -1.673373e-005  6.793124e-001
      vertex -8.129861e+000  3.367483e+000  6.793124e-001
      vertex -6.805382e+000 -1.294130e-005 -2.305382e+000
    endloop
  endfacet
  facet normal -8.203261e-001  1.631715e-001 -5.481242e-001
    outer loop
      vertex -6.805382e+000 -1.294130e-005 -2.305382e+000
      vertex -8.129861e+000  3.367483e+000  6.793124e-001
      vertex -6.287358e+000  2.604297e+000 -2.305382e+000
    endloop
  endfacet
  facet normal -5.522087e-001  1.098401e-001 -8.264385e-001
    outer loop
      vertex -6.805382e+000 -1.294130e-005 -2.305382e+000
      vertex -6.287358e+000  2.604297e+000 -2.305382e+000
      vertex -3.820688e+000 -7.265523e-006 -4.299692e+000
    endloop
  endfacet
  facet normal -5.522087e-001  1.098401e-001 -8.264385e-001
    outer loop
      vertex -3.820688e+000 -7.265523e-006 -4.299692e+000
      vertex -6.287358e+000  2.604297e+000 -2.305382e+000
      vertex -3.529857e+000  1.462108e+000 -4.299692e+000
    endloop
  endfacet
  facet normal -1.949437e-001  3.877635e-002 -9.800476e-001
    outer loop
      vertex -3.820688e+000 -7.265523e-006 -4.299692e+000
      vertex -3.529857e+000  1.462108e+000 -4.299692e+000
      vertex -3.000000e-001 -5.704871e-007 -5.000000e+000
    endloop
  endfacet
  facet normal  9.626372e-001  1.914805e-001 -1.914805e-001
    outer loop
      vertex  8.776855e+000  3.635493e+000  4.200000e+000
      vertex  9.500000e+000 -2.326752e-015  4.200000e+000
      vertex  8.129854e+000  3.367498e+000  6.793124e-001
    endloop
  endfacet
  facet normal  9.626372e-001  1.914807e-001 -1.914803e-001
    outer loop
      vertex  8.129854e+000  3.367498e+000  6.793124e-001
      vertex  9.500000e+000 -2.326752e-015  4.200000e+000
      vertex  8.799692e+000 -3.058620e-011  6.793124e-001
    endloop
  endfacet
  facet normal  8.203259e-001  1.631732e-001 -5.481241e-001
    outer loop
      vertex  8.129854e+000  3.367498e+000  6.793124e-001
      vertex  8.799692e+000 -3.058620e-011  6.793124e-001
      vertex  6.287353e+000  2.604309e+000 -2.305382e+000
    endloop
  endfacet
  facet normal  8.203257e-001  1.631729e-001 -5.481243e-001
    outer loop
      vertex  6.287353e+000  2.604309e+000 -2.305382e+000
      vertex  8.799692e+000 -3.058620e-011  6.793124e-001
      vertex  6.805382e+000 -2.340927e-011 -2.305382e+000
    endloop
  endfacet
  facet normal  5.522085e-001  1.098411e-001 -8.264385e-001
    outer loop
      vertex  6.287353e+000  2.604309e+000 -2.305382e+000
      vertex  6.805382e+000 -2.340927e-011 -2.305382e+000
      vertex  3.529855e+000  1.462115e+000 -4.299692e+000
    endloop
  endfacet
  facet normal  5.522085e-001  1.098411e-001 -8.264385e-001
    outer loop
      vertex  3.529855e+000  1.462115e+000 -4.299692e+000
      vertex  6.805382e+000 -2.340927e-011 -2.305382e+000
      vertex  3.820688e+000 -1.266875e-011 -4.299692e+000
    endloop
  endfacet
  facet normal  1.949436e-001  3.877670e-002 -9.800476e-001
    outer loop
      vertex  3.529855e+000  1.462115e+000 -4.299692e+000
      vertex  3.820688e+000 -1.266875e-011 -4.299692e+000
      vertex  3.000000e-001  5.315952e-016 -5.000000e+000
    endloop
  endfacet
  facet normal  8.160844e-001  5.452901e-001 -1.914807e-001
    outer loop
      vertex  6.717515e+000  6.717515e+000  4.200000e+000
      vertex  8.776855e+000  3.635493e+000  4.200000e+000
      vertex  6.222319e+000  6.222325e+000  6.793124e-001
    endloop
  endfacet
  facet normal  8.160843e-001  5.452905e-001 -1.914803e-001
    outer loop
      vertex  6.222319e+000  6.222325e+000  6.793124e-001
      vertex  8.776855e+000  3.635493e+000  4.200000e+000
      vertex  8.129854e+000  3.367498e+000  6.793124e-001
    endloop
  endfacet
  facet normal  6.954386e-001  4.646775e-001 -5.481241e-001
    outer loop
      vertex  6.222319e+000  6.222325e+000  6.793124e-001
      vertex  8.129854e+000  3.367498e+000  6.793124e-001
      vertex  4.812130e+000  4.812134e+000 -2.305382e+000
    endloop
  endfacet
  facet normal  6.954385e-001  4.646775e-001 -5.481241e-001
    outer loop
      vertex  4.812130e+000  4.812134e+000 -2.305382e+000
      vertex  8.129854e+000  3.367498e+000  6.793124e-001
      vertex  6.287353e+000  2.604309e+000 -2.305382e+000
    endloop
  endfacet
  facet normal  4.681397e-001  3.128012e-001 -8.264385e-001
    outer loop
      vertex  4.812130e+000  4.812134e+000 -2.305382e+000
      vertex  6.287353e+000  2.604309e+000 -2.305382e+000
      vertex  2.701633e+000  2.701635e+000 -4.299692e+000
    endloop
  endfacet
  facet normal  4.681396e-001  3.128012e-001 -8.264385e-001
    outer loop
      vertex  2.701633e+000  2.701635e+000 -4.299692e+000
      vertex  6.287353e+000  2.604309e+000 -2.305382e+000
      vertex  3.529855e+000  1.462115e+000 -4.299692e+000
    endloop
  endfacet
  facet normal  1.655199e-001  1.105970e-001 -9.799854e-001
    outer loop
      vertex  2.701633e+000  2.701635e+000 -4.299692e+000
      vertex  3.529855e+000  1.462115e+000 -4.299692e+000
      vertex  2.427050e-001  1.763357e-001 -5.000000e+000
    endloop
  endfacet
  facet normal  5.452901e-001  8.160844e-001 -1.914809e-001
    outer loop
      vertex  3.635493e+000  8.776855e+000  4.200000e+000
      vertex  6.717515e+000  6.717515e+000  4.200000e+000
      vertex  3.367491e+000  8.129857e+000  6.793124e-001
    endloop
  endfacet
  facet normal  5.452896e-001  8.160849e-001 -1.914802e-001
    outer loop
      vertex  3.367491e+000  8.129857e+000  6.793124e-001
      vertex  6.717515e+000  6.717515e+000  4.200000e+000
      vertex  6.222319e+000  6.222325e+000  6.793124e-001
    endloop
  endfacet
  facet normal  4.646767e-001  6.954390e-001 -5.481241e-001
    outer loop
      vertex  3.367491e+000  8.129857e+000  6.793124e-001
      vertex  6.222319e+000  6.222325e+000  6.793124e-001
      vertex  2.604303e+000  6.287355e+000 -2.305382e+000
    endloop
  endfacet
  facet normal  4.646768e-001  6.954389e-001 -5.481241e-001
    outer loop
      vertex  2.604303e+000  6.287355e+000 -2.305382e+000
      vertex  6.222319e+000  6.222325e+000  6.793124e-001
      vertex  4.812130e+000  4.812134e+000 -2.305382e+000
    endloop
  endfacet
  facet normal  3.128008e-001  4.681400e-001 -8.264385e-001
    outer loop
      vertex  2.604303e+000  6.287355e+000 -2.305382e+000
      vertex  4.812130e+000  4.812134e+000 -2.305382e+000
      vertex  1.462111e+000  3.529856e+000 -4.299692e+000
    endloop
  endfacet
  facet normal  3.128008e-001  4.681399e-001 -8.264385e-001
    outer loop
      vertex  1.462111e+000  3.529856e+000 -4.299692e+000
      vertex  4.812130e+000  4.812134e+000 -2.305382e+000
      vertex  2.701633e+000  2.701635e+000 -4.299692e+000
    endloop
  endfacet
  facet normal  1.100355e-001  1.646799e-001 -9.801901e-001
    outer loop
      vertex  1.462111e+000  3.529856e+000 -4.299692e+000
      vertex  2.701633e+000  2.701635e+000 -4.299692e+000
      vertex  2.427050e-001  1.763357e-001 -5.000000e+000
    endloop
  endfacet
  facet normal  1.914805e-001  9.626372e-001 -1.914808e-001
    outer loop
      vertex  4.800536e-015  9.500000e+000  4.200000e+000
      vertex  3.635493e+000  8.776855e+000  4.200000e+000
      vertex -8.366851e-006  8.799692e+000  6.793124e-001
    endloop
  endfacet
  facet normal  1.914799e-001  9.626374e-001 -1.914802e-001
    outer loop
      vertex -8.366851e-006  8.799692e+000  6.793124e-001
      vertex  3.635493e+000  8.776855e+000  4.200000e+000
      vertex  3.367491e+000  8.129857e+000  6.793124e-001
    endloop
  endfacet
  facet normal  1.631725e-001  8.203259e-001 -5.481243e-001
    outer loop
      vertex -8.366851e-006  8.799692e+000  6.793124e-001
      vertex  3.367491e+000  8.129857e+000  6.793124e-001
      vertex -6.470638e-006  6.805382e+000 -2.305382e+000
    endloop
  endfacet
  facet normal  1.631722e-001  8.203261e-001 -5.481241e-001
    outer loop
      vertex -6.470638e-006  6.805382e+000 -2.305382e+000
      vertex  3.367491e+000  8.129857e+000  6.793124e-001
      vertex  2.604303e+000  6.287355e+000 -2.305382e+000
    endloop
  endfacet
  facet normal  1.098406e-001  5.522086e-001 -8.264385e-001
    outer loop
      vertex -6.470638e-006  6.805382e+000 -2.305382e+000
      vertex  2.604303e+000  6.287355e+000 -2.305382e+000
      vertex -3.632755e-006  3.820688e+000 -4.299692e+000
    endloop
  endfacet
  facet normal  1.098406e-001  5.522087e-001 -8.264385e-001
    outer loop
      vertex -3.632755e-006  3.820688e+000 -4.299692e+000
      vertex  2.604303e+000  6.287355e+000 -2.305382e+000
      vertex  1.462111e+000  3.529856e+000 -4.299692e+000
    endloop
  endfacet
  facet normal  3.881630e-002  1.951437e-001 -9.800063e-001
    outer loop
      vertex -3.632755e-006  3.820688e+000 -4.299692e+000
      vertex  1.462111e+000  3.529856e+000 -4.299692e+000
      vertex  9.270488e-002  2.853170e-001 -5.000000e+000
    endloop
  endfacet
  facet normal -1.914805e-001  9.626372e-001 -1.914809e-001
    outer loop
      vertex -3.635493e+000  8.776855e+000  4.200000e+000
      vertex  4.800536e-015  9.500000e+000  4.200000e+000
      vertex -3.367506e+000  8.129851e+000  6.793124e-001
    endloop
  endfacet
  facet normal -1.914815e-001  9.626371e-001 -1.914799e-001
    outer loop
      vertex -3.367506e+000  8.129851e+000  6.793124e-001
      vertex  4.800536e-015  9.500000e+000  4.200000e+000
      vertex -8.366851e-006  8.799692e+000  6.793124e-001
    endloop
  endfacet
  facet normal -1.631739e-001  8.203256e-001 -5.481243e-001
    outer loop
      vertex -3.367506e+000  8.129851e+000  6.793124e-001
      vertex -8.366851e-006  8.799692e+000  6.793124e-001
      vertex -2.604315e+000  6.287350e+000 -2.305382e+000
    endloop
  endfacet
  facet normal -1.631738e-001  8.203256e-001 -5.481243e-001
    outer loop
      vertex -2.604315e+000  6.287350e+000 -2.305382e+000
      vertex -8.366851e-006  8.799692e+000  6.793124e-001
      vertex -6.470638e-006  6.805382e+000 -2.305382e+000
    endloop
  endfacet
  facet normal -1.098417e-001  5.522084e-001 -8.264385e-001
    outer loop
      vertex -2.604315e+000  6.287350e+000 -2.305382e+000
      vertex -6.470638e-006  6.805382e+000 -2.305382e+000
      vertex -1.462118e+000  3.529853e+000 -4.299692e+000
    endloop
  endfacet
  facet normal -1.098417e-001  5.522085e-001 -8.264385e-001
    outer loop
      vertex -1.462118e+000  3.529853e+000 -4.299692e+000
      vertex -6.470638e-006  6.805382e+000 -2.305382e+000
      vertex -3.632755e-006  3.820688e+000 -4.299692e+000
    endloop
  endfacet
  facet normal -3.881668e-002  1.951436e-001 -9.800063e-001
    outer loop
      vertex -1.462118e+000  3.529853e+000 -4.299692e+000
      vertex -3.632755e-006  3.820688e+000 -4.299692e+000
      vertex -9.270542e-002  2.853169e-001 -5.000000e+000
    endloop
  endfacet
  facet normal -5.452901e-001  8.160844e-001 -1.914811e-001
    outer loop
      vertex -6.717515e+000  6.717515e+000  4.200000e+000
      vertex -3.635493e+000  8.776855e+000  4.200000e+000
      vertex -6.222331e+000  6.222313e+000  6.793124e-001
    endloop
  endfacet
  facet normal -5.452914e-001  8.160838e-001 -1.914798e-001
    outer loop
      vertex -6.222331e+000  6.222313e+000  6.793124e-001
      vertex -3.635493e+000  8.776855e+000  4.200000e+000
      vertex -3.367506e+000  8.129851e+000  6.793124e-001
    endloop
  endfacet
  facet normal -4.646782e-001  6.954381e-001 -5.481241e-001
    outer loop
      vertex -6.222331e+000  6.222313e+000  6.793124e-001
      vertex -3.367506e+000  8.129851e+000  6.793124e-001
      vertex -4.812139e+000  4.812125e+000 -2.305382e+000
    endloop
  endfacet
  facet normal -4.646781e-001  6.954381e-001 -5.481243e-001
    outer loop
      vertex -4.812139e+000  4.812125e+000 -2.305382e+000
      vertex -3.367506e+000  8.129851e+000  6.793124e-001
      vertex -2.604315e+000  6.287350e+000 -2.305382e+000
    endloop
  endfacet
  facet normal -3.128016e-001  4.681394e-001 -8.264385e-001
    outer loop
      vertex -4.812139e+000  4.812125e+000 -2.305382e+000
      vertex -2.604315e+000  6.287350e+000 -2.305382e+000
      vertex -2.701638e+000  2.701630e+000 -4.299692e+000
    endloop
  endfacet
  facet normal -3.128016e-001  4.681394e-001 -8.264385e-001
    outer loop
      vertex -2.701638e+000  2.701630e+000 -4.299692e+000
      vertex -2.604315e+000  6.287350e+000 -2.305382e+000
      vertex -1.462118e+000  3.529853e+000 -4.299692e+000
    endloop
  endfacet
  facet normal -1.102582e-001  1.650127e-001 -9.801091e-001
    outer loop
      vertex -2.701638e+000  2.701630e+000 -4.299692e+000
      vertex -1.462118e+000  3.529853e+000 -4.299692e+000
      vertex -9.270542e-002  2.853169e-001 -5.000000e+000
    endloop
  endfacet
  facet normal -8.160844e-001  5.452901e-001 -1.914812e-001
    outer loop
      vertex -8.776855e+000  3.635493e+000  4.200000e+000
      vertex -6.717515e+000  6.717515e+000  4.200000e+000
      vertex -8.129861e+000  3.367483e+000  6.793124e-001
    endloop
  endfacet
  facet normal -8.160854e-001  5.452890e-001 -1.914798e-001
    outer loop
      vertex -8.129861e+000  3.367483e+000  6.793124e-001
      vertex -6.717515e+000  6.717515e+000  4.200000e+000
      vertex -6.222331e+000  6.222313e+000  6.793124e-001
    endloop
  endfacet
  facet normal -6.954394e-001  4.646762e-001 -5.481242e-001
    outer loop
      vertex -8.129861e+000  3.367483e+000  6.793124e-001
      vertex -6.222331e+000  6.222313e+000  6.793124e-001
      vertex -6.287358e+000  2.604297e+000 -2.305382e+000
    endloop
  endfacet
  facet normal -6.954394e-001  4.646762e-001 -5.481241e-001
    outer loop
      vertex -6.287358e+000  2.604297e+000 -2.305382e+000
      vertex -6.222331e+000  6.222313e+000  6.793124e-001
      vertex -4.812139e+000  4.812125e+000 -2.305382e+000
    endloop
  endfacet
  facet normal -4.681403e-001  3.128003e-001 -8.264385e-001
    outer loop
      vertex -6.287358e+000  2.604297e+000 -2.305382e+000
      vertex -4.812139e+000  4.812125e+000 -2.305382e+000
      vertex -3.529857e+000  1.462108e+000 -4.299692e+000
    endloop
  endfacet
  facet normal -4.681403e-001  3.128003e-001 -8.264385e-001
    outer loop
      vertex -3.529857e+000  1.462108e+000 -4.299692e+000
      vertex -4.812139e+000  4.812125e+000 -2.305382e+000
      vertex -2.701638e+000  2.701630e+000 -4.299692e+000
    endloop
  endfacet
  facet normal -1.655201e-001  1.105966e-001 -9.799854e-001
    outer loop
      vertex -3.529857e+000  1.462108e+000 -4.299692e+000
      vertex -2.701638e+000  2.701630e+000 -4.299692e+000
      vertex -2.427054e-001  1.763352e-001 -5.000000e+000
    endloop
  endfacet
  facet normal  0.000000e+000  0.000000e+000  1.000000e+000
    outer loop
      vertex  6.717515e+000  6.717515e+000  7.000000e+001
      vertex  3.635493e+000  8.776855e+000  7.000000e+001
      vertex  1.558012e-015  5.500000e+000  7.000000e+001
    endloop
  endfacet
  facet normal  0.000000e+000  -0.000000e+000  1.000000e+000
    outer loop
      vertex  1.558012e-015  5.500000e+000  7.000000e+001
      vertex  3.635493e+000  8.776855e+000  7.000000e+001
      vertex  5.816880e-016  9.500000e+000  7.000000e+001
    endloop
  endfacet
  facet normal  0.000000e+000  0.000000e+000  1.000000e+000
    outer loop
      vertex  1.558012e-015  5.500000e+000  7.000000e+001
      vertex  5.816880e-016  9.500000e+000  7.000000e+001
      vertex -6.717515e+000  6.717515e+000  7.000000e+001
    endloop
  endfacet
  facet normal  0.000000e+000  0.000000e+000  1.000000e+000
    outer loop
      vertex -6.717515e+000  6.717515e+000  7.000000e+001
      vertex  5.816880e-016  9.500000e+000  7.000000e+001
      vertex -3.635493e+000  8.776855e+000  7.000000e+001
    endloop
  endfacet
  facet normal  0.000000e+000  0.000000e+000  1.000000e+000
    outer loop
      vertex  1.558012e-015  5.500000e+000  7.000000e+001
      vertex -6.717515e+000  6.717515e+000  7.000000e+001
      vertex -2.750000e+000  4.763140e+000  7.000000e+001
    endloop
  endfacet
  facet normal  0.000000e+000  0.000000e+000  1.000000e+000
    outer loop
      vertex -2.750000e+000  4.763140e+000  7.000000e+001
      vertex -6.717515e+000  6.717515e+000  7.000000e+001
      vertex -8.776855e+000  3.635493e+000  7.000000e+001
    endloop
  endfacet
  facet normal  -0.000000e+000  0.000000e+000  9.999999e-001
    outer loop
      vertex -2.750000e+000  4.763140e+000  7.000000e+001
      vertex -8.776855e+000  3.635493e+000  7.000000e+001
      vertex -4.763140e+000  2.750000e+000  7.000000e+001
    endloop
  endfacet
  facet normal  0.000000e+000  0.000000e+000  1.000000e+000
    outer loop
      vertex -4.763140e+000  2.750000e+000  7.000000e+001
      vertex -8.776855e+000  3.635493e+000  7.000000e+001
      vertex -5.500000e+000  3.116024e-015  7.000000e+001
    endloop
  endfacet
  facet normal  0.000000e+000  0.000000e+000  1.000000e+000
    outer loop
      vertex -5.500000e+000  3.116024e-015  7.000000e+001
      vertex -8.776855e+000  3.635493e+000  7.000000e+001
      vertex -9.500000e+000  1.163376e-015  7.000000e+001
    endloop
  endfacet
  facet normal  -0.000000e+000  0.000000e+000  1.000000e+000
    outer loop
      vertex -5.500000e+000  3.116024e-015  7.000000e+001
      vertex -9.500000e+000  1.163376e-015  7.000000e+001
      vertex -4.763140e+000 -2.750000e+000  7.000000e+001
    endloop
  endfacet
  facet normal  0.000000e+000  0.000000e+000  1.000000e+000
    outer loop
      vertex -4.763140e+000 -2.750000e+000  7.000000e+001
      vertex -9.500000e+000  1.163376e-015  7.000000e+001
      vertex -8.776855e+000 -3.635493e+000  7.000000e+001
    endloop
  endfacet
  facet normal  -0.000000e+000  0.000000e+000  9.999999e-001
    outer loop
      vertex -4.763140e+000 -2.750000e+000  7.000000e+001
      vertex -8.776855e+000 -3.635493e+000  7.000000e+001
      vertex -2.750000e+000 -4.763140e+000  7.000000e+001
    endloop
  endfacet
  facet normal  0.000000e+000  0.000000e+000  1.000000e+000
    outer loop
      vertex -2.750000e+000 -4.763140e+000  7.000000e+001
      vertex -8.776855e+000 -3.635493e+000  7.000000e+001
      vertex -6.717515e+000 -6.717515e+000  7.000000e+001
    endloop
  endfacet
  facet normal  0.000000e+000  0.000000e+000  1.000000e+000
    outer loop
      vertex -2.750000e+000 -4.763140e+000  7.000000e+001
      vertex -6.717515e+000 -6.717515e+000  7.000000e+001
      vertex -5.895282e-015 -5.500000e+000  7.000000e+001
    endloop
  endfacet
  facet normal  0.000000e+000  0.000000e+000  1.000000e+000
    outer loop
      vertex  3.635493e+000 -8.776855e+000  7.000000e+001
      vertex  6.717515e+000 -6.717515e+000  7.000000e+001
      vertex -1.018276e-014 -9.500000e+000  7.000000e+001
    endloop
  endfacet
  facet normal  0.000000e+000  0.000000e+000  1.000000e+000
    outer loop
      vertex -1.018276e-014 -9.500000e+000  7.000000e+001
      vertex  6.717515e+000 -6.717515e+000  7.000000e+001
      vertex -5.895282e-015 -5.500000e+000  7.000000e+001
    endloop
  endfacet
  facet normal  0.000000e+000  0.000000e+000  1.000000e+000
    outer loop
      vertex -1.018276e-014 -9.500000e+000  7.000000e+001
      vertex -5.895282e-015 -5.500000e+000  7.000000e+001
      vertex -3.635493e+000 -8.776855e+000  7.000000e+001
    endloop
  endfacet
  facet normal  0.000000e+000  -0.000000e+000  1.000000e+000
    outer loop
      vertex -3.635493e+000 -8.776855e+000  7.000000e+001
      vertex -5.895282e-015 -5.500000e+000  7.000000e+001
      vertex -6.717515e+000 -6.717515e+000  7.000000e+001
    endloop
  endfacet
  facet normal  -0.000000e+000  0.000000e+000  1.000000e+000
    outer loop
      vertex  6.717515e+000  6.717515e+000  7.000000e+001
      vertex  1.558012e-015  5.500000e+000  7.000000e+001
      vertex  8.776855e+000  3.635493e+000  7.000000e+001
    endloop
  endfacet
  facet normal  0.000000e+000  0.000000e+000  1.000000e+000
    outer loop
      vertex  8.776855e+000  3.635493e+000  7.000000e+001
      vertex  1.558012e-015  5.500000e+000  7.000000e+001
      vertex  2.750000e+000  4.763140e+000  7.000000e+001
    endloop
  endfacet
  facet normal  0.000000e+000  0.000000e+000  9.999999e-001
    outer loop
      vertex  8.776855e+000  3.635493e+000  7.000000e+001
      vertex  2.750000e+000  4.763140e+000  7.000000e+001
      vertex  4.763140e+000  2.750000e+000  7.000000e+001
    endloop
  endfacet
  facet normal  -0.000000e+000  0.000000e+000  1.000000e+000
    outer loop
      vertex  8.776855e+000  3.635493e+000  7.000000e+001
      vertex  4.763140e+000  2.750000e+000  7.000000e+001
      vertex  9.500000e+000  0.000000e+000  7.000000e+001
    endloop
  endfacet
  facet normal  0.000000e+000  0.000000e+000  1.000000e+000
    outer loop
      vertex  9.500000e+000  0.000000e+000  7.000000e+001
      vertex  4.763140e+000  2.750000e+000  7.000000e+001
      vertex  5.500000e+000  0.000000e+000  7.000000e+001
    endloop
  endfacet
  facet normal  -0.000000e+000  0.000000e+000  1.000000e+000
    outer loop
      vertex  9.500000e+000  0.000000e+000  7.000000e+001
      vertex  5.500000e+000  0.000000e+000  7.000000e+001
      vertex  8.776855e+000 -3.635493e+000  7.000000e+001
    endloop
  endfacet
  facet normal  0.000000e+000  0.000000e+000  1.000000e+000
    outer loop
      vertex  8.776855e+000 -3.635493e+000  7.000000e+001
      vertex  5.500000e+000  0.000000e+000  7.000000e+001
      vertex  4.763140e+000 -2.750000e+000  7.000000e+001
    endloop
  endfacet
  facet normal  0.000000e+000  0.000000e+000  9.999999e-001
    outer loop
      vertex  8.776855e+000 -3.635493e+000  7.000000e+001
      vertex  4.763140e+000 -2.750000e+000  7.000000e+001
      vertex  6.717515e+000 -6.717515e+000  7.000000e+001
    endloop
  endfacet
  facet normal  0.000000e+000  0.000000e+000  1.000000e+000
    outer loop
      vertex  6.717515e+000 -6.717515e+000  7.000000e+001
      vertex  4.763140e+000 -2.750000e+000  7.000000e+001
      vertex  2.750000e+000 -4.763140e+000  7.000000e+001
    endloop
  endfacet
  facet normal  0.000000e+000  0.000000e+000  1.000000e+000
    outer loop
      vertex  6.717515e+000 -6.717515e+000  7.000000e+001
      vertex  2.750000e+000 -4.763140e+000  7.000000e+001
      vertex -5.895282e-015 -5.500000e+000  7.000000e+001
    endloop
  endfacet
  facet normal -2.588190e-001  9.659258e-001  0.000000e+000
    outer loop
      vertex -1.010300e-015 -5.500000e+000  5.000000e+000
      vertex  2.750000e+000 -4.763140e+000  7.000000e+001
      vertex  2.750000e+000 -4.763140e+000  5.000000e+000
    endloop
  endfacet
  facet normal -7.071068e-001  7.071068e-001  0.000000e+000
    outer loop
      vertex  2.750000e+000 -4.763140e+000  5.000000e+000
      vertex  2.750000e+000 -4.763140e+000  7.000000e+001
      vertex  4.763140e+000 -2.750000e+000  7.000000e+001
    endloop
  endfacet
  facet normal -7.071068e-001  7.071068e-001  0.000000e+000
    outer loop
      vertex  2.750000e+000 -4.763140e+000  5.000000e+000
      vertex  4.763140e+000 -2.750000e+000  7.000000e+001
      vertex  4.763140e+000 -2.750000e+000  5.000000e+000
    endloop
  endfacet
  facet normal -9.659258e-001  2.588190e-001  0.000000e+000
    outer loop
      vertex  4.763140e+000 -2.750000e+000  5.000000e+000
      vertex  4.763140e+000 -2.750000e+000  7.000000e+001
      vertex  5.500000e+000  0.000000e+000  7.000000e+001
    endloop
  endfacet
  facet normal -9.659258e-001  2.588190e-001  0.000000e+000
    outer loop
      vertex  4.763140e+000 -2.750000e+000  5.000000e+000
      vertex  5.500000e+000  0.000000e+000  7.000000e+001
      vertex  5.500000e+000  0.000000e+000  5.000000e+000
    endloop
  endfacet
  facet normal -2.588190e-001  9.659258e-001 -1.945117e-017
    outer loop
      vertex  2.750000e+000 -4.763140e+000  7.000000e+001
      vertex -1.010300e-015 -5.500000e+000  5.000000e+000
      vertex -5.895282e-015 -5.500000e+000  7.000000e+001
    endloop
  endfacet
  facet normal  2.588190e-001  9.659258e-001  1.945117e-017
    outer loop
      vertex -5.895282e-015 -5.500000e+000  7.000000e+001
      vertex -1.010300e-015 -5.500000e+000  5.000000e+000
      vertex -2.750000e+000 -4.763140e+000  5.000000e+000
    endloop
  endfacet
  facet normal  2.588190e-001  9.659258e-001  -0.000000e+000
    outer loop
      vertex -5.895282e-015 -5.500000e+000  7.000000e+001
      vertex -2.750000e+000 -4.763140e+000  5.000000e+000
      vertex -2.750000e+000 -4.763140e+000  7.000000e+001
    endloop
  endfacet
  facet normal  7.071068e-001  7.071068e-001  0.000000e+000
    outer loop
      vertex -2.750000e+000 -4.763140e+000  7.000000e+001
      vertex -2.750000e+000 -4.763140e+000  5.000000e+000
      vertex -4.763140e+000 -2.750000e+000  5.000000e+000
    endloop
  endfacet
  facet normal  7.071068e-001  7.071068e-001  -0.000000e+000
    outer loop
      vertex -2.750000e+000 -4.763140e+000  7.000000e+001
      vertex -4.763140e+000 -2.750000e+000  5.000000e+000
      vertex -4.763140e+000 -2.750000e+000  7.000000e+001
    endloop
  endfacet
  facet normal  9.659258e-001  2.588190e-001  0.000000e+000
    outer loop
      vertex -4.763140e+000 -2.750000e+000  7.000000e+001
      vertex -4.763140e+000 -2.750000e+000  5.000000e+000
      vertex -5.500000e+000  3.116024e-015  5.000000e+000
    endloop
  endfacet
  facet normal  9.659258e-001  2.588190e-001  -0.000000e+000
    outer loop
      vertex -4.763140e+000 -2.750000e+000  7.000000e+001
      vertex -5.500000e+000  3.116024e-015  5.000000e+000
      vertex -5.500000e+000  3.116024e-015  7.000000e+001
    endloop
  endfacet
  facet normal  2.588190e-001 -9.659258e-001  0.000000e+000
    outer loop
      vertex -2.312969e-015  5.500000e+000  5.000000e+000
      vertex -2.750000e+000  4.763140e+000  7.000000e+001
      vertex -2.750000e+000  4.763140e+000  5.000000e+000
    endloop
  endfacet
  facet normal  7.071068e-001 -7.071068e-001  0.000000e+000
    outer loop
      vertex -2.750000e+000  4.763140e+000  5.000000e+000
      vertex -2.750000e+000  4.763140e+000  7.000000e+001
      vertex -4.763140e+000  2.750000e+000  7.000000e+001
    endloop
  endfacet
  facet normal  7.071068e-001 -7.071068e-001  0.000000e+000
    outer loop
      vertex -2.750000e+000  4.763140e+000  5.000000e+000
      vertex -4.763140e+000  2.750000e+000  7.000000e+001
      vertex -4.763140e+000  2.750000e+000  5.000000e+000
    endloop
  endfacet
  facet normal  9.659258e-001 -2.588190e-001  0.000000e+000
    outer loop
      vertex -4.763140e+000  2.750000e+000  5.000000e+000
      vertex -4.763140e+000  2.750000e+000  7.000000e+001
      vertex -5.500000e+000  3.116024e-015  7.000000e+001
    endloop
  endfacet
  facet normal  9.659258e-001 -2.588190e-001  0.000000e+000
    outer loop
      vertex -4.763140e+000  2.750000e+000  5.000000e+000
      vertex -5.500000e+000  3.116024e-015  7.000000e+001
      vertex -5.500000e+000  3.116024e-015  5.000000e+000
    endloop
  endfacet
  facet normal  2.588190e-001 -9.659258e-001 -1.541359e-017
    outer loop
      vertex -2.750000e+000  4.763140e+000  7.000000e+001
      vertex -2.312969e-015  5.500000e+000  5.000000e+000
      vertex  1.558012e-015  5.500000e+000  7.000000e+001
    endloop
  endfacet
  facet normal -2.588190e-001 -9.659258e-001  1.541359e-017
    outer loop
      vertex  1.558012e-015  5.500000e+000  7.000000e+001
      vertex -2.312969e-015  5.500000e+000  5.000000e+000
      vertex  2.750000e+000  4.763140e+000  5.000000e+000
    endloop
  endfacet
  facet normal -2.588190e-001 -9.659258e-001  0.000000e+000
    outer loop
      vertex  1.558012e-015  5.500000e+000  7.000000e+001
      vertex  2.750000e+000  4.763140e+000  5.000000e+000
      vertex  2.750000e+000  4.763140e+000  7.000000e+001
    endloop
  endfacet
  facet normal -7.071068e-001 -7.071068e-001  -0.000000e+000
    outer loop
      vertex  2.750000e+000  4.763140e+000  7.000000e+001
      vertex  2.750000e+000  4.763140e+000  5.000000e+000
      vertex  4.763140e+000  2.750000e+000  5.000000e+000
    endloop
  endfacet
  facet normal -7.071068e-001 -7.071068e-001  0.000000e+000
    outer loop
      vertex  2.750000e+000  4.763140e+000  7.000000e+001
      vertex  4.763140e+000  2.750000e+000  5.000000e+000
      vertex  4.763140e+000  2.750000e+000  7.000000e+001
    endloop
  endfacet
  facet normal -9.659258e-001 -2.588190e-001  -0.000000e+000
    outer loop
      vertex  4.763140e+000  2.750000e+000  7.000000e+001
      vertex  4.763140e+000  2.750000e+000  5.000000e+000
      vertex  5.500000e+000  0.000000e+000  5.000000e+000
    endloop
  endfacet
  facet normal -9.659258e-001 -2.588190e-001  0.000000e+000
    outer loop
      vertex  4.763140e+000  2.750000e+000  7.000000e+001
      vertex  5.500000e+000  0.000000e+000  5.000000e+000
      vertex  5.500000e+000  0.000000e+000  7.000000e+001
    endloop
  endfacet
  facet normal  0.000000e+000  0.000000e+000  1.000000e+000
    outer loop
      vertex -2.750000e+000  4.763140e+000  5.000000e+000
      vertex  2.750000e+000  4.763140e+000  5.000000e+000
      vertex -2.312969e-015  5.500000e+000  5.000000e+000
    endloop
  endfacet
  facet normal  -0.000000e+000  0.000000e+000  1.000000e+000
    outer loop
      vertex  2.750000e+000  4.763140e+000  5.000000e+000
      vertex -2.750000e+000  4.763140e+000  5.000000e+000
      vertex  4.763140e+000  2.750000e+000  5.000000e+000
    endloop
  endfacet
  facet normal  0.000000e+000  0.000000e+000  1.000000e+000
    outer loop
      vertex  4.763140e+000  2.750000e+000  5.000000e+000
      vertex -2.750000e+000  4.763140e+000  5.000000e+000
      vertex -4.763140e+000  2.750000e+000  5.000000e+000
    endloop
  endfacet
  facet normal  -0.000000e+000  0.000000e+000  1.000000e+000
    outer loop
      vertex  4.763140e+000  2.750000e+000  5.000000e+000
      vertex -4.763140e+000  2.750000e+000  5.000000e+000
      vertex  5.500000e+000  0.000000e+000  5.000000e+000
    endloop
  endfacet
  facet normal  0.000000e+000  0.000000e+000  9.999999e-001
    outer loop
      vertex  5.500000e+000  0.000000e+000  5.000000e+000
      vertex -4.763140e+000  2.750000e+000  5.000000e+000
      vertex -5.500000e+000  3.116024e-015  5.000000e+000
    endloop
  endfacet
  facet normal  0.000000e+000  0.000000e+000  9.999999e-001
    outer loop
      vertex  5.500000e+000  0.000000e+000  5.000000e+000
      vertex -5.500000e+000  3.116024e-015  5.000000e+000
      vertex  4.763140e+000 -2.750000e+000  5.000000e+000
    endloop
  endfacet
  facet normal  0.000000e+000  0.000000e+000  1.000000e+000
    outer loop
      vertex  4.763140e+000 -2.750000e+000  5.000000e+000
      vertex -5.500000e+000  3.116024e-015  5.000000e+000
      vertex -4.763140e+000 -2.750000e+000  5.000000e+000
    endloop
  endfacet
  facet normal  -0.000000e+000  0.000000e+000  1.000000e+000
    outer loop
      vertex  4.763140e+000 -2.750000e+000  5.000000e+000
      vertex -4.763140e+000 -2.750000e+000  5.000000e+000
      vertex  2.750000e+000 -4.763140e+000  5.000000e+000
    endloop
  endfacet
  facet normal  0.000000e+000  0.000000e+000  1.000000e+000
    outer loop
      vertex  2.750000e+000 -4.763140e+000  5.000000e+000
      vertex -4.763140e+000 -2.750000e+000  5.000000e+000
      vertex -2.750000e+000 -4.763140e+000  5.000000e+000
    endloop
  endfacet
  facet normal  -0.000000e+000  0.000000e+000  1.000000e+000
    outer loop
      vertex  2.750000e+000 -4.763140e+000  5.000000e+000
      vertex -2.750000e+000 -4.763140e+000  5.000000e+000
      vertex -1.010300e-015 -5.500000e+000  5.000000e+000
    endloop
  endfacet
endsolid CATIA STL
