solid CATIA STL
  facet normal  1.000000e+000  0.000000e+000  0.000000e+000
    outer loop
      vertex  4.500000e+000 -2.958040e+000 -2.000000e+000
      vertex  4.500000e+000 -1.936492e+000 -2.087121e-001
      vertex  4.500000e+000 -2.000000e+001 -2.000000e+000
    endloop
  endfacet
  facet normal  1.000000e+000  0.000000e+000  0.000000e+000
    outer loop
      vertex  4.500000e+000 -2.000000e+001 -2.000000e+000
      vertex  4.500000e+000 -1.936492e+000 -2.087121e-001
      vertex  4.500000e+000 -2.000000e+001  3.000000e+000
    endloop
  endfacet
  facet normal  1.000000e+000  0.000000e+000  0.000000e+000
    outer loop
      vertex  4.500000e+000 -2.000000e+001  3.000000e+000
      vertex  4.500000e+000 -1.936492e+000 -2.087121e-001
      vertex  4.500000e+000  8.498248e-016  5.000000e-001
    endloop
  endfacet
  facet normal  1.000000e+000  0.000000e+000  -0.000000e+000
    outer loop
      vertex  4.500000e+000 -2.000000e+001  3.000000e+000
      vertex  4.500000e+000  8.498248e-016  5.000000e-001
      vertex  4.500000e+000  2.000000e+001  3.000000e+000
    endloop
  endfacet
  facet normal  1.000000e+000  -0.000000e+000  0.000000e+000
    outer loop
      vertex  4.500000e+000  2.000000e+001  3.000000e+000
      vertex  4.500000e+000  8.498248e-016  5.000000e-001
      vertex  4.500000e+000  2.000000e+001 -2.000000e+000
    endloop
  endfacet
  facet normal  1.000000e+000  0.000000e+000  0.000000e+000
    outer loop
      vertex  4.500000e+000  2.000000e+001 -2.000000e+000
      vertex  4.500000e+000  8.498248e-016  5.000000e-001
      vertex  4.500000e+000  1.936492e+000 -2.087121e-001
    endloop
  endfacet
  facet normal  1.000000e+000  0.000000e+000  0.000000e+000
    outer loop
      vertex  4.500000e+000  2.000000e+001 -2.000000e+000
      vertex  4.500000e+000  1.936492e+000 -2.087121e-001
      vertex  4.500000e+000  2.958040e+000 -2.000000e+000
    endloop
  endfacet
  facet normal -1.000000e+000  0.000000e+000  0.000000e+000
    outer loop
      vertex -4.500000e+000 -2.000000e+001 -2.000000e+000
      vertex -4.500000e+000 -1.936492e+000 -2.087121e-001
      vertex -4.500000e+000 -2.958040e+000 -2.000000e+000
    endloop
  endfacet
  facet normal -1.000000e+000  0.000000e+000  0.000000e+000
    outer loop
      vertex -4.500000e+000 -1.936492e+000 -2.087121e-001
      vertex -4.500000e+000 -2.000000e+001 -2.000000e+000
      vertex -4.500000e+000  8.498248e-016  5.000000e-001
    endloop
  endfacet
  facet normal -1.000000e+000  -0.000000e+000  0.000000e+000
    outer loop
      vertex -4.500000e+000  8.498248e-016  5.000000e-001
      vertex -4.500000e+000 -2.000000e+001 -2.000000e+000
      vertex -4.500000e+000 -2.000000e+001  3.000000e+000
    endloop
  endfacet
  facet normal -1.000000e+000  0.000000e+000  0.000000e+000
    outer loop
      vertex -4.500000e+000  8.498248e-016  5.000000e-001
      vertex -4.500000e+000 -2.000000e+001  3.000000e+000
      vertex -4.500000e+000  2.000000e+001  3.000000e+000
    endloop
  endfacet
  facet normal -1.000000e+000  0.000000e+000  0.000000e+000
    outer loop
      vertex -4.500000e+000  8.498248e-016  5.000000e-001
      vertex -4.500000e+000  2.000000e+001  3.000000e+000
      vertex -4.500000e+000  1.936492e+000 -2.087121e-001
    endloop
  endfacet
  facet normal -1.000000e+000  0.000000e+000  0.000000e+000
    outer loop
      vertex -4.500000e+000  1.936492e+000 -2.087121e-001
      vertex -4.500000e+000  2.000000e+001  3.000000e+000
      vertex -4.500000e+000  2.000000e+001 -2.000000e+000
    endloop
  endfacet
  facet normal -1.000000e+000  0.000000e+000  0.000000e+000
    outer loop
      vertex -4.500000e+000  1.936492e+000 -2.087121e-001
      vertex -4.500000e+000  2.000000e+001 -2.000000e+000
      vertex -4.500000e+000  2.958040e+000 -2.000000e+000
    endloop
  endfacet
  facet normal  0.000000e+000 -1.000000e+000  0.000000e+000
    outer loop
      vertex -4.500000e+000 -2.000000e+001  3.000000e+000
      vertex -4.500000e+000 -2.000000e+001 -2.000000e+000
      vertex  4.500000e+000 -2.000000e+001  3.000000e+000
    endloop
  endfacet
  facet normal  0.000000e+000 -1.000000e+000  -0.000000e+000
    outer loop
      vertex  4.500000e+000 -2.000000e+001  3.000000e+000
      vertex -4.500000e+000 -2.000000e+001 -2.000000e+000
      vertex  4.500000e+000 -2.000000e+001 -2.000000e+000
    endloop
  endfacet
  facet normal  0.000000e+000  1.000000e+000  0.000000e+000
    outer loop
      vertex -4.500000e+000  2.000000e+001 -2.000000e+000
      vertex -4.500000e+000  2.000000e+001  3.000000e+000
      vertex  4.500000e+000  2.000000e+001 -2.000000e+000
    endloop
  endfacet
  facet normal  0.000000e+000  1.000000e+000  -0.000000e+000
    outer loop
      vertex  4.500000e+000  2.000000e+001 -2.000000e+000
      vertex -4.500000e+000  2.000000e+001  3.000000e+000
      vertex  4.500000e+000  2.000000e+001  3.000000e+000
    endloop
  endfacet
  facet normal  0.000000e+000  0.000000e+000  1.000000e+000
    outer loop
      vertex  2.000000e+000  1.750000e+001  5.000000e+000
      vertex  2.500000e+000  1.800000e+001  5.000000e+000
      vertex -2.000000e+000  1.750000e+001  5.000000e+000
    endloop
  endfacet
  facet normal  0.000000e+000  -0.000000e+000  1.000000e+000
    outer loop
      vertex -2.000000e+000  1.750000e+001  5.000000e+000
      vertex  2.500000e+000  1.800000e+001  5.000000e+000
      vertex -2.500000e+000  1.800000e+001  5.000000e+000
    endloop
  endfacet
  facet normal  0.000000e+000  0.000000e+000  1.000000e+000
    outer loop
      vertex -2.000000e+000  1.750000e+001  5.000000e+000
      vertex -2.500000e+000  1.800000e+001  5.000000e+000
      vertex -2.000000e+000 -1.750000e+001  5.000000e+000
    endloop
  endfacet
  facet normal  0.000000e+000  0.000000e+000  1.000000e+000
    outer loop
      vertex -2.000000e+000 -1.750000e+001  5.000000e+000
      vertex -2.500000e+000  1.800000e+001  5.000000e+000
      vertex -2.500000e+000 -1.800000e+001  5.000000e+000
    endloop
  endfacet
  facet normal  0.000000e+000  0.000000e+000  1.000000e+000
    outer loop
      vertex -2.000000e+000 -1.750000e+001  5.000000e+000
      vertex -2.500000e+000 -1.800000e+001  5.000000e+000
      vertex  2.000000e+000 -1.750000e+001  5.000000e+000
    endloop
  endfacet
  facet normal  0.000000e+000  0.000000e+000  1.000000e+000
    outer loop
      vertex  2.000000e+000 -1.750000e+001  5.000000e+000
      vertex -2.500000e+000 -1.800000e+001  5.000000e+000
      vertex  2.500000e+000 -1.800000e+001  5.000000e+000
    endloop
  endfacet
  facet normal  0.000000e+000  0.000000e+000  1.000000e+000
    outer loop
      vertex  2.000000e+000 -1.750000e+001  5.000000e+000
      vertex  2.500000e+000 -1.800000e+001  5.000000e+000
      vertex  2.000000e+000  1.750000e+001  5.000000e+000
    endloop
  endfacet
  facet normal  -0.000000e+000  0.000000e+000  1.000000e+000
    outer loop
      vertex  2.000000e+000  1.750000e+001  5.000000e+000
      vertex  2.500000e+000 -1.800000e+001  5.000000e+000
      vertex  2.500000e+000  1.800000e+001  5.000000e+000
    endloop
  endfacet
  facet normal  0.000000e+000 -9.979878e-001  6.340633e-002
    outer loop
      vertex -4.500000e+000 -2.000000e+001  3.000000e+000
      vertex  4.500000e+000 -2.000000e+001  3.000000e+000
      vertex -4.483920e+000 -1.998392e+001  3.253106e+000
    endloop
  endfacet
  facet normal  0.000000e+000 -9.979878e-001  6.340633e-002
    outer loop
      vertex -4.483920e+000 -1.998392e+001  3.253106e+000
      vertex  4.500000e+000 -2.000000e+001  3.000000e+000
      vertex  4.483920e+000 -1.998392e+001  3.253106e+000
    endloop
  endfacet
  facet normal  0.000000e+000 -9.324938e-001  3.611859e-001
    outer loop
      vertex -4.483920e+000 -1.998392e+001  3.253106e+000
      vertex  4.483920e+000 -1.998392e+001  3.253106e+000
      vertex -4.136788e+000 -1.963679e+001  4.149315e+000
    endloop
  endfacet
  facet normal  0.000000e+000 -9.324939e-001  3.611860e-001
    outer loop
      vertex -4.136788e+000 -1.963679e+001  4.149315e+000
      vertex  4.483920e+000 -1.998392e+001  3.253106e+000
      vertex  4.136788e+000 -1.963679e+001  4.149315e+000
    endloop
  endfacet
  facet normal  0.000000e+000 -7.279809e-001  6.855973e-001
    outer loop
      vertex -4.136788e+000 -1.963679e+001  4.149315e+000
      vertex  4.136788e+000 -1.963679e+001  4.149315e+000
      vertex -3.745316e+000 -1.924531e+001  4.564990e+000
    endloop
  endfacet
  facet normal  0.000000e+000 -7.279810e-001  6.855973e-001
    outer loop
      vertex -3.745316e+000 -1.924531e+001  4.564990e+000
      vertex  4.136788e+000 -1.963679e+001  4.149315e+000
      vertex  3.745316e+000 -1.924531e+001  4.564990e+000
    endloop
  endfacet
  facet normal  0.000000e+000 -3.297768e-001  9.440590e-001
    outer loop
      vertex -3.745316e+000 -1.924531e+001  4.564990e+000
      vertex  3.745316e+000 -1.924531e+001  4.564990e+000
      vertex -2.500000e+000 -1.800000e+001  5.000000e+000
    endloop
  endfacet
  facet normal  0.000000e+000 -3.297767e-001  9.440589e-001
    outer loop
      vertex -2.500000e+000 -1.800000e+001  5.000000e+000
      vertex  3.745316e+000 -1.924531e+001  4.564990e+000
      vertex  2.500000e+000 -1.800000e+001  5.000000e+000
    endloop
  endfacet
  facet normal  9.979879e-001  0.000000e+000  6.340445e-002
    outer loop
      vertex  4.500000e+000 -2.000000e+001  3.000000e+000
      vertex  4.500000e+000  2.000000e+001  3.000000e+000
      vertex  4.483920e+000 -1.998392e+001  3.253106e+000
    endloop
  endfacet
  facet normal  9.979879e-001  -0.000000e+000  6.340445e-002
    outer loop
      vertex  4.483920e+000 -1.998392e+001  3.253106e+000
      vertex  4.500000e+000  2.000000e+001  3.000000e+000
      vertex  4.483920e+000  1.998392e+001  3.253106e+000
    endloop
  endfacet
  facet normal  9.324938e-001  0.000000e+000  3.611859e-001
    outer loop
      vertex  4.483920e+000 -1.998392e+001  3.253106e+000
      vertex  4.483920e+000  1.998392e+001  3.253106e+000
      vertex  4.136788e+000 -1.963679e+001  4.149315e+000
    endloop
  endfacet
  facet normal  9.324939e-001  -0.000000e+000  3.611860e-001
    outer loop
      vertex  4.136788e+000 -1.963679e+001  4.149315e+000
      vertex  4.483920e+000  1.998392e+001  3.253106e+000
      vertex  4.136788e+000  1.963679e+001  4.149315e+000
    endloop
  endfacet
  facet normal  7.279825e-001  0.000000e+000  6.855958e-001
    outer loop
      vertex  4.136788e+000 -1.963679e+001  4.149315e+000
      vertex  4.136788e+000  1.963679e+001  4.149315e+000
      vertex  3.745316e+000 -1.924531e+001  4.564990e+000
    endloop
  endfacet
  facet normal  7.279809e-001  3.156481e-008  6.855973e-001
    outer loop
      vertex  3.745316e+000 -1.924531e+001  4.564990e+000
      vertex  4.136788e+000  1.963679e+001  4.149315e+000
      vertex  3.745314e+000  1.924532e+001  4.564990e+000
    endloop
  endfacet
  facet normal  3.297763e-001  1.429890e-008  9.440591e-001
    outer loop
      vertex  3.745316e+000 -1.924531e+001  4.564990e+000
      vertex  3.745314e+000  1.924532e+001  4.564990e+000
      vertex  2.500000e+000 -1.800000e+001  5.000000e+000
    endloop
  endfacet
  facet normal  3.297767e-001  -0.000000e+000  9.440590e-001
    outer loop
      vertex  2.500000e+000 -1.800000e+001  5.000000e+000
      vertex  3.745314e+000  1.924532e+001  4.564990e+000
      vertex  2.500000e+000  1.800000e+001  5.000000e+000
    endloop
  endfacet
  facet normal  0.000000e+000  3.297767e-001  9.440589e-001
    outer loop
      vertex -2.500000e+000  1.800000e+001  5.000000e+000
      vertex  2.500000e+000  1.800000e+001  5.000000e+000
      vertex -3.745316e+000  1.924531e+001  4.564990e+000
    endloop
  endfacet
  facet normal -8.397138e-008  3.297764e-001  9.440591e-001
    outer loop
      vertex -3.745316e+000  1.924531e+001  4.564990e+000
      vertex  2.500000e+000  1.800000e+001  5.000000e+000
      vertex  3.745314e+000  1.924532e+001  4.564990e+000
    endloop
  endfacet
  facet normal -1.853667e-007  7.279809e-001  6.855974e-001
    outer loop
      vertex -3.745316e+000  1.924531e+001  4.564990e+000
      vertex  3.745314e+000  1.924532e+001  4.564990e+000
      vertex -4.136788e+000  1.963679e+001  4.149315e+000
    endloop
  endfacet
  facet normal  -0.000000e+000  7.279826e-001  6.855955e-001
    outer loop
      vertex -4.136788e+000  1.963679e+001  4.149315e+000
      vertex  3.745314e+000  1.924532e+001  4.564990e+000
      vertex  4.136788e+000  1.963679e+001  4.149315e+000
    endloop
  endfacet
  facet normal  0.000000e+000  9.324939e-001  3.611860e-001
    outer loop
      vertex -4.136788e+000  1.963679e+001  4.149315e+000
      vertex  4.136788e+000  1.963679e+001  4.149315e+000
      vertex -4.483920e+000  1.998392e+001  3.253106e+000
    endloop
  endfacet
  facet normal  -0.000000e+000  9.324938e-001  3.611859e-001
    outer loop
      vertex -4.483920e+000  1.998392e+001  3.253106e+000
      vertex  4.136788e+000  1.963679e+001  4.149315e+000
      vertex  4.483920e+000  1.998392e+001  3.253106e+000
    endloop
  endfacet
  facet normal  0.000000e+000  9.979878e-001  6.340633e-002
    outer loop
      vertex -4.483920e+000  1.998392e+001  3.253106e+000
      vertex  4.483920e+000  1.998392e+001  3.253106e+000
      vertex -4.500000e+000  2.000000e+001  3.000000e+000
    endloop
  endfacet
  facet normal  -0.000000e+000  9.979878e-001  6.340633e-002
    outer loop
      vertex -4.500000e+000  2.000000e+001  3.000000e+000
      vertex  4.483920e+000  1.998392e+001  3.253106e+000
      vertex  4.500000e+000  2.000000e+001  3.000000e+000
    endloop
  endfacet
  facet normal -3.297763e-001  0.000000e+000  9.440591e-001
    outer loop
      vertex -2.500000e+000 -1.800000e+001  5.000000e+000
      vertex -2.500000e+000  1.800000e+001  5.000000e+000
      vertex -3.745316e+000 -1.924531e+001  4.564990e+000
    endloop
  endfacet
  facet normal -3.297762e-001  0.000000e+000  9.440591e-001
    outer loop
      vertex -3.745316e+000 -1.924531e+001  4.564990e+000
      vertex -2.500000e+000  1.800000e+001  5.000000e+000
      vertex -3.745316e+000  1.924531e+001  4.564990e+000
    endloop
  endfacet
  facet normal -7.279825e-001  0.000000e+000  6.855958e-001
    outer loop
      vertex -3.745316e+000 -1.924531e+001  4.564990e+000
      vertex -3.745316e+000  1.924531e+001  4.564990e+000
      vertex -4.136788e+000 -1.963679e+001  4.149315e+000
    endloop
  endfacet
  facet normal -7.279825e-001  0.000000e+000  6.855958e-001
    outer loop
      vertex -4.136788e+000 -1.963679e+001  4.149315e+000
      vertex -3.745316e+000  1.924531e+001  4.564990e+000
      vertex -4.136788e+000  1.963679e+001  4.149315e+000
    endloop
  endfacet
  facet normal -9.324939e-001  0.000000e+000  3.611860e-001
    outer loop
      vertex -4.136788e+000 -1.963679e+001  4.149315e+000
      vertex -4.136788e+000  1.963679e+001  4.149315e+000
      vertex -4.483920e+000 -1.998392e+001  3.253106e+000
    endloop
  endfacet
  facet normal -9.324938e-001  0.000000e+000  3.611859e-001
    outer loop
      vertex -4.483920e+000 -1.998392e+001  3.253106e+000
      vertex -4.136788e+000  1.963679e+001  4.149315e+000
      vertex -4.483920e+000  1.998392e+001  3.253106e+000
    endloop
  endfacet
  facet normal -9.979879e-001  0.000000e+000  6.340445e-002
    outer loop
      vertex -4.483920e+000 -1.998392e+001  3.253106e+000
      vertex -4.483920e+000  1.998392e+001  3.253106e+000
      vertex -4.500000e+000 -2.000000e+001  3.000000e+000
    endloop
  endfacet
  facet normal -9.979879e-001  0.000000e+000  6.340445e-002
    outer loop
      vertex -4.500000e+000 -2.000000e+001  3.000000e+000
      vertex -4.483920e+000  1.998392e+001  3.253106e+000
      vertex -4.500000e+000  2.000000e+001  3.000000e+000
    endloop
  endfacet
  facet normal -1.000000e+000  0.000000e+000  -0.000000e+000
    outer loop
      vertex -2.000000e+000 -1.750000e+001  5.000000e+000
      vertex -2.000000e+000 -1.525000e+001  9.500000e+000
      vertex -2.000000e+000 -1.086602e+001  9.500000e+000
    endloop
  endfacet
  facet normal -1.000000e+000  0.000000e+000  -0.000000e+000
    outer loop
      vertex -2.000000e+000 -1.750000e+001  5.000000e+000
      vertex -2.000000e+000 -1.086602e+001  9.500000e+000
      vertex -2.000000e+000 -1.034202e+001  9.060308e+000
    endloop
  endfacet
  facet normal -9.999999e-001  0.000000e+000  -0.000000e+000
    outer loop
      vertex -2.000000e+000 -1.750000e+001  5.000000e+000
      vertex -2.000000e+000 -1.034202e+001  9.060308e+000
      vertex -2.000000e+000 -9.657980e+000  9.060308e+000
    endloop
  endfacet
  facet normal -1.000000e+000  0.000000e+000  -0.000000e+000
    outer loop
      vertex -2.000000e+000 -1.750000e+001  5.000000e+000
      vertex -2.000000e+000 -9.657980e+000  9.060308e+000
      vertex -2.000000e+000 -3.420202e-001  9.060308e+000
    endloop
  endfacet
  facet normal -1.000000e+000  0.000000e+000  -0.000000e+000
    outer loop
      vertex -2.000000e+000 -1.750000e+001  5.000000e+000
      vertex -2.000000e+000 -3.420202e-001  9.060308e+000
      vertex -2.000000e+000  3.420202e-001  9.060308e+000
    endloop
  endfacet
  facet normal -1.000000e+000  0.000000e+000  -0.000000e+000
    outer loop
      vertex -2.000000e+000 -1.750000e+001  5.000000e+000
      vertex -2.000000e+000  3.420202e-001  9.060308e+000
      vertex -2.000000e+000  9.657980e+000  9.060308e+000
    endloop
  endfacet
  facet normal -1.000000e+000  0.000000e+000  -0.000000e+000
    outer loop
      vertex -2.000000e+000 -1.750000e+001  5.000000e+000
      vertex -2.000000e+000  9.657980e+000  9.060308e+000
      vertex -2.000000e+000  1.750000e+001  5.000000e+000
    endloop
  endfacet
  facet normal -1.000000e+000  -0.000000e+000  0.000000e+000
    outer loop
      vertex -2.000000e+000  1.086602e+001  9.500000e+000
      vertex -2.000000e+000  1.525000e+001  9.500000e+000
      vertex -2.000000e+000  1.034202e+001  9.060308e+000
    endloop
  endfacet
  facet normal -1.000000e+000  0.000000e+000  0.000000e+000
    outer loop
      vertex -2.000000e+000  1.034202e+001  9.060308e+000
      vertex -2.000000e+000  1.525000e+001  9.500000e+000
      vertex -2.000000e+000  1.750000e+001  5.000000e+000
    endloop
  endfacet
  facet normal -9.999999e-001  0.000000e+000  0.000000e+000
    outer loop
      vertex -2.000000e+000  1.034202e+001  9.060308e+000
      vertex -2.000000e+000  1.750000e+001  5.000000e+000
      vertex -2.000000e+000  9.657980e+000  9.060308e+000
    endloop
  endfacet
  facet normal -1.000000e+000  0.000000e+000  0.000000e+000
    outer loop
      vertex -2.000000e+000  9.657980e+000  9.060308e+000
      vertex -2.000000e+000  3.420202e-001  9.060308e+000
      vertex -2.000000e+000  9.133975e+000  9.500000e+000
    endloop
  endfacet
  facet normal -1.000000e+000  -0.000000e+000  0.000000e+000
    outer loop
      vertex -2.000000e+000  9.133975e+000  9.500000e+000
      vertex -2.000000e+000  3.420202e-001  9.060308e+000
      vertex -2.000000e+000  8.660254e-001  9.500000e+000
    endloop
  endfacet
  facet normal -1.000000e+000  0.000000e+000  0.000000e+000
    outer loop
      vertex -2.000000e+000 -3.420202e-001  9.060308e+000
      vertex -2.000000e+000 -9.657980e+000  9.060308e+000
      vertex -2.000000e+000 -8.660254e-001  9.500000e+000
    endloop
  endfacet
  facet normal -1.000000e+000  -0.000000e+000  0.000000e+000
    outer loop
      vertex -2.000000e+000 -8.660254e-001  9.500000e+000
      vertex -2.000000e+000 -9.657980e+000  9.060308e+000
      vertex -2.000000e+000 -9.133975e+000  9.500000e+000
    endloop
  endfacet
  facet normal  1.507516e-002  0.000000e+000  9.998864e-001
    outer loop
      vertex -2.000000e+000 -1.034202e+001  9.060308e+000
      vertex  2.000000e+000 -1.000000e+001  9.000000e+000
      vertex -2.000000e+000 -9.657980e+000  9.060308e+000
    endloop
  endfacet
  facet normal -1.878884e-002  3.826162e-001  9.237163e-001
    outer loop
      vertex  2.000000e+000 -1.070711e+001  9.292893e+000
      vertex  2.000000e+000 -1.000000e+001  9.000000e+000
      vertex -2.000000e+000 -1.034202e+001  9.060308e+000
    endloop
  endfacet
  facet normal  1.412410e-002  6.427236e-001  7.659679e-001
    outer loop
      vertex  2.000000e+000 -1.070711e+001  9.292893e+000
      vertex -2.000000e+000 -1.034202e+001  9.060308e+000
      vertex -2.000000e+000 -1.086602e+001  9.500000e+000
    endloop
  endfacet
  facet normal  0.000000e+000 -9.238794e-001  3.826837e-001
    outer loop
      vertex  2.000000e+000 -9.292893e+000  9.292893e+000
      vertex  2.000000e+000 -9.000000e+000  1.000000e+001
      vertex -1.500000e+000 -9.000000e+000  1.000000e+001
    endloop
  endfacet
  facet normal -4.161716e-002 -9.790086e-001  1.995245e-001
    outer loop
      vertex  2.000000e+000 -9.292893e+000  9.292893e+000
      vertex -1.500000e+000 -9.000000e+000  1.000000e+001
      vertex -1.727863e+000 -9.001511e+000  9.945060e+000
    endloop
  endfacet
  facet normal -4.482014e-002 -9.821606e-001  1.826243e-001
    outer loop
      vertex  2.000000e+000 -9.292893e+000  9.292893e+000
      vertex -1.727863e+000 -9.001511e+000  9.945060e+000
      vertex -1.905583e+000 -9.021785e+000  9.792408e+000
    endloop
  endfacet
  facet normal -1.819923e-002 -9.315048e-001  3.632735e-001
    outer loop
      vertex  2.000000e+000 -9.292893e+000  9.292893e+000
      vertex -1.905583e+000 -9.021785e+000  9.792408e+000
      vertex -2.000000e+000 -9.133975e+000  9.500000e+000
    endloop
  endfacet
  facet normal  1.412410e-002 -6.427236e-001  7.659679e-001
    outer loop
      vertex  2.000000e+000 -9.292893e+000  9.292893e+000
      vertex -2.000000e+000 -9.133975e+000  9.500000e+000
      vertex -2.000000e+000 -9.657980e+000  9.060308e+000
    endloop
  endfacet
  facet normal -1.878884e-002 -3.826162e-001  9.237163e-001
    outer loop
      vertex  2.000000e+000 -9.292893e+000  9.292893e+000
      vertex -2.000000e+000 -9.657980e+000  9.060308e+000
      vertex  2.000000e+000 -1.000000e+001  9.000000e+000
    endloop
  endfacet
  facet normal -1.688886e-002  9.237477e-001  3.826292e-001
    outer loop
      vertex  2.000000e+000 -1.100000e+001  1.000000e+001
      vertex  2.000000e+000 -1.070711e+001  9.292893e+000
      vertex -2.000000e+000 -1.086602e+001  9.500000e+000
    endloop
  endfacet
  facet normal -1.404957e-002  9.320210e-001  3.621317e-001
    outer loop
      vertex  2.000000e+000 -1.100000e+001  1.000000e+001
      vertex -2.000000e+000 -1.086602e+001  9.500000e+000
      vertex -1.905583e+000 -1.097822e+001  9.792408e+000
    endloop
  endfacet
  facet normal -1.565109e-003  9.910547e-001  1.334472e-001
    outer loop
      vertex  2.000000e+000 -1.100000e+001  1.000000e+001
      vertex -1.905583e+000 -1.097822e+001  9.792408e+000
      vertex -1.727863e+000 -1.099849e+001  9.945060e+000
    endloop
  endfacet
  facet normal  0.000000e+000  9.996222e-001  2.748532e-002
    outer loop
      vertex  2.000000e+000 -1.100000e+001  1.000000e+001
      vertex -1.727863e+000 -1.099849e+001  9.945060e+000
      vertex -1.500000e+000 -1.100000e+001  1.000000e+001
    endloop
  endfacet
  facet normal  1.000000e+000  0.000000e+000  0.000000e+000
    outer loop
      vertex  2.000000e+000  1.750000e+001  5.000000e+000
      vertex  2.000000e+000  1.513820e+001  9.723607e+000
      vertex  2.000000e+000  1.100000e+001  1.000000e+001
    endloop
  endfacet
  facet normal  1.000000e+000  0.000000e+000  0.000000e+000
    outer loop
      vertex  2.000000e+000  1.750000e+001  5.000000e+000
      vertex  2.000000e+000  1.100000e+001  1.000000e+001
      vertex  2.000000e+000  1.070711e+001  9.292893e+000
    endloop
  endfacet
  facet normal  9.999999e-001  0.000000e+000  0.000000e+000
    outer loop
      vertex  2.000000e+000  1.750000e+001  5.000000e+000
      vertex  2.000000e+000  1.070711e+001  9.292893e+000
      vertex  2.000000e+000  1.000000e+001  9.000000e+000
    endloop
  endfacet
  facet normal  1.000000e+000  0.000000e+000  0.000000e+000
    outer loop
      vertex  2.000000e+000  1.750000e+001  5.000000e+000
      vertex  2.000000e+000  1.000000e+001  9.000000e+000
      vertex  2.000000e+000 -1.836910e-016  9.000000e+000
    endloop
  endfacet
  facet normal  1.000000e+000  0.000000e+000  0.000000e+000
    outer loop
      vertex  2.000000e+000  1.750000e+001  5.000000e+000
      vertex  2.000000e+000 -1.836910e-016  9.000000e+000
      vertex  2.000000e+000 -1.000000e+001  9.000000e+000
    endloop
  endfacet
  facet normal  1.000000e+000  0.000000e+000  0.000000e+000
    outer loop
      vertex  2.000000e+000  1.750000e+001  5.000000e+000
      vertex  2.000000e+000 -1.000000e+001  9.000000e+000
      vertex  2.000000e+000 -1.750000e+001  5.000000e+000
    endloop
  endfacet
  facet normal  1.000000e+000  0.000000e+000  0.000000e+000
    outer loop
      vertex  2.000000e+000  1.513820e+001  9.723607e+000
      vertex  2.000000e+000  1.495385e+001  9.925325e+000
      vertex  2.000000e+000  1.100000e+001  1.000000e+001
    endloop
  endfacet
  facet normal  1.000000e+000  -0.000000e+000  0.000000e+000
    outer loop
      vertex  2.000000e+000  1.100000e+001  1.000000e+001
      vertex  2.000000e+000  1.495385e+001  9.925325e+000
      vertex  2.000000e+000  1.469098e+001  1.000000e+001
    endloop
  endfacet
  facet normal  9.999999e-001  -0.000000e+000  0.000000e+000
    outer loop
      vertex  2.000000e+000  9.000000e+000  1.000000e+001
      vertex  2.000000e+000  1.000000e+000  1.000000e+001
      vertex  2.000000e+000  9.292893e+000  9.292893e+000
    endloop
  endfacet
  facet normal  1.000000e+000  0.000000e+000  0.000000e+000
    outer loop
      vertex  2.000000e+000  9.292893e+000  9.292893e+000
      vertex  2.000000e+000  1.000000e+000  1.000000e+001
      vertex  2.000000e+000  7.071068e-001  9.292893e+000
    endloop
  endfacet
  facet normal  1.000000e+000  -0.000000e+000  0.000000e+000
    outer loop
      vertex  2.000000e+000  9.292893e+000  9.292893e+000
      vertex  2.000000e+000  7.071068e-001  9.292893e+000
      vertex  2.000000e+000  1.000000e+001  9.000000e+000
    endloop
  endfacet
  facet normal  1.000000e+000  0.000000e+000  0.000000e+000
    outer loop
      vertex  2.000000e+000  1.000000e+001  9.000000e+000
      vertex  2.000000e+000  7.071068e-001  9.292893e+000
      vertex  2.000000e+000 -1.836910e-016  9.000000e+000
    endloop
  endfacet
  facet normal  9.999999e-001  -0.000000e+000  0.000000e+000
    outer loop
      vertex  2.000000e+000 -1.000000e+000  1.000000e+001
      vertex  2.000000e+000 -9.000000e+000  1.000000e+001
      vertex  2.000000e+000 -7.071068e-001  9.292893e+000
    endloop
  endfacet
  facet normal  1.000000e+000  0.000000e+000  0.000000e+000
    outer loop
      vertex  2.000000e+000 -7.071068e-001  9.292893e+000
      vertex  2.000000e+000 -9.000000e+000  1.000000e+001
      vertex  2.000000e+000 -9.292893e+000  9.292893e+000
    endloop
  endfacet
  facet normal  1.000000e+000  -0.000000e+000  0.000000e+000
    outer loop
      vertex  2.000000e+000 -7.071068e-001  9.292893e+000
      vertex  2.000000e+000 -9.292893e+000  9.292893e+000
      vertex  2.000000e+000 -1.836910e-016  9.000000e+000
    endloop
  endfacet
  facet normal  1.000000e+000  0.000000e+000  0.000000e+000
    outer loop
      vertex  2.000000e+000 -1.836910e-016  9.000000e+000
      vertex  2.000000e+000 -9.292893e+000  9.292893e+000
      vertex  2.000000e+000 -1.000000e+001  9.000000e+000
    endloop
  endfacet
  facet normal  1.000000e+000  0.000000e+000  0.000000e+000
    outer loop
      vertex  2.000000e+000 -1.469098e+001  1.000000e+001
      vertex  2.000000e+000 -1.495385e+001  9.925325e+000
      vertex  2.000000e+000 -1.100000e+001  1.000000e+001
    endloop
  endfacet
  facet normal  1.000000e+000  0.000000e+000  0.000000e+000
    outer loop
      vertex  2.000000e+000 -1.100000e+001  1.000000e+001
      vertex  2.000000e+000 -1.495385e+001  9.925325e+000
      vertex  2.000000e+000 -1.513820e+001  9.723607e+000
    endloop
  endfacet
  facet normal  1.000000e+000  -0.000000e+000  0.000000e+000
    outer loop
      vertex  2.000000e+000 -1.100000e+001  1.000000e+001
      vertex  2.000000e+000 -1.513820e+001  9.723607e+000
      vertex  2.000000e+000 -1.070711e+001  9.292893e+000
    endloop
  endfacet
  facet normal  9.999999e-001  0.000000e+000  0.000000e+000
    outer loop
      vertex  2.000000e+000 -1.070711e+001  9.292893e+000
      vertex  2.000000e+000 -1.513820e+001  9.723607e+000
      vertex  2.000000e+000 -1.750000e+001  5.000000e+000
    endloop
  endfacet
  facet normal  9.999999e-001  0.000000e+000  0.000000e+000
    outer loop
      vertex  2.000000e+000 -1.070711e+001  9.292893e+000
      vertex  2.000000e+000 -1.750000e+001  5.000000e+000
      vertex  2.000000e+000 -1.000000e+001  9.000000e+000
    endloop
  endfacet
  facet normal  0.000000e+000 -8.944272e-001  4.472136e-001
    outer loop
      vertex -2.000000e+000 -1.750000e+001  5.000000e+000
      vertex  2.000000e+000 -1.750000e+001  5.000000e+000
      vertex -2.000000e+000 -1.525000e+001  9.500000e+000
    endloop
  endfacet
  facet normal -1.015766e-007 -8.944272e-001  4.472135e-001
    outer loop
      vertex -2.000000e+000 -1.525000e+001  9.500000e+000
      vertex  2.000000e+000 -1.750000e+001  5.000000e+000
      vertex  2.000000e+000 -1.513820e+001  9.723607e+000
    endloop
  endfacet
  facet normal  0.000000e+000 -8.944279e-001  4.472120e-001
    outer loop
      vertex -2.000000e+000 -1.525000e+001  9.500000e+000
      vertex  2.000000e+000 -1.513820e+001  9.723607e+000
      vertex -1.947214e+000 -1.513820e+001  9.723607e+000
    endloop
  endfacet
  facet normal  -0.000000e+000  0.000000e+000  1.000000e+000
    outer loop
      vertex  2.000000e+000 -1.100000e+001  1.000000e+001
      vertex -1.500000e+000 -1.100000e+001  1.000000e+001
      vertex  2.000000e+000 -1.469098e+001  1.000000e+001
    endloop
  endfacet
  facet normal  0.000000e+000  0.000000e+000  1.000000e+000
    outer loop
      vertex  2.000000e+000 -1.469098e+001  1.000000e+001
      vertex -1.500000e+000 -1.100000e+001  1.000000e+001
      vertex -1.500000e+000 -1.469098e+001  1.000000e+001
    endloop
  endfacet
  facet normal  0.000000e+000 -7.989199e-001  6.014375e-001
    outer loop
      vertex -1.947214e+000 -1.513820e+001  9.723607e+000
      vertex  2.000000e+000 -1.513820e+001  9.723607e+000
      vertex -1.838563e+000 -1.502955e+001  9.867931e+000
    endloop
  endfacet
  facet normal  4.470488e-003 -7.381673e-001  6.746028e-001
    outer loop
      vertex -1.838563e+000 -1.502955e+001  9.867931e+000
      vertex  2.000000e+000 -1.513820e+001  9.723607e+000
      vertex  2.000000e+000 -1.495385e+001  9.925325e+000
    endloop
  endfacet
  facet normal -6.916018e-003 -3.573942e-001  9.339281e-001
    outer loop
      vertex -1.838563e+000 -1.502955e+001  9.867931e+000
      vertex  2.000000e+000 -1.495385e+001  9.925325e+000
      vertex -1.500000e+000 -1.469098e+001  1.000000e+001
    endloop
  endfacet
  facet normal  0.000000e+000 -2.732661e-001  9.619385e-001
    outer loop
      vertex -1.500000e+000 -1.469098e+001  1.000000e+001
      vertex  2.000000e+000 -1.495385e+001  9.925325e+000
      vertex  2.000000e+000 -1.469098e+001  1.000000e+001
    endloop
  endfacet
  facet normal -9.516212e-001  0.000000e+000  3.072738e-001
    outer loop
      vertex -2.000000e+000 -1.086602e+001  9.500000e+000
      vertex -2.000000e+000 -1.525000e+001  9.500000e+000
      vertex -1.905583e+000 -1.097822e+001  9.792408e+000
    endloop
  endfacet
  facet normal -9.738976e-001  5.993427e-003  2.269088e-001
    outer loop
      vertex -1.905583e+000 -1.097822e+001  9.792408e+000
      vertex -2.000000e+000 -1.525000e+001  9.500000e+000
      vertex -1.947214e+000 -1.513820e+001  9.723607e+000
    endloop
  endfacet
  facet normal -6.519624e-001 -6.015667e-003  7.582273e-001
    outer loop
      vertex -1.905583e+000 -1.097822e+001  9.792408e+000
      vertex -1.947214e+000 -1.513820e+001  9.723607e+000
      vertex -1.727863e+000 -1.099849e+001  9.945060e+000
    endloop
  endfacet
  facet normal -8.027009e-001  1.063449e-002  5.962868e-001
    outer loop
      vertex -1.727863e+000 -1.099849e+001  9.945060e+000
      vertex -1.947214e+000 -1.513820e+001  9.723607e+000
      vertex -1.838563e+000 -1.502955e+001  9.867931e+000
    endloop
  endfacet
  facet normal -2.344527e-001 -1.216030e-002  9.720514e-001
    outer loop
      vertex -1.727863e+000 -1.099849e+001  9.945060e+000
      vertex -1.838563e+000 -1.502955e+001  9.867931e+000
      vertex -1.500000e+000 -1.100000e+001  1.000000e+001
    endloop
  endfacet
  facet normal -3.634149e-001  0.000000e+000  9.316275e-001
    outer loop
      vertex -1.500000e+000 -1.100000e+001  1.000000e+001
      vertex -1.838563e+000 -1.502955e+001  9.867931e+000
      vertex -1.500000e+000 -1.469098e+001  1.000000e+001
    endloop
  endfacet
  facet normal  1.507516e-002  0.000000e+000  9.998864e-001
    outer loop
      vertex -2.000000e+000 -3.420202e-001  9.060308e+000
      vertex  2.000000e+000 -1.836910e-016  9.000000e+000
      vertex -2.000000e+000  3.420202e-001  9.060308e+000
    endloop
  endfacet
  facet normal -1.878885e-002  3.826161e-001  9.237164e-001
    outer loop
      vertex  2.000000e+000 -7.071068e-001  9.292893e+000
      vertex  2.000000e+000 -1.836910e-016  9.000000e+000
      vertex -2.000000e+000 -3.420202e-001  9.060308e+000
    endloop
  endfacet
  facet normal  1.412408e-002  6.427234e-001  7.659681e-001
    outer loop
      vertex  2.000000e+000 -7.071068e-001  9.292893e+000
      vertex -2.000000e+000 -3.420202e-001  9.060308e+000
      vertex -2.000000e+000 -8.660254e-001  9.500000e+000
    endloop
  endfacet
  facet normal  0.000000e+000 -9.238795e-001  3.826835e-001
    outer loop
      vertex  2.000000e+000  7.071068e-001  9.292893e+000
      vertex  2.000000e+000  1.000000e+000  1.000000e+001
      vertex -1.500000e+000  1.000000e+000  1.000000e+001
    endloop
  endfacet
  facet normal -4.161775e-002 -9.790092e-001  1.995216e-001
    outer loop
      vertex  2.000000e+000  7.071068e-001  9.292893e+000
      vertex -1.500000e+000  1.000000e+000  1.000000e+001
      vertex -1.727863e+000  9.984897e-001  9.945060e+000
    endloop
  endfacet
  facet normal -4.482016e-002 -9.821606e-001  1.826243e-001
    outer loop
      vertex  2.000000e+000  7.071068e-001  9.292893e+000
      vertex -1.727863e+000  9.984897e-001  9.945060e+000
      vertex -1.905583e+000  9.782155e-001  9.792408e+000
    endloop
  endfacet
  facet normal -1.819930e-002 -9.315048e-001  3.632732e-001
    outer loop
      vertex  2.000000e+000  7.071068e-001  9.292893e+000
      vertex -1.905583e+000  9.782155e-001  9.792408e+000
      vertex -2.000000e+000  8.660254e-001  9.500000e+000
    endloop
  endfacet
  facet normal  1.412408e-002 -6.427234e-001  7.659681e-001
    outer loop
      vertex  2.000000e+000  7.071068e-001  9.292893e+000
      vertex -2.000000e+000  8.660254e-001  9.500000e+000
      vertex -2.000000e+000  3.420202e-001  9.060308e+000
    endloop
  endfacet
  facet normal -1.878885e-002 -3.826161e-001  9.237164e-001
    outer loop
      vertex  2.000000e+000  7.071068e-001  9.292893e+000
      vertex -2.000000e+000  3.420202e-001  9.060308e+000
      vertex  2.000000e+000 -1.836910e-016  9.000000e+000
    endloop
  endfacet
  facet normal -1.688894e-002  9.237477e-001  3.826289e-001
    outer loop
      vertex  2.000000e+000 -1.000000e+000  1.000000e+001
      vertex  2.000000e+000 -7.071068e-001  9.292893e+000
      vertex -2.000000e+000 -8.660254e-001  9.500000e+000
    endloop
  endfacet
  facet normal -1.404962e-002  9.320212e-001  3.621313e-001
    outer loop
      vertex  2.000000e+000 -1.000000e+000  1.000000e+001
      vertex -2.000000e+000 -8.660254e-001  9.500000e+000
      vertex -1.905583e+000 -9.782155e-001  9.792408e+000
    endloop
  endfacet
  facet normal -1.565190e-003  9.910547e-001  1.334473e-001
    outer loop
      vertex  2.000000e+000 -1.000000e+000  1.000000e+001
      vertex -1.905583e+000 -9.782155e-001  9.792408e+000
      vertex -1.727863e+000 -9.984897e-001  9.945060e+000
    endloop
  endfacet
  facet normal  0.000000e+000  9.996224e-001  2.747990e-002
    outer loop
      vertex  2.000000e+000 -1.000000e+000  1.000000e+001
      vertex -1.727863e+000 -9.984897e-001  9.945060e+000
      vertex -1.500000e+000 -1.000000e+000  1.000000e+001
    endloop
  endfacet
  facet normal  -0.000000e+000  0.000000e+000  1.000000e+000
    outer loop
      vertex  2.000000e+000 -1.000000e+000  1.000000e+001
      vertex -1.500000e+000 -1.000000e+000  1.000000e+001
      vertex  2.000000e+000 -9.000000e+000  1.000000e+001
    endloop
  endfacet
  facet normal  0.000000e+000  0.000000e+000  1.000000e+000
    outer loop
      vertex  2.000000e+000 -9.000000e+000  1.000000e+001
      vertex -1.500000e+000 -1.000000e+000  1.000000e+001
      vertex -1.500000e+000 -9.000000e+000  1.000000e+001
    endloop
  endfacet
  facet normal -9.516211e-001  0.000000e+000  3.072737e-001
    outer loop
      vertex -2.000000e+000 -8.660254e-001  9.500000e+000
      vertex -2.000000e+000 -9.133975e+000  9.500000e+000
      vertex -1.905583e+000 -9.782155e-001  9.792408e+000
    endloop
  endfacet
  facet normal -9.516212e-001  0.000000e+000  3.072738e-001
    outer loop
      vertex -1.905583e+000 -9.782155e-001  9.792408e+000
      vertex -2.000000e+000 -9.133975e+000  9.500000e+000
      vertex -1.905583e+000 -9.021785e+000  9.792408e+000
    endloop
  endfacet
  facet normal -6.515794e-001  0.000000e+000  7.585804e-001
    outer loop
      vertex -1.905583e+000 -9.782155e-001  9.792408e+000
      vertex -1.905583e+000 -9.021785e+000  9.792408e+000
      vertex -1.727863e+000 -9.984897e-001  9.945060e+000
    endloop
  endfacet
  facet normal -6.515794e-001  0.000000e+000  7.585804e-001
    outer loop
      vertex -1.727863e+000 -9.984897e-001  9.945060e+000
      vertex -1.905583e+000 -9.021785e+000  9.792408e+000
      vertex -1.727863e+000 -9.001511e+000  9.945060e+000
    endloop
  endfacet
  facet normal -2.343939e-001  0.000000e+000  9.721417e-001
    outer loop
      vertex -1.727863e+000 -9.984897e-001  9.945060e+000
      vertex -1.727863e+000 -9.001511e+000  9.945060e+000
      vertex -1.500000e+000 -1.000000e+000  1.000000e+001
    endloop
  endfacet
  facet normal -2.343939e-001  0.000000e+000  9.721417e-001
    outer loop
      vertex -1.500000e+000 -1.000000e+000  1.000000e+001
      vertex -1.727863e+000 -9.001511e+000  9.945060e+000
      vertex -1.500000e+000 -9.000000e+000  1.000000e+001
    endloop
  endfacet
  facet normal  1.507516e-002  0.000000e+000  9.998864e-001
    outer loop
      vertex -2.000000e+000  9.657980e+000  9.060308e+000
      vertex  2.000000e+000  1.000000e+001  9.000000e+000
      vertex -2.000000e+000  1.034202e+001  9.060308e+000
    endloop
  endfacet
  facet normal -1.878884e-002  3.826162e-001  9.237163e-001
    outer loop
      vertex  2.000000e+000  9.292893e+000  9.292893e+000
      vertex  2.000000e+000  1.000000e+001  9.000000e+000
      vertex -2.000000e+000  9.657980e+000  9.060308e+000
    endloop
  endfacet
  facet normal  1.412410e-002  6.427236e-001  7.659679e-001
    outer loop
      vertex  2.000000e+000  9.292893e+000  9.292893e+000
      vertex -2.000000e+000  9.657980e+000  9.060308e+000
      vertex -2.000000e+000  9.133975e+000  9.500000e+000
    endloop
  endfacet
  facet normal  0.000000e+000 -9.238794e-001  3.826837e-001
    outer loop
      vertex  2.000000e+000  1.070711e+001  9.292893e+000
      vertex  2.000000e+000  1.100000e+001  1.000000e+001
      vertex -1.500000e+000  1.100000e+001  1.000000e+001
    endloop
  endfacet
  facet normal -4.161716e-002 -9.790086e-001  1.995245e-001
    outer loop
      vertex  2.000000e+000  1.070711e+001  9.292893e+000
      vertex -1.500000e+000  1.100000e+001  1.000000e+001
      vertex -1.727863e+000  1.099849e+001  9.945060e+000
    endloop
  endfacet
  facet normal -4.482014e-002 -9.821606e-001  1.826243e-001
    outer loop
      vertex  2.000000e+000  1.070711e+001  9.292893e+000
      vertex -1.727863e+000  1.099849e+001  9.945060e+000
      vertex -1.905583e+000  1.097822e+001  9.792408e+000
    endloop
  endfacet
  facet normal -1.819923e-002 -9.315048e-001  3.632735e-001
    outer loop
      vertex  2.000000e+000  1.070711e+001  9.292893e+000
      vertex -1.905583e+000  1.097822e+001  9.792408e+000
      vertex -2.000000e+000  1.086602e+001  9.500000e+000
    endloop
  endfacet
  facet normal  1.412410e-002 -6.427236e-001  7.659679e-001
    outer loop
      vertex  2.000000e+000  1.070711e+001  9.292893e+000
      vertex -2.000000e+000  1.086602e+001  9.500000e+000
      vertex -2.000000e+000  1.034202e+001  9.060308e+000
    endloop
  endfacet
  facet normal -1.878884e-002 -3.826162e-001  9.237163e-001
    outer loop
      vertex  2.000000e+000  1.070711e+001  9.292893e+000
      vertex -2.000000e+000  1.034202e+001  9.060308e+000
      vertex  2.000000e+000  1.000000e+001  9.000000e+000
    endloop
  endfacet
  facet normal -1.688886e-002  9.237477e-001  3.826292e-001
    outer loop
      vertex  2.000000e+000  9.000000e+000  1.000000e+001
      vertex  2.000000e+000  9.292893e+000  9.292893e+000
      vertex -2.000000e+000  9.133975e+000  9.500000e+000
    endloop
  endfacet
  facet normal -1.404957e-002  9.320210e-001  3.621317e-001
    outer loop
      vertex  2.000000e+000  9.000000e+000  1.000000e+001
      vertex -2.000000e+000  9.133975e+000  9.500000e+000
      vertex -1.905583e+000  9.021785e+000  9.792408e+000
    endloop
  endfacet
  facet normal -1.565109e-003  9.910547e-001  1.334472e-001
    outer loop
      vertex  2.000000e+000  9.000000e+000  1.000000e+001
      vertex -1.905583e+000  9.021785e+000  9.792408e+000
      vertex -1.727863e+000  9.001511e+000  9.945060e+000
    endloop
  endfacet
  facet normal  0.000000e+000  9.996222e-001  2.748532e-002
    outer loop
      vertex  2.000000e+000  9.000000e+000  1.000000e+001
      vertex -1.727863e+000  9.001511e+000  9.945060e+000
      vertex -1.500000e+000  9.000000e+000  1.000000e+001
    endloop
  endfacet
  facet normal  -0.000000e+000  0.000000e+000  1.000000e+000
    outer loop
      vertex  2.000000e+000  9.000000e+000  1.000000e+001
      vertex -1.500000e+000  9.000000e+000  1.000000e+001
      vertex  2.000000e+000  1.000000e+000  1.000000e+001
    endloop
  endfacet
  facet normal  0.000000e+000  0.000000e+000  1.000000e+000
    outer loop
      vertex  2.000000e+000  1.000000e+000  1.000000e+001
      vertex -1.500000e+000  9.000000e+000  1.000000e+001
      vertex -1.500000e+000  1.000000e+000  1.000000e+001
    endloop
  endfacet
  facet normal -9.516211e-001  0.000000e+000  3.072737e-001
    outer loop
      vertex -2.000000e+000  9.133975e+000  9.500000e+000
      vertex -2.000000e+000  8.660254e-001  9.500000e+000
      vertex -1.905583e+000  9.021785e+000  9.792408e+000
    endloop
  endfacet
  facet normal -9.516212e-001  0.000000e+000  3.072738e-001
    outer loop
      vertex -1.905583e+000  9.021785e+000  9.792408e+000
      vertex -2.000000e+000  8.660254e-001  9.500000e+000
      vertex -1.905583e+000  9.782155e-001  9.792408e+000
    endloop
  endfacet
  facet normal -6.515794e-001  0.000000e+000  7.585804e-001
    outer loop
      vertex -1.905583e+000  9.021785e+000  9.792408e+000
      vertex -1.905583e+000  9.782155e-001  9.792408e+000
      vertex -1.727863e+000  9.001511e+000  9.945060e+000
    endloop
  endfacet
  facet normal -6.515794e-001  0.000000e+000  7.585804e-001
    outer loop
      vertex -1.727863e+000  9.001511e+000  9.945060e+000
      vertex -1.905583e+000  9.782155e-001  9.792408e+000
      vertex -1.727863e+000  9.984897e-001  9.945060e+000
    endloop
  endfacet
  facet normal -2.343939e-001  0.000000e+000  9.721417e-001
    outer loop
      vertex -1.727863e+000  9.001511e+000  9.945060e+000
      vertex -1.727863e+000  9.984897e-001  9.945060e+000
      vertex -1.500000e+000  9.000000e+000  1.000000e+001
    endloop
  endfacet
  facet normal -2.343939e-001  0.000000e+000  9.721417e-001
    outer loop
      vertex -1.500000e+000  9.000000e+000  1.000000e+001
      vertex -1.727863e+000  9.984897e-001  9.945060e+000
      vertex -1.500000e+000  1.000000e+000  1.000000e+001
    endloop
  endfacet
  facet normal  -0.000000e+000  0.000000e+000  1.000000e+000
    outer loop
      vertex  2.000000e+000  1.469098e+001  1.000000e+001
      vertex -1.500000e+000  1.469098e+001  1.000000e+001
      vertex  2.000000e+000  1.100000e+001  1.000000e+001
    endloop
  endfacet
  facet normal  0.000000e+000  0.000000e+000  1.000000e+000
    outer loop
      vertex  2.000000e+000  1.100000e+001  1.000000e+001
      vertex -1.500000e+000  1.469098e+001  1.000000e+001
      vertex -1.500000e+000  1.100000e+001  1.000000e+001
    endloop
  endfacet
  facet normal  -0.000000e+000  8.944272e-001  4.472135e-001
    outer loop
      vertex  2.000000e+000  1.750000e+001  5.000000e+000
      vertex -2.000000e+000  1.750000e+001  5.000000e+000
      vertex  2.000000e+000  1.513820e+001  9.723607e+000
    endloop
  endfacet
  facet normal -1.066240e-007  8.944272e-001  4.472136e-001
    outer loop
      vertex  2.000000e+000  1.513820e+001  9.723607e+000
      vertex -2.000000e+000  1.750000e+001  5.000000e+000
      vertex -2.000000e+000  1.525000e+001  9.500000e+000
    endloop
  endfacet
  facet normal  0.000000e+000  8.944279e-001  4.472120e-001
    outer loop
      vertex  2.000000e+000  1.513820e+001  9.723607e+000
      vertex -2.000000e+000  1.525000e+001  9.500000e+000
      vertex -1.947214e+000  1.513820e+001  9.723607e+000
    endloop
  endfacet
  facet normal  0.000000e+000  3.634129e-001  9.316282e-001
    outer loop
      vertex -1.500000e+000  1.469098e+001  1.000000e+001
      vertex  2.000000e+000  1.469098e+001  1.000000e+001
      vertex -1.838563e+000  1.502955e+001  9.867931e+000
    endloop
  endfacet
  facet normal -8.993521e-003  2.732551e-001  9.618996e-001
    outer loop
      vertex -1.838563e+000  1.502955e+001  9.867931e+000
      vertex  2.000000e+000  1.469098e+001  1.000000e+001
      vertex  2.000000e+000  1.495385e+001  9.925325e+000
    endloop
  endfacet
  facet normal  6.860543e-003  8.013760e-001  5.981217e-001
    outer loop
      vertex -1.838563e+000  1.502955e+001  9.867931e+000
      vertex  2.000000e+000  1.495385e+001  9.925325e+000
      vertex -1.947214e+000  1.513820e+001  9.723607e+000
    endloop
  endfacet
  facet normal  -0.000000e+000  7.381748e-001  6.746096e-001
    outer loop
      vertex -1.947214e+000  1.513820e+001  9.723607e+000
      vertex  2.000000e+000  1.495385e+001  9.925325e+000
      vertex  2.000000e+000  1.513820e+001  9.723607e+000
    endloop
  endfacet
  facet normal -9.732491e-001  0.000000e+000  2.297524e-001
    outer loop
      vertex -2.000000e+000  1.525000e+001  9.500000e+000
      vertex -2.000000e+000  1.086602e+001  9.500000e+000
      vertex -1.947214e+000  1.513820e+001  9.723607e+000
    endloop
  endfacet
  facet normal -9.511158e-001 -4.411012e-003  3.088030e-001
    outer loop
      vertex -1.947214e+000  1.513820e+001  9.723607e+000
      vertex -2.000000e+000  1.086602e+001  9.500000e+000
      vertex -1.905583e+000  1.097822e+001  9.792408e+000
    endloop
  endfacet
  facet normal -7.981992e-001  1.974860e-003  6.023902e-001
    outer loop
      vertex -1.947214e+000  1.513820e+001  9.723607e+000
      vertex -1.905583e+000  1.097822e+001  9.792408e+000
      vertex -1.838563e+000  1.502955e+001  9.867931e+000
    endloop
  endfacet
  facet normal -6.513545e-001 -3.369450e-003  7.587662e-001
    outer loop
      vertex -1.838563e+000  1.502955e+001  9.867931e+000
      vertex -1.905583e+000  1.097822e+001  9.792408e+000
      vertex -1.727863e+000  1.099849e+001  9.945060e+000
    endloop
  endfacet
  facet normal -3.563709e-001  8.090080e-003  9.343095e-001
    outer loop
      vertex -1.838563e+000  1.502955e+001  9.867931e+000
      vertex -1.727863e+000  1.099849e+001  9.945060e+000
      vertex -1.500000e+000  1.469098e+001  1.000000e+001
    endloop
  endfacet
  facet normal -2.343939e-001  0.000000e+000  9.721416e-001
    outer loop
      vertex -1.500000e+000  1.469098e+001  1.000000e+001
      vertex -1.727863e+000  1.099849e+001  9.945060e+000
      vertex -1.500000e+000  1.100000e+001  1.000000e+001
    endloop
  endfacet
  facet normal  -0.000000e+000  0.000000e+000 -1.000000e+000
    outer loop
      vertex -4.500000e+000 -2.958040e+000 -2.000000e+000
      vertex  4.500000e+000 -2.958040e+000 -2.000000e+000
      vertex -4.500000e+000 -2.000000e+001 -2.000000e+000
    endloop
  endfacet
  facet normal  0.000000e+000  0.000000e+000 -1.000000e+000
    outer loop
      vertex -4.500000e+000 -2.000000e+001 -2.000000e+000
      vertex  4.500000e+000 -2.958040e+000 -2.000000e+000
      vertex  4.500000e+000 -2.000000e+001 -2.000000e+000
    endloop
  endfacet
  facet normal  -0.000000e+000  0.000000e+000 -1.000000e+000
    outer loop
      vertex -4.500000e+000  2.000000e+001 -2.000000e+000
      vertex  4.500000e+000  2.000000e+001 -2.000000e+000
      vertex -4.500000e+000  2.958040e+000 -2.000000e+000
    endloop
  endfacet
  facet normal  0.000000e+000  0.000000e+000 -1.000000e+000
    outer loop
      vertex -4.500000e+000  2.958040e+000 -2.000000e+000
      vertex  4.500000e+000  2.000000e+001 -2.000000e+000
      vertex  4.500000e+000  2.958040e+000 -2.000000e+000
    endloop
  endfacet
  facet normal  -0.000000e+000 -8.686700e-001 -4.953912e-001
    outer loop
      vertex -4.500000e+000  2.958040e+000 -2.000000e+000
      vertex  4.500000e+000  2.958040e+000 -2.000000e+000
      vertex -4.500000e+000  1.936492e+000 -2.087121e-001
    endloop
  endfacet
  facet normal  0.000000e+000 -8.686700e-001 -4.953912e-001
    outer loop
      vertex -4.500000e+000  1.936492e+000 -2.087121e-001
      vertex  4.500000e+000  2.958040e+000 -2.000000e+000
      vertex  4.500000e+000  1.936492e+000 -2.087121e-001
    endloop
  endfacet
  facet normal  -0.000000e+000 -3.436840e-001 -9.390853e-001
    outer loop
      vertex -4.500000e+000  1.936492e+000 -2.087121e-001
      vertex  4.500000e+000  1.936492e+000 -2.087121e-001
      vertex -4.500000e+000  8.498248e-016  5.000000e-001
    endloop
  endfacet
  facet normal  0.000000e+000 -3.436840e-001 -9.390853e-001
    outer loop
      vertex -4.500000e+000  8.498248e-016  5.000000e-001
      vertex  4.500000e+000  1.936492e+000 -2.087121e-001
      vertex  4.500000e+000  8.498248e-016  5.000000e-001
    endloop
  endfacet
  facet normal  0.000000e+000  3.436840e-001 -9.390853e-001
    outer loop
      vertex -4.500000e+000  8.498248e-016  5.000000e-001
      vertex  4.500000e+000  8.498248e-016  5.000000e-001
      vertex -4.500000e+000 -1.936492e+000 -2.087121e-001
    endloop
  endfacet
  facet normal  0.000000e+000  3.436840e-001 -9.390853e-001
    outer loop
      vertex -4.500000e+000 -1.936492e+000 -2.087121e-001
      vertex  4.500000e+000  8.498248e-016  5.000000e-001
      vertex  4.500000e+000 -1.936492e+000 -2.087121e-001
    endloop
  endfacet
  facet normal  0.000000e+000  8.686700e-001 -4.953912e-001
    outer loop
      vertex -4.500000e+000 -1.936492e+000 -2.087121e-001
      vertex  4.500000e+000 -1.936492e+000 -2.087121e-001
      vertex -4.500000e+000 -2.958040e+000 -2.000000e+000
    endloop
  endfacet
  facet normal  0.000000e+000  8.686700e-001 -4.953912e-001
    outer loop
      vertex -4.500000e+000 -2.958040e+000 -2.000000e+000
      vertex  4.500000e+000 -1.936492e+000 -2.087121e-001
      vertex  4.500000e+000 -2.958040e+000 -2.000000e+000
    endloop
  endfacet
endsolid CATIA STL
