solid CATIA STL
  facet normal  1.000000e+000  0.000000e+000  0.000000e+000
    outer loop
      vertex  1.500000e+001  2.000000e+001  1.000000e+001
      vertex  1.500000e+001  2.590307e+001  7.964449e+000
      vertex  1.500000e+001  1.961222e+001  1.155113e+001
    endloop
  endfacet
  facet normal  1.000000e+000  0.000000e+000  -0.000000e+000
    outer loop
      vertex  1.500000e+001  1.100000e+001  1.000000e+000
      vertex  1.500000e+001  1.400000e+002  1.000000e+000
      vertex  1.500000e+001  1.400000e+002  5.000000e+000
    endloop
  endfacet
  facet normal  1.000000e+000  0.000000e+000  0.000000e+000
    outer loop
      vertex  1.500000e+001  1.100000e+001  1.000000e+000
      vertex  1.500000e+001  1.400000e+002  5.000000e+000
      vertex  1.500000e+001  4.000000e+001  5.000000e+000
    endloop
  endfacet
  facet normal  1.000000e+000  0.000000e+000  0.000000e+000
    outer loop
      vertex  1.500000e+001  1.100000e+001  1.000000e+000
      vertex  1.500000e+001  4.000000e+001  5.000000e+000
      vertex  1.500000e+001  3.279737e+001  5.749129e+000
    endloop
  endfacet
  facet normal  1.000000e+000  0.000000e+000  0.000000e+000
    outer loop
      vertex  1.500000e+001  1.100000e+001  1.000000e+000
      vertex  1.500000e+001  3.279737e+001  5.749129e+000
      vertex  1.500000e+001  2.590307e+001  7.964449e+000
    endloop
  endfacet
  facet normal  1.000000e+000  0.000000e+000  0.000000e+000
    outer loop
      vertex  1.500000e+001  1.100000e+001  1.000000e+000
      vertex  1.500000e+001  2.590307e+001  7.964449e+000
      vertex  1.500000e+001  2.000000e+001  1.000000e+001
    endloop
  endfacet
  facet normal  9.659258e-001  0.000000e+000 -2.588193e-001
    outer loop
      vertex  1.500000e+001  1.400000e+002  1.000000e+000
      vertex  1.500000e+001  1.100000e+001  1.000000e+000
      vertex  1.459808e+001  1.400000e+002 -5.000000e-001
    endloop
  endfacet
  facet normal  9.708312e-001  2.368552e-004 -2.397641e-001
    outer loop
      vertex  1.459808e+001  1.400000e+002 -5.000000e-001
      vertex  1.500000e+001  1.100000e+001  1.000000e+000
      vertex  1.465572e+001  9.604597e+000 -3.954031e-001
    endloop
  endfacet
  facet normal  7.071068e-001 -2.546109e-004 -7.071066e-001
    outer loop
      vertex  1.459808e+001  1.400000e+002 -5.000000e-001
      vertex  1.465572e+001  9.604597e+000 -3.954031e-001
      vertex  1.350000e+001  1.400000e+002 -1.598076e+000
    endloop
  endfacet
  facet normal  7.546915e-001  6.377793e-004 -6.560795e-001
    outer loop
      vertex  1.350000e+001  1.400000e+002 -1.598076e+000
      vertex  1.465572e+001  9.604597e+000 -3.954031e-001
      vertex  1.375364e+001  8.565921e+000 -1.434080e+000
    endloop
  endfacet
  facet normal  2.588190e-001 -7.057642e-004 -9.659256e-001
    outer loop
      vertex  1.350000e+001  1.400000e+002 -1.598076e+000
      vertex  1.375364e+001  8.565921e+000 -1.434080e+000
      vertex  1.200000e+001  1.400000e+002 -2.000000e+000
    endloop
  endfacet
  facet normal  4.514287e-001  2.181097e-003 -8.923045e-001
    outer loop
      vertex  1.200000e+001  1.400000e+002 -2.000000e+000
      vertex  1.375364e+001  8.565921e+000 -1.434080e+000
      vertex  1.292770e+001  8.147040e+000 -1.852959e+000
    endloop
  endfacet
  facet normal  1.565464e-001  0.000000e+000 -9.876707e-001
    outer loop
      vertex  1.200000e+001  1.400000e+002 -2.000000e+000
      vertex  1.292770e+001  8.147040e+000 -1.852959e+000
      vertex  1.200000e+001  8.000000e+000 -2.000000e+000
    endloop
  endfacet
  facet normal  9.659258e-001  0.000000e+000  2.588191e-001
    outer loop
      vertex  1.500000e+001  4.000000e+001  5.000000e+000
      vertex  1.500000e+001  1.400000e+002  5.000000e+000
      vertex  1.433013e+001  4.000000e+001  7.500000e+000
    endloop
  endfacet
  facet normal  9.659258e-001  -0.000000e+000  2.588191e-001
    outer loop
      vertex  1.433013e+001  4.000000e+001  7.500000e+000
      vertex  1.500000e+001  1.400000e+002  5.000000e+000
      vertex  1.433013e+001  1.400000e+002  7.500000e+000
    endloop
  endfacet
  facet normal  7.071068e-001  0.000000e+000  7.071068e-001
    outer loop
      vertex  1.433013e+001  4.000000e+001  7.500000e+000
      vertex  1.433013e+001  1.400000e+002  7.500000e+000
      vertex  1.250000e+001  4.000000e+001  9.330127e+000
    endloop
  endfacet
  facet normal  7.071068e-001  -0.000000e+000  7.071068e-001
    outer loop
      vertex  1.250000e+001  4.000000e+001  9.330127e+000
      vertex  1.433013e+001  1.400000e+002  7.500000e+000
      vertex  1.250000e+001  1.400000e+002  9.330127e+000
    endloop
  endfacet
  facet normal  2.588191e-001  0.000000e+000  9.659258e-001
    outer loop
      vertex  1.250000e+001  4.000000e+001  9.330127e+000
      vertex  1.250000e+001  1.400000e+002  9.330127e+000
      vertex  1.000000e+001  4.000000e+001  1.000000e+001
    endloop
  endfacet
  facet normal  2.588191e-001  -0.000000e+000  9.659258e-001
    outer loop
      vertex  1.000000e+001  4.000000e+001  1.000000e+001
      vertex  1.250000e+001  1.400000e+002  9.330127e+000
      vertex  1.000000e+001  1.400000e+002  1.000000e+001
    endloop
  endfacet
  facet normal  -0.000000e+000  0.000000e+000 -1.000000e+000
    outer loop
      vertex -1.200000e+001  1.457315e+002 -2.000000e+000
      vertex -7.386599e+000  1.457315e+002 -2.000000e+000
      vertex -1.200000e+001  8.000000e+000 -2.000000e+000
    endloop
  endfacet
  facet normal  0.000000e+000  0.000000e+000 -1.000000e+000
    outer loop
      vertex -1.200000e+001  8.000000e+000 -2.000000e+000
      vertex -7.386599e+000  1.457315e+002 -2.000000e+000
      vertex -7.386599e+000  1.300000e+002 -2.000000e+000
    endloop
  endfacet
  facet normal  0.000000e+000  -0.000000e+000 -1.000000e+000
    outer loop
      vertex -1.200000e+001  8.000000e+000 -2.000000e+000
      vertex -7.386599e+000  1.300000e+002 -2.000000e+000
      vertex  1.200000e+001  8.000000e+000 -2.000000e+000
    endloop
  endfacet
  facet normal  0.000000e+000  0.000000e+000 -1.000000e+000
    outer loop
      vertex  1.200000e+001  8.000000e+000 -2.000000e+000
      vertex -7.386599e+000  1.300000e+002 -2.000000e+000
      vertex  3.912612e+000  1.300000e+002 -2.000000e+000
    endloop
  endfacet
  facet normal  0.000000e+000  0.000000e+000 -1.000000e+000
    outer loop
      vertex  1.200000e+001  8.000000e+000 -2.000000e+000
      vertex  3.912612e+000  1.300000e+002 -2.000000e+000
      vertex  1.200000e+001  1.400000e+002 -2.000000e+000
    endloop
  endfacet
  facet normal  -0.000000e+000  0.000000e+000 -1.000000e+000
    outer loop
      vertex  1.200000e+001  1.400000e+002 -2.000000e+000
      vertex  3.912612e+000  1.300000e+002 -2.000000e+000
      vertex  3.912612e+000  1.400000e+002 -2.000000e+000
    endloop
  endfacet
  facet normal  0.000000e+000  0.000000e+000  1.000000e+000
    outer loop
      vertex  1.000000e+001  4.000000e+001  1.000000e+001
      vertex  1.000000e+001  1.400000e+002  1.000000e+001
      vertex  3.912612e+000  1.400000e+002  1.000000e+001
    endloop
  endfacet
  facet normal  0.000000e+000  0.000000e+000  1.000000e+000
    outer loop
      vertex  1.000000e+001  4.000000e+001  1.000000e+001
      vertex  3.912612e+000  1.400000e+002  1.000000e+001
      vertex  3.912612e+000  1.300000e+002  1.000000e+001
    endloop
  endfacet
  facet normal  0.000000e+000  0.000000e+000  9.999999e-001
    outer loop
      vertex  1.000000e+001  4.000000e+001  1.000000e+001
      vertex  3.912612e+000  1.300000e+002  1.000000e+001
      vertex -7.386599e+000  1.300000e+002  1.000000e+001
    endloop
  endfacet
  facet normal  0.000000e+000  0.000000e+000  1.000000e+000
    outer loop
      vertex  1.000000e+001  4.000000e+001  1.000000e+001
      vertex -7.386599e+000  1.300000e+002  1.000000e+001
      vertex -1.000000e+001  4.000000e+001  1.000000e+001
    endloop
  endfacet
  facet normal  0.000000e+000  0.000000e+000  1.000000e+000
    outer loop
      vertex -1.000000e+001  4.000000e+001  1.000000e+001
      vertex -7.386599e+000  1.300000e+002  1.000000e+001
      vertex -1.000000e+001  1.457315e+002  1.000000e+001
    endloop
  endfacet
  facet normal  -0.000000e+000  0.000000e+000  9.999999e-001
    outer loop
      vertex -1.000000e+001  1.457315e+002  1.000000e+001
      vertex -7.386599e+000  1.300000e+002  1.000000e+001
      vertex -7.386599e+000  1.457315e+002  1.000000e+001
    endloop
  endfacet
  facet normal -2.588190e-001  0.000000e+000 -9.659258e-001
    outer loop
      vertex -1.200000e+001  1.457315e+002 -2.000000e+000
      vertex -1.200000e+001  8.000000e+000 -2.000000e+000
      vertex -1.350000e+001  1.457315e+002 -1.598076e+000
    endloop
  endfacet
  facet normal -1.563640e-001  1.179350e-003 -9.876988e-001
    outer loop
      vertex -1.350000e+001  1.457315e+002 -1.598076e+000
      vertex -1.200000e+001  8.000000e+000 -2.000000e+000
      vertex -1.292770e+001  8.147040e+000 -1.852959e+000
    endloop
  endfacet
  facet normal -4.524024e-001 -2.296980e-004 -8.918138e-001
    outer loop
      vertex -1.350000e+001  1.457315e+002 -1.598076e+000
      vertex -1.292770e+001  8.147040e+000 -1.852959e+000
      vertex -1.375364e+001  8.565921e+000 -1.434080e+000
    endloop
  endfacet
  facet normal -7.071068e-001  4.621292e-004 -7.071066e-001
    outer loop
      vertex -1.350000e+001  1.457315e+002 -1.598076e+000
      vertex -1.375364e+001  8.565921e+000 -1.434080e+000
      vertex -1.459808e+001  1.457315e+002 -5.000000e-001
    endloop
  endfacet
  facet normal -7.550986e-001 -1.840000e-004 -6.556113e-001
    outer loop
      vertex -1.459808e+001  1.457315e+002 -5.000000e-001
      vertex -1.375364e+001  8.565921e+000 -1.434080e+000
      vertex -1.465572e+001  9.604597e+000 -3.954031e-001
    endloop
  endfacet
  facet normal -9.659257e-001  2.101639e-004 -2.588192e-001
    outer loop
      vertex -1.459808e+001  1.457315e+002 -5.000000e-001
      vertex -1.465572e+001  9.604597e+000 -3.954031e-001
      vertex -1.500000e+001  1.457315e+002  1.000000e+000
    endloop
  endfacet
  facet normal -9.708863e-001  -0.000000e+000 -2.395408e-001
    outer loop
      vertex -1.500000e+001  1.457315e+002  1.000000e+000
      vertex -1.465572e+001  9.604597e+000 -3.954031e-001
      vertex -1.500000e+001  1.100000e+001  1.000000e+000
    endloop
  endfacet
  facet normal -2.588191e-001  0.000000e+000  9.659258e-001
    outer loop
      vertex -1.000000e+001  4.000000e+001  1.000000e+001
      vertex -1.000000e+001  1.457315e+002  1.000000e+001
      vertex -1.250000e+001  4.000000e+001  9.330127e+000
    endloop
  endfacet
  facet normal -2.588191e-001  0.000000e+000  9.659258e-001
    outer loop
      vertex -1.250000e+001  4.000000e+001  9.330127e+000
      vertex -1.000000e+001  1.457315e+002  1.000000e+001
      vertex -1.250000e+001  1.457315e+002  9.330127e+000
    endloop
  endfacet
  facet normal -7.071068e-001  0.000000e+000  7.071068e-001
    outer loop
      vertex -1.250000e+001  4.000000e+001  9.330127e+000
      vertex -1.250000e+001  1.457315e+002  9.330127e+000
      vertex -1.433013e+001  4.000000e+001  7.500000e+000
    endloop
  endfacet
  facet normal -7.071068e-001  0.000000e+000  7.071068e-001
    outer loop
      vertex -1.433013e+001  4.000000e+001  7.500000e+000
      vertex -1.250000e+001  1.457315e+002  9.330127e+000
      vertex -1.433013e+001  1.457315e+002  7.500000e+000
    endloop
  endfacet
  facet normal -9.659258e-001  0.000000e+000  2.588191e-001
    outer loop
      vertex -1.433013e+001  4.000000e+001  7.500000e+000
      vertex -1.433013e+001  1.457315e+002  7.500000e+000
      vertex -1.500000e+001  4.000000e+001  5.000000e+000
    endloop
  endfacet
  facet normal -9.659258e-001  0.000000e+000  2.588191e-001
    outer loop
      vertex -1.500000e+001  4.000000e+001  5.000000e+000
      vertex -1.433013e+001  1.457315e+002  7.500000e+000
      vertex -1.500000e+001  1.457315e+002  5.000000e+000
    endloop
  endfacet
  facet normal -1.000000e+000  0.000000e+000  0.000000e+000
    outer loop
      vertex -1.500000e+001  1.961222e+001  1.155113e+001
      vertex -1.500000e+001  2.590307e+001  7.964449e+000
      vertex -1.500000e+001  2.000000e+001  1.000000e+001
    endloop
  endfacet
  facet normal -1.000000e+000  0.000000e+000  -0.000000e+000
    outer loop
      vertex -1.500000e+001  1.100000e+001  1.000000e+000
      vertex -1.500000e+001  2.000000e+001  1.000000e+001
      vertex -1.500000e+001  2.590307e+001  7.964449e+000
    endloop
  endfacet
  facet normal -1.000000e+000  0.000000e+000  -0.000000e+000
    outer loop
      vertex -1.500000e+001  1.100000e+001  1.000000e+000
      vertex -1.500000e+001  2.590307e+001  7.964449e+000
      vertex -1.500000e+001  3.279737e+001  5.749129e+000
    endloop
  endfacet
  facet normal -1.000000e+000  0.000000e+000  -0.000000e+000
    outer loop
      vertex -1.500000e+001  1.100000e+001  1.000000e+000
      vertex -1.500000e+001  3.279737e+001  5.749129e+000
      vertex -1.500000e+001  4.000000e+001  5.000000e+000
    endloop
  endfacet
  facet normal -9.999999e-001  0.000000e+000  -0.000000e+000
    outer loop
      vertex -1.500000e+001  1.100000e+001  1.000000e+000
      vertex -1.500000e+001  4.000000e+001  5.000000e+000
      vertex -1.500000e+001  1.457315e+002  5.000000e+000
    endloop
  endfacet
  facet normal -1.000000e+000  0.000000e+000  -0.000000e+000
    outer loop
      vertex -1.500000e+001  1.100000e+001  1.000000e+000
      vertex -1.500000e+001  1.457315e+002  5.000000e+000
      vertex -1.500000e+001  1.457315e+002  1.000000e+000
    endloop
  endfacet
  facet normal  9.949667e-001  0.000000e+000 -1.002058e-001
    outer loop
      vertex -3.350000e+000  1.500000e+001  5.000000e+000
      vertex -3.350000e+000  1.300000e+002  5.000000e+000
      vertex -3.282724e+000  1.566800e+001  5.668001e+000
    endloop
  endfacet
  facet normal  9.510558e-001 -1.245846e-003 -3.090167e-001
    outer loop
      vertex -3.282724e+000  1.566800e+001  5.668001e+000
      vertex -3.350000e+000  1.300000e+002  5.000000e+000
      vertex -2.710207e+000  1.300000e+002  6.969080e+000
    endloop
  endfacet
  facet normal  9.076949e-001  2.300534e-004 -4.196308e-001
    outer loop
      vertex -3.282724e+000  1.566800e+001  5.668001e+000
      vertex -2.710207e+000  1.300000e+002  6.969080e+000
      vertex -2.636356e+000  1.706691e+001  7.066912e+000
    endloop
  endfacet
  facet normal  6.432955e-001 -2.425680e-004 -7.656180e-001
    outer loop
      vertex -2.636356e+000  1.706691e+001  7.066912e+000
      vertex -2.710207e+000  1.300000e+002  6.969080e+000
      vertex -1.580710e+000  1.795362e+001  7.953618e+000
    endloop
  endfacet
  facet normal  5.877848e-001 -1.183487e-003 -8.090165e-001
    outer loop
      vertex -1.580710e+000  1.795362e+001  7.953618e+000
      vertex -2.710207e+000  1.300000e+002  6.969080e+000
      vertex -1.035207e+000  1.300000e+002  8.186039e+000
    endloop
  endfacet
  facet normal  3.810053e-001  6.292994e-005 -9.245728e-001
    outer loop
      vertex -1.580710e+000  1.795362e+001  7.953618e+000
      vertex -1.035207e+000  1.300000e+002  8.186039e+000
      vertex -9.592938e-001  1.820971e+001  8.209713e+000
    endloop
  endfacet
  facet normal  1.184304e-001 -1.298590e-004 -9.929624e-001
    outer loop
      vertex -9.592938e-001  1.820971e+001  8.209713e+000
      vertex -1.035207e+000  1.300000e+002  8.186039e+000
      vertex  1.775819e-001  1.834529e+001  8.345290e+000
    endloop
  endfacet
  facet normal  0.000000e+000 -1.426281e-003 -9.999989e-001
    outer loop
      vertex  1.775819e-001  1.834529e+001  8.345290e+000
      vertex -1.035207e+000  1.300000e+002  8.186039e+000
      vertex  1.035207e+000  1.300000e+002  8.186039e+000
    endloop
  endfacet
  facet normal -1.997329e-001  1.366136e-004 -9.798504e-001
    outer loop
      vertex  1.775819e-001  1.834529e+001  8.345290e+000
      vertex  1.035207e+000  1.300000e+002  8.186039e+000
      vertex  1.146157e+000  1.814783e+001  8.147828e+000
    endloop
  endfacet
  facet normal -4.902174e-001 -1.885089e-004 -8.716002e-001
    outer loop
      vertex  1.146157e+000  1.814783e+001  8.147828e+000
      vertex  1.035207e+000  1.300000e+002  8.186039e+000
      vertex  2.094201e+000  1.761473e+001  7.614731e+000
    endloop
  endfacet
  facet normal -5.877845e-001 -1.426018e-003 -8.090162e-001
    outer loop
      vertex  2.094201e+000  1.761473e+001  7.614731e+000
      vertex  1.035207e+000  1.300000e+002  8.186039e+000
      vertex  2.710207e+000  1.300000e+002  6.969080e+000
    endloop
  endfacet
  facet normal -8.085520e-001  1.051351e-003 -5.884238e-001
    outer loop
      vertex  2.094201e+000  1.761473e+001  7.614731e+000
      vertex  2.710207e+000  1.300000e+002  6.969080e+000
      vertex  3.134045e+000  1.618333e+001  6.183326e+000
    endloop
  endfacet
  facet normal -9.510565e-001  0.000000e+000 -3.090170e-001
    outer loop
      vertex  3.350000e+000  1.300000e+002  5.000000e+000
      vertex  3.350000e+000  1.500000e+001  5.000000e+000
      vertex  2.710207e+000  1.300000e+002  6.969080e+000
    endloop
  endfacet
  facet normal -9.841774e-001 -2.441830e-003 -1.771687e-001
    outer loop
      vertex  2.710207e+000  1.300000e+002  6.969080e+000
      vertex  3.350000e+000  1.500000e+001  5.000000e+000
      vertex  3.134045e+000  1.618333e+001  6.183326e+000
    endloop
  endfacet
  facet normal -9.949667e-001  0.000000e+000  1.002058e-001
    outer loop
      vertex  3.350000e+000  1.500000e+001  5.000000e+000
      vertex  3.350000e+000  1.300000e+002  5.000000e+000
      vertex  3.282724e+000  1.433200e+001  4.331999e+000
    endloop
  endfacet
  facet normal -9.510558e-001 -1.231456e-003  3.090167e-001
    outer loop
      vertex  3.282724e+000  1.433200e+001  4.331999e+000
      vertex  3.350000e+000  1.300000e+002  5.000000e+000
      vertex  2.710207e+000  1.300000e+002  3.030919e+000
    endloop
  endfacet
  facet normal -9.078671e-001  2.223517e-004  4.192580e-001
    outer loop
      vertex  3.282724e+000  1.433200e+001  4.331999e+000
      vertex  2.710207e+000  1.300000e+002  3.030919e+000
      vertex  2.636356e+000  1.293309e+001  2.933088e+000
    endloop
  endfacet
  facet normal -6.430607e-001 -2.343123e-004  7.658152e-001
    outer loop
      vertex  2.636356e+000  1.293309e+001  2.933088e+000
      vertex  2.710207e+000  1.300000e+002  3.030919e+000
      vertex  1.580710e+000  1.204638e+001  2.046382e+000
    endloop
  endfacet
  facet normal -5.877848e-001 -1.124215e-003  8.090165e-001
    outer loop
      vertex  1.580710e+000  1.204638e+001  2.046382e+000
      vertex  2.710207e+000  1.300000e+002  3.030919e+000
      vertex  1.035207e+000  1.300000e+002  1.813961e+000
    endloop
  endfacet
  facet normal -3.810480e-001  5.954905e-005  9.245553e-001
    outer loop
      vertex  1.580710e+000  1.204638e+001  2.046382e+000
      vertex  1.035207e+000  1.300000e+002  1.813961e+000
      vertex  9.592938e-001  1.179029e+001  1.790287e+000
    endloop
  endfacet
  facet normal -1.184008e-001 -1.228207e-004  9.929659e-001
    outer loop
      vertex  9.592938e-001  1.179029e+001  1.790287e+000
      vertex  1.035207e+000  1.300000e+002  1.813961e+000
      vertex -1.775819e-001  1.165471e+001  1.654710e+000
    endloop
  endfacet
  facet normal  0.000000e+000 -1.345643e-003  9.999991e-001
    outer loop
      vertex -1.775819e-001  1.165471e+001  1.654710e+000
      vertex  1.035207e+000  1.300000e+002  1.813961e+000
      vertex -1.035207e+000  1.300000e+002  1.813961e+000
    endloop
  endfacet
  facet normal  1.997844e-001  1.292822e-004  9.798399e-001
    outer loop
      vertex -1.775819e-001  1.165471e+001  1.654710e+000
      vertex -1.035207e+000  1.300000e+002  1.813961e+000
      vertex -1.146157e+000  1.185217e+001  1.852172e+000
    endloop
  endfacet
  facet normal  4.900608e-001 -1.782884e-004  8.716882e-001
    outer loop
      vertex -1.146157e+000  1.185217e+001  1.852172e+000
      vertex -1.035207e+000  1.300000e+002  1.813961e+000
      vertex -2.094201e+000  1.238527e+001  2.385268e+000
    endloop
  endfacet
  facet normal  5.877846e-001 -1.362613e-003  8.090163e-001
    outer loop
      vertex -2.094201e+000  1.238527e+001  2.385268e+000
      vertex -1.035207e+000  1.300000e+002  1.813961e+000
      vertex -2.710207e+000  1.300000e+002  3.030919e+000
    endloop
  endfacet
  facet normal  8.095357e-001  1.017190e-003  5.870697e-001
    outer loop
      vertex -2.094201e+000  1.238527e+001  2.385268e+000
      vertex -2.710207e+000  1.300000e+002  3.030919e+000
      vertex -3.134045e+000  1.381667e+001  3.816674e+000
    endloop
  endfacet
  facet normal  9.510565e-001  -0.000000e+000  3.090169e-001
    outer loop
      vertex -3.350000e+000  1.300000e+002  5.000000e+000
      vertex -3.350000e+000  1.500000e+001  5.000000e+000
      vertex -2.710207e+000  1.300000e+002  3.030919e+000
    endloop
  endfacet
  facet normal  9.833302e-001 -2.357585e-003  1.818135e-001
    outer loop
      vertex -2.710207e+000  1.300000e+002  3.030919e+000
      vertex -3.350000e+000  1.500000e+001  5.000000e+000
      vertex -3.134045e+000  1.381667e+001  3.816674e+000
    endloop
  endfacet
  facet normal  -0.000000e+000  1.000000e+000  0.000000e+000
    outer loop
      vertex -1.500000e+001  1.457315e+002  5.000000e+000
      vertex -1.433013e+001  1.457315e+002  7.500000e+000
      vertex -1.250000e+001  1.457315e+002  9.330127e+000
    endloop
  endfacet
  facet normal  -0.000000e+000  1.000000e+000  0.000000e+000
    outer loop
      vertex -1.500000e+001  1.457315e+002  5.000000e+000
      vertex -1.250000e+001  1.457315e+002  9.330127e+000
      vertex -1.000000e+001  1.457315e+002  1.000000e+001
    endloop
  endfacet
  facet normal  -0.000000e+000  1.000000e+000  0.000000e+000
    outer loop
      vertex -1.500000e+001  1.457315e+002  5.000000e+000
      vertex -1.000000e+001  1.457315e+002  1.000000e+001
      vertex -7.386599e+000  1.457315e+002  1.000000e+001
    endloop
  endfacet
  facet normal  0.000000e+000  1.000000e+000  0.000000e+000
    outer loop
      vertex -1.500000e+001  1.457315e+002  5.000000e+000
      vertex -7.386599e+000  1.457315e+002  1.000000e+001
      vertex -7.386599e+000  1.457315e+002 -2.000000e+000
    endloop
  endfacet
  facet normal  0.000000e+000  1.000000e+000  0.000000e+000
    outer loop
      vertex -1.500000e+001  1.457315e+002  5.000000e+000
      vertex -7.386599e+000  1.457315e+002 -2.000000e+000
      vertex -1.500000e+001  1.457315e+002  1.000000e+000
    endloop
  endfacet
  facet normal  0.000000e+000  1.000000e+000  0.000000e+000
    outer loop
      vertex -1.459808e+001  1.457315e+002 -5.000000e-001
      vertex -1.500000e+001  1.457315e+002  1.000000e+000
      vertex -1.350000e+001  1.457315e+002 -1.598076e+000
    endloop
  endfacet
  facet normal  -0.000000e+000  9.999999e-001  -0.000000e+000
    outer loop
      vertex -1.350000e+001  1.457315e+002 -1.598076e+000
      vertex -1.500000e+001  1.457315e+002  1.000000e+000
      vertex -7.386599e+000  1.457315e+002 -2.000000e+000
    endloop
  endfacet
  facet normal  0.000000e+000  1.000000e+000  0.000000e+000
    outer loop
      vertex -1.350000e+001  1.457315e+002 -1.598076e+000
      vertex -7.386599e+000  1.457315e+002 -2.000000e+000
      vertex -1.200000e+001  1.457315e+002 -2.000000e+000
    endloop
  endfacet
  facet normal  1.000000e+000  0.000000e+000  0.000000e+000
    outer loop
      vertex -7.386599e+000  1.300000e+002 -2.000000e+000
      vertex -7.386599e+000  1.457315e+002 -2.000000e+000
      vertex -7.386599e+000  1.300000e+002  1.000000e+001
    endloop
  endfacet
  facet normal  1.000000e+000  -0.000000e+000  0.000000e+000
    outer loop
      vertex -7.386599e+000  1.300000e+002  1.000000e+001
      vertex -7.386599e+000  1.457315e+002 -2.000000e+000
      vertex -7.386599e+000  1.457315e+002  1.000000e+001
    endloop
  endfacet
  facet normal  0.000000e+000  1.000000e+000  0.000000e+000
    outer loop
      vertex -7.386599e+000  1.300000e+002  1.000000e+001
      vertex  3.912612e+000  1.300000e+002  1.000000e+001
      vertex  1.035207e+000  1.300000e+002  8.186039e+000
    endloop
  endfacet
  facet normal  0.000000e+000  9.999999e-001  0.000000e+000
    outer loop
      vertex -7.386599e+000  1.300000e+002  1.000000e+001
      vertex  1.035207e+000  1.300000e+002  8.186039e+000
      vertex -1.035207e+000  1.300000e+002  8.186039e+000
    endloop
  endfacet
  facet normal  0.000000e+000  1.000000e+000  0.000000e+000
    outer loop
      vertex -7.386599e+000  1.300000e+002  1.000000e+001
      vertex -1.035207e+000  1.300000e+002  8.186039e+000
      vertex -2.710207e+000  1.300000e+002  6.969080e+000
    endloop
  endfacet
  facet normal  0.000000e+000  1.000000e+000  0.000000e+000
    outer loop
      vertex -7.386599e+000  1.300000e+002  1.000000e+001
      vertex -2.710207e+000  1.300000e+002  6.969080e+000
      vertex -7.386599e+000  1.300000e+002 -2.000000e+000
    endloop
  endfacet
  facet normal  0.000000e+000  9.999999e-001  0.000000e+000
    outer loop
      vertex  3.912612e+000  1.300000e+002 -2.000000e+000
      vertex -7.386599e+000  1.300000e+002 -2.000000e+000
      vertex -1.035207e+000  1.300000e+002  1.813961e+000
    endloop
  endfacet
  facet normal  -0.000000e+000  1.000000e+000  0.000000e+000
    outer loop
      vertex  3.912612e+000  1.300000e+002 -2.000000e+000
      vertex -1.035207e+000  1.300000e+002  1.813961e+000
      vertex  1.035207e+000  1.300000e+002  1.813961e+000
    endloop
  endfacet
  facet normal  -0.000000e+000  1.000000e+000  0.000000e+000
    outer loop
      vertex  3.912612e+000  1.300000e+002 -2.000000e+000
      vertex  1.035207e+000  1.300000e+002  1.813961e+000
      vertex  2.710207e+000  1.300000e+002  3.030919e+000
    endloop
  endfacet
  facet normal  -0.000000e+000  1.000000e+000  0.000000e+000
    outer loop
      vertex  3.912612e+000  1.300000e+002 -2.000000e+000
      vertex  2.710207e+000  1.300000e+002  3.030919e+000
      vertex  3.350000e+000  1.300000e+002  5.000000e+000
    endloop
  endfacet
  facet normal  0.000000e+000  1.000000e+000  0.000000e+000
    outer loop
      vertex -7.386599e+000  1.300000e+002 -2.000000e+000
      vertex -2.710207e+000  1.300000e+002  6.969080e+000
      vertex -3.350000e+000  1.300000e+002  5.000000e+000
    endloop
  endfacet
  facet normal  0.000000e+000  1.000000e+000  0.000000e+000
    outer loop
      vertex -7.386599e+000  1.300000e+002 -2.000000e+000
      vertex -3.350000e+000  1.300000e+002  5.000000e+000
      vertex -2.710207e+000  1.300000e+002  3.030919e+000
    endloop
  endfacet
  facet normal  0.000000e+000  9.999999e-001  0.000000e+000
    outer loop
      vertex -7.386599e+000  1.300000e+002 -2.000000e+000
      vertex -2.710207e+000  1.300000e+002  3.030919e+000
      vertex -1.035207e+000  1.300000e+002  1.813961e+000
    endloop
  endfacet
  facet normal  0.000000e+000  9.999999e-001  -0.000000e+000
    outer loop
      vertex  3.912612e+000  1.300000e+002  1.000000e+001
      vertex  3.912612e+000  1.300000e+002 -2.000000e+000
      vertex  3.350000e+000  1.300000e+002  5.000000e+000
    endloop
  endfacet
  facet normal  0.000000e+000  1.000000e+000  -0.000000e+000
    outer loop
      vertex  3.912612e+000  1.300000e+002  1.000000e+001
      vertex  3.350000e+000  1.300000e+002  5.000000e+000
      vertex  2.710207e+000  1.300000e+002  6.969080e+000
    endloop
  endfacet
  facet normal  0.000000e+000  1.000000e+000  -0.000000e+000
    outer loop
      vertex  3.912612e+000  1.300000e+002  1.000000e+001
      vertex  2.710207e+000  1.300000e+002  6.969080e+000
      vertex  1.035207e+000  1.300000e+002  8.186039e+000
    endloop
  endfacet
  facet normal -1.000000e+000  0.000000e+000  0.000000e+000
    outer loop
      vertex  3.912612e+000  1.400000e+002 -2.000000e+000
      vertex  3.912612e+000  1.300000e+002 -2.000000e+000
      vertex  3.912612e+000  1.400000e+002  1.000000e+001
    endloop
  endfacet
  facet normal -1.000000e+000  -0.000000e+000  0.000000e+000
    outer loop
      vertex  3.912612e+000  1.400000e+002  1.000000e+001
      vertex  3.912612e+000  1.300000e+002 -2.000000e+000
      vertex  3.912612e+000  1.300000e+002  1.000000e+001
    endloop
  endfacet
  facet normal  0.000000e+000  1.000000e+000  -0.000000e+000
    outer loop
      vertex  1.500000e+001  1.400000e+002  5.000000e+000
      vertex  1.500000e+001  1.400000e+002  1.000000e+000
      vertex  3.912612e+000  1.400000e+002 -2.000000e+000
    endloop
  endfacet
  facet normal  0.000000e+000  1.000000e+000  0.000000e+000
    outer loop
      vertex  1.500000e+001  1.400000e+002  5.000000e+000
      vertex  3.912612e+000  1.400000e+002 -2.000000e+000
      vertex  3.912612e+000  1.400000e+002  1.000000e+001
    endloop
  endfacet
  facet normal  -0.000000e+000  1.000000e+000  0.000000e+000
    outer loop
      vertex  1.500000e+001  1.400000e+002  5.000000e+000
      vertex  3.912612e+000  1.400000e+002  1.000000e+001
      vertex  1.000000e+001  1.400000e+002  1.000000e+001
    endloop
  endfacet
  facet normal  0.000000e+000  1.000000e+000  0.000000e+000
    outer loop
      vertex  1.500000e+001  1.400000e+002  5.000000e+000
      vertex  1.000000e+001  1.400000e+002  1.000000e+001
      vertex  1.250000e+001  1.400000e+002  9.330127e+000
    endloop
  endfacet
  facet normal  0.000000e+000  1.000000e+000  0.000000e+000
    outer loop
      vertex  1.500000e+001  1.400000e+002  5.000000e+000
      vertex  1.250000e+001  1.400000e+002  9.330127e+000
      vertex  1.433013e+001  1.400000e+002  7.500000e+000
    endloop
  endfacet
  facet normal  0.000000e+000  1.000000e+000  -0.000000e+000
    outer loop
      vertex  1.500000e+001  1.400000e+002  1.000000e+000
      vertex  1.459808e+001  1.400000e+002 -5.000000e-001
      vertex  3.912612e+000  1.400000e+002 -2.000000e+000
    endloop
  endfacet
  facet normal  0.000000e+000  1.000000e+000  0.000000e+000
    outer loop
      vertex  3.912612e+000  1.400000e+002 -2.000000e+000
      vertex  1.459808e+001  1.400000e+002 -5.000000e-001
      vertex  1.350000e+001  1.400000e+002 -1.598076e+000
    endloop
  endfacet
  facet normal  0.000000e+000  1.000000e+000  0.000000e+000
    outer loop
      vertex  3.912612e+000  1.400000e+002 -2.000000e+000
      vertex  1.350000e+001  1.400000e+002 -1.598076e+000
      vertex  1.200000e+001  1.400000e+002 -2.000000e+000
    endloop
  endfacet
  facet normal  9.656906e-001  2.206897e-002  2.587561e-001
    outer loop
      vertex  1.500000e+001  4.000000e+001  5.000000e+000
      vertex  1.433013e+001  4.000000e+001  7.500000e+000
      vertex  1.433013e+001  3.449627e+001  7.969406e+000
    endloop
  endfacet
  facet normal  9.627203e-001  2.798304e-002  2.690476e-001
    outer loop
      vertex  1.500000e+001  4.000000e+001  5.000000e+000
      vertex  1.433013e+001  3.449627e+001  7.969406e+000
      vertex  1.500000e+001  3.279737e+001  5.749129e+000
    endloop
  endfacet
  facet normal  2.967804e-001  1.013704e-001  9.495500e-001
    outer loop
      vertex  1.000000e+001  4.000000e+001  1.000000e+001
      vertex  1.000000e+001  3.366680e+001  1.067611e+001
      vertex  1.250000e+001  3.480619e+001  9.773100e+000
    endloop
  endfacet
  facet normal  2.579453e-001  8.210445e-002  9.626646e-001
    outer loop
      vertex  1.000000e+001  4.000000e+001  1.000000e+001
      vertex  1.250000e+001  3.480619e+001  9.773100e+000
      vertex  1.250000e+001  4.000000e+001  9.330127e+000
    endloop
  endfacet
  facet normal  1.026300e-001  7.439231e-001  6.603375e-001
    outer loop
      vertex  1.000000e+001  1.744521e+001  2.021917e+001
      vertex  1.101585e+001  1.750015e+001  1.999938e+001
      vertex  1.250000e+001  2.069921e+001  1.616472e+001
    endloop
  endfacet
  facet normal  2.967804e-001  6.470569e-001  7.023095e-001
    outer loop
      vertex  1.000000e+001  1.744521e+001  2.021917e+001
      vertex  1.250000e+001  2.069921e+001  1.616472e+001
      vertex  1.000000e+001  2.212939e+001  1.590350e+001
    endloop
  endfacet
  facet normal  9.687321e-001  1.023940e-001  2.259945e-001
    outer loop
      vertex  1.500000e+001  2.590307e+001  7.964449e+000
      vertex  1.433013e+001  2.915153e+001  9.364063e+000
      vertex  1.433013e+001  2.412016e+001  1.164369e+001
    endloop
  endfacet
  facet normal  3.159229e-001  4.810884e-001  8.177693e-001
    outer loop
      vertex  1.250000e+001  2.501438e+001  1.324048e+001
      vertex  1.000000e+001  2.761907e+001  1.267396e+001
      vertex  1.000000e+001  2.212939e+001  1.590350e+001
    endloop
  endfacet
  facet normal  2.282408e-001  5.461810e-001  8.059729e-001
    outer loop
      vertex  1.250000e+001  2.501438e+001  1.324048e+001
      vertex  1.000000e+001  2.212939e+001  1.590350e+001
      vertex  1.250000e+001  2.069921e+001  1.616472e+001
    endloop
  endfacet
  facet normal  9.678428e-001  6.351423e-002  2.434055e-001
    outer loop
      vertex  1.500000e+001  3.279737e+001  5.749129e+000
      vertex  1.433013e+001  3.449627e+001  7.969406e+000
      vertex  1.433013e+001  2.915153e+001  9.364063e+000
    endloop
  endfacet
  facet normal  9.609523e-001  8.465271e-002  2.634479e-001
    outer loop
      vertex  1.500000e+001  3.279737e+001  5.749129e+000
      vertex  1.433013e+001  2.915153e+001  9.364063e+000
      vertex  1.500000e+001  2.590307e+001  7.964449e+000
    endloop
  endfacet
  facet normal  3.159229e-001  2.976097e-001  9.009002e-001
    outer loop
      vertex  1.250000e+001  2.976242e+001  1.108922e+001
      vertex  1.000000e+001  3.366680e+001  1.067611e+001
      vertex  1.000000e+001  2.761907e+001  1.267396e+001
    endloop
  endfacet
  facet normal  2.181852e-001  4.027549e-001  8.889228e-001
    outer loop
      vertex  1.250000e+001  2.976242e+001  1.108922e+001
      vertex  1.000000e+001  2.761907e+001  1.267396e+001
      vertex  1.250000e+001  2.501438e+001  1.324048e+001
    endloop
  endfacet
  facet normal  2.282407e-001  2.458212e-001  9.420605e-001
    outer loop
      vertex  1.250000e+001  3.480619e+001  9.773100e+000
      vertex  1.000000e+001  3.366680e+001  1.067611e+001
      vertex  1.250000e+001  2.976242e+001  1.108922e+001
    endloop
  endfacet
  facet normal  3.593822e-001  6.434453e-001  6.758865e-001
    outer loop
      vertex  1.250000e+001  2.069921e+001  1.616472e+001
      vertex  1.101585e+001  1.750015e+001  1.999938e+001
      vertex  1.218701e+001  1.770446e+001  1.918215e+001
    endloop
  endfacet
  facet normal  6.023431e-001  5.344507e-001  5.929126e-001
    outer loop
      vertex  1.250000e+001  2.069921e+001  1.616472e+001
      vertex  1.218701e+001  1.770446e+001  1.918215e+001
      vertex  1.338860e+001  1.809842e+001  1.760633e+001
    endloop
  endfacet
  facet normal  9.605342e-001  1.377725e-001  2.416459e-001
    outer loop
      vertex  1.500000e+001  1.961222e+001  1.155113e+001
      vertex  1.500000e+001  2.590307e+001  7.964449e+000
      vertex  1.433013e+001  2.412016e+001  1.164369e+001
    endloop
  endfacet
  facet normal  9.685035e-001  1.396860e-001  2.061279e-001
    outer loop
      vertex  1.500000e+001  1.961222e+001  1.155113e+001
      vertex  1.433013e+001  2.412016e+001  1.164369e+001
      vertex  1.433013e+001  1.954750e+001  1.474242e+001
    endloop
  endfacet
  facet normal  9.615685e-001  1.820515e-001  2.055314e-001
    outer loop
      vertex  1.500000e+001  1.961222e+001  1.155113e+001
      vertex  1.433013e+001  1.954750e+001  1.474242e+001
      vertex  1.434760e+001  1.863213e+001  1.547149e+001
    endloop
  endfacet
  facet normal  7.341563e-001  5.033963e-001  4.556390e-001
    outer loop
      vertex  1.338860e+001  1.809842e+001  1.760633e+001
      vertex  1.434760e+001  1.863213e+001  1.547149e+001
      vertex  1.250000e+001  2.069921e+001  1.616472e+001
    endloop
  endfacet
  facet normal  7.070985e-001  4.487476e-001  5.464771e-001
    outer loop
      vertex  1.250000e+001  2.069921e+001  1.616472e+001
      vertex  1.434760e+001  1.863213e+001  1.547149e+001
      vertex  1.433013e+001  1.954750e+001  1.474242e+001
    endloop
  endfacet
  facet normal  7.058245e-001  3.973967e-001  5.864193e-001
    outer loop
      vertex  1.250000e+001  2.069921e+001  1.616472e+001
      vertex  1.433013e+001  1.954750e+001  1.474242e+001
      vertex  1.250000e+001  2.501438e+001  1.324048e+001
    endloop
  endfacet
  facet normal  7.058246e-001  3.973968e-001  5.864193e-001
    outer loop
      vertex  1.250000e+001  2.501438e+001  1.324048e+001
      vertex  1.433013e+001  1.954750e+001  1.474242e+001
      vertex  1.433013e+001  2.412016e+001  1.164369e+001
    endloop
  endfacet
  facet normal  7.058245e-001  2.923497e-001  6.452467e-001
    outer loop
      vertex  1.250000e+001  2.501438e+001  1.324048e+001
      vertex  1.433013e+001  2.412016e+001  1.164369e+001
      vertex  1.250000e+001  2.976242e+001  1.108922e+001
    endloop
  endfacet
  facet normal  7.058243e-001  2.923496e-001  6.452470e-001
    outer loop
      vertex  1.250000e+001  2.976242e+001  1.108922e+001
      vertex  1.433013e+001  2.412016e+001  1.164369e+001
      vertex  1.433013e+001  2.915153e+001  9.364063e+000
    endloop
  endfacet
  facet normal  7.058244e-001  1.788575e-001  6.854357e-001
    outer loop
      vertex  1.250000e+001  2.976242e+001  1.108922e+001
      vertex  1.433013e+001  2.915153e+001  9.364063e+000
      vertex  1.250000e+001  3.480619e+001  9.773100e+000
    endloop
  endfacet
  facet normal  7.058244e-001  1.788575e-001  6.854357e-001
    outer loop
      vertex  1.250000e+001  3.480619e+001  9.773100e+000
      vertex  1.433013e+001  2.915153e+001  9.364063e+000
      vertex  1.433013e+001  3.449627e+001  7.969406e+000
    endloop
  endfacet
  facet normal  7.058244e-001  6.019887e-002  7.058243e-001
    outer loop
      vertex  1.250000e+001  3.480619e+001  9.773100e+000
      vertex  1.433013e+001  3.449627e+001  7.969406e+000
      vertex  1.250000e+001  4.000000e+001  9.330127e+000
    endloop
  endfacet
  facet normal  7.058244e-001  6.019883e-002  7.058244e-001
    outer loop
      vertex  1.250000e+001  4.000000e+001  9.330127e+000
      vertex  1.433013e+001  3.449627e+001  7.969406e+000
      vertex  1.433013e+001  4.000000e+001  7.500000e+000
    endloop
  endfacet
  facet normal -2.579453e-001  8.210445e-002  9.626646e-001
    outer loop
      vertex -1.000000e+001  4.000000e+001  1.000000e+001
      vertex -1.250000e+001  4.000000e+001  9.330127e+000
      vertex -1.250000e+001  3.480619e+001  9.773100e+000
    endloop
  endfacet
  facet normal -2.967804e-001  1.013704e-001  9.495500e-001
    outer loop
      vertex -1.000000e+001  4.000000e+001  1.000000e+001
      vertex -1.250000e+001  3.480619e+001  9.773100e+000
      vertex -1.000000e+001  3.366680e+001  1.067611e+001
    endloop
  endfacet
  facet normal -9.627203e-001  2.798304e-002  2.690476e-001
    outer loop
      vertex -1.500000e+001  4.000000e+001  5.000000e+000
      vertex -1.500000e+001  3.279737e+001  5.749129e+000
      vertex -1.433013e+001  3.449627e+001  7.969406e+000
    endloop
  endfacet
  facet normal -9.656906e-001  2.206897e-002  2.587561e-001
    outer loop
      vertex -1.500000e+001  4.000000e+001  5.000000e+000
      vertex -1.433013e+001  3.449627e+001  7.969406e+000
      vertex -1.433013e+001  4.000000e+001  7.500000e+000
    endloop
  endfacet
  facet normal -2.282408e-001  5.461810e-001  8.059729e-001
    outer loop
      vertex -1.000000e+001  2.212939e+001  1.590350e+001
      vertex -1.250000e+001  2.501438e+001  1.324048e+001
      vertex -1.250000e+001  2.069921e+001  1.616472e+001
    endloop
  endfacet
  facet normal  8.375391e-007  9.701429e-001  2.425340e-001
    outer loop
      vertex -1.000000e+001  1.744521e+001  2.021917e+001
      vertex -1.218701e+001  1.770446e+001  1.918215e+001
      vertex -1.101585e+001  1.750015e+001  1.999938e+001
    endloop
  endfacet
  facet normal -2.181852e-001  4.027549e-001  8.889228e-001
    outer loop
      vertex -1.000000e+001  2.761907e+001  1.267396e+001
      vertex -1.250000e+001  2.976242e+001  1.108922e+001
      vertex -1.250000e+001  2.501438e+001  1.324048e+001
    endloop
  endfacet
  facet normal -3.159229e-001  4.810884e-001  8.177693e-001
    outer loop
      vertex -1.000000e+001  2.761907e+001  1.267396e+001
      vertex -1.250000e+001  2.501438e+001  1.324048e+001
      vertex -1.000000e+001  2.212939e+001  1.590350e+001
    endloop
  endfacet
  facet normal -2.282407e-001  2.458212e-001  9.420605e-001
    outer loop
      vertex -1.000000e+001  3.366680e+001  1.067611e+001
      vertex -1.250000e+001  3.480619e+001  9.773100e+000
      vertex -1.250000e+001  2.976242e+001  1.108922e+001
    endloop
  endfacet
  facet normal -3.159229e-001  2.976097e-001  9.009002e-001
    outer loop
      vertex -1.000000e+001  3.366680e+001  1.067611e+001
      vertex -1.250000e+001  2.976242e+001  1.108922e+001
      vertex -1.000000e+001  2.761907e+001  1.267396e+001
    endloop
  endfacet
  facet normal -9.609523e-001  8.465271e-002  2.634479e-001
    outer loop
      vertex -1.433013e+001  2.915153e+001  9.364063e+000
      vertex -1.500000e+001  3.279737e+001  5.749129e+000
      vertex -1.500000e+001  2.590307e+001  7.964449e+000
    endloop
  endfacet
  facet normal -9.687321e-001  1.023940e-001  2.259945e-001
    outer loop
      vertex -1.433013e+001  2.915153e+001  9.364063e+000
      vertex -1.500000e+001  2.590307e+001  7.964449e+000
      vertex -1.433013e+001  2.412016e+001  1.164369e+001
    endloop
  endfacet
  facet normal -9.678428e-001  6.351423e-002  2.434055e-001
    outer loop
      vertex -1.433013e+001  3.449627e+001  7.969406e+000
      vertex -1.500000e+001  3.279737e+001  5.749129e+000
      vertex -1.433013e+001  2.915153e+001  9.364063e+000
    endloop
  endfacet
  facet normal -9.615685e-001  1.820515e-001  2.055314e-001
    outer loop
      vertex -1.500000e+001  1.961222e+001  1.155113e+001
      vertex -1.434760e+001  1.863213e+001  1.547149e+001
      vertex -1.433013e+001  1.954750e+001  1.474242e+001
    endloop
  endfacet
  facet normal -9.685035e-001  1.396860e-001  2.061279e-001
    outer loop
      vertex -1.500000e+001  1.961222e+001  1.155113e+001
      vertex -1.433013e+001  1.954750e+001  1.474242e+001
      vertex -1.433013e+001  2.412016e+001  1.164369e+001
    endloop
  endfacet
  facet normal -9.605342e-001  1.377725e-001  2.416459e-001
    outer loop
      vertex -1.500000e+001  1.961222e+001  1.155113e+001
      vertex -1.433013e+001  2.412016e+001  1.164369e+001
      vertex -1.500000e+001  2.590307e+001  7.964449e+000
    endloop
  endfacet
  facet normal -2.592286e-001  6.544225e-001  7.103039e-001
    outer loop
      vertex -1.000000e+001  1.744521e+001  2.021917e+001
      vertex -1.000000e+001  2.212939e+001  1.590350e+001
      vertex -1.218701e+001  1.770446e+001  1.918215e+001
    endloop
  endfacet
  facet normal -3.056937e-001  6.597499e-001  6.864995e-001
    outer loop
      vertex -1.218701e+001  1.770446e+001  1.918215e+001
      vertex -1.000000e+001  2.212939e+001  1.590350e+001
      vertex -1.250000e+001  2.069921e+001  1.616472e+001
    endloop
  endfacet
  facet normal -6.023431e-001  5.344507e-001  5.929126e-001
    outer loop
      vertex -1.218701e+001  1.770446e+001  1.918215e+001
      vertex -1.250000e+001  2.069921e+001  1.616472e+001
      vertex -1.338860e+001  1.809842e+001  1.760633e+001
    endloop
  endfacet
  facet normal -8.051042e-001  3.788536e-001  4.563738e-001
    outer loop
      vertex -1.434760e+001  1.863213e+001  1.547149e+001
      vertex -1.338860e+001  1.809842e+001  1.760633e+001
      vertex -1.433013e+001  1.954750e+001  1.474242e+001
    endloop
  endfacet
  facet normal -7.042674e-001  5.127770e-001  4.909859e-001
    outer loop
      vertex -1.433013e+001  1.954750e+001  1.474242e+001
      vertex -1.338860e+001  1.809842e+001  1.760633e+001
      vertex -1.250000e+001  2.069921e+001  1.616472e+001
    endloop
  endfacet
  facet normal -7.058246e-001  3.973968e-001  5.864193e-001
    outer loop
      vertex -1.433013e+001  1.954750e+001  1.474242e+001
      vertex -1.250000e+001  2.069921e+001  1.616472e+001
      vertex -1.433013e+001  2.412016e+001  1.164369e+001
    endloop
  endfacet
  facet normal -7.058245e-001  3.973967e-001  5.864193e-001
    outer loop
      vertex -1.433013e+001  2.412016e+001  1.164369e+001
      vertex -1.250000e+001  2.069921e+001  1.616472e+001
      vertex -1.250000e+001  2.501438e+001  1.324048e+001
    endloop
  endfacet
  facet normal -7.058245e-001  2.923496e-001  6.452469e-001
    outer loop
      vertex -1.433013e+001  2.412016e+001  1.164369e+001
      vertex -1.250000e+001  2.501438e+001  1.324048e+001
      vertex -1.433013e+001  2.915153e+001  9.364063e+000
    endloop
  endfacet
  facet normal -7.058243e-001  2.923498e-001  6.452469e-001
    outer loop
      vertex -1.433013e+001  2.915153e+001  9.364063e+000
      vertex -1.250000e+001  2.501438e+001  1.324048e+001
      vertex -1.250000e+001  2.976242e+001  1.108922e+001
    endloop
  endfacet
  facet normal -7.058244e-001  1.788575e-001  6.854357e-001
    outer loop
      vertex -1.433013e+001  2.915153e+001  9.364063e+000
      vertex -1.250000e+001  2.976242e+001  1.108922e+001
      vertex -1.433013e+001  3.449627e+001  7.969406e+000
    endloop
  endfacet
  facet normal -7.058244e-001  1.788575e-001  6.854357e-001
    outer loop
      vertex -1.433013e+001  3.449627e+001  7.969406e+000
      vertex -1.250000e+001  2.976242e+001  1.108922e+001
      vertex -1.250000e+001  3.480619e+001  9.773100e+000
    endloop
  endfacet
  facet normal -7.058244e-001  6.019883e-002  7.058244e-001
    outer loop
      vertex -1.433013e+001  3.449627e+001  7.969406e+000
      vertex -1.250000e+001  3.480619e+001  9.773100e+000
      vertex -1.433013e+001  4.000000e+001  7.500000e+000
    endloop
  endfacet
  facet normal -7.058244e-001  6.019887e-002  7.058244e-001
    outer loop
      vertex -1.433013e+001  4.000000e+001  7.500000e+000
      vertex -1.250000e+001  3.480619e+001  9.773100e+000
      vertex -1.250000e+001  4.000000e+001  9.330127e+000
    endloop
  endfacet
  facet normal  -0.000000e+000  1.061530e-001  9.943498e-001
    outer loop
      vertex  1.000000e+001  4.000000e+001  1.000000e+001
      vertex -1.000000e+001  4.000000e+001  1.000000e+001
      vertex  1.000000e+001  3.366680e+001  1.067611e+001
    endloop
  endfacet
  facet normal  0.000000e+000  1.061530e-001  9.943498e-001
    outer loop
      vertex  1.000000e+001  3.366680e+001  1.067611e+001
      vertex -1.000000e+001  4.000000e+001  1.000000e+001
      vertex -1.000000e+001  3.366680e+001  1.067611e+001
    endloop
  endfacet
  facet normal  -0.000000e+000  3.136746e-001  9.495306e-001
    outer loop
      vertex  1.000000e+001  3.366680e+001  1.067611e+001
      vertex -1.000000e+001  3.366680e+001  1.067611e+001
      vertex  1.000000e+001  2.761907e+001  1.267396e+001
    endloop
  endfacet
  facet normal  0.000000e+000  3.136746e-001  9.495306e-001
    outer loop
      vertex  1.000000e+001  2.761907e+001  1.267396e+001
      vertex -1.000000e+001  3.366680e+001  1.067611e+001
      vertex -1.000000e+001  2.761907e+001  1.267396e+001
    endloop
  endfacet
  facet normal  -0.000000e+000  5.070574e-001  8.619123e-001
    outer loop
      vertex  1.000000e+001  2.761907e+001  1.267396e+001
      vertex -1.000000e+001  2.761907e+001  1.267396e+001
      vertex  1.000000e+001  2.212939e+001  1.590350e+001
    endloop
  endfacet
  facet normal  0.000000e+000  5.070574e-001  8.619123e-001
    outer loop
      vertex  1.000000e+001  2.212939e+001  1.590350e+001
      vertex -1.000000e+001  2.761907e+001  1.267396e+001
      vertex -1.000000e+001  2.212939e+001  1.590350e+001
    endloop
  endfacet
  facet normal  -0.000000e+000  6.775851e-001  7.354444e-001
    outer loop
      vertex  1.000000e+001  2.212939e+001  1.590350e+001
      vertex -1.000000e+001  2.212939e+001  1.590350e+001
      vertex  1.000000e+001  1.744521e+001  2.021917e+001
    endloop
  endfacet
  facet normal  0.000000e+000  6.775851e-001  7.354444e-001
    outer loop
      vertex  1.000000e+001  1.744521e+001  2.021917e+001
      vertex -1.000000e+001  2.212939e+001  1.590350e+001
      vertex -1.000000e+001  1.744521e+001  2.021917e+001
    endloop
  endfacet
  facet normal -8.375391e-007 -9.701429e-001 -2.425340e-001
    outer loop
      vertex -1.000000e+001  1.744521e+001  2.021917e+001
      vertex -1.101585e+001  1.750015e+001  1.999938e+001
      vertex -1.218701e+001  1.770446e+001  1.918215e+001
    endloop
  endfacet
  facet normal  0.000000e+000 -9.701424e-001 -2.425356e-001
    outer loop
      vertex -1.000000e+001  1.744521e+001  2.021917e+001
      vertex -1.218701e+001  1.770446e+001  1.918215e+001
      vertex -1.338860e+001  1.809842e+001  1.760633e+001
    endloop
  endfacet
  facet normal  3.834318e-007 -9.701424e-001 -2.425361e-001
    outer loop
      vertex -1.000000e+001  1.744521e+001  2.021917e+001
      vertex -1.338860e+001  1.809842e+001  1.760633e+001
      vertex -1.434760e+001  1.863213e+001  1.547149e+001
    endloop
  endfacet
  facet normal  1.198999e-007 -9.701424e-001 -2.425359e-001
    outer loop
      vertex -1.000000e+001  1.744521e+001  2.021917e+001
      vertex -1.434760e+001  1.863213e+001  1.547149e+001
      vertex -1.500000e+001  1.961222e+001  1.155113e+001
    endloop
  endfacet
  facet normal -1.099353e-006 -9.701426e-001 -2.425352e-001
    outer loop
      vertex -1.000000e+001  1.744521e+001  2.021917e+001
      vertex -1.500000e+001  1.961222e+001  1.155113e+001
      vertex -1.500000e+001  2.000000e+001  1.000000e+001
    endloop
  endfacet
  facet normal  0.000000e+000 -9.701425e-001 -2.425357e-001
    outer loop
      vertex -1.000000e+001  1.744521e+001  2.021917e+001
      vertex -1.500000e+001  2.000000e+001  1.000000e+001
      vertex  1.500000e+001  2.000000e+001  1.000000e+001
    endloop
  endfacet
  facet normal  0.000000e+000 -9.701424e-001 -2.425357e-001
    outer loop
      vertex -1.000000e+001  1.744521e+001  2.021917e+001
      vertex  1.500000e+001  2.000000e+001  1.000000e+001
      vertex  1.000000e+001  1.744521e+001  2.021917e+001
    endloop
  endfacet
  facet normal  4.106330e-006 -9.701426e-001 -2.425352e-001
    outer loop
      vertex  1.500000e+001  2.000000e+001  1.000000e+001
      vertex  1.500000e+001  1.961222e+001  1.155113e+001
      vertex  1.434760e+001  1.863213e+001  1.547149e+001
    endloop
  endfacet
  facet normal  8.569241e-007 -9.701425e-001 -2.425356e-001
    outer loop
      vertex  1.500000e+001  2.000000e+001  1.000000e+001
      vertex  1.434760e+001  1.863213e+001  1.547149e+001
      vertex  1.338860e+001  1.809842e+001  1.760633e+001
    endloop
  endfacet
  facet normal -2.208851e-007 -9.701424e-001 -2.425358e-001
    outer loop
      vertex  1.500000e+001  2.000000e+001  1.000000e+001
      vertex  1.338860e+001  1.809842e+001  1.760633e+001
      vertex  1.218701e+001  1.770446e+001  1.918215e+001
    endloop
  endfacet
  facet normal -5.918160e-007 -9.701425e-001 -2.425359e-001
    outer loop
      vertex  1.500000e+001  2.000000e+001  1.000000e+001
      vertex  1.218701e+001  1.770446e+001  1.918215e+001
      vertex  1.101585e+001  1.750015e+001  1.999938e+001
    endloop
  endfacet
  facet normal  4.873892e-007 -9.701425e-001 -2.425355e-001
    outer loop
      vertex  1.500000e+001  2.000000e+001  1.000000e+001
      vertex  1.101585e+001  1.750015e+001  1.999938e+001
      vertex  1.000000e+001  1.744521e+001  2.021917e+001
    endloop
  endfacet
  facet normal  0.000000e+000 -7.071068e-001  7.071068e-001
    outer loop
      vertex -1.500000e+001  2.000000e+001  1.000000e+001
      vertex -1.500000e+001  1.100000e+001  1.000000e+000
      vertex -3.350000e+000  1.500000e+001  5.000000e+000
    endloop
  endfacet
  facet normal  0.000000e+000 -7.071068e-001  7.071068e-001
    outer loop
      vertex -1.500000e+001  2.000000e+001  1.000000e+001
      vertex -3.350000e+000  1.500000e+001  5.000000e+000
      vertex -3.282724e+000  1.566800e+001  5.668001e+000
    endloop
  endfacet
  facet normal -7.610879e-008 -7.071069e-001  7.071067e-001
    outer loop
      vertex -1.500000e+001  2.000000e+001  1.000000e+001
      vertex -3.282724e+000  1.566800e+001  5.668001e+000
      vertex -2.636356e+000  1.706691e+001  7.066912e+000
    endloop
  endfacet
  facet normal -2.126539e-008 -7.071068e-001  7.071068e-001
    outer loop
      vertex -1.500000e+001  2.000000e+001  1.000000e+001
      vertex -2.636356e+000  1.706691e+001  7.066912e+000
      vertex -1.580710e+000  1.795362e+001  7.953618e+000
    endloop
  endfacet
  facet normal  1.282082e-007 -7.071063e-001  7.071073e-001
    outer loop
      vertex -1.500000e+001  2.000000e+001  1.000000e+001
      vertex -1.580710e+000  1.795362e+001  7.953618e+000
      vertex -9.592938e-001  1.820971e+001  8.209713e+000
    endloop
  endfacet
  facet normal -3.064995e-007 -7.071080e-001  7.071056e-001
    outer loop
      vertex -1.500000e+001  2.000000e+001  1.000000e+001
      vertex -9.592938e-001  1.820971e+001  8.209713e+000
      vertex  1.775819e-001  1.834529e+001  8.345290e+000
    endloop
  endfacet
  facet normal  0.000000e+000 -7.071066e-001  7.071069e-001
    outer loop
      vertex -1.500000e+001  2.000000e+001  1.000000e+001
      vertex  1.775819e-001  1.834529e+001  8.345290e+000
      vertex  1.500000e+001  2.000000e+001  1.000000e+001
    endloop
  endfacet
  facet normal -1.519631e-007 -7.071068e-001  7.071066e-001
    outer loop
      vertex  3.350000e+000  1.500000e+001  5.000000e+000
      vertex  1.200000e+001  8.000000e+000 -2.000000e+000
      vertex  1.292770e+001  8.147040e+000 -1.852959e+000
    endloop
  endfacet
  facet normal  2.986234e-007 -7.071065e-001  7.071069e-001
    outer loop
      vertex  3.350000e+000  1.500000e+001  5.000000e+000
      vertex  1.292770e+001  8.147040e+000 -1.852959e+000
      vertex  1.375364e+001  8.565921e+000 -1.434080e+000
    endloop
  endfacet
  facet normal -1.156750e-008 -7.071068e-001  7.071067e-001
    outer loop
      vertex  3.350000e+000  1.500000e+001  5.000000e+000
      vertex  1.375364e+001  8.565921e+000 -1.434080e+000
      vertex  1.465572e+001  9.604597e+000 -3.954031e-001
    endloop
  endfacet
  facet normal -5.158328e-008 -7.071068e-001  7.071068e-001
    outer loop
      vertex  3.350000e+000  1.500000e+001  5.000000e+000
      vertex  1.465572e+001  9.604597e+000 -3.954031e-001
      vertex  1.500000e+001  1.100000e+001  1.000000e+000
    endloop
  endfacet
  facet normal  0.000000e+000 -7.071068e-001  7.071068e-001
    outer loop
      vertex  3.350000e+000  1.500000e+001  5.000000e+000
      vertex  1.500000e+001  1.100000e+001  1.000000e+000
      vertex  1.500000e+001  2.000000e+001  1.000000e+001
    endloop
  endfacet
  facet normal  5.220954e-007 -7.071089e-001  7.071046e-001
    outer loop
      vertex  1.500000e+001  2.000000e+001  1.000000e+001
      vertex  1.775819e-001  1.834529e+001  8.345290e+000
      vertex  1.146157e+000  1.814783e+001  8.147828e+000
    endloop
  endfacet
  facet normal -2.442747e-007 -7.071061e-001  7.071074e-001
    outer loop
      vertex  1.500000e+001  2.000000e+001  1.000000e+001
      vertex  1.146157e+000  1.814783e+001  8.147828e+000
      vertex  2.094201e+000  1.761473e+001  7.614731e+000
    endloop
  endfacet
  facet normal  9.979794e-008 -7.071071e-001  7.071066e-001
    outer loop
      vertex  1.500000e+001  2.000000e+001  1.000000e+001
      vertex  2.094201e+000  1.761473e+001  7.614731e+000
      vertex  3.134045e+000  1.618333e+001  6.183326e+000
    endloop
  endfacet
  facet normal -1.134083e-007 -7.071066e-001  7.071069e-001
    outer loop
      vertex  1.500000e+001  2.000000e+001  1.000000e+001
      vertex  3.134045e+000  1.618333e+001  6.183326e+000
      vertex  3.350000e+000  1.500000e+001  5.000000e+000
    endloop
  endfacet
  facet normal  0.000000e+000 -7.071068e-001  7.071068e-001
    outer loop
      vertex  1.200000e+001  8.000000e+000 -2.000000e+000
      vertex  3.350000e+000  1.500000e+001  5.000000e+000
      vertex  3.282724e+000  1.433200e+001  4.331999e+000
    endloop
  endfacet
  facet normal -6.554082e-008 -7.071069e-001  7.071068e-001
    outer loop
      vertex  1.200000e+001  8.000000e+000 -2.000000e+000
      vertex  3.282724e+000  1.433200e+001  4.331999e+000
      vertex  2.636356e+000  1.293309e+001  2.933088e+000
    endloop
  endfacet
  facet normal -6.155680e-008 -7.071069e-001  7.071067e-001
    outer loop
      vertex  1.200000e+001  8.000000e+000 -2.000000e+000
      vertex  2.636356e+000  1.293309e+001  2.933088e+000
      vertex  1.580710e+000  1.204638e+001  2.046382e+000
    endloop
  endfacet
  facet normal  4.440137e-007 -7.071062e-001  7.071074e-001
    outer loop
      vertex  1.200000e+001  8.000000e+000 -2.000000e+000
      vertex  1.580710e+000  1.204638e+001  2.046382e+000
      vertex  9.592938e-001  1.179029e+001  1.790287e+000
    endloop
  endfacet
  facet normal -4.715574e-008 -7.071068e-001  7.071066e-001
    outer loop
      vertex  1.200000e+001  8.000000e+000 -2.000000e+000
      vertex  9.592938e-001  1.179029e+001  1.790287e+000
      vertex -1.775819e-001  1.165471e+001  1.654710e+000
    endloop
  endfacet
  facet normal -1.386151e-006 -7.071091e-001  7.071044e-001
    outer loop
      vertex  1.200000e+001  8.000000e+000 -2.000000e+000
      vertex -1.775819e-001  1.165471e+001  1.654710e+000
      vertex -1.146157e+000  1.185217e+001  1.852172e+000
    endloop
  endfacet
  facet normal  0.000000e+000 -7.071068e-001  7.071068e-001
    outer loop
      vertex -1.200000e+001  8.000000e+000 -2.000000e+000
      vertex  1.200000e+001  8.000000e+000 -2.000000e+000
      vertex -1.146157e+000  1.185217e+001  1.852172e+000
    endloop
  endfacet
  facet normal  1.910661e-007 -7.071070e-001  7.071065e-001
    outer loop
      vertex -1.200000e+001  8.000000e+000 -2.000000e+000
      vertex -1.146157e+000  1.185217e+001  1.852172e+000
      vertex -2.094201e+000  1.238527e+001  2.385268e+000
    endloop
  endfacet
  facet normal -1.183563e-007 -7.071066e-001  7.071069e-001
    outer loop
      vertex -1.200000e+001  8.000000e+000 -2.000000e+000
      vertex -2.094201e+000  1.238527e+001  2.385268e+000
      vertex -3.134045e+000  1.381667e+001  3.816674e+000
    endloop
  endfacet
  facet normal  2.009136e-007 -7.071069e-001  7.071066e-001
    outer loop
      vertex -1.200000e+001  8.000000e+000 -2.000000e+000
      vertex -3.134045e+000  1.381667e+001  3.816674e+000
      vertex -3.350000e+000  1.500000e+001  5.000000e+000
    endloop
  endfacet
  facet normal  3.824239e-008 -7.071068e-001  7.071067e-001
    outer loop
      vertex -3.350000e+000  1.500000e+001  5.000000e+000
      vertex -1.500000e+001  1.100000e+001  1.000000e+000
      vertex -1.465572e+001  9.604597e+000 -3.954031e-001
    endloop
  endfacet
  facet normal  2.738089e-008 -7.071068e-001  7.071067e-001
    outer loop
      vertex -3.350000e+000  1.500000e+001  5.000000e+000
      vertex -1.465572e+001  9.604597e+000 -3.954031e-001
      vertex -1.375364e+001  8.565921e+000 -1.434080e+000
    endloop
  endfacet
  facet normal -2.949729e-007 -7.071066e-001  7.071071e-001
    outer loop
      vertex -3.350000e+000  1.500000e+001  5.000000e+000
      vertex -1.375364e+001  8.565921e+000 -1.434080e+000
      vertex -1.292770e+001  8.147040e+000 -1.852959e+000
    endloop
  endfacet
  facet normal  1.487710e-007 -7.071069e-001  7.071066e-001
    outer loop
      vertex -3.350000e+000  1.500000e+001  5.000000e+000
      vertex -1.292770e+001  8.147040e+000 -1.852959e+000
      vertex -1.200000e+001  8.000000e+000 -2.000000e+000
    endloop
  endfacet
endsolid CATIA STL
