solid CATIA STL
  facet normal  1.000000e+000  0.000000e+000  0.000000e+000
    outer loop
      vertex  1.500000e+001  1.400000e+002  1.000000e+000
      vertex  1.500000e+001  2.300000e+002  1.000000e+000
      vertex  1.500000e+001  1.400000e+002  5.000000e+000
    endloop
  endfacet
  facet normal  1.000000e+000  -0.000000e+000  0.000000e+000
    outer loop
      vertex  1.500000e+001  1.400000e+002  5.000000e+000
      vertex  1.500000e+001  2.300000e+002  1.000000e+000
      vertex  1.500000e+001  2.300000e+002  5.000000e+000
    endloop
  endfacet
  facet normal  9.659257e-001  0.000000e+000 -2.588193e-001
    outer loop
      vertex  1.500000e+001  2.300000e+002  1.000000e+000
      vertex  1.500000e+001  1.400000e+002  1.000000e+000
      vertex  1.459808e+001  2.300000e+002 -5.000000e-001
    endloop
  endfacet
  facet normal  9.659257e-001  0.000000e+000 -2.588193e-001
    outer loop
      vertex  1.459808e+001  2.300000e+002 -5.000000e-001
      vertex  1.500000e+001  1.400000e+002  1.000000e+000
      vertex  1.459808e+001  1.400000e+002 -5.000000e-001
    endloop
  endfacet
  facet normal  7.071068e-001  0.000000e+000 -7.071066e-001
    outer loop
      vertex  1.459808e+001  2.300000e+002 -5.000000e-001
      vertex  1.459808e+001  1.400000e+002 -5.000000e-001
      vertex  1.350000e+001  2.300000e+002 -1.598076e+000
    endloop
  endfacet
  facet normal  7.071068e-001  0.000000e+000 -7.071066e-001
    outer loop
      vertex  1.350000e+001  2.300000e+002 -1.598076e+000
      vertex  1.459808e+001  1.400000e+002 -5.000000e-001
      vertex  1.350000e+001  1.400000e+002 -1.598076e+000
    endloop
  endfacet
  facet normal  2.588190e-001  0.000000e+000 -9.659259e-001
    outer loop
      vertex  1.350000e+001  2.300000e+002 -1.598076e+000
      vertex  1.350000e+001  1.400000e+002 -1.598076e+000
      vertex  1.200000e+001  2.300000e+002 -2.000000e+000
    endloop
  endfacet
  facet normal  2.588190e-001  0.000000e+000 -9.659259e-001
    outer loop
      vertex  1.200000e+001  2.300000e+002 -2.000000e+000
      vertex  1.350000e+001  1.400000e+002 -1.598076e+000
      vertex  1.200000e+001  1.400000e+002 -2.000000e+000
    endloop
  endfacet
  facet normal  9.659258e-001  0.000000e+000  2.588191e-001
    outer loop
      vertex  1.500000e+001  1.400000e+002  5.000000e+000
      vertex  1.500000e+001  2.300000e+002  5.000000e+000
      vertex  1.433013e+001  1.400000e+002  7.500000e+000
    endloop
  endfacet
  facet normal  9.920257e-001 -3.884357e-003  1.259757e-001
    outer loop
      vertex  1.433013e+001  1.400000e+002  7.500000e+000
      vertex  1.500000e+001  2.300000e+002  5.000000e+000
      vertex  1.486000e+001  2.323498e+002  6.174889e+000
    endloop
  endfacet
  facet normal  9.248323e-001  1.515114e-004  3.803751e-001
    outer loop
      vertex  1.433013e+001  1.400000e+002  7.500000e+000
      vertex  1.486000e+001  2.323498e+002  6.174889e+000
      vertex  1.427883e+001  2.351736e+002  7.586822e+000
    endloop
  endfacet
  facet normal  7.071068e-001 -2.639088e-004  7.071068e-001
    outer loop
      vertex  1.433013e+001  1.400000e+002  7.500000e+000
      vertex  1.427883e+001  2.351736e+002  7.586822e+000
      vertex  1.250000e+001  1.400000e+002  9.330127e+000
    endloop
  endfacet
  facet normal  7.659649e-001 -2.540481e-003  6.428774e-001
    outer loop
      vertex  1.250000e+001  1.400000e+002  9.330127e+000
      vertex  1.427883e+001  2.351736e+002  7.586822e+000
      vertex  1.331893e+001  2.374792e+002  8.739611e+000
    endloop
  endfacet
  facet normal  5.574894e-001  3.456215e-004  8.301840e-001
    outer loop
      vertex  1.250000e+001  1.400000e+002  9.330127e+000
      vertex  1.331893e+001  2.374792e+002  8.739611e+000
      vertex  1.220215e+001  2.389779e+002  9.488936e+000
    endloop
  endfacet
  facet normal  2.588190e-001 -7.709617e-004  9.659255e-001
    outer loop
      vertex  1.250000e+001  1.400000e+002  9.330127e+000
      vertex  1.220215e+001  2.389779e+002  9.488936e+000
      vertex  1.000000e+001  1.400000e+002  1.000000e+001
    endloop
  endfacet
  facet normal  3.252566e-001 -2.353953e-003  9.456229e-001
    outer loop
      vertex  1.000000e+001  1.400000e+002  1.000000e+001
      vertex  1.220215e+001  2.389779e+002  9.488936e+000
      vertex  1.104018e+001  2.397812e+002  9.890605e+000
    endloop
  endfacet
  facet normal  1.045921e-001  0.000000e+000  9.945151e-001
    outer loop
      vertex  1.000000e+001  1.400000e+002  1.000000e+001
      vertex  1.104018e+001  2.397812e+002  9.890605e+000
      vertex  1.000000e+001  2.400000e+002  1.000000e+001
    endloop
  endfacet
  facet normal  -0.000000e+000  0.000000e+000 -1.000000e+000
    outer loop
      vertex -7.386599e+000  1.457315e+002 -2.000000e+000
      vertex  3.912612e+000  1.400000e+002 -2.000000e+000
      vertex -7.386599e+000  1.300000e+002 -2.000000e+000
    endloop
  endfacet
  facet normal  0.000000e+000  0.000000e+000 -9.999999e-001
    outer loop
      vertex -7.386599e+000  1.300000e+002 -2.000000e+000
      vertex  3.912612e+000  1.400000e+002 -2.000000e+000
      vertex  3.912612e+000  1.300000e+002 -2.000000e+000
    endloop
  endfacet
  facet normal  0.000000e+000  0.000000e+000 -1.000000e+000
    outer loop
      vertex  1.200000e+001  1.400000e+002 -2.000000e+000
      vertex  3.912612e+000  1.400000e+002 -2.000000e+000
      vertex  1.200000e+001  2.300000e+002 -2.000000e+000
    endloop
  endfacet
  facet normal  0.000000e+000  0.000000e+000 -1.000000e+000
    outer loop
      vertex  1.200000e+001  2.300000e+002 -2.000000e+000
      vertex  3.912612e+000  1.400000e+002 -2.000000e+000
      vertex -7.386599e+000  1.457315e+002 -2.000000e+000
    endloop
  endfacet
  facet normal  0.000000e+000  0.000000e+000 -1.000000e+000
    outer loop
      vertex  1.200000e+001  2.300000e+002 -2.000000e+000
      vertex -7.386599e+000  1.457315e+002 -2.000000e+000
      vertex -1.200000e+001  2.300000e+002 -2.000000e+000
    endloop
  endfacet
  facet normal  0.000000e+000  0.000000e+000 -1.000000e+000
    outer loop
      vertex -1.200000e+001  2.300000e+002 -2.000000e+000
      vertex -7.386599e+000  1.457315e+002 -2.000000e+000
      vertex -1.200000e+001  1.457315e+002 -2.000000e+000
    endloop
  endfacet
  facet normal  0.000000e+000  0.000000e+000  9.999999e-001
    outer loop
      vertex -7.386599e+000  1.457315e+002  1.000000e+001
      vertex -1.000000e+001  2.400000e+002  1.000000e+001
      vertex -1.000000e+001  1.457315e+002  1.000000e+001
    endloop
  endfacet
  facet normal  -0.000000e+000  0.000000e+000  1.000000e+000
    outer loop
      vertex  1.000000e+001  2.400000e+002  1.000000e+001
      vertex -1.000000e+001  2.400000e+002  1.000000e+001
      vertex  1.000000e+001  1.400000e+002  1.000000e+001
    endloop
  endfacet
  facet normal  0.000000e+000  0.000000e+000  1.000000e+000
    outer loop
      vertex  1.000000e+001  1.400000e+002  1.000000e+001
      vertex -1.000000e+001  2.400000e+002  1.000000e+001
      vertex -7.386599e+000  1.457315e+002  1.000000e+001
    endloop
  endfacet
  facet normal  0.000000e+000  0.000000e+000  1.000000e+000
    outer loop
      vertex  1.000000e+001  1.400000e+002  1.000000e+001
      vertex -7.386599e+000  1.457315e+002  1.000000e+001
      vertex  3.912612e+000  1.400000e+002  1.000000e+001
    endloop
  endfacet
  facet normal  0.000000e+000  0.000000e+000  9.999999e-001
    outer loop
      vertex  3.912612e+000  1.300000e+002  1.000000e+001
      vertex  3.912612e+000  1.400000e+002  1.000000e+001
      vertex -7.386599e+000  1.300000e+002  1.000000e+001
    endloop
  endfacet
  facet normal  0.000000e+000  0.000000e+000  1.000000e+000
    outer loop
      vertex -7.386599e+000  1.300000e+002  1.000000e+001
      vertex  3.912612e+000  1.400000e+002  1.000000e+001
      vertex -7.386599e+000  1.457315e+002  1.000000e+001
    endloop
  endfacet
  facet normal -2.588190e-001  0.000000e+000 -9.659258e-001
    outer loop
      vertex -1.200000e+001  2.300000e+002 -2.000000e+000
      vertex -1.200000e+001  1.457315e+002 -2.000000e+000
      vertex -1.350000e+001  2.300000e+002 -1.598076e+000
    endloop
  endfacet
  facet normal -2.588190e-001  -0.000000e+000 -9.659258e-001
    outer loop
      vertex -1.350000e+001  2.300000e+002 -1.598076e+000
      vertex -1.200000e+001  1.457315e+002 -2.000000e+000
      vertex -1.350000e+001  1.457315e+002 -1.598076e+000
    endloop
  endfacet
  facet normal -7.071069e-001  0.000000e+000 -7.071066e-001
    outer loop
      vertex -1.350000e+001  2.300000e+002 -1.598076e+000
      vertex -1.350000e+001  1.457315e+002 -1.598076e+000
      vertex -1.459808e+001  2.300000e+002 -5.000000e-001
    endloop
  endfacet
  facet normal -7.071069e-001  -0.000000e+000 -7.071066e-001
    outer loop
      vertex -1.459808e+001  2.300000e+002 -5.000000e-001
      vertex -1.350000e+001  1.457315e+002 -1.598076e+000
      vertex -1.459808e+001  1.457315e+002 -5.000000e-001
    endloop
  endfacet
  facet normal -9.659258e-001  0.000000e+000 -2.588193e-001
    outer loop
      vertex -1.459808e+001  2.300000e+002 -5.000000e-001
      vertex -1.459808e+001  1.457315e+002 -5.000000e-001
      vertex -1.500000e+001  2.300000e+002  1.000000e+000
    endloop
  endfacet
  facet normal -9.659258e-001  -0.000000e+000 -2.588193e-001
    outer loop
      vertex -1.500000e+001  2.300000e+002  1.000000e+000
      vertex -1.459808e+001  1.457315e+002 -5.000000e-001
      vertex -1.500000e+001  1.457315e+002  1.000000e+000
    endloop
  endfacet
  facet normal -5.575091e-001  3.669510e-004  8.301708e-001
    outer loop
      vertex -1.250000e+001  1.457315e+002  9.330127e+000
      vertex -1.220215e+001  2.389779e+002  9.488936e+000
      vertex -1.331893e+001  2.374792e+002  8.739611e+000
    endloop
  endfacet
  facet normal -2.588192e-001  0.000000e+000  9.659258e-001
    outer loop
      vertex -1.000000e+001  1.457315e+002  1.000000e+001
      vertex -1.000000e+001  2.400000e+002  1.000000e+001
      vertex -1.250000e+001  1.457315e+002  9.330127e+000
    endloop
  endfacet
  facet normal -1.036928e-001 -4.317708e-003  9.946000e-001
    outer loop
      vertex -1.250000e+001  1.457315e+002  9.330127e+000
      vertex -1.000000e+001  2.400000e+002  1.000000e+001
      vertex -1.104018e+001  2.397812e+002  9.890605e+000
    endloop
  endfacet
  facet normal -3.263611e-001 -5.673812e-004  9.452450e-001
    outer loop
      vertex -1.250000e+001  1.457315e+002  9.330127e+000
      vertex -1.104018e+001  2.397812e+002  9.890605e+000
      vertex -1.220215e+001  2.389779e+002  9.488936e+000
    endloop
  endfacet
  facet normal -7.071057e-001 -1.760420e-003  7.071057e-001
    outer loop
      vertex -1.250000e+001  1.457315e+002  9.330127e+000
      vertex -1.331893e+001  2.374792e+002  8.739611e+000
      vertex -1.433013e+001  1.457315e+002  7.500000e+000
    endloop
  endfacet
  facet normal -7.682940e-001 -1.806786e-004  6.400972e-001
    outer loop
      vertex -1.433013e+001  1.457315e+002  7.500000e+000
      vertex -1.331893e+001  2.374792e+002  8.739611e+000
      vertex -1.427883e+001  2.351736e+002  7.586822e+000
    endloop
  endfacet
  facet normal -9.659258e-001  3.027852e-004  2.588191e-001
    outer loop
      vertex -1.433013e+001  1.457315e+002  7.500000e+000
      vertex -1.427883e+001  2.351736e+002  7.586822e+000
      vertex -1.500000e+001  1.457315e+002  5.000000e+000
    endloop
  endfacet
  facet normal -9.220500e-001 -3.759711e-003  3.870523e-001
    outer loop
      vertex -1.500000e+001  1.457315e+002  5.000000e+000
      vertex -1.427883e+001  2.351736e+002  7.586822e+000
      vertex -1.486000e+001  2.323498e+002  6.174889e+000
    endloop
  endfacet
  facet normal -9.929756e-001  0.000000e+000  1.183202e-001
    outer loop
      vertex -1.500000e+001  1.457315e+002  5.000000e+000
      vertex -1.486000e+001  2.323498e+002  6.174889e+000
      vertex -1.500000e+001  2.300000e+002  5.000000e+000
    endloop
  endfacet
  facet normal -1.000000e+000  0.000000e+000  0.000000e+000
    outer loop
      vertex -1.500000e+001  2.300000e+002  1.000000e+000
      vertex -1.500000e+001  1.457315e+002  1.000000e+000
      vertex -1.500000e+001  2.300000e+002  5.000000e+000
    endloop
  endfacet
  facet normal -1.000000e+000  -0.000000e+000  0.000000e+000
    outer loop
      vertex -1.500000e+001  2.300000e+002  5.000000e+000
      vertex -1.500000e+001  1.457315e+002  1.000000e+000
      vertex -1.500000e+001  1.457315e+002  5.000000e+000
    endloop
  endfacet
  facet normal  9.510565e-001  0.000000e+000 -3.090169e-001
    outer loop
      vertex -3.350000e+000  1.300000e+002  5.000000e+000
      vertex -3.350000e+000  2.300000e+002  5.000000e+000
      vertex -2.710207e+000  1.300000e+002  6.969080e+000
    endloop
  endfacet
  facet normal  9.815028e-001  2.510144e-003 -1.914315e-001
    outer loop
      vertex -2.710207e+000  1.300000e+002  6.969080e+000
      vertex -3.350000e+000  2.300000e+002  5.000000e+000
      vertex -3.116736e+000  2.324564e+002  6.228192e+000
    endloop
  endfacet
  facet normal  8.409119e-001 -5.767580e-004 -5.411717e-001
    outer loop
      vertex -2.710207e+000  1.300000e+002  6.969080e+000
      vertex -3.116736e+000  2.324564e+002  6.228192e+000
      vertex -2.404486e+000  2.346652e+002  7.332584e+000
    endloop
  endfacet
  facet normal  5.877848e-001  1.092840e-003 -8.090166e-001
    outer loop
      vertex -2.710207e+000  1.300000e+002  6.969080e+000
      vertex -2.404486e+000  2.346652e+002  7.332584e+000
      vertex -1.035207e+000  1.300000e+002  8.186039e+000
    endloop
  endfacet
  facet normal  5.935954e-001  1.203544e-003 -8.047628e-001
    outer loop
      vertex -1.035207e+000  1.300000e+002  8.186039e+000
      vertex -2.404486e+000  2.346652e+002  7.332584e+000
      vertex -1.527099e+000  2.359634e+002  7.981688e+000
    endloop
  endfacet
  facet normal  3.188393e-001 -3.477664e-004 -9.478088e-001
    outer loop
      vertex -1.035207e+000  1.300000e+002  8.186039e+000
      vertex -1.527099e+000  2.359634e+002  7.981688e+000
      vertex -5.840457e-001  2.365974e+002  8.298696e+000
    endloop
  endfacet
  facet normal  0.000000e+000  1.056841e-003 -9.999995e-001
    outer loop
      vertex -1.035207e+000  1.300000e+002  8.186039e+000
      vertex -5.840457e-001  2.365974e+002  8.298696e+000
      vertex  1.035207e+000  1.300000e+002  8.186039e+000
    endloop
  endfacet
  facet normal  3.914532e-002  1.650662e-003 -9.992322e-001
    outer loop
      vertex  1.035207e+000  1.300000e+002  8.186039e+000
      vertex -5.840457e-001  2.365974e+002  8.298696e+000
      vertex  3.233285e-001  2.366687e+002  8.334360e+000
    endloop
  endfacet
  facet normal -2.264605e-001 -1.569768e-004 -9.740204e-001
    outer loop
      vertex  1.035207e+000  1.300000e+002  8.186039e+000
      vertex  3.233285e-001  2.366687e+002  8.334360e+000
      vertex  1.180358e+000  2.362703e+002  8.135164e+000
    endloop
  endfacet
  facet normal -5.877851e-001  4.155369e-004 -8.090169e-001
    outer loop
      vertex  1.035207e+000  1.300000e+002  8.186039e+000
      vertex  1.180358e+000  2.362703e+002  8.135164e+000
      vertex  2.710207e+000  1.300000e+002  6.969080e+000
    endloop
  endfacet
  facet normal -4.920276e-001  2.469521e-003 -8.705760e-001
    outer loop
      vertex  2.710207e+000  1.300000e+002  6.969080e+000
      vertex  1.180358e+000  2.362703e+002  8.135164e+000
      vertex  2.089855e+000  2.352364e+002  7.618207e+000
    endloop
  endfacet
  facet normal -7.513070e-001 -3.580717e-004 -6.599528e-001
    outer loop
      vertex  2.710207e+000  1.300000e+002  6.969080e+000
      vertex  2.089855e+000  2.352364e+002  7.618207e+000
      vertex  2.863922e+000  2.334759e+002  6.737944e+000
    endloop
  endfacet
  facet normal -9.630426e-001  0.000000e+000 -2.693490e-001
    outer loop
      vertex  3.350000e+000  2.300000e+002  5.000000e+000
      vertex  3.350000e+000  1.300000e+002  5.000000e+000
      vertex  2.863922e+000  2.334759e+002  6.737944e+000
    endloop
  endfacet
  facet normal -9.510563e-001  7.225521e-004 -3.090169e-001
    outer loop
      vertex  2.863922e+000  2.334759e+002  6.737944e+000
      vertex  3.350000e+000  1.300000e+002  5.000000e+000
      vertex  2.710207e+000  1.300000e+002  6.969080e+000
    endloop
  endfacet
  facet normal -9.510566e-001  0.000000e+000  3.090169e-001
    outer loop
      vertex  3.350000e+000  1.300000e+002  5.000000e+000
      vertex  3.350000e+000  2.300000e+002  5.000000e+000
      vertex  2.710207e+000  1.300000e+002  3.030919e+000
    endloop
  endfacet
  facet normal -9.510566e-001  0.000000e+000  3.090169e-001
    outer loop
      vertex  2.710207e+000  1.300000e+002  3.030919e+000
      vertex  3.350000e+000  2.300000e+002  5.000000e+000
      vertex  2.710207e+000  2.300000e+002  3.030919e+000
    endloop
  endfacet
  facet normal -5.877852e-001  0.000000e+000  8.090171e-001
    outer loop
      vertex  2.710207e+000  1.300000e+002  3.030919e+000
      vertex  2.710207e+000  2.300000e+002  3.030919e+000
      vertex  1.035207e+000  1.300000e+002  1.813961e+000
    endloop
  endfacet
  facet normal -5.877852e-001  0.000000e+000  8.090171e-001
    outer loop
      vertex  1.035207e+000  1.300000e+002  1.813961e+000
      vertex  2.710207e+000  2.300000e+002  3.030919e+000
      vertex  1.035207e+000  2.300000e+002  1.813961e+000
    endloop
  endfacet
  facet normal  0.000000e+000  0.000000e+000  1.000000e+000
    outer loop
      vertex  1.035207e+000  1.300000e+002  1.813961e+000
      vertex  1.035207e+000  2.300000e+002  1.813961e+000
      vertex -1.035207e+000  1.300000e+002  1.813961e+000
    endloop
  endfacet
  facet normal  0.000000e+000  0.000000e+000  1.000000e+000
    outer loop
      vertex -1.035207e+000  1.300000e+002  1.813961e+000
      vertex  1.035207e+000  2.300000e+002  1.813961e+000
      vertex -1.035207e+000  2.300000e+002  1.813961e+000
    endloop
  endfacet
  facet normal  5.877852e-001  0.000000e+000  8.090171e-001
    outer loop
      vertex -1.035207e+000  1.300000e+002  1.813961e+000
      vertex -1.035207e+000  2.300000e+002  1.813961e+000
      vertex -2.710207e+000  1.300000e+002  3.030919e+000
    endloop
  endfacet
  facet normal  5.877852e-001  -0.000000e+000  8.090171e-001
    outer loop
      vertex -2.710207e+000  1.300000e+002  3.030919e+000
      vertex -1.035207e+000  2.300000e+002  1.813961e+000
      vertex -2.710207e+000  2.300000e+002  3.030919e+000
    endloop
  endfacet
  facet normal  9.510566e-001  0.000000e+000  3.090169e-001
    outer loop
      vertex -2.710207e+000  1.300000e+002  3.030919e+000
      vertex -2.710207e+000  2.300000e+002  3.030919e+000
      vertex -3.350000e+000  1.300000e+002  5.000000e+000
    endloop
  endfacet
  facet normal  9.510566e-001  -0.000000e+000  3.090169e-001
    outer loop
      vertex -3.350000e+000  1.300000e+002  5.000000e+000
      vertex -2.710207e+000  2.300000e+002  3.030919e+000
      vertex -3.350000e+000  2.300000e+002  5.000000e+000
    endloop
  endfacet
  facet normal  -0.000000e+000 -1.000000e+000  0.000000e+000
    outer loop
      vertex  1.350000e+001  1.400000e+002 -1.598076e+000
      vertex  1.459808e+001  1.400000e+002 -5.000000e-001
      vertex  1.500000e+001  1.400000e+002  1.000000e+000
    endloop
  endfacet
  facet normal  0.000000e+000 -1.000000e+000  0.000000e+000
    outer loop
      vertex  3.912612e+000  1.400000e+002  1.000000e+001
      vertex  1.250000e+001  1.400000e+002  9.330127e+000
      vertex  1.000000e+001  1.400000e+002  1.000000e+001
    endloop
  endfacet
  facet normal  0.000000e+000 -1.000000e+000  0.000000e+000
    outer loop
      vertex  1.433013e+001  1.400000e+002  7.500000e+000
      vertex  1.250000e+001  1.400000e+002  9.330127e+000
      vertex  1.500000e+001  1.400000e+002  5.000000e+000
    endloop
  endfacet
  facet normal  0.000000e+000 -1.000000e+000  0.000000e+000
    outer loop
      vertex  1.500000e+001  1.400000e+002  5.000000e+000
      vertex  1.250000e+001  1.400000e+002  9.330127e+000
      vertex  3.912612e+000  1.400000e+002  1.000000e+001
    endloop
  endfacet
  facet normal  0.000000e+000 -1.000000e+000  0.000000e+000
    outer loop
      vertex  1.500000e+001  1.400000e+002  5.000000e+000
      vertex  3.912612e+000  1.400000e+002  1.000000e+001
      vertex  1.500000e+001  1.400000e+002  1.000000e+000
    endloop
  endfacet
  facet normal  -0.000000e+000 -1.000000e+000  0.000000e+000
    outer loop
      vertex  1.500000e+001  1.400000e+002  1.000000e+000
      vertex  3.912612e+000  1.400000e+002  1.000000e+001
      vertex  3.912612e+000  1.400000e+002 -2.000000e+000
    endloop
  endfacet
  facet normal  0.000000e+000 -1.000000e+000  0.000000e+000
    outer loop
      vertex  1.500000e+001  1.400000e+002  1.000000e+000
      vertex  3.912612e+000  1.400000e+002 -2.000000e+000
      vertex  1.350000e+001  1.400000e+002 -1.598076e+000
    endloop
  endfacet
  facet normal  0.000000e+000 -1.000000e+000  0.000000e+000
    outer loop
      vertex  1.350000e+001  1.400000e+002 -1.598076e+000
      vertex  3.912612e+000  1.400000e+002 -2.000000e+000
      vertex  1.200000e+001  1.400000e+002 -2.000000e+000
    endloop
  endfacet
  facet normal  1.000000e+000  -0.000000e+000  0.000000e+000
    outer loop
      vertex  3.912612e+000  1.400000e+002  1.000000e+001
      vertex  3.912612e+000  1.300000e+002  1.000000e+001
      vertex  3.912612e+000  1.400000e+002 -2.000000e+000
    endloop
  endfacet
  facet normal  1.000000e+000  0.000000e+000  0.000000e+000
    outer loop
      vertex  3.912612e+000  1.400000e+002 -2.000000e+000
      vertex  3.912612e+000  1.300000e+002  1.000000e+001
      vertex  3.912612e+000  1.300000e+002 -2.000000e+000
    endloop
  endfacet
  facet normal  0.000000e+000 -9.999999e-001  0.000000e+000
    outer loop
      vertex -7.386599e+000  1.300000e+002 -2.000000e+000
      vertex  3.912612e+000  1.300000e+002 -2.000000e+000
      vertex  1.035207e+000  1.300000e+002  1.813961e+000
    endloop
  endfacet
  facet normal  -0.000000e+000 -1.000000e+000  0.000000e+000
    outer loop
      vertex -7.386599e+000  1.300000e+002 -2.000000e+000
      vertex  1.035207e+000  1.300000e+002  1.813961e+000
      vertex -1.035207e+000  1.300000e+002  1.813961e+000
    endloop
  endfacet
  facet normal  -0.000000e+000 -1.000000e+000  0.000000e+000
    outer loop
      vertex -7.386599e+000  1.300000e+002 -2.000000e+000
      vertex -1.035207e+000  1.300000e+002  1.813961e+000
      vertex -2.710207e+000  1.300000e+002  3.030919e+000
    endloop
  endfacet
  facet normal  -0.000000e+000 -9.999999e-001  0.000000e+000
    outer loop
      vertex -7.386599e+000  1.300000e+002 -2.000000e+000
      vertex -2.710207e+000  1.300000e+002  3.030919e+000
      vertex -7.386599e+000  1.300000e+002  1.000000e+001
    endloop
  endfacet
  facet normal  0.000000e+000 -1.000000e+000  0.000000e+000
    outer loop
      vertex  3.912612e+000  1.300000e+002  1.000000e+001
      vertex -7.386599e+000  1.300000e+002  1.000000e+001
      vertex -1.035207e+000  1.300000e+002  8.186039e+000
    endloop
  endfacet
  facet normal  0.000000e+000 -9.999999e-001  0.000000e+000
    outer loop
      vertex  3.912612e+000  1.300000e+002  1.000000e+001
      vertex -1.035207e+000  1.300000e+002  8.186039e+000
      vertex  1.035207e+000  1.300000e+002  8.186039e+000
    endloop
  endfacet
  facet normal  0.000000e+000 -1.000000e+000  0.000000e+000
    outer loop
      vertex  3.912612e+000  1.300000e+002  1.000000e+001
      vertex  1.035207e+000  1.300000e+002  8.186039e+000
      vertex  2.710207e+000  1.300000e+002  6.969080e+000
    endloop
  endfacet
  facet normal  0.000000e+000 -1.000000e+000  0.000000e+000
    outer loop
      vertex  3.912612e+000  1.300000e+002  1.000000e+001
      vertex  2.710207e+000  1.300000e+002  6.969080e+000
      vertex  3.350000e+000  1.300000e+002  5.000000e+000
    endloop
  endfacet
  facet normal  0.000000e+000 -1.000000e+000  0.000000e+000
    outer loop
      vertex -7.386599e+000  1.300000e+002  1.000000e+001
      vertex -2.710207e+000  1.300000e+002  3.030919e+000
      vertex -3.350000e+000  1.300000e+002  5.000000e+000
    endloop
  endfacet
  facet normal  0.000000e+000 -1.000000e+000  0.000000e+000
    outer loop
      vertex -7.386599e+000  1.300000e+002  1.000000e+001
      vertex -3.350000e+000  1.300000e+002  5.000000e+000
      vertex -2.710207e+000  1.300000e+002  6.969080e+000
    endloop
  endfacet
  facet normal  0.000000e+000 -1.000000e+000  0.000000e+000
    outer loop
      vertex -7.386599e+000  1.300000e+002  1.000000e+001
      vertex -2.710207e+000  1.300000e+002  6.969080e+000
      vertex -1.035207e+000  1.300000e+002  8.186039e+000
    endloop
  endfacet
  facet normal  0.000000e+000 -9.999999e-001  -0.000000e+000
    outer loop
      vertex  3.912612e+000  1.300000e+002 -2.000000e+000
      vertex  3.912612e+000  1.300000e+002  1.000000e+001
      vertex  3.350000e+000  1.300000e+002  5.000000e+000
    endloop
  endfacet
  facet normal  0.000000e+000 -1.000000e+000  -0.000000e+000
    outer loop
      vertex  3.912612e+000  1.300000e+002 -2.000000e+000
      vertex  3.350000e+000  1.300000e+002  5.000000e+000
      vertex  2.710207e+000  1.300000e+002  3.030919e+000
    endloop
  endfacet
  facet normal  0.000000e+000 -1.000000e+000  -0.000000e+000
    outer loop
      vertex  3.912612e+000  1.300000e+002 -2.000000e+000
      vertex  2.710207e+000  1.300000e+002  3.030919e+000
      vertex  1.035207e+000  1.300000e+002  1.813961e+000
    endloop
  endfacet
  facet normal -1.000000e+000  -0.000000e+000  0.000000e+000
    outer loop
      vertex -7.386599e+000  1.300000e+002  1.000000e+001
      vertex -7.386599e+000  1.457315e+002  1.000000e+001
      vertex -7.386599e+000  1.300000e+002 -2.000000e+000
    endloop
  endfacet
  facet normal -1.000000e+000  0.000000e+000  0.000000e+000
    outer loop
      vertex -7.386599e+000  1.300000e+002 -2.000000e+000
      vertex -7.386599e+000  1.457315e+002  1.000000e+001
      vertex -7.386599e+000  1.457315e+002 -2.000000e+000
    endloop
  endfacet
  facet normal  0.000000e+000 -1.000000e+000  0.000000e+000
    outer loop
      vertex -1.500000e+001  1.457315e+002  1.000000e+000
      vertex -1.459808e+001  1.457315e+002 -5.000000e-001
      vertex -1.350000e+001  1.457315e+002 -1.598076e+000
    endloop
  endfacet
  facet normal  0.000000e+000 -1.000000e+000  0.000000e+000
    outer loop
      vertex -1.500000e+001  1.457315e+002  1.000000e+000
      vertex -1.350000e+001  1.457315e+002 -1.598076e+000
      vertex -1.200000e+001  1.457315e+002 -2.000000e+000
    endloop
  endfacet
  facet normal  0.000000e+000 -1.000000e+000  0.000000e+000
    outer loop
      vertex -1.500000e+001  1.457315e+002  1.000000e+000
      vertex -1.200000e+001  1.457315e+002 -2.000000e+000
      vertex -7.386599e+000  1.457315e+002 -2.000000e+000
    endloop
  endfacet
  facet normal  0.000000e+000 -1.000000e+000  0.000000e+000
    outer loop
      vertex -1.500000e+001  1.457315e+002  1.000000e+000
      vertex -7.386599e+000  1.457315e+002 -2.000000e+000
      vertex -7.386599e+000  1.457315e+002  1.000000e+001
    endloop
  endfacet
  facet normal  0.000000e+000 -1.000000e+000  0.000000e+000
    outer loop
      vertex -1.500000e+001  1.457315e+002  1.000000e+000
      vertex -7.386599e+000  1.457315e+002  1.000000e+001
      vertex -1.500000e+001  1.457315e+002  5.000000e+000
    endloop
  endfacet
  facet normal  0.000000e+000 -1.000000e+000  0.000000e+000
    outer loop
      vertex -1.433013e+001  1.457315e+002  7.500000e+000
      vertex -1.500000e+001  1.457315e+002  5.000000e+000
      vertex -1.250000e+001  1.457315e+002  9.330127e+000
    endloop
  endfacet
  facet normal  0.000000e+000 -1.000000e+000  -0.000000e+000
    outer loop
      vertex -1.250000e+001  1.457315e+002  9.330127e+000
      vertex -1.500000e+001  1.457315e+002  5.000000e+000
      vertex -7.386599e+000  1.457315e+002  1.000000e+001
    endloop
  endfacet
  facet normal  -0.000000e+000 -1.000000e+000  0.000000e+000
    outer loop
      vertex -1.250000e+001  1.457315e+002  9.330127e+000
      vertex -7.386599e+000  1.457315e+002  1.000000e+001
      vertex -1.000000e+001  1.457315e+002  1.000000e+001
    endloop
  endfacet
  facet normal  0.000000e+000  4.472136e-001 -8.944272e-001
    outer loop
      vertex  1.000000e+001  2.400000e+002  1.000000e+001
      vertex  1.500000e+001  2.300000e+002  5.000000e+000
      vertex  3.350000e+000  2.300000e+002  5.000000e+000
    endloop
  endfacet
  facet normal  4.573611e-007  4.472134e-001 -8.944273e-001
    outer loop
      vertex  1.000000e+001  2.400000e+002  1.000000e+001
      vertex  3.350000e+000  2.300000e+002  5.000000e+000
      vertex  2.863922e+000  2.334759e+002  6.737944e+000
    endloop
  endfacet
  facet normal  6.018212e-007  4.472132e-001 -8.944274e-001
    outer loop
      vertex  1.000000e+001  2.400000e+002  1.000000e+001
      vertex  2.863922e+000  2.334759e+002  6.737944e+000
      vertex  2.089855e+000  2.352364e+002  7.618207e+000
    endloop
  endfacet
  facet normal -1.412438e-006  4.472159e-001 -8.944260e-001
    outer loop
      vertex  1.000000e+001  2.400000e+002  1.000000e+001
      vertex  2.089855e+000  2.352364e+002  7.618207e+000
      vertex  1.180358e+000  2.362703e+002  8.135164e+000
    endloop
  endfacet
  facet normal -1.012874e-007  4.472134e-001 -8.944273e-001
    outer loop
      vertex  1.000000e+001  2.400000e+002  1.000000e+001
      vertex  1.180358e+000  2.362703e+002  8.135164e+000
      vertex  3.233285e-001  2.366687e+002  8.334360e+000
    endloop
  endfacet
  facet normal  6.143222e-006  4.471989e-001 -8.944345e-001
    outer loop
      vertex  1.000000e+001  2.400000e+002  1.000000e+001
      vertex  3.233285e-001  2.366687e+002  8.334360e+000
      vertex -5.840457e-001  2.365974e+002  8.298696e+000
    endloop
  endfacet
  facet normal  0.000000e+000  4.472142e-001 -8.944269e-001
    outer loop
      vertex -1.000000e+001  2.400000e+002  1.000000e+001
      vertex  1.000000e+001  2.400000e+002  1.000000e+001
      vertex -5.840457e-001  2.365974e+002  8.298696e+000
    endloop
  endfacet
  facet normal -8.091791e-007  4.472124e-001 -8.944278e-001
    outer loop
      vertex -1.000000e+001  2.400000e+002  1.000000e+001
      vertex -5.840457e-001  2.365974e+002  8.298696e+000
      vertex -1.527099e+000  2.359634e+002  7.981688e+000
    endloop
  endfacet
  facet normal -1.141697e-006  4.472119e-001 -8.944281e-001
    outer loop
      vertex -1.000000e+001  2.400000e+002  1.000000e+001
      vertex -1.527099e+000  2.359634e+002  7.981688e+000
      vertex -2.404486e+000  2.346652e+002  7.332584e+000
    endloop
  endfacet
  facet normal  1.868551e-006  4.472153e-001 -8.944263e-001
    outer loop
      vertex -1.000000e+001  2.400000e+002  1.000000e+001
      vertex -2.404486e+000  2.346652e+002  7.332584e+000
      vertex -3.116736e+000  2.324564e+002  6.228192e+000
    endloop
  endfacet
  facet normal -1.599279e-006  4.472128e-001 -8.944277e-001
    outer loop
      vertex -1.000000e+001  2.400000e+002  1.000000e+001
      vertex -3.116736e+000  2.324564e+002  6.228192e+000
      vertex -3.350000e+000  2.300000e+002  5.000000e+000
    endloop
  endfacet
  facet normal  0.000000e+000  4.472137e-001 -8.944271e-001
    outer loop
      vertex -3.350000e+000  2.300000e+002  5.000000e+000
      vertex -1.500000e+001  2.300000e+002  5.000000e+000
      vertex -1.486000e+001  2.323498e+002  6.174889e+000
    endloop
  endfacet
  facet normal -9.474063e-008  4.472134e-001 -8.944272e-001
    outer loop
      vertex -3.350000e+000  2.300000e+002  5.000000e+000
      vertex -1.486000e+001  2.323498e+002  6.174889e+000
      vertex -1.427883e+001  2.351736e+002  7.586822e+000
    endloop
  endfacet
  facet normal  3.983647e-007  4.472142e-001 -8.944269e-001
    outer loop
      vertex -3.350000e+000  2.300000e+002  5.000000e+000
      vertex -1.427883e+001  2.351736e+002  7.586822e+000
      vertex -1.331893e+001  2.374792e+002  8.739611e+000
    endloop
  endfacet
  facet normal -9.314437e-007  4.472128e-001 -8.944275e-001
    outer loop
      vertex -3.350000e+000  2.300000e+002  5.000000e+000
      vertex -1.331893e+001  2.374792e+002  8.739611e+000
      vertex -1.220215e+001  2.389779e+002  9.488936e+000
    endloop
  endfacet
  facet normal  1.785167e-006  4.472149e-001 -8.944265e-001
    outer loop
      vertex -3.350000e+000  2.300000e+002  5.000000e+000
      vertex -1.220215e+001  2.389779e+002  9.488936e+000
      vertex -1.104018e+001  2.397812e+002  9.890605e+000
    endloop
  endfacet
  facet normal -2.158231e-006  4.472124e-001 -8.944277e-001
    outer loop
      vertex -3.350000e+000  2.300000e+002  5.000000e+000
      vertex -1.104018e+001  2.397812e+002  9.890605e+000
      vertex -1.000000e+001  2.400000e+002  1.000000e+001
    endloop
  endfacet
  facet normal  2.749262e-006  4.472147e-001 -8.944267e-001
    outer loop
      vertex  1.500000e+001  2.300000e+002  5.000000e+000
      vertex  1.000000e+001  2.400000e+002  1.000000e+001
      vertex  1.104018e+001  2.397812e+002  9.890605e+000
    endloop
  endfacet
  facet normal -3.826506e-006  4.472126e-001 -8.944278e-001
    outer loop
      vertex  1.500000e+001  2.300000e+002  5.000000e+000
      vertex  1.104018e+001  2.397812e+002  9.890605e+000
      vertex  1.220215e+001  2.389779e+002  9.488936e+000
    endloop
  endfacet
  facet normal  3.719278e-006  4.472145e-001 -8.944268e-001
    outer loop
      vertex  1.500000e+001  2.300000e+002  5.000000e+000
      vertex  1.220215e+001  2.389779e+002  9.488936e+000
      vertex  1.331893e+001  2.374792e+002  8.739611e+000
    endloop
  endfacet
  facet normal -3.637440e-006  4.472131e-001 -8.944274e-001
    outer loop
      vertex  1.500000e+001  2.300000e+002  5.000000e+000
      vertex  1.331893e+001  2.374792e+002  8.739611e+000
      vertex  1.427883e+001  2.351736e+002  7.586822e+000
    endloop
  endfacet
  facet normal  3.306904e-006  4.472139e-001 -8.944271e-001
    outer loop
      vertex  1.500000e+001  2.300000e+002  5.000000e+000
      vertex  1.427883e+001  2.351736e+002  7.586822e+000
      vertex  1.486000e+001  2.323498e+002  6.174889e+000
    endloop
  endfacet
  facet normal  0.000000e+000  1.000000e+000  0.000000e+000
    outer loop
      vertex  1.035207e+000  2.300000e+002  1.813961e+000
      vertex  2.710207e+000  2.300000e+002  3.030919e+000
      vertex  1.200000e+001  2.300000e+002 -2.000000e+000
    endloop
  endfacet
  facet normal  0.000000e+000  9.999999e-001  0.000000e+000
    outer loop
      vertex  1.500000e+001  2.300000e+002  1.000000e+000
      vertex  1.459808e+001  2.300000e+002 -5.000000e-001
      vertex  1.500000e+001  2.300000e+002  5.000000e+000
    endloop
  endfacet
  facet normal  0.000000e+000  1.000000e+000  0.000000e+000
    outer loop
      vertex -1.200000e+001  2.300000e+002 -2.000000e+000
      vertex -3.350000e+000  2.300000e+002  5.000000e+000
      vertex -2.710207e+000  2.300000e+002  3.030919e+000
    endloop
  endfacet
  facet normal  0.000000e+000  1.000000e+000  0.000000e+000
    outer loop
      vertex -1.200000e+001  2.300000e+002 -2.000000e+000
      vertex -2.710207e+000  2.300000e+002  3.030919e+000
      vertex -1.035207e+000  2.300000e+002  1.813961e+000
    endloop
  endfacet
  facet normal  -0.000000e+000  1.000000e+000  0.000000e+000
    outer loop
      vertex -1.200000e+001  2.300000e+002 -2.000000e+000
      vertex -1.035207e+000  2.300000e+002  1.813961e+000
      vertex  1.035207e+000  2.300000e+002  1.813961e+000
    endloop
  endfacet
  facet normal  0.000000e+000  1.000000e+000  0.000000e+000
    outer loop
      vertex -1.200000e+001  2.300000e+002 -2.000000e+000
      vertex  1.035207e+000  2.300000e+002  1.813961e+000
      vertex  1.200000e+001  2.300000e+002 -2.000000e+000
    endloop
  endfacet
  facet normal  0.000000e+000  9.999999e-001  0.000000e+000
    outer loop
      vertex -1.500000e+001  2.300000e+002  1.000000e+000
      vertex -1.500000e+001  2.300000e+002  5.000000e+000
      vertex -1.459808e+001  2.300000e+002 -5.000000e-001
    endloop
  endfacet
  facet normal  0.000000e+000  1.000000e+000  -0.000000e+000
    outer loop
      vertex -1.459808e+001  2.300000e+002 -5.000000e-001
      vertex -1.500000e+001  2.300000e+002  5.000000e+000
      vertex -3.350000e+000  2.300000e+002  5.000000e+000
    endloop
  endfacet
  facet normal  0.000000e+000  1.000000e+000  0.000000e+000
    outer loop
      vertex -1.459808e+001  2.300000e+002 -5.000000e-001
      vertex -3.350000e+000  2.300000e+002  5.000000e+000
      vertex -1.350000e+001  2.300000e+002 -1.598076e+000
    endloop
  endfacet
  facet normal  -0.000000e+000  9.999999e-001  0.000000e+000
    outer loop
      vertex -1.350000e+001  2.300000e+002 -1.598076e+000
      vertex -3.350000e+000  2.300000e+002  5.000000e+000
      vertex -1.200000e+001  2.300000e+002 -2.000000e+000
    endloop
  endfacet
  facet normal  0.000000e+000  1.000000e+000  0.000000e+000
    outer loop
      vertex  2.710207e+000  2.300000e+002  3.030919e+000
      vertex  3.350000e+000  2.300000e+002  5.000000e+000
      vertex  1.200000e+001  2.300000e+002 -2.000000e+000
    endloop
  endfacet
  facet normal  0.000000e+000  1.000000e+000  -0.000000e+000
    outer loop
      vertex  1.200000e+001  2.300000e+002 -2.000000e+000
      vertex  3.350000e+000  2.300000e+002  5.000000e+000
      vertex  1.500000e+001  2.300000e+002  5.000000e+000
    endloop
  endfacet
  facet normal  0.000000e+000  1.000000e+000  0.000000e+000
    outer loop
      vertex  1.200000e+001  2.300000e+002 -2.000000e+000
      vertex  1.500000e+001  2.300000e+002  5.000000e+000
      vertex  1.350000e+001  2.300000e+002 -1.598076e+000
    endloop
  endfacet
  facet normal  0.000000e+000  1.000000e+000  0.000000e+000
    outer loop
      vertex  1.350000e+001  2.300000e+002 -1.598076e+000
      vertex  1.500000e+001  2.300000e+002  5.000000e+000
      vertex  1.459808e+001  2.300000e+002 -5.000000e-001
    endloop
  endfacet
endsolid CATIA STL
